<?xml version="1.0" encoding="UTF-8" standalone="no"?>
<!DOCTYPE svg PUBLIC "-//W3C//DTD SVG 1.1//EN"
 "http://www.w3.org/Graphics/SVG/1.1/DTD/svg11.dtd">
<!-- Generated by graphviz version 2.38.0 (20140413.2041)
 -->
<!-- Title: tomoBay.view.DataServlet Pages: 1 -->
<svg width="142pt" height="171pt"
 viewBox="0.00 0.00 142.00 171.00" xmlns="http://www.w3.org/2000/svg" xmlns:xlink="http://www.w3.org/1999/xlink">
<g id="graph0" class="graph" transform="scale(1 1) rotate(0) translate(4 167)">
<title>tomoBay.view.DataServlet</title>
<!-- Node1 -->
<g id="node1" class="node"><title>Node1</title>
<polygon fill="#bfbfbf" stroke="black" points="0,-0.5 0,-68.5 134,-68.5 134,-0.5 0,-0.5"/>
<text text-anchor="middle" x="67" y="-56.5" font-family="Helvetica,sans-Serif" font-size="10.00">tomoBay.view.DataServlet</text>
<polyline fill="none" stroke="black" points="0,-49.5 134,-49.5 "/>
<text text-anchor="start" x="8" y="-37.5" font-family="Helvetica,sans-Serif" font-size="10.00">&#45; serialVersionUID</text>
<polyline fill="none" stroke="black" points="0,-30.5 134,-30.5 "/>
<text text-anchor="start" x="8" y="-18.5" font-family="Helvetica,sans-Serif" font-size="10.00">+ DataServlet()</text>
<text text-anchor="start" x="8" y="-7.5" font-family="Helvetica,sans-Serif" font-size="10.00">+ doGet()</text>
</g>
<!-- Node2 -->
<g id="node2" class="node"><title>Node2</title>
<polygon fill="none" stroke="#bfbfbf" points="34,-105.5 34,-162.5 100,-162.5 100,-105.5 34,-105.5"/>
<text text-anchor="middle" x="67" y="-150.5" font-family="Helvetica,sans-Serif" font-size="10.00">HttpServlet</text>
<polyline fill="none" stroke="#bfbfbf" points="34,-143.5 100,-143.5 "/>
<text text-anchor="middle" x="67" y="-131.5" font-family="Helvetica,sans-Serif" font-size="10.00"> </text>
<polyline fill="none" stroke="#bfbfbf" points="34,-124.5 100,-124.5 "/>
<text text-anchor="middle" x="67" y="-112.5" font-family="Helvetica,sans-Serif" font-size="10.00"> </text>
</g>
<!-- Node2&#45;&gt;Node1 -->
<g id="edge1" class="edge"><title>Node2&#45;&gt;Node1</title>
<path fill="none" stroke="midnightblue" d="M67,-95.0631C67,-86.3933 67,-77.2431 67,-68.7855"/>
<polygon fill="none" stroke="midnightblue" points="63.5001,-95.3212 67,-105.321 70.5001,-95.3212 63.5001,-95.3212"/>
</g>
</g>
</svg>
