<?xml version="1.0" encoding="UTF-8" standalone="no"?>
<!DOCTYPE svg PUBLIC "-//W3C//DTD SVG 1.1//EN"
 "http://www.w3.org/Graphics/SVG/1.1/DTD/svg11.dtd">
<!-- Generated by graphviz version 2.38.0 (20140413.2041)
 -->
<!-- Title: tomoBay.presenters.helpers.SortOrders.reAssembleCategories Pages: 1 -->
<!--zoomable 88 -->
<svg id="main" version="1.1" xmlns="http://www.w3.org/2000/svg" xmlns:xlink="http://www.w3.org/1999/xlink" xml:space="preserve" onload="init(evt)">
<style type="text/css"><![CDATA[
.edge:hover path { stroke: red; }
.edge:hover polygon { stroke: red; fill: red; }
]]></style>
<script type="text/javascript"><![CDATA[
var edges = document.getElementsByTagName('g');
if (edges && edges.length) {
  for (var i=0;i<edges.length;i++) {
    if (edges[i].id.substr(0,4)=='edge') {
      edges[i].setAttribute('class','edge');
    }
  }
}
]]></script>
        <defs>
                <circle id="rim" cx="0" cy="0" r="7"/>
                <circle id="rim2" cx="0" cy="0" r="3.5"/>
                <g id="zoomPlus">
                        <use xlink:href="#rim" fill="#404040">
                                <set attributeName="fill" to="#808080" begin="zoomplus.mouseover" end="zoomplus.mouseout"/>
                        </use>
                        <path d="M-4,0h8M0,-4v8" fill="none" stroke="white" stroke-width="1.5" pointer-events="none"/>
                </g>
                <g id="zoomMin">
                        <use xlink:href="#rim" fill="#404040">
                                <set attributeName="fill" to="#808080" begin="zoomminus.mouseover" end="zoomminus.mouseout"/>
                        </use>
                        <path d="M-4,0h8" fill="none" stroke="white" stroke-width="1.5" pointer-events="none"/>
                </g>
                <g id="dirArrow">
                        <path fill="none" stroke="white" stroke-width="1.5" d="M0,-3.0v7 M-2.5,-0.5L0,-3.0L2.5,-0.5"/>
                </g>
               <g id="resetDef">
                       <use xlink:href="#rim2" fill="#404040">
                               <set attributeName="fill" to="#808080" begin="reset.mouseover" end="reset.mouseout"/>
                       </use>
               </g>
        </defs>

<script type="text/javascript">
var viewWidth = 713;
var viewHeight = 88;
var sectionId = 'dynsection-1';
</script>
<script xlink:href="svgpan.js"/>
<svg id="graph" class="graph">
<g id="viewport">
<title>tomoBay.presenters.helpers.SortOrders.reAssembleCategories</title>
<!-- Node1 -->
<g id="node1" class="node"><title>Node1</title>
<polygon fill="#bfbfbf" stroke="black" points="0,-24.5 0,-54.5 166,-54.5 166,-24.5 0,-24.5"/>
<text text-anchor="start" x="8" y="-42.5" font-family="Helvetica,sans-Serif" font-size="10.00">tomoBay.presenters.helpers.</text>
<text text-anchor="middle" x="83" y="-31.5" font-family="Helvetica,sans-Serif" font-size="10.00">SortOrders.reAssembleCategories</text>
</g>
<!-- Node2 -->
<g id="node2" class="node"><title>Node2</title>
<g id="a_node2"><a xlink:href="classtomoBay_1_1presenters_1_1helpers_1_1SortOrders.html#af4a1f2e66b6b9943b7d4577f6d3ec108" target="_top" xlink:title="tomoBay.presenters.helpers.\lSortOrders.sortByPickeability">
<polygon fill="none" stroke="black" points="202,-49.5 202,-79.5 348,-79.5 348,-49.5 202,-49.5"/>
<text text-anchor="start" x="210" y="-67.5" font-family="Helvetica,sans-Serif" font-size="10.00">tomoBay.presenters.helpers.</text>
<text text-anchor="middle" x="275" y="-56.5" font-family="Helvetica,sans-Serif" font-size="10.00">SortOrders.sortByPickeability</text>
</a>
</g>
</g>
<!-- Node1&#45;&gt;Node2 -->
<g id="edge1" class="edge"><title>Node1&#45;&gt;Node2</title>
<path fill="none" stroke="midnightblue" d="M176.264,-51.64C184.836,-52.7679 193.438,-53.8998 201.79,-54.9987"/>
<polygon fill="midnightblue" stroke="midnightblue" points="176.603,-48.1545 166.232,-50.32 175.69,-55.0947 176.603,-48.1545"/>
</g>
<!-- Node5 -->
<g id="node5" class="node"><title>Node5</title>
<g id="a_node5"><a xlink:href="classtomoBay_1_1presenters_1_1helpers_1_1SortOrders.html#aac7dc3680af2b5d1462a19cd4f262f89" target="_top" xlink:title="tomoBay.presenters.helpers.\lSortOrders.sortByShipping">
<polygon fill="none" stroke="black" points="204,-0.5 204,-30.5 346,-30.5 346,-0.5 204,-0.5"/>
<text text-anchor="start" x="212" y="-18.5" font-family="Helvetica,sans-Serif" font-size="10.00">tomoBay.presenters.helpers.</text>
<text text-anchor="middle" x="275" y="-7.5" font-family="Helvetica,sans-Serif" font-size="10.00">SortOrders.sortByShipping</text>
</a>
</g>
</g>
<!-- Node1&#45;&gt;Node5 -->
<g id="edge4" class="edge"><title>Node1&#45;&gt;Node5</title>
<path fill="none" stroke="midnightblue" d="M176.269,-27.845C185.547,-26.673 194.86,-25.4967 203.853,-24.3607"/>
<polygon fill="midnightblue" stroke="midnightblue" points="175.714,-24.3871 166.232,-29.1128 176.592,-31.332 175.714,-24.3871"/>
</g>
<!-- Node3 -->
<g id="node3" class="node"><title>Node3</title>
<g id="a_node3"><a xlink:href="classtomoBay_1_1presenters_1_1helpers_1_1SortOrders.html#a38a09bf83f65ff656d06b9d45046872c" target="_top" xlink:title="tomoBay.presenters.helpers.\lSortOrders.sortDefault">
<polygon fill="none" stroke="black" points="384,-24.5 384,-54.5 526,-54.5 526,-24.5 384,-24.5"/>
<text text-anchor="start" x="392" y="-42.5" font-family="Helvetica,sans-Serif" font-size="10.00">tomoBay.presenters.helpers.</text>
<text text-anchor="middle" x="455" y="-31.5" font-family="Helvetica,sans-Serif" font-size="10.00">SortOrders.sortDefault</text>
</a>
</g>
</g>
<!-- Node2&#45;&gt;Node3 -->
<g id="edge2" class="edge"><title>Node2&#45;&gt;Node3</title>
<path fill="none" stroke="midnightblue" d="M358.14,-52.9634C366.706,-51.7603 375.358,-50.5453 383.774,-49.3631"/>
<polygon fill="midnightblue" stroke="midnightblue" points="357.559,-49.5107 348.143,-54.3676 358.532,-56.4426 357.559,-49.5107"/>
</g>
<!-- Node4 -->
<g id="node4" class="node"><title>Node4</title>
<g id="a_node4"><a xlink:href="classtomoBay_1_1presenters_1_1sales_1_1SalesOrderPresenter.html#a31856dda6e4861a1e7be0c6045e54533" target="_top" xlink:title="tomoBay.presenters.sales.\lSalesOrderPresenter.present">
<polygon fill="none" stroke="black" points="562,-24.5 562,-54.5 705,-54.5 705,-24.5 562,-24.5"/>
<text text-anchor="start" x="570" y="-42.5" font-family="Helvetica,sans-Serif" font-size="10.00">tomoBay.presenters.sales.</text>
<text text-anchor="middle" x="633.5" y="-31.5" font-family="Helvetica,sans-Serif" font-size="10.00">SalesOrderPresenter.present</text>
</a>
</g>
</g>
<!-- Node3&#45;&gt;Node4 -->
<g id="edge3" class="edge"><title>Node3&#45;&gt;Node4</title>
<path fill="none" stroke="midnightblue" d="M536.088,-39.5C544.73,-39.5 553.478,-39.5 561.996,-39.5"/>
<polygon fill="midnightblue" stroke="midnightblue" points="536.011,-36.0001 526.011,-39.5 536.011,-43.0001 536.011,-36.0001"/>
</g>
<!-- Node5&#45;&gt;Node3 -->
<g id="edge5" class="edge"><title>Node5&#45;&gt;Node3</title>
<path fill="none" stroke="midnightblue" d="M356.108,-26.3011C365.401,-27.5541 374.825,-28.8248 383.969,-30.0576"/>
<polygon fill="midnightblue" stroke="midnightblue" points="356.473,-22.8187 346.095,-24.951 355.537,-29.7559 356.473,-22.8187"/>
</g>
</g>
</svg>
        <g id="navigator" transform="translate(0 0)" fill="#404254">
                <rect fill="#f2f5e9" fill-opacity="0.5" stroke="#606060" stroke-width=".5" x="0" y="0" width="60" height="60"/>
                <use id="zoomplus" xlink:href="#zoomPlus" x="17" y="9" onmousedown="handleZoom(evt,'in')"/>
                <use id="zoomminus" xlink:href="#zoomMin" x="42" y="9" onmousedown="handleZoom(evt,'out')"/>
                <use id="reset" xlink:href="#resetDef" x="30" y="36" onmousedown="handleReset()"/>
                <g id="arrowUp" xlink:href="#dirArrow" transform="translate(30 24)" onmousedown="handlePan(0,-1)">
                  <use xlink:href="#rim" fill="#404040">
                        <set attributeName="fill" to="#808080" begin="arrowUp.mouseover" end="arrowUp.mouseout"/>
                  </use>
                  <path fill="none" stroke="white" stroke-width="1.5" d="M0,-3.0v7 M-2.5,-0.5L0,-3.0L2.5,-0.5"/>
                </g>
                <g id="arrowRight" xlink:href="#dirArrow" transform="rotate(90) translate(36 -43)" onmousedown="handlePan(1,0)">
                  <use xlink:href="#rim" fill="#404040">
                        <set attributeName="fill" to="#808080" begin="arrowRight.mouseover" end="arrowRight.mouseout"/>
                  </use>
                  <path fill="none" stroke="white" stroke-width="1.5" d="M0,-3.0v7 M-2.5,-0.5L0,-3.0L2.5,-0.5"/>
                </g>
                <g id="arrowDown" xlink:href="#dirArrow" transform="rotate(180) translate(-30 -48)" onmousedown="handlePan(0,1)">
                  <use xlink:href="#rim" fill="#404040">
                        <set attributeName="fill" to="#808080" begin="arrowDown.mouseover" end="arrowDown.mouseout"/>
                  </use>
                  <path fill="none" stroke="white" stroke-width="1.5" d="M0,-3.0v7 M-2.5,-0.5L0,-3.0L2.5,-0.5"/>
                </g>
                <g id="arrowLeft" xlink:href="#dirArrow" transform="rotate(270) translate(-36 17)" onmousedown="handlePan(-1,0)">
                  <use xlink:href="#rim" fill="#404040">
                        <set attributeName="fill" to="#808080" begin="arrowLeft.mouseover" end="arrowLeft.mouseout"/>
                  </use>
                  <path fill="none" stroke="white" stroke-width="1.5" d="M0,-3.0v7 M-2.5,-0.5L0,-3.0L2.5,-0.5"/>
                </g>
        </g>
        <svg viewBox="0 0 15 15" width="100%" height="30px" preserveAspectRatio="xMaxYMin meet">
         <g id="arrow_out" transform="scale(0.3 0.3)">
          <a xlink:href="classtomoBay_1_1presenters_1_1helpers_1_1SortOrders_a8c887c8319bc374c00b40b6853be962b_icgraph_org.svg" target="_base">
           <rect id="button" ry="5" rx="5" y="6" x="6" height="38" width="38"
                fill="#f2f5e9" fill-opacity="0.5" stroke="#606060" stroke-width="1.0"/>
           <path id="arrow"
             d="M 11.500037,31.436501 C 11.940474,20.09759 22.043105,11.32322 32.158766,21.979434 L 37.068811,17.246167 C 37.068811,17.246167 37.088388,32 37.088388,32 L 22.160133,31.978069 C 22.160133,31.978069 26.997745,27.140456 26.997745,27.140456 C 18.528582,18.264221 13.291696,25.230495 11.500037,31.436501 z"
             style="fill:#404040;"/>
          </a>
         </g>
        </svg>
</svg>
