<?xml version="1.0" encoding="UTF-8" standalone="no"?>
<!DOCTYPE svg PUBLIC "-//W3C//DTD SVG 1.1//EN"
 "http://www.w3.org/Graphics/SVG/1.1/DTD/svg11.dtd">
<!-- Generated by graphviz version 2.38.0 (20140413.2041)
 -->
<!-- Title: tomoBay.model.eBayAPI.ItemCall Pages: 1 -->
<svg width="390pt" height="204pt"
 viewBox="0.00 0.00 390.50 204.00" xmlns="http://www.w3.org/2000/svg" xmlns:xlink="http://www.w3.org/1999/xlink">
<g id="graph0" class="graph" transform="scale(1 1) rotate(0) translate(4 200)">
<title>tomoBay.model.eBayAPI.ItemCall</title>
<!-- Node1 -->
<g id="node1" class="node"><title>Node1</title>
<polygon fill="#bfbfbf" stroke="black" points="136,-0.5 136,-68.5 303,-68.5 303,-0.5 136,-0.5"/>
<text text-anchor="middle" x="219.5" y="-56.5" font-family="Helvetica,sans-Serif" font-size="10.00">tomoBay.model.eBayAPI.ItemCall</text>
<polyline fill="none" stroke="black" points="136,-49.5 303,-49.5 "/>
<text text-anchor="middle" x="219.5" y="-37.5" font-family="Helvetica,sans-Serif" font-size="10.00"> </text>
<polyline fill="none" stroke="black" points="136,-30.5 303,-30.5 "/>
<text text-anchor="start" x="144" y="-18.5" font-family="Helvetica,sans-Serif" font-size="10.00">+ ItemCall()</text>
<text text-anchor="start" x="144" y="-7.5" font-family="Helvetica,sans-Serif" font-size="10.00">+ call()</text>
</g>
<!-- Node2 -->
<g id="node2" class="node"><title>Node2</title>
<g id="a_node2"><a xlink:href="classtomoBay_1_1model_1_1eBayAPI_1_1AbstractAPIcall.html" target="_top" xlink:title="{tomoBay.model.eBayAPI.Abstract\lAPIcall\n|# usrToken_M\l# server_M\l|# AbstractAPIcall()\l}">
<polygon fill="none" stroke="black" points="0,-116.5 0,-195.5 167,-195.5 167,-116.5 0,-116.5"/>
<text text-anchor="start" x="8" y="-183.5" font-family="Helvetica,sans-Serif" font-size="10.00">tomoBay.model.eBayAPI.Abstract</text>
<text text-anchor="middle" x="83.5" y="-172.5" font-family="Helvetica,sans-Serif" font-size="10.00">APIcall</text>
<polyline fill="none" stroke="black" points="0,-165.5 167,-165.5 "/>
<text text-anchor="start" x="8" y="-153.5" font-family="Helvetica,sans-Serif" font-size="10.00"># usrToken_M</text>
<text text-anchor="start" x="8" y="-142.5" font-family="Helvetica,sans-Serif" font-size="10.00"># server_M</text>
<polyline fill="none" stroke="black" points="0,-135.5 167,-135.5 "/>
<text text-anchor="start" x="8" y="-123.5" font-family="Helvetica,sans-Serif" font-size="10.00"># AbstractAPIcall()</text>
</a>
</g>
</g>
<!-- Node2&#45;&gt;Node1 -->
<g id="edge1" class="edge"><title>Node2&#45;&gt;Node1</title>
<path fill="none" stroke="midnightblue" d="M135.531,-109.281C150.826,-95.8423 167.263,-81.3998 181.503,-68.8867"/>
<polygon fill="none" stroke="midnightblue" points="132.857,-106.972 127.655,-116.202 137.478,-112.23 132.857,-106.972"/>
</g>
<!-- Node3 -->
<g id="node3" class="node"><title>Node3</title>
<polygon fill="none" stroke="#bfbfbf" points="185,-127.5 185,-184.5 254,-184.5 254,-127.5 185,-127.5"/>
<text text-anchor="middle" x="219.5" y="-172.5" font-family="Helvetica,sans-Serif" font-size="10.00">GetItemCall</text>
<polyline fill="none" stroke="#bfbfbf" points="185,-165.5 254,-165.5 "/>
<text text-anchor="middle" x="219.5" y="-153.5" font-family="Helvetica,sans-Serif" font-size="10.00"> </text>
<polyline fill="none" stroke="#bfbfbf" points="185,-146.5 254,-146.5 "/>
<text text-anchor="middle" x="219.5" y="-134.5" font-family="Helvetica,sans-Serif" font-size="10.00"> </text>
</g>
<!-- Node3&#45;&gt;Node1 -->
<g id="edge2" class="edge"><title>Node3&#45;&gt;Node1</title>
<path fill="none" stroke="#404040" d="M219.5,-127.284C219.5,-113.465 219.5,-96.4009 219.5,-80.7494"/>
<polygon fill="none" stroke="#404040" points="219.5,-80.5891 215.5,-74.5891 219.5,-68.5891 223.5,-74.589 219.5,-80.5891"/>
<text text-anchor="middle" x="240.5" y="-90" font-family="Helvetica,sans-Serif" font-size="10.00"> ~item_M</text>
</g>
<!-- Node4 -->
<g id="node4" class="node"><title>Node4</title>
<polygon fill="none" stroke="#bfbfbf" points="272.5,-127.5 272.5,-184.5 382.5,-184.5 382.5,-127.5 272.5,-127.5"/>
<text text-anchor="middle" x="327.5" y="-172.5" font-family="Helvetica,sans-Serif" font-size="10.00">GetItemRequestType</text>
<polyline fill="none" stroke="#bfbfbf" points="272.5,-165.5 382.5,-165.5 "/>
<text text-anchor="middle" x="327.5" y="-153.5" font-family="Helvetica,sans-Serif" font-size="10.00"> </text>
<polyline fill="none" stroke="#bfbfbf" points="272.5,-146.5 382.5,-146.5 "/>
<text text-anchor="middle" x="327.5" y="-134.5" font-family="Helvetica,sans-Serif" font-size="10.00"> </text>
</g>
<!-- Node4&#45;&gt;Node1 -->
<g id="edge3" class="edge"><title>Node4&#45;&gt;Node1</title>
<path fill="none" stroke="#404040" d="M302.451,-127.284C289.097,-112.507 272.388,-94.0199 257.474,-77.517"/>
<polygon fill="none" stroke="#404040" points="257.451,-77.4919 250.46,-75.7225 249.405,-68.5891 256.395,-70.3585 257.451,-77.4919"/>
<text text-anchor="middle" x="301" y="-90" font-family="Helvetica,sans-Serif" font-size="10.00"> ~itemreq_M</text>
</g>
</g>
</svg>
