<?xml version="1.0" encoding="UTF-8" standalone="no"?>
<!DOCTYPE svg PUBLIC "-//W3C//DTD SVG 1.1//EN"
 "http://www.w3.org/Graphics/SVG/1.1/DTD/svg11.dtd">
<!-- Generated by graphviz version 2.38.0 (20140413.2041)
 -->
<!-- Title: tomoBay.helpers.BrandToCode.convert Pages: 1 -->
<svg width="996pt" height="285pt"
 viewBox="0.00 0.00 996.00 285.00" xmlns="http://www.w3.org/2000/svg" xmlns:xlink="http://www.w3.org/1999/xlink">
<g id="graph0" class="graph" transform="scale(1 1) rotate(0) translate(4 281)">
<title>tomoBay.helpers.BrandToCode.convert</title>
<!-- Node1 -->
<g id="node1" class="node"><title>Node1</title>
<polygon fill="#bfbfbf" stroke="black" points="0,-129 0,-148 188,-148 188,-129 0,-129"/>
<text text-anchor="middle" x="94" y="-136" font-family="Helvetica,sans-Serif" font-size="10.00">tomoBay.helpers.BrandToCode.convert</text>
</g>
<!-- Node2 -->
<g id="node2" class="node"><title>Node2</title>
<g id="a_node2"><a xlink:href="classtomoBay_1_1model_1_1services_1_1stockUpdate_1_1StockRequired.html#af34f448b2e06ca4c1a6b6b9eab4151ee" target="_top" xlink:title="tomoBay.model.services.stock\lUpdate.StockRequired.calculate">
<polygon fill="none" stroke="black" points="264.5,-246.5 264.5,-276.5 422.5,-276.5 422.5,-246.5 264.5,-246.5"/>
<text text-anchor="start" x="272.5" y="-264.5" font-family="Helvetica,sans-Serif" font-size="10.00">tomoBay.model.services.stock</text>
<text text-anchor="middle" x="343.5" y="-253.5" font-family="Helvetica,sans-Serif" font-size="10.00">Update.StockRequired.calculate</text>
</a>
</g>
</g>
<!-- Node1&#45;&gt;Node2 -->
<g id="edge1" class="edge"><title>Node1&#45;&gt;Node2</title>
<path fill="none" stroke="midnightblue" d="M113.014,-154.929C136.745,-175.72 180.576,-211.253 224,-231.5 236.887,-237.509 251.145,-242.427 265.174,-246.414"/>
<polygon fill="midnightblue" stroke="midnightblue" points="115.291,-152.27 105.492,-148.24 110.639,-157.501 115.291,-152.27"/>
</g>
<!-- Node3 -->
<g id="node3" class="node"><title>Node3</title>
<g id="a_node3"><a xlink:href="classtomoBay_1_1model_1_1services_1_1stockUpdate_1_1StockUpdateService.html#a4ca5d3569102ee0441f7f5548ea297b0" target="_top" xlink:title="tomoBay.model.services.stock\lUpdate.StockUpdateService.run">
<polygon fill="none" stroke="black" points="537.5,-224.5 537.5,-254.5 695.5,-254.5 695.5,-224.5 537.5,-224.5"/>
<text text-anchor="start" x="545.5" y="-242.5" font-family="Helvetica,sans-Serif" font-size="10.00">tomoBay.model.services.stock</text>
<text text-anchor="middle" x="616.5" y="-231.5" font-family="Helvetica,sans-Serif" font-size="10.00">Update.StockUpdateService.run</text>
</a>
</g>
</g>
<!-- Node1&#45;&gt;Node3 -->
<g id="edge11" class="edge"><title>Node1&#45;&gt;Node3</title>
<path fill="none" stroke="midnightblue" d="M119.933,-153.143C145.242,-167.262 186.003,-187.99 224,-198.5 329.882,-227.786 457.158,-236.459 537.211,-238.859"/>
<polygon fill="midnightblue" stroke="midnightblue" points="121.452,-149.981 111.028,-148.091 117.998,-156.07 121.452,-149.981"/>
</g>
<!-- Node4 -->
<g id="node4" class="node"><title>Node4</title>
<g id="a_node4"><a xlink:href="classtomoBay_1_1model_1_1services_1_1individualItemRefresh_1_1ReCalculateAvailableStock.html#a96fe253ce37a93d8ec8ee54504e1da9f" target="_top" xlink:title="tomoBay.model.services.individual\lItemRefresh.ReCalculateAvailableStock.calculate">
<polygon fill="none" stroke="black" points="499,-49.5 499,-79.5 734,-79.5 734,-49.5 499,-49.5"/>
<text text-anchor="start" x="507" y="-67.5" font-family="Helvetica,sans-Serif" font-size="10.00">tomoBay.model.services.individual</text>
<text text-anchor="middle" x="616.5" y="-56.5" font-family="Helvetica,sans-Serif" font-size="10.00">ItemRefresh.ReCalculateAvailableStock.calculate</text>
</a>
</g>
</g>
<!-- Node1&#45;&gt;Node4 -->
<g id="edge3" class="edge"><title>Node1&#45;&gt;Node4</title>
<path fill="none" stroke="midnightblue" d="M118.955,-123.782C144.083,-109.221 185.239,-87.8027 224,-78.5 314.438,-56.7944 419.97,-54.2833 498.663,-56.6537"/>
<polygon fill="midnightblue" stroke="midnightblue" points="116.976,-120.887 110.148,-128.988 120.537,-126.913 116.976,-120.887"/>
</g>
<!-- Node6 -->
<g id="node6" class="node"><title>Node6</title>
<g id="a_node6"><a xlink:href="classtomoBay_1_1model_1_1services_1_1invoiceOrderService_1_1CalculateInvoiceStatus.html#a36bda615a95d80b2d5d3b24e04f6ae96" target="_top" xlink:title="tomoBay.model.services.invoice\lOrderService.CalculateInvoiceStatus.check\lStockLevelOfItems">
<polygon fill="none" stroke="black" points="240,-148 240,-189 447,-189 447,-148 240,-148"/>
<text text-anchor="start" x="248" y="-177" font-family="Helvetica,sans-Serif" font-size="10.00">tomoBay.model.services.invoice</text>
<text text-anchor="start" x="248" y="-166" font-family="Helvetica,sans-Serif" font-size="10.00">OrderService.CalculateInvoiceStatus.check</text>
<text text-anchor="middle" x="343.5" y="-155" font-family="Helvetica,sans-Serif" font-size="10.00">StockLevelOfItems</text>
</a>
</g>
</g>
<!-- Node1&#45;&gt;Node6 -->
<g id="edge5" class="edge"><title>Node1&#45;&gt;Node6</title>
<path fill="none" stroke="midnightblue" d="M183.606,-149.24C201.748,-151.439 220.989,-153.771 239.584,-156.025"/>
<polygon fill="midnightblue" stroke="midnightblue" points="183.999,-145.762 173.651,-148.033 183.157,-152.711 183.999,-145.762"/>
</g>
<!-- Node9 -->
<g id="node9" class="node"><title>Node9</title>
<g id="a_node9"><a xlink:href="classtomoBay_1_1model_1_1services_1_1individualItemRefresh_1_1RePopulateEbayItem.html#a98a1d6b2dd721103e85213f3e65e9952" target="_top" xlink:title="tomoBay.model.services.individual\lItemRefresh.RePopulateEbayItem.reset\lBrandTable">
<polygon fill="none" stroke="black" points="248,-88 248,-129 439,-129 439,-88 248,-88"/>
<text text-anchor="start" x="256" y="-117" font-family="Helvetica,sans-Serif" font-size="10.00">tomoBay.model.services.individual</text>
<text text-anchor="start" x="256" y="-106" font-family="Helvetica,sans-Serif" font-size="10.00">ItemRefresh.RePopulateEbayItem.reset</text>
<text text-anchor="middle" x="343.5" y="-95" font-family="Helvetica,sans-Serif" font-size="10.00">BrandTable</text>
</a>
</g>
</g>
<!-- Node1&#45;&gt;Node9 -->
<g id="edge9" class="edge"><title>Node1&#45;&gt;Node9</title>
<path fill="none" stroke="midnightblue" d="M183.701,-127.748C204.431,-125.236 226.591,-122.55 247.58,-120.005"/>
<polygon fill="midnightblue" stroke="midnightblue" points="183.157,-124.289 173.651,-128.967 183.999,-131.238 183.157,-124.289"/>
</g>
<!-- Node10 -->
<g id="node10" class="node"><title>Node10</title>
<g id="a_node10"><a xlink:href="classtomoBay_1_1model_1_1services_1_1individualItemRefresh_1_1ReCalculateRequiredStock.html#ad98eddf85b6775466de64576a5eff165" target="_top" xlink:title="tomoBay.model.services.individual\lItemRefresh.ReCalculateRequiredStock.updateDB">
<polygon fill="none" stroke="black" points="224,-0.5 224,-30.5 463,-30.5 463,-0.5 224,-0.5"/>
<text text-anchor="start" x="232" y="-18.5" font-family="Helvetica,sans-Serif" font-size="10.00">tomoBay.model.services.individual</text>
<text text-anchor="middle" x="343.5" y="-7.5" font-family="Helvetica,sans-Serif" font-size="10.00">ItemRefresh.ReCalculateRequiredStock.updateDB</text>
</a>
</g>
</g>
<!-- Node1&#45;&gt;Node10 -->
<g id="edge12" class="edge"><title>Node1&#45;&gt;Node10</title>
<path fill="none" stroke="midnightblue" d="M113.014,-122.071C136.745,-101.28 180.576,-65.7471 224,-45.5 236.887,-39.4914 251.145,-34.573 265.174,-30.5858"/>
<polygon fill="midnightblue" stroke="midnightblue" points="110.639,-119.499 105.492,-128.76 115.291,-124.73 110.639,-119.499"/>
</g>
<!-- Node2&#45;&gt;Node3 -->
<g id="edge2" class="edge"><title>Node2&#45;&gt;Node3</title>
<path fill="none" stroke="midnightblue" d="M432.8,-254.332C466.414,-251.603 504.456,-248.515 537.091,-245.865"/>
<polygon fill="midnightblue" stroke="midnightblue" points="432.205,-250.868 422.521,-255.166 432.771,-257.845 432.205,-250.868"/>
</g>
<!-- Node5 -->
<g id="node5" class="node"><title>Node5</title>
<g id="a_node5"><a xlink:href="classtomoBay_1_1model_1_1services_1_1individualItemRefresh_1_1IndividualItemRefreshService.html#a579244b8909621f27fc4871a532f87ee" target="_top" xlink:title="tomoBay.model.services.individual\lItemRefresh.IndividualItemRefreshService.run">
<polygon fill="none" stroke="black" points="770,-49.5 770,-79.5 988,-79.5 988,-49.5 770,-49.5"/>
<text text-anchor="start" x="778" y="-67.5" font-family="Helvetica,sans-Serif" font-size="10.00">tomoBay.model.services.individual</text>
<text text-anchor="middle" x="879" y="-56.5" font-family="Helvetica,sans-Serif" font-size="10.00">ItemRefresh.IndividualItemRefreshService.run</text>
</a>
</g>
</g>
<!-- Node4&#45;&gt;Node5 -->
<g id="edge4" class="edge"><title>Node4&#45;&gt;Node5</title>
<path fill="none" stroke="midnightblue" d="M744.122,-64.5C752.73,-64.5 761.359,-64.5 769.858,-64.5"/>
<polygon fill="midnightblue" stroke="midnightblue" points="744.035,-61.0001 734.035,-64.5 744.035,-68.0001 744.035,-61.0001"/>
</g>
<!-- Node7 -->
<g id="node7" class="node"><title>Node7</title>
<g id="a_node7"><a xlink:href="classtomoBay_1_1model_1_1services_1_1invoiceOrderService_1_1CalculateInvoiceStatus.html#ad6339cffa2c8fa1f1030aa611eda0073" target="_top" xlink:title="tomoBay.model.services.invoice\lOrderService.CalculateInvoiceStatus.status">
<polygon fill="none" stroke="black" points="512.5,-153.5 512.5,-183.5 720.5,-183.5 720.5,-153.5 512.5,-153.5"/>
<text text-anchor="start" x="520.5" y="-171.5" font-family="Helvetica,sans-Serif" font-size="10.00">tomoBay.model.services.invoice</text>
<text text-anchor="middle" x="616.5" y="-160.5" font-family="Helvetica,sans-Serif" font-size="10.00">OrderService.CalculateInvoiceStatus.status</text>
</a>
</g>
</g>
<!-- Node6&#45;&gt;Node7 -->
<g id="edge6" class="edge"><title>Node6&#45;&gt;Node7</title>
<path fill="none" stroke="midnightblue" d="M457.381,-161.834C475.576,-161.698 494.33,-161.727 512.281,-161.923"/>
<polygon fill="midnightblue" stroke="midnightblue" points="457.307,-158.335 447.34,-161.927 457.372,-165.334 457.307,-158.335"/>
</g>
<!-- Node7&#45;&gt;Node6 -->
<g id="edge7" class="edge"><title>Node7&#45;&gt;Node6</title>
<path fill="none" stroke="midnightblue" d="M502.234,-175.169C484.032,-175.303 465.28,-175.271 447.34,-175.073"/>
<polygon fill="midnightblue" stroke="midnightblue" points="502.313,-178.668 512.281,-175.077 502.249,-171.668 502.313,-178.668"/>
</g>
<!-- Node8 -->
<g id="node8" class="node"><title>Node8</title>
<g id="a_node8"><a xlink:href="classtomoBay_1_1model_1_1services_1_1invoiceOrderService_1_1InvoiceService.html#ad8015302f0357597a82b61512755a1ed" target="_top" xlink:title="tomoBay.model.services.invoice\lOrderService.InvoiceService.run">
<polygon fill="none" stroke="black" points="800,-153.5 800,-183.5 958,-183.5 958,-153.5 800,-153.5"/>
<text text-anchor="start" x="808" y="-171.5" font-family="Helvetica,sans-Serif" font-size="10.00">tomoBay.model.services.invoice</text>
<text text-anchor="middle" x="879" y="-160.5" font-family="Helvetica,sans-Serif" font-size="10.00">OrderService.InvoiceService.run</text>
</a>
</g>
</g>
<!-- Node7&#45;&gt;Node8 -->
<g id="edge8" class="edge"><title>Node7&#45;&gt;Node8</title>
<path fill="none" stroke="midnightblue" d="M731.06,-168.5C754.229,-168.5 778.115,-168.5 799.719,-168.5"/>
<polygon fill="midnightblue" stroke="midnightblue" points="730.831,-165 720.831,-168.5 730.831,-172 730.831,-165"/>
</g>
<!-- Node9&#45;&gt;Node5 -->
<g id="edge10" class="edge"><title>Node9&#45;&gt;Node5</title>
<path fill="none" stroke="midnightblue" d="M449.572,-106.343C528.107,-103.945 638.011,-98.9292 734,-88.5 754.787,-86.2415 777.131,-82.9461 797.87,-79.5167"/>
<polygon fill="midnightblue" stroke="midnightblue" points="449.079,-102.856 439.187,-106.65 449.287,-109.853 449.079,-102.856"/>
</g>
<!-- Node11 -->
<g id="node11" class="node"><title>Node11</title>
<g id="a_node11"><a xlink:href="classtomoBay_1_1model_1_1services_1_1individualItemRefresh_1_1ReCalculateRequiredStock.html#a60d11306692f52091266b66f1c7f03db" target="_top" xlink:title="tomoBay.model.services.individual\lItemRefresh.ReCalculateRequiredStock.calculate">
<polygon fill="none" stroke="black" points="499.5,-0.5 499.5,-30.5 733.5,-30.5 733.5,-0.5 499.5,-0.5"/>
<text text-anchor="start" x="507.5" y="-18.5" font-family="Helvetica,sans-Serif" font-size="10.00">tomoBay.model.services.individual</text>
<text text-anchor="middle" x="616.5" y="-7.5" font-family="Helvetica,sans-Serif" font-size="10.00">ItemRefresh.ReCalculateRequiredStock.calculate</text>
</a>
</g>
</g>
<!-- Node10&#45;&gt;Node11 -->
<g id="edge13" class="edge"><title>Node10&#45;&gt;Node11</title>
<path fill="none" stroke="midnightblue" d="M473.477,-15.5C482.113,-15.5 490.784,-15.5 499.349,-15.5"/>
<polygon fill="midnightblue" stroke="midnightblue" points="473.365,-12.0001 463.365,-15.5 473.365,-19.0001 473.365,-12.0001"/>
</g>
<!-- Node11&#45;&gt;Node5 -->
<g id="edge14" class="edge"><title>Node11&#45;&gt;Node5</title>
<path fill="none" stroke="midnightblue" d="M707.319,-32.3949C736.86,-37.9515 769.48,-44.0875 798.222,-49.4938"/>
<polygon fill="midnightblue" stroke="midnightblue" points="707.904,-28.9436 697.429,-30.5346 706.61,-35.823 707.904,-28.9436"/>
</g>
</g>
</svg>
