<?xml version="1.0" encoding="UTF-8" standalone="no"?>
<!DOCTYPE svg PUBLIC "-//W3C//DTD SVG 1.1//EN"
 "http://www.w3.org/Graphics/SVG/1.1/DTD/svg11.dtd">
<!-- Generated by graphviz version 2.38.0 (20140413.2041)
 -->
<!-- Title: tomoBay.model.services.stockUpdate.StockRequired.iterateThroughPartsList Pages: 1 -->
<svg width="826pt" height="210pt"
 viewBox="0.00 0.00 826.00 210.00" xmlns="http://www.w3.org/2000/svg" xmlns:xlink="http://www.w3.org/1999/xlink">
<g id="graph0" class="graph" transform="scale(1 1) rotate(0) translate(4 206)">
<title>tomoBay.model.services.stockUpdate.StockRequired.iterateThroughPartsList</title>
<!-- Node1 -->
<g id="node1" class="node"><title>Node1</title>
<polygon fill="#bfbfbf" stroke="black" points="0,-43 0,-84 181,-84 181,-43 0,-43"/>
<text text-anchor="start" x="8" y="-72" font-family="Helvetica,sans-Serif" font-size="10.00">tomoBay.model.services.stock</text>
<text text-anchor="start" x="8" y="-61" font-family="Helvetica,sans-Serif" font-size="10.00">Update.StockRequired.iterateThrough</text>
<text text-anchor="middle" x="90.5" y="-50" font-family="Helvetica,sans-Serif" font-size="10.00">PartsList</text>
</g>
<!-- Node2 -->
<g id="node2" class="node"><title>Node2</title>
<g id="a_node2"><a xlink:href="classtomoBay_1_1model_1_1services_1_1stockUpdate_1_1StockRequired.html#ad3cbc11f463b3095fc210f3c1535c97f" target="_top" xlink:title="tomoBay.model.services.stock\lUpdate.StockRequired.insertORUpdate">
<polygon fill="none" stroke="black" points="217,-73.5 217,-103.5 406,-103.5 406,-73.5 217,-73.5"/>
<text text-anchor="start" x="225" y="-91.5" font-family="Helvetica,sans-Serif" font-size="10.00">tomoBay.model.services.stock</text>
<text text-anchor="middle" x="311.5" y="-80.5" font-family="Helvetica,sans-Serif" font-size="10.00">Update.StockRequired.insertORUpdate</text>
</a>
</g>
</g>
<!-- Node1&#45;&gt;Node2 -->
<g id="edge1" class="edge"><title>Node1&#45;&gt;Node2</title>
<path fill="none" stroke="midnightblue" d="M181.208,-73.7406C189.613,-74.7001 198.179,-75.678 206.699,-76.6506"/>
<polygon fill="midnightblue" stroke="midnightblue" points="206.335,-80.1317 216.668,-77.7885 207.129,-73.1768 206.335,-80.1317"/>
</g>
<!-- Node9 -->
<g id="node9" class="node"><title>Node9</title>
<g id="a_node9"><a xlink:href="classtomoBay_1_1model_1_1services_1_1helpers_1_1PartList.html#a560c1e8e7c88cd213aba97da6620aa42" target="_top" xlink:title="tomoBay.model.services.helpers.\lPartList.size">
<polygon fill="none" stroke="black" points="230.5,-24.5 230.5,-54.5 392.5,-54.5 392.5,-24.5 230.5,-24.5"/>
<text text-anchor="start" x="238.5" y="-42.5" font-family="Helvetica,sans-Serif" font-size="10.00">tomoBay.model.services.helpers.</text>
<text text-anchor="middle" x="311.5" y="-31.5" font-family="Helvetica,sans-Serif" font-size="10.00">PartList.size</text>
</a>
</g>
</g>
<!-- Node1&#45;&gt;Node9 -->
<g id="edge8" class="edge"><title>Node1&#45;&gt;Node9</title>
<path fill="none" stroke="midnightblue" d="M181.208,-53.669C194.07,-52.2594 207.31,-50.8085 220.184,-49.3976"/>
<polygon fill="midnightblue" stroke="midnightblue" points="220.858,-52.8449 230.417,-48.2763 220.095,-45.8865 220.858,-52.8449"/>
</g>
<!-- Node3 -->
<g id="node3" class="node"><title>Node3</title>
<g id="a_node3"><a xlink:href="classtomoBay_1_1model_1_1sql_1_1queries_1_1QueryInvoker.html#af9783588735e13b18741b48b375ca626" target="_top" xlink:title="tomoBay.model.sql.queries.\lQueryInvoker.execute">
<polygon fill="none" stroke="black" points="474,-147.5 474,-177.5 612,-177.5 612,-147.5 474,-147.5"/>
<text text-anchor="start" x="482" y="-165.5" font-family="Helvetica,sans-Serif" font-size="10.00">tomoBay.model.sql.queries.</text>
<text text-anchor="middle" x="543" y="-154.5" font-family="Helvetica,sans-Serif" font-size="10.00">QueryInvoker.execute</text>
</a>
</g>
</g>
<!-- Node2&#45;&gt;Node3 -->
<g id="edge2" class="edge"><title>Node2&#45;&gt;Node3</title>
<path fill="none" stroke="midnightblue" d="M348.942,-103.595C374.674,-113.931 410.112,-127.519 442,-137.5 450.19,-140.063 458.82,-142.544 467.438,-144.882"/>
<polygon fill="midnightblue" stroke="midnightblue" points="466.576,-148.274 477.14,-147.459 468.373,-141.509 466.576,-148.274"/>
</g>
<!-- Node6 -->
<g id="node6" class="node"><title>Node6</title>
<g id="a_node6"><a xlink:href="classtomoBay_1_1model_1_1services_1_1helpers_1_1PartList.html#ad78e5b214d7f6060e461abac7fca9559" target="_top" xlink:title="tomoBay.model.services.helpers.\lPartList.getPartNumber">
<polygon fill="none" stroke="black" points="462,-98.5 462,-128.5 624,-128.5 624,-98.5 462,-98.5"/>
<text text-anchor="start" x="470" y="-116.5" font-family="Helvetica,sans-Serif" font-size="10.00">tomoBay.model.services.helpers.</text>
<text text-anchor="middle" x="543" y="-105.5" font-family="Helvetica,sans-Serif" font-size="10.00">PartList.getPartNumber</text>
</a>
</g>
</g>
<!-- Node2&#45;&gt;Node6 -->
<g id="edge5" class="edge"><title>Node2&#45;&gt;Node6</title>
<path fill="none" stroke="midnightblue" d="M406.177,-98.7045C421.182,-100.339 436.685,-102.028 451.611,-103.654"/>
<polygon fill="midnightblue" stroke="midnightblue" points="451.519,-107.164 461.84,-104.768 452.278,-100.206 451.519,-107.164"/>
</g>
<!-- Node7 -->
<g id="node7" class="node"><title>Node7</title>
<g id="a_node7"><a xlink:href="classtomoBay_1_1model_1_1services_1_1helpers_1_1PartList.html#a554b8b08e0c00b2c094af388611fb318" target="_top" xlink:title="tomoBay.model.services.helpers.\lPartList.getPartQty">
<polygon fill="none" stroke="black" points="462,-49.5 462,-79.5 624,-79.5 624,-49.5 462,-49.5"/>
<text text-anchor="start" x="470" y="-67.5" font-family="Helvetica,sans-Serif" font-size="10.00">tomoBay.model.services.helpers.</text>
<text text-anchor="middle" x="543" y="-56.5" font-family="Helvetica,sans-Serif" font-size="10.00">PartList.getPartQty</text>
</a>
</g>
</g>
<!-- Node2&#45;&gt;Node7 -->
<g id="edge6" class="edge"><title>Node2&#45;&gt;Node7</title>
<path fill="none" stroke="midnightblue" d="M406.177,-78.7037C421.182,-77.1345 436.685,-75.5133 451.611,-73.9524"/>
<polygon fill="midnightblue" stroke="midnightblue" points="452.258,-77.404 461.84,-72.8828 451.53,-70.4419 452.258,-77.404"/>
</g>
<!-- Node8 -->
<g id="node8" class="node"><title>Node8</title>
<g id="a_node8"><a xlink:href="classtomoBay_1_1model_1_1services_1_1stockUpdate_1_1StockRequiredQueryFactory.html#ae4ab4815160c22e64b4f158349381164" target="_top" xlink:title="tomoBay.model.services.stock\lUpdate.StockRequiredQueryFactory.make">
<polygon fill="none" stroke="black" points="442,-0.5 442,-30.5 644,-30.5 644,-0.5 442,-0.5"/>
<text text-anchor="start" x="450" y="-18.5" font-family="Helvetica,sans-Serif" font-size="10.00">tomoBay.model.services.stock</text>
<text text-anchor="middle" x="543" y="-7.5" font-family="Helvetica,sans-Serif" font-size="10.00">Update.StockRequiredQueryFactory.make</text>
</a>
</g>
</g>
<!-- Node2&#45;&gt;Node8 -->
<g id="edge7" class="edge"><title>Node2&#45;&gt;Node8</title>
<path fill="none" stroke="midnightblue" d="M379.266,-73.3555C388.403,-70.5037 397.542,-67.2252 406,-63.5 423.376,-55.8466 424.562,-48.0117 442,-40.5 447.77,-38.0143 453.839,-35.7401 460.015,-33.6663"/>
<polygon fill="midnightblue" stroke="midnightblue" points="461.307,-36.9285 469.782,-30.5707 459.192,-30.2557 461.307,-36.9285"/>
</g>
<!-- Node4 -->
<g id="node4" class="node"><title>Node4</title>
<g id="a_node4"><a xlink:href="classtomoBay_1_1model_1_1sql_1_1queries_1_1QueryInvoker.html#aff8d54f537b905d5a8b35a20113fd100" target="_top" xlink:title="tomoBay.model.sql.queries.\lQueryInvoker.make">
<polygon fill="none" stroke="black" points="680,-171.5 680,-201.5 818,-201.5 818,-171.5 680,-171.5"/>
<text text-anchor="start" x="688" y="-189.5" font-family="Helvetica,sans-Serif" font-size="10.00">tomoBay.model.sql.queries.</text>
<text text-anchor="middle" x="749" y="-178.5" font-family="Helvetica,sans-Serif" font-size="10.00">QueryInvoker.make</text>
</a>
</g>
</g>
<!-- Node3&#45;&gt;Node4 -->
<g id="edge3" class="edge"><title>Node3&#45;&gt;Node4</title>
<path fill="none" stroke="midnightblue" d="M612.213,-170.525C630.671,-172.697 650.794,-175.064 669.756,-177.295"/>
<polygon fill="midnightblue" stroke="midnightblue" points="669.511,-180.79 679.852,-178.483 670.329,-173.838 669.511,-180.79"/>
</g>
<!-- Node5 -->
<g id="node5" class="node"><title>Node5</title>
<g id="a_node5"><a xlink:href="interfacetomoBay_1_1model_1_1sql_1_1queries_1_1AbstractDBQuery.html#af2b3eebaeac3f2330d4c4e27182cec48" target="_top" xlink:title="tomoBay.model.sql.queries.\lAbstractDBQuery.execute">
<polygon fill="none" stroke="black" points="680,-122.5 680,-152.5 818,-152.5 818,-122.5 680,-122.5"/>
<text text-anchor="start" x="688" y="-140.5" font-family="Helvetica,sans-Serif" font-size="10.00">tomoBay.model.sql.queries.</text>
<text text-anchor="middle" x="749" y="-129.5" font-family="Helvetica,sans-Serif" font-size="10.00">AbstractDBQuery.execute</text>
</a>
</g>
</g>
<!-- Node3&#45;&gt;Node5 -->
<g id="edge4" class="edge"><title>Node3&#45;&gt;Node5</title>
<path fill="none" stroke="midnightblue" d="M612.213,-154.141C630.671,-151.879 650.794,-149.413 669.756,-147.089"/>
<polygon fill="midnightblue" stroke="midnightblue" points="670.352,-150.542 679.852,-145.852 669.5,-143.594 670.352,-150.542"/>
</g>
</g>
</svg>
