<?xml version="1.0" encoding="UTF-8" standalone="no"?>
<!DOCTYPE svg PUBLIC "-//W3C//DTD SVG 1.1//EN"
 "http://www.w3.org/Graphics/SVG/1.1/DTD/svg11.dtd">
<!-- Generated by graphviz version 2.38.0 (20140413.2041)
 -->
<!-- Title: tomoBay.model.services.individualItemRefresh.ReCalculateAvailableStock.getStockLevel Pages: 1 -->
<svg width="880pt" height="77pt"
 viewBox="0.00 0.00 880.00 77.50" xmlns="http://www.w3.org/2000/svg" xmlns:xlink="http://www.w3.org/1999/xlink">
<g id="graph0" class="graph" transform="scale(1 1) rotate(0) translate(4 73.5)">
<title>tomoBay.model.services.individualItemRefresh.ReCalculateAvailableStock.getStockLevel</title>
<!-- Node1 -->
<g id="node1" class="node"><title>Node1</title>
<polygon fill="#bfbfbf" stroke="black" points="0,-11.5 0,-52.5 209,-52.5 209,-11.5 0,-11.5"/>
<text text-anchor="start" x="8" y="-40.5" font-family="Helvetica,sans-Serif" font-size="10.00">tomoBay.model.services.individual</text>
<text text-anchor="start" x="8" y="-29.5" font-family="Helvetica,sans-Serif" font-size="10.00">ItemRefresh.ReCalculateAvailableStock.get</text>
<text text-anchor="middle" x="104.5" y="-18.5" font-family="Helvetica,sans-Serif" font-size="10.00">StockLevel</text>
</g>
<!-- Node2 -->
<g id="node2" class="node"><title>Node2</title>
<g id="a_node2"><a xlink:href="classtomoBay_1_1model_1_1winstock_1_1Stock.html#a1782a19980de34680ae751b8a334af96" target="_top" xlink:title="tomoBay.model.winstock.Stock.request\lStockLevel">
<polygon fill="none" stroke="black" points="245,-17 245,-47 436,-47 436,-17 245,-17"/>
<text text-anchor="start" x="253" y="-35" font-family="Helvetica,sans-Serif" font-size="10.00">tomoBay.model.winstock.Stock.request</text>
<text text-anchor="middle" x="340.5" y="-24" font-family="Helvetica,sans-Serif" font-size="10.00">StockLevel</text>
</a>
</g>
</g>
<!-- Node1&#45;&gt;Node2 -->
<g id="edge1" class="edge"><title>Node1&#45;&gt;Node2</title>
<path fill="none" stroke="midnightblue" d="M209.158,-32C217.588,-32 226.112,-32 234.551,-32"/>
<polygon fill="midnightblue" stroke="midnightblue" points="234.792,-35.5001 244.792,-32 234.792,-28.5001 234.792,-35.5001"/>
</g>
<!-- Node3 -->
<g id="node3" class="node"><title>Node3</title>
<g id="a_node3"><a xlink:href="classtomoBay_1_1model_1_1winstock_1_1Stock.html#a0b60d421fe27874ceb35c702ffa2483f" target="_top" xlink:title="tomoBay.model.winstock.Stock.post\lFormatXMLString">
<polygon fill="none" stroke="black" points="472,-39 472,-69 649,-69 649,-39 472,-39"/>
<text text-anchor="start" x="480" y="-57" font-family="Helvetica,sans-Serif" font-size="10.00">tomoBay.model.winstock.Stock.post</text>
<text text-anchor="middle" x="560.5" y="-46" font-family="Helvetica,sans-Serif" font-size="10.00">FormatXMLString</text>
</a>
</g>
</g>
<!-- Node2&#45;&gt;Node3 -->
<g id="edge2" class="edge"><title>Node2&#45;&gt;Node3</title>
<path fill="none" stroke="midnightblue" d="M436.167,-41.5535C444.674,-42.412 453.299,-43.2824 461.83,-44.1434"/>
<polygon fill="midnightblue" stroke="midnightblue" points="461.489,-47.6267 471.79,-45.1485 462.192,-40.662 461.489,-47.6267"/>
</g>
<!-- Node5 -->
<g id="node5" class="node"><title>Node5</title>
<g id="a_node5"><a xlink:href="classtomoBay_1_1helpers_1_1XMLParser.html#ac25716dcaf3586b706f71c7354d6626c" target="_top" xlink:title="tomoBay.helpers.XMLParser.parse">
<polygon fill="none" stroke="black" points="476,-0.5 476,-19.5 645,-19.5 645,-0.5 476,-0.5"/>
<text text-anchor="middle" x="560.5" y="-7.5" font-family="Helvetica,sans-Serif" font-size="10.00">tomoBay.helpers.XMLParser.parse</text>
</a>
</g>
</g>
<!-- Node2&#45;&gt;Node5 -->
<g id="edge4" class="edge"><title>Node2&#45;&gt;Node5</title>
<path fill="none" stroke="midnightblue" d="M436.167,-22.4465C445.974,-21.4567 455.939,-20.4511 465.737,-19.4623"/>
<polygon fill="midnightblue" stroke="midnightblue" points="466.274,-22.926 475.872,-18.4395 465.572,-15.9613 466.274,-22.926"/>
</g>
<!-- Node4 -->
<g id="node4" class="node"><title>Node4</title>
<g id="a_node4"><a xlink:href="classtomoBay_1_1model_1_1http_1_1HttpResponse.html#a24a810db349f2e0bb6188d836b9ab916" target="_top" xlink:title="tomoBay.model.http.HttpResponse.get\lResponseMessage">
<polygon fill="none" stroke="black" points="685,-39 685,-69 872,-69 872,-39 685,-39"/>
<text text-anchor="start" x="693" y="-57" font-family="Helvetica,sans-Serif" font-size="10.00">tomoBay.model.http.HttpResponse.get</text>
<text text-anchor="middle" x="778.5" y="-46" font-family="Helvetica,sans-Serif" font-size="10.00">ResponseMessage</text>
</a>
</g>
</g>
<!-- Node3&#45;&gt;Node4 -->
<g id="edge3" class="edge"><title>Node3&#45;&gt;Node4</title>
<path fill="none" stroke="midnightblue" d="M649.044,-54C657.533,-54 666.198,-54 674.817,-54"/>
<polygon fill="midnightblue" stroke="midnightblue" points="674.901,-57.5001 684.901,-54 674.901,-50.5001 674.901,-57.5001"/>
</g>
</g>
</svg>
