<?xml version="1.0" encoding="UTF-8" standalone="no"?>
<!DOCTYPE svg PUBLIC "-//W3C//DTD SVG 1.1//EN"
 "http://www.w3.org/Graphics/SVG/1.1/DTD/svg11.dtd">
<!-- Generated by graphviz version 2.38.0 (20140413.2041)
 -->
<!-- Title: tomoBay.model.services.helpers.PartList.convert Pages: 1 -->
<!--zoomable 209 -->
<svg id="main" version="1.1" xmlns="http://www.w3.org/2000/svg" xmlns:xlink="http://www.w3.org/1999/xlink" xml:space="preserve" onload="init(evt)">
<style type="text/css"><![CDATA[
.edge:hover path { stroke: red; }
.edge:hover polygon { stroke: red; fill: red; }
]]></style>
<script type="text/javascript"><![CDATA[
var edges = document.getElementsByTagName('g');
if (edges && edges.length) {
  for (var i=0;i<edges.length;i++) {
    if (edges[i].id.substr(0,4)=='edge') {
      edges[i].setAttribute('class','edge');
    }
  }
}
]]></script>
        <defs>
                <circle id="rim" cx="0" cy="0" r="7"/>
                <circle id="rim2" cx="0" cy="0" r="3.5"/>
                <g id="zoomPlus">
                        <use xlink:href="#rim" fill="#404040">
                                <set attributeName="fill" to="#808080" begin="zoomplus.mouseover" end="zoomplus.mouseout"/>
                        </use>
                        <path d="M-4,0h8M0,-4v8" fill="none" stroke="white" stroke-width="1.5" pointer-events="none"/>
                </g>
                <g id="zoomMin">
                        <use xlink:href="#rim" fill="#404040">
                                <set attributeName="fill" to="#808080" begin="zoomminus.mouseover" end="zoomminus.mouseout"/>
                        </use>
                        <path d="M-4,0h8" fill="none" stroke="white" stroke-width="1.5" pointer-events="none"/>
                </g>
                <g id="dirArrow">
                        <path fill="none" stroke="white" stroke-width="1.5" d="M0,-3.0v7 M-2.5,-0.5L0,-3.0L2.5,-0.5"/>
                </g>
               <g id="resetDef">
                       <use xlink:href="#rim2" fill="#404040">
                               <set attributeName="fill" to="#808080" begin="reset.mouseover" end="reset.mouseout"/>
                       </use>
               </g>
        </defs>

<script type="text/javascript">
var viewWidth = 566;
var viewHeight = 209;
var sectionId = 'dynsection-5';
</script>
<script xlink:href="svgpan.js"/>
<svg id="graph" class="graph">
<g id="viewport">
<title>tomoBay.model.services.helpers.PartList.convert</title>
<!-- Node1 -->
<g id="node1" class="node"><title>Node1</title>
<polygon fill="#bfbfbf" stroke="black" points="0,-98.5 0,-128.5 162,-128.5 162,-98.5 0,-98.5"/>
<text text-anchor="start" x="8" y="-116.5" font-family="Helvetica,sans-Serif" font-size="10.00">tomoBay.model.services.helpers.</text>
<text text-anchor="middle" x="81" y="-105.5" font-family="Helvetica,sans-Serif" font-size="10.00">PartList.convert</text>
</g>
<!-- Node2 -->
<g id="node2" class="node"><title>Node2</title>
<g id="a_node2"><a xlink:href="classtomoBay_1_1model_1_1services_1_1helpers_1_1PartList.html#a8107cb78f2119494efdd9c8f56cd2698" target="_top" xlink:title="tomoBay.model.services.helpers.\lPartList.bracketsNSpaces">
<polygon fill="none" stroke="black" points="396,-169.5 396,-199.5 558,-199.5 558,-169.5 396,-169.5"/>
<text text-anchor="start" x="404" y="-187.5" font-family="Helvetica,sans-Serif" font-size="10.00">tomoBay.model.services.helpers.</text>
<text text-anchor="middle" x="477" y="-176.5" font-family="Helvetica,sans-Serif" font-size="10.00">PartList.bracketsNSpaces</text>
</a>
</g>
</g>
<!-- Node1&#45;&gt;Node2 -->
<g id="edge1" class="edge"><title>Node1&#45;&gt;Node2</title>
<path fill="none" stroke="midnightblue" d="M98.9428,-128.569C120.281,-146.44 158.905,-175.222 198,-186.5 258.901,-204.068 330.478,-203.085 385.75,-197.961"/>
<polygon fill="midnightblue" stroke="midnightblue" points="386.267,-201.427 395.874,-196.96 385.578,-194.461 386.267,-201.427"/>
</g>
<!-- Node3 -->
<g id="node3" class="node"><title>Node3</title>
<g id="a_node3"><a xlink:href="classtomoBay_1_1model_1_1services_1_1helpers_1_1PartList.html#aac04340b4c64a3735bf75f3d851c4d85" target="_top" xlink:title="tomoBay.model.services.helpers.\lPartList.bracketsNSpacesTrunc">
<polygon fill="none" stroke="black" points="198,-147.5 198,-177.5 360,-177.5 360,-147.5 198,-147.5"/>
<text text-anchor="start" x="206" y="-165.5" font-family="Helvetica,sans-Serif" font-size="10.00">tomoBay.model.services.helpers.</text>
<text text-anchor="middle" x="279" y="-154.5" font-family="Helvetica,sans-Serif" font-size="10.00">PartList.bracketsNSpacesTrunc</text>
</a>
</g>
</g>
<!-- Node1&#45;&gt;Node3 -->
<g id="edge2" class="edge"><title>Node1&#45;&gt;Node3</title>
<path fill="none" stroke="midnightblue" d="M142.138,-128.535C163.021,-133.755 186.615,-139.654 208.21,-145.053"/>
<polygon fill="midnightblue" stroke="midnightblue" points="207.425,-148.464 217.975,-147.494 209.123,-141.673 207.425,-148.464"/>
</g>
<!-- Node4 -->
<g id="node4" class="node"><title>Node4</title>
<g id="a_node4"><a xlink:href="classtomoBay_1_1model_1_1services_1_1helpers_1_1PartList.html#a0a5c912e9a48f6535d820d444fd07751" target="_top" xlink:title="tomoBay.model.services.helpers.\lPartList.error">
<polygon fill="none" stroke="black" points="198,-98.5 198,-128.5 360,-128.5 360,-98.5 198,-98.5"/>
<text text-anchor="start" x="206" y="-116.5" font-family="Helvetica,sans-Serif" font-size="10.00">tomoBay.model.services.helpers.</text>
<text text-anchor="middle" x="279" y="-105.5" font-family="Helvetica,sans-Serif" font-size="10.00">PartList.error</text>
</a>
</g>
</g>
<!-- Node1&#45;&gt;Node4 -->
<g id="edge4" class="edge"><title>Node1&#45;&gt;Node4</title>
<path fill="none" stroke="midnightblue" d="M162.003,-113.5C170.524,-113.5 179.234,-113.5 187.861,-113.5"/>
<polygon fill="midnightblue" stroke="midnightblue" points="187.935,-117 197.935,-113.5 187.935,-110 187.935,-117"/>
</g>
<!-- Node5 -->
<g id="node5" class="node"><title>Node5</title>
<g id="a_node5"><a xlink:href="classtomoBay_1_1model_1_1services_1_1helpers_1_1PartList.html#a716ad2a31ee2412bb1428d3acdc6a7d4" target="_top" xlink:title="tomoBay.model.services.helpers.\lPartList.noBracketsNoSpaces">
<polygon fill="none" stroke="black" points="198,-49.5 198,-79.5 360,-79.5 360,-49.5 198,-49.5"/>
<text text-anchor="start" x="206" y="-67.5" font-family="Helvetica,sans-Serif" font-size="10.00">tomoBay.model.services.helpers.</text>
<text text-anchor="middle" x="279" y="-56.5" font-family="Helvetica,sans-Serif" font-size="10.00">PartList.noBracketsNoSpaces</text>
</a>
</g>
</g>
<!-- Node1&#45;&gt;Node5 -->
<g id="edge5" class="edge"><title>Node1&#45;&gt;Node5</title>
<path fill="none" stroke="midnightblue" d="M142.138,-98.4654C163.021,-93.2446 186.615,-87.3463 208.21,-81.9474"/>
<polygon fill="midnightblue" stroke="midnightblue" points="209.123,-85.3271 217.975,-79.5062 207.425,-78.5361 209.123,-85.3271"/>
</g>
<!-- Node6 -->
<g id="node6" class="node"><title>Node6</title>
<g id="a_node6"><a xlink:href="classtomoBay_1_1model_1_1services_1_1helpers_1_1PartList.html#abec7c4827b07e31223c038a9cbaa3731" target="_top" xlink:title="tomoBay.model.services.helpers.\lPartList.spacesNoBrackets">
<polygon fill="none" stroke="black" points="198,-0.5 198,-30.5 360,-30.5 360,-0.5 198,-0.5"/>
<text text-anchor="start" x="206" y="-18.5" font-family="Helvetica,sans-Serif" font-size="10.00">tomoBay.model.services.helpers.</text>
<text text-anchor="middle" x="279" y="-7.5" font-family="Helvetica,sans-Serif" font-size="10.00">PartList.spacesNoBrackets</text>
</a>
</g>
</g>
<!-- Node1&#45;&gt;Node6 -->
<g id="edge6" class="edge"><title>Node1&#45;&gt;Node6</title>
<path fill="none" stroke="midnightblue" d="M102.448,-98.3268C124.926,-82.21 162.566,-56.8489 198,-40.5 202.955,-38.2139 208.175,-36.0611 213.475,-34.0516"/>
<polygon fill="midnightblue" stroke="midnightblue" points="214.846,-37.2779 223.065,-30.5915 212.47,-30.6935 214.846,-37.2779"/>
</g>
<!-- Node3&#45;&gt;Node2 -->
<g id="edge3" class="edge"><title>Node3&#45;&gt;Node2</title>
<path fill="none" stroke="midnightblue" d="M360.003,-171.48C368.524,-172.436 377.234,-173.414 385.861,-174.382"/>
<polygon fill="midnightblue" stroke="midnightblue" points="385.607,-177.876 395.935,-175.513 386.388,-170.919 385.607,-177.876"/>
</g>
</g>
</svg>
        <g id="navigator" transform="translate(0 0)" fill="#404254">
                <rect fill="#f2f5e9" fill-opacity="0.5" stroke="#606060" stroke-width=".5" x="0" y="0" width="60" height="60"/>
                <use id="zoomplus" xlink:href="#zoomPlus" x="17" y="9" onmousedown="handleZoom(evt,'in')"/>
                <use id="zoomminus" xlink:href="#zoomMin" x="42" y="9" onmousedown="handleZoom(evt,'out')"/>
                <use id="reset" xlink:href="#resetDef" x="30" y="36" onmousedown="handleReset()"/>
                <g id="arrowUp" xlink:href="#dirArrow" transform="translate(30 24)" onmousedown="handlePan(0,-1)">
                  <use xlink:href="#rim" fill="#404040">
                        <set attributeName="fill" to="#808080" begin="arrowUp.mouseover" end="arrowUp.mouseout"/>
                  </use>
                  <path fill="none" stroke="white" stroke-width="1.5" d="M0,-3.0v7 M-2.5,-0.5L0,-3.0L2.5,-0.5"/>
                </g>
                <g id="arrowRight" xlink:href="#dirArrow" transform="rotate(90) translate(36 -43)" onmousedown="handlePan(1,0)">
                  <use xlink:href="#rim" fill="#404040">
                        <set attributeName="fill" to="#808080" begin="arrowRight.mouseover" end="arrowRight.mouseout"/>
                  </use>
                  <path fill="none" stroke="white" stroke-width="1.5" d="M0,-3.0v7 M-2.5,-0.5L0,-3.0L2.5,-0.5"/>
                </g>
                <g id="arrowDown" xlink:href="#dirArrow" transform="rotate(180) translate(-30 -48)" onmousedown="handlePan(0,1)">
                  <use xlink:href="#rim" fill="#404040">
                        <set attributeName="fill" to="#808080" begin="arrowDown.mouseover" end="arrowDown.mouseout"/>
                  </use>
                  <path fill="none" stroke="white" stroke-width="1.5" d="M0,-3.0v7 M-2.5,-0.5L0,-3.0L2.5,-0.5"/>
                </g>
                <g id="arrowLeft" xlink:href="#dirArrow" transform="rotate(270) translate(-36 17)" onmousedown="handlePan(-1,0)">
                  <use xlink:href="#rim" fill="#404040">
                        <set attributeName="fill" to="#808080" begin="arrowLeft.mouseover" end="arrowLeft.mouseout"/>
                  </use>
                  <path fill="none" stroke="white" stroke-width="1.5" d="M0,-3.0v7 M-2.5,-0.5L0,-3.0L2.5,-0.5"/>
                </g>
        </g>
        <svg viewBox="0 0 15 15" width="100%" height="30px" preserveAspectRatio="xMaxYMin meet">
         <g id="arrow_out" transform="scale(0.3 0.3)">
          <a xlink:href="classtomoBay_1_1model_1_1services_1_1helpers_1_1PartList_a4c80aa36ae63c8ecceff16d635270ab8_cgraph_org.svg" target="_base">
           <rect id="button" ry="5" rx="5" y="6" x="6" height="38" width="38"
                fill="#f2f5e9" fill-opacity="0.5" stroke="#606060" stroke-width="1.0"/>
           <path id="arrow"
             d="M 11.500037,31.436501 C 11.940474,20.09759 22.043105,11.32322 32.158766,21.979434 L 37.068811,17.246167 C 37.068811,17.246167 37.088388,32 37.088388,32 L 22.160133,31.978069 C 22.160133,31.978069 26.997745,27.140456 26.997745,27.140456 C 18.528582,18.264221 13.291696,25.230495 11.500037,31.436501 z"
             style="fill:#404040;"/>
          </a>
         </g>
        </svg>
</svg>
