<?xml version="1.0" encoding="UTF-8" standalone="no"?>
<!DOCTYPE svg PUBLIC "-//W3C//DTD SVG 1.1//EN"
 "http://www.w3.org/Graphics/SVG/1.1/DTD/svg11.dtd">
<!-- Generated by graphviz version 2.38.0 (20140413.2041)
 -->
<!-- Title: tomoBay.model.sql.queries.concreteQueries.UpdateAvailableStockPrestige.initQuery Pages: 1 -->
<svg width="425pt" height="88pt"
 viewBox="0.00 0.00 425.00 88.00" xmlns="http://www.w3.org/2000/svg" xmlns:xlink="http://www.w3.org/1999/xlink">
<g id="graph0" class="graph" transform="scale(1 1) rotate(0) translate(4 84)">
<title>tomoBay.model.sql.queries.concreteQueries.UpdateAvailableStockPrestige.initQuery</title>
<!-- Node1 -->
<g id="node1" class="node"><title>Node1</title>
<polygon fill="#bfbfbf" stroke="black" points="0,-24.5 0,-54.5 228,-54.5 228,-24.5 0,-24.5"/>
<text text-anchor="start" x="8" y="-42.5" font-family="Helvetica,sans-Serif" font-size="10.00">tomoBay.model.sql.queries.concrete</text>
<text text-anchor="middle" x="114" y="-31.5" font-family="Helvetica,sans-Serif" font-size="10.00">Queries.UpdateAvailableStockPrestige.initQuery</text>
</g>
<!-- Node2 -->
<g id="node2" class="node"><title>Node2</title>
<g id="a_node2"><a xlink:href="classtomoBay_1_1model_1_1sql_1_1ConnectionManager.html#ae409bc78f5d56de5a3da5dc34b992912" target="_top" xlink:title="tomoBay.model.sql.Connection\lManager.getConnection">
<polygon fill="none" stroke="black" points="264,-49.5 264,-79.5 417,-79.5 417,-49.5 264,-49.5"/>
<text text-anchor="start" x="272" y="-67.5" font-family="Helvetica,sans-Serif" font-size="10.00">tomoBay.model.sql.Connection</text>
<text text-anchor="middle" x="340.5" y="-56.5" font-family="Helvetica,sans-Serif" font-size="10.00">Manager.getConnection</text>
</a>
</g>
</g>
<!-- Node1&#45;&gt;Node2 -->
<g id="edge1" class="edge"><title>Node1&#45;&gt;Node2</title>
<path fill="none" stroke="midnightblue" d="M228.237,-52.1099C236.836,-53.0675 245.428,-54.0243 253.81,-54.9577"/>
<polygon fill="midnightblue" stroke="midnightblue" points="253.591,-58.4548 263.917,-56.0832 254.366,-51.4978 253.591,-58.4548"/>
</g>
<!-- Node3 -->
<g id="node3" class="node"><title>Node3</title>
<g id="a_node3"><a xlink:href="classtomoBay_1_1model_1_1sql_1_1ConnectionManager.html#a258fdcb8481c013b1864d6835e5dfaa2" target="_top" xlink:title="tomoBay.model.sql.Connection\lManager.instance">
<polygon fill="none" stroke="black" points="264,-0.5 264,-30.5 417,-30.5 417,-0.5 264,-0.5"/>
<text text-anchor="start" x="272" y="-18.5" font-family="Helvetica,sans-Serif" font-size="10.00">tomoBay.model.sql.Connection</text>
<text text-anchor="middle" x="340.5" y="-7.5" font-family="Helvetica,sans-Serif" font-size="10.00">Manager.instance</text>
</a>
</g>
</g>
<!-- Node1&#45;&gt;Node3 -->
<g id="edge2" class="edge"><title>Node1&#45;&gt;Node3</title>
<path fill="none" stroke="midnightblue" d="M228.237,-27.3945C236.836,-26.4752 245.428,-25.5567 253.81,-24.6606"/>
<polygon fill="midnightblue" stroke="midnightblue" points="254.346,-28.1234 263.917,-23.5802 253.601,-21.1631 254.346,-28.1234"/>
</g>
</g>
</svg>
