<?xml version="1.0" encoding="UTF-8" standalone="no"?>
<!DOCTYPE svg PUBLIC "-//W3C//DTD SVG 1.1//EN"
 "http://www.w3.org/Graphics/SVG/1.1/DTD/svg11.dtd">
<!-- Generated by graphviz version 2.38.0 (20140413.2041)
 -->
<!-- Title: tomoBay.model.services.stockUpdate.StockRequiredQueryFactory.setBrand Pages: 1 -->
<!--zoomable 147 -->
<svg id="main" version="1.1" xmlns="http://www.w3.org/2000/svg" xmlns:xlink="http://www.w3.org/1999/xlink" xml:space="preserve" onload="init(evt)">
<style type="text/css"><![CDATA[
.edge:hover path { stroke: red; }
.edge:hover polygon { stroke: red; fill: red; }
]]></style>
<script type="text/javascript"><![CDATA[
var edges = document.getElementsByTagName('g');
if (edges && edges.length) {
  for (var i=0;i<edges.length;i++) {
    if (edges[i].id.substr(0,4)=='edge') {
      edges[i].setAttribute('class','edge');
    }
  }
}
]]></script>
        <defs>
                <circle id="rim" cx="0" cy="0" r="7"/>
                <circle id="rim2" cx="0" cy="0" r="3.5"/>
                <g id="zoomPlus">
                        <use xlink:href="#rim" fill="#404040">
                                <set attributeName="fill" to="#808080" begin="zoomplus.mouseover" end="zoomplus.mouseout"/>
                        </use>
                        <path d="M-4,0h8M0,-4v8" fill="none" stroke="white" stroke-width="1.5" pointer-events="none"/>
                </g>
                <g id="zoomMin">
                        <use xlink:href="#rim" fill="#404040">
                                <set attributeName="fill" to="#808080" begin="zoomminus.mouseover" end="zoomminus.mouseout"/>
                        </use>
                        <path d="M-4,0h8" fill="none" stroke="white" stroke-width="1.5" pointer-events="none"/>
                </g>
                <g id="dirArrow">
                        <path fill="none" stroke="white" stroke-width="1.5" d="M0,-3.0v7 M-2.5,-0.5L0,-3.0L2.5,-0.5"/>
                </g>
               <g id="resetDef">
                       <use xlink:href="#rim2" fill="#404040">
                               <set attributeName="fill" to="#808080" begin="reset.mouseover" end="reset.mouseout"/>
                       </use>
               </g>
        </defs>

<script type="text/javascript">
var viewWidth = 1024;
var viewHeight = 147;
var sectionId = 'dynsection-2';
</script>
<script xlink:href="svgpan.js"/>
<svg id="graph" class="graph">
<g id="viewport">
<title>tomoBay.model.services.stockUpdate.StockRequiredQueryFactory.setBrand</title>
<!-- Node1 -->
<g id="node1" class="node"><title>Node1</title>
<polygon fill="#bfbfbf" stroke="black" points="0,-54.5 0,-84.5 217,-84.5 217,-54.5 0,-54.5"/>
<text text-anchor="start" x="8" y="-72.5" font-family="Helvetica,sans-Serif" font-size="10.00">tomoBay.model.services.stock</text>
<text text-anchor="middle" x="108.5" y="-61.5" font-family="Helvetica,sans-Serif" font-size="10.00">Update.StockRequiredQueryFactory.setBrand</text>
</g>
<!-- Node2 -->
<g id="node2" class="node"><title>Node2</title>
<g id="a_node2"><a xlink:href="classtomoBay_1_1model_1_1services_1_1stockUpdate_1_1StockRequired.html#af34f448b2e06ca4c1a6b6b9eab4151ee" target="_top" xlink:title="tomoBay.model.services.stock\lUpdate.StockRequired.calculate">
<polygon fill="none" stroke="black" points="293.5,-103.5 293.5,-133.5 451.5,-133.5 451.5,-103.5 293.5,-103.5"/>
<text text-anchor="start" x="301.5" y="-121.5" font-family="Helvetica,sans-Serif" font-size="10.00">tomoBay.model.services.stock</text>
<text text-anchor="middle" x="372.5" y="-110.5" font-family="Helvetica,sans-Serif" font-size="10.00">Update.StockRequired.calculate</text>
</a>
</g>
</g>
<!-- Node1&#45;&gt;Node2 -->
<g id="edge1" class="edge"><title>Node1&#45;&gt;Node2</title>
<path fill="none" stroke="midnightblue" d="M200.025,-86.4302C230.304,-92.0931 263.783,-98.3544 293.062,-103.83"/>
<polygon fill="midnightblue" stroke="midnightblue" points="200.362,-82.9327 189.889,-84.5346 199.075,-89.8134 200.362,-82.9327"/>
</g>
<!-- Node4 -->
<g id="node4" class="node"><title>Node4</title>
<g id="a_node4"><a xlink:href="classtomoBay_1_1model_1_1services_1_1individualItemRefresh_1_1RePopulateEbayItem.html#a98a1d6b2dd721103e85213f3e65e9952" target="_top" xlink:title="tomoBay.model.services.individual\lItemRefresh.RePopulateEbayItem.reset\lBrandTable">
<polygon fill="none" stroke="black" points="549.5,-49 549.5,-90 740.5,-90 740.5,-49 549.5,-49"/>
<text text-anchor="start" x="557.5" y="-78" font-family="Helvetica,sans-Serif" font-size="10.00">tomoBay.model.services.individual</text>
<text text-anchor="start" x="557.5" y="-67" font-family="Helvetica,sans-Serif" font-size="10.00">ItemRefresh.RePopulateEbayItem.reset</text>
<text text-anchor="middle" x="645" y="-56" font-family="Helvetica,sans-Serif" font-size="10.00">BrandTable</text>
</a>
</g>
</g>
<!-- Node1&#45;&gt;Node4 -->
<g id="edge3" class="edge"><title>Node1&#45;&gt;Node4</title>
<path fill="none" stroke="midnightblue" d="M227.145,-69.5C323.905,-69.5 459.266,-69.5 549.182,-69.5"/>
<polygon fill="midnightblue" stroke="midnightblue" points="227.021,-66.0001 217.021,-69.5 227.021,-73.0001 227.021,-66.0001"/>
</g>
<!-- Node6 -->
<g id="node6" class="node"><title>Node6</title>
<g id="a_node6"><a xlink:href="classtomoBay_1_1model_1_1services_1_1individualItemRefresh_1_1ReCalculateRequiredStock.html#ad98eddf85b6775466de64576a5eff165" target="_top" xlink:title="tomoBay.model.services.individual\lItemRefresh.ReCalculateRequiredStock.updateDB">
<polygon fill="none" stroke="black" points="253,-5.5 253,-35.5 492,-35.5 492,-5.5 253,-5.5"/>
<text text-anchor="start" x="261" y="-23.5" font-family="Helvetica,sans-Serif" font-size="10.00">tomoBay.model.services.individual</text>
<text text-anchor="middle" x="372.5" y="-12.5" font-family="Helvetica,sans-Serif" font-size="10.00">ItemRefresh.ReCalculateRequiredStock.updateDB</text>
</a>
</g>
</g>
<!-- Node1&#45;&gt;Node6 -->
<g id="edge5" class="edge"><title>Node1&#45;&gt;Node6</title>
<path fill="none" stroke="midnightblue" d="M199.836,-52.6051C229.547,-47.0485 262.356,-40.9125 291.263,-35.5062"/>
<polygon fill="midnightblue" stroke="midnightblue" points="199.075,-49.1866 189.889,-54.4654 200.362,-56.0673 199.075,-49.1866"/>
</g>
<!-- Node3 -->
<g id="node3" class="node"><title>Node3</title>
<g id="a_node3"><a xlink:href="classtomoBay_1_1model_1_1services_1_1stockUpdate_1_1StockUpdateService.html#a4ca5d3569102ee0441f7f5548ea297b0" target="_top" xlink:title="tomoBay.model.services.stock\lUpdate.StockUpdateService.run">
<polygon fill="none" stroke="black" points="566,-108.5 566,-138.5 724,-138.5 724,-108.5 566,-108.5"/>
<text text-anchor="start" x="574" y="-126.5" font-family="Helvetica,sans-Serif" font-size="10.00">tomoBay.model.services.stock</text>
<text text-anchor="middle" x="645" y="-115.5" font-family="Helvetica,sans-Serif" font-size="10.00">Update.StockUpdateService.run</text>
</a>
</g>
</g>
<!-- Node2&#45;&gt;Node3 -->
<g id="edge2" class="edge"><title>Node2&#45;&gt;Node3</title>
<path fill="none" stroke="midnightblue" d="M461.995,-120.136C495.528,-120.756 533.432,-121.456 565.936,-122.057"/>
<polygon fill="midnightblue" stroke="midnightblue" points="461.803,-116.632 451.74,-119.946 461.673,-123.631 461.803,-116.632"/>
</g>
<!-- Node5 -->
<g id="node5" class="node"><title>Node5</title>
<g id="a_node5"><a xlink:href="classtomoBay_1_1model_1_1services_1_1individualItemRefresh_1_1IndividualItemRefreshService.html#a579244b8909621f27fc4871a532f87ee" target="_top" xlink:title="tomoBay.model.services.individual\lItemRefresh.IndividualItemRefreshService.run">
<polygon fill="none" stroke="black" points="798,-27.5 798,-57.5 1016,-57.5 1016,-27.5 798,-27.5"/>
<text text-anchor="start" x="806" y="-45.5" font-family="Helvetica,sans-Serif" font-size="10.00">tomoBay.model.services.individual</text>
<text text-anchor="middle" x="907" y="-34.5" font-family="Helvetica,sans-Serif" font-size="10.00">ItemRefresh.IndividualItemRefreshService.run</text>
</a>
</g>
</g>
<!-- Node4&#45;&gt;Node5 -->
<g id="edge4" class="edge"><title>Node4&#45;&gt;Node5</title>
<path fill="none" stroke="midnightblue" d="M750.711,-58.6261C766.22,-57.0156 782.229,-55.3531 797.807,-53.7354"/>
<polygon fill="midnightblue" stroke="midnightblue" points="750.186,-55.1617 740.601,-59.676 750.91,-62.1243 750.186,-55.1617"/>
</g>
<!-- Node7 -->
<g id="node7" class="node"><title>Node7</title>
<g id="a_node7"><a xlink:href="classtomoBay_1_1model_1_1services_1_1individualItemRefresh_1_1ReCalculateRequiredStock.html#a60d11306692f52091266b66f1c7f03db" target="_top" xlink:title="tomoBay.model.services.individual\lItemRefresh.ReCalculateRequiredStock.calculate">
<polygon fill="none" stroke="black" points="528,-0.5 528,-30.5 762,-30.5 762,-0.5 528,-0.5"/>
<text text-anchor="start" x="536" y="-18.5" font-family="Helvetica,sans-Serif" font-size="10.00">tomoBay.model.services.individual</text>
<text text-anchor="middle" x="645" y="-7.5" font-family="Helvetica,sans-Serif" font-size="10.00">ItemRefresh.ReCalculateRequiredStock.calculate</text>
</a>
</g>
</g>
<!-- Node6&#45;&gt;Node7 -->
<g id="edge6" class="edge"><title>Node6&#45;&gt;Node7</title>
<path fill="none" stroke="midnightblue" d="M502.397,-18.1174C510.821,-17.9617 519.279,-17.8054 527.639,-17.6509"/>
<polygon fill="midnightblue" stroke="midnightblue" points="502.079,-14.6226 492.145,-18.3069 502.208,-21.6214 502.079,-14.6226"/>
</g>
<!-- Node7&#45;&gt;Node5 -->
<g id="edge7" class="edge"><title>Node7&#45;&gt;Node5</title>
<path fill="none" stroke="midnightblue" d="M772.264,-28.612C780.758,-29.4941 789.272,-30.3783 797.663,-31.2497"/>
<polygon fill="midnightblue" stroke="midnightblue" points="772.62,-25.1302 762.312,-27.5785 771.897,-32.0928 772.62,-25.1302"/>
</g>
</g>
</svg>
        <g id="navigator" transform="translate(0 0)" fill="#404254">
                <rect fill="#f2f5e9" fill-opacity="0.5" stroke="#606060" stroke-width=".5" x="0" y="0" width="60" height="60"/>
                <use id="zoomplus" xlink:href="#zoomPlus" x="17" y="9" onmousedown="handleZoom(evt,'in')"/>
                <use id="zoomminus" xlink:href="#zoomMin" x="42" y="9" onmousedown="handleZoom(evt,'out')"/>
                <use id="reset" xlink:href="#resetDef" x="30" y="36" onmousedown="handleReset()"/>
                <g id="arrowUp" xlink:href="#dirArrow" transform="translate(30 24)" onmousedown="handlePan(0,-1)">
                  <use xlink:href="#rim" fill="#404040">
                        <set attributeName="fill" to="#808080" begin="arrowUp.mouseover" end="arrowUp.mouseout"/>
                  </use>
                  <path fill="none" stroke="white" stroke-width="1.5" d="M0,-3.0v7 M-2.5,-0.5L0,-3.0L2.5,-0.5"/>
                </g>
                <g id="arrowRight" xlink:href="#dirArrow" transform="rotate(90) translate(36 -43)" onmousedown="handlePan(1,0)">
                  <use xlink:href="#rim" fill="#404040">
                        <set attributeName="fill" to="#808080" begin="arrowRight.mouseover" end="arrowRight.mouseout"/>
                  </use>
                  <path fill="none" stroke="white" stroke-width="1.5" d="M0,-3.0v7 M-2.5,-0.5L0,-3.0L2.5,-0.5"/>
                </g>
                <g id="arrowDown" xlink:href="#dirArrow" transform="rotate(180) translate(-30 -48)" onmousedown="handlePan(0,1)">
                  <use xlink:href="#rim" fill="#404040">
                        <set attributeName="fill" to="#808080" begin="arrowDown.mouseover" end="arrowDown.mouseout"/>
                  </use>
                  <path fill="none" stroke="white" stroke-width="1.5" d="M0,-3.0v7 M-2.5,-0.5L0,-3.0L2.5,-0.5"/>
                </g>
                <g id="arrowLeft" xlink:href="#dirArrow" transform="rotate(270) translate(-36 17)" onmousedown="handlePan(-1,0)">
                  <use xlink:href="#rim" fill="#404040">
                        <set attributeName="fill" to="#808080" begin="arrowLeft.mouseover" end="arrowLeft.mouseout"/>
                  </use>
                  <path fill="none" stroke="white" stroke-width="1.5" d="M0,-3.0v7 M-2.5,-0.5L0,-3.0L2.5,-0.5"/>
                </g>
        </g>
        <svg viewBox="0 0 15 15" width="100%" height="30px" preserveAspectRatio="xMaxYMin meet">
         <g id="arrow_out" transform="scale(0.3 0.3)">
          <a xlink:href="classtomoBay_1_1model_1_1services_1_1stockUpdate_1_1StockRequiredQueryFactory_a6e18b86d40821a5fc235aea4fb82dbef_icgraph_org.svg" target="_base">
           <rect id="button" ry="5" rx="5" y="6" x="6" height="38" width="38"
                fill="#f2f5e9" fill-opacity="0.5" stroke="#606060" stroke-width="1.0"/>
           <path id="arrow"
             d="M 11.500037,31.436501 C 11.940474,20.09759 22.043105,11.32322 32.158766,21.979434 L 37.068811,17.246167 C 37.068811,17.246167 37.088388,32 37.088388,32 L 22.160133,31.978069 C 22.160133,31.978069 26.997745,27.140456 26.997745,27.140456 C 18.528582,18.264221 13.291696,25.230495 11.500037,31.436501 z"
             style="fill:#404040;"/>
          </a>
         </g>
        </svg>
</svg>
