<?xml version="1.0" encoding="UTF-8" standalone="no"?>
<!DOCTYPE svg PUBLIC "-//W3C//DTD SVG 1.1//EN"
 "http://www.w3.org/Graphics/SVG/1.1/DTD/svg11.dtd">
<!-- Generated by graphviz version 2.38.0 (20140413.2041)
 -->
<!-- Title: tomoBay.model.services.basicEbayUpdate.ItemsTable.populate Pages: 1 -->
<!--zoomable 176 -->
<svg id="main" version="1.1" xmlns="http://www.w3.org/2000/svg" xmlns:xlink="http://www.w3.org/1999/xlink" xml:space="preserve" onload="init(evt)">
<style type="text/css"><![CDATA[
.edge:hover path { stroke: red; }
.edge:hover polygon { stroke: red; fill: red; }
]]></style>
<script type="text/javascript"><![CDATA[
var edges = document.getElementsByTagName('g');
if (edges && edges.length) {
  for (var i=0;i<edges.length;i++) {
    if (edges[i].id.substr(0,4)=='edge') {
      edges[i].setAttribute('class','edge');
    }
  }
}
]]></script>
        <defs>
                <circle id="rim" cx="0" cy="0" r="7"/>
                <circle id="rim2" cx="0" cy="0" r="3.5"/>
                <g id="zoomPlus">
                        <use xlink:href="#rim" fill="#404040">
                                <set attributeName="fill" to="#808080" begin="zoomplus.mouseover" end="zoomplus.mouseout"/>
                        </use>
                        <path d="M-4,0h8M0,-4v8" fill="none" stroke="white" stroke-width="1.5" pointer-events="none"/>
                </g>
                <g id="zoomMin">
                        <use xlink:href="#rim" fill="#404040">
                                <set attributeName="fill" to="#808080" begin="zoomminus.mouseover" end="zoomminus.mouseout"/>
                        </use>
                        <path d="M-4,0h8" fill="none" stroke="white" stroke-width="1.5" pointer-events="none"/>
                </g>
                <g id="dirArrow">
                        <path fill="none" stroke="white" stroke-width="1.5" d="M0,-3.0v7 M-2.5,-0.5L0,-3.0L2.5,-0.5"/>
                </g>
               <g id="resetDef">
                       <use xlink:href="#rim2" fill="#404040">
                               <set attributeName="fill" to="#808080" begin="reset.mouseover" end="reset.mouseout"/>
                       </use>
               </g>
        </defs>

<script type="text/javascript">
var viewWidth = 733;
var viewHeight = 176;
var sectionId = 'dynsection-2';
</script>
<script xlink:href="svgpan.js"/>
<svg id="graph" class="graph">
<g id="viewport">
<title>tomoBay.model.services.basicEbayUpdate.ItemsTable.populate</title>
<!-- Node1 -->
<g id="node1" class="node"><title>Node1</title>
<polygon fill="#bfbfbf" stroke="black" points="0,-71.5 0,-101.5 162,-101.5 162,-71.5 0,-71.5"/>
<text text-anchor="start" x="8" y="-89.5" font-family="Helvetica,sans-Serif" font-size="10.00">tomoBay.model.services.basic</text>
<text text-anchor="middle" x="81" y="-78.5" font-family="Helvetica,sans-Serif" font-size="10.00">EbayUpdate.ItemsTable.populate</text>
</g>
<!-- Node2 -->
<g id="node2" class="node"><title>Node2</title>
<g id="a_node2"><a xlink:href="classtomoBay_1_1model_1_1eBayAPI_1_1ItemCall.html#a3fc5341611574d8b3e720e702ebd2f5b" target="_top" xlink:title="tomoBay.model.eBayAPI.Item\lCall.call">
<polygon fill="none" stroke="black" points="213,-137.5 213,-167.5 362,-167.5 362,-137.5 213,-137.5"/>
<text text-anchor="start" x="221" y="-155.5" font-family="Helvetica,sans-Serif" font-size="10.00">tomoBay.model.eBayAPI.Item</text>
<text text-anchor="middle" x="287.5" y="-144.5" font-family="Helvetica,sans-Serif" font-size="10.00">Call.call</text>
</a>
</g>
</g>
<!-- Node1&#45;&gt;Node2 -->
<g id="edge1" class="edge"><title>Node1&#45;&gt;Node2</title>
<path fill="none" stroke="midnightblue" d="M128.66,-101.559C158.787,-111.282 198.163,-123.99 230.05,-134.281"/>
<polygon fill="midnightblue" stroke="midnightblue" points="229.095,-137.651 239.687,-137.392 231.245,-130.989 229.095,-137.651"/>
</g>
<!-- Node3 -->
<g id="node3" class="node"><title>Node3</title>
<g id="a_node3"><a xlink:href="classtomoBay_1_1model_1_1sql_1_1queries_1_1QueryInvoker.html#af9783588735e13b18741b48b375ca626" target="_top" xlink:title="tomoBay.model.sql.queries.\lQueryInvoker.execute">
<polygon fill="none" stroke="black" points="413,-46.5 413,-76.5 551,-76.5 551,-46.5 413,-46.5"/>
<text text-anchor="start" x="421" y="-64.5" font-family="Helvetica,sans-Serif" font-size="10.00">tomoBay.model.sql.queries.</text>
<text text-anchor="middle" x="482" y="-53.5" font-family="Helvetica,sans-Serif" font-size="10.00">QueryInvoker.execute</text>
</a>
</g>
</g>
<!-- Node1&#45;&gt;Node3 -->
<g id="edge2" class="edge"><title>Node1&#45;&gt;Node3</title>
<path fill="none" stroke="midnightblue" d="M162.165,-92.7995C221.692,-96.0832 304.731,-97.7281 377,-88.5 392.407,-86.5327 408.793,-82.989 423.892,-79.1024"/>
<polygon fill="midnightblue" stroke="midnightblue" points="424.844,-82.4708 433.605,-76.512 423.04,-75.7072 424.844,-82.4708"/>
</g>
<!-- Node6 -->
<g id="node6" class="node"><title>Node6</title>
<g id="a_node6"><a xlink:href="classtomoBay_1_1model_1_1services_1_1basicEbayUpdate_1_1ItemsTable.html#ae94ebe7c5f5a47a404a61c4d2afac421" target="_top" xlink:title="tomoBay.model.services.basic\lEbayUpdate.ItemsTable.getSpecifics">
<polygon fill="none" stroke="black" points="198,-49.5 198,-79.5 377,-79.5 377,-49.5 198,-49.5"/>
<text text-anchor="start" x="206" y="-67.5" font-family="Helvetica,sans-Serif" font-size="10.00">tomoBay.model.services.basic</text>
<text text-anchor="middle" x="287.5" y="-56.5" font-family="Helvetica,sans-Serif" font-size="10.00">EbayUpdate.ItemsTable.getSpecifics</text>
</a>
</g>
</g>
<!-- Node1&#45;&gt;Node6 -->
<g id="edge5" class="edge"><title>Node1&#45;&gt;Node6</title>
<path fill="none" stroke="midnightblue" d="M162.237,-77.8682C170.601,-76.9683 179.172,-76.0463 187.71,-75.1277"/>
<polygon fill="midnightblue" stroke="midnightblue" points="188.137,-78.6022 197.705,-74.0525 187.388,-71.6423 188.137,-78.6022"/>
</g>
<!-- Node7 -->
<g id="node7" class="node"><title>Node7</title>
<g id="a_node7"><a xlink:href="classtomoBay_1_1model_1_1services_1_1basicEbayUpdate_1_1ItemsTable.html#aade14704960979389cae68e4b0c047f0" target="_top" xlink:title="tomoBay.model.services.basic\lEbayUpdate.ItemsTable.requiredQty">
<polygon fill="none" stroke="black" points="199.5,-0.5 199.5,-30.5 375.5,-30.5 375.5,-0.5 199.5,-0.5"/>
<text text-anchor="start" x="207.5" y="-18.5" font-family="Helvetica,sans-Serif" font-size="10.00">tomoBay.model.services.basic</text>
<text text-anchor="middle" x="287.5" y="-7.5" font-family="Helvetica,sans-Serif" font-size="10.00">EbayUpdate.ItemsTable.requiredQty</text>
</a>
</g>
</g>
<!-- Node1&#45;&gt;Node7 -->
<g id="edge6" class="edge"><title>Node1&#45;&gt;Node7</title>
<path fill="none" stroke="midnightblue" d="M117.19,-71.4584C140.009,-61.9758 170.502,-49.8088 198,-40.5 205.231,-38.0522 212.847,-35.6467 220.454,-33.3531"/>
<polygon fill="midnightblue" stroke="midnightblue" points="221.457,-36.7063 230.053,-30.5129 219.471,-29.9939 221.457,-36.7063"/>
</g>
<!-- Node4 -->
<g id="node4" class="node"><title>Node4</title>
<g id="a_node4"><a xlink:href="classtomoBay_1_1model_1_1sql_1_1queries_1_1QueryInvoker.html#aff8d54f537b905d5a8b35a20113fd100" target="_top" xlink:title="tomoBay.model.sql.queries.\lQueryInvoker.make">
<polygon fill="none" stroke="black" points="587,-71.5 587,-101.5 725,-101.5 725,-71.5 587,-71.5"/>
<text text-anchor="start" x="595" y="-89.5" font-family="Helvetica,sans-Serif" font-size="10.00">tomoBay.model.sql.queries.</text>
<text text-anchor="middle" x="656" y="-78.5" font-family="Helvetica,sans-Serif" font-size="10.00">QueryInvoker.make</text>
</a>
</g>
</g>
<!-- Node3&#45;&gt;Node4 -->
<g id="edge3" class="edge"><title>Node3&#45;&gt;Node4</title>
<path fill="none" stroke="midnightblue" d="M551.473,-71.4525C559.732,-72.6529 568.216,-73.886 576.602,-75.105"/>
<polygon fill="midnightblue" stroke="midnightblue" points="576.363,-78.6069 586.762,-76.5817 577.37,-71.6797 576.363,-78.6069"/>
</g>
<!-- Node5 -->
<g id="node5" class="node"><title>Node5</title>
<g id="a_node5"><a xlink:href="interfacetomoBay_1_1model_1_1sql_1_1queries_1_1AbstractDBQuery.html#af2b3eebaeac3f2330d4c4e27182cec48" target="_top" xlink:title="tomoBay.model.sql.queries.\lAbstractDBQuery.execute">
<polygon fill="none" stroke="black" points="587,-22.5 587,-52.5 725,-52.5 725,-22.5 587,-22.5"/>
<text text-anchor="start" x="595" y="-40.5" font-family="Helvetica,sans-Serif" font-size="10.00">tomoBay.model.sql.queries.</text>
<text text-anchor="middle" x="656" y="-29.5" font-family="Helvetica,sans-Serif" font-size="10.00">AbstractDBQuery.execute</text>
</a>
</g>
</g>
<!-- Node3&#45;&gt;Node5 -->
<g id="edge4" class="edge"><title>Node3&#45;&gt;Node5</title>
<path fill="none" stroke="midnightblue" d="M551.473,-51.9456C559.732,-50.7932 568.216,-49.6094 576.602,-48.4392"/>
<polygon fill="midnightblue" stroke="midnightblue" points="577.342,-51.87 586.762,-47.0215 576.375,-44.9371 577.342,-51.87"/>
</g>
<!-- Node7&#45;&gt;Node3 -->
<g id="edge7" class="edge"><title>Node7&#45;&gt;Node3</title>
<path fill="none" stroke="midnightblue" d="M351.532,-30.5621C369.656,-34.8932 389.572,-39.6522 408.233,-44.1116"/>
<polygon fill="midnightblue" stroke="midnightblue" points="407.616,-47.5625 418.156,-46.4826 409.243,-40.7542 407.616,-47.5625"/>
</g>
</g>
</svg>
        <g id="navigator" transform="translate(0 0)" fill="#404254">
                <rect fill="#f2f5e9" fill-opacity="0.5" stroke="#606060" stroke-width=".5" x="0" y="0" width="60" height="60"/>
                <use id="zoomplus" xlink:href="#zoomPlus" x="17" y="9" onmousedown="handleZoom(evt,'in')"/>
                <use id="zoomminus" xlink:href="#zoomMin" x="42" y="9" onmousedown="handleZoom(evt,'out')"/>
                <use id="reset" xlink:href="#resetDef" x="30" y="36" onmousedown="handleReset()"/>
                <g id="arrowUp" xlink:href="#dirArrow" transform="translate(30 24)" onmousedown="handlePan(0,-1)">
                  <use xlink:href="#rim" fill="#404040">
                        <set attributeName="fill" to="#808080" begin="arrowUp.mouseover" end="arrowUp.mouseout"/>
                  </use>
                  <path fill="none" stroke="white" stroke-width="1.5" d="M0,-3.0v7 M-2.5,-0.5L0,-3.0L2.5,-0.5"/>
                </g>
                <g id="arrowRight" xlink:href="#dirArrow" transform="rotate(90) translate(36 -43)" onmousedown="handlePan(1,0)">
                  <use xlink:href="#rim" fill="#404040">
                        <set attributeName="fill" to="#808080" begin="arrowRight.mouseover" end="arrowRight.mouseout"/>
                  </use>
                  <path fill="none" stroke="white" stroke-width="1.5" d="M0,-3.0v7 M-2.5,-0.5L0,-3.0L2.5,-0.5"/>
                </g>
                <g id="arrowDown" xlink:href="#dirArrow" transform="rotate(180) translate(-30 -48)" onmousedown="handlePan(0,1)">
                  <use xlink:href="#rim" fill="#404040">
                        <set attributeName="fill" to="#808080" begin="arrowDown.mouseover" end="arrowDown.mouseout"/>
                  </use>
                  <path fill="none" stroke="white" stroke-width="1.5" d="M0,-3.0v7 M-2.5,-0.5L0,-3.0L2.5,-0.5"/>
                </g>
                <g id="arrowLeft" xlink:href="#dirArrow" transform="rotate(270) translate(-36 17)" onmousedown="handlePan(-1,0)">
                  <use xlink:href="#rim" fill="#404040">
                        <set attributeName="fill" to="#808080" begin="arrowLeft.mouseover" end="arrowLeft.mouseout"/>
                  </use>
                  <path fill="none" stroke="white" stroke-width="1.5" d="M0,-3.0v7 M-2.5,-0.5L0,-3.0L2.5,-0.5"/>
                </g>
        </g>
        <svg viewBox="0 0 15 15" width="100%" height="30px" preserveAspectRatio="xMaxYMin meet">
         <g id="arrow_out" transform="scale(0.3 0.3)">
          <a xlink:href="classtomoBay_1_1model_1_1services_1_1basicEbayUpdate_1_1ItemsTable_a1f97957922b6b18742500a36637fc3b7_cgraph_org.svg" target="_base">
           <rect id="button" ry="5" rx="5" y="6" x="6" height="38" width="38"
                fill="#f2f5e9" fill-opacity="0.5" stroke="#606060" stroke-width="1.0"/>
           <path id="arrow"
             d="M 11.500037,31.436501 C 11.940474,20.09759 22.043105,11.32322 32.158766,21.979434 L 37.068811,17.246167 C 37.068811,17.246167 37.088388,32 37.088388,32 L 22.160133,31.978069 C 22.160133,31.978069 26.997745,27.140456 26.997745,27.140456 C 18.528582,18.264221 13.291696,25.230495 11.500037,31.436501 z"
             style="fill:#404040;"/>
          </a>
         </g>
        </svg>
</svg>
