<?xml version="1.0" encoding="UTF-8" standalone="no"?>
<!DOCTYPE svg PUBLIC "-//W3C//DTD SVG 1.1//EN"
 "http://www.w3.org/Graphics/SVG/1.1/DTD/svg11.dtd">
<!-- Generated by graphviz version 2.38.0 (20140413.2041)
 -->
<!-- Title: tomoBay.model.services.helpers.PartList.getPartQty Pages: 1 -->
<svg width="1224pt" height="212pt"
 viewBox="0.00 0.00 1224.00 212.00" xmlns="http://www.w3.org/2000/svg" xmlns:xlink="http://www.w3.org/1999/xlink">
<g id="graph0" class="graph" transform="scale(1 1) rotate(0) translate(4 208)">
<title>tomoBay.model.services.helpers.PartList.getPartQty</title>
<!-- Node1 -->
<g id="node1" class="node"><title>Node1</title>
<polygon fill="#bfbfbf" stroke="black" points="0,-87 0,-117 162,-117 162,-87 0,-87"/>
<text text-anchor="start" x="8" y="-105" font-family="Helvetica,sans-Serif" font-size="10.00">tomoBay.model.services.helpers.</text>
<text text-anchor="middle" x="81" y="-94" font-family="Helvetica,sans-Serif" font-size="10.00">PartList.getPartQty</text>
</g>
<!-- Node2 -->
<g id="node2" class="node"><title>Node2</title>
<g id="a_node2"><a xlink:href="classtomoBay_1_1model_1_1services_1_1invoiceOrderService_1_1CalculateInvoiceStatus.html#a36bda615a95d80b2d5d3b24e04f6ae96" target="_top" xlink:title="tomoBay.model.services.invoice\lOrderService.CalculateInvoiceStatus.check\lStockLevelOfItems">
<polygon fill="none" stroke="black" points="204,-162.5 204,-203.5 411,-203.5 411,-162.5 204,-162.5"/>
<text text-anchor="start" x="212" y="-191.5" font-family="Helvetica,sans-Serif" font-size="10.00">tomoBay.model.services.invoice</text>
<text text-anchor="start" x="212" y="-180.5" font-family="Helvetica,sans-Serif" font-size="10.00">OrderService.CalculateInvoiceStatus.check</text>
<text text-anchor="middle" x="307.5" y="-169.5" font-family="Helvetica,sans-Serif" font-size="10.00">StockLevelOfItems</text>
</a>
</g>
</g>
<!-- Node1&#45;&gt;Node2 -->
<g id="edge1" class="edge"><title>Node1&#45;&gt;Node2</title>
<path fill="none" stroke="midnightblue" d="M122.086,-121.336C144.169,-131.551 172.249,-143.833 198,-153 207.298,-156.31 217.15,-159.481 226.975,-162.44"/>
<polygon fill="midnightblue" stroke="midnightblue" points="123.556,-118.16 113.014,-117.101 120.594,-124.503 123.556,-118.16"/>
</g>
<!-- Node5 -->
<g id="node5" class="node"><title>Node5</title>
<g id="a_node5"><a xlink:href="classtomoBay_1_1model_1_1services_1_1stockUpdate_1_1StockRequired.html#ad3cbc11f463b3095fc210f3c1535c97f" target="_top" xlink:title="tomoBay.model.services.stock\lUpdate.StockRequired.insertORUpdate">
<polygon fill="none" stroke="black" points="213,-114 213,-144 402,-144 402,-114 213,-114"/>
<text text-anchor="start" x="221" y="-132" font-family="Helvetica,sans-Serif" font-size="10.00">tomoBay.model.services.stock</text>
<text text-anchor="middle" x="307.5" y="-121" font-family="Helvetica,sans-Serif" font-size="10.00">Update.StockRequired.insertORUpdate</text>
</a>
</g>
</g>
<!-- Node1&#45;&gt;Node5 -->
<g id="edge5" class="edge"><title>Node1&#45;&gt;Node5</title>
<path fill="none" stroke="midnightblue" d="M172.185,-112.846C185.501,-114.448 199.248,-116.101 212.637,-117.711"/>
<polygon fill="midnightblue" stroke="midnightblue" points="172.445,-109.352 162.099,-111.633 171.609,-116.302 172.445,-109.352"/>
</g>
<!-- Node9 -->
<g id="node9" class="node"><title>Node9</title>
<g id="a_node9"><a xlink:href="classtomoBay_1_1model_1_1services_1_1individualItemRefresh_1_1ReCalculateRequiredStock.html#ab5ff7a49bdb7d81c8b0e0ac0e35aed65" target="_top" xlink:title="tomoBay.model.services.individual\lItemRefresh.ReCalculateRequiredStock.insert\lOrUpdate">
<polygon fill="none" stroke="black" points="198,-54.5 198,-95.5 417,-95.5 417,-54.5 198,-54.5"/>
<text text-anchor="start" x="206" y="-83.5" font-family="Helvetica,sans-Serif" font-size="10.00">tomoBay.model.services.individual</text>
<text text-anchor="start" x="206" y="-72.5" font-family="Helvetica,sans-Serif" font-size="10.00">ItemRefresh.ReCalculateRequiredStock.insert</text>
<text text-anchor="middle" x="307.5" y="-61.5" font-family="Helvetica,sans-Serif" font-size="10.00">OrUpdate</text>
</a>
</g>
</g>
<!-- Node1&#45;&gt;Node9 -->
<g id="edge9" class="edge"><title>Node1&#45;&gt;Node9</title>
<path fill="none" stroke="midnightblue" d="M172.257,-91.145C180.665,-90.1338 189.245,-89.1019 197.798,-88.0733"/>
<polygon fill="midnightblue" stroke="midnightblue" points="171.609,-87.6976 162.099,-92.3667 172.445,-94.6475 171.609,-87.6976"/>
</g>
<!-- Node13 -->
<g id="node13" class="node"><title>Node13</title>
<g id="a_node13"><a xlink:href="classtomoBay_1_1model_1_1services_1_1individualItemRefresh_1_1RePopulateEbayItem.html#a98a1d6b2dd721103e85213f3e65e9952" target="_top" xlink:title="tomoBay.model.services.individual\lItemRefresh.RePopulateEbayItem.reset\lBrandTable">
<polygon fill="none" stroke="black" points="477,-0.5 477,-41.5 668,-41.5 668,-0.5 477,-0.5"/>
<text text-anchor="start" x="485" y="-29.5" font-family="Helvetica,sans-Serif" font-size="10.00">tomoBay.model.services.individual</text>
<text text-anchor="start" x="485" y="-18.5" font-family="Helvetica,sans-Serif" font-size="10.00">ItemRefresh.RePopulateEbayItem.reset</text>
<text text-anchor="middle" x="572.5" y="-7.5" font-family="Helvetica,sans-Serif" font-size="10.00">BrandTable</text>
</a>
</g>
</g>
<!-- Node1&#45;&gt;Node13 -->
<g id="edge13" class="edge"><title>Node1&#45;&gt;Node13</title>
<path fill="none" stroke="midnightblue" d="M114.583,-81.6636C137.113,-68.7092 168.272,-52.9226 198,-45 290.453,-20.3613 400.121,-16.1263 476.612,-16.9745"/>
<polygon fill="midnightblue" stroke="midnightblue" points="112.639,-78.7464 105.789,-86.8288 116.184,-84.7823 112.639,-78.7464"/>
</g>
<!-- Node3 -->
<g id="node3" class="node"><title>Node3</title>
<g id="a_node3"><a xlink:href="classtomoBay_1_1model_1_1services_1_1invoiceOrderService_1_1CalculateInvoiceStatus.html#ad6339cffa2c8fa1f1030aa611eda0073" target="_top" xlink:title="tomoBay.model.services.invoice\lOrderService.CalculateInvoiceStatus.status">
<polygon fill="none" stroke="black" points="468.5,-168 468.5,-198 676.5,-198 676.5,-168 468.5,-168"/>
<text text-anchor="start" x="476.5" y="-186" font-family="Helvetica,sans-Serif" font-size="10.00">tomoBay.model.services.invoice</text>
<text text-anchor="middle" x="572.5" y="-175" font-family="Helvetica,sans-Serif" font-size="10.00">OrderService.CalculateInvoiceStatus.status</text>
</a>
</g>
</g>
<!-- Node2&#45;&gt;Node3 -->
<g id="edge2" class="edge"><title>Node2&#45;&gt;Node3</title>
<path fill="none" stroke="midnightblue" d="M421.478,-176.31C437.04,-176.209 452.954,-176.236 468.326,-176.391"/>
<polygon fill="midnightblue" stroke="midnightblue" points="421.283,-172.811 411.313,-176.395 421.342,-179.811 421.283,-172.811"/>
</g>
<!-- Node3&#45;&gt;Node2 -->
<g id="edge3" class="edge"><title>Node3&#45;&gt;Node2</title>
<path fill="none" stroke="midnightblue" d="M458.156,-189.692C442.589,-189.792 426.676,-189.763 411.313,-189.605"/>
<polygon fill="midnightblue" stroke="midnightblue" points="458.356,-193.191 468.326,-189.609 458.298,-186.191 458.356,-193.191"/>
</g>
<!-- Node4 -->
<g id="node4" class="node"><title>Node4</title>
<g id="a_node4"><a xlink:href="classtomoBay_1_1model_1_1services_1_1invoiceOrderService_1_1InvoiceService.html#ad8015302f0357597a82b61512755a1ed" target="_top" xlink:title="tomoBay.model.services.invoice\lOrderService.InvoiceService.run">
<polygon fill="none" stroke="black" points="766,-168 766,-198 924,-198 924,-168 766,-168"/>
<text text-anchor="start" x="774" y="-186" font-family="Helvetica,sans-Serif" font-size="10.00">tomoBay.model.services.invoice</text>
<text text-anchor="middle" x="845" y="-175" font-family="Helvetica,sans-Serif" font-size="10.00">OrderService.InvoiceService.run</text>
</a>
</g>
</g>
<!-- Node3&#45;&gt;Node4 -->
<g id="edge4" class="edge"><title>Node3&#45;&gt;Node4</title>
<path fill="none" stroke="midnightblue" d="M686.658,-183C713.239,-183 740.991,-183 765.655,-183"/>
<polygon fill="midnightblue" stroke="midnightblue" points="686.536,-179.5 676.536,-183 686.536,-186.5 686.536,-179.5"/>
</g>
<!-- Node6 -->
<g id="node6" class="node"><title>Node6</title>
<g id="a_node6"><a xlink:href="classtomoBay_1_1model_1_1services_1_1stockUpdate_1_1StockRequired.html#a493c422b0f5f59b217afed68fa026611" target="_top" xlink:title="tomoBay.model.services.stock\lUpdate.StockRequired.iterateThrough\lPartsList">
<polygon fill="none" stroke="black" points="482,-108.5 482,-149.5 663,-149.5 663,-108.5 482,-108.5"/>
<text text-anchor="start" x="490" y="-137.5" font-family="Helvetica,sans-Serif" font-size="10.00">tomoBay.model.services.stock</text>
<text text-anchor="start" x="490" y="-126.5" font-family="Helvetica,sans-Serif" font-size="10.00">Update.StockRequired.iterateThrough</text>
<text text-anchor="middle" x="572.5" y="-115.5" font-family="Helvetica,sans-Serif" font-size="10.00">PartsList</text>
</a>
</g>
</g>
<!-- Node5&#45;&gt;Node6 -->
<g id="edge6" class="edge"><title>Node5&#45;&gt;Node6</title>
<path fill="none" stroke="midnightblue" d="M412.415,-129C435.313,-129 459.38,-129 481.666,-129"/>
<polygon fill="midnightblue" stroke="midnightblue" points="412.335,-125.5 402.335,-129 412.335,-132.5 412.335,-125.5"/>
</g>
<!-- Node7 -->
<g id="node7" class="node"><title>Node7</title>
<g id="a_node7"><a xlink:href="classtomoBay_1_1model_1_1services_1_1stockUpdate_1_1StockRequired.html#af34f448b2e06ca4c1a6b6b9eab4151ee" target="_top" xlink:title="tomoBay.model.services.stock\lUpdate.StockRequired.calculate">
<polygon fill="none" stroke="black" points="766,-114 766,-144 924,-144 924,-114 766,-114"/>
<text text-anchor="start" x="774" y="-132" font-family="Helvetica,sans-Serif" font-size="10.00">tomoBay.model.services.stock</text>
<text text-anchor="middle" x="845" y="-121" font-family="Helvetica,sans-Serif" font-size="10.00">Update.StockRequired.calculate</text>
</a>
</g>
</g>
<!-- Node6&#45;&gt;Node7 -->
<g id="edge7" class="edge"><title>Node6&#45;&gt;Node7</title>
<path fill="none" stroke="midnightblue" d="M673.437,-129C703.952,-129 737.046,-129 765.891,-129"/>
<polygon fill="midnightblue" stroke="midnightblue" points="673.197,-125.5 663.197,-129 673.197,-132.5 673.197,-125.5"/>
</g>
<!-- Node8 -->
<g id="node8" class="node"><title>Node8</title>
<g id="a_node8"><a xlink:href="classtomoBay_1_1model_1_1services_1_1stockUpdate_1_1StockUpdateService.html#a4ca5d3569102ee0441f7f5548ea297b0" target="_top" xlink:title="tomoBay.model.services.stock\lUpdate.StockUpdateService.run">
<polygon fill="none" stroke="black" points="1028,-114 1028,-144 1186,-144 1186,-114 1028,-114"/>
<text text-anchor="start" x="1036" y="-132" font-family="Helvetica,sans-Serif" font-size="10.00">tomoBay.model.services.stock</text>
<text text-anchor="middle" x="1107" y="-121" font-family="Helvetica,sans-Serif" font-size="10.00">Update.StockUpdateService.run</text>
</a>
</g>
</g>
<!-- Node7&#45;&gt;Node8 -->
<g id="edge8" class="edge"><title>Node7&#45;&gt;Node8</title>
<path fill="none" stroke="midnightblue" d="M934.142,-129C964.438,-129 998.129,-129 1027.6,-129"/>
<polygon fill="midnightblue" stroke="midnightblue" points="934.009,-125.5 924.009,-129 934.009,-132.5 934.009,-125.5"/>
</g>
<!-- Node10 -->
<g id="node10" class="node"><title>Node10</title>
<g id="a_node10"><a xlink:href="classtomoBay_1_1model_1_1services_1_1individualItemRefresh_1_1ReCalculateRequiredStock.html#ad98eddf85b6775466de64576a5eff165" target="_top" xlink:title="tomoBay.model.services.individual\lItemRefresh.ReCalculateRequiredStock.updateDB">
<polygon fill="none" stroke="black" points="453,-60 453,-90 692,-90 692,-60 453,-60"/>
<text text-anchor="start" x="461" y="-78" font-family="Helvetica,sans-Serif" font-size="10.00">tomoBay.model.services.individual</text>
<text text-anchor="middle" x="572.5" y="-67" font-family="Helvetica,sans-Serif" font-size="10.00">ItemRefresh.ReCalculateRequiredStock.updateDB</text>
</a>
</g>
</g>
<!-- Node9&#45;&gt;Node10 -->
<g id="edge10" class="edge"><title>Node9&#45;&gt;Node10</title>
<path fill="none" stroke="midnightblue" d="M427.595,-75C436.012,-75 444.498,-75 452.912,-75"/>
<polygon fill="midnightblue" stroke="midnightblue" points="427.371,-71.5001 417.371,-75 427.371,-78.5001 427.371,-71.5001"/>
</g>
<!-- Node11 -->
<g id="node11" class="node"><title>Node11</title>
<g id="a_node11"><a xlink:href="classtomoBay_1_1model_1_1services_1_1individualItemRefresh_1_1ReCalculateRequiredStock.html#a60d11306692f52091266b66f1c7f03db" target="_top" xlink:title="tomoBay.model.services.individual\lItemRefresh.ReCalculateRequiredStock.calculate">
<polygon fill="none" stroke="black" points="728,-55 728,-85 962,-85 962,-55 728,-55"/>
<text text-anchor="start" x="736" y="-73" font-family="Helvetica,sans-Serif" font-size="10.00">tomoBay.model.services.individual</text>
<text text-anchor="middle" x="845" y="-62" font-family="Helvetica,sans-Serif" font-size="10.00">ItemRefresh.ReCalculateRequiredStock.calculate</text>
</a>
</g>
</g>
<!-- Node10&#45;&gt;Node11 -->
<g id="edge11" class="edge"><title>Node10&#45;&gt;Node11</title>
<path fill="none" stroke="midnightblue" d="M702.397,-72.6174C710.821,-72.4617 719.279,-72.3054 727.639,-72.1509"/>
<polygon fill="midnightblue" stroke="midnightblue" points="702.079,-69.1226 692.145,-72.8069 702.208,-76.1214 702.079,-69.1226"/>
</g>
<!-- Node12 -->
<g id="node12" class="node"><title>Node12</title>
<g id="a_node12"><a xlink:href="classtomoBay_1_1model_1_1services_1_1individualItemRefresh_1_1IndividualItemRefreshService.html#a579244b8909621f27fc4871a532f87ee" target="_top" xlink:title="tomoBay.model.services.individual\lItemRefresh.IndividualItemRefreshService.run">
<polygon fill="none" stroke="black" points="998,-32 998,-62 1216,-62 1216,-32 998,-32"/>
<text text-anchor="start" x="1006" y="-50" font-family="Helvetica,sans-Serif" font-size="10.00">tomoBay.model.services.individual</text>
<text text-anchor="middle" x="1107" y="-39" font-family="Helvetica,sans-Serif" font-size="10.00">ItemRefresh.IndividualItemRefreshService.run</text>
</a>
</g>
</g>
<!-- Node11&#45;&gt;Node12 -->
<g id="edge12" class="edge"><title>Node11&#45;&gt;Node12</title>
<path fill="none" stroke="midnightblue" d="M972.541,-58.806C980.943,-58.0628 989.364,-57.3178 997.663,-56.5836"/>
<polygon fill="midnightblue" stroke="midnightblue" points="971.964,-55.3432 962.312,-59.7109 972.581,-62.316 971.964,-55.3432"/>
</g>
<!-- Node13&#45;&gt;Node12 -->
<g id="edge14" class="edge"><title>Node13&#45;&gt;Node12</title>
<path fill="none" stroke="midnightblue" d="M678.281,-26.1161C770.524,-30.62 904.316,-37.1525 997.62,-41.7082"/>
<polygon fill="midnightblue" stroke="midnightblue" points="678.246,-22.6103 668.087,-25.6183 677.904,-29.6019 678.246,-22.6103"/>
</g>
</g>
</svg>
