<?xml version="1.0" encoding="UTF-8" standalone="no"?>
<!DOCTYPE svg PUBLIC "-//W3C//DTD SVG 1.1//EN"
 "http://www.w3.org/Graphics/SVG/1.1/DTD/svg11.dtd">
<!-- Generated by graphviz version 2.38.0 (20140413.2041)
 -->
<!-- Title: tomoBay.model.winstock.Stock.requestStockLevel Pages: 1 -->
<svg width="635pt" height="77pt"
 viewBox="0.00 0.00 635.00 77.50" xmlns="http://www.w3.org/2000/svg" xmlns:xlink="http://www.w3.org/1999/xlink">
<g id="graph0" class="graph" transform="scale(1 1) rotate(0) translate(4 73.5)">
<title>tomoBay.model.winstock.Stock.requestStockLevel</title>
<!-- Node1 -->
<g id="node1" class="node"><title>Node1</title>
<polygon fill="#bfbfbf" stroke="black" points="0,-22.5 0,-52.5 191,-52.5 191,-22.5 0,-22.5"/>
<text text-anchor="start" x="8" y="-40.5" font-family="Helvetica,sans-Serif" font-size="10.00">tomoBay.model.winstock.Stock.request</text>
<text text-anchor="middle" x="95.5" y="-29.5" font-family="Helvetica,sans-Serif" font-size="10.00">StockLevel</text>
</g>
<!-- Node2 -->
<g id="node2" class="node"><title>Node2</title>
<g id="a_node2"><a xlink:href="classtomoBay_1_1helpers_1_1XMLParser.html#ac25716dcaf3586b706f71c7354d6626c" target="_top" xlink:title="tomoBay.helpers.XMLParser.parse">
<polygon fill="none" stroke="black" points="231,-50 231,-69 400,-69 400,-50 231,-50"/>
<text text-anchor="middle" x="315.5" y="-57" font-family="Helvetica,sans-Serif" font-size="10.00">tomoBay.helpers.XMLParser.parse</text>
</a>
</g>
</g>
<!-- Node1&#45;&gt;Node2 -->
<g id="edge1" class="edge"><title>Node1&#45;&gt;Node2</title>
<path fill="none" stroke="midnightblue" d="M191.167,-47.0535C200.974,-48.0433 210.939,-49.0489 220.737,-50.0377"/>
<polygon fill="midnightblue" stroke="midnightblue" points="220.572,-53.5387 230.872,-51.0605 221.274,-46.574 220.572,-53.5387"/>
</g>
<!-- Node3 -->
<g id="node3" class="node"><title>Node3</title>
<g id="a_node3"><a xlink:href="classtomoBay_1_1model_1_1winstock_1_1Stock.html#a0b60d421fe27874ceb35c702ffa2483f" target="_top" xlink:title="tomoBay.model.winstock.Stock.post\lFormatXMLString">
<polygon fill="none" stroke="black" points="227,-0.5 227,-30.5 404,-30.5 404,-0.5 227,-0.5"/>
<text text-anchor="start" x="235" y="-18.5" font-family="Helvetica,sans-Serif" font-size="10.00">tomoBay.model.winstock.Stock.post</text>
<text text-anchor="middle" x="315.5" y="-7.5" font-family="Helvetica,sans-Serif" font-size="10.00">FormatXMLString</text>
</a>
</g>
</g>
<!-- Node1&#45;&gt;Node3 -->
<g id="edge2" class="edge"><title>Node1&#45;&gt;Node3</title>
<path fill="none" stroke="midnightblue" d="M191.167,-27.9465C199.674,-27.088 208.299,-26.2176 216.83,-25.3566"/>
<polygon fill="midnightblue" stroke="midnightblue" points="217.192,-28.838 226.79,-24.3515 216.489,-21.8733 217.192,-28.838"/>
</g>
<!-- Node4 -->
<g id="node4" class="node"><title>Node4</title>
<g id="a_node4"><a xlink:href="classtomoBay_1_1model_1_1http_1_1HttpResponse.html#a24a810db349f2e0bb6188d836b9ab916" target="_top" xlink:title="tomoBay.model.http.HttpResponse.get\lResponseMessage">
<polygon fill="none" stroke="black" points="440,-0.5 440,-30.5 627,-30.5 627,-0.5 440,-0.5"/>
<text text-anchor="start" x="448" y="-18.5" font-family="Helvetica,sans-Serif" font-size="10.00">tomoBay.model.http.HttpResponse.get</text>
<text text-anchor="middle" x="533.5" y="-7.5" font-family="Helvetica,sans-Serif" font-size="10.00">ResponseMessage</text>
</a>
</g>
</g>
<!-- Node3&#45;&gt;Node4 -->
<g id="edge3" class="edge"><title>Node3&#45;&gt;Node4</title>
<path fill="none" stroke="midnightblue" d="M404.044,-15.5C412.533,-15.5 421.198,-15.5 429.817,-15.5"/>
<polygon fill="midnightblue" stroke="midnightblue" points="429.901,-19.0001 439.901,-15.5 429.901,-12.0001 429.901,-19.0001"/>
</g>
</g>
</svg>
