<?xml version="1.0" encoding="UTF-8" standalone="no"?>
<!DOCTYPE svg PUBLIC "-//W3C//DTD SVG 1.1//EN"
 "http://www.w3.org/Graphics/SVG/1.1/DTD/svg11.dtd">
<!-- Generated by graphviz version 2.38.0 (20140413.2041)
 -->
<!-- Title: Graphical Class Hierarchy Pages: 1 -->
<svg width="392pt" height="104pt"
 viewBox="0.00 0.00 392.00 104.00" xmlns="http://www.w3.org/2000/svg" xmlns:xlink="http://www.w3.org/1999/xlink">
<g id="graph0" class="graph" transform="scale(1 1) rotate(0) translate(4 100)">
<title>Graphical Class Hierarchy</title>
<!-- Node1 -->
<g id="node1" class="node"><title>Node1</title>
<g id="a_node1"><a xlink:href="classtomoBay_1_1model_1_1eBayAPI_1_1AbstractAPIcall.html" target="_top" xlink:title="tomoBay.model.eBayAPI.Abstract\lAPIcall">
<polygon fill="none" stroke="black" points="0,-33 0,-63 167,-63 167,-33 0,-33"/>
<text text-anchor="start" x="8" y="-51" font-family="Helvetica,sans-Serif" font-size="10.00">tomoBay.model.eBayAPI.Abstract</text>
<text text-anchor="middle" x="83.5" y="-40" font-family="Helvetica,sans-Serif" font-size="10.00">APIcall</text>
</a>
</g>
</g>
<!-- Node2 -->
<g id="node2" class="node"><title>Node2</title>
<g id="a_node2"><a xlink:href="classtomoBay_1_1model_1_1eBayAPI_1_1ItemCall.html" target="_top" xlink:title="tomoBay.model.eBayAPI.ItemCall">
<polygon fill="none" stroke="black" points="210,-76.5 210,-95.5 377,-95.5 377,-76.5 210,-76.5"/>
<text text-anchor="middle" x="293.5" y="-83.5" font-family="Helvetica,sans-Serif" font-size="10.00">tomoBay.model.eBayAPI.ItemCall</text>
</a>
</g>
</g>
<!-- Node1&#45;&gt;Node2 -->
<g id="edge1" class="edge"><title>Node1&#45;&gt;Node2</title>
<path fill="none" stroke="midnightblue" d="M176.694,-64.843C198.568,-68.8393 221.147,-72.9644 240.495,-76.4991"/>
<polygon fill="midnightblue" stroke="midnightblue" points="177.173,-61.3729 166.707,-63.0186 175.915,-68.2589 177.173,-61.3729"/>
</g>
<!-- Node3 -->
<g id="node3" class="node"><title>Node3</title>
<g id="a_node3"><a xlink:href="classtomoBay_1_1model_1_1eBayAPI_1_1ListingsCall.html" target="_top" xlink:title="tomoBay.model.eBayAPI.ListingsCall">
<polygon fill="none" stroke="black" points="203,-38.5 203,-57.5 384,-57.5 384,-38.5 203,-38.5"/>
<text text-anchor="middle" x="293.5" y="-45.5" font-family="Helvetica,sans-Serif" font-size="10.00">tomoBay.model.eBayAPI.ListingsCall</text>
</a>
</g>
</g>
<!-- Node1&#45;&gt;Node3 -->
<g id="edge2" class="edge"><title>Node1&#45;&gt;Node3</title>
<path fill="none" stroke="midnightblue" d="M177.036,-48C185.634,-48 194.337,-48 202.908,-48"/>
<polygon fill="midnightblue" stroke="midnightblue" points="177.006,-44.5001 167.006,-48 177.006,-51.5001 177.006,-44.5001"/>
</g>
<!-- Node4 -->
<g id="node4" class="node"><title>Node4</title>
<g id="a_node4"><a xlink:href="classtomoBay_1_1model_1_1eBayAPI_1_1OrdersCall.html" target="_top" xlink:title="tomoBay.model.eBayAPI.OrdersCall">
<polygon fill="none" stroke="black" points="205.5,-0.5 205.5,-19.5 381.5,-19.5 381.5,-0.5 205.5,-0.5"/>
<text text-anchor="middle" x="293.5" y="-7.5" font-family="Helvetica,sans-Serif" font-size="10.00">tomoBay.model.eBayAPI.OrdersCall</text>
</a>
</g>
</g>
<!-- Node1&#45;&gt;Node4 -->
<g id="edge3" class="edge"><title>Node1&#45;&gt;Node4</title>
<path fill="none" stroke="midnightblue" d="M176.694,-31.157C198.568,-27.1607 221.147,-23.0356 240.495,-19.5009"/>
<polygon fill="midnightblue" stroke="midnightblue" points="175.915,-27.7411 166.707,-32.9814 177.173,-34.6271 175.915,-27.7411"/>
</g>
</g>
</svg>
