<?xml version="1.0" encoding="UTF-8" standalone="no"?>
<!DOCTYPE svg PUBLIC "-//W3C//DTD SVG 1.1//EN"
 "http://www.w3.org/Graphics/SVG/1.1/DTD/svg11.dtd">
<!-- Generated by graphviz version 2.38.0 (20140413.2041)
 -->
<!-- Title: Graphical Class Hierarchy Pages: 1 -->
<svg width="346pt" height="235pt"
 viewBox="0.00 0.00 346.00 235.00" xmlns="http://www.w3.org/2000/svg" xmlns:xlink="http://www.w3.org/1999/xlink">
<g id="graph0" class="graph" transform="scale(1 1) rotate(0) translate(4 231)">
<title>Graphical Class Hierarchy</title>
<!-- Node1 -->
<g id="node1" class="node"><title>Node1</title>
<g id="a_node1"><a xlink:href="interfacetomoBay_1_1presenters_1_1AbstractPresenter.html" target="_top" xlink:title="tomoBay.presenters.Abstract\lPresenter">
<polygon fill="none" stroke="black" points="0,-98.5 0,-128.5 144,-128.5 144,-98.5 0,-98.5"/>
<text text-anchor="start" x="8" y="-116.5" font-family="Helvetica,sans-Serif" font-size="10.00">tomoBay.presenters.Abstract</text>
<text text-anchor="middle" x="72" y="-105.5" font-family="Helvetica,sans-Serif" font-size="10.00">Presenter</text>
</a>
</g>
</g>
<!-- Node2 -->
<g id="node2" class="node"><title>Node2</title>
<g id="a_node2"><a xlink:href="classtomoBay_1_1presenters_1_1error_1_1ErrorPresenter.html" target="_top" xlink:title="tomoBay.presenters.error.\lErrorPresenter">
<polygon fill="none" stroke="black" points="194,-196.5 194,-226.5 324,-226.5 324,-196.5 194,-196.5"/>
<text text-anchor="start" x="202" y="-214.5" font-family="Helvetica,sans-Serif" font-size="10.00">tomoBay.presenters.error.</text>
<text text-anchor="middle" x="259" y="-203.5" font-family="Helvetica,sans-Serif" font-size="10.00">ErrorPresenter</text>
</a>
</g>
</g>
<!-- Node1&#45;&gt;Node2 -->
<g id="edge1" class="edge"><title>Node1&#45;&gt;Node2</title>
<path fill="none" stroke="midnightblue" d="M99.7525,-134.983C120.627,-150.923 150.876,-172.272 180,-186.5 187.538,-190.183 195.745,-193.496 203.912,-196.414"/>
<polygon fill="midnightblue" stroke="midnightblue" points="101.735,-132.091 91.6858,-128.735 97.4487,-137.626 101.735,-132.091"/>
</g>
<!-- Node3 -->
<g id="node3" class="node"><title>Node3</title>
<g id="a_node3"><a xlink:href="classtomoBay_1_1presenters_1_1root_1_1RootPresenter.html" target="_top" xlink:title="tomoBay.presenters.root.\lRootPresenter">
<polygon fill="none" stroke="black" points="195.5,-147.5 195.5,-177.5 322.5,-177.5 322.5,-147.5 195.5,-147.5"/>
<text text-anchor="start" x="203.5" y="-165.5" font-family="Helvetica,sans-Serif" font-size="10.00">tomoBay.presenters.root.</text>
<text text-anchor="middle" x="259" y="-154.5" font-family="Helvetica,sans-Serif" font-size="10.00">RootPresenter</text>
</a>
</g>
</g>
<!-- Node1&#45;&gt;Node3 -->
<g id="edge2" class="edge"><title>Node1&#45;&gt;Node3</title>
<path fill="none" stroke="midnightblue" d="M139.535,-131.123C159.775,-136.484 181.82,-142.323 201.344,-147.494"/>
<polygon fill="midnightblue" stroke="midnightblue" points="140.326,-127.712 129.763,-128.535 138.534,-134.478 140.326,-127.712"/>
</g>
<!-- Node4 -->
<g id="node4" class="node"><title>Node4</title>
<g id="a_node4"><a xlink:href="classtomoBay_1_1presenters_1_1sales_1_1SalesHistoryPresenter.html" target="_top" xlink:title="tomoBay.presenters.sales.\lSalesHistoryPresenter">
<polygon fill="none" stroke="black" points="192,-98.5 192,-128.5 326,-128.5 326,-98.5 192,-98.5"/>
<text text-anchor="start" x="200" y="-116.5" font-family="Helvetica,sans-Serif" font-size="10.00">tomoBay.presenters.sales.</text>
<text text-anchor="middle" x="259" y="-105.5" font-family="Helvetica,sans-Serif" font-size="10.00">SalesHistoryPresenter</text>
</a>
</g>
</g>
<!-- Node1&#45;&gt;Node4 -->
<g id="edge3" class="edge"><title>Node1&#45;&gt;Node4</title>
<path fill="none" stroke="midnightblue" d="M154.277,-113.5C166.865,-113.5 179.733,-113.5 191.932,-113.5"/>
<polygon fill="midnightblue" stroke="midnightblue" points="154.261,-110 144.261,-113.5 154.261,-117 154.261,-110"/>
</g>
<!-- Node5 -->
<g id="node5" class="node"><title>Node5</title>
<g id="a_node5"><a xlink:href="classtomoBay_1_1presenters_1_1sales_1_1SalesOrderPresenter.html" target="_top" xlink:title="tomoBay.presenters.sales.\lSalesOrderPresenter">
<polygon fill="none" stroke="black" points="192,-49.5 192,-79.5 326,-79.5 326,-49.5 192,-49.5"/>
<text text-anchor="start" x="200" y="-67.5" font-family="Helvetica,sans-Serif" font-size="10.00">tomoBay.presenters.sales.</text>
<text text-anchor="middle" x="259" y="-56.5" font-family="Helvetica,sans-Serif" font-size="10.00">SalesOrderPresenter</text>
</a>
</g>
</g>
<!-- Node1&#45;&gt;Node5 -->
<g id="edge4" class="edge"><title>Node1&#45;&gt;Node5</title>
<path fill="none" stroke="midnightblue" d="M139.535,-95.8771C159.775,-90.5163 181.82,-84.6775 201.344,-79.5062"/>
<polygon fill="midnightblue" stroke="midnightblue" points="138.534,-92.5216 129.763,-98.4654 140.326,-99.2883 138.534,-92.5216"/>
</g>
<!-- Node6 -->
<g id="node6" class="node"><title>Node6</title>
<g id="a_node6"><a xlink:href="classtomoBay_1_1presenters_1_1warehouse_1_1WarehouseOrderPresenter.html" target="_top" xlink:title="tomoBay.presenters.warehouse.\lWarehouseOrderPresenter">
<polygon fill="none" stroke="black" points="180,-0.5 180,-30.5 338,-30.5 338,-0.5 180,-0.5"/>
<text text-anchor="start" x="188" y="-18.5" font-family="Helvetica,sans-Serif" font-size="10.00">tomoBay.presenters.warehouse.</text>
<text text-anchor="middle" x="259" y="-7.5" font-family="Helvetica,sans-Serif" font-size="10.00">WarehouseOrderPresenter</text>
</a>
</g>
</g>
<!-- Node1&#45;&gt;Node6 -->
<g id="edge5" class="edge"><title>Node1&#45;&gt;Node6</title>
<path fill="none" stroke="midnightblue" d="M99.7525,-92.017C120.627,-76.077 150.876,-54.7284 180,-40.5 187.538,-36.8172 195.745,-33.504 203.912,-30.5857"/>
<polygon fill="midnightblue" stroke="midnightblue" points="97.4487,-89.3743 91.6858,-98.2648 101.735,-94.9085 97.4487,-89.3743"/>
</g>
</g>
</svg>
