<?xml version="1.0" encoding="UTF-8" standalone="no"?>
<!DOCTYPE svg PUBLIC "-//W3C//DTD SVG 1.1//EN"
 "http://www.w3.org/Graphics/SVG/1.1/DTD/svg11.dtd">
<!-- Generated by graphviz version 2.38.0 (20140413.2041)
 -->
<!-- Title: Graphical Class Hierarchy Pages: 1 -->
<svg width="390pt" height="235pt"
 viewBox="0.00 0.00 390.00 235.00" xmlns="http://www.w3.org/2000/svg" xmlns:xlink="http://www.w3.org/1999/xlink">
<g id="graph0" class="graph" transform="scale(1 1) rotate(0) translate(4 231)">
<title>Graphical Class Hierarchy</title>
<!-- Node1 -->
<g id="node1" class="node"><title>Node1</title>
<g id="a_node1"><a xlink:href="interfacetomoBay_1_1model_1_1services_1_1factories_1_1AbstractServiceFactory.html" target="_top" xlink:title="tomoBay.model.services.factories.\lAbstractServiceFactory">
<polygon fill="none" stroke="black" points="0,-98.5 0,-128.5 168,-128.5 168,-98.5 0,-98.5"/>
<text text-anchor="start" x="8" y="-116.5" font-family="Helvetica,sans-Serif" font-size="10.00">tomoBay.model.services.factories.</text>
<text text-anchor="middle" x="84" y="-105.5" font-family="Helvetica,sans-Serif" font-size="10.00">AbstractServiceFactory</text>
</a>
</g>
</g>
<!-- Node2 -->
<g id="node2" class="node"><title>Node2</title>
<g id="a_node2"><a xlink:href="classtomoBay_1_1model_1_1services_1_1factories_1_1BasicEbayServiceFactory.html" target="_top" xlink:title="tomoBay.model.services.factories.\lBasicEbayServiceFactory">
<polygon fill="none" stroke="black" points="209,-196.5 209,-226.5 377,-226.5 377,-196.5 209,-196.5"/>
<text text-anchor="start" x="217" y="-214.5" font-family="Helvetica,sans-Serif" font-size="10.00">tomoBay.model.services.factories.</text>
<text text-anchor="middle" x="293" y="-203.5" font-family="Helvetica,sans-Serif" font-size="10.00">BasicEbayServiceFactory</text>
</a>
</g>
</g>
<!-- Node1&#45;&gt;Node2 -->
<g id="edge1" class="edge"><title>Node1&#45;&gt;Node2</title>
<path fill="none" stroke="midnightblue" d="M113.936,-134.374C137.303,-150.444 171.528,-172.25 204,-186.5 212.435,-190.202 221.565,-193.509 230.643,-196.411"/>
<polygon fill="midnightblue" stroke="midnightblue" points="115.744,-131.368 105.538,-128.523 111.742,-137.111 115.744,-131.368"/>
</g>
<!-- Node3 -->
<g id="node3" class="node"><title>Node3</title>
<g id="a_node3"><a xlink:href="classtomoBay_1_1model_1_1services_1_1factories_1_1IndividualItemRefreshServiceFactory.html" target="_top" xlink:title="tomoBay.model.services.factories.\lIndividualItemRefreshServiceFactory">
<polygon fill="none" stroke="black" points="204,-147.5 204,-177.5 382,-177.5 382,-147.5 204,-147.5"/>
<text text-anchor="start" x="212" y="-165.5" font-family="Helvetica,sans-Serif" font-size="10.00">tomoBay.model.services.factories.</text>
<text text-anchor="middle" x="293" y="-154.5" font-family="Helvetica,sans-Serif" font-size="10.00">IndividualItemRefreshServiceFactory</text>
</a>
</g>
</g>
<!-- Node1&#45;&gt;Node3 -->
<g id="edge2" class="edge"><title>Node1&#45;&gt;Node3</title>
<path fill="none" stroke="midnightblue" d="M158.522,-130.904C181.421,-136.324 206.463,-142.252 228.607,-147.494"/>
<polygon fill="midnightblue" stroke="midnightblue" points="159.051,-127.432 148.514,-128.535 157.438,-134.244 159.051,-127.432"/>
</g>
<!-- Node4 -->
<g id="node4" class="node"><title>Node4</title>
<g id="a_node4"><a xlink:href="classtomoBay_1_1model_1_1services_1_1factories_1_1InvoiceServiceFactory.html" target="_top" xlink:title="tomoBay.model.services.factories.\lInvoiceServiceFactory">
<polygon fill="none" stroke="black" points="209,-98.5 209,-128.5 377,-128.5 377,-98.5 209,-98.5"/>
<text text-anchor="start" x="217" y="-116.5" font-family="Helvetica,sans-Serif" font-size="10.00">tomoBay.model.services.factories.</text>
<text text-anchor="middle" x="293" y="-105.5" font-family="Helvetica,sans-Serif" font-size="10.00">InvoiceServiceFactory</text>
</a>
</g>
</g>
<!-- Node1&#45;&gt;Node4 -->
<g id="edge3" class="edge"><title>Node1&#45;&gt;Node4</title>
<path fill="none" stroke="midnightblue" d="M178.201,-113.5C188.46,-113.5 198.856,-113.5 208.979,-113.5"/>
<polygon fill="midnightblue" stroke="midnightblue" points="178.002,-110 168.002,-113.5 178.002,-117 178.002,-110"/>
</g>
<!-- Node5 -->
<g id="node5" class="node"><title>Node5</title>
<g id="a_node5"><a xlink:href="classtomoBay_1_1model_1_1services_1_1factories_1_1StockUpdateServiceFactory.html" target="_top" xlink:title="tomoBay.model.services.factories.\lStockUpdateServiceFactory">
<polygon fill="none" stroke="black" points="209,-49.5 209,-79.5 377,-79.5 377,-49.5 209,-49.5"/>
<text text-anchor="start" x="217" y="-67.5" font-family="Helvetica,sans-Serif" font-size="10.00">tomoBay.model.services.factories.</text>
<text text-anchor="middle" x="293" y="-56.5" font-family="Helvetica,sans-Serif" font-size="10.00">StockUpdateServiceFactory</text>
</a>
</g>
</g>
<!-- Node1&#45;&gt;Node5 -->
<g id="edge4" class="edge"><title>Node1&#45;&gt;Node5</title>
<path fill="none" stroke="midnightblue" d="M158.522,-96.0962C181.421,-90.6757 206.463,-84.748 228.607,-79.5062"/>
<polygon fill="midnightblue" stroke="midnightblue" points="157.438,-92.7559 148.514,-98.4654 159.051,-99.5677 157.438,-92.7559"/>
</g>
<!-- Node6 -->
<g id="node6" class="node"><title>Node6</title>
<g id="a_node6"><a xlink:href="classtomoBay_1_1model_1_1services_1_1factories_1_1TestServiceFactory.html" target="_top" xlink:title="tomoBay.model.services.factories.\lTestServiceFactory">
<polygon fill="none" stroke="black" points="209,-0.5 209,-30.5 377,-30.5 377,-0.5 209,-0.5"/>
<text text-anchor="start" x="217" y="-18.5" font-family="Helvetica,sans-Serif" font-size="10.00">tomoBay.model.services.factories.</text>
<text text-anchor="middle" x="293" y="-7.5" font-family="Helvetica,sans-Serif" font-size="10.00">TestServiceFactory</text>
</a>
</g>
</g>
<!-- Node1&#45;&gt;Node6 -->
<g id="edge5" class="edge"><title>Node1&#45;&gt;Node6</title>
<path fill="none" stroke="midnightblue" d="M113.936,-92.6264C137.303,-76.5556 171.528,-54.7496 204,-40.5 212.435,-36.7984 221.565,-33.4908 230.643,-30.5887"/>
<polygon fill="midnightblue" stroke="midnightblue" points="111.742,-89.8889 105.538,-98.4771 115.744,-95.6325 111.742,-89.8889"/>
</g>
</g>
</svg>
