<?xml version="1.0" encoding="UTF-8" standalone="no"?>
<!DOCTYPE svg PUBLIC "-//W3C//DTD SVG 1.1//EN"
 "http://www.w3.org/Graphics/SVG/1.1/DTD/svg11.dtd">
<!-- Generated by graphviz version 2.38.0 (20140413.2041)
 -->
<!-- Title: Graphical Class Hierarchy Pages: 1 -->
<svg width="405pt" height="98pt"
 viewBox="0.00 0.00 405.00 98.50" xmlns="http://www.w3.org/2000/svg" xmlns:xlink="http://www.w3.org/1999/xlink">
<g id="graph0" class="graph" transform="scale(1 1) rotate(0) translate(4 94.5)">
<title>Graphical Class Hierarchy</title>
<!-- Node1 -->
<g id="node1" class="node"><title>Node1</title>
<g id="a_node1"><a xlink:href="interfacetomoBay_1_1model_1_1services_1_1AbstractConfiguration.html" target="_top" xlink:title="tomoBay.model.services.Abstract\lConfiguration\&lt; T \&gt;">
<polygon fill="none" stroke="black" points="0,-33 0,-63 164,-63 164,-33 0,-33"/>
<text text-anchor="start" x="8" y="-51" font-family="Helvetica,sans-Serif" font-size="10.00">tomoBay.model.services.Abstract</text>
<text text-anchor="middle" x="82" y="-40" font-family="Helvetica,sans-Serif" font-size="10.00">Configuration&lt; T &gt;</text>
</a>
</g>
</g>
<!-- Node2 -->
<g id="node2" class="node"><title>Node2</title>
<g id="a_node2"><a xlink:href="classtomoBay_1_1model_1_1services_1_1individualItemRefresh_1_1IndividualItemRefreshConfig.html" target="_top" xlink:title="tomoBay.model.services.individual\lItemRefresh.IndividualItemRefreshConfig">
<polygon fill="none" stroke="black" points="200,-60 200,-90 397,-90 397,-60 200,-60"/>
<text text-anchor="start" x="208" y="-78" font-family="Helvetica,sans-Serif" font-size="10.00">tomoBay.model.services.individual</text>
<text text-anchor="middle" x="298.5" y="-67" font-family="Helvetica,sans-Serif" font-size="10.00">ItemRefresh.IndividualItemRefreshConfig</text>
</a>
</g>
</g>
<!-- Node1&#45;&gt;Node2 -->
<g id="edge1" class="edge"><title>Node1&#45;&gt;Node2</title>
<path fill="none" stroke="midnightblue" d="M174.271,-59.4886C182.681,-60.5472 191.225,-61.6227 199.69,-62.6882"/>
<polygon fill="midnightblue" stroke="midnightblue" points="174.452,-55.9839 164.093,-58.2075 173.578,-62.9291 174.452,-55.9839"/>
</g>
<!-- Node3 -->
<g id="node3" class="node"><title>Node3</title>
<g id="a_node3"><a xlink:href="classtomoBay_1_1model_1_1services_1_1updateOrderStatusService_1_1UpdateOrderStatusConfig.html" target="_top" xlink:title="tomoBay.model.services.update\lOrderStatusService.UpdateOrderStatus\lConfig">
<polygon fill="none" stroke="black" points="204,-0.5 204,-41.5 393,-41.5 393,-0.5 204,-0.5"/>
<text text-anchor="start" x="212" y="-29.5" font-family="Helvetica,sans-Serif" font-size="10.00">tomoBay.model.services.update</text>
<text text-anchor="start" x="212" y="-18.5" font-family="Helvetica,sans-Serif" font-size="10.00">OrderStatusService.UpdateOrderStatus</text>
<text text-anchor="middle" x="298.5" y="-7.5" font-family="Helvetica,sans-Serif" font-size="10.00">Config</text>
</a>
</g>
</g>
<!-- Node1&#45;&gt;Node3 -->
<g id="edge2" class="edge"><title>Node1&#45;&gt;Node3</title>
<path fill="none" stroke="midnightblue" d="M174.189,-36.5217C183.953,-35.2926 193.899,-34.0407 203.693,-32.8079"/>
<polygon fill="midnightblue" stroke="midnightblue" points="173.578,-33.0709 164.093,-37.7925 174.452,-40.0161 173.578,-33.0709"/>
</g>
</g>
</svg>
