<?xml version="1.0" encoding="UTF-8" standalone="no"?>
<!DOCTYPE svg PUBLIC "-//W3C//DTD SVG 1.1//EN"
 "http://www.w3.org/Graphics/SVG/1.1/DTD/svg11.dtd">
<!-- Generated by graphviz version 2.38.0 (20140413.2041)
 -->
<!-- Title: tomoBay.presenters.AbstractPresenter Pages: 1 -->
<!--zoomable 215 -->
<svg id="main" version="1.1" xmlns="http://www.w3.org/2000/svg" xmlns:xlink="http://www.w3.org/1999/xlink" xml:space="preserve" onload="init(evt)">
<style type="text/css"><![CDATA[
.edge:hover path { stroke: red; }
.edge:hover polygon { stroke: red; fill: red; }
]]></style>
<script type="text/javascript"><![CDATA[
var edges = document.getElementsByTagName('g');
if (edges && edges.length) {
  for (var i=0;i<edges.length;i++) {
    if (edges[i].id.substr(0,4)=='edge') {
      edges[i].setAttribute('class','edge');
    }
  }
}
]]></script>
        <defs>
                <circle id="rim" cx="0" cy="0" r="7"/>
                <circle id="rim2" cx="0" cy="0" r="3.5"/>
                <g id="zoomPlus">
                        <use xlink:href="#rim" fill="#404040">
                                <set attributeName="fill" to="#808080" begin="zoomplus.mouseover" end="zoomplus.mouseout"/>
                        </use>
                        <path d="M-4,0h8M0,-4v8" fill="none" stroke="white" stroke-width="1.5" pointer-events="none"/>
                </g>
                <g id="zoomMin">
                        <use xlink:href="#rim" fill="#404040">
                                <set attributeName="fill" to="#808080" begin="zoomminus.mouseover" end="zoomminus.mouseout"/>
                        </use>
                        <path d="M-4,0h8" fill="none" stroke="white" stroke-width="1.5" pointer-events="none"/>
                </g>
                <g id="dirArrow">
                        <path fill="none" stroke="white" stroke-width="1.5" d="M0,-3.0v7 M-2.5,-0.5L0,-3.0L2.5,-0.5"/>
                </g>
               <g id="resetDef">
                       <use xlink:href="#rim2" fill="#404040">
                               <set attributeName="fill" to="#808080" begin="reset.mouseover" end="reset.mouseout"/>
                       </use>
               </g>
        </defs>

<script type="text/javascript">
var viewWidth = 764;
var viewHeight = 215;
var sectionId = 'dynsection-0';
</script>
<script xlink:href="svgpan.js"/>
<svg id="graph" class="graph">
<g id="viewport">
<title>tomoBay.presenters.AbstractPresenter</title>
<!-- Node1 -->
<g id="node1" class="node"><title>Node1</title>
<polygon fill="#bfbfbf" stroke="black" points="289,-138.5 289,-206.5 433,-206.5 433,-138.5 289,-138.5"/>
<text text-anchor="start" x="297" y="-194.5" font-family="Helvetica,sans-Serif" font-size="10.00">tomoBay.presenters.Abstract</text>
<text text-anchor="middle" x="361" y="-183.5" font-family="Helvetica,sans-Serif" font-size="10.00">Presenter</text>
<polyline fill="none" stroke="black" points="289,-176.5 433,-176.5 "/>
<text text-anchor="middle" x="361" y="-164.5" font-family="Helvetica,sans-Serif" font-size="10.00"> </text>
<polyline fill="none" stroke="black" points="289,-157.5 433,-157.5 "/>
<text text-anchor="start" x="297" y="-145.5" font-family="Helvetica,sans-Serif" font-size="10.00">+ present()</text>
</g>
<!-- Node2 -->
<g id="node2" class="node"><title>Node2</title>
<g id="a_node2"><a xlink:href="classtomoBay_1_1presenters_1_1error_1_1ErrorPresenter.html" target="_top" xlink:title="{tomoBay.presenters.error.\lErrorPresenter\n||+ ErrorPresenter()\l+ present()\l}">
<polygon fill="none" stroke="black" points="0,-11.5 0,-90.5 130,-90.5 130,-11.5 0,-11.5"/>
<text text-anchor="start" x="8" y="-78.5" font-family="Helvetica,sans-Serif" font-size="10.00">tomoBay.presenters.error.</text>
<text text-anchor="middle" x="65" y="-67.5" font-family="Helvetica,sans-Serif" font-size="10.00">ErrorPresenter</text>
<polyline fill="none" stroke="black" points="0,-60.5 130,-60.5 "/>
<text text-anchor="middle" x="65" y="-48.5" font-family="Helvetica,sans-Serif" font-size="10.00"> </text>
<polyline fill="none" stroke="black" points="0,-41.5 130,-41.5 "/>
<text text-anchor="start" x="8" y="-29.5" font-family="Helvetica,sans-Serif" font-size="10.00">+ ErrorPresenter()</text>
<text text-anchor="start" x="8" y="-18.5" font-family="Helvetica,sans-Serif" font-size="10.00">+ present()</text>
</a>
</g>
</g>
<!-- Node1&#45;&gt;Node2 -->
<g id="edge1" class="edge"><title>Node1&#45;&gt;Node2</title>
<path fill="none" stroke="midnightblue" d="M278.93,-151.946C236.088,-140.228 183.475,-123.418 139,-102 132.155,-98.7036 125.219,-94.8372 118.478,-90.7399"/>
<polygon fill="none" stroke="midnightblue" points="278.189,-155.372 288.755,-154.592 280.009,-148.612 278.189,-155.372"/>
</g>
<!-- Node3 -->
<g id="node3" class="node"><title>Node3</title>
<g id="a_node3"><a xlink:href="classtomoBay_1_1presenters_1_1root_1_1RootPresenter.html" target="_top" xlink:title="{tomoBay.presenters.root.\lRootPresenter\n||+ RootPresenter()\l+ present()\l}">
<polygon fill="none" stroke="black" points="148.5,-11.5 148.5,-90.5 275.5,-90.5 275.5,-11.5 148.5,-11.5"/>
<text text-anchor="start" x="156.5" y="-78.5" font-family="Helvetica,sans-Serif" font-size="10.00">tomoBay.presenters.root.</text>
<text text-anchor="middle" x="212" y="-67.5" font-family="Helvetica,sans-Serif" font-size="10.00">RootPresenter</text>
<polyline fill="none" stroke="black" points="148.5,-60.5 275.5,-60.5 "/>
<text text-anchor="middle" x="212" y="-48.5" font-family="Helvetica,sans-Serif" font-size="10.00"> </text>
<polyline fill="none" stroke="black" points="148.5,-41.5 275.5,-41.5 "/>
<text text-anchor="start" x="156.5" y="-29.5" font-family="Helvetica,sans-Serif" font-size="10.00">+ RootPresenter()</text>
<text text-anchor="start" x="156.5" y="-18.5" font-family="Helvetica,sans-Serif" font-size="10.00">+ present()</text>
</a>
</g>
</g>
<!-- Node1&#45;&gt;Node3 -->
<g id="edge2" class="edge"><title>Node1&#45;&gt;Node3</title>
<path fill="none" stroke="midnightblue" d="M311.538,-131.831C294.989,-118.558 276.574,-103.789 260.128,-90.5997"/>
<polygon fill="none" stroke="midnightblue" points="309.504,-134.686 319.495,-138.213 313.884,-129.226 309.504,-134.686"/>
</g>
<!-- Node4 -->
<g id="node4" class="node"><title>Node4</title>
<g id="a_node4"><a xlink:href="classtomoBay_1_1presenters_1_1sales_1_1SalesHistoryPresenter.html" target="_top" xlink:title="{tomoBay.presenters.sales.\lSalesHistoryPresenter\n||+ SalesHistoryPresenter()\l+ present()\l}">
<polygon fill="none" stroke="black" points="294,-11.5 294,-90.5 428,-90.5 428,-11.5 294,-11.5"/>
<text text-anchor="start" x="302" y="-78.5" font-family="Helvetica,sans-Serif" font-size="10.00">tomoBay.presenters.sales.</text>
<text text-anchor="middle" x="361" y="-67.5" font-family="Helvetica,sans-Serif" font-size="10.00">SalesHistoryPresenter</text>
<polyline fill="none" stroke="black" points="294,-60.5 428,-60.5 "/>
<text text-anchor="middle" x="361" y="-48.5" font-family="Helvetica,sans-Serif" font-size="10.00"> </text>
<polyline fill="none" stroke="black" points="294,-41.5 428,-41.5 "/>
<text text-anchor="start" x="302" y="-29.5" font-family="Helvetica,sans-Serif" font-size="10.00">+ SalesHistoryPresenter()</text>
<text text-anchor="start" x="302" y="-18.5" font-family="Helvetica,sans-Serif" font-size="10.00">+ present()</text>
</a>
</g>
</g>
<!-- Node1&#45;&gt;Node4 -->
<g id="edge3" class="edge"><title>Node1&#45;&gt;Node4</title>
<path fill="none" stroke="midnightblue" d="M361,-128.176C361,-115.886 361,-102.59 361,-90.5997"/>
<polygon fill="none" stroke="midnightblue" points="357.5,-128.213 361,-138.213 364.5,-128.213 357.5,-128.213"/>
</g>
<!-- Node5 -->
<g id="node5" class="node"><title>Node5</title>
<g id="a_node5"><a xlink:href="classtomoBay_1_1presenters_1_1sales_1_1SalesOrderPresenter.html" target="_top" xlink:title="{tomoBay.presenters.sales.\lSalesOrderPresenter\n||+ SalesOrderPresenter()\l+ present()\l&#45; doStuff()\l&#45; pickeability()\l}">
<polygon fill="none" stroke="black" points="446,-0.5 446,-101.5 580,-101.5 580,-0.5 446,-0.5"/>
<text text-anchor="start" x="454" y="-89.5" font-family="Helvetica,sans-Serif" font-size="10.00">tomoBay.presenters.sales.</text>
<text text-anchor="middle" x="513" y="-78.5" font-family="Helvetica,sans-Serif" font-size="10.00">SalesOrderPresenter</text>
<polyline fill="none" stroke="black" points="446,-71.5 580,-71.5 "/>
<text text-anchor="middle" x="513" y="-59.5" font-family="Helvetica,sans-Serif" font-size="10.00"> </text>
<polyline fill="none" stroke="black" points="446,-52.5 580,-52.5 "/>
<text text-anchor="start" x="454" y="-40.5" font-family="Helvetica,sans-Serif" font-size="10.00">+ SalesOrderPresenter()</text>
<text text-anchor="start" x="454" y="-29.5" font-family="Helvetica,sans-Serif" font-size="10.00">+ present()</text>
<text text-anchor="start" x="454" y="-18.5" font-family="Helvetica,sans-Serif" font-size="10.00">&#45; doStuff()</text>
<text text-anchor="start" x="454" y="-7.5" font-family="Helvetica,sans-Serif" font-size="10.00">&#45; pickeability()</text>
</a>
</g>
</g>
<!-- Node1&#45;&gt;Node5 -->
<g id="edge4" class="edge"><title>Node1&#45;&gt;Node5</title>
<path fill="none" stroke="midnightblue" d="M411.286,-131.966C423.626,-122.264 436.992,-111.756 449.852,-101.646"/>
<polygon fill="none" stroke="midnightblue" points="409.039,-129.281 403.34,-138.213 413.365,-134.784 409.039,-129.281"/>
</g>
<!-- Node6 -->
<g id="node6" class="node"><title>Node6</title>
<g id="a_node6"><a xlink:href="classtomoBay_1_1presenters_1_1warehouse_1_1WarehouseOrderPresenter.html" target="_top" xlink:title="{tomoBay.presenters.warehouse.\lWarehouseOrderPresenter\n||+ WarehouseOrderPresenter()\l+ present()\l}">
<polygon fill="none" stroke="black" points="598,-11.5 598,-90.5 756,-90.5 756,-11.5 598,-11.5"/>
<text text-anchor="start" x="606" y="-78.5" font-family="Helvetica,sans-Serif" font-size="10.00">tomoBay.presenters.warehouse.</text>
<text text-anchor="middle" x="677" y="-67.5" font-family="Helvetica,sans-Serif" font-size="10.00">WarehouseOrderPresenter</text>
<polyline fill="none" stroke="black" points="598,-60.5 756,-60.5 "/>
<text text-anchor="middle" x="677" y="-48.5" font-family="Helvetica,sans-Serif" font-size="10.00"> </text>
<polyline fill="none" stroke="black" points="598,-41.5 756,-41.5 "/>
<text text-anchor="start" x="606" y="-29.5" font-family="Helvetica,sans-Serif" font-size="10.00">+ WarehouseOrderPresenter()</text>
<text text-anchor="start" x="606" y="-18.5" font-family="Helvetica,sans-Serif" font-size="10.00">+ present()</text>
</a>
</g>
</g>
<!-- Node1&#45;&gt;Node6 -->
<g id="edge5" class="edge"><title>Node1&#45;&gt;Node6</title>
<path fill="none" stroke="midnightblue" d="M442.873,-151.261C487.004,-139.186 541.909,-122.259 589,-102 596.909,-98.5973 605.015,-94.6654 612.951,-90.5315"/>
<polygon fill="none" stroke="midnightblue" points="441.793,-147.928 433.054,-153.917 443.621,-154.685 441.793,-147.928"/>
</g>
</g>
</svg>
        <g id="navigator" transform="translate(0 0)" fill="#404254">
                <rect fill="#f2f5e9" fill-opacity="0.5" stroke="#606060" stroke-width=".5" x="0" y="0" width="60" height="60"/>
                <use id="zoomplus" xlink:href="#zoomPlus" x="17" y="9" onmousedown="handleZoom(evt,'in')"/>
                <use id="zoomminus" xlink:href="#zoomMin" x="42" y="9" onmousedown="handleZoom(evt,'out')"/>
                <use id="reset" xlink:href="#resetDef" x="30" y="36" onmousedown="handleReset()"/>
                <g id="arrowUp" xlink:href="#dirArrow" transform="translate(30 24)" onmousedown="handlePan(0,-1)">
                  <use xlink:href="#rim" fill="#404040">
                        <set attributeName="fill" to="#808080" begin="arrowUp.mouseover" end="arrowUp.mouseout"/>
                  </use>
                  <path fill="none" stroke="white" stroke-width="1.5" d="M0,-3.0v7 M-2.5,-0.5L0,-3.0L2.5,-0.5"/>
                </g>
                <g id="arrowRight" xlink:href="#dirArrow" transform="rotate(90) translate(36 -43)" onmousedown="handlePan(1,0)">
                  <use xlink:href="#rim" fill="#404040">
                        <set attributeName="fill" to="#808080" begin="arrowRight.mouseover" end="arrowRight.mouseout"/>
                  </use>
                  <path fill="none" stroke="white" stroke-width="1.5" d="M0,-3.0v7 M-2.5,-0.5L0,-3.0L2.5,-0.5"/>
                </g>
                <g id="arrowDown" xlink:href="#dirArrow" transform="rotate(180) translate(-30 -48)" onmousedown="handlePan(0,1)">
                  <use xlink:href="#rim" fill="#404040">
                        <set attributeName="fill" to="#808080" begin="arrowDown.mouseover" end="arrowDown.mouseout"/>
                  </use>
                  <path fill="none" stroke="white" stroke-width="1.5" d="M0,-3.0v7 M-2.5,-0.5L0,-3.0L2.5,-0.5"/>
                </g>
                <g id="arrowLeft" xlink:href="#dirArrow" transform="rotate(270) translate(-36 17)" onmousedown="handlePan(-1,0)">
                  <use xlink:href="#rim" fill="#404040">
                        <set attributeName="fill" to="#808080" begin="arrowLeft.mouseover" end="arrowLeft.mouseout"/>
                  </use>
                  <path fill="none" stroke="white" stroke-width="1.5" d="M0,-3.0v7 M-2.5,-0.5L0,-3.0L2.5,-0.5"/>
                </g>
        </g>
        <svg viewBox="0 0 15 15" width="100%" height="30px" preserveAspectRatio="xMaxYMin meet">
         <g id="arrow_out" transform="scale(0.3 0.3)">
          <a xlink:href="interfacetomoBay_1_1presenters_1_1AbstractPresenter__inherit__graph_org.svg" target="_base">
           <rect id="button" ry="5" rx="5" y="6" x="6" height="38" width="38"
                fill="#f2f5e9" fill-opacity="0.5" stroke="#606060" stroke-width="1.0"/>
           <path id="arrow"
             d="M 11.500037,31.436501 C 11.940474,20.09759 22.043105,11.32322 32.158766,21.979434 L 37.068811,17.246167 C 37.068811,17.246167 37.088388,32 37.088388,32 L 22.160133,31.978069 C 22.160133,31.978069 26.997745,27.140456 26.997745,27.140456 C 18.528582,18.264221 13.291696,25.230495 11.500037,31.436501 z"
             style="fill:#404040;"/>
          </a>
         </g>
        </svg>
</svg>
