<?xml version="1.0" encoding="UTF-8" standalone="no"?>
<!DOCTYPE svg PUBLIC "-//W3C//DTD SVG 1.1//EN"
 "http://www.w3.org/Graphics/SVG/1.1/DTD/svg11.dtd">
<!-- Generated by graphviz version 2.38.0 (20140413.2041)
 -->
<!-- Title: tomoBay.model.sql.queries.concreteQueries.InsertEbayBuyers.execute Pages: 1 -->
<svg width="585pt" height="112pt"
 viewBox="0.00 0.00 585.00 112.00" xmlns="http://www.w3.org/2000/svg" xmlns:xlink="http://www.w3.org/1999/xlink">
<g id="graph0" class="graph" transform="scale(1 1) rotate(0) translate(4 108)">
<title>tomoBay.model.sql.queries.concreteQueries.InsertEbayBuyers.execute</title>
<!-- Node1 -->
<g id="node1" class="node"><title>Node1</title>
<polygon fill="#bfbfbf" stroke="black" points="0,-48.5 0,-78.5 176,-78.5 176,-48.5 0,-48.5"/>
<text text-anchor="start" x="8" y="-66.5" font-family="Helvetica,sans-Serif" font-size="10.00">tomoBay.model.sql.queries.concrete</text>
<text text-anchor="middle" x="88" y="-55.5" font-family="Helvetica,sans-Serif" font-size="10.00">Queries.InsertEbayBuyers.execute</text>
</g>
<!-- Node2 -->
<g id="node2" class="node"><title>Node2</title>
<g id="a_node2"><a xlink:href="classtomoBay_1_1model_1_1sql_1_1queries_1_1concreteQueries_1_1InsertEbayBuyers.html#a21878a91477e0704e741518dd26526d7" target="_top" xlink:title="tomoBay.model.sql.queries.concrete\lQueries.InsertEbayBuyers.cleanup">
<polygon fill="none" stroke="black" points="212,-73.5 212,-103.5 388,-103.5 388,-73.5 212,-73.5"/>
<text text-anchor="start" x="220" y="-91.5" font-family="Helvetica,sans-Serif" font-size="10.00">tomoBay.model.sql.queries.concrete</text>
<text text-anchor="middle" x="300" y="-80.5" font-family="Helvetica,sans-Serif" font-size="10.00">Queries.InsertEbayBuyers.cleanup</text>
</a>
</g>
</g>
<!-- Node1&#45;&gt;Node2 -->
<g id="edge1" class="edge"><title>Node1&#45;&gt;Node2</title>
<path fill="none" stroke="midnightblue" d="M176.235,-73.8851C184.658,-74.8879 193.239,-75.9094 201.751,-76.9228"/>
<polygon fill="midnightblue" stroke="midnightblue" points="201.355,-80.4003 211.699,-78.107 202.183,-73.4494 201.355,-80.4003"/>
</g>
<!-- Node3 -->
<g id="node3" class="node"><title>Node3</title>
<g id="a_node3"><a xlink:href="classtomoBay_1_1model_1_1sql_1_1queries_1_1concreteQueries_1_1InsertEbayBuyers.html#a7702f58d2256a3c73cd05c79f615ff1b" target="_top" xlink:title="tomoBay.model.sql.queries.concrete\lQueries.InsertEbayBuyers.initQuery">
<polygon fill="none" stroke="black" points="212,-24.5 212,-54.5 388,-54.5 388,-24.5 212,-24.5"/>
<text text-anchor="start" x="220" y="-42.5" font-family="Helvetica,sans-Serif" font-size="10.00">tomoBay.model.sql.queries.concrete</text>
<text text-anchor="middle" x="300" y="-31.5" font-family="Helvetica,sans-Serif" font-size="10.00">Queries.InsertEbayBuyers.initQuery</text>
</a>
</g>
</g>
<!-- Node1&#45;&gt;Node3 -->
<g id="edge2" class="edge"><title>Node1&#45;&gt;Node3</title>
<path fill="none" stroke="midnightblue" d="M176.235,-53.5303C184.658,-52.5676 193.239,-51.587 201.751,-50.6142"/>
<polygon fill="midnightblue" stroke="midnightblue" points="202.161,-54.0902 211.699,-49.4773 201.366,-47.1354 202.161,-54.0902"/>
</g>
<!-- Node4 -->
<g id="node4" class="node"><title>Node4</title>
<g id="a_node4"><a xlink:href="classtomoBay_1_1model_1_1sql_1_1ConnectionManager.html#a258fdcb8481c013b1864d6835e5dfaa2" target="_top" xlink:title="tomoBay.model.sql.Connection\lManager.instance">
<polygon fill="none" stroke="black" points="424,-49.5 424,-79.5 577,-79.5 577,-49.5 424,-49.5"/>
<text text-anchor="start" x="432" y="-67.5" font-family="Helvetica,sans-Serif" font-size="10.00">tomoBay.model.sql.Connection</text>
<text text-anchor="middle" x="500.5" y="-56.5" font-family="Helvetica,sans-Serif" font-size="10.00">Manager.instance</text>
</a>
</g>
</g>
<!-- Node3&#45;&gt;Node4 -->
<g id="edge3" class="edge"><title>Node3&#45;&gt;Node4</title>
<path fill="none" stroke="midnightblue" d="M388.065,-50.4654C396.6,-51.5403 405.258,-52.6307 413.78,-53.704"/>
<polygon fill="midnightblue" stroke="midnightblue" points="413.347,-57.177 423.706,-54.9541 414.221,-50.2319 413.347,-57.177"/>
</g>
<!-- Node5 -->
<g id="node5" class="node"><title>Node5</title>
<g id="a_node5"><a xlink:href="classtomoBay_1_1model_1_1sql_1_1ConnectionManager.html#ae409bc78f5d56de5a3da5dc34b992912" target="_top" xlink:title="tomoBay.model.sql.Connection\lManager.getConnection">
<polygon fill="none" stroke="black" points="424,-0.5 424,-30.5 577,-30.5 577,-0.5 424,-0.5"/>
<text text-anchor="start" x="432" y="-18.5" font-family="Helvetica,sans-Serif" font-size="10.00">tomoBay.model.sql.Connection</text>
<text text-anchor="middle" x="500.5" y="-7.5" font-family="Helvetica,sans-Serif" font-size="10.00">Manager.getConnection</text>
</a>
</g>
</g>
<!-- Node3&#45;&gt;Node5 -->
<g id="edge4" class="edge"><title>Node3&#45;&gt;Node5</title>
<path fill="none" stroke="midnightblue" d="M388.065,-28.9733C396.508,-27.9525 405.07,-26.9173 413.502,-25.8978"/>
<polygon fill="midnightblue" stroke="midnightblue" points="414.198,-29.3392 423.706,-24.6641 413.358,-22.3898 414.198,-29.3392"/>
</g>
</g>
</svg>
