<?xml version="1.0" encoding="UTF-8" standalone="no"?>
<!DOCTYPE svg PUBLIC "-//W3C//DTD SVG 1.1//EN"
 "http://www.w3.org/Graphics/SVG/1.1/DTD/svg11.dtd">
<!-- Generated by graphviz version 2.38.0 (20140413.2041)
 -->
<!-- Title: unitPrice Pages: 1 -->
<!--zoomable 213 -->
<svg id="main" version="1.1" xmlns="http://www.w3.org/2000/svg" xmlns:xlink="http://www.w3.org/1999/xlink" xml:space="preserve" onload="init(evt)">
<style type="text/css"><![CDATA[
.edge:hover path { stroke: red; }
.edge:hover polygon { stroke: red; fill: red; }
]]></style>
<script type="text/javascript"><![CDATA[
var edges = document.getElementsByTagName('g');
if (edges && edges.length) {
  for (var i=0;i<edges.length;i++) {
    if (edges[i].id.substr(0,4)=='edge') {
      edges[i].setAttribute('class','edge');
    }
  }
}
]]></script>
        <defs>
                <circle id="rim" cx="0" cy="0" r="7"/>
                <circle id="rim2" cx="0" cy="0" r="3.5"/>
                <g id="zoomPlus">
                        <use xlink:href="#rim" fill="#404040">
                                <set attributeName="fill" to="#808080" begin="zoomplus.mouseover" end="zoomplus.mouseout"/>
                        </use>
                        <path d="M-4,0h8M0,-4v8" fill="none" stroke="white" stroke-width="1.5" pointer-events="none"/>
                </g>
                <g id="zoomMin">
                        <use xlink:href="#rim" fill="#404040">
                                <set attributeName="fill" to="#808080" begin="zoomminus.mouseover" end="zoomminus.mouseout"/>
                        </use>
                        <path d="M-4,0h8" fill="none" stroke="white" stroke-width="1.5" pointer-events="none"/>
                </g>
                <g id="dirArrow">
                        <path fill="none" stroke="white" stroke-width="1.5" d="M0,-3.0v7 M-2.5,-0.5L0,-3.0L2.5,-0.5"/>
                </g>
               <g id="resetDef">
                       <use xlink:href="#rim2" fill="#404040">
                               <set attributeName="fill" to="#808080" begin="reset.mouseover" end="reset.mouseout"/>
                       </use>
               </g>
        </defs>

<script type="text/javascript">
var viewWidth = 1211;
var viewHeight = 213;
var sectionId = 'dynsection-12';
</script>
<script xlink:href="svgpan.js"/>
<svg id="graph" class="graph">
<g id="viewport">
<title>unitPrice</title>
<polygon fill="white" stroke="none" points="-4,4 -4,-208.5 1207,-208.5 1207,4 -4,4"/>
<!-- Node1 -->
<g id="node1" class="node"><title>Node1</title>
<polygon fill="#bfbfbf" stroke="black" points="0,-114.5 0,-133.5 55,-133.5 55,-114.5 0,-114.5"/>
<text text-anchor="middle" x="27.5" y="-121.5" font-family="Helvetica,sans-Serif" font-size="10.00">unitPrice</text>
</g>
<!-- Node2 -->
<g id="node2" class="node"><title>Node2</title>
<g id="a_node2"><a xlink:href="classtomoBay_1_1model_1_1dataTypes_1_1financial_1_1SalesOrderDayBook_1_1AbstractLineItem.html#aefb599c454b6ead96d42be66c5b38077" target="_top" xlink:title="create an AbstractLineItem using the parameters provided ">
<polygon fill="white" stroke="black" points="91,-133.5 91,-152.5 182,-152.5 182,-133.5 91,-133.5"/>
<text text-anchor="middle" x="136.5" y="-140.5" font-family="Helvetica,sans-Serif" font-size="10.00">AbstractLineItem</text>
</a>
</g>
</g>
<!-- Node1&#45;&gt;Node2 -->
<g id="edge1" class="edge"><title>Node1&#45;&gt;Node2</title>
<path fill="none" stroke="midnightblue" d="M65.2657,-130.528C73.4938,-131.99 82.3092,-133.555 90.8186,-135.066"/>
<polygon fill="midnightblue" stroke="midnightblue" points="65.6825,-127.048 55.2246,-128.745 64.4586,-133.94 65.6825,-127.048"/>
</g>
<!-- Node3 -->
<g id="node3" class="node"><title>Node3</title>
<g id="a_node3"><a xlink:href="classtomoBay_1_1model_1_1dataTypes_1_1financial_1_1SalesOrderDayBook_1_1AbstractLineItem.html#a906729ff4a7b3a1638da9e1b47e8ada2" target="_top" xlink:title="retrieve the price of the quantity of parts invoiced (EX VAT) ">
<polygon fill="white" stroke="black" points="117.5,-95.5 117.5,-114.5 155.5,-114.5 155.5,-95.5 117.5,-95.5"/>
<text text-anchor="middle" x="136.5" y="-102.5" font-family="Helvetica,sans-Serif" font-size="10.00">price</text>
</a>
</g>
</g>
<!-- Node1&#45;&gt;Node3 -->
<g id="edge2" class="edge"><title>Node1&#45;&gt;Node3</title>
<path fill="none" stroke="midnightblue" d="M65.2373,-117.477C82.8877,-114.342 103.246,-110.727 117.49,-108.198"/>
<polygon fill="midnightblue" stroke="midnightblue" points="64.4586,-114.06 55.2246,-119.255 65.6825,-120.952 64.4586,-114.06"/>
</g>
<!-- Node4 -->
<g id="node4" class="node"><title>Node4</title>
<g id="a_node4"><a xlink:href="classtomoBay_1_1model_1_1dataTypes_1_1financial_1_1SalesOrderDayBook_1_1PriceAdjustment.html#ad8b7947428df520815c610d319d7375a" target="_top" xlink:title="calculate the total cost (EX VAT) of the testPrices array. ">
<polygon fill="white" stroke="black" points="218,-174 218,-204 463,-204 463,-174 218,-174"/>
<text text-anchor="start" x="226" y="-192" font-family="Helvetica,sans-Serif" font-size="10.00">tomoBay.model.dataTypes.financial.</text>
<text text-anchor="middle" x="340.5" y="-181" font-family="Helvetica,sans-Serif" font-size="10.00">SalesOrderDayBook.PriceAdjustment.calculateTotal</text>
</a>
</g>
</g>
<!-- Node3&#45;&gt;Node4 -->
<g id="edge3" class="edge"><title>Node3&#45;&gt;Node4</title>
<path fill="none" stroke="midnightblue" d="M165.288,-114.593C171.074,-117.201 176.944,-120.338 182,-124 201.639,-138.226 196.987,-152.895 218,-165 223.962,-168.434 230.332,-171.385 236.915,-173.92"/>
<polygon fill="midnightblue" stroke="midnightblue" points="166.37,-111.254 155.789,-110.703 163.717,-117.732 166.37,-111.254"/>
</g>
<!-- Node8 -->
<g id="node8" class="node"><title>Node8</title>
<g id="a_node8"><a xlink:href="classtomoBay_1_1model_1_1dataTypes_1_1financial_1_1SalesOrderDayBook_1_1PriceAdjustment.html#afd83b468aec87b8e8c03649edfb3cbbc" target="_top" xlink:title="convert the internal list of AbstractLineItem withing the AbstractSalesDayBookLine to an array...">
<polygon fill="white" stroke="black" points="232.5,-114.5 232.5,-155.5 448.5,-155.5 448.5,-114.5 232.5,-114.5"/>
<text text-anchor="start" x="240.5" y="-143.5" font-family="Helvetica,sans-Serif" font-size="10.00">tomoBay.model.dataTypes.financial.</text>
<text text-anchor="start" x="240.5" y="-132.5" font-family="Helvetica,sans-Serif" font-size="10.00">SalesOrderDayBook.PriceAdjustment.convert</text>
<text text-anchor="middle" x="340.5" y="-121.5" font-family="Helvetica,sans-Serif" font-size="10.00">ListToArray</text>
</a>
</g>
</g>
<!-- Node3&#45;&gt;Node8 -->
<g id="edge7" class="edge"><title>Node3&#45;&gt;Node8</title>
<path fill="none" stroke="midnightblue" d="M165.718,-109.191C183.501,-111.832 207.702,-115.426 232.392,-119.093"/>
<polygon fill="midnightblue" stroke="midnightblue" points="166.188,-105.722 155.782,-107.715 165.16,-112.646 166.188,-105.722"/>
</g>
<!-- Node9 -->
<g id="node9" class="node"><title>Node9</title>
<g id="a_node9"><a xlink:href="classtomoBay_1_1model_1_1dataTypes_1_1financial_1_1SalesOrderDayBook_1_1PriceAdjustment.html#a7c388ac8b6eb2f6704db5aa38b291f1d" target="_top" xlink:title="actually performs the adjustement ">
<polygon fill="white" stroke="black" points="232,-54.5 232,-95.5 449,-95.5 449,-54.5 232,-54.5"/>
<text text-anchor="start" x="240" y="-83.5" font-family="Helvetica,sans-Serif" font-size="10.00">tomoBay.model.dataTypes.financial.</text>
<text text-anchor="start" x="240" y="-72.5" font-family="Helvetica,sans-Serif" font-size="10.00">SalesOrderDayBook.PriceAdjustment.perform</text>
<text text-anchor="middle" x="340.5" y="-61.5" font-family="Helvetica,sans-Serif" font-size="10.00">Adjustement</text>
</a>
</g>
</g>
<!-- Node3&#45;&gt;Node9 -->
<g id="edge9" class="edge"><title>Node3&#45;&gt;Node9</title>
<path fill="none" stroke="midnightblue" d="M165.91,-100.781C183.558,-98.1597 207.476,-94.6075 231.911,-90.9785"/>
<polygon fill="midnightblue" stroke="midnightblue" points="165.16,-97.3536 155.782,-102.285 166.188,-104.278 165.16,-97.3536"/>
</g>
<!-- Node10 -->
<g id="node10" class="node"><title>Node10</title>
<g id="a_node10"><a xlink:href="classtomoBay_1_1presenters_1_1presenterActions_1_1concreteActions_1_1OrderInfo.html#a703cbb509cdc01530f19b03f573120c9" target="_top" xlink:title="formats the transaction information associated with this order ">
<polygon fill="white" stroke="black" points="223.5,-6 223.5,-36 457.5,-36 457.5,-6 223.5,-6"/>
<text text-anchor="start" x="231.5" y="-24" font-family="Helvetica,sans-Serif" font-size="10.00">tomoBay.presenters.presenter</text>
<text text-anchor="middle" x="340.5" y="-13" font-family="Helvetica,sans-Serif" font-size="10.00">Actions.concreteActions.OrderInfo.transactionInfo</text>
</a>
</g>
</g>
<!-- Node3&#45;&gt;Node10 -->
<g id="edge11" class="edge"><title>Node3&#45;&gt;Node10</title>
<path fill="none" stroke="midnightblue" d="M155.126,-88.1658C170.514,-74.431 194.073,-55.6212 218,-45 225.763,-41.5542 234.022,-38.6004 242.441,-36.0687"/>
<polygon fill="midnightblue" stroke="midnightblue" points="152.472,-85.8512 147.468,-95.1899 157.203,-91.01 152.472,-85.8512"/>
</g>
<!-- Node5 -->
<g id="node5" class="node"><title>Node5</title>
<g id="a_node5"><a xlink:href="classtomoBay_1_1model_1_1dataTypes_1_1financial_1_1SalesOrderDayBook_1_1PriceAdjustment.html#ac2a5cb96c13a986d05bd0457a1971e2f" target="_top" xlink:title="calculate the adjustments necessary and apply them to the AbstractSalesDayBookLine provided as an arg...">
<polygon fill="white" stroke="black" points="499,-120 499,-150 709,-150 709,-120 499,-120"/>
<text text-anchor="start" x="507" y="-138" font-family="Helvetica,sans-Serif" font-size="10.00">tomoBay.model.dataTypes.financial.</text>
<text text-anchor="middle" x="604" y="-127" font-family="Helvetica,sans-Serif" font-size="10.00">SalesOrderDayBook.PriceAdjustment.adjust</text>
</a>
</g>
</g>
<!-- Node4&#45;&gt;Node5 -->
<g id="edge4" class="edge"><title>Node4&#45;&gt;Node5</title>
<path fill="none" stroke="midnightblue" d="M428.745,-171.942C440.271,-169.637 451.924,-167.28 463,-165 486.129,-160.238 511.372,-154.879 533.974,-150.022"/>
<polygon fill="midnightblue" stroke="midnightblue" points="427.79,-168.563 418.667,-173.951 429.158,-175.428 427.79,-168.563"/>
</g>
<!-- Node6 -->
<g id="node6" class="node"><title>Node6</title>
<g id="a_node6"><a xlink:href="classtomoBay_1_1model_1_1dataTypes_1_1financial_1_1SalesOrderDayBook_1_1AbstractSalesDayBookLine.html#a0c8ce8b50d57fa99babc2c2199a39fe3" target="_top" xlink:title="tomoBay.model.dataTypes.financial.\lSalesOrderDayBook.AbstractSalesDayBook\lLine.adjustPrices">
<polygon fill="white" stroke="black" points="745,-114.5 745,-155.5 956,-155.5 956,-114.5 745,-114.5"/>
<text text-anchor="start" x="753" y="-143.5" font-family="Helvetica,sans-Serif" font-size="10.00">tomoBay.model.dataTypes.financial.</text>
<text text-anchor="start" x="753" y="-132.5" font-family="Helvetica,sans-Serif" font-size="10.00">SalesOrderDayBook.AbstractSalesDayBook</text>
<text text-anchor="middle" x="850.5" y="-121.5" font-family="Helvetica,sans-Serif" font-size="10.00">Line.adjustPrices</text>
</a>
</g>
</g>
<!-- Node5&#45;&gt;Node6 -->
<g id="edge5" class="edge"><title>Node5&#45;&gt;Node6</title>
<path fill="none" stroke="midnightblue" d="M719.069,-135C727.638,-135 736.261,-135 744.769,-135"/>
<polygon fill="midnightblue" stroke="midnightblue" points="719.045,-131.5 709.045,-135 719.045,-138.5 719.045,-131.5"/>
</g>
<!-- Node7 -->
<g id="node7" class="node"><title>Node7</title>
<g id="a_node7"><a xlink:href="classtomoBay_1_1model_1_1dataTypes_1_1financial_1_1SalesOrderDayBook_1_1AbstractSalesDayBookLine.html#ae9d19609629c59f8df7ddec196fcc30c" target="_top" xlink:title="CONSTRUCTOR, creates a SalesDayBookLine based on the Order passed in as a parameter. ">
<polygon fill="white" stroke="black" points="992,-114.5 992,-155.5 1203,-155.5 1203,-114.5 992,-114.5"/>
<text text-anchor="start" x="1000" y="-143.5" font-family="Helvetica,sans-Serif" font-size="10.00">tomoBay.model.dataTypes.financial.</text>
<text text-anchor="start" x="1000" y="-132.5" font-family="Helvetica,sans-Serif" font-size="10.00">SalesOrderDayBook.AbstractSalesDayBook</text>
<text text-anchor="middle" x="1097.5" y="-121.5" font-family="Helvetica,sans-Serif" font-size="10.00">Line.AbstractSalesDayBookLine</text>
</a>
</g>
</g>
<!-- Node6&#45;&gt;Node7 -->
<g id="edge6" class="edge"><title>Node6&#45;&gt;Node7</title>
<path fill="none" stroke="midnightblue" d="M966.143,-135C974.716,-135 983.34,-135 991.847,-135"/>
<polygon fill="midnightblue" stroke="midnightblue" points="966.113,-131.5 956.113,-135 966.113,-138.5 966.113,-131.5"/>
</g>
<!-- Node8&#45;&gt;Node5 -->
<g id="edge8" class="edge"><title>Node8&#45;&gt;Node5</title>
<path fill="none" stroke="midnightblue" d="M458.728,-135C472.011,-135 485.481,-135 498.584,-135"/>
<polygon fill="midnightblue" stroke="midnightblue" points="458.617,-131.5 448.617,-135 458.617,-138.5 458.617,-131.5"/>
</g>
<!-- Node9&#45;&gt;Node5 -->
<g id="edge10" class="edge"><title>Node9&#45;&gt;Node5</title>
<path fill="none" stroke="midnightblue" d="M441.046,-97.8405C473.316,-105.245 508.279,-113.267 537.432,-119.956"/>
<polygon fill="midnightblue" stroke="midnightblue" points="441.657,-94.3897 431.128,-95.5647 440.092,-101.212 441.657,-94.3897"/>
</g>
<!-- Node11 -->
<g id="node11" class="node"><title>Node11</title>
<g id="a_node11"><a xlink:href="classtomoBay_1_1presenters_1_1presenterActions_1_1concreteActions_1_1OrderInfo.html#afeec1aeda079b77245edea1e74b25f33" target="_top" xlink:title="assembles the various parts of the order and outputs it as a fully formed JSON string. ">
<polygon fill="white" stroke="black" points="505.5,-0.5 505.5,-41.5 702.5,-41.5 702.5,-0.5 505.5,-0.5"/>
<text text-anchor="start" x="513.5" y="-29.5" font-family="Helvetica,sans-Serif" font-size="10.00">tomoBay.presenters.presenter</text>
<text text-anchor="start" x="513.5" y="-18.5" font-family="Helvetica,sans-Serif" font-size="10.00">Actions.concreteActions.OrderInfo.format</text>
<text text-anchor="middle" x="604" y="-7.5" font-family="Helvetica,sans-Serif" font-size="10.00">Results</text>
</a>
</g>
</g>
<!-- Node10&#45;&gt;Node11 -->
<g id="edge12" class="edge"><title>Node10&#45;&gt;Node11</title>
<path fill="none" stroke="midnightblue" d="M467.763,-21C480.311,-21 492.914,-21 505.11,-21"/>
<polygon fill="midnightblue" stroke="midnightblue" points="467.721,-17.5001 457.721,-21 467.721,-24.5001 467.721,-17.5001"/>
</g>
<!-- Node12 -->
<g id="node12" class="node"><title>Node12</title>
<g id="a_node12"><a xlink:href="classtomoBay_1_1presenters_1_1presenterActions_1_1concreteActions_1_1OrderInfo.html#adb3dedf31dc2c7fc796f20406c235ccd" target="_top" xlink:title="performs the action specified ">
<polygon fill="white" stroke="black" points="748.5,-6 748.5,-36 952.5,-36 952.5,-6 748.5,-6"/>
<text text-anchor="start" x="756.5" y="-24" font-family="Helvetica,sans-Serif" font-size="10.00">tomoBay.presenters.presenter</text>
<text text-anchor="middle" x="850.5" y="-13" font-family="Helvetica,sans-Serif" font-size="10.00">Actions.concreteActions.OrderInfo.execute</text>
</a>
</g>
</g>
<!-- Node11&#45;&gt;Node12 -->
<g id="edge13" class="edge"><title>Node11&#45;&gt;Node12</title>
<path fill="none" stroke="midnightblue" d="M712.971,-21C724.74,-21 736.687,-21 748.368,-21"/>
<polygon fill="midnightblue" stroke="midnightblue" points="712.687,-17.5001 702.687,-21 712.687,-24.5001 712.687,-17.5001"/>
</g>
</g>
</svg>
        <g id="navigator" transform="translate(0 0)" fill="#404254">
                <rect fill="#f2f5e9" fill-opacity="0.5" stroke="#606060" stroke-width=".5" x="0" y="0" width="60" height="60"/>
                <use id="zoomplus" xlink:href="#zoomPlus" x="17" y="9" onmousedown="handleZoom(evt,'in')"/>
                <use id="zoomminus" xlink:href="#zoomMin" x="42" y="9" onmousedown="handleZoom(evt,'out')"/>
                <use id="reset" xlink:href="#resetDef" x="30" y="36" onmousedown="handleReset()"/>
                <g id="arrowUp" xlink:href="#dirArrow" transform="translate(30 24)" onmousedown="handlePan(0,-1)">
                  <use xlink:href="#rim" fill="#404040">
                        <set attributeName="fill" to="#808080" begin="arrowUp.mouseover" end="arrowUp.mouseout"/>
                  </use>
                  <path fill="none" stroke="white" stroke-width="1.5" d="M0,-3.0v7 M-2.5,-0.5L0,-3.0L2.5,-0.5"/>
                </g>
                <g id="arrowRight" xlink:href="#dirArrow" transform="rotate(90) translate(36 -43)" onmousedown="handlePan(1,0)">
                  <use xlink:href="#rim" fill="#404040">
                        <set attributeName="fill" to="#808080" begin="arrowRight.mouseover" end="arrowRight.mouseout"/>
                  </use>
                  <path fill="none" stroke="white" stroke-width="1.5" d="M0,-3.0v7 M-2.5,-0.5L0,-3.0L2.5,-0.5"/>
                </g>
                <g id="arrowDown" xlink:href="#dirArrow" transform="rotate(180) translate(-30 -48)" onmousedown="handlePan(0,1)">
                  <use xlink:href="#rim" fill="#404040">
                        <set attributeName="fill" to="#808080" begin="arrowDown.mouseover" end="arrowDown.mouseout"/>
                  </use>
                  <path fill="none" stroke="white" stroke-width="1.5" d="M0,-3.0v7 M-2.5,-0.5L0,-3.0L2.5,-0.5"/>
                </g>
                <g id="arrowLeft" xlink:href="#dirArrow" transform="rotate(270) translate(-36 17)" onmousedown="handlePan(-1,0)">
                  <use xlink:href="#rim" fill="#404040">
                        <set attributeName="fill" to="#808080" begin="arrowLeft.mouseover" end="arrowLeft.mouseout"/>
                  </use>
                  <path fill="none" stroke="white" stroke-width="1.5" d="M0,-3.0v7 M-2.5,-0.5L0,-3.0L2.5,-0.5"/>
                </g>
        </g>
        <svg viewBox="0 0 15 15" width="100%" height="30px" preserveAspectRatio="xMaxYMin meet">
         <g id="arrow_out" transform="scale(0.3 0.3)">
          <a xlink:href="classtomoBay_1_1model_1_1dataTypes_1_1financial_1_1SalesOrderDayBook_1_1AbstractLineItem_a9384ad6463e803ada82c6c35d708939a_icgraph_org.svg" target="_base">
           <rect id="button" ry="5" rx="5" y="6" x="6" height="38" width="38"
                fill="#f2f5e9" fill-opacity="0.5" stroke="#606060" stroke-width="1.0"/>
           <path id="arrow"
             d="M 11.500037,31.436501 C 11.940474,20.09759 22.043105,11.32322 32.158766,21.979434 L 37.068811,17.246167 C 37.068811,17.246167 37.088388,32 37.088388,32 L 22.160133,31.978069 C 22.160133,31.978069 26.997745,27.140456 26.997745,27.140456 C 18.528582,18.264221 13.291696,25.230495 11.500037,31.436501 z"
             style="fill:#404040;"/>
          </a>
         </g>
        </svg>
</svg>
