<?xml version="1.0" encoding="UTF-8" standalone="no"?>
<!DOCTYPE svg PUBLIC "-//W3C//DTD SVG 1.1//EN"
 "http://www.w3.org/Graphics/SVG/1.1/DTD/svg11.dtd">
<!-- Generated by graphviz version 2.38.0 (20140413.2041)
 -->
<!-- Title: executeStatic Pages: 1 -->
<svg width="258pt" height="88pt"
 viewBox="0.00 0.00 258.00 88.00" xmlns="http://www.w3.org/2000/svg" xmlns:xlink="http://www.w3.org/1999/xlink">
<g id="graph0" class="graph" transform="scale(1 1) rotate(0) translate(4 84)">
<title>executeStatic</title>
<polygon fill="white" stroke="none" points="-4,4 -4,-84 254,-84 254,4 -4,4"/>
<!-- Node1 -->
<g id="node1" class="node"><title>Node1</title>
<polygon fill="#bfbfbf" stroke="black" points="0,-30 0,-49 77,-49 77,-30 0,-30"/>
<text text-anchor="middle" x="38.5" y="-37" font-family="Helvetica,sans-Serif" font-size="10.00">executeStatic</text>
</g>
<!-- Node2 -->
<g id="node2" class="node"><title>Node2</title>
<g id="a_node2"><a xlink:href="classtomoBay_1_1model_1_1dataTypes_1_1ServerStatus.html#a5a970a0f69193c7d515425d3ade75334" target="_top" xlink:title="retrieve an instance of this object ">
<polygon fill="white" stroke="black" points="113,-49.5 113,-79.5 250,-79.5 250,-49.5 113,-49.5"/>
<text text-anchor="start" x="121" y="-67.5" font-family="Helvetica,sans-Serif" font-size="10.00">tomoBay.model.dataTypes.</text>
<text text-anchor="middle" x="181.5" y="-56.5" font-family="Helvetica,sans-Serif" font-size="10.00">ServerStatus.instance</text>
</a>
</g>
</g>
<!-- Node1&#45;&gt;Node2 -->
<g id="edge1" class="edge"><title>Node1&#45;&gt;Node2</title>
<path fill="none" stroke="midnightblue" d="M77.2854,-46.1995C85.2867,-47.6182 94.0103,-49.1649 102.886,-50.7386"/>
<polygon fill="midnightblue" stroke="midnightblue" points="102.483,-54.2218 112.941,-52.5214 103.706,-47.3293 102.483,-54.2218"/>
</g>
<!-- Node3 -->
<g id="node3" class="node"><title>Node3</title>
<g id="a_node3"><a xlink:href="classtomoBay_1_1model_1_1dataTypes_1_1ServerStatus.html#ae8ffecb6ba6ddfc3fab85af64f6350f5" target="_top" xlink:title="tomoBay.model.dataTypes.\lServerStatus.setStatus">
<polygon fill="white" stroke="black" points="113,-0.5 113,-30.5 250,-30.5 250,-0.5 113,-0.5"/>
<text text-anchor="start" x="121" y="-18.5" font-family="Helvetica,sans-Serif" font-size="10.00">tomoBay.model.dataTypes.</text>
<text text-anchor="middle" x="181.5" y="-7.5" font-family="Helvetica,sans-Serif" font-size="10.00">ServerStatus.setStatus</text>
</a>
</g>
</g>
<!-- Node1&#45;&gt;Node3 -->
<g id="edge2" class="edge"><title>Node1&#45;&gt;Node3</title>
<path fill="none" stroke="midnightblue" d="M77.2854,-33.0684C85.2867,-31.7065 94.0103,-30.2216 102.886,-28.7109"/>
<polygon fill="midnightblue" stroke="midnightblue" points="103.67,-32.1279 112.941,-26.9994 102.495,-25.2271 103.67,-32.1279"/>
</g>
</g>
</svg>
