<?xml version="1.0" encoding="UTF-8" standalone="no"?>
<!DOCTYPE svg PUBLIC "-//W3C//DTD SVG 1.1//EN"
 "http://www.w3.org/Graphics/SVG/1.1/DTD/svg11.dtd">
<!-- Generated by graphviz version 2.38.0 (20140413.2041)
 -->
<!-- Title: size Pages: 1 -->
<!--zoomable 203 -->
<svg id="main" version="1.1" xmlns="http://www.w3.org/2000/svg" xmlns:xlink="http://www.w3.org/1999/xlink" xml:space="preserve" onload="init(evt)">
<style type="text/css"><![CDATA[
.edge:hover path { stroke: red; }
.edge:hover polygon { stroke: red; fill: red; }
]]></style>
<script type="text/javascript"><![CDATA[
var edges = document.getElementsByTagName('g');
if (edges && edges.length) {
  for (var i=0;i<edges.length;i++) {
    if (edges[i].id.substr(0,4)=='edge') {
      edges[i].setAttribute('class','edge');
    }
  }
}
]]></script>
        <defs>
                <circle id="rim" cx="0" cy="0" r="7"/>
                <circle id="rim2" cx="0" cy="0" r="3.5"/>
                <g id="zoomPlus">
                        <use xlink:href="#rim" fill="#404040">
                                <set attributeName="fill" to="#808080" begin="zoomplus.mouseover" end="zoomplus.mouseout"/>
                        </use>
                        <path d="M-4,0h8M0,-4v8" fill="none" stroke="white" stroke-width="1.5" pointer-events="none"/>
                </g>
                <g id="zoomMin">
                        <use xlink:href="#rim" fill="#404040">
                                <set attributeName="fill" to="#808080" begin="zoomminus.mouseover" end="zoomminus.mouseout"/>
                        </use>
                        <path d="M-4,0h8" fill="none" stroke="white" stroke-width="1.5" pointer-events="none"/>
                </g>
                <g id="dirArrow">
                        <path fill="none" stroke="white" stroke-width="1.5" d="M0,-3.0v7 M-2.5,-0.5L0,-3.0L2.5,-0.5"/>
                </g>
               <g id="resetDef">
                       <use xlink:href="#rim2" fill="#404040">
                               <set attributeName="fill" to="#808080" begin="reset.mouseover" end="reset.mouseout"/>
                       </use>
               </g>
        </defs>

<script type="text/javascript">
var viewWidth = 1134;
var viewHeight = 203;
var sectionId = 'dynsection-4';
</script>
<script xlink:href="svgpan.js"/>
<svg id="graph" class="graph">
<g id="viewport">
<title>size</title>
<polygon fill="white" stroke="none" points="-4,4 -4,-198.95 1130,-198.95 1130,4 -4,4"/>
<!-- Node1 -->
<g id="node1" class="node"><title>Node1</title>
<polygon fill="#bfbfbf" stroke="black" points="0,-96.5 0,-115.5 35,-115.5 35,-96.5 0,-96.5"/>
<text text-anchor="middle" x="17.5" y="-103.5" font-family="Helvetica,sans-Serif" font-size="10.00">size</text>
</g>
<!-- Node2 -->
<g id="node2" class="node"><title>Node2</title>
<g id="a_node2"><a xlink:href="classtomoBay_1_1model_1_1dataTypes_1_1financial_1_1SalesOrderDayBook_1_1PriceAdjustment.html#ad8b7947428df520815c610d319d7375a" target="_top" xlink:title="calculate the total cost (EX VAT) of the testPrices array. ">
<polygon fill="white" stroke="black" points="355,-161 355,-191 600,-191 600,-161 355,-161"/>
<text text-anchor="start" x="363" y="-179" font-family="Helvetica,sans-Serif" font-size="10.00">tomoBay.model.dataTypes.financial.</text>
<text text-anchor="middle" x="477.5" y="-168" font-family="Helvetica,sans-Serif" font-size="10.00">SalesOrderDayBook.PriceAdjustment.calculateTotal</text>
</a>
</g>
</g>
<!-- Node1&#45;&gt;Node2 -->
<g id="edge1" class="edge"><title>Node1&#45;&gt;Node2</title>
<path fill="none" stroke="midnightblue" d="M31.2892,-123.908C40.7776,-135.617 54.833,-149.995 71,-157 166.061,-198.188 285.655,-198.339 370.263,-191.001"/>
<polygon fill="midnightblue" stroke="midnightblue" points="33.8201,-121.456 24.9641,-115.64 28.2605,-125.709 33.8201,-121.456"/>
</g>
<!-- Node6 -->
<g id="node6" class="node"><title>Node6</title>
<g id="a_node6"><a xlink:href="classtomoBay_1_1model_1_1dataTypes_1_1financial_1_1SalesOrderDayBook_1_1formats_1_1WinstockFormat.html#accefd62bc10c59d9ba78937d90a5fa8c" target="_top" xlink:title="tomoBay.model.dataTypes.financial.\lSalesOrderDayBook.formats.WinstockFormat.format">
<polygon fill="white" stroke="black" points="71,-118 71,-148 319,-148 319,-118 71,-118"/>
<text text-anchor="start" x="79" y="-136" font-family="Helvetica,sans-Serif" font-size="10.00">tomoBay.model.dataTypes.financial.</text>
<text text-anchor="middle" x="195" y="-125" font-family="Helvetica,sans-Serif" font-size="10.00">SalesOrderDayBook.formats.WinstockFormat.format</text>
</a>
</g>
</g>
<!-- Node1&#45;&gt;Node6 -->
<g id="edge5" class="edge"><title>Node1&#45;&gt;Node6</title>
<path fill="none" stroke="midnightblue" d="M44.8951,-110.061C58.9738,-112.227 77.2705,-115.042 96.1993,-117.954"/>
<polygon fill="midnightblue" stroke="midnightblue" points="45.4266,-106.601 35.0106,-108.54 44.3621,-113.52 45.4266,-106.601"/>
</g>
<!-- Node7 -->
<g id="node7" class="node"><title>Node7</title>
<g id="a_node7"><a xlink:href="classtomoBay_1_1model_1_1dataTypes_1_1financial_1_1SalesOrderDayBook_1_1PriceAdjustment.html#a25654edd2b19acf24a704a92f4cfbf6e" target="_top" xlink:title="returns the number of AbstractLineItems (minus postage line items) contained within this AbstractSale...">
<polygon fill="white" stroke="black" points="98,-58.5 98,-99.5 292,-99.5 292,-58.5 98,-58.5"/>
<text text-anchor="start" x="106" y="-87.5" font-family="Helvetica,sans-Serif" font-size="10.00">tomoBay.model.dataTypes.financial.</text>
<text text-anchor="start" x="106" y="-76.5" font-family="Helvetica,sans-Serif" font-size="10.00">SalesOrderDayBook.PriceAdjustment.no</text>
<text text-anchor="middle" x="195" y="-65.5" font-family="Helvetica,sans-Serif" font-size="10.00">OfItems</text>
</a>
</g>
</g>
<!-- Node1&#45;&gt;Node7 -->
<g id="edge6" class="edge"><title>Node1&#45;&gt;Node7</title>
<path fill="none" stroke="midnightblue" d="M45.1459,-101.901C59.6031,-99.6765 78.4544,-96.7762 97.8581,-93.7911"/>
<polygon fill="midnightblue" stroke="midnightblue" points="44.3621,-98.4799 35.0106,-103.46 45.4266,-105.399 44.3621,-98.4799"/>
</g>
<!-- Node9 -->
<g id="node9" class="node"><title>Node9</title>
<g id="a_node9"><a xlink:href="classtomoBay_1_1presenters_1_1presenterActions_1_1concreteActions_1_1OrderInfo.html#ab4b3569de633225260e7e17c8947c8c5" target="_top" xlink:title="formats the shipping information associated with this order ">
<polygon fill="white" stroke="black" points="84,-9 84,-39 306,-39 306,-9 84,-9"/>
<text text-anchor="start" x="92" y="-27" font-family="Helvetica,sans-Serif" font-size="10.00">tomoBay.presenters.presenter</text>
<text text-anchor="middle" x="195" y="-16" font-family="Helvetica,sans-Serif" font-size="10.00">Actions.concreteActions.OrderInfo.shippingInfo</text>
</a>
</g>
</g>
<!-- Node1&#45;&gt;Node9 -->
<g id="edge10" class="edge"><title>Node1&#45;&gt;Node9</title>
<path fill="none" stroke="midnightblue" d="M30.636,-87.6382C40.1022,-74.8086 54.4035,-58.3597 71,-49 77.9279,-45.093 85.3806,-41.7918 93.0678,-39.0033"/>
<polygon fill="midnightblue" stroke="midnightblue" points="27.5154,-85.9919 24.6341,-96.1875 33.2446,-90.0141 27.5154,-85.9919"/>
</g>
<!-- Node3 -->
<g id="node3" class="node"><title>Node3</title>
<g id="a_node3"><a xlink:href="classtomoBay_1_1model_1_1dataTypes_1_1financial_1_1SalesOrderDayBook_1_1PriceAdjustment.html#ac2a5cb96c13a986d05bd0457a1971e2f" target="_top" xlink:title="calculate the adjustments necessary and apply them to the AbstractSalesDayBookLine provided as an arg...">
<polygon fill="white" stroke="black" points="636,-115 636,-145 846,-145 846,-115 636,-115"/>
<text text-anchor="start" x="644" y="-133" font-family="Helvetica,sans-Serif" font-size="10.00">tomoBay.model.dataTypes.financial.</text>
<text text-anchor="middle" x="741" y="-122" font-family="Helvetica,sans-Serif" font-size="10.00">SalesOrderDayBook.PriceAdjustment.adjust</text>
</a>
</g>
</g>
<!-- Node2&#45;&gt;Node3 -->
<g id="edge2" class="edge"><title>Node2&#45;&gt;Node3</title>
<path fill="none" stroke="midnightblue" d="M574.116,-159.18C600.475,-154.544 628.892,-149.545 654.63,-145.017"/>
<polygon fill="midnightblue" stroke="midnightblue" points="573.367,-155.758 564.125,-160.938 574.58,-162.652 573.367,-155.758"/>
</g>
<!-- Node4 -->
<g id="node4" class="node"><title>Node4</title>
<g id="a_node4"><a xlink:href="classtomoBay_1_1model_1_1dataTypes_1_1financial_1_1SalesOrderDayBook_1_1AbstractSalesDayBookLine.html#a0c8ce8b50d57fa99babc2c2199a39fe3" target="_top" xlink:title="adjustPrices">
<polygon fill="white" stroke="black" points="882,-120.5 882,-139.5 953,-139.5 953,-120.5 882,-120.5"/>
<text text-anchor="middle" x="917.5" y="-127.5" font-family="Helvetica,sans-Serif" font-size="10.00">adjustPrices</text>
</a>
</g>
</g>
<!-- Node3&#45;&gt;Node4 -->
<g id="edge3" class="edge"><title>Node3&#45;&gt;Node4</title>
<path fill="none" stroke="midnightblue" d="M856.135,-130C865.311,-130 874.048,-130 881.881,-130"/>
<polygon fill="midnightblue" stroke="midnightblue" points="856.027,-126.5 846.027,-130 856.027,-133.5 856.027,-126.5"/>
</g>
<!-- Node5 -->
<g id="node5" class="node"><title>Node5</title>
<g id="a_node5"><a xlink:href="classtomoBay_1_1model_1_1dataTypes_1_1financial_1_1SalesOrderDayBook_1_1AbstractSalesDayBookLine.html#ae9d19609629c59f8df7ddec196fcc30c" target="_top" xlink:title="CONSTRUCTOR, creates a SalesDayBookLine based on the Order passed in as a parameter. ">
<polygon fill="white" stroke="black" points="989,-120.5 989,-139.5 1126,-139.5 1126,-120.5 989,-120.5"/>
<text text-anchor="middle" x="1057.5" y="-127.5" font-family="Helvetica,sans-Serif" font-size="10.00">AbstractSalesDayBookLine</text>
</a>
</g>
</g>
<!-- Node4&#45;&gt;Node5 -->
<g id="edge4" class="edge"><title>Node4&#45;&gt;Node5</title>
<path fill="none" stroke="midnightblue" d="M963.353,-130C971.522,-130 980.207,-130 988.864,-130"/>
<polygon fill="midnightblue" stroke="midnightblue" points="963.323,-126.5 953.323,-130 963.323,-133.5 963.323,-126.5"/>
</g>
<!-- Node7&#45;&gt;Node3 -->
<g id="edge7" class="edge"><title>Node7&#45;&gt;Node3</title>
<path fill="none" stroke="midnightblue" d="M295.827,-101.456C315.362,-105.179 335.758,-108.603 355,-111 449.632,-122.791 558.203,-127.342 635.875,-129.06"/>
<polygon fill="midnightblue" stroke="midnightblue" points="296.492,-98.0196 286.008,-99.546 295.156,-104.891 296.492,-98.0196"/>
</g>
<!-- Node8 -->
<g id="node8" class="node"><title>Node8</title>
<g id="a_node8"><a xlink:href="classtomoBay_1_1model_1_1dataTypes_1_1financial_1_1SalesOrderDayBook_1_1PriceAdjustment.html#afd83b468aec87b8e8c03649edfb3cbbc" target="_top" xlink:title="convert the internal list of AbstractLineItem withing the AbstractSalesDayBookLine to an array...">
<polygon fill="white" stroke="black" points="369.5,-60.5 369.5,-101.5 585.5,-101.5 585.5,-60.5 369.5,-60.5"/>
<text text-anchor="start" x="377.5" y="-89.5" font-family="Helvetica,sans-Serif" font-size="10.00">tomoBay.model.dataTypes.financial.</text>
<text text-anchor="start" x="377.5" y="-78.5" font-family="Helvetica,sans-Serif" font-size="10.00">SalesOrderDayBook.PriceAdjustment.convert</text>
<text text-anchor="middle" x="477.5" y="-67.5" font-family="Helvetica,sans-Serif" font-size="10.00">ListToArray</text>
</a>
</g>
</g>
<!-- Node7&#45;&gt;Node8 -->
<g id="edge8" class="edge"><title>Node7&#45;&gt;Node8</title>
<path fill="none" stroke="midnightblue" d="M302.161,-79.7569C324.174,-79.9139 347.379,-80.0794 369.424,-80.2365"/>
<polygon fill="midnightblue" stroke="midnightblue" points="302.164,-76.257 292.14,-79.6855 302.115,-83.2568 302.164,-76.257"/>
</g>
<!-- Node8&#45;&gt;Node3 -->
<g id="edge9" class="edge"><title>Node8&#45;&gt;Node3</title>
<path fill="none" stroke="midnightblue" d="M595.561,-102.935C617.302,-107.009 639.554,-111.178 659.876,-114.986"/>
<polygon fill="midnightblue" stroke="midnightblue" points="596.09,-99.4733 585.617,-101.072 594.801,-106.354 596.09,-99.4733"/>
</g>
<!-- Node10 -->
<g id="node10" class="node"><title>Node10</title>
<g id="a_node10"><a xlink:href="classtomoBay_1_1presenters_1_1presenterActions_1_1concreteActions_1_1OrderInfo.html#afeec1aeda079b77245edea1e74b25f33" target="_top" xlink:title="assembles the various parts of the order and outputs it as a fully formed JSON string. ">
<polygon fill="white" stroke="black" points="379,-0.5 379,-41.5 576,-41.5 576,-0.5 379,-0.5"/>
<text text-anchor="start" x="387" y="-29.5" font-family="Helvetica,sans-Serif" font-size="10.00">tomoBay.presenters.presenter</text>
<text text-anchor="start" x="387" y="-18.5" font-family="Helvetica,sans-Serif" font-size="10.00">Actions.concreteActions.OrderInfo.format</text>
<text text-anchor="middle" x="477.5" y="-7.5" font-family="Helvetica,sans-Serif" font-size="10.00">Results</text>
</a>
</g>
</g>
<!-- Node9&#45;&gt;Node10 -->
<g id="edge11" class="edge"><title>Node9&#45;&gt;Node10</title>
<path fill="none" stroke="midnightblue" d="M316.222,-22.7142C337.046,-22.4915 358.471,-22.2623 378.61,-22.047"/>
<polygon fill="midnightblue" stroke="midnightblue" points="316.018,-19.2161 306.056,-22.8229 316.093,-26.2157 316.018,-19.2161"/>
</g>
<!-- Node11 -->
<g id="node11" class="node"><title>Node11</title>
<g id="a_node11"><a xlink:href="classtomoBay_1_1presenters_1_1presenterActions_1_1concreteActions_1_1OrderInfo.html#adb3dedf31dc2c7fc796f20406c235ccd" target="_top" xlink:title="performs the action specified ">
<polygon fill="white" stroke="black" points="639,-6 639,-36 843,-36 843,-6 639,-6"/>
<text text-anchor="start" x="647" y="-24" font-family="Helvetica,sans-Serif" font-size="10.00">tomoBay.presenters.presenter</text>
<text text-anchor="middle" x="741" y="-13" font-family="Helvetica,sans-Serif" font-size="10.00">Actions.concreteActions.OrderInfo.execute</text>
</a>
</g>
</g>
<!-- Node10&#45;&gt;Node11 -->
<g id="edge12" class="edge"><title>Node10&#45;&gt;Node11</title>
<path fill="none" stroke="midnightblue" d="M586.396,-21C603.762,-21 621.683,-21 638.882,-21"/>
<polygon fill="midnightblue" stroke="midnightblue" points="586.245,-17.5001 576.245,-21 586.245,-24.5001 586.245,-17.5001"/>
</g>
</g>
</svg>
        <g id="navigator" transform="translate(0 0)" fill="#404254">
                <rect fill="#f2f5e9" fill-opacity="0.5" stroke="#606060" stroke-width=".5" x="0" y="0" width="60" height="60"/>
                <use id="zoomplus" xlink:href="#zoomPlus" x="17" y="9" onmousedown="handleZoom(evt,'in')"/>
                <use id="zoomminus" xlink:href="#zoomMin" x="42" y="9" onmousedown="handleZoom(evt,'out')"/>
                <use id="reset" xlink:href="#resetDef" x="30" y="36" onmousedown="handleReset()"/>
                <g id="arrowUp" xlink:href="#dirArrow" transform="translate(30 24)" onmousedown="handlePan(0,-1)">
                  <use xlink:href="#rim" fill="#404040">
                        <set attributeName="fill" to="#808080" begin="arrowUp.mouseover" end="arrowUp.mouseout"/>
                  </use>
                  <path fill="none" stroke="white" stroke-width="1.5" d="M0,-3.0v7 M-2.5,-0.5L0,-3.0L2.5,-0.5"/>
                </g>
                <g id="arrowRight" xlink:href="#dirArrow" transform="rotate(90) translate(36 -43)" onmousedown="handlePan(1,0)">
                  <use xlink:href="#rim" fill="#404040">
                        <set attributeName="fill" to="#808080" begin="arrowRight.mouseover" end="arrowRight.mouseout"/>
                  </use>
                  <path fill="none" stroke="white" stroke-width="1.5" d="M0,-3.0v7 M-2.5,-0.5L0,-3.0L2.5,-0.5"/>
                </g>
                <g id="arrowDown" xlink:href="#dirArrow" transform="rotate(180) translate(-30 -48)" onmousedown="handlePan(0,1)">
                  <use xlink:href="#rim" fill="#404040">
                        <set attributeName="fill" to="#808080" begin="arrowDown.mouseover" end="arrowDown.mouseout"/>
                  </use>
                  <path fill="none" stroke="white" stroke-width="1.5" d="M0,-3.0v7 M-2.5,-0.5L0,-3.0L2.5,-0.5"/>
                </g>
                <g id="arrowLeft" xlink:href="#dirArrow" transform="rotate(270) translate(-36 17)" onmousedown="handlePan(-1,0)">
                  <use xlink:href="#rim" fill="#404040">
                        <set attributeName="fill" to="#808080" begin="arrowLeft.mouseover" end="arrowLeft.mouseout"/>
                  </use>
                  <path fill="none" stroke="white" stroke-width="1.5" d="M0,-3.0v7 M-2.5,-0.5L0,-3.0L2.5,-0.5"/>
                </g>
        </g>
        <svg viewBox="0 0 15 15" width="100%" height="30px" preserveAspectRatio="xMaxYMin meet">
         <g id="arrow_out" transform="scale(0.3 0.3)">
          <a xlink:href="classtomoBay_1_1model_1_1dataTypes_1_1financial_1_1SalesOrderDayBook_1_1AbstractSalesDayBookLine_af4b57d21919c42d55af03391f91a1c08_icgraph_org.svg" target="_base">
           <rect id="button" ry="5" rx="5" y="6" x="6" height="38" width="38"
                fill="#f2f5e9" fill-opacity="0.5" stroke="#606060" stroke-width="1.0"/>
           <path id="arrow"
             d="M 11.500037,31.436501 C 11.940474,20.09759 22.043105,11.32322 32.158766,21.979434 L 37.068811,17.246167 C 37.068811,17.246167 37.088388,32 37.088388,32 L 22.160133,31.978069 C 22.160133,31.978069 26.997745,27.140456 26.997745,27.140456 C 18.528582,18.264221 13.291696,25.230495 11.500037,31.436501 z"
             style="fill:#404040;"/>
          </a>
         </g>
        </svg>
</svg>
