<?xml version="1.0" encoding="UTF-8" standalone="no"?>
<!DOCTYPE svg PUBLIC "-//W3C//DTD SVG 1.1//EN"
 "http://www.w3.org/Graphics/SVG/1.1/DTD/svg11.dtd">
<!-- Generated by graphviz version 2.38.0 (20140413.2041)
 -->
<!-- Title: setStatus Pages: 1 -->
<svg width="461pt" height="88pt"
 viewBox="0.00 0.00 461.00 88.00" xmlns="http://www.w3.org/2000/svg" xmlns:xlink="http://www.w3.org/1999/xlink">
<g id="graph0" class="graph" transform="scale(1 1) rotate(0) translate(4 84)">
<title>setStatus</title>
<polygon fill="white" stroke="none" points="-4,4 -4,-84 457,-84 457,4 -4,4"/>
<!-- Node1 -->
<g id="node1" class="node"><title>Node1</title>
<polygon fill="#bfbfbf" stroke="black" points="0,-24.5 0,-43.5 59,-43.5 59,-24.5 0,-24.5"/>
<text text-anchor="middle" x="29.5" y="-31.5" font-family="Helvetica,sans-Serif" font-size="10.00">setStatus</text>
</g>
<!-- Node2 -->
<g id="node2" class="node"><title>Node2</title>
<g id="a_node2"><a xlink:href="classtomoBay_1_1presenters_1_1presenterActions_1_1concreteActions_1_1PeriodicServicesController.html#a201d11e815c2a711053672277546c945" target="_top" xlink:title="tomoBay.presenters.presenter\lActions.concreteActions.Periodic\lServicesController.executeStatic">
<polygon fill="white" stroke="black" points="95,-38.5 95,-79.5 256,-79.5 256,-38.5 95,-38.5"/>
<text text-anchor="start" x="103" y="-67.5" font-family="Helvetica,sans-Serif" font-size="10.00">tomoBay.presenters.presenter</text>
<text text-anchor="start" x="103" y="-56.5" font-family="Helvetica,sans-Serif" font-size="10.00">Actions.concreteActions.Periodic</text>
<text text-anchor="middle" x="175.5" y="-45.5" font-family="Helvetica,sans-Serif" font-size="10.00">ServicesController.executeStatic</text>
</a>
</g>
</g>
<!-- Node1&#45;&gt;Node2 -->
<g id="edge1" class="edge"><title>Node1&#45;&gt;Node2</title>
<path fill="none" stroke="midnightblue" d="M69.3112,-40.7381C77.2684,-42.1195 85.918,-43.6212 94.7245,-45.1501"/>
<polygon fill="midnightblue" stroke="midnightblue" points="69.7458,-37.2612 59.2945,-38.999 68.5484,-44.1581 69.7458,-37.2612"/>
</g>
<!-- Node4 -->
<g id="node4" class="node"><title>Node4</title>
<g id="a_node4"><a xlink:href="classtomoBay_1_1MAIN.html#a61e38df44ecd3cfa182ce847a01fa2c7" target="_top" xlink:title="tomoBay.MAIN.main">
<polygon fill="white" stroke="black" points="121.5,-0.5 121.5,-19.5 229.5,-19.5 229.5,-0.5 121.5,-0.5"/>
<text text-anchor="middle" x="175.5" y="-7.5" font-family="Helvetica,sans-Serif" font-size="10.00">tomoBay.MAIN.main</text>
</a>
</g>
</g>
<!-- Node1&#45;&gt;Node4 -->
<g id="edge3" class="edge"><title>Node1&#45;&gt;Node4</title>
<path fill="none" stroke="midnightblue" d="M69.3429,-27.5262C85.3131,-24.8645 104.068,-21.7387 121.282,-18.8696"/>
<polygon fill="midnightblue" stroke="midnightblue" points="68.583,-24.1045 59.2945,-29.2009 69.7338,-31.0092 68.583,-24.1045"/>
</g>
<!-- Node3 -->
<g id="node3" class="node"><title>Node3</title>
<g id="a_node3"><a xlink:href="classtomoBay_1_1presenters_1_1presenterActions_1_1concreteActions_1_1PeriodicServicesController.html#adb3dedf31dc2c7fc796f20406c235ccd" target="_top" xlink:title="performs the action specified ">
<polygon fill="white" stroke="black" points="292,-38.5 292,-79.5 453,-79.5 453,-38.5 292,-38.5"/>
<text text-anchor="start" x="300" y="-67.5" font-family="Helvetica,sans-Serif" font-size="10.00">tomoBay.presenters.presenter</text>
<text text-anchor="start" x="300" y="-56.5" font-family="Helvetica,sans-Serif" font-size="10.00">Actions.concreteActions.Periodic</text>
<text text-anchor="middle" x="372.5" y="-45.5" font-family="Helvetica,sans-Serif" font-size="10.00">ServicesController.execute</text>
</a>
</g>
</g>
<!-- Node2&#45;&gt;Node3 -->
<g id="edge2" class="edge"><title>Node2&#45;&gt;Node3</title>
<path fill="none" stroke="midnightblue" d="M266.117,-59C274.7,-59 283.365,-59 291.843,-59"/>
<polygon fill="midnightblue" stroke="midnightblue" points="266.095,-55.5001 256.095,-59 266.095,-62.5001 266.095,-55.5001"/>
</g>
</g>
</svg>
