<?xml version="1.0" encoding="UTF-8" standalone="no"?>
<!DOCTYPE svg PUBLIC "-//W3C//DTD SVG 1.1//EN"
 "http://www.w3.org/Graphics/SVG/1.1/DTD/svg11.dtd">
<!-- Generated by graphviz version 2.38.0 (20140413.2041)
 -->
<!-- Title: postFormatXMLString Pages: 1 -->
<!--zoomable 195 -->
<svg id="main" version="1.1" xmlns="http://www.w3.org/2000/svg" xmlns:xlink="http://www.w3.org/1999/xlink" xml:space="preserve" onload="init(evt)">
<style type="text/css"><![CDATA[
.edge:hover path { stroke: red; }
.edge:hover polygon { stroke: red; fill: red; }
]]></style>
<script type="text/javascript"><![CDATA[
var edges = document.getElementsByTagName('g');
if (edges && edges.length) {
  for (var i=0;i<edges.length;i++) {
    if (edges[i].id.substr(0,4)=='edge') {
      edges[i].setAttribute('class','edge');
    }
  }
}
]]></script>
        <defs>
                <circle id="rim" cx="0" cy="0" r="7"/>
                <circle id="rim2" cx="0" cy="0" r="3.5"/>
                <g id="zoomPlus">
                        <use xlink:href="#rim" fill="#404040">
                                <set attributeName="fill" to="#808080" begin="zoomplus.mouseover" end="zoomplus.mouseout"/>
                        </use>
                        <path d="M-4,0h8M0,-4v8" fill="none" stroke="white" stroke-width="1.5" pointer-events="none"/>
                </g>
                <g id="zoomMin">
                        <use xlink:href="#rim" fill="#404040">
                                <set attributeName="fill" to="#808080" begin="zoomminus.mouseover" end="zoomminus.mouseout"/>
                        </use>
                        <path d="M-4,0h8" fill="none" stroke="white" stroke-width="1.5" pointer-events="none"/>
                </g>
                <g id="dirArrow">
                        <path fill="none" stroke="white" stroke-width="1.5" d="M0,-3.0v7 M-2.5,-0.5L0,-3.0L2.5,-0.5"/>
                </g>
               <g id="resetDef">
                       <use xlink:href="#rim2" fill="#404040">
                               <set attributeName="fill" to="#808080" begin="reset.mouseover" end="reset.mouseout"/>
                       </use>
               </g>
        </defs>

<script type="text/javascript">
var viewWidth = 948;
var viewHeight = 195;
var sectionId = 'dynsection-9';
</script>
<script xlink:href="svgpan.js"/>
<svg id="graph" class="graph">
<g id="viewport">
<title>postFormatXMLString</title>
<polygon fill="white" stroke="none" points="-4,4 -4,-190.5 944,-190.5 944,4 -4,4"/>
<!-- Node1 -->
<g id="node1" class="node"><title>Node1</title>
<polygon fill="#bfbfbf" stroke="black" points="0,-112.5 0,-131.5 112,-131.5 112,-112.5 0,-112.5"/>
<text text-anchor="middle" x="56" y="-119.5" font-family="Helvetica,sans-Serif" font-size="10.00">postFormatXMLString</text>
</g>
<!-- Node2 -->
<g id="node2" class="node"><title>Node2</title>
<g id="a_node2"><a xlink:href="classtomoBay_1_1model_1_1winstock_1_1Stock.html#a2f9ab14be95470a1bcd37a30a7ec90ae" target="_top" xlink:title="query winstock for the description of a particular part. ">
<polygon fill="white" stroke="black" points="148,-155.5 148,-174.5 246,-174.5 246,-155.5 148,-155.5"/>
<text text-anchor="middle" x="197" y="-162.5" font-family="Helvetica,sans-Serif" font-size="10.00">requestDescription</text>
</a>
</g>
</g>
<!-- Node1&#45;&gt;Node2 -->
<g id="edge1" class="edge"><title>Node1&#45;&gt;Node2</title>
<path fill="none" stroke="midnightblue" d="M97.427,-134.506C119.061,-141.199 145.28,-149.31 165.238,-155.484"/>
<polygon fill="midnightblue" stroke="midnightblue" points="98.4363,-131.155 87.8486,-131.543 96.3675,-137.842 98.4363,-131.155"/>
</g>
<!-- Node5 -->
<g id="node5" class="node"><title>Node5</title>
<g id="a_node5"><a xlink:href="classtomoBay_1_1model_1_1winstock_1_1Stock.html#a70543974420d7d2cb4a4c0080a2afc07" target="_top" xlink:title="query winstock for the last cost price of a particular part. ">
<polygon fill="white" stroke="black" points="152.5,-112.5 152.5,-131.5 241.5,-131.5 241.5,-112.5 152.5,-112.5"/>
<text text-anchor="middle" x="197" y="-119.5" font-family="Helvetica,sans-Serif" font-size="10.00">requestLastCost</text>
</a>
</g>
</g>
<!-- Node1&#45;&gt;Node5 -->
<g id="edge4" class="edge"><title>Node1&#45;&gt;Node5</title>
<path fill="none" stroke="midnightblue" d="M122.433,-122C132.601,-122 142.886,-122 152.413,-122"/>
<polygon fill="midnightblue" stroke="midnightblue" points="122.336,-118.5 112.336,-122 122.336,-125.5 122.336,-118.5"/>
</g>
<!-- Node7 -->
<g id="node7" class="node"><title>Node7</title>
<g id="a_node7"><a xlink:href="classtomoBay_1_1model_1_1winstock_1_1Stock.html#ab5bd9ec559aad43ce24087d3cc7b5cf0" target="_top" xlink:title="query winstock for the stock level of a particular part. ">
<polygon fill="white" stroke="black" points="148,-63.5 148,-82.5 246,-82.5 246,-63.5 148,-63.5"/>
<text text-anchor="middle" x="197" y="-70.5" font-family="Helvetica,sans-Serif" font-size="10.00">requestStockLevel</text>
</a>
</g>
</g>
<!-- Node1&#45;&gt;Node7 -->
<g id="edge7" class="edge"><title>Node1&#45;&gt;Node7</title>
<path fill="none" stroke="midnightblue" d="M93.8029,-109.026C117.406,-100.706 147.526,-90.088 168.938,-82.5399"/>
<polygon fill="midnightblue" stroke="midnightblue" points="92.3981,-105.81 84.1306,-112.436 94.7254,-112.412 92.3981,-105.81"/>
</g>
<!-- Node3 -->
<g id="node3" class="node"><title>Node3</title>
<g id="a_node3"><a xlink:href="classtomoBay_1_1model_1_1dataTypes_1_1order_1_1Part.html#a35fa0786da9722faf378ccf27cccbea6" target="_top" xlink:title="find the description of this part, using winstock ">
<polygon fill="white" stroke="black" points="300.5,-156 300.5,-186 461.5,-186 461.5,-156 300.5,-156"/>
<text text-anchor="start" x="308.5" y="-174" font-family="Helvetica,sans-Serif" font-size="10.00">tomoBay.model.dataTypes.order.</text>
<text text-anchor="middle" x="381" y="-163" font-family="Helvetica,sans-Serif" font-size="10.00">Part.getDescription</text>
</a>
</g>
</g>
<!-- Node2&#45;&gt;Node3 -->
<g id="edge2" class="edge"><title>Node2&#45;&gt;Node3</title>
<path fill="none" stroke="midnightblue" d="M256.303,-166.922C270.371,-167.386 285.642,-167.889 300.497,-168.379"/>
<polygon fill="midnightblue" stroke="midnightblue" points="256.405,-163.424 246.295,-166.592 256.174,-170.42 256.405,-163.424"/>
</g>
<!-- Node4 -->
<g id="node4" class="node"><title>Node4</title>
<g id="a_node4"><a xlink:href="classtomoBay_1_1model_1_1dataTypes_1_1order_1_1Part.html#a21a16cfaa442e4ae57f10d8cc440c1fa" target="_top" xlink:title="default ctor ">
<polygon fill="white" stroke="black" points="532.5,-132 532.5,-162 693.5,-162 693.5,-132 532.5,-132"/>
<text text-anchor="start" x="540.5" y="-150" font-family="Helvetica,sans-Serif" font-size="10.00">tomoBay.model.dataTypes.order.</text>
<text text-anchor="middle" x="613" y="-139" font-family="Helvetica,sans-Serif" font-size="10.00">Part.Part</text>
</a>
</g>
</g>
<!-- Node3&#45;&gt;Node4 -->
<g id="edge3" class="edge"><title>Node3&#45;&gt;Node4</title>
<path fill="none" stroke="midnightblue" d="M471.815,-161.628C491.783,-159.544 512.816,-157.35 532.344,-155.312"/>
<polygon fill="midnightblue" stroke="midnightblue" points="471.38,-158.154 461.797,-162.673 472.107,-165.116 471.38,-158.154"/>
</g>
<!-- Node6 -->
<g id="node6" class="node"><title>Node6</title>
<g id="a_node6"><a xlink:href="classtomoBay_1_1model_1_1dataTypes_1_1order_1_1Part.html#aee50f745ad12c48b5f2dc8eda4fdd6ec" target="_top" xlink:title="retrieve the cost of this particular part from winstock ">
<polygon fill="white" stroke="black" points="300.5,-107 300.5,-137 461.5,-137 461.5,-107 300.5,-107"/>
<text text-anchor="start" x="308.5" y="-125" font-family="Helvetica,sans-Serif" font-size="10.00">tomoBay.model.dataTypes.order.</text>
<text text-anchor="middle" x="381" y="-114" font-family="Helvetica,sans-Serif" font-size="10.00">Part.getCost</text>
</a>
</g>
</g>
<!-- Node5&#45;&gt;Node6 -->
<g id="edge5" class="edge"><title>Node5&#45;&gt;Node6</title>
<path fill="none" stroke="midnightblue" d="M251.853,-122C267.099,-122 284.025,-122 300.445,-122"/>
<polygon fill="midnightblue" stroke="midnightblue" points="251.594,-118.5 241.594,-122 251.594,-125.5 251.594,-118.5"/>
</g>
<!-- Node6&#45;&gt;Node4 -->
<g id="edge6" class="edge"><title>Node6&#45;&gt;Node4</title>
<path fill="none" stroke="midnightblue" d="M471.815,-131.762C491.783,-133.933 512.816,-136.219 532.344,-138.342"/>
<polygon fill="midnightblue" stroke="midnightblue" points="472.117,-128.275 461.797,-130.674 471.361,-135.234 472.117,-128.275"/>
</g>
<!-- Node8 -->
<g id="node8" class="node"><title>Node8</title>
<g id="a_node8"><a xlink:href="classtomoBay_1_1presenters_1_1helpers_1_1pickeability_1_1ItemStockLevel.html#a22844faa947573bb01d9313f7bdb1e56" target="_top" xlink:title="Takes the list of items generated in this.assembleItemsList and checks a PartList associated with eac...">
<polygon fill="white" stroke="black" points="282,-58 282,-88 480,-88 480,-58 282,-58"/>
<text text-anchor="start" x="290" y="-76" font-family="Helvetica,sans-Serif" font-size="10.00">tomoBay.presenters.helpers.pickeability.</text>
<text text-anchor="middle" x="381" y="-65" font-family="Helvetica,sans-Serif" font-size="10.00">ItemStockLevel.checkStockLevelOfItems</text>
</a>
</g>
</g>
<!-- Node7&#45;&gt;Node8 -->
<g id="edge8" class="edge"><title>Node7&#45;&gt;Node8</title>
<path fill="none" stroke="midnightblue" d="M256.407,-73C264.579,-73 273.156,-73 281.82,-73"/>
<polygon fill="midnightblue" stroke="midnightblue" points="256.295,-69.5001 246.295,-73 256.295,-76.5001 256.295,-69.5001"/>
</g>
<!-- Node11 -->
<g id="node11" class="node"><title>Node11</title>
<g id="a_node11"><a xlink:href="classtomoBay_1_1model_1_1services_1_1checkErrorsService_1_1OnRunning.html#ae4a4f4cadce2787c7e80005639fbd5d9" target="_top" xlink:title="this method defines what to do in the given derived state ">
<polygon fill="white" stroke="black" points="298.5,-8 298.5,-38 463.5,-38 463.5,-8 298.5,-8"/>
<text text-anchor="start" x="306.5" y="-26" font-family="Helvetica,sans-Serif" font-size="10.00">tomoBay.model.services.check</text>
<text text-anchor="middle" x="381" y="-15" font-family="Helvetica,sans-Serif" font-size="10.00">ErrorsService.OnRunning.execute</text>
</a>
</g>
</g>
<!-- Node7&#45;&gt;Node11 -->
<g id="edge11" class="edge"><title>Node7&#45;&gt;Node11</title>
<path fill="none" stroke="midnightblue" d="M238.682,-60.5399C252.408,-56.43 267.838,-51.9122 282,-48 294.101,-44.6571 307.088,-41.2313 319.52,-38.0298"/>
<polygon fill="midnightblue" stroke="midnightblue" points="237.597,-57.2113 229.031,-63.446 239.616,-63.914 237.597,-57.2113"/>
</g>
<!-- Node9 -->
<g id="node9" class="node"><title>Node9</title>
<g id="a_node9"><a xlink:href="classtomoBay_1_1presenters_1_1helpers_1_1pickeability_1_1ItemStockLevel.html#a1aed814db05c4991e9bc719f39ea62ce" target="_top" xlink:title="tomoBay.presenters.helpers.pickeability.\lItemStockLevel.check">
<polygon fill="white" stroke="black" points="516,-60 516,-90 710,-90 710,-60 516,-60"/>
<text text-anchor="start" x="524" y="-78" font-family="Helvetica,sans-Serif" font-size="10.00">tomoBay.presenters.helpers.pickeability.</text>
<text text-anchor="middle" x="613" y="-67" font-family="Helvetica,sans-Serif" font-size="10.00">ItemStockLevel.check</text>
</a>
</g>
</g>
<!-- Node8&#45;&gt;Node9 -->
<g id="edge9" class="edge"><title>Node8&#45;&gt;Node9</title>
<path fill="none" stroke="midnightblue" d="M490.247,-73.9413C498.828,-74.0159 507.459,-74.091 515.949,-74.1648"/>
<polygon fill="midnightblue" stroke="midnightblue" points="490.238,-70.4412 480.208,-73.854 490.177,-77.4409 490.238,-70.4412"/>
</g>
<!-- Node10 -->
<g id="node10" class="node"><title>Node10</title>
<g id="a_node10"><a xlink:href="classtomoBay_1_1presenters_1_1helpers_1_1pickeability_1_1Pickeablity.html#ae05e03af15e33d53f9e0511ec0295a04" target="_top" xlink:title="default ctor ">
<polygon fill="white" stroke="black" points="746,-60 746,-90 940,-90 940,-60 746,-60"/>
<text text-anchor="start" x="754" y="-78" font-family="Helvetica,sans-Serif" font-size="10.00">tomoBay.presenters.helpers.pickeability.</text>
<text text-anchor="middle" x="843" y="-67" font-family="Helvetica,sans-Serif" font-size="10.00">Pickeablity.Pickeablity</text>
</a>
</g>
</g>
<!-- Node9&#45;&gt;Node10 -->
<g id="edge10" class="edge"><title>Node9&#45;&gt;Node10</title>
<path fill="none" stroke="midnightblue" d="M720.043,-75C728.605,-75 737.227,-75 745.714,-75"/>
<polygon fill="midnightblue" stroke="midnightblue" points="720.032,-71.5001 710.032,-75 720.032,-78.5001 720.032,-71.5001"/>
</g>
<!-- Node12 -->
<g id="node12" class="node"><title>Node12</title>
<g id="a_node12"><a xlink:href="classtomoBay_1_1model_1_1services_1_1checkErrorsService_1_1CheckErrorsService.html#ae3b0a282dcba7f2d675ca89b1dd48487" target="_top" xlink:title="tomoBay.model.services.check\lErrorsService.CheckErrorsService.on\lRunning">
<polygon fill="white" stroke="black" points="523,-0.5 523,-41.5 703,-41.5 703,-0.5 523,-0.5"/>
<text text-anchor="start" x="531" y="-29.5" font-family="Helvetica,sans-Serif" font-size="10.00">tomoBay.model.services.check</text>
<text text-anchor="start" x="531" y="-18.5" font-family="Helvetica,sans-Serif" font-size="10.00">ErrorsService.CheckErrorsService.on</text>
<text text-anchor="middle" x="613" y="-7.5" font-family="Helvetica,sans-Serif" font-size="10.00">Running</text>
</a>
</g>
</g>
<!-- Node11&#45;&gt;Node12 -->
<g id="edge12" class="edge"><title>Node11&#45;&gt;Node12</title>
<path fill="none" stroke="midnightblue" d="M474.154,-22.1987C490.163,-22.0595 506.786,-21.9149 522.716,-21.7764"/>
<polygon fill="midnightblue" stroke="midnightblue" points="473.706,-18.7023 463.737,-22.2892 473.767,-25.7021 473.706,-18.7023"/>
</g>
</g>
</svg>
        <g id="navigator" transform="translate(0 0)" fill="#404254">
                <rect fill="#f2f5e9" fill-opacity="0.5" stroke="#606060" stroke-width=".5" x="0" y="0" width="60" height="60"/>
                <use id="zoomplus" xlink:href="#zoomPlus" x="17" y="9" onmousedown="handleZoom(evt,'in')"/>
                <use id="zoomminus" xlink:href="#zoomMin" x="42" y="9" onmousedown="handleZoom(evt,'out')"/>
                <use id="reset" xlink:href="#resetDef" x="30" y="36" onmousedown="handleReset()"/>
                <g id="arrowUp" xlink:href="#dirArrow" transform="translate(30 24)" onmousedown="handlePan(0,-1)">
                  <use xlink:href="#rim" fill="#404040">
                        <set attributeName="fill" to="#808080" begin="arrowUp.mouseover" end="arrowUp.mouseout"/>
                  </use>
                  <path fill="none" stroke="white" stroke-width="1.5" d="M0,-3.0v7 M-2.5,-0.5L0,-3.0L2.5,-0.5"/>
                </g>
                <g id="arrowRight" xlink:href="#dirArrow" transform="rotate(90) translate(36 -43)" onmousedown="handlePan(1,0)">
                  <use xlink:href="#rim" fill="#404040">
                        <set attributeName="fill" to="#808080" begin="arrowRight.mouseover" end="arrowRight.mouseout"/>
                  </use>
                  <path fill="none" stroke="white" stroke-width="1.5" d="M0,-3.0v7 M-2.5,-0.5L0,-3.0L2.5,-0.5"/>
                </g>
                <g id="arrowDown" xlink:href="#dirArrow" transform="rotate(180) translate(-30 -48)" onmousedown="handlePan(0,1)">
                  <use xlink:href="#rim" fill="#404040">
                        <set attributeName="fill" to="#808080" begin="arrowDown.mouseover" end="arrowDown.mouseout"/>
                  </use>
                  <path fill="none" stroke="white" stroke-width="1.5" d="M0,-3.0v7 M-2.5,-0.5L0,-3.0L2.5,-0.5"/>
                </g>
                <g id="arrowLeft" xlink:href="#dirArrow" transform="rotate(270) translate(-36 17)" onmousedown="handlePan(-1,0)">
                  <use xlink:href="#rim" fill="#404040">
                        <set attributeName="fill" to="#808080" begin="arrowLeft.mouseover" end="arrowLeft.mouseout"/>
                  </use>
                  <path fill="none" stroke="white" stroke-width="1.5" d="M0,-3.0v7 M-2.5,-0.5L0,-3.0L2.5,-0.5"/>
                </g>
        </g>
        <svg viewBox="0 0 15 15" width="100%" height="30px" preserveAspectRatio="xMaxYMin meet">
         <g id="arrow_out" transform="scale(0.3 0.3)">
          <a xlink:href="classtomoBay_1_1model_1_1winstock_1_1Stock_a42fa652d82ed49749a0ad929a6c798d0_icgraph_org.svg" target="_base">
           <rect id="button" ry="5" rx="5" y="6" x="6" height="38" width="38"
                fill="#f2f5e9" fill-opacity="0.5" stroke="#606060" stroke-width="1.0"/>
           <path id="arrow"
             d="M 11.500037,31.436501 C 11.940474,20.09759 22.043105,11.32322 32.158766,21.979434 L 37.068811,17.246167 C 37.068811,17.246167 37.088388,32 37.088388,32 L 22.160133,31.978069 C 22.160133,31.978069 26.997745,27.140456 26.997745,27.140456 C 18.528582,18.264221 13.291696,25.230495 11.500037,31.436501 z"
             style="fill:#404040;"/>
          </a>
         </g>
        </svg>
</svg>
