<?xml version="1.0" encoding="UTF-8" standalone="no"?>
<!DOCTYPE svg PUBLIC "-//W3C//DTD SVG 1.1//EN"
 "http://www.w3.org/Graphics/SVG/1.1/DTD/svg11.dtd">
<!-- Generated by graphviz version 2.38.0 (20140413.2041)
 -->
<!-- Title: LookbackDays Pages: 1 -->
<svg width="105pt" height="193pt"
 viewBox="0.00 0.00 105.00 193.00" xmlns="http://www.w3.org/2000/svg" xmlns:xlink="http://www.w3.org/1999/xlink">
<g id="graph0" class="graph" transform="scale(1 1) rotate(0) translate(4 189)">
<title>LookbackDays</title>
<polygon fill="white" stroke="none" points="-4,4 -4,-189 101,-189 101,4 -4,4"/>
<!-- Node1 -->
<g id="node1" class="node"><title>Node1</title>
<polygon fill="#bfbfbf" stroke="black" points="-7.10543e-15,-0.5 -7.10543e-15,-79.5 97,-79.5 97,-0.5 -7.10543e-15,-0.5"/>
<text text-anchor="middle" x="48.5" y="-67.5" font-family="Helvetica,sans-Serif" font-size="10.00">LookbackDays</text>
<polyline fill="none" stroke="black" points="-7.10543e-15,-60.5 97,-60.5 "/>
<text text-anchor="start" x="8" y="-48.5" font-family="Helvetica,sans-Serif" font-size="10.00">&#45; size_M</text>
<polyline fill="none" stroke="black" points="-7.10543e-15,-41.5 97,-41.5 "/>
<text text-anchor="start" x="8" y="-29.5" font-family="Helvetica,sans-Serif" font-size="10.00">+ LookbackDays()</text>
<text text-anchor="start" x="8" y="-18.5" font-family="Helvetica,sans-Serif" font-size="10.00">+ type()</text>
<text text-anchor="start" x="8" y="-7.5" font-family="Helvetica,sans-Serif" font-size="10.00">+ size()</text>
</g>
<!-- Node2 -->
<g id="node2" class="node"><title>Node2</title>
<g id="a_node2"><a xlink:href="interfacetomoBay_1_1model_1_1dataTypes_1_1heteroTypeContainer_1_1AbstractField.html" target="_top" xlink:title="This interface is the abstract base for all derived AbstractDBField types, and represents a a column ...">
<polygon fill="white" stroke="black" points="11.5,-116.5 11.5,-184.5 85.5,-184.5 85.5,-116.5 11.5,-116.5"/>
<text text-anchor="middle" x="48.5" y="-172.5" font-family="Helvetica,sans-Serif" font-size="10.00">AbstractField</text>
<polyline fill="none" stroke="black" points="11.5,-165.5 85.5,-165.5 "/>
<text text-anchor="middle" x="48.5" y="-153.5" font-family="Helvetica,sans-Serif" font-size="10.00"> </text>
<polyline fill="none" stroke="black" points="11.5,-146.5 85.5,-146.5 "/>
<text text-anchor="start" x="19.5" y="-134.5" font-family="Helvetica,sans-Serif" font-size="10.00">+ type()</text>
<text text-anchor="start" x="19.5" y="-123.5" font-family="Helvetica,sans-Serif" font-size="10.00">+ size()</text>
</a>
</g>
</g>
<!-- Node2&#45;&gt;Node1 -->
<g id="edge1" class="edge"><title>Node2&#45;&gt;Node1</title>
<path fill="none" stroke="midnightblue" d="M48.5,-106.274C48.5,-97.4764 48.5,-88.2753 48.5,-79.6493"/>
<polygon fill="none" stroke="midnightblue" points="45.0001,-106.357 48.5,-116.357 52.0001,-106.357 45.0001,-106.357"/>
</g>
</g>
</svg>
