<?xml version="1.0" encoding="UTF-8" standalone="no"?>
<!DOCTYPE svg PUBLIC "-//W3C//DTD SVG 1.1//EN"
 "http://www.w3.org/Graphics/SVG/1.1/DTD/svg11.dtd">
<!-- Generated by graphviz version 2.38.0 (20140413.2041)
 -->
<!-- Title: setParameters Pages: 1 -->
<svg width="2272pt" height="635pt"
 viewBox="0.00 0.00 2272.00 634.66" xmlns="http://www.w3.org/2000/svg" xmlns:xlink="http://www.w3.org/1999/xlink">
<g id="graph0" class="graph" transform="scale(1 1) rotate(0) translate(4 630.665)">
<title>setParameters</title>
<polygon fill="white" stroke="none" points="-4,4 -4,-630.665 2268,-630.665 2268,4 -4,4"/>
<!-- Node1 -->
<g id="node1" class="node"><title>Node1</title>
<polygon fill="#bfbfbf" stroke="black" points="0,-413.084 0,-432.084 80,-432.084 80,-413.084 0,-413.084"/>
<text text-anchor="middle" x="40" y="-420.084" font-family="Helvetica,sans-Serif" font-size="10.00">setParameters</text>
</g>
<!-- Node2 -->
<g id="node2" class="node"><title>Node2</title>
<g id="a_node2"><a xlink:href="classtomoBay_1_1model_1_1sql_1_1framework_1_1QueryUtility.html#a138f0c046bc0a6df71b168ab35c3c3e3" target="_top" xlink:title="set an Integer parameter for the query object specified. ">
<polygon fill="white" stroke="black" points="698,-339.584 698,-369.584 850,-369.584 850,-339.584 698,-339.584"/>
<text text-anchor="start" x="706" y="-357.584" font-family="Helvetica,sans-Serif" font-size="10.00">tomoBay.model.sql.framework.</text>
<text text-anchor="middle" x="774" y="-346.584" font-family="Helvetica,sans-Serif" font-size="10.00">QueryUtility.setBIGINTParam</text>
</a>
</g>
</g>
<!-- Node1&#45;&gt;Node2 -->
<g id="edge1" class="edge"><title>Node1&#45;&gt;Node2</title>
<path fill="none" stroke="midnightblue" d="M64.5254,-432.187C79.0805,-437.602 98.305,-443.822 116,-446.584 185.382,-457.415 204.069,-452.977 274,-446.584 427.993,-432.507 605.42,-394.479 701.74,-371.964"/>
<polygon fill="midnightblue" stroke="midnightblue" points="702.722,-375.329 711.657,-369.634 701.121,-368.515 702.722,-375.329"/>
</g>
<!-- Node12 -->
<g id="node12" class="node"><title>Node12</title>
<g id="a_node12"><a xlink:href="classtomoBay_1_1model_1_1sql_1_1framework_1_1QueryUtility.html#aca3b74b8ac7e194a86c0b896a674e2f2" target="_top" xlink:title="set an Integer parameter for the query object specified. ">
<polygon fill="white" stroke="black" points="116,-407.584 116,-437.584 274,-437.584 274,-407.584 116,-407.584"/>
<text text-anchor="start" x="124" y="-425.584" font-family="Helvetica,sans-Serif" font-size="10.00">tomoBay.model.sql.framework.</text>
<text text-anchor="middle" x="195" y="-414.584" font-family="Helvetica,sans-Serif" font-size="10.00">QueryUtility.setINTEGERParam</text>
</a>
</g>
</g>
<!-- Node1&#45;&gt;Node12 -->
<g id="edge21" class="edge"><title>Node1&#45;&gt;Node12</title>
<path fill="none" stroke="midnightblue" d="M80.0042,-422.584C87.9807,-422.584 96.6797,-422.584 105.6,-422.584"/>
<polygon fill="midnightblue" stroke="midnightblue" points="105.739,-426.084 115.739,-422.584 105.739,-419.084 105.739,-426.084"/>
</g>
<!-- Node13 -->
<g id="node13" class="node"><title>Node13</title>
<g id="a_node13"><a xlink:href="classtomoBay_1_1model_1_1sql_1_1framework_1_1QueryUtility.html#a3249b16421a9902f2248cb86d4dd3be3" target="_top" xlink:title="set an Integer parameter for the query object specified. ">
<polygon fill="white" stroke="black" points="310,-363.584 310,-393.584 474,-393.584 474,-363.584 310,-363.584"/>
<text text-anchor="start" x="318" y="-381.584" font-family="Helvetica,sans-Serif" font-size="10.00">tomoBay.model.sql.framework.</text>
<text text-anchor="middle" x="392" y="-370.584" font-family="Helvetica,sans-Serif" font-size="10.00">QueryUtility.setVARCHARParam</text>
</a>
</g>
</g>
<!-- Node1&#45;&gt;Node13 -->
<g id="edge31" class="edge"><title>Node1&#45;&gt;Node13</title>
<path fill="none" stroke="midnightblue" d="M64.5663,-413.02C79.1363,-407.539 98.3621,-401.074 116,-397.584 176.533,-385.605 245.852,-380.873 299.75,-379.127"/>
<polygon fill="midnightblue" stroke="midnightblue" points="300.08,-382.619 309.972,-378.825 299.873,-375.622 300.08,-382.619"/>
</g>
<!-- Node3 -->
<g id="node3" class="node"><title>Node3</title>
<g id="a_node3"><a xlink:href="classtomoBay_1_1model_1_1dataTypes_1_1heteroTypeContainer_1_1HeteroFieldContainer.html#a988363ab964d6dc0ccb8560bef5895b6" target="_top" xlink:title="retrieve the the value of an AbstractField from this HeteroFieldContainer, the field should be of the...">
<polygon fill="white" stroke="black" points="1850,-143.584 1850,-173.584 2042,-173.584 2042,-143.584 1850,-143.584"/>
<text text-anchor="start" x="1858" y="-161.584" font-family="Helvetica,sans-Serif" font-size="10.00">tomoBay.model.dataTypes.hetero</text>
<text text-anchor="middle" x="1946" y="-150.584" font-family="Helvetica,sans-Serif" font-size="10.00">TypeContainer.HeteroFieldContainer.get</text>
</a>
</g>
</g>
<!-- Node2&#45;&gt;Node3 -->
<g id="edge2" class="edge"><title>Node2&#45;&gt;Node3</title>
<path fill="none" stroke="midnightblue" d="M795.744,-339.411C868.75,-287.558 1122.15,-120.584 1358,-120.584 1358,-120.584 1358,-120.584 1549.5,-120.584 1648.23,-120.584 1760.19,-132.462 1839.72,-142.937"/>
<polygon fill="midnightblue" stroke="midnightblue" points="1839.37,-146.421 1849.75,-144.272 1840.3,-139.482 1839.37,-146.421"/>
</g>
<!-- Node5 -->
<g id="node5" class="node"><title>Node5</title>
<g id="a_node5"><a xlink:href="classtomoBay_1_1model_1_1sql_1_1framework_1_1QueryUtility.html#a56a65ac583b8720ae73dc81278e5690e" target="_top" xlink:title="set an Integer parameter for the query object specified. ">
<polygon fill="white" stroke="black" points="886,-339.584 886,-369.584 1039,-369.584 1039,-339.584 886,-339.584"/>
<text text-anchor="start" x="894" y="-357.584" font-family="Helvetica,sans-Serif" font-size="10.00">tomoBay.model.sql.framework.</text>
<text text-anchor="middle" x="962.5" y="-346.584" font-family="Helvetica,sans-Serif" font-size="10.00">QueryUtility.setTINYINTParam</text>
</a>
</g>
</g>
<!-- Node2&#45;&gt;Node5 -->
<g id="edge4" class="edge"><title>Node2&#45;&gt;Node5</title>
<path fill="none" stroke="midnightblue" d="M850.051,-354.584C858.562,-354.584 867.285,-354.584 875.919,-354.584"/>
<polygon fill="midnightblue" stroke="midnightblue" points="875.996,-358.084 885.996,-354.584 875.996,-351.084 875.996,-358.084"/>
</g>
<!-- Node10 -->
<g id="node10" class="node"><title>Node10</title>
<g id="a_node10"><a xlink:href="classtomoBay_1_1model_1_1sql_1_1framework_1_1queryTypes_1_1AbstractDBQuery.html#a41678b13e84de4335130f10cea7ae562" target="_top" xlink:title="get the statement object associated with this query ">
<polygon fill="white" stroke="black" points="1858,-459.584 1858,-489.584 2034,-489.584 2034,-459.584 1858,-459.584"/>
<text text-anchor="start" x="1866" y="-477.584" font-family="Helvetica,sans-Serif" font-size="10.00">tomoBay.model.sql.framework.query</text>
<text text-anchor="middle" x="1946" y="-466.584" font-family="Helvetica,sans-Serif" font-size="10.00">Types.AbstractDBQuery.statement</text>
</a>
</g>
</g>
<!-- Node2&#45;&gt;Node10 -->
<g id="edge20" class="edge"><title>Node2&#45;&gt;Node10</title>
<path fill="none" stroke="midnightblue" d="M790.765,-369.638C840.559,-415.534 1000.62,-550.584 1160,-550.584 1160,-550.584 1160,-550.584 1549.5,-550.584 1668.08,-550.584 1698.21,-541.165 1814,-515.584 1840.69,-509.687 1869.76,-500.844 1893.72,-492.879"/>
<polygon fill="midnightblue" stroke="midnightblue" points="1894.95,-496.156 1903.31,-489.646 1892.72,-489.523 1894.95,-496.156"/>
</g>
<!-- Node4 -->
<g id="node4" class="node"><title>Node4</title>
<g id="a_node4"><a xlink:href="classtomoBay_1_1model_1_1dataTypes_1_1heteroTypeContainer_1_1HeteroFieldContainer.html#a9dee3c01eb5ab16203e1c6820a569484" target="_top" xlink:title="performs a type check, assuming that field and type are of the same type then this method returns tru...">
<polygon fill="white" stroke="black" points="2078,-138.084 2078,-179.084 2264,-179.084 2264,-138.084 2078,-138.084"/>
<text text-anchor="start" x="2086" y="-167.084" font-family="Helvetica,sans-Serif" font-size="10.00">tomoBay.model.dataTypes.hetero</text>
<text text-anchor="start" x="2086" y="-156.084" font-family="Helvetica,sans-Serif" font-size="10.00">TypeContainer.HeteroFieldContainer.is</text>
<text text-anchor="middle" x="2171" y="-145.084" font-family="Helvetica,sans-Serif" font-size="10.00">SameType</text>
</a>
</g>
</g>
<!-- Node3&#45;&gt;Node4 -->
<g id="edge3" class="edge"><title>Node3&#45;&gt;Node4</title>
<path fill="none" stroke="midnightblue" d="M2042.22,-158.584C2050.73,-158.584 2059.37,-158.584 2067.93,-158.584"/>
<polygon fill="midnightblue" stroke="midnightblue" points="2067.93,-162.084 2077.93,-158.584 2067.93,-155.084 2067.93,-162.084"/>
</g>
<!-- Node5&#45;&gt;Node3 -->
<g id="edge5" class="edge"><title>Node5&#45;&gt;Node3</title>
<path fill="none" stroke="midnightblue" d="M1007.74,-339.523C1117.1,-303.144 1409.63,-211.018 1662,-177.584 1720.47,-169.838 1786.18,-165.181 1839.56,-162.418"/>
<polygon fill="midnightblue" stroke="midnightblue" points="1839.91,-165.905 1849.72,-161.907 1839.55,-158.914 1839.91,-165.905"/>
</g>
<!-- Node6 -->
<g id="node6" class="node"><title>Node6</title>
<g id="a_node6"><a xlink:href="classtomoBay_1_1model_1_1sql_1_1framework_1_1QueryUtility.html#ab07d04299a96461dcf893416b8e32604" target="_top" xlink:title="set an Integer parameter for the query object specified. ">
<polygon fill="white" stroke="black" points="1075,-339.584 1075,-369.584 1247,-369.584 1247,-339.584 1075,-339.584"/>
<text text-anchor="start" x="1083" y="-357.584" font-family="Helvetica,sans-Serif" font-size="10.00">tomoBay.model.sql.framework.</text>
<text text-anchor="middle" x="1161" y="-346.584" font-family="Helvetica,sans-Serif" font-size="10.00">QueryUtility.setTIMESTAMPParam</text>
</a>
</g>
</g>
<!-- Node5&#45;&gt;Node6 -->
<g id="edge6" class="edge"><title>Node5&#45;&gt;Node6</title>
<path fill="none" stroke="midnightblue" d="M1039.19,-354.584C1047.58,-354.584 1056.21,-354.584 1064.8,-354.584"/>
<polygon fill="midnightblue" stroke="midnightblue" points="1064.86,-358.084 1074.86,-354.584 1064.86,-351.084 1064.86,-358.084"/>
</g>
<!-- Node5&#45;&gt;Node10 -->
<g id="edge19" class="edge"><title>Node5&#45;&gt;Node10</title>
<path fill="none" stroke="midnightblue" d="M984.541,-369.734C1041.6,-409.28 1205.28,-512.584 1358,-512.584 1358,-512.584 1358,-512.584 1549.5,-512.584 1651.54,-512.584 1767.7,-499.897 1847.61,-489.184"/>
<polygon fill="midnightblue" stroke="midnightblue" points="1848.22,-492.633 1857.65,-487.821 1847.27,-485.697 1848.22,-492.633"/>
</g>
<!-- Node6&#45;&gt;Node3 -->
<g id="edge7" class="edge"><title>Node6&#45;&gt;Node3</title>
<path fill="none" stroke="midnightblue" d="M1206.77,-339.557C1266.64,-319.684 1376.24,-284.088 1471,-257.584 1555.19,-234.036 1576.53,-228.936 1662,-210.584 1722.69,-197.553 1791.15,-184.92 1845.52,-175.369"/>
<polygon fill="midnightblue" stroke="midnightblue" points="1846.26,-178.794 1855.51,-173.623 1845.06,-171.898 1846.26,-178.794"/>
</g>
<!-- Node7 -->
<g id="node7" class="node"><title>Node7</title>
<g id="a_node7"><a xlink:href="classtomoBay_1_1model_1_1sql_1_1framework_1_1QueryUtility.html#a202aab30c77e06c32318efd5cf949ca3" target="_top" xlink:title="set an Integer parameter for the query object specified. ">
<polygon fill="white" stroke="black" points="1283,-339.584 1283,-369.584 1435,-369.584 1435,-339.584 1283,-339.584"/>
<text text-anchor="start" x="1291" y="-357.584" font-family="Helvetica,sans-Serif" font-size="10.00">tomoBay.model.sql.framework.</text>
<text text-anchor="middle" x="1359" y="-346.584" font-family="Helvetica,sans-Serif" font-size="10.00">QueryUtility.setDATEParam</text>
</a>
</g>
</g>
<!-- Node6&#45;&gt;Node7 -->
<g id="edge8" class="edge"><title>Node6&#45;&gt;Node7</title>
<path fill="none" stroke="midnightblue" d="M1247.11,-354.584C1255.56,-354.584 1264.14,-354.584 1272.59,-354.584"/>
<polygon fill="midnightblue" stroke="midnightblue" points="1272.81,-358.084 1282.81,-354.584 1272.81,-351.084 1272.81,-358.084"/>
</g>
<!-- Node6&#45;&gt;Node10 -->
<g id="edge18" class="edge"><title>Node6&#45;&gt;Node10</title>
<path fill="none" stroke="midnightblue" d="M1236.84,-369.619C1252.1,-372.632 1268.06,-375.743 1283,-378.584 1451.2,-410.574 1492.41,-424.099 1662,-447.584 1723.56,-456.108 1793.02,-462.779 1847.73,-467.357"/>
<polygon fill="midnightblue" stroke="midnightblue" points="1847.51,-470.851 1857.76,-468.188 1848.09,-463.875 1847.51,-470.851"/>
</g>
<!-- Node7&#45;&gt;Node3 -->
<g id="edge9" class="edge"><title>Node7&#45;&gt;Node3</title>
<path fill="none" stroke="midnightblue" d="M1399.19,-339.518C1456.42,-317.817 1566.46,-277.227 1662,-248.584 1728.7,-228.587 1747.71,-231.921 1814,-210.584 1843.64,-201.044 1876.18,-188.14 1901.41,-177.574"/>
<polygon fill="midnightblue" stroke="midnightblue" points="1902.85,-180.765 1910.7,-173.651 1900.13,-174.316 1902.85,-180.765"/>
</g>
<!-- Node8 -->
<g id="node8" class="node"><title>Node8</title>
<g id="a_node8"><a xlink:href="classtomoBay_1_1model_1_1sql_1_1framework_1_1QueryUtility.html#a5677c2440b48e612fb51b57130555e5d" target="_top" xlink:title="set an Integer parameter for the query object specified. ">
<polygon fill="white" stroke="black" points="1471,-339.584 1471,-369.584 1626,-369.584 1626,-339.584 1471,-339.584"/>
<text text-anchor="start" x="1479" y="-357.584" font-family="Helvetica,sans-Serif" font-size="10.00">tomoBay.model.sql.framework.</text>
<text text-anchor="middle" x="1548.5" y="-346.584" font-family="Helvetica,sans-Serif" font-size="10.00">QueryUtility.setDOUBLEParam</text>
</a>
</g>
</g>
<!-- Node7&#45;&gt;Node8 -->
<g id="edge10" class="edge"><title>Node7&#45;&gt;Node8</title>
<path fill="none" stroke="midnightblue" d="M1435.18,-354.584C1443.51,-354.584 1452.05,-354.584 1460.51,-354.584"/>
<polygon fill="midnightblue" stroke="midnightblue" points="1460.77,-358.084 1470.77,-354.584 1460.77,-351.084 1460.77,-358.084"/>
</g>
<!-- Node7&#45;&gt;Node10 -->
<g id="edge17" class="edge"><title>Node7&#45;&gt;Node10</title>
<path fill="none" stroke="midnightblue" d="M1428.95,-369.639C1442.87,-372.636 1457.4,-375.736 1471,-378.584 1606.53,-406.959 1764.15,-438.614 1859.15,-457.549"/>
<polygon fill="midnightblue" stroke="midnightblue" points="1858.51,-460.989 1869,-459.511 1859.88,-454.124 1858.51,-460.989"/>
</g>
<!-- Node8&#45;&gt;Node3 -->
<g id="edge11" class="edge"><title>Node8&#45;&gt;Node3</title>
<path fill="none" stroke="midnightblue" d="M1595.8,-339.525C1649.72,-321.204 1740.73,-287.812 1814,-248.584 1851.81,-228.341 1892,-199.502 1917.74,-179.968"/>
<polygon fill="midnightblue" stroke="midnightblue" points="1920.08,-182.585 1925.89,-173.726 1915.82,-177.027 1920.08,-182.585"/>
</g>
<!-- Node9 -->
<g id="node9" class="node"><title>Node9</title>
<g id="a_node9"><a xlink:href="classtomoBay_1_1model_1_1sql_1_1framework_1_1QueryUtility.html#adf8f1fea7b649baadeb0297c41be72f5" target="_top" xlink:title="set an Integer parameter for the query object specified. ">
<polygon fill="white" stroke="black" points="1662,-339.584 1662,-369.584 1814,-369.584 1814,-339.584 1662,-339.584"/>
<text text-anchor="start" x="1670" y="-357.584" font-family="Helvetica,sans-Serif" font-size="10.00">tomoBay.model.sql.framework.</text>
<text text-anchor="middle" x="1738" y="-346.584" font-family="Helvetica,sans-Serif" font-size="10.00">QueryUtility.setFLOATParam</text>
</a>
</g>
</g>
<!-- Node8&#45;&gt;Node9 -->
<g id="edge12" class="edge"><title>Node8&#45;&gt;Node9</title>
<path fill="none" stroke="midnightblue" d="M1626.03,-354.584C1634.55,-354.584 1643.26,-354.584 1651.87,-354.584"/>
<polygon fill="midnightblue" stroke="midnightblue" points="1651.92,-358.084 1661.92,-354.584 1651.92,-351.084 1651.92,-358.084"/>
</g>
<!-- Node8&#45;&gt;Node10 -->
<g id="edge16" class="edge"><title>Node8&#45;&gt;Node10</title>
<path fill="none" stroke="midnightblue" d="M1617.58,-369.589C1671.4,-382.05 1748.18,-401.154 1814,-422.584 1843.61,-432.223 1876.15,-445.127 1901.39,-455.669"/>
<polygon fill="midnightblue" stroke="midnightblue" points="1900.11,-458.928 1910.68,-459.582 1902.82,-452.476 1900.11,-458.928"/>
</g>
<!-- Node9&#45;&gt;Node3 -->
<g id="edge13" class="edge"><title>Node9&#45;&gt;Node3</title>
<path fill="none" stroke="midnightblue" d="M1787.4,-339.563C1796.7,-335.504 1806.02,-330.543 1814,-324.584 1867.46,-284.649 1911.04,-217.742 1931.83,-182.294"/>
<polygon fill="midnightblue" stroke="midnightblue" points="1934.88,-183.999 1936.84,-173.586 1928.82,-180.504 1934.88,-183.999"/>
</g>
<!-- Node9&#45;&gt;Node10 -->
<g id="edge14" class="edge"><title>Node9&#45;&gt;Node10</title>
<path fill="none" stroke="midnightblue" d="M1781.4,-369.646C1792.24,-374.01 1803.74,-379.093 1814,-384.584 1851.82,-404.815 1892,-433.656 1917.74,-453.194"/>
<polygon fill="midnightblue" stroke="midnightblue" points="1915.82,-456.135 1925.89,-459.438 1920.08,-450.578 1915.82,-456.135"/>
</g>
<!-- Node11 -->
<g id="node11" class="node"><title>Node11</title>
<g id="a_node11"><a xlink:href="classtomoBay_1_1model_1_1sql_1_1framework_1_1queryTypes_1_1AbstractDBQuery.html#ae8a5c5f1701ee77ef658050c8345d518" target="_top" xlink:title="Used by derived classes to define the Query string to be used in the query. ">
<polygon fill="white" stroke="black" points="2083,-459.584 2083,-489.584 2259,-489.584 2259,-459.584 2083,-459.584"/>
<text text-anchor="start" x="2091" y="-477.584" font-family="Helvetica,sans-Serif" font-size="10.00">tomoBay.model.sql.framework.query</text>
<text text-anchor="middle" x="2171" y="-466.584" font-family="Helvetica,sans-Serif" font-size="10.00">Types.AbstractDBQuery.queryString</text>
</a>
</g>
</g>
<!-- Node10&#45;&gt;Node11 -->
<g id="edge15" class="edge"><title>Node10&#45;&gt;Node11</title>
<path fill="none" stroke="midnightblue" d="M2034.18,-474.584C2046.8,-474.584 2059.87,-474.584 2072.68,-474.584"/>
<polygon fill="midnightblue" stroke="midnightblue" points="2072.88,-478.084 2082.88,-474.584 2072.88,-471.084 2072.88,-478.084"/>
</g>
<!-- Node12&#45;&gt;Node3 -->
<g id="edge22" class="edge"><title>Node12&#45;&gt;Node3</title>
<path fill="none" stroke="midnightblue" d="M202.41,-407.298C233.193,-336.58 373.122,-44.584 585,-44.584 585,-44.584 585,-44.584 1549.5,-44.584 1668.67,-44.584 1701.17,-50.2161 1814,-88.584 1850.03,-100.838 1888.06,-122.231 1913.81,-138.151"/>
<polygon fill="midnightblue" stroke="midnightblue" points="1912.05,-141.179 1922.38,-143.53 1915.77,-135.25 1912.05,-141.179"/>
</g>
<!-- Node12&#45;&gt;Node10 -->
<g id="edge30" class="edge"><title>Node12&#45;&gt;Node10</title>
<path fill="none" stroke="midnightblue" d="M219.672,-437.585C296.36,-484.696 546.156,-626.584 773,-626.584 773,-626.584 773,-626.584 1549.5,-626.584 1668.98,-626.584 1705.17,-627.875 1814,-578.584 1857.68,-558.801 1899.52,-521.268 1923.71,-497.115"/>
<polygon fill="midnightblue" stroke="midnightblue" points="1926.41,-499.365 1930.93,-489.783 1921.42,-494.455 1926.41,-499.365"/>
</g>
<!-- Node12&#45;&gt;Node13 -->
<g id="edge23" class="edge"><title>Node12&#45;&gt;Node13</title>
<path fill="none" stroke="midnightblue" d="M262.563,-407.565C279.256,-403.798 297.3,-399.727 314.438,-395.86"/>
<polygon fill="midnightblue" stroke="midnightblue" points="315.422,-399.226 324.407,-393.61 313.881,-392.397 315.422,-399.226"/>
</g>
<!-- Node13&#45;&gt;Node3 -->
<g id="edge24" class="edge"><title>Node13&#45;&gt;Node3</title>
<path fill="none" stroke="midnightblue" d="M399.229,-363.54C429.151,-293.945 565.276,-6.58404 773,-6.58404 773,-6.58404 773,-6.58404 1549.5,-6.58404 1667.54,-6.58404 1706.81,18.8536 1814,-30.584 1864.46,-53.8565 1907.07,-105 1929.04,-135.12"/>
<polygon fill="midnightblue" stroke="midnightblue" points="1926.27,-137.269 1934.93,-143.378 1931.97,-133.204 1926.27,-137.269"/>
</g>
<!-- Node13&#45;&gt;Node10 -->
<g id="edge29" class="edge"><title>Node13&#45;&gt;Node10</title>
<path fill="none" stroke="midnightblue" d="M424.303,-393.687C527.083,-441.838 864.55,-588.584 1160,-588.584 1160,-588.584 1160,-588.584 1549.5,-588.584 1668.67,-588.584 1701.17,-582.952 1814,-544.584 1850.03,-532.33 1888.06,-510.937 1913.81,-495.017"/>
<polygon fill="midnightblue" stroke="midnightblue" points="1915.77,-497.919 1922.38,-489.638 1912.05,-491.989 1915.77,-497.919"/>
</g>
<!-- Node14 -->
<g id="node14" class="node"><title>Node14</title>
<g id="a_node14"><a xlink:href="classtomoBay_1_1model_1_1sql_1_1framework_1_1QueryUtility.html#a50955d4f51a1a7a88ef0c8aadbe9c793" target="_top" xlink:title="set an Integer parameter for the query object specified. ">
<polygon fill="white" stroke="black" points="510,-241.584 510,-271.584 662,-271.584 662,-241.584 510,-241.584"/>
<text text-anchor="start" x="518" y="-259.584" font-family="Helvetica,sans-Serif" font-size="10.00">tomoBay.model.sql.framework.</text>
<text text-anchor="middle" x="586" y="-248.584" font-family="Helvetica,sans-Serif" font-size="10.00">QueryUtility.setBYTEParam</text>
</a>
</g>
</g>
<!-- Node13&#45;&gt;Node14 -->
<g id="edge25" class="edge"><title>Node13&#45;&gt;Node14</title>
<path fill="none" stroke="midnightblue" d="M416.929,-363.379C451.176,-341.618 514.263,-301.532 552.646,-277.143"/>
<polygon fill="midnightblue" stroke="midnightblue" points="554.81,-279.914 561.373,-271.597 551.056,-274.006 554.81,-279.914"/>
</g>
<!-- Node14&#45;&gt;Node2 -->
<g id="edge27" class="edge"><title>Node14&#45;&gt;Node2</title>
<path fill="none" stroke="midnightblue" d="M615.655,-271.682C647.74,-288.587 699.868,-316.052 735.254,-334.696"/>
<polygon fill="midnightblue" stroke="midnightblue" points="733.834,-337.904 744.313,-339.469 737.097,-331.711 733.834,-337.904"/>
</g>
<!-- Node14&#45;&gt;Node3 -->
<g id="edge26" class="edge"><title>Node14&#45;&gt;Node3</title>
<path fill="none" stroke="midnightblue" d="M597.681,-241.228C615.521,-216.8 653.811,-169.33 698,-144.584 802.971,-85.8007 841.191,-82.584 961.5,-82.584 961.5,-82.584 961.5,-82.584 1549.5,-82.584 1671.95,-82.584 1811.97,-118.154 1888.2,-140.626"/>
<polygon fill="midnightblue" stroke="midnightblue" points="1887.49,-144.067 1898.07,-143.569 1889.49,-137.358 1887.49,-144.067"/>
</g>
<!-- Node14&#45;&gt;Node10 -->
<g id="edge28" class="edge"><title>Node14&#45;&gt;Node10</title>
<path fill="none" stroke="midnightblue" d="M662.33,-242.318C862.014,-208.306 1416.77,-138.802 1814,-329.584 1868.79,-355.898 1911.05,-416.397 1931.49,-450.346"/>
<polygon fill="midnightblue" stroke="midnightblue" points="1928.58,-452.314 1936.66,-459.167 1934.62,-448.771 1928.58,-452.314"/>
</g>
</g>
</svg>
