<?xml version="1.0" encoding="UTF-8" standalone="no"?>
<!DOCTYPE svg PUBLIC "-//W3C//DTD SVG 1.1//EN"
 "http://www.w3.org/Graphics/SVG/1.1/DTD/svg11.dtd">
<!-- Generated by graphviz version 2.38.0 (20140413.2041)
 -->
<!-- Title: OrderStatusContext Pages: 1 -->
<svg width="127pt" height="182pt"
 viewBox="0.00 0.00 127.00 182.00" xmlns="http://www.w3.org/2000/svg" xmlns:xlink="http://www.w3.org/1999/xlink">
<g id="graph0" class="graph" transform="scale(1 1) rotate(0) translate(4 178)">
<title>OrderStatusContext</title>
<polygon fill="white" stroke="none" points="-4,4 -4,-178 123,-178 123,4 -4,4"/>
<!-- Node1 -->
<g id="node1" class="node"><title>Node1</title>
<polygon fill="#bfbfbf" stroke="black" points="0,-0.5 0,-68.5 119,-68.5 119,-0.5 0,-0.5"/>
<text text-anchor="middle" x="59.5" y="-56.5" font-family="Helvetica,sans-Serif" font-size="10.00">OrderStatusContext</text>
<polyline fill="none" stroke="black" points="0,-49.5 119,-49.5 "/>
<text text-anchor="middle" x="59.5" y="-37.5" font-family="Helvetica,sans-Serif" font-size="10.00"> </text>
<polyline fill="none" stroke="black" points="0,-30.5 119,-30.5 "/>
<text text-anchor="start" x="8" y="-18.5" font-family="Helvetica,sans-Serif" font-size="10.00">+ OrderStatusContext()</text>
<text text-anchor="start" x="8" y="-7.5" font-family="Helvetica,sans-Serif" font-size="10.00">+ get()</text>
</g>
<!-- Node2 -->
<g id="node2" class="node"><title>Node2</title>
<polygon fill="white" stroke="#bfbfbf" points="2,-116.5 2,-173.5 117,-173.5 117,-116.5 2,-116.5"/>
<text text-anchor="middle" x="59.5" y="-161.5" font-family="Helvetica,sans-Serif" font-size="10.00">Map&lt; Integer, String &gt;</text>
<polyline fill="none" stroke="#bfbfbf" points="2,-154.5 117,-154.5 "/>
<text text-anchor="middle" x="59.5" y="-142.5" font-family="Helvetica,sans-Serif" font-size="10.00"> </text>
<polyline fill="none" stroke="#bfbfbf" points="2,-135.5 117,-135.5 "/>
<text text-anchor="middle" x="59.5" y="-123.5" font-family="Helvetica,sans-Serif" font-size="10.00"> </text>
</g>
<!-- Node2&#45;&gt;Node1 -->
<g id="edge1" class="edge"><title>Node2&#45;&gt;Node1</title>
<path fill="none" stroke="#404040" d="M59.5,-116.34C59.5,-105.529 59.5,-92.847 59.5,-80.7745"/>
<polygon fill="none" stroke="#404040" points="59.5001,-80.5186 55.5,-74.5186 59.5,-68.5186 63.5,-74.5185 59.5001,-80.5186"/>
<text text-anchor="middle" x="85.5" y="-90" font-family="Helvetica,sans-Serif" font-size="10.00"> &#45;statusMap</text>
</g>
</g>
</svg>
