<?xml version="1.0" encoding="UTF-8" standalone="no"?>
<!DOCTYPE svg PUBLIC "-//W3C//DTD SVG 1.1//EN"
 "http://www.w3.org/Graphics/SVG/1.1/DTD/svg11.dtd">
<!-- Generated by graphviz version 2.38.0 (20140413.2041)
 -->
<!-- Title: tomoBay.model.sql.queries.concreteQueries.SelectEbayOrders.execute Pages: 1 -->
<!--zoomable 161 -->
<svg id="main" version="1.1" xmlns="http://www.w3.org/2000/svg" xmlns:xlink="http://www.w3.org/1999/xlink" xml:space="preserve" onload="init(evt)">
<style type="text/css"><![CDATA[
.edge:hover path { stroke: red; }
.edge:hover polygon { stroke: red; fill: red; }
]]></style>
<script type="text/javascript"><![CDATA[
var edges = document.getElementsByTagName('g');
if (edges && edges.length) {
  for (var i=0;i<edges.length;i++) {
    if (edges[i].id.substr(0,4)=='edge') {
      edges[i].setAttribute('class','edge');
    }
  }
}
]]></script>
        <defs>
                <circle id="rim" cx="0" cy="0" r="7"/>
                <circle id="rim2" cx="0" cy="0" r="3.5"/>
                <g id="zoomPlus">
                        <use xlink:href="#rim" fill="#404040">
                                <set attributeName="fill" to="#808080" begin="zoomplus.mouseover" end="zoomplus.mouseout"/>
                        </use>
                        <path d="M-4,0h8M0,-4v8" fill="none" stroke="white" stroke-width="1.5" pointer-events="none"/>
                </g>
                <g id="zoomMin">
                        <use xlink:href="#rim" fill="#404040">
                                <set attributeName="fill" to="#808080" begin="zoomminus.mouseover" end="zoomminus.mouseout"/>
                        </use>
                        <path d="M-4,0h8" fill="none" stroke="white" stroke-width="1.5" pointer-events="none"/>
                </g>
                <g id="dirArrow">
                        <path fill="none" stroke="white" stroke-width="1.5" d="M0,-3.0v7 M-2.5,-0.5L0,-3.0L2.5,-0.5"/>
                </g>
               <g id="resetDef">
                       <use xlink:href="#rim2" fill="#404040">
                               <set attributeName="fill" to="#808080" begin="reset.mouseover" end="reset.mouseout"/>
                       </use>
               </g>
        </defs>

<script type="text/javascript">
var viewWidth = 606;
var viewHeight = 161;
var sectionId = 'dynsection-3';
</script>
<script xlink:href="svgpan.js"/>
<svg id="graph" class="graph">
<g id="viewport">
<title>tomoBay.model.sql.queries.concreteQueries.SelectEbayOrders.execute</title>
<!-- Node1 -->
<g id="node1" class="node"><title>Node1</title>
<polygon fill="#bfbfbf" stroke="black" points="0,-73.5 0,-103.5 176,-103.5 176,-73.5 0,-73.5"/>
<text text-anchor="start" x="8" y="-91.5" font-family="Helvetica,sans-Serif" font-size="10.00">tomoBay.model.sql.queries.concrete</text>
<text text-anchor="middle" x="88" y="-80.5" font-family="Helvetica,sans-Serif" font-size="10.00">Queries.SelectEbayOrders.execute</text>
</g>
<!-- Node2 -->
<g id="node2" class="node"><title>Node2</title>
<g id="a_node2"><a xlink:href="classtomoBay_1_1model_1_1sql_1_1queries_1_1concreteQueries_1_1SelectEbayOrders.html#a23e67017b3826016b3a90e18aae6c49d" target="_top" xlink:title="tomoBay.model.sql.queries.concrete\lQueries.SelectEbayOrders.cleanup">
<polygon fill="none" stroke="black" points="222.5,-122.5 222.5,-152.5 398.5,-152.5 398.5,-122.5 222.5,-122.5"/>
<text text-anchor="start" x="230.5" y="-140.5" font-family="Helvetica,sans-Serif" font-size="10.00">tomoBay.model.sql.queries.concrete</text>
<text text-anchor="middle" x="310.5" y="-129.5" font-family="Helvetica,sans-Serif" font-size="10.00">Queries.SelectEbayOrders.cleanup</text>
</a>
</g>
</g>
<!-- Node1&#45;&gt;Node2 -->
<g id="edge1" class="edge"><title>Node1&#45;&gt;Node2</title>
<path fill="none" stroke="midnightblue" d="M156.656,-103.535C180.467,-108.826 207.41,-114.813 231.97,-120.271"/>
<polygon fill="midnightblue" stroke="midnightblue" points="231.451,-123.741 241.972,-122.494 232.97,-116.908 231.451,-123.741"/>
</g>
<!-- Node3 -->
<g id="node3" class="node"><title>Node3</title>
<g id="a_node3"><a xlink:href="classtomoBay_1_1model_1_1sql_1_1queries_1_1concreteQueries_1_1SelectEbayOrders.html#a50b991d49a5bace468b8e0215ebc4ece" target="_top" xlink:title="tomoBay.model.sql.queries.concrete\lQueries.SelectEbayOrders.formatResults">
<polygon fill="none" stroke="black" points="212,-73.5 212,-103.5 409,-103.5 409,-73.5 212,-73.5"/>
<text text-anchor="start" x="220" y="-91.5" font-family="Helvetica,sans-Serif" font-size="10.00">tomoBay.model.sql.queries.concrete</text>
<text text-anchor="middle" x="310.5" y="-80.5" font-family="Helvetica,sans-Serif" font-size="10.00">Queries.SelectEbayOrders.formatResults</text>
</a>
</g>
</g>
<!-- Node1&#45;&gt;Node3 -->
<g id="edge2" class="edge"><title>Node1&#45;&gt;Node3</title>
<path fill="none" stroke="midnightblue" d="M176.147,-88.5C184.54,-88.5 193.12,-88.5 201.68,-88.5"/>
<polygon fill="midnightblue" stroke="midnightblue" points="201.707,-92.0001 211.707,-88.5 201.707,-85.0001 201.707,-92.0001"/>
</g>
<!-- Node4 -->
<g id="node4" class="node"><title>Node4</title>
<g id="a_node4"><a xlink:href="classtomoBay_1_1model_1_1sql_1_1queries_1_1concreteQueries_1_1SelectEbayOrders.html#aa117324d2bf73dd1949b61f62b93b312" target="_top" xlink:title="tomoBay.model.sql.queries.concrete\lQueries.SelectEbayOrders.initQuery">
<polygon fill="none" stroke="black" points="222.5,-24.5 222.5,-54.5 398.5,-54.5 398.5,-24.5 222.5,-24.5"/>
<text text-anchor="start" x="230.5" y="-42.5" font-family="Helvetica,sans-Serif" font-size="10.00">tomoBay.model.sql.queries.concrete</text>
<text text-anchor="middle" x="310.5" y="-31.5" font-family="Helvetica,sans-Serif" font-size="10.00">Queries.SelectEbayOrders.initQuery</text>
</a>
</g>
</g>
<!-- Node1&#45;&gt;Node4 -->
<g id="edge3" class="edge"><title>Node1&#45;&gt;Node4</title>
<path fill="none" stroke="midnightblue" d="M156.656,-73.4654C180.467,-68.1741 207.41,-62.1867 231.97,-56.7288"/>
<polygon fill="midnightblue" stroke="midnightblue" points="232.97,-60.0922 241.972,-54.5062 231.451,-53.2589 232.97,-60.0922"/>
</g>
<!-- Node5 -->
<g id="node5" class="node"><title>Node5</title>
<g id="a_node5"><a xlink:href="classtomoBay_1_1model_1_1sql_1_1ConnectionManager.html#a258fdcb8481c013b1864d6835e5dfaa2" target="_top" xlink:title="tomoBay.model.sql.Connection\lManager.instance">
<polygon fill="none" stroke="black" points="445,-49.5 445,-79.5 598,-79.5 598,-49.5 445,-49.5"/>
<text text-anchor="start" x="453" y="-67.5" font-family="Helvetica,sans-Serif" font-size="10.00">tomoBay.model.sql.Connection</text>
<text text-anchor="middle" x="521.5" y="-56.5" font-family="Helvetica,sans-Serif" font-size="10.00">Manager.instance</text>
</a>
</g>
</g>
<!-- Node4&#45;&gt;Node5 -->
<g id="edge4" class="edge"><title>Node4&#45;&gt;Node5</title>
<path fill="none" stroke="midnightblue" d="M398.621,-49.9212C410.61,-51.3552 422.912,-52.8268 434.873,-54.2575"/>
<polygon fill="midnightblue" stroke="midnightblue" points="434.48,-57.7354 444.825,-55.448 435.312,-50.785 434.48,-57.7354"/>
</g>
<!-- Node6 -->
<g id="node6" class="node"><title>Node6</title>
<g id="a_node6"><a xlink:href="classtomoBay_1_1model_1_1sql_1_1ConnectionManager.html#ae409bc78f5d56de5a3da5dc34b992912" target="_top" xlink:title="tomoBay.model.sql.Connection\lManager.getConnection">
<polygon fill="none" stroke="black" points="445,-0.5 445,-30.5 598,-30.5 598,-0.5 445,-0.5"/>
<text text-anchor="start" x="453" y="-18.5" font-family="Helvetica,sans-Serif" font-size="10.00">tomoBay.model.sql.Connection</text>
<text text-anchor="middle" x="521.5" y="-7.5" font-family="Helvetica,sans-Serif" font-size="10.00">Manager.getConnection</text>
</a>
</g>
</g>
<!-- Node4&#45;&gt;Node6 -->
<g id="edge5" class="edge"><title>Node4&#45;&gt;Node6</title>
<path fill="none" stroke="midnightblue" d="M398.621,-29.4956C410.61,-28.119 422.912,-26.7063 434.873,-25.3328"/>
<polygon fill="midnightblue" stroke="midnightblue" points="435.29,-28.808 444.825,-24.1899 434.491,-21.8537 435.29,-28.808"/>
</g>
</g>
</svg>
        <g id="navigator" transform="translate(0 0)" fill="#404254">
                <rect fill="#f2f5e9" fill-opacity="0.5" stroke="#606060" stroke-width=".5" x="0" y="0" width="60" height="60"/>
                <use id="zoomplus" xlink:href="#zoomPlus" x="17" y="9" onmousedown="handleZoom(evt,'in')"/>
                <use id="zoomminus" xlink:href="#zoomMin" x="42" y="9" onmousedown="handleZoom(evt,'out')"/>
                <use id="reset" xlink:href="#resetDef" x="30" y="36" onmousedown="handleReset()"/>
                <g id="arrowUp" xlink:href="#dirArrow" transform="translate(30 24)" onmousedown="handlePan(0,-1)">
                  <use xlink:href="#rim" fill="#404040">
                        <set attributeName="fill" to="#808080" begin="arrowUp.mouseover" end="arrowUp.mouseout"/>
                  </use>
                  <path fill="none" stroke="white" stroke-width="1.5" d="M0,-3.0v7 M-2.5,-0.5L0,-3.0L2.5,-0.5"/>
                </g>
                <g id="arrowRight" xlink:href="#dirArrow" transform="rotate(90) translate(36 -43)" onmousedown="handlePan(1,0)">
                  <use xlink:href="#rim" fill="#404040">
                        <set attributeName="fill" to="#808080" begin="arrowRight.mouseover" end="arrowRight.mouseout"/>
                  </use>
                  <path fill="none" stroke="white" stroke-width="1.5" d="M0,-3.0v7 M-2.5,-0.5L0,-3.0L2.5,-0.5"/>
                </g>
                <g id="arrowDown" xlink:href="#dirArrow" transform="rotate(180) translate(-30 -48)" onmousedown="handlePan(0,1)">
                  <use xlink:href="#rim" fill="#404040">
                        <set attributeName="fill" to="#808080" begin="arrowDown.mouseover" end="arrowDown.mouseout"/>
                  </use>
                  <path fill="none" stroke="white" stroke-width="1.5" d="M0,-3.0v7 M-2.5,-0.5L0,-3.0L2.5,-0.5"/>
                </g>
                <g id="arrowLeft" xlink:href="#dirArrow" transform="rotate(270) translate(-36 17)" onmousedown="handlePan(-1,0)">
                  <use xlink:href="#rim" fill="#404040">
                        <set attributeName="fill" to="#808080" begin="arrowLeft.mouseover" end="arrowLeft.mouseout"/>
                  </use>
                  <path fill="none" stroke="white" stroke-width="1.5" d="M0,-3.0v7 M-2.5,-0.5L0,-3.0L2.5,-0.5"/>
                </g>
        </g>
        <svg viewBox="0 0 15 15" width="100%" height="30px" preserveAspectRatio="xMaxYMin meet">
         <g id="arrow_out" transform="scale(0.3 0.3)">
          <a xlink:href="classtomoBay_1_1model_1_1sql_1_1queries_1_1concreteQueries_1_1SelectEbayOrders_ac69eb532545caea9ec80405e423ea1fe_cgraph_org.svg" target="_base">
           <rect id="button" ry="5" rx="5" y="6" x="6" height="38" width="38"
                fill="#f2f5e9" fill-opacity="0.5" stroke="#606060" stroke-width="1.0"/>
           <path id="arrow"
             d="M 11.500037,31.436501 C 11.940474,20.09759 22.043105,11.32322 32.158766,21.979434 L 37.068811,17.246167 C 37.068811,17.246167 37.088388,32 37.088388,32 L 22.160133,31.978069 C 22.160133,31.978069 26.997745,27.140456 26.997745,27.140456 C 18.528582,18.264221 13.291696,25.230495 11.500037,31.436501 z"
             style="fill:#404040;"/>
          </a>
         </g>
        </svg>
</svg>
