<?xml version="1.0" encoding="UTF-8" standalone="no"?>
<!DOCTYPE svg PUBLIC "-//W3C//DTD SVG 1.1//EN"
 "http://www.w3.org/Graphics/SVG/1.1/DTD/svg11.dtd">
<!-- Generated by graphviz version 2.38.0 (20140413.2041)
 -->
<!-- Title: cost Pages: 1 -->
<!--zoomable 179 -->
<svg id="main" version="1.1" xmlns="http://www.w3.org/2000/svg" xmlns:xlink="http://www.w3.org/1999/xlink" xml:space="preserve" onload="init(evt)">
<style type="text/css"><![CDATA[
.edge:hover path { stroke: red; }
.edge:hover polygon { stroke: red; fill: red; }
]]></style>
<script type="text/javascript"><![CDATA[
var edges = document.getElementsByTagName('g');
if (edges && edges.length) {
  for (var i=0;i<edges.length;i++) {
    if (edges[i].id.substr(0,4)=='edge') {
      edges[i].setAttribute('class','edge');
    }
  }
}
]]></script>
        <defs>
                <circle id="rim" cx="0" cy="0" r="7"/>
                <circle id="rim2" cx="0" cy="0" r="3.5"/>
                <g id="zoomPlus">
                        <use xlink:href="#rim" fill="#404040">
                                <set attributeName="fill" to="#808080" begin="zoomplus.mouseover" end="zoomplus.mouseout"/>
                        </use>
                        <path d="M-4,0h8M0,-4v8" fill="none" stroke="white" stroke-width="1.5" pointer-events="none"/>
                </g>
                <g id="zoomMin">
                        <use xlink:href="#rim" fill="#404040">
                                <set attributeName="fill" to="#808080" begin="zoomminus.mouseover" end="zoomminus.mouseout"/>
                        </use>
                        <path d="M-4,0h8" fill="none" stroke="white" stroke-width="1.5" pointer-events="none"/>
                </g>
                <g id="dirArrow">
                        <path fill="none" stroke="white" stroke-width="1.5" d="M0,-3.0v7 M-2.5,-0.5L0,-3.0L2.5,-0.5"/>
                </g>
               <g id="resetDef">
                       <use xlink:href="#rim2" fill="#404040">
                               <set attributeName="fill" to="#808080" begin="reset.mouseover" end="reset.mouseout"/>
                       </use>
               </g>
        </defs>

<script type="text/javascript">
var viewWidth = 786;
var viewHeight = 179;
var sectionId = 'dynsection-5';
</script>
<script xlink:href="svgpan.js"/>
<svg id="graph" class="graph">
<g id="viewport">
<title>cost</title>
<polygon fill="white" stroke="none" points="-4,4 -4,-175 782,-175 782,4 -4,4"/>
<!-- Node1 -->
<g id="node1" class="node"><title>Node1</title>
<polygon fill="#bfbfbf" stroke="black" points="0,-77.5 0,-96.5 35,-96.5 35,-77.5 0,-77.5"/>
<text text-anchor="middle" x="17.5" y="-84.5" font-family="Helvetica,sans-Serif" font-size="10.00">cost</text>
</g>
<!-- Node2 -->
<g id="node2" class="node"><title>Node2</title>
<g id="a_node2"><a xlink:href="classtomoBay_1_1model_1_1dataTypes_1_1order_1_1Listing.html#a5b10781389c8325b841e07ce1515deb0" target="_top" xlink:title="retrieve the accumulated base cost of all parts associated with this listing. ">
<polygon fill="white" stroke="black" points="107.5,-94 107.5,-124 268.5,-124 268.5,-94 107.5,-94"/>
<text text-anchor="start" x="115.5" y="-112" font-family="Helvetica,sans-Serif" font-size="10.00">tomoBay.model.dataTypes.order.</text>
<text text-anchor="middle" x="188" y="-101" font-family="Helvetica,sans-Serif" font-size="10.00">Listing.listingCost</text>
</a>
</g>
</g>
<!-- Node1&#45;&gt;Node2 -->
<g id="edge1" class="edge"><title>Node1&#45;&gt;Node2</title>
<path fill="none" stroke="midnightblue" d="M45.4384,-90.5172C62.2805,-92.7161 84.9321,-95.6736 107.172,-98.5773"/>
<polygon fill="midnightblue" stroke="midnightblue" points="45.6414,-87.0141 35.2724,-89.1899 44.7351,-93.9552 45.6414,-87.0141"/>
</g>
<!-- Node3 -->
<g id="node3" class="node"><title>Node3</title>
<g id="a_node3"><a xlink:href="classtomoBay_1_1model_1_1dataTypes_1_1financial_1_1SalesOrderDayBook_1_1concreteLineTypes_1_1GSPInvoiceLine.html#a1dbab551a07ec1e0c91c3cc7ef4fcd0b" target="_top" xlink:title="tomoBay.model.dataTypes.financial.\lSalesOrderDayBook.concreteLineTypes.\lGSPInvoiceLine.unitPrice">
<polygon fill="white" stroke="black" points="342.5,-129.5 342.5,-170.5 536.5,-170.5 536.5,-129.5 342.5,-129.5"/>
<text text-anchor="start" x="350.5" y="-158.5" font-family="Helvetica,sans-Serif" font-size="10.00">tomoBay.model.dataTypes.financial.</text>
<text text-anchor="start" x="350.5" y="-147.5" font-family="Helvetica,sans-Serif" font-size="10.00">SalesOrderDayBook.concreteLineTypes.</text>
<text text-anchor="middle" x="439.5" y="-136.5" font-family="Helvetica,sans-Serif" font-size="10.00">GSPInvoiceLine.unitPrice</text>
</a>
</g>
</g>
<!-- Node1&#45;&gt;Node3 -->
<g id="edge7" class="edge"><title>Node1&#45;&gt;Node3</title>
<path fill="none" stroke="midnightblue" d="M32.9537,-104.585C42.5525,-114.878 56.0987,-126.999 71,-133 157.943,-168.015 265.971,-168.473 342.339,-162.486"/>
<polygon fill="midnightblue" stroke="midnightblue" points="35.3913,-102.058 26.1514,-96.8736 30.1418,-106.688 35.3913,-102.058"/>
</g>
<!-- Node4 -->
<g id="node4" class="node"><title>Node4</title>
<g id="a_node4"><a xlink:href="classtomoBay_1_1model_1_1dataTypes_1_1financial_1_1SalesOrderDayBook_1_1concreteLineTypes_1_1StandardInvoiceLine.html#ad4699f0815895232592f2e0a89f67b39" target="_top" xlink:title="tomoBay.model.dataTypes.financial.\lSalesOrderDayBook.concreteLineTypes.\lStandardInvoiceLine.unitPrice">
<polygon fill="white" stroke="black" points="342.5,-66.5 342.5,-107.5 536.5,-107.5 536.5,-66.5 342.5,-66.5"/>
<text text-anchor="start" x="350.5" y="-95.5" font-family="Helvetica,sans-Serif" font-size="10.00">tomoBay.model.dataTypes.financial.</text>
<text text-anchor="start" x="350.5" y="-84.5" font-family="Helvetica,sans-Serif" font-size="10.00">SalesOrderDayBook.concreteLineTypes.</text>
<text text-anchor="middle" x="439.5" y="-73.5" font-family="Helvetica,sans-Serif" font-size="10.00">StandardInvoiceLine.unitPrice</text>
</a>
</g>
</g>
<!-- Node1&#45;&gt;Node4 -->
<g id="edge8" class="edge"><title>Node1&#45;&gt;Node4</title>
<path fill="none" stroke="midnightblue" d="M45.2544,-85.1755C53.5061,-84.6924 62.6243,-84.2391 71,-84 163,-81.3736 268.004,-82.6595 342.146,-84.2827"/>
<polygon fill="midnightblue" stroke="midnightblue" points="44.8041,-81.6967 35.0413,-85.8123 45.2398,-88.6831 44.8041,-81.6967"/>
</g>
<!-- Node5 -->
<g id="node5" class="node"><title>Node5</title>
<g id="a_node5"><a xlink:href="classtomoBay_1_1presenters_1_1presenterActions_1_1concreteActions_1_1OrderInfo.html#a703cbb509cdc01530f19b03f573120c9" target="_top" xlink:title="formats the transaction information associated with this order ">
<polygon fill="white" stroke="black" points="71,-6 71,-36 305,-36 305,-6 71,-6"/>
<text text-anchor="start" x="79" y="-24" font-family="Helvetica,sans-Serif" font-size="10.00">tomoBay.presenters.presenter</text>
<text text-anchor="middle" x="188" y="-13" font-family="Helvetica,sans-Serif" font-size="10.00">Actions.concreteActions.OrderInfo.transactionInfo</text>
</a>
</g>
</g>
<!-- Node1&#45;&gt;Node5 -->
<g id="edge4" class="edge"><title>Node1&#45;&gt;Node5</title>
<path fill="none" stroke="midnightblue" d="M37.8695,-71.3088C47.3815,-64.2506 59.2939,-56.3273 71,-51 84.1585,-45.0118 98.722,-40.0638 112.958,-36.0327"/>
<polygon fill="midnightblue" stroke="midnightblue" points="35.6783,-68.5785 29.8835,-77.4482 39.9447,-74.1281 35.6783,-68.5785"/>
</g>
<!-- Node2&#45;&gt;Node3 -->
<g id="edge2" class="edge"><title>Node2&#45;&gt;Node3</title>
<path fill="none" stroke="midnightblue" d="M278.63,-123.729C299.254,-127.118 321.271,-130.736 342.165,-134.169"/>
<polygon fill="midnightblue" stroke="midnightblue" points="279.065,-120.253 268.629,-122.085 277.929,-127.161 279.065,-120.253"/>
</g>
<!-- Node2&#45;&gt;Node4 -->
<g id="edge3" class="edge"><title>Node2&#45;&gt;Node4</title>
<path fill="none" stroke="midnightblue" d="M278.63,-101.097C299.254,-99.2782 321.271,-97.3368 342.165,-95.4945"/>
<polygon fill="midnightblue" stroke="midnightblue" points="278.283,-97.6137 268.629,-101.979 278.898,-104.587 278.283,-97.6137"/>
</g>
<!-- Node6 -->
<g id="node6" class="node"><title>Node6</title>
<g id="a_node6"><a xlink:href="classtomoBay_1_1presenters_1_1presenterActions_1_1concreteActions_1_1OrderInfo.html#afeec1aeda079b77245edea1e74b25f33" target="_top" xlink:title="assembles the various parts of the order and outputs it as a fully formed JSON string. ">
<polygon fill="white" stroke="black" points="341,-0.5 341,-41.5 538,-41.5 538,-0.5 341,-0.5"/>
<text text-anchor="start" x="349" y="-29.5" font-family="Helvetica,sans-Serif" font-size="10.00">tomoBay.presenters.presenter</text>
<text text-anchor="start" x="349" y="-18.5" font-family="Helvetica,sans-Serif" font-size="10.00">Actions.concreteActions.OrderInfo.format</text>
<text text-anchor="middle" x="439.5" y="-7.5" font-family="Helvetica,sans-Serif" font-size="10.00">Results</text>
</a>
</g>
</g>
<!-- Node5&#45;&gt;Node6 -->
<g id="edge5" class="edge"><title>Node5&#45;&gt;Node6</title>
<path fill="none" stroke="midnightblue" d="M315.61,-21C324.026,-21 332.431,-21 340.671,-21"/>
<polygon fill="midnightblue" stroke="midnightblue" points="315.35,-17.5001 305.35,-21 315.35,-24.5001 315.35,-17.5001"/>
</g>
<!-- Node7 -->
<g id="node7" class="node"><title>Node7</title>
<g id="a_node7"><a xlink:href="classtomoBay_1_1presenters_1_1presenterActions_1_1concreteActions_1_1OrderInfo.html#adb3dedf31dc2c7fc796f20406c235ccd" target="_top" xlink:title="performs the action specified ">
<polygon fill="white" stroke="black" points="574,-6 574,-36 778,-36 778,-6 574,-6"/>
<text text-anchor="start" x="582" y="-24" font-family="Helvetica,sans-Serif" font-size="10.00">tomoBay.presenters.presenter</text>
<text text-anchor="middle" x="676" y="-13" font-family="Helvetica,sans-Serif" font-size="10.00">Actions.concreteActions.OrderInfo.execute</text>
</a>
</g>
</g>
<!-- Node6&#45;&gt;Node7 -->
<g id="edge6" class="edge"><title>Node6&#45;&gt;Node7</title>
<path fill="none" stroke="midnightblue" d="M548.441,-21C556.831,-21 565.285,-21 573.629,-21"/>
<polygon fill="midnightblue" stroke="midnightblue" points="548.251,-17.5001 538.251,-21 548.251,-24.5001 548.251,-17.5001"/>
</g>
</g>
</svg>
        <g id="navigator" transform="translate(0 0)" fill="#404254">
                <rect fill="#f2f5e9" fill-opacity="0.5" stroke="#606060" stroke-width=".5" x="0" y="0" width="60" height="60"/>
                <use id="zoomplus" xlink:href="#zoomPlus" x="17" y="9" onmousedown="handleZoom(evt,'in')"/>
                <use id="zoomminus" xlink:href="#zoomMin" x="42" y="9" onmousedown="handleZoom(evt,'out')"/>
                <use id="reset" xlink:href="#resetDef" x="30" y="36" onmousedown="handleReset()"/>
                <g id="arrowUp" xlink:href="#dirArrow" transform="translate(30 24)" onmousedown="handlePan(0,-1)">
                  <use xlink:href="#rim" fill="#404040">
                        <set attributeName="fill" to="#808080" begin="arrowUp.mouseover" end="arrowUp.mouseout"/>
                  </use>
                  <path fill="none" stroke="white" stroke-width="1.5" d="M0,-3.0v7 M-2.5,-0.5L0,-3.0L2.5,-0.5"/>
                </g>
                <g id="arrowRight" xlink:href="#dirArrow" transform="rotate(90) translate(36 -43)" onmousedown="handlePan(1,0)">
                  <use xlink:href="#rim" fill="#404040">
                        <set attributeName="fill" to="#808080" begin="arrowRight.mouseover" end="arrowRight.mouseout"/>
                  </use>
                  <path fill="none" stroke="white" stroke-width="1.5" d="M0,-3.0v7 M-2.5,-0.5L0,-3.0L2.5,-0.5"/>
                </g>
                <g id="arrowDown" xlink:href="#dirArrow" transform="rotate(180) translate(-30 -48)" onmousedown="handlePan(0,1)">
                  <use xlink:href="#rim" fill="#404040">
                        <set attributeName="fill" to="#808080" begin="arrowDown.mouseover" end="arrowDown.mouseout"/>
                  </use>
                  <path fill="none" stroke="white" stroke-width="1.5" d="M0,-3.0v7 M-2.5,-0.5L0,-3.0L2.5,-0.5"/>
                </g>
                <g id="arrowLeft" xlink:href="#dirArrow" transform="rotate(270) translate(-36 17)" onmousedown="handlePan(-1,0)">
                  <use xlink:href="#rim" fill="#404040">
                        <set attributeName="fill" to="#808080" begin="arrowLeft.mouseover" end="arrowLeft.mouseout"/>
                  </use>
                  <path fill="none" stroke="white" stroke-width="1.5" d="M0,-3.0v7 M-2.5,-0.5L0,-3.0L2.5,-0.5"/>
                </g>
        </g>
        <svg viewBox="0 0 15 15" width="100%" height="30px" preserveAspectRatio="xMaxYMin meet">
         <g id="arrow_out" transform="scale(0.3 0.3)">
          <a xlink:href="classtomoBay_1_1model_1_1dataTypes_1_1order_1_1Part_a8ac609454ba3856bbd979c48319f7c25_icgraph_org.svg" target="_base">
           <rect id="button" ry="5" rx="5" y="6" x="6" height="38" width="38"
                fill="#f2f5e9" fill-opacity="0.5" stroke="#606060" stroke-width="1.0"/>
           <path id="arrow"
             d="M 11.500037,31.436501 C 11.940474,20.09759 22.043105,11.32322 32.158766,21.979434 L 37.068811,17.246167 C 37.068811,17.246167 37.088388,32 37.088388,32 L 22.160133,31.978069 C 22.160133,31.978069 26.997745,27.140456 26.997745,27.140456 C 18.528582,18.264221 13.291696,25.230495 11.500037,31.436501 z"
             style="fill:#404040;"/>
          </a>
         </g>
        </svg>
</svg>
