<?xml version="1.0" encoding="UTF-8" standalone="no"?>
<!DOCTYPE svg PUBLIC "-//W3C//DTD SVG 1.1//EN"
 "http://www.w3.org/Graphics/SVG/1.1/DTD/svg11.dtd">
<!-- Generated by graphviz version 2.38.0 (20140413.2041)
 -->
<!-- Title: setParameters Pages: 1 -->
<!--zoomable 552 -->
<svg id="main" version="1.1" xmlns="http://www.w3.org/2000/svg" xmlns:xlink="http://www.w3.org/1999/xlink" xml:space="preserve" onload="init(evt)">
<style type="text/css"><![CDATA[
.edge:hover path { stroke: red; }
.edge:hover polygon { stroke: red; fill: red; }
]]></style>
<script type="text/javascript"><![CDATA[
var edges = document.getElementsByTagName('g');
if (edges && edges.length) {
  for (var i=0;i<edges.length;i++) {
    if (edges[i].id.substr(0,4)=='edge') {
      edges[i].setAttribute('class','edge');
    }
  }
}
]]></script>
        <defs>
                <circle id="rim" cx="0" cy="0" r="7"/>
                <circle id="rim2" cx="0" cy="0" r="3.5"/>
                <g id="zoomPlus">
                        <use xlink:href="#rim" fill="#404040">
                                <set attributeName="fill" to="#808080" begin="zoomplus.mouseover" end="zoomplus.mouseout"/>
                        </use>
                        <path d="M-4,0h8M0,-4v8" fill="none" stroke="white" stroke-width="1.5" pointer-events="none"/>
                </g>
                <g id="zoomMin">
                        <use xlink:href="#rim" fill="#404040">
                                <set attributeName="fill" to="#808080" begin="zoomminus.mouseover" end="zoomminus.mouseout"/>
                        </use>
                        <path d="M-4,0h8" fill="none" stroke="white" stroke-width="1.5" pointer-events="none"/>
                </g>
                <g id="dirArrow">
                        <path fill="none" stroke="white" stroke-width="1.5" d="M0,-3.0v7 M-2.5,-0.5L0,-3.0L2.5,-0.5"/>
                </g>
               <g id="resetDef">
                       <use xlink:href="#rim2" fill="#404040">
                               <set attributeName="fill" to="#808080" begin="reset.mouseover" end="reset.mouseout"/>
                       </use>
               </g>
        </defs>

<script type="text/javascript">
var viewWidth = 2078;
var viewHeight = 552;
var sectionId = 'dynsection-2';
</script>
<script xlink:href="svgpan.js"/>
<svg id="graph" class="graph">
<g id="viewport">
<title>setParameters</title>
<polygon fill="white" stroke="none" points="-4,4 -4,-548.216 2074,-548.216 2074,4 -4,4"/>
<!-- Node1 -->
<g id="node1" class="node"><title>Node1</title>
<polygon fill="#bfbfbf" stroke="black" points="0,-262.716 0,-281.716 80,-281.716 80,-262.716 0,-262.716"/>
<text text-anchor="middle" x="40" y="-269.716" font-family="Helvetica,sans-Serif" font-size="10.00">setParameters</text>
</g>
<!-- Node2 -->
<g id="node2" class="node"><title>Node2</title>
<g id="a_node2"><a xlink:href="classtomoBay_1_1model_1_1sql_1_1framework_1_1QueryUtility.html#a3249b16421a9902f2248cb86d4dd3be3" target="_top" xlink:title="set an Integer parameter for the query object specified. ">
<polygon fill="white" stroke="black" points="116,-257.216 116,-287.216 280,-287.216 280,-257.216 116,-257.216"/>
<text text-anchor="start" x="124" y="-275.216" font-family="Helvetica,sans-Serif" font-size="10.00">tomoBay.model.sql.framework.</text>
<text text-anchor="middle" x="198" y="-264.216" font-family="Helvetica,sans-Serif" font-size="10.00">QueryUtility.setVARCHARParam</text>
</a>
</g>
</g>
<!-- Node1&#45;&gt;Node2 -->
<g id="edge1" class="edge"><title>Node1&#45;&gt;Node2</title>
<path fill="none" stroke="midnightblue" d="M80.3654,-272.216C88.3006,-272.216 96.9495,-272.216 105.833,-272.216"/>
<polygon fill="midnightblue" stroke="midnightblue" points="105.937,-275.716 115.937,-272.216 105.937,-268.716 105.937,-275.716"/>
</g>
<!-- Node3 -->
<g id="node3" class="node"><title>Node3</title>
<g id="a_node3"><a xlink:href="classtomoBay_1_1model_1_1dataTypes_1_1heteroTypeContainer_1_1HeteroFieldContainer.html#a988363ab964d6dc0ccb8560bef5895b6" target="_top" xlink:title="retrieve the the value of an AbstractField from this HeteroFieldContainer, the field should be of the...">
<polygon fill="white" stroke="black" points="1656,-396.216 1656,-426.216 1848,-426.216 1848,-396.216 1656,-396.216"/>
<text text-anchor="start" x="1664" y="-414.216" font-family="Helvetica,sans-Serif" font-size="10.00">tomoBay.model.dataTypes.hetero</text>
<text text-anchor="middle" x="1752" y="-403.216" font-family="Helvetica,sans-Serif" font-size="10.00">TypeContainer.HeteroFieldContainer.get</text>
</a>
</g>
</g>
<!-- Node2&#45;&gt;Node3 -->
<g id="edge2" class="edge"><title>Node2&#45;&gt;Node3</title>
<path fill="none" stroke="midnightblue" d="M209.111,-287.227C248.853,-344.249 400.917,-544.216 579,-544.216 579,-544.216 579,-544.216 1355.5,-544.216 1474.9,-544.216 1509.05,-541.324 1620,-497.216 1659.75,-481.414 1700.09,-452.583 1725.3,-432.687"/>
<polygon fill="midnightblue" stroke="midnightblue" points="1727.63,-435.301 1733.24,-426.314 1723.25,-429.84 1727.63,-435.301"/>
</g>
<!-- Node5 -->
<g id="node5" class="node"><title>Node5</title>
<g id="a_node5"><a xlink:href="classtomoBay_1_1model_1_1sql_1_1framework_1_1QueryUtility.html#a50955d4f51a1a7a88ef0c8aadbe9c793" target="_top" xlink:title="set an Integer parameter for the query object specified. ">
<polygon fill="white" stroke="black" points="316,-257.216 316,-287.216 468,-287.216 468,-257.216 316,-257.216"/>
<text text-anchor="start" x="324" y="-275.216" font-family="Helvetica,sans-Serif" font-size="10.00">tomoBay.model.sql.framework.</text>
<text text-anchor="middle" x="392" y="-264.216" font-family="Helvetica,sans-Serif" font-size="10.00">QueryUtility.setBYTEParam</text>
</a>
</g>
</g>
<!-- Node2&#45;&gt;Node5 -->
<g id="edge4" class="edge"><title>Node2&#45;&gt;Node5</title>
<path fill="none" stroke="midnightblue" d="M280.147,-272.216C288.587,-272.216 297.185,-272.216 305.669,-272.216"/>
<polygon fill="midnightblue" stroke="midnightblue" points="305.945,-275.716 315.945,-272.216 305.945,-268.716 305.945,-275.716"/>
</g>
<!-- Node12 -->
<g id="node12" class="node"><title>Node12</title>
<g id="a_node12"><a xlink:href="classtomoBay_1_1model_1_1sql_1_1framework_1_1queryTypes_1_1AbstractDBQuery.html#a41678b13e84de4335130f10cea7ae562" target="_top" xlink:title="get the statement object associated with this query ">
<polygon fill="white" stroke="black" points="1664,-118.216 1664,-148.216 1840,-148.216 1840,-118.216 1664,-118.216"/>
<text text-anchor="start" x="1672" y="-136.216" font-family="Helvetica,sans-Serif" font-size="10.00">tomoBay.model.sql.framework.query</text>
<text text-anchor="middle" x="1752" y="-125.216" font-family="Helvetica,sans-Serif" font-size="10.00">Types.AbstractDBQuery.statement</text>
</a>
</g>
</g>
<!-- Node2&#45;&gt;Node12 -->
<g id="edge26" class="edge"><title>Node2&#45;&gt;Node12</title>
<path fill="none" stroke="midnightblue" d="M209.111,-257.205C248.853,-200.183 400.917,-0.216144 579,-0.216144 579,-0.216144 579,-0.216144 1355.5,-0.216144 1474.46,-0.216144 1509.66,3.24217 1620,-41.2161 1661.22,-57.8262 1702.07,-89.5862 1726.91,-111.086"/>
<polygon fill="midnightblue" stroke="midnightblue" points="1724.89,-113.965 1734.71,-117.947 1729.51,-108.712 1724.89,-113.965"/>
</g>
<!-- Node4 -->
<g id="node4" class="node"><title>Node4</title>
<g id="a_node4"><a xlink:href="classtomoBay_1_1model_1_1dataTypes_1_1heteroTypeContainer_1_1HeteroFieldContainer.html#a9dee3c01eb5ab16203e1c6820a569484" target="_top" xlink:title="performs a type check, assuming that field and type are of the same type then this method returns tru...">
<polygon fill="white" stroke="black" points="1884,-390.716 1884,-431.716 2070,-431.716 2070,-390.716 1884,-390.716"/>
<text text-anchor="start" x="1892" y="-419.716" font-family="Helvetica,sans-Serif" font-size="10.00">tomoBay.model.dataTypes.hetero</text>
<text text-anchor="start" x="1892" y="-408.716" font-family="Helvetica,sans-Serif" font-size="10.00">TypeContainer.HeteroFieldContainer.is</text>
<text text-anchor="middle" x="1977" y="-397.716" font-family="Helvetica,sans-Serif" font-size="10.00">SameType</text>
</a>
</g>
</g>
<!-- Node3&#45;&gt;Node4 -->
<g id="edge3" class="edge"><title>Node3&#45;&gt;Node4</title>
<path fill="none" stroke="midnightblue" d="M1848.22,-411.216C1856.73,-411.216 1865.37,-411.216 1873.93,-411.216"/>
<polygon fill="midnightblue" stroke="midnightblue" points="1873.93,-414.716 1883.93,-411.216 1873.93,-407.716 1873.93,-414.716"/>
</g>
<!-- Node5&#45;&gt;Node3 -->
<g id="edge5" class="edge"><title>Node5&#45;&gt;Node3</title>
<path fill="none" stroke="midnightblue" d="M405.443,-287.57C449.139,-339.628 601.902,-506.216 767.5,-506.216 767.5,-506.216 767.5,-506.216 1355.5,-506.216 1474.46,-506.216 1505.43,-497.22 1620,-465.216 1651.51,-456.414 1685.64,-442.181 1711.16,-430.537"/>
<polygon fill="midnightblue" stroke="midnightblue" points="1712.89,-433.593 1720.5,-426.218 1709.95,-427.24 1712.89,-433.593"/>
</g>
<!-- Node6 -->
<g id="node6" class="node"><title>Node6</title>
<g id="a_node6"><a xlink:href="classtomoBay_1_1model_1_1sql_1_1framework_1_1QueryUtility.html#a138f0c046bc0a6df71b168ab35c3c3e3" target="_top" xlink:title="set an Integer parameter for the query object specified. ">
<polygon fill="white" stroke="black" points="504,-257.216 504,-287.216 656,-287.216 656,-257.216 504,-257.216"/>
<text text-anchor="start" x="512" y="-275.216" font-family="Helvetica,sans-Serif" font-size="10.00">tomoBay.model.sql.framework.</text>
<text text-anchor="middle" x="580" y="-264.216" font-family="Helvetica,sans-Serif" font-size="10.00">QueryUtility.setBIGINTParam</text>
</a>
</g>
</g>
<!-- Node5&#45;&gt;Node6 -->
<g id="edge6" class="edge"><title>Node5&#45;&gt;Node6</title>
<path fill="none" stroke="midnightblue" d="M468.117,-272.216C476.596,-272.216 485.281,-272.216 493.875,-272.216"/>
<polygon fill="midnightblue" stroke="midnightblue" points="493.905,-275.716 503.905,-272.216 493.905,-268.716 493.905,-275.716"/>
</g>
<!-- Node5&#45;&gt;Node12 -->
<g id="edge25" class="edge"><title>Node5&#45;&gt;Node12</title>
<path fill="none" stroke="midnightblue" d="M405.443,-256.863C449.139,-204.804 601.902,-38.2161 767.5,-38.2161 767.5,-38.2161 767.5,-38.2161 1355.5,-38.2161 1474.53,-38.2161 1505.31,-48.3572 1620,-80.2161 1651.13,-88.863 1684.89,-102.637 1710.35,-113.976"/>
<polygon fill="midnightblue" stroke="midnightblue" points="1709.12,-117.261 1719.67,-118.187 1712,-110.881 1709.12,-117.261"/>
</g>
<!-- Node6&#45;&gt;Node3 -->
<g id="edge7" class="edge"><title>Node6&#45;&gt;Node3</title>
<path fill="none" stroke="midnightblue" d="M596.765,-287.27C646.559,-333.166 806.618,-468.216 966,-468.216 966,-468.216 966,-468.216 1355.5,-468.216 1468.43,-468.216 1597.66,-445.168 1676.8,-428.384"/>
<polygon fill="midnightblue" stroke="midnightblue" points="1677.63,-431.785 1686.67,-426.267 1676.16,-424.941 1677.63,-431.785"/>
</g>
<!-- Node7 -->
<g id="node7" class="node"><title>Node7</title>
<g id="a_node7"><a xlink:href="classtomoBay_1_1model_1_1sql_1_1framework_1_1QueryUtility.html#a56a65ac583b8720ae73dc81278e5690e" target="_top" xlink:title="set an Integer parameter for the query object specified. ">
<polygon fill="white" stroke="black" points="692,-257.216 692,-287.216 845,-287.216 845,-257.216 692,-257.216"/>
<text text-anchor="start" x="700" y="-275.216" font-family="Helvetica,sans-Serif" font-size="10.00">tomoBay.model.sql.framework.</text>
<text text-anchor="middle" x="768.5" y="-264.216" font-family="Helvetica,sans-Serif" font-size="10.00">QueryUtility.setTINYINTParam</text>
</a>
</g>
</g>
<!-- Node6&#45;&gt;Node7 -->
<g id="edge8" class="edge"><title>Node6&#45;&gt;Node7</title>
<path fill="none" stroke="midnightblue" d="M656.051,-272.216C664.562,-272.216 673.285,-272.216 681.919,-272.216"/>
<polygon fill="midnightblue" stroke="midnightblue" points="681.996,-275.716 691.996,-272.216 681.996,-268.716 681.996,-275.716"/>
</g>
<!-- Node6&#45;&gt;Node12 -->
<g id="edge24" class="edge"><title>Node6&#45;&gt;Node12</title>
<path fill="none" stroke="midnightblue" d="M596.765,-257.162C646.559,-211.266 806.618,-76.2161 966,-76.2161 966,-76.2161 966,-76.2161 1355.5,-76.2161 1468.43,-76.2161 1597.66,-99.2644 1676.8,-116.049"/>
<polygon fill="midnightblue" stroke="midnightblue" points="1676.16,-119.491 1686.67,-118.166 1677.63,-112.647 1676.16,-119.491"/>
</g>
<!-- Node7&#45;&gt;Node3 -->
<g id="edge9" class="edge"><title>Node7&#45;&gt;Node3</title>
<path fill="none" stroke="midnightblue" d="M790.541,-287.366C847.603,-326.912 1011.28,-430.216 1164,-430.216 1164,-430.216 1164,-430.216 1355.5,-430.216 1454.05,-430.216 1566.26,-424.257 1645.93,-419.013"/>
<polygon fill="midnightblue" stroke="midnightblue" points="1646.22,-422.502 1655.96,-418.345 1645.75,-415.517 1646.22,-422.502"/>
</g>
<!-- Node8 -->
<g id="node8" class="node"><title>Node8</title>
<g id="a_node8"><a xlink:href="classtomoBay_1_1model_1_1sql_1_1framework_1_1QueryUtility.html#ab07d04299a96461dcf893416b8e32604" target="_top" xlink:title="set an Integer parameter for the query object specified. ">
<polygon fill="white" stroke="black" points="881,-257.216 881,-287.216 1053,-287.216 1053,-257.216 881,-257.216"/>
<text text-anchor="start" x="889" y="-275.216" font-family="Helvetica,sans-Serif" font-size="10.00">tomoBay.model.sql.framework.</text>
<text text-anchor="middle" x="967" y="-264.216" font-family="Helvetica,sans-Serif" font-size="10.00">QueryUtility.setTIMESTAMPParam</text>
</a>
</g>
</g>
<!-- Node7&#45;&gt;Node8 -->
<g id="edge10" class="edge"><title>Node7&#45;&gt;Node8</title>
<path fill="none" stroke="midnightblue" d="M845.191,-272.216C853.583,-272.216 862.208,-272.216 870.801,-272.216"/>
<polygon fill="midnightblue" stroke="midnightblue" points="870.859,-275.716 880.859,-272.216 870.859,-268.716 870.859,-275.716"/>
</g>
<!-- Node7&#45;&gt;Node12 -->
<g id="edge23" class="edge"><title>Node7&#45;&gt;Node12</title>
<path fill="none" stroke="midnightblue" d="M790.541,-257.066C847.603,-217.52 1011.28,-114.216 1164,-114.216 1164,-114.216 1164,-114.216 1355.5,-114.216 1457.35,-114.216 1573.79,-120.58 1653.81,-125.942"/>
<polygon fill="midnightblue" stroke="midnightblue" points="1653.66,-129.44 1663.87,-126.624 1654.13,-122.456 1653.66,-129.44"/>
</g>
<!-- Node8&#45;&gt;Node3 -->
<g id="edge11" class="edge"><title>Node8&#45;&gt;Node3</title>
<path fill="none" stroke="midnightblue" d="M1034.04,-287.253C1129.45,-308.62 1311.59,-348.071 1468,-374.216 1526.54,-384.001 1592.25,-392.73 1645.61,-399.248"/>
<polygon fill="midnightblue" stroke="midnightblue" points="1645.42,-402.751 1655.77,-400.481 1646.27,-395.801 1645.42,-402.751"/>
</g>
<!-- Node9 -->
<g id="node9" class="node"><title>Node9</title>
<g id="a_node9"><a xlink:href="classtomoBay_1_1model_1_1sql_1_1framework_1_1QueryUtility.html#a202aab30c77e06c32318efd5cf949ca3" target="_top" xlink:title="set an Integer parameter for the query object specified. ">
<polygon fill="white" stroke="black" points="1089,-257.216 1089,-287.216 1241,-287.216 1241,-257.216 1089,-257.216"/>
<text text-anchor="start" x="1097" y="-275.216" font-family="Helvetica,sans-Serif" font-size="10.00">tomoBay.model.sql.framework.</text>
<text text-anchor="middle" x="1165" y="-264.216" font-family="Helvetica,sans-Serif" font-size="10.00">QueryUtility.setDATEParam</text>
</a>
</g>
</g>
<!-- Node8&#45;&gt;Node9 -->
<g id="edge12" class="edge"><title>Node8&#45;&gt;Node9</title>
<path fill="none" stroke="midnightblue" d="M1053.11,-272.216C1061.56,-272.216 1070.14,-272.216 1078.59,-272.216"/>
<polygon fill="midnightblue" stroke="midnightblue" points="1078.81,-275.716 1088.81,-272.216 1078.81,-268.716 1078.81,-275.716"/>
</g>
<!-- Node8&#45;&gt;Node12 -->
<g id="edge22" class="edge"><title>Node8&#45;&gt;Node12</title>
<path fill="none" stroke="midnightblue" d="M1030.01,-257.13C1124.17,-234.663 1309.07,-192.272 1468,-166.216 1529.46,-156.14 1598.93,-147.993 1653.65,-142.314"/>
<polygon fill="midnightblue" stroke="midnightblue" points="1654.1,-145.786 1663.69,-141.283 1653.39,-138.823 1654.1,-145.786"/>
</g>
<!-- Node9&#45;&gt;Node3 -->
<g id="edge13" class="edge"><title>Node9&#45;&gt;Node3</title>
<path fill="none" stroke="midnightblue" d="M1231.87,-287.218C1320.28,-307.437 1482.15,-344.765 1620,-378.216 1640.37,-383.16 1662.48,-388.673 1682.64,-393.757"/>
<polygon fill="midnightblue" stroke="midnightblue" points="1681.81,-397.157 1692.36,-396.214 1683.53,-390.37 1681.81,-397.157"/>
</g>
<!-- Node10 -->
<g id="node10" class="node"><title>Node10</title>
<g id="a_node10"><a xlink:href="classtomoBay_1_1model_1_1sql_1_1framework_1_1QueryUtility.html#a5677c2440b48e612fb51b57130555e5d" target="_top" xlink:title="set an Integer parameter for the query object specified. ">
<polygon fill="white" stroke="black" points="1277,-257.216 1277,-287.216 1432,-287.216 1432,-257.216 1277,-257.216"/>
<text text-anchor="start" x="1285" y="-275.216" font-family="Helvetica,sans-Serif" font-size="10.00">tomoBay.model.sql.framework.</text>
<text text-anchor="middle" x="1354.5" y="-264.216" font-family="Helvetica,sans-Serif" font-size="10.00">QueryUtility.setDOUBLEParam</text>
</a>
</g>
</g>
<!-- Node9&#45;&gt;Node10 -->
<g id="edge14" class="edge"><title>Node9&#45;&gt;Node10</title>
<path fill="none" stroke="midnightblue" d="M1241.18,-272.216C1249.51,-272.216 1258.05,-272.216 1266.51,-272.216"/>
<polygon fill="midnightblue" stroke="midnightblue" points="1266.77,-275.716 1276.77,-272.216 1266.77,-268.716 1266.77,-275.716"/>
</g>
<!-- Node9&#45;&gt;Node12 -->
<g id="edge21" class="edge"><title>Node9&#45;&gt;Node12</title>
<path fill="none" stroke="midnightblue" d="M1231.87,-257.215C1320.28,-236.995 1482.15,-199.668 1620,-166.216 1640.37,-161.273 1662.48,-155.759 1682.64,-150.675"/>
<polygon fill="midnightblue" stroke="midnightblue" points="1683.53,-154.062 1692.36,-148.219 1681.81,-147.275 1683.53,-154.062"/>
</g>
<!-- Node10&#45;&gt;Node3 -->
<g id="edge15" class="edge"><title>Node10&#45;&gt;Node3</title>
<path fill="none" stroke="midnightblue" d="M1421.53,-287.239C1487.53,-302.605 1584.2,-326.158 1620,-340.216 1655.11,-354.002 1692.72,-375.116 1718.6,-390.739"/>
<polygon fill="midnightblue" stroke="midnightblue" points="1716.88,-393.79 1727.24,-396.015 1720.52,-387.816 1716.88,-393.79"/>
</g>
<!-- Node11 -->
<g id="node11" class="node"><title>Node11</title>
<g id="a_node11"><a xlink:href="classtomoBay_1_1model_1_1sql_1_1framework_1_1QueryUtility.html#adf8f1fea7b649baadeb0297c41be72f5" target="_top" xlink:title="set an Integer parameter for the query object specified. ">
<polygon fill="white" stroke="black" points="1468,-257.216 1468,-287.216 1620,-287.216 1620,-257.216 1468,-257.216"/>
<text text-anchor="start" x="1476" y="-275.216" font-family="Helvetica,sans-Serif" font-size="10.00">tomoBay.model.sql.framework.</text>
<text text-anchor="middle" x="1544" y="-264.216" font-family="Helvetica,sans-Serif" font-size="10.00">QueryUtility.setFLOATParam</text>
</a>
</g>
</g>
<!-- Node10&#45;&gt;Node11 -->
<g id="edge16" class="edge"><title>Node10&#45;&gt;Node11</title>
<path fill="none" stroke="midnightblue" d="M1432.03,-272.216C1440.55,-272.216 1449.26,-272.216 1457.87,-272.216"/>
<polygon fill="midnightblue" stroke="midnightblue" points="1457.92,-275.716 1467.92,-272.216 1457.92,-268.716 1457.92,-275.716"/>
</g>
<!-- Node10&#45;&gt;Node12 -->
<g id="edge20" class="edge"><title>Node10&#45;&gt;Node12</title>
<path fill="none" stroke="midnightblue" d="M1421.53,-257.193C1487.53,-241.827 1584.2,-218.274 1620,-204.216 1655.11,-190.431 1692.72,-169.316 1718.6,-153.693"/>
<polygon fill="midnightblue" stroke="midnightblue" points="1720.52,-156.616 1727.24,-148.417 1716.88,-150.642 1720.52,-156.616"/>
</g>
<!-- Node11&#45;&gt;Node3 -->
<g id="edge17" class="edge"><title>Node11&#45;&gt;Node3</title>
<path fill="none" stroke="midnightblue" d="M1589.33,-287.277C1599.7,-291.519 1610.48,-296.546 1620,-302.216 1661.74,-327.082 1703.84,-364.902 1728.66,-388.822"/>
<polygon fill="midnightblue" stroke="midnightblue" points="1726.48,-391.59 1736.09,-396.066 1731.37,-386.579 1726.48,-391.59"/>
</g>
<!-- Node11&#45;&gt;Node12 -->
<g id="edge18" class="edge"><title>Node11&#45;&gt;Node12</title>
<path fill="none" stroke="midnightblue" d="M1589.33,-257.155C1599.7,-252.913 1610.48,-247.886 1620,-242.216 1661.74,-217.35 1703.84,-179.53 1728.66,-155.61"/>
<polygon fill="midnightblue" stroke="midnightblue" points="1731.37,-157.854 1736.09,-148.366 1726.48,-152.842 1731.37,-157.854"/>
</g>
<!-- Node13 -->
<g id="node13" class="node"><title>Node13</title>
<g id="a_node13"><a xlink:href="classtomoBay_1_1model_1_1sql_1_1framework_1_1queryTypes_1_1AbstractDBQuery.html#ae8a5c5f1701ee77ef658050c8345d518" target="_top" xlink:title="Used by derived classes to define the Query string to be used in the query. ">
<polygon fill="white" stroke="black" points="1889,-118.216 1889,-148.216 2065,-148.216 2065,-118.216 1889,-118.216"/>
<text text-anchor="start" x="1897" y="-136.216" font-family="Helvetica,sans-Serif" font-size="10.00">tomoBay.model.sql.framework.query</text>
<text text-anchor="middle" x="1977" y="-125.216" font-family="Helvetica,sans-Serif" font-size="10.00">Types.AbstractDBQuery.queryString</text>
</a>
</g>
</g>
<!-- Node12&#45;&gt;Node13 -->
<g id="edge19" class="edge"><title>Node12&#45;&gt;Node13</title>
<path fill="none" stroke="midnightblue" d="M1840.18,-133.216C1852.8,-133.216 1865.87,-133.216 1878.68,-133.216"/>
<polygon fill="midnightblue" stroke="midnightblue" points="1878.88,-136.716 1888.88,-133.216 1878.88,-129.716 1878.88,-136.716"/>
</g>
</g>
</svg>
        <g id="navigator" transform="translate(0 0)" fill="#404254">
                <rect fill="#f2f5e9" fill-opacity="0.5" stroke="#606060" stroke-width=".5" x="0" y="0" width="60" height="60"/>
                <use id="zoomplus" xlink:href="#zoomPlus" x="17" y="9" onmousedown="handleZoom(evt,'in')"/>
                <use id="zoomminus" xlink:href="#zoomMin" x="42" y="9" onmousedown="handleZoom(evt,'out')"/>
                <use id="reset" xlink:href="#resetDef" x="30" y="36" onmousedown="handleReset()"/>
                <g id="arrowUp" xlink:href="#dirArrow" transform="translate(30 24)" onmousedown="handlePan(0,-1)">
                  <use xlink:href="#rim" fill="#404040">
                        <set attributeName="fill" to="#808080" begin="arrowUp.mouseover" end="arrowUp.mouseout"/>
                  </use>
                  <path fill="none" stroke="white" stroke-width="1.5" d="M0,-3.0v7 M-2.5,-0.5L0,-3.0L2.5,-0.5"/>
                </g>
                <g id="arrowRight" xlink:href="#dirArrow" transform="rotate(90) translate(36 -43)" onmousedown="handlePan(1,0)">
                  <use xlink:href="#rim" fill="#404040">
                        <set attributeName="fill" to="#808080" begin="arrowRight.mouseover" end="arrowRight.mouseout"/>
                  </use>
                  <path fill="none" stroke="white" stroke-width="1.5" d="M0,-3.0v7 M-2.5,-0.5L0,-3.0L2.5,-0.5"/>
                </g>
                <g id="arrowDown" xlink:href="#dirArrow" transform="rotate(180) translate(-30 -48)" onmousedown="handlePan(0,1)">
                  <use xlink:href="#rim" fill="#404040">
                        <set attributeName="fill" to="#808080" begin="arrowDown.mouseover" end="arrowDown.mouseout"/>
                  </use>
                  <path fill="none" stroke="white" stroke-width="1.5" d="M0,-3.0v7 M-2.5,-0.5L0,-3.0L2.5,-0.5"/>
                </g>
                <g id="arrowLeft" xlink:href="#dirArrow" transform="rotate(270) translate(-36 17)" onmousedown="handlePan(-1,0)">
                  <use xlink:href="#rim" fill="#404040">
                        <set attributeName="fill" to="#808080" begin="arrowLeft.mouseover" end="arrowLeft.mouseout"/>
                  </use>
                  <path fill="none" stroke="white" stroke-width="1.5" d="M0,-3.0v7 M-2.5,-0.5L0,-3.0L2.5,-0.5"/>
                </g>
        </g>
        <svg viewBox="0 0 15 15" width="100%" height="30px" preserveAspectRatio="xMaxYMin meet">
         <g id="arrow_out" transform="scale(0.3 0.3)">
          <a xlink:href="classtomoBay_1_1model_1_1sql_1_1queries_1_1concreteQueries_1_1update_1_1UpdateEbayBuyer_af9020b85517904668d036bc2bf89433c_cgraph_org.svg" target="_base">
           <rect id="button" ry="5" rx="5" y="6" x="6" height="38" width="38"
                fill="#f2f5e9" fill-opacity="0.5" stroke="#606060" stroke-width="1.0"/>
           <path id="arrow"
             d="M 11.500037,31.436501 C 11.940474,20.09759 22.043105,11.32322 32.158766,21.979434 L 37.068811,17.246167 C 37.068811,17.246167 37.088388,32 37.088388,32 L 22.160133,31.978069 C 22.160133,31.978069 26.997745,27.140456 26.997745,27.140456 C 18.528582,18.264221 13.291696,25.230495 11.500037,31.436501 z"
             style="fill:#404040;"/>
          </a>
         </g>
        </svg>
</svg>
