<?xml version="1.0" encoding="UTF-8" standalone="no"?>
<!DOCTYPE svg PUBLIC "-//W3C//DTD SVG 1.1//EN"
 "http://www.w3.org/Graphics/SVG/1.1/DTD/svg11.dtd">
<!-- Generated by graphviz version 2.38.0 (20140413.2041)
 -->
<!-- Title: tomoBay.model.sql.queries.concreteQueries.SelectEbayItemsNotInTransactions.execute Pages: 1 -->
<svg width="730pt" height="171pt"
 viewBox="0.00 0.00 730.00 171.00" xmlns="http://www.w3.org/2000/svg" xmlns:xlink="http://www.w3.org/1999/xlink">
<g id="graph0" class="graph" transform="scale(1 1) rotate(0) translate(4 167)">
<title>tomoBay.model.sql.queries.concreteQueries.SelectEbayItemsNotInTransactions.execute</title>
<!-- Node1 -->
<g id="node1" class="node"><title>Node1</title>
<polygon fill="#bfbfbf" stroke="black" points="0,-78.5 0,-108.5 246,-108.5 246,-78.5 0,-78.5"/>
<text text-anchor="start" x="8" y="-96.5" font-family="Helvetica,sans-Serif" font-size="10.00">tomoBay.model.sql.queries.concrete</text>
<text text-anchor="middle" x="123" y="-85.5" font-family="Helvetica,sans-Serif" font-size="10.00">Queries.SelectEbayItemsNotInTransactions.execute</text>
</g>
<!-- Node2 -->
<g id="node2" class="node"><title>Node2</title>
<g id="a_node2"><a xlink:href="classtomoBay_1_1model_1_1sql_1_1queries_1_1concreteQueries_1_1SelectEbayItemsNotInTransactions.html#a444cea737b87faed5d2b2927a97382d8" target="_top" xlink:title="tomoBay.model.sql.queries.concrete\lQueries.SelectEbayItemsNotInTransactions.cleanup">
<polygon fill="none" stroke="black" points="285,-132.5 285,-162.5 530,-162.5 530,-132.5 285,-132.5"/>
<text text-anchor="start" x="293" y="-150.5" font-family="Helvetica,sans-Serif" font-size="10.00">tomoBay.model.sql.queries.concrete</text>
<text text-anchor="middle" x="407.5" y="-139.5" font-family="Helvetica,sans-Serif" font-size="10.00">Queries.SelectEbayItemsNotInTransactions.cleanup</text>
</a>
</g>
</g>
<!-- Node1&#45;&gt;Node2 -->
<g id="edge1" class="edge"><title>Node1&#45;&gt;Node2</title>
<path fill="none" stroke="midnightblue" d="M202.692,-108.542C238.358,-115.36 280.693,-123.452 317.512,-130.49"/>
<polygon fill="midnightblue" stroke="midnightblue" points="317.261,-134.005 327.741,-132.445 318.576,-127.13 317.261,-134.005"/>
</g>
<!-- Node3 -->
<g id="node3" class="node"><title>Node3</title>
<g id="a_node3"><a xlink:href="classtomoBay_1_1model_1_1sql_1_1queries_1_1concreteQueries_1_1SelectEbayItemsNotInTransactions.html#a65ee2aed2af69a5ceb5f33a8e5b4b8e1" target="_top" xlink:title="tomoBay.model.sql.queries.concrete\lQueries.SelectEbayItemsNotInTransactions.format\lResults">
<polygon fill="none" stroke="black" points="288,-73 288,-114 527,-114 527,-73 288,-73"/>
<text text-anchor="start" x="296" y="-102" font-family="Helvetica,sans-Serif" font-size="10.00">tomoBay.model.sql.queries.concrete</text>
<text text-anchor="start" x="296" y="-91" font-family="Helvetica,sans-Serif" font-size="10.00">Queries.SelectEbayItemsNotInTransactions.format</text>
<text text-anchor="middle" x="407.5" y="-80" font-family="Helvetica,sans-Serif" font-size="10.00">Results</text>
</a>
</g>
</g>
<!-- Node1&#45;&gt;Node3 -->
<g id="edge2" class="edge"><title>Node1&#45;&gt;Node3</title>
<path fill="none" stroke="midnightblue" d="M246.266,-93.5C256.555,-93.5 266.981,-93.5 277.32,-93.5"/>
<polygon fill="midnightblue" stroke="midnightblue" points="277.622,-97.0001 287.622,-93.5 277.622,-90.0001 277.622,-97.0001"/>
</g>
<!-- Node4 -->
<g id="node4" class="node"><title>Node4</title>
<g id="a_node4"><a xlink:href="classtomoBay_1_1model_1_1sql_1_1queries_1_1concreteQueries_1_1SelectEbayItemsNotInTransactions.html#a4eb6b659c84e9db8254a98bd08a1d0c0" target="_top" xlink:title="tomoBay.model.sql.queries.concrete\lQueries.SelectEbayItemsNotInTransactions.initQuery">
<polygon fill="none" stroke="black" points="282,-24.5 282,-54.5 533,-54.5 533,-24.5 282,-24.5"/>
<text text-anchor="start" x="290" y="-42.5" font-family="Helvetica,sans-Serif" font-size="10.00">tomoBay.model.sql.queries.concrete</text>
<text text-anchor="middle" x="407.5" y="-31.5" font-family="Helvetica,sans-Serif" font-size="10.00">Queries.SelectEbayItemsNotInTransactions.initQuery</text>
</a>
</g>
</g>
<!-- Node1&#45;&gt;Node4 -->
<g id="edge3" class="edge"><title>Node1&#45;&gt;Node4</title>
<path fill="none" stroke="midnightblue" d="M202.692,-78.458C238.358,-71.6404 280.693,-63.5481 317.512,-56.5101"/>
<polygon fill="midnightblue" stroke="midnightblue" points="318.576,-59.8703 327.741,-54.5549 317.261,-52.9947 318.576,-59.8703"/>
</g>
<!-- Node5 -->
<g id="node5" class="node"><title>Node5</title>
<g id="a_node5"><a xlink:href="classtomoBay_1_1model_1_1sql_1_1ConnectionManager.html#a258fdcb8481c013b1864d6835e5dfaa2" target="_top" xlink:title="tomoBay.model.sql.Connection\lManager.instance">
<polygon fill="none" stroke="black" points="569,-49.5 569,-79.5 722,-79.5 722,-49.5 569,-49.5"/>
<text text-anchor="start" x="577" y="-67.5" font-family="Helvetica,sans-Serif" font-size="10.00">tomoBay.model.sql.Connection</text>
<text text-anchor="middle" x="645.5" y="-56.5" font-family="Helvetica,sans-Serif" font-size="10.00">Manager.instance</text>
</a>
</g>
</g>
<!-- Node4&#45;&gt;Node5 -->
<g id="edge4" class="edge"><title>Node4&#45;&gt;Node5</title>
<path fill="none" stroke="midnightblue" d="M533.065,-52.6955C541.731,-53.6134 550.349,-54.5263 558.732,-55.4144"/>
<polygon fill="midnightblue" stroke="midnightblue" points="558.515,-58.9109 568.828,-56.4839 559.252,-51.9498 558.515,-58.9109"/>
</g>
<!-- Node6 -->
<g id="node6" class="node"><title>Node6</title>
<g id="a_node6"><a xlink:href="classtomoBay_1_1model_1_1sql_1_1ConnectionManager.html#ae409bc78f5d56de5a3da5dc34b992912" target="_top" xlink:title="tomoBay.model.sql.Connection\lManager.getConnection">
<polygon fill="none" stroke="black" points="569,-0.5 569,-30.5 722,-30.5 722,-0.5 569,-0.5"/>
<text text-anchor="start" x="577" y="-18.5" font-family="Helvetica,sans-Serif" font-size="10.00">tomoBay.model.sql.Connection</text>
<text text-anchor="middle" x="645.5" y="-7.5" font-family="Helvetica,sans-Serif" font-size="10.00">Manager.getConnection</text>
</a>
</g>
</g>
<!-- Node4&#45;&gt;Node6 -->
<g id="edge5" class="edge"><title>Node4&#45;&gt;Node6</title>
<path fill="none" stroke="midnightblue" d="M533.065,-26.8323C541.731,-25.9511 550.349,-25.0747 558.732,-24.2222"/>
<polygon fill="midnightblue" stroke="midnightblue" points="559.233,-27.6894 568.828,-23.1955 558.525,-20.7253 559.233,-27.6894"/>
</g>
</g>
</svg>
