<?xml version="1.0" encoding="UTF-8" standalone="no"?>
<!DOCTYPE svg PUBLIC "-//W3C//DTD SVG 1.1//EN"
 "http://www.w3.org/Graphics/SVG/1.1/DTD/svg11.dtd">
<!-- Generated by graphviz version 2.38.0 (20140413.2041)
 -->
<!-- Title: tomoBay.model.sql.queries.concreteQueries.ClearPartsPSA Pages: 1 -->
<svg width="349pt" height="226pt"
 viewBox="0.00 0.00 349.50 226.00" xmlns="http://www.w3.org/2000/svg" xmlns:xlink="http://www.w3.org/1999/xlink">
<g id="graph0" class="graph" transform="scale(1 1) rotate(0) translate(4 222)">
<title>tomoBay.model.sql.queries.concreteQueries.ClearPartsPSA</title>
<!-- Node1 -->
<g id="node1" class="node"><title>Node1</title>
<polygon fill="#bfbfbf" stroke="black" points="101,-0.5 101,-101.5 277,-101.5 277,-0.5 101,-0.5"/>
<text text-anchor="start" x="109" y="-89.5" font-family="Helvetica,sans-Serif" font-size="10.00">tomoBay.model.sql.queries.concrete</text>
<text text-anchor="middle" x="189" y="-78.5" font-family="Helvetica,sans-Serif" font-size="10.00">Queries.ClearPartsPSA</text>
<polyline fill="none" stroke="black" points="101,-71.5 277,-71.5 "/>
<text text-anchor="start" x="109" y="-59.5" font-family="Helvetica,sans-Serif" font-size="10.00">&#45; query</text>
<polyline fill="none" stroke="black" points="101,-52.5 277,-52.5 "/>
<text text-anchor="start" x="109" y="-40.5" font-family="Helvetica,sans-Serif" font-size="10.00">+ ClearPartsPSA()</text>
<text text-anchor="start" x="109" y="-29.5" font-family="Helvetica,sans-Serif" font-size="10.00">+ execute()</text>
<text text-anchor="start" x="109" y="-18.5" font-family="Helvetica,sans-Serif" font-size="10.00">&#45; initQuery()</text>
<text text-anchor="start" x="109" y="-7.5" font-family="Helvetica,sans-Serif" font-size="10.00">&#45; cleanup()</text>
</g>
<!-- Node2 -->
<g id="node2" class="node"><title>Node2</title>
<g id="a_node2"><a xlink:href="interfacetomoBay_1_1model_1_1sql_1_1queries_1_1AbstractDBQuery.html" target="_top" xlink:title="{tomoBay.model.sql.queries.\lAbstractDBQuery\n||+ execute()\l}">
<polygon fill="none" stroke="black" points="0,-149.5 0,-217.5 138,-217.5 138,-149.5 0,-149.5"/>
<text text-anchor="start" x="8" y="-205.5" font-family="Helvetica,sans-Serif" font-size="10.00">tomoBay.model.sql.queries.</text>
<text text-anchor="middle" x="69" y="-194.5" font-family="Helvetica,sans-Serif" font-size="10.00">AbstractDBQuery</text>
<polyline fill="none" stroke="black" points="0,-187.5 138,-187.5 "/>
<text text-anchor="middle" x="69" y="-175.5" font-family="Helvetica,sans-Serif" font-size="10.00"> </text>
<polyline fill="none" stroke="black" points="0,-168.5 138,-168.5 "/>
<text text-anchor="start" x="8" y="-156.5" font-family="Helvetica,sans-Serif" font-size="10.00">+ execute()</text>
</a>
</g>
</g>
<!-- Node2&#45;&gt;Node1 -->
<g id="edge1" class="edge"><title>Node2&#45;&gt;Node1</title>
<path fill="none" stroke="midnightblue" d="M106.599,-141.611C118.152,-129.047 130.999,-115.076 143.046,-101.975"/>
<polygon fill="none" stroke="midnightblue" points="103.784,-139.502 99.5916,-149.232 108.937,-144.24 103.784,-139.502"/>
</g>
<!-- Node3 -->
<g id="node3" class="node"><title>Node3</title>
<polygon fill="none" stroke="#bfbfbf" points="156,-155 156,-212 222,-212 222,-155 156,-155"/>
<text text-anchor="middle" x="189" y="-200" font-family="Helvetica,sans-Serif" font-size="10.00">Connection</text>
<polyline fill="none" stroke="#bfbfbf" points="156,-193 222,-193 "/>
<text text-anchor="middle" x="189" y="-181" font-family="Helvetica,sans-Serif" font-size="10.00"> </text>
<polyline fill="none" stroke="#bfbfbf" points="156,-174 222,-174 "/>
<text text-anchor="middle" x="189" y="-162" font-family="Helvetica,sans-Serif" font-size="10.00"> </text>
</g>
<!-- Node3&#45;&gt;Node1 -->
<g id="edge2" class="edge"><title>Node3&#45;&gt;Node1</title>
<path fill="none" stroke="#404040" d="M189,-154.824C189,-142.725 189,-128.01 189,-113.54"/>
<polygon fill="none" stroke="#404040" points="189,-113.505 185,-107.505 189,-101.505 193,-107.505 189,-113.505"/>
<text text-anchor="middle" x="222.5" y="-123" font-family="Helvetica,sans-Serif" font-size="10.00"> &#45;connection_M</text>
</g>
<!-- Node4 -->
<g id="node4" class="node"><title>Node4</title>
<polygon fill="none" stroke="#bfbfbf" points="240.5,-155 240.5,-212 341.5,-212 341.5,-155 240.5,-155"/>
<text text-anchor="middle" x="291" y="-200" font-family="Helvetica,sans-Serif" font-size="10.00">PreparedStatement</text>
<polyline fill="none" stroke="#bfbfbf" points="240.5,-193 341.5,-193 "/>
<text text-anchor="middle" x="291" y="-181" font-family="Helvetica,sans-Serif" font-size="10.00"> </text>
<polyline fill="none" stroke="#bfbfbf" points="240.5,-174 341.5,-174 "/>
<text text-anchor="middle" x="291" y="-162" font-family="Helvetica,sans-Serif" font-size="10.00"> </text>
</g>
<!-- Node4&#45;&gt;Node1 -->
<g id="edge3" class="edge"><title>Node4&#45;&gt;Node1</title>
<path fill="none" stroke="#404040" d="M279.807,-154.867C274.598,-143.549 267.818,-130.639 260,-120 257.797,-117.002 255.455,-114.022 253.012,-111.078"/>
<polygon fill="none" stroke="#404040" points="252.819,-110.856 245.858,-108.971 244.921,-101.822 251.881,-103.706 252.819,-110.856"/>
<text text-anchor="middle" x="299" y="-123" font-family="Helvetica,sans-Serif" font-size="10.00"> &#45;statement_M</text>
</g>
</g>
</svg>
