<?xml version="1.0" encoding="UTF-8" standalone="no"?>
<!DOCTYPE svg PUBLIC "-//W3C//DTD SVG 1.1//EN"
 "http://www.w3.org/Graphics/SVG/1.1/DTD/svg11.dtd">
<!-- Generated by graphviz version 2.38.0 (20140413.2041)
 -->
<!-- Title: tomoBay.view.HttpServer.setUpDataServletHandler Pages: 1 -->
<svg width="486pt" height="39pt"
 viewBox="0.00 0.00 486.00 39.00" xmlns="http://www.w3.org/2000/svg" xmlns:xlink="http://www.w3.org/1999/xlink">
<g id="graph0" class="graph" transform="scale(1 1) rotate(0) translate(4 35)">
<title>tomoBay.view.HttpServer.setUpDataServletHandler</title>
<!-- Node1 -->
<g id="node1" class="node"><title>Node1</title>
<polygon fill="#bfbfbf" stroke="black" points="0,-0.5 0,-30.5 146,-30.5 146,-0.5 0,-0.5"/>
<text text-anchor="start" x="8" y="-18.5" font-family="Helvetica,sans-Serif" font-size="10.00">tomoBay.view.HttpServer.set</text>
<text text-anchor="middle" x="73" y="-7.5" font-family="Helvetica,sans-Serif" font-size="10.00">UpDataServletHandler</text>
</g>
<!-- Node2 -->
<g id="node2" class="node"><title>Node2</title>
<g id="a_node2"><a xlink:href="classtomoBay_1_1view_1_1HttpServer.html#abe14957a1f60dc21aaeb052313f00fd2" target="_top" xlink:title="tomoBay.view.HttpServer.start">
<polygon fill="none" stroke="black" points="182,-6 182,-25 334,-25 334,-6 182,-6"/>
<text text-anchor="middle" x="258" y="-13" font-family="Helvetica,sans-Serif" font-size="10.00">tomoBay.view.HttpServer.start</text>
</a>
</g>
</g>
<!-- Node1&#45;&gt;Node2 -->
<g id="edge1" class="edge"><title>Node1&#45;&gt;Node2</title>
<path fill="none" stroke="midnightblue" d="M156.111,-15.5C164.729,-15.5 173.46,-15.5 181.992,-15.5"/>
<polygon fill="midnightblue" stroke="midnightblue" points="156.064,-12.0001 146.064,-15.5 156.064,-19.0001 156.064,-12.0001"/>
</g>
<!-- Node3 -->
<g id="node3" class="node"><title>Node3</title>
<g id="a_node3"><a xlink:href="classtomoBay_1_1MAIN.html#ae92ad84aecd4374ba22c970b8bef9340" target="_top" xlink:title="tomoBay.MAIN.main">
<polygon fill="none" stroke="black" points="370,-6 370,-25 478,-25 478,-6 370,-6"/>
<text text-anchor="middle" x="424" y="-13" font-family="Helvetica,sans-Serif" font-size="10.00">tomoBay.MAIN.main</text>
</a>
</g>
</g>
<!-- Node2&#45;&gt;Node3 -->
<g id="edge2" class="edge"><title>Node2&#45;&gt;Node3</title>
<path fill="none" stroke="midnightblue" d="M344.392,-15.5C353.005,-15.5 361.568,-15.5 369.701,-15.5"/>
<polygon fill="midnightblue" stroke="midnightblue" points="344.28,-12.0001 334.28,-15.5 344.28,-19.0001 344.28,-12.0001"/>
</g>
</g>
</svg>
