<?xml version="1.0" encoding="UTF-8" standalone="no"?>
<!DOCTYPE svg PUBLIC "-//W3C//DTD SVG 1.1//EN"
 "http://www.w3.org/Graphics/SVG/1.1/DTD/svg11.dtd">
<!-- Generated by graphviz version 2.38.0 (20140413.2041)
 -->
<!-- Title: requestLastCost Pages: 1 -->
<svg width="522pt" height="104pt"
 viewBox="0.00 0.00 522.00 104.00" xmlns="http://www.w3.org/2000/svg" xmlns:xlink="http://www.w3.org/1999/xlink">
<g id="graph0" class="graph" transform="scale(1 1) rotate(0) translate(4 100)">
<title>requestLastCost</title>
<polygon fill="white" stroke="none" points="-4,4 -4,-100 518,-100 518,4 -4,4"/>
<!-- Node1 -->
<g id="node1" class="node"><title>Node1</title>
<polygon fill="#bfbfbf" stroke="black" points="0,-38.5 0,-57.5 89,-57.5 89,-38.5 0,-38.5"/>
<text text-anchor="middle" x="44.5" y="-45.5" font-family="Helvetica,sans-Serif" font-size="10.00">requestLastCost</text>
</g>
<!-- Node2 -->
<g id="node2" class="node"><title>Node2</title>
<g id="a_node2"><a xlink:href="classtomoBay_1_1helpers_1_1XMLParser.html#a9936151017dd4e908cf37d453b22c8ef" target="_top" xlink:title="parses an XML formatted string looking for the first tag specified in the parameters. ">
<polygon fill="white" stroke="black" points="125,-76.5 125,-95.5 294,-95.5 294,-76.5 125,-76.5"/>
<text text-anchor="middle" x="209.5" y="-83.5" font-family="Helvetica,sans-Serif" font-size="10.00">tomoBay.helpers.XMLParser.parse</text>
</a>
</g>
</g>
<!-- Node1&#45;&gt;Node2 -->
<g id="edge1" class="edge"><title>Node1&#45;&gt;Node2</title>
<path fill="none" stroke="midnightblue" d="M85.1091,-57.5558C97.8401,-60.6032 112.009,-63.9698 125,-67 135.094,-69.3546 145.883,-71.8359 156.24,-74.2002"/>
<polygon fill="midnightblue" stroke="midnightblue" points="155.473,-77.6151 166.001,-76.4233 157.028,-70.7899 155.473,-77.6151"/>
</g>
<!-- Node3 -->
<g id="node3" class="node"><title>Node3</title>
<g id="a_node3"><a xlink:href="classtomoBay_1_1model_1_1winstock_1_1Stock.html#a42fa652d82ed49749a0ad929a6c798d0" target="_top" xlink:title="remove the header bumpf from the bottom of the response ">
<polygon fill="white" stroke="black" points="153.5,-38.5 153.5,-57.5 265.5,-57.5 265.5,-38.5 153.5,-38.5"/>
<text text-anchor="middle" x="209.5" y="-45.5" font-family="Helvetica,sans-Serif" font-size="10.00">postFormatXMLString</text>
</a>
</g>
</g>
<!-- Node1&#45;&gt;Node3 -->
<g id="edge2" class="edge"><title>Node1&#45;&gt;Node3</title>
<path fill="none" stroke="midnightblue" d="M89.181,-48C105.734,-48 124.96,-48 143.082,-48"/>
<polygon fill="midnightblue" stroke="midnightblue" points="143.303,-51.5001 153.303,-48 143.303,-44.5001 143.303,-51.5001"/>
</g>
<!-- Node5 -->
<g id="node5" class="node"><title>Node5</title>
<g id="a_node5"><a xlink:href="classtomoBay_1_1model_1_1winstock_1_1Stock.html#a82b5421e7d3a2ba82bdc5d54b09a8069" target="_top" xlink:title="queryWinstockURL">
<polygon fill="white" stroke="black" points="158.5,-0.5 158.5,-19.5 260.5,-19.5 260.5,-0.5 158.5,-0.5"/>
<text text-anchor="middle" x="209.5" y="-7.5" font-family="Helvetica,sans-Serif" font-size="10.00">queryWinstockURL</text>
</a>
</g>
</g>
<!-- Node1&#45;&gt;Node5 -->
<g id="edge4" class="edge"><title>Node1&#45;&gt;Node5</title>
<path fill="none" stroke="midnightblue" d="M85.1091,-38.4442C97.8401,-35.3968 112.009,-32.0302 125,-29 135.094,-26.6454 145.883,-24.1641 156.24,-21.7998"/>
<polygon fill="midnightblue" stroke="midnightblue" points="157.028,-25.2101 166.001,-19.5767 155.473,-18.3849 157.028,-25.2101"/>
</g>
<!-- Node4 -->
<g id="node4" class="node"><title>Node4</title>
<g id="a_node4"><a xlink:href="classtomoBay_1_1model_1_1net_1_1HttpResponse.html#afb798c825935128953439404fb763997" target="_top" xlink:title="get the Response message ">
<polygon fill="white" stroke="black" points="330,-33 330,-63 514,-63 514,-33 330,-33"/>
<text text-anchor="start" x="338" y="-51" font-family="Helvetica,sans-Serif" font-size="10.00">tomoBay.model.net.HttpResponse.get</text>
<text text-anchor="middle" x="422" y="-40" font-family="Helvetica,sans-Serif" font-size="10.00">ResponseMessage</text>
</a>
</g>
</g>
<!-- Node3&#45;&gt;Node4 -->
<g id="edge3" class="edge"><title>Node3&#45;&gt;Node4</title>
<path fill="none" stroke="midnightblue" d="M265.531,-48C282.156,-48 300.964,-48 319.61,-48"/>
<polygon fill="midnightblue" stroke="midnightblue" points="319.634,-51.5001 329.634,-48 319.634,-44.5001 319.634,-51.5001"/>
</g>
</g>
</svg>
