<?xml version="1.0" encoding="UTF-8" standalone="no"?>
<!DOCTYPE svg PUBLIC "-//W3C//DTD SVG 1.1//EN"
 "http://www.w3.org/Graphics/SVG/1.1/DTD/svg11.dtd">
<!-- Generated by graphviz version 2.38.0 (20140413.2041)
 -->
<!-- Title: tomoBay.presenters.root.RootPresenter.present Pages: 1 -->
<svg width="332pt" height="88pt"
 viewBox="0.00 0.00 332.00 88.00" xmlns="http://www.w3.org/2000/svg" xmlns:xlink="http://www.w3.org/1999/xlink">
<g id="graph0" class="graph" transform="scale(1 1) rotate(0) translate(4 84)">
<title>tomoBay.presenters.root.RootPresenter.present</title>
<!-- Node1 -->
<g id="node1" class="node"><title>Node1</title>
<polygon fill="#bfbfbf" stroke="black" points="0,-24.5 0,-54.5 127,-54.5 127,-24.5 0,-24.5"/>
<text text-anchor="start" x="8" y="-42.5" font-family="Helvetica,sans-Serif" font-size="10.00">tomoBay.presenters.root.</text>
<text text-anchor="middle" x="63.5" y="-31.5" font-family="Helvetica,sans-Serif" font-size="10.00">RootPresenter.present</text>
</g>
<!-- Node2 -->
<g id="node2" class="node"><title>Node2</title>
<g id="a_node2"><a xlink:href="classtomoBay_1_1model_1_1services_1_1ServiceFactory.html#ae1c7ac9e53419d5eb1adca6fb8025e48" target="_top" xlink:title="tomoBay.model.services.Service\lFactory.make">
<polygon fill="none" stroke="black" points="163,-49.5 163,-79.5 324,-79.5 324,-49.5 163,-49.5"/>
<text text-anchor="start" x="171" y="-67.5" font-family="Helvetica,sans-Serif" font-size="10.00">tomoBay.model.services.Service</text>
<text text-anchor="middle" x="243.5" y="-56.5" font-family="Helvetica,sans-Serif" font-size="10.00">Factory.make</text>
</a>
</g>
</g>
<!-- Node1&#45;&gt;Node2 -->
<g id="edge1" class="edge"><title>Node1&#45;&gt;Node2</title>
<path fill="none" stroke="midnightblue" d="M127.006,-48.2789C135.449,-49.4647 144.241,-50.6996 153.04,-51.9354"/>
<polygon fill="midnightblue" stroke="midnightblue" points="152.569,-55.4035 162.958,-53.3284 153.542,-48.4715 152.569,-55.4035"/>
</g>
<!-- Node3 -->
<g id="node3" class="node"><title>Node3</title>
<g id="a_node3"><a xlink:href="classtomoBay_1_1model_1_1services_1_1TriggerService.html#a24fc429772830d606f7fec4caefad90f" target="_top" xlink:title="tomoBay.model.services.Trigger\lService.start">
<polygon fill="none" stroke="black" points="164.5,-0.5 164.5,-30.5 322.5,-30.5 322.5,-0.5 164.5,-0.5"/>
<text text-anchor="start" x="172.5" y="-18.5" font-family="Helvetica,sans-Serif" font-size="10.00">tomoBay.model.services.Trigger</text>
<text text-anchor="middle" x="243.5" y="-7.5" font-family="Helvetica,sans-Serif" font-size="10.00">Service.start</text>
</a>
</g>
</g>
<!-- Node1&#45;&gt;Node3 -->
<g id="edge2" class="edge"><title>Node1&#45;&gt;Node3</title>
<path fill="none" stroke="midnightblue" d="M127.006,-31.0722C135.834,-29.882 145.044,-28.6401 154.244,-27.3997"/>
<polygon fill="midnightblue" stroke="midnightblue" points="154.761,-30.8617 164.204,-26.0568 153.826,-23.9245 154.761,-30.8617"/>
</g>
</g>
</svg>
