<?xml version="1.0" encoding="UTF-8" standalone="no"?>
<!DOCTYPE svg PUBLIC "-//W3C//DTD SVG 1.1//EN"
 "http://www.w3.org/Graphics/SVG/1.1/DTD/svg11.dtd">
<!-- Generated by graphviz version 2.38.0 (20140413.2041)
 -->
<!-- Title: StandardInvoice Pages: 1 -->
<svg width="160pt" height="408pt"
 viewBox="0.00 0.00 160.00 408.00" xmlns="http://www.w3.org/2000/svg" xmlns:xlink="http://www.w3.org/1999/xlink">
<g id="graph0" class="graph" transform="scale(1 1) rotate(0) translate(4 404)">
<title>StandardInvoice</title>
<polygon fill="white" stroke="none" points="-4,4 -4,-404 156,-404 156,4 -4,4"/>
<!-- Node1 -->
<g id="node1" class="node"><title>Node1</title>
<polygon fill="#bfbfbf" stroke="black" points="20.5,-0.5 20.5,-68.5 131.5,-68.5 131.5,-0.5 20.5,-0.5"/>
<text text-anchor="middle" x="76" y="-56.5" font-family="Helvetica,sans-Serif" font-size="10.00">StandardInvoice</text>
<polyline fill="none" stroke="black" points="20.5,-49.5 131.5,-49.5 "/>
<text text-anchor="middle" x="76" y="-37.5" font-family="Helvetica,sans-Serif" font-size="10.00"> </text>
<polyline fill="none" stroke="black" points="20.5,-30.5 131.5,-30.5 "/>
<text text-anchor="start" x="28.5" y="-18.5" font-family="Helvetica,sans-Serif" font-size="10.00">+ StandardInvoice()</text>
<text text-anchor="start" x="28.5" y="-7.5" font-family="Helvetica,sans-Serif" font-size="10.00"># generateLineItems()</text>
</g>
<!-- Node2 -->
<g id="node2" class="node"><title>Node2</title>
<g id="a_node2"><a xlink:href="classtomoBay_1_1model_1_1dataTypes_1_1financial_1_1SalesOrderDayBook_1_1AbstractSalesDayBookLine.html" target="_top" xlink:title="This class represents an Abstract sales day book entry, i.e. ">
<polygon fill="white" stroke="black" points="0,-105.5 0,-305.5 152,-305.5 152,-105.5 0,-105.5"/>
<text text-anchor="middle" x="76" y="-293.5" font-family="Helvetica,sans-Serif" font-size="10.00">AbstractSalesDayBookLine</text>
<polyline fill="none" stroke="black" points="0,-286.5 152,-286.5 "/>
<text text-anchor="start" x="8" y="-274.5" font-family="Helvetica,sans-Serif" font-size="10.00">&#45; order_M</text>
<text text-anchor="start" x="8" y="-263.5" font-family="Helvetica,sans-Serif" font-size="10.00">&#45; lineItems_M</text>
<text text-anchor="start" x="8" y="-252.5" font-family="Helvetica,sans-Serif" font-size="10.00">&#45; createdTime_M</text>
<polyline fill="none" stroke="black" points="0,-245.5 152,-245.5 "/>
<text text-anchor="start" x="8" y="-233.5" font-family="Helvetica,sans-Serif" font-size="10.00">+ AbstractSalesDayBookLine()</text>
<text text-anchor="start" x="8" y="-222.5" font-family="Helvetica,sans-Serif" font-size="10.00">+ getLineItem()</text>
<text text-anchor="start" x="8" y="-211.5" font-family="Helvetica,sans-Serif" font-size="10.00">+ size()</text>
<text text-anchor="start" x="8" y="-200.5" font-family="Helvetica,sans-Serif" font-size="10.00">+ orderInfo()</text>
<text text-anchor="start" x="8" y="-189.5" font-family="Helvetica,sans-Serif" font-size="10.00">+ createdDate()</text>
<text text-anchor="start" x="8" y="-178.5" font-family="Helvetica,sans-Serif" font-size="10.00">+ totalIncVat()</text>
<text text-anchor="start" x="8" y="-167.5" font-family="Helvetica,sans-Serif" font-size="10.00">+ totalExVat()</text>
<text text-anchor="start" x="8" y="-156.5" font-family="Helvetica,sans-Serif" font-size="10.00">+ invoiceNumber()</text>
<text text-anchor="start" x="8" y="-145.5" font-family="Helvetica,sans-Serif" font-size="10.00">+ format()</text>
<text text-anchor="start" x="8" y="-134.5" font-family="Helvetica,sans-Serif" font-size="10.00">+ iterator()</text>
<text text-anchor="start" x="8" y="-123.5" font-family="Helvetica,sans-Serif" font-size="10.00"># generateLineItems()</text>
<text text-anchor="start" x="8" y="-112.5" font-family="Helvetica,sans-Serif" font-size="10.00">&#45; adjustPrices()</text>
</a>
</g>
</g>
<!-- Node2&#45;&gt;Node1 -->
<g id="edge1" class="edge"><title>Node2&#45;&gt;Node1</title>
<path fill="none" stroke="midnightblue" d="M76,-94.9218C76,-85.5767 76,-76.6815 76,-68.7534"/>
<polygon fill="none" stroke="midnightblue" points="72.5001,-95.2144 76,-105.214 79.5001,-95.2145 72.5001,-95.2144"/>
</g>
<!-- Node3 -->
<g id="node3" class="node"><title>Node3</title>
<polygon fill="white" stroke="#bfbfbf" points="5.5,-342.5 5.5,-399.5 146.5,-399.5 146.5,-342.5 5.5,-342.5"/>
<text text-anchor="middle" x="76" y="-387.5" font-family="Helvetica,sans-Serif" font-size="10.00">Iterable&lt; AbstractLineItem &gt;</text>
<polyline fill="none" stroke="#bfbfbf" points="5.5,-380.5 146.5,-380.5 "/>
<text text-anchor="middle" x="76" y="-368.5" font-family="Helvetica,sans-Serif" font-size="10.00"> </text>
<polyline fill="none" stroke="#bfbfbf" points="5.5,-361.5 146.5,-361.5 "/>
<text text-anchor="middle" x="76" y="-349.5" font-family="Helvetica,sans-Serif" font-size="10.00"> </text>
</g>
<!-- Node3&#45;&gt;Node2 -->
<g id="edge2" class="edge"><title>Node3&#45;&gt;Node2</title>
<path fill="none" stroke="midnightblue" d="M76,-332.04C76,-323.867 76,-314.865 76,-305.549"/>
<polygon fill="none" stroke="midnightblue" points="72.5001,-332.264 76,-342.264 79.5001,-332.264 72.5001,-332.264"/>
</g>
</g>
</svg>
