<?xml version="1.0" encoding="UTF-8" standalone="no"?>
<!DOCTYPE svg PUBLIC "-//W3C//DTD SVG 1.1//EN"
 "http://www.w3.org/Graphics/SVG/1.1/DTD/svg11.dtd">
<!-- Generated by graphviz version 2.38.0 (20140413.2041)
 -->
<!-- Title: tomoBay.model.services.basicEbayUpdate.BasicEbayUpdateService Pages: 1 -->
<svg width="193pt" height="298pt"
 viewBox="0.00 0.00 193.00 298.00" xmlns="http://www.w3.org/2000/svg" xmlns:xlink="http://www.w3.org/1999/xlink">
<g id="graph0" class="graph" transform="scale(1 1) rotate(0) translate(4 294)">
<title>tomoBay.model.services.basicEbayUpdate.BasicEbayUpdateService</title>
<!-- Node1 -->
<g id="node1" class="node"><title>Node1</title>
<polygon fill="#bfbfbf" stroke="black" points="-1.42109e-14,-0.5 -1.42109e-14,-79.5 185,-79.5 185,-0.5 -1.42109e-14,-0.5"/>
<text text-anchor="start" x="8" y="-67.5" font-family="Helvetica,sans-Serif" font-size="10.00">tomoBay.model.services.basic</text>
<text text-anchor="middle" x="92.5" y="-56.5" font-family="Helvetica,sans-Serif" font-size="10.00">EbayUpdate.BasicEbayUpdateService</text>
<polyline fill="none" stroke="black" points="-1.42109e-14,-49.5 185,-49.5 "/>
<text text-anchor="middle" x="92.5" y="-37.5" font-family="Helvetica,sans-Serif" font-size="10.00"> </text>
<polyline fill="none" stroke="black" points="-1.42109e-14,-30.5 185,-30.5 "/>
<text text-anchor="start" x="8" y="-18.5" font-family="Helvetica,sans-Serif" font-size="10.00">+ run()</text>
<text text-anchor="start" x="8" y="-7.5" font-family="Helvetica,sans-Serif" font-size="10.00">~ setConfig()</text>
</g>
<!-- Node2 -->
<g id="node2" class="node"><title>Node2</title>
<g id="a_node2"><a xlink:href="interfacetomoBay_1_1model_1_1services_1_1AbstractService.html" target="_top" xlink:title="{tomoBay.model.services.Abstract\lService\n||+ run()\l+ setConfig()\l}">
<polygon fill="none" stroke="black" points="10.5,-116.5 10.5,-195.5 174.5,-195.5 174.5,-116.5 10.5,-116.5"/>
<text text-anchor="start" x="18.5" y="-183.5" font-family="Helvetica,sans-Serif" font-size="10.00">tomoBay.model.services.Abstract</text>
<text text-anchor="middle" x="92.5" y="-172.5" font-family="Helvetica,sans-Serif" font-size="10.00">Service</text>
<polyline fill="none" stroke="black" points="10.5,-165.5 174.5,-165.5 "/>
<text text-anchor="middle" x="92.5" y="-153.5" font-family="Helvetica,sans-Serif" font-size="10.00"> </text>
<polyline fill="none" stroke="black" points="10.5,-146.5 174.5,-146.5 "/>
<text text-anchor="start" x="18.5" y="-134.5" font-family="Helvetica,sans-Serif" font-size="10.00">+ run()</text>
<text text-anchor="start" x="18.5" y="-123.5" font-family="Helvetica,sans-Serif" font-size="10.00">+ setConfig()</text>
</a>
</g>
</g>
<!-- Node2&#45;&gt;Node1 -->
<g id="edge1" class="edge"><title>Node2&#45;&gt;Node1</title>
<path fill="none" stroke="midnightblue" d="M92.5,-106.146C92.5,-97.256 92.5,-88.0961 92.5,-79.5555"/>
<polygon fill="none" stroke="midnightblue" points="89.0001,-106.405 92.5,-116.405 96.0001,-106.405 89.0001,-106.405"/>
</g>
<!-- Node3 -->
<g id="node3" class="node"><title>Node3</title>
<polygon fill="none" stroke="#bfbfbf" points="63.5,-232.5 63.5,-289.5 121.5,-289.5 121.5,-232.5 63.5,-232.5"/>
<text text-anchor="middle" x="92.5" y="-277.5" font-family="Helvetica,sans-Serif" font-size="10.00">Runnable</text>
<polyline fill="none" stroke="#bfbfbf" points="63.5,-270.5 121.5,-270.5 "/>
<text text-anchor="middle" x="92.5" y="-258.5" font-family="Helvetica,sans-Serif" font-size="10.00"> </text>
<polyline fill="none" stroke="#bfbfbf" points="63.5,-251.5 121.5,-251.5 "/>
<text text-anchor="middle" x="92.5" y="-239.5" font-family="Helvetica,sans-Serif" font-size="10.00"> </text>
</g>
<!-- Node3&#45;&gt;Node2 -->
<g id="edge2" class="edge"><title>Node3&#45;&gt;Node2</title>
<path fill="none" stroke="midnightblue" d="M92.5,-222.156C92.5,-213.473 92.5,-204.232 92.5,-195.52"/>
<polygon fill="none" stroke="midnightblue" points="89.0001,-222.398 92.5,-232.398 96.0001,-222.398 89.0001,-222.398"/>
</g>
</g>
</svg>
