<?xml version="1.0" encoding="UTF-8" standalone="no"?>
<!DOCTYPE svg PUBLIC "-//W3C//DTD SVG 1.1//EN"
 "http://www.w3.org/Graphics/SVG/1.1/DTD/svg11.dtd">
<!-- Generated by graphviz version 2.38.0 (20140413.2041)
 -->
<!-- Title: convertListToArray Pages: 1 -->
<!--zoomable 159 -->
<svg id="main" version="1.1" xmlns="http://www.w3.org/2000/svg" xmlns:xlink="http://www.w3.org/1999/xlink" xml:space="preserve" onload="init(evt)">
<style type="text/css"><![CDATA[
.edge:hover path { stroke: red; }
.edge:hover polygon { stroke: red; fill: red; }
]]></style>
<script type="text/javascript"><![CDATA[
var edges = document.getElementsByTagName('g');
if (edges && edges.length) {
  for (var i=0;i<edges.length;i++) {
    if (edges[i].id.substr(0,4)=='edge') {
      edges[i].setAttribute('class','edge');
    }
  }
}
]]></script>
        <defs>
                <circle id="rim" cx="0" cy="0" r="7"/>
                <circle id="rim2" cx="0" cy="0" r="3.5"/>
                <g id="zoomPlus">
                        <use xlink:href="#rim" fill="#404040">
                                <set attributeName="fill" to="#808080" begin="zoomplus.mouseover" end="zoomplus.mouseout"/>
                        </use>
                        <path d="M-4,0h8M0,-4v8" fill="none" stroke="white" stroke-width="1.5" pointer-events="none"/>
                </g>
                <g id="zoomMin">
                        <use xlink:href="#rim" fill="#404040">
                                <set attributeName="fill" to="#808080" begin="zoomminus.mouseover" end="zoomminus.mouseout"/>
                        </use>
                        <path d="M-4,0h8" fill="none" stroke="white" stroke-width="1.5" pointer-events="none"/>
                </g>
                <g id="dirArrow">
                        <path fill="none" stroke="white" stroke-width="1.5" d="M0,-3.0v7 M-2.5,-0.5L0,-3.0L2.5,-0.5"/>
                </g>
               <g id="resetDef">
                       <use xlink:href="#rim2" fill="#404040">
                               <set attributeName="fill" to="#808080" begin="reset.mouseover" end="reset.mouseout"/>
                       </use>
               </g>
        </defs>

<script type="text/javascript">
var viewWidth = 610;
var viewHeight = 159;
var sectionId = 'dynsection-5';
</script>
<script xlink:href="svgpan.js"/>
<svg id="graph" class="graph">
<g id="viewport">
<title>convertListToArray</title>
<polygon fill="white" stroke="none" points="-4,4 -4,-154.5 606,-154.5 606,4 -4,4"/>
<!-- Node1 -->
<g id="node1" class="node"><title>Node1</title>
<polygon fill="#bfbfbf" stroke="black" points="0,-65 0,-84 99,-84 99,-65 0,-65"/>
<text text-anchor="middle" x="49.5" y="-72" font-family="Helvetica,sans-Serif" font-size="10.00">convertListToArray</text>
</g>
<!-- Node2 -->
<g id="node2" class="node"><title>Node2</title>
<g id="a_node2"><a xlink:href="classtomoBay_1_1model_1_1dataTypes_1_1financial_1_1SalesOrderDayBook_1_1AbstractSalesDayBookLine.html#a1b2142782be2899c8c3c19c5b3e05247" target="_top" xlink:title="retrieve a particular AbstractLineItem from the list of items that make up this AbstractSalesDayBookL...">
<polygon fill="white" stroke="black" points="384.5,-109 384.5,-150 595.5,-150 595.5,-109 384.5,-109"/>
<text text-anchor="start" x="392.5" y="-138" font-family="Helvetica,sans-Serif" font-size="10.00">tomoBay.model.dataTypes.financial.</text>
<text text-anchor="start" x="392.5" y="-127" font-family="Helvetica,sans-Serif" font-size="10.00">SalesOrderDayBook.AbstractSalesDayBook</text>
<text text-anchor="middle" x="490" y="-116" font-family="Helvetica,sans-Serif" font-size="10.00">Line.getLineItem</text>
</a>
</g>
</g>
<!-- Node1&#45;&gt;Node2 -->
<g id="edge1" class="edge"><title>Node1&#45;&gt;Node2</title>
<path fill="none" stroke="midnightblue" d="M88.5898,-84.0831C103.049,-87.4519 119.713,-91.0133 135,-93.5 214.473,-106.428 304.786,-115.524 374.298,-121.338"/>
<polygon fill="midnightblue" stroke="midnightblue" points="374.146,-124.838 384.4,-122.172 374.722,-117.861 374.146,-124.838"/>
</g>
<!-- Node3 -->
<g id="node3" class="node"><title>Node3</title>
<g id="a_node3"><a xlink:href="classtomoBay_1_1model_1_1dataTypes_1_1financial_1_1SalesOrderDayBook_1_1PriceAdjustment.html#a25654edd2b19acf24a704a92f4cfbf6e" target="_top" xlink:title="returns the number of AbstractLineItems (minus postage line items) contained within this AbstractSale...">
<polygon fill="white" stroke="black" points="207.5,-65 207.5,-84 269.5,-84 269.5,-65 207.5,-65"/>
<text text-anchor="middle" x="238.5" y="-72" font-family="Helvetica,sans-Serif" font-size="10.00">noOfItems</text>
</a>
</g>
</g>
<!-- Node1&#45;&gt;Node3 -->
<g id="edge2" class="edge"><title>Node1&#45;&gt;Node3</title>
<path fill="none" stroke="midnightblue" d="M99.1439,-74.5C129.6,-74.5 168.378,-74.5 197.127,-74.5"/>
<polygon fill="midnightblue" stroke="midnightblue" points="197.231,-78.0001 207.231,-74.5 197.231,-71.0001 197.231,-78.0001"/>
</g>
<!-- Node5 -->
<g id="node5" class="node"><title>Node5</title>
<g id="a_node5"><a xlink:href="classtomoBay_1_1model_1_1dataTypes_1_1financial_1_1SalesOrderDayBook_1_1AbstractLineItem.html#a906729ff4a7b3a1638da9e1b47e8ada2" target="_top" xlink:title="retrieve the price of the quantity of parts invoiced (EX VAT) ">
<polygon fill="white" stroke="black" points="135,-10.5 135,-40.5 342,-40.5 342,-10.5 135,-10.5"/>
<text text-anchor="start" x="143" y="-28.5" font-family="Helvetica,sans-Serif" font-size="10.00">tomoBay.model.dataTypes.financial.</text>
<text text-anchor="middle" x="238.5" y="-17.5" font-family="Helvetica,sans-Serif" font-size="10.00">SalesOrderDayBook.AbstractLineItem.price</text>
</a>
</g>
</g>
<!-- Node1&#45;&gt;Node5 -->
<g id="edge5" class="edge"><title>Node1&#45;&gt;Node5</title>
<path fill="none" stroke="midnightblue" d="M86.9994,-64.936C110.674,-58.7324 142.233,-50.4629 170.336,-43.099"/>
<polygon fill="midnightblue" stroke="midnightblue" points="171.328,-46.4575 180.114,-40.537 169.553,-39.6861 171.328,-46.4575"/>
</g>
<!-- Node3&#45;&gt;Node2 -->
<g id="edge3" class="edge"><title>Node3&#45;&gt;Node2</title>
<path fill="none" stroke="midnightblue" d="M269.596,-81.1343C298.513,-87.5088 343.891,-97.5121 385.893,-106.771"/>
<polygon fill="midnightblue" stroke="midnightblue" points="385.4,-110.246 395.919,-108.981 386.907,-103.41 385.4,-110.246"/>
</g>
<!-- Node4 -->
<g id="node4" class="node"><title>Node4</title>
<g id="a_node4"><a xlink:href="classtomoBay_1_1model_1_1dataTypes_1_1financial_1_1SalesOrderDayBook_1_1AbstractSalesDayBookLine.html#af4b57d21919c42d55af03391f91a1c08" target="_top" xlink:title="retrieve the number of line items that make up this SalesDayBookLine. ">
<polygon fill="white" stroke="black" points="384.5,-49 384.5,-90 595.5,-90 595.5,-49 384.5,-49"/>
<text text-anchor="start" x="392.5" y="-78" font-family="Helvetica,sans-Serif" font-size="10.00">tomoBay.model.dataTypes.financial.</text>
<text text-anchor="start" x="392.5" y="-67" font-family="Helvetica,sans-Serif" font-size="10.00">SalesOrderDayBook.AbstractSalesDayBook</text>
<text text-anchor="middle" x="490" y="-56" font-family="Helvetica,sans-Serif" font-size="10.00">Line.size</text>
</a>
</g>
</g>
<!-- Node3&#45;&gt;Node4 -->
<g id="edge4" class="edge"><title>Node3&#45;&gt;Node4</title>
<path fill="none" stroke="midnightblue" d="M269.596,-73.8969C295.83,-73.3711 335.612,-72.5739 374.13,-71.802"/>
<polygon fill="midnightblue" stroke="midnightblue" points="374.488,-75.2956 384.416,-71.5959 374.348,-68.297 374.488,-75.2956"/>
</g>
<!-- Node6 -->
<g id="node6" class="node"><title>Node6</title>
<g id="a_node6"><a xlink:href="classtomoBay_1_1model_1_1dataTypes_1_1financial_1_1SalesOrderDayBook_1_1AbstractLineItem.html#a9384ad6463e803ada82c6c35d708939a" target="_top" xlink:title="implementation specific code used to work out the unit price for a specific line item ...">
<polygon fill="white" stroke="black" points="378,-0.5 378,-30.5 602,-30.5 602,-0.5 378,-0.5"/>
<text text-anchor="start" x="386" y="-18.5" font-family="Helvetica,sans-Serif" font-size="10.00">tomoBay.model.dataTypes.financial.</text>
<text text-anchor="middle" x="490" y="-7.5" font-family="Helvetica,sans-Serif" font-size="10.00">SalesOrderDayBook.AbstractLineItem.unitPrice</text>
</a>
</g>
</g>
<!-- Node5&#45;&gt;Node6 -->
<g id="edge6" class="edge"><title>Node5&#45;&gt;Node6</title>
<path fill="none" stroke="midnightblue" d="M342.061,-21.3893C350.562,-21.0486 359.206,-20.7022 367.826,-20.3567"/>
<polygon fill="midnightblue" stroke="midnightblue" points="368.073,-23.8497 377.925,-19.9519 367.793,-16.8553 368.073,-23.8497"/>
</g>
</g>
</svg>
        <g id="navigator" transform="translate(0 0)" fill="#404254">
                <rect fill="#f2f5e9" fill-opacity="0.5" stroke="#606060" stroke-width=".5" x="0" y="0" width="60" height="60"/>
                <use id="zoomplus" xlink:href="#zoomPlus" x="17" y="9" onmousedown="handleZoom(evt,'in')"/>
                <use id="zoomminus" xlink:href="#zoomMin" x="42" y="9" onmousedown="handleZoom(evt,'out')"/>
                <use id="reset" xlink:href="#resetDef" x="30" y="36" onmousedown="handleReset()"/>
                <g id="arrowUp" xlink:href="#dirArrow" transform="translate(30 24)" onmousedown="handlePan(0,-1)">
                  <use xlink:href="#rim" fill="#404040">
                        <set attributeName="fill" to="#808080" begin="arrowUp.mouseover" end="arrowUp.mouseout"/>
                  </use>
                  <path fill="none" stroke="white" stroke-width="1.5" d="M0,-3.0v7 M-2.5,-0.5L0,-3.0L2.5,-0.5"/>
                </g>
                <g id="arrowRight" xlink:href="#dirArrow" transform="rotate(90) translate(36 -43)" onmousedown="handlePan(1,0)">
                  <use xlink:href="#rim" fill="#404040">
                        <set attributeName="fill" to="#808080" begin="arrowRight.mouseover" end="arrowRight.mouseout"/>
                  </use>
                  <path fill="none" stroke="white" stroke-width="1.5" d="M0,-3.0v7 M-2.5,-0.5L0,-3.0L2.5,-0.5"/>
                </g>
                <g id="arrowDown" xlink:href="#dirArrow" transform="rotate(180) translate(-30 -48)" onmousedown="handlePan(0,1)">
                  <use xlink:href="#rim" fill="#404040">
                        <set attributeName="fill" to="#808080" begin="arrowDown.mouseover" end="arrowDown.mouseout"/>
                  </use>
                  <path fill="none" stroke="white" stroke-width="1.5" d="M0,-3.0v7 M-2.5,-0.5L0,-3.0L2.5,-0.5"/>
                </g>
                <g id="arrowLeft" xlink:href="#dirArrow" transform="rotate(270) translate(-36 17)" onmousedown="handlePan(-1,0)">
                  <use xlink:href="#rim" fill="#404040">
                        <set attributeName="fill" to="#808080" begin="arrowLeft.mouseover" end="arrowLeft.mouseout"/>
                  </use>
                  <path fill="none" stroke="white" stroke-width="1.5" d="M0,-3.0v7 M-2.5,-0.5L0,-3.0L2.5,-0.5"/>
                </g>
        </g>
        <svg viewBox="0 0 15 15" width="100%" height="30px" preserveAspectRatio="xMaxYMin meet">
         <g id="arrow_out" transform="scale(0.3 0.3)">
          <a xlink:href="classtomoBay_1_1model_1_1dataTypes_1_1financial_1_1SalesOrderDayBook_1_1PriceAdjustment_afd83b468aec87b8e8c03649edfb3cbbc_cgraph_org.svg" target="_base">
           <rect id="button" ry="5" rx="5" y="6" x="6" height="38" width="38"
                fill="#f2f5e9" fill-opacity="0.5" stroke="#606060" stroke-width="1.0"/>
           <path id="arrow"
             d="M 11.500037,31.436501 C 11.940474,20.09759 22.043105,11.32322 32.158766,21.979434 L 37.068811,17.246167 C 37.068811,17.246167 37.088388,32 37.088388,32 L 22.160133,31.978069 C 22.160133,31.978069 26.997745,27.140456 26.997745,27.140456 C 18.528582,18.264221 13.291696,25.230495 11.500037,31.436501 z"
             style="fill:#404040;"/>
          </a>
         </g>
        </svg>
</svg>
