<?xml version="1.0" encoding="UTF-8" standalone="no"?>
<!DOCTYPE svg PUBLIC "-//W3C//DTD SVG 1.1//EN"
 "http://www.w3.org/Graphics/SVG/1.1/DTD/svg11.dtd">
<!-- Generated by graphviz version 2.38.0 (20140413.2041)
 -->
<!-- Title: setDATEParam Pages: 1 -->
<svg width="806pt" height="121pt"
 viewBox="0.00 0.00 806.00 120.50" xmlns="http://www.w3.org/2000/svg" xmlns:xlink="http://www.w3.org/1999/xlink">
<g id="graph0" class="graph" transform="scale(1 1) rotate(0) translate(4 116.5)">
<title>setDATEParam</title>
<polygon fill="white" stroke="none" points="-4,4 -4,-116.5 802,-116.5 802,4 -4,4"/>
<!-- Node1 -->
<g id="node1" class="node"><title>Node1</title>
<polygon fill="#bfbfbf" stroke="black" points="0,-44 0,-63 86,-63 86,-44 0,-44"/>
<text text-anchor="middle" x="43" y="-51" font-family="Helvetica,sans-Serif" font-size="10.00">setDATEParam</text>
</g>
<!-- Node2 -->
<g id="node2" class="node"><title>Node2</title>
<g id="a_node2"><a xlink:href="classtomoBay_1_1model_1_1dataTypes_1_1heteroTypeContainer_1_1HeteroFieldContainer.html#a988363ab964d6dc0ccb8560bef5895b6" target="_top" xlink:title="retrieve the the value of an AbstractField from this HeteroFieldContainer, the field should be of the...">
<polygon fill="white" stroke="black" points="384,-76.5 384,-106.5 576,-106.5 576,-76.5 384,-76.5"/>
<text text-anchor="start" x="392" y="-94.5" font-family="Helvetica,sans-Serif" font-size="10.00">tomoBay.model.dataTypes.hetero</text>
<text text-anchor="middle" x="480" y="-83.5" font-family="Helvetica,sans-Serif" font-size="10.00">TypeContainer.HeteroFieldContainer.get</text>
</a>
</g>
</g>
<!-- Node1&#45;&gt;Node2 -->
<g id="edge1" class="edge"><title>Node1&#45;&gt;Node2</title>
<path fill="none" stroke="midnightblue" d="M79.9506,-63.0546C93.1157,-66.3421 108.173,-69.857 122,-72.5 181.946,-83.9587 197.115,-87.2676 258,-91.5 295.698,-94.1206 337.1,-94.7247 373.777,-94.4761"/>
<polygon fill="midnightblue" stroke="midnightblue" points="374.021,-97.9742 383.989,-94.3844 373.958,-90.9745 374.021,-97.9742"/>
</g>
<!-- Node4 -->
<g id="node4" class="node"><title>Node4</title>
<g id="a_node4"><a xlink:href="classtomoBay_1_1model_1_1sql_1_1framework_1_1QueryUtility.html#a5677c2440b48e612fb51b57130555e5d" target="_top" xlink:title="set an Integer parameter for the query object specified. ">
<polygon fill="white" stroke="black" points="122,-44 122,-63 222,-63 222,-44 122,-44"/>
<text text-anchor="middle" x="172" y="-51" font-family="Helvetica,sans-Serif" font-size="10.00">setDOUBLEParam</text>
</a>
</g>
</g>
<!-- Node1&#45;&gt;Node4 -->
<g id="edge3" class="edge"><title>Node1&#45;&gt;Node4</title>
<path fill="none" stroke="midnightblue" d="M86.2892,-53.5C94.4835,-53.5 103.21,-53.5 111.83,-53.5"/>
<polygon fill="midnightblue" stroke="midnightblue" points="111.862,-57.0001 121.862,-53.5 111.862,-50.0001 111.862,-57.0001"/>
</g>
<!-- Node5 -->
<g id="node5" class="node"><title>Node5</title>
<g id="a_node5"><a xlink:href="classtomoBay_1_1model_1_1sql_1_1framework_1_1queryTypes_1_1AbstractDBQuery.html#a41678b13e84de4335130f10cea7ae562" target="_top" xlink:title="get the statement object associated with this query ">
<polygon fill="white" stroke="black" points="392,-0.5 392,-30.5 568,-30.5 568,-0.5 392,-0.5"/>
<text text-anchor="start" x="400" y="-18.5" font-family="Helvetica,sans-Serif" font-size="10.00">tomoBay.model.sql.framework.query</text>
<text text-anchor="middle" x="480" y="-7.5" font-family="Helvetica,sans-Serif" font-size="10.00">Types.AbstractDBQuery.statement</text>
</a>
</g>
</g>
<!-- Node1&#45;&gt;Node5 -->
<g id="edge10" class="edge"><title>Node1&#45;&gt;Node5</title>
<path fill="none" stroke="midnightblue" d="M79.1305,-43.9214C92.474,-40.5531 107.862,-36.9909 122,-34.5 208.808,-19.206 309.168,-15.0334 381.329,-14.3498"/>
<polygon fill="midnightblue" stroke="midnightblue" points="381.792,-17.8466 391.766,-14.2734 381.741,-10.8468 381.792,-17.8466"/>
</g>
<!-- Node3 -->
<g id="node3" class="node"><title>Node3</title>
<g id="a_node3"><a xlink:href="classtomoBay_1_1model_1_1dataTypes_1_1heteroTypeContainer_1_1HeteroFieldContainer.html#a9dee3c01eb5ab16203e1c6820a569484" target="_top" xlink:title="performs a type check, assuming that field and type are of the same type then this method returns tru...">
<polygon fill="white" stroke="black" points="612,-71 612,-112 798,-112 798,-71 612,-71"/>
<text text-anchor="start" x="620" y="-100" font-family="Helvetica,sans-Serif" font-size="10.00">tomoBay.model.dataTypes.hetero</text>
<text text-anchor="start" x="620" y="-89" font-family="Helvetica,sans-Serif" font-size="10.00">TypeContainer.HeteroFieldContainer.is</text>
<text text-anchor="middle" x="705" y="-78" font-family="Helvetica,sans-Serif" font-size="10.00">SameType</text>
</a>
</g>
</g>
<!-- Node2&#45;&gt;Node3 -->
<g id="edge2" class="edge"><title>Node2&#45;&gt;Node3</title>
<path fill="none" stroke="midnightblue" d="M576.219,-91.5C584.728,-91.5 593.365,-91.5 601.929,-91.5"/>
<polygon fill="midnightblue" stroke="midnightblue" points="601.934,-95.0001 611.934,-91.5 601.934,-88.0001 601.934,-95.0001"/>
</g>
<!-- Node4&#45;&gt;Node2 -->
<g id="edge6" class="edge"><title>Node4&#45;&gt;Node2</title>
<path fill="none" stroke="midnightblue" d="M210.453,-63.01C225.189,-66.4521 242.308,-70.0828 258,-72.5 295.486,-78.2743 336.84,-82.4179 373.536,-85.3307"/>
<polygon fill="midnightblue" stroke="midnightblue" points="373.516,-88.8395 383.756,-86.12 374.055,-81.8603 373.516,-88.8395"/>
</g>
<!-- Node4&#45;&gt;Node5 -->
<g id="edge4" class="edge"><title>Node4&#45;&gt;Node5</title>
<path fill="none" stroke="midnightblue" d="M210.453,-43.99C225.189,-40.5479 242.308,-36.9172 258,-34.5 298.267,-28.2973 342.996,-23.9764 381.622,-21.0412"/>
<polygon fill="midnightblue" stroke="midnightblue" points="382.109,-24.5149 391.824,-20.2872 381.593,-17.5339 382.109,-24.5149"/>
</g>
<!-- Node7 -->
<g id="node7" class="node"><title>Node7</title>
<g id="a_node7"><a xlink:href="classtomoBay_1_1model_1_1sql_1_1framework_1_1QueryUtility.html#adf8f1fea7b649baadeb0297c41be72f5" target="_top" xlink:title="set an Integer parameter for the query object specified. ">
<polygon fill="white" stroke="black" points="258,-44 258,-63 348,-63 348,-44 258,-44"/>
<text text-anchor="middle" x="303" y="-51" font-family="Helvetica,sans-Serif" font-size="10.00">setFLOATParam</text>
</a>
</g>
</g>
<!-- Node4&#45;&gt;Node7 -->
<g id="edge7" class="edge"><title>Node4&#45;&gt;Node7</title>
<path fill="none" stroke="midnightblue" d="M222.137,-53.5C230.439,-53.5 239.101,-53.5 247.529,-53.5"/>
<polygon fill="midnightblue" stroke="midnightblue" points="247.654,-57.0001 257.653,-53.5 247.653,-50.0001 247.654,-57.0001"/>
</g>
<!-- Node6 -->
<g id="node6" class="node"><title>Node6</title>
<g id="a_node6"><a xlink:href="classtomoBay_1_1model_1_1sql_1_1framework_1_1queryTypes_1_1AbstractDBQuery.html#ae8a5c5f1701ee77ef658050c8345d518" target="_top" xlink:title="Used by derived classes to define the Query string to be used in the query. ">
<polygon fill="white" stroke="black" points="617,-0.5 617,-30.5 793,-30.5 793,-0.5 617,-0.5"/>
<text text-anchor="start" x="625" y="-18.5" font-family="Helvetica,sans-Serif" font-size="10.00">tomoBay.model.sql.framework.query</text>
<text text-anchor="middle" x="705" y="-7.5" font-family="Helvetica,sans-Serif" font-size="10.00">Types.AbstractDBQuery.queryString</text>
</a>
</g>
</g>
<!-- Node5&#45;&gt;Node6 -->
<g id="edge5" class="edge"><title>Node5&#45;&gt;Node6</title>
<path fill="none" stroke="midnightblue" d="M568.176,-15.5C580.803,-15.5 593.868,-15.5 606.678,-15.5"/>
<polygon fill="midnightblue" stroke="midnightblue" points="606.885,-19.0001 616.885,-15.5 606.885,-12.0001 606.885,-19.0001"/>
</g>
<!-- Node7&#45;&gt;Node2 -->
<g id="edge9" class="edge"><title>Node7&#45;&gt;Node2</title>
<path fill="none" stroke="midnightblue" d="M348.16,-63.089C363.88,-66.5024 382.096,-70.458 399.85,-74.3131"/>
<polygon fill="midnightblue" stroke="midnightblue" points="399.132,-77.7387 409.647,-76.4405 400.617,-70.8981 399.132,-77.7387"/>
</g>
<!-- Node7&#45;&gt;Node5 -->
<g id="edge8" class="edge"><title>Node7&#45;&gt;Node5</title>
<path fill="none" stroke="midnightblue" d="M348.16,-43.911C363.88,-40.4976 382.096,-36.542 399.85,-32.6869"/>
<polygon fill="midnightblue" stroke="midnightblue" points="400.617,-36.1019 409.647,-30.5595 399.132,-29.2613 400.617,-36.1019"/>
</g>
</g>
</svg>
