<?xml version="1.0" encoding="UTF-8" standalone="no"?>
<!DOCTYPE svg PUBLIC "-//W3C//DTD SVG 1.1//EN"
 "http://www.w3.org/Graphics/SVG/1.1/DTD/svg11.dtd">
<!-- Generated by graphviz version 2.38.0 (20140413.2041)
 -->
<!-- Title: tomoBay.presenters.PresenterFactory Pages: 1 -->
<svg width="196pt" height="226pt"
 viewBox="0.00 0.00 196.00 226.00" xmlns="http://www.w3.org/2000/svg" xmlns:xlink="http://www.w3.org/1999/xlink">
<g id="graph0" class="graph" transform="scale(1 1) rotate(0) translate(4 222)">
<title>tomoBay.presenters.PresenterFactory</title>
<!-- Node1 -->
<g id="node1" class="node"><title>Node1</title>
<polygon fill="#bfbfbf" stroke="black" points="19.5,-0.5 19.5,-79.5 168.5,-79.5 168.5,-0.5 19.5,-0.5"/>
<text text-anchor="start" x="27.5" y="-67.5" font-family="Helvetica,sans-Serif" font-size="10.00">tomoBay.presenters.Presenter</text>
<text text-anchor="middle" x="94" y="-56.5" font-family="Helvetica,sans-Serif" font-size="10.00">Factory</text>
<polyline fill="none" stroke="black" points="19.5,-49.5 168.5,-49.5 "/>
<text text-anchor="middle" x="94" y="-37.5" font-family="Helvetica,sans-Serif" font-size="10.00"> </text>
<polyline fill="none" stroke="black" points="19.5,-30.5 168.5,-30.5 "/>
<text text-anchor="start" x="27.5" y="-18.5" font-family="Helvetica,sans-Serif" font-size="10.00">+ PresenterFactory()</text>
<text text-anchor="start" x="27.5" y="-7.5" font-family="Helvetica,sans-Serif" font-size="10.00">+ make()</text>
</g>
<!-- Node2 -->
<g id="node2" class="node"><title>Node2</title>
<polygon fill="none" stroke="#bfbfbf" points="0,-127.5 0,-217.5 188,-217.5 188,-127.5 0,-127.5"/>
<text text-anchor="start" x="8" y="-205.5" font-family="Helvetica,sans-Serif" font-size="10.00">Map&lt; tomoBay.presenters.</text>
<text text-anchor="start" x="8" y="-194.5" font-family="Helvetica,sans-Serif" font-size="10.00">PresenterFactory.PresenterType,</text>
<text text-anchor="start" x="8" y="-183.5" font-family="Helvetica,sans-Serif" font-size="10.00"> tomoBay.presenters.factories.Abstract</text>
<text text-anchor="middle" x="94" y="-172.5" font-family="Helvetica,sans-Serif" font-size="10.00">PresenterFactory &gt;</text>
<polyline fill="none" stroke="#bfbfbf" points="0,-165.5 188,-165.5 "/>
<text text-anchor="middle" x="94" y="-153.5" font-family="Helvetica,sans-Serif" font-size="10.00"> </text>
<polyline fill="none" stroke="#bfbfbf" points="0,-146.5 188,-146.5 "/>
<text text-anchor="middle" x="94" y="-134.5" font-family="Helvetica,sans-Serif" font-size="10.00"> </text>
</g>
<!-- Node2&#45;&gt;Node1 -->
<g id="edge1" class="edge"><title>Node2&#45;&gt;Node1</title>
<path fill="none" stroke="#404040" d="M94,-127.319C94,-116.024 94,-103.785 94,-92.1718"/>
<polygon fill="none" stroke="#404040" points="94.0001,-91.8892 90,-85.8893 94,-79.8892 98,-85.8892 94.0001,-91.8892"/>
<text text-anchor="middle" x="133.5" y="-101" font-family="Helvetica,sans-Serif" font-size="10.00"> &#45;presenterMap_M</text>
</g>
</g>
</svg>
