<?xml version="1.0" encoding="UTF-8" standalone="no"?>
<!DOCTYPE svg PUBLIC "-//W3C//DTD SVG 1.1//EN"
 "http://www.w3.org/Graphics/SVG/1.1/DTD/svg11.dtd">
<!-- Generated by graphviz version 2.38.0 (20140413.2041)
 -->
<!-- Title: tomoBay.model.sql.queries.concreteQueries.InsertPrestigeStockReq.execute Pages: 1 -->
<svg width="628pt" height="112pt"
 viewBox="0.00 0.00 628.00 112.00" xmlns="http://www.w3.org/2000/svg" xmlns:xlink="http://www.w3.org/1999/xlink">
<g id="graph0" class="graph" transform="scale(1 1) rotate(0) translate(4 108)">
<title>tomoBay.model.sql.queries.concreteQueries.InsertPrestigeStockReq.execute</title>
<!-- Node1 -->
<g id="node1" class="node"><title>Node1</title>
<polygon fill="#bfbfbf" stroke="black" points="0,-48.5 0,-78.5 195,-78.5 195,-48.5 0,-48.5"/>
<text text-anchor="start" x="8" y="-66.5" font-family="Helvetica,sans-Serif" font-size="10.00">tomoBay.model.sql.queries.concrete</text>
<text text-anchor="middle" x="97.5" y="-55.5" font-family="Helvetica,sans-Serif" font-size="10.00">Queries.InsertPrestigeStockReq.execute</text>
</g>
<!-- Node2 -->
<g id="node2" class="node"><title>Node2</title>
<g id="a_node2"><a xlink:href="classtomoBay_1_1model_1_1sql_1_1queries_1_1concreteQueries_1_1InsertPrestigeStockReq.html#a05a219ba080b3a8a7e256d2b2ca751e8" target="_top" xlink:title="tomoBay.model.sql.queries.concrete\lQueries.InsertPrestigeStockReq.cleanup">
<polygon fill="none" stroke="black" points="234,-73.5 234,-103.5 428,-103.5 428,-73.5 234,-73.5"/>
<text text-anchor="start" x="242" y="-91.5" font-family="Helvetica,sans-Serif" font-size="10.00">tomoBay.model.sql.queries.concrete</text>
<text text-anchor="middle" x="331" y="-80.5" font-family="Helvetica,sans-Serif" font-size="10.00">Queries.InsertPrestigeStockReq.cleanup</text>
</a>
</g>
</g>
<!-- Node1&#45;&gt;Node2 -->
<g id="edge1" class="edge"><title>Node1&#45;&gt;Node2</title>
<path fill="none" stroke="midnightblue" d="M195.001,-73.9212C204.385,-74.9346 213.943,-75.9668 223.418,-76.9901"/>
<polygon fill="midnightblue" stroke="midnightblue" points="223.338,-80.5017 233.656,-78.0957 224.089,-73.5421 223.338,-80.5017"/>
</g>
<!-- Node3 -->
<g id="node3" class="node"><title>Node3</title>
<g id="a_node3"><a xlink:href="classtomoBay_1_1model_1_1sql_1_1queries_1_1concreteQueries_1_1InsertPrestigeStockReq.html#af988a1ce98ccc27548c07adb8d44d532" target="_top" xlink:title="tomoBay.model.sql.queries.concrete\lQueries.InsertPrestigeStockReq.initQuery">
<polygon fill="none" stroke="black" points="231,-24.5 231,-54.5 431,-54.5 431,-24.5 231,-24.5"/>
<text text-anchor="start" x="239" y="-42.5" font-family="Helvetica,sans-Serif" font-size="10.00">tomoBay.model.sql.queries.concrete</text>
<text text-anchor="middle" x="331" y="-31.5" font-family="Helvetica,sans-Serif" font-size="10.00">Queries.InsertPrestigeStockReq.initQuery</text>
</a>
</g>
</g>
<!-- Node1&#45;&gt;Node3 -->
<g id="edge2" class="edge"><title>Node1&#45;&gt;Node3</title>
<path fill="none" stroke="midnightblue" d="M195.001,-53.4956C203.472,-52.6174 212.085,-51.7245 220.65,-50.8364"/>
<polygon fill="midnightblue" stroke="midnightblue" points="221.088,-54.31 230.673,-49.7974 220.366,-47.3473 221.088,-54.31"/>
</g>
<!-- Node4 -->
<g id="node4" class="node"><title>Node4</title>
<g id="a_node4"><a xlink:href="classtomoBay_1_1model_1_1sql_1_1ConnectionManager.html#a258fdcb8481c013b1864d6835e5dfaa2" target="_top" xlink:title="tomoBay.model.sql.Connection\lManager.instance">
<polygon fill="none" stroke="black" points="467,-49.5 467,-79.5 620,-79.5 620,-49.5 467,-49.5"/>
<text text-anchor="start" x="475" y="-67.5" font-family="Helvetica,sans-Serif" font-size="10.00">tomoBay.model.sql.Connection</text>
<text text-anchor="middle" x="543.5" y="-56.5" font-family="Helvetica,sans-Serif" font-size="10.00">Manager.instance</text>
</a>
</g>
</g>
<!-- Node3&#45;&gt;Node4 -->
<g id="edge3" class="edge"><title>Node3&#45;&gt;Node4</title>
<path fill="none" stroke="midnightblue" d="M431.086,-51.268C439.653,-52.2854 448.274,-53.3093 456.722,-54.3126"/>
<polygon fill="midnightblue" stroke="midnightblue" points="456.582,-57.8205 466.925,-55.5244 457.408,-50.8693 456.582,-57.8205"/>
</g>
<!-- Node5 -->
<g id="node5" class="node"><title>Node5</title>
<g id="a_node5"><a xlink:href="classtomoBay_1_1model_1_1sql_1_1ConnectionManager.html#ae409bc78f5d56de5a3da5dc34b992912" target="_top" xlink:title="tomoBay.model.sql.Connection\lManager.getConnection">
<polygon fill="none" stroke="black" points="467,-0.5 467,-30.5 620,-30.5 620,-0.5 467,-0.5"/>
<text text-anchor="start" x="475" y="-18.5" font-family="Helvetica,sans-Serif" font-size="10.00">tomoBay.model.sql.Connection</text>
<text text-anchor="middle" x="543.5" y="-7.5" font-family="Helvetica,sans-Serif" font-size="10.00">Manager.getConnection</text>
</a>
</g>
</g>
<!-- Node3&#45;&gt;Node5 -->
<g id="edge4" class="edge"><title>Node3&#45;&gt;Node5</title>
<path fill="none" stroke="midnightblue" d="M431.086,-28.2028C439.653,-27.226 448.274,-26.2431 456.722,-25.2799"/>
<polygon fill="midnightblue" stroke="midnightblue" points="457.386,-28.727 466.925,-24.1166 456.593,-21.772 457.386,-28.727"/>
</g>
</g>
</svg>
