<?xml version="1.0" encoding="UTF-8" standalone="no"?>
<!DOCTYPE svg PUBLIC "-//W3C//DTD SVG 1.1//EN"
 "http://www.w3.org/Graphics/SVG/1.1/DTD/svg11.dtd">
<!-- Generated by graphviz version 2.38.0 (20140413.2041)
 -->
<!-- Title: SelectUninvoicedOrdersNoErrors Pages: 1 -->
<svg width="177pt" height="458pt"
 viewBox="0.00 0.00 177.00 458.00" xmlns="http://www.w3.org/2000/svg" xmlns:xlink="http://www.w3.org/1999/xlink">
<g id="graph0" class="graph" transform="scale(1 1) rotate(0) translate(4 454)">
<title>SelectUninvoicedOrdersNoErrors</title>
<polygon fill="white" stroke="none" points="-4,4 -4,-454 173,-454 173,4 -4,4"/>
<!-- Node1 -->
<g id="node1" class="node"><title>Node1</title>
<polygon fill="#bfbfbf" stroke="black" points="12.5,-0.5 12.5,-101.5 156.5,-101.5 156.5,-0.5 12.5,-0.5"/>
<text text-anchor="start" x="20.5" y="-89.5" font-family="Helvetica,sans-Serif" font-size="10.00">SelectUninvoicedOrdersNo</text>
<text text-anchor="middle" x="84.5" y="-78.5" font-family="Helvetica,sans-Serif" font-size="10.00">Errors</text>
<polyline fill="none" stroke="black" points="12.5,-71.5 156.5,-71.5 "/>
<text text-anchor="start" x="20.5" y="-59.5" font-family="Helvetica,sans-Serif" font-size="10.00">&#45; query</text>
<polyline fill="none" stroke="black" points="12.5,-52.5 156.5,-52.5 "/>
<text text-anchor="start" x="20.5" y="-40.5" font-family="Helvetica,sans-Serif" font-size="10.00">+ SelectUninvoicedOrdersNo</text>
<text text-anchor="start" x="20.5" y="-29.5" font-family="Helvetica,sans-Serif" font-size="10.00">Errors()</text>
<text text-anchor="start" x="20.5" y="-18.5" font-family="Helvetica,sans-Serif" font-size="10.00"># format()</text>
<text text-anchor="start" x="20.5" y="-7.5" font-family="Helvetica,sans-Serif" font-size="10.00"># queryString()</text>
</g>
<!-- Node2 -->
<g id="node2" class="node"><title>Node2</title>
<g id="a_node2"><a xlink:href="classtomoBay_1_1model_1_1sql_1_1framework_1_1queryTypes_1_1select_1_1AbstractSelectNoParamsQuery.html" target="_top" xlink:title="This class defines the Abstract base for all Select queries that do not require parameters. ">
<polygon fill="white" stroke="black" points="-1.42109e-14,-138.5 -1.42109e-14,-217.5 169,-217.5 169,-138.5 -1.42109e-14,-138.5"/>
<text text-anchor="middle" x="84.5" y="-205.5" font-family="Helvetica,sans-Serif" font-size="10.00">AbstractSelectNoParamsQuery</text>
<polyline fill="none" stroke="black" points="-1.42109e-14,-198.5 169,-198.5 "/>
<text text-anchor="middle" x="84.5" y="-186.5" font-family="Helvetica,sans-Serif" font-size="10.00"> </text>
<polyline fill="none" stroke="black" points="-1.42109e-14,-179.5 169,-179.5 "/>
<text text-anchor="start" x="8" y="-167.5" font-family="Helvetica,sans-Serif" font-size="10.00">+ AbstractSelectNoParamsQuery()</text>
<text text-anchor="start" x="8" y="-156.5" font-family="Helvetica,sans-Serif" font-size="10.00">+ execute()</text>
<text text-anchor="start" x="8" y="-145.5" font-family="Helvetica,sans-Serif" font-size="10.00"># initQuery()</text>
</a>
</g>
</g>
<!-- Node2&#45;&gt;Node1 -->
<g id="edge1" class="edge"><title>Node2&#45;&gt;Node1</title>
<path fill="none" stroke="midnightblue" d="M84.5,-128.406C84.5,-119.639 84.5,-110.488 84.5,-101.691"/>
<polygon fill="none" stroke="midnightblue" points="81.0001,-128.476 84.5,-138.476 88.0001,-128.476 81.0001,-128.476"/>
</g>
<!-- Node3 -->
<g id="node3" class="node"><title>Node3</title>
<g id="a_node3"><a xlink:href="classtomoBay_1_1model_1_1sql_1_1framework_1_1queryTypes_1_1select_1_1AbstractSelectQuery.html" target="_top" xlink:title="{AbstractSelectQuery\n||+ AbstractSelectQuery()\l# format()\l}">
<polygon fill="white" stroke="black" points="23.5,-254.5 23.5,-322.5 145.5,-322.5 145.5,-254.5 23.5,-254.5"/>
<text text-anchor="middle" x="84.5" y="-310.5" font-family="Helvetica,sans-Serif" font-size="10.00">AbstractSelectQuery</text>
<polyline fill="none" stroke="black" points="23.5,-303.5 145.5,-303.5 "/>
<text text-anchor="middle" x="84.5" y="-291.5" font-family="Helvetica,sans-Serif" font-size="10.00"> </text>
<polyline fill="none" stroke="black" points="23.5,-284.5 145.5,-284.5 "/>
<text text-anchor="start" x="31.5" y="-272.5" font-family="Helvetica,sans-Serif" font-size="10.00">+ AbstractSelectQuery()</text>
<text text-anchor="start" x="31.5" y="-261.5" font-family="Helvetica,sans-Serif" font-size="10.00"># format()</text>
</a>
</g>
</g>
<!-- Node3&#45;&gt;Node2 -->
<g id="edge2" class="edge"><title>Node3&#45;&gt;Node2</title>
<path fill="none" stroke="midnightblue" d="M84.5,-244.274C84.5,-235.476 84.5,-226.275 84.5,-217.649"/>
<polygon fill="none" stroke="midnightblue" points="81.0001,-244.357 84.5,-254.357 88.0001,-244.357 81.0001,-244.357"/>
</g>
<!-- Node4 -->
<g id="node4" class="node"><title>Node4</title>
<g id="a_node4"><a xlink:href="classtomoBay_1_1model_1_1sql_1_1framework_1_1queryTypes_1_1AbstractDBQuery.html" target="_top" xlink:title="Interface that all database queries must adhere to. ">
<polygon fill="white" stroke="black" points="37.5,-359.5 37.5,-449.5 131.5,-449.5 131.5,-359.5 37.5,-359.5"/>
<text text-anchor="middle" x="84.5" y="-437.5" font-family="Helvetica,sans-Serif" font-size="10.00">AbstractDBQuery</text>
<polyline fill="none" stroke="black" points="37.5,-430.5 131.5,-430.5 "/>
<text text-anchor="start" x="45.5" y="-418.5" font-family="Helvetica,sans-Serif" font-size="10.00"># statement_M</text>
<text text-anchor="start" x="45.5" y="-407.5" font-family="Helvetica,sans-Serif" font-size="10.00"># connection_M</text>
<polyline fill="none" stroke="black" points="37.5,-400.5 131.5,-400.5 "/>
<text text-anchor="start" x="45.5" y="-388.5" font-family="Helvetica,sans-Serif" font-size="10.00">+ statement()</text>
<text text-anchor="start" x="45.5" y="-377.5" font-family="Helvetica,sans-Serif" font-size="10.00"># queryString()</text>
<text text-anchor="start" x="45.5" y="-366.5" font-family="Helvetica,sans-Serif" font-size="10.00"># cleanup()</text>
</a>
</g>
</g>
<!-- Node4&#45;&gt;Node3 -->
<g id="edge3" class="edge"><title>Node4&#45;&gt;Node3</title>
<path fill="none" stroke="midnightblue" d="M84.5,-349.316C84.5,-340.285 84.5,-331.159 84.5,-322.848"/>
<polygon fill="none" stroke="midnightblue" points="81.0001,-349.425 84.5,-359.425 88.0001,-349.425 81.0001,-349.425"/>
</g>
</g>
</svg>
