<?xml version="1.0" encoding="UTF-8" standalone="no"?>
<!DOCTYPE svg PUBLIC "-//W3C//DTD SVG 1.1//EN"
 "http://www.w3.org/Graphics/SVG/1.1/DTD/svg11.dtd">
<!-- Generated by graphviz version 2.38.0 (20140413.2041)
 -->
<!-- Title: setBIGINTParam Pages: 1 -->
<!--zoomable 1071 -->
<svg id="main" version="1.1" xmlns="http://www.w3.org/2000/svg" xmlns:xlink="http://www.w3.org/1999/xlink" xml:space="preserve" onload="init(evt)">
<style type="text/css"><![CDATA[
.edge:hover path { stroke: red; }
.edge:hover polygon { stroke: red; fill: red; }
]]></style>
<script type="text/javascript"><![CDATA[
var edges = document.getElementsByTagName('g');
if (edges && edges.length) {
  for (var i=0;i<edges.length;i++) {
    if (edges[i].id.substr(0,4)=='edge') {
      edges[i].setAttribute('class','edge');
    }
  }
}
]]></script>
        <defs>
                <circle id="rim" cx="0" cy="0" r="7"/>
                <circle id="rim2" cx="0" cy="0" r="3.5"/>
                <g id="zoomPlus">
                        <use xlink:href="#rim" fill="#404040">
                                <set attributeName="fill" to="#808080" begin="zoomplus.mouseover" end="zoomplus.mouseout"/>
                        </use>
                        <path d="M-4,0h8M0,-4v8" fill="none" stroke="white" stroke-width="1.5" pointer-events="none"/>
                </g>
                <g id="zoomMin">
                        <use xlink:href="#rim" fill="#404040">
                                <set attributeName="fill" to="#808080" begin="zoomminus.mouseover" end="zoomminus.mouseout"/>
                        </use>
                        <path d="M-4,0h8" fill="none" stroke="white" stroke-width="1.5" pointer-events="none"/>
                </g>
                <g id="dirArrow">
                        <path fill="none" stroke="white" stroke-width="1.5" d="M0,-3.0v7 M-2.5,-0.5L0,-3.0L2.5,-0.5"/>
                </g>
               <g id="resetDef">
                       <use xlink:href="#rim2" fill="#404040">
                               <set attributeName="fill" to="#808080" begin="reset.mouseover" end="reset.mouseout"/>
                       </use>
               </g>
        </defs>

<script type="text/javascript">
var viewWidth = 1023;
var viewHeight = 1071;
var sectionId = 'dynsection-9';
</script>
<script xlink:href="svgpan.js"/>
<svg id="graph" class="graph">
<g id="viewport">
<title>setBIGINTParam</title>
<polygon fill="white" stroke="none" points="-4,4 -4,-1066.76 1019,-1066.76 1019,4 -4,4"/>
<!-- Node1 -->
<g id="node1" class="node"><title>Node1</title>
<polygon fill="#bfbfbf" stroke="black" points="0,-191.5 0,-210.5 92,-210.5 92,-191.5 0,-191.5"/>
<text text-anchor="middle" x="46" y="-198.5" font-family="Helvetica,sans-Serif" font-size="10.00">setBIGINTParam</text>
</g>
<!-- Node2 -->
<g id="node2" class="node"><title>Node2</title>
<g id="a_node2"><a xlink:href="classtomoBay_1_1model_1_1sql_1_1framework_1_1QueryUtility.html#a50955d4f51a1a7a88ef0c8aadbe9c793" target="_top" xlink:title="set an Integer parameter for the query object specified. ">
<polygon fill="white" stroke="black" points="195,-462.5 195,-481.5 280,-481.5 280,-462.5 195,-462.5"/>
<text text-anchor="middle" x="237.5" y="-469.5" font-family="Helvetica,sans-Serif" font-size="10.00">setBYTEParam</text>
</a>
</g>
</g>
<!-- Node1&#45;&gt;Node2 -->
<g id="edge1" class="edge"><title>Node1&#45;&gt;Node2</title>
<path fill="none" stroke="midnightblue" d="M59.5657,-218.97C96.2229,-271.393 202.186,-422.928 229.836,-462.471"/>
<polygon fill="midnightblue" stroke="midnightblue" points="62.3433,-216.834 53.7444,-210.645 56.6067,-220.846 62.3433,-216.834"/>
</g>
<!-- Node9 -->
<g id="node9" class="node"><title>Node9</title>
<g id="a_node9"><a xlink:href="classtomoBay_1_1model_1_1sql_1_1queries_1_1concreteQueries_1_1insert_1_1InsertEbayItems.html#af9020b85517904668d036bc2bf89433c" target="_top" xlink:title="tomoBay.model.sql.queries.concrete\lQueries.insert.InsertEbayItems.setParameters">
<polygon fill="white" stroke="black" points="796,-1022 796,-1052 1015,-1052 1015,-1022 796,-1022"/>
<text text-anchor="start" x="804" y="-1040" font-family="Helvetica,sans-Serif" font-size="10.00">tomoBay.model.sql.queries.concrete</text>
<text text-anchor="middle" x="905.5" y="-1029" font-family="Helvetica,sans-Serif" font-size="10.00">Queries.insert.InsertEbayItems.setParameters</text>
</a>
</g>
</g>
<!-- Node1&#45;&gt;Node9 -->
<g id="edge30" class="edge"><title>Node1&#45;&gt;Node9</title>
<path fill="none" stroke="midnightblue" d="M49.9199,-220.756C57.5878,-268.979 81.0235,-395.726 128,-491 258.979,-756.642 265.395,-887.033 528,-1024 623.973,-1074.06 753.211,-1064.82 832.592,-1052.04"/>
<polygon fill="midnightblue" stroke="midnightblue" points="53.3571,-220.079 48.3757,-210.729 46.4386,-221.145 53.3571,-220.079"/>
</g>
<!-- Node11 -->
<g id="node11" class="node"><title>Node11</title>
<g id="a_node11"><a xlink:href="classtomoBay_1_1model_1_1sql_1_1queries_1_1concreteQueries_1_1insert_1_1InsertEbayTransactions.html#af9020b85517904668d036bc2bf89433c" target="_top" xlink:title="tomoBay.model.sql.queries.concrete\lQueries.insert.InsertEbayTransactions.set\lParameters">
<polygon fill="white" stroke="black" points="805.5,-624.5 805.5,-665.5 1005.5,-665.5 1005.5,-624.5 805.5,-624.5"/>
<text text-anchor="start" x="813.5" y="-653.5" font-family="Helvetica,sans-Serif" font-size="10.00">tomoBay.model.sql.queries.concrete</text>
<text text-anchor="start" x="813.5" y="-642.5" font-family="Helvetica,sans-Serif" font-size="10.00">Queries.insert.InsertEbayTransactions.set</text>
<text text-anchor="middle" x="905.5" y="-631.5" font-family="Helvetica,sans-Serif" font-size="10.00">Parameters</text>
</a>
</g>
</g>
<!-- Node1&#45;&gt;Node11 -->
<g id="edge32" class="edge"><title>Node1&#45;&gt;Node11</title>
<path fill="none" stroke="midnightblue" d="M97.2675,-189.176C241.94,-156.391 655.644,-71.7522 760,-150 839.505,-209.614 889.784,-538.082 901.738,-624.28"/>
<polygon fill="midnightblue" stroke="midnightblue" points="96.2952,-185.808 87.3239,-191.444 97.8519,-192.632 96.2952,-185.808"/>
</g>
<!-- Node14 -->
<g id="node14" class="node"><title>Node14</title>
<g id="a_node14"><a xlink:href="classtomoBay_1_1model_1_1sql_1_1queries_1_1concreteQueries_1_1update_1_1UpdateItemNote.html#af9020b85517904668d036bc2bf89433c" target="_top" xlink:title="tomoBay.model.sql.queries.concrete\lQueries.update.UpdateItemNote.setParameters">
<polygon fill="white" stroke="black" points="532,-267 532,-297 756,-297 756,-267 532,-267"/>
<text text-anchor="start" x="540" y="-285" font-family="Helvetica,sans-Serif" font-size="10.00">tomoBay.model.sql.queries.concrete</text>
<text text-anchor="middle" x="644" y="-274" font-family="Helvetica,sans-Serif" font-size="10.00">Queries.update.UpdateItemNote.setParameters</text>
</a>
</g>
</g>
<!-- Node1&#45;&gt;Node14 -->
<g id="edge28" class="edge"><title>Node1&#45;&gt;Node14</title>
<path fill="none" stroke="midnightblue" d="M87.7925,-213.37C100.571,-216.896 114.788,-220.464 128,-223 265.875,-249.464 426.954,-265.584 531.759,-274.14"/>
<polygon fill="midnightblue" stroke="midnightblue" points="88.4742,-209.926 77.8991,-210.572 86.5691,-216.662 88.4742,-209.926"/>
</g>
<!-- Node15 -->
<g id="node15" class="node"><title>Node15</title>
<g id="a_node15"><a xlink:href="classtomoBay_1_1model_1_1sql_1_1queries_1_1concreteQueries_1_1update_1_1UpdateItemBrandAndPartNo.html#af9020b85517904668d036bc2bf89433c" target="_top" xlink:title="tomoBay.model.sql.queries.concrete\lQueries.update.UpdateItemBrandAndPart\lNo.setParameters">
<polygon fill="white" stroke="black" points="545.5,-207.5 545.5,-248.5 742.5,-248.5 742.5,-207.5 545.5,-207.5"/>
<text text-anchor="start" x="553.5" y="-236.5" font-family="Helvetica,sans-Serif" font-size="10.00">tomoBay.model.sql.queries.concrete</text>
<text text-anchor="start" x="553.5" y="-225.5" font-family="Helvetica,sans-Serif" font-size="10.00">Queries.update.UpdateItemBrandAndPart</text>
<text text-anchor="middle" x="644" y="-214.5" font-family="Helvetica,sans-Serif" font-size="10.00">No.setParameters</text>
</a>
</g>
</g>
<!-- Node1&#45;&gt;Node15 -->
<g id="edge29" class="edge"><title>Node1&#45;&gt;Node15</title>
<path fill="none" stroke="midnightblue" d="M102.28,-203.504C203.298,-208.081 418.92,-217.849 545.231,-223.571"/>
<polygon fill="midnightblue" stroke="midnightblue" points="102.434,-200.008 92.2861,-203.052 102.117,-207.001 102.434,-200.008"/>
</g>
<!-- Node16 -->
<g id="node16" class="node"><title>Node16</title>
<g id="a_node16"><a xlink:href="classtomoBay_1_1model_1_1sql_1_1queries_1_1concreteQueries_1_1update_1_1UpdateItemError.html#af9020b85517904668d036bc2bf89433c" target="_top" xlink:title="tomoBay.model.sql.queries.concrete\lQueries.update.UpdateItemError.setParameters">
<polygon fill="white" stroke="black" points="532,-159 532,-189 756,-189 756,-159 532,-159"/>
<text text-anchor="start" x="540" y="-177" font-family="Helvetica,sans-Serif" font-size="10.00">tomoBay.model.sql.queries.concrete</text>
<text text-anchor="middle" x="644" y="-166" font-family="Helvetica,sans-Serif" font-size="10.00">Queries.update.UpdateItemError.setParameters</text>
</a>
</g>
</g>
<!-- Node1&#45;&gt;Node16 -->
<g id="edge31" class="edge"><title>Node1&#45;&gt;Node16</title>
<path fill="none" stroke="midnightblue" d="M102.527,-198.485C200.172,-194.061 404.347,-184.811 531.904,-179.033"/>
<polygon fill="midnightblue" stroke="midnightblue" points="102.117,-194.999 92.2861,-198.948 102.434,-201.992 102.117,-194.999"/>
</g>
<!-- Node25 -->
<g id="node25" class="node"><title>Node25</title>
<g id="a_node25"><a xlink:href="classtomoBay_1_1model_1_1sql_1_1queries_1_1concreteQueries_1_1select_1_1params_1_1SelectEbayTransactionByID.html#af9020b85517904668d036bc2bf89433c" target="_top" xlink:title="tomoBay.model.sql.queries.concrete\lQueries.select.params.SelectEbayTransaction\lByID.setParameters">
<polygon fill="white" stroke="black" points="128,-60.5 128,-101.5 347,-101.5 347,-60.5 128,-60.5"/>
<text text-anchor="start" x="136" y="-89.5" font-family="Helvetica,sans-Serif" font-size="10.00">tomoBay.model.sql.queries.concrete</text>
<text text-anchor="start" x="136" y="-78.5" font-family="Helvetica,sans-Serif" font-size="10.00">Queries.select.params.SelectEbayTransaction</text>
<text text-anchor="middle" x="237.5" y="-67.5" font-family="Helvetica,sans-Serif" font-size="10.00">ByID.setParameters</text>
</a>
</g>
</g>
<!-- Node1&#45;&gt;Node25 -->
<g id="edge33" class="edge"><title>Node1&#45;&gt;Node25</title>
<path fill="none" stroke="midnightblue" d="M59.6612,-183.156C74.1362,-163.986 99.5365,-133.876 128,-116 136.884,-110.421 146.739,-105.652 156.784,-101.596"/>
<polygon fill="midnightblue" stroke="midnightblue" points="56.7416,-181.218 53.6372,-191.348 62.3811,-185.365 56.7416,-181.218"/>
</g>
<!-- Node26 -->
<g id="node26" class="node"><title>Node26</title>
<g id="a_node26"><a xlink:href="classtomoBay_1_1model_1_1sql_1_1queries_1_1concreteQueries_1_1select_1_1params_1_1SelectEbayItemSpecific.html#af9020b85517904668d036bc2bf89433c" target="_top" xlink:title="tomoBay.model.sql.queries.concrete\lQueries.select.params.SelectEbayItem\lSpecific.setParameters">
<polygon fill="white" stroke="black" points="143.5,-0.5 143.5,-41.5 331.5,-41.5 331.5,-0.5 143.5,-0.5"/>
<text text-anchor="start" x="151.5" y="-29.5" font-family="Helvetica,sans-Serif" font-size="10.00">tomoBay.model.sql.queries.concrete</text>
<text text-anchor="start" x="151.5" y="-18.5" font-family="Helvetica,sans-Serif" font-size="10.00">Queries.select.params.SelectEbayItem</text>
<text text-anchor="middle" x="237.5" y="-7.5" font-family="Helvetica,sans-Serif" font-size="10.00">Specific.setParameters</text>
</a>
</g>
</g>
<!-- Node1&#45;&gt;Node26 -->
<g id="edge34" class="edge"><title>Node1&#45;&gt;Node26</title>
<path fill="none" stroke="midnightblue" d="M52.1896,-181.214C61.6791,-148.985 84.9301,-85.3127 128,-51 132.739,-47.2249 137.921,-43.9242 143.369,-41.0383"/>
<polygon fill="midnightblue" stroke="midnightblue" points="48.7188,-180.63 49.397,-191.203 55.4603,-182.515 48.7188,-180.63"/>
</g>
<!-- Node3 -->
<g id="node3" class="node"><title>Node3</title>
<g id="a_node3"><a xlink:href="classtomoBay_1_1model_1_1sql_1_1framework_1_1QueryUtility.html#a3249b16421a9902f2248cb86d4dd3be3" target="_top" xlink:title="set an Integer parameter for the query object specified. ">
<polygon fill="white" stroke="black" points="383,-596.5 383,-615.5 492,-615.5 492,-596.5 383,-596.5"/>
<text text-anchor="middle" x="437.5" y="-603.5" font-family="Helvetica,sans-Serif" font-size="10.00">setVARCHARParam</text>
</a>
</g>
</g>
<!-- Node2&#45;&gt;Node3 -->
<g id="edge2" class="edge"><title>Node2&#45;&gt;Node3</title>
<path fill="none" stroke="midnightblue" d="M261.037,-487.252C302.215,-515.12 388.487,-573.506 422.389,-596.45"/>
<polygon fill="midnightblue" stroke="midnightblue" points="262.983,-484.343 252.74,-481.637 259.06,-490.14 262.983,-484.343"/>
</g>
<!-- Node4 -->
<g id="node4" class="node"><title>Node4</title>
<g id="a_node4"><a xlink:href="classtomoBay_1_1model_1_1sql_1_1framework_1_1QueryUtility.html#aca3b74b8ac7e194a86c0b896a674e2f2" target="_top" xlink:title="set an Integer parameter for the query object specified. ">
<polygon fill="white" stroke="black" points="592,-859.5 592,-878.5 696,-878.5 696,-859.5 592,-859.5"/>
<text text-anchor="middle" x="644" y="-866.5" font-family="Helvetica,sans-Serif" font-size="10.00">setINTEGERParam</text>
</a>
</g>
</g>
<!-- Node3&#45;&gt;Node4 -->
<g id="edge3" class="edge"><title>Node3&#45;&gt;Node4</title>
<path fill="none" stroke="midnightblue" d="M439.706,-625.712C443.637,-671.732 460.112,-786.753 528,-845 545.491,-860.007 569.947,-866.442 591.812,-868.948"/>
<polygon fill="midnightblue" stroke="midnightblue" points="443.185,-625.288 438.953,-615.575 436.204,-625.807 443.185,-625.288"/>
</g>
<!-- Node7 -->
<g id="node7" class="node"><title>Node7</title>
<g id="a_node7"><a xlink:href="classtomoBay_1_1model_1_1sql_1_1queries_1_1concreteQueries_1_1update_1_1UpdateInvoiceStatus.html#af9020b85517904668d036bc2bf89433c" target="_top" xlink:title="tomoBay.model.sql.queries.concrete\lQueries.update.UpdateInvoiceStatus.set\lParameters">
<polygon fill="white" stroke="black" points="808.5,-962.5 808.5,-1003.5 1002.5,-1003.5 1002.5,-962.5 808.5,-962.5"/>
<text text-anchor="start" x="816.5" y="-991.5" font-family="Helvetica,sans-Serif" font-size="10.00">tomoBay.model.sql.queries.concrete</text>
<text text-anchor="start" x="816.5" y="-980.5" font-family="Helvetica,sans-Serif" font-size="10.00">Queries.update.UpdateInvoiceStatus.set</text>
<text text-anchor="middle" x="905.5" y="-969.5" font-family="Helvetica,sans-Serif" font-size="10.00">Parameters</text>
</a>
</g>
</g>
<!-- Node3&#45;&gt;Node7 -->
<g id="edge13" class="edge"><title>Node3&#45;&gt;Node7</title>
<path fill="none" stroke="midnightblue" d="M438.328,-625.76C439.028,-677.509 448.535,-817.829 528,-888 606.606,-957.413 662.075,-893.479 760,-931 777.51,-937.709 778.797,-945.54 796,-953 803.979,-956.46 812.463,-959.623 821.034,-962.489"/>
<polygon fill="midnightblue" stroke="midnightblue" points="441.828,-625.595 438.294,-615.607 434.828,-625.619 441.828,-625.595"/>
</g>
<!-- Node3&#45;&gt;Node9 -->
<g id="edge18" class="edge"><title>Node3&#45;&gt;Node9</title>
<path fill="none" stroke="midnightblue" d="M441.311,-625.748C450.658,-688.56 482.683,-882.013 528,-923 605.657,-993.237 671.065,-908.732 760,-964 782.952,-978.264 773.358,-998.249 796,-1013 801.253,-1016.42 806.922,-1019.36 812.815,-1021.89"/>
<polygon fill="midnightblue" stroke="midnightblue" points="444.739,-624.996 439.832,-615.606 437.812,-626.007 444.739,-624.996"/>
</g>
<!-- Node10 -->
<g id="node10" class="node"><title>Node10</title>
<g id="a_node10"><a xlink:href="classtomoBay_1_1model_1_1sql_1_1queries_1_1concreteQueries_1_1insert_1_1InsertEbayOrders.html#af9020b85517904668d036bc2bf89433c" target="_top" xlink:title="tomoBay.model.sql.queries.concrete\lQueries.insert.InsertEbayOrders.set\lParameters">
<polygon fill="white" stroke="black" points="817.5,-684.5 817.5,-725.5 993.5,-725.5 993.5,-684.5 817.5,-684.5"/>
<text text-anchor="start" x="825.5" y="-713.5" font-family="Helvetica,sans-Serif" font-size="10.00">tomoBay.model.sql.queries.concrete</text>
<text text-anchor="start" x="825.5" y="-702.5" font-family="Helvetica,sans-Serif" font-size="10.00">Queries.insert.InsertEbayOrders.set</text>
<text text-anchor="middle" x="905.5" y="-691.5" font-family="Helvetica,sans-Serif" font-size="10.00">Parameters</text>
</a>
</g>
</g>
<!-- Node3&#45;&gt;Node10 -->
<g id="edge16" class="edge"><title>Node3&#45;&gt;Node10</title>
<path fill="none" stroke="midnightblue" d="M440.303,-625.627C445.368,-667.917 463.866,-767.185 528,-809 571.187,-837.158 716.292,-836.342 760,-809 791.007,-789.603 767.883,-758.39 796,-735 802.385,-729.688 809.641,-725.313 817.302,-721.71"/>
<polygon fill="midnightblue" stroke="midnightblue" points="443.766,-625.092 439.224,-615.52 436.806,-625.835 443.766,-625.092"/>
</g>
<!-- Node3&#45;&gt;Node11 -->
<g id="edge19" class="edge"><title>Node3&#45;&gt;Node11</title>
<path fill="none" stroke="midnightblue" d="M442.154,-625.533C450.208,-662.33 473.307,-741.167 528,-774 616.405,-827.071 675.545,-833.155 760,-774 798.348,-747.14 761.612,-706.773 796,-675 799.804,-671.485 803.983,-668.377 808.419,-665.628"/>
<polygon fill="midnightblue" stroke="midnightblue" points="445.548,-624.659 440.119,-615.561 438.689,-626.059 445.548,-624.659"/>
</g>
<!-- Node13 -->
<g id="node13" class="node"><title>Node13</title>
<g id="a_node13"><a xlink:href="classtomoBay_1_1model_1_1sql_1_1queries_1_1concreteQueries_1_1insert_1_1InsertOrderInOrderStatus.html#af9020b85517904668d036bc2bf89433c" target="_top" xlink:title="tomoBay.model.sql.queries.concrete\lQueries.insert.InsertOrderInOrderStatus.set\lParameters">
<polygon fill="white" stroke="black" points="541,-723.5 541,-764.5 747,-764.5 747,-723.5 541,-723.5"/>
<text text-anchor="start" x="549" y="-752.5" font-family="Helvetica,sans-Serif" font-size="10.00">tomoBay.model.sql.queries.concrete</text>
<text text-anchor="start" x="549" y="-741.5" font-family="Helvetica,sans-Serif" font-size="10.00">Queries.insert.InsertOrderInOrderStatus.set</text>
<text text-anchor="middle" x="644" y="-730.5" font-family="Helvetica,sans-Serif" font-size="10.00">Parameters</text>
</a>
</g>
</g>
<!-- Node3&#45;&gt;Node13 -->
<g id="edge12" class="edge"><title>Node3&#45;&gt;Node13</title>
<path fill="none" stroke="midnightblue" d="M448.65,-624.611C463.023,-649.162 491.652,-691.949 528,-715 532.956,-718.143 538.233,-720.945 543.7,-723.444"/>
<polygon fill="midnightblue" stroke="midnightblue" points="451.517,-622.571 443.538,-615.601 445.428,-626.025 451.517,-622.571"/>
</g>
<!-- Node3&#45;&gt;Node14 -->
<g id="edge14" class="edge"><title>Node3&#45;&gt;Node14</title>
<path fill="none" stroke="midnightblue" d="M437.98,-586.194C437.72,-532.384 444.865,-382.415 528,-306 531.679,-302.618 535.707,-299.664 539.984,-297.087"/>
<polygon fill="midnightblue" stroke="midnightblue" points="434.484,-586.471 438.13,-596.419 441.483,-586.369 434.484,-586.471"/>
</g>
<!-- Node3&#45;&gt;Node15 -->
<g id="edge15" class="edge"><title>Node3&#45;&gt;Node15</title>
<path fill="none" stroke="midnightblue" d="M440.945,-586.23C449.557,-519.727 480.545,-305.619 528,-258 533.098,-252.885 538.951,-248.607 545.258,-245.034"/>
<polygon fill="midnightblue" stroke="midnightblue" points="437.463,-585.868 439.676,-596.229 444.407,-586.749 437.463,-585.868"/>
</g>
<!-- Node3&#45;&gt;Node16 -->
<g id="edge17" class="edge"><title>Node3&#45;&gt;Node16</title>
<path fill="none" stroke="midnightblue" d="M440.049,-586.188C446.236,-512.248 471.618,-253.81 528,-198 531.406,-194.628 535.156,-191.673 539.158,-189.087"/>
<polygon fill="midnightblue" stroke="midnightblue" points="436.54,-586.162 439.219,-596.412 443.517,-586.728 436.54,-586.162"/>
</g>
<!-- Node17 -->
<g id="node17" class="node"><title>Node17</title>
<g id="a_node17"><a xlink:href="classtomoBay_1_1model_1_1sql_1_1queries_1_1concreteQueries_1_1update_1_1UpdateEbayBuyer.html#af9020b85517904668d036bc2bf89433c" target="_top" xlink:title="tomoBay.model.sql.queries.concrete\lQueries.update.UpdateEbayBuyer.setParameters">
<polygon fill="white" stroke="black" points="528,-675 528,-705 760,-705 760,-675 528,-675"/>
<text text-anchor="start" x="536" y="-693" font-family="Helvetica,sans-Serif" font-size="10.00">tomoBay.model.sql.queries.concrete</text>
<text text-anchor="middle" x="644" y="-682" font-family="Helvetica,sans-Serif" font-size="10.00">Queries.update.UpdateEbayBuyer.setParameters</text>
</a>
</g>
</g>
<!-- Node3&#45;&gt;Node17 -->
<g id="edge20" class="edge"><title>Node3&#45;&gt;Node17</title>
<path fill="none" stroke="midnightblue" d="M457.979,-622.317C475.3,-635.996 501.863,-655.006 528,-666 536.178,-669.44 544.897,-672.404 553.738,-674.954"/>
<polygon fill="midnightblue" stroke="midnightblue" points="459.793,-619.283 449.815,-615.72 455.393,-624.728 459.793,-619.283"/>
</g>
<!-- Node18 -->
<g id="node18" class="node"><title>Node18</title>
<g id="a_node18"><a xlink:href="classtomoBay_1_1model_1_1sql_1_1queries_1_1concreteQueries_1_1insert_1_1InsertEbayBuyers.html#af9020b85517904668d036bc2bf89433c" target="_top" xlink:title="tomoBay.model.sql.queries.concrete\lQueries.insert.InsertEbayBuyers.set\lParameters">
<polygon fill="white" stroke="black" points="556,-615.5 556,-656.5 732,-656.5 732,-615.5 556,-615.5"/>
<text text-anchor="start" x="564" y="-644.5" font-family="Helvetica,sans-Serif" font-size="10.00">tomoBay.model.sql.queries.concrete</text>
<text text-anchor="start" x="564" y="-633.5" font-family="Helvetica,sans-Serif" font-size="10.00">Queries.insert.InsertEbayBuyers.set</text>
<text text-anchor="middle" x="644" y="-622.5" font-family="Helvetica,sans-Serif" font-size="10.00">Parameters</text>
</a>
</g>
</g>
<!-- Node3&#45;&gt;Node18 -->
<g id="edge21" class="edge"><title>Node3&#45;&gt;Node18</title>
<path fill="none" stroke="midnightblue" d="M502.486,-615.387C519.326,-617.857 537.784,-620.565 555.625,-623.182"/>
<polygon fill="midnightblue" stroke="midnightblue" points="502.632,-611.871 492.23,-613.882 501.616,-618.797 502.632,-611.871"/>
</g>
<!-- Node19 -->
<g id="node19" class="node"><title>Node19</title>
<g id="a_node19"><a xlink:href="classtomoBay_1_1model_1_1sql_1_1queries_1_1concreteQueries_1_1select_1_1params_1_1SelectEbayOrderByBuyer.html#af9020b85517904668d036bc2bf89433c" target="_top" xlink:title="tomoBay.model.sql.queries.concrete\lQueries.select.params.SelectEbayOrder\lByBuyer.setParameters">
<polygon fill="white" stroke="black" points="548,-555.5 548,-596.5 740,-596.5 740,-555.5 548,-555.5"/>
<text text-anchor="start" x="556" y="-584.5" font-family="Helvetica,sans-Serif" font-size="10.00">tomoBay.model.sql.queries.concrete</text>
<text text-anchor="start" x="556" y="-573.5" font-family="Helvetica,sans-Serif" font-size="10.00">Queries.select.params.SelectEbayOrder</text>
<text text-anchor="middle" x="644" y="-562.5" font-family="Helvetica,sans-Serif" font-size="10.00">ByBuyer.setParameters</text>
</a>
</g>
</g>
<!-- Node3&#45;&gt;Node19 -->
<g id="edge22" class="edge"><title>Node3&#45;&gt;Node19</title>
<path fill="none" stroke="midnightblue" d="M502.463,-596.617C516.829,-594.509 532.375,-592.229 547.71,-589.979"/>
<polygon fill="midnightblue" stroke="midnightblue" points="501.616,-593.203 492.23,-598.118 502.632,-600.129 501.616,-593.203"/>
</g>
<!-- Node20 -->
<g id="node20" class="node"><title>Node20</title>
<g id="a_node20"><a xlink:href="classtomoBay_1_1model_1_1sql_1_1queries_1_1concreteQueries_1_1select_1_1params_1_1SelectTransactionByOrder.html#af9020b85517904668d036bc2bf89433c" target="_top" xlink:title="tomoBay.model.sql.queries.concrete\lQueries.select.params.SelectTransaction\lByOrder.setParameters">
<polygon fill="white" stroke="black" points="545.5,-495.5 545.5,-536.5 742.5,-536.5 742.5,-495.5 545.5,-495.5"/>
<text text-anchor="start" x="553.5" y="-524.5" font-family="Helvetica,sans-Serif" font-size="10.00">tomoBay.model.sql.queries.concrete</text>
<text text-anchor="start" x="553.5" y="-513.5" font-family="Helvetica,sans-Serif" font-size="10.00">Queries.select.params.SelectTransaction</text>
<text text-anchor="middle" x="644" y="-502.5" font-family="Helvetica,sans-Serif" font-size="10.00">ByOrder.setParameters</text>
</a>
</g>
</g>
<!-- Node3&#45;&gt;Node20 -->
<g id="edge23" class="edge"><title>Node3&#45;&gt;Node20</title>
<path fill="none" stroke="midnightblue" d="M458.119,-590.004C475.528,-576.528 502.142,-557.637 528,-546 535.715,-542.528 543.908,-539.399 552.228,-536.592"/>
<polygon fill="midnightblue" stroke="midnightblue" points="455.585,-587.545 449.906,-596.49 459.923,-593.038 455.585,-587.545"/>
</g>
<!-- Node21 -->
<g id="node21" class="node"><title>Node21</title>
<g id="a_node21"><a xlink:href="classtomoBay_1_1model_1_1sql_1_1queries_1_1concreteQueries_1_1select_1_1params_1_1SelectBrandAndPartNoByOrderID.html#af9020b85517904668d036bc2bf89433c" target="_top" xlink:title="tomoBay.model.sql.queries.concrete\lQueries.select.params.SelectBrandAnd\lPartNoByOrderID.setParameters">
<polygon fill="white" stroke="black" points="550,-435.5 550,-476.5 738,-476.5 738,-435.5 550,-435.5"/>
<text text-anchor="start" x="558" y="-464.5" font-family="Helvetica,sans-Serif" font-size="10.00">tomoBay.model.sql.queries.concrete</text>
<text text-anchor="start" x="558" y="-453.5" font-family="Helvetica,sans-Serif" font-size="10.00">Queries.select.params.SelectBrandAnd</text>
<text text-anchor="middle" x="644" y="-442.5" font-family="Helvetica,sans-Serif" font-size="10.00">PartNoByOrderID.setParameters</text>
</a>
</g>
</g>
<!-- Node3&#45;&gt;Node21 -->
<g id="edge24" class="edge"><title>Node3&#45;&gt;Node21</title>
<path fill="none" stroke="midnightblue" d="M447.219,-587.461C460.711,-560.841 489.194,-512.128 528,-486 534.761,-481.448 542.173,-477.587 549.875,-474.311"/>
<polygon fill="midnightblue" stroke="midnightblue" points="444.053,-585.969 442.793,-596.488 450.338,-589.051 444.053,-585.969"/>
</g>
<!-- Node22 -->
<g id="node22" class="node"><title>Node22</title>
<g id="a_node22"><a xlink:href="classtomoBay_1_1model_1_1sql_1_1queries_1_1concreteQueries_1_1select_1_1params_1_1SelectEbayOrderByID.html#af9020b85517904668d036bc2bf89433c" target="_top" xlink:title="tomoBay.model.sql.queries.concrete\lQueries.select.params.SelectEbayOrder\lByID.setParameters">
<polygon fill="white" stroke="black" points="548,-375.5 548,-416.5 740,-416.5 740,-375.5 548,-375.5"/>
<text text-anchor="start" x="556" y="-404.5" font-family="Helvetica,sans-Serif" font-size="10.00">tomoBay.model.sql.queries.concrete</text>
<text text-anchor="start" x="556" y="-393.5" font-family="Helvetica,sans-Serif" font-size="10.00">Queries.select.params.SelectEbayOrder</text>
<text text-anchor="middle" x="644" y="-382.5" font-family="Helvetica,sans-Serif" font-size="10.00">ByID.setParameters</text>
</a>
</g>
</g>
<!-- Node3&#45;&gt;Node22 -->
<g id="edge25" class="edge"><title>Node3&#45;&gt;Node22</title>
<path fill="none" stroke="midnightblue" d="M442.591,-586.397C451.392,-549.238 475.713,-468.479 528,-426 534.005,-421.121 540.719,-417.028 547.805,-413.594"/>
<polygon fill="midnightblue" stroke="midnightblue" points="439.112,-585.915 440.344,-596.438 445.943,-587.444 439.112,-585.915"/>
</g>
<!-- Node23 -->
<g id="node23" class="node"><title>Node23</title>
<g id="a_node23"><a xlink:href="classtomoBay_1_1model_1_1sql_1_1queries_1_1concreteQueries_1_1select_1_1params_1_1SelectEbayBuyer.html#af9020b85517904668d036bc2bf89433c" target="_top" xlink:title="tomoBay.model.sql.queries.concrete\lQueries.select.params.SelectEbayBuyer.set\lParameters">
<polygon fill="white" stroke="black" points="539,-315.5 539,-356.5 749,-356.5 749,-315.5 539,-315.5"/>
<text text-anchor="start" x="547" y="-344.5" font-family="Helvetica,sans-Serif" font-size="10.00">tomoBay.model.sql.queries.concrete</text>
<text text-anchor="start" x="547" y="-333.5" font-family="Helvetica,sans-Serif" font-size="10.00">Queries.select.params.SelectEbayBuyer.set</text>
<text text-anchor="middle" x="644" y="-322.5" font-family="Helvetica,sans-Serif" font-size="10.00">Parameters</text>
</a>
</g>
</g>
<!-- Node3&#45;&gt;Node23 -->
<g id="edge26" class="edge"><title>Node3&#45;&gt;Node23</title>
<path fill="none" stroke="midnightblue" d="M439.875,-586.431C444.169,-540.704 461.369,-426.173 528,-366 531.905,-362.474 536.173,-359.352 540.693,-356.59"/>
<polygon fill="midnightblue" stroke="midnightblue" points="436.378,-586.244 439.039,-596.499 443.354,-586.823 436.378,-586.244"/>
</g>
<!-- Node24 -->
<g id="node24" class="node"><title>Node24</title>
<g id="a_node24"><a xlink:href="classtomoBay_1_1model_1_1sql_1_1queries_1_1concreteQueries_1_1select_1_1params_1_1SelectFullOrderLine.html#af9020b85517904668d036bc2bf89433c" target="_top" xlink:title="tomoBay.model.sql.queries.concrete\lQueries.select.params.SelectFullOrder\lLine.setParameters">
<polygon fill="white" stroke="black" points="551.5,-973.5 551.5,-1014.5 736.5,-1014.5 736.5,-973.5 551.5,-973.5"/>
<text text-anchor="start" x="559.5" y="-1002.5" font-family="Helvetica,sans-Serif" font-size="10.00">tomoBay.model.sql.queries.concrete</text>
<text text-anchor="start" x="559.5" y="-991.5" font-family="Helvetica,sans-Serif" font-size="10.00">Queries.select.params.SelectFullOrder</text>
<text text-anchor="middle" x="644" y="-980.5" font-family="Helvetica,sans-Serif" font-size="10.00">Line.setParameters</text>
</a>
</g>
</g>
<!-- Node3&#45;&gt;Node24 -->
<g id="edge27" class="edge"><title>Node3&#45;&gt;Node24</title>
<path fill="none" stroke="midnightblue" d="M440.92,-625.539C449.554,-692.247 480.868,-909.592 528,-959 534.698,-966.022 542.758,-971.647 551.462,-976.152"/>
<polygon fill="midnightblue" stroke="midnightblue" points="444.382,-625.016 439.65,-615.536 437.437,-625.897 444.382,-625.016"/>
</g>
<!-- Node5 -->
<g id="node5" class="node"><title>Node5</title>
<g id="a_node5"><a xlink:href="classtomoBay_1_1model_1_1sql_1_1framework_1_1QueryUtility.html#a2da2ce60a8a037d55bdc69309db4815b" target="_top" xlink:title="private ctor ensures that this class is never instantiated ">
<polygon fill="white" stroke="black" points="871.5,-864.5 871.5,-883.5 939.5,-883.5 939.5,-864.5 871.5,-864.5"/>
<text text-anchor="middle" x="905.5" y="-871.5" font-family="Helvetica,sans-Serif" font-size="10.00">QueryUtility</text>
</a>
</g>
</g>
<!-- Node4&#45;&gt;Node5 -->
<g id="edge4" class="edge"><title>Node4&#45;&gt;Node5</title>
<path fill="none" stroke="midnightblue" d="M706.318,-870.181C757.992,-871.177 829.952,-872.564 871.437,-873.363"/>
<polygon fill="midnightblue" stroke="midnightblue" points="706.334,-866.681 696.269,-869.988 706.2,-873.68 706.334,-866.681"/>
</g>
<!-- Node6 -->
<g id="node6" class="node"><title>Node6</title>
<g id="a_node6"><a xlink:href="classtomoBay_1_1model_1_1sql_1_1queries_1_1concreteQueries_1_1update_1_1UpdateInvoiceStatusSRN.html#af9020b85517904668d036bc2bf89433c" target="_top" xlink:title="tomoBay.model.sql.queries.concrete\lQueries.update.UpdateInvoiceStatusSRN.set\lParameters">
<polygon fill="white" stroke="black" points="798,-804.5 798,-845.5 1013,-845.5 1013,-804.5 798,-804.5"/>
<text text-anchor="start" x="806" y="-833.5" font-family="Helvetica,sans-Serif" font-size="10.00">tomoBay.model.sql.queries.concrete</text>
<text text-anchor="start" x="806" y="-822.5" font-family="Helvetica,sans-Serif" font-size="10.00">Queries.update.UpdateInvoiceStatusSRN.set</text>
<text text-anchor="middle" x="905.5" y="-811.5" font-family="Helvetica,sans-Serif" font-size="10.00">Parameters</text>
</a>
</g>
</g>
<!-- Node4&#45;&gt;Node6 -->
<g id="edge5" class="edge"><title>Node4&#45;&gt;Node6</title>
<path fill="none" stroke="midnightblue" d="M706.44,-858.582C733.741,-853.953 766.686,-848.367 797.803,-843.091"/>
<polygon fill="midnightblue" stroke="midnightblue" points="705.543,-855.184 696.269,-860.307 706.713,-862.086 705.543,-855.184"/>
</g>
<!-- Node4&#45;&gt;Node7 -->
<g id="edge6" class="edge"><title>Node4&#45;&gt;Node7</title>
<path fill="none" stroke="midnightblue" d="M706.047,-872.313C724.682,-875.692 744.36,-881.88 760,-893 785.345,-911.02 771.244,-934.178 796,-953 800.667,-956.549 805.731,-959.677 811.033,-962.436"/>
<polygon fill="midnightblue" stroke="midnightblue" points="706.553,-868.85 696.13,-870.751 705.463,-875.764 706.553,-868.85"/>
</g>
<!-- Node8 -->
<g id="node8" class="node"><title>Node8</title>
<g id="a_node8"><a xlink:href="classtomoBay_1_1model_1_1sql_1_1queries_1_1concreteQueries_1_1insert_1_1InsertOutOfHoursOrders.html#af9020b85517904668d036bc2bf89433c" target="_top" xlink:title="tomoBay.model.sql.queries.concrete\lQueries.insert.InsertOutOfHoursOrders.set\lParameters">
<polygon fill="white" stroke="black" points="804,-744.5 804,-785.5 1007,-785.5 1007,-744.5 804,-744.5"/>
<text text-anchor="start" x="812" y="-773.5" font-family="Helvetica,sans-Serif" font-size="10.00">tomoBay.model.sql.queries.concrete</text>
<text text-anchor="start" x="812" y="-762.5" font-family="Helvetica,sans-Serif" font-size="10.00">Queries.insert.InsertOutOfHoursOrders.set</text>
<text text-anchor="middle" x="905.5" y="-751.5" font-family="Helvetica,sans-Serif" font-size="10.00">Parameters</text>
</a>
</g>
</g>
<!-- Node4&#45;&gt;Node8 -->
<g id="edge7" class="edge"><title>Node4&#45;&gt;Node8</title>
<path fill="none" stroke="midnightblue" d="M706.264,-864.75C724.648,-861.305 744.127,-855.314 760,-845 782.961,-830.079 773.528,-810.648 796,-795 801.132,-791.426 806.677,-788.277 812.45,-785.502"/>
<polygon fill="midnightblue" stroke="midnightblue" points="705.489,-861.331 696.193,-866.414 706.63,-868.237 705.489,-861.331"/>
</g>
<!-- Node4&#45;&gt;Node9 -->
<g id="edge8" class="edge"><title>Node4&#45;&gt;Node9</title>
<path fill="none" stroke="midnightblue" d="M683.836,-882.358C708.362,-892.464 739.229,-908.48 760,-931 786.985,-960.258 765.237,-987.744 796,-1013 800.175,-1016.43 804.735,-1019.39 809.545,-1021.95"/>
<polygon fill="midnightblue" stroke="midnightblue" points="685.029,-879.066 674.442,-878.645 682.455,-885.576 685.029,-879.066"/>
</g>
<!-- Node4&#45;&gt;Node10 -->
<g id="edge9" class="edge"><title>Node4&#45;&gt;Node10</title>
<path fill="none" stroke="midnightblue" d="M706.129,-867.962C725.323,-864.789 745.312,-858.148 760,-845 798.328,-810.691 758.79,-770.518 796,-735 802.22,-729.063 809.508,-724.28 817.311,-720.43"/>
<polygon fill="midnightblue" stroke="midnightblue" points="705.629,-864.498 696.196,-869.321 706.578,-871.433 705.629,-864.498"/>
</g>
<!-- Node4&#45;&gt;Node11 -->
<g id="edge10" class="edge"><title>Node4&#45;&gt;Node11</title>
<path fill="none" stroke="midnightblue" d="M686.957,-855.851C711.594,-846.085 741.442,-830.362 760,-807 797.823,-759.385 753.077,-718.074 796,-675 799.449,-671.539 803.259,-668.468 807.326,-665.744"/>
<polygon fill="midnightblue" stroke="midnightblue" points="685.583,-852.628 677.459,-859.43 688.051,-859.179 685.583,-852.628"/>
</g>
<!-- Node12 -->
<g id="node12" class="node"><title>Node12</title>
<g id="a_node12"><a xlink:href="classtomoBay_1_1model_1_1sql_1_1queries_1_1concreteQueries_1_1select_1_1params_1_1SelectBrandByInv.html#af9020b85517904668d036bc2bf89433c" target="_top" xlink:title="tomoBay.model.sql.queries.concrete\lQueries.select.params.SelectBrandBy\lInv.setParameters">
<polygon fill="white" stroke="black" points="814,-902.5 814,-943.5 997,-943.5 997,-902.5 814,-902.5"/>
<text text-anchor="start" x="822" y="-931.5" font-family="Helvetica,sans-Serif" font-size="10.00">tomoBay.model.sql.queries.concrete</text>
<text text-anchor="start" x="822" y="-920.5" font-family="Helvetica,sans-Serif" font-size="10.00">Queries.select.params.SelectBrandBy</text>
<text text-anchor="middle" x="905.5" y="-909.5" font-family="Helvetica,sans-Serif" font-size="10.00">Inv.setParameters</text>
</a>
</g>
</g>
<!-- Node4&#45;&gt;Node12 -->
<g id="edge11" class="edge"><title>Node4&#45;&gt;Node12</title>
<path fill="none" stroke="midnightblue" d="M700.69,-880.589C733.613,-887.44 776.1,-896.281 813.754,-904.117"/>
<polygon fill="midnightblue" stroke="midnightblue" points="701.299,-877.141 690.796,-878.53 699.873,-883.994 701.299,-877.141"/>
</g>
</g>
</svg>
        <g id="navigator" transform="translate(0 0)" fill="#404254">
                <rect fill="#f2f5e9" fill-opacity="0.5" stroke="#606060" stroke-width=".5" x="0" y="0" width="60" height="60"/>
                <use id="zoomplus" xlink:href="#zoomPlus" x="17" y="9" onmousedown="handleZoom(evt,'in')"/>
                <use id="zoomminus" xlink:href="#zoomMin" x="42" y="9" onmousedown="handleZoom(evt,'out')"/>
                <use id="reset" xlink:href="#resetDef" x="30" y="36" onmousedown="handleReset()"/>
                <g id="arrowUp" xlink:href="#dirArrow" transform="translate(30 24)" onmousedown="handlePan(0,-1)">
                  <use xlink:href="#rim" fill="#404040">
                        <set attributeName="fill" to="#808080" begin="arrowUp.mouseover" end="arrowUp.mouseout"/>
                  </use>
                  <path fill="none" stroke="white" stroke-width="1.5" d="M0,-3.0v7 M-2.5,-0.5L0,-3.0L2.5,-0.5"/>
                </g>
                <g id="arrowRight" xlink:href="#dirArrow" transform="rotate(90) translate(36 -43)" onmousedown="handlePan(1,0)">
                  <use xlink:href="#rim" fill="#404040">
                        <set attributeName="fill" to="#808080" begin="arrowRight.mouseover" end="arrowRight.mouseout"/>
                  </use>
                  <path fill="none" stroke="white" stroke-width="1.5" d="M0,-3.0v7 M-2.5,-0.5L0,-3.0L2.5,-0.5"/>
                </g>
                <g id="arrowDown" xlink:href="#dirArrow" transform="rotate(180) translate(-30 -48)" onmousedown="handlePan(0,1)">
                  <use xlink:href="#rim" fill="#404040">
                        <set attributeName="fill" to="#808080" begin="arrowDown.mouseover" end="arrowDown.mouseout"/>
                  </use>
                  <path fill="none" stroke="white" stroke-width="1.5" d="M0,-3.0v7 M-2.5,-0.5L0,-3.0L2.5,-0.5"/>
                </g>
                <g id="arrowLeft" xlink:href="#dirArrow" transform="rotate(270) translate(-36 17)" onmousedown="handlePan(-1,0)">
                  <use xlink:href="#rim" fill="#404040">
                        <set attributeName="fill" to="#808080" begin="arrowLeft.mouseover" end="arrowLeft.mouseout"/>
                  </use>
                  <path fill="none" stroke="white" stroke-width="1.5" d="M0,-3.0v7 M-2.5,-0.5L0,-3.0L2.5,-0.5"/>
                </g>
        </g>
        <svg viewBox="0 0 15 15" width="100%" height="30px" preserveAspectRatio="xMaxYMin meet">
         <g id="arrow_out" transform="scale(0.3 0.3)">
          <a xlink:href="classtomoBay_1_1model_1_1sql_1_1framework_1_1QueryUtility_a138f0c046bc0a6df71b168ab35c3c3e3_icgraph_org.svg" target="_base">
           <rect id="button" ry="5" rx="5" y="6" x="6" height="38" width="38"
                fill="#f2f5e9" fill-opacity="0.5" stroke="#606060" stroke-width="1.0"/>
           <path id="arrow"
             d="M 11.500037,31.436501 C 11.940474,20.09759 22.043105,11.32322 32.158766,21.979434 L 37.068811,17.246167 C 37.068811,17.246167 37.088388,32 37.088388,32 L 22.160133,31.978069 C 22.160133,31.978069 26.997745,27.140456 26.997745,27.140456 C 18.528582,18.264221 13.291696,25.230495 11.500037,31.436501 z"
             style="fill:#404040;"/>
          </a>
         </g>
        </svg>
</svg>
