<?xml version="1.0" encoding="UTF-8" standalone="no"?>
<!DOCTYPE svg PUBLIC "-//W3C//DTD SVG 1.1//EN"
 "http://www.w3.org/Graphics/SVG/1.1/DTD/svg11.dtd">
<!-- Generated by graphviz version 2.38.0 (20140413.2041)
 -->
<!-- Title: UpdateInvoiceStatusSRNFactory Pages: 1 -->
<svg width="171pt" height="359pt"
 viewBox="0.00 0.00 171.00 359.00" xmlns="http://www.w3.org/2000/svg" xmlns:xlink="http://www.w3.org/1999/xlink">
<g id="graph0" class="graph" transform="scale(1 1) rotate(0) translate(4 355)">
<title>UpdateInvoiceStatusSRNFactory</title>
<polygon fill="white" stroke="none" points="-4,4 -4,-355 167,-355 167,4 -4,4"/>
<!-- Node1 -->
<g id="node1" class="node"><title>Node1</title>
<polygon fill="#bfbfbf" stroke="black" points="0,-0.5 0,-57.5 163,-57.5 163,-0.5 0,-0.5"/>
<text text-anchor="middle" x="81.5" y="-45.5" font-family="Helvetica,sans-Serif" font-size="10.00">UpdateInvoiceStatusSRNFactory</text>
<polyline fill="none" stroke="black" points="0,-38.5 163,-38.5 "/>
<text text-anchor="middle" x="81.5" y="-26.5" font-family="Helvetica,sans-Serif" font-size="10.00"> </text>
<polyline fill="none" stroke="black" points="0,-19.5 163,-19.5 "/>
<text text-anchor="start" x="8" y="-7.5" font-family="Helvetica,sans-Serif" font-size="10.00">+ make()</text>
</g>
<!-- Node2 -->
<g id="node2" class="node"><title>Node2</title>
<g id="a_node2"><a xlink:href="interfacetomoBay_1_1model_1_1sql_1_1framework_1_1queryFactories_1_1AbstractModifyQueryParamsFactory.html" target="_top" xlink:title="{AbstractModifyQueryParams\lFactory\n||+ make()\l}">
<polygon fill="white" stroke="black" points="10,-94.5 10,-162.5 153,-162.5 153,-94.5 10,-94.5"/>
<text text-anchor="start" x="18" y="-150.5" font-family="Helvetica,sans-Serif" font-size="10.00">AbstractModifyQueryParams</text>
<text text-anchor="middle" x="81.5" y="-139.5" font-family="Helvetica,sans-Serif" font-size="10.00">Factory</text>
<polyline fill="none" stroke="black" points="10,-132.5 153,-132.5 "/>
<text text-anchor="middle" x="81.5" y="-120.5" font-family="Helvetica,sans-Serif" font-size="10.00"> </text>
<polyline fill="none" stroke="black" points="10,-113.5 153,-113.5 "/>
<text text-anchor="start" x="18" y="-101.5" font-family="Helvetica,sans-Serif" font-size="10.00">+ make()</text>
</a>
</g>
</g>
<!-- Node2&#45;&gt;Node1 -->
<g id="edge1" class="edge"><title>Node2&#45;&gt;Node1</title>
<path fill="none" stroke="midnightblue" d="M81.5,-84.4538C81.5,-75.4036 81.5,-66.0876 81.5,-57.7765"/>
<polygon fill="none" stroke="midnightblue" points="78.0001,-84.4909 81.5,-94.4909 85.0001,-84.491 78.0001,-84.4909"/>
</g>
<!-- Node3 -->
<g id="node3" class="node"><title>Node3</title>
<g id="a_node3"><a xlink:href="interfacetomoBay_1_1model_1_1sql_1_1framework_1_1queryFactories_1_1AbstractModifyQueryFactory.html" target="_top" xlink:title="{AbstractModifyQueryFactory\n||+ make()\l}">
<polygon fill="white" stroke="black" points="10.5,-199.5 10.5,-256.5 152.5,-256.5 152.5,-199.5 10.5,-199.5"/>
<text text-anchor="middle" x="81.5" y="-244.5" font-family="Helvetica,sans-Serif" font-size="10.00">AbstractModifyQueryFactory</text>
<polyline fill="none" stroke="black" points="10.5,-237.5 152.5,-237.5 "/>
<text text-anchor="middle" x="81.5" y="-225.5" font-family="Helvetica,sans-Serif" font-size="10.00"> </text>
<polyline fill="none" stroke="black" points="10.5,-218.5 152.5,-218.5 "/>
<text text-anchor="start" x="18.5" y="-206.5" font-family="Helvetica,sans-Serif" font-size="10.00">+ make()</text>
</a>
</g>
</g>
<!-- Node3&#45;&gt;Node2 -->
<g id="edge2" class="edge"><title>Node3&#45;&gt;Node2</title>
<path fill="none" stroke="midnightblue" d="M81.5,-189.063C81.5,-180.393 81.5,-171.243 81.5,-162.786"/>
<polygon fill="none" stroke="midnightblue" points="78.0001,-189.321 81.5,-199.321 85.0001,-189.321 78.0001,-189.321"/>
</g>
<!-- Node4 -->
<g id="node4" class="node"><title>Node4</title>
<g id="a_node4"><a xlink:href="interfacetomoBay_1_1model_1_1sql_1_1framework_1_1queryFactories_1_1AbstractQueryFactory.html" target="_top" xlink:title="all Queries are instantiated using a factory and each of these factories must conform to this interfa...">
<polygon fill="white" stroke="black" points="25,-293.5 25,-350.5 138,-350.5 138,-293.5 25,-293.5"/>
<text text-anchor="middle" x="81.5" y="-338.5" font-family="Helvetica,sans-Serif" font-size="10.00">AbstractQueryFactory</text>
<polyline fill="none" stroke="black" points="25,-331.5 138,-331.5 "/>
<text text-anchor="middle" x="81.5" y="-319.5" font-family="Helvetica,sans-Serif" font-size="10.00"> </text>
<polyline fill="none" stroke="black" points="25,-312.5 138,-312.5 "/>
<text text-anchor="start" x="33" y="-300.5" font-family="Helvetica,sans-Serif" font-size="10.00">+ make()</text>
</a>
</g>
</g>
<!-- Node4&#45;&gt;Node3 -->
<g id="edge3" class="edge"><title>Node4&#45;&gt;Node3</title>
<path fill="none" stroke="midnightblue" d="M81.5,-283.209C81.5,-274.293 81.5,-264.951 81.5,-256.584"/>
<polygon fill="none" stroke="midnightblue" points="78.0001,-283.397 81.5,-293.397 85.0001,-283.397 78.0001,-283.397"/>
</g>
</g>
</svg>
