<?xml version="1.0" encoding="UTF-8" standalone="no"?>
<!DOCTYPE svg PUBLIC "-//W3C//DTD SVG 1.1//EN"
 "http://www.w3.org/Graphics/SVG/1.1/DTD/svg11.dtd">
<!-- Generated by graphviz version 2.38.0 (20140413.2041)
 -->
<!-- Title: make Pages: 1 -->
<svg width="306pt" height="148pt"
 viewBox="0.00 0.00 306.00 147.50" xmlns="http://www.w3.org/2000/svg" xmlns:xlink="http://www.w3.org/1999/xlink">
<g id="graph0" class="graph" transform="scale(1 1) rotate(0) translate(4 143.5)">
<title>make</title>
<polygon fill="white" stroke="none" points="-4,4 -4,-143.5 302,-143.5 302,4 -4,4"/>
<!-- Node1 -->
<g id="node1" class="node"><title>Node1</title>
<polygon fill="#bfbfbf" stroke="black" points="0,-65.5 0,-84.5 41,-84.5 41,-65.5 0,-65.5"/>
<text text-anchor="middle" x="20.5" y="-72.5" font-family="Helvetica,sans-Serif" font-size="10.00">make</text>
</g>
<!-- Node2 -->
<g id="node2" class="node"><title>Node2</title>
<g id="a_node2"><a xlink:href="classtomoBay_1_1presenters_1_1presenterActions_1_1concreteActions_1_1OrderInfo.html#adb3dedf31dc2c7fc796f20406c235ccd" target="_top" xlink:title="performs the action specified ">
<polygon fill="white" stroke="black" points="85.5,-109 85.5,-139 289.5,-139 289.5,-109 85.5,-109"/>
<text text-anchor="start" x="93.5" y="-127" font-family="Helvetica,sans-Serif" font-size="10.00">tomoBay.presenters.presenter</text>
<text text-anchor="middle" x="187.5" y="-116" font-family="Helvetica,sans-Serif" font-size="10.00">Actions.concreteActions.OrderInfo.execute</text>
</a>
</g>
</g>
<!-- Node1&#45;&gt;Node2 -->
<g id="edge1" class="edge"><title>Node1&#45;&gt;Node2</title>
<path fill="none" stroke="midnightblue" d="M49.4128,-88.9335C58.1019,-92.8989 67.8151,-96.9613 77,-100 87.0699,-103.331 97.815,-106.332 108.491,-108.992"/>
<polygon fill="midnightblue" stroke="midnightblue" points="50.6587,-85.6516 40.1205,-84.5575 47.6763,-91.9845 50.6587,-85.6516"/>
</g>
<!-- Node3 -->
<g id="node3" class="node"><title>Node3</title>
<g id="a_node3"><a xlink:href="classtomoBay_1_1presenters_1_1presenterActions_1_1concreteActions_1_1PrintInvoices.html#adb3dedf31dc2c7fc796f20406c235ccd" target="_top" xlink:title="performs the action specified ">
<polygon fill="white" stroke="black" points="77,-60 77,-90 298,-90 298,-60 77,-60"/>
<text text-anchor="start" x="85" y="-78" font-family="Helvetica,sans-Serif" font-size="10.00">tomoBay.presenters.presenter</text>
<text text-anchor="middle" x="187.5" y="-67" font-family="Helvetica,sans-Serif" font-size="10.00">Actions.concreteActions.PrintInvoices.execute</text>
</a>
</g>
</g>
<!-- Node1&#45;&gt;Node3 -->
<g id="edge2" class="edge"><title>Node1&#45;&gt;Node3</title>
<path fill="none" stroke="midnightblue" d="M51.1583,-75C58.8254,-75 67.5438,-75 76.7742,-75"/>
<polygon fill="midnightblue" stroke="midnightblue" points="51.0756,-71.5001 41.0756,-75 51.0756,-78.5001 51.0756,-71.5001"/>
</g>
<!-- Node4 -->
<g id="node4" class="node"><title>Node4</title>
<g id="a_node4"><a xlink:href="classtomoBay_1_1presenters_1_1presenterActions_1_1concreteActions_1_1InvoiceOrders.html#adb3dedf31dc2c7fc796f20406c235ccd" target="_top" xlink:title="performs the action specified ">
<polygon fill="white" stroke="black" points="108.5,-0.5 108.5,-41.5 266.5,-41.5 266.5,-0.5 108.5,-0.5"/>
<text text-anchor="start" x="116.5" y="-29.5" font-family="Helvetica,sans-Serif" font-size="10.00">tomoBay.presenters.presenter</text>
<text text-anchor="start" x="116.5" y="-18.5" font-family="Helvetica,sans-Serif" font-size="10.00">Actions.concreteActions.Invoice</text>
<text text-anchor="middle" x="187.5" y="-7.5" font-family="Helvetica,sans-Serif" font-size="10.00">Orders.execute</text>
</a>
</g>
</g>
<!-- Node1&#45;&gt;Node4 -->
<g id="edge3" class="edge"><title>Node1&#45;&gt;Node4</title>
<path fill="none" stroke="midnightblue" d="M50.1812,-61.6839C58.7136,-57.9721 68.1486,-54.109 77,-51 87.0425,-47.4727 97.7204,-44.0986 108.319,-40.9701"/>
<polygon fill="midnightblue" stroke="midnightblue" points="48.7255,-58.5007 41.0105,-65.7621 51.5699,-64.8967 48.7255,-58.5007"/>
</g>
</g>
</svg>
