<?xml version="1.0" encoding="UTF-8" standalone="no"?>
<!DOCTYPE svg PUBLIC "-//W3C//DTD SVG 1.1//EN"
 "http://www.w3.org/Graphics/SVG/1.1/DTD/svg11.dtd">
<!-- Generated by graphviz version 2.38.0 (20140413.2041)
 -->
<!-- Title: isInRange Pages: 1 -->
<svg width="173pt" height="66pt"
 viewBox="0.00 0.00 173.00 66.00" xmlns="http://www.w3.org/2000/svg" xmlns:xlink="http://www.w3.org/1999/xlink">
<g id="graph0" class="graph" transform="scale(1 1) rotate(0) translate(4 62)">
<title>isInRange</title>
<polygon fill="white" stroke="none" points="-4,4 -4,-62 169,-62 169,4 -4,4"/>
<!-- Node1 -->
<g id="node1" class="node"><title>Node1</title>
<polygon fill="#bfbfbf" stroke="black" points="0,-19.5 0,-38.5 61,-38.5 61,-19.5 0,-19.5"/>
<text text-anchor="middle" x="30.5" y="-26.5" font-family="Helvetica,sans-Serif" font-size="10.00">isInRange</text>
</g>
<!-- Node2 -->
<g id="node2" class="node"><title>Node2</title>
<g id="a_node2"><a xlink:href="classtomoBay_1_1helpers_1_1checkTime_1_1CheckTime.html#af394562cb305633b3bbf2c09a3fb1fc6" target="_top" xlink:title="queries the current day ">
<polygon fill="white" stroke="black" points="98.5,-38.5 98.5,-57.5 163.5,-57.5 163.5,-38.5 98.5,-38.5"/>
<text text-anchor="middle" x="131" y="-45.5" font-family="Helvetica,sans-Serif" font-size="10.00">currentDay</text>
</a>
</g>
</g>
<!-- Node1&#45;&gt;Node2 -->
<g id="edge1" class="edge"><title>Node1&#45;&gt;Node2</title>
<path fill="none" stroke="midnightblue" d="M61.0532,-34.7006C69.7092,-36.3703 79.3371,-38.2275 88.5865,-40.0116"/>
<polygon fill="midnightblue" stroke="midnightblue" points="87.9287,-43.4492 98.4106,-41.9066 89.2545,-36.5759 87.9287,-43.4492"/>
</g>
<!-- Node3 -->
<g id="node3" class="node"><title>Node3</title>
<g id="a_node3"><a xlink:href="classtomoBay_1_1helpers_1_1checkTime_1_1CheckTime.html#a7f5f1b75867f0102f330c328973abad9" target="_top" xlink:title="queries the current time ">
<polygon fill="white" stroke="black" points="97,-0.5 97,-19.5 165,-19.5 165,-0.5 97,-0.5"/>
<text text-anchor="middle" x="131" y="-7.5" font-family="Helvetica,sans-Serif" font-size="10.00">currentTime</text>
</a>
</g>
</g>
<!-- Node1&#45;&gt;Node3 -->
<g id="edge2" class="edge"><title>Node1&#45;&gt;Node3</title>
<path fill="none" stroke="midnightblue" d="M61.0532,-23.2994C69.1178,-21.7438 78.0259,-20.0255 86.6855,-18.3551"/>
<polygon fill="midnightblue" stroke="midnightblue" points="87.5156,-21.7596 96.6717,-16.4288 86.1898,-14.8863 87.5156,-21.7596"/>
</g>
</g>
</svg>
