<?xml version="1.0" encoding="UTF-8" standalone="no"?>
<!DOCTYPE svg PUBLIC "-//W3C//DTD SVG 1.1//EN"
 "http://www.w3.org/Graphics/SVG/1.1/DTD/svg11.dtd">
<!-- Generated by graphviz version 2.38.0 (20140413.2041)
 -->
<!-- Title: createdTime Pages: 1 -->
<svg width="815pt" height="131pt"
 viewBox="0.00 0.00 815.00 131.00" xmlns="http://www.w3.org/2000/svg" xmlns:xlink="http://www.w3.org/1999/xlink">
<g id="graph0" class="graph" transform="scale(1 1) rotate(0) translate(4 127)">
<title>createdTime</title>
<polygon fill="white" stroke="none" points="-4,4 -4,-127 811,-127 811,4 -4,4"/>
<!-- Node1 -->
<g id="node1" class="node"><title>Node1</title>
<polygon fill="#bfbfbf" stroke="black" points="0,-65.5 0,-84.5 71,-84.5 71,-65.5 0,-65.5"/>
<text text-anchor="middle" x="35.5" y="-72.5" font-family="Helvetica,sans-Serif" font-size="10.00">createdTime</text>
</g>
<!-- Node2 -->
<g id="node2" class="node"><title>Node2</title>
<g id="a_node2"><a xlink:href="classtomoBay_1_1presenters_1_1presenterActions_1_1concreteActions_1_1InvoiceOrders.html#adb3dedf31dc2c7fc796f20406c235ccd" target="_top" xlink:title="performs the action specified ">
<polygon fill="white" stroke="black" points="389.5,-81.5 389.5,-122.5 547.5,-122.5 547.5,-81.5 389.5,-81.5"/>
<text text-anchor="start" x="397.5" y="-110.5" font-family="Helvetica,sans-Serif" font-size="10.00">tomoBay.presenters.presenter</text>
<text text-anchor="start" x="397.5" y="-99.5" font-family="Helvetica,sans-Serif" font-size="10.00">Actions.concreteActions.Invoice</text>
<text text-anchor="middle" x="468.5" y="-88.5" font-family="Helvetica,sans-Serif" font-size="10.00">Orders.execute</text>
</a>
</g>
</g>
<!-- Node1&#45;&gt;Node2 -->
<g id="edge1" class="edge"><title>Node1&#45;&gt;Node2</title>
<path fill="none" stroke="midnightblue" d="M62.7492,-89.1563C75.676,-95.3412 91.7326,-101.887 107,-105 202.67,-124.509 315.609,-119.127 389.245,-111.946"/>
<polygon fill="midnightblue" stroke="midnightblue" points="64.0495,-85.8936 53.5389,-84.5598 60.9237,-92.157 64.0495,-85.8936"/>
</g>
<!-- Node3 -->
<g id="node3" class="node"><title>Node3</title>
<g id="a_node3"><a xlink:href="classtomoBay_1_1presenters_1_1presenterActions_1_1concreteActions_1_1InvoiceOrders.html#a589f75735e26f66e44061ac5047d0cf0" target="_top" xlink:title="tomoBay.presenters.presenter\lActions.concreteActions.Invoice\lOrders.formatMailResult">
<polygon fill="white" stroke="black" points="141.5,-54.5 141.5,-95.5 299.5,-95.5 299.5,-54.5 141.5,-54.5"/>
<text text-anchor="start" x="149.5" y="-83.5" font-family="Helvetica,sans-Serif" font-size="10.00">tomoBay.presenters.presenter</text>
<text text-anchor="start" x="149.5" y="-72.5" font-family="Helvetica,sans-Serif" font-size="10.00">Actions.concreteActions.Invoice</text>
<text text-anchor="middle" x="220.5" y="-61.5" font-family="Helvetica,sans-Serif" font-size="10.00">Orders.formatMailResult</text>
</a>
</g>
</g>
<!-- Node1&#45;&gt;Node3 -->
<g id="edge2" class="edge"><title>Node1&#45;&gt;Node3</title>
<path fill="none" stroke="midnightblue" d="M81.5406,-75C99.5397,-75 120.804,-75 141.177,-75"/>
<polygon fill="midnightblue" stroke="midnightblue" points="81.3517,-71.5001 71.3516,-75 81.3516,-78.5001 81.3517,-71.5001"/>
</g>
<!-- Node4 -->
<g id="node4" class="node"><title>Node4</title>
<g id="a_node4"><a xlink:href="classtomoBay_1_1presenters_1_1presenterActions_1_1concreteActions_1_1OrderInfo.html#a95f980d76c5d92ed97b2aaab0d2d0c21" target="_top" xlink:title="formats the summary information for this Order ">
<polygon fill="white" stroke="black" points="107,-6 107,-36 334,-36 334,-6 107,-6"/>
<text text-anchor="start" x="115" y="-24" font-family="Helvetica,sans-Serif" font-size="10.00">tomoBay.presenters.presenter</text>
<text text-anchor="middle" x="220.5" y="-13" font-family="Helvetica,sans-Serif" font-size="10.00">Actions.concreteActions.OrderInfo.summaryInfo</text>
</a>
</g>
</g>
<!-- Node1&#45;&gt;Node4 -->
<g id="edge4" class="edge"><title>Node1&#45;&gt;Node4</title>
<path fill="none" stroke="midnightblue" d="M65.6332,-61.1124C78.1578,-55.5347 93.0896,-49.3985 107,-45 117.473,-41.6885 128.638,-38.6921 139.716,-36.0283"/>
<polygon fill="midnightblue" stroke="midnightblue" points="63.8204,-58.092 56.1703,-65.4219 66.7216,-64.4625 63.8204,-58.092"/>
</g>
<!-- Node3&#45;&gt;Node2 -->
<g id="edge3" class="edge"><title>Node3&#45;&gt;Node2</title>
<path fill="none" stroke="midnightblue" d="M309.856,-84.6976C335.752,-87.5398 363.878,-90.6268 389.107,-93.3959"/>
<polygon fill="midnightblue" stroke="midnightblue" points="309.996,-81.1921 299.674,-83.5801 309.232,-88.1503 309.996,-81.1921"/>
</g>
<!-- Node5 -->
<g id="node5" class="node"><title>Node5</title>
<g id="a_node5"><a xlink:href="classtomoBay_1_1presenters_1_1presenterActions_1_1concreteActions_1_1OrderInfo.html#afeec1aeda079b77245edea1e74b25f33" target="_top" xlink:title="assembles the various parts of the order and outputs it as a fully formed JSON string. ">
<polygon fill="white" stroke="black" points="370,-0.5 370,-41.5 567,-41.5 567,-0.5 370,-0.5"/>
<text text-anchor="start" x="378" y="-29.5" font-family="Helvetica,sans-Serif" font-size="10.00">tomoBay.presenters.presenter</text>
<text text-anchor="start" x="378" y="-18.5" font-family="Helvetica,sans-Serif" font-size="10.00">Actions.concreteActions.OrderInfo.format</text>
<text text-anchor="middle" x="468.5" y="-7.5" font-family="Helvetica,sans-Serif" font-size="10.00">Results</text>
</a>
</g>
</g>
<!-- Node4&#45;&gt;Node5 -->
<g id="edge5" class="edge"><title>Node4&#45;&gt;Node5</title>
<path fill="none" stroke="midnightblue" d="M344.116,-21C352.691,-21 361.269,-21 369.682,-21"/>
<polygon fill="midnightblue" stroke="midnightblue" points="344.061,-17.5001 334.061,-21 344.061,-24.5001 344.061,-17.5001"/>
</g>
<!-- Node6 -->
<g id="node6" class="node"><title>Node6</title>
<g id="a_node6"><a xlink:href="classtomoBay_1_1presenters_1_1presenterActions_1_1concreteActions_1_1OrderInfo.html#adb3dedf31dc2c7fc796f20406c235ccd" target="_top" xlink:title="performs the action specified ">
<polygon fill="white" stroke="black" points="603,-6 603,-36 807,-36 807,-6 603,-6"/>
<text text-anchor="start" x="611" y="-24" font-family="Helvetica,sans-Serif" font-size="10.00">tomoBay.presenters.presenter</text>
<text text-anchor="middle" x="705" y="-13" font-family="Helvetica,sans-Serif" font-size="10.00">Actions.concreteActions.OrderInfo.execute</text>
</a>
</g>
</g>
<!-- Node5&#45;&gt;Node6 -->
<g id="edge6" class="edge"><title>Node5&#45;&gt;Node6</title>
<path fill="none" stroke="midnightblue" d="M577.441,-21C585.831,-21 594.285,-21 602.629,-21"/>
<polygon fill="midnightblue" stroke="midnightblue" points="577.251,-17.5001 567.251,-21 577.251,-24.5001 577.251,-17.5001"/>
</g>
</g>
</svg>
