<?xml version="1.0" encoding="UTF-8" standalone="no"?>
<!DOCTYPE svg PUBLIC "-//W3C//DTD SVG 1.1//EN"
 "http://www.w3.org/Graphics/SVG/1.1/DTD/svg11.dtd">
<!-- Generated by graphviz version 2.38.0 (20140413.2041)
 -->
<!-- Title: tomoBay.model.services.ServiceFactory Pages: 1 -->
<svg width="183pt" height="215pt"
 viewBox="0.00 0.00 183.50 215.00" xmlns="http://www.w3.org/2000/svg" xmlns:xlink="http://www.w3.org/1999/xlink">
<g id="graph0" class="graph" transform="scale(1 1) rotate(0) translate(4 211)">
<title>tomoBay.model.services.ServiceFactory</title>
<!-- Node1 -->
<g id="node1" class="node"><title>Node1</title>
<polygon fill="#bfbfbf" stroke="black" points="5,-0.5 5,-68.5 166,-68.5 166,-0.5 5,-0.5"/>
<text text-anchor="start" x="13" y="-56.5" font-family="Helvetica,sans-Serif" font-size="10.00">tomoBay.model.services.Service</text>
<text text-anchor="middle" x="85.5" y="-45.5" font-family="Helvetica,sans-Serif" font-size="10.00">Factory</text>
<polyline fill="none" stroke="black" points="5,-38.5 166,-38.5 "/>
<text text-anchor="middle" x="85.5" y="-26.5" font-family="Helvetica,sans-Serif" font-size="10.00"> </text>
<polyline fill="none" stroke="black" points="5,-19.5 166,-19.5 "/>
<text text-anchor="start" x="13" y="-7.5" font-family="Helvetica,sans-Serif" font-size="10.00">+ make()</text>
</g>
<!-- Node2 -->
<g id="node2" class="node"><title>Node2</title>
<polygon fill="none" stroke="#bfbfbf" points="0,-116.5 0,-206.5 171,-206.5 171,-116.5 0,-116.5"/>
<text text-anchor="start" x="8" y="-194.5" font-family="Helvetica,sans-Serif" font-size="10.00">Map&lt; tomoBay.model.services.</text>
<text text-anchor="start" x="8" y="-183.5" font-family="Helvetica,sans-Serif" font-size="10.00">ServiceFactory.ServiceType,</text>
<text text-anchor="start" x="8" y="-172.5" font-family="Helvetica,sans-Serif" font-size="10.00"> tomoBay.model.services.factories.</text>
<text text-anchor="middle" x="85.5" y="-161.5" font-family="Helvetica,sans-Serif" font-size="10.00">AbstractServiceFactory &gt;</text>
<polyline fill="none" stroke="#bfbfbf" points="0,-154.5 171,-154.5 "/>
<text text-anchor="middle" x="85.5" y="-142.5" font-family="Helvetica,sans-Serif" font-size="10.00"> </text>
<polyline fill="none" stroke="#bfbfbf" points="0,-135.5 171,-135.5 "/>
<text text-anchor="middle" x="85.5" y="-123.5" font-family="Helvetica,sans-Serif" font-size="10.00"> </text>
</g>
<!-- Node2&#45;&gt;Node1 -->
<g id="edge1" class="edge"><title>Node2&#45;&gt;Node1</title>
<path fill="none" stroke="#404040" d="M85.5,-116.43C85.5,-104.867 85.5,-92.3802 85.5,-80.7566"/>
<polygon fill="none" stroke="#404040" points="85.5001,-80.5672 81.5,-74.5672 85.5,-68.5672 89.5,-74.5671 85.5001,-80.5672"/>
<text text-anchor="middle" x="130.5" y="-90" font-family="Helvetica,sans-Serif" font-size="10.00"> &#45;serviceFactoryMap</text>
</g>
</g>
</svg>
