<?xml version="1.0" encoding="UTF-8" standalone="no"?>
<!DOCTYPE svg PUBLIC "-//W3C//DTD SVG 1.1//EN"
 "http://www.w3.org/Graphics/SVG/1.1/DTD/svg11.dtd">
<!-- Generated by graphviz version 2.38.0 (20140413.2041)
 -->
<!-- Title: tomoBay.presenters.sales.SalesOrderPresenter.present Pages: 1 -->
<!--zoomable 235 -->
<svg id="main" version="1.1" xmlns="http://www.w3.org/2000/svg" xmlns:xlink="http://www.w3.org/1999/xlink" xml:space="preserve" onload="init(evt)">
<style type="text/css"><![CDATA[
.edge:hover path { stroke: red; }
.edge:hover polygon { stroke: red; fill: red; }
]]></style>
<script type="text/javascript"><![CDATA[
var edges = document.getElementsByTagName('g');
if (edges && edges.length) {
  for (var i=0;i<edges.length;i++) {
    if (edges[i].id.substr(0,4)=='edge') {
      edges[i].setAttribute('class','edge');
    }
  }
}
]]></script>
        <defs>
                <circle id="rim" cx="0" cy="0" r="7"/>
                <circle id="rim2" cx="0" cy="0" r="3.5"/>
                <g id="zoomPlus">
                        <use xlink:href="#rim" fill="#404040">
                                <set attributeName="fill" to="#808080" begin="zoomplus.mouseover" end="zoomplus.mouseout"/>
                        </use>
                        <path d="M-4,0h8M0,-4v8" fill="none" stroke="white" stroke-width="1.5" pointer-events="none"/>
                </g>
                <g id="zoomMin">
                        <use xlink:href="#rim" fill="#404040">
                                <set attributeName="fill" to="#808080" begin="zoomminus.mouseover" end="zoomminus.mouseout"/>
                        </use>
                        <path d="M-4,0h8" fill="none" stroke="white" stroke-width="1.5" pointer-events="none"/>
                </g>
                <g id="dirArrow">
                        <path fill="none" stroke="white" stroke-width="1.5" d="M0,-3.0v7 M-2.5,-0.5L0,-3.0L2.5,-0.5"/>
                </g>
               <g id="resetDef">
                       <use xlink:href="#rim2" fill="#404040">
                               <set attributeName="fill" to="#808080" begin="reset.mouseover" end="reset.mouseout"/>
                       </use>
               </g>
        </defs>

<script type="text/javascript">
var viewWidth = 726;
var viewHeight = 235;
var sectionId = 'dynsection-5';
</script>
<script xlink:href="svgpan.js"/>
<svg id="graph" class="graph">
<g id="viewport">
<title>tomoBay.presenters.sales.SalesOrderPresenter.present</title>
<!-- Node1 -->
<g id="node1" class="node"><title>Node1</title>
<polygon fill="#bfbfbf" stroke="black" points="0,-122.5 0,-152.5 143,-152.5 143,-122.5 0,-122.5"/>
<text text-anchor="start" x="8" y="-140.5" font-family="Helvetica,sans-Serif" font-size="10.00">tomoBay.presenters.sales.</text>
<text text-anchor="middle" x="71.5" y="-129.5" font-family="Helvetica,sans-Serif" font-size="10.00">SalesOrderPresenter.present</text>
</g>
<!-- Node2 -->
<g id="node2" class="node"><title>Node2</title>
<g id="a_node2"><a xlink:href="classtomoBay_1_1presenters_1_1sales_1_1SalesOrderPresenter.html#a846dee3a49dda9dd65a5b3973e65ef63" target="_top" xlink:title="tomoBay.presenters.sales.\lSalesOrderPresenter.doStuff">
<polygon fill="none" stroke="black" points="179,-183.5 179,-213.5 321,-213.5 321,-183.5 179,-183.5"/>
<text text-anchor="start" x="187" y="-201.5" font-family="Helvetica,sans-Serif" font-size="10.00">tomoBay.presenters.sales.</text>
<text text-anchor="middle" x="250" y="-190.5" font-family="Helvetica,sans-Serif" font-size="10.00">SalesOrderPresenter.doStuff</text>
</a>
</g>
</g>
<!-- Node1&#45;&gt;Node2 -->
<g id="edge1" class="edge"><title>Node1&#45;&gt;Node2</title>
<path fill="none" stroke="midnightblue" d="M116.129,-152.579C140.298,-160.932 170.526,-171.379 196.041,-180.197"/>
<polygon fill="midnightblue" stroke="midnightblue" points="194.972,-183.531 205.567,-183.489 197.259,-176.915 194.972,-183.531"/>
</g>
<!-- Node4 -->
<g id="node4" class="node"><title>Node4</title>
<g id="a_node4"><a xlink:href="classtomoBay_1_1model_1_1sql_1_1queries_1_1QueryInvoker.html#af9783588735e13b18741b48b375ca626" target="_top" xlink:title="tomoBay.model.sql.queries.\lQueryInvoker.execute">
<polygon fill="none" stroke="black" points="181,-122.5 181,-152.5 319,-152.5 319,-122.5 181,-122.5"/>
<text text-anchor="start" x="189" y="-140.5" font-family="Helvetica,sans-Serif" font-size="10.00">tomoBay.model.sql.queries.</text>
<text text-anchor="middle" x="250" y="-129.5" font-family="Helvetica,sans-Serif" font-size="10.00">QueryInvoker.execute</text>
</a>
</g>
</g>
<!-- Node1&#45;&gt;Node4 -->
<g id="edge3" class="edge"><title>Node1&#45;&gt;Node4</title>
<path fill="none" stroke="midnightblue" d="M143.018,-137.5C152.088,-137.5 161.418,-137.5 170.604,-137.5"/>
<polygon fill="midnightblue" stroke="midnightblue" points="170.892,-141 180.892,-137.5 170.892,-134 170.892,-141"/>
</g>
<!-- Node7 -->
<g id="node7" class="node"><title>Node7</title>
<g id="a_node7"><a xlink:href="classtomoBay_1_1presenters_1_1helpers_1_1SortOrders.html#a38a09bf83f65ff656d06b9d45046872c" target="_top" xlink:title="tomoBay.presenters.helpers.\lSortOrders.sortDefault">
<polygon fill="none" stroke="black" points="179,-49.5 179,-79.5 321,-79.5 321,-49.5 179,-49.5"/>
<text text-anchor="start" x="187" y="-67.5" font-family="Helvetica,sans-Serif" font-size="10.00">tomoBay.presenters.helpers.</text>
<text text-anchor="middle" x="250" y="-56.5" font-family="Helvetica,sans-Serif" font-size="10.00">SortOrders.sortDefault</text>
</a>
</g>
</g>
<!-- Node1&#45;&gt;Node7 -->
<g id="edge6" class="edge"><title>Node1&#45;&gt;Node7</title>
<path fill="none" stroke="midnightblue" d="M109.071,-122.374C136.286,-111.118 173.626,-95.6746 202.888,-83.5718"/>
<polygon fill="midnightblue" stroke="midnightblue" points="204.573,-86.6626 212.476,-79.6063 201.897,-80.194 204.573,-86.6626"/>
</g>
<!-- Node3 -->
<g id="node3" class="node"><title>Node3</title>
<g id="a_node3"><a xlink:href="classtomoBay_1_1presenters_1_1sales_1_1SalesOrderPresenter.html#a0f3177ceb6b98462daf899e6f27e7a11" target="_top" xlink:title="tomoBay.presenters.sales.\lSalesOrderPresenter.pickeability">
<polygon fill="none" stroke="black" points="357,-196.5 357,-226.5 516,-226.5 516,-196.5 357,-196.5"/>
<text text-anchor="start" x="365" y="-214.5" font-family="Helvetica,sans-Serif" font-size="10.00">tomoBay.presenters.sales.</text>
<text text-anchor="middle" x="436.5" y="-203.5" font-family="Helvetica,sans-Serif" font-size="10.00">SalesOrderPresenter.pickeability</text>
</a>
</g>
</g>
<!-- Node2&#45;&gt;Node3 -->
<g id="edge2" class="edge"><title>Node2&#45;&gt;Node3</title>
<path fill="none" stroke="midnightblue" d="M321.015,-203.433C329.441,-204.027 338.13,-204.639 346.778,-205.249"/>
<polygon fill="midnightblue" stroke="midnightblue" points="346.671,-208.75 356.892,-205.961 347.163,-201.767 346.671,-208.75"/>
</g>
<!-- Node5 -->
<g id="node5" class="node"><title>Node5</title>
<g id="a_node5"><a xlink:href="interfacetomoBay_1_1model_1_1sql_1_1queries_1_1AbstractDBQuery.html#af2b3eebaeac3f2330d4c4e27182cec48" target="_top" xlink:title="tomoBay.model.sql.queries.\lAbstractDBQuery.execute">
<polygon fill="none" stroke="black" points="367.5,-147.5 367.5,-177.5 505.5,-177.5 505.5,-147.5 367.5,-147.5"/>
<text text-anchor="start" x="375.5" y="-165.5" font-family="Helvetica,sans-Serif" font-size="10.00">tomoBay.model.sql.queries.</text>
<text text-anchor="middle" x="436.5" y="-154.5" font-family="Helvetica,sans-Serif" font-size="10.00">AbstractDBQuery.execute</text>
</a>
</g>
</g>
<!-- Node4&#45;&gt;Node5 -->
<g id="edge4" class="edge"><title>Node4&#45;&gt;Node5</title>
<path fill="none" stroke="midnightblue" d="M319.177,-146.738C331.569,-148.417 344.585,-150.181 357.241,-151.896"/>
<polygon fill="midnightblue" stroke="midnightblue" points="356.916,-155.384 367.296,-153.258 357.856,-148.447 356.916,-155.384"/>
</g>
<!-- Node6 -->
<g id="node6" class="node"><title>Node6</title>
<g id="a_node6"><a xlink:href="classtomoBay_1_1model_1_1sql_1_1queries_1_1QueryInvoker.html#aff8d54f537b905d5a8b35a20113fd100" target="_top" xlink:title="tomoBay.model.sql.queries.\lQueryInvoker.make">
<polygon fill="none" stroke="black" points="367.5,-98.5 367.5,-128.5 505.5,-128.5 505.5,-98.5 367.5,-98.5"/>
<text text-anchor="start" x="375.5" y="-116.5" font-family="Helvetica,sans-Serif" font-size="10.00">tomoBay.model.sql.queries.</text>
<text text-anchor="middle" x="436.5" y="-105.5" font-family="Helvetica,sans-Serif" font-size="10.00">QueryInvoker.make</text>
</a>
</g>
</g>
<!-- Node4&#45;&gt;Node6 -->
<g id="edge5" class="edge"><title>Node4&#45;&gt;Node6</title>
<path fill="none" stroke="midnightblue" d="M319.177,-128.631C331.569,-127.019 344.585,-125.326 357.241,-123.68"/>
<polygon fill="midnightblue" stroke="midnightblue" points="357.831,-127.133 367.296,-122.372 356.928,-120.191 357.831,-127.133"/>
</g>
<!-- Node8 -->
<g id="node8" class="node"><title>Node8</title>
<g id="a_node8"><a xlink:href="classtomoBay_1_1presenters_1_1helpers_1_1SortOrders.html#af4a1f2e66b6b9943b7d4577f6d3ec108" target="_top" xlink:title="tomoBay.presenters.helpers.\lSortOrders.sortByPickeability">
<polygon fill="none" stroke="black" points="363.5,-49.5 363.5,-79.5 509.5,-79.5 509.5,-49.5 363.5,-49.5"/>
<text text-anchor="start" x="371.5" y="-67.5" font-family="Helvetica,sans-Serif" font-size="10.00">tomoBay.presenters.helpers.</text>
<text text-anchor="middle" x="436.5" y="-56.5" font-family="Helvetica,sans-Serif" font-size="10.00">SortOrders.sortByPickeability</text>
</a>
</g>
</g>
<!-- Node7&#45;&gt;Node8 -->
<g id="edge7" class="edge"><title>Node7&#45;&gt;Node8</title>
<path fill="none" stroke="midnightblue" d="M321.015,-64.5C331.521,-64.5 342.436,-64.5 353.17,-64.5"/>
<polygon fill="midnightblue" stroke="midnightblue" points="353.387,-68.0001 363.387,-64.5 353.387,-61.0001 353.387,-68.0001"/>
</g>
<!-- Node10 -->
<g id="node10" class="node"><title>Node10</title>
<g id="a_node10"><a xlink:href="classtomoBay_1_1presenters_1_1helpers_1_1SortOrders.html#aac7dc3680af2b5d1462a19cd4f262f89" target="_top" xlink:title="tomoBay.presenters.helpers.\lSortOrders.sortByShipping">
<polygon fill="none" stroke="black" points="365.5,-0.5 365.5,-30.5 507.5,-30.5 507.5,-0.5 365.5,-0.5"/>
<text text-anchor="start" x="373.5" y="-18.5" font-family="Helvetica,sans-Serif" font-size="10.00">tomoBay.presenters.helpers.</text>
<text text-anchor="middle" x="436.5" y="-7.5" font-family="Helvetica,sans-Serif" font-size="10.00">SortOrders.sortByShipping</text>
</a>
</g>
</g>
<!-- Node7&#45;&gt;Node10 -->
<g id="edge9" class="edge"><title>Node7&#45;&gt;Node10</title>
<path fill="none" stroke="midnightblue" d="M307.61,-49.4654C327.091,-44.2917 349.077,-38.4525 369.255,-33.0934"/>
<polygon fill="midnightblue" stroke="midnightblue" points="370.231,-36.4558 378.997,-30.5062 368.434,-29.6904 370.231,-36.4558"/>
</g>
<!-- Node9 -->
<g id="node9" class="node"><title>Node9</title>
<g id="a_node9"><a xlink:href="classtomoBay_1_1presenters_1_1helpers_1_1SortOrders.html#a8c887c8319bc374c00b40b6853be962b" target="_top" xlink:title="tomoBay.presenters.helpers.\lSortOrders.reAssembleCategories">
<polygon fill="none" stroke="black" points="552,-24.5 552,-54.5 718,-54.5 718,-24.5 552,-24.5"/>
<text text-anchor="start" x="560" y="-42.5" font-family="Helvetica,sans-Serif" font-size="10.00">tomoBay.presenters.helpers.</text>
<text text-anchor="middle" x="635" y="-31.5" font-family="Helvetica,sans-Serif" font-size="10.00">SortOrders.reAssembleCategories</text>
</a>
</g>
</g>
<!-- Node8&#45;&gt;Node9 -->
<g id="edge8" class="edge"><title>Node8&#45;&gt;Node9</title>
<path fill="none" stroke="midnightblue" d="M509.554,-55.3329C520.12,-53.9885 531.123,-52.5887 542.022,-51.202"/>
<polygon fill="midnightblue" stroke="midnightblue" points="542.509,-54.6684 551.987,-49.9342 541.625,-47.7244 542.509,-54.6684"/>
</g>
<!-- Node10&#45;&gt;Node9 -->
<g id="edge10" class="edge"><title>Node10&#45;&gt;Node9</title>
<path fill="none" stroke="midnightblue" d="M507.609,-24.0629C518.691,-25.4165 530.295,-26.8337 541.788,-28.2375"/>
<polygon fill="midnightblue" stroke="midnightblue" points="541.493,-31.7274 551.844,-29.4656 542.342,-24.779 541.493,-31.7274"/>
</g>
</g>
</svg>
        <g id="navigator" transform="translate(0 0)" fill="#404254">
                <rect fill="#f2f5e9" fill-opacity="0.5" stroke="#606060" stroke-width=".5" x="0" y="0" width="60" height="60"/>
                <use id="zoomplus" xlink:href="#zoomPlus" x="17" y="9" onmousedown="handleZoom(evt,'in')"/>
                <use id="zoomminus" xlink:href="#zoomMin" x="42" y="9" onmousedown="handleZoom(evt,'out')"/>
                <use id="reset" xlink:href="#resetDef" x="30" y="36" onmousedown="handleReset()"/>
                <g id="arrowUp" xlink:href="#dirArrow" transform="translate(30 24)" onmousedown="handlePan(0,-1)">
                  <use xlink:href="#rim" fill="#404040">
                        <set attributeName="fill" to="#808080" begin="arrowUp.mouseover" end="arrowUp.mouseout"/>
                  </use>
                  <path fill="none" stroke="white" stroke-width="1.5" d="M0,-3.0v7 M-2.5,-0.5L0,-3.0L2.5,-0.5"/>
                </g>
                <g id="arrowRight" xlink:href="#dirArrow" transform="rotate(90) translate(36 -43)" onmousedown="handlePan(1,0)">
                  <use xlink:href="#rim" fill="#404040">
                        <set attributeName="fill" to="#808080" begin="arrowRight.mouseover" end="arrowRight.mouseout"/>
                  </use>
                  <path fill="none" stroke="white" stroke-width="1.5" d="M0,-3.0v7 M-2.5,-0.5L0,-3.0L2.5,-0.5"/>
                </g>
                <g id="arrowDown" xlink:href="#dirArrow" transform="rotate(180) translate(-30 -48)" onmousedown="handlePan(0,1)">
                  <use xlink:href="#rim" fill="#404040">
                        <set attributeName="fill" to="#808080" begin="arrowDown.mouseover" end="arrowDown.mouseout"/>
                  </use>
                  <path fill="none" stroke="white" stroke-width="1.5" d="M0,-3.0v7 M-2.5,-0.5L0,-3.0L2.5,-0.5"/>
                </g>
                <g id="arrowLeft" xlink:href="#dirArrow" transform="rotate(270) translate(-36 17)" onmousedown="handlePan(-1,0)">
                  <use xlink:href="#rim" fill="#404040">
                        <set attributeName="fill" to="#808080" begin="arrowLeft.mouseover" end="arrowLeft.mouseout"/>
                  </use>
                  <path fill="none" stroke="white" stroke-width="1.5" d="M0,-3.0v7 M-2.5,-0.5L0,-3.0L2.5,-0.5"/>
                </g>
        </g>
        <svg viewBox="0 0 15 15" width="100%" height="30px" preserveAspectRatio="xMaxYMin meet">
         <g id="arrow_out" transform="scale(0.3 0.3)">
          <a xlink:href="classtomoBay_1_1presenters_1_1sales_1_1SalesOrderPresenter_a31856dda6e4861a1e7be0c6045e54533_cgraph_org.svg" target="_base">
           <rect id="button" ry="5" rx="5" y="6" x="6" height="38" width="38"
                fill="#f2f5e9" fill-opacity="0.5" stroke="#606060" stroke-width="1.0"/>
           <path id="arrow"
             d="M 11.500037,31.436501 C 11.940474,20.09759 22.043105,11.32322 32.158766,21.979434 L 37.068811,17.246167 C 37.068811,17.246167 37.088388,32 37.088388,32 L 22.160133,31.978069 C 22.160133,31.978069 26.997745,27.140456 26.997745,27.140456 C 18.528582,18.264221 13.291696,25.230495 11.500037,31.436501 z"
             style="fill:#404040;"/>
          </a>
         </g>
        </svg>
</svg>
