<?xml version="1.0" encoding="UTF-8" standalone="no"?>
<!DOCTYPE svg PUBLIC "-//W3C//DTD SVG 1.1//EN"
 "http://www.w3.org/Graphics/SVG/1.1/DTD/svg11.dtd">
<!-- Generated by graphviz version 2.38.0 (20140413.2041)
 -->
<!-- Title: InsertOrderInOrderStatusFactory Pages: 1 -->
<svg width="151pt" height="392pt"
 viewBox="0.00 0.00 151.00 392.00" xmlns="http://www.w3.org/2000/svg" xmlns:xlink="http://www.w3.org/1999/xlink">
<g id="graph0" class="graph" transform="scale(1 1) rotate(0) translate(4 388)">
<title>InsertOrderInOrderStatusFactory</title>
<polygon fill="white" stroke="none" points="-4,4 -4,-388 147,-388 147,4 -4,4"/>
<!-- Node1 -->
<g id="node1" class="node"><title>Node1</title>
<polygon fill="#bfbfbf" stroke="black" points="4,-0.5 4,-90.5 139,-90.5 139,-0.5 4,-0.5"/>
<text text-anchor="start" x="12" y="-78.5" font-family="Helvetica,sans-Serif" font-size="10.00">InsertOrderInOrderStatus</text>
<text text-anchor="middle" x="71.5" y="-67.5" font-family="Helvetica,sans-Serif" font-size="10.00">Factory</text>
<polyline fill="none" stroke="black" points="4,-60.5 139,-60.5 "/>
<text text-anchor="middle" x="71.5" y="-48.5" font-family="Helvetica,sans-Serif" font-size="10.00"> </text>
<polyline fill="none" stroke="black" points="4,-41.5 139,-41.5 "/>
<text text-anchor="start" x="12" y="-29.5" font-family="Helvetica,sans-Serif" font-size="10.00">+ InsertOrderInOrderStatus</text>
<text text-anchor="start" x="12" y="-18.5" font-family="Helvetica,sans-Serif" font-size="10.00">Factory()</text>
<text text-anchor="start" x="12" y="-7.5" font-family="Helvetica,sans-Serif" font-size="10.00">+ make()</text>
</g>
<!-- Node2 -->
<g id="node2" class="node"><title>Node2</title>
<g id="a_node2"><a xlink:href="interfacetomoBay_1_1model_1_1sql_1_1framework_1_1queryFactories_1_1AbstractModifyQueryParamsFactory.html" target="_top" xlink:title="{AbstractModifyQueryParams\lFactory\n||+ make()\l}">
<polygon fill="white" stroke="black" points="0,-127.5 0,-195.5 143,-195.5 143,-127.5 0,-127.5"/>
<text text-anchor="start" x="8" y="-183.5" font-family="Helvetica,sans-Serif" font-size="10.00">AbstractModifyQueryParams</text>
<text text-anchor="middle" x="71.5" y="-172.5" font-family="Helvetica,sans-Serif" font-size="10.00">Factory</text>
<polyline fill="none" stroke="black" points="0,-165.5 143,-165.5 "/>
<text text-anchor="middle" x="71.5" y="-153.5" font-family="Helvetica,sans-Serif" font-size="10.00"> </text>
<polyline fill="none" stroke="black" points="0,-146.5 143,-146.5 "/>
<text text-anchor="start" x="8" y="-134.5" font-family="Helvetica,sans-Serif" font-size="10.00">+ make()</text>
</a>
</g>
</g>
<!-- Node2&#45;&gt;Node1 -->
<g id="edge1" class="edge"><title>Node2&#45;&gt;Node1</title>
<path fill="none" stroke="midnightblue" d="M71.5,-116.972C71.5,-108.346 71.5,-99.2838 71.5,-90.6378"/>
<polygon fill="none" stroke="midnightblue" points="68.0001,-117.22 71.5,-127.22 75.0001,-117.22 68.0001,-117.22"/>
</g>
<!-- Node3 -->
<g id="node3" class="node"><title>Node3</title>
<g id="a_node3"><a xlink:href="interfacetomoBay_1_1model_1_1sql_1_1framework_1_1queryFactories_1_1AbstractModifyQueryFactory.html" target="_top" xlink:title="{AbstractModifyQueryFactory\n||+ make()\l}">
<polygon fill="white" stroke="black" points="0.5,-232.5 0.5,-289.5 142.5,-289.5 142.5,-232.5 0.5,-232.5"/>
<text text-anchor="middle" x="71.5" y="-277.5" font-family="Helvetica,sans-Serif" font-size="10.00">AbstractModifyQueryFactory</text>
<polyline fill="none" stroke="black" points="0.5,-270.5 142.5,-270.5 "/>
<text text-anchor="middle" x="71.5" y="-258.5" font-family="Helvetica,sans-Serif" font-size="10.00"> </text>
<polyline fill="none" stroke="black" points="0.5,-251.5 142.5,-251.5 "/>
<text text-anchor="start" x="8.5" y="-239.5" font-family="Helvetica,sans-Serif" font-size="10.00">+ make()</text>
</a>
</g>
</g>
<!-- Node3&#45;&gt;Node2 -->
<g id="edge2" class="edge"><title>Node3&#45;&gt;Node2</title>
<path fill="none" stroke="midnightblue" d="M71.5,-222.063C71.5,-213.393 71.5,-204.243 71.5,-195.786"/>
<polygon fill="none" stroke="midnightblue" points="68.0001,-222.321 71.5,-232.321 75.0001,-222.321 68.0001,-222.321"/>
</g>
<!-- Node4 -->
<g id="node4" class="node"><title>Node4</title>
<g id="a_node4"><a xlink:href="interfacetomoBay_1_1model_1_1sql_1_1framework_1_1queryFactories_1_1AbstractQueryFactory.html" target="_top" xlink:title="all Queries are instantiated using a factory and each of these factories must conform to this interfa...">
<polygon fill="white" stroke="black" points="15,-326.5 15,-383.5 128,-383.5 128,-326.5 15,-326.5"/>
<text text-anchor="middle" x="71.5" y="-371.5" font-family="Helvetica,sans-Serif" font-size="10.00">AbstractQueryFactory</text>
<polyline fill="none" stroke="black" points="15,-364.5 128,-364.5 "/>
<text text-anchor="middle" x="71.5" y="-352.5" font-family="Helvetica,sans-Serif" font-size="10.00"> </text>
<polyline fill="none" stroke="black" points="15,-345.5 128,-345.5 "/>
<text text-anchor="start" x="23" y="-333.5" font-family="Helvetica,sans-Serif" font-size="10.00">+ make()</text>
</a>
</g>
</g>
<!-- Node4&#45;&gt;Node3 -->
<g id="edge3" class="edge"><title>Node4&#45;&gt;Node3</title>
<path fill="none" stroke="midnightblue" d="M71.5,-316.209C71.5,-307.293 71.5,-297.951 71.5,-289.584"/>
<polygon fill="none" stroke="midnightblue" points="68.0001,-316.397 71.5,-326.397 75.0001,-316.397 68.0001,-316.397"/>
</g>
</g>
</svg>
