<?xml version="1.0" encoding="UTF-8" standalone="no"?>
<!DOCTYPE svg PUBLIC "-//W3C//DTD SVG 1.1//EN"
 "http://www.w3.org/Graphics/SVG/1.1/DTD/svg11.dtd">
<!-- Generated by graphviz version 2.38.0 (20140413.2041)
 -->
<!-- Title: getStatus Pages: 1 -->
<svg width="494pt" height="137pt"
 viewBox="0.00 0.00 494.00 137.00" xmlns="http://www.w3.org/2000/svg" xmlns:xlink="http://www.w3.org/1999/xlink">
<g id="graph0" class="graph" transform="scale(1 1) rotate(0) translate(4 133)">
<title>getStatus</title>
<polygon fill="white" stroke="none" points="-4,4 -4,-133 490,-133 490,4 -4,4"/>
<!-- Node1 -->
<g id="node1" class="node"><title>Node1</title>
<polygon fill="#bfbfbf" stroke="black" points="0,-55 0,-74 59,-74 59,-55 0,-55"/>
<text text-anchor="middle" x="29.5" y="-62" font-family="Helvetica,sans-Serif" font-size="10.00">getStatus</text>
</g>
<!-- Node2 -->
<g id="node2" class="node"><title>Node2</title>
<g id="a_node2"><a xlink:href="classtomoBay_1_1model_1_1services_1_1AbstractService.html#a4e220ddae734089d146b78363526057f" target="_top" xlink:title="The individual services equivalent of main. ">
<polygon fill="white" stroke="black" points="107,-98.5 107,-128.5 271,-128.5 271,-98.5 107,-98.5"/>
<text text-anchor="start" x="115" y="-116.5" font-family="Helvetica,sans-Serif" font-size="10.00">tomoBay.model.services.Abstract</text>
<text text-anchor="middle" x="189" y="-105.5" font-family="Helvetica,sans-Serif" font-size="10.00">Service.call</text>
</a>
</g>
</g>
<!-- Node1&#45;&gt;Node2 -->
<g id="edge1" class="edge"><title>Node1&#45;&gt;Node2</title>
<path fill="none" stroke="midnightblue" d="M62.6465,-77.813C72.896,-81.8269 84.3433,-86.0727 95,-89.5 104.842,-92.6652 115.372,-95.705 125.679,-98.4945"/>
<polygon fill="midnightblue" stroke="midnightblue" points="63.837,-74.5198 53.2518,-74.0699 61.2461,-81.0227 63.837,-74.5198"/>
</g>
<!-- Node3 -->
<g id="node3" class="node"><title>Node3</title>
<g id="a_node3"><a xlink:href="classtomoBay_1_1view_1_1views_1_1salesOrderView_1_1SalesOrderView.html#a79629cb15df56cead861ca956e1855e6" target="_top" xlink:title="defines a set of set of String values that equate to the &#39;invoiced&#39; values grabbed from the database...">
<polygon fill="white" stroke="black" points="95,-49.5 95,-79.5 283,-79.5 283,-49.5 95,-49.5"/>
<text text-anchor="start" x="103" y="-67.5" font-family="Helvetica,sans-Serif" font-size="10.00">tomoBay.view.views.sales</text>
<text text-anchor="middle" x="189" y="-56.5" font-family="Helvetica,sans-Serif" font-size="10.00">OrderView.SalesOrderView.pickeability</text>
</a>
</g>
</g>
<!-- Node1&#45;&gt;Node3 -->
<g id="edge2" class="edge"><title>Node1&#45;&gt;Node3</title>
<path fill="none" stroke="midnightblue" d="M69.1064,-64.5C77.1432,-64.5 85.9413,-64.5 94.9997,-64.5"/>
<polygon fill="midnightblue" stroke="midnightblue" points="69.0221,-61.0001 59.0221,-64.5 69.022,-68.0001 69.0221,-61.0001"/>
</g>
<!-- Node5 -->
<g id="node5" class="node"><title>Node5</title>
<g id="a_node5"><a xlink:href="classtomoBay_1_1presenters_1_1sales_1_1SalesOrderPresenter.html#aae3ef9e158aa1e975acedd263e47fa3c" target="_top" xlink:title="this method is called when you actually want to present the information to be displayed to the approp...">
<polygon fill="white" stroke="black" points="117.5,-0.5 117.5,-30.5 260.5,-30.5 260.5,-0.5 117.5,-0.5"/>
<text text-anchor="start" x="125.5" y="-18.5" font-family="Helvetica,sans-Serif" font-size="10.00">tomoBay.presenters.sales.</text>
<text text-anchor="middle" x="189" y="-7.5" font-family="Helvetica,sans-Serif" font-size="10.00">SalesOrderPresenter.present</text>
</a>
</g>
</g>
<!-- Node1&#45;&gt;Node5 -->
<g id="edge4" class="edge"><title>Node1&#45;&gt;Node5</title>
<path fill="none" stroke="midnightblue" d="M64.0189,-51.3502C73.9282,-47.6471 84.8428,-43.7471 95,-40.5 105.829,-37.0381 117.467,-33.6515 128.72,-30.5443"/>
<polygon fill="midnightblue" stroke="midnightblue" points="62.6192,-48.1378 54.51,-54.9562 65.1013,-54.6829 62.6192,-48.1378"/>
</g>
<!-- Node4 -->
<g id="node4" class="node"><title>Node4</title>
<g id="a_node4"><a xlink:href="classtomoBay_1_1view_1_1views_1_1salesOrderView_1_1SalesOrderView.html#a5724666c8c61c4e2ef28d5364c8c13d0" target="_top" xlink:title="this method is responsible for formatting the data as required for the specific derived view ...">
<polygon fill="white" stroke="black" points="319,-49.5 319,-79.5 486,-79.5 486,-49.5 319,-49.5"/>
<text text-anchor="start" x="327" y="-67.5" font-family="Helvetica,sans-Serif" font-size="10.00">tomoBay.view.views.sales</text>
<text text-anchor="middle" x="402.5" y="-56.5" font-family="Helvetica,sans-Serif" font-size="10.00">OrderView.SalesOrderView.format</text>
</a>
</g>
</g>
<!-- Node3&#45;&gt;Node4 -->
<g id="edge3" class="edge"><title>Node3&#45;&gt;Node4</title>
<path fill="none" stroke="midnightblue" d="M293.118,-64.5C301.694,-64.5 310.293,-64.5 318.689,-64.5"/>
<polygon fill="midnightblue" stroke="midnightblue" points="293.075,-61.0001 283.075,-64.5 293.075,-68.0001 293.075,-61.0001"/>
</g>
</g>
</svg>
