<?xml version="1.0" encoding="UTF-8" standalone="no"?>
<!DOCTYPE svg PUBLIC "-//W3C//DTD SVG 1.1//EN"
 "http://www.w3.org/Graphics/SVG/1.1/DTD/svg11.dtd">
<!-- Generated by graphviz version 2.38.0 (20140413.2041)
 -->
<!-- Title: setParameters Pages: 1 -->
<svg width="2272pt" height="629pt"
 viewBox="0.00 0.00 2272.00 629.14" xmlns="http://www.w3.org/2000/svg" xmlns:xlink="http://www.w3.org/1999/xlink">
<g id="graph0" class="graph" transform="scale(1 1) rotate(0) translate(4 625.145)">
<title>setParameters</title>
<polygon fill="white" stroke="none" points="-4,4 -4,-625.145 2268,-625.145 2268,4 -4,4"/>
<!-- Node1 -->
<g id="node1" class="node"><title>Node1</title>
<polygon fill="#bfbfbf" stroke="black" points="0,-361.564 0,-380.564 80,-380.564 80,-361.564 0,-361.564"/>
<text text-anchor="middle" x="40" y="-368.564" font-family="Helvetica,sans-Serif" font-size="10.00">setParameters</text>
</g>
<!-- Node2 -->
<g id="node2" class="node"><title>Node2</title>
<g id="a_node2"><a xlink:href="classtomoBay_1_1model_1_1sql_1_1framework_1_1QueryUtility.html#a202aab30c77e06c32318efd5cf949ca3" target="_top" xlink:title="set an Integer parameter for the query object specified. ">
<polygon fill="white" stroke="black" points="1283,-334.064 1283,-364.064 1435,-364.064 1435,-334.064 1283,-334.064"/>
<text text-anchor="start" x="1291" y="-352.064" font-family="Helvetica,sans-Serif" font-size="10.00">tomoBay.model.sql.framework.</text>
<text text-anchor="middle" x="1359" y="-341.064" font-family="Helvetica,sans-Serif" font-size="10.00">QueryUtility.setDATEParam</text>
</a>
</g>
</g>
<!-- Node1&#45;&gt;Node2 -->
<g id="edge1" class="edge"><title>Node1&#45;&gt;Node2</title>
<path fill="none" stroke="midnightblue" d="M80.0548,-367.003C144.666,-360.646 277.908,-349.064 391,-349.064 391,-349.064 391,-349.064 963.5,-349.064 1070.07,-349.064 1192.83,-349.064 1272.73,-349.064"/>
<polygon fill="midnightblue" stroke="midnightblue" points="1272.74,-352.564 1282.74,-349.064 1272.74,-345.564 1272.74,-352.564"/>
</g>
<!-- Node9 -->
<g id="node9" class="node"><title>Node9</title>
<g id="a_node9"><a xlink:href="classtomoBay_1_1model_1_1sql_1_1framework_1_1QueryUtility.html#aca3b74b8ac7e194a86c0b896a674e2f2" target="_top" xlink:title="set an Integer parameter for the query object specified. ">
<polygon fill="white" stroke="black" points="116,-378.064 116,-408.064 274,-408.064 274,-378.064 116,-378.064"/>
<text text-anchor="start" x="124" y="-396.064" font-family="Helvetica,sans-Serif" font-size="10.00">tomoBay.model.sql.framework.</text>
<text text-anchor="middle" x="195" y="-385.064" font-family="Helvetica,sans-Serif" font-size="10.00">QueryUtility.setINTEGERParam</text>
</a>
</g>
</g>
<!-- Node1&#45;&gt;Node9 -->
<g id="edge12" class="edge"><title>Node1&#45;&gt;Node9</title>
<path fill="none" stroke="midnightblue" d="M80.0042,-376.672C87.9807,-377.819 96.6797,-379.07 105.6,-380.353"/>
<polygon fill="midnightblue" stroke="midnightblue" points="105.342,-383.852 115.739,-381.811 106.339,-376.923 105.342,-383.852"/>
</g>
<!-- Node3 -->
<g id="node3" class="node"><title>Node3</title>
<g id="a_node3"><a xlink:href="classtomoBay_1_1model_1_1dataTypes_1_1heteroTypeContainer_1_1HeteroFieldContainer.html#a988363ab964d6dc0ccb8560bef5895b6" target="_top" xlink:title="retrieve the the value of an AbstractField from this HeteroFieldContainer, the field should be of the...">
<polygon fill="white" stroke="black" points="1850,-138.064 1850,-168.064 2042,-168.064 2042,-138.064 1850,-138.064"/>
<text text-anchor="start" x="1858" y="-156.064" font-family="Helvetica,sans-Serif" font-size="10.00">tomoBay.model.dataTypes.hetero</text>
<text text-anchor="middle" x="1946" y="-145.064" font-family="Helvetica,sans-Serif" font-size="10.00">TypeContainer.HeteroFieldContainer.get</text>
</a>
</g>
</g>
<!-- Node2&#45;&gt;Node3 -->
<g id="edge2" class="edge"><title>Node2&#45;&gt;Node3</title>
<path fill="none" stroke="midnightblue" d="M1384.68,-333.965C1406.89,-320.646 1440.6,-301.074 1471,-286.064 1553.68,-245.239 1573.68,-231.555 1662,-205.064 1719.77,-187.736 1786,-175.187 1839.85,-166.762"/>
<polygon fill="midnightblue" stroke="midnightblue" points="1840.41,-170.218 1849.76,-165.237 1839.34,-163.299 1840.41,-170.218"/>
</g>
<!-- Node5 -->
<g id="node5" class="node"><title>Node5</title>
<g id="a_node5"><a xlink:href="classtomoBay_1_1model_1_1sql_1_1framework_1_1QueryUtility.html#a5677c2440b48e612fb51b57130555e5d" target="_top" xlink:title="set an Integer parameter for the query object specified. ">
<polygon fill="white" stroke="black" points="1471,-296.064 1471,-326.064 1626,-326.064 1626,-296.064 1471,-296.064"/>
<text text-anchor="start" x="1479" y="-314.064" font-family="Helvetica,sans-Serif" font-size="10.00">tomoBay.model.sql.framework.</text>
<text text-anchor="middle" x="1548.5" y="-303.064" font-family="Helvetica,sans-Serif" font-size="10.00">QueryUtility.setDOUBLEParam</text>
</a>
</g>
</g>
<!-- Node2&#45;&gt;Node5 -->
<g id="edge4" class="edge"><title>Node2&#45;&gt;Node5</title>
<path fill="none" stroke="midnightblue" d="M1434.1,-334.045C1443.68,-332.105 1453.54,-330.107 1463.26,-328.137"/>
<polygon fill="midnightblue" stroke="midnightblue" points="1464.21,-331.515 1473.32,-326.098 1462.82,-324.654 1464.21,-331.515"/>
</g>
<!-- Node7 -->
<g id="node7" class="node"><title>Node7</title>
<g id="a_node7"><a xlink:href="classtomoBay_1_1model_1_1sql_1_1framework_1_1queryTypes_1_1AbstractDBQuery.html#a41678b13e84de4335130f10cea7ae562" target="_top" xlink:title="get the statement object associated with this query ">
<polygon fill="white" stroke="black" points="1858,-454.064 1858,-484.064 2034,-484.064 2034,-454.064 1858,-454.064"/>
<text text-anchor="start" x="1866" y="-472.064" font-family="Helvetica,sans-Serif" font-size="10.00">tomoBay.model.sql.framework.query</text>
<text text-anchor="middle" x="1946" y="-461.064" font-family="Helvetica,sans-Serif" font-size="10.00">Types.AbstractDBQuery.statement</text>
</a>
</g>
</g>
<!-- Node2&#45;&gt;Node7 -->
<g id="edge11" class="edge"><title>Node2&#45;&gt;Node7</title>
<path fill="none" stroke="midnightblue" d="M1435.39,-355.03C1526.36,-363.442 1683.37,-381.856 1814,-417.064 1844.9,-425.393 1878.42,-438.784 1903.82,-449.891"/>
<polygon fill="midnightblue" stroke="midnightblue" points="1902.57,-453.167 1913.13,-454.021 1905.41,-446.768 1902.57,-453.167"/>
</g>
<!-- Node4 -->
<g id="node4" class="node"><title>Node4</title>
<g id="a_node4"><a xlink:href="classtomoBay_1_1model_1_1dataTypes_1_1heteroTypeContainer_1_1HeteroFieldContainer.html#a9dee3c01eb5ab16203e1c6820a569484" target="_top" xlink:title="performs a type check, assuming that field and type are of the same type then this method returns tru...">
<polygon fill="white" stroke="black" points="2078,-132.564 2078,-173.564 2264,-173.564 2264,-132.564 2078,-132.564"/>
<text text-anchor="start" x="2086" y="-161.564" font-family="Helvetica,sans-Serif" font-size="10.00">tomoBay.model.dataTypes.hetero</text>
<text text-anchor="start" x="2086" y="-150.564" font-family="Helvetica,sans-Serif" font-size="10.00">TypeContainer.HeteroFieldContainer.is</text>
<text text-anchor="middle" x="2171" y="-139.564" font-family="Helvetica,sans-Serif" font-size="10.00">SameType</text>
</a>
</g>
</g>
<!-- Node3&#45;&gt;Node4 -->
<g id="edge3" class="edge"><title>Node3&#45;&gt;Node4</title>
<path fill="none" stroke="midnightblue" d="M2042.22,-153.064C2050.73,-153.064 2059.37,-153.064 2067.93,-153.064"/>
<polygon fill="midnightblue" stroke="midnightblue" points="2067.93,-156.564 2077.93,-153.064 2067.93,-149.564 2067.93,-156.564"/>
</g>
<!-- Node5&#45;&gt;Node3 -->
<g id="edge5" class="edge"><title>Node5&#45;&gt;Node3</title>
<path fill="none" stroke="midnightblue" d="M1575.72,-295.927C1598.14,-283.378 1631.53,-265.624 1662,-253.064 1727.5,-226.068 1747.26,-228.815 1814,-205.064 1842.82,-194.807 1874.74,-182.166 1899.85,-171.916"/>
<polygon fill="midnightblue" stroke="midnightblue" points="1901.2,-175.147 1909.12,-168.114 1898.54,-168.67 1901.2,-175.147"/>
</g>
<!-- Node6 -->
<g id="node6" class="node"><title>Node6</title>
<g id="a_node6"><a xlink:href="classtomoBay_1_1model_1_1sql_1_1framework_1_1QueryUtility.html#adf8f1fea7b649baadeb0297c41be72f5" target="_top" xlink:title="set an Integer parameter for the query object specified. ">
<polygon fill="white" stroke="black" points="1662,-296.064 1662,-326.064 1814,-326.064 1814,-296.064 1662,-296.064"/>
<text text-anchor="start" x="1670" y="-314.064" font-family="Helvetica,sans-Serif" font-size="10.00">tomoBay.model.sql.framework.</text>
<text text-anchor="middle" x="1738" y="-303.064" font-family="Helvetica,sans-Serif" font-size="10.00">QueryUtility.setFLOATParam</text>
</a>
</g>
</g>
<!-- Node5&#45;&gt;Node6 -->
<g id="edge6" class="edge"><title>Node5&#45;&gt;Node6</title>
<path fill="none" stroke="midnightblue" d="M1626.03,-311.064C1634.55,-311.064 1643.26,-311.064 1651.87,-311.064"/>
<polygon fill="midnightblue" stroke="midnightblue" points="1651.92,-314.564 1661.92,-311.064 1651.92,-307.564 1651.92,-314.564"/>
</g>
<!-- Node5&#45;&gt;Node7 -->
<g id="edge10" class="edge"><title>Node5&#45;&gt;Node7</title>
<path fill="none" stroke="midnightblue" d="M1619.24,-326.094C1685.37,-340.867 1779.58,-363.411 1814,-379.064 1853.49,-397.023 1893.89,-426.871 1919.18,-447.229"/>
<polygon fill="midnightblue" stroke="midnightblue" points="1917.2,-450.127 1927.16,-453.739 1921.62,-444.704 1917.2,-450.127"/>
</g>
<!-- Node6&#45;&gt;Node3 -->
<g id="edge7" class="edge"><title>Node6&#45;&gt;Node3</title>
<path fill="none" stroke="midnightblue" d="M1784.85,-296.052C1794.83,-291.886 1805.07,-286.88 1814,-281.064 1859.59,-251.376 1902.76,-204.19 1926.38,-176.161"/>
<polygon fill="midnightblue" stroke="midnightblue" points="1929.08,-178.383 1932.79,-168.456 1923.7,-173.908 1929.08,-178.383"/>
</g>
<!-- Node6&#45;&gt;Node7 -->
<g id="edge8" class="edge"><title>Node6&#45;&gt;Node7</title>
<path fill="none" stroke="midnightblue" d="M1784.85,-326.076C1794.83,-330.242 1805.07,-335.248 1814,-341.064 1859.59,-370.752 1902.76,-417.938 1926.38,-445.967"/>
<polygon fill="midnightblue" stroke="midnightblue" points="1923.7,-448.22 1932.79,-453.672 1929.08,-443.745 1923.7,-448.22"/>
</g>
<!-- Node8 -->
<g id="node8" class="node"><title>Node8</title>
<g id="a_node8"><a xlink:href="classtomoBay_1_1model_1_1sql_1_1framework_1_1queryTypes_1_1AbstractDBQuery.html#ae8a5c5f1701ee77ef658050c8345d518" target="_top" xlink:title="Used by derived classes to define the Query string to be used in the query. ">
<polygon fill="white" stroke="black" points="2083,-454.064 2083,-484.064 2259,-484.064 2259,-454.064 2083,-454.064"/>
<text text-anchor="start" x="2091" y="-472.064" font-family="Helvetica,sans-Serif" font-size="10.00">tomoBay.model.sql.framework.query</text>
<text text-anchor="middle" x="2171" y="-461.064" font-family="Helvetica,sans-Serif" font-size="10.00">Types.AbstractDBQuery.queryString</text>
</a>
</g>
</g>
<!-- Node7&#45;&gt;Node8 -->
<g id="edge9" class="edge"><title>Node7&#45;&gt;Node8</title>
<path fill="none" stroke="midnightblue" d="M2034.18,-469.064C2046.8,-469.064 2059.87,-469.064 2072.68,-469.064"/>
<polygon fill="midnightblue" stroke="midnightblue" points="2072.88,-472.564 2082.88,-469.064 2072.88,-465.564 2072.88,-472.564"/>
</g>
<!-- Node9&#45;&gt;Node3 -->
<g id="edge13" class="edge"><title>Node9&#45;&gt;Node3</title>
<path fill="none" stroke="midnightblue" d="M202.043,-377.697C231.652,-305.222 368.796,-1.06404 585,-1.06404 585,-1.06404 585,-1.06404 1549.5,-1.06404 1668.33,-1.06404 1705.95,9.37158 1814,-40.064 1860.29,-61.2402 1902.7,-103.899 1926.08,-130.319"/>
<polygon fill="midnightblue" stroke="midnightblue" points="1923.51,-132.698 1932.71,-137.954 1928.8,-128.109 1923.51,-132.698"/>
</g>
<!-- Node9&#45;&gt;Node7 -->
<g id="edge30" class="edge"><title>Node9&#45;&gt;Node7</title>
<path fill="none" stroke="midnightblue" d="M209.461,-408.378C255.97,-459.498 416.306,-621.064 585,-621.064 585,-621.064 585,-621.064 1549.5,-621.064 1668.98,-621.064 1705.17,-622.355 1814,-573.064 1857.68,-553.281 1899.52,-515.748 1923.71,-491.595"/>
<polygon fill="midnightblue" stroke="midnightblue" points="1926.41,-493.845 1930.93,-484.263 1921.42,-488.935 1926.41,-493.845"/>
</g>
<!-- Node10 -->
<g id="node10" class="node"><title>Node10</title>
<g id="a_node10"><a xlink:href="classtomoBay_1_1model_1_1sql_1_1framework_1_1QueryUtility.html#a3249b16421a9902f2248cb86d4dd3be3" target="_top" xlink:title="set an Integer parameter for the query object specified. ">
<polygon fill="white" stroke="black" points="310,-378.064 310,-408.064 474,-408.064 474,-378.064 310,-378.064"/>
<text text-anchor="start" x="318" y="-396.064" font-family="Helvetica,sans-Serif" font-size="10.00">tomoBay.model.sql.framework.</text>
<text text-anchor="middle" x="392" y="-385.064" font-family="Helvetica,sans-Serif" font-size="10.00">QueryUtility.setVARCHARParam</text>
</a>
</g>
</g>
<!-- Node9&#45;&gt;Node10 -->
<g id="edge14" class="edge"><title>Node9&#45;&gt;Node10</title>
<path fill="none" stroke="midnightblue" d="M274.19,-393.064C282.644,-393.064 291.299,-393.064 299.888,-393.064"/>
<polygon fill="midnightblue" stroke="midnightblue" points="299.924,-396.564 309.924,-393.064 299.924,-389.564 299.924,-396.564"/>
</g>
<!-- Node10&#45;&gt;Node3 -->
<g id="edge15" class="edge"><title>Node10&#45;&gt;Node3</title>
<path fill="none" stroke="midnightblue" d="M399.861,-377.853C431.571,-310.095 571.034,-39.064 773,-39.064 773,-39.064 773,-39.064 1549.5,-39.064 1668.67,-39.064 1701.17,-44.6961 1814,-83.064 1850.03,-95.3177 1888.06,-116.711 1913.81,-132.631"/>
<polygon fill="midnightblue" stroke="midnightblue" points="1912.05,-135.659 1922.38,-138.01 1915.77,-129.73 1912.05,-135.659"/>
</g>
<!-- Node10&#45;&gt;Node7 -->
<g id="edge29" class="edge"><title>Node10&#45;&gt;Node7</title>
<path fill="none" stroke="midnightblue" d="M409.313,-408.291C459.393,-453.378 616.999,-583.064 773,-583.064 773,-583.064 773,-583.064 1549.5,-583.064 1668.67,-583.064 1701.17,-577.432 1814,-539.064 1850.03,-526.81 1888.06,-505.418 1913.81,-489.497"/>
<polygon fill="midnightblue" stroke="midnightblue" points="1915.77,-492.399 1922.38,-484.118 1912.05,-486.469 1915.77,-492.399"/>
</g>
<!-- Node11 -->
<g id="node11" class="node"><title>Node11</title>
<g id="a_node11"><a xlink:href="classtomoBay_1_1model_1_1sql_1_1framework_1_1QueryUtility.html#a50955d4f51a1a7a88ef0c8aadbe9c793" target="_top" xlink:title="set an Integer parameter for the query object specified. ">
<polygon fill="white" stroke="black" points="510,-378.064 510,-408.064 662,-408.064 662,-378.064 510,-378.064"/>
<text text-anchor="start" x="518" y="-396.064" font-family="Helvetica,sans-Serif" font-size="10.00">tomoBay.model.sql.framework.</text>
<text text-anchor="middle" x="586" y="-385.064" font-family="Helvetica,sans-Serif" font-size="10.00">QueryUtility.setBYTEParam</text>
</a>
</g>
</g>
<!-- Node10&#45;&gt;Node11 -->
<g id="edge16" class="edge"><title>Node10&#45;&gt;Node11</title>
<path fill="none" stroke="midnightblue" d="M474.147,-393.064C482.587,-393.064 491.185,-393.064 499.669,-393.064"/>
<polygon fill="midnightblue" stroke="midnightblue" points="499.945,-396.564 509.945,-393.064 499.945,-389.564 499.945,-396.564"/>
</g>
<!-- Node11&#45;&gt;Node3 -->
<g id="edge17" class="edge"><title>Node11&#45;&gt;Node3</title>
<path fill="none" stroke="midnightblue" d="M595.069,-377.823C629.706,-314.701 772.643,-77.064 961.5,-77.064 961.5,-77.064 961.5,-77.064 1549.5,-77.064 1671.95,-77.064 1811.97,-112.634 1888.2,-135.106"/>
<polygon fill="midnightblue" stroke="midnightblue" points="1887.49,-138.547 1898.07,-138.049 1889.49,-131.838 1887.49,-138.547"/>
</g>
<!-- Node11&#45;&gt;Node7 -->
<g id="edge28" class="edge"><title>Node11&#45;&gt;Node7</title>
<path fill="none" stroke="midnightblue" d="M607.736,-408.194C662.539,-446.641 816.953,-545.064 961.5,-545.064 961.5,-545.064 961.5,-545.064 1549.5,-545.064 1668.08,-545.064 1698.21,-535.645 1814,-510.064 1840.69,-504.167 1869.76,-495.324 1893.72,-487.359"/>
<polygon fill="midnightblue" stroke="midnightblue" points="1894.95,-490.636 1903.31,-484.126 1892.72,-484.003 1894.95,-490.636"/>
</g>
<!-- Node12 -->
<g id="node12" class="node"><title>Node12</title>
<g id="a_node12"><a xlink:href="classtomoBay_1_1model_1_1sql_1_1framework_1_1QueryUtility.html#a138f0c046bc0a6df71b168ab35c3c3e3" target="_top" xlink:title="set an Integer parameter for the query object specified. ">
<polygon fill="white" stroke="black" points="698,-378.064 698,-408.064 850,-408.064 850,-378.064 698,-378.064"/>
<text text-anchor="start" x="706" y="-396.064" font-family="Helvetica,sans-Serif" font-size="10.00">tomoBay.model.sql.framework.</text>
<text text-anchor="middle" x="774" y="-385.064" font-family="Helvetica,sans-Serif" font-size="10.00">QueryUtility.setBIGINTParam</text>
</a>
</g>
</g>
<!-- Node11&#45;&gt;Node12 -->
<g id="edge18" class="edge"><title>Node11&#45;&gt;Node12</title>
<path fill="none" stroke="midnightblue" d="M662.117,-393.064C670.596,-393.064 679.281,-393.064 687.875,-393.064"/>
<polygon fill="midnightblue" stroke="midnightblue" points="687.905,-396.564 697.905,-393.064 687.905,-389.564 687.905,-396.564"/>
</g>
<!-- Node12&#45;&gt;Node3 -->
<g id="edge19" class="edge"><title>Node12&#45;&gt;Node3</title>
<path fill="none" stroke="midnightblue" d="M785.211,-377.722C825.355,-319.442 979.035,-115.064 1160,-115.064 1160,-115.064 1160,-115.064 1549.5,-115.064 1648.23,-115.064 1760.19,-126.942 1839.72,-137.417"/>
<polygon fill="midnightblue" stroke="midnightblue" points="1839.37,-140.901 1849.75,-138.752 1840.3,-133.962 1839.37,-140.901"/>
</g>
<!-- Node12&#45;&gt;Node7 -->
<g id="edge27" class="edge"><title>Node12&#45;&gt;Node7</title>
<path fill="none" stroke="midnightblue" d="M804.557,-408.202C867.931,-439.213 1022.32,-507.064 1160,-507.064 1160,-507.064 1160,-507.064 1549.5,-507.064 1651.54,-507.064 1767.7,-494.377 1847.61,-483.664"/>
<polygon fill="midnightblue" stroke="midnightblue" points="1848.22,-487.113 1857.65,-482.301 1847.27,-480.177 1848.22,-487.113"/>
</g>
<!-- Node13 -->
<g id="node13" class="node"><title>Node13</title>
<g id="a_node13"><a xlink:href="classtomoBay_1_1model_1_1sql_1_1framework_1_1QueryUtility.html#a56a65ac583b8720ae73dc81278e5690e" target="_top" xlink:title="set an Integer parameter for the query object specified. ">
<polygon fill="white" stroke="black" points="886,-378.064 886,-408.064 1039,-408.064 1039,-378.064 886,-378.064"/>
<text text-anchor="start" x="894" y="-396.064" font-family="Helvetica,sans-Serif" font-size="10.00">tomoBay.model.sql.framework.</text>
<text text-anchor="middle" x="962.5" y="-385.064" font-family="Helvetica,sans-Serif" font-size="10.00">QueryUtility.setTINYINTParam</text>
</a>
</g>
</g>
<!-- Node12&#45;&gt;Node13 -->
<g id="edge20" class="edge"><title>Node12&#45;&gt;Node13</title>
<path fill="none" stroke="midnightblue" d="M850.051,-393.064C858.562,-393.064 867.285,-393.064 875.919,-393.064"/>
<polygon fill="midnightblue" stroke="midnightblue" points="875.996,-396.564 885.996,-393.064 875.996,-389.564 875.996,-396.564"/>
</g>
<!-- Node13&#45;&gt;Node3 -->
<g id="edge21" class="edge"><title>Node13&#45;&gt;Node3</title>
<path fill="none" stroke="midnightblue" d="M976.065,-378.051C1021.54,-325.509 1184.04,-153.064 1358,-153.064 1358,-153.064 1358,-153.064 1549.5,-153.064 1647.94,-153.064 1760.16,-153.064 1839.86,-153.064"/>
<polygon fill="midnightblue" stroke="midnightblue" points="1839.9,-156.564 1849.9,-153.064 1839.9,-149.564 1839.9,-156.564"/>
</g>
<!-- Node13&#45;&gt;Node7 -->
<g id="edge26" class="edge"><title>Node13&#45;&gt;Node7</title>
<path fill="none" stroke="midnightblue" d="M1010.3,-408.079C1083.61,-430.228 1230.36,-469.064 1358,-469.064 1358,-469.064 1358,-469.064 1549.5,-469.064 1651.23,-469.064 1767.69,-469.064 1847.74,-469.064"/>
<polygon fill="midnightblue" stroke="midnightblue" points="1847.81,-472.564 1857.81,-469.064 1847.81,-465.564 1847.81,-472.564"/>
</g>
<!-- Node14 -->
<g id="node14" class="node"><title>Node14</title>
<g id="a_node14"><a xlink:href="classtomoBay_1_1model_1_1sql_1_1framework_1_1QueryUtility.html#ab07d04299a96461dcf893416b8e32604" target="_top" xlink:title="set an Integer parameter for the query object specified. ">
<polygon fill="white" stroke="black" points="1075,-378.064 1075,-408.064 1247,-408.064 1247,-378.064 1075,-378.064"/>
<text text-anchor="start" x="1083" y="-396.064" font-family="Helvetica,sans-Serif" font-size="10.00">tomoBay.model.sql.framework.</text>
<text text-anchor="middle" x="1161" y="-385.064" font-family="Helvetica,sans-Serif" font-size="10.00">QueryUtility.setTIMESTAMPParam</text>
</a>
</g>
</g>
<!-- Node13&#45;&gt;Node14 -->
<g id="edge22" class="edge"><title>Node13&#45;&gt;Node14</title>
<path fill="none" stroke="midnightblue" d="M1039.19,-393.064C1047.58,-393.064 1056.21,-393.064 1064.8,-393.064"/>
<polygon fill="midnightblue" stroke="midnightblue" points="1064.86,-396.564 1074.86,-393.064 1064.86,-389.564 1064.86,-396.564"/>
</g>
<!-- Node14&#45;&gt;Node2 -->
<g id="edge24" class="edge"><title>Node14&#45;&gt;Node2</title>
<path fill="none" stroke="midnightblue" d="M1228.9,-378.045C1245.68,-374.278 1263.82,-370.207 1281.05,-366.34"/>
<polygon fill="midnightblue" stroke="midnightblue" points="1282.07,-369.696 1291.07,-364.09 1280.54,-362.866 1282.07,-369.696"/>
</g>
<!-- Node14&#45;&gt;Node3 -->
<g id="edge23" class="edge"><title>Node14&#45;&gt;Node3</title>
<path fill="none" stroke="midnightblue" d="M1247.13,-389.531C1301.13,-386.622 1372.37,-381.556 1435,-373.064 1520.77,-361.436 1552.98,-381.535 1626,-335.064 1648.8,-320.555 1639.8,-301.466 1662,-286.064 1719.69,-246.051 1750.45,-272.893 1814,-243.064 1853.27,-224.631 1893.72,-194.892 1919.08,-174.687"/>
<polygon fill="midnightblue" stroke="midnightblue" points="1921.5,-177.235 1927.08,-168.231 1917.1,-171.788 1921.5,-177.235"/>
</g>
<!-- Node14&#45;&gt;Node7 -->
<g id="edge25" class="edge"><title>Node14&#45;&gt;Node7</title>
<path fill="none" stroke="midnightblue" d="M1247.25,-403.198C1259.25,-404.546 1271.43,-405.872 1283,-407.064 1518.71,-431.35 1578.18,-431.806 1814,-455.064 1825,-456.149 1836.52,-457.324 1847.97,-458.515"/>
<polygon fill="midnightblue" stroke="midnightblue" points="1847.69,-462.005 1858,-459.565 1848.41,-455.043 1847.69,-462.005"/>
</g>
</g>
</svg>
