<?xml version="1.0" encoding="UTF-8" standalone="no"?>
<!DOCTYPE svg PUBLIC "-//W3C//DTD SVG 1.1//EN"
 "http://www.w3.org/Graphics/SVG/1.1/DTD/svg11.dtd">
<!-- Generated by graphviz version 2.38.0 (20140413.2041)
 -->
<!-- Title: setRecipient Pages: 1 -->
<svg width="987pt" height="180pt"
 viewBox="0.00 0.00 987.00 180.00" xmlns="http://www.w3.org/2000/svg" xmlns:xlink="http://www.w3.org/1999/xlink">
<g id="graph0" class="graph" transform="scale(1 1) rotate(0) translate(4 176)">
<title>setRecipient</title>
<polygon fill="white" stroke="none" points="-4,4 -4,-176 983,-176 983,4 -4,4"/>
<!-- Node1 -->
<g id="node1" class="node"><title>Node1</title>
<polygon fill="#bfbfbf" stroke="black" points="0,-87.5 0,-106.5 71,-106.5 71,-87.5 0,-87.5"/>
<text text-anchor="middle" x="35.5" y="-94.5" font-family="Helvetica,sans-Serif" font-size="10.00">setRecipient</text>
</g>
<!-- Node2 -->
<g id="node2" class="node"><title>Node2</title>
<g id="a_node2"><a xlink:href="classtomoBay_1_1model_1_1services_1_1emailErrorsService_1_1EmailErrorsMailActions.html#a6821a16486f28486b3191bb50a167262" target="_top" xlink:title="add a recipient to the email ">
<polygon fill="white" stroke="black" points="107,-130.5 107,-171.5 307,-171.5 307,-130.5 107,-130.5"/>
<text text-anchor="start" x="115" y="-159.5" font-family="Helvetica,sans-Serif" font-size="10.00">tomoBay.model.services.email</text>
<text text-anchor="start" x="115" y="-148.5" font-family="Helvetica,sans-Serif" font-size="10.00">ErrorsService.EmailErrorsMailActions.add</text>
<text text-anchor="middle" x="207" y="-137.5" font-family="Helvetica,sans-Serif" font-size="10.00">Recipient</text>
</a>
</g>
</g>
<!-- Node1&#45;&gt;Node2 -->
<g id="edge1" class="edge"><title>Node1&#45;&gt;Node2</title>
<path fill="none" stroke="midnightblue" d="M71.9396,-110.002C83.113,-113.984 95.5321,-118.29 107,-122 115.776,-124.839 125.027,-127.709 134.208,-130.483"/>
<polygon fill="midnightblue" stroke="midnightblue" points="73.091,-106.697 62.4966,-106.609 70.724,-113.285 73.091,-106.697"/>
</g>
<!-- Node6 -->
<g id="node6" class="node"><title>Node6</title>
<g id="a_node6"><a xlink:href="classtomoBayTests_1_1model_1_1net_1_1email_1_1EmailTest.html#a8b260eecbaabcef8473fd87ada040682" target="_top" xlink:title="tomoBayTests.model.net.email.\lEmailTest.main">
<polygon fill="white" stroke="black" points="129.5,-82 129.5,-112 284.5,-112 284.5,-82 129.5,-82"/>
<text text-anchor="start" x="137.5" y="-100" font-family="Helvetica,sans-Serif" font-size="10.00">tomoBayTests.model.net.email.</text>
<text text-anchor="middle" x="207" y="-89" font-family="Helvetica,sans-Serif" font-size="10.00">EmailTest.main</text>
</a>
</g>
</g>
<!-- Node1&#45;&gt;Node6 -->
<g id="edge5" class="edge"><title>Node1&#45;&gt;Node6</title>
<path fill="none" stroke="midnightblue" d="M81.5198,-97C96.2282,-97 113,-97 129.365,-97"/>
<polygon fill="midnightblue" stroke="midnightblue" points="81.2099,-93.5001 71.2099,-97 81.2098,-100.5 81.2099,-93.5001"/>
</g>
<!-- Node7 -->
<g id="node7" class="node"><title>Node7</title>
<g id="a_node7"><a xlink:href="classtomoBay_1_1model_1_1net_1_1email_1_1MailClient.html#ab932ccc2020ca1398b5eb546e77a8d63" target="_top" xlink:title="set up the email ready to use in the rest of the mail client ">
<polygon fill="white" stroke="black" points="141.5,-33 141.5,-63 272.5,-63 272.5,-33 141.5,-33"/>
<text text-anchor="start" x="149.5" y="-51" font-family="Helvetica,sans-Serif" font-size="10.00">tomoBay.model.net.email.</text>
<text text-anchor="middle" x="207" y="-40" font-family="Helvetica,sans-Serif" font-size="10.00">MailClient.setUpEmail</text>
</a>
</g>
</g>
<!-- Node1&#45;&gt;Node7 -->
<g id="edge6" class="edge"><title>Node1&#45;&gt;Node7</title>
<path fill="none" stroke="midnightblue" d="M72.5085,-84.1165C83.5193,-80.3463 95.7044,-76.3429 107,-73 118.644,-69.554 131.145,-66.1622 143.21,-63.0423"/>
<polygon fill="midnightblue" stroke="midnightblue" points="71.0873,-80.9048 62.7859,-87.4879 73.3807,-87.5185 71.0873,-80.9048"/>
</g>
<!-- Node3 -->
<g id="node3" class="node"><title>Node3</title>
<g id="a_node3"><a xlink:href="classtomoBay_1_1model_1_1services_1_1emailErrorsService_1_1EmailErrorsMailActions.html#ad1dbcb645114a23c7e2a441cb6ae9ca4" target="_top" xlink:title="handle the creation of the Email by passing in a map with the appropriate data inside it...">
<polygon fill="white" stroke="black" points="343,-136 343,-166 566,-166 566,-136 343,-136"/>
<text text-anchor="start" x="351" y="-154" font-family="Helvetica,sans-Serif" font-size="10.00">tomoBay.model.services.email</text>
<text text-anchor="middle" x="454.5" y="-143" font-family="Helvetica,sans-Serif" font-size="10.00">ErrorsService.EmailErrorsMailActions.loadData</text>
</a>
</g>
</g>
<!-- Node2&#45;&gt;Node3 -->
<g id="edge2" class="edge"><title>Node2&#45;&gt;Node3</title>
<path fill="none" stroke="midnightblue" d="M317.366,-151C325.787,-151 334.294,-151 342.724,-151"/>
<polygon fill="midnightblue" stroke="midnightblue" points="317.147,-147.5 307.147,-151 317.147,-154.5 317.147,-147.5"/>
</g>
<!-- Node4 -->
<g id="node4" class="node"><title>Node4</title>
<g id="a_node4"><a xlink:href="classtomoBay_1_1model_1_1services_1_1emailErrorsService_1_1OnRunning.html#ae4a4f4cadce2787c7e80005639fbd5d9" target="_top" xlink:title="this method defines what to do in the given derived state ">
<polygon fill="white" stroke="black" points="602,-136 602,-166 767,-166 767,-136 602,-136"/>
<text text-anchor="start" x="610" y="-154" font-family="Helvetica,sans-Serif" font-size="10.00">tomoBay.model.services.email</text>
<text text-anchor="middle" x="684.5" y="-143" font-family="Helvetica,sans-Serif" font-size="10.00">ErrorsService.OnRunning.execute</text>
</a>
</g>
</g>
<!-- Node3&#45;&gt;Node4 -->
<g id="edge3" class="edge"><title>Node3&#45;&gt;Node4</title>
<path fill="none" stroke="midnightblue" d="M576.308,-151C584.942,-151 593.523,-151 601.853,-151"/>
<polygon fill="midnightblue" stroke="midnightblue" points="576.161,-147.5 566.161,-151 576.161,-154.5 576.161,-147.5"/>
</g>
<!-- Node5 -->
<g id="node5" class="node"><title>Node5</title>
<g id="a_node5"><a xlink:href="classtomoBay_1_1model_1_1services_1_1emailErrorsService_1_1EmailErrorsService.html#ae3b0a282dcba7f2d675ca89b1dd48487" target="_top" xlink:title="tomoBay.model.services.email\lErrorsService.EmailErrorsService.on\lRunning">
<polygon fill="white" stroke="black" points="803,-130.5 803,-171.5 979,-171.5 979,-130.5 803,-130.5"/>
<text text-anchor="start" x="811" y="-159.5" font-family="Helvetica,sans-Serif" font-size="10.00">tomoBay.model.services.email</text>
<text text-anchor="start" x="811" y="-148.5" font-family="Helvetica,sans-Serif" font-size="10.00">ErrorsService.EmailErrorsService.on</text>
<text text-anchor="middle" x="891" y="-137.5" font-family="Helvetica,sans-Serif" font-size="10.00">Running</text>
</a>
</g>
</g>
<!-- Node4&#45;&gt;Node5 -->
<g id="edge4" class="edge"><title>Node4&#45;&gt;Node5</title>
<path fill="none" stroke="midnightblue" d="M777.413,-151C785.833,-151 794.348,-151 802.725,-151"/>
<polygon fill="midnightblue" stroke="midnightblue" points="777.205,-147.5 767.205,-151 777.205,-154.5 777.205,-147.5"/>
</g>
<!-- Node8 -->
<g id="node8" class="node"><title>Node8</title>
<g id="a_node8"><a xlink:href="classtomoBay_1_1model_1_1net_1_1email_1_1MailClient.html#af9eddf4b6d3506f30b2f282c86c59ed6" target="_top" xlink:title="tomoBay.model.net.email.\lMailClient.send">
<polygon fill="white" stroke="black" points="389,-33 389,-63 520,-63 520,-33 389,-33"/>
<text text-anchor="start" x="397" y="-51" font-family="Helvetica,sans-Serif" font-size="10.00">tomoBay.model.net.email.</text>
<text text-anchor="middle" x="454.5" y="-40" font-family="Helvetica,sans-Serif" font-size="10.00">MailClient.send</text>
</a>
</g>
</g>
<!-- Node7&#45;&gt;Node8 -->
<g id="edge7" class="edge"><title>Node7&#45;&gt;Node8</title>
<path fill="none" stroke="midnightblue" d="M282.784,-48C316.554,-48 356.071,-48 388.576,-48"/>
<polygon fill="midnightblue" stroke="midnightblue" points="282.502,-44.5001 272.502,-48 282.502,-51.5001 282.502,-44.5001"/>
</g>
<!-- Node9 -->
<g id="node9" class="node"><title>Node9</title>
<g id="a_node9"><a xlink:href="classtomoBay_1_1model_1_1net_1_1email_1_1MailClient.html#a9a353e90e57af1d4968845017c4d6fa8" target="_top" xlink:title="tomoBay.model.net.email.\lMailClient.MailClient">
<polygon fill="white" stroke="black" points="619,-60 619,-90 750,-90 750,-60 619,-60"/>
<text text-anchor="start" x="627" y="-78" font-family="Helvetica,sans-Serif" font-size="10.00">tomoBay.model.net.email.</text>
<text text-anchor="middle" x="684.5" y="-67" font-family="Helvetica,sans-Serif" font-size="10.00">MailClient.MailClient</text>
</a>
</g>
</g>
<!-- Node8&#45;&gt;Node9 -->
<g id="edge8" class="edge"><title>Node8&#45;&gt;Node9</title>
<path fill="none" stroke="midnightblue" d="M530.158,-56.8411C558.719,-60.2233 591.036,-64.0503 618.612,-67.3159"/>
<polygon fill="midnightblue" stroke="midnightblue" points="530.568,-53.3653 520.226,-55.6649 529.745,-60.3167 530.568,-53.3653"/>
</g>
<!-- Node10 -->
<g id="node10" class="node"><title>Node10</title>
<g id="a_node10"><a xlink:href="classtomoBay_1_1presenters_1_1presenterActions_1_1concreteActions_1_1InvoiceOrders.html#a9c77c827472e4f09aa020d55e7d33b10" target="_top" xlink:title="tomoBay.presenters.presenter\lActions.concreteActions.Invoice\lOrders.emailResults">
<polygon fill="white" stroke="black" points="605.5,-0.5 605.5,-41.5 763.5,-41.5 763.5,-0.5 605.5,-0.5"/>
<text text-anchor="start" x="613.5" y="-29.5" font-family="Helvetica,sans-Serif" font-size="10.00">tomoBay.presenters.presenter</text>
<text text-anchor="start" x="613.5" y="-18.5" font-family="Helvetica,sans-Serif" font-size="10.00">Actions.concreteActions.Invoice</text>
<text text-anchor="middle" x="684.5" y="-7.5" font-family="Helvetica,sans-Serif" font-size="10.00">Orders.emailResults</text>
</a>
</g>
</g>
<!-- Node8&#45;&gt;Node10 -->
<g id="edge9" class="edge"><title>Node8&#45;&gt;Node10</title>
<path fill="none" stroke="midnightblue" d="M530.34,-39.1374C554.351,-36.2939 581.001,-33.138 605.25,-30.2665"/>
<polygon fill="midnightblue" stroke="midnightblue" points="529.745,-35.6833 520.226,-40.3351 530.568,-42.6347 529.745,-35.6833"/>
</g>
<!-- Node11 -->
<g id="node11" class="node"><title>Node11</title>
<g id="a_node11"><a xlink:href="classtomoBay_1_1presenters_1_1presenterActions_1_1concreteActions_1_1InvoiceOrders.html#adb3dedf31dc2c7fc796f20406c235ccd" target="_top" xlink:title="performs the action specified ">
<polygon fill="white" stroke="black" points="812,-0.5 812,-41.5 970,-41.5 970,-0.5 812,-0.5"/>
<text text-anchor="start" x="820" y="-29.5" font-family="Helvetica,sans-Serif" font-size="10.00">tomoBay.presenters.presenter</text>
<text text-anchor="start" x="820" y="-18.5" font-family="Helvetica,sans-Serif" font-size="10.00">Actions.concreteActions.Invoice</text>
<text text-anchor="middle" x="891" y="-7.5" font-family="Helvetica,sans-Serif" font-size="10.00">Orders.execute</text>
</a>
</g>
</g>
<!-- Node10&#45;&gt;Node11 -->
<g id="edge10" class="edge"><title>Node10&#45;&gt;Node11</title>
<path fill="none" stroke="midnightblue" d="M773.771,-21C786.44,-21 799.4,-21 811.855,-21"/>
<polygon fill="midnightblue" stroke="midnightblue" points="773.688,-17.5001 763.688,-21 773.688,-24.5001 773.688,-17.5001"/>
</g>
</g>
</svg>
