<?xml version="1.0" encoding="UTF-8" standalone="no"?>
<!DOCTYPE svg PUBLIC "-//W3C//DTD SVG 1.1//EN"
 "http://www.w3.org/Graphics/SVG/1.1/DTD/svg11.dtd">
<!-- Generated by graphviz version 2.38.0 (20140413.2041)
 -->
<!-- Title: tomoBay.model.services.individualItemRefresh.ReCalculateRequiredStock.updateDB Pages: 1 -->
<svg width="771pt" height="39pt"
 viewBox="0.00 0.00 771.00 39.00" xmlns="http://www.w3.org/2000/svg" xmlns:xlink="http://www.w3.org/1999/xlink">
<g id="graph0" class="graph" transform="scale(1 1) rotate(0) translate(4 35)">
<title>tomoBay.model.services.individualItemRefresh.ReCalculateRequiredStock.updateDB</title>
<!-- Node1 -->
<g id="node1" class="node"><title>Node1</title>
<polygon fill="#bfbfbf" stroke="black" points="0,-0.5 0,-30.5 239,-30.5 239,-0.5 0,-0.5"/>
<text text-anchor="start" x="8" y="-18.5" font-family="Helvetica,sans-Serif" font-size="10.00">tomoBay.model.services.individual</text>
<text text-anchor="middle" x="119.5" y="-7.5" font-family="Helvetica,sans-Serif" font-size="10.00">ItemRefresh.ReCalculateRequiredStock.updateDB</text>
</g>
<!-- Node2 -->
<g id="node2" class="node"><title>Node2</title>
<g id="a_node2"><a xlink:href="classtomoBay_1_1model_1_1services_1_1individualItemRefresh_1_1ReCalculateRequiredStock.html#a60d11306692f52091266b66f1c7f03db" target="_top" xlink:title="tomoBay.model.services.individual\lItemRefresh.ReCalculateRequiredStock.calculate">
<polygon fill="none" stroke="black" points="275,-0.5 275,-30.5 509,-30.5 509,-0.5 275,-0.5"/>
<text text-anchor="start" x="283" y="-18.5" font-family="Helvetica,sans-Serif" font-size="10.00">tomoBay.model.services.individual</text>
<text text-anchor="middle" x="392" y="-7.5" font-family="Helvetica,sans-Serif" font-size="10.00">ItemRefresh.ReCalculateRequiredStock.calculate</text>
</a>
</g>
</g>
<!-- Node1&#45;&gt;Node2 -->
<g id="edge1" class="edge"><title>Node1&#45;&gt;Node2</title>
<path fill="none" stroke="midnightblue" d="M249.397,-15.5C257.821,-15.5 266.279,-15.5 274.639,-15.5"/>
<polygon fill="midnightblue" stroke="midnightblue" points="249.145,-12.0001 239.145,-15.5 249.145,-19.0001 249.145,-12.0001"/>
</g>
<!-- Node3 -->
<g id="node3" class="node"><title>Node3</title>
<g id="a_node3"><a xlink:href="classtomoBay_1_1model_1_1services_1_1individualItemRefresh_1_1IndividualItemRefreshService.html#a579244b8909621f27fc4871a532f87ee" target="_top" xlink:title="tomoBay.model.services.individual\lItemRefresh.IndividualItemRefreshService.run">
<polygon fill="none" stroke="black" points="545,-0.5 545,-30.5 763,-30.5 763,-0.5 545,-0.5"/>
<text text-anchor="start" x="553" y="-18.5" font-family="Helvetica,sans-Serif" font-size="10.00">tomoBay.model.services.individual</text>
<text text-anchor="middle" x="654" y="-7.5" font-family="Helvetica,sans-Serif" font-size="10.00">ItemRefresh.IndividualItemRefreshService.run</text>
</a>
</g>
</g>
<!-- Node2&#45;&gt;Node3 -->
<g id="edge2" class="edge"><title>Node2&#45;&gt;Node3</title>
<path fill="none" stroke="midnightblue" d="M519.541,-15.5C527.943,-15.5 536.364,-15.5 544.663,-15.5"/>
<polygon fill="midnightblue" stroke="midnightblue" points="519.312,-12.0001 509.312,-15.5 519.312,-19.0001 519.312,-12.0001"/>
</g>
</g>
</svg>
