<?xml version="1.0" encoding="UTF-8" standalone="no"?>
<!DOCTYPE svg PUBLIC "-//W3C//DTD SVG 1.1//EN"
 "http://www.w3.org/Graphics/SVG/1.1/DTD/svg11.dtd">
<!-- Generated by graphviz version 2.38.0 (20140413.2041)
 -->
<!-- Title: tomoBay.model.services.individualItemRefresh.ReCalculateAvailableStock.getStockLevel Pages: 1 -->
<svg width="742pt" height="50pt"
 viewBox="0.00 0.00 742.00 50.00" xmlns="http://www.w3.org/2000/svg" xmlns:xlink="http://www.w3.org/1999/xlink">
<g id="graph0" class="graph" transform="scale(1 1) rotate(0) translate(4 46)">
<title>tomoBay.model.services.individualItemRefresh.ReCalculateAvailableStock.getStockLevel</title>
<!-- Node1 -->
<g id="node1" class="node"><title>Node1</title>
<polygon fill="#bfbfbf" stroke="black" points="0,-0.5 0,-41.5 209,-41.5 209,-0.5 0,-0.5"/>
<text text-anchor="start" x="8" y="-29.5" font-family="Helvetica,sans-Serif" font-size="10.00">tomoBay.model.services.individual</text>
<text text-anchor="start" x="8" y="-18.5" font-family="Helvetica,sans-Serif" font-size="10.00">ItemRefresh.ReCalculateAvailableStock.get</text>
<text text-anchor="middle" x="104.5" y="-7.5" font-family="Helvetica,sans-Serif" font-size="10.00">StockLevel</text>
</g>
<!-- Node2 -->
<g id="node2" class="node"><title>Node2</title>
<g id="a_node2"><a xlink:href="classtomoBay_1_1model_1_1services_1_1individualItemRefresh_1_1ReCalculateAvailableStock.html#a96fe253ce37a93d8ec8ee54504e1da9f" target="_top" xlink:title="tomoBay.model.services.individual\lItemRefresh.ReCalculateAvailableStock.calculate">
<polygon fill="none" stroke="black" points="245,-6 245,-36 480,-36 480,-6 245,-6"/>
<text text-anchor="start" x="253" y="-24" font-family="Helvetica,sans-Serif" font-size="10.00">tomoBay.model.services.individual</text>
<text text-anchor="middle" x="362.5" y="-13" font-family="Helvetica,sans-Serif" font-size="10.00">ItemRefresh.ReCalculateAvailableStock.calculate</text>
</a>
</g>
</g>
<!-- Node1&#45;&gt;Node2 -->
<g id="edge1" class="edge"><title>Node1&#45;&gt;Node2</title>
<path fill="none" stroke="midnightblue" d="M219.412,-21C227.779,-21 236.227,-21 244.612,-21"/>
<polygon fill="midnightblue" stroke="midnightblue" points="219.256,-17.5001 209.256,-21 219.256,-24.5001 219.256,-17.5001"/>
</g>
<!-- Node3 -->
<g id="node3" class="node"><title>Node3</title>
<g id="a_node3"><a xlink:href="classtomoBay_1_1model_1_1services_1_1individualItemRefresh_1_1IndividualItemRefreshService.html#a579244b8909621f27fc4871a532f87ee" target="_top" xlink:title="tomoBay.model.services.individual\lItemRefresh.IndividualItemRefreshService.run">
<polygon fill="none" stroke="black" points="516,-6 516,-36 734,-36 734,-6 516,-6"/>
<text text-anchor="start" x="524" y="-24" font-family="Helvetica,sans-Serif" font-size="10.00">tomoBay.model.services.individual</text>
<text text-anchor="middle" x="625" y="-13" font-family="Helvetica,sans-Serif" font-size="10.00">ItemRefresh.IndividualItemRefreshService.run</text>
</a>
</g>
</g>
<!-- Node2&#45;&gt;Node3 -->
<g id="edge2" class="edge"><title>Node2&#45;&gt;Node3</title>
<path fill="none" stroke="midnightblue" d="M490.122,-21C498.73,-21 507.359,-21 515.858,-21"/>
<polygon fill="midnightblue" stroke="midnightblue" points="490.035,-17.5001 480.035,-21 490.035,-24.5001 490.035,-17.5001"/>
</g>
</g>
</svg>
