<?xml version="1.0" encoding="UTF-8" standalone="no"?>
<!DOCTYPE svg PUBLIC "-//W3C//DTD SVG 1.1//EN"
 "http://www.w3.org/Graphics/SVG/1.1/DTD/svg11.dtd">
<!-- Generated by graphviz version 2.38.0 (20140413.2041)
 -->
<!-- Title: tomoBay.view.HttpServer.start Pages: 1 -->
<svg width="342pt" height="88pt"
 viewBox="0.00 0.00 342.00 88.00" xmlns="http://www.w3.org/2000/svg" xmlns:xlink="http://www.w3.org/1999/xlink">
<g id="graph0" class="graph" transform="scale(1 1) rotate(0) translate(4 84)">
<title>tomoBay.view.HttpServer.start</title>
<!-- Node1 -->
<g id="node1" class="node"><title>Node1</title>
<polygon fill="#bfbfbf" stroke="black" points="0,-30 0,-49 152,-49 152,-30 0,-30"/>
<text text-anchor="middle" x="76" y="-37" font-family="Helvetica,sans-Serif" font-size="10.00">tomoBay.view.HttpServer.start</text>
</g>
<!-- Node2 -->
<g id="node2" class="node"><title>Node2</title>
<g id="a_node2"><a xlink:href="classtomoBay_1_1view_1_1HttpServer.html#a77903ab9ba6f3ec6a49c9022337b1235" target="_top" xlink:title="tomoBay.view.HttpServer.set\lUpDataServletHandler">
<polygon fill="none" stroke="black" points="188,-49.5 188,-79.5 334,-79.5 334,-49.5 188,-49.5"/>
<text text-anchor="start" x="196" y="-67.5" font-family="Helvetica,sans-Serif" font-size="10.00">tomoBay.view.HttpServer.set</text>
<text text-anchor="middle" x="261" y="-56.5" font-family="Helvetica,sans-Serif" font-size="10.00">UpDataServletHandler</text>
</a>
</g>
</g>
<!-- Node1&#45;&gt;Node2 -->
<g id="edge1" class="edge"><title>Node1&#45;&gt;Node2</title>
<path fill="none" stroke="midnightblue" d="M146.706,-49.0227C156.782,-50.3992 167.232,-51.8267 177.528,-53.2333"/>
<polygon fill="midnightblue" stroke="midnightblue" points="177.371,-56.7443 187.753,-54.6301 178.318,-49.8087 177.371,-56.7443"/>
</g>
<!-- Node3 -->
<g id="node3" class="node"><title>Node3</title>
<g id="a_node3"><a xlink:href="classtomoBay_1_1view_1_1HttpServer.html#a2111eb8935bdf0192cf5b24841bef438" target="_top" xlink:title="tomoBay.view.HttpServer.set\lUpGuiHandler">
<polygon fill="none" stroke="black" points="188,-0.5 188,-30.5 334,-30.5 334,-0.5 188,-0.5"/>
<text text-anchor="start" x="196" y="-18.5" font-family="Helvetica,sans-Serif" font-size="10.00">tomoBay.view.HttpServer.set</text>
<text text-anchor="middle" x="261" y="-7.5" font-family="Helvetica,sans-Serif" font-size="10.00">UpGuiHandler</text>
</a>
</g>
</g>
<!-- Node1&#45;&gt;Node3 -->
<g id="edge2" class="edge"><title>Node1&#45;&gt;Node3</title>
<path fill="none" stroke="midnightblue" d="M149.589,-29.9801C158.823,-28.7691 168.325,-27.5229 177.698,-26.2937"/>
<polygon fill="midnightblue" stroke="midnightblue" points="178.338,-29.7399 187.798,-24.9691 177.427,-22.7993 178.338,-29.7399"/>
</g>
</g>
</svg>
