<?xml version="1.0" encoding="UTF-8" standalone="no"?>
<!DOCTYPE svg PUBLIC "-//W3C//DTD SVG 1.1//EN"
 "http://www.w3.org/Graphics/SVG/1.1/DTD/svg11.dtd">
<!-- Generated by graphviz version 2.38.0 (20140413.2041)
 -->
<!-- Title: tomoBay.model.winstock.Stock.postFormatXMLString Pages: 1 -->
<svg width="1182pt" height="158pt"
 viewBox="0.00 0.00 1182.00 158.50" xmlns="http://www.w3.org/2000/svg" xmlns:xlink="http://www.w3.org/1999/xlink">
<g id="graph0" class="graph" transform="scale(1 1) rotate(0) translate(4 154.5)">
<title>tomoBay.model.winstock.Stock.postFormatXMLString</title>
<!-- Node1 -->
<g id="node1" class="node"><title>Node1</title>
<polygon fill="#bfbfbf" stroke="black" points="0,-54.5 0,-84.5 177,-84.5 177,-54.5 0,-54.5"/>
<text text-anchor="start" x="8" y="-72.5" font-family="Helvetica,sans-Serif" font-size="10.00">tomoBay.model.winstock.Stock.post</text>
<text text-anchor="middle" x="88.5" y="-61.5" font-family="Helvetica,sans-Serif" font-size="10.00">FormatXMLString</text>
</g>
<!-- Node2 -->
<g id="node2" class="node"><title>Node2</title>
<g id="a_node2"><a xlink:href="classtomoBay_1_1model_1_1winstock_1_1Stock.html#a1782a19980de34680ae751b8a334af96" target="_top" xlink:title="tomoBay.model.winstock.Stock.request\lStockLevel">
<polygon fill="none" stroke="black" points="213,-54.5 213,-84.5 404,-84.5 404,-54.5 213,-54.5"/>
<text text-anchor="start" x="221" y="-72.5" font-family="Helvetica,sans-Serif" font-size="10.00">tomoBay.model.winstock.Stock.request</text>
<text text-anchor="middle" x="308.5" y="-61.5" font-family="Helvetica,sans-Serif" font-size="10.00">StockLevel</text>
</a>
</g>
</g>
<!-- Node1&#45;&gt;Node2 -->
<g id="edge1" class="edge"><title>Node1&#45;&gt;Node2</title>
<path fill="none" stroke="midnightblue" d="M187.456,-69.5C195.889,-69.5 204.412,-69.5 212.819,-69.5"/>
<polygon fill="midnightblue" stroke="midnightblue" points="187.227,-66.0001 177.227,-69.5 187.227,-73.0001 187.227,-66.0001"/>
</g>
<!-- Node3 -->
<g id="node3" class="node"><title>Node3</title>
<g id="a_node3"><a xlink:href="classtomoBay_1_1model_1_1services_1_1individualItemRefresh_1_1ReCalculateAvailableStock.html#ae8dc1c5e396d7715d9075395ec57c9b0" target="_top" xlink:title="tomoBay.model.services.individual\lItemRefresh.ReCalculateAvailableStock.get\lStockLevel">
<polygon fill="none" stroke="black" points="440,-109 440,-150 649,-150 649,-109 440,-109"/>
<text text-anchor="start" x="448" y="-138" font-family="Helvetica,sans-Serif" font-size="10.00">tomoBay.model.services.individual</text>
<text text-anchor="start" x="448" y="-127" font-family="Helvetica,sans-Serif" font-size="10.00">ItemRefresh.ReCalculateAvailableStock.get</text>
<text text-anchor="middle" x="544.5" y="-116" font-family="Helvetica,sans-Serif" font-size="10.00">StockLevel</text>
</a>
</g>
</g>
<!-- Node2&#45;&gt;Node3 -->
<g id="edge2" class="edge"><title>Node2&#45;&gt;Node3</title>
<path fill="none" stroke="midnightblue" d="M378.275,-87.1346C405.001,-93.9875 435.797,-101.884 463.506,-108.989"/>
<polygon fill="midnightblue" stroke="midnightblue" points="378.802,-83.6566 368.246,-84.5631 377.063,-90.4372 378.802,-83.6566"/>
</g>
<!-- Node6 -->
<g id="node6" class="node"><title>Node6</title>
<g id="a_node6"><a xlink:href="classtomoBay_1_1model_1_1services_1_1invoiceOrderService_1_1CalculateInvoiceStatus.html#a36bda615a95d80b2d5d3b24e04f6ae96" target="_top" xlink:title="tomoBay.model.services.invoice\lOrderService.CalculateInvoiceStatus.check\lStockLevelOfItems">
<polygon fill="none" stroke="black" points="441,-49 441,-90 648,-90 648,-49 441,-49"/>
<text text-anchor="start" x="449" y="-78" font-family="Helvetica,sans-Serif" font-size="10.00">tomoBay.model.services.invoice</text>
<text text-anchor="start" x="449" y="-67" font-family="Helvetica,sans-Serif" font-size="10.00">OrderService.CalculateInvoiceStatus.check</text>
<text text-anchor="middle" x="544.5" y="-56" font-family="Helvetica,sans-Serif" font-size="10.00">StockLevelOfItems</text>
</a>
</g>
</g>
<!-- Node2&#45;&gt;Node6 -->
<g id="edge5" class="edge"><title>Node2&#45;&gt;Node6</title>
<path fill="none" stroke="midnightblue" d="M414.056,-69.5C423.007,-69.5 432.057,-69.5 440.992,-69.5"/>
<polygon fill="midnightblue" stroke="midnightblue" points="414.002,-66.0001 404.002,-69.5 414.002,-73.0001 414.002,-66.0001"/>
</g>
<!-- Node9 -->
<g id="node9" class="node"><title>Node9</title>
<g id="a_node9"><a xlink:href="classtomoBay_1_1model_1_1services_1_1stockUpdate_1_1StockUpdateService.html#a63ca24ed6e25278a5a3ececabc936ccc" target="_top" xlink:title="tomoBay.model.services.stock\lUpdate.StockUpdateService.getStockLevel">
<polygon fill="none" stroke="black" points="441.5,-0.5 441.5,-30.5 647.5,-30.5 647.5,-0.5 441.5,-0.5"/>
<text text-anchor="start" x="449.5" y="-18.5" font-family="Helvetica,sans-Serif" font-size="10.00">tomoBay.model.services.stock</text>
<text text-anchor="middle" x="544.5" y="-7.5" font-family="Helvetica,sans-Serif" font-size="10.00">Update.StockUpdateService.getStockLevel</text>
</a>
</g>
</g>
<!-- Node2&#45;&gt;Node9 -->
<g id="edge9" class="edge"><title>Node2&#45;&gt;Node9</title>
<path fill="none" stroke="midnightblue" d="M384.72,-52.1414C414.842,-45.1902 449.217,-37.2575 478.262,-30.5549"/>
<polygon fill="midnightblue" stroke="midnightblue" points="383.639,-48.7989 374.682,-54.458 385.213,-55.6197 383.639,-48.7989"/>
</g>
<!-- Node4 -->
<g id="node4" class="node"><title>Node4</title>
<g id="a_node4"><a xlink:href="classtomoBay_1_1model_1_1services_1_1individualItemRefresh_1_1ReCalculateAvailableStock.html#a96fe253ce37a93d8ec8ee54504e1da9f" target="_top" xlink:title="tomoBay.model.services.individual\lItemRefresh.ReCalculateAvailableStock.calculate">
<polygon fill="none" stroke="black" points="685,-114.5 685,-144.5 920,-144.5 920,-114.5 685,-114.5"/>
<text text-anchor="start" x="693" y="-132.5" font-family="Helvetica,sans-Serif" font-size="10.00">tomoBay.model.services.individual</text>
<text text-anchor="middle" x="802.5" y="-121.5" font-family="Helvetica,sans-Serif" font-size="10.00">ItemRefresh.ReCalculateAvailableStock.calculate</text>
</a>
</g>
</g>
<!-- Node3&#45;&gt;Node4 -->
<g id="edge3" class="edge"><title>Node3&#45;&gt;Node4</title>
<path fill="none" stroke="midnightblue" d="M659.412,-129.5C667.779,-129.5 676.227,-129.5 684.612,-129.5"/>
<polygon fill="midnightblue" stroke="midnightblue" points="659.256,-126 649.256,-129.5 659.256,-133 659.256,-126"/>
</g>
<!-- Node5 -->
<g id="node5" class="node"><title>Node5</title>
<g id="a_node5"><a xlink:href="classtomoBay_1_1model_1_1services_1_1individualItemRefresh_1_1IndividualItemRefreshService.html#a579244b8909621f27fc4871a532f87ee" target="_top" xlink:title="tomoBay.model.services.individual\lItemRefresh.IndividualItemRefreshService.run">
<polygon fill="none" stroke="black" points="956,-114.5 956,-144.5 1174,-144.5 1174,-114.5 956,-114.5"/>
<text text-anchor="start" x="964" y="-132.5" font-family="Helvetica,sans-Serif" font-size="10.00">tomoBay.model.services.individual</text>
<text text-anchor="middle" x="1065" y="-121.5" font-family="Helvetica,sans-Serif" font-size="10.00">ItemRefresh.IndividualItemRefreshService.run</text>
</a>
</g>
</g>
<!-- Node4&#45;&gt;Node5 -->
<g id="edge4" class="edge"><title>Node4&#45;&gt;Node5</title>
<path fill="none" stroke="midnightblue" d="M930.122,-129.5C938.73,-129.5 947.359,-129.5 955.858,-129.5"/>
<polygon fill="midnightblue" stroke="midnightblue" points="930.035,-126 920.035,-129.5 930.035,-133 930.035,-126"/>
</g>
<!-- Node7 -->
<g id="node7" class="node"><title>Node7</title>
<g id="a_node7"><a xlink:href="classtomoBay_1_1model_1_1services_1_1invoiceOrderService_1_1CalculateInvoiceStatus.html#ad6339cffa2c8fa1f1030aa611eda0073" target="_top" xlink:title="tomoBay.model.services.invoice\lOrderService.CalculateInvoiceStatus.status">
<polygon fill="none" stroke="black" points="698.5,-54.5 698.5,-84.5 906.5,-84.5 906.5,-54.5 698.5,-54.5"/>
<text text-anchor="start" x="706.5" y="-72.5" font-family="Helvetica,sans-Serif" font-size="10.00">tomoBay.model.services.invoice</text>
<text text-anchor="middle" x="802.5" y="-61.5" font-family="Helvetica,sans-Serif" font-size="10.00">OrderService.CalculateInvoiceStatus.status</text>
</a>
</g>
</g>
<!-- Node6&#45;&gt;Node7 -->
<g id="edge6" class="edge"><title>Node6&#45;&gt;Node7</title>
<path fill="none" stroke="midnightblue" d="M658.3,-62.7925C671.644,-62.7176 685.21,-62.7417 698.41,-62.8649"/>
<polygon fill="midnightblue" stroke="midnightblue" points="658.123,-59.2936 648.15,-62.8691 658.176,-66.2934 658.123,-59.2936"/>
</g>
<!-- Node7&#45;&gt;Node6 -->
<g id="edge7" class="edge"><title>Node7&#45;&gt;Node6</title>
<path fill="none" stroke="midnightblue" d="M688.254,-76.21C674.906,-76.2827 661.341,-76.2563 648.15,-76.1309"/>
<polygon fill="midnightblue" stroke="midnightblue" points="688.436,-79.7088 698.41,-76.1351 688.384,-72.709 688.436,-79.7088"/>
</g>
<!-- Node8 -->
<g id="node8" class="node"><title>Node8</title>
<g id="a_node8"><a xlink:href="classtomoBay_1_1model_1_1services_1_1invoiceOrderService_1_1InvoiceService.html#ad8015302f0357597a82b61512755a1ed" target="_top" xlink:title="tomoBay.model.services.invoice\lOrderService.InvoiceService.run">
<polygon fill="none" stroke="black" points="986,-54.5 986,-84.5 1144,-84.5 1144,-54.5 986,-54.5"/>
<text text-anchor="start" x="994" y="-72.5" font-family="Helvetica,sans-Serif" font-size="10.00">tomoBay.model.services.invoice</text>
<text text-anchor="middle" x="1065" y="-61.5" font-family="Helvetica,sans-Serif" font-size="10.00">OrderService.InvoiceService.run</text>
</a>
</g>
</g>
<!-- Node7&#45;&gt;Node8 -->
<g id="edge8" class="edge"><title>Node7&#45;&gt;Node8</title>
<path fill="none" stroke="midnightblue" d="M917.06,-69.5C940.229,-69.5 964.115,-69.5 985.719,-69.5"/>
<polygon fill="midnightblue" stroke="midnightblue" points="916.831,-66.0001 906.831,-69.5 916.831,-73.0001 916.831,-66.0001"/>
</g>
<!-- Node10 -->
<g id="node10" class="node"><title>Node10</title>
<g id="a_node10"><a xlink:href="classtomoBay_1_1model_1_1services_1_1stockUpdate_1_1StockUpdateService.html#a4ca5d3569102ee0441f7f5548ea297b0" target="_top" xlink:title="tomoBay.model.services.stock\lUpdate.StockUpdateService.run">
<polygon fill="none" stroke="black" points="723.5,-0.5 723.5,-30.5 881.5,-30.5 881.5,-0.5 723.5,-0.5"/>
<text text-anchor="start" x="731.5" y="-18.5" font-family="Helvetica,sans-Serif" font-size="10.00">tomoBay.model.services.stock</text>
<text text-anchor="middle" x="802.5" y="-7.5" font-family="Helvetica,sans-Serif" font-size="10.00">Update.StockUpdateService.run</text>
</a>
</g>
</g>
<!-- Node9&#45;&gt;Node10 -->
<g id="edge10" class="edge"><title>Node9&#45;&gt;Node10</title>
<path fill="none" stroke="midnightblue" d="M657.889,-15.5C680.006,-15.5 702.753,-15.5 723.437,-15.5"/>
<polygon fill="midnightblue" stroke="midnightblue" points="657.782,-12.0001 647.782,-15.5 657.782,-19.0001 657.782,-12.0001"/>
</g>
</g>
</svg>
