<?xml version="1.0" encoding="UTF-8" standalone="no"?>
<!DOCTYPE svg PUBLIC "-//W3C//DTD SVG 1.1//EN"
 "http://www.w3.org/Graphics/SVG/1.1/DTD/svg11.dtd">
<!-- Generated by graphviz version 2.38.0 (20140413.2041)
 -->
<!-- Title: clear Pages: 1 -->
<svg width="240pt" height="88pt"
 viewBox="0.00 0.00 240.00 88.00" xmlns="http://www.w3.org/2000/svg" xmlns:xlink="http://www.w3.org/1999/xlink">
<g id="graph0" class="graph" transform="scale(1 1) rotate(0) translate(4 84)">
<title>clear</title>
<polygon fill="white" stroke="none" points="-4,4 -4,-84 236,-84 236,4 -4,4"/>
<!-- Node1 -->
<g id="node1" class="node"><title>Node1</title>
<polygon fill="#bfbfbf" stroke="black" points="0,-30 0,-49 38,-49 38,-30 0,-30"/>
<text text-anchor="middle" x="19" y="-37" font-family="Helvetica,sans-Serif" font-size="10.00">clear</text>
</g>
<!-- Node2 -->
<g id="node2" class="node"><title>Node2</title>
<g id="a_node2"><a xlink:href="classtomoBay_1_1model_1_1dataTypes_1_1json_1_1JSONentity.html#aafcf7f0840d4c2d2210984bb61943fb2" target="_top" xlink:title="tomoBay.model.dataTypes.json.\lJSONentity.clear">
<polygon fill="white" stroke="black" points="74,-49.5 74,-79.5 232,-79.5 232,-49.5 74,-49.5"/>
<text text-anchor="start" x="82" y="-67.5" font-family="Helvetica,sans-Serif" font-size="10.00">tomoBay.model.dataTypes.json.</text>
<text text-anchor="middle" x="153" y="-56.5" font-family="Helvetica,sans-Serif" font-size="10.00">JSONentity.clear</text>
</a>
</g>
</g>
<!-- Node1&#45;&gt;Node2 -->
<g id="edge1" class="edge"><title>Node1&#45;&gt;Node2</title>
<path fill="none" stroke="midnightblue" d="M47.9492,-44.7934C55.7265,-46.2664 64.5744,-47.9421 73.7497,-49.6799"/>
<polygon fill="midnightblue" stroke="midnightblue" points="48.5539,-41.3458 38.0773,-42.9237 47.2513,-48.2235 48.5539,-41.3458"/>
</g>
<!-- Node3 -->
<g id="node3" class="node"><title>Node3</title>
<g id="a_node3"><a xlink:href="classtomoBay_1_1model_1_1dataTypes_1_1json_1_1JSONentity.html#a32d626626eee0bc4ade146973f6abb1c" target="_top" xlink:title="tomoBay.model.dataTypes.json.\lJSONentity.finalize">
<polygon fill="white" stroke="black" points="74,-0.5 74,-30.5 232,-30.5 232,-0.5 74,-0.5"/>
<text text-anchor="start" x="82" y="-18.5" font-family="Helvetica,sans-Serif" font-size="10.00">tomoBay.model.dataTypes.json.</text>
<text text-anchor="middle" x="153" y="-7.5" font-family="Helvetica,sans-Serif" font-size="10.00">JSONentity.finalize</text>
</a>
</g>
</g>
<!-- Node1&#45;&gt;Node3 -->
<g id="edge2" class="edge"><title>Node1&#45;&gt;Node3</title>
<path fill="none" stroke="midnightblue" d="M47.9492,-34.4183C55.7265,-33.0043 64.5744,-31.3956 73.7497,-29.7273"/>
<polygon fill="midnightblue" stroke="midnightblue" points="47.2898,-30.9807 38.0773,-36.2132 48.5421,-37.8678 47.2898,-30.9807"/>
</g>
</g>
</svg>
