<?xml version="1.0" encoding="UTF-8" standalone="no"?>
<!DOCTYPE svg PUBLIC "-//W3C//DTD SVG 1.1//EN"
 "http://www.w3.org/Graphics/SVG/1.1/DTD/svg11.dtd">
<!-- Generated by graphviz version 2.38.0 (20140413.2041)
 -->
<!-- Title: AbstractModifyQueryParams Pages: 1 -->
<!--zoomable 447 -->
<svg id="main" version="1.1" xmlns="http://www.w3.org/2000/svg" xmlns:xlink="http://www.w3.org/1999/xlink" xml:space="preserve" onload="init(evt)">
<style type="text/css"><![CDATA[
.edge:hover path { stroke: red; }
.edge:hover polygon { stroke: red; fill: red; }
]]></style>
<script type="text/javascript"><![CDATA[
var edges = document.getElementsByTagName('g');
if (edges && edges.length) {
  for (var i=0;i<edges.length;i++) {
    if (edges[i].id.substr(0,4)=='edge') {
      edges[i].setAttribute('class','edge');
    }
  }
}
]]></script>
        <defs>
                <circle id="rim" cx="0" cy="0" r="7"/>
                <circle id="rim2" cx="0" cy="0" r="3.5"/>
                <g id="zoomPlus">
                        <use xlink:href="#rim" fill="#404040">
                                <set attributeName="fill" to="#808080" begin="zoomplus.mouseover" end="zoomplus.mouseout"/>
                        </use>
                        <path d="M-4,0h8M0,-4v8" fill="none" stroke="white" stroke-width="1.5" pointer-events="none"/>
                </g>
                <g id="zoomMin">
                        <use xlink:href="#rim" fill="#404040">
                                <set attributeName="fill" to="#808080" begin="zoomminus.mouseover" end="zoomminus.mouseout"/>
                        </use>
                        <path d="M-4,0h8" fill="none" stroke="white" stroke-width="1.5" pointer-events="none"/>
                </g>
                <g id="dirArrow">
                        <path fill="none" stroke="white" stroke-width="1.5" d="M0,-3.0v7 M-2.5,-0.5L0,-3.0L2.5,-0.5"/>
                </g>
               <g id="resetDef">
                       <use xlink:href="#rim2" fill="#404040">
                               <set attributeName="fill" to="#808080" begin="reset.mouseover" end="reset.mouseout"/>
                       </use>
               </g>
        </defs>

<script type="text/javascript">
var viewWidth = 1865;
var viewHeight = 447;
var sectionId = 'dynsection-0';
</script>
<script xlink:href="svgpan.js"/>
<svg id="graph" class="graph">
<g id="viewport">
<title>AbstractModifyQueryParams</title>
<polygon fill="white" stroke="none" points="-4,4 -4,-443 1860.5,-443 1860.5,4 -4,4"/>
<!-- Node1 -->
<g id="node1" class="node"><title>Node1</title>
<polygon fill="#bfbfbf" stroke="black" points="856.5,-116.5 856.5,-217.5 1014.5,-217.5 1014.5,-116.5 856.5,-116.5"/>
<text text-anchor="middle" x="935.5" y="-205.5" font-family="Helvetica,sans-Serif" font-size="10.00">AbstractModifyQueryParams</text>
<polyline fill="none" stroke="black" points="856.5,-198.5 1014.5,-198.5 "/>
<text text-anchor="middle" x="935.5" y="-186.5" font-family="Helvetica,sans-Serif" font-size="10.00"> </text>
<polyline fill="none" stroke="black" points="856.5,-179.5 1014.5,-179.5 "/>
<text text-anchor="start" x="864.5" y="-167.5" font-family="Helvetica,sans-Serif" font-size="10.00">+ AbstractModifyQueryParams()</text>
<text text-anchor="start" x="864.5" y="-156.5" font-family="Helvetica,sans-Serif" font-size="10.00">+ execute()</text>
<text text-anchor="start" x="864.5" y="-145.5" font-family="Helvetica,sans-Serif" font-size="10.00"># queryString()</text>
<text text-anchor="start" x="864.5" y="-134.5" font-family="Helvetica,sans-Serif" font-size="10.00"># setParameters()</text>
<text text-anchor="start" x="864.5" y="-123.5" font-family="Helvetica,sans-Serif" font-size="10.00">&#45; initQuery()</text>
</g>
<!-- Node4 -->
<g id="node4" class="node"><title>Node4</title>
<g id="a_node4"><a xlink:href="classtomoBay_1_1model_1_1sql_1_1queries_1_1concreteQueries_1_1delete_1_1DeleteOrderFromOrderStatus.html" target="_top" xlink:title="deletes a particular order from the order_status table in the database. ">
<polygon fill="white" stroke="black" points="0,-0.5 0,-79.5 159,-79.5 159,-0.5 0,-0.5"/>
<text text-anchor="middle" x="79.5" y="-67.5" font-family="Helvetica,sans-Serif" font-size="10.00">DeleteOrderFromOrderStatus</text>
<polyline fill="none" stroke="black" points="0,-60.5 159,-60.5 "/>
<text text-anchor="start" x="8" y="-48.5" font-family="Helvetica,sans-Serif" font-size="10.00">&#45; query_M</text>
<polyline fill="none" stroke="black" points="0,-41.5 159,-41.5 "/>
<text text-anchor="start" x="8" y="-29.5" font-family="Helvetica,sans-Serif" font-size="10.00">+ DeleteOrderFromOrderStatus()</text>
<text text-anchor="start" x="8" y="-18.5" font-family="Helvetica,sans-Serif" font-size="10.00"># queryString()</text>
<text text-anchor="start" x="8" y="-7.5" font-family="Helvetica,sans-Serif" font-size="10.00"># setParameters()</text>
</a>
</g>
</g>
<!-- Node1&#45;&gt;Node4 -->
<g id="edge3" class="edge"><title>Node1&#45;&gt;Node4</title>
<path fill="none" stroke="midnightblue" d="M846.33,-164.654C701.647,-160.559 407.826,-144.263 168.5,-80 165.404,-79.1688 162.278,-78.2461 159.143,-77.2502"/>
<polygon fill="none" stroke="midnightblue" points="846.396,-168.157 856.486,-164.929 846.585,-161.16 846.396,-168.157"/>
</g>
<!-- Node5 -->
<g id="node5" class="node"><title>Node5</title>
<g id="a_node5"><a xlink:href="classtomoBay_1_1model_1_1sql_1_1queries_1_1concreteQueries_1_1insert_1_1InsertEbayBuyers.html" target="_top" xlink:title="This class represents a query that inserts buyer details into the database. ">
<polygon fill="white" stroke="black" points="177.5,-0.5 177.5,-79.5 287.5,-79.5 287.5,-0.5 177.5,-0.5"/>
<text text-anchor="middle" x="232.5" y="-67.5" font-family="Helvetica,sans-Serif" font-size="10.00">InsertEbayBuyers</text>
<polyline fill="none" stroke="black" points="177.5,-60.5 287.5,-60.5 "/>
<text text-anchor="start" x="185.5" y="-48.5" font-family="Helvetica,sans-Serif" font-size="10.00">&#45; query</text>
<polyline fill="none" stroke="black" points="177.5,-41.5 287.5,-41.5 "/>
<text text-anchor="start" x="185.5" y="-29.5" font-family="Helvetica,sans-Serif" font-size="10.00">+ InsertEbayBuyers()</text>
<text text-anchor="start" x="185.5" y="-18.5" font-family="Helvetica,sans-Serif" font-size="10.00"># queryString()</text>
<text text-anchor="start" x="185.5" y="-7.5" font-family="Helvetica,sans-Serif" font-size="10.00"># setParameters()</text>
</a>
</g>
</g>
<!-- Node1&#45;&gt;Node5 -->
<g id="edge4" class="edge"><title>Node1&#45;&gt;Node5</title>
<path fill="none" stroke="midnightblue" d="M845.982,-165.447C719.866,-162.129 484.303,-146.546 296.5,-80 293.557,-78.957 290.602,-77.7668 287.666,-76.4662"/>
<polygon fill="none" stroke="midnightblue" points="846.273,-168.955 856.355,-165.699 846.443,-161.957 846.273,-168.955"/>
</g>
<!-- Node6 -->
<g id="node6" class="node"><title>Node6</title>
<g id="a_node6"><a xlink:href="classtomoBay_1_1model_1_1sql_1_1queries_1_1concreteQueries_1_1insert_1_1InsertEbayItems.html" target="_top" xlink:title="This class represents a query that inserts item details into the items table of the database...">
<polygon fill="white" stroke="black" points="305.5,-0.5 305.5,-79.5 409.5,-79.5 409.5,-0.5 305.5,-0.5"/>
<text text-anchor="middle" x="357.5" y="-67.5" font-family="Helvetica,sans-Serif" font-size="10.00">InsertEbayItems</text>
<polyline fill="none" stroke="black" points="305.5,-60.5 409.5,-60.5 "/>
<text text-anchor="start" x="313.5" y="-48.5" font-family="Helvetica,sans-Serif" font-size="10.00">&#45; query</text>
<polyline fill="none" stroke="black" points="305.5,-41.5 409.5,-41.5 "/>
<text text-anchor="start" x="313.5" y="-29.5" font-family="Helvetica,sans-Serif" font-size="10.00">+ InsertEbayItems()</text>
<text text-anchor="start" x="313.5" y="-18.5" font-family="Helvetica,sans-Serif" font-size="10.00"># queryString()</text>
<text text-anchor="start" x="313.5" y="-7.5" font-family="Helvetica,sans-Serif" font-size="10.00"># setParameters()</text>
</a>
</g>
</g>
<!-- Node1&#45;&gt;Node6 -->
<g id="edge5" class="edge"><title>Node1&#45;&gt;Node6</title>
<path fill="none" stroke="midnightblue" d="M846.004,-162.017C740.6,-154.881 561.732,-135.035 418.5,-80 415.567,-78.8729 412.624,-77.594 409.703,-76.2037"/>
<polygon fill="none" stroke="midnightblue" points="846.078,-165.529 856.285,-162.689 846.535,-158.544 846.078,-165.529"/>
</g>
<!-- Node7 -->
<g id="node7" class="node"><title>Node7</title>
<g id="a_node7"><a xlink:href="classtomoBay_1_1model_1_1sql_1_1queries_1_1concreteQueries_1_1insert_1_1InsertEbayOrders.html" target="_top" xlink:title="This class represents a class that inserts order data into the orders table of the database...">
<polygon fill="white" stroke="black" points="427.5,-0.5 427.5,-79.5 535.5,-79.5 535.5,-0.5 427.5,-0.5"/>
<text text-anchor="middle" x="481.5" y="-67.5" font-family="Helvetica,sans-Serif" font-size="10.00">InsertEbayOrders</text>
<polyline fill="none" stroke="black" points="427.5,-60.5 535.5,-60.5 "/>
<text text-anchor="start" x="435.5" y="-48.5" font-family="Helvetica,sans-Serif" font-size="10.00">&#45; query</text>
<polyline fill="none" stroke="black" points="427.5,-41.5 535.5,-41.5 "/>
<text text-anchor="start" x="435.5" y="-29.5" font-family="Helvetica,sans-Serif" font-size="10.00">+ InsertEbayOrders()</text>
<text text-anchor="start" x="435.5" y="-18.5" font-family="Helvetica,sans-Serif" font-size="10.00"># queryString()</text>
<text text-anchor="start" x="435.5" y="-7.5" font-family="Helvetica,sans-Serif" font-size="10.00"># setParameters()</text>
</a>
</g>
</g>
<!-- Node1&#45;&gt;Node7 -->
<g id="edge6" class="edge"><title>Node1&#45;&gt;Node7</title>
<path fill="none" stroke="midnightblue" d="M846.232,-155.122C765.28,-143.233 643.786,-120.28 544.5,-80 541.52,-78.791 538.521,-77.4463 535.536,-76.0037"/>
<polygon fill="none" stroke="midnightblue" points="845.994,-158.624 856.392,-156.587 846.994,-151.695 845.994,-158.624"/>
</g>
<!-- Node8 -->
<g id="node8" class="node"><title>Node8</title>
<g id="a_node8"><a xlink:href="classtomoBay_1_1model_1_1sql_1_1queries_1_1concreteQueries_1_1insert_1_1InsertEbayTransactions.html" target="_top" xlink:title="This class represents a query that inserts transaction data into the transactions table of the databa...">
<polygon fill="white" stroke="black" points="554,-0.5 554,-79.5 689,-79.5 689,-0.5 554,-0.5"/>
<text text-anchor="middle" x="621.5" y="-67.5" font-family="Helvetica,sans-Serif" font-size="10.00">InsertEbayTransactions</text>
<polyline fill="none" stroke="black" points="554,-60.5 689,-60.5 "/>
<text text-anchor="start" x="562" y="-48.5" font-family="Helvetica,sans-Serif" font-size="10.00">&#45; query</text>
<polyline fill="none" stroke="black" points="554,-41.5 689,-41.5 "/>
<text text-anchor="start" x="562" y="-29.5" font-family="Helvetica,sans-Serif" font-size="10.00">+ InsertEbayTransactions()</text>
<text text-anchor="start" x="562" y="-18.5" font-family="Helvetica,sans-Serif" font-size="10.00"># queryString()</text>
<text text-anchor="start" x="562" y="-7.5" font-family="Helvetica,sans-Serif" font-size="10.00"># setParameters()</text>
</a>
</g>
</g>
<!-- Node1&#45;&gt;Node8 -->
<g id="edge7" class="edge"><title>Node1&#45;&gt;Node8</title>
<path fill="none" stroke="midnightblue" d="M846.778,-136.953C801.559,-121.393 746.017,-101.112 697.5,-80 694.78,-78.8165 692.022,-77.5799 689.247,-76.3057"/>
<polygon fill="none" stroke="midnightblue" points="845.669,-140.273 856.264,-140.2 847.936,-133.65 845.669,-140.273"/>
</g>
<!-- Node9 -->
<g id="node9" class="node"><title>Node9</title>
<g id="a_node9"><a xlink:href="classtomoBay_1_1model_1_1sql_1_1queries_1_1concreteQueries_1_1insert_1_1InsertOrderInOrderStatus.html" target="_top" xlink:title="This Class represents a Query that inserts an order into the order_status table in the database...">
<polygon fill="white" stroke="black" points="707,-0.5 707,-79.5 848,-79.5 848,-0.5 707,-0.5"/>
<text text-anchor="middle" x="777.5" y="-67.5" font-family="Helvetica,sans-Serif" font-size="10.00">InsertOrderInOrderStatus</text>
<polyline fill="none" stroke="black" points="707,-60.5 848,-60.5 "/>
<text text-anchor="start" x="715" y="-48.5" font-family="Helvetica,sans-Serif" font-size="10.00">&#45; query_M</text>
<polyline fill="none" stroke="black" points="707,-41.5 848,-41.5 "/>
<text text-anchor="start" x="715" y="-29.5" font-family="Helvetica,sans-Serif" font-size="10.00">+ InsertOrderInOrderStatus()</text>
<text text-anchor="start" x="715" y="-18.5" font-family="Helvetica,sans-Serif" font-size="10.00"># queryString()</text>
<text text-anchor="start" x="715" y="-7.5" font-family="Helvetica,sans-Serif" font-size="10.00"># setParameters()</text>
</a>
</g>
</g>
<!-- Node1&#45;&gt;Node9 -->
<g id="edge8" class="edge"><title>Node1&#45;&gt;Node9</title>
<path fill="none" stroke="midnightblue" d="M864.639,-109.939C851.774,-99.7608 838.617,-89.352 826.554,-79.8082"/>
<polygon fill="none" stroke="midnightblue" points="862.586,-112.778 872.6,-116.238 866.929,-107.288 862.586,-112.778"/>
</g>
<!-- Node10 -->
<g id="node10" class="node"><title>Node10</title>
<g id="a_node10"><a xlink:href="classtomoBay_1_1model_1_1sql_1_1queries_1_1concreteQueries_1_1insert_1_1InsertOutOfHoursOrders.html" target="_top" xlink:title="This class represents a query that inserts a new entry into the outOfHours table in the database...">
<polygon fill="white" stroke="black" points="866.5,-0.5 866.5,-79.5 1004.5,-79.5 1004.5,-0.5 866.5,-0.5"/>
<text text-anchor="middle" x="935.5" y="-67.5" font-family="Helvetica,sans-Serif" font-size="10.00">InsertOutOfHoursOrders</text>
<polyline fill="none" stroke="black" points="866.5,-60.5 1004.5,-60.5 "/>
<text text-anchor="start" x="874.5" y="-48.5" font-family="Helvetica,sans-Serif" font-size="10.00">&#45; query</text>
<polyline fill="none" stroke="black" points="866.5,-41.5 1004.5,-41.5 "/>
<text text-anchor="start" x="874.5" y="-29.5" font-family="Helvetica,sans-Serif" font-size="10.00">+ InsertOutOfHoursOrders()</text>
<text text-anchor="start" x="874.5" y="-18.5" font-family="Helvetica,sans-Serif" font-size="10.00"># queryString()</text>
<text text-anchor="start" x="874.5" y="-7.5" font-family="Helvetica,sans-Serif" font-size="10.00"># setParameters()</text>
</a>
</g>
</g>
<!-- Node1&#45;&gt;Node10 -->
<g id="edge9" class="edge"><title>Node1&#45;&gt;Node10</title>
<path fill="none" stroke="midnightblue" d="M935.5,-106.186C935.5,-97.2207 935.5,-88.1815 935.5,-79.8082"/>
<polygon fill="none" stroke="midnightblue" points="932,-106.237 935.5,-116.238 939,-106.238 932,-106.237"/>
</g>
<!-- Node11 -->
<g id="node11" class="node"><title>Node11</title>
<g id="a_node11"><a xlink:href="classtomoBay_1_1model_1_1sql_1_1queries_1_1concreteQueries_1_1update_1_1UpdateEbayBuyer.html" target="_top" xlink:title="This class represents an sql query that updates a record the buyer table in the database with new inf...">
<polygon fill="white" stroke="black" points="1023,-0.5 1023,-79.5 1134,-79.5 1134,-0.5 1023,-0.5"/>
<text text-anchor="middle" x="1078.5" y="-67.5" font-family="Helvetica,sans-Serif" font-size="10.00">UpdateEbayBuyer</text>
<polyline fill="none" stroke="black" points="1023,-60.5 1134,-60.5 "/>
<text text-anchor="start" x="1031" y="-48.5" font-family="Helvetica,sans-Serif" font-size="10.00">&#45; query</text>
<polyline fill="none" stroke="black" points="1023,-41.5 1134,-41.5 "/>
<text text-anchor="start" x="1031" y="-29.5" font-family="Helvetica,sans-Serif" font-size="10.00">+ UpdateEbayBuyer()</text>
<text text-anchor="start" x="1031" y="-18.5" font-family="Helvetica,sans-Serif" font-size="10.00"># queryString()</text>
<text text-anchor="start" x="1031" y="-7.5" font-family="Helvetica,sans-Serif" font-size="10.00"># setParameters()</text>
</a>
</g>
</g>
<!-- Node1&#45;&gt;Node11 -->
<g id="edge10" class="edge"><title>Node1&#45;&gt;Node11</title>
<path fill="none" stroke="midnightblue" d="M999.963,-109.651C1011.5,-99.5645 1023.29,-89.2619 1034.1,-79.8082"/>
<polygon fill="none" stroke="midnightblue" points="997.654,-107.021 992.428,-116.238 1002.26,-112.291 997.654,-107.021"/>
</g>
<!-- Node12 -->
<g id="node12" class="node"><title>Node12</title>
<g id="a_node12"><a xlink:href="classtomoBay_1_1model_1_1sql_1_1queries_1_1concreteQueries_1_1update_1_1UpdateInvoiceStatus.html" target="_top" xlink:title="This class represents a query that updates the &#39;invoiced&#39; field of particular order on the orders tab...">
<polygon fill="white" stroke="black" points="1152,-0.5 1152,-79.5 1275,-79.5 1275,-0.5 1152,-0.5"/>
<text text-anchor="middle" x="1213.5" y="-67.5" font-family="Helvetica,sans-Serif" font-size="10.00">UpdateInvoiceStatus</text>
<polyline fill="none" stroke="black" points="1152,-60.5 1275,-60.5 "/>
<text text-anchor="start" x="1160" y="-48.5" font-family="Helvetica,sans-Serif" font-size="10.00">&#45; query</text>
<polyline fill="none" stroke="black" points="1152,-41.5 1275,-41.5 "/>
<text text-anchor="start" x="1160" y="-29.5" font-family="Helvetica,sans-Serif" font-size="10.00">+ UpdateInvoiceStatus()</text>
<text text-anchor="start" x="1160" y="-18.5" font-family="Helvetica,sans-Serif" font-size="10.00"># queryString()</text>
<text text-anchor="start" x="1160" y="-7.5" font-family="Helvetica,sans-Serif" font-size="10.00"># setParameters()</text>
</a>
</g>
</g>
<!-- Node1&#45;&gt;Node12 -->
<g id="edge11" class="edge"><title>Node1&#45;&gt;Node12</title>
<path fill="none" stroke="midnightblue" d="M1024.3,-131.929C1061.56,-116.957 1105.07,-98.5746 1143.5,-80 1146.26,-78.6683 1149.05,-77.2774 1151.87,-75.8474"/>
<polygon fill="none" stroke="midnightblue" points="1022.96,-128.697 1014.97,-135.66 1025.56,-135.196 1022.96,-128.697"/>
</g>
<!-- Node13 -->
<g id="node13" class="node"><title>Node13</title>
<g id="a_node13"><a xlink:href="classtomoBay_1_1model_1_1sql_1_1queries_1_1concreteQueries_1_1update_1_1UpdateInvoiceStatusSRN.html" target="_top" xlink:title="This class represents a query that updates the invoice status of a particular order. ">
<polygon fill="white" stroke="black" points="1293,-0.5 1293,-79.5 1438,-79.5 1438,-0.5 1293,-0.5"/>
<text text-anchor="middle" x="1365.5" y="-67.5" font-family="Helvetica,sans-Serif" font-size="10.00">UpdateInvoiceStatusSRN</text>
<polyline fill="none" stroke="black" points="1293,-60.5 1438,-60.5 "/>
<text text-anchor="start" x="1301" y="-48.5" font-family="Helvetica,sans-Serif" font-size="10.00">&#45; query</text>
<polyline fill="none" stroke="black" points="1293,-41.5 1438,-41.5 "/>
<text text-anchor="start" x="1301" y="-29.5" font-family="Helvetica,sans-Serif" font-size="10.00">+ UpdateInvoiceStatusSRN()</text>
<text text-anchor="start" x="1301" y="-18.5" font-family="Helvetica,sans-Serif" font-size="10.00"># queryString()</text>
<text text-anchor="start" x="1301" y="-7.5" font-family="Helvetica,sans-Serif" font-size="10.00"># setParameters()</text>
</a>
</g>
</g>
<!-- Node1&#45;&gt;Node13 -->
<g id="edge12" class="edge"><title>Node1&#45;&gt;Node13</title>
<path fill="none" stroke="midnightblue" d="M1024.71,-149.338C1096.13,-134.736 1198.27,-111.005 1284.5,-80 1287.29,-78.9966 1290.11,-77.9274 1292.95,-76.8075"/>
<polygon fill="none" stroke="midnightblue" points="1023.95,-145.921 1014.84,-151.337 1025.34,-152.782 1023.95,-145.921"/>
</g>
<!-- Node14 -->
<g id="node14" class="node"><title>Node14</title>
<g id="a_node14"><a xlink:href="classtomoBay_1_1model_1_1sql_1_1queries_1_1concreteQueries_1_1update_1_1UpdateItemBrandAndPartNo.html" target="_top" xlink:title="This class represents a query that updates the brand and partNo of a particular item in the items tab...">
<polygon fill="white" stroke="black" points="1456.5,-0.5 1456.5,-79.5 1612.5,-79.5 1612.5,-0.5 1456.5,-0.5"/>
<text text-anchor="middle" x="1534.5" y="-67.5" font-family="Helvetica,sans-Serif" font-size="10.00">UpdateItemBrandAndPartNo</text>
<polyline fill="none" stroke="black" points="1456.5,-60.5 1612.5,-60.5 "/>
<text text-anchor="start" x="1464.5" y="-48.5" font-family="Helvetica,sans-Serif" font-size="10.00">&#45; query</text>
<polyline fill="none" stroke="black" points="1456.5,-41.5 1612.5,-41.5 "/>
<text text-anchor="start" x="1464.5" y="-29.5" font-family="Helvetica,sans-Serif" font-size="10.00">+ UpdateItemBrandAndPartNo()</text>
<text text-anchor="start" x="1464.5" y="-18.5" font-family="Helvetica,sans-Serif" font-size="10.00"># queryString()</text>
<text text-anchor="start" x="1464.5" y="-7.5" font-family="Helvetica,sans-Serif" font-size="10.00"># setParameters()</text>
</a>
</g>
</g>
<!-- Node1&#45;&gt;Node14 -->
<g id="edge13" class="edge"><title>Node1&#45;&gt;Node14</title>
<path fill="none" stroke="midnightblue" d="M1024.64,-157.986C1128.05,-147.104 1302.86,-123.781 1447.5,-80 1450.35,-79.1369 1453.23,-78.2023 1456.12,-77.2106"/>
<polygon fill="none" stroke="midnightblue" points="1024.14,-154.52 1014.56,-159.032 1024.86,-161.482 1024.14,-154.52"/>
</g>
<!-- Node15 -->
<g id="node15" class="node"><title>Node15</title>
<g id="a_node15"><a xlink:href="classtomoBay_1_1model_1_1sql_1_1queries_1_1concreteQueries_1_1update_1_1UpdateItemError.html" target="_top" xlink:title="This class represents a query that updates the brand and partNo of a particular item in the items tab...">
<polygon fill="white" stroke="black" points="1630.5,-0.5 1630.5,-79.5 1734.5,-79.5 1734.5,-0.5 1630.5,-0.5"/>
<text text-anchor="middle" x="1682.5" y="-67.5" font-family="Helvetica,sans-Serif" font-size="10.00">UpdateItemError</text>
<polyline fill="none" stroke="black" points="1630.5,-60.5 1734.5,-60.5 "/>
<text text-anchor="start" x="1638.5" y="-48.5" font-family="Helvetica,sans-Serif" font-size="10.00">&#45; query</text>
<polyline fill="none" stroke="black" points="1630.5,-41.5 1734.5,-41.5 "/>
<text text-anchor="start" x="1638.5" y="-29.5" font-family="Helvetica,sans-Serif" font-size="10.00">+ UpdateItemError()</text>
<text text-anchor="start" x="1638.5" y="-18.5" font-family="Helvetica,sans-Serif" font-size="10.00"># queryString()</text>
<text text-anchor="start" x="1638.5" y="-7.5" font-family="Helvetica,sans-Serif" font-size="10.00"># setParameters()</text>
</a>
</g>
</g>
<!-- Node1&#45;&gt;Node15 -->
<g id="edge14" class="edge"><title>Node1&#45;&gt;Node15</title>
<path fill="none" stroke="midnightblue" d="M1025.04,-159.705C1185.12,-147.636 1513.73,-118.945 1621.5,-80 1624.46,-78.932 1627.42,-77.7006 1630.35,-76.348"/>
<polygon fill="none" stroke="midnightblue" points="1024.45,-156.239 1014.74,-160.476 1024.97,-163.219 1024.45,-156.239"/>
</g>
<!-- Node16 -->
<g id="node16" class="node"><title>Node16</title>
<g id="a_node16"><a xlink:href="classtomoBay_1_1model_1_1sql_1_1queries_1_1concreteQueries_1_1update_1_1UpdateItemNote.html" target="_top" xlink:title="This class represents a query that updates the notes field of the ebay_items table in the database...">
<polygon fill="white" stroke="black" points="1752.5,-0.5 1752.5,-79.5 1856.5,-79.5 1856.5,-0.5 1752.5,-0.5"/>
<text text-anchor="middle" x="1804.5" y="-67.5" font-family="Helvetica,sans-Serif" font-size="10.00">UpdateItemNote</text>
<polyline fill="none" stroke="black" points="1752.5,-60.5 1856.5,-60.5 "/>
<text text-anchor="start" x="1760.5" y="-48.5" font-family="Helvetica,sans-Serif" font-size="10.00">&#45; query</text>
<polyline fill="none" stroke="black" points="1752.5,-41.5 1856.5,-41.5 "/>
<text text-anchor="start" x="1760.5" y="-29.5" font-family="Helvetica,sans-Serif" font-size="10.00">+ UpdateItemNote()</text>
<text text-anchor="start" x="1760.5" y="-18.5" font-family="Helvetica,sans-Serif" font-size="10.00"># queryString()</text>
<text text-anchor="start" x="1760.5" y="-7.5" font-family="Helvetica,sans-Serif" font-size="10.00"># setParameters()</text>
</a>
</g>
</g>
<!-- Node1&#45;&gt;Node16 -->
<g id="edge15" class="edge"><title>Node1&#45;&gt;Node16</title>
<path fill="none" stroke="midnightblue" d="M1024.86,-161.664C1206.51,-152.009 1612.69,-125.895 1743.5,-80 1746.47,-78.9596 1749.43,-77.7505 1752.37,-76.4155"/>
<polygon fill="none" stroke="midnightblue" points="1024.61,-158.173 1014.81,-162.194 1024.98,-165.163 1024.61,-158.173"/>
</g>
<!-- Node2 -->
<g id="node2" class="node"><title>Node2</title>
<g id="a_node2"><a xlink:href="classtomoBay_1_1model_1_1sql_1_1framework_1_1queryTypes_1_1modify_1_1AbstractModifyQuery.html" target="_top" xlink:title="Copyright(C) 2015 Jan P.C. ">
<polygon fill="white" stroke="black" points="873.5,-254.5 873.5,-311.5 997.5,-311.5 997.5,-254.5 873.5,-254.5"/>
<text text-anchor="middle" x="935.5" y="-299.5" font-family="Helvetica,sans-Serif" font-size="10.00">AbstractModifyQuery</text>
<polyline fill="none" stroke="black" points="873.5,-292.5 997.5,-292.5 "/>
<text text-anchor="middle" x="935.5" y="-280.5" font-family="Helvetica,sans-Serif" font-size="10.00"> </text>
<polyline fill="none" stroke="black" points="873.5,-273.5 997.5,-273.5 "/>
<text text-anchor="start" x="881.5" y="-261.5" font-family="Helvetica,sans-Serif" font-size="10.00">+ AbstractModifyQuery()</text>
</a>
</g>
</g>
<!-- Node2&#45;&gt;Node1 -->
<g id="edge1" class="edge"><title>Node2&#45;&gt;Node1</title>
<path fill="none" stroke="midnightblue" d="M935.5,-244.354C935.5,-235.796 935.5,-226.578 935.5,-217.608"/>
<polygon fill="none" stroke="midnightblue" points="932,-244.404 935.5,-254.404 939,-244.404 932,-244.404"/>
</g>
<!-- Node3 -->
<g id="node3" class="node"><title>Node3</title>
<g id="a_node3"><a xlink:href="classtomoBay_1_1model_1_1sql_1_1framework_1_1queryTypes_1_1AbstractDBQuery.html" target="_top" xlink:title="Interface that all database queries must adhere to. ">
<polygon fill="white" stroke="black" points="888.5,-348.5 888.5,-438.5 982.5,-438.5 982.5,-348.5 888.5,-348.5"/>
<text text-anchor="middle" x="935.5" y="-426.5" font-family="Helvetica,sans-Serif" font-size="10.00">AbstractDBQuery</text>
<polyline fill="none" stroke="black" points="888.5,-419.5 982.5,-419.5 "/>
<text text-anchor="start" x="896.5" y="-407.5" font-family="Helvetica,sans-Serif" font-size="10.00"># statement_M</text>
<text text-anchor="start" x="896.5" y="-396.5" font-family="Helvetica,sans-Serif" font-size="10.00"># connection_M</text>
<polyline fill="none" stroke="black" points="888.5,-389.5 982.5,-389.5 "/>
<text text-anchor="start" x="896.5" y="-377.5" font-family="Helvetica,sans-Serif" font-size="10.00">+ statement()</text>
<text text-anchor="start" x="896.5" y="-366.5" font-family="Helvetica,sans-Serif" font-size="10.00"># queryString()</text>
<text text-anchor="start" x="896.5" y="-355.5" font-family="Helvetica,sans-Serif" font-size="10.00"># cleanup()</text>
</a>
</g>
</g>
<!-- Node3&#45;&gt;Node2 -->
<g id="edge2" class="edge"><title>Node3&#45;&gt;Node2</title>
<path fill="none" stroke="midnightblue" d="M935.5,-338.353C935.5,-329.074 935.5,-319.791 935.5,-311.59"/>
<polygon fill="none" stroke="midnightblue" points="932,-338.369 935.5,-348.369 939,-338.369 932,-338.369"/>
</g>
</g>
</svg>
        <g id="navigator" transform="translate(0 0)" fill="#404254">
                <rect fill="#f2f5e9" fill-opacity="0.5" stroke="#606060" stroke-width=".5" x="0" y="0" width="60" height="60"/>
                <use id="zoomplus" xlink:href="#zoomPlus" x="17" y="9" onmousedown="handleZoom(evt,'in')"/>
                <use id="zoomminus" xlink:href="#zoomMin" x="42" y="9" onmousedown="handleZoom(evt,'out')"/>
                <use id="reset" xlink:href="#resetDef" x="30" y="36" onmousedown="handleReset()"/>
                <g id="arrowUp" xlink:href="#dirArrow" transform="translate(30 24)" onmousedown="handlePan(0,-1)">
                  <use xlink:href="#rim" fill="#404040">
                        <set attributeName="fill" to="#808080" begin="arrowUp.mouseover" end="arrowUp.mouseout"/>
                  </use>
                  <path fill="none" stroke="white" stroke-width="1.5" d="M0,-3.0v7 M-2.5,-0.5L0,-3.0L2.5,-0.5"/>
                </g>
                <g id="arrowRight" xlink:href="#dirArrow" transform="rotate(90) translate(36 -43)" onmousedown="handlePan(1,0)">
                  <use xlink:href="#rim" fill="#404040">
                        <set attributeName="fill" to="#808080" begin="arrowRight.mouseover" end="arrowRight.mouseout"/>
                  </use>
                  <path fill="none" stroke="white" stroke-width="1.5" d="M0,-3.0v7 M-2.5,-0.5L0,-3.0L2.5,-0.5"/>
                </g>
                <g id="arrowDown" xlink:href="#dirArrow" transform="rotate(180) translate(-30 -48)" onmousedown="handlePan(0,1)">
                  <use xlink:href="#rim" fill="#404040">
                        <set attributeName="fill" to="#808080" begin="arrowDown.mouseover" end="arrowDown.mouseout"/>
                  </use>
                  <path fill="none" stroke="white" stroke-width="1.5" d="M0,-3.0v7 M-2.5,-0.5L0,-3.0L2.5,-0.5"/>
                </g>
                <g id="arrowLeft" xlink:href="#dirArrow" transform="rotate(270) translate(-36 17)" onmousedown="handlePan(-1,0)">
                  <use xlink:href="#rim" fill="#404040">
                        <set attributeName="fill" to="#808080" begin="arrowLeft.mouseover" end="arrowLeft.mouseout"/>
                  </use>
                  <path fill="none" stroke="white" stroke-width="1.5" d="M0,-3.0v7 M-2.5,-0.5L0,-3.0L2.5,-0.5"/>
                </g>
        </g>
        <svg viewBox="0 0 15 15" width="100%" height="30px" preserveAspectRatio="xMaxYMin meet">
         <g id="arrow_out" transform="scale(0.3 0.3)">
          <a xlink:href="classtomoBay_1_1model_1_1sql_1_1framework_1_1queryTypes_1_1modify_1_1AbstractModifyQueryParams__inherit__graph_org.svg" target="_base">
           <rect id="button" ry="5" rx="5" y="6" x="6" height="38" width="38"
                fill="#f2f5e9" fill-opacity="0.5" stroke="#606060" stroke-width="1.0"/>
           <path id="arrow"
             d="M 11.500037,31.436501 C 11.940474,20.09759 22.043105,11.32322 32.158766,21.979434 L 37.068811,17.246167 C 37.068811,17.246167 37.088388,32 37.088388,32 L 22.160133,31.978069 C 22.160133,31.978069 26.997745,27.140456 26.997745,27.140456 C 18.528582,18.264221 13.291696,25.230495 11.500037,31.436501 z"
             style="fill:#404040;"/>
          </a>
         </g>
        </svg>
</svg>
