<?xml version="1.0" encoding="UTF-8" standalone="no"?>
<!DOCTYPE svg PUBLIC "-//W3C//DTD SVG 1.1//EN"
 "http://www.w3.org/Graphics/SVG/1.1/DTD/svg11.dtd">
<!-- Generated by graphviz version 2.38.0 (20140413.2041)
 -->
<!-- Title: tomoBay.model.sql.queries.concreteQueries.SelectUninvoicedOrders.execute Pages: 1 -->
<svg width="631pt" height="171pt"
 viewBox="0.00 0.00 631.00 171.00" xmlns="http://www.w3.org/2000/svg" xmlns:xlink="http://www.w3.org/1999/xlink">
<g id="graph0" class="graph" transform="scale(1 1) rotate(0) translate(4 167)">
<title>tomoBay.model.sql.queries.concreteQueries.SelectUninvoicedOrders.execute</title>
<!-- Node1 -->
<g id="node1" class="node"><title>Node1</title>
<polygon fill="#bfbfbf" stroke="black" points="0,-78.5 0,-108.5 197,-108.5 197,-78.5 0,-78.5"/>
<text text-anchor="start" x="8" y="-96.5" font-family="Helvetica,sans-Serif" font-size="10.00">tomoBay.model.sql.queries.concrete</text>
<text text-anchor="middle" x="98.5" y="-85.5" font-family="Helvetica,sans-Serif" font-size="10.00">Queries.SelectUninvoicedOrders.execute</text>
</g>
<!-- Node2 -->
<g id="node2" class="node"><title>Node2</title>
<g id="a_node2"><a xlink:href="classtomoBay_1_1model_1_1sql_1_1queries_1_1concreteQueries_1_1SelectUninvoicedOrders.html#a8db3a699b1c304dac72ccea099beea09" target="_top" xlink:title="tomoBay.model.sql.queries.concrete\lQueries.SelectUninvoicedOrders.cleanup">
<polygon fill="none" stroke="black" points="235.5,-132.5 235.5,-162.5 431.5,-162.5 431.5,-132.5 235.5,-132.5"/>
<text text-anchor="start" x="243.5" y="-150.5" font-family="Helvetica,sans-Serif" font-size="10.00">tomoBay.model.sql.queries.concrete</text>
<text text-anchor="middle" x="333.5" y="-139.5" font-family="Helvetica,sans-Serif" font-size="10.00">Queries.SelectUninvoicedOrders.cleanup</text>
</a>
</g>
</g>
<!-- Node1&#45;&gt;Node2 -->
<g id="edge1" class="edge"><title>Node1&#45;&gt;Node2</title>
<path fill="none" stroke="midnightblue" d="M164.403,-108.542C193.317,-115.243 227.545,-123.176 257.543,-130.128"/>
<polygon fill="midnightblue" stroke="midnightblue" points="257.009,-133.597 267.541,-132.445 258.589,-126.778 257.009,-133.597"/>
</g>
<!-- Node3 -->
<g id="node3" class="node"><title>Node3</title>
<g id="a_node3"><a xlink:href="classtomoBay_1_1model_1_1sql_1_1queries_1_1concreteQueries_1_1SelectUninvoicedOrders.html#a848e622fe29a06a5284c063c078e51f1" target="_top" xlink:title="tomoBay.model.sql.queries.concrete\lQueries.SelectUninvoicedOrders.format\lResults">
<polygon fill="none" stroke="black" points="238.5,-73 238.5,-114 428.5,-114 428.5,-73 238.5,-73"/>
<text text-anchor="start" x="246.5" y="-102" font-family="Helvetica,sans-Serif" font-size="10.00">tomoBay.model.sql.queries.concrete</text>
<text text-anchor="start" x="246.5" y="-91" font-family="Helvetica,sans-Serif" font-size="10.00">Queries.SelectUninvoicedOrders.format</text>
<text text-anchor="middle" x="333.5" y="-80" font-family="Helvetica,sans-Serif" font-size="10.00">Results</text>
</a>
</g>
</g>
<!-- Node1&#45;&gt;Node3 -->
<g id="edge2" class="edge"><title>Node1&#45;&gt;Node3</title>
<path fill="none" stroke="midnightblue" d="M197.3,-93.5C207.481,-93.5 217.858,-93.5 228.108,-93.5"/>
<polygon fill="midnightblue" stroke="midnightblue" points="228.304,-97.0001 238.304,-93.5 228.304,-90.0001 228.304,-97.0001"/>
</g>
<!-- Node4 -->
<g id="node4" class="node"><title>Node4</title>
<g id="a_node4"><a xlink:href="classtomoBay_1_1model_1_1sql_1_1queries_1_1concreteQueries_1_1SelectUninvoicedOrders.html#a1fc0797ae40261fa238fb21f1bb92cf1" target="_top" xlink:title="tomoBay.model.sql.queries.concrete\lQueries.SelectUninvoicedOrders.initQuery">
<polygon fill="none" stroke="black" points="233,-24.5 233,-54.5 434,-54.5 434,-24.5 233,-24.5"/>
<text text-anchor="start" x="241" y="-42.5" font-family="Helvetica,sans-Serif" font-size="10.00">tomoBay.model.sql.queries.concrete</text>
<text text-anchor="middle" x="333.5" y="-31.5" font-family="Helvetica,sans-Serif" font-size="10.00">Queries.SelectUninvoicedOrders.initQuery</text>
</a>
</g>
</g>
<!-- Node1&#45;&gt;Node4 -->
<g id="edge3" class="edge"><title>Node1&#45;&gt;Node4</title>
<path fill="none" stroke="midnightblue" d="M164.403,-78.458C193.317,-71.7569 227.545,-63.8244 257.543,-56.8719"/>
<polygon fill="midnightblue" stroke="midnightblue" points="258.589,-60.2224 267.541,-54.5549 257.009,-53.4031 258.589,-60.2224"/>
</g>
<!-- Node5 -->
<g id="node5" class="node"><title>Node5</title>
<g id="a_node5"><a xlink:href="classtomoBay_1_1model_1_1sql_1_1ConnectionManager.html#a258fdcb8481c013b1864d6835e5dfaa2" target="_top" xlink:title="tomoBay.model.sql.Connection\lManager.instance">
<polygon fill="none" stroke="black" points="470,-49.5 470,-79.5 623,-79.5 623,-49.5 470,-49.5"/>
<text text-anchor="start" x="478" y="-67.5" font-family="Helvetica,sans-Serif" font-size="10.00">tomoBay.model.sql.Connection</text>
<text text-anchor="middle" x="546.5" y="-56.5" font-family="Helvetica,sans-Serif" font-size="10.00">Manager.instance</text>
</a>
</g>
</g>
<!-- Node4&#45;&gt;Node5 -->
<g id="edge4" class="edge"><title>Node4&#45;&gt;Node5</title>
<path fill="none" stroke="midnightblue" d="M434.13,-51.3045C442.702,-52.3202 451.326,-53.342 459.775,-54.343"/>
<polygon fill="midnightblue" stroke="midnightblue" points="459.635,-57.8509 469.978,-55.5519 460.459,-50.8995 459.635,-57.8509"/>
</g>
<!-- Node6 -->
<g id="node6" class="node"><title>Node6</title>
<g id="a_node6"><a xlink:href="classtomoBay_1_1model_1_1sql_1_1ConnectionManager.html#ae409bc78f5d56de5a3da5dc34b992912" target="_top" xlink:title="tomoBay.model.sql.Connection\lManager.getConnection">
<polygon fill="none" stroke="black" points="470,-0.5 470,-30.5 623,-30.5 623,-0.5 470,-0.5"/>
<text text-anchor="start" x="478" y="-18.5" font-family="Helvetica,sans-Serif" font-size="10.00">tomoBay.model.sql.Connection</text>
<text text-anchor="middle" x="546.5" y="-7.5" font-family="Helvetica,sans-Serif" font-size="10.00">Manager.getConnection</text>
</a>
</g>
</g>
<!-- Node4&#45;&gt;Node6 -->
<g id="edge5" class="edge"><title>Node4&#45;&gt;Node6</title>
<path fill="none" stroke="midnightblue" d="M434.13,-28.1677C442.702,-27.1926 451.326,-26.2117 459.775,-25.2507"/>
<polygon fill="midnightblue" stroke="midnightblue" points="460.437,-28.698 469.978,-24.0902 459.646,-21.7429 460.437,-28.698"/>
</g>
</g>
</svg>
