<?xml version="1.0" encoding="UTF-8" standalone="no"?>
<!DOCTYPE svg PUBLIC "-//W3C//DTD SVG 1.1//EN"
 "http://www.w3.org/Graphics/SVG/1.1/DTD/svg11.dtd">
<!-- Generated by graphviz version 2.38.0 (20140413.2041)
 -->
<!-- Title: AbstractModifyQuery Pages: 1 -->
<svg width="194pt" height="288pt"
 viewBox="0.00 0.00 193.50 288.00" xmlns="http://www.w3.org/2000/svg" xmlns:xlink="http://www.w3.org/1999/xlink">
<g id="graph0" class="graph" transform="scale(1 1) rotate(0) translate(4 284)">
<title>AbstractModifyQuery</title>
<polygon fill="white" stroke="none" points="-4,4 -4,-284 189.5,-284 189.5,4 -4,4"/>
<!-- Node1 -->
<g id="node1" class="node"><title>Node1</title>
<polygon fill="#bfbfbf" stroke="black" points="22,-0.5 22,-57.5 146,-57.5 146,-0.5 22,-0.5"/>
<text text-anchor="middle" x="84" y="-45.5" font-family="Helvetica,sans-Serif" font-size="10.00">AbstractModifyQuery</text>
<polyline fill="none" stroke="black" points="22,-38.5 146,-38.5 "/>
<text text-anchor="middle" x="84" y="-26.5" font-family="Helvetica,sans-Serif" font-size="10.00"> </text>
<polyline fill="none" stroke="black" points="22,-19.5 146,-19.5 "/>
<text text-anchor="start" x="30" y="-7.5" font-family="Helvetica,sans-Serif" font-size="10.00">+ AbstractModifyQuery()</text>
</g>
<!-- Node2 -->
<g id="node2" class="node"><title>Node2</title>
<g id="a_node2"><a xlink:href="classtomoBay_1_1model_1_1sql_1_1framework_1_1queryTypes_1_1AbstractDBQuery.html" target="_top" xlink:title="Interface that all database queries must adhere to. ">
<polygon fill="white" stroke="black" points="37,-95.5 37,-174.5 131,-174.5 131,-95.5 37,-95.5"/>
<text text-anchor="middle" x="84" y="-162.5" font-family="Helvetica,sans-Serif" font-size="10.00">AbstractDBQuery</text>
<polyline fill="none" stroke="black" points="37,-155.5 131,-155.5 "/>
<text text-anchor="middle" x="84" y="-143.5" font-family="Helvetica,sans-Serif" font-size="10.00"> </text>
<polyline fill="none" stroke="black" points="37,-136.5 131,-136.5 "/>
<text text-anchor="start" x="45" y="-124.5" font-family="Helvetica,sans-Serif" font-size="10.00">+ statement()</text>
<text text-anchor="start" x="45" y="-113.5" font-family="Helvetica,sans-Serif" font-size="10.00"># queryString()</text>
<text text-anchor="start" x="45" y="-102.5" font-family="Helvetica,sans-Serif" font-size="10.00"># cleanup()</text>
</a>
</g>
</g>
<!-- Node2&#45;&gt;Node1 -->
<g id="edge1" class="edge"><title>Node2&#45;&gt;Node1</title>
<path fill="none" stroke="midnightblue" d="M84,-85.1615C84,-75.7373 84,-66.1742 84,-57.7164"/>
<polygon fill="none" stroke="midnightblue" points="80.5001,-85.2742 84,-95.2742 87.5001,-85.2743 80.5001,-85.2742"/>
</g>
<!-- Node3 -->
<g id="node3" class="node"><title>Node3</title>
<polygon fill="white" stroke="#bfbfbf" points="0,-222.5 0,-279.5 66,-279.5 66,-222.5 0,-222.5"/>
<text text-anchor="middle" x="33" y="-267.5" font-family="Helvetica,sans-Serif" font-size="10.00">Connection</text>
<polyline fill="none" stroke="#bfbfbf" points="0,-260.5 66,-260.5 "/>
<text text-anchor="middle" x="33" y="-248.5" font-family="Helvetica,sans-Serif" font-size="10.00"> </text>
<polyline fill="none" stroke="#bfbfbf" points="0,-241.5 66,-241.5 "/>
<text text-anchor="middle" x="33" y="-229.5" font-family="Helvetica,sans-Serif" font-size="10.00"> </text>
</g>
<!-- Node3&#45;&gt;Node2 -->
<g id="edge2" class="edge"><title>Node3&#45;&gt;Node2</title>
<path fill="none" stroke="#404040" d="M35.314,-222.323C36.7691,-212.768 39.1393,-202.167 43,-193 44.0978,-190.393 45.3335,-187.791 46.6729,-185.213"/>
<polygon fill="none" stroke="#404040" points="46.6785,-185.204 46.2133,-178.008 52.6769,-174.81 53.1422,-182.006 46.6785,-185.204"/>
<text text-anchor="middle" x="78" y="-196" font-family="Helvetica,sans-Serif" font-size="10.00"> #connection_M</text>
</g>
<!-- Node4 -->
<g id="node4" class="node"><title>Node4</title>
<polygon fill="white" stroke="#bfbfbf" points="84.5,-222.5 84.5,-279.5 185.5,-279.5 185.5,-222.5 84.5,-222.5"/>
<text text-anchor="middle" x="135" y="-267.5" font-family="Helvetica,sans-Serif" font-size="10.00">PreparedStatement</text>
<polyline fill="none" stroke="#bfbfbf" points="84.5,-260.5 185.5,-260.5 "/>
<text text-anchor="middle" x="135" y="-248.5" font-family="Helvetica,sans-Serif" font-size="10.00"> </text>
<polyline fill="none" stroke="#bfbfbf" points="84.5,-241.5 185.5,-241.5 "/>
<text text-anchor="middle" x="135" y="-229.5" font-family="Helvetica,sans-Serif" font-size="10.00"> </text>
</g>
<!-- Node4&#45;&gt;Node2 -->
<g id="edge3" class="edge"><title>Node4&#45;&gt;Node2</title>
<path fill="none" stroke="#404040" d="M124.932,-222.224C121.364,-212.856 117.191,-202.397 113,-193 111.916,-190.57 110.781,-188.094 109.614,-185.605"/>
<polygon fill="none" stroke="#404040" points="109.56,-185.494 103.351,-181.826 104.349,-174.684 110.558,-178.352 109.56,-185.494"/>
<text text-anchor="middle" x="151" y="-196" font-family="Helvetica,sans-Serif" font-size="10.00"> #statement_M</text>
</g>
</g>
</svg>
