<?xml version="1.0" encoding="UTF-8" standalone="no"?>
<!DOCTYPE svg PUBLIC "-//W3C//DTD SVG 1.1//EN"
 "http://www.w3.org/Graphics/SVG/1.1/DTD/svg11.dtd">
<!-- Generated by graphviz version 2.38.0 (20140413.2041)
 -->
<!-- Title: request Pages: 1 -->
<svg width="195pt" height="104pt"
 viewBox="0.00 0.00 195.00 104.00" xmlns="http://www.w3.org/2000/svg" xmlns:xlink="http://www.w3.org/1999/xlink">
<g id="graph0" class="graph" transform="scale(1 1) rotate(0) translate(4 100)">
<title>request</title>
<polygon fill="white" stroke="none" points="-4,4 -4,-100 191,-100 191,4 -4,4"/>
<!-- Node1 -->
<g id="node1" class="node"><title>Node1</title>
<polygon fill="#bfbfbf" stroke="black" points="0,-38.5 0,-57.5 49,-57.5 49,-38.5 0,-38.5"/>
<text text-anchor="middle" x="24.5" y="-45.5" font-family="Helvetica,sans-Serif" font-size="10.00">request</text>
</g>
<!-- Node2 -->
<g id="node2" class="node"><title>Node2</title>
<g id="a_node2"><a xlink:href="classtomoBay_1_1model_1_1net_1_1HttpGET.html#a13f3c5b15c3a2ab717bf69ce3f510e1a" target="_top" xlink:title="reads from the HttpURLConnection and passes back a string containing the contents of the response...">
<polygon fill="white" stroke="black" points="93.5,-76.5 93.5,-95.5 178.5,-95.5 178.5,-76.5 93.5,-76.5"/>
<text text-anchor="middle" x="136" y="-83.5" font-family="Helvetica,sans-Serif" font-size="10.00">readConnection</text>
</a>
</g>
</g>
<!-- Node1&#45;&gt;Node2 -->
<g id="edge1" class="edge"><title>Node1&#45;&gt;Node2</title>
<path fill="none" stroke="midnightblue" d="M49.2599,-56.2454C63.4281,-61.1623 81.7248,-67.5118 97.7752,-73.0818"/>
<polygon fill="midnightblue" stroke="midnightblue" points="96.8268,-76.4574 107.422,-76.4294 99.1218,-69.8443 96.8268,-76.4574"/>
</g>
<!-- Node3 -->
<g id="node3" class="node"><title>Node3</title>
<g id="a_node3"><a xlink:href="classtomoBay_1_1model_1_1net_1_1HttpGET.html#a8dd80617fed148ba3ce16384f417b894" target="_top" xlink:title="do setup for the HttpURLConnection object ">
<polygon fill="white" stroke="black" points="90,-38.5 90,-57.5 182,-57.5 182,-38.5 90,-38.5"/>
<text text-anchor="middle" x="136" y="-45.5" font-family="Helvetica,sans-Serif" font-size="10.00">setUpConnection</text>
</a>
</g>
</g>
<!-- Node1&#45;&gt;Node3 -->
<g id="edge2" class="edge"><title>Node1&#45;&gt;Node3</title>
<path fill="none" stroke="midnightblue" d="M49.2599,-48C58.2212,-48 68.834,-48 79.4855,-48"/>
<polygon fill="midnightblue" stroke="midnightblue" points="79.6569,-51.5001 89.6569,-48 79.6569,-44.5001 79.6569,-51.5001"/>
</g>
<!-- Node4 -->
<g id="node4" class="node"><title>Node4</title>
<g id="a_node4"><a xlink:href="classtomoBay_1_1model_1_1net_1_1HttpGET.html#a79524d4383ed846469ab0772af53b136" target="_top" xlink:title="converts a stacktrace to a string that can be printed to the screen ">
<polygon fill="white" stroke="black" points="85,-0.5 85,-19.5 187,-19.5 187,-0.5 85,-0.5"/>
<text text-anchor="middle" x="136" y="-7.5" font-family="Helvetica,sans-Serif" font-size="10.00">stackTraceToString</text>
</a>
</g>
</g>
<!-- Node1&#45;&gt;Node4 -->
<g id="edge3" class="edge"><title>Node1&#45;&gt;Node4</title>
<path fill="none" stroke="midnightblue" d="M49.2599,-39.7546C63.4281,-34.8377 81.7248,-28.4882 97.7752,-22.9182"/>
<polygon fill="midnightblue" stroke="midnightblue" points="99.1218,-26.1557 107.422,-19.5706 96.8268,-19.5426 99.1218,-26.1557"/>
</g>
</g>
</svg>
