<?xml version="1.0" encoding="UTF-8" standalone="no"?>
<!DOCTYPE svg PUBLIC "-//W3C//DTD SVG 1.1//EN"
 "http://www.w3.org/Graphics/SVG/1.1/DTD/svg11.dtd">
<!-- Generated by graphviz version 2.38.0 (20140413.2041)
 -->
<!-- Title: tomoBay.model.services.individualItemRefresh.ReCalculateRequiredStock.insertOrUpdate Pages: 1 -->
<svg width="639pt" height="210pt"
 viewBox="0.00 0.00 639.00 210.00" xmlns="http://www.w3.org/2000/svg" xmlns:xlink="http://www.w3.org/1999/xlink">
<g id="graph0" class="graph" transform="scale(1 1) rotate(0) translate(4 206)">
<title>tomoBay.model.services.individualItemRefresh.ReCalculateRequiredStock.insertOrUpdate</title>
<!-- Node1 -->
<g id="node1" class="node"><title>Node1</title>
<polygon fill="#bfbfbf" stroke="black" points="0,-68 0,-109 219,-109 219,-68 0,-68"/>
<text text-anchor="start" x="8" y="-97" font-family="Helvetica,sans-Serif" font-size="10.00">tomoBay.model.services.individual</text>
<text text-anchor="start" x="8" y="-86" font-family="Helvetica,sans-Serif" font-size="10.00">ItemRefresh.ReCalculateRequiredStock.insert</text>
<text text-anchor="middle" x="109.5" y="-75" font-family="Helvetica,sans-Serif" font-size="10.00">OrUpdate</text>
</g>
<!-- Node2 -->
<g id="node2" class="node"><title>Node2</title>
<g id="a_node2"><a xlink:href="classtomoBay_1_1model_1_1sql_1_1queries_1_1QueryInvoker.html#af9783588735e13b18741b48b375ca626" target="_top" xlink:title="tomoBay.model.sql.queries.\lQueryInvoker.execute">
<polygon fill="none" stroke="black" points="287,-147.5 287,-177.5 425,-177.5 425,-147.5 287,-147.5"/>
<text text-anchor="start" x="295" y="-165.5" font-family="Helvetica,sans-Serif" font-size="10.00">tomoBay.model.sql.queries.</text>
<text text-anchor="middle" x="356" y="-154.5" font-family="Helvetica,sans-Serif" font-size="10.00">QueryInvoker.execute</text>
</a>
</g>
</g>
<!-- Node1&#45;&gt;Node2 -->
<g id="edge1" class="edge"><title>Node1&#45;&gt;Node2</title>
<path fill="none" stroke="midnightblue" d="M167.467,-109.02C193.925,-118.24 225.901,-128.944 255,-137.5 263.637,-140.039 272.74,-142.546 281.794,-144.935"/>
<polygon fill="midnightblue" stroke="midnightblue" points="281.016,-148.349 291.574,-147.477 282.776,-141.574 281.016,-148.349"/>
</g>
<!-- Node5 -->
<g id="node5" class="node"><title>Node5</title>
<g id="a_node5"><a xlink:href="classtomoBay_1_1model_1_1services_1_1helpers_1_1PartList.html#ad78e5b214d7f6060e461abac7fca9559" target="_top" xlink:title="tomoBay.model.services.helpers.\lPartList.getPartNumber">
<polygon fill="none" stroke="black" points="275,-98.5 275,-128.5 437,-128.5 437,-98.5 275,-98.5"/>
<text text-anchor="start" x="283" y="-116.5" font-family="Helvetica,sans-Serif" font-size="10.00">tomoBay.model.services.helpers.</text>
<text text-anchor="middle" x="356" y="-105.5" font-family="Helvetica,sans-Serif" font-size="10.00">PartList.getPartNumber</text>
</a>
</g>
</g>
<!-- Node1&#45;&gt;Node5 -->
<g id="edge4" class="edge"><title>Node1&#45;&gt;Node5</title>
<path fill="none" stroke="midnightblue" d="M219.165,-99.611C234.398,-101.169 249.916,-102.755 264.757,-104.273"/>
<polygon fill="midnightblue" stroke="midnightblue" points="264.607,-107.776 274.911,-105.311 265.319,-100.812 264.607,-107.776"/>
</g>
<!-- Node6 -->
<g id="node6" class="node"><title>Node6</title>
<g id="a_node6"><a xlink:href="classtomoBay_1_1model_1_1services_1_1helpers_1_1PartList.html#a554b8b08e0c00b2c094af388611fb318" target="_top" xlink:title="tomoBay.model.services.helpers.\lPartList.getPartQty">
<polygon fill="none" stroke="black" points="275,-49.5 275,-79.5 437,-79.5 437,-49.5 275,-49.5"/>
<text text-anchor="start" x="283" y="-67.5" font-family="Helvetica,sans-Serif" font-size="10.00">tomoBay.model.services.helpers.</text>
<text text-anchor="middle" x="356" y="-56.5" font-family="Helvetica,sans-Serif" font-size="10.00">PartList.getPartQty</text>
</a>
</g>
</g>
<!-- Node1&#45;&gt;Node6 -->
<g id="edge5" class="edge"><title>Node1&#45;&gt;Node6</title>
<path fill="none" stroke="midnightblue" d="M219.165,-77.8335C234.398,-76.3382 249.916,-74.815 264.757,-73.3582"/>
<polygon fill="midnightblue" stroke="midnightblue" points="265.301,-76.8217 274.911,-72.3615 264.617,-69.8552 265.301,-76.8217"/>
</g>
<!-- Node7 -->
<g id="node7" class="node"><title>Node7</title>
<g id="a_node7"><a xlink:href="classtomoBay_1_1model_1_1services_1_1stockUpdate_1_1StockRequiredQueryFactory.html#ae4ab4815160c22e64b4f158349381164" target="_top" xlink:title="tomoBay.model.services.stock\lUpdate.StockRequiredQueryFactory.make">
<polygon fill="none" stroke="black" points="255,-0.5 255,-30.5 457,-30.5 457,-0.5 255,-0.5"/>
<text text-anchor="start" x="263" y="-18.5" font-family="Helvetica,sans-Serif" font-size="10.00">tomoBay.model.services.stock</text>
<text text-anchor="middle" x="356" y="-7.5" font-family="Helvetica,sans-Serif" font-size="10.00">Update.StockRequiredQueryFactory.make</text>
</a>
</g>
</g>
<!-- Node1&#45;&gt;Node7 -->
<g id="edge6" class="edge"><title>Node1&#45;&gt;Node7</title>
<path fill="none" stroke="midnightblue" d="M168.89,-67.9857C195.079,-59.0746 226.443,-48.7998 255,-40.5 263.708,-37.9692 272.886,-35.4609 282.008,-33.0652"/>
<polygon fill="midnightblue" stroke="midnightblue" points="283.055,-36.4094 291.858,-30.5141 281.3,-29.633 283.055,-36.4094"/>
</g>
<!-- Node3 -->
<g id="node3" class="node"><title>Node3</title>
<g id="a_node3"><a xlink:href="classtomoBay_1_1model_1_1sql_1_1queries_1_1QueryInvoker.html#aff8d54f537b905d5a8b35a20113fd100" target="_top" xlink:title="tomoBay.model.sql.queries.\lQueryInvoker.make">
<polygon fill="none" stroke="black" points="493,-171.5 493,-201.5 631,-201.5 631,-171.5 493,-171.5"/>
<text text-anchor="start" x="501" y="-189.5" font-family="Helvetica,sans-Serif" font-size="10.00">tomoBay.model.sql.queries.</text>
<text text-anchor="middle" x="562" y="-178.5" font-family="Helvetica,sans-Serif" font-size="10.00">QueryInvoker.make</text>
</a>
</g>
</g>
<!-- Node2&#45;&gt;Node3 -->
<g id="edge2" class="edge"><title>Node2&#45;&gt;Node3</title>
<path fill="none" stroke="midnightblue" d="M425.213,-170.525C443.671,-172.697 463.794,-175.064 482.756,-177.295"/>
<polygon fill="midnightblue" stroke="midnightblue" points="482.511,-180.79 492.852,-178.483 483.329,-173.838 482.511,-180.79"/>
</g>
<!-- Node4 -->
<g id="node4" class="node"><title>Node4</title>
<g id="a_node4"><a xlink:href="interfacetomoBay_1_1model_1_1sql_1_1queries_1_1AbstractDBQuery.html#af2b3eebaeac3f2330d4c4e27182cec48" target="_top" xlink:title="tomoBay.model.sql.queries.\lAbstractDBQuery.execute">
<polygon fill="none" stroke="black" points="493,-122.5 493,-152.5 631,-152.5 631,-122.5 493,-122.5"/>
<text text-anchor="start" x="501" y="-140.5" font-family="Helvetica,sans-Serif" font-size="10.00">tomoBay.model.sql.queries.</text>
<text text-anchor="middle" x="562" y="-129.5" font-family="Helvetica,sans-Serif" font-size="10.00">AbstractDBQuery.execute</text>
</a>
</g>
</g>
<!-- Node2&#45;&gt;Node4 -->
<g id="edge3" class="edge"><title>Node2&#45;&gt;Node4</title>
<path fill="none" stroke="midnightblue" d="M425.213,-154.141C443.671,-151.879 463.794,-149.413 482.756,-147.089"/>
<polygon fill="midnightblue" stroke="midnightblue" points="483.352,-150.542 492.852,-145.852 482.5,-143.594 483.352,-150.542"/>
</g>
</g>
</svg>
