<?xml version="1.0" encoding="UTF-8" standalone="no"?>
<!DOCTYPE svg PUBLIC "-//W3C//DTD SVG 1.1//EN"
 "http://www.w3.org/Graphics/SVG/1.1/DTD/svg11.dtd">
<!-- Generated by graphviz version 2.38.0 (20140413.2041)
 -->
<!-- Title: AbstractDBQuery Pages: 1 -->
<svg width="194pt" height="193pt"
 viewBox="0.00 0.00 193.50 193.00" xmlns="http://www.w3.org/2000/svg" xmlns:xlink="http://www.w3.org/1999/xlink">
<g id="graph0" class="graph" transform="scale(1 1) rotate(0) translate(4 189)">
<title>AbstractDBQuery</title>
<polygon fill="white" stroke="none" points="-4,4 -4,-189 189.5,-189 189.5,4 -4,4"/>
<!-- Node1 -->
<g id="node1" class="node"><title>Node1</title>
<polygon fill="#bfbfbf" stroke="black" points="37,-0.5 37,-79.5 131,-79.5 131,-0.5 37,-0.5"/>
<text text-anchor="middle" x="84" y="-67.5" font-family="Helvetica,sans-Serif" font-size="10.00">AbstractDBQuery</text>
<polyline fill="none" stroke="black" points="37,-60.5 131,-60.5 "/>
<text text-anchor="middle" x="84" y="-48.5" font-family="Helvetica,sans-Serif" font-size="10.00"> </text>
<polyline fill="none" stroke="black" points="37,-41.5 131,-41.5 "/>
<text text-anchor="start" x="45" y="-29.5" font-family="Helvetica,sans-Serif" font-size="10.00">+ statement()</text>
<text text-anchor="start" x="45" y="-18.5" font-family="Helvetica,sans-Serif" font-size="10.00"># queryString()</text>
<text text-anchor="start" x="45" y="-7.5" font-family="Helvetica,sans-Serif" font-size="10.00"># cleanup()</text>
</g>
<!-- Node2 -->
<g id="node2" class="node"><title>Node2</title>
<polygon fill="white" stroke="#bfbfbf" points="0,-127.5 0,-184.5 66,-184.5 66,-127.5 0,-127.5"/>
<text text-anchor="middle" x="33" y="-172.5" font-family="Helvetica,sans-Serif" font-size="10.00">Connection</text>
<polyline fill="none" stroke="#bfbfbf" points="0,-165.5 66,-165.5 "/>
<text text-anchor="middle" x="33" y="-153.5" font-family="Helvetica,sans-Serif" font-size="10.00"> </text>
<polyline fill="none" stroke="#bfbfbf" points="0,-146.5 66,-146.5 "/>
<text text-anchor="middle" x="33" y="-134.5" font-family="Helvetica,sans-Serif" font-size="10.00"> </text>
</g>
<!-- Node2&#45;&gt;Node1 -->
<g id="edge1" class="edge"><title>Node2&#45;&gt;Node1</title>
<path fill="none" stroke="#404040" d="M35.314,-127.323C36.7691,-117.768 39.1393,-107.167 43,-98 44.0978,-95.3933 45.3335,-92.7909 46.6729,-90.2134"/>
<polygon fill="none" stroke="#404040" points="46.6785,-90.2036 46.2133,-83.0075 52.6769,-79.8103 53.1422,-87.0064 46.6785,-90.2036"/>
<text text-anchor="middle" x="78" y="-101" font-family="Helvetica,sans-Serif" font-size="10.00"> #connection_M</text>
</g>
<!-- Node3 -->
<g id="node3" class="node"><title>Node3</title>
<polygon fill="white" stroke="#bfbfbf" points="84.5,-127.5 84.5,-184.5 185.5,-184.5 185.5,-127.5 84.5,-127.5"/>
<text text-anchor="middle" x="135" y="-172.5" font-family="Helvetica,sans-Serif" font-size="10.00">PreparedStatement</text>
<polyline fill="none" stroke="#bfbfbf" points="84.5,-165.5 185.5,-165.5 "/>
<text text-anchor="middle" x="135" y="-153.5" font-family="Helvetica,sans-Serif" font-size="10.00"> </text>
<polyline fill="none" stroke="#bfbfbf" points="84.5,-146.5 185.5,-146.5 "/>
<text text-anchor="middle" x="135" y="-134.5" font-family="Helvetica,sans-Serif" font-size="10.00"> </text>
</g>
<!-- Node3&#45;&gt;Node1 -->
<g id="edge2" class="edge"><title>Node3&#45;&gt;Node1</title>
<path fill="none" stroke="#404040" d="M124.932,-127.224C121.364,-117.856 117.191,-107.397 113,-98 111.916,-95.5695 110.781,-93.0945 109.614,-90.6045"/>
<polygon fill="none" stroke="#404040" points="109.56,-90.4936 103.351,-86.8259 104.349,-79.6841 110.558,-83.3518 109.56,-90.4936"/>
<text text-anchor="middle" x="151" y="-101" font-family="Helvetica,sans-Serif" font-size="10.00"> #statement_M</text>
</g>
</g>
</svg>
