<?xml version="1.0" encoding="UTF-8" standalone="no"?>
<!DOCTYPE svg PUBLIC "-//W3C//DTD SVG 1.1//EN"
 "http://www.w3.org/Graphics/SVG/1.1/DTD/svg11.dtd">
<!-- Generated by graphviz version 2.38.0 (20140413.2041)
 -->
<!-- Title: tomoBay.model.sql.queries.concreteQueries.SelectPrestigeStockReqByPart.execute Pages: 1 -->
<svg width="694pt" height="171pt"
 viewBox="0.00 0.00 694.00 171.00" xmlns="http://www.w3.org/2000/svg" xmlns:xlink="http://www.w3.org/1999/xlink">
<g id="graph0" class="graph" transform="scale(1 1) rotate(0) translate(4 167)">
<title>tomoBay.model.sql.queries.concreteQueries.SelectPrestigeStockReqByPart.execute</title>
<!-- Node1 -->
<g id="node1" class="node"><title>Node1</title>
<polygon fill="#bfbfbf" stroke="black" points="0,-78.5 0,-108.5 228,-108.5 228,-78.5 0,-78.5"/>
<text text-anchor="start" x="8" y="-96.5" font-family="Helvetica,sans-Serif" font-size="10.00">tomoBay.model.sql.queries.concrete</text>
<text text-anchor="middle" x="114" y="-85.5" font-family="Helvetica,sans-Serif" font-size="10.00">Queries.SelectPrestigeStockReqByPart.execute</text>
</g>
<!-- Node2 -->
<g id="node2" class="node"><title>Node2</title>
<g id="a_node2"><a xlink:href="classtomoBay_1_1model_1_1sql_1_1queries_1_1concreteQueries_1_1SelectPrestigeStockReqByPart.html#a926ccf438f0a39b166e20c9d3b0f9537" target="_top" xlink:title="tomoBay.model.sql.queries.concrete\lQueries.SelectPrestigeStockReqByPart.cleanup">
<polygon fill="none" stroke="black" points="267,-132.5 267,-162.5 494,-162.5 494,-132.5 267,-132.5"/>
<text text-anchor="start" x="275" y="-150.5" font-family="Helvetica,sans-Serif" font-size="10.00">tomoBay.model.sql.queries.concrete</text>
<text text-anchor="middle" x="380.5" y="-139.5" font-family="Helvetica,sans-Serif" font-size="10.00">Queries.SelectPrestigeStockReqByPart.cleanup</text>
</a>
</g>
</g>
<!-- Node1&#45;&gt;Node2 -->
<g id="edge1" class="edge"><title>Node1&#45;&gt;Node2</title>
<path fill="none" stroke="midnightblue" d="M188.678,-108.542C221.929,-115.33 261.37,-123.383 295.74,-130.4"/>
<polygon fill="midnightblue" stroke="midnightblue" points="295.261,-133.874 305.759,-132.445 296.661,-127.015 295.261,-133.874"/>
</g>
<!-- Node3 -->
<g id="node3" class="node"><title>Node3</title>
<g id="a_node3"><a xlink:href="classtomoBay_1_1model_1_1sql_1_1queries_1_1concreteQueries_1_1SelectPrestigeStockReqByPart.html#a65c8bee43cff11d0f5a7773018a2f991" target="_top" xlink:title="tomoBay.model.sql.queries.concrete\lQueries.SelectPrestigeStockReqByPart.format\lResults">
<polygon fill="none" stroke="black" points="270,-73 270,-114 491,-114 491,-73 270,-73"/>
<text text-anchor="start" x="278" y="-102" font-family="Helvetica,sans-Serif" font-size="10.00">tomoBay.model.sql.queries.concrete</text>
<text text-anchor="start" x="278" y="-91" font-family="Helvetica,sans-Serif" font-size="10.00">Queries.SelectPrestigeStockReqByPart.format</text>
<text text-anchor="middle" x="380.5" y="-80" font-family="Helvetica,sans-Serif" font-size="10.00">Results</text>
</a>
</g>
</g>
<!-- Node1&#45;&gt;Node3 -->
<g id="edge2" class="edge"><title>Node1&#45;&gt;Node3</title>
<path fill="none" stroke="midnightblue" d="M228.323,-93.5C238.629,-93.5 249.091,-93.5 259.453,-93.5"/>
<polygon fill="midnightblue" stroke="midnightblue" points="259.771,-97.0001 269.771,-93.5 259.771,-90.0001 259.771,-97.0001"/>
</g>
<!-- Node4 -->
<g id="node4" class="node"><title>Node4</title>
<g id="a_node4"><a xlink:href="classtomoBay_1_1model_1_1sql_1_1queries_1_1concreteQueries_1_1SelectPrestigeStockReqByPart.html#a90389cae824f8b88d2d6189ed8e2c852" target="_top" xlink:title="tomoBay.model.sql.queries.concrete\lQueries.SelectPrestigeStockReqByPart.initQuery">
<polygon fill="none" stroke="black" points="264,-24.5 264,-54.5 497,-54.5 497,-24.5 264,-24.5"/>
<text text-anchor="start" x="272" y="-42.5" font-family="Helvetica,sans-Serif" font-size="10.00">tomoBay.model.sql.queries.concrete</text>
<text text-anchor="middle" x="380.5" y="-31.5" font-family="Helvetica,sans-Serif" font-size="10.00">Queries.SelectPrestigeStockReqByPart.initQuery</text>
</a>
</g>
</g>
<!-- Node1&#45;&gt;Node4 -->
<g id="edge3" class="edge"><title>Node1&#45;&gt;Node4</title>
<path fill="none" stroke="midnightblue" d="M188.678,-78.458C221.929,-71.6695 261.37,-63.6173 295.74,-56.6004"/>
<polygon fill="midnightblue" stroke="midnightblue" points="296.661,-59.9846 305.759,-54.5549 295.261,-53.126 296.661,-59.9846"/>
</g>
<!-- Node5 -->
<g id="node5" class="node"><title>Node5</title>
<g id="a_node5"><a xlink:href="classtomoBay_1_1model_1_1sql_1_1ConnectionManager.html#a258fdcb8481c013b1864d6835e5dfaa2" target="_top" xlink:title="tomoBay.model.sql.Connection\lManager.instance">
<polygon fill="none" stroke="black" points="533,-49.5 533,-79.5 686,-79.5 686,-49.5 533,-49.5"/>
<text text-anchor="start" x="541" y="-67.5" font-family="Helvetica,sans-Serif" font-size="10.00">tomoBay.model.sql.Connection</text>
<text text-anchor="middle" x="609.5" y="-56.5" font-family="Helvetica,sans-Serif" font-size="10.00">Manager.instance</text>
</a>
</g>
</g>
<!-- Node4&#45;&gt;Node5 -->
<g id="edge4" class="edge"><title>Node4&#45;&gt;Node5</title>
<path fill="none" stroke="midnightblue" d="M497.327,-52.2563C505.875,-53.1977 514.406,-54.1372 522.724,-55.0533"/>
<polygon fill="midnightblue" stroke="midnightblue" points="522.43,-58.542 532.753,-56.1579 523.197,-51.5841 522.43,-58.542"/>
</g>
<!-- Node6 -->
<g id="node6" class="node"><title>Node6</title>
<g id="a_node6"><a xlink:href="classtomoBay_1_1model_1_1sql_1_1ConnectionManager.html#ae409bc78f5d56de5a3da5dc34b992912" target="_top" xlink:title="tomoBay.model.sql.Connection\lManager.getConnection">
<polygon fill="none" stroke="black" points="533,-0.5 533,-30.5 686,-30.5 686,-0.5 533,-0.5"/>
<text text-anchor="start" x="541" y="-18.5" font-family="Helvetica,sans-Serif" font-size="10.00">tomoBay.model.sql.Connection</text>
<text text-anchor="middle" x="609.5" y="-7.5" font-family="Helvetica,sans-Serif" font-size="10.00">Manager.getConnection</text>
</a>
</g>
</g>
<!-- Node4&#45;&gt;Node6 -->
<g id="edge5" class="edge"><title>Node4&#45;&gt;Node6</title>
<path fill="none" stroke="midnightblue" d="M497.327,-27.2539C505.875,-26.3502 514.406,-25.4483 522.724,-24.5688"/>
<polygon fill="midnightblue" stroke="midnightblue" points="523.177,-28.0406 532.753,-23.5085 522.441,-21.0794 523.177,-28.0406"/>
</g>
</g>
</svg>
