<?xml version="1.0" encoding="UTF-8" standalone="no"?>
<!DOCTYPE svg PUBLIC "-//W3C//DTD SVG 1.1//EN"
 "http://www.w3.org/Graphics/SVG/1.1/DTD/svg11.dtd">
<!-- Generated by graphviz version 2.38.0 (20140413.2041)
 -->
<!-- Title: tomoBay.helpers.ConfigReader.convert Pages: 1 -->
<svg width="915pt" height="147pt"
 viewBox="0.00 0.00 915.00 147.00" xmlns="http://www.w3.org/2000/svg" xmlns:xlink="http://www.w3.org/1999/xlink">
<g id="graph0" class="graph" transform="scale(1 1) rotate(0) translate(4 143)">
<title>tomoBay.helpers.ConfigReader.convert</title>
<!-- Node1 -->
<g id="node1" class="node"><title>Node1</title>
<polygon fill="#bfbfbf" stroke="black" points="0,-60 0,-79 188,-79 188,-60 0,-60"/>
<text text-anchor="middle" x="94" y="-67" font-family="Helvetica,sans-Serif" font-size="10.00">tomoBay.helpers.ConfigReader.convert</text>
</g>
<!-- Node2 -->
<g id="node2" class="node"><title>Node2</title>
<g id="a_node2"><a xlink:href="classtomoBay_1_1helpers_1_1ConfigReader.html#a26849fb02af1639c398bd92d923b08d6" target="_top" xlink:title="tomoBay.helpers.ConfigReader.read">
<polygon fill="none" stroke="black" points="224,-60 224,-79 399,-79 399,-60 224,-60"/>
<text text-anchor="middle" x="311.5" y="-67" font-family="Helvetica,sans-Serif" font-size="10.00">tomoBay.helpers.ConfigReader.read</text>
</a>
</g>
</g>
<!-- Node1&#45;&gt;Node2 -->
<g id="edge1" class="edge"><title>Node1&#45;&gt;Node2</title>
<path fill="none" stroke="midnightblue" d="M198.293,-69.5C206.859,-69.5 215.462,-69.5 223.886,-69.5"/>
<polygon fill="midnightblue" stroke="midnightblue" points="198.268,-66.0001 188.268,-69.5 198.268,-73.0001 198.268,-66.0001"/>
</g>
<!-- Node3 -->
<g id="node3" class="node"><title>Node3</title>
<g id="a_node3"><a xlink:href="classtomoBay_1_1model_1_1services_1_1basicEbayUpdate_1_1BasicEbayUpdateService.html#a4f88ce1244d0e8869470d3f5c95c72d5" target="_top" xlink:title="tomoBay.model.services.basic\lEbayUpdate.BasicEbayUpdateService.run">
<polygon fill="none" stroke="black" points="443,-108.5 443,-138.5 645,-138.5 645,-108.5 443,-108.5"/>
<text text-anchor="start" x="451" y="-126.5" font-family="Helvetica,sans-Serif" font-size="10.00">tomoBay.model.services.basic</text>
<text text-anchor="middle" x="544" y="-115.5" font-family="Helvetica,sans-Serif" font-size="10.00">EbayUpdate.BasicEbayUpdateService.run</text>
</a>
</g>
</g>
<!-- Node2&#45;&gt;Node3 -->
<g id="edge2" class="edge"><title>Node2&#45;&gt;Node3</title>
<path fill="none" stroke="midnightblue" d="M360.231,-81.4417C382.864,-87.0394 410.297,-93.7311 435,-99.5 447.719,-102.47 461.301,-105.556 474.39,-108.486"/>
<polygon fill="midnightblue" stroke="midnightblue" points="361.072,-78.0442 350.523,-79.0351 359.387,-84.8385 361.072,-78.0442"/>
</g>
<!-- Node4 -->
<g id="node4" class="node"><title>Node4</title>
<g id="a_node4"><a xlink:href="classtomoBay_1_1model_1_1services_1_1individualItemRefresh_1_1IndividualItemRefreshService.html#a5cac8ea543146d5aba7813bf8856125b" target="_top" xlink:title="tomoBay.model.services.individual\lItemRefresh.IndividualItemRefreshService.get\lItemData">
<polygon fill="none" stroke="black" points="435,-49 435,-90 653,-90 653,-49 435,-49"/>
<text text-anchor="start" x="443" y="-78" font-family="Helvetica,sans-Serif" font-size="10.00">tomoBay.model.services.individual</text>
<text text-anchor="start" x="443" y="-67" font-family="Helvetica,sans-Serif" font-size="10.00">ItemRefresh.IndividualItemRefreshService.get</text>
<text text-anchor="middle" x="544" y="-56" font-family="Helvetica,sans-Serif" font-size="10.00">ItemData</text>
</a>
</g>
</g>
<!-- Node2&#45;&gt;Node4 -->
<g id="edge3" class="edge"><title>Node2&#45;&gt;Node4</title>
<path fill="none" stroke="midnightblue" d="M409.475,-69.5C417.87,-69.5 426.397,-69.5 434.873,-69.5"/>
<polygon fill="midnightblue" stroke="midnightblue" points="409.314,-66.0001 399.314,-69.5 409.314,-73.0001 409.314,-66.0001"/>
</g>
<!-- Node6 -->
<g id="node6" class="node"><title>Node6</title>
<g id="a_node6"><a xlink:href="classtomoBay_1_1model_1_1sql_1_1ConnectionManager.html#a2feffac7ec5e359a407010821c91dde7" target="_top" xlink:title="tomoBay.model.sql.Connection\lManager.ConnectionManager">
<polygon fill="none" stroke="black" points="467.5,-0.5 467.5,-30.5 620.5,-30.5 620.5,-0.5 467.5,-0.5"/>
<text text-anchor="start" x="475.5" y="-18.5" font-family="Helvetica,sans-Serif" font-size="10.00">tomoBay.model.sql.Connection</text>
<text text-anchor="middle" x="544" y="-7.5" font-family="Helvetica,sans-Serif" font-size="10.00">Manager.ConnectionManager</text>
</a>
</g>
</g>
<!-- Node2&#45;&gt;Node6 -->
<g id="edge5" class="edge"><title>Node2&#45;&gt;Node6</title>
<path fill="none" stroke="midnightblue" d="M360.231,-57.5583C382.864,-51.9606 410.297,-45.2689 435,-39.5 447.719,-36.5298 461.301,-33.4441 474.39,-30.5139"/>
<polygon fill="midnightblue" stroke="midnightblue" points="359.387,-54.1615 350.523,-59.9649 361.072,-60.9558 359.387,-54.1615"/>
</g>
<!-- Node5 -->
<g id="node5" class="node"><title>Node5</title>
<g id="a_node5"><a xlink:href="classtomoBay_1_1model_1_1services_1_1individualItemRefresh_1_1IndividualItemRefreshService.html#a579244b8909621f27fc4871a532f87ee" target="_top" xlink:title="tomoBay.model.services.individual\lItemRefresh.IndividualItemRefreshService.run">
<polygon fill="none" stroke="black" points="689,-54.5 689,-84.5 907,-84.5 907,-54.5 689,-54.5"/>
<text text-anchor="start" x="697" y="-72.5" font-family="Helvetica,sans-Serif" font-size="10.00">tomoBay.model.services.individual</text>
<text text-anchor="middle" x="798" y="-61.5" font-family="Helvetica,sans-Serif" font-size="10.00">ItemRefresh.IndividualItemRefreshService.run</text>
</a>
</g>
</g>
<!-- Node4&#45;&gt;Node5 -->
<g id="edge4" class="edge"><title>Node4&#45;&gt;Node5</title>
<path fill="none" stroke="midnightblue" d="M663.555,-69.5C671.962,-69.5 680.413,-69.5 688.758,-69.5"/>
<polygon fill="midnightblue" stroke="midnightblue" points="663.333,-66.0001 653.333,-69.5 663.333,-73.0001 663.333,-66.0001"/>
</g>
</g>
</svg>
