<?xml version="1.0" encoding="UTF-8" standalone="no"?>
<!DOCTYPE svg PUBLIC "-//W3C//DTD SVG 1.1//EN"
 "http://www.w3.org/Graphics/SVG/1.1/DTD/svg11.dtd">
<!-- Generated by graphviz version 2.38.0 (20140413.2041)
 -->
<!-- Title: getEmail Pages: 1 -->
<svg width="283pt" height="99pt"
 viewBox="0.00 0.00 283.00 98.50" xmlns="http://www.w3.org/2000/svg" xmlns:xlink="http://www.w3.org/1999/xlink">
<g id="graph0" class="graph" transform="scale(1 1) rotate(0) translate(4 94.5)">
<title>getEmail</title>
<polygon fill="white" stroke="none" points="-4,4 -4,-94.5 279,-94.5 279,4 -4,4"/>
<!-- Node1 -->
<g id="node1" class="node"><title>Node1</title>
<polygon fill="#bfbfbf" stroke="black" points="0,-33 0,-52 55,-52 55,-33 0,-33"/>
<text text-anchor="middle" x="27.5" y="-40" font-family="Helvetica,sans-Serif" font-size="10.00">getEmail</text>
</g>
<!-- Node2 -->
<g id="node2" class="node"><title>Node2</title>
<g id="a_node2"><a xlink:href="classtomoBay_1_1model_1_1services_1_1emailErrorsService_1_1EmailErrorsMailActions.html#ac25d519c7ee7b6a51c445abba35389e5" target="_top" xlink:title="default ctor ">
<polygon fill="white" stroke="black" points="91,-49 91,-90 275,-90 275,-49 91,-49"/>
<text text-anchor="start" x="99" y="-78" font-family="Helvetica,sans-Serif" font-size="10.00">tomoBay.model.services.email</text>
<text text-anchor="start" x="99" y="-67" font-family="Helvetica,sans-Serif" font-size="10.00">ErrorsService.EmailErrorsMailActions.</text>
<text text-anchor="middle" x="183" y="-56" font-family="Helvetica,sans-Serif" font-size="10.00">EmailErrorsMailActions</text>
</a>
</g>
</g>
<!-- Node1&#45;&gt;Node2 -->
<g id="edge1" class="edge"><title>Node1&#45;&gt;Node2</title>
<path fill="none" stroke="midnightblue" d="M65.2088,-48.9569C73.1778,-50.3586 81.9469,-51.9011 90.9897,-53.4917"/>
<polygon fill="midnightblue" stroke="midnightblue" points="65.6928,-45.4884 55.2377,-47.203 64.4801,-52.3826 65.6928,-45.4884"/>
</g>
<!-- Node3 -->
<g id="node3" class="node"><title>Node3</title>
<g id="a_node3"><a xlink:href="classtomoBayTests_1_1model_1_1net_1_1email_1_1EmailTest.html#a8b260eecbaabcef8473fd87ada040682" target="_top" xlink:title="tomoBayTests.model.net.email.\lEmailTest.main">
<polygon fill="white" stroke="black" points="105.5,-0.5 105.5,-30.5 260.5,-30.5 260.5,-0.5 105.5,-0.5"/>
<text text-anchor="start" x="113.5" y="-18.5" font-family="Helvetica,sans-Serif" font-size="10.00">tomoBayTests.model.net.email.</text>
<text text-anchor="middle" x="183" y="-7.5" font-family="Helvetica,sans-Serif" font-size="10.00">EmailTest.main</text>
</a>
</g>
</g>
<!-- Node1&#45;&gt;Node3 -->
<g id="edge2" class="edge"><title>Node1&#45;&gt;Node3</title>
<path fill="none" stroke="midnightblue" d="M65.379,-36.0131C77.5111,-33.8792 91.4833,-31.4215 105.447,-28.9654"/>
<polygon fill="midnightblue" stroke="midnightblue" points="64.4801,-32.6174 55.2377,-37.797 65.6928,-39.5116 64.4801,-32.6174"/>
</g>
</g>
</svg>
