<?xml version="1.0" encoding="UTF-8" standalone="no"?>
<!DOCTYPE svg PUBLIC "-//W3C//DTD SVG 1.1//EN"
 "http://www.w3.org/Graphics/SVG/1.1/DTD/svg11.dtd">
<!-- Generated by graphviz version 2.38.0 (20140413.2041)
 -->
<!-- Title: execute Pages: 1 -->
<!--zoomable 339 -->
<svg id="main" version="1.1" xmlns="http://www.w3.org/2000/svg" xmlns:xlink="http://www.w3.org/1999/xlink" xml:space="preserve" onload="init(evt)">
<style type="text/css"><![CDATA[
.edge:hover path { stroke: red; }
.edge:hover polygon { stroke: red; fill: red; }
]]></style>
<script type="text/javascript"><![CDATA[
var edges = document.getElementsByTagName('g');
if (edges && edges.length) {
  for (var i=0;i<edges.length;i++) {
    if (edges[i].id.substr(0,4)=='edge') {
      edges[i].setAttribute('class','edge');
    }
  }
}
]]></script>
        <defs>
                <circle id="rim" cx="0" cy="0" r="7"/>
                <circle id="rim2" cx="0" cy="0" r="3.5"/>
                <g id="zoomPlus">
                        <use xlink:href="#rim" fill="#404040">
                                <set attributeName="fill" to="#808080" begin="zoomplus.mouseover" end="zoomplus.mouseout"/>
                        </use>
                        <path d="M-4,0h8M0,-4v8" fill="none" stroke="white" stroke-width="1.5" pointer-events="none"/>
                </g>
                <g id="zoomMin">
                        <use xlink:href="#rim" fill="#404040">
                                <set attributeName="fill" to="#808080" begin="zoomminus.mouseover" end="zoomminus.mouseout"/>
                        </use>
                        <path d="M-4,0h8" fill="none" stroke="white" stroke-width="1.5" pointer-events="none"/>
                </g>
                <g id="dirArrow">
                        <path fill="none" stroke="white" stroke-width="1.5" d="M0,-3.0v7 M-2.5,-0.5L0,-3.0L2.5,-0.5"/>
                </g>
               <g id="resetDef">
                       <use xlink:href="#rim2" fill="#404040">
                               <set attributeName="fill" to="#808080" begin="reset.mouseover" end="reset.mouseout"/>
                       </use>
               </g>
        </defs>

<script type="text/javascript">
var viewWidth = 735;
var viewHeight = 339;
var sectionId = 'dynsection-2';
</script>
<script xlink:href="svgpan.js"/>
<svg id="graph" class="graph">
<g id="viewport">
<title>execute</title>
<polygon fill="white" stroke="none" points="-4,4 -4,-334.5 731,-334.5 731,4 -4,4"/>
<!-- Node1 -->
<g id="node1" class="node"><title>Node1</title>
<polygon fill="#bfbfbf" stroke="black" points="0,-104 0,-123 51,-123 51,-104 0,-104"/>
<text text-anchor="middle" x="25.5" y="-111" font-family="Helvetica,sans-Serif" font-size="10.00">execute</text>
</g>
<!-- Node2 -->
<g id="node2" class="node"><title>Node2</title>
<g id="a_node2"><a xlink:href="classtomoBay_1_1model_1_1services_1_1reScanErrorsService_1_1ReScanErrorsWinstockActions.html#a08319255a892c8a0f21883af69843d6c" target="_top" xlink:title="this method checks to see if a particular item (through the ItemSpecifics passed in as an argument) h...">
<polygon fill="white" stroke="black" points="99.5,-93 99.5,-134 262.5,-134 262.5,-93 99.5,-93"/>
<text text-anchor="start" x="107.5" y="-122" font-family="Helvetica,sans-Serif" font-size="10.00">tomoBay.model.services.re</text>
<text text-anchor="start" x="107.5" y="-111" font-family="Helvetica,sans-Serif" font-size="10.00">ScanErrorsService.ReScanErrors</text>
<text text-anchor="middle" x="181" y="-100" font-family="Helvetica,sans-Serif" font-size="10.00">WinstockActions.partNoHasError</text>
</a>
</g>
</g>
<!-- Node1&#45;&gt;Node2 -->
<g id="edge1" class="edge"><title>Node1&#45;&gt;Node2</title>
<path fill="none" stroke="midnightblue" d="M51.1624,-113.5C61.8691,-113.5 75.1364,-113.5 89.0488,-113.5"/>
<polygon fill="midnightblue" stroke="midnightblue" points="89.2657,-117 99.2657,-113.5 89.2657,-110 89.2657,-117"/>
</g>
<!-- Node6 -->
<g id="node6" class="node"><title>Node6</title>
<g id="a_node6"><a xlink:href="classtomoBay_1_1model_1_1services_1_1reScanErrorsService_1_1ReScanErrorsDBActions.html#a8a4bbc75f3e9766f7f1c51141551702a" target="_top" xlink:title="returns a list of items from the database that contain errors in the &#39;notes&#39; field of the ebay_items ...">
<polygon fill="white" stroke="black" points="99.5,-14 99.5,-55 262.5,-55 262.5,-14 99.5,-14"/>
<text text-anchor="start" x="107.5" y="-43" font-family="Helvetica,sans-Serif" font-size="10.00">tomoBay.model.services.re</text>
<text text-anchor="start" x="107.5" y="-32" font-family="Helvetica,sans-Serif" font-size="10.00">ScanErrorsService.ReScanErrors</text>
<text text-anchor="middle" x="181" y="-21" font-family="Helvetica,sans-Serif" font-size="10.00">DBActions.retrieveAllErrorItems</text>
</a>
</g>
</g>
<!-- Node1&#45;&gt;Node6 -->
<g id="edge5" class="edge"><title>Node1&#45;&gt;Node6</title>
<path fill="none" stroke="midnightblue" d="M45.0157,-103.971C66.0976,-93.1208 101.4,-74.952 130.616,-59.916"/>
<polygon fill="midnightblue" stroke="midnightblue" points="132.572,-62.8458 139.862,-55.1576 129.368,-56.6217 132.572,-62.8458"/>
</g>
<!-- Node8 -->
<g id="node8" class="node"><title>Node8</title>
<g id="a_node8"><a xlink:href="classtomoBay_1_1model_1_1services_1_1reScanErrorsService_1_1ReScanErrorsDBActions.html#a686181ed1b6d7f86e1b05653dc98f37e" target="_top" xlink:title="updates the database with corrected information, as provided in the ItemSpecifics passed in as an arg...">
<polygon fill="white" stroke="black" points="87,-191 87,-232 275,-232 275,-191 87,-191"/>
<text text-anchor="start" x="95" y="-220" font-family="Helvetica,sans-Serif" font-size="10.00">tomoBay.model.services.re</text>
<text text-anchor="start" x="95" y="-209" font-family="Helvetica,sans-Serif" font-size="10.00">ScanErrorsService.ReScanErrors</text>
<text text-anchor="middle" x="181" y="-198" font-family="Helvetica,sans-Serif" font-size="10.00">DBActions.updateDBwithCorrectedInfo</text>
</a>
</g>
</g>
<!-- Node1&#45;&gt;Node8 -->
<g id="edge7" class="edge"><title>Node1&#45;&gt;Node8</title>
<path fill="none" stroke="midnightblue" d="M41.4977,-123.075C63.9083,-137.383 106.94,-164.856 139.118,-185.4"/>
<polygon fill="midnightblue" stroke="midnightblue" points="137.568,-188.563 147.881,-190.994 141.335,-182.662 137.568,-188.563"/>
</g>
<!-- Node3 -->
<g id="node3" class="node"><title>Node3</title>
<g id="a_node3"><a xlink:href="classtomoBay_1_1model_1_1services_1_1reScanErrorsService_1_1ItemSpecifics.html#ad28f052945833b0267c4353afcbf58eb" target="_top" xlink:title="returns a particular Item specific ">
<polygon fill="white" stroke="black" points="319,-147.5 319,-177.5 497,-177.5 497,-147.5 319,-147.5"/>
<text text-anchor="start" x="327" y="-165.5" font-family="Helvetica,sans-Serif" font-size="10.00">tomoBay.model.services.re</text>
<text text-anchor="middle" x="408" y="-154.5" font-family="Helvetica,sans-Serif" font-size="10.00">ScanErrorsService.ItemSpecifics.get</text>
</a>
</g>
</g>
<!-- Node2&#45;&gt;Node3 -->
<g id="edge2" class="edge"><title>Node2&#45;&gt;Node3</title>
<path fill="none" stroke="midnightblue" d="M262.595,-131.052C283.931,-135.698 306.936,-140.708 328.176,-145.334"/>
<polygon fill="midnightblue" stroke="midnightblue" points="327.606,-148.792 338.122,-147.5 329.095,-141.952 327.606,-148.792"/>
</g>
<!-- Node4 -->
<g id="node4" class="node"><title>Node4</title>
<g id="a_node4"><a xlink:href="classtomoBay_1_1model_1_1dataTypes_1_1PartList.html#af4aaf5b8fadfc85ebed2a9c4d683fba5" target="_top" xlink:title="get the part numbers as a whole ">
<polygon fill="white" stroke="black" points="339.5,-98.5 339.5,-128.5 476.5,-128.5 476.5,-98.5 339.5,-98.5"/>
<text text-anchor="start" x="347.5" y="-116.5" font-family="Helvetica,sans-Serif" font-size="10.00">tomoBay.model.dataTypes.</text>
<text text-anchor="middle" x="408" y="-105.5" font-family="Helvetica,sans-Serif" font-size="10.00">PartList.getPartNumbers</text>
</a>
</g>
</g>
<!-- Node2&#45;&gt;Node4 -->
<g id="edge3" class="edge"><title>Node2&#45;&gt;Node4</title>
<path fill="none" stroke="midnightblue" d="M262.595,-113.5C284.257,-113.5 307.64,-113.5 329.15,-113.5"/>
<polygon fill="midnightblue" stroke="midnightblue" points="329.215,-117 339.215,-113.5 329.215,-110 329.215,-117"/>
</g>
<!-- Node5 -->
<g id="node5" class="node"><title>Node5</title>
<g id="a_node5"><a xlink:href="classtomoBay_1_1helpers_1_1BrandToCode.html#ab3e03f7919360bb577b970dfd18b66ff" target="_top" xlink:title="converts converts a string like &quot;citroen&quot; or &quot;fOrd&quot; to a brandcode integer specific to winstock...">
<polygon fill="white" stroke="black" points="314,-49.5 314,-79.5 502,-79.5 502,-49.5 314,-49.5"/>
<text text-anchor="start" x="322" y="-67.5" font-family="Helvetica,sans-Serif" font-size="10.00">tomoBay.helpers.BrandToCode.convert</text>
<text text-anchor="middle" x="408" y="-56.5" font-family="Helvetica,sans-Serif" font-size="10.00">ToInt</text>
</a>
</g>
</g>
<!-- Node2&#45;&gt;Node5 -->
<g id="edge4" class="edge"><title>Node2&#45;&gt;Node5</title>
<path fill="none" stroke="midnightblue" d="M262.595,-95.9483C283.931,-91.3018 306.936,-86.2918 328.176,-81.6661"/>
<polygon fill="midnightblue" stroke="midnightblue" points="329.095,-85.048 338.122,-79.5002 327.606,-78.2083 329.095,-85.048"/>
</g>
<!-- Node7 -->
<g id="node7" class="node"><title>Node7</title>
<g id="a_node7"><a xlink:href="classtomoBay_1_1model_1_1sql_1_1framework_1_1SelectQueryInvoker.html#a594282bcbcc0731a7d234482717422d7" target="_top" xlink:title="execute a requested query ">
<polygon fill="white" stroke="black" points="332,-0.5 332,-30.5 484,-30.5 484,-0.5 332,-0.5"/>
<text text-anchor="start" x="340" y="-18.5" font-family="Helvetica,sans-Serif" font-size="10.00">tomoBay.model.sql.framework.</text>
<text text-anchor="middle" x="408" y="-7.5" font-family="Helvetica,sans-Serif" font-size="10.00">SelectQueryInvoker.execute</text>
</a>
</g>
</g>
<!-- Node6&#45;&gt;Node7 -->
<g id="edge6" class="edge"><title>Node6&#45;&gt;Node7</title>
<path fill="none" stroke="midnightblue" d="M262.595,-27.6942C281.815,-26.0711 302.391,-24.3337 321.811,-22.6938"/>
<polygon fill="midnightblue" stroke="midnightblue" points="322.177,-26.1754 331.847,-21.8462 321.588,-19.2002 322.177,-26.1754"/>
</g>
<!-- Node8&#45;&gt;Node3 -->
<g id="edge10" class="edge"><title>Node8&#45;&gt;Node3</title>
<path fill="none" stroke="midnightblue" d="M275.14,-191.216C292.725,-187.387 310.96,-183.415 328.058,-179.692"/>
<polygon fill="midnightblue" stroke="midnightblue" points="328.953,-183.079 337.979,-177.531 327.463,-176.239 328.953,-183.079"/>
</g>
<!-- Node9 -->
<g id="node9" class="node"><title>Node9</title>
<g id="a_node9"><a xlink:href="classtomoBay_1_1model_1_1dataTypes_1_1heteroTypeContainer_1_1HeteroFieldContainer.html#a3ba6289417930238a36bfee0056b6398" target="_top" xlink:title="add an arbitrary value to this Field container with the stipulation that this value is of the same ty...">
<polygon fill="white" stroke="black" points="311,-294.5 311,-324.5 505,-324.5 505,-294.5 311,-294.5"/>
<text text-anchor="start" x="319" y="-312.5" font-family="Helvetica,sans-Serif" font-size="10.00">tomoBay.model.dataTypes.hetero</text>
<text text-anchor="middle" x="408" y="-301.5" font-family="Helvetica,sans-Serif" font-size="10.00">TypeContainer.HeteroFieldContainer.add</text>
</a>
</g>
</g>
<!-- Node8&#45;&gt;Node9 -->
<g id="edge8" class="edge"><title>Node8&#45;&gt;Node9</title>
<path fill="none" stroke="midnightblue" d="M212.917,-232.045C238.355,-248.187 275.82,-270.25 311,-284.5 317.22,-287.02 323.772,-289.352 330.409,-291.494"/>
<polygon fill="midnightblue" stroke="midnightblue" points="329.578,-294.901 340.166,-294.498 331.638,-288.211 329.578,-294.901"/>
</g>
<!-- Node11 -->
<g id="node11" class="node"><title>Node11</title>
<g id="a_node11"><a xlink:href="classtomoBay_1_1model_1_1services_1_1reScanErrorsService_1_1ItemSpecifics.html#a6f88f2bf3d7e595a8857570aa6076890" target="_top" xlink:title="provides the itemID associated with this ItemSpecifics object ">
<polygon fill="white" stroke="black" points="314,-245.5 314,-275.5 502,-275.5 502,-245.5 314,-245.5"/>
<text text-anchor="start" x="322" y="-263.5" font-family="Helvetica,sans-Serif" font-size="10.00">tomoBay.model.services.re</text>
<text text-anchor="middle" x="408" y="-252.5" font-family="Helvetica,sans-Serif" font-size="10.00">ScanErrorsService.ItemSpecifics.getID</text>
</a>
</g>
</g>
<!-- Node8&#45;&gt;Node11 -->
<g id="edge11" class="edge"><title>Node8&#45;&gt;Node11</title>
<path fill="none" stroke="midnightblue" d="M275.14,-231.784C292.725,-235.613 310.96,-239.585 328.058,-243.308"/>
<polygon fill="midnightblue" stroke="midnightblue" points="327.463,-246.761 337.979,-245.469 328.953,-239.921 327.463,-246.761"/>
</g>
<!-- Node12 -->
<g id="node12" class="node"><title>Node12</title>
<g id="a_node12"><a xlink:href="classtomoBay_1_1model_1_1sql_1_1framework_1_1ModifyQueryInvoker.html#ab8ef0fdf15f6720620e297c77ab25d46" target="_top" xlink:title="tomoBay.model.sql.framework.\lModifyQueryInvoker.execute">
<polygon fill="white" stroke="black" points="332,-196.5 332,-226.5 484,-226.5 484,-196.5 332,-196.5"/>
<text text-anchor="start" x="340" y="-214.5" font-family="Helvetica,sans-Serif" font-size="10.00">tomoBay.model.sql.framework.</text>
<text text-anchor="middle" x="408" y="-203.5" font-family="Helvetica,sans-Serif" font-size="10.00">ModifyQueryInvoker.execute</text>
</a>
</g>
</g>
<!-- Node8&#45;&gt;Node12 -->
<g id="edge12" class="edge"><title>Node8&#45;&gt;Node12</title>
<path fill="none" stroke="midnightblue" d="M275.14,-211.5C290.464,-211.5 306.282,-211.5 321.41,-211.5"/>
<polygon fill="midnightblue" stroke="midnightblue" points="321.758,-215 331.758,-211.5 321.758,-208 321.758,-215"/>
</g>
<!-- Node10 -->
<g id="node10" class="node"><title>Node10</title>
<g id="a_node10"><a xlink:href="classtomoBay_1_1model_1_1dataTypes_1_1heteroTypeContainer_1_1HeteroFieldContainer.html#a9dee3c01eb5ab16203e1c6820a569484" target="_top" xlink:title="performs a type check, assuming that field and type are of the same type then this method returns tru...">
<polygon fill="white" stroke="black" points="541,-289 541,-330 727,-330 727,-289 541,-289"/>
<text text-anchor="start" x="549" y="-318" font-family="Helvetica,sans-Serif" font-size="10.00">tomoBay.model.dataTypes.hetero</text>
<text text-anchor="start" x="549" y="-307" font-family="Helvetica,sans-Serif" font-size="10.00">TypeContainer.HeteroFieldContainer.is</text>
<text text-anchor="middle" x="634" y="-296" font-family="Helvetica,sans-Serif" font-size="10.00">SameType</text>
</a>
</g>
</g>
<!-- Node9&#45;&gt;Node10 -->
<g id="edge9" class="edge"><title>Node9&#45;&gt;Node10</title>
<path fill="none" stroke="midnightblue" d="M505.296,-309.5C513.642,-309.5 522.106,-309.5 530.499,-309.5"/>
<polygon fill="midnightblue" stroke="midnightblue" points="530.688,-313 540.688,-309.5 530.688,-306 530.688,-313"/>
</g>
</g>
</svg>
        <g id="navigator" transform="translate(0 0)" fill="#404254">
                <rect fill="#f2f5e9" fill-opacity="0.5" stroke="#606060" stroke-width=".5" x="0" y="0" width="60" height="60"/>
                <use id="zoomplus" xlink:href="#zoomPlus" x="17" y="9" onmousedown="handleZoom(evt,'in')"/>
                <use id="zoomminus" xlink:href="#zoomMin" x="42" y="9" onmousedown="handleZoom(evt,'out')"/>
                <use id="reset" xlink:href="#resetDef" x="30" y="36" onmousedown="handleReset()"/>
                <g id="arrowUp" xlink:href="#dirArrow" transform="translate(30 24)" onmousedown="handlePan(0,-1)">
                  <use xlink:href="#rim" fill="#404040">
                        <set attributeName="fill" to="#808080" begin="arrowUp.mouseover" end="arrowUp.mouseout"/>
                  </use>
                  <path fill="none" stroke="white" stroke-width="1.5" d="M0,-3.0v7 M-2.5,-0.5L0,-3.0L2.5,-0.5"/>
                </g>
                <g id="arrowRight" xlink:href="#dirArrow" transform="rotate(90) translate(36 -43)" onmousedown="handlePan(1,0)">
                  <use xlink:href="#rim" fill="#404040">
                        <set attributeName="fill" to="#808080" begin="arrowRight.mouseover" end="arrowRight.mouseout"/>
                  </use>
                  <path fill="none" stroke="white" stroke-width="1.5" d="M0,-3.0v7 M-2.5,-0.5L0,-3.0L2.5,-0.5"/>
                </g>
                <g id="arrowDown" xlink:href="#dirArrow" transform="rotate(180) translate(-30 -48)" onmousedown="handlePan(0,1)">
                  <use xlink:href="#rim" fill="#404040">
                        <set attributeName="fill" to="#808080" begin="arrowDown.mouseover" end="arrowDown.mouseout"/>
                  </use>
                  <path fill="none" stroke="white" stroke-width="1.5" d="M0,-3.0v7 M-2.5,-0.5L0,-3.0L2.5,-0.5"/>
                </g>
                <g id="arrowLeft" xlink:href="#dirArrow" transform="rotate(270) translate(-36 17)" onmousedown="handlePan(-1,0)">
                  <use xlink:href="#rim" fill="#404040">
                        <set attributeName="fill" to="#808080" begin="arrowLeft.mouseover" end="arrowLeft.mouseout"/>
                  </use>
                  <path fill="none" stroke="white" stroke-width="1.5" d="M0,-3.0v7 M-2.5,-0.5L0,-3.0L2.5,-0.5"/>
                </g>
        </g>
        <svg viewBox="0 0 15 15" width="100%" height="30px" preserveAspectRatio="xMaxYMin meet">
         <g id="arrow_out" transform="scale(0.3 0.3)">
          <a xlink:href="classtomoBay_1_1model_1_1services_1_1reScanErrorsService_1_1OnRunning_ae4a4f4cadce2787c7e80005639fbd5d9_cgraph_org.svg" target="_base">
           <rect id="button" ry="5" rx="5" y="6" x="6" height="38" width="38"
                fill="#f2f5e9" fill-opacity="0.5" stroke="#606060" stroke-width="1.0"/>
           <path id="arrow"
             d="M 11.500037,31.436501 C 11.940474,20.09759 22.043105,11.32322 32.158766,21.979434 L 37.068811,17.246167 C 37.068811,17.246167 37.088388,32 37.088388,32 L 22.160133,31.978069 C 22.160133,31.978069 26.997745,27.140456 26.997745,27.140456 C 18.528582,18.264221 13.291696,25.230495 11.500037,31.436501 z"
             style="fill:#404040;"/>
          </a>
         </g>
        </svg>
</svg>
