<?xml version="1.0" encoding="UTF-8" standalone="no"?>
<!DOCTYPE svg PUBLIC "-//W3C//DTD SVG 1.1//EN"
 "http://www.w3.org/Graphics/SVG/1.1/DTD/svg11.dtd">
<!-- Generated by graphviz version 2.38.0 (20140413.2041)
 -->
<!-- Title: tomoBay.model.sql.queries.concreteQueries.SelectEbayItems.execute Pages: 1 -->
<svg width="602pt" height="161pt"
 viewBox="0.00 0.00 602.00 161.00" xmlns="http://www.w3.org/2000/svg" xmlns:xlink="http://www.w3.org/1999/xlink">
<g id="graph0" class="graph" transform="scale(1 1) rotate(0) translate(4 157)">
<title>tomoBay.model.sql.queries.concreteQueries.SelectEbayItems.execute</title>
<!-- Node1 -->
<g id="node1" class="node"><title>Node1</title>
<polygon fill="#bfbfbf" stroke="black" points="0,-73.5 0,-103.5 176,-103.5 176,-73.5 0,-73.5"/>
<text text-anchor="start" x="8" y="-91.5" font-family="Helvetica,sans-Serif" font-size="10.00">tomoBay.model.sql.queries.concrete</text>
<text text-anchor="middle" x="88" y="-80.5" font-family="Helvetica,sans-Serif" font-size="10.00">Queries.SelectEbayItems.execute</text>
</g>
<!-- Node2 -->
<g id="node2" class="node"><title>Node2</title>
<g id="a_node2"><a xlink:href="classtomoBay_1_1model_1_1sql_1_1queries_1_1concreteQueries_1_1SelectEbayItems.html#a9ef3a9f9e38d99af89f57c20fd160865" target="_top" xlink:title="tomoBay.model.sql.queries.concrete\lQueries.SelectEbayItems.cleanup">
<polygon fill="none" stroke="black" points="220.5,-122.5 220.5,-152.5 396.5,-152.5 396.5,-122.5 220.5,-122.5"/>
<text text-anchor="start" x="228.5" y="-140.5" font-family="Helvetica,sans-Serif" font-size="10.00">tomoBay.model.sql.queries.concrete</text>
<text text-anchor="middle" x="308.5" y="-129.5" font-family="Helvetica,sans-Serif" font-size="10.00">Queries.SelectEbayItems.cleanup</text>
</a>
</g>
</g>
<!-- Node1&#45;&gt;Node2 -->
<g id="edge1" class="edge"><title>Node1&#45;&gt;Node2</title>
<path fill="none" stroke="midnightblue" d="M156.042,-103.535C179.637,-108.826 206.336,-114.813 230.674,-120.271"/>
<polygon fill="midnightblue" stroke="midnightblue" points="230.061,-123.721 240.585,-122.494 231.593,-116.89 230.061,-123.721"/>
</g>
<!-- Node3 -->
<g id="node3" class="node"><title>Node3</title>
<g id="a_node3"><a xlink:href="classtomoBay_1_1model_1_1sql_1_1queries_1_1concreteQueries_1_1SelectEbayItems.html#ad8865e31184434aeeb721812950e7ec0" target="_top" xlink:title="tomoBay.model.sql.queries.concrete\lQueries.SelectEbayItems.formatResults">
<polygon fill="none" stroke="black" points="212,-73.5 212,-103.5 405,-103.5 405,-73.5 212,-73.5"/>
<text text-anchor="start" x="220" y="-91.5" font-family="Helvetica,sans-Serif" font-size="10.00">tomoBay.model.sql.queries.concrete</text>
<text text-anchor="middle" x="308.5" y="-80.5" font-family="Helvetica,sans-Serif" font-size="10.00">Queries.SelectEbayItems.formatResults</text>
</a>
</g>
</g>
<!-- Node1&#45;&gt;Node3 -->
<g id="edge2" class="edge"><title>Node1&#45;&gt;Node3</title>
<path fill="none" stroke="midnightblue" d="M176.299,-88.5C184.581,-88.5 193.038,-88.5 201.47,-88.5"/>
<polygon fill="midnightblue" stroke="midnightblue" points="201.729,-92.0001 211.729,-88.5 201.729,-85.0001 201.729,-92.0001"/>
</g>
<!-- Node4 -->
<g id="node4" class="node"><title>Node4</title>
<g id="a_node4"><a xlink:href="classtomoBay_1_1model_1_1sql_1_1queries_1_1concreteQueries_1_1SelectEbayItems.html#a47f4c1c2a4384f55852a753a2312ffd2" target="_top" xlink:title="tomoBay.model.sql.queries.concrete\lQueries.SelectEbayItems.initQuery">
<polygon fill="none" stroke="black" points="220.5,-24.5 220.5,-54.5 396.5,-54.5 396.5,-24.5 220.5,-24.5"/>
<text text-anchor="start" x="228.5" y="-42.5" font-family="Helvetica,sans-Serif" font-size="10.00">tomoBay.model.sql.queries.concrete</text>
<text text-anchor="middle" x="308.5" y="-31.5" font-family="Helvetica,sans-Serif" font-size="10.00">Queries.SelectEbayItems.initQuery</text>
</a>
</g>
</g>
<!-- Node1&#45;&gt;Node4 -->
<g id="edge3" class="edge"><title>Node1&#45;&gt;Node4</title>
<path fill="none" stroke="midnightblue" d="M156.042,-73.4654C179.637,-68.1741 206.336,-62.1867 230.674,-56.7288"/>
<polygon fill="midnightblue" stroke="midnightblue" points="231.593,-60.1097 240.585,-54.5062 230.061,-53.2793 231.593,-60.1097"/>
</g>
<!-- Node5 -->
<g id="node5" class="node"><title>Node5</title>
<g id="a_node5"><a xlink:href="classtomoBay_1_1model_1_1sql_1_1ConnectionManager.html#a258fdcb8481c013b1864d6835e5dfaa2" target="_top" xlink:title="tomoBay.model.sql.Connection\lManager.instance">
<polygon fill="none" stroke="black" points="441,-49.5 441,-79.5 594,-79.5 594,-49.5 441,-49.5"/>
<text text-anchor="start" x="449" y="-67.5" font-family="Helvetica,sans-Serif" font-size="10.00">tomoBay.model.sql.Connection</text>
<text text-anchor="middle" x="517.5" y="-56.5" font-family="Helvetica,sans-Serif" font-size="10.00">Manager.instance</text>
</a>
</g>
</g>
<!-- Node4&#45;&gt;Node5 -->
<g id="edge4" class="edge"><title>Node4&#45;&gt;Node5</title>
<path fill="none" stroke="midnightblue" d="M396.687,-50.0298C407.938,-51.3886 419.453,-52.7793 430.682,-54.1355"/>
<polygon fill="midnightblue" stroke="midnightblue" points="430.55,-57.6449 440.898,-55.3693 431.389,-50.6954 430.55,-57.6449"/>
</g>
<!-- Node6 -->
<g id="node6" class="node"><title>Node6</title>
<g id="a_node6"><a xlink:href="classtomoBay_1_1model_1_1sql_1_1ConnectionManager.html#ae409bc78f5d56de5a3da5dc34b992912" target="_top" xlink:title="tomoBay.model.sql.Connection\lManager.getConnection">
<polygon fill="none" stroke="black" points="441,-0.5 441,-30.5 594,-30.5 594,-0.5 441,-0.5"/>
<text text-anchor="start" x="449" y="-18.5" font-family="Helvetica,sans-Serif" font-size="10.00">tomoBay.model.sql.Connection</text>
<text text-anchor="middle" x="517.5" y="-7.5" font-family="Helvetica,sans-Serif" font-size="10.00">Manager.getConnection</text>
</a>
</g>
</g>
<!-- Node4&#45;&gt;Node6 -->
<g id="edge5" class="edge"><title>Node4&#45;&gt;Node6</title>
<path fill="none" stroke="midnightblue" d="M396.687,-29.3914C407.938,-28.0869 419.453,-26.7518 430.682,-25.45"/>
<polygon fill="midnightblue" stroke="midnightblue" points="431.367,-28.894 440.898,-24.2655 430.561,-21.9406 431.367,-28.894"/>
</g>
</g>
</svg>
