<?xml version="1.0" encoding="UTF-8" standalone="no"?>
<!DOCTYPE svg PUBLIC "-//W3C//DTD SVG 1.1//EN"
 "http://www.w3.org/Graphics/SVG/1.1/DTD/svg11.dtd">
<!-- Generated by graphviz version 2.38.0 (20140413.2041)
 -->
<!-- Title: tomoBay.model.sql.queries.concreteQueries.InsertFordStockReq.initQuery Pages: 1 -->
<svg width="380pt" height="88pt"
 viewBox="0.00 0.00 380.00 88.00" xmlns="http://www.w3.org/2000/svg" xmlns:xlink="http://www.w3.org/1999/xlink">
<g id="graph0" class="graph" transform="scale(1 1) rotate(0) translate(4 84)">
<title>tomoBay.model.sql.queries.concreteQueries.InsertFordStockReq.initQuery</title>
<!-- Node1 -->
<g id="node1" class="node"><title>Node1</title>
<polygon fill="#bfbfbf" stroke="black" points="0,-24.5 0,-54.5 183,-54.5 183,-24.5 0,-24.5"/>
<text text-anchor="start" x="8" y="-42.5" font-family="Helvetica,sans-Serif" font-size="10.00">tomoBay.model.sql.queries.concrete</text>
<text text-anchor="middle" x="91.5" y="-31.5" font-family="Helvetica,sans-Serif" font-size="10.00">Queries.InsertFordStockReq.initQuery</text>
</g>
<!-- Node2 -->
<g id="node2" class="node"><title>Node2</title>
<g id="a_node2"><a xlink:href="classtomoBay_1_1model_1_1sql_1_1ConnectionManager.html#ae409bc78f5d56de5a3da5dc34b992912" target="_top" xlink:title="tomoBay.model.sql.Connection\lManager.getConnection">
<polygon fill="none" stroke="black" points="219,-49.5 219,-79.5 372,-79.5 372,-49.5 219,-49.5"/>
<text text-anchor="start" x="227" y="-67.5" font-family="Helvetica,sans-Serif" font-size="10.00">tomoBay.model.sql.Connection</text>
<text text-anchor="middle" x="295.5" y="-56.5" font-family="Helvetica,sans-Serif" font-size="10.00">Manager.getConnection</text>
</a>
</g>
</g>
<!-- Node1&#45;&gt;Node2 -->
<g id="edge1" class="edge"><title>Node1&#45;&gt;Node2</title>
<path fill="none" stroke="midnightblue" d="M183.16,-50.7203C191.754,-51.7839 200.448,-52.8599 208.992,-53.9173"/>
<polygon fill="midnightblue" stroke="midnightblue" points="208.582,-57.3932 218.936,-55.148 209.442,-50.4462 208.582,-57.3932"/>
</g>
<!-- Node3 -->
<g id="node3" class="node"><title>Node3</title>
<g id="a_node3"><a xlink:href="classtomoBay_1_1model_1_1sql_1_1ConnectionManager.html#a258fdcb8481c013b1864d6835e5dfaa2" target="_top" xlink:title="tomoBay.model.sql.Connection\lManager.instance">
<polygon fill="none" stroke="black" points="219,-0.5 219,-30.5 372,-30.5 372,-0.5 219,-0.5"/>
<text text-anchor="start" x="227" y="-18.5" font-family="Helvetica,sans-Serif" font-size="10.00">tomoBay.model.sql.Connection</text>
<text text-anchor="middle" x="295.5" y="-7.5" font-family="Helvetica,sans-Serif" font-size="10.00">Manager.instance</text>
</a>
</g>
</g>
<!-- Node1&#45;&gt;Node3 -->
<g id="edge2" class="edge"><title>Node1&#45;&gt;Node3</title>
<path fill="none" stroke="midnightblue" d="M183.16,-28.7286C191.754,-27.7075 200.448,-26.6745 208.992,-25.6594"/>
<polygon fill="midnightblue" stroke="midnightblue" points="209.419,-29.1334 218.936,-24.4779 208.593,-22.1823 209.419,-29.1334"/>
</g>
</g>
</svg>
