<?xml version="1.0" encoding="UTF-8" standalone="no"?>
<!DOCTYPE svg PUBLIC "-//W3C//DTD SVG 1.1//EN"
 "http://www.w3.org/Graphics/SVG/1.1/DTD/svg11.dtd">
<!-- Generated by graphviz version 2.38.0 (20140413.2041)
 -->
<!-- Title: TransactionsTable Pages: 1 -->
<!--zoomable 299 -->
<svg id="main" version="1.1" xmlns="http://www.w3.org/2000/svg" xmlns:xlink="http://www.w3.org/1999/xlink" xml:space="preserve" onload="init(evt)">
<style type="text/css"><![CDATA[
.edge:hover path { stroke: red; }
.edge:hover polygon { stroke: red; fill: red; }
]]></style>
<script type="text/javascript"><![CDATA[
var edges = document.getElementsByTagName('g');
if (edges && edges.length) {
  for (var i=0;i<edges.length;i++) {
    if (edges[i].id.substr(0,4)=='edge') {
      edges[i].setAttribute('class','edge');
    }
  }
}
]]></script>
        <defs>
                <circle id="rim" cx="0" cy="0" r="7"/>
                <circle id="rim2" cx="0" cy="0" r="3.5"/>
                <g id="zoomPlus">
                        <use xlink:href="#rim" fill="#404040">
                                <set attributeName="fill" to="#808080" begin="zoomplus.mouseover" end="zoomplus.mouseout"/>
                        </use>
                        <path d="M-4,0h8M0,-4v8" fill="none" stroke="white" stroke-width="1.5" pointer-events="none"/>
                </g>
                <g id="zoomMin">
                        <use xlink:href="#rim" fill="#404040">
                                <set attributeName="fill" to="#808080" begin="zoomminus.mouseover" end="zoomminus.mouseout"/>
                        </use>
                        <path d="M-4,0h8" fill="none" stroke="white" stroke-width="1.5" pointer-events="none"/>
                </g>
                <g id="dirArrow">
                        <path fill="none" stroke="white" stroke-width="1.5" d="M0,-3.0v7 M-2.5,-0.5L0,-3.0L2.5,-0.5"/>
                </g>
               <g id="resetDef">
                       <use xlink:href="#rim2" fill="#404040">
                               <set attributeName="fill" to="#808080" begin="reset.mouseover" end="reset.mouseout"/>
                       </use>
               </g>
        </defs>

<script type="text/javascript">
var viewWidth = 596;
var viewHeight = 299;
var sectionId = 'dynsection-1';
</script>
<script xlink:href="svgpan.js"/>
<svg id="graph" class="graph">
<g id="viewport">
<title>TransactionsTable</title>
<polygon fill="white" stroke="none" points="-4,4 -4,-295 591.5,-295 591.5,4 -4,4"/>
<!-- Node1 -->
<g id="node1" class="node"><title>Node1</title>
<polygon fill="#bfbfbf" stroke="black" points="252,-0.5 252,-57.5 361,-57.5 361,-0.5 252,-0.5"/>
<text text-anchor="middle" x="306.5" y="-45.5" font-family="Helvetica,sans-Serif" font-size="10.00">TransactionsTable</text>
<polyline fill="none" stroke="black" points="252,-38.5 361,-38.5 "/>
<text text-anchor="middle" x="306.5" y="-26.5" font-family="Helvetica,sans-Serif" font-size="10.00"> </text>
<polyline fill="none" stroke="black" points="252,-19.5 361,-19.5 "/>
<text text-anchor="start" x="260" y="-7.5" font-family="Helvetica,sans-Serif" font-size="10.00">&#45; TransactionsTable()</text>
</g>
<!-- Node2 -->
<g id="node2" class="node"><title>Node2</title>
<g id="a_node2"><a xlink:href="interfacetomoBay_1_1model_1_1dataTypes_1_1heteroTypeContainer_1_1AbstractTypeSchema.html" target="_top" xlink:title="Derived types of this class represent the schema for a specific database and should only contain publ...">
<polygon fill="white" stroke="black" points="0,-116.5 0,-173.5 111,-173.5 111,-116.5 0,-116.5"/>
<text text-anchor="middle" x="55.5" y="-161.5" font-family="Helvetica,sans-Serif" font-size="10.00">AbstractTypeSchema</text>
<polyline fill="none" stroke="black" points="0,-154.5 111,-154.5 "/>
<text text-anchor="middle" x="55.5" y="-142.5" font-family="Helvetica,sans-Serif" font-size="10.00"> </text>
<polyline fill="none" stroke="black" points="0,-135.5 111,-135.5 "/>
<text text-anchor="middle" x="55.5" y="-123.5" font-family="Helvetica,sans-Serif" font-size="10.00"> </text>
</a>
</g>
</g>
<!-- Node2&#45;&gt;Node1 -->
<g id="edge1" class="edge"><title>Node2&#45;&gt;Node1</title>
<path fill="none" stroke="midnightblue" d="M88.339,-109.407C101.397,-97.3427 117.188,-84.668 133.5,-76 170.55,-56.312 216.633,-44.5965 251.92,-37.9201"/>
<polygon fill="none" stroke="midnightblue" points="85.8159,-106.977 80.9834,-116.405 90.6409,-112.048 85.8159,-106.977"/>
</g>
<!-- Node3 -->
<g id="node3" class="node"><title>Node3</title>
<g id="a_node3"><a xlink:href="classtomoBay_1_1model_1_1sql_1_1schema_1_1transactionsTable_1_1ShippingCost.html" target="_top" xlink:title="This class represents the shippingCost field of the ebay_transactions table in the database...">
<polygon fill="white" stroke="black" points="227.5,-105.5 227.5,-184.5 317.5,-184.5 317.5,-105.5 227.5,-105.5"/>
<text text-anchor="middle" x="272.5" y="-172.5" font-family="Helvetica,sans-Serif" font-size="10.00">ShippingCost</text>
<polyline fill="none" stroke="black" points="227.5,-165.5 317.5,-165.5 "/>
<text text-anchor="start" x="235.5" y="-153.5" font-family="Helvetica,sans-Serif" font-size="10.00">&#45; size_M</text>
<polyline fill="none" stroke="black" points="227.5,-146.5 317.5,-146.5 "/>
<text text-anchor="start" x="235.5" y="-134.5" font-family="Helvetica,sans-Serif" font-size="10.00">+ ShippingCost()</text>
<text text-anchor="start" x="235.5" y="-123.5" font-family="Helvetica,sans-Serif" font-size="10.00">+ type()</text>
<text text-anchor="start" x="235.5" y="-112.5" font-family="Helvetica,sans-Serif" font-size="10.00">+ size()</text>
</a>
</g>
</g>
<!-- Node3&#45;&gt;Node1 -->
<g id="edge2" class="edge"><title>Node3&#45;&gt;Node1</title>
<path fill="none" stroke="#404040" d="M249.799,-105.21C246.846,-95.4813 246.152,-85.1987 250.5,-76 252.012,-72.8008 253.868,-69.7493 255.974,-66.8517"/>
<polygon fill="none" stroke="#404040" points="256.118,-66.685 257.011,-59.5295 263.96,-57.6019 263.067,-64.7575 256.118,-66.685"/>
<text text-anchor="middle" x="296" y="-79" font-family="Helvetica,sans-Serif" font-size="10.00"> +SHIPPING_COST</text>
</g>
<!-- Node4 -->
<g id="node4" class="node"><title>Node4</title>
<g id="a_node4"><a xlink:href="interfacetomoBay_1_1model_1_1dataTypes_1_1heteroTypeContainer_1_1AbstractField.html" target="_top" xlink:title="This interface is the abstract base for all derived AbstractDBField types, and represents a a column ...">
<polygon fill="white" stroke="black" points="325.5,-222.5 325.5,-290.5 399.5,-290.5 399.5,-222.5 325.5,-222.5"/>
<text text-anchor="middle" x="362.5" y="-278.5" font-family="Helvetica,sans-Serif" font-size="10.00">AbstractField</text>
<polyline fill="none" stroke="black" points="325.5,-271.5 399.5,-271.5 "/>
<text text-anchor="middle" x="362.5" y="-259.5" font-family="Helvetica,sans-Serif" font-size="10.00"> </text>
<polyline fill="none" stroke="black" points="325.5,-252.5 399.5,-252.5 "/>
<text text-anchor="start" x="333.5" y="-240.5" font-family="Helvetica,sans-Serif" font-size="10.00">+ type()</text>
<text text-anchor="start" x="333.5" y="-229.5" font-family="Helvetica,sans-Serif" font-size="10.00">+ size()</text>
</a>
</g>
</g>
<!-- Node4&#45;&gt;Node1 -->
<g id="edge4" class="edge"><title>Node4&#45;&gt;Node1</title>
<path fill="none" stroke="#404040" d="M325.233,-254.956C277.105,-252.001 194.964,-238.818 156.5,-185 135.826,-156.073 137.807,-135.245 156.5,-105 174.891,-75.2422 209.061,-56.8965 240.147,-45.8056"/>
<polygon fill="none" stroke="#404040" points="240.485,-45.693 244.914,-40.0021 251.87,-41.9015 247.442,-47.5923 240.485,-45.693"/>
<text text-anchor="middle" x="187.5" y="-148" font-family="Helvetica,sans-Serif" font-size="10.00"> +ORDER_ID</text>
<text text-anchor="middle" x="187.5" y="-137" font-family="Helvetica,sans-Serif" font-size="10.00">+ITEM_ID</text>
</g>
<!-- Node4&#45;&gt;Node3 -->
<g id="edge3" class="edge"><title>Node4&#45;&gt;Node3</title>
<path fill="none" stroke="midnightblue" d="M328.704,-214.382C320.74,-204.692 312.276,-194.394 304.399,-184.81"/>
<polygon fill="none" stroke="midnightblue" points="326.199,-216.846 335.253,-222.349 331.607,-212.401 326.199,-216.846"/>
</g>
<!-- Node5 -->
<g id="node5" class="node"><title>Node5</title>
<g id="a_node5"><a xlink:href="classtomoBay_1_1model_1_1sql_1_1schema_1_1transactionsTable_1_1Price.html" target="_top" xlink:title="This class represents the price field in the ebay_transactions table of the database. ">
<polygon fill="white" stroke="black" points="335.5,-105.5 335.5,-184.5 389.5,-184.5 389.5,-105.5 335.5,-105.5"/>
<text text-anchor="middle" x="362.5" y="-172.5" font-family="Helvetica,sans-Serif" font-size="10.00">Price</text>
<polyline fill="none" stroke="black" points="335.5,-165.5 389.5,-165.5 "/>
<text text-anchor="start" x="343.5" y="-153.5" font-family="Helvetica,sans-Serif" font-size="10.00">&#45; size_M</text>
<polyline fill="none" stroke="black" points="335.5,-146.5 389.5,-146.5 "/>
<text text-anchor="start" x="343.5" y="-134.5" font-family="Helvetica,sans-Serif" font-size="10.00">+ Price()</text>
<text text-anchor="start" x="343.5" y="-123.5" font-family="Helvetica,sans-Serif" font-size="10.00">+ type()</text>
<text text-anchor="start" x="343.5" y="-112.5" font-family="Helvetica,sans-Serif" font-size="10.00">+ size()</text>
</a>
</g>
</g>
<!-- Node4&#45;&gt;Node5 -->
<g id="edge6" class="edge"><title>Node4&#45;&gt;Node5</title>
<path fill="none" stroke="midnightblue" d="M362.5,-212.339C362.5,-203.254 362.5,-193.724 362.5,-184.81"/>
<polygon fill="none" stroke="midnightblue" points="359,-212.349 362.5,-222.349 366,-212.349 359,-212.349"/>
</g>
<!-- Node6 -->
<g id="node6" class="node"><title>Node6</title>
<g id="a_node6"><a xlink:href="classtomoBay_1_1model_1_1sql_1_1schema_1_1transactionsTable_1_1TransactionID.html" target="_top" xlink:title="This class represents the transactionID field of the ebay_transactions table in the database...">
<polygon fill="white" stroke="black" points="408,-105.5 408,-184.5 501,-184.5 501,-105.5 408,-105.5"/>
<text text-anchor="middle" x="454.5" y="-172.5" font-family="Helvetica,sans-Serif" font-size="10.00">TransactionID</text>
<polyline fill="none" stroke="black" points="408,-165.5 501,-165.5 "/>
<text text-anchor="start" x="416" y="-153.5" font-family="Helvetica,sans-Serif" font-size="10.00">&#45; size_M</text>
<polyline fill="none" stroke="black" points="408,-146.5 501,-146.5 "/>
<text text-anchor="start" x="416" y="-134.5" font-family="Helvetica,sans-Serif" font-size="10.00">+ TransactionID()</text>
<text text-anchor="start" x="416" y="-123.5" font-family="Helvetica,sans-Serif" font-size="10.00">+ type()</text>
<text text-anchor="start" x="416" y="-112.5" font-family="Helvetica,sans-Serif" font-size="10.00">+ size()</text>
</a>
</g>
</g>
<!-- Node4&#45;&gt;Node6 -->
<g id="edge8" class="edge"><title>Node4&#45;&gt;Node6</title>
<path fill="none" stroke="midnightblue" d="M396.803,-214.673C405.015,-204.898 413.759,-194.49 421.892,-184.81"/>
<polygon fill="none" stroke="midnightblue" points="394.106,-212.441 390.353,-222.349 399.465,-216.944 394.106,-212.441"/>
</g>
<!-- Node7 -->
<g id="node7" class="node"><title>Node7</title>
<g id="a_node7"><a xlink:href="classtomoBay_1_1model_1_1sql_1_1schema_1_1transactionsTable_1_1Quantity.html" target="_top" xlink:title="This class represents the quantity field of the ebay_transactions table in the database. ">
<polygon fill="white" stroke="black" points="519.5,-105.5 519.5,-184.5 587.5,-184.5 587.5,-105.5 519.5,-105.5"/>
<text text-anchor="middle" x="553.5" y="-172.5" font-family="Helvetica,sans-Serif" font-size="10.00">Quantity</text>
<polyline fill="none" stroke="black" points="519.5,-165.5 587.5,-165.5 "/>
<text text-anchor="start" x="527.5" y="-153.5" font-family="Helvetica,sans-Serif" font-size="10.00">&#45; size_M</text>
<polyline fill="none" stroke="black" points="519.5,-146.5 587.5,-146.5 "/>
<text text-anchor="start" x="527.5" y="-134.5" font-family="Helvetica,sans-Serif" font-size="10.00">+ Quantity()</text>
<text text-anchor="start" x="527.5" y="-123.5" font-family="Helvetica,sans-Serif" font-size="10.00">+ type()</text>
<text text-anchor="start" x="527.5" y="-112.5" font-family="Helvetica,sans-Serif" font-size="10.00">+ size()</text>
</a>
</g>
</g>
<!-- Node4&#45;&gt;Node7 -->
<g id="edge10" class="edge"><title>Node4&#45;&gt;Node7</title>
<path fill="none" stroke="midnightblue" d="M409.009,-237.15C438.85,-224.437 477.799,-206.052 509.5,-185 512.816,-182.798 516.143,-180.361 519.401,-177.813"/>
<polygon fill="none" stroke="midnightblue" points="407.527,-233.976 399.662,-241.074 410.237,-240.43 407.527,-233.976"/>
</g>
<!-- Node5&#45;&gt;Node1 -->
<g id="edge5" class="edge"><title>Node5&#45;&gt;Node1</title>
<path fill="none" stroke="#404040" d="M353.116,-105.304C350.046,-95.4743 346.19,-85.12 341.5,-76 340.095,-73.267 338.525,-70.5296 336.849,-67.8279"/>
<polygon fill="none" stroke="#404040" points="336.706,-67.6162 330.034,-64.8808 329.993,-57.6698 336.665,-60.4052 336.706,-67.6162"/>
<text text-anchor="middle" x="367" y="-79" font-family="Helvetica,sans-Serif" font-size="10.00"> +PRICE</text>
</g>
<!-- Node6&#45;&gt;Node1 -->
<g id="edge7" class="edge"><title>Node6&#45;&gt;Node1</title>
<path fill="none" stroke="#404040" d="M422.846,-105.443C413.382,-95.1847 402.563,-84.5822 391.5,-76 385.41,-71.2753 378.768,-66.7651 371.969,-62.5445"/>
<polygon fill="none" stroke="#404040" points="371.532,-62.2852 364.331,-62.6631 361.213,-56.1612 368.414,-55.7833 371.532,-62.2852"/>
<text text-anchor="middle" x="452.5" y="-79" font-family="Helvetica,sans-Serif" font-size="10.00"> +TRANSACTION_ID</text>
</g>
<!-- Node7&#45;&gt;Node1 -->
<g id="edge9" class="edge"><title>Node7&#45;&gt;Node1</title>
<path fill="none" stroke="#404040" d="M533.228,-105.163C525.837,-94.2823 516.535,-83.4147 505.5,-76 466.474,-49.7763 414.487,-38.3772 373.436,-33.481"/>
<polygon fill="none" stroke="#404040" points="373.28,-33.4644 366.889,-36.803 361.349,-32.1871 367.74,-28.8485 373.28,-33.4644"/>
<text text-anchor="middle" x="549" y="-79" font-family="Helvetica,sans-Serif" font-size="10.00"> +QUANTITY</text>
</g>
</g>
</svg>
        <g id="navigator" transform="translate(0 0)" fill="#404254">
                <rect fill="#f2f5e9" fill-opacity="0.5" stroke="#606060" stroke-width=".5" x="0" y="0" width="60" height="60"/>
                <use id="zoomplus" xlink:href="#zoomPlus" x="17" y="9" onmousedown="handleZoom(evt,'in')"/>
                <use id="zoomminus" xlink:href="#zoomMin" x="42" y="9" onmousedown="handleZoom(evt,'out')"/>
                <use id="reset" xlink:href="#resetDef" x="30" y="36" onmousedown="handleReset()"/>
                <g id="arrowUp" xlink:href="#dirArrow" transform="translate(30 24)" onmousedown="handlePan(0,-1)">
                  <use xlink:href="#rim" fill="#404040">
                        <set attributeName="fill" to="#808080" begin="arrowUp.mouseover" end="arrowUp.mouseout"/>
                  </use>
                  <path fill="none" stroke="white" stroke-width="1.5" d="M0,-3.0v7 M-2.5,-0.5L0,-3.0L2.5,-0.5"/>
                </g>
                <g id="arrowRight" xlink:href="#dirArrow" transform="rotate(90) translate(36 -43)" onmousedown="handlePan(1,0)">
                  <use xlink:href="#rim" fill="#404040">
                        <set attributeName="fill" to="#808080" begin="arrowRight.mouseover" end="arrowRight.mouseout"/>
                  </use>
                  <path fill="none" stroke="white" stroke-width="1.5" d="M0,-3.0v7 M-2.5,-0.5L0,-3.0L2.5,-0.5"/>
                </g>
                <g id="arrowDown" xlink:href="#dirArrow" transform="rotate(180) translate(-30 -48)" onmousedown="handlePan(0,1)">
                  <use xlink:href="#rim" fill="#404040">
                        <set attributeName="fill" to="#808080" begin="arrowDown.mouseover" end="arrowDown.mouseout"/>
                  </use>
                  <path fill="none" stroke="white" stroke-width="1.5" d="M0,-3.0v7 M-2.5,-0.5L0,-3.0L2.5,-0.5"/>
                </g>
                <g id="arrowLeft" xlink:href="#dirArrow" transform="rotate(270) translate(-36 17)" onmousedown="handlePan(-1,0)">
                  <use xlink:href="#rim" fill="#404040">
                        <set attributeName="fill" to="#808080" begin="arrowLeft.mouseover" end="arrowLeft.mouseout"/>
                  </use>
                  <path fill="none" stroke="white" stroke-width="1.5" d="M0,-3.0v7 M-2.5,-0.5L0,-3.0L2.5,-0.5"/>
                </g>
        </g>
        <svg viewBox="0 0 15 15" width="100%" height="30px" preserveAspectRatio="xMaxYMin meet">
         <g id="arrow_out" transform="scale(0.3 0.3)">
          <a xlink:href="classtomoBay_1_1model_1_1sql_1_1schema_1_1transactionsTable_1_1TransactionsTable__coll__graph_org.svg" target="_base">
           <rect id="button" ry="5" rx="5" y="6" x="6" height="38" width="38"
                fill="#f2f5e9" fill-opacity="0.5" stroke="#606060" stroke-width="1.0"/>
           <path id="arrow"
             d="M 11.500037,31.436501 C 11.940474,20.09759 22.043105,11.32322 32.158766,21.979434 L 37.068811,17.246167 C 37.068811,17.246167 37.088388,32 37.088388,32 L 22.160133,31.978069 C 22.160133,31.978069 26.997745,27.140456 26.997745,27.140456 C 18.528582,18.264221 13.291696,25.230495 11.500037,31.436501 z"
             style="fill:#404040;"/>
          </a>
         </g>
        </svg>
</svg>
