<?xml version="1.0" encoding="UTF-8" standalone="no"?>
<!DOCTYPE svg PUBLIC "-//W3C//DTD SVG 1.1//EN"
 "http://www.w3.org/Graphics/SVG/1.1/DTD/svg11.dtd">
<!-- Generated by graphviz version 2.38.0 (20140413.2041)
 -->
<!-- Title: tomoBay.model.services.ServiceScheduler Pages: 1 -->
<svg width="318pt" height="204pt"
 viewBox="0.00 0.00 318.00 204.00" xmlns="http://www.w3.org/2000/svg" xmlns:xlink="http://www.w3.org/1999/xlink">
<g id="graph0" class="graph" transform="scale(1 1) rotate(0) translate(4 200)">
<title>tomoBay.model.services.ServiceScheduler</title>
<!-- Node1 -->
<g id="node1" class="node"><title>Node1</title>
<polygon fill="#bfbfbf" stroke="black" points="72,-0.5 72,-90.5 233,-90.5 233,-0.5 72,-0.5"/>
<text text-anchor="start" x="80" y="-78.5" font-family="Helvetica,sans-Serif" font-size="10.00">tomoBay.model.services.Service</text>
<text text-anchor="middle" x="152.5" y="-67.5" font-family="Helvetica,sans-Serif" font-size="10.00">Scheduler</text>
<polyline fill="none" stroke="black" points="72,-60.5 233,-60.5 "/>
<text text-anchor="middle" x="152.5" y="-48.5" font-family="Helvetica,sans-Serif" font-size="10.00"> </text>
<polyline fill="none" stroke="black" points="72,-41.5 233,-41.5 "/>
<text text-anchor="start" x="80" y="-29.5" font-family="Helvetica,sans-Serif" font-size="10.00">+ ServiceScheduler()</text>
<text text-anchor="start" x="80" y="-18.5" font-family="Helvetica,sans-Serif" font-size="10.00">+ add()</text>
<text text-anchor="start" x="80" y="-7.5" font-family="Helvetica,sans-Serif" font-size="10.00">+ start()</text>
</g>
<!-- Node2 -->
<g id="node2" class="node"><title>Node2</title>
<polygon fill="none" stroke="#bfbfbf" points="0,-138.5 0,-195.5 141,-195.5 141,-138.5 0,-138.5"/>
<text text-anchor="middle" x="70.5" y="-183.5" font-family="Helvetica,sans-Serif" font-size="10.00">List&lt; ScheduledFuture&lt;?&gt; &gt;</text>
<polyline fill="none" stroke="#bfbfbf" points="0,-176.5 141,-176.5 "/>
<text text-anchor="middle" x="70.5" y="-164.5" font-family="Helvetica,sans-Serif" font-size="10.00"> </text>
<polyline fill="none" stroke="#bfbfbf" points="0,-157.5 141,-157.5 "/>
<text text-anchor="middle" x="70.5" y="-145.5" font-family="Helvetica,sans-Serif" font-size="10.00"> </text>
</g>
<!-- Node2&#45;&gt;Node1 -->
<g id="edge1" class="edge"><title>Node2&#45;&gt;Node1</title>
<path fill="none" stroke="#404040" d="M89.5186,-138.284C97.1343,-127.185 106.187,-113.993 115.019,-101.121"/>
<polygon fill="none" stroke="#404040" points="115.235,-100.807 115.332,-93.5965 122.025,-90.9125 121.928,-98.1229 115.235,-100.807"/>
<text text-anchor="middle" x="138" y="-112" font-family="Helvetica,sans-Serif" font-size="10.00"> &#45;services_M</text>
</g>
<!-- Node3 -->
<g id="node3" class="node"><title>Node3</title>
<polygon fill="none" stroke="#bfbfbf" points="159,-138.5 159,-195.5 310,-195.5 310,-138.5 159,-138.5"/>
<text text-anchor="middle" x="234.5" y="-183.5" font-family="Helvetica,sans-Serif" font-size="10.00">ScheduledThreadPoolExecutor</text>
<polyline fill="none" stroke="#bfbfbf" points="159,-176.5 310,-176.5 "/>
<text text-anchor="middle" x="234.5" y="-164.5" font-family="Helvetica,sans-Serif" font-size="10.00"> </text>
<polyline fill="none" stroke="#bfbfbf" points="159,-157.5 310,-157.5 "/>
<text text-anchor="middle" x="234.5" y="-145.5" font-family="Helvetica,sans-Serif" font-size="10.00"> </text>
</g>
<!-- Node3&#45;&gt;Node1 -->
<g id="edge2" class="edge"><title>Node3&#45;&gt;Node1</title>
<path fill="none" stroke="#404040" d="M215.481,-138.284C207.866,-127.185 198.813,-113.993 189.981,-101.121"/>
<polygon fill="none" stroke="#404040" points="189.765,-100.807 183.072,-98.1229 182.975,-90.9125 189.668,-93.5965 189.765,-100.807"/>
<text text-anchor="middle" x="248" y="-112" font-family="Helvetica,sans-Serif" font-size="10.00"> &#45;serviceScheduler_M</text>
</g>
</g>
</svg>
