<?xml version="1.0" encoding="UTF-8" standalone="no"?>
<!DOCTYPE svg PUBLIC "-//W3C//DTD SVG 1.1//EN"
 "http://www.w3.org/Graphics/SVG/1.1/DTD/svg11.dtd">
<!-- Generated by graphviz version 2.38.0 (20140413.2041)
 -->
<!-- Title: tomoBay.model.services.stockUpdate.StockRequiredQueryFactory Pages: 1 -->
<svg width="454pt" height="237pt"
 viewBox="0.00 0.00 454.50 237.00" xmlns="http://www.w3.org/2000/svg" xmlns:xlink="http://www.w3.org/1999/xlink">
<g id="graph0" class="graph" transform="scale(1 1) rotate(0) translate(4 233)">
<title>tomoBay.model.services.stockUpdate.StockRequiredQueryFactory</title>
<!-- Node1 -->
<g id="node1" class="node"><title>Node1</title>
<polygon fill="#bfbfbf" stroke="black" points="117.5,-0.5 117.5,-79.5 292.5,-79.5 292.5,-0.5 117.5,-0.5"/>
<text text-anchor="start" x="125.5" y="-67.5" font-family="Helvetica,sans-Serif" font-size="10.00">tomoBay.model.services.stock</text>
<text text-anchor="middle" x="205" y="-56.5" font-family="Helvetica,sans-Serif" font-size="10.00">Update.StockRequiredQueryFactory</text>
<polyline fill="none" stroke="black" points="117.5,-49.5 292.5,-49.5 "/>
<text text-anchor="middle" x="205" y="-37.5" font-family="Helvetica,sans-Serif" font-size="10.00"> </text>
<polyline fill="none" stroke="black" points="117.5,-30.5 292.5,-30.5 "/>
<text text-anchor="start" x="125.5" y="-18.5" font-family="Helvetica,sans-Serif" font-size="10.00">+ setBrand()</text>
<text text-anchor="start" x="125.5" y="-7.5" font-family="Helvetica,sans-Serif" font-size="10.00">+ make()</text>
</g>
<!-- Node2 -->
<g id="node2" class="node"><title>Node2</title>
<g id="a_node2"><a xlink:href="enumtomoBay_1_1model_1_1services_1_1stockUpdate_1_1StockRequiredQueryFactory_1_1BrandCode.html" target="_top" xlink:title="{tomoBay.model.services.stock\lUpdate.StockRequiredQueryFactory.\lBrandCode\n|+ C\l+ F\l+ P\l|}">
<polygon fill="none" stroke="black" points="0,-127.5 0,-228.5 178,-228.5 178,-127.5 0,-127.5"/>
<text text-anchor="start" x="8" y="-216.5" font-family="Helvetica,sans-Serif" font-size="10.00">tomoBay.model.services.stock</text>
<text text-anchor="start" x="8" y="-205.5" font-family="Helvetica,sans-Serif" font-size="10.00">Update.StockRequiredQueryFactory.</text>
<text text-anchor="middle" x="89" y="-194.5" font-family="Helvetica,sans-Serif" font-size="10.00">BrandCode</text>
<polyline fill="none" stroke="black" points="0,-187.5 178,-187.5 "/>
<text text-anchor="start" x="8" y="-175.5" font-family="Helvetica,sans-Serif" font-size="10.00">+ C</text>
<text text-anchor="start" x="8" y="-164.5" font-family="Helvetica,sans-Serif" font-size="10.00">+ F</text>
<text text-anchor="start" x="8" y="-153.5" font-family="Helvetica,sans-Serif" font-size="10.00">+ P</text>
<polyline fill="none" stroke="black" points="0,-146.5 178,-146.5 "/>
<text text-anchor="middle" x="89" y="-134.5" font-family="Helvetica,sans-Serif" font-size="10.00"> </text>
</a>
</g>
</g>
<!-- Node2&#45;&gt;Node1 -->
<g id="edge1" class="edge"><title>Node2&#45;&gt;Node1</title>
<path fill="none" stroke="#404040" d="M131.535,-127.131C142.15,-114.686 153.51,-101.368 164.046,-89.0149"/>
<polygon fill="none" stroke="#404040" points="164.129,-88.9173 164.98,-81.7565 171.917,-79.7873 171.066,-86.9481 164.129,-88.9173"/>
<text text-anchor="middle" x="185" y="-101" font-family="Helvetica,sans-Serif" font-size="10.00"> &#45;currentBrand</text>
</g>
<!-- Node3 -->
<g id="node3" class="node"><title>Node3</title>
<polygon fill="none" stroke="#bfbfbf" points="195.5,-133 195.5,-223 446.5,-223 446.5,-133 195.5,-133"/>
<text text-anchor="start" x="203.5" y="-211" font-family="Helvetica,sans-Serif" font-size="10.00">Map&lt; tomoBay.model.services.stock</text>
<text text-anchor="start" x="203.5" y="-200" font-family="Helvetica,sans-Serif" font-size="10.00">Update.StockRequiredQueryFactory.Brand</text>
<text text-anchor="start" x="203.5" y="-189" font-family="Helvetica,sans-Serif" font-size="10.00">Code, tomoBay.model.sql.queries.QueryInvoker.tomo</text>
<text text-anchor="middle" x="321" y="-178" font-family="Helvetica,sans-Serif" font-size="10.00">Bay.model.sql.queries.QueryInvoker.QueryType[]&gt;</text>
<polyline fill="none" stroke="#bfbfbf" points="195.5,-171 446.5,-171 "/>
<text text-anchor="middle" x="321" y="-159" font-family="Helvetica,sans-Serif" font-size="10.00"> </text>
<polyline fill="none" stroke="#bfbfbf" points="195.5,-152 446.5,-152 "/>
<text text-anchor="middle" x="321" y="-140" font-family="Helvetica,sans-Serif" font-size="10.00"> </text>
</g>
<!-- Node3&#45;&gt;Node1 -->
<g id="edge2" class="edge"><title>Node3&#45;&gt;Node1</title>
<path fill="none" stroke="#404040" d="M283.338,-132.845C271.399,-118.847 258.144,-103.307 245.984,-89.0497"/>
<polygon fill="none" stroke="#404040" points="245.963,-89.0254 239.026,-87.0561 238.175,-79.8953 245.112,-81.8645 245.963,-89.0254"/>
<text text-anchor="middle" x="303" y="-101" font-family="Helvetica,sans-Serif" font-size="10.00"> &#45;brandToQuery_M</text>
</g>
</g>
</svg>
