<?xml version="1.0" encoding="UTF-8" standalone="no"?>
<!DOCTYPE svg PUBLIC "-//W3C//DTD SVG 1.1//EN"
 "http://www.w3.org/Graphics/SVG/1.1/DTD/svg11.dtd">
<!-- Generated by graphviz version 2.38.0 (20140413.2041)
 -->
<!-- Title: updateDBwithCorrectedInfo Pages: 1 -->
<svg width="597pt" height="192pt"
 viewBox="0.00 0.00 597.00 191.50" xmlns="http://www.w3.org/2000/svg" xmlns:xlink="http://www.w3.org/1999/xlink">
<g id="graph0" class="graph" transform="scale(1 1) rotate(0) translate(4 187.5)">
<title>updateDBwithCorrectedInfo</title>
<polygon fill="white" stroke="none" points="-4,4 -4,-187.5 593,-187.5 593,4 -4,4"/>
<!-- Node1 -->
<g id="node1" class="node"><title>Node1</title>
<polygon fill="#bfbfbf" stroke="black" points="0,-79 0,-98 137,-98 137,-79 0,-79"/>
<text text-anchor="middle" x="68.5" y="-86" font-family="Helvetica,sans-Serif" font-size="10.00">updateDBwithCorrectedInfo</text>
</g>
<!-- Node2 -->
<g id="node2" class="node"><title>Node2</title>
<g id="a_node2"><a xlink:href="classtomoBay_1_1model_1_1dataTypes_1_1heteroTypeContainer_1_1HeteroFieldContainer.html#a3ba6289417930238a36bfee0056b6398" target="_top" xlink:title="add an arbitrary value to this Field container with the stipulation that this value is of the same ty...">
<polygon fill="white" stroke="black" points="173,-147.5 173,-177.5 367,-177.5 367,-147.5 173,-147.5"/>
<text text-anchor="start" x="181" y="-165.5" font-family="Helvetica,sans-Serif" font-size="10.00">tomoBay.model.dataTypes.hetero</text>
<text text-anchor="middle" x="270" y="-154.5" font-family="Helvetica,sans-Serif" font-size="10.00">TypeContainer.HeteroFieldContainer.add</text>
</a>
</g>
</g>
<!-- Node1&#45;&gt;Node2 -->
<g id="edge1" class="edge"><title>Node1&#45;&gt;Node2</title>
<path fill="none" stroke="midnightblue" d="M86.6077,-98.1154C106.755,-109.117 141.478,-127.083 173,-138.5 178.936,-140.65 185.146,-142.677 191.429,-144.573"/>
<polygon fill="midnightblue" stroke="midnightblue" points="190.755,-148.022 201.334,-147.442 192.703,-141.298 190.755,-148.022"/>
</g>
<!-- Node4 -->
<g id="node4" class="node"><title>Node4</title>
<g id="a_node4"><a xlink:href="classtomoBay_1_1model_1_1sql_1_1framework_1_1ModifyQueryInvoker.html#ab8ef0fdf15f6720620e297c77ab25d46" target="_top" xlink:title="tomoBay.model.sql.framework.\lModifyQueryInvoker.execute">
<polygon fill="white" stroke="black" points="194,-98.5 194,-128.5 346,-128.5 346,-98.5 194,-98.5"/>
<text text-anchor="start" x="202" y="-116.5" font-family="Helvetica,sans-Serif" font-size="10.00">tomoBay.model.sql.framework.</text>
<text text-anchor="middle" x="270" y="-105.5" font-family="Helvetica,sans-Serif" font-size="10.00">ModifyQueryInvoker.execute</text>
</a>
</g>
</g>
<!-- Node1&#45;&gt;Node4 -->
<g id="edge3" class="edge"><title>Node1&#45;&gt;Node4</title>
<path fill="none" stroke="midnightblue" d="M137.042,-96.9639C152.064,-98.8463 168.177,-100.866 183.804,-102.824"/>
<polygon fill="midnightblue" stroke="midnightblue" points="183.629,-106.329 193.986,-104.1 184.499,-99.3834 183.629,-106.329"/>
</g>
<!-- Node5 -->
<g id="node5" class="node"><title>Node5</title>
<g id="a_node5"><a xlink:href="classtomoBay_1_1model_1_1services_1_1reScanErrorsService_1_1ItemSpecifics.html#ad28f052945833b0267c4353afcbf58eb" target="_top" xlink:title="returns a particular Item specific ">
<polygon fill="white" stroke="black" points="181,-49.5 181,-79.5 359,-79.5 359,-49.5 181,-49.5"/>
<text text-anchor="start" x="189" y="-67.5" font-family="Helvetica,sans-Serif" font-size="10.00">tomoBay.model.services.re</text>
<text text-anchor="middle" x="270" y="-56.5" font-family="Helvetica,sans-Serif" font-size="10.00">ScanErrorsService.ItemSpecifics.get</text>
</a>
</g>
</g>
<!-- Node1&#45;&gt;Node5 -->
<g id="edge4" class="edge"><title>Node1&#45;&gt;Node5</title>
<path fill="none" stroke="midnightblue" d="M137.042,-80.3747C147.883,-79.0705 159.293,-77.6979 170.678,-76.3282"/>
<polygon fill="midnightblue" stroke="midnightblue" points="171.151,-79.7966 180.661,-75.1272 170.315,-72.8467 171.151,-79.7966"/>
</g>
<!-- Node6 -->
<g id="node6" class="node"><title>Node6</title>
<g id="a_node6"><a xlink:href="classtomoBay_1_1model_1_1services_1_1reScanErrorsService_1_1ItemSpecifics.html#a6f88f2bf3d7e595a8857570aa6076890" target="_top" xlink:title="provides the itemID associated with this ItemSpecifics object ">
<polygon fill="white" stroke="black" points="176,-0.5 176,-30.5 364,-30.5 364,-0.5 176,-0.5"/>
<text text-anchor="start" x="184" y="-18.5" font-family="Helvetica,sans-Serif" font-size="10.00">tomoBay.model.services.re</text>
<text text-anchor="middle" x="270" y="-7.5" font-family="Helvetica,sans-Serif" font-size="10.00">ScanErrorsService.ItemSpecifics.getID</text>
</a>
</g>
</g>
<!-- Node1&#45;&gt;Node6 -->
<g id="edge5" class="edge"><title>Node1&#45;&gt;Node6</title>
<path fill="none" stroke="midnightblue" d="M87.407,-78.9909C107.721,-68.4904 142.052,-51.6044 173,-40.5 180.045,-37.9723 187.464,-35.5824 194.928,-33.3563"/>
<polygon fill="midnightblue" stroke="midnightblue" points="196.099,-36.6611 204.737,-30.5264 194.159,-29.9353 196.099,-36.6611"/>
</g>
<!-- Node3 -->
<g id="node3" class="node"><title>Node3</title>
<g id="a_node3"><a xlink:href="classtomoBay_1_1model_1_1dataTypes_1_1heteroTypeContainer_1_1HeteroFieldContainer.html#a9dee3c01eb5ab16203e1c6820a569484" target="_top" xlink:title="performs a type check, assuming that field and type are of the same type then this method returns tru...">
<polygon fill="white" stroke="black" points="403,-142 403,-183 589,-183 589,-142 403,-142"/>
<text text-anchor="start" x="411" y="-171" font-family="Helvetica,sans-Serif" font-size="10.00">tomoBay.model.dataTypes.hetero</text>
<text text-anchor="start" x="411" y="-160" font-family="Helvetica,sans-Serif" font-size="10.00">TypeContainer.HeteroFieldContainer.is</text>
<text text-anchor="middle" x="496" y="-149" font-family="Helvetica,sans-Serif" font-size="10.00">SameType</text>
</a>
</g>
</g>
<!-- Node2&#45;&gt;Node3 -->
<g id="edge2" class="edge"><title>Node2&#45;&gt;Node3</title>
<path fill="none" stroke="midnightblue" d="M367.296,-162.5C375.642,-162.5 384.106,-162.5 392.499,-162.5"/>
<polygon fill="midnightblue" stroke="midnightblue" points="392.688,-166 402.688,-162.5 392.688,-159 392.688,-166"/>
</g>
</g>
</svg>
