<?xml version="1.0" encoding="UTF-8" standalone="no"?>
<!DOCTYPE svg PUBLIC "-//W3C//DTD SVG 1.1//EN"
 "http://www.w3.org/Graphics/SVG/1.1/DTD/svg11.dtd">
<!-- Generated by graphviz version 2.38.0 (20140413.2041)
 -->
<!-- Title: Listing Pages: 1 -->
<svg width="559pt" height="711pt"
 viewBox="0.00 0.00 559.00 711.00" xmlns="http://www.w3.org/2000/svg" xmlns:xlink="http://www.w3.org/1999/xlink">
<g id="graph0" class="graph" transform="scale(1 1) rotate(0) translate(4 707)">
<title>Listing</title>
<polygon fill="white" stroke="none" points="-4,4 -4,-707 555,-707 555,4 -4,4"/>
<!-- Node1 -->
<g id="node1" class="node"><title>Node1</title>
<polygon fill="#bfbfbf" stroke="black" points="169,-0.5 169,-156.5 256,-156.5 256,-0.5 169,-0.5"/>
<text text-anchor="middle" x="212.5" y="-144.5" font-family="Helvetica,sans-Serif" font-size="10.00">Listing</text>
<polyline fill="none" stroke="black" points="169,-137.5 256,-137.5 "/>
<text text-anchor="start" x="177" y="-125.5" font-family="Helvetica,sans-Serif" font-size="10.00">&#45; partQtys_M</text>
<polyline fill="none" stroke="black" points="169,-118.5 256,-118.5 "/>
<text text-anchor="start" x="177" y="-106.5" font-family="Helvetica,sans-Serif" font-size="10.00">+ Listing()</text>
<text text-anchor="start" x="177" y="-95.5" font-family="Helvetica,sans-Serif" font-size="10.00">+ listingID()</text>
<text text-anchor="start" x="177" y="-84.5" font-family="Helvetica,sans-Serif" font-size="10.00">+ title()</text>
<text text-anchor="start" x="177" y="-73.5" font-family="Helvetica,sans-Serif" font-size="10.00">+ brand()</text>
<text text-anchor="start" x="177" y="-62.5" font-family="Helvetica,sans-Serif" font-size="10.00">+ noOfParts()</text>
<text text-anchor="start" x="177" y="-51.5" font-family="Helvetica,sans-Serif" font-size="10.00">+ partNos()</text>
<text text-anchor="start" x="177" y="-40.5" font-family="Helvetica,sans-Serif" font-size="10.00">+ part()</text>
<text text-anchor="start" x="177" y="-29.5" font-family="Helvetica,sans-Serif" font-size="10.00">+ qty()</text>
<text text-anchor="start" x="177" y="-18.5" font-family="Helvetica,sans-Serif" font-size="10.00">+ listingCost()</text>
<text text-anchor="start" x="177" y="-7.5" font-family="Helvetica,sans-Serif" font-size="10.00">&#45; getListingInfo()</text>
</g>
<!-- Node2 -->
<g id="node2" class="node"><title>Node2</title>
<g id="a_node2"><a xlink:href="classtomoBay_1_1model_1_1dataTypes_1_1heteroTypeContainer_1_1HeteroFieldContainer.html" target="_top" xlink:title="This class represents a container of AbstractField types and a value associated with this field...">
<polygon fill="white" stroke="black" points="66.5,-215.5 66.5,-338.5 190.5,-338.5 190.5,-215.5 66.5,-215.5"/>
<text text-anchor="middle" x="128.5" y="-326.5" font-family="Helvetica,sans-Serif" font-size="10.00">HeteroFieldContainer</text>
<polyline fill="none" stroke="black" points="66.5,-319.5 190.5,-319.5 "/>
<text text-anchor="middle" x="128.5" y="-307.5" font-family="Helvetica,sans-Serif" font-size="10.00"> </text>
<polyline fill="none" stroke="black" points="66.5,-300.5 190.5,-300.5 "/>
<text text-anchor="start" x="74.5" y="-288.5" font-family="Helvetica,sans-Serif" font-size="10.00">+ HeteroFieldContainer()</text>
<text text-anchor="start" x="74.5" y="-277.5" font-family="Helvetica,sans-Serif" font-size="10.00">+ clear()</text>
<text text-anchor="start" x="74.5" y="-266.5" font-family="Helvetica,sans-Serif" font-size="10.00">+ size()</text>
<text text-anchor="start" x="74.5" y="-255.5" font-family="Helvetica,sans-Serif" font-size="10.00">+ finalize()</text>
<text text-anchor="start" x="74.5" y="-244.5" font-family="Helvetica,sans-Serif" font-size="10.00">~ add()</text>
<text text-anchor="start" x="74.5" y="-233.5" font-family="Helvetica,sans-Serif" font-size="10.00">~ get()</text>
<text text-anchor="start" x="74.5" y="-222.5" font-family="Helvetica,sans-Serif" font-size="10.00">&#45; isSameType()</text>
</a>
</g>
</g>
<!-- Node2&#45;&gt;Node1 -->
<g id="edge1" class="edge"><title>Node2&#45;&gt;Node1</title>
<path fill="none" stroke="#404040" d="M154.388,-215.44C160.851,-200.322 167.913,-183.801 174.818,-167.648"/>
<polygon fill="none" stroke="#404040" points="174.847,-167.58 173.528,-160.491 179.564,-156.546 180.884,-163.636 174.847,-167.58"/>
<text text-anchor="middle" x="203" y="-178" font-family="Helvetica,sans-Serif" font-size="10.00"> &#45;ListingInfo_M</text>
</g>
<!-- Node3 -->
<g id="node3" class="node"><title>Node3</title>
<polygon fill="white" stroke="#bfbfbf" points="0,-441.5 0,-520.5 201,-520.5 201,-441.5 0,-441.5"/>
<text text-anchor="start" x="8" y="-508.5" font-family="Helvetica,sans-Serif" font-size="10.00">Map&lt; String, Map&lt; tomoBay.model.data</text>
<text text-anchor="start" x="8" y="-497.5" font-family="Helvetica,sans-Serif" font-size="10.00">Types.heteroTypeContainer.AbstractField,</text>
<text text-anchor="middle" x="100.5" y="-486.5" font-family="Helvetica,sans-Serif" font-size="10.00"> Object &gt; &gt;</text>
<polyline fill="none" stroke="#bfbfbf" points="0,-479.5 201,-479.5 "/>
<text text-anchor="middle" x="100.5" y="-467.5" font-family="Helvetica,sans-Serif" font-size="10.00"> </text>
<polyline fill="none" stroke="#bfbfbf" points="0,-460.5 201,-460.5 "/>
<text text-anchor="middle" x="100.5" y="-448.5" font-family="Helvetica,sans-Serif" font-size="10.00"> </text>
</g>
<!-- Node3&#45;&gt;Node2 -->
<g id="edge2" class="edge"><title>Node3&#45;&gt;Node2</title>
<path fill="none" stroke="#404040" d="M105.899,-441.052C109.448,-415.446 114.202,-381.151 118.434,-350.622"/>
<polygon fill="none" stroke="#404040" points="118.44,-350.579 115.301,-344.086 120.087,-338.692 123.225,-345.185 118.44,-350.579"/>
<text text-anchor="middle" x="144" y="-371" font-family="Helvetica,sans-Serif" font-size="10.00"> &#45;fieldMap_M</text>
</g>
<!-- Node4 -->
<g id="node4" class="node"><title>Node4</title>
<g id="a_node4"><a xlink:href="classtomoBay_1_1model_1_1dataTypes_1_1order_1_1Part.html" target="_top" xlink:title="{Part\n|&#45; cost_M\l&#45; BADCHAR\l|+ Part()\l+ partNo()\l+ brand()\l+ description()\l+ cost()\l&#45; getCost()\l&#45; getDescription()\l&#45; badChar()\l}">
<polygon fill="white" stroke="black" points="235.5,-204.5 235.5,-349.5 327.5,-349.5 327.5,-204.5 235.5,-204.5"/>
<text text-anchor="middle" x="281.5" y="-337.5" font-family="Helvetica,sans-Serif" font-size="10.00">Part</text>
<polyline fill="none" stroke="black" points="235.5,-330.5 327.5,-330.5 "/>
<text text-anchor="start" x="243.5" y="-318.5" font-family="Helvetica,sans-Serif" font-size="10.00">&#45; cost_M</text>
<text text-anchor="start" x="243.5" y="-307.5" font-family="Helvetica,sans-Serif" font-size="10.00">&#45; BADCHAR</text>
<polyline fill="none" stroke="black" points="235.5,-300.5 327.5,-300.5 "/>
<text text-anchor="start" x="243.5" y="-288.5" font-family="Helvetica,sans-Serif" font-size="10.00">+ Part()</text>
<text text-anchor="start" x="243.5" y="-277.5" font-family="Helvetica,sans-Serif" font-size="10.00">+ partNo()</text>
<text text-anchor="start" x="243.5" y="-266.5" font-family="Helvetica,sans-Serif" font-size="10.00">+ brand()</text>
<text text-anchor="start" x="243.5" y="-255.5" font-family="Helvetica,sans-Serif" font-size="10.00">+ description()</text>
<text text-anchor="start" x="243.5" y="-244.5" font-family="Helvetica,sans-Serif" font-size="10.00">+ cost()</text>
<text text-anchor="start" x="243.5" y="-233.5" font-family="Helvetica,sans-Serif" font-size="10.00">&#45; getCost()</text>
<text text-anchor="start" x="243.5" y="-222.5" font-family="Helvetica,sans-Serif" font-size="10.00">&#45; getDescription()</text>
<text text-anchor="start" x="243.5" y="-211.5" font-family="Helvetica,sans-Serif" font-size="10.00">&#45; badChar()</text>
</a>
</g>
</g>
<!-- Node4&#45;&gt;Node1 -->
<g id="edge3" class="edge"><title>Node4&#45;&gt;Node1</title>
<path fill="none" stroke="#404040" d="M256.297,-204.225C252.183,-192.51 247.879,-180.253 243.643,-168.19"/>
<polygon fill="none" stroke="#404040" points="243.587,-168.03 237.825,-163.694 239.611,-156.708 245.373,-161.043 243.587,-168.03"/>
<text text-anchor="middle" x="270.5" y="-178" font-family="Helvetica,sans-Serif" font-size="10.00"> &#45;parts_M</text>
</g>
<!-- Node5 -->
<g id="node5" class="node"><title>Node5</title>
<g id="a_node5"><a xlink:href="classtomoBay_1_1model_1_1winstock_1_1Stock.html" target="_top" xlink:title="This class is responsible for querying stock levels on winstock. ">
<polygon fill="white" stroke="black" points="219.5,-397.5 219.5,-564.5 343.5,-564.5 343.5,-397.5 219.5,-397.5"/>
<text text-anchor="middle" x="281.5" y="-552.5" font-family="Helvetica,sans-Serif" font-size="10.00">Stock</text>
<polyline fill="none" stroke="black" points="219.5,-545.5 343.5,-545.5 "/>
<text text-anchor="start" x="227.5" y="-533.5" font-family="Helvetica,sans-Serif" font-size="10.00">+ ERROR</text>
<text text-anchor="start" x="227.5" y="-522.5" font-family="Helvetica,sans-Serif" font-size="10.00">&#45; currentPartNo_M</text>
<text text-anchor="start" x="227.5" y="-511.5" font-family="Helvetica,sans-Serif" font-size="10.00">&#45; currentBrandCode_M</text>
<text text-anchor="start" x="227.5" y="-500.5" font-family="Helvetica,sans-Serif" font-size="10.00">&#45; HTTP_HEADER</text>
<text text-anchor="start" x="227.5" y="-489.5" font-family="Helvetica,sans-Serif" font-size="10.00">&#45; URL_PT1_M</text>
<text text-anchor="start" x="227.5" y="-478.5" font-family="Helvetica,sans-Serif" font-size="10.00">&#45; URL_PT2_M</text>
<polyline fill="none" stroke="black" points="219.5,-471.5 343.5,-471.5 "/>
<text text-anchor="start" x="227.5" y="-459.5" font-family="Helvetica,sans-Serif" font-size="10.00">+ Stock()</text>
<text text-anchor="start" x="227.5" y="-448.5" font-family="Helvetica,sans-Serif" font-size="10.00">+ requestStockLevel()</text>
<text text-anchor="start" x="227.5" y="-437.5" font-family="Helvetica,sans-Serif" font-size="10.00">+ requestDescription()</text>
<text text-anchor="start" x="227.5" y="-426.5" font-family="Helvetica,sans-Serif" font-size="10.00">+ requestLastCost()</text>
<text text-anchor="start" x="227.5" y="-415.5" font-family="Helvetica,sans-Serif" font-size="10.00">&#45; queryWinstockURL()</text>
<text text-anchor="start" x="227.5" y="-404.5" font-family="Helvetica,sans-Serif" font-size="10.00">&#45; postFormatXMLString()</text>
</a>
</g>
</g>
<!-- Node5&#45;&gt;Node4 -->
<g id="edge4" class="edge"><title>Node5&#45;&gt;Node4</title>
<path fill="none" stroke="#404040" d="M281.5,-397.256C281.5,-385.531 281.5,-373.466 281.5,-361.722"/>
<polygon fill="none" stroke="#404040" points="281.5,-361.627 277.5,-355.627 281.5,-349.627 285.5,-355.627 281.5,-361.627"/>
<text text-anchor="middle" x="311" y="-371" font-family="Helvetica,sans-Serif" font-size="10.00"> &#45;winstock_M</text>
</g>
<!-- Node6 -->
<g id="node6" class="node"><title>Node6</title>
<g id="a_node6"><a xlink:href="classtomoBay_1_1model_1_1net_1_1HttpResponse.html" target="_top" xlink:title="Copyright(C) 2015 Jan P.C. ">
<polygon fill="white" stroke="black" points="217,-612.5 217,-702.5 346,-702.5 346,-612.5 217,-612.5"/>
<text text-anchor="middle" x="281.5" y="-690.5" font-family="Helvetica,sans-Serif" font-size="10.00">HttpResponse</text>
<polyline fill="none" stroke="black" points="217,-683.5 346,-683.5 "/>
<text text-anchor="start" x="225" y="-671.5" font-family="Helvetica,sans-Serif" font-size="10.00">&#45; responseCode_M</text>
<text text-anchor="start" x="225" y="-660.5" font-family="Helvetica,sans-Serif" font-size="10.00">&#45; responseMessage_M</text>
<polyline fill="none" stroke="black" points="217,-653.5 346,-653.5 "/>
<text text-anchor="start" x="225" y="-641.5" font-family="Helvetica,sans-Serif" font-size="10.00">+ HttpResponse()</text>
<text text-anchor="start" x="225" y="-630.5" font-family="Helvetica,sans-Serif" font-size="10.00">+ getResponseCode()</text>
<text text-anchor="start" x="225" y="-619.5" font-family="Helvetica,sans-Serif" font-size="10.00">+ getResponseMessage()</text>
</a>
</g>
</g>
<!-- Node6&#45;&gt;Node5 -->
<g id="edge5" class="edge"><title>Node6&#45;&gt;Node5</title>
<path fill="none" stroke="#404040" d="M281.5,-612.466C281.5,-601.562 281.5,-589.453 281.5,-577.133"/>
<polygon fill="none" stroke="#404040" points="281.5,-576.778 277.5,-570.779 281.5,-564.778 285.5,-570.778 281.5,-576.778"/>
<text text-anchor="middle" x="311.5" y="-586" font-family="Helvetica,sans-Serif" font-size="10.00"> &#45;response_M</text>
</g>
<!-- Node7 -->
<g id="node7" class="node"><title>Node7</title>
<polygon fill="white" stroke="#bfbfbf" points="362,-447 362,-515 551,-515 551,-447 362,-447"/>
<text text-anchor="start" x="370" y="-503" font-family="Helvetica,sans-Serif" font-size="10.00">Map&lt; tomoBay.model.dataTypes.order.</text>
<text text-anchor="middle" x="456.5" y="-492" font-family="Helvetica,sans-Serif" font-size="10.00">Part.stringTypes, String &gt;</text>
<polyline fill="none" stroke="#bfbfbf" points="362,-485 551,-485 "/>
<text text-anchor="middle" x="456.5" y="-473" font-family="Helvetica,sans-Serif" font-size="10.00"> </text>
<polyline fill="none" stroke="#bfbfbf" points="362,-466 551,-466 "/>
<text text-anchor="middle" x="456.5" y="-454" font-family="Helvetica,sans-Serif" font-size="10.00"> </text>
</g>
<!-- Node7&#45;&gt;Node4 -->
<g id="edge6" class="edge"><title>Node7&#45;&gt;Node4</title>
<path fill="none" stroke="#404040" d="M427.602,-446.644C402.65,-417.841 365.93,-375.456 335.546,-340.384"/>
<polygon fill="none" stroke="#404040" points="335.422,-340.242 328.47,-338.326 327.565,-331.172 334.517,-333.088 335.422,-340.242"/>
<text text-anchor="middle" x="413.5" y="-371" font-family="Helvetica,sans-Serif" font-size="10.00"> &#45;stringProperties_M</text>
</g>
</g>
</svg>
