<?xml version="1.0" encoding="UTF-8" standalone="no"?>
<!DOCTYPE svg PUBLIC "-//W3C//DTD SVG 1.1//EN"
 "http://www.w3.org/Graphics/SVG/1.1/DTD/svg11.dtd">
<!-- Generated by graphviz version 2.38.0 (20140413.2041)
 -->
<!-- Title: tomoBay.model.services.invoiceOrderService.CalculateInvoiceStatus.status Pages: 1 -->
<!--zoomable 298 -->
<svg id="main" version="1.1" xmlns="http://www.w3.org/2000/svg" xmlns:xlink="http://www.w3.org/1999/xlink" xml:space="preserve" onload="init(evt)">
<style type="text/css"><![CDATA[
.edge:hover path { stroke: red; }
.edge:hover polygon { stroke: red; fill: red; }
]]></style>
<script type="text/javascript"><![CDATA[
var edges = document.getElementsByTagName('g');
if (edges && edges.length) {
  for (var i=0;i<edges.length;i++) {
    if (edges[i].id.substr(0,4)=='edge') {
      edges[i].setAttribute('class','edge');
    }
  }
}
]]></script>
        <defs>
                <circle id="rim" cx="0" cy="0" r="7"/>
                <circle id="rim2" cx="0" cy="0" r="3.5"/>
                <g id="zoomPlus">
                        <use xlink:href="#rim" fill="#404040">
                                <set attributeName="fill" to="#808080" begin="zoomplus.mouseover" end="zoomplus.mouseout"/>
                        </use>
                        <path d="M-4,0h8M0,-4v8" fill="none" stroke="white" stroke-width="1.5" pointer-events="none"/>
                </g>
                <g id="zoomMin">
                        <use xlink:href="#rim" fill="#404040">
                                <set attributeName="fill" to="#808080" begin="zoomminus.mouseover" end="zoomminus.mouseout"/>
                        </use>
                        <path d="M-4,0h8" fill="none" stroke="white" stroke-width="1.5" pointer-events="none"/>
                </g>
                <g id="dirArrow">
                        <path fill="none" stroke="white" stroke-width="1.5" d="M0,-3.0v7 M-2.5,-0.5L0,-3.0L2.5,-0.5"/>
                </g>
               <g id="resetDef">
                       <use xlink:href="#rim2" fill="#404040">
                               <set attributeName="fill" to="#808080" begin="reset.mouseover" end="reset.mouseout"/>
                       </use>
               </g>
        </defs>

<script type="text/javascript">
var viewWidth = 1138;
var viewHeight = 298;
var sectionId = 'dynsection-5';
</script>
<script xlink:href="svgpan.js"/>
<svg id="graph" class="graph">
<g id="viewport">
<title>tomoBay.model.services.invoiceOrderService.CalculateInvoiceStatus.status</title>
<!-- Node1 -->
<g id="node1" class="node"><title>Node1</title>
<polygon fill="#bfbfbf" stroke="black" points="0,-161.5 0,-191.5 208,-191.5 208,-161.5 0,-161.5"/>
<text text-anchor="start" x="8" y="-179.5" font-family="Helvetica,sans-Serif" font-size="10.00">tomoBay.model.services.invoice</text>
<text text-anchor="middle" x="104" y="-168.5" font-family="Helvetica,sans-Serif" font-size="10.00">OrderService.CalculateInvoiceStatus.status</text>
</g>
<!-- Node2 -->
<g id="node2" class="node"><title>Node2</title>
<g id="a_node2"><a xlink:href="classtomoBay_1_1model_1_1services_1_1invoiceOrderService_1_1CalculateInvoiceStatus.html#a3d123bd6b208f0f0cf28aa46ea5a630a" target="_top" xlink:title="tomoBay.model.services.invoice\lOrderService.CalculateInvoiceStatus.assemble\lItemsList">
<polygon fill="none" stroke="black" points="244,-230 244,-271 467,-271 467,-230 244,-230"/>
<text text-anchor="start" x="252" y="-259" font-family="Helvetica,sans-Serif" font-size="10.00">tomoBay.model.services.invoice</text>
<text text-anchor="start" x="252" y="-248" font-family="Helvetica,sans-Serif" font-size="10.00">OrderService.CalculateInvoiceStatus.assemble</text>
<text text-anchor="middle" x="355.5" y="-237" font-family="Helvetica,sans-Serif" font-size="10.00">ItemsList</text>
</a>
</g>
</g>
<!-- Node1&#45;&gt;Node2 -->
<g id="edge1" class="edge"><title>Node1&#45;&gt;Node2</title>
<path fill="none" stroke="midnightblue" d="M155.791,-191.564C190.204,-201.771 236.37,-215.463 275.541,-227.081"/>
<polygon fill="midnightblue" stroke="midnightblue" points="274.756,-230.499 285.338,-229.987 276.746,-223.788 274.756,-230.499"/>
</g>
<!-- Node3 -->
<g id="node3" class="node"><title>Node3</title>
<g id="a_node3"><a xlink:href="classtomoBay_1_1model_1_1sql_1_1queries_1_1QueryInvoker.html#af9783588735e13b18741b48b375ca626" target="_top" xlink:title="tomoBay.model.sql.queries.\lQueryInvoker.execute">
<polygon fill="none" stroke="black" points="529.5,-235.5 529.5,-265.5 667.5,-265.5 667.5,-235.5 529.5,-235.5"/>
<text text-anchor="start" x="537.5" y="-253.5" font-family="Helvetica,sans-Serif" font-size="10.00">tomoBay.model.sql.queries.</text>
<text text-anchor="middle" x="598.5" y="-242.5" font-family="Helvetica,sans-Serif" font-size="10.00">QueryInvoker.execute</text>
</a>
</g>
</g>
<!-- Node1&#45;&gt;Node3 -->
<g id="edge15" class="edge"><title>Node1&#45;&gt;Node3</title>
<path fill="none" stroke="midnightblue" d="M208.017,-186.113C280.689,-193.604 380.164,-205.285 467,-220.5 486.981,-224.001 508.502,-228.601 528.192,-233.143"/>
<polygon fill="midnightblue" stroke="midnightblue" points="527.465,-236.568 537.999,-235.435 529.058,-229.751 527.465,-236.568"/>
</g>
<!-- Node6 -->
<g id="node6" class="node"><title>Node6</title>
<g id="a_node6"><a xlink:href="classtomoBay_1_1model_1_1services_1_1invoiceOrderService_1_1CalculateInvoiceStatus.html#a36bda615a95d80b2d5d3b24e04f6ae96" target="_top" xlink:title="tomoBay.model.services.invoice\lOrderService.CalculateInvoiceStatus.check\lStockLevelOfItems">
<polygon fill="none" stroke="black" points="252,-132 252,-173 459,-173 459,-132 252,-132"/>
<text text-anchor="start" x="260" y="-161" font-family="Helvetica,sans-Serif" font-size="10.00">tomoBay.model.services.invoice</text>
<text text-anchor="start" x="260" y="-150" font-family="Helvetica,sans-Serif" font-size="10.00">OrderService.CalculateInvoiceStatus.check</text>
<text text-anchor="middle" x="355.5" y="-139" font-family="Helvetica,sans-Serif" font-size="10.00">StockLevelOfItems</text>
</a>
</g>
</g>
<!-- Node1&#45;&gt;Node6 -->
<g id="edge5" class="edge"><title>Node1&#45;&gt;Node6</title>
<path fill="none" stroke="midnightblue" d="M193.667,-161.478C209.21,-159.756 225.57,-158.105 241.664,-156.631"/>
<polygon fill="midnightblue" stroke="midnightblue" points="241.993,-160.116 251.64,-155.738 241.368,-153.144 241.993,-160.116"/>
</g>
<!-- Node2&#45;&gt;Node3 -->
<g id="edge2" class="edge"><title>Node2&#45;&gt;Node3</title>
<path fill="none" stroke="midnightblue" d="M467.125,-250.5C484.648,-250.5 502.451,-250.5 519.039,-250.5"/>
<polygon fill="midnightblue" stroke="midnightblue" points="519.197,-254 529.197,-250.5 519.197,-247 519.197,-254"/>
</g>
<!-- Node4 -->
<g id="node4" class="node"><title>Node4</title>
<g id="a_node4"><a xlink:href="classtomoBay_1_1model_1_1sql_1_1queries_1_1QueryInvoker.html#aff8d54f537b905d5a8b35a20113fd100" target="_top" xlink:title="tomoBay.model.sql.queries.\lQueryInvoker.make">
<polygon fill="none" stroke="black" points="749.5,-259.5 749.5,-289.5 887.5,-289.5 887.5,-259.5 749.5,-259.5"/>
<text text-anchor="start" x="757.5" y="-277.5" font-family="Helvetica,sans-Serif" font-size="10.00">tomoBay.model.sql.queries.</text>
<text text-anchor="middle" x="818.5" y="-266.5" font-family="Helvetica,sans-Serif" font-size="10.00">QueryInvoker.make</text>
</a>
</g>
</g>
<!-- Node3&#45;&gt;Node4 -->
<g id="edge3" class="edge"><title>Node3&#45;&gt;Node4</title>
<path fill="none" stroke="midnightblue" d="M667.58,-257.995C690.215,-260.487 715.605,-263.282 738.965,-265.854"/>
<polygon fill="midnightblue" stroke="midnightblue" points="738.864,-269.364 749.187,-266.979 739.63,-262.406 738.864,-269.364"/>
</g>
<!-- Node5 -->
<g id="node5" class="node"><title>Node5</title>
<g id="a_node5"><a xlink:href="interfacetomoBay_1_1model_1_1sql_1_1queries_1_1AbstractDBQuery.html#af2b3eebaeac3f2330d4c4e27182cec48" target="_top" xlink:title="tomoBay.model.sql.queries.\lAbstractDBQuery.execute">
<polygon fill="none" stroke="black" points="749.5,-210.5 749.5,-240.5 887.5,-240.5 887.5,-210.5 749.5,-210.5"/>
<text text-anchor="start" x="757.5" y="-228.5" font-family="Helvetica,sans-Serif" font-size="10.00">tomoBay.model.sql.queries.</text>
<text text-anchor="middle" x="818.5" y="-217.5" font-family="Helvetica,sans-Serif" font-size="10.00">AbstractDBQuery.execute</text>
</a>
</g>
</g>
<!-- Node3&#45;&gt;Node5 -->
<g id="edge4" class="edge"><title>Node3&#45;&gt;Node5</title>
<path fill="none" stroke="midnightblue" d="M667.58,-242.693C690.215,-240.097 715.605,-237.185 738.965,-234.506"/>
<polygon fill="midnightblue" stroke="midnightblue" points="739.651,-237.951 749.187,-233.334 738.853,-230.996 739.651,-237.951"/>
</g>
<!-- Node6&#45;&gt;Node1 -->
<g id="edge14" class="edge"><title>Node6&#45;&gt;Node1</title>
<path fill="none" stroke="midnightblue" d="M251.697,-169.045C240.722,-170.196 229.512,-171.297 218.422,-172.315"/>
<polygon fill="midnightblue" stroke="midnightblue" points="217.929,-168.845 208.282,-173.225 218.555,-175.817 217.929,-168.845"/>
</g>
<!-- Node7 -->
<g id="node7" class="node"><title>Node7</title>
<g id="a_node7"><a xlink:href="classtomoBay_1_1helpers_1_1BrandToCode.html#a685e9b8eb9b3b66937c327106d4c7ca1" target="_top" xlink:title="tomoBay.helpers.BrandToCode.convert">
<polygon fill="none" stroke="black" points="504.5,-197 504.5,-216 692.5,-216 692.5,-197 504.5,-197"/>
<text text-anchor="middle" x="598.5" y="-204" font-family="Helvetica,sans-Serif" font-size="10.00">tomoBay.helpers.BrandToCode.convert</text>
</a>
</g>
</g>
<!-- Node6&#45;&gt;Node7 -->
<g id="edge6" class="edge"><title>Node6&#45;&gt;Node7</title>
<path fill="none" stroke="midnightblue" d="M443.586,-173.005C463.119,-177.522 483.755,-182.231 503,-186.5 515.402,-189.251 528.738,-192.125 541.37,-194.809"/>
<polygon fill="midnightblue" stroke="midnightblue" points="540.811,-198.268 551.318,-196.914 542.26,-191.419 540.811,-198.268"/>
</g>
<!-- Node8 -->
<g id="node8" class="node"><title>Node8</title>
<g id="a_node8"><a xlink:href="classtomoBay_1_1model_1_1services_1_1helpers_1_1PartList.html#ad78e5b214d7f6060e461abac7fca9559" target="_top" xlink:title="tomoBay.model.services.helpers.\lPartList.getPartNumber">
<polygon fill="none" stroke="black" points="517.5,-147.5 517.5,-177.5 679.5,-177.5 679.5,-147.5 517.5,-147.5"/>
<text text-anchor="start" x="525.5" y="-165.5" font-family="Helvetica,sans-Serif" font-size="10.00">tomoBay.model.services.helpers.</text>
<text text-anchor="middle" x="598.5" y="-154.5" font-family="Helvetica,sans-Serif" font-size="10.00">PartList.getPartNumber</text>
</a>
</g>
</g>
<!-- Node6&#45;&gt;Node8 -->
<g id="edge7" class="edge"><title>Node6&#45;&gt;Node8</title>
<path fill="none" stroke="midnightblue" d="M459.055,-156.755C475.029,-157.418 491.434,-158.099 507.112,-158.749"/>
<polygon fill="midnightblue" stroke="midnightblue" points="507.161,-162.254 517.298,-159.172 507.451,-155.26 507.161,-162.254"/>
</g>
<!-- Node9 -->
<g id="node9" class="node"><title>Node9</title>
<g id="a_node9"><a xlink:href="classtomoBay_1_1model_1_1services_1_1helpers_1_1PartList.html#a554b8b08e0c00b2c094af388611fb318" target="_top" xlink:title="tomoBay.model.services.helpers.\lPartList.getPartQty">
<polygon fill="none" stroke="black" points="517.5,-98.5 517.5,-128.5 679.5,-128.5 679.5,-98.5 517.5,-98.5"/>
<text text-anchor="start" x="525.5" y="-116.5" font-family="Helvetica,sans-Serif" font-size="10.00">tomoBay.model.services.helpers.</text>
<text text-anchor="middle" x="598.5" y="-105.5" font-family="Helvetica,sans-Serif" font-size="10.00">PartList.getPartQty</text>
</a>
</g>
</g>
<!-- Node6&#45;&gt;Node9 -->
<g id="edge8" class="edge"><title>Node6&#45;&gt;Node9</title>
<path fill="none" stroke="midnightblue" d="M459.055,-135.904C475.029,-133.319 491.434,-130.664 507.112,-128.127"/>
<polygon fill="midnightblue" stroke="midnightblue" points="507.985,-131.531 517.298,-126.479 506.867,-124.621 507.985,-131.531"/>
</g>
<!-- Node10 -->
<g id="node10" class="node"><title>Node10</title>
<g id="a_node10"><a xlink:href="classtomoBay_1_1model_1_1winstock_1_1Stock.html#a1782a19980de34680ae751b8a334af96" target="_top" xlink:title="tomoBay.model.winstock.Stock.request\lStockLevel">
<polygon fill="none" stroke="black" points="503,-49.5 503,-79.5 694,-79.5 694,-49.5 503,-49.5"/>
<text text-anchor="start" x="511" y="-67.5" font-family="Helvetica,sans-Serif" font-size="10.00">tomoBay.model.winstock.Stock.request</text>
<text text-anchor="middle" x="598.5" y="-56.5" font-family="Helvetica,sans-Serif" font-size="10.00">StockLevel</text>
</a>
</g>
</g>
<!-- Node6&#45;&gt;Node10 -->
<g id="edge9" class="edge"><title>Node6&#45;&gt;Node10</title>
<path fill="none" stroke="midnightblue" d="M399.749,-131.902C428.574,-118.673 467.539,-101.741 503,-89.5 510.275,-86.9887 517.939,-84.5826 525.624,-82.3232"/>
<polygon fill="midnightblue" stroke="midnightblue" points="526.692,-85.6583 535.344,-79.543 524.767,-78.9282 526.692,-85.6583"/>
</g>
<!-- Node14 -->
<g id="node14" class="node"><title>Node14</title>
<g id="a_node14"><a xlink:href="classtomoBay_1_1model_1_1services_1_1helpers_1_1PartList.html#a560c1e8e7c88cd213aba97da6620aa42" target="_top" xlink:title="tomoBay.model.services.helpers.\lPartList.size">
<polygon fill="none" stroke="black" points="517.5,-0.5 517.5,-30.5 679.5,-30.5 679.5,-0.5 517.5,-0.5"/>
<text text-anchor="start" x="525.5" y="-18.5" font-family="Helvetica,sans-Serif" font-size="10.00">tomoBay.model.services.helpers.</text>
<text text-anchor="middle" x="598.5" y="-7.5" font-family="Helvetica,sans-Serif" font-size="10.00">PartList.size</text>
</a>
</g>
</g>
<!-- Node6&#45;&gt;Node14 -->
<g id="edge13" class="edge"><title>Node6&#45;&gt;Node14</title>
<path fill="none" stroke="midnightblue" d="M377.968,-131.625C404.989,-106.471 453.84,-64.5919 503,-40.5 507.905,-38.0962 513.071,-35.9016 518.354,-33.9017"/>
<polygon fill="midnightblue" stroke="midnightblue" points="519.695,-37.1397 527.959,-30.5089 517.364,-30.5393 519.695,-37.1397"/>
</g>
<!-- Node11 -->
<g id="node11" class="node"><title>Node11</title>
<g id="a_node11"><a xlink:href="classtomoBay_1_1model_1_1winstock_1_1Stock.html#a0b60d421fe27874ceb35c702ffa2483f" target="_top" xlink:title="tomoBay.model.winstock.Stock.post\lFormatXMLString">
<polygon fill="none" stroke="black" points="730,-71.5 730,-101.5 907,-101.5 907,-71.5 730,-71.5"/>
<text text-anchor="start" x="738" y="-89.5" font-family="Helvetica,sans-Serif" font-size="10.00">tomoBay.model.winstock.Stock.post</text>
<text text-anchor="middle" x="818.5" y="-78.5" font-family="Helvetica,sans-Serif" font-size="10.00">FormatXMLString</text>
</a>
</g>
</g>
<!-- Node10&#45;&gt;Node11 -->
<g id="edge10" class="edge"><title>Node10&#45;&gt;Node11</title>
<path fill="none" stroke="midnightblue" d="M694.167,-74.0535C702.674,-74.912 711.299,-75.7824 719.83,-76.6434"/>
<polygon fill="midnightblue" stroke="midnightblue" points="719.489,-80.1267 729.79,-77.6485 720.192,-73.162 719.489,-80.1267"/>
</g>
<!-- Node13 -->
<g id="node13" class="node"><title>Node13</title>
<g id="a_node13"><a xlink:href="classtomoBay_1_1helpers_1_1XMLParser.html#ac25716dcaf3586b706f71c7354d6626c" target="_top" xlink:title="tomoBay.helpers.XMLParser.parse">
<polygon fill="none" stroke="black" points="734,-33 734,-52 903,-52 903,-33 734,-33"/>
<text text-anchor="middle" x="818.5" y="-40" font-family="Helvetica,sans-Serif" font-size="10.00">tomoBay.helpers.XMLParser.parse</text>
</a>
</g>
</g>
<!-- Node10&#45;&gt;Node13 -->
<g id="edge12" class="edge"><title>Node10&#45;&gt;Node13</title>
<path fill="none" stroke="midnightblue" d="M694.167,-54.9465C703.974,-53.9567 713.939,-52.9511 723.737,-51.9623"/>
<polygon fill="midnightblue" stroke="midnightblue" points="724.274,-55.426 733.872,-50.9395 723.572,-48.4613 724.274,-55.426"/>
</g>
<!-- Node12 -->
<g id="node12" class="node"><title>Node12</title>
<g id="a_node12"><a xlink:href="classtomoBay_1_1model_1_1http_1_1HttpResponse.html#a24a810db349f2e0bb6188d836b9ab916" target="_top" xlink:title="tomoBay.model.http.HttpResponse.get\lResponseMessage">
<polygon fill="none" stroke="black" points="943,-71.5 943,-101.5 1130,-101.5 1130,-71.5 943,-71.5"/>
<text text-anchor="start" x="951" y="-89.5" font-family="Helvetica,sans-Serif" font-size="10.00">tomoBay.model.http.HttpResponse.get</text>
<text text-anchor="middle" x="1036.5" y="-78.5" font-family="Helvetica,sans-Serif" font-size="10.00">ResponseMessage</text>
</a>
</g>
</g>
<!-- Node11&#45;&gt;Node12 -->
<g id="edge11" class="edge"><title>Node11&#45;&gt;Node12</title>
<path fill="none" stroke="midnightblue" d="M907.044,-86.5C915.533,-86.5 924.198,-86.5 932.817,-86.5"/>
<polygon fill="midnightblue" stroke="midnightblue" points="932.901,-90.0001 942.901,-86.5 932.901,-83.0001 932.901,-90.0001"/>
</g>
</g>
</svg>
        <g id="navigator" transform="translate(0 0)" fill="#404254">
                <rect fill="#f2f5e9" fill-opacity="0.5" stroke="#606060" stroke-width=".5" x="0" y="0" width="60" height="60"/>
                <use id="zoomplus" xlink:href="#zoomPlus" x="17" y="9" onmousedown="handleZoom(evt,'in')"/>
                <use id="zoomminus" xlink:href="#zoomMin" x="42" y="9" onmousedown="handleZoom(evt,'out')"/>
                <use id="reset" xlink:href="#resetDef" x="30" y="36" onmousedown="handleReset()"/>
                <g id="arrowUp" xlink:href="#dirArrow" transform="translate(30 24)" onmousedown="handlePan(0,-1)">
                  <use xlink:href="#rim" fill="#404040">
                        <set attributeName="fill" to="#808080" begin="arrowUp.mouseover" end="arrowUp.mouseout"/>
                  </use>
                  <path fill="none" stroke="white" stroke-width="1.5" d="M0,-3.0v7 M-2.5,-0.5L0,-3.0L2.5,-0.5"/>
                </g>
                <g id="arrowRight" xlink:href="#dirArrow" transform="rotate(90) translate(36 -43)" onmousedown="handlePan(1,0)">
                  <use xlink:href="#rim" fill="#404040">
                        <set attributeName="fill" to="#808080" begin="arrowRight.mouseover" end="arrowRight.mouseout"/>
                  </use>
                  <path fill="none" stroke="white" stroke-width="1.5" d="M0,-3.0v7 M-2.5,-0.5L0,-3.0L2.5,-0.5"/>
                </g>
                <g id="arrowDown" xlink:href="#dirArrow" transform="rotate(180) translate(-30 -48)" onmousedown="handlePan(0,1)">
                  <use xlink:href="#rim" fill="#404040">
                        <set attributeName="fill" to="#808080" begin="arrowDown.mouseover" end="arrowDown.mouseout"/>
                  </use>
                  <path fill="none" stroke="white" stroke-width="1.5" d="M0,-3.0v7 M-2.5,-0.5L0,-3.0L2.5,-0.5"/>
                </g>
                <g id="arrowLeft" xlink:href="#dirArrow" transform="rotate(270) translate(-36 17)" onmousedown="handlePan(-1,0)">
                  <use xlink:href="#rim" fill="#404040">
                        <set attributeName="fill" to="#808080" begin="arrowLeft.mouseover" end="arrowLeft.mouseout"/>
                  </use>
                  <path fill="none" stroke="white" stroke-width="1.5" d="M0,-3.0v7 M-2.5,-0.5L0,-3.0L2.5,-0.5"/>
                </g>
        </g>
        <svg viewBox="0 0 15 15" width="100%" height="30px" preserveAspectRatio="xMaxYMin meet">
         <g id="arrow_out" transform="scale(0.3 0.3)">
          <a xlink:href="classtomoBay_1_1model_1_1services_1_1invoiceOrderService_1_1CalculateInvoiceStatus_ad6339cffa2c8fa1f1030aa611eda0073_cgraph_org.svg" target="_base">
           <rect id="button" ry="5" rx="5" y="6" x="6" height="38" width="38"
                fill="#f2f5e9" fill-opacity="0.5" stroke="#606060" stroke-width="1.0"/>
           <path id="arrow"
             d="M 11.500037,31.436501 C 11.940474,20.09759 22.043105,11.32322 32.158766,21.979434 L 37.068811,17.246167 C 37.068811,17.246167 37.088388,32 37.088388,32 L 22.160133,31.978069 C 22.160133,31.978069 26.997745,27.140456 26.997745,27.140456 C 18.528582,18.264221 13.291696,25.230495 11.500037,31.436501 z"
             style="fill:#404040;"/>
          </a>
         </g>
        </svg>
</svg>
