<?xml version="1.0" encoding="UTF-8" standalone="no"?>
<!DOCTYPE svg PUBLIC "-//W3C//DTD SVG 1.1//EN"
 "http://www.w3.org/Graphics/SVG/1.1/DTD/svg11.dtd">
<!-- Generated by graphviz version 2.38.0 (20140413.2041)
 -->
<!-- Title: tomoBay.model.services.individualItemRefresh.IndividualItemRefreshService Pages: 1 -->
<svg width="210pt" height="320pt"
 viewBox="0.00 0.00 210.00 320.00" xmlns="http://www.w3.org/2000/svg" xmlns:xlink="http://www.w3.org/1999/xlink">
<g id="graph0" class="graph" transform="scale(1 1) rotate(0) translate(4 316)">
<title>tomoBay.model.services.individualItemRefresh.IndividualItemRefreshService</title>
<!-- Node1 -->
<g id="node1" class="node"><title>Node1</title>
<polygon fill="#bfbfbf" stroke="black" points="0,-0.5 0,-101.5 202,-101.5 202,-0.5 0,-0.5"/>
<text text-anchor="start" x="8" y="-89.5" font-family="Helvetica,sans-Serif" font-size="10.00">tomoBay.model.services.individual</text>
<text text-anchor="middle" x="101" y="-78.5" font-family="Helvetica,sans-Serif" font-size="10.00">ItemRefresh.IndividualItemRefreshService</text>
<polyline fill="none" stroke="black" points="0,-71.5 202,-71.5 "/>
<text text-anchor="start" x="8" y="-59.5" font-family="Helvetica,sans-Serif" font-size="10.00">&#45; listingID_M</text>
<polyline fill="none" stroke="black" points="0,-52.5 202,-52.5 "/>
<text text-anchor="start" x="8" y="-40.5" font-family="Helvetica,sans-Serif" font-size="10.00">+ run()</text>
<text text-anchor="start" x="8" y="-29.5" font-family="Helvetica,sans-Serif" font-size="10.00">~ setConfig()</text>
<text text-anchor="start" x="8" y="-18.5" font-family="Helvetica,sans-Serif" font-size="10.00">&#45; getItemData()</text>
<text text-anchor="start" x="8" y="-7.5" font-family="Helvetica,sans-Serif" font-size="10.00">&#45; getSpecifics()</text>
</g>
<!-- Node2 -->
<g id="node2" class="node"><title>Node2</title>
<g id="a_node2"><a xlink:href="interfacetomoBay_1_1model_1_1services_1_1AbstractService.html" target="_top" xlink:title="{tomoBay.model.services.Abstract\lService\n||+ run()\l+ setConfig()\l}">
<polygon fill="none" stroke="black" points="19,-138.5 19,-217.5 183,-217.5 183,-138.5 19,-138.5"/>
<text text-anchor="start" x="27" y="-205.5" font-family="Helvetica,sans-Serif" font-size="10.00">tomoBay.model.services.Abstract</text>
<text text-anchor="middle" x="101" y="-194.5" font-family="Helvetica,sans-Serif" font-size="10.00">Service</text>
<polyline fill="none" stroke="black" points="19,-187.5 183,-187.5 "/>
<text text-anchor="middle" x="101" y="-175.5" font-family="Helvetica,sans-Serif" font-size="10.00"> </text>
<polyline fill="none" stroke="black" points="19,-168.5 183,-168.5 "/>
<text text-anchor="start" x="27" y="-156.5" font-family="Helvetica,sans-Serif" font-size="10.00">+ run()</text>
<text text-anchor="start" x="27" y="-145.5" font-family="Helvetica,sans-Serif" font-size="10.00">+ setConfig()</text>
</a>
</g>
</g>
<!-- Node2&#45;&gt;Node1 -->
<g id="edge1" class="edge"><title>Node2&#45;&gt;Node1</title>
<path fill="none" stroke="midnightblue" d="M101,-128.406C101,-119.639 101,-110.488 101,-101.691"/>
<polygon fill="none" stroke="midnightblue" points="97.5001,-128.476 101,-138.476 104.5,-128.476 97.5001,-128.476"/>
</g>
<!-- Node3 -->
<g id="node3" class="node"><title>Node3</title>
<polygon fill="none" stroke="#bfbfbf" points="72,-254.5 72,-311.5 130,-311.5 130,-254.5 72,-254.5"/>
<text text-anchor="middle" x="101" y="-299.5" font-family="Helvetica,sans-Serif" font-size="10.00">Runnable</text>
<polyline fill="none" stroke="#bfbfbf" points="72,-292.5 130,-292.5 "/>
<text text-anchor="middle" x="101" y="-280.5" font-family="Helvetica,sans-Serif" font-size="10.00"> </text>
<polyline fill="none" stroke="#bfbfbf" points="72,-273.5 130,-273.5 "/>
<text text-anchor="middle" x="101" y="-261.5" font-family="Helvetica,sans-Serif" font-size="10.00"> </text>
</g>
<!-- Node3&#45;&gt;Node2 -->
<g id="edge2" class="edge"><title>Node3&#45;&gt;Node2</title>
<path fill="none" stroke="midnightblue" d="M101,-244.156C101,-235.473 101,-226.232 101,-217.52"/>
<polygon fill="none" stroke="midnightblue" points="97.5001,-244.398 101,-254.398 104.5,-244.398 97.5001,-244.398"/>
</g>
</g>
</svg>
