<?xml version="1.0" encoding="UTF-8" standalone="no"?>
<!DOCTYPE svg PUBLIC "-//W3C//DTD SVG 1.1//EN"
 "http://www.w3.org/Graphics/SVG/1.1/DTD/svg11.dtd">
<!-- Generated by graphviz version 2.38.0 (20140413.2041)
 -->
<!-- Title: execute Pages: 1 -->
<svg width="708pt" height="170pt"
 viewBox="0.00 0.00 708.00 170.00" xmlns="http://www.w3.org/2000/svg" xmlns:xlink="http://www.w3.org/1999/xlink">
<g id="graph0" class="graph" transform="scale(1 1) rotate(0) translate(4 166)">
<title>execute</title>
<polygon fill="white" stroke="none" points="-4,4 -4,-166 704,-166 704,4 -4,4"/>
<!-- Node1 -->
<g id="node1" class="node"><title>Node1</title>
<polygon fill="#bfbfbf" stroke="black" points="0,-69 0,-88 51,-88 51,-69 0,-69"/>
<text text-anchor="middle" x="25.5" y="-76" font-family="Helvetica,sans-Serif" font-size="10.00">execute</text>
</g>
<!-- Node2 -->
<g id="node2" class="node"><title>Node2</title>
<g id="a_node2"><a xlink:href="classtomoBay_1_1model_1_1dataTypes_1_1json_1_1JSONentity.html#afead82af115042a64d2604ec5f508f45" target="_top" xlink:title="A leaf node is simply a key value pair. ">
<polygon fill="white" stroke="black" points="88.5,-128.5 88.5,-158.5 246.5,-158.5 246.5,-128.5 88.5,-128.5"/>
<text text-anchor="start" x="96.5" y="-146.5" font-family="Helvetica,sans-Serif" font-size="10.00">tomoBay.model.dataTypes.json.</text>
<text text-anchor="middle" x="167.5" y="-135.5" font-family="Helvetica,sans-Serif" font-size="10.00">JSONentity.addLeaf</text>
</a>
</g>
</g>
<!-- Node1&#45;&gt;Node2 -->
<g id="edge1" class="edge"><title>Node1&#45;&gt;Node2</title>
<path fill="none" stroke="midnightblue" d="M39.9128,-88.2082C51.8391,-96.5219 69.9756,-108.4 87,-116.5 93.1904,-119.445 99.7895,-122.22 106.438,-124.787"/>
<polygon fill="midnightblue" stroke="midnightblue" points="105.58,-128.201 116.173,-128.395 108.013,-121.638 105.58,-128.201"/>
</g>
<!-- Node4 -->
<g id="node4" class="node"><title>Node4</title>
<g id="a_node4"><a xlink:href="classtomoBay_1_1presenters_1_1presenterActions_1_1concreteActions_1_1BuyerDetails.html#a03a0b25fcf5af4585ded3afef8887ca4" target="_top" xlink:title="getRawData">
<polygon fill="white" stroke="black" points="132,-88 132,-107 203,-107 203,-88 132,-88"/>
<text text-anchor="middle" x="167.5" y="-95" font-family="Helvetica,sans-Serif" font-size="10.00">getRawData</text>
</a>
</g>
</g>
<!-- Node1&#45;&gt;Node4 -->
<g id="edge3" class="edge"><title>Node1&#45;&gt;Node4</title>
<path fill="none" stroke="midnightblue" d="M51.2069,-81.8531C70.6951,-84.4979 98.3913,-88.2567 121.754,-91.4273"/>
<polygon fill="midnightblue" stroke="midnightblue" points="121.42,-94.914 131.8,-92.7907 122.361,-87.9776 121.42,-94.914"/>
</g>
<!-- Node8 -->
<g id="node8" class="node"><title>Node8</title>
<g id="a_node8"><a xlink:href="classtomoBay_1_1security_1_1SaneInput.html#acd49fdb5d11a2b2e22808c8135eca51f" target="_top" xlink:title="sanitise the string so that it will have no problems on converting to json ">
<polygon fill="white" stroke="black" points="87,-50 87,-69 248,-69 248,-50 87,-50"/>
<text text-anchor="middle" x="167.5" y="-57" font-family="Helvetica,sans-Serif" font-size="10.00">tomoBay.security.SaneInput.json</text>
</a>
</g>
</g>
<!-- Node1&#45;&gt;Node8 -->
<g id="edge7" class="edge"><title>Node1&#45;&gt;Node8</title>
<path fill="none" stroke="midnightblue" d="M51.2069,-75.1469C61.2412,-73.7851 73.4516,-72.128 86.126,-70.4079"/>
<polygon fill="midnightblue" stroke="midnightblue" points="86.919,-73.8325 96.3574,-69.0194 85.9775,-66.896 86.919,-73.8325"/>
</g>
<!-- Node9 -->
<g id="node9" class="node"><title>Node9</title>
<g id="a_node9"><a xlink:href="classtomoBay_1_1model_1_1dataTypes_1_1json_1_1JSONentity.html#a77e2151cf49df9f80a4999e0e9e54d55" target="_top" xlink:title="tomoBay.model.dataTypes.json.\lJSONentity.toString">
<polygon fill="white" stroke="black" points="88.5,-0.5 88.5,-30.5 246.5,-30.5 246.5,-0.5 88.5,-0.5"/>
<text text-anchor="start" x="96.5" y="-18.5" font-family="Helvetica,sans-Serif" font-size="10.00">tomoBay.model.dataTypes.json.</text>
<text text-anchor="middle" x="167.5" y="-7.5" font-family="Helvetica,sans-Serif" font-size="10.00">JSONentity.toString</text>
</a>
</g>
</g>
<!-- Node1&#45;&gt;Node9 -->
<g id="edge8" class="edge"><title>Node1&#45;&gt;Node9</title>
<path fill="none" stroke="midnightblue" d="M39.8678,-68.6958C51.7652,-60.3205 69.8847,-48.4065 87,-40.5 91.9255,-38.2246 97.1139,-36.0795 102.382,-34.0751"/>
<polygon fill="midnightblue" stroke="midnightblue" points="103.703,-37.3192 111.913,-30.6218 101.319,-30.7379 103.703,-37.3192"/>
</g>
<!-- Node3 -->
<g id="node3" class="node"><title>Node3</title>
<g id="a_node3"><a xlink:href="classtomoBay_1_1model_1_1dataTypes_1_1DualList.html#ac6c5d11a7054f49bb7c9489f5893daeb" target="_top" xlink:title="add a value pair to the DualList ">
<polygon fill="white" stroke="black" points="312.5,-131.5 312.5,-161.5 449.5,-161.5 449.5,-131.5 312.5,-131.5"/>
<text text-anchor="start" x="320.5" y="-149.5" font-family="Helvetica,sans-Serif" font-size="10.00">tomoBay.model.dataTypes.</text>
<text text-anchor="middle" x="381" y="-138.5" font-family="Helvetica,sans-Serif" font-size="10.00">DualList.put</text>
</a>
</g>
</g>
<!-- Node2&#45;&gt;Node3 -->
<g id="edge2" class="edge"><title>Node2&#45;&gt;Node3</title>
<path fill="none" stroke="midnightblue" d="M246.654,-144.609C264.739,-144.865 283.982,-145.138 302.058,-145.394"/>
<polygon fill="midnightblue" stroke="midnightblue" points="302.208,-148.897 312.256,-145.539 302.307,-141.898 302.208,-148.897"/>
</g>
<!-- Node5 -->
<g id="node5" class="node"><title>Node5</title>
<g id="a_node5"><a xlink:href="classtomoBay_1_1model_1_1dataTypes_1_1heteroTypeContainer_1_1HeteroFieldContainer.html#a3ba6289417930238a36bfee0056b6398" target="_top" xlink:title="add an arbitrary value to this Field container with the stipulation that this value is of the same ty...">
<polygon fill="white" stroke="black" points="284,-82.5 284,-112.5 478,-112.5 478,-82.5 284,-82.5"/>
<text text-anchor="start" x="292" y="-100.5" font-family="Helvetica,sans-Serif" font-size="10.00">tomoBay.model.dataTypes.hetero</text>
<text text-anchor="middle" x="381" y="-89.5" font-family="Helvetica,sans-Serif" font-size="10.00">TypeContainer.HeteroFieldContainer.add</text>
</a>
</g>
</g>
<!-- Node4&#45;&gt;Node5 -->
<g id="edge4" class="edge"><title>Node4&#45;&gt;Node5</title>
<path fill="none" stroke="midnightblue" d="M203.425,-97.5C222.898,-97.5 248.3,-97.5 273.742,-97.5"/>
<polygon fill="midnightblue" stroke="midnightblue" points="273.862,-101 283.862,-97.5 273.862,-94.0001 273.862,-101"/>
</g>
<!-- Node7 -->
<g id="node7" class="node"><title>Node7</title>
<g id="a_node7"><a xlink:href="classtomoBay_1_1model_1_1sql_1_1framework_1_1SelectQueryInvoker.html#a594282bcbcc0731a7d234482717422d7" target="_top" xlink:title="execute a requested query ">
<polygon fill="white" stroke="black" points="305,-33.5 305,-63.5 457,-63.5 457,-33.5 305,-33.5"/>
<text text-anchor="start" x="313" y="-51.5" font-family="Helvetica,sans-Serif" font-size="10.00">tomoBay.model.sql.framework.</text>
<text text-anchor="middle" x="381" y="-40.5" font-family="Helvetica,sans-Serif" font-size="10.00">SelectQueryInvoker.execute</text>
</a>
</g>
</g>
<!-- Node4&#45;&gt;Node7 -->
<g id="edge6" class="edge"><title>Node4&#45;&gt;Node7</title>
<path fill="none" stroke="midnightblue" d="M203.425,-89.4086C230.976,-83.0257 270.397,-73.8927 305.005,-65.8748"/>
<polygon fill="midnightblue" stroke="midnightblue" points="306.145,-69.2035 315.097,-63.5367 304.565,-62.3841 306.145,-69.2035"/>
</g>
<!-- Node6 -->
<g id="node6" class="node"><title>Node6</title>
<g id="a_node6"><a xlink:href="classtomoBay_1_1model_1_1dataTypes_1_1heteroTypeContainer_1_1HeteroFieldContainer.html#a9dee3c01eb5ab16203e1c6820a569484" target="_top" xlink:title="performs a type check, assuming that field and type are of the same type then this method returns tru...">
<polygon fill="white" stroke="black" points="514,-77 514,-118 700,-118 700,-77 514,-77"/>
<text text-anchor="start" x="522" y="-106" font-family="Helvetica,sans-Serif" font-size="10.00">tomoBay.model.dataTypes.hetero</text>
<text text-anchor="start" x="522" y="-95" font-family="Helvetica,sans-Serif" font-size="10.00">TypeContainer.HeteroFieldContainer.is</text>
<text text-anchor="middle" x="607" y="-84" font-family="Helvetica,sans-Serif" font-size="10.00">SameType</text>
</a>
</g>
</g>
<!-- Node5&#45;&gt;Node6 -->
<g id="edge5" class="edge"><title>Node5&#45;&gt;Node6</title>
<path fill="none" stroke="midnightblue" d="M478.296,-97.5C486.642,-97.5 495.106,-97.5 503.499,-97.5"/>
<polygon fill="midnightblue" stroke="midnightblue" points="503.688,-101 513.688,-97.5 503.688,-94.0001 503.688,-101"/>
</g>
</g>
</svg>
