<?xml version="1.0" encoding="UTF-8" standalone="no"?>
<!DOCTYPE svg PUBLIC "-//W3C//DTD SVG 1.1//EN"
 "http://www.w3.org/Graphics/SVG/1.1/DTD/svg11.dtd">
<!-- Generated by graphviz version 2.38.0 (20140413.2041)
 -->
<!-- Title: tomoBay.model.services.helpers.PartList.getPartNumber Pages: 1 -->
<!--zoomable 286 -->
<svg id="main" version="1.1" xmlns="http://www.w3.org/2000/svg" xmlns:xlink="http://www.w3.org/1999/xlink" xml:space="preserve" onload="init(evt)">
<style type="text/css"><![CDATA[
.edge:hover path { stroke: red; }
.edge:hover polygon { stroke: red; fill: red; }
]]></style>
<script type="text/javascript"><![CDATA[
var edges = document.getElementsByTagName('g');
if (edges && edges.length) {
  for (var i=0;i<edges.length;i++) {
    if (edges[i].id.substr(0,4)=='edge') {
      edges[i].setAttribute('class','edge');
    }
  }
}
]]></script>
        <defs>
                <circle id="rim" cx="0" cy="0" r="7"/>
                <circle id="rim2" cx="0" cy="0" r="3.5"/>
                <g id="zoomPlus">
                        <use xlink:href="#rim" fill="#404040">
                                <set attributeName="fill" to="#808080" begin="zoomplus.mouseover" end="zoomplus.mouseout"/>
                        </use>
                        <path d="M-4,0h8M0,-4v8" fill="none" stroke="white" stroke-width="1.5" pointer-events="none"/>
                </g>
                <g id="zoomMin">
                        <use xlink:href="#rim" fill="#404040">
                                <set attributeName="fill" to="#808080" begin="zoomminus.mouseover" end="zoomminus.mouseout"/>
                        </use>
                        <path d="M-4,0h8" fill="none" stroke="white" stroke-width="1.5" pointer-events="none"/>
                </g>
                <g id="dirArrow">
                        <path fill="none" stroke="white" stroke-width="1.5" d="M0,-3.0v7 M-2.5,-0.5L0,-3.0L2.5,-0.5"/>
                </g>
               <g id="resetDef">
                       <use xlink:href="#rim2" fill="#404040">
                               <set attributeName="fill" to="#808080" begin="reset.mouseover" end="reset.mouseout"/>
                       </use>
               </g>
        </defs>

<script type="text/javascript">
var viewWidth = 1224;
var viewHeight = 286;
var sectionId = 'dynsection-9';
</script>
<script xlink:href="svgpan.js"/>
<svg id="graph" class="graph">
<g id="viewport">
<title>tomoBay.model.services.helpers.PartList.getPartNumber</title>
<!-- Node1 -->
<g id="node1" class="node"><title>Node1</title>
<polygon fill="#bfbfbf" stroke="black" points="0,-119 0,-149 162,-149 162,-119 0,-119"/>
<text text-anchor="start" x="8" y="-137" font-family="Helvetica,sans-Serif" font-size="10.00">tomoBay.model.services.helpers.</text>
<text text-anchor="middle" x="81" y="-126" font-family="Helvetica,sans-Serif" font-size="10.00">PartList.getPartNumber</text>
</g>
<!-- Node2 -->
<g id="node2" class="node"><title>Node2</title>
<g id="a_node2"><a xlink:href="classtomoBay_1_1model_1_1services_1_1individualItemRefresh_1_1ReCalculateAvailableStock.html#a96fe253ce37a93d8ec8ee54504e1da9f" target="_top" xlink:title="tomoBay.model.services.individual\lItemRefresh.ReCalculateAvailableStock.calculate">
<polygon fill="none" stroke="black" points="455,-53 455,-83 690,-83 690,-53 455,-53"/>
<text text-anchor="start" x="463" y="-71" font-family="Helvetica,sans-Serif" font-size="10.00">tomoBay.model.services.individual</text>
<text text-anchor="middle" x="572.5" y="-60" font-family="Helvetica,sans-Serif" font-size="10.00">ItemRefresh.ReCalculateAvailableStock.calculate</text>
</a>
</g>
</g>
<!-- Node1&#45;&gt;Node2 -->
<g id="edge1" class="edge"><title>Node1&#45;&gt;Node2</title>
<path fill="none" stroke="midnightblue" d="M132.371,-115.709C152.525,-109.094 176.114,-102.221 198,-98 283.114,-81.5837 380.815,-74.1292 454.939,-70.7547"/>
<polygon fill="midnightblue" stroke="midnightblue" points="131.146,-112.428 122.775,-118.923 133.369,-119.066 131.146,-112.428"/>
</g>
<!-- Node4 -->
<g id="node4" class="node"><title>Node4</title>
<g id="a_node4"><a xlink:href="classtomoBay_1_1model_1_1services_1_1invoiceOrderService_1_1CalculateInvoiceStatus.html#a36bda615a95d80b2d5d3b24e04f6ae96" target="_top" xlink:title="tomoBay.model.services.invoice\lOrderService.CalculateInvoiceStatus.check\lStockLevelOfItems">
<polygon fill="none" stroke="black" points="204,-182.5 204,-223.5 411,-223.5 411,-182.5 204,-182.5"/>
<text text-anchor="start" x="212" y="-211.5" font-family="Helvetica,sans-Serif" font-size="10.00">tomoBay.model.services.invoice</text>
<text text-anchor="start" x="212" y="-200.5" font-family="Helvetica,sans-Serif" font-size="10.00">OrderService.CalculateInvoiceStatus.check</text>
<text text-anchor="middle" x="307.5" y="-189.5" font-family="Helvetica,sans-Serif" font-size="10.00">StockLevelOfItems</text>
</a>
</g>
</g>
<!-- Node1&#45;&gt;Node4 -->
<g id="edge3" class="edge"><title>Node1&#45;&gt;Node4</title>
<path fill="none" stroke="midnightblue" d="M140.599,-152.01C170.987,-161.35 208.233,-172.798 239.73,-182.478"/>
<polygon fill="midnightblue" stroke="midnightblue" points="141.577,-148.649 130.99,-149.057 139.52,-155.341 141.577,-148.649"/>
</g>
<!-- Node7 -->
<g id="node7" class="node"><title>Node7</title>
<g id="a_node7"><a xlink:href="classtomoBay_1_1model_1_1services_1_1stockUpdate_1_1StockRequired.html#ad3cbc11f463b3095fc210f3c1535c97f" target="_top" xlink:title="tomoBay.model.services.stock\lUpdate.StockRequired.insertORUpdate">
<polygon fill="none" stroke="black" points="213,-242 213,-272 402,-272 402,-242 213,-242"/>
<text text-anchor="start" x="221" y="-260" font-family="Helvetica,sans-Serif" font-size="10.00">tomoBay.model.services.stock</text>
<text text-anchor="middle" x="307.5" y="-249" font-family="Helvetica,sans-Serif" font-size="10.00">Update.StockRequired.insertORUpdate</text>
</a>
</g>
</g>
<!-- Node1&#45;&gt;Node7 -->
<g id="edge7" class="edge"><title>Node1&#45;&gt;Node7</title>
<path fill="none" stroke="midnightblue" d="M101.941,-156.545C123.393,-179.351 159.628,-213.889 198,-233 204.908,-236.44 212.305,-239.392 219.872,-241.922"/>
<polygon fill="midnightblue" stroke="midnightblue" points="104.344,-153.988 94.9899,-149.012 99.1989,-158.735 104.344,-153.988"/>
</g>
<!-- Node10 -->
<g id="node10" class="node"><title>Node10</title>
<g id="a_node10"><a xlink:href="classtomoBay_1_1model_1_1services_1_1stockUpdate_1_1StockUpdateService.html#a4ca5d3569102ee0441f7f5548ea297b0" target="_top" xlink:title="tomoBay.model.services.stock\lUpdate.StockUpdateService.run">
<polygon fill="none" stroke="black" points="1028,-191 1028,-221 1186,-221 1186,-191 1028,-191"/>
<text text-anchor="start" x="1036" y="-209" font-family="Helvetica,sans-Serif" font-size="10.00">tomoBay.model.services.stock</text>
<text text-anchor="middle" x="1107" y="-198" font-family="Helvetica,sans-Serif" font-size="10.00">Update.StockUpdateService.run</text>
</a>
</g>
</g>
<!-- Node1&#45;&gt;Node10 -->
<g id="edge17" class="edge"><title>Node1&#45;&gt;Node10</title>
<path fill="none" stroke="midnightblue" d="M172.348,-138.679C181.018,-139.126 189.677,-139.572 198,-140 537.55,-157.448 624.374,-138.914 962,-179 986.374,-181.894 1012.83,-186.443 1036.34,-190.987"/>
<polygon fill="midnightblue" stroke="midnightblue" points="172.353,-135.175 162.186,-138.155 171.992,-142.165 172.353,-135.175"/>
</g>
<!-- Node11 -->
<g id="node11" class="node"><title>Node11</title>
<g id="a_node11"><a xlink:href="classtomoBay_1_1model_1_1services_1_1individualItemRefresh_1_1ReCalculateRequiredStock.html#ab5ff7a49bdb7d81c8b0e0ac0e35aed65" target="_top" xlink:title="tomoBay.model.services.individual\lItemRefresh.ReCalculateRequiredStock.insert\lOrUpdate">
<polygon fill="none" stroke="black" points="198,-0.5 198,-41.5 417,-41.5 417,-0.5 198,-0.5"/>
<text text-anchor="start" x="206" y="-29.5" font-family="Helvetica,sans-Serif" font-size="10.00">tomoBay.model.services.individual</text>
<text text-anchor="start" x="206" y="-18.5" font-family="Helvetica,sans-Serif" font-size="10.00">ItemRefresh.ReCalculateRequiredStock.insert</text>
<text text-anchor="middle" x="307.5" y="-7.5" font-family="Helvetica,sans-Serif" font-size="10.00">OrUpdate</text>
</a>
</g>
</g>
<!-- Node1&#45;&gt;Node11 -->
<g id="edge11" class="edge"><title>Node1&#45;&gt;Node11</title>
<path fill="none" stroke="midnightblue" d="M109.306,-112.841C132.054,-95.9773 165.819,-72.672 198,-57 209.777,-51.2649 222.692,-46.0941 235.378,-41.5779"/>
<polygon fill="midnightblue" stroke="midnightblue" points="107.05,-110.158 101.153,-118.96 111.252,-115.757 107.05,-110.158"/>
</g>
<!-- Node14 -->
<g id="node14" class="node"><title>Node14</title>
<g id="a_node14"><a xlink:href="classtomoBay_1_1model_1_1services_1_1individualItemRefresh_1_1RePopulateEbayItem.html#a98a1d6b2dd721103e85213f3e65e9952" target="_top" xlink:title="tomoBay.model.services.individual\lItemRefresh.RePopulateEbayItem.reset\lBrandTable">
<polygon fill="none" stroke="black" points="749.5,-88.5 749.5,-129.5 940.5,-129.5 940.5,-88.5 749.5,-88.5"/>
<text text-anchor="start" x="757.5" y="-117.5" font-family="Helvetica,sans-Serif" font-size="10.00">tomoBay.model.services.individual</text>
<text text-anchor="start" x="757.5" y="-106.5" font-family="Helvetica,sans-Serif" font-size="10.00">ItemRefresh.RePopulateEbayItem.reset</text>
<text text-anchor="middle" x="845" y="-95.5" font-family="Helvetica,sans-Serif" font-size="10.00">BrandTable</text>
</a>
</g>
</g>
<!-- Node1&#45;&gt;Node14 -->
<g id="edge15" class="edge"><title>Node1&#45;&gt;Node14</title>
<path fill="none" stroke="midnightblue" d="M172.315,-131.037C317.48,-126.274 601.375,-116.96 749.287,-112.107"/>
<polygon fill="midnightblue" stroke="midnightblue" points="171.987,-127.546 162.107,-131.372 172.217,-134.542 171.987,-127.546"/>
</g>
<!-- Node3 -->
<g id="node3" class="node"><title>Node3</title>
<g id="a_node3"><a xlink:href="classtomoBay_1_1model_1_1services_1_1individualItemRefresh_1_1IndividualItemRefreshService.html#a579244b8909621f27fc4871a532f87ee" target="_top" xlink:title="tomoBay.model.services.individual\lItemRefresh.IndividualItemRefreshService.run">
<polygon fill="none" stroke="black" points="998,-45 998,-75 1216,-75 1216,-45 998,-45"/>
<text text-anchor="start" x="1006" y="-63" font-family="Helvetica,sans-Serif" font-size="10.00">tomoBay.model.services.individual</text>
<text text-anchor="middle" x="1107" y="-52" font-family="Helvetica,sans-Serif" font-size="10.00">ItemRefresh.IndividualItemRefreshService.run</text>
</a>
</g>
</g>
<!-- Node2&#45;&gt;Node3 -->
<g id="edge2" class="edge"><title>Node2&#45;&gt;Node3</title>
<path fill="none" stroke="midnightblue" d="M700.101,-66.098C790.815,-64.7352 911.694,-62.9192 997.891,-61.6242"/>
<polygon fill="midnightblue" stroke="midnightblue" points="699.976,-62.5994 690.03,-66.2493 700.082,-69.5986 699.976,-62.5994"/>
</g>
<!-- Node5 -->
<g id="node5" class="node"><title>Node5</title>
<g id="a_node5"><a xlink:href="classtomoBay_1_1model_1_1services_1_1invoiceOrderService_1_1CalculateInvoiceStatus.html#ad6339cffa2c8fa1f1030aa611eda0073" target="_top" xlink:title="tomoBay.model.services.invoice\lOrderService.CalculateInvoiceStatus.status">
<polygon fill="none" stroke="black" points="468.5,-188 468.5,-218 676.5,-218 676.5,-188 468.5,-188"/>
<text text-anchor="start" x="476.5" y="-206" font-family="Helvetica,sans-Serif" font-size="10.00">tomoBay.model.services.invoice</text>
<text text-anchor="middle" x="572.5" y="-195" font-family="Helvetica,sans-Serif" font-size="10.00">OrderService.CalculateInvoiceStatus.status</text>
</a>
</g>
</g>
<!-- Node4&#45;&gt;Node5 -->
<g id="edge4" class="edge"><title>Node4&#45;&gt;Node5</title>
<path fill="none" stroke="midnightblue" d="M421.478,-196.31C437.04,-196.209 452.954,-196.236 468.326,-196.391"/>
<polygon fill="midnightblue" stroke="midnightblue" points="421.283,-192.811 411.313,-196.395 421.342,-199.811 421.283,-192.811"/>
</g>
<!-- Node5&#45;&gt;Node4 -->
<g id="edge5" class="edge"><title>Node5&#45;&gt;Node4</title>
<path fill="none" stroke="midnightblue" d="M458.156,-209.692C442.589,-209.792 426.676,-209.763 411.313,-209.605"/>
<polygon fill="midnightblue" stroke="midnightblue" points="458.356,-213.191 468.326,-209.609 458.298,-206.191 458.356,-213.191"/>
</g>
<!-- Node6 -->
<g id="node6" class="node"><title>Node6</title>
<g id="a_node6"><a xlink:href="classtomoBay_1_1model_1_1services_1_1invoiceOrderService_1_1InvoiceService.html#ad8015302f0357597a82b61512755a1ed" target="_top" xlink:title="tomoBay.model.services.invoice\lOrderService.InvoiceService.run">
<polygon fill="none" stroke="black" points="766,-188 766,-218 924,-218 924,-188 766,-188"/>
<text text-anchor="start" x="774" y="-206" font-family="Helvetica,sans-Serif" font-size="10.00">tomoBay.model.services.invoice</text>
<text text-anchor="middle" x="845" y="-195" font-family="Helvetica,sans-Serif" font-size="10.00">OrderService.InvoiceService.run</text>
</a>
</g>
</g>
<!-- Node5&#45;&gt;Node6 -->
<g id="edge6" class="edge"><title>Node5&#45;&gt;Node6</title>
<path fill="none" stroke="midnightblue" d="M686.658,-203C713.239,-203 740.991,-203 765.655,-203"/>
<polygon fill="midnightblue" stroke="midnightblue" points="686.536,-199.5 676.536,-203 686.536,-206.5 686.536,-199.5"/>
</g>
<!-- Node8 -->
<g id="node8" class="node"><title>Node8</title>
<g id="a_node8"><a xlink:href="classtomoBay_1_1model_1_1services_1_1stockUpdate_1_1StockRequired.html#a493c422b0f5f59b217afed68fa026611" target="_top" xlink:title="tomoBay.model.services.stock\lUpdate.StockRequired.iterateThrough\lPartsList">
<polygon fill="none" stroke="black" points="482,-236.5 482,-277.5 663,-277.5 663,-236.5 482,-236.5"/>
<text text-anchor="start" x="490" y="-265.5" font-family="Helvetica,sans-Serif" font-size="10.00">tomoBay.model.services.stock</text>
<text text-anchor="start" x="490" y="-254.5" font-family="Helvetica,sans-Serif" font-size="10.00">Update.StockRequired.iterateThrough</text>
<text text-anchor="middle" x="572.5" y="-243.5" font-family="Helvetica,sans-Serif" font-size="10.00">PartsList</text>
</a>
</g>
</g>
<!-- Node7&#45;&gt;Node8 -->
<g id="edge8" class="edge"><title>Node7&#45;&gt;Node8</title>
<path fill="none" stroke="midnightblue" d="M412.415,-257C435.313,-257 459.38,-257 481.666,-257"/>
<polygon fill="midnightblue" stroke="midnightblue" points="412.335,-253.5 402.335,-257 412.335,-260.5 412.335,-253.5"/>
</g>
<!-- Node9 -->
<g id="node9" class="node"><title>Node9</title>
<g id="a_node9"><a xlink:href="classtomoBay_1_1model_1_1services_1_1stockUpdate_1_1StockRequired.html#af34f448b2e06ca4c1a6b6b9eab4151ee" target="_top" xlink:title="tomoBay.model.services.stock\lUpdate.StockRequired.calculate">
<polygon fill="none" stroke="black" points="766,-239 766,-269 924,-269 924,-239 766,-239"/>
<text text-anchor="start" x="774" y="-257" font-family="Helvetica,sans-Serif" font-size="10.00">tomoBay.model.services.stock</text>
<text text-anchor="middle" x="845" y="-246" font-family="Helvetica,sans-Serif" font-size="10.00">Update.StockRequired.calculate</text>
</a>
</g>
</g>
<!-- Node8&#45;&gt;Node9 -->
<g id="edge9" class="edge"><title>Node8&#45;&gt;Node9</title>
<path fill="none" stroke="midnightblue" d="M673.437,-255.892C703.952,-255.553 737.046,-255.186 765.891,-254.866"/>
<polygon fill="midnightblue" stroke="midnightblue" points="673.157,-252.394 663.197,-256.005 673.235,-259.394 673.157,-252.394"/>
</g>
<!-- Node9&#45;&gt;Node10 -->
<g id="edge10" class="edge"><title>Node9&#45;&gt;Node10</title>
<path fill="none" stroke="midnightblue" d="M934.142,-237.728C964.438,-232.135 998.129,-225.915 1027.6,-220.474"/>
<polygon fill="midnightblue" stroke="midnightblue" points="933.207,-234.341 924.009,-239.598 934.478,-241.225 933.207,-234.341"/>
</g>
<!-- Node12 -->
<g id="node12" class="node"><title>Node12</title>
<g id="a_node12"><a xlink:href="classtomoBay_1_1model_1_1services_1_1individualItemRefresh_1_1ReCalculateRequiredStock.html#ad98eddf85b6775466de64576a5eff165" target="_top" xlink:title="tomoBay.model.services.individual\lItemRefresh.ReCalculateRequiredStock.updateDB">
<polygon fill="none" stroke="black" points="453,-4 453,-34 692,-34 692,-4 453,-4"/>
<text text-anchor="start" x="461" y="-22" font-family="Helvetica,sans-Serif" font-size="10.00">tomoBay.model.services.individual</text>
<text text-anchor="middle" x="572.5" y="-11" font-family="Helvetica,sans-Serif" font-size="10.00">ItemRefresh.ReCalculateRequiredStock.updateDB</text>
</a>
</g>
</g>
<!-- Node11&#45;&gt;Node12 -->
<g id="edge12" class="edge"><title>Node11&#45;&gt;Node12</title>
<path fill="none" stroke="midnightblue" d="M427.595,-20.0943C436.012,-20.0303 444.498,-19.9658 452.912,-19.9018"/>
<polygon fill="midnightblue" stroke="midnightblue" points="427.344,-16.596 417.371,-20.1721 427.397,-23.5958 427.344,-16.596"/>
</g>
<!-- Node13 -->
<g id="node13" class="node"><title>Node13</title>
<g id="a_node13"><a xlink:href="classtomoBay_1_1model_1_1services_1_1individualItemRefresh_1_1ReCalculateRequiredStock.html#a60d11306692f52091266b66f1c7f03db" target="_top" xlink:title="tomoBay.model.services.individual\lItemRefresh.ReCalculateRequiredStock.calculate">
<polygon fill="none" stroke="black" points="728,-1 728,-31 962,-31 962,-1 728,-1"/>
<text text-anchor="start" x="736" y="-19" font-family="Helvetica,sans-Serif" font-size="10.00">tomoBay.model.services.individual</text>
<text text-anchor="middle" x="845" y="-8" font-family="Helvetica,sans-Serif" font-size="10.00">ItemRefresh.ReCalculateRequiredStock.calculate</text>
</a>
</g>
</g>
<!-- Node12&#45;&gt;Node13 -->
<g id="edge13" class="edge"><title>Node12&#45;&gt;Node13</title>
<path fill="none" stroke="midnightblue" d="M702.397,-17.5705C710.821,-17.477 719.279,-17.3832 727.639,-17.2905"/>
<polygon fill="midnightblue" stroke="midnightblue" points="702.106,-14.0734 692.145,-17.6842 702.183,-21.0729 702.106,-14.0734"/>
</g>
<!-- Node13&#45;&gt;Node3 -->
<g id="edge14" class="edge"><title>Node13&#45;&gt;Node3</title>
<path fill="none" stroke="midnightblue" d="M944.846,-32.7277C968.637,-36.754 993.908,-41.0306 1017.21,-44.9738"/>
<polygon fill="midnightblue" stroke="midnightblue" points="945.194,-29.237 934.75,-31.0192 944.026,-36.1388 945.194,-29.237"/>
</g>
<!-- Node14&#45;&gt;Node3 -->
<g id="edge16" class="edge"><title>Node14&#45;&gt;Node3</title>
<path fill="none" stroke="midnightblue" d="M950.542,-89.2979C975.702,-84.5561 1002.19,-79.5648 1026.02,-75.0725"/>
<polygon fill="midnightblue" stroke="midnightblue" points="949.78,-85.8797 940.601,-91.1713 951.077,-92.7586 949.78,-85.8797"/>
</g>
</g>
</svg>
        <g id="navigator" transform="translate(0 0)" fill="#404254">
                <rect fill="#f2f5e9" fill-opacity="0.5" stroke="#606060" stroke-width=".5" x="0" y="0" width="60" height="60"/>
                <use id="zoomplus" xlink:href="#zoomPlus" x="17" y="9" onmousedown="handleZoom(evt,'in')"/>
                <use id="zoomminus" xlink:href="#zoomMin" x="42" y="9" onmousedown="handleZoom(evt,'out')"/>
                <use id="reset" xlink:href="#resetDef" x="30" y="36" onmousedown="handleReset()"/>
                <g id="arrowUp" xlink:href="#dirArrow" transform="translate(30 24)" onmousedown="handlePan(0,-1)">
                  <use xlink:href="#rim" fill="#404040">
                        <set attributeName="fill" to="#808080" begin="arrowUp.mouseover" end="arrowUp.mouseout"/>
                  </use>
                  <path fill="none" stroke="white" stroke-width="1.5" d="M0,-3.0v7 M-2.5,-0.5L0,-3.0L2.5,-0.5"/>
                </g>
                <g id="arrowRight" xlink:href="#dirArrow" transform="rotate(90) translate(36 -43)" onmousedown="handlePan(1,0)">
                  <use xlink:href="#rim" fill="#404040">
                        <set attributeName="fill" to="#808080" begin="arrowRight.mouseover" end="arrowRight.mouseout"/>
                  </use>
                  <path fill="none" stroke="white" stroke-width="1.5" d="M0,-3.0v7 M-2.5,-0.5L0,-3.0L2.5,-0.5"/>
                </g>
                <g id="arrowDown" xlink:href="#dirArrow" transform="rotate(180) translate(-30 -48)" onmousedown="handlePan(0,1)">
                  <use xlink:href="#rim" fill="#404040">
                        <set attributeName="fill" to="#808080" begin="arrowDown.mouseover" end="arrowDown.mouseout"/>
                  </use>
                  <path fill="none" stroke="white" stroke-width="1.5" d="M0,-3.0v7 M-2.5,-0.5L0,-3.0L2.5,-0.5"/>
                </g>
                <g id="arrowLeft" xlink:href="#dirArrow" transform="rotate(270) translate(-36 17)" onmousedown="handlePan(-1,0)">
                  <use xlink:href="#rim" fill="#404040">
                        <set attributeName="fill" to="#808080" begin="arrowLeft.mouseover" end="arrowLeft.mouseout"/>
                  </use>
                  <path fill="none" stroke="white" stroke-width="1.5" d="M0,-3.0v7 M-2.5,-0.5L0,-3.0L2.5,-0.5"/>
                </g>
        </g>
        <svg viewBox="0 0 15 15" width="100%" height="30px" preserveAspectRatio="xMaxYMin meet">
         <g id="arrow_out" transform="scale(0.3 0.3)">
          <a xlink:href="classtomoBay_1_1model_1_1services_1_1helpers_1_1PartList_ad78e5b214d7f6060e461abac7fca9559_icgraph_org.svg" target="_base">
           <rect id="button" ry="5" rx="5" y="6" x="6" height="38" width="38"
                fill="#f2f5e9" fill-opacity="0.5" stroke="#606060" stroke-width="1.0"/>
           <path id="arrow"
             d="M 11.500037,31.436501 C 11.940474,20.09759 22.043105,11.32322 32.158766,21.979434 L 37.068811,17.246167 C 37.068811,17.246167 37.088388,32 37.088388,32 L 22.160133,31.978069 C 22.160133,31.978069 26.997745,27.140456 26.997745,27.140456 C 18.528582,18.264221 13.291696,25.230495 11.500037,31.436501 z"
             style="fill:#404040;"/>
          </a>
         </g>
        </svg>
</svg>
