<?xml version="1.0" encoding="UTF-8" standalone="no"?>
<!DOCTYPE svg PUBLIC "-//W3C//DTD SVG 1.1//EN"
 "http://www.w3.org/Graphics/SVG/1.1/DTD/svg11.dtd">
<!-- Generated by graphviz version 2.38.0 (20140413.2041)
 -->
<!-- Title: add Pages: 1 -->
<svg width="211pt" height="28pt"
 viewBox="0.00 0.00 211.00 28.00" xmlns="http://www.w3.org/2000/svg" xmlns:xlink="http://www.w3.org/1999/xlink">
<g id="graph0" class="graph" transform="scale(1 1) rotate(0) translate(4 24)">
<title>add</title>
<polygon fill="white" stroke="none" points="-4,4 -4,-24 207,-24 207,4 -4,4"/>
<!-- Node1 -->
<g id="node1" class="node"><title>Node1</title>
<polygon fill="#bfbfbf" stroke="black" points="0,-0.5 0,-19.5 32,-19.5 32,-0.5 0,-0.5"/>
<text text-anchor="middle" x="16" y="-7.5" font-family="Helvetica,sans-Serif" font-size="10.00">add</text>
</g>
<!-- Node2 -->
<g id="node2" class="node"><title>Node2</title>
<g id="a_node2"><a xlink:href="classtomoBay_1_1model_1_1dataTypes_1_1PartList.html#a5820ad58620d1c2f8e4ad5235b16aff8" target="_top" xlink:title="convert">
<polygon fill="white" stroke="black" points="68,-0.5 68,-19.5 117,-19.5 117,-0.5 68,-0.5"/>
<text text-anchor="middle" x="92.5" y="-7.5" font-family="Helvetica,sans-Serif" font-size="10.00">convert</text>
</a>
</g>
</g>
<!-- Node1&#45;&gt;Node2 -->
<g id="edge1" class="edge"><title>Node1&#45;&gt;Node2</title>
<path fill="none" stroke="midnightblue" d="M42.3097,-10C50.6028,-10 59.7788,-10 67.9373,-10"/>
<polygon fill="midnightblue" stroke="midnightblue" points="42.0762,-6.5001 32.0762,-10 42.0762,-13.5001 42.0762,-6.5001"/>
</g>
<!-- Node3 -->
<g id="node3" class="node"><title>Node3</title>
<g id="a_node3"><a xlink:href="classtomoBay_1_1model_1_1dataTypes_1_1PartList.html#a9d767398e5db37d3b2f42bef966bbc44" target="_top" xlink:title="creates a part list with the partNoString provided. ">
<polygon fill="white" stroke="black" points="153,-0.5 153,-19.5 203,-19.5 203,-0.5 153,-0.5"/>
<text text-anchor="middle" x="178" y="-7.5" font-family="Helvetica,sans-Serif" font-size="10.00">PartList</text>
</a>
</g>
</g>
<!-- Node2&#45;&gt;Node3 -->
<g id="edge2" class="edge"><title>Node2&#45;&gt;Node3</title>
<path fill="none" stroke="midnightblue" d="M127.339,-10C135.919,-10 144.963,-10 152.946,-10"/>
<polygon fill="midnightblue" stroke="midnightblue" points="127.204,-6.5001 117.204,-10 127.204,-13.5001 127.204,-6.5001"/>
</g>
</g>
</svg>
