<?xml version="1.0" encoding="UTF-8" standalone="no"?>
<!DOCTYPE svg PUBLIC "-//W3C//DTD SVG 1.1//EN"
 "http://www.w3.org/Graphics/SVG/1.1/DTD/svg11.dtd">
<!-- Generated by graphviz version 2.38.0 (20140413.2041)
 -->
<!-- Title: tomoBay.model.services.individualItemRefresh.IndividualItemRefreshService.run Pages: 1 -->
<!--zoomable 697 -->
<svg id="main" version="1.1" xmlns="http://www.w3.org/2000/svg" xmlns:xlink="http://www.w3.org/1999/xlink" xml:space="preserve" onload="init(evt)">
<style type="text/css"><![CDATA[
.edge:hover path { stroke: red; }
.edge:hover polygon { stroke: red; fill: red; }
]]></style>
<script type="text/javascript"><![CDATA[
var edges = document.getElementsByTagName('g');
if (edges && edges.length) {
  for (var i=0;i<edges.length;i++) {
    if (edges[i].id.substr(0,4)=='edge') {
      edges[i].setAttribute('class','edge');
    }
  }
}
]]></script>
        <defs>
                <circle id="rim" cx="0" cy="0" r="7"/>
                <circle id="rim2" cx="0" cy="0" r="3.5"/>
                <g id="zoomPlus">
                        <use xlink:href="#rim" fill="#404040">
                                <set attributeName="fill" to="#808080" begin="zoomplus.mouseover" end="zoomplus.mouseout"/>
                        </use>
                        <path d="M-4,0h8M0,-4v8" fill="none" stroke="white" stroke-width="1.5" pointer-events="none"/>
                </g>
                <g id="zoomMin">
                        <use xlink:href="#rim" fill="#404040">
                                <set attributeName="fill" to="#808080" begin="zoomminus.mouseover" end="zoomminus.mouseout"/>
                        </use>
                        <path d="M-4,0h8" fill="none" stroke="white" stroke-width="1.5" pointer-events="none"/>
                </g>
                <g id="dirArrow">
                        <path fill="none" stroke="white" stroke-width="1.5" d="M0,-3.0v7 M-2.5,-0.5L0,-3.0L2.5,-0.5"/>
                </g>
               <g id="resetDef">
                       <use xlink:href="#rim2" fill="#404040">
                               <set attributeName="fill" to="#808080" begin="reset.mouseover" end="reset.mouseout"/>
                       </use>
               </g>
        </defs>

<script type="text/javascript">
var viewWidth = 1701;
var viewHeight = 697;
var sectionId = 'dynsection-5';
</script>
<script xlink:href="svgpan.js"/>
<svg id="graph" class="graph">
<g id="viewport">
<title>tomoBay.model.services.individualItemRefresh.IndividualItemRefreshService.run</title>
<!-- Node1 -->
<g id="node1" class="node"><title>Node1</title>
<polygon fill="#bfbfbf" stroke="black" points="0,-144 0,-174 218,-174 218,-144 0,-144"/>
<text text-anchor="start" x="8" y="-162" font-family="Helvetica,sans-Serif" font-size="10.00">tomoBay.model.services.individual</text>
<text text-anchor="middle" x="109" y="-151" font-family="Helvetica,sans-Serif" font-size="10.00">ItemRefresh.IndividualItemRefreshService.run</text>
</g>
<!-- Node2 -->
<g id="node2" class="node"><title>Node2</title>
<g id="a_node2"><a xlink:href="classtomoBay_1_1model_1_1services_1_1individualItemRefresh_1_1ReCalculateAvailableStock.html#a96fe253ce37a93d8ec8ee54504e1da9f" target="_top" xlink:title="tomoBay.model.services.individual\lItemRefresh.ReCalculateAvailableStock.calculate">
<polygon fill="none" stroke="black" points="526,-484 526,-514 761,-514 761,-484 526,-484"/>
<text text-anchor="start" x="534" y="-502" font-family="Helvetica,sans-Serif" font-size="10.00">tomoBay.model.services.individual</text>
<text text-anchor="middle" x="643.5" y="-491" font-family="Helvetica,sans-Serif" font-size="10.00">ItemRefresh.ReCalculateAvailableStock.calculate</text>
</a>
</g>
</g>
<!-- Node1&#45;&gt;Node2 -->
<g id="edge1" class="edge"><title>Node1&#45;&gt;Node2</title>
<path fill="none" stroke="midnightblue" d="M126.046,-174.208C151.832,-198.239 204.618,-245.774 254,-280 374.738,-363.681 529.907,-443.617 602.15,-479.395"/>
<polygon fill="midnightblue" stroke="midnightblue" points="600.852,-482.657 611.369,-483.943 603.95,-476.38 600.852,-482.657"/>
</g>
<!-- Node15 -->
<g id="node15" class="node"><title>Node15</title>
<g id="a_node15"><a xlink:href="classtomoBay_1_1model_1_1services_1_1individualItemRefresh_1_1ReCalculateRequiredStock.html#a60d11306692f52091266b66f1c7f03db" target="_top" xlink:title="tomoBay.model.services.individual\lItemRefresh.ReCalculateRequiredStock.calculate">
<polygon fill="none" stroke="black" points="254,-169 254,-199 488,-199 488,-169 254,-169"/>
<text text-anchor="start" x="262" y="-187" font-family="Helvetica,sans-Serif" font-size="10.00">tomoBay.model.services.individual</text>
<text text-anchor="middle" x="371" y="-176" font-family="Helvetica,sans-Serif" font-size="10.00">ItemRefresh.ReCalculateRequiredStock.calculate</text>
</a>
</g>
</g>
<!-- Node1&#45;&gt;Node15 -->
<g id="edge14" class="edge"><title>Node1&#45;&gt;Node15</title>
<path fill="none" stroke="midnightblue" d="M218.005,-169.385C226.528,-170.205 235.182,-171.037 243.814,-171.867"/>
<polygon fill="midnightblue" stroke="midnightblue" points="243.638,-175.366 253.927,-172.839 244.308,-168.398 243.638,-175.366"/>
</g>
<!-- Node21 -->
<g id="node21" class="node"><title>Node21</title>
<g id="a_node21"><a xlink:href="classtomoBay_1_1model_1_1services_1_1individualItemRefresh_1_1IndividualItemRefreshService.html#a5cac8ea543146d5aba7813bf8856125b" target="_top" xlink:title="tomoBay.model.services.individual\lItemRefresh.IndividualItemRefreshService.get\lItemData">
<polygon fill="none" stroke="black" points="262,-60.5 262,-101.5 480,-101.5 480,-60.5 262,-60.5"/>
<text text-anchor="start" x="270" y="-89.5" font-family="Helvetica,sans-Serif" font-size="10.00">tomoBay.model.services.individual</text>
<text text-anchor="start" x="270" y="-78.5" font-family="Helvetica,sans-Serif" font-size="10.00">ItemRefresh.IndividualItemRefreshService.get</text>
<text text-anchor="middle" x="371" y="-67.5" font-family="Helvetica,sans-Serif" font-size="10.00">ItemData</text>
</a>
</g>
</g>
<!-- Node1&#45;&gt;Node21 -->
<g id="edge25" class="edge"><title>Node1&#45;&gt;Node21</title>
<path fill="none" stroke="midnightblue" d="M152.603,-143.944C181.138,-134.071 219.631,-121.159 254,-111 261.729,-108.715 269.776,-106.435 277.867,-104.21"/>
<polygon fill="midnightblue" stroke="midnightblue" points="279.008,-107.527 287.74,-101.527 277.172,-100.772 279.008,-107.527"/>
</g>
<!-- Node25 -->
<g id="node25" class="node"><title>Node25</title>
<g id="a_node25"><a xlink:href="classtomoBay_1_1model_1_1services_1_1individualItemRefresh_1_1IndividualItemRefreshService.html#a2d848d95907b283668da1ecc4cb7e5fb" target="_top" xlink:title="tomoBay.model.services.individual\lItemRefresh.IndividualItemRefreshService.get\lSpecifics">
<polygon fill="none" stroke="black" points="262,-0.5 262,-41.5 480,-41.5 480,-0.5 262,-0.5"/>
<text text-anchor="start" x="270" y="-29.5" font-family="Helvetica,sans-Serif" font-size="10.00">tomoBay.model.services.individual</text>
<text text-anchor="start" x="270" y="-18.5" font-family="Helvetica,sans-Serif" font-size="10.00">ItemRefresh.IndividualItemRefreshService.get</text>
<text text-anchor="middle" x="371" y="-7.5" font-family="Helvetica,sans-Serif" font-size="10.00">Specifics</text>
</a>
</g>
</g>
<!-- Node1&#45;&gt;Node25 -->
<g id="edge29" class="edge"><title>Node1&#45;&gt;Node25</title>
<path fill="none" stroke="midnightblue" d="M125.878,-143.709C151.024,-120.324 202.463,-75.7864 254,-51 258.341,-48.9123 262.846,-46.9568 267.449,-45.1266"/>
<polygon fill="midnightblue" stroke="midnightblue" points="268.878,-48.3288 277.016,-41.544 266.423,-41.7734 268.878,-48.3288"/>
</g>
<!-- Node26 -->
<g id="node26" class="node"><title>Node26</title>
<g id="a_node26"><a xlink:href="classtomoBay_1_1model_1_1services_1_1individualItemRefresh_1_1RePopulateEbayItem.html#a2b886c9bafd133bfe931db63f4cdf337" target="_top" xlink:title="tomoBay.model.services.individual\lItemRefresh.RePopulateEbayItem.populate">
<polygon fill="none" stroke="black" points="268,-120 268,-150 474,-150 474,-120 268,-120"/>
<text text-anchor="start" x="276" y="-138" font-family="Helvetica,sans-Serif" font-size="10.00">tomoBay.model.services.individual</text>
<text text-anchor="middle" x="371" y="-127" font-family="Helvetica,sans-Serif" font-size="10.00">ItemRefresh.RePopulateEbayItem.populate</text>
</a>
</g>
</g>
<!-- Node1&#45;&gt;Node26 -->
<g id="edge30" class="edge"><title>Node1&#45;&gt;Node26</title>
<path fill="none" stroke="midnightblue" d="M218.005,-149.03C231.124,-147.819 244.551,-146.58 257.73,-145.363"/>
<polygon fill="midnightblue" stroke="midnightblue" points="258.115,-148.843 267.751,-144.438 257.472,-141.872 258.115,-148.843"/>
</g>
<!-- Node27 -->
<g id="node27" class="node"><title>Node27</title>
<g id="a_node27"><a xlink:href="classtomoBay_1_1model_1_1services_1_1individualItemRefresh_1_1RePopulateEbayItem.html#a98a1d6b2dd721103e85213f3e65e9952" target="_top" xlink:title="tomoBay.model.services.individual\lItemRefresh.RePopulateEbayItem.reset\lBrandTable">
<polygon fill="none" stroke="black" points="548,-351.5 548,-392.5 739,-392.5 739,-351.5 548,-351.5"/>
<text text-anchor="start" x="556" y="-380.5" font-family="Helvetica,sans-Serif" font-size="10.00">tomoBay.model.services.individual</text>
<text text-anchor="start" x="556" y="-369.5" font-family="Helvetica,sans-Serif" font-size="10.00">ItemRefresh.RePopulateEbayItem.reset</text>
<text text-anchor="middle" x="643.5" y="-358.5" font-family="Helvetica,sans-Serif" font-size="10.00">BrandTable</text>
</a>
</g>
</g>
<!-- Node1&#45;&gt;Node27 -->
<g id="edge32" class="edge"><title>Node1&#45;&gt;Node27</title>
<path fill="none" stroke="midnightblue" d="M147.869,-174.148C238.95,-210.58 470.905,-303.362 581.739,-347.696"/>
<polygon fill="midnightblue" stroke="midnightblue" points="580.531,-350.982 591.115,-351.446 583.13,-344.483 580.531,-350.982"/>
</g>
<!-- Node3 -->
<g id="node3" class="node"><title>Node3</title>
<g id="a_node3"><a xlink:href="classtomoBay_1_1model_1_1services_1_1helpers_1_1PartList.html#a560c1e8e7c88cd213aba97da6620aa42" target="_top" xlink:title="tomoBay.model.services.helpers.\lPartList.size">
<polygon fill="none" stroke="black" points="828,-294 828,-324 990,-324 990,-294 828,-294"/>
<text text-anchor="start" x="836" y="-312" font-family="Helvetica,sans-Serif" font-size="10.00">tomoBay.model.services.helpers.</text>
<text text-anchor="middle" x="909" y="-301" font-family="Helvetica,sans-Serif" font-size="10.00">PartList.size</text>
</a>
</g>
</g>
<!-- Node2&#45;&gt;Node3 -->
<g id="edge2" class="edge"><title>Node2&#45;&gt;Node3</title>
<path fill="none" stroke="midnightblue" d="M668.243,-483.812C694.02,-466.431 735.217,-435.948 763,-402 784.658,-375.537 771.874,-354.822 799,-334 804.876,-329.489 811.422,-325.768 818.308,-322.7"/>
<polygon fill="midnightblue" stroke="midnightblue" points="819.869,-325.847 827.877,-318.91 817.291,-319.339 819.869,-325.847"/>
</g>
<!-- Node4 -->
<g id="node4" class="node"><title>Node4</title>
<g id="a_node4"><a xlink:href="classtomoBay_1_1model_1_1services_1_1individualItemRefresh_1_1ReCalculateAvailableStock.html#ae8dc1c5e396d7715d9075395ec57c9b0" target="_top" xlink:title="tomoBay.model.services.individual\lItemRefresh.ReCalculateAvailableStock.get\lStockLevel">
<polygon fill="none" stroke="black" points="804.5,-631.5 804.5,-672.5 1013.5,-672.5 1013.5,-631.5 804.5,-631.5"/>
<text text-anchor="start" x="812.5" y="-660.5" font-family="Helvetica,sans-Serif" font-size="10.00">tomoBay.model.services.individual</text>
<text text-anchor="start" x="812.5" y="-649.5" font-family="Helvetica,sans-Serif" font-size="10.00">ItemRefresh.ReCalculateAvailableStock.get</text>
<text text-anchor="middle" x="909" y="-638.5" font-family="Helvetica,sans-Serif" font-size="10.00">StockLevel</text>
</a>
</g>
</g>
<!-- Node2&#45;&gt;Node4 -->
<g id="edge3" class="edge"><title>Node2&#45;&gt;Node4</title>
<path fill="none" stroke="midnightblue" d="M660.357,-514.122C687.012,-538.81 743.36,-587.929 799,-617 806.615,-620.979 814.767,-624.612 823.057,-627.903"/>
<polygon fill="midnightblue" stroke="midnightblue" points="821.862,-631.193 832.454,-631.473 824.348,-624.649 821.862,-631.193"/>
</g>
<!-- Node9 -->
<g id="node9" class="node"><title>Node9</title>
<g id="a_node9"><a xlink:href="classtomoBay_1_1model_1_1services_1_1helpers_1_1PartList.html#ad78e5b214d7f6060e461abac7fca9559" target="_top" xlink:title="tomoBay.model.services.helpers.\lPartList.getPartNumber">
<polygon fill="none" stroke="black" points="1075,-490 1075,-520 1237,-520 1237,-490 1075,-490"/>
<text text-anchor="start" x="1083" y="-508" font-family="Helvetica,sans-Serif" font-size="10.00">tomoBay.model.services.helpers.</text>
<text text-anchor="middle" x="1156" y="-497" font-family="Helvetica,sans-Serif" font-size="10.00">PartList.getPartNumber</text>
</a>
</g>
</g>
<!-- Node2&#45;&gt;Node9 -->
<g id="edge8" class="edge"><title>Node2&#45;&gt;Node9</title>
<path fill="none" stroke="midnightblue" d="M664.089,-514.088C692.143,-534.643 746.221,-570.44 799,-584 893.702,-608.331 924.587,-609.432 1019,-584 1060.22,-572.897 1101.81,-545.895 1127.95,-526.552"/>
<polygon fill="midnightblue" stroke="midnightblue" points="1130.33,-529.141 1136.2,-520.32 1126.11,-523.555 1130.33,-529.141"/>
</g>
<!-- Node10 -->
<g id="node10" class="node"><title>Node10</title>
<g id="a_node10"><a xlink:href="classtomoBay_1_1helpers_1_1BrandToCode.html#a685e9b8eb9b3b66937c327106d4c7ca1" target="_top" xlink:title="tomoBay.helpers.BrandToCode.convert">
<polygon fill="none" stroke="black" points="815,-343.5 815,-362.5 1003,-362.5 1003,-343.5 815,-343.5"/>
<text text-anchor="middle" x="909" y="-350.5" font-family="Helvetica,sans-Serif" font-size="10.00">tomoBay.helpers.BrandToCode.convert</text>
</a>
</g>
</g>
<!-- Node2&#45;&gt;Node10 -->
<g id="edge9" class="edge"><title>Node2&#45;&gt;Node10</title>
<path fill="none" stroke="midnightblue" d="M671.707,-483.925C722.601,-455.726 831.585,-395.34 881.745,-367.547"/>
<polygon fill="midnightblue" stroke="midnightblue" points="883.628,-370.505 890.679,-362.597 880.236,-364.382 883.628,-370.505"/>
</g>
<!-- Node11 -->
<g id="node11" class="node"><title>Node11</title>
<g id="a_node11"><a xlink:href="classtomoBay_1_1model_1_1services_1_1individualItemRefresh_1_1ReCalculateAvailableStock.html#a01e38359b40b4eed671c49944d7af020" target="_top" xlink:title="tomoBay.model.services.individual\lItemRefresh.ReCalculateAvailableStock.insert\lStockIntoDB">
<polygon fill="none" stroke="black" points="799,-533.5 799,-574.5 1019,-574.5 1019,-533.5 799,-533.5"/>
<text text-anchor="start" x="807" y="-562.5" font-family="Helvetica,sans-Serif" font-size="10.00">tomoBay.model.services.individual</text>
<text text-anchor="start" x="807" y="-551.5" font-family="Helvetica,sans-Serif" font-size="10.00">ItemRefresh.ReCalculateAvailableStock.insert</text>
<text text-anchor="middle" x="909" y="-540.5" font-family="Helvetica,sans-Serif" font-size="10.00">StockIntoDB</text>
</a>
</g>
</g>
<!-- Node2&#45;&gt;Node11 -->
<g id="edge10" class="edge"><title>Node2&#45;&gt;Node11</title>
<path fill="none" stroke="midnightblue" d="M716.503,-514.029C742.128,-519.378 771.58,-525.525 799.579,-531.37"/>
<polygon fill="midnightblue" stroke="midnightblue" points="798.91,-534.805 809.414,-533.422 800.34,-527.953 798.91,-534.805"/>
</g>
<!-- Node5 -->
<g id="node5" class="node"><title>Node5</title>
<g id="a_node5"><a xlink:href="classtomoBay_1_1model_1_1winstock_1_1Stock.html#a1782a19980de34680ae751b8a334af96" target="_top" xlink:title="tomoBay.model.winstock.Stock.request\lStockLevel">
<polygon fill="none" stroke="black" points="1060.5,-637 1060.5,-667 1251.5,-667 1251.5,-637 1060.5,-637"/>
<text text-anchor="start" x="1068.5" y="-655" font-family="Helvetica,sans-Serif" font-size="10.00">tomoBay.model.winstock.Stock.request</text>
<text text-anchor="middle" x="1156" y="-644" font-family="Helvetica,sans-Serif" font-size="10.00">StockLevel</text>
</a>
</g>
</g>
<!-- Node4&#45;&gt;Node5 -->
<g id="edge4" class="edge"><title>Node4&#45;&gt;Node5</title>
<path fill="none" stroke="midnightblue" d="M1013.55,-652C1025.69,-652 1038.08,-652 1050.24,-652"/>
<polygon fill="midnightblue" stroke="midnightblue" points="1050.39,-655.5 1060.39,-652 1050.39,-648.5 1050.39,-655.5"/>
</g>
<!-- Node6 -->
<g id="node6" class="node"><title>Node6</title>
<g id="a_node6"><a xlink:href="classtomoBay_1_1model_1_1winstock_1_1Stock.html#a0b60d421fe27874ceb35c702ffa2483f" target="_top" xlink:title="tomoBay.model.winstock.Stock.post\lFormatXMLString">
<polygon fill="none" stroke="black" points="1293,-659 1293,-689 1470,-689 1470,-659 1293,-659"/>
<text text-anchor="start" x="1301" y="-677" font-family="Helvetica,sans-Serif" font-size="10.00">tomoBay.model.winstock.Stock.post</text>
<text text-anchor="middle" x="1381.5" y="-666" font-family="Helvetica,sans-Serif" font-size="10.00">FormatXMLString</text>
</a>
</g>
</g>
<!-- Node5&#45;&gt;Node6 -->
<g id="edge5" class="edge"><title>Node5&#45;&gt;Node6</title>
<path fill="none" stroke="midnightblue" d="M1251.78,-661.33C1261.96,-662.331 1272.32,-663.351 1282.53,-664.356"/>
<polygon fill="midnightblue" stroke="midnightblue" points="1282.38,-667.858 1292.67,-665.355 1283.06,-660.892 1282.38,-667.858"/>
</g>
<!-- Node8 -->
<g id="node8" class="node"><title>Node8</title>
<g id="a_node8"><a xlink:href="classtomoBay_1_1helpers_1_1XMLParser.html#ac25716dcaf3586b706f71c7354d6626c" target="_top" xlink:title="tomoBay.helpers.XMLParser.parse">
<polygon fill="none" stroke="black" points="1297,-620.5 1297,-639.5 1466,-639.5 1466,-620.5 1297,-620.5"/>
<text text-anchor="middle" x="1381.5" y="-627.5" font-family="Helvetica,sans-Serif" font-size="10.00">tomoBay.helpers.XMLParser.parse</text>
</a>
</g>
</g>
<!-- Node5&#45;&gt;Node8 -->
<g id="edge7" class="edge"><title>Node5&#45;&gt;Node8</title>
<path fill="none" stroke="midnightblue" d="M1251.78,-642.67C1263.38,-641.529 1275.22,-640.363 1286.8,-639.223"/>
<polygon fill="midnightblue" stroke="midnightblue" points="1287.29,-642.692 1296.89,-638.23 1286.6,-635.726 1287.29,-642.692"/>
</g>
<!-- Node7 -->
<g id="node7" class="node"><title>Node7</title>
<g id="a_node7"><a xlink:href="classtomoBay_1_1model_1_1http_1_1HttpResponse.html#a24a810db349f2e0bb6188d836b9ab916" target="_top" xlink:title="tomoBay.model.http.HttpResponse.get\lResponseMessage">
<polygon fill="none" stroke="black" points="1506,-659 1506,-689 1693,-689 1693,-659 1506,-659"/>
<text text-anchor="start" x="1514" y="-677" font-family="Helvetica,sans-Serif" font-size="10.00">tomoBay.model.http.HttpResponse.get</text>
<text text-anchor="middle" x="1599.5" y="-666" font-family="Helvetica,sans-Serif" font-size="10.00">ResponseMessage</text>
</a>
</g>
</g>
<!-- Node6&#45;&gt;Node7 -->
<g id="edge6" class="edge"><title>Node6&#45;&gt;Node7</title>
<path fill="none" stroke="midnightblue" d="M1470.04,-674C1478.53,-674 1487.2,-674 1495.82,-674"/>
<polygon fill="midnightblue" stroke="midnightblue" points="1495.9,-677.5 1505.9,-674 1495.9,-670.5 1495.9,-677.5"/>
</g>
<!-- Node12 -->
<g id="node12" class="node"><title>Node12</title>
<g id="a_node12"><a xlink:href="classtomoBay_1_1model_1_1sql_1_1queries_1_1QueryInvoker.html#af9783588735e13b18741b48b375ca626" target="_top" xlink:title="tomoBay.model.sql.queries.\lQueryInvoker.execute">
<polygon fill="none" stroke="black" points="1087,-191 1087,-221 1225,-221 1225,-191 1087,-191"/>
<text text-anchor="start" x="1095" y="-209" font-family="Helvetica,sans-Serif" font-size="10.00">tomoBay.model.sql.queries.</text>
<text text-anchor="middle" x="1156" y="-198" font-family="Helvetica,sans-Serif" font-size="10.00">QueryInvoker.execute</text>
</a>
</g>
</g>
<!-- Node11&#45;&gt;Node12 -->
<g id="edge11" class="edge"><title>Node11&#45;&gt;Node12</title>
<path fill="none" stroke="midnightblue" d="M928.994,-533.424C953.26,-506.079 994.985,-455.333 1019,-405 1045.92,-348.568 1017.98,-319.387 1055,-269 1068.64,-250.443 1089.53,-236.049 1108.71,-225.734"/>
<polygon fill="midnightblue" stroke="midnightblue" points="1110.35,-228.822 1117.65,-221.14 1107.16,-222.596 1110.35,-228.822"/>
</g>
<!-- Node13 -->
<g id="node13" class="node"><title>Node13</title>
<g id="a_node13"><a xlink:href="classtomoBay_1_1model_1_1sql_1_1queries_1_1QueryInvoker.html#aff8d54f537b905d5a8b35a20113fd100" target="_top" xlink:title="tomoBay.model.sql.queries.\lQueryInvoker.make">
<polygon fill="none" stroke="black" points="1312.5,-216 1312.5,-246 1450.5,-246 1450.5,-216 1312.5,-216"/>
<text text-anchor="start" x="1320.5" y="-234" font-family="Helvetica,sans-Serif" font-size="10.00">tomoBay.model.sql.queries.</text>
<text text-anchor="middle" x="1381.5" y="-223" font-family="Helvetica,sans-Serif" font-size="10.00">QueryInvoker.make</text>
</a>
</g>
</g>
<!-- Node12&#45;&gt;Node13 -->
<g id="edge12" class="edge"><title>Node12&#45;&gt;Node13</title>
<path fill="none" stroke="midnightblue" d="M1225.27,-213.637C1249.53,-216.35 1277.03,-219.426 1302.07,-222.227"/>
<polygon fill="midnightblue" stroke="midnightblue" points="1301.93,-225.734 1312.26,-223.367 1302.71,-218.777 1301.93,-225.734"/>
</g>
<!-- Node14 -->
<g id="node14" class="node"><title>Node14</title>
<g id="a_node14"><a xlink:href="interfacetomoBay_1_1model_1_1sql_1_1queries_1_1AbstractDBQuery.html#af2b3eebaeac3f2330d4c4e27182cec48" target="_top" xlink:title="tomoBay.model.sql.queries.\lAbstractDBQuery.execute">
<polygon fill="none" stroke="black" points="1312.5,-167 1312.5,-197 1450.5,-197 1450.5,-167 1312.5,-167"/>
<text text-anchor="start" x="1320.5" y="-185" font-family="Helvetica,sans-Serif" font-size="10.00">tomoBay.model.sql.queries.</text>
<text text-anchor="middle" x="1381.5" y="-174" font-family="Helvetica,sans-Serif" font-size="10.00">AbstractDBQuery.execute</text>
</a>
</g>
</g>
<!-- Node12&#45;&gt;Node14 -->
<g id="edge13" class="edge"><title>Node12&#45;&gt;Node14</title>
<path fill="none" stroke="midnightblue" d="M1225.27,-198.669C1249.53,-196.064 1277.03,-193.111 1302.07,-190.422"/>
<polygon fill="midnightblue" stroke="midnightblue" points="1302.69,-193.875 1312.26,-189.328 1301.94,-186.915 1302.69,-193.875"/>
</g>
<!-- Node15&#45;&gt;Node12 -->
<g id="edge15" class="edge"><title>Node15&#45;&gt;Node12</title>
<path fill="none" stroke="midnightblue" d="M488.112,-174.156C617.918,-165.102 834.18,-155.858 1019,-176 1042.35,-178.544 1067.55,-183.476 1089.85,-188.618"/>
<polygon fill="midnightblue" stroke="midnightblue" points="1089.33,-192.092 1099.87,-190.987 1090.94,-185.28 1089.33,-192.092"/>
</g>
<!-- Node16 -->
<g id="node16" class="node"><title>Node16</title>
<g id="a_node16"><a xlink:href="classtomoBay_1_1model_1_1services_1_1individualItemRefresh_1_1ReCalculateRequiredStock.html#ad98eddf85b6775466de64576a5eff165" target="_top" xlink:title="tomoBay.model.services.individual\lItemRefresh.ReCalculateRequiredStock.updateDB">
<polygon fill="none" stroke="black" points="524,-245 524,-275 763,-275 763,-245 524,-245"/>
<text text-anchor="start" x="532" y="-263" font-family="Helvetica,sans-Serif" font-size="10.00">tomoBay.model.services.individual</text>
<text text-anchor="middle" x="643.5" y="-252" font-family="Helvetica,sans-Serif" font-size="10.00">ItemRefresh.ReCalculateRequiredStock.updateDB</text>
</a>
</g>
</g>
<!-- Node15&#45;&gt;Node16 -->
<g id="edge16" class="edge"><title>Node15&#45;&gt;Node16</title>
<path fill="none" stroke="midnightblue" d="M425.442,-199.015C469.572,-211.414 532.313,-229.042 579,-242.159"/>
<polygon fill="midnightblue" stroke="midnightblue" points="578.133,-245.551 588.707,-244.886 580.026,-238.812 578.133,-245.551"/>
</g>
<!-- Node16&#45;&gt;Node3 -->
<g id="edge19" class="edge"><title>Node16&#45;&gt;Node3</title>
<path fill="none" stroke="midnightblue" d="M725.349,-275.035C754.572,-280.469 787.742,-286.637 817.722,-292.212"/>
<polygon fill="midnightblue" stroke="midnightblue" points="817.285,-295.691 827.757,-294.078 818.565,-288.809 817.285,-295.691"/>
</g>
<!-- Node16&#45;&gt;Node10 -->
<g id="edge18" class="edge"><title>Node16&#45;&gt;Node10</title>
<path fill="none" stroke="midnightblue" d="M670.979,-275.128C701.077,-291.695 752.123,-317.91 799,-333 809.166,-336.272 820.048,-339.066 830.857,-341.435"/>
<polygon fill="midnightblue" stroke="midnightblue" points="830.238,-344.881 840.741,-343.492 831.664,-338.028 830.238,-344.881"/>
</g>
<!-- Node17 -->
<g id="node17" class="node"><title>Node17</title>
<g id="a_node17"><a xlink:href="classtomoBay_1_1model_1_1services_1_1stockUpdate_1_1StockRequiredQueryFactory.html#a6e18b86d40821a5fc235aea4fb82dbef" target="_top" xlink:title="tomoBay.model.services.stock\lUpdate.StockRequiredQueryFactory.setBrand">
<polygon fill="none" stroke="black" points="800.5,-245 800.5,-275 1017.5,-275 1017.5,-245 800.5,-245"/>
<text text-anchor="start" x="808.5" y="-263" font-family="Helvetica,sans-Serif" font-size="10.00">tomoBay.model.services.stock</text>
<text text-anchor="middle" x="909" y="-252" font-family="Helvetica,sans-Serif" font-size="10.00">Update.StockRequiredQueryFactory.setBrand</text>
</a>
</g>
</g>
<!-- Node16&#45;&gt;Node17 -->
<g id="edge17" class="edge"><title>Node16&#45;&gt;Node17</title>
<path fill="none" stroke="midnightblue" d="M763.146,-260C772.177,-260 781.292,-260 790.318,-260"/>
<polygon fill="midnightblue" stroke="midnightblue" points="790.461,-263.5 800.461,-260 790.461,-256.5 790.461,-263.5"/>
</g>
<!-- Node18 -->
<g id="node18" class="node"><title>Node18</title>
<g id="a_node18"><a xlink:href="classtomoBay_1_1model_1_1services_1_1individualItemRefresh_1_1ReCalculateRequiredStock.html#ab5ff7a49bdb7d81c8b0e0ac0e35aed65" target="_top" xlink:title="tomoBay.model.services.individual\lItemRefresh.ReCalculateRequiredStock.insert\lOrUpdate">
<polygon fill="none" stroke="black" points="799.5,-185.5 799.5,-226.5 1018.5,-226.5 1018.5,-185.5 799.5,-185.5"/>
<text text-anchor="start" x="807.5" y="-214.5" font-family="Helvetica,sans-Serif" font-size="10.00">tomoBay.model.services.individual</text>
<text text-anchor="start" x="807.5" y="-203.5" font-family="Helvetica,sans-Serif" font-size="10.00">ItemRefresh.ReCalculateRequiredStock.insert</text>
<text text-anchor="middle" x="909" y="-192.5" font-family="Helvetica,sans-Serif" font-size="10.00">OrUpdate</text>
</a>
</g>
</g>
<!-- Node16&#45;&gt;Node18 -->
<g id="edge20" class="edge"><title>Node16&#45;&gt;Node18</title>
<path fill="none" stroke="midnightblue" d="M717.899,-244.958C742.719,-239.872 771,-234.076 798.024,-228.538"/>
<polygon fill="midnightblue" stroke="midnightblue" points="798.821,-231.947 807.915,-226.511 797.416,-225.09 798.821,-231.947"/>
</g>
<!-- Node18&#45;&gt;Node9 -->
<g id="edge23" class="edge"><title>Node18&#45;&gt;Node9</title>
<path fill="none" stroke="midnightblue" d="M1008.5,-226.669C1012.3,-229.418 1015.83,-232.514 1019,-236 1081.51,-304.785 1003.23,-364.812 1055,-442 1067.63,-460.83 1087.99,-475.142 1107.05,-485.329"/>
<polygon fill="midnightblue" stroke="midnightblue" points="1105.47,-488.453 1115.97,-489.859 1108.64,-482.211 1105.47,-488.453"/>
</g>
<!-- Node18&#45;&gt;Node12 -->
<g id="edge21" class="edge"><title>Node18&#45;&gt;Node12</title>
<path fill="none" stroke="midnightblue" d="M1018.53,-206C1038.08,-206 1058.11,-206 1076.59,-206"/>
<polygon fill="midnightblue" stroke="midnightblue" points="1076.68,-209.5 1086.68,-206 1076.68,-202.5 1076.68,-209.5"/>
</g>
<!-- Node19 -->
<g id="node19" class="node"><title>Node19</title>
<g id="a_node19"><a xlink:href="classtomoBay_1_1model_1_1services_1_1stockUpdate_1_1StockRequiredQueryFactory.html#ae4ab4815160c22e64b4f158349381164" target="_top" xlink:title="tomoBay.model.services.stock\lUpdate.StockRequiredQueryFactory.make">
<polygon fill="none" stroke="black" points="1055,-278 1055,-308 1257,-308 1257,-278 1055,-278"/>
<text text-anchor="start" x="1063" y="-296" font-family="Helvetica,sans-Serif" font-size="10.00">tomoBay.model.services.stock</text>
<text text-anchor="middle" x="1156" y="-285" font-family="Helvetica,sans-Serif" font-size="10.00">Update.StockRequiredQueryFactory.make</text>
</a>
</g>
</g>
<!-- Node18&#45;&gt;Node19 -->
<g id="edge22" class="edge"><title>Node18&#45;&gt;Node19</title>
<path fill="none" stroke="midnightblue" d="M989.252,-226.526C999.325,-229.511 1009.45,-232.698 1019,-236 1051.11,-247.096 1086.47,-262.005 1113.09,-273.792"/>
<polygon fill="midnightblue" stroke="midnightblue" points="1111.92,-277.102 1122.48,-277.981 1114.77,-270.71 1111.92,-277.102"/>
</g>
<!-- Node20 -->
<g id="node20" class="node"><title>Node20</title>
<g id="a_node20"><a xlink:href="classtomoBay_1_1model_1_1services_1_1helpers_1_1PartList.html#a554b8b08e0c00b2c094af388611fb318" target="_top" xlink:title="tomoBay.model.services.helpers.\lPartList.getPartQty">
<polygon fill="none" stroke="black" points="1075,-403 1075,-433 1237,-433 1237,-403 1075,-403"/>
<text text-anchor="start" x="1083" y="-421" font-family="Helvetica,sans-Serif" font-size="10.00">tomoBay.model.services.helpers.</text>
<text text-anchor="middle" x="1156" y="-410" font-family="Helvetica,sans-Serif" font-size="10.00">PartList.getPartQty</text>
</a>
</g>
</g>
<!-- Node18&#45;&gt;Node20 -->
<g id="edge24" class="edge"><title>Node18&#45;&gt;Node20</title>
<path fill="none" stroke="midnightblue" d="M1005.72,-226.621C1010.44,-229.369 1014.91,-232.479 1019,-236 1048.86,-261.696 1032.78,-284.471 1055,-317 1075.95,-347.667 1106.83,-377.187 1128.73,-396.308"/>
<polygon fill="midnightblue" stroke="midnightblue" points="1126.49,-398.998 1136.35,-402.864 1131.05,-393.69 1126.49,-398.998"/>
</g>
<!-- Node22 -->
<g id="node22" class="node"><title>Node22</title>
<g id="a_node22"><a xlink:href="classtomoBay_1_1model_1_1eBayAPI_1_1ItemCall.html#a3fc5341611574d8b3e720e702ebd2f5b" target="_top" xlink:title="tomoBay.model.eBayAPI.Item\lCall.call">
<polygon fill="none" stroke="black" points="569,-22 569,-52 718,-52 718,-22 569,-22"/>
<text text-anchor="start" x="577" y="-40" font-family="Helvetica,sans-Serif" font-size="10.00">tomoBay.model.eBayAPI.Item</text>
<text text-anchor="middle" x="643.5" y="-29" font-family="Helvetica,sans-Serif" font-size="10.00">Call.call</text>
</a>
</g>
</g>
<!-- Node21&#45;&gt;Node22 -->
<g id="edge26" class="edge"><title>Node21&#45;&gt;Node22</title>
<path fill="none" stroke="midnightblue" d="M480.075,-63.4203C506.201,-59.1706 533.739,-54.6913 558.567,-50.6527"/>
<polygon fill="midnightblue" stroke="midnightblue" points="559.356,-54.0704 568.664,-49.0102 558.232,-47.1612 559.356,-54.0704"/>
</g>
<!-- Node23 -->
<g id="node23" class="node"><title>Node23</title>
<g id="a_node23"><a xlink:href="classtomoBay_1_1helpers_1_1ConfigReader.html#a26849fb02af1639c398bd92d923b08d6" target="_top" xlink:title="tomoBay.helpers.ConfigReader.read">
<polygon fill="none" stroke="black" points="556,-71.5 556,-90.5 731,-90.5 731,-71.5 556,-71.5"/>
<text text-anchor="middle" x="643.5" y="-78.5" font-family="Helvetica,sans-Serif" font-size="10.00">tomoBay.helpers.ConfigReader.read</text>
</a>
</g>
</g>
<!-- Node21&#45;&gt;Node23 -->
<g id="edge27" class="edge"><title>Node21&#45;&gt;Node23</title>
<path fill="none" stroke="midnightblue" d="M480.075,-81C501.799,-81 524.498,-81 545.804,-81"/>
<polygon fill="midnightblue" stroke="midnightblue" points="545.813,-84.5001 555.813,-81 545.813,-77.5001 545.813,-84.5001"/>
</g>
<!-- Node24 -->
<g id="node24" class="node"><title>Node24</title>
<g id="a_node24"><a xlink:href="classtomoBay_1_1helpers_1_1ConfigReader.html#a37823a6fea3074699af8d6202480228b" target="_top" xlink:title="tomoBay.helpers.ConfigReader.convert">
<polygon fill="none" stroke="black" points="815,-71.5 815,-90.5 1003,-90.5 1003,-71.5 815,-71.5"/>
<text text-anchor="middle" x="909" y="-78.5" font-family="Helvetica,sans-Serif" font-size="10.00">tomoBay.helpers.ConfigReader.convert</text>
</a>
</g>
</g>
<!-- Node23&#45;&gt;Node24 -->
<g id="edge28" class="edge"><title>Node23&#45;&gt;Node24</title>
<path fill="none" stroke="midnightblue" d="M731.145,-81C754.743,-81 780.538,-81 804.95,-81"/>
<polygon fill="midnightblue" stroke="midnightblue" points="804.953,-84.5001 814.953,-81 804.953,-77.5001 804.953,-84.5001"/>
</g>
<!-- Node26&#45;&gt;Node12 -->
<g id="edge31" class="edge"><title>Node26&#45;&gt;Node12</title>
<path fill="none" stroke="midnightblue" d="M474.099,-130.38C602.419,-126.564 828.9,-126.436 1019,-161 1049.81,-166.602 1083.21,-177.579 1109.2,-187.289"/>
<polygon fill="midnightblue" stroke="midnightblue" points="1108.19,-190.649 1118.78,-190.935 1110.68,-184.107 1108.19,-190.649"/>
</g>
<!-- Node27&#45;&gt;Node3 -->
<g id="edge36" class="edge"><title>Node27&#45;&gt;Node3</title>
<path fill="none" stroke="midnightblue" d="M727.029,-351.447C750.287,-345.725 775.62,-339.556 799,-334 809.557,-331.491 820.7,-328.886 831.67,-326.347"/>
<polygon fill="midnightblue" stroke="midnightblue" points="832.717,-329.697 841.673,-324.037 831.142,-322.876 832.717,-329.697"/>
</g>
<!-- Node27&#45;&gt;Node9 -->
<g id="edge38" class="edge"><title>Node27&#45;&gt;Node9</title>
<path fill="none" stroke="midnightblue" d="M671.863,-392.628C701.512,-413.815 751.031,-445.899 799,-462 886.229,-491.279 991.398,-501.083 1064.72,-504.14"/>
<polygon fill="midnightblue" stroke="midnightblue" points="1064.72,-507.642 1074.85,-504.528 1064.99,-500.648 1064.72,-507.642"/>
</g>
<!-- Node27&#45;&gt;Node10 -->
<g id="edge35" class="edge"><title>Node27&#45;&gt;Node10</title>
<path fill="none" stroke="midnightblue" d="M739.257,-365.167C760.528,-363.634 783.2,-361.999 804.796,-360.442"/>
<polygon fill="midnightblue" stroke="midnightblue" points="805.243,-363.919 814.966,-359.708 804.74,-356.937 805.243,-363.919"/>
</g>
<!-- Node27&#45;&gt;Node12 -->
<g id="edge33" class="edge"><title>Node27&#45;&gt;Node12</title>
<path fill="none" stroke="midnightblue" d="M739.313,-384.097C835.349,-394.259 975.723,-402.718 1019,-372 1058.54,-343.931 1024.79,-306.937 1055,-269 1069.56,-250.708 1090.98,-236.218 1110.25,-225.769"/>
<polygon fill="midnightblue" stroke="midnightblue" points="1111.96,-228.828 1119.22,-221.11 1108.73,-222.617 1111.96,-228.828"/>
</g>
<!-- Node27&#45;&gt;Node17 -->
<g id="edge34" class="edge"><title>Node27&#45;&gt;Node17</title>
<path fill="none" stroke="midnightblue" d="M674.86,-351.415C705.113,-331.76 753.496,-302.605 799,-285 805.722,-282.399 812.787,-280.027 819.954,-277.872"/>
<polygon fill="midnightblue" stroke="midnightblue" points="821.115,-281.18 829.767,-275.066 819.19,-274.45 821.115,-281.18"/>
</g>
<!-- Node27&#45;&gt;Node19 -->
<g id="edge37" class="edge"><title>Node27&#45;&gt;Node19</title>
<path fill="none" stroke="midnightblue" d="M704.871,-392.572C780.6,-414.982 913.331,-442.91 1019,-405 1068.05,-387.402 1112.05,-343.62 1136,-316.301"/>
<polygon fill="midnightblue" stroke="midnightblue" points="1138.92,-318.27 1142.77,-308.399 1133.6,-313.715 1138.92,-318.27"/>
</g>
<!-- Node27&#45;&gt;Node20 -->
<g id="edge39" class="edge"><title>Node27&#45;&gt;Node20</title>
<path fill="none" stroke="midnightblue" d="M677.979,-392.544C708.31,-409.872 754.879,-433.347 799,-443 895.394,-464.089 1009.63,-449.263 1082.2,-435.047"/>
<polygon fill="midnightblue" stroke="midnightblue" points="1083.05,-438.448 1092.16,-433.048 1081.67,-431.584 1083.05,-438.448"/>
</g>
</g>
</svg>
        <g id="navigator" transform="translate(0 0)" fill="#404254">
                <rect fill="#f2f5e9" fill-opacity="0.5" stroke="#606060" stroke-width=".5" x="0" y="0" width="60" height="60"/>
                <use id="zoomplus" xlink:href="#zoomPlus" x="17" y="9" onmousedown="handleZoom(evt,'in')"/>
                <use id="zoomminus" xlink:href="#zoomMin" x="42" y="9" onmousedown="handleZoom(evt,'out')"/>
                <use id="reset" xlink:href="#resetDef" x="30" y="36" onmousedown="handleReset()"/>
                <g id="arrowUp" xlink:href="#dirArrow" transform="translate(30 24)" onmousedown="handlePan(0,-1)">
                  <use xlink:href="#rim" fill="#404040">
                        <set attributeName="fill" to="#808080" begin="arrowUp.mouseover" end="arrowUp.mouseout"/>
                  </use>
                  <path fill="none" stroke="white" stroke-width="1.5" d="M0,-3.0v7 M-2.5,-0.5L0,-3.0L2.5,-0.5"/>
                </g>
                <g id="arrowRight" xlink:href="#dirArrow" transform="rotate(90) translate(36 -43)" onmousedown="handlePan(1,0)">
                  <use xlink:href="#rim" fill="#404040">
                        <set attributeName="fill" to="#808080" begin="arrowRight.mouseover" end="arrowRight.mouseout"/>
                  </use>
                  <path fill="none" stroke="white" stroke-width="1.5" d="M0,-3.0v7 M-2.5,-0.5L0,-3.0L2.5,-0.5"/>
                </g>
                <g id="arrowDown" xlink:href="#dirArrow" transform="rotate(180) translate(-30 -48)" onmousedown="handlePan(0,1)">
                  <use xlink:href="#rim" fill="#404040">
                        <set attributeName="fill" to="#808080" begin="arrowDown.mouseover" end="arrowDown.mouseout"/>
                  </use>
                  <path fill="none" stroke="white" stroke-width="1.5" d="M0,-3.0v7 M-2.5,-0.5L0,-3.0L2.5,-0.5"/>
                </g>
                <g id="arrowLeft" xlink:href="#dirArrow" transform="rotate(270) translate(-36 17)" onmousedown="handlePan(-1,0)">
                  <use xlink:href="#rim" fill="#404040">
                        <set attributeName="fill" to="#808080" begin="arrowLeft.mouseover" end="arrowLeft.mouseout"/>
                  </use>
                  <path fill="none" stroke="white" stroke-width="1.5" d="M0,-3.0v7 M-2.5,-0.5L0,-3.0L2.5,-0.5"/>
                </g>
        </g>
        <svg viewBox="0 0 15 15" width="100%" height="30px" preserveAspectRatio="xMaxYMin meet">
         <g id="arrow_out" transform="scale(0.3 0.3)">
          <a xlink:href="classtomoBay_1_1model_1_1services_1_1individualItemRefresh_1_1IndividualItemRefreshService_a579244b8909621f27fc4871a532f87ee_cgraph_org.svg" target="_base">
           <rect id="button" ry="5" rx="5" y="6" x="6" height="38" width="38"
                fill="#f2f5e9" fill-opacity="0.5" stroke="#606060" stroke-width="1.0"/>
           <path id="arrow"
             d="M 11.500037,31.436501 C 11.940474,20.09759 22.043105,11.32322 32.158766,21.979434 L 37.068811,17.246167 C 37.068811,17.246167 37.088388,32 37.088388,32 L 22.160133,31.978069 C 22.160133,31.978069 26.997745,27.140456 26.997745,27.140456 C 18.528582,18.264221 13.291696,25.230495 11.500037,31.436501 z"
             style="fill:#404040;"/>
          </a>
         </g>
        </svg>
</svg>
