<?xml version="1.0" encoding="UTF-8" standalone="no"?>
<!DOCTYPE svg PUBLIC "-//W3C//DTD SVG 1.1//EN"
 "http://www.w3.org/Graphics/SVG/1.1/DTD/svg11.dtd">
<!-- Generated by graphviz version 2.38.0 (20140413.2041)
 -->
<!-- Title: tomoBay.model.sql.queries.factories.SelectEbayItemsNotInTransactionsFactory Pages: 1 -->
<svg width="213pt" height="204pt"
 viewBox="0.00 0.00 213.00 204.00" xmlns="http://www.w3.org/2000/svg" xmlns:xlink="http://www.w3.org/1999/xlink">
<g id="graph0" class="graph" transform="scale(1 1) rotate(0) translate(4 200)">
<title>tomoBay.model.sql.queries.factories.SelectEbayItemsNotInTransactionsFactory</title>
<!-- Node1 -->
<g id="node1" class="node"><title>Node1</title>
<polygon fill="#bfbfbf" stroke="black" points="-1.42109e-14,-0.5 -1.42109e-14,-90.5 205,-90.5 205,-0.5 -1.42109e-14,-0.5"/>
<text text-anchor="start" x="8" y="-78.5" font-family="Helvetica,sans-Serif" font-size="10.00">tomoBay.model.sql.queries.factories.</text>
<text text-anchor="middle" x="102.5" y="-67.5" font-family="Helvetica,sans-Serif" font-size="10.00">SelectEbayItemsNotInTransactionsFactory</text>
<polyline fill="none" stroke="black" points="-1.42109e-14,-60.5 205,-60.5 "/>
<text text-anchor="middle" x="102.5" y="-48.5" font-family="Helvetica,sans-Serif" font-size="10.00"> </text>
<polyline fill="none" stroke="black" points="-1.42109e-14,-41.5 205,-41.5 "/>
<text text-anchor="start" x="8" y="-29.5" font-family="Helvetica,sans-Serif" font-size="10.00">+ SelectEbayItemsNotInTransactions</text>
<text text-anchor="start" x="8" y="-18.5" font-family="Helvetica,sans-Serif" font-size="10.00">Factory()</text>
<text text-anchor="start" x="8" y="-7.5" font-family="Helvetica,sans-Serif" font-size="10.00">+ make()</text>
</g>
<!-- Node2 -->
<g id="node2" class="node"><title>Node2</title>
<g id="a_node2"><a xlink:href="interfacetomoBay_1_1model_1_1sql_1_1queries_1_1AbstractQueryFactory.html" target="_top" xlink:title="{tomoBay.model.sql.queries.\lAbstractQueryFactory\n||+ make()\l}">
<polygon fill="none" stroke="black" points="33.5,-127.5 33.5,-195.5 171.5,-195.5 171.5,-127.5 33.5,-127.5"/>
<text text-anchor="start" x="41.5" y="-183.5" font-family="Helvetica,sans-Serif" font-size="10.00">tomoBay.model.sql.queries.</text>
<text text-anchor="middle" x="102.5" y="-172.5" font-family="Helvetica,sans-Serif" font-size="10.00">AbstractQueryFactory</text>
<polyline fill="none" stroke="black" points="33.5,-165.5 171.5,-165.5 "/>
<text text-anchor="middle" x="102.5" y="-153.5" font-family="Helvetica,sans-Serif" font-size="10.00"> </text>
<polyline fill="none" stroke="black" points="33.5,-146.5 171.5,-146.5 "/>
<text text-anchor="start" x="41.5" y="-134.5" font-family="Helvetica,sans-Serif" font-size="10.00">+ make()</text>
</a>
</g>
</g>
<!-- Node2&#45;&gt;Node1 -->
<g id="edge1" class="edge"><title>Node2&#45;&gt;Node1</title>
<path fill="none" stroke="midnightblue" d="M102.5,-116.972C102.5,-108.346 102.5,-99.2838 102.5,-90.6378"/>
<polygon fill="none" stroke="midnightblue" points="99.0001,-117.22 102.5,-127.22 106,-117.22 99.0001,-117.22"/>
</g>
</g>
</svg>
