<?xml version="1.0" encoding="UTF-8" standalone="no"?>
<!DOCTYPE svg PUBLIC "-//W3C//DTD SVG 1.1//EN"
 "http://www.w3.org/Graphics/SVG/1.1/DTD/svg11.dtd">
<!-- Generated by graphviz version 2.38.0 (20140413.2041)
 -->
<!-- Title: setBIGINTParam Pages: 1 -->
<!--zoomable 388 -->
<svg id="main" version="1.1" xmlns="http://www.w3.org/2000/svg" xmlns:xlink="http://www.w3.org/1999/xlink" xml:space="preserve" onload="init(evt)">
<style type="text/css"><![CDATA[
.edge:hover path { stroke: red; }
.edge:hover polygon { stroke: red; fill: red; }
]]></style>
<script type="text/javascript"><![CDATA[
var edges = document.getElementsByTagName('g');
if (edges && edges.length) {
  for (var i=0;i<edges.length;i++) {
    if (edges[i].id.substr(0,4)=='edge') {
      edges[i].setAttribute('class','edge');
    }
  }
}
]]></script>
        <defs>
                <circle id="rim" cx="0" cy="0" r="7"/>
                <circle id="rim2" cx="0" cy="0" r="3.5"/>
                <g id="zoomPlus">
                        <use xlink:href="#rim" fill="#404040">
                                <set attributeName="fill" to="#808080" begin="zoomplus.mouseover" end="zoomplus.mouseout"/>
                        </use>
                        <path d="M-4,0h8M0,-4v8" fill="none" stroke="white" stroke-width="1.5" pointer-events="none"/>
                </g>
                <g id="zoomMin">
                        <use xlink:href="#rim" fill="#404040">
                                <set attributeName="fill" to="#808080" begin="zoomminus.mouseover" end="zoomminus.mouseout"/>
                        </use>
                        <path d="M-4,0h8" fill="none" stroke="white" stroke-width="1.5" pointer-events="none"/>
                </g>
                <g id="dirArrow">
                        <path fill="none" stroke="white" stroke-width="1.5" d="M0,-3.0v7 M-2.5,-0.5L0,-3.0L2.5,-0.5"/>
                </g>
               <g id="resetDef">
                       <use xlink:href="#rim2" fill="#404040">
                               <set attributeName="fill" to="#808080" begin="reset.mouseover" end="reset.mouseout"/>
                       </use>
               </g>
        </defs>

<script type="text/javascript">
var viewWidth = 1221;
var viewHeight = 388;
var sectionId = 'dynsection-8';
</script>
<script xlink:href="svgpan.js"/>
<svg id="graph" class="graph">
<g id="viewport">
<title>setBIGINTParam</title>
<polygon fill="white" stroke="none" points="-4,4 -4,-384 1217,-384 1217,4 -4,4"/>
<!-- Node1 -->
<g id="node1" class="node"><title>Node1</title>
<polygon fill="#bfbfbf" stroke="black" points="0,-180.5 0,-199.5 92,-199.5 92,-180.5 0,-180.5"/>
<text text-anchor="middle" x="46" y="-187.5" font-family="Helvetica,sans-Serif" font-size="10.00">setBIGINTParam</text>
</g>
<!-- Node2 -->
<g id="node2" class="node"><title>Node2</title>
<g id="a_node2"><a xlink:href="classtomoBay_1_1model_1_1dataTypes_1_1heteroTypeContainer_1_1HeteroFieldContainer.html#a988363ab964d6dc0ccb8560bef5895b6" target="_top" xlink:title="retrieve the the value of an AbstractField from this HeteroFieldContainer, the field should be of the...">
<polygon fill="white" stroke="black" points="799,-80 799,-110 991,-110 991,-80 799,-80"/>
<text text-anchor="start" x="807" y="-98" font-family="Helvetica,sans-Serif" font-size="10.00">tomoBay.model.dataTypes.hetero</text>
<text text-anchor="middle" x="895" y="-87" font-family="Helvetica,sans-Serif" font-size="10.00">TypeContainer.HeteroFieldContainer.get</text>
</a>
</g>
</g>
<!-- Node1&#45;&gt;Node2 -->
<g id="edge1" class="edge"><title>Node1&#45;&gt;Node2</title>
<path fill="none" stroke="midnightblue" d="M53.7406,-180.317C81.5663,-141.598 192.042,-0 319.5,-0 319.5,-0 319.5,-0 588,-0 688.699,-0 799.995,-47.5042 856.547,-75.3285"/>
<polygon fill="midnightblue" stroke="midnightblue" points="855.29,-78.6124 865.8,-79.947 858.416,-72.3493 855.29,-78.6124"/>
</g>
<!-- Node4 -->
<g id="node4" class="node"><title>Node4</title>
<g id="a_node4"><a xlink:href="classtomoBay_1_1model_1_1sql_1_1framework_1_1QueryUtility.html#a56a65ac583b8720ae73dc81278e5690e" target="_top" xlink:title="set an Integer parameter for the query object specified. ">
<polygon fill="white" stroke="black" points="128,-180.5 128,-199.5 226,-199.5 226,-180.5 128,-180.5"/>
<text text-anchor="middle" x="177" y="-187.5" font-family="Helvetica,sans-Serif" font-size="10.00">setTINYINTParam</text>
</a>
</g>
</g>
<!-- Node1&#45;&gt;Node4 -->
<g id="edge3" class="edge"><title>Node1&#45;&gt;Node4</title>
<path fill="none" stroke="midnightblue" d="M92.1179,-190C100.279,-190 108.897,-190 117.378,-190"/>
<polygon fill="midnightblue" stroke="midnightblue" points="117.615,-193.5 127.615,-190 117.615,-186.5 117.615,-193.5"/>
</g>
<!-- Node5 -->
<g id="node5" class="node"><title>Node5</title>
<g id="a_node5"><a xlink:href="classtomoBay_1_1model_1_1sql_1_1framework_1_1queryTypes_1_1AbstractDBQuery.html#a41678b13e84de4335130f10cea7ae562" target="_top" xlink:title="get the statement object associated with this query ">
<polygon fill="white" stroke="black" points="807,-270 807,-300 983,-300 983,-270 807,-270"/>
<text text-anchor="start" x="815" y="-288" font-family="Helvetica,sans-Serif" font-size="10.00">tomoBay.model.sql.framework.query</text>
<text text-anchor="middle" x="895" y="-277" font-family="Helvetica,sans-Serif" font-size="10.00">Types.AbstractDBQuery.statement</text>
</a>
</g>
</g>
<!-- Node1&#45;&gt;Node5 -->
<g id="edge19" class="edge"><title>Node1&#45;&gt;Node5</title>
<path fill="none" stroke="midnightblue" d="M53.7406,-199.683C81.5663,-238.402 192.042,-380 319.5,-380 319.5,-380 319.5,-380 588,-380 688.699,-380 799.995,-332.496 856.547,-304.671"/>
<polygon fill="midnightblue" stroke="midnightblue" points="858.416,-307.651 865.8,-300.053 855.29,-301.388 858.416,-307.651"/>
</g>
<!-- Node3 -->
<g id="node3" class="node"><title>Node3</title>
<g id="a_node3"><a xlink:href="classtomoBay_1_1model_1_1dataTypes_1_1heteroTypeContainer_1_1HeteroFieldContainer.html#a9dee3c01eb5ab16203e1c6820a569484" target="_top" xlink:title="performs a type check, assuming that field and type are of the same type then this method returns tru...">
<polygon fill="white" stroke="black" points="1027,-74.5 1027,-115.5 1213,-115.5 1213,-74.5 1027,-74.5"/>
<text text-anchor="start" x="1035" y="-103.5" font-family="Helvetica,sans-Serif" font-size="10.00">tomoBay.model.dataTypes.hetero</text>
<text text-anchor="start" x="1035" y="-92.5" font-family="Helvetica,sans-Serif" font-size="10.00">TypeContainer.HeteroFieldContainer.is</text>
<text text-anchor="middle" x="1120" y="-81.5" font-family="Helvetica,sans-Serif" font-size="10.00">SameType</text>
</a>
</g>
</g>
<!-- Node2&#45;&gt;Node3 -->
<g id="edge2" class="edge"><title>Node2&#45;&gt;Node3</title>
<path fill="none" stroke="midnightblue" d="M991.219,-95C999.728,-95 1008.37,-95 1016.93,-95"/>
<polygon fill="midnightblue" stroke="midnightblue" points="1016.93,-98.5001 1026.93,-95 1016.93,-91.5001 1016.93,-98.5001"/>
</g>
<!-- Node4&#45;&gt;Node2 -->
<g id="edge6" class="edge"><title>Node4&#45;&gt;Node2</title>
<path fill="none" stroke="midnightblue" d="M187.119,-180.492C220.063,-147.215 337.304,-38 457,-38 457,-38 457,-38 588,-38 674.894,-38 773.355,-60.4884 834.57,-77.2144"/>
<polygon fill="midnightblue" stroke="midnightblue" points="833.868,-80.6515 844.439,-79.9494 835.737,-73.9058 833.868,-80.6515"/>
</g>
<!-- Node4&#45;&gt;Node5 -->
<g id="edge4" class="edge"><title>Node4&#45;&gt;Node5</title>
<path fill="none" stroke="midnightblue" d="M187.119,-199.508C220.063,-232.785 337.304,-342 457,-342 457,-342 457,-342 588,-342 674.894,-342 773.355,-319.512 834.57,-302.786"/>
<polygon fill="midnightblue" stroke="midnightblue" points="835.737,-306.094 844.439,-300.051 833.868,-299.348 835.737,-306.094"/>
</g>
<!-- Node7 -->
<g id="node7" class="node"><title>Node7</title>
<g id="a_node7"><a xlink:href="classtomoBay_1_1model_1_1sql_1_1framework_1_1QueryUtility.html#ab07d04299a96461dcf893416b8e32604" target="_top" xlink:title="set an Integer parameter for the query object specified. ">
<polygon fill="white" stroke="black" points="262,-180.5 262,-199.5 379,-199.5 379,-180.5 262,-180.5"/>
<text text-anchor="middle" x="320.5" y="-187.5" font-family="Helvetica,sans-Serif" font-size="10.00">setTIMESTAMPParam</text>
</a>
</g>
</g>
<!-- Node4&#45;&gt;Node7 -->
<g id="edge7" class="edge"><title>Node4&#45;&gt;Node7</title>
<path fill="none" stroke="midnightblue" d="M226.301,-190C234.383,-190 242.901,-190 251.37,-190"/>
<polygon fill="midnightblue" stroke="midnightblue" points="251.642,-193.5 261.642,-190 251.642,-186.5 251.642,-193.5"/>
</g>
<!-- Node6 -->
<g id="node6" class="node"><title>Node6</title>
<g id="a_node6"><a xlink:href="classtomoBay_1_1model_1_1sql_1_1framework_1_1queryTypes_1_1AbstractDBQuery.html#ae8a5c5f1701ee77ef658050c8345d518" target="_top" xlink:title="Used by derived classes to define the Query string to be used in the query. ">
<polygon fill="white" stroke="black" points="1032,-270 1032,-300 1208,-300 1208,-270 1032,-270"/>
<text text-anchor="start" x="1040" y="-288" font-family="Helvetica,sans-Serif" font-size="10.00">tomoBay.model.sql.framework.query</text>
<text text-anchor="middle" x="1120" y="-277" font-family="Helvetica,sans-Serif" font-size="10.00">Types.AbstractDBQuery.queryString</text>
</a>
</g>
</g>
<!-- Node5&#45;&gt;Node6 -->
<g id="edge5" class="edge"><title>Node5&#45;&gt;Node6</title>
<path fill="none" stroke="midnightblue" d="M983.176,-285C995.803,-285 1008.87,-285 1021.68,-285"/>
<polygon fill="midnightblue" stroke="midnightblue" points="1021.88,-288.5 1031.88,-285 1021.88,-281.5 1021.88,-288.5"/>
</g>
<!-- Node7&#45;&gt;Node2 -->
<g id="edge9" class="edge"><title>Node7&#45;&gt;Node2</title>
<path fill="none" stroke="midnightblue" d="M355.576,-180.44C417.958,-163.41 554.965,-128.188 673,-113 710.604,-108.161 751.985,-104.382 788.67,-101.562"/>
<polygon fill="midnightblue" stroke="midnightblue" points="789.177,-105.034 798.886,-100.792 788.651,-98.0537 789.177,-105.034"/>
</g>
<!-- Node7&#45;&gt;Node5 -->
<g id="edge8" class="edge"><title>Node7&#45;&gt;Node5</title>
<path fill="none" stroke="midnightblue" d="M357.899,-199.512C421.399,-215.735 556.751,-248.677 673,-266 713.297,-272.005 758.031,-276.291 796.653,-279.254"/>
<polygon fill="midnightblue" stroke="midnightblue" points="796.62,-282.762 806.853,-280.017 797.142,-275.781 796.62,-282.762"/>
</g>
<!-- Node8 -->
<g id="node8" class="node"><title>Node8</title>
<g id="a_node8"><a xlink:href="classtomoBay_1_1model_1_1sql_1_1framework_1_1QueryUtility.html#a202aab30c77e06c32318efd5cf949ca3" target="_top" xlink:title="set an Integer parameter for the query object specified. ">
<polygon fill="white" stroke="black" points="415,-180.5 415,-199.5 501,-199.5 501,-180.5 415,-180.5"/>
<text text-anchor="middle" x="458" y="-187.5" font-family="Helvetica,sans-Serif" font-size="10.00">setDATEParam</text>
</a>
</g>
</g>
<!-- Node7&#45;&gt;Node8 -->
<g id="edge10" class="edge"><title>Node7&#45;&gt;Node8</title>
<path fill="none" stroke="midnightblue" d="M379.357,-190C387.753,-190 396.356,-190 404.635,-190"/>
<polygon fill="midnightblue" stroke="midnightblue" points="404.909,-193.5 414.909,-190 404.909,-186.5 404.909,-193.5"/>
</g>
<!-- Node8&#45;&gt;Node2 -->
<g id="edge12" class="edge"><title>Node8&#45;&gt;Node2</title>
<path fill="none" stroke="midnightblue" d="M491.046,-180.496C532.702,-168.367 607.833,-147.251 673,-133 710.545,-124.789 751.997,-117.26 788.76,-111.108"/>
<polygon fill="midnightblue" stroke="midnightblue" points="789.705,-114.5 798.998,-109.41 788.56,-107.594 789.705,-114.5"/>
</g>
<!-- Node8&#45;&gt;Node5 -->
<g id="edge11" class="edge"><title>Node8&#45;&gt;Node5</title>
<path fill="none" stroke="midnightblue" d="M494.055,-199.577C536.308,-210.95 609.552,-230.124 673,-244 713.331,-252.82 758.072,-261.353 796.689,-268.329"/>
<polygon fill="midnightblue" stroke="midnightblue" points="796.426,-271.837 806.887,-270.161 797.664,-264.948 796.426,-271.837"/>
</g>
<!-- Node9 -->
<g id="node9" class="node"><title>Node9</title>
<g id="a_node9"><a xlink:href="classtomoBay_1_1model_1_1sql_1_1framework_1_1QueryUtility.html#a5677c2440b48e612fb51b57130555e5d" target="_top" xlink:title="set an Integer parameter for the query object specified. ">
<polygon fill="white" stroke="black" points="537,-180.5 537,-199.5 637,-199.5 637,-180.5 537,-180.5"/>
<text text-anchor="middle" x="587" y="-187.5" font-family="Helvetica,sans-Serif" font-size="10.00">setDOUBLEParam</text>
</a>
</g>
</g>
<!-- Node8&#45;&gt;Node9 -->
<g id="edge13" class="edge"><title>Node8&#45;&gt;Node9</title>
<path fill="none" stroke="midnightblue" d="M501.289,-190C509.483,-190 518.21,-190 526.83,-190"/>
<polygon fill="midnightblue" stroke="midnightblue" points="526.862,-193.5 536.862,-190 526.862,-186.5 526.862,-193.5"/>
</g>
<!-- Node9&#45;&gt;Node2 -->
<g id="edge15" class="edge"><title>Node9&#45;&gt;Node2</title>
<path fill="none" stroke="midnightblue" d="M618.741,-180.456C669.413,-164.725 771.281,-133.099 835.875,-113.045"/>
<polygon fill="midnightblue" stroke="midnightblue" points="837.004,-116.36 845.516,-110.052 834.928,-109.675 837.004,-116.36"/>
</g>
<!-- Node9&#45;&gt;Node5 -->
<g id="edge14" class="edge"><title>Node9&#45;&gt;Node5</title>
<path fill="none" stroke="midnightblue" d="M618.741,-199.544C669.413,-215.275 771.281,-246.901 835.875,-266.955"/>
<polygon fill="midnightblue" stroke="midnightblue" points="834.928,-270.325 845.516,-269.948 837.004,-263.64 834.928,-270.325"/>
</g>
<!-- Node10 -->
<g id="node10" class="node"><title>Node10</title>
<g id="a_node10"><a xlink:href="classtomoBay_1_1model_1_1sql_1_1framework_1_1QueryUtility.html#adf8f1fea7b649baadeb0297c41be72f5" target="_top" xlink:title="set an Integer parameter for the query object specified. ">
<polygon fill="white" stroke="black" points="673,-180.5 673,-199.5 763,-199.5 763,-180.5 673,-180.5"/>
<text text-anchor="middle" x="718" y="-187.5" font-family="Helvetica,sans-Serif" font-size="10.00">setFLOATParam</text>
</a>
</g>
</g>
<!-- Node9&#45;&gt;Node10 -->
<g id="edge16" class="edge"><title>Node9&#45;&gt;Node10</title>
<path fill="none" stroke="midnightblue" d="M637.137,-190C645.439,-190 654.101,-190 662.529,-190"/>
<polygon fill="midnightblue" stroke="midnightblue" points="662.654,-193.5 672.653,-190 662.653,-186.5 662.654,-193.5"/>
</g>
<!-- Node10&#45;&gt;Node2 -->
<g id="edge18" class="edge"><title>Node10&#45;&gt;Node2</title>
<path fill="none" stroke="midnightblue" d="M736.743,-180.368C764.86,-165.104 820.248,-135.037 857.206,-114.974"/>
<polygon fill="midnightblue" stroke="midnightblue" points="859.059,-117.95 866.178,-110.103 855.719,-111.798 859.059,-117.95"/>
</g>
<!-- Node10&#45;&gt;Node5 -->
<g id="edge17" class="edge"><title>Node10&#45;&gt;Node5</title>
<path fill="none" stroke="midnightblue" d="M736.743,-199.632C764.86,-214.896 820.248,-244.963 857.206,-265.026"/>
<polygon fill="midnightblue" stroke="midnightblue" points="855.719,-268.202 866.178,-269.897 859.059,-262.05 855.719,-268.202"/>
</g>
</g>
</svg>
        <g id="navigator" transform="translate(0 0)" fill="#404254">
                <rect fill="#f2f5e9" fill-opacity="0.5" stroke="#606060" stroke-width=".5" x="0" y="0" width="60" height="60"/>
                <use id="zoomplus" xlink:href="#zoomPlus" x="17" y="9" onmousedown="handleZoom(evt,'in')"/>
                <use id="zoomminus" xlink:href="#zoomMin" x="42" y="9" onmousedown="handleZoom(evt,'out')"/>
                <use id="reset" xlink:href="#resetDef" x="30" y="36" onmousedown="handleReset()"/>
                <g id="arrowUp" xlink:href="#dirArrow" transform="translate(30 24)" onmousedown="handlePan(0,-1)">
                  <use xlink:href="#rim" fill="#404040">
                        <set attributeName="fill" to="#808080" begin="arrowUp.mouseover" end="arrowUp.mouseout"/>
                  </use>
                  <path fill="none" stroke="white" stroke-width="1.5" d="M0,-3.0v7 M-2.5,-0.5L0,-3.0L2.5,-0.5"/>
                </g>
                <g id="arrowRight" xlink:href="#dirArrow" transform="rotate(90) translate(36 -43)" onmousedown="handlePan(1,0)">
                  <use xlink:href="#rim" fill="#404040">
                        <set attributeName="fill" to="#808080" begin="arrowRight.mouseover" end="arrowRight.mouseout"/>
                  </use>
                  <path fill="none" stroke="white" stroke-width="1.5" d="M0,-3.0v7 M-2.5,-0.5L0,-3.0L2.5,-0.5"/>
                </g>
                <g id="arrowDown" xlink:href="#dirArrow" transform="rotate(180) translate(-30 -48)" onmousedown="handlePan(0,1)">
                  <use xlink:href="#rim" fill="#404040">
                        <set attributeName="fill" to="#808080" begin="arrowDown.mouseover" end="arrowDown.mouseout"/>
                  </use>
                  <path fill="none" stroke="white" stroke-width="1.5" d="M0,-3.0v7 M-2.5,-0.5L0,-3.0L2.5,-0.5"/>
                </g>
                <g id="arrowLeft" xlink:href="#dirArrow" transform="rotate(270) translate(-36 17)" onmousedown="handlePan(-1,0)">
                  <use xlink:href="#rim" fill="#404040">
                        <set attributeName="fill" to="#808080" begin="arrowLeft.mouseover" end="arrowLeft.mouseout"/>
                  </use>
                  <path fill="none" stroke="white" stroke-width="1.5" d="M0,-3.0v7 M-2.5,-0.5L0,-3.0L2.5,-0.5"/>
                </g>
        </g>
        <svg viewBox="0 0 15 15" width="100%" height="30px" preserveAspectRatio="xMaxYMin meet">
         <g id="arrow_out" transform="scale(0.3 0.3)">
          <a xlink:href="classtomoBay_1_1model_1_1sql_1_1framework_1_1QueryUtility_a138f0c046bc0a6df71b168ab35c3c3e3_cgraph_org.svg" target="_base">
           <rect id="button" ry="5" rx="5" y="6" x="6" height="38" width="38"
                fill="#f2f5e9" fill-opacity="0.5" stroke="#606060" stroke-width="1.0"/>
           <path id="arrow"
             d="M 11.500037,31.436501 C 11.940474,20.09759 22.043105,11.32322 32.158766,21.979434 L 37.068811,17.246167 C 37.068811,17.246167 37.088388,32 37.088388,32 L 22.160133,31.978069 C 22.160133,31.978069 26.997745,27.140456 26.997745,27.140456 C 18.528582,18.264221 13.291696,25.230495 11.500037,31.436501 z"
             style="fill:#404040;"/>
          </a>
         </g>
        </svg>
</svg>
