<?xml version="1.0" encoding="UTF-8" standalone="no"?>
<!DOCTYPE svg PUBLIC "-//W3C//DTD SVG 1.1//EN"
 "http://www.w3.org/Graphics/SVG/1.1/DTD/svg11.dtd">
<!-- Generated by graphviz version 2.38.0 (20140413.2041)
 -->
<!-- Title: tomoBay.model.eBayAPI.OrdersCall Pages: 1 -->
<svg width="409pt" height="204pt"
 viewBox="0.00 0.00 409.50 204.00" xmlns="http://www.w3.org/2000/svg" xmlns:xlink="http://www.w3.org/1999/xlink">
<g id="graph0" class="graph" transform="scale(1 1) rotate(0) translate(4 200)">
<title>tomoBay.model.eBayAPI.OrdersCall</title>
<!-- Node1 -->
<g id="node1" class="node"><title>Node1</title>
<polygon fill="#bfbfbf" stroke="black" points="136.5,-0.5 136.5,-68.5 312.5,-68.5 312.5,-0.5 136.5,-0.5"/>
<text text-anchor="middle" x="224.5" y="-56.5" font-family="Helvetica,sans-Serif" font-size="10.00">tomoBay.model.eBayAPI.OrdersCall</text>
<polyline fill="none" stroke="black" points="136.5,-49.5 312.5,-49.5 "/>
<text text-anchor="middle" x="224.5" y="-37.5" font-family="Helvetica,sans-Serif" font-size="10.00"> </text>
<polyline fill="none" stroke="black" points="136.5,-30.5 312.5,-30.5 "/>
<text text-anchor="start" x="144.5" y="-18.5" font-family="Helvetica,sans-Serif" font-size="10.00">+ OrdersCall()</text>
<text text-anchor="start" x="144.5" y="-7.5" font-family="Helvetica,sans-Serif" font-size="10.00">+ call()</text>
</g>
<!-- Node2 -->
<g id="node2" class="node"><title>Node2</title>
<g id="a_node2"><a xlink:href="classtomoBay_1_1model_1_1eBayAPI_1_1AbstractAPIcall.html" target="_top" xlink:title="{tomoBay.model.eBayAPI.Abstract\lAPIcall\n|# usrToken_M\l# server_M\l|# AbstractAPIcall()\l}">
<polygon fill="none" stroke="black" points="0,-116.5 0,-195.5 167,-195.5 167,-116.5 0,-116.5"/>
<text text-anchor="start" x="8" y="-183.5" font-family="Helvetica,sans-Serif" font-size="10.00">tomoBay.model.eBayAPI.Abstract</text>
<text text-anchor="middle" x="83.5" y="-172.5" font-family="Helvetica,sans-Serif" font-size="10.00">APIcall</text>
<polyline fill="none" stroke="black" points="0,-165.5 167,-165.5 "/>
<text text-anchor="start" x="8" y="-153.5" font-family="Helvetica,sans-Serif" font-size="10.00"># usrToken_M</text>
<text text-anchor="start" x="8" y="-142.5" font-family="Helvetica,sans-Serif" font-size="10.00"># server_M</text>
<polyline fill="none" stroke="black" points="0,-135.5 167,-135.5 "/>
<text text-anchor="start" x="8" y="-123.5" font-family="Helvetica,sans-Serif" font-size="10.00"># AbstractAPIcall()</text>
</a>
</g>
</g>
<!-- Node2&#45;&gt;Node1 -->
<g id="edge1" class="edge"><title>Node2&#45;&gt;Node1</title>
<path fill="none" stroke="midnightblue" d="M137.008,-109.651C152.988,-96.1075 170.207,-81.5146 185.106,-68.8867"/>
<polygon fill="none" stroke="midnightblue" points="134.644,-107.066 129.279,-116.202 139.17,-112.406 134.644,-107.066"/>
</g>
<!-- Node3 -->
<g id="node3" class="node"><title>Node3</title>
<polygon fill="none" stroke="#bfbfbf" points="185,-127.5 185,-184.5 264,-184.5 264,-127.5 185,-127.5"/>
<text text-anchor="middle" x="224.5" y="-172.5" font-family="Helvetica,sans-Serif" font-size="10.00">GetOrdersCall</text>
<polyline fill="none" stroke="#bfbfbf" points="185,-165.5 264,-165.5 "/>
<text text-anchor="middle" x="224.5" y="-153.5" font-family="Helvetica,sans-Serif" font-size="10.00"> </text>
<polyline fill="none" stroke="#bfbfbf" points="185,-146.5 264,-146.5 "/>
<text text-anchor="middle" x="224.5" y="-134.5" font-family="Helvetica,sans-Serif" font-size="10.00"> </text>
</g>
<!-- Node3&#45;&gt;Node1 -->
<g id="edge2" class="edge"><title>Node3&#45;&gt;Node1</title>
<path fill="none" stroke="#404040" d="M224.5,-127.284C224.5,-113.465 224.5,-96.4009 224.5,-80.7494"/>
<polygon fill="none" stroke="#404040" points="224.5,-80.5891 220.5,-74.5891 224.5,-68.5891 228.5,-74.589 224.5,-80.5891"/>
<text text-anchor="middle" x="247" y="-90" font-family="Helvetica,sans-Serif" font-size="10.00"> ~order_M</text>
</g>
<!-- Node4 -->
<g id="node4" class="node"><title>Node4</title>
<polygon fill="none" stroke="#bfbfbf" points="281.5,-127.5 281.5,-184.5 401.5,-184.5 401.5,-127.5 281.5,-127.5"/>
<text text-anchor="middle" x="341.5" y="-172.5" font-family="Helvetica,sans-Serif" font-size="10.00">GetOrdersRequestType</text>
<polyline fill="none" stroke="#bfbfbf" points="281.5,-165.5 401.5,-165.5 "/>
<text text-anchor="middle" x="341.5" y="-153.5" font-family="Helvetica,sans-Serif" font-size="10.00"> </text>
<polyline fill="none" stroke="#bfbfbf" points="281.5,-146.5 401.5,-146.5 "/>
<text text-anchor="middle" x="341.5" y="-134.5" font-family="Helvetica,sans-Serif" font-size="10.00"> </text>
</g>
<!-- Node4&#45;&gt;Node1 -->
<g id="edge3" class="edge"><title>Node4&#45;&gt;Node1</title>
<path fill="none" stroke="#404040" d="M314.364,-127.284C299.896,-112.507 281.796,-94.0199 265.638,-77.517"/>
<polygon fill="none" stroke="#404040" points="265.292,-77.1636 258.236,-75.6747 256.897,-68.5891 263.953,-70.078 265.292,-77.1636"/>
<text text-anchor="middle" x="308.5" y="-90" font-family="Helvetica,sans-Serif" font-size="10.00"> ~ordreq_M</text>
</g>
</g>
</svg>
