<?xml version="1.0" encoding="UTF-8" standalone="no"?>
<!DOCTYPE svg PUBLIC "-//W3C//DTD SVG 1.1//EN"
 "http://www.w3.org/Graphics/SVG/1.1/DTD/svg11.dtd">
<!-- Generated by graphviz version 2.38.0 (20140413.2041)
 -->
<!-- Title: addBranch Pages: 1 -->
<svg width="244pt" height="78pt"
 viewBox="0.00 0.00 244.00 77.50" xmlns="http://www.w3.org/2000/svg" xmlns:xlink="http://www.w3.org/1999/xlink">
<g id="graph0" class="graph" transform="scale(1 1) rotate(0) translate(4 73.5)">
<title>addBranch</title>
<polygon fill="white" stroke="none" points="-4,4 -4,-73.5 240,-73.5 240,4 -4,4"/>
<!-- Node1 -->
<g id="node1" class="node"><title>Node1</title>
<polygon fill="#bfbfbf" stroke="black" points="0,-22.5 0,-41.5 63,-41.5 63,-22.5 0,-22.5"/>
<text text-anchor="middle" x="31.5" y="-29.5" font-family="Helvetica,sans-Serif" font-size="10.00">addBranch</text>
</g>
<!-- Node2 -->
<g id="node2" class="node"><title>Node2</title>
<g id="a_node2"><a xlink:href="classtomoBay_1_1model_1_1dataTypes_1_1DualList.html#ac6c5d11a7054f49bb7c9489f5893daeb" target="_top" xlink:title="add a value pair to the DualList ">
<polygon fill="white" stroke="black" points="99,-39 99,-69 236,-69 236,-39 99,-39"/>
<text text-anchor="start" x="107" y="-57" font-family="Helvetica,sans-Serif" font-size="10.00">tomoBay.model.dataTypes.</text>
<text text-anchor="middle" x="167.5" y="-46" font-family="Helvetica,sans-Serif" font-size="10.00">DualList.put</text>
</a>
</g>
</g>
<!-- Node1&#45;&gt;Node2 -->
<g id="edge1" class="edge"><title>Node1&#45;&gt;Node2</title>
<path fill="none" stroke="midnightblue" d="M63.2423,-37.0472C71.073,-38.3329 79.8492,-39.7738 88.8899,-41.258"/>
<polygon fill="midnightblue" stroke="midnightblue" points="88.3366,-44.714 98.7716,-42.8804 89.4708,-37.8065 88.3366,-44.714"/>
</g>
<!-- Node3 -->
<g id="node3" class="node"><title>Node3</title>
<g id="a_node3"><a xlink:href="classtomoBay_1_1model_1_1dataTypes_1_1json_1_1JSONentity.html#a77e2151cf49df9f80a4999e0e9e54d55" target="_top" xlink:title="toString">
<polygon fill="white" stroke="black" points="142.5,-0.5 142.5,-19.5 192.5,-19.5 192.5,-0.5 142.5,-0.5"/>
<text text-anchor="middle" x="167.5" y="-7.5" font-family="Helvetica,sans-Serif" font-size="10.00">toString</text>
</a>
</g>
</g>
<!-- Node1&#45;&gt;Node3 -->
<g id="edge2" class="edge"><title>Node1&#45;&gt;Node3</title>
<path fill="none" stroke="midnightblue" d="M63.2423,-26.9528C83.8271,-23.5732 110.946,-19.1208 132.226,-15.627"/>
<polygon fill="midnightblue" stroke="midnightblue" points="132.849,-19.0717 142.15,-13.9978 131.715,-12.1642 132.849,-19.0717"/>
</g>
</g>
</svg>
