<?xml version="1.0" encoding="UTF-8" standalone="no"?>
<!DOCTYPE svg PUBLIC "-//W3C//DTD SVG 1.1//EN"
 "http://www.w3.org/Graphics/SVG/1.1/DTD/svg11.dtd">
<!-- Generated by graphviz version 2.38.0 (20140413.2041)
 -->
<!-- Title: SelectEbayItemsNotInTransactionsFactory Pages: 1 -->
<svg width="189pt" height="392pt"
 viewBox="0.00 0.00 189.00 392.00" xmlns="http://www.w3.org/2000/svg" xmlns:xlink="http://www.w3.org/1999/xlink">
<g id="graph0" class="graph" transform="scale(1 1) rotate(0) translate(4 388)">
<title>SelectEbayItemsNotInTransactionsFactory</title>
<polygon fill="white" stroke="none" points="-4,4 -4,-388 185,-388 185,4 -4,4"/>
<!-- Node1 -->
<g id="node1" class="node"><title>Node1</title>
<polygon fill="#bfbfbf" stroke="black" points="0,-0.5 0,-90.5 181,-90.5 181,-0.5 0,-0.5"/>
<text text-anchor="start" x="8" y="-78.5" font-family="Helvetica,sans-Serif" font-size="10.00">SelectEbayItemsNotInTransactions</text>
<text text-anchor="middle" x="90.5" y="-67.5" font-family="Helvetica,sans-Serif" font-size="10.00">Factory</text>
<polyline fill="none" stroke="black" points="0,-60.5 181,-60.5 "/>
<text text-anchor="middle" x="90.5" y="-48.5" font-family="Helvetica,sans-Serif" font-size="10.00"> </text>
<polyline fill="none" stroke="black" points="0,-41.5 181,-41.5 "/>
<text text-anchor="start" x="8" y="-29.5" font-family="Helvetica,sans-Serif" font-size="10.00">+ SelectEbayItemsNotInTransactions</text>
<text text-anchor="start" x="8" y="-18.5" font-family="Helvetica,sans-Serif" font-size="10.00">Factory()</text>
<text text-anchor="start" x="8" y="-7.5" font-family="Helvetica,sans-Serif" font-size="10.00">+ make()</text>
</g>
<!-- Node2 -->
<g id="node2" class="node"><title>Node2</title>
<g id="a_node2"><a xlink:href="interfacetomoBay_1_1model_1_1sql_1_1framework_1_1queryFactories_1_1AbstractSelectNoParamsQueryFactory.html" target="_top" xlink:title="{AbstractSelectNoParamsQuery\lFactory\n||+ make()\l}">
<polygon fill="white" stroke="black" points="13.5,-127.5 13.5,-195.5 167.5,-195.5 167.5,-127.5 13.5,-127.5"/>
<text text-anchor="start" x="21.5" y="-183.5" font-family="Helvetica,sans-Serif" font-size="10.00">AbstractSelectNoParamsQuery</text>
<text text-anchor="middle" x="90.5" y="-172.5" font-family="Helvetica,sans-Serif" font-size="10.00">Factory</text>
<polyline fill="none" stroke="black" points="13.5,-165.5 167.5,-165.5 "/>
<text text-anchor="middle" x="90.5" y="-153.5" font-family="Helvetica,sans-Serif" font-size="10.00"> </text>
<polyline fill="none" stroke="black" points="13.5,-146.5 167.5,-146.5 "/>
<text text-anchor="start" x="21.5" y="-134.5" font-family="Helvetica,sans-Serif" font-size="10.00">+ make()</text>
</a>
</g>
</g>
<!-- Node2&#45;&gt;Node1 -->
<g id="edge1" class="edge"><title>Node2&#45;&gt;Node1</title>
<path fill="none" stroke="midnightblue" d="M90.5,-116.972C90.5,-108.346 90.5,-99.2838 90.5,-90.6378"/>
<polygon fill="none" stroke="midnightblue" points="87.0001,-117.22 90.5,-127.22 94.0001,-117.22 87.0001,-117.22"/>
</g>
<!-- Node3 -->
<g id="node3" class="node"><title>Node3</title>
<g id="a_node3"><a xlink:href="interfacetomoBay_1_1model_1_1sql_1_1framework_1_1queryFactories_1_1AbstractSelectQueryFactory.html" target="_top" xlink:title="{AbstractSelectQueryFactory\n||+ make()\l}">
<polygon fill="white" stroke="black" points="20.5,-232.5 20.5,-289.5 160.5,-289.5 160.5,-232.5 20.5,-232.5"/>
<text text-anchor="middle" x="90.5" y="-277.5" font-family="Helvetica,sans-Serif" font-size="10.00">AbstractSelectQueryFactory</text>
<polyline fill="none" stroke="black" points="20.5,-270.5 160.5,-270.5 "/>
<text text-anchor="middle" x="90.5" y="-258.5" font-family="Helvetica,sans-Serif" font-size="10.00"> </text>
<polyline fill="none" stroke="black" points="20.5,-251.5 160.5,-251.5 "/>
<text text-anchor="start" x="28.5" y="-239.5" font-family="Helvetica,sans-Serif" font-size="10.00">+ make()</text>
</a>
</g>
</g>
<!-- Node3&#45;&gt;Node2 -->
<g id="edge2" class="edge"><title>Node3&#45;&gt;Node2</title>
<path fill="none" stroke="midnightblue" d="M90.5,-222.063C90.5,-213.393 90.5,-204.243 90.5,-195.786"/>
<polygon fill="none" stroke="midnightblue" points="87.0001,-222.321 90.5,-232.321 94.0001,-222.321 87.0001,-222.321"/>
</g>
<!-- Node4 -->
<g id="node4" class="node"><title>Node4</title>
<g id="a_node4"><a xlink:href="interfacetomoBay_1_1model_1_1sql_1_1framework_1_1queryFactories_1_1AbstractQueryFactory.html" target="_top" xlink:title="all Queries are instantiated using a factory and each of these factories must conform to this interfa...">
<polygon fill="white" stroke="black" points="34,-326.5 34,-383.5 147,-383.5 147,-326.5 34,-326.5"/>
<text text-anchor="middle" x="90.5" y="-371.5" font-family="Helvetica,sans-Serif" font-size="10.00">AbstractQueryFactory</text>
<polyline fill="none" stroke="black" points="34,-364.5 147,-364.5 "/>
<text text-anchor="middle" x="90.5" y="-352.5" font-family="Helvetica,sans-Serif" font-size="10.00"> </text>
<polyline fill="none" stroke="black" points="34,-345.5 147,-345.5 "/>
<text text-anchor="start" x="42" y="-333.5" font-family="Helvetica,sans-Serif" font-size="10.00">+ make()</text>
</a>
</g>
</g>
<!-- Node4&#45;&gt;Node3 -->
<g id="edge3" class="edge"><title>Node4&#45;&gt;Node3</title>
<path fill="none" stroke="midnightblue" d="M90.5,-316.209C90.5,-307.293 90.5,-297.951 90.5,-289.584"/>
<polygon fill="none" stroke="midnightblue" points="87.0001,-316.397 90.5,-326.397 94.0001,-316.397 87.0001,-316.397"/>
</g>
</g>
</svg>
