<?xml version="1.0" encoding="UTF-8" standalone="no"?>
<!DOCTYPE svg PUBLIC "-//W3C//DTD SVG 1.1//EN"
 "http://www.w3.org/Graphics/SVG/1.1/DTD/svg11.dtd">
<!-- Generated by graphviz version 2.38.0 (20140413.2041)
 -->
<!-- Title: EmailErrorsMailActions Pages: 1 -->
<!--zoomable 651 -->
<svg id="main" version="1.1" xmlns="http://www.w3.org/2000/svg" xmlns:xlink="http://www.w3.org/1999/xlink" xml:space="preserve" onload="init(evt)">
<style type="text/css"><![CDATA[
.edge:hover path { stroke: red; }
.edge:hover polygon { stroke: red; fill: red; }
]]></style>
<script type="text/javascript"><![CDATA[
var edges = document.getElementsByTagName('g');
if (edges && edges.length) {
  for (var i=0;i<edges.length;i++) {
    if (edges[i].id.substr(0,4)=='edge') {
      edges[i].setAttribute('class','edge');
    }
  }
}
]]></script>
        <defs>
                <circle id="rim" cx="0" cy="0" r="7"/>
                <circle id="rim2" cx="0" cy="0" r="3.5"/>
                <g id="zoomPlus">
                        <use xlink:href="#rim" fill="#404040">
                                <set attributeName="fill" to="#808080" begin="zoomplus.mouseover" end="zoomplus.mouseout"/>
                        </use>
                        <path d="M-4,0h8M0,-4v8" fill="none" stroke="white" stroke-width="1.5" pointer-events="none"/>
                </g>
                <g id="zoomMin">
                        <use xlink:href="#rim" fill="#404040">
                                <set attributeName="fill" to="#808080" begin="zoomminus.mouseover" end="zoomminus.mouseout"/>
                        </use>
                        <path d="M-4,0h8" fill="none" stroke="white" stroke-width="1.5" pointer-events="none"/>
                </g>
                <g id="dirArrow">
                        <path fill="none" stroke="white" stroke-width="1.5" d="M0,-3.0v7 M-2.5,-0.5L0,-3.0L2.5,-0.5"/>
                </g>
               <g id="resetDef">
                       <use xlink:href="#rim2" fill="#404040">
                               <set attributeName="fill" to="#808080" begin="reset.mouseover" end="reset.mouseout"/>
                       </use>
               </g>
        </defs>

<script type="text/javascript">
var viewWidth = 580;
var viewHeight = 651;
var sectionId = 'dynsection-0';
</script>
<script xlink:href="svgpan.js"/>
<svg id="graph" class="graph">
<g id="viewport">
<title>EmailErrorsMailActions</title>
<polygon fill="white" stroke="none" points="-4,4 -4,-647 575.5,-647 575.5,4 -4,4"/>
<!-- Node1 -->
<g id="node1" class="node"><title>Node1</title>
<polygon fill="#bfbfbf" stroke="black" points="164.5,-0.5 164.5,-112.5 298.5,-112.5 298.5,-0.5 164.5,-0.5"/>
<text text-anchor="middle" x="231.5" y="-100.5" font-family="Helvetica,sans-Serif" font-size="10.00">EmailErrorsMailActions</text>
<polyline fill="none" stroke="black" points="164.5,-93.5 298.5,-93.5 "/>
<text text-anchor="middle" x="231.5" y="-81.5" font-family="Helvetica,sans-Serif" font-size="10.00"> </text>
<polyline fill="none" stroke="black" points="164.5,-74.5 298.5,-74.5 "/>
<text text-anchor="start" x="172.5" y="-62.5" font-family="Helvetica,sans-Serif" font-size="10.00">+ EmailErrorsMailActions()</text>
<text text-anchor="start" x="172.5" y="-51.5" font-family="Helvetica,sans-Serif" font-size="10.00">+ loadData()</text>
<text text-anchor="start" x="172.5" y="-40.5" font-family="Helvetica,sans-Serif" font-size="10.00">+ send()</text>
<text text-anchor="start" x="172.5" y="-29.5" font-family="Helvetica,sans-Serif" font-size="10.00">+ addMessage()</text>
<text text-anchor="start" x="172.5" y="-18.5" font-family="Helvetica,sans-Serif" font-size="10.00">&#45; addRecipient()</text>
<text text-anchor="start" x="172.5" y="-7.5" font-family="Helvetica,sans-Serif" font-size="10.00">&#45; addSubject()</text>
</g>
<!-- Node2 -->
<g id="node2" class="node"><title>Node2</title>
<g id="a_node2"><a xlink:href="classtomoBay_1_1model_1_1net_1_1email_1_1Email.html" target="_top" xlink:title="This class represents an email, it contains recipients a subject and a message body. ">
<polygon fill="white" stroke="black" points="163,-425.5 163,-526.5 264,-526.5 264,-425.5 163,-425.5"/>
<text text-anchor="middle" x="213.5" y="-514.5" font-family="Helvetica,sans-Serif" font-size="10.00">Email</text>
<polyline fill="none" stroke="black" points="163,-507.5 264,-507.5 "/>
<text text-anchor="start" x="171" y="-495.5" font-family="Helvetica,sans-Serif" font-size="10.00"># subject_M</text>
<text text-anchor="start" x="171" y="-484.5" font-family="Helvetica,sans-Serif" font-size="10.00"># messageBody_M</text>
<polyline fill="none" stroke="black" points="163,-477.5 264,-477.5 "/>
<text text-anchor="start" x="171" y="-465.5" font-family="Helvetica,sans-Serif" font-size="10.00">+ setRecipient()</text>
<text text-anchor="start" x="171" y="-454.5" font-family="Helvetica,sans-Serif" font-size="10.00">+ setSubject()</text>
<text text-anchor="start" x="171" y="-443.5" font-family="Helvetica,sans-Serif" font-size="10.00">+ setMessage()</text>
<text text-anchor="start" x="171" y="-432.5" font-family="Helvetica,sans-Serif" font-size="10.00"># Email()</text>
</a>
</g>
</g>
<!-- Node2&#45;&gt;Node1 -->
<g id="edge1" class="edge"><title>Node2&#45;&gt;Node1</title>
<path fill="none" stroke="#404040" d="M241.437,-425.067C248.341,-410.35 254.811,-393.915 258.5,-378 283.294,-271.036 285.885,-238.494 263.5,-131 263.051,-128.846 262.536,-126.677 261.964,-124.504"/>
<polygon fill="none" stroke="#404040" points="261.925,-124.376 256.347,-119.805 258.421,-112.899 263.998,-117.469 261.925,-124.376"/>
<text text-anchor="middle" x="293.5" y="-272" font-family="Helvetica,sans-Serif" font-size="10.00"> &#45;email</text>
</g>
<!-- Node8 -->
<g id="node8" class="node"><title>Node8</title>
<g id="a_node8"><a xlink:href="classtomoBay_1_1model_1_1net_1_1email_1_1AbstractEmailBuilder.html" target="_top" xlink:title="Copyright(C) 2015 Jan P.C. ">
<polygon fill="white" stroke="black" points="79.5,-298.5 79.5,-377.5 249.5,-377.5 249.5,-298.5 79.5,-298.5"/>
<text text-anchor="middle" x="164.5" y="-365.5" font-family="Helvetica,sans-Serif" font-size="10.00">AbstractEmailBuilder</text>
<polyline fill="none" stroke="black" points="79.5,-358.5 249.5,-358.5 "/>
<text text-anchor="middle" x="164.5" y="-346.5" font-family="Helvetica,sans-Serif" font-size="10.00"> </text>
<polyline fill="none" stroke="black" points="79.5,-339.5 249.5,-339.5 "/>
<text text-anchor="start" x="87.5" y="-327.5" font-family="Helvetica,sans-Serif" font-size="10.00"># AbstractEmailBuilder()</text>
<text text-anchor="start" x="87.5" y="-316.5" font-family="Helvetica,sans-Serif" font-size="10.00"># buildMailServerSendConnection()</text>
<text text-anchor="start" x="87.5" y="-305.5" font-family="Helvetica,sans-Serif" font-size="10.00"># buildEmail()</text>
</a>
</g>
</g>
<!-- Node2&#45;&gt;Node8 -->
<g id="edge8" class="edge"><title>Node2&#45;&gt;Node8</title>
<path fill="none" stroke="#404040" d="M195.969,-425.239C192.52,-415.534 188.913,-405.443 185.5,-396 184.66,-393.675 183.798,-391.299 182.924,-388.899"/>
<polygon fill="none" stroke="#404040" points="182.917,-388.88 177.101,-384.618 178.798,-377.609 184.615,-381.872 182.917,-388.88"/>
<text text-anchor="middle" x="212.5" y="-399" font-family="Helvetica,sans-Serif" font-size="10.00"> #email_M</text>
</g>
<!-- Node3 -->
<g id="node3" class="node"><title>Node3</title>
<polygon fill="white" stroke="#bfbfbf" points="133.5,-574.5 133.5,-642.5 293.5,-642.5 293.5,-574.5 133.5,-574.5"/>
<text text-anchor="start" x="141.5" y="-630.5" font-family="Helvetica,sans-Serif" font-size="10.00">Map&lt; String, Message.Recipient</text>
<text text-anchor="middle" x="213.5" y="-619.5" font-family="Helvetica,sans-Serif" font-size="10.00">Type &gt;</text>
<polyline fill="none" stroke="#bfbfbf" points="133.5,-612.5 293.5,-612.5 "/>
<text text-anchor="middle" x="213.5" y="-600.5" font-family="Helvetica,sans-Serif" font-size="10.00"> </text>
<polyline fill="none" stroke="#bfbfbf" points="133.5,-593.5 293.5,-593.5 "/>
<text text-anchor="middle" x="213.5" y="-581.5" font-family="Helvetica,sans-Serif" font-size="10.00"> </text>
</g>
<!-- Node3&#45;&gt;Node2 -->
<g id="edge2" class="edge"><title>Node3&#45;&gt;Node2</title>
<path fill="none" stroke="#404040" d="M213.5,-574.232C213.5,-563.471 213.5,-551.168 213.5,-539.015"/>
<polygon fill="none" stroke="#404040" points="213.5,-538.975 209.5,-532.975 213.5,-526.975 217.5,-532.975 213.5,-538.975"/>
<text text-anchor="middle" x="245.5" y="-548" font-family="Helvetica,sans-Serif" font-size="10.00"> #recipients_M</text>
</g>
<!-- Node4 -->
<g id="node4" class="node"><title>Node4</title>
<polygon fill="white" stroke="#bfbfbf" points="305.5,-160.5 305.5,-250.5 571.5,-250.5 571.5,-160.5 305.5,-160.5"/>
<text text-anchor="start" x="313.5" y="-238.5" font-family="Helvetica,sans-Serif" font-size="10.00">Map&lt; tomoBay.model.services.email</text>
<text text-anchor="start" x="313.5" y="-227.5" font-family="Helvetica,sans-Serif" font-size="10.00">ErrorsService.EmailErrorsService.tomo</text>
<text text-anchor="start" x="313.5" y="-216.5" font-family="Helvetica,sans-Serif" font-size="10.00">Bay.model.services.emailErrorsService.Email</text>
<text text-anchor="middle" x="438.5" y="-205.5" font-family="Helvetica,sans-Serif" font-size="10.00">ErrorsService.emailDataType, Message.RecipientType &gt;</text>
<polyline fill="none" stroke="#bfbfbf" points="305.5,-198.5 571.5,-198.5 "/>
<text text-anchor="middle" x="438.5" y="-186.5" font-family="Helvetica,sans-Serif" font-size="10.00"> </text>
<polyline fill="none" stroke="#bfbfbf" points="305.5,-179.5 571.5,-179.5 "/>
<text text-anchor="middle" x="438.5" y="-167.5" font-family="Helvetica,sans-Serif" font-size="10.00"> </text>
</g>
<!-- Node4&#45;&gt;Node1 -->
<g id="edge3" class="edge"><title>Node4&#45;&gt;Node1</title>
<path fill="none" stroke="#404040" d="M376.393,-160.395C355.023,-145.219 330.835,-128.042 308.428,-112.13"/>
<polygon fill="none" stroke="#404040" points="308.397,-112.108 301.189,-111.895 298.613,-105.16 305.821,-105.373 308.397,-112.108"/>
<text text-anchor="middle" x="378.5" y="-134" font-family="Helvetica,sans-Serif" font-size="10.00"> &#45;recipients_M</text>
</g>
<!-- Node5 -->
<g id="node5" class="node"><title>Node5</title>
<g id="a_node5"><a xlink:href="classtomoBay_1_1model_1_1net_1_1email_1_1MailServerSend.html" target="_top" xlink:title="This class represents a MailServer send connection, it allows the sending of email from a specific ad...">
<polygon fill="white" stroke="black" points="0,-425.5 0,-526.5 137,-526.5 137,-425.5 0,-425.5"/>
<text text-anchor="middle" x="68.5" y="-514.5" font-family="Helvetica,sans-Serif" font-size="10.00">MailServerSend</text>
<polyline fill="none" stroke="black" points="0,-507.5 137,-507.5 "/>
<text text-anchor="start" x="8" y="-495.5" font-family="Helvetica,sans-Serif" font-size="10.00"># transportProtocol</text>
<text text-anchor="start" x="8" y="-484.5" font-family="Helvetica,sans-Serif" font-size="10.00"># serverIP_M</text>
<polyline fill="none" stroke="black" points="0,-477.5 137,-477.5 "/>
<text text-anchor="start" x="8" y="-465.5" font-family="Helvetica,sans-Serif" font-size="10.00">+ send()</text>
<text text-anchor="start" x="8" y="-454.5" font-family="Helvetica,sans-Serif" font-size="10.00"># MailServerSend()</text>
<text text-anchor="start" x="8" y="-443.5" font-family="Helvetica,sans-Serif" font-size="10.00">&#45; generateMimeMessage()</text>
<text text-anchor="start" x="8" y="-432.5" font-family="Helvetica,sans-Serif" font-size="10.00">&#45; createMailServerSession()</text>
</a>
</g>
</g>
<!-- Node5&#45;&gt;Node1 -->
<g id="edge4" class="edge"><title>Node5&#45;&gt;Node1</title>
<path fill="none" stroke="#404040" d="M59.2411,-425.256C49.7271,-359.418 42.5275,-242.106 92.5,-160 107.437,-135.458 130.666,-114.928 153.887,-98.8446"/>
<polygon fill="none" stroke="#404040" points="154.181,-98.6493 156.958,-91.9943 164.169,-91.9981 161.392,-98.653 154.181,-98.6493"/>
<text text-anchor="middle" x="95" y="-272" font-family="Helvetica,sans-Serif" font-size="10.00"> &#45;sendConnection</text>
</g>
<!-- Node5&#45;&gt;Node8 -->
<g id="edge9" class="edge"><title>Node5&#45;&gt;Node8</title>
<path fill="none" stroke="#404040" d="M93.7828,-425.45C99.5275,-415.437 105.897,-405.174 112.5,-396 114.66,-392.998 116.96,-389.981 119.343,-386.987"/>
<polygon fill="none" stroke="#404040" points="119.511,-386.784 120.262,-379.612 127.171,-377.547 126.42,-384.719 119.511,-386.784"/>
<text text-anchor="middle" x="147" y="-399" font-family="Helvetica,sans-Serif" font-size="10.00"> #mailServer_M</text>
</g>
<!-- Node6 -->
<g id="node6" class="node"><title>Node6</title>
<polygon fill="white" stroke="#bfbfbf" points="38,-580 38,-637 99,-637 99,-580 38,-580"/>
<text text-anchor="middle" x="68.5" y="-625" font-family="Helvetica,sans-Serif" font-size="10.00">Properties</text>
<polyline fill="none" stroke="#bfbfbf" points="38,-618 99,-618 "/>
<text text-anchor="middle" x="68.5" y="-606" font-family="Helvetica,sans-Serif" font-size="10.00"> </text>
<polyline fill="none" stroke="#bfbfbf" points="38,-599 99,-599 "/>
<text text-anchor="middle" x="68.5" y="-587" font-family="Helvetica,sans-Serif" font-size="10.00"> </text>
</g>
<!-- Node6&#45;&gt;Node5 -->
<g id="edge5" class="edge"><title>Node6&#45;&gt;Node5</title>
<path fill="none" stroke="#404040" d="M68.5,-579.824C68.5,-567.725 68.5,-553.01 68.5,-538.54"/>
<polygon fill="none" stroke="#404040" points="68.5001,-538.505 64.5,-532.505 68.5,-526.505 72.5,-532.505 68.5001,-538.505"/>
<text text-anchor="middle" x="118.5" y="-548" font-family="Helvetica,sans-Serif" font-size="10.00"> #mailServerProperties</text>
</g>
<!-- Node7 -->
<g id="node7" class="node"><title>Node7</title>
<g id="a_node7"><a xlink:href="classtomoBay_1_1model_1_1net_1_1email_1_1EmailDirector.html" target="_top" xlink:title="This class is responsible for sending creating email and mail server objects. ">
<polygon fill="white" stroke="black" points="102,-160.5 102,-250.5 245,-250.5 245,-160.5 102,-160.5"/>
<text text-anchor="middle" x="173.5" y="-238.5" font-family="Helvetica,sans-Serif" font-size="10.00">EmailDirector</text>
<polyline fill="none" stroke="black" points="102,-231.5 245,-231.5 "/>
<text text-anchor="middle" x="173.5" y="-219.5" font-family="Helvetica,sans-Serif" font-size="10.00"> </text>
<polyline fill="none" stroke="black" points="102,-212.5 245,-212.5 "/>
<text text-anchor="start" x="110" y="-200.5" font-family="Helvetica,sans-Serif" font-size="10.00">+ EmailDirector()</text>
<text text-anchor="start" x="110" y="-189.5" font-family="Helvetica,sans-Serif" font-size="10.00">+ constructEmailAndServer()</text>
<text text-anchor="start" x="110" y="-178.5" font-family="Helvetica,sans-Serif" font-size="10.00">+ getEmail()</text>
<text text-anchor="start" x="110" y="-167.5" font-family="Helvetica,sans-Serif" font-size="10.00">+ getMailSendServer()</text>
</a>
</g>
</g>
<!-- Node7&#45;&gt;Node1 -->
<g id="edge6" class="edge"><title>Node7&#45;&gt;Node1</title>
<path fill="none" stroke="#404040" d="M179.321,-160.271C181.326,-150.452 183.987,-140.226 187.5,-131 188.446,-128.516 189.474,-126.02 190.569,-123.526"/>
<polygon fill="none" stroke="#404040" points="190.588,-123.487 189.554,-116.35 195.743,-112.651 196.778,-119.787 190.588,-123.487"/>
<text text-anchor="middle" x="225.5" y="-134" font-family="Helvetica,sans-Serif" font-size="10.00"> &#45;mailManager_M</text>
</g>
<!-- Node8&#45;&gt;Node7 -->
<g id="edge7" class="edge"><title>Node8&#45;&gt;Node7</title>
<path fill="none" stroke="#404040" d="M167.176,-298.199C167.937,-287.158 168.783,-274.901 169.601,-263.035"/>
<polygon fill="none" stroke="#404040" points="169.614,-262.851 166.036,-256.59 170.439,-250.879 174.017,-257.14 169.614,-262.851"/>
<text text-anchor="middle" x="195.5" y="-272" font-family="Helvetica,sans-Serif" font-size="10.00"> ~builder_M</text>
</g>
</g>
</svg>
        <g id="navigator" transform="translate(0 0)" fill="#404254">
                <rect fill="#f2f5e9" fill-opacity="0.5" stroke="#606060" stroke-width=".5" x="0" y="0" width="60" height="60"/>
                <use id="zoomplus" xlink:href="#zoomPlus" x="17" y="9" onmousedown="handleZoom(evt,'in')"/>
                <use id="zoomminus" xlink:href="#zoomMin" x="42" y="9" onmousedown="handleZoom(evt,'out')"/>
                <use id="reset" xlink:href="#resetDef" x="30" y="36" onmousedown="handleReset()"/>
                <g id="arrowUp" xlink:href="#dirArrow" transform="translate(30 24)" onmousedown="handlePan(0,-1)">
                  <use xlink:href="#rim" fill="#404040">
                        <set attributeName="fill" to="#808080" begin="arrowUp.mouseover" end="arrowUp.mouseout"/>
                  </use>
                  <path fill="none" stroke="white" stroke-width="1.5" d="M0,-3.0v7 M-2.5,-0.5L0,-3.0L2.5,-0.5"/>
                </g>
                <g id="arrowRight" xlink:href="#dirArrow" transform="rotate(90) translate(36 -43)" onmousedown="handlePan(1,0)">
                  <use xlink:href="#rim" fill="#404040">
                        <set attributeName="fill" to="#808080" begin="arrowRight.mouseover" end="arrowRight.mouseout"/>
                  </use>
                  <path fill="none" stroke="white" stroke-width="1.5" d="M0,-3.0v7 M-2.5,-0.5L0,-3.0L2.5,-0.5"/>
                </g>
                <g id="arrowDown" xlink:href="#dirArrow" transform="rotate(180) translate(-30 -48)" onmousedown="handlePan(0,1)">
                  <use xlink:href="#rim" fill="#404040">
                        <set attributeName="fill" to="#808080" begin="arrowDown.mouseover" end="arrowDown.mouseout"/>
                  </use>
                  <path fill="none" stroke="white" stroke-width="1.5" d="M0,-3.0v7 M-2.5,-0.5L0,-3.0L2.5,-0.5"/>
                </g>
                <g id="arrowLeft" xlink:href="#dirArrow" transform="rotate(270) translate(-36 17)" onmousedown="handlePan(-1,0)">
                  <use xlink:href="#rim" fill="#404040">
                        <set attributeName="fill" to="#808080" begin="arrowLeft.mouseover" end="arrowLeft.mouseout"/>
                  </use>
                  <path fill="none" stroke="white" stroke-width="1.5" d="M0,-3.0v7 M-2.5,-0.5L0,-3.0L2.5,-0.5"/>
                </g>
        </g>
        <svg viewBox="0 0 15 15" width="100%" height="30px" preserveAspectRatio="xMaxYMin meet">
         <g id="arrow_out" transform="scale(0.3 0.3)">
          <a xlink:href="classtomoBay_1_1model_1_1services_1_1emailErrorsService_1_1EmailErrorsMailActions__coll__graph_org.svg" target="_base">
           <rect id="button" ry="5" rx="5" y="6" x="6" height="38" width="38"
                fill="#f2f5e9" fill-opacity="0.5" stroke="#606060" stroke-width="1.0"/>
           <path id="arrow"
             d="M 11.500037,31.436501 C 11.940474,20.09759 22.043105,11.32322 32.158766,21.979434 L 37.068811,17.246167 C 37.068811,17.246167 37.088388,32 37.088388,32 L 22.160133,31.978069 C 22.160133,31.978069 26.997745,27.140456 26.997745,27.140456 C 18.528582,18.264221 13.291696,25.230495 11.500037,31.436501 z"
             style="fill:#404040;"/>
          </a>
         </g>
        </svg>
</svg>
