<?xml version="1.0" encoding="UTF-8" standalone="no"?>
<!DOCTYPE svg PUBLIC "-//W3C//DTD SVG 1.1//EN"
 "http://www.w3.org/Graphics/SVG/1.1/DTD/svg11.dtd">
<!-- Generated by graphviz version 2.38.0 (20140413.2041)
 -->
<!-- Title: ResultCodes Pages: 1 -->
<svg width="244pt" height="270pt"
 viewBox="0.00 0.00 244.00 270.00" xmlns="http://www.w3.org/2000/svg" xmlns:xlink="http://www.w3.org/1999/xlink">
<g id="graph0" class="graph" transform="scale(1 1) rotate(0) translate(4 266)">
<title>ResultCodes</title>
<polygon fill="white" stroke="none" points="-4,4 -4,-266 240,-266 240,4 -4,4"/>
<!-- Node1 -->
<g id="node1" class="node"><title>Node1</title>
<polygon fill="#bfbfbf" stroke="black" points="51,-0.5 51,-145.5 185,-145.5 185,-0.5 51,-0.5"/>
<text text-anchor="middle" x="118" y="-133.5" font-family="Helvetica,sans-Serif" font-size="10.00">ResultCodes</text>
<polyline fill="none" stroke="black" points="51,-126.5 185,-126.5 "/>
<text text-anchor="start" x="59" y="-114.5" font-family="Helvetica,sans-Serif" font-size="10.00">+ SUCCESS</text>
<text text-anchor="start" x="59" y="-103.5" font-family="Helvetica,sans-Serif" font-size="10.00">+ TERMINATOR_ERROR</text>
<text text-anchor="start" x="59" y="-92.5" font-family="Helvetica,sans-Serif" font-size="10.00">+ INVOICING_ERROR</text>
<text text-anchor="start" x="59" y="-81.5" font-family="Helvetica,sans-Serif" font-size="10.00">+ ERROR_SYNTAX</text>
<text text-anchor="start" x="59" y="-70.5" font-family="Helvetica,sans-Serif" font-size="10.00">+ SYNTAX_ERROR</text>
<text text-anchor="start" x="59" y="-59.5" font-family="Helvetica,sans-Serif" font-size="10.00">+ PRINTING_ERROR</text>
<text text-anchor="start" x="59" y="-48.5" font-family="Helvetica,sans-Serif" font-size="10.00">&#45; codes_M</text>
<polyline fill="none" stroke="black" points="51,-41.5 185,-41.5 "/>
<text text-anchor="start" x="59" y="-29.5" font-family="Helvetica,sans-Serif" font-size="10.00">+ [static initializer]()</text>
<text text-anchor="start" x="59" y="-18.5" font-family="Helvetica,sans-Serif" font-size="10.00">+ forValue()</text>
<text text-anchor="start" x="59" y="-7.5" font-family="Helvetica,sans-Serif" font-size="10.00">&#45; ResultCodes()</text>
</g>
<!-- Node2 -->
<g id="node2" class="node"><title>Node2</title>
<polygon fill="white" stroke="#bfbfbf" points="0,-193.5 0,-261.5 236,-261.5 236,-193.5 0,-193.5"/>
<text text-anchor="start" x="8" y="-249.5" font-family="Helvetica,sans-Serif" font-size="10.00">Map&lt; Integer, tomoBay.model.winstock.response.</text>
<text text-anchor="middle" x="118" y="-238.5" font-family="Helvetica,sans-Serif" font-size="10.00">ResultCodes &gt;</text>
<polyline fill="none" stroke="#bfbfbf" points="0,-231.5 236,-231.5 "/>
<text text-anchor="middle" x="118" y="-219.5" font-family="Helvetica,sans-Serif" font-size="10.00"> </text>
<polyline fill="none" stroke="#bfbfbf" points="0,-212.5 236,-212.5 "/>
<text text-anchor="middle" x="118" y="-200.5" font-family="Helvetica,sans-Serif" font-size="10.00"> </text>
</g>
<!-- Node2&#45;&gt;Node1 -->
<g id="edge1" class="edge"><title>Node2&#45;&gt;Node1</title>
<path fill="none" stroke="#404040" d="M118,-193.41C118,-182.722 118,-170.347 118,-157.696"/>
<polygon fill="none" stroke="#404040" points="118,-157.528 114,-151.528 118,-145.528 122,-151.528 118,-157.528"/>
<text text-anchor="middle" x="153" y="-167" font-family="Helvetica,sans-Serif" font-size="10.00"> &#45;codesByValue</text>
</g>
</g>
</svg>
