<?xml version="1.0" encoding="UTF-8" standalone="no"?>
<!DOCTYPE svg PUBLIC "-//W3C//DTD SVG 1.1//EN"
 "http://www.w3.org/Graphics/SVG/1.1/DTD/svg11.dtd">
<!-- Generated by graphviz version 2.38.0 (20140413.2041)
 -->
<!-- Title: getVar Pages: 1 -->
<svg width="990pt" height="1030pt"
 viewBox="0.00 0.00 990.00 1029.50" xmlns="http://www.w3.org/2000/svg" xmlns:xlink="http://www.w3.org/1999/xlink">
<g id="graph0" class="graph" transform="scale(1 1) rotate(0) translate(4 1025.5)">
<title>getVar</title>
<polygon fill="white" stroke="none" points="-4,4 -4,-1025.5 986,-1025.5 986,4 -4,4"/>
<!-- Node1 -->
<g id="node1" class="node"><title>Node1</title>
<polygon fill="#bfbfbf" stroke="black" points="0,-65.5 0,-84.5 45,-84.5 45,-65.5 0,-65.5"/>
<text text-anchor="middle" x="22.5" y="-72.5" font-family="Helvetica,sans-Serif" font-size="10.00">getVar</text>
</g>
<!-- Node2 -->
<g id="node2" class="node"><title>Node2</title>
<g id="a_node2"><a xlink:href="classtomoBay_1_1helpers_1_1ConfigReader.html#a310420c6db22982498520c2ad7a2b82f" target="_top" xlink:title="find the value of the config variable specified in the arguments. ">
<polygon fill="white" stroke="black" points="81,-530.5 81,-549.5 272,-549.5 272,-530.5 81,-530.5"/>
<text text-anchor="middle" x="176.5" y="-537.5" font-family="Helvetica,sans-Serif" font-size="10.00">tomoBay.helpers.ConfigReader.getConf</text>
</a>
</g>
</g>
<!-- Node1&#45;&gt;Node2 -->
<g id="edge1" class="edge"><title>Node1&#45;&gt;Node2</title>
<path fill="none" stroke="midnightblue" d="M29.8478,-94.4193C55.8192,-173.871 153.499,-472.693 172.343,-530.341"/>
<polygon fill="midnightblue" stroke="midnightblue" points="33.1086,-93.1298 26.6747,-84.7122 26.4551,-95.3047 33.1086,-93.1298"/>
</g>
<!-- Node28 -->
<g id="node28" class="node"><title>Node28</title>
<g id="a_node28"><a xlink:href="classtomoBay_1_1helpers_1_1ConfigReader.html#a7059b3afa0bba045e7069deaa7460887" target="_top" xlink:title="Find all values of the specified config variable, if multiple instances exist then the array will be ...">
<polygon fill="white" stroke="black" points="91.5,-60 91.5,-90 261.5,-90 261.5,-60 91.5,-60"/>
<text text-anchor="start" x="99.5" y="-78" font-family="Helvetica,sans-Serif" font-size="10.00">tomoBay.helpers.ConfigReader.get</text>
<text text-anchor="middle" x="176.5" y="-67" font-family="Helvetica,sans-Serif" font-size="10.00">Confs</text>
</a>
</g>
</g>
<!-- Node1&#45;&gt;Node28 -->
<g id="edge28" class="edge"><title>Node1&#45;&gt;Node28</title>
<path fill="none" stroke="midnightblue" d="M55.3439,-75C66.063,-75 78.5762,-75 91.4007,-75"/>
<polygon fill="midnightblue" stroke="midnightblue" points="55.2779,-71.5001 45.2779,-75 55.2779,-78.5001 55.2779,-71.5001"/>
</g>
<!-- Node33 -->
<g id="node33" class="node"><title>Node33</title>
<g id="a_node33"><a xlink:href="classtomoBay_1_1helpers_1_1ConfigReader.html#ad3d2ffd9b97b6fcdb33c2ca3bb528a11" target="_top" xlink:title="find out how many instances of a particular config variable exist within the config file...">
<polygon fill="white" stroke="black" points="89.5,-21.5 89.5,-40.5 263.5,-40.5 263.5,-21.5 89.5,-21.5"/>
<text text-anchor="middle" x="176.5" y="-28.5" font-family="Helvetica,sans-Serif" font-size="10.00">tomoBay.helpers.ConfigReader.size</text>
</a>
</g>
</g>
<!-- Node1&#45;&gt;Node33 -->
<g id="edge33" class="edge"><title>Node1&#45;&gt;Node33</title>
<path fill="none" stroke="midnightblue" d="M52.1391,-61.1287C61.2153,-57.12 71.3903,-53.0176 81,-50 92.8148,-46.2899 105.695,-43.1371 118.038,-40.5295"/>
<polygon fill="midnightblue" stroke="midnightblue" points="50.4478,-58.0531 42.8005,-65.386 53.3515,-64.4225 50.4478,-58.0531"/>
</g>
<!-- Node3 -->
<g id="node3" class="node"><title>Node3</title>
<g id="a_node3"><a xlink:href="classtomoBay_1_1helpers_1_1checkTime_1_1Friday.html#a2377d20a90d04ac963661f0a3a995f94" target="_top" xlink:title="defines the start time for this Day derived class ">
<polygon fill="white" stroke="black" points="338.5,-991 338.5,-1021 482.5,-1021 482.5,-991 338.5,-991"/>
<text text-anchor="start" x="346.5" y="-1009" font-family="Helvetica,sans-Serif" font-size="10.00">tomoBay.helpers.checkTime.</text>
<text text-anchor="middle" x="410.5" y="-998" font-family="Helvetica,sans-Serif" font-size="10.00">Friday.startTime</text>
</a>
</g>
</g>
<!-- Node2&#45;&gt;Node3 -->
<g id="edge2" class="edge"><title>Node2&#45;&gt;Node3</title>
<path fill="none" stroke="midnightblue" d="M176.876,-559.839C175.844,-629.179 182.21,-862.934 308,-982 316.482,-990.029 327.133,-995.535 338.322,-999.281"/>
<polygon fill="midnightblue" stroke="midnightblue" points="180.383,-559.586 177.108,-549.51 173.385,-559.429 180.383,-559.586"/>
</g>
<!-- Node4 -->
<g id="node4" class="node"><title>Node4</title>
<g id="a_node4"><a xlink:href="classtomoBay_1_1helpers_1_1checkTime_1_1Friday.html#a59c0b53629eb43516639e74aa467f7cf" target="_top" xlink:title="defines the end time for this Day derived class ">
<polygon fill="white" stroke="black" points="338.5,-942 338.5,-972 482.5,-972 482.5,-942 338.5,-942"/>
<text text-anchor="start" x="346.5" y="-960" font-family="Helvetica,sans-Serif" font-size="10.00">tomoBay.helpers.checkTime.</text>
<text text-anchor="middle" x="410.5" y="-949" font-family="Helvetica,sans-Serif" font-size="10.00">Friday.endTime</text>
</a>
</g>
</g>
<!-- Node2&#45;&gt;Node4 -->
<g id="edge3" class="edge"><title>Node2&#45;&gt;Node4</title>
<path fill="none" stroke="midnightblue" d="M177.717,-559.747C179.549,-624.018 194.435,-829.057 308,-933 316.549,-940.824 327.167,-946.237 338.285,-949.954"/>
<polygon fill="midnightblue" stroke="midnightblue" points="181.217,-559.671 177.51,-549.745 174.218,-559.816 181.217,-559.671"/>
</g>
<!-- Node5 -->
<g id="node5" class="node"><title>Node5</title>
<g id="a_node5"><a xlink:href="classtomoBay_1_1helpers_1_1checkTime_1_1Monday.html#a2377d20a90d04ac963661f0a3a995f94" target="_top" xlink:title="defines the start time for this Day derived class ">
<polygon fill="white" stroke="black" points="338.5,-893 338.5,-923 482.5,-923 482.5,-893 338.5,-893"/>
<text text-anchor="start" x="346.5" y="-911" font-family="Helvetica,sans-Serif" font-size="10.00">tomoBay.helpers.checkTime.</text>
<text text-anchor="middle" x="410.5" y="-900" font-family="Helvetica,sans-Serif" font-size="10.00">Monday.startTime</text>
</a>
</g>
</g>
<!-- Node2&#45;&gt;Node5 -->
<g id="edge4" class="edge"><title>Node2&#45;&gt;Node5</title>
<path fill="none" stroke="midnightblue" d="M178.793,-559.964C183.744,-619.162 206.722,-795.136 308,-884 316.643,-891.583 327.243,-896.881 338.298,-900.561"/>
<polygon fill="midnightblue" stroke="midnightblue" points="182.264,-559.451 178.025,-549.741 175.284,-559.976 182.264,-559.451"/>
</g>
<!-- Node6 -->
<g id="node6" class="node"><title>Node6</title>
<g id="a_node6"><a xlink:href="classtomoBay_1_1helpers_1_1checkTime_1_1Monday.html#a59c0b53629eb43516639e74aa467f7cf" target="_top" xlink:title="defines the end time for this Day derived class ">
<polygon fill="white" stroke="black" points="338.5,-844 338.5,-874 482.5,-874 482.5,-844 338.5,-844"/>
<text text-anchor="start" x="346.5" y="-862" font-family="Helvetica,sans-Serif" font-size="10.00">tomoBay.helpers.checkTime.</text>
<text text-anchor="middle" x="410.5" y="-851" font-family="Helvetica,sans-Serif" font-size="10.00">Monday.endTime</text>
</a>
</g>
</g>
<!-- Node2&#45;&gt;Node6 -->
<g id="edge5" class="edge"><title>Node2&#45;&gt;Node6</title>
<path fill="none" stroke="midnightblue" d="M180.178,-559.919C188.457,-613.35 218.708,-760.815 308,-835 316.775,-842.29 327.377,-847.445 338.377,-851.075"/>
<polygon fill="midnightblue" stroke="midnightblue" points="183.6,-559.133 178.695,-549.742 176.673,-560.142 183.6,-559.133"/>
</g>
<!-- Node7 -->
<g id="node7" class="node"><title>Node7</title>
<g id="a_node7"><a xlink:href="classtomoBay_1_1helpers_1_1checkTime_1_1Saturday.html#a2377d20a90d04ac963661f0a3a995f94" target="_top" xlink:title="defines the start time for this Day derived class ">
<polygon fill="white" stroke="black" points="338.5,-795 338.5,-825 482.5,-825 482.5,-795 338.5,-795"/>
<text text-anchor="start" x="346.5" y="-813" font-family="Helvetica,sans-Serif" font-size="10.00">tomoBay.helpers.checkTime.</text>
<text text-anchor="middle" x="410.5" y="-802" font-family="Helvetica,sans-Serif" font-size="10.00">Saturday.startTime</text>
</a>
</g>
</g>
<!-- Node2&#45;&gt;Node7 -->
<g id="edge6" class="edge"><title>Node2&#45;&gt;Node7</title>
<path fill="none" stroke="midnightblue" d="M181.94,-559.408C193.705,-606.23 230.246,-725.95 308,-786 316.885,-792.862 327.42,-797.808 338.285,-801.364"/>
<polygon fill="midnightblue" stroke="midnightblue" points="185.327,-558.522 179.58,-549.621 178.522,-560.163 185.327,-558.522"/>
</g>
<!-- Node8 -->
<g id="node8" class="node"><title>Node8</title>
<g id="a_node8"><a xlink:href="classtomoBay_1_1helpers_1_1checkTime_1_1Saturday.html#a59c0b53629eb43516639e74aa467f7cf" target="_top" xlink:title="defines the end time for this Day derived class ">
<polygon fill="white" stroke="black" points="338.5,-746 338.5,-776 482.5,-776 482.5,-746 338.5,-746"/>
<text text-anchor="start" x="346.5" y="-764" font-family="Helvetica,sans-Serif" font-size="10.00">tomoBay.helpers.checkTime.</text>
<text text-anchor="middle" x="410.5" y="-753" font-family="Helvetica,sans-Serif" font-size="10.00">Saturday.endTime</text>
</a>
</g>
</g>
<!-- Node2&#45;&gt;Node8 -->
<g id="edge7" class="edge"><title>Node2&#45;&gt;Node8</title>
<path fill="none" stroke="midnightblue" d="M184.55,-559.236C200.188,-599.085 241.728,-690.784 308,-737 317.06,-743.318 327.565,-747.988 338.313,-751.436"/>
<polygon fill="midnightblue" stroke="midnightblue" points="187.732,-557.758 180.903,-549.658 181.191,-560.249 187.732,-557.758"/>
</g>
<!-- Node9 -->
<g id="node9" class="node"><title>Node9</title>
<g id="a_node9"><a xlink:href="classtomoBay_1_1helpers_1_1checkTime_1_1Sunday.html#a2377d20a90d04ac963661f0a3a995f94" target="_top" xlink:title="defines the start time for this Day derived class ">
<polygon fill="white" stroke="black" points="338.5,-697 338.5,-727 482.5,-727 482.5,-697 338.5,-697"/>
<text text-anchor="start" x="346.5" y="-715" font-family="Helvetica,sans-Serif" font-size="10.00">tomoBay.helpers.checkTime.</text>
<text text-anchor="middle" x="410.5" y="-704" font-family="Helvetica,sans-Serif" font-size="10.00">Sunday.startTime</text>
</a>
</g>
</g>
<!-- Node2&#45;&gt;Node9 -->
<g id="edge8" class="edge"><title>Node2&#45;&gt;Node9</title>
<path fill="none" stroke="midnightblue" d="M188.383,-558.516C208.042,-590.245 252.62,-654.791 308,-688 317.318,-693.587 327.843,-697.874 338.499,-701.163"/>
<polygon fill="midnightblue" stroke="midnightblue" points="191.274,-556.532 183.098,-549.793 185.287,-560.16 191.274,-556.532"/>
</g>
<!-- Node10 -->
<g id="node10" class="node"><title>Node10</title>
<g id="a_node10"><a xlink:href="classtomoBay_1_1helpers_1_1checkTime_1_1Sunday.html#a59c0b53629eb43516639e74aa467f7cf" target="_top" xlink:title="defines the end time for this Day derived class ">
<polygon fill="white" stroke="black" points="338.5,-648 338.5,-678 482.5,-678 482.5,-648 338.5,-648"/>
<text text-anchor="start" x="346.5" y="-666" font-family="Helvetica,sans-Serif" font-size="10.00">tomoBay.helpers.checkTime.</text>
<text text-anchor="middle" x="410.5" y="-655" font-family="Helvetica,sans-Serif" font-size="10.00">Sunday.endTime</text>
</a>
</g>
</g>
<!-- Node2&#45;&gt;Node10 -->
<g id="edge9" class="edge"><title>Node2&#45;&gt;Node10</title>
<path fill="none" stroke="midnightblue" d="M194.415,-556.624C217.911,-578.768 262.672,-617.628 308,-639 317.499,-643.479 327.904,-647.16 338.317,-650.176"/>
<polygon fill="midnightblue" stroke="midnightblue" points="196.668,-553.935 187.025,-549.544 191.825,-558.99 196.668,-553.935"/>
</g>
<!-- Node11 -->
<g id="node11" class="node"><title>Node11</title>
<g id="a_node11"><a xlink:href="classtomoBay_1_1helpers_1_1checkTime_1_1Thursday.html#a2377d20a90d04ac963661f0a3a995f94" target="_top" xlink:title="defines the start time for this Day derived class ">
<polygon fill="white" stroke="black" points="338.5,-599 338.5,-629 482.5,-629 482.5,-599 338.5,-599"/>
<text text-anchor="start" x="346.5" y="-617" font-family="Helvetica,sans-Serif" font-size="10.00">tomoBay.helpers.checkTime.</text>
<text text-anchor="middle" x="410.5" y="-606" font-family="Helvetica,sans-Serif" font-size="10.00">Thursday.startTime</text>
</a>
</g>
</g>
<!-- Node2&#45;&gt;Node11 -->
<g id="edge10" class="edge"><title>Node2&#45;&gt;Node11</title>
<path fill="none" stroke="midnightblue" d="M209.216,-553.522C235.388,-564.346 273.666,-579.416 308,-590 318.382,-593.201 329.473,-596.219 340.371,-598.966"/>
<polygon fill="midnightblue" stroke="midnightblue" points="210.389,-550.219 199.812,-549.6 207.694,-556.679 210.389,-550.219"/>
</g>
<!-- Node12 -->
<g id="node12" class="node"><title>Node12</title>
<g id="a_node12"><a xlink:href="classtomoBay_1_1helpers_1_1checkTime_1_1Thursday.html#a59c0b53629eb43516639e74aa467f7cf" target="_top" xlink:title="defines the end time for this Day derived class ">
<polygon fill="white" stroke="black" points="338.5,-550 338.5,-580 482.5,-580 482.5,-550 338.5,-550"/>
<text text-anchor="start" x="346.5" y="-568" font-family="Helvetica,sans-Serif" font-size="10.00">tomoBay.helpers.checkTime.</text>
<text text-anchor="middle" x="410.5" y="-557" font-family="Helvetica,sans-Serif" font-size="10.00">Thursday.endTime</text>
</a>
</g>
</g>
<!-- Node2&#45;&gt;Node12 -->
<g id="edge11" class="edge"><title>Node2&#45;&gt;Node12</title>
<path fill="none" stroke="midnightblue" d="M276.06,-550.621C296.967,-552.874 318.647,-555.21 338.3,-557.328"/>
<polygon fill="midnightblue" stroke="midnightblue" points="276.189,-547.114 265.871,-549.523 275.439,-554.074 276.189,-547.114"/>
</g>
<!-- Node13 -->
<g id="node13" class="node"><title>Node13</title>
<g id="a_node13"><a xlink:href="classtomoBay_1_1helpers_1_1checkTime_1_1Tuesday.html#a2377d20a90d04ac963661f0a3a995f94" target="_top" xlink:title="defines the start time for this Day derived class ">
<polygon fill="white" stroke="black" points="338.5,-501 338.5,-531 482.5,-531 482.5,-501 338.5,-501"/>
<text text-anchor="start" x="346.5" y="-519" font-family="Helvetica,sans-Serif" font-size="10.00">tomoBay.helpers.checkTime.</text>
<text text-anchor="middle" x="410.5" y="-508" font-family="Helvetica,sans-Serif" font-size="10.00">Tuesday.startTime</text>
</a>
</g>
</g>
<!-- Node2&#45;&gt;Node13 -->
<g id="edge12" class="edge"><title>Node2&#45;&gt;Node13</title>
<path fill="none" stroke="midnightblue" d="M279.525,-529.446C299.368,-527.393 319.765,-525.283 338.347,-523.361"/>
<polygon fill="midnightblue" stroke="midnightblue" points="279.112,-525.97 269.526,-530.48 279.833,-532.932 279.112,-525.97"/>
</g>
<!-- Node14 -->
<g id="node14" class="node"><title>Node14</title>
<g id="a_node14"><a xlink:href="classtomoBay_1_1helpers_1_1checkTime_1_1Tuesday.html#a59c0b53629eb43516639e74aa467f7cf" target="_top" xlink:title="defines the end time for this Day derived class ">
<polygon fill="white" stroke="black" points="338.5,-452 338.5,-482 482.5,-482 482.5,-452 338.5,-452"/>
<text text-anchor="start" x="346.5" y="-470" font-family="Helvetica,sans-Serif" font-size="10.00">tomoBay.helpers.checkTime.</text>
<text text-anchor="middle" x="410.5" y="-459" font-family="Helvetica,sans-Serif" font-size="10.00">Tuesday.endTime</text>
</a>
</g>
</g>
<!-- Node2&#45;&gt;Node14 -->
<g id="edge13" class="edge"><title>Node2&#45;&gt;Node14</title>
<path fill="none" stroke="midnightblue" d="M210.721,-526.62C236.89,-516.364 274.432,-502.273 308,-492 319.54,-488.468 331.934,-485.085 343.959,-482.01"/>
<polygon fill="midnightblue" stroke="midnightblue" points="209.297,-523.419 201.281,-530.347 211.867,-529.93 209.297,-523.419"/>
</g>
<!-- Node15 -->
<g id="node15" class="node"><title>Node15</title>
<g id="a_node15"><a xlink:href="classtomoBay_1_1helpers_1_1checkTime_1_1Wednesday.html#a2377d20a90d04ac963661f0a3a995f94" target="_top" xlink:title="defines the start time for this Day derived class ">
<polygon fill="white" stroke="black" points="338.5,-403 338.5,-433 482.5,-433 482.5,-403 338.5,-403"/>
<text text-anchor="start" x="346.5" y="-421" font-family="Helvetica,sans-Serif" font-size="10.00">tomoBay.helpers.checkTime.</text>
<text text-anchor="middle" x="410.5" y="-410" font-family="Helvetica,sans-Serif" font-size="10.00">Wednesday.startTime</text>
</a>
</g>
</g>
<!-- Node2&#45;&gt;Node15 -->
<g id="edge14" class="edge"><title>Node2&#45;&gt;Node15</title>
<path fill="none" stroke="midnightblue" d="M194.872,-523.459C218.571,-501.795 263.227,-464.097 308,-443 317.522,-438.513 327.939,-434.776 338.357,-431.68"/>
<polygon fill="midnightblue" stroke="midnightblue" points="192.344,-521.03 187.397,-530.399 197.107,-526.159 192.344,-521.03"/>
</g>
<!-- Node16 -->
<g id="node16" class="node"><title>Node16</title>
<g id="a_node16"><a xlink:href="classtomoBay_1_1helpers_1_1checkTime_1_1Wednesday.html#a59c0b53629eb43516639e74aa467f7cf" target="_top" xlink:title="defines the end time for this Day derived class ">
<polygon fill="white" stroke="black" points="338.5,-354 338.5,-384 482.5,-384 482.5,-354 338.5,-354"/>
<text text-anchor="start" x="346.5" y="-372" font-family="Helvetica,sans-Serif" font-size="10.00">tomoBay.helpers.checkTime.</text>
<text text-anchor="middle" x="410.5" y="-361" font-family="Helvetica,sans-Serif" font-size="10.00">Wednesday.endTime</text>
</a>
</g>
</g>
<!-- Node2&#45;&gt;Node16 -->
<g id="edge15" class="edge"><title>Node2&#45;&gt;Node16</title>
<path fill="none" stroke="midnightblue" d="M188.48,-521.79C208.285,-490.575 253.082,-427.027 308,-394 317.254,-388.435 327.689,-384.106 338.256,-380.74"/>
<polygon fill="midnightblue" stroke="midnightblue" points="185.454,-520.028 183.152,-530.37 191.401,-523.721 185.454,-520.028"/>
</g>
<!-- Node17 -->
<g id="node17" class="node"><title>Node17</title>
<g id="a_node17"><a xlink:href="classtomoBay_1_1model_1_1net_1_1email_1_1MailClient.html#af9eddf4b6d3506f30b2f282c86c59ed6" target="_top" xlink:title="tomoBay.model.net.email.\lMailClient.send">
<polygon fill="white" stroke="black" points="345,-305 345,-335 476,-335 476,-305 345,-305"/>
<text text-anchor="start" x="353" y="-323" font-family="Helvetica,sans-Serif" font-size="10.00">tomoBay.model.net.email.</text>
<text text-anchor="middle" x="410.5" y="-312" font-family="Helvetica,sans-Serif" font-size="10.00">MailClient.send</text>
</a>
</g>
</g>
<!-- Node2&#45;&gt;Node17 -->
<g id="edge16" class="edge"><title>Node2&#45;&gt;Node17</title>
<path fill="none" stroke="midnightblue" d="M184.641,-521.006C200.453,-481.651 242.3,-391.042 308,-345 318.924,-337.345 331.941,-332.025 344.951,-328.33"/>
<polygon fill="midnightblue" stroke="midnightblue" points="181.325,-519.876 180.951,-530.465 187.846,-522.421 181.325,-519.876"/>
</g>
<!-- Node21 -->
<g id="node21" class="node"><title>Node21</title>
<g id="a_node21"><a xlink:href="classtomoBay_1_1model_1_1services_1_1emailErrorsService_1_1EmailErrorsMailActions.html#ae9399f5ec7881c5d18173def8068108e" target="_top" xlink:title="send the email ">
<polygon fill="white" stroke="black" points="308,-256 308,-286 513,-286 513,-256 308,-256"/>
<text text-anchor="start" x="316" y="-274" font-family="Helvetica,sans-Serif" font-size="10.00">tomoBay.model.services.email</text>
<text text-anchor="middle" x="410.5" y="-263" font-family="Helvetica,sans-Serif" font-size="10.00">ErrorsService.EmailErrorsMailActions.send</text>
</a>
</g>
</g>
<!-- Node2&#45;&gt;Node21 -->
<g id="edge20" class="edge"><title>Node2&#45;&gt;Node21</title>
<path fill="none" stroke="midnightblue" d="M182.102,-520.498C194.137,-473.947 231.079,-355.771 308,-296 313.016,-292.103 318.557,-288.804 324.387,-286.012"/>
<polygon fill="midnightblue" stroke="midnightblue" points="178.636,-519.931 179.624,-530.48 185.43,-521.617 178.636,-519.931"/>
</g>
<!-- Node24 -->
<g id="node24" class="node"><title>Node24</title>
<g id="a_node24"><a xlink:href="classtomoBay_1_1model_1_1sql_1_1ConnectionManager.html#aaa0eb186d4e39ebd10ba73951863660a" target="_top" xlink:title="singleton contstructor, initialises the connection pool ">
<polygon fill="white" stroke="black" points="334,-207 334,-237 487,-237 487,-207 334,-207"/>
<text text-anchor="start" x="342" y="-225" font-family="Helvetica,sans-Serif" font-size="10.00">tomoBay.model.sql.Connection</text>
<text text-anchor="middle" x="410.5" y="-214" font-family="Helvetica,sans-Serif" font-size="10.00">Manager.ConnectionManager</text>
</a>
</g>
</g>
<!-- Node2&#45;&gt;Node24 -->
<g id="edge23" class="edge"><title>Node2&#45;&gt;Node24</title>
<path fill="none" stroke="midnightblue" d="M180.2,-520.147C188.535,-466.893 218.914,-319.918 308,-246 315.595,-239.698 324.556,-234.992 333.958,-231.488"/>
<polygon fill="midnightblue" stroke="midnightblue" points="176.701,-519.887 178.707,-530.29 183.626,-520.907 176.701,-519.887"/>
</g>
<!-- Node25 -->
<g id="node25" class="node"><title>Node25</title>
<g id="a_node25"><a xlink:href="classtomoBay_1_1model_1_1winstock_1_1WinstockConfig.html#a6a08fcc1415d1a09bf338223bcb6919d" target="_top" xlink:title="method used to get the string representing the name of the machine on which winstock is running...">
<polygon fill="white" stroke="black" points="325,-158 325,-188 496,-188 496,-158 325,-158"/>
<text text-anchor="start" x="333" y="-176" font-family="Helvetica,sans-Serif" font-size="10.00">tomoBay.model.winstock.Winstock</text>
<text text-anchor="middle" x="410.5" y="-165" font-family="Helvetica,sans-Serif" font-size="10.00">Config.getMachineName</text>
</a>
</g>
</g>
<!-- Node2&#45;&gt;Node25 -->
<g id="edge24" class="edge"><title>Node2&#45;&gt;Node25</title>
<path fill="none" stroke="midnightblue" d="M178.813,-520.093C183.819,-461.062 206.936,-285.589 308,-197 313.038,-192.584 318.74,-188.943 324.809,-185.945"/>
<polygon fill="midnightblue" stroke="midnightblue" points="175.306,-520.049 178.035,-530.286 182.286,-520.581 175.306,-520.049"/>
</g>
<!-- Node27 -->
<g id="node27" class="node"><title>Node27</title>
<g id="a_node27"><a xlink:href="classtomoBay_1_1model_1_1winstock_1_1WinstockConfig.html#a6b637334c5d8e69c154325c9aa55bbfd" target="_top" xlink:title="method used to retrieve the port on which winstock is running. ">
<polygon fill="white" stroke="black" points="325,-109 325,-139 496,-139 496,-109 325,-109"/>
<text text-anchor="start" x="333" y="-127" font-family="Helvetica,sans-Serif" font-size="10.00">tomoBay.model.winstock.Winstock</text>
<text text-anchor="middle" x="410.5" y="-116" font-family="Helvetica,sans-Serif" font-size="10.00">Config.getPort</text>
</a>
</g>
</g>
<!-- Node2&#45;&gt;Node27 -->
<g id="edge26" class="edge"><title>Node2&#45;&gt;Node27</title>
<path fill="none" stroke="midnightblue" d="M177.747,-519.902C179.684,-455.344 194.89,-251.447 308,-148 312.944,-143.478 318.579,-139.763 324.602,-136.714"/>
<polygon fill="midnightblue" stroke="midnightblue" points="174.24,-520.204 177.519,-530.279 181.238,-520.358 174.24,-520.204"/>
</g>
<!-- Node18 -->
<g id="node18" class="node"><title>Node18</title>
<g id="a_node18"><a xlink:href="classtomoBay_1_1model_1_1net_1_1email_1_1MailClient.html#a9a353e90e57af1d4968845017c4d6fa8" target="_top" xlink:title="tomoBay.model.net.email.\lMailClient.MailClient">
<polygon fill="white" stroke="black" points="594,-359 594,-389 725,-389 725,-359 594,-359"/>
<text text-anchor="start" x="602" y="-377" font-family="Helvetica,sans-Serif" font-size="10.00">tomoBay.model.net.email.</text>
<text text-anchor="middle" x="659.5" y="-366" font-family="Helvetica,sans-Serif" font-size="10.00">MailClient.MailClient</text>
</a>
</g>
</g>
<!-- Node17&#45;&gt;Node18 -->
<g id="edge17" class="edge"><title>Node17&#45;&gt;Node18</title>
<path fill="none" stroke="midnightblue" d="M486.061,-336.301C520.427,-343.814 560.823,-352.645 593.875,-359.871"/>
<polygon fill="midnightblue" stroke="midnightblue" points="486.591,-332.834 476.074,-334.117 485.095,-339.672 486.591,-332.834"/>
</g>
<!-- Node19 -->
<g id="node19" class="node"><title>Node19</title>
<g id="a_node19"><a xlink:href="classtomoBay_1_1presenters_1_1presenterActions_1_1concreteActions_1_1InvoiceOrders.html#a9c77c827472e4f09aa020d55e7d33b10" target="_top" xlink:title="tomoBay.presenters.presenter\lActions.concreteActions.Invoice\lOrders.emailResults">
<polygon fill="white" stroke="black" points="580.5,-299.5 580.5,-340.5 738.5,-340.5 738.5,-299.5 580.5,-299.5"/>
<text text-anchor="start" x="588.5" y="-328.5" font-family="Helvetica,sans-Serif" font-size="10.00">tomoBay.presenters.presenter</text>
<text text-anchor="start" x="588.5" y="-317.5" font-family="Helvetica,sans-Serif" font-size="10.00">Actions.concreteActions.Invoice</text>
<text text-anchor="middle" x="659.5" y="-306.5" font-family="Helvetica,sans-Serif" font-size="10.00">Orders.emailResults</text>
</a>
</g>
</g>
<!-- Node17&#45;&gt;Node19 -->
<g id="edge18" class="edge"><title>Node17&#45;&gt;Node19</title>
<path fill="none" stroke="midnightblue" d="M486.373,-320C516.058,-320 550.203,-320 580.214,-320"/>
<polygon fill="midnightblue" stroke="midnightblue" points="486.074,-316.5 476.074,-320 486.074,-323.5 486.074,-316.5"/>
</g>
<!-- Node20 -->
<g id="node20" class="node"><title>Node20</title>
<g id="a_node20"><a xlink:href="classtomoBay_1_1presenters_1_1presenterActions_1_1concreteActions_1_1InvoiceOrders.html#adb3dedf31dc2c7fc796f20406c235ccd" target="_top" xlink:title="performs the action specified ">
<polygon fill="white" stroke="black" points="815,-301.5 815,-342.5 973,-342.5 973,-301.5 815,-301.5"/>
<text text-anchor="start" x="823" y="-330.5" font-family="Helvetica,sans-Serif" font-size="10.00">tomoBay.presenters.presenter</text>
<text text-anchor="start" x="823" y="-319.5" font-family="Helvetica,sans-Serif" font-size="10.00">Actions.concreteActions.Invoice</text>
<text text-anchor="middle" x="894" y="-308.5" font-family="Helvetica,sans-Serif" font-size="10.00">Orders.execute</text>
</a>
</g>
</g>
<!-- Node19&#45;&gt;Node20 -->
<g id="edge19" class="edge"><title>Node19&#45;&gt;Node20</title>
<path fill="none" stroke="midnightblue" d="M748.76,-320.759C770.463,-320.946 793.55,-321.145 814.744,-321.327"/>
<polygon fill="midnightblue" stroke="midnightblue" points="748.596,-317.258 738.566,-320.672 748.535,-324.258 748.596,-317.258"/>
</g>
<!-- Node22 -->
<g id="node22" class="node"><title>Node22</title>
<g id="a_node22"><a xlink:href="classtomoBay_1_1model_1_1services_1_1emailErrorsService_1_1OnRunning.html#ae4a4f4cadce2787c7e80005639fbd5d9" target="_top" xlink:title="this method defines what to do in the given derived state ">
<polygon fill="white" stroke="black" points="577,-248 577,-278 742,-278 742,-248 577,-248"/>
<text text-anchor="start" x="585" y="-266" font-family="Helvetica,sans-Serif" font-size="10.00">tomoBay.model.services.email</text>
<text text-anchor="middle" x="659.5" y="-255" font-family="Helvetica,sans-Serif" font-size="10.00">ErrorsService.OnRunning.execute</text>
</a>
</g>
</g>
<!-- Node21&#45;&gt;Node22 -->
<g id="edge21" class="edge"><title>Node21&#45;&gt;Node22</title>
<path fill="none" stroke="midnightblue" d="M523.069,-267.386C541.215,-266.799 559.707,-266.2 576.96,-265.641"/>
<polygon fill="midnightblue" stroke="midnightblue" points="522.915,-263.889 513.034,-267.711 523.142,-270.886 522.915,-263.889"/>
</g>
<!-- Node23 -->
<g id="node23" class="node"><title>Node23</title>
<g id="a_node23"><a xlink:href="classtomoBay_1_1model_1_1services_1_1emailErrorsService_1_1EmailErrorsService.html#ae3b0a282dcba7f2d675ca89b1dd48487" target="_top" xlink:title="tomoBay.model.services.email\lErrorsService.EmailErrorsService.on\lRunning">
<polygon fill="white" stroke="black" points="806,-241.5 806,-282.5 982,-282.5 982,-241.5 806,-241.5"/>
<text text-anchor="start" x="814" y="-270.5" font-family="Helvetica,sans-Serif" font-size="10.00">tomoBay.model.services.email</text>
<text text-anchor="start" x="814" y="-259.5" font-family="Helvetica,sans-Serif" font-size="10.00">ErrorsService.EmailErrorsService.on</text>
<text text-anchor="middle" x="894" y="-248.5" font-family="Helvetica,sans-Serif" font-size="10.00">Running</text>
</a>
</g>
</g>
<!-- Node22&#45;&gt;Node23 -->
<g id="edge22" class="edge"><title>Node22&#45;&gt;Node23</title>
<path fill="none" stroke="midnightblue" d="M752.37,-262.605C769.912,-262.529 788.23,-262.451 805.626,-262.376"/>
<polygon fill="midnightblue" stroke="midnightblue" points="752.129,-259.106 742.144,-262.649 752.159,-266.106 752.129,-259.106"/>
</g>
<!-- Node26 -->
<g id="node26" class="node"><title>Node26</title>
<g id="a_node26"><a xlink:href="classtomoBay_1_1model_1_1winstock_1_1commands_1_1AbstractWinstockCommand.html#ad22d293a3be140431dfbfa67ba8962d5" target="_top" xlink:title="default ctor, does preliminary initailisation of the config object and socket connection to Winstock...">
<polygon fill="white" stroke="black" points="549,-130.5 549,-171.5 770,-171.5 770,-130.5 549,-130.5"/>
<text text-anchor="start" x="557" y="-159.5" font-family="Helvetica,sans-Serif" font-size="10.00">tomoBay.model.winstock.commands.</text>
<text text-anchor="start" x="557" y="-148.5" font-family="Helvetica,sans-Serif" font-size="10.00">AbstractWinstockCommand.AbstractWinstock</text>
<text text-anchor="middle" x="659.5" y="-137.5" font-family="Helvetica,sans-Serif" font-size="10.00">Command</text>
</a>
</g>
</g>
<!-- Node25&#45;&gt;Node26 -->
<g id="edge25" class="edge"><title>Node25&#45;&gt;Node26</title>
<path fill="none" stroke="midnightblue" d="M506.172,-164.568C520.064,-163.33 534.472,-162.047 548.637,-160.785"/>
<polygon fill="midnightblue" stroke="midnightblue" points="505.808,-161.086 496.158,-165.46 506.429,-168.059 505.808,-161.086"/>
</g>
<!-- Node27&#45;&gt;Node26 -->
<g id="edge27" class="edge"><title>Node27&#45;&gt;Node26</title>
<path fill="none" stroke="midnightblue" d="M506.172,-134.349C520.064,-135.867 534.472,-137.442 548.637,-138.991"/>
<polygon fill="midnightblue" stroke="midnightblue" points="506.479,-130.862 496.158,-133.254 505.718,-137.82 506.479,-130.862"/>
</g>
<!-- Node29 -->
<g id="node29" class="node"><title>Node29</title>
<g id="a_node29"><a xlink:href="classtomoBay_1_1helpers_1_1Shipping__Priority.html#aeaa068d370466a132fa02c3dd61f4111" target="_top" xlink:title="populates the internal map containing the shipping priorities ">
<polygon fill="white" stroke="black" points="339.5,-60 339.5,-90 481.5,-90 481.5,-60 339.5,-60"/>
<text text-anchor="start" x="347.5" y="-78" font-family="Helvetica,sans-Serif" font-size="10.00">tomoBay.helpers.Shipping</text>
<text text-anchor="middle" x="410.5" y="-67" font-family="Helvetica,sans-Serif" font-size="10.00">_Priority.populatePriorityMap</text>
</a>
</g>
</g>
<!-- Node28&#45;&gt;Node29 -->
<g id="edge29" class="edge"><title>Node28&#45;&gt;Node29</title>
<path fill="none" stroke="midnightblue" d="M271.87,-75C294.455,-75 318.174,-75 339.437,-75"/>
<polygon fill="midnightblue" stroke="midnightblue" points="271.585,-71.5001 261.585,-75 271.585,-78.5001 271.585,-71.5001"/>
</g>
<!-- Node32 -->
<g id="node32" class="node"><title>Node32</title>
<g id="a_node32"><a xlink:href="classtomoBay_1_1model_1_1royalMail_1_1RoyalMailCSVGenerator.html#a1cb65b7538dfdc8bf869f5c77421c90b" target="_top" xlink:title="ctor, creates an empty CSV of the format: &quot;Service Reference&quot;,&quot;Service&quot;,&quot;Recipient&quot;,&quot;Address Line 1&quot;,&quot;Address Line 2&quot;,&quot;PostCode&quot;,&quot;Post Town&quot;, &quot;Country Code&quot;,&quot;Reference&quot;,&quot;Items&quot;,&quot;Weight&quot;,&quot;Service Enhancement&quot;,&quot;Service Format&quot;, ">
<polygon fill="white" stroke="black" points="325.5,-0.5 325.5,-41.5 495.5,-41.5 495.5,-0.5 325.5,-0.5"/>
<text text-anchor="start" x="333.5" y="-29.5" font-family="Helvetica,sans-Serif" font-size="10.00">tomoBay.model.royalMail.</text>
<text text-anchor="start" x="333.5" y="-18.5" font-family="Helvetica,sans-Serif" font-size="10.00">RoyalMailCSVGenerator.RoyalMail</text>
<text text-anchor="middle" x="410.5" y="-7.5" font-family="Helvetica,sans-Serif" font-size="10.00">CSVGenerator</text>
</a>
</g>
</g>
<!-- Node28&#45;&gt;Node32 -->
<g id="edge32" class="edge"><title>Node28&#45;&gt;Node32</title>
<path fill="none" stroke="midnightblue" d="M251.963,-57.668C275.321,-52.2314 301.267,-46.1923 325.251,-40.6098"/>
<polygon fill="midnightblue" stroke="midnightblue" points="251.071,-54.282 242.125,-59.958 252.658,-61.0998 251.071,-54.282"/>
</g>
<!-- Node30 -->
<g id="node30" class="node"><title>Node30</title>
<g id="a_node30"><a xlink:href="classtomoBay_1_1helpers_1_1Shipping__Priority.html#ab2c54f868e5d66f974ab70defd889b5f" target="_top" xlink:title="singleton ctor, ensures that this class is never instantiated ">
<polygon fill="white" stroke="black" points="594,-71 594,-101 725,-101 725,-71 594,-71"/>
<text text-anchor="start" x="602" y="-89" font-family="Helvetica,sans-Serif" font-size="10.00">tomoBay.helpers.Shipping</text>
<text text-anchor="middle" x="659.5" y="-78" font-family="Helvetica,sans-Serif" font-size="10.00">_Priority.Shipping_Priority</text>
</a>
</g>
</g>
<!-- Node29&#45;&gt;Node30 -->
<g id="edge30" class="edge"><title>Node29&#45;&gt;Node30</title>
<path fill="none" stroke="midnightblue" d="M491.704,-78.5719C524.729,-80.0426 562.482,-81.7239 593.71,-83.1146"/>
<polygon fill="midnightblue" stroke="midnightblue" points="491.765,-75.0712 481.62,-78.1227 491.454,-82.0643 491.765,-75.0712"/>
</g>
<!-- Node31 -->
<g id="node31" class="node"><title>Node31</title>
<g id="a_node31"><a xlink:href="classtomoBay_1_1helpers_1_1Shipping__Priority.html#a540b8555f73cab7f8082c2a6a4aad375" target="_top" xlink:title="refreshes the internal representation of the shipping type hierarchy with any changes made to the con...">
<polygon fill="white" stroke="black" points="594,-22 594,-52 725,-52 725,-22 594,-22"/>
<text text-anchor="start" x="602" y="-40" font-family="Helvetica,sans-Serif" font-size="10.00">tomoBay.helpers.Shipping</text>
<text text-anchor="middle" x="659.5" y="-29" font-family="Helvetica,sans-Serif" font-size="10.00">_Priority.refresh</text>
</a>
</g>
</g>
<!-- Node29&#45;&gt;Node31 -->
<g id="edge31" class="edge"><title>Node29&#45;&gt;Node31</title>
<path fill="none" stroke="midnightblue" d="M491.704,-62.6609C524.729,-57.5802 562.482,-51.7719 593.71,-46.9678"/>
<polygon fill="midnightblue" stroke="midnightblue" points="490.971,-59.2324 481.62,-64.2124 492.036,-66.151 490.971,-59.2324"/>
</g>
</g>
</svg>
