<?xml version="1.0" encoding="UTF-8" standalone="no"?>
<!DOCTYPE svg PUBLIC "-//W3C//DTD SVG 1.1//EN"
 "http://www.w3.org/Graphics/SVG/1.1/DTD/svg11.dtd">
<!-- Generated by graphviz version 2.38.0 (20140413.2041)
 -->
<!-- Title: PickeableStatus Pages: 1 -->
<svg width="265pt" height="303pt"
 viewBox="0.00 0.00 265.00 303.00" xmlns="http://www.w3.org/2000/svg" xmlns:xlink="http://www.w3.org/1999/xlink">
<g id="graph0" class="graph" transform="scale(1 1) rotate(0) translate(4 299)">
<title>PickeableStatus</title>
<polygon fill="white" stroke="none" points="-4,4 -4,-299 261,-299 261,4 -4,4"/>
<!-- Node1 -->
<g id="node1" class="node"><title>Node1</title>
<polygon fill="#bfbfbf" stroke="black" points="43.5,-0.5 43.5,-178.5 213.5,-178.5 213.5,-0.5 43.5,-0.5"/>
<text text-anchor="middle" x="128.5" y="-166.5" font-family="Helvetica,sans-Serif" font-size="10.00">PickeableStatus</text>
<polyline fill="none" stroke="black" points="43.5,-159.5 213.5,-159.5 "/>
<text text-anchor="start" x="51.5" y="-147.5" font-family="Helvetica,sans-Serif" font-size="10.00">+ ERROR</text>
<text text-anchor="start" x="51.5" y="-136.5" font-family="Helvetica,sans-Serif" font-size="10.00">+ PICKEABLE</text>
<text text-anchor="start" x="51.5" y="-125.5" font-family="Helvetica,sans-Serif" font-size="10.00">+ PARTIAL</text>
<text text-anchor="start" x="51.5" y="-114.5" font-family="Helvetica,sans-Serif" font-size="10.00">+ UNPICKEABLE</text>
<text text-anchor="start" x="51.5" y="-103.5" font-family="Helvetica,sans-Serif" font-size="10.00">+ PICKEABLE_PROCESSING</text>
<text text-anchor="start" x="51.5" y="-92.5" font-family="Helvetica,sans-Serif" font-size="10.00">+ PARTIAL_PROCESSING</text>
<text text-anchor="start" x="51.5" y="-81.5" font-family="Helvetica,sans-Serif" font-size="10.00">+ UNPICKEABLE_PROCESSING</text>
<text text-anchor="start" x="51.5" y="-70.5" font-family="Helvetica,sans-Serif" font-size="10.00">&#45; status_M</text>
<text text-anchor="start" x="51.5" y="-59.5" font-family="Helvetica,sans-Serif" font-size="10.00">&#45; size</text>
<polyline fill="none" stroke="black" points="43.5,-52.5 213.5,-52.5 "/>
<text text-anchor="start" x="51.5" y="-40.5" font-family="Helvetica,sans-Serif" font-size="10.00">+ getStatusCode()</text>
<text text-anchor="start" x="51.5" y="-29.5" font-family="Helvetica,sans-Serif" font-size="10.00">+ fromInt()</text>
<text text-anchor="start" x="51.5" y="-18.5" font-family="Helvetica,sans-Serif" font-size="10.00">+ size()</text>
<text text-anchor="start" x="51.5" y="-7.5" font-family="Helvetica,sans-Serif" font-size="10.00">&#45; PickeableStatus()</text>
</g>
<!-- Node2 -->
<g id="node2" class="node"><title>Node2</title>
<polygon fill="white" stroke="#bfbfbf" points="0,-226.5 0,-294.5 257,-294.5 257,-226.5 0,-226.5"/>
<text text-anchor="start" x="8" y="-282.5" font-family="Helvetica,sans-Serif" font-size="10.00">Map&lt; Integer, tomoBay.presenters.helpers.pickeability.</text>
<text text-anchor="middle" x="128.5" y="-271.5" font-family="Helvetica,sans-Serif" font-size="10.00">PickeableStatus &gt;</text>
<polyline fill="none" stroke="#bfbfbf" points="0,-264.5 257,-264.5 "/>
<text text-anchor="middle" x="128.5" y="-252.5" font-family="Helvetica,sans-Serif" font-size="10.00"> </text>
<polyline fill="none" stroke="#bfbfbf" points="0,-245.5 257,-245.5 "/>
<text text-anchor="middle" x="128.5" y="-233.5" font-family="Helvetica,sans-Serif" font-size="10.00"> </text>
</g>
<!-- Node2&#45;&gt;Node1 -->
<g id="edge1" class="edge"><title>Node2&#45;&gt;Node1</title>
<path fill="none" stroke="#404040" d="M128.5,-226.111C128.5,-215.687 128.5,-203.6 128.5,-191.022"/>
<polygon fill="none" stroke="#404040" points="128.5,-190.85 124.5,-184.85 128.5,-178.85 132.5,-184.849 128.5,-190.85"/>
<text text-anchor="middle" x="154" y="-200" font-family="Helvetica,sans-Serif" font-size="10.00"> &#45;fromInt_M</text>
</g>
</g>
</svg>
