<?xml version="1.0" encoding="UTF-8" standalone="no"?>
<!DOCTYPE svg PUBLIC "-//W3C//DTD SVG 1.1//EN"
 "http://www.w3.org/Graphics/SVG/1.1/DTD/svg11.dtd">
<!-- Generated by graphviz version 2.38.0 (20140413.2041)
 -->
<!-- Title: tomoBay.model.services.helpers.InvoiceableStatus Pages: 1 -->
<svg width="234pt" height="281pt"
 viewBox="0.00 0.00 234.00 281.00" xmlns="http://www.w3.org/2000/svg" xmlns:xlink="http://www.w3.org/1999/xlink">
<g id="graph0" class="graph" transform="scale(1 1) rotate(0) translate(4 277)">
<title>tomoBay.model.services.helpers.InvoiceableStatus</title>
<!-- Node1 -->
<g id="node1" class="node"><title>Node1</title>
<polygon fill="#bfbfbf" stroke="black" points="32,-0.5 32,-156.5 194,-156.5 194,-0.5 32,-0.5"/>
<text text-anchor="start" x="40" y="-144.5" font-family="Helvetica,sans-Serif" font-size="10.00">tomoBay.model.services.helpers.</text>
<text text-anchor="middle" x="113" y="-133.5" font-family="Helvetica,sans-Serif" font-size="10.00">InvoiceableStatus</text>
<polyline fill="none" stroke="black" points="32,-126.5 194,-126.5 "/>
<text text-anchor="start" x="40" y="-114.5" font-family="Helvetica,sans-Serif" font-size="10.00">+ Invoiceable</text>
<text text-anchor="start" x="40" y="-103.5" font-family="Helvetica,sans-Serif" font-size="10.00">+ Partial</text>
<text text-anchor="start" x="40" y="-92.5" font-family="Helvetica,sans-Serif" font-size="10.00">+ UnInvoiceable</text>
<text text-anchor="start" x="40" y="-81.5" font-family="Helvetica,sans-Serif" font-size="10.00">+ ERROR</text>
<text text-anchor="start" x="40" y="-70.5" font-family="Helvetica,sans-Serif" font-size="10.00">&#45; status_M</text>
<text text-anchor="start" x="40" y="-59.5" font-family="Helvetica,sans-Serif" font-size="10.00">&#45; size</text>
<polyline fill="none" stroke="black" points="32,-52.5 194,-52.5 "/>
<text text-anchor="start" x="40" y="-40.5" font-family="Helvetica,sans-Serif" font-size="10.00">+ getStatusCode()</text>
<text text-anchor="start" x="40" y="-29.5" font-family="Helvetica,sans-Serif" font-size="10.00">+ fromInt()</text>
<text text-anchor="start" x="40" y="-18.5" font-family="Helvetica,sans-Serif" font-size="10.00">+ size()</text>
<text text-anchor="start" x="40" y="-7.5" font-family="Helvetica,sans-Serif" font-size="10.00">&#45; InvoiceableStatus()</text>
</g>
<!-- Node2 -->
<g id="node2" class="node"><title>Node2</title>
<polygon fill="none" stroke="#bfbfbf" points="0,-204.5 0,-272.5 226,-272.5 226,-204.5 0,-204.5"/>
<text text-anchor="start" x="8" y="-260.5" font-family="Helvetica,sans-Serif" font-size="10.00">Map&lt; Integer, tomoBay.model.services.helpers.</text>
<text text-anchor="middle" x="113" y="-249.5" font-family="Helvetica,sans-Serif" font-size="10.00">InvoiceableStatus &gt;</text>
<polyline fill="none" stroke="#bfbfbf" points="0,-242.5 226,-242.5 "/>
<text text-anchor="middle" x="113" y="-230.5" font-family="Helvetica,sans-Serif" font-size="10.00"> </text>
<polyline fill="none" stroke="#bfbfbf" points="0,-223.5 226,-223.5 "/>
<text text-anchor="middle" x="113" y="-211.5" font-family="Helvetica,sans-Serif" font-size="10.00"> </text>
</g>
<!-- Node2&#45;&gt;Node1 -->
<g id="edge1" class="edge"><title>Node2&#45;&gt;Node1</title>
<path fill="none" stroke="#404040" d="M113,-204.378C113,-193.749 113,-181.424 113,-168.742"/>
<polygon fill="none" stroke="#404040" points="113,-168.516 109,-162.516 113,-156.516 117,-162.516 113,-168.516"/>
<text text-anchor="middle" x="138.5" y="-178" font-family="Helvetica,sans-Serif" font-size="10.00"> &#45;fromInt_M</text>
</g>
</g>
</svg>
