<?xml version="1.0" encoding="UTF-8" standalone="no"?>
<!DOCTYPE svg PUBLIC "-//W3C//DTD SVG 1.1//EN"
 "http://www.w3.org/Graphics/SVG/1.1/DTD/svg11.dtd">
<!-- Generated by graphviz version 2.38.0 (20140413.2041)
 -->
<!-- Title: Graphical Class Hierarchy Pages: 1 -->
<svg width="391pt" height="1362pt"
 viewBox="0.00 0.00 391.00 1362.00" xmlns="http://www.w3.org/2000/svg" xmlns:xlink="http://www.w3.org/1999/xlink">
<g id="graph0" class="graph" transform="scale(1 1) rotate(0) translate(4 1358)">
<title>Graphical Class Hierarchy</title>
<!-- Node1 -->
<g id="node1" class="node"><title>Node1</title>
<g id="a_node1"><a xlink:href="interfacetomoBay_1_1model_1_1sql_1_1queries_1_1AbstractDBQuery.html" target="_top" xlink:title="tomoBay.model.sql.queries.\lAbstractDBQuery">
<polygon fill="none" stroke="black" points="0,-661.5 0,-691.5 138,-691.5 138,-661.5 0,-661.5"/>
<text text-anchor="start" x="8" y="-679.5" font-family="Helvetica,sans-Serif" font-size="10.00">tomoBay.model.sql.queries.</text>
<text text-anchor="middle" x="69" y="-668.5" font-family="Helvetica,sans-Serif" font-size="10.00">AbstractDBQuery</text>
</a>
</g>
</g>
<!-- Node2 -->
<g id="node2" class="node"><title>Node2</title>
<g id="a_node2"><a xlink:href="classtomoBay_1_1model_1_1sql_1_1queries_1_1concreteQueries_1_1ClearPartsFord.html" target="_top" xlink:title="tomoBay.model.sql.queries.concrete\lQueries.ClearPartsFord">
<polygon fill="none" stroke="black" points="190.5,-1323.5 190.5,-1353.5 366.5,-1353.5 366.5,-1323.5 190.5,-1323.5"/>
<text text-anchor="start" x="198.5" y="-1341.5" font-family="Helvetica,sans-Serif" font-size="10.00">tomoBay.model.sql.queries.concrete</text>
<text text-anchor="middle" x="278.5" y="-1330.5" font-family="Helvetica,sans-Serif" font-size="10.00">Queries.ClearPartsFord</text>
</a>
</g>
</g>
<!-- Node1&#45;&gt;Node2 -->
<g id="edge1" class="edge"><title>Node1&#45;&gt;Node2</title>
<path fill="none" stroke="midnightblue" d="M70.526,-701.847C73.2681,-808.832 89.2718,-1222.15 174,-1313.5 178.651,-1318.51 184.12,-1322.6 190.073,-1325.93"/>
<polygon fill="midnightblue" stroke="midnightblue" points="74.0207,-701.581 70.2823,-691.667 67.0227,-701.748 74.0207,-701.581"/>
</g>
<!-- Node3 -->
<g id="node3" class="node"><title>Node3</title>
<g id="a_node3"><a xlink:href="classtomoBay_1_1model_1_1sql_1_1queries_1_1concreteQueries_1_1ClearPartsPrestige.html" target="_top" xlink:title="tomoBay.model.sql.queries.concrete\lQueries.ClearPartsPrestige">
<polygon fill="none" stroke="black" points="190.5,-1274.5 190.5,-1304.5 366.5,-1304.5 366.5,-1274.5 190.5,-1274.5"/>
<text text-anchor="start" x="198.5" y="-1292.5" font-family="Helvetica,sans-Serif" font-size="10.00">tomoBay.model.sql.queries.concrete</text>
<text text-anchor="middle" x="278.5" y="-1281.5" font-family="Helvetica,sans-Serif" font-size="10.00">Queries.ClearPartsPrestige</text>
</a>
</g>
</g>
<!-- Node1&#45;&gt;Node3 -->
<g id="edge2" class="edge"><title>Node1&#45;&gt;Node3</title>
<path fill="none" stroke="midnightblue" d="M70.9029,-701.833C75.0475,-803.581 95.558,-1181.04 174,-1264.5 178.684,-1269.48 184.177,-1273.55 190.145,-1276.86"/>
<polygon fill="midnightblue" stroke="midnightblue" points="74.3902,-701.439 70.5035,-691.583 67.3956,-701.711 74.3902,-701.439"/>
</g>
<!-- Node4 -->
<g id="node4" class="node"><title>Node4</title>
<g id="a_node4"><a xlink:href="classtomoBay_1_1model_1_1sql_1_1queries_1_1concreteQueries_1_1ClearPartsPSA.html" target="_top" xlink:title="tomoBay.model.sql.queries.concrete\lQueries.ClearPartsPSA">
<polygon fill="none" stroke="black" points="190.5,-1225.5 190.5,-1255.5 366.5,-1255.5 366.5,-1225.5 190.5,-1225.5"/>
<text text-anchor="start" x="198.5" y="-1243.5" font-family="Helvetica,sans-Serif" font-size="10.00">tomoBay.model.sql.queries.concrete</text>
<text text-anchor="middle" x="278.5" y="-1232.5" font-family="Helvetica,sans-Serif" font-size="10.00">Queries.ClearPartsPSA</text>
</a>
</g>
</g>
<!-- Node1&#45;&gt;Node4 -->
<g id="edge3" class="edge"><title>Node1&#45;&gt;Node4</title>
<path fill="none" stroke="midnightblue" d="M71.3491,-701.874C76.9886,-798.241 101.837,-1139.91 174,-1215.5 178.723,-1220.45 184.243,-1224.49 190.23,-1227.78"/>
<polygon fill="midnightblue" stroke="midnightblue" points="74.8279,-701.399 70.7679,-691.613 67.8391,-701.795 74.8279,-701.399"/>
</g>
<!-- Node5 -->
<g id="node5" class="node"><title>Node5</title>
<g id="a_node5"><a xlink:href="classtomoBay_1_1model_1_1sql_1_1queries_1_1concreteQueries_1_1InsertEbayBuyers.html" target="_top" xlink:title="tomoBay.model.sql.queries.concrete\lQueries.InsertEbayBuyers">
<polygon fill="none" stroke="black" points="190.5,-1176.5 190.5,-1206.5 366.5,-1206.5 366.5,-1176.5 190.5,-1176.5"/>
<text text-anchor="start" x="198.5" y="-1194.5" font-family="Helvetica,sans-Serif" font-size="10.00">tomoBay.model.sql.queries.concrete</text>
<text text-anchor="middle" x="278.5" y="-1183.5" font-family="Helvetica,sans-Serif" font-size="10.00">Queries.InsertEbayBuyers</text>
</a>
</g>
</g>
<!-- Node1&#45;&gt;Node5 -->
<g id="edge4" class="edge"><title>Node1&#45;&gt;Node5</title>
<path fill="none" stroke="midnightblue" d="M71.8821,-701.9C79.1152,-792.602 108.085,-1098.72 174,-1166.5 178.769,-1171.4 184.321,-1175.41 190.33,-1178.68"/>
<polygon fill="midnightblue" stroke="midnightblue" points="75.3544,-701.406 71.0894,-691.708 68.3755,-701.949 75.3544,-701.406"/>
</g>
<!-- Node6 -->
<g id="node6" class="node"><title>Node6</title>
<g id="a_node6"><a xlink:href="classtomoBay_1_1model_1_1sql_1_1queries_1_1concreteQueries_1_1InsertEbayItems.html" target="_top" xlink:title="tomoBay.model.sql.queries.concrete\lQueries.InsertEbayItems">
<polygon fill="none" stroke="black" points="190.5,-1127.5 190.5,-1157.5 366.5,-1157.5 366.5,-1127.5 190.5,-1127.5"/>
<text text-anchor="start" x="198.5" y="-1145.5" font-family="Helvetica,sans-Serif" font-size="10.00">tomoBay.model.sql.queries.concrete</text>
<text text-anchor="middle" x="278.5" y="-1134.5" font-family="Helvetica,sans-Serif" font-size="10.00">Queries.InsertEbayItems</text>
</a>
</g>
</g>
<!-- Node1&#45;&gt;Node6 -->
<g id="edge5" class="edge"><title>Node1&#45;&gt;Node6</title>
<path fill="none" stroke="midnightblue" d="M72.4909,-701.547C81.3755,-785.853 114.214,-1057.39 174,-1117.5 178.823,-1122.35 184.414,-1126.32 190.451,-1129.56"/>
<polygon fill="midnightblue" stroke="midnightblue" points="75.9697,-701.161 71.4604,-691.574 69.0068,-701.881 75.9697,-701.161"/>
</g>
<!-- Node7 -->
<g id="node7" class="node"><title>Node7</title>
<g id="a_node7"><a xlink:href="classtomoBay_1_1model_1_1sql_1_1queries_1_1concreteQueries_1_1InsertEbayOrders.html" target="_top" xlink:title="tomoBay.model.sql.queries.concrete\lQueries.InsertEbayOrders">
<polygon fill="none" stroke="black" points="190.5,-1078.5 190.5,-1108.5 366.5,-1108.5 366.5,-1078.5 190.5,-1078.5"/>
<text text-anchor="start" x="198.5" y="-1096.5" font-family="Helvetica,sans-Serif" font-size="10.00">tomoBay.model.sql.queries.concrete</text>
<text text-anchor="middle" x="278.5" y="-1085.5" font-family="Helvetica,sans-Serif" font-size="10.00">Queries.InsertEbayOrders</text>
</a>
</g>
</g>
<!-- Node1&#45;&gt;Node7 -->
<g id="edge6" class="edge"><title>Node1&#45;&gt;Node7</title>
<path fill="none" stroke="midnightblue" d="M73.2818,-701.545C83.999,-779.554 120.392,-1016.08 174,-1068.5 178.758,-1073.15 184.224,-1076.99 190.106,-1080.15"/>
<polygon fill="midnightblue" stroke="midnightblue" points="76.749,-701.067 71.9408,-691.626 69.8121,-702.005 76.749,-701.067"/>
</g>
<!-- Node8 -->
<g id="node8" class="node"><title>Node8</title>
<g id="a_node8"><a xlink:href="classtomoBay_1_1model_1_1sql_1_1queries_1_1concreteQueries_1_1InsertEbayTransactions.html" target="_top" xlink:title="tomoBay.model.sql.queries.concrete\lQueries.InsertEbayTransactions">
<polygon fill="none" stroke="black" points="190.5,-1029.5 190.5,-1059.5 366.5,-1059.5 366.5,-1029.5 190.5,-1029.5"/>
<text text-anchor="start" x="198.5" y="-1047.5" font-family="Helvetica,sans-Serif" font-size="10.00">tomoBay.model.sql.queries.concrete</text>
<text text-anchor="middle" x="278.5" y="-1036.5" font-family="Helvetica,sans-Serif" font-size="10.00">Queries.InsertEbayTransactions</text>
</a>
</g>
</g>
<!-- Node1&#45;&gt;Node8 -->
<g id="edge7" class="edge"><title>Node1&#45;&gt;Node8</title>
<path fill="none" stroke="midnightblue" d="M69.6976,-701.758C70.3854,-765.132 81.3804,-932.049 174,-1019.5 178.839,-1024.07 184.363,-1027.85 190.285,-1030.97"/>
<polygon fill="midnightblue" stroke="midnightblue" points="73.197,-701.492 69.6698,-691.502 66.197,-701.511 73.197,-701.492"/>
</g>
<!-- Node9 -->
<g id="node9" class="node"><title>Node9</title>
<g id="a_node9"><a xlink:href="classtomoBay_1_1model_1_1sql_1_1queries_1_1concreteQueries_1_1InsertFordStockReq.html" target="_top" xlink:title="tomoBay.model.sql.queries.concrete\lQueries.InsertFordStockReq">
<polygon fill="none" stroke="black" points="190.5,-980.5 190.5,-1010.5 366.5,-1010.5 366.5,-980.5 190.5,-980.5"/>
<text text-anchor="start" x="198.5" y="-998.5" font-family="Helvetica,sans-Serif" font-size="10.00">tomoBay.model.sql.queries.concrete</text>
<text text-anchor="middle" x="278.5" y="-987.5" font-family="Helvetica,sans-Serif" font-size="10.00">Queries.InsertFordStockReq</text>
</a>
</g>
</g>
<!-- Node1&#45;&gt;Node9 -->
<g id="edge8" class="edge"><title>Node1&#45;&gt;Node9</title>
<path fill="none" stroke="midnightblue" d="M71.2,-702.005C75.3169,-759.111 93.5303,-897.919 174,-970.5 178.804,-974.833 184.23,-978.449 190.016,-981.463"/>
<polygon fill="midnightblue" stroke="midnightblue" points="74.6737,-701.477 70.5503,-691.717 67.6876,-701.918 74.6737,-701.477"/>
</g>
<!-- Node10 -->
<g id="node10" class="node"><title>Node10</title>
<g id="a_node10"><a xlink:href="classtomoBay_1_1model_1_1sql_1_1queries_1_1concreteQueries_1_1InsertPrestigeStockReq.html" target="_top" xlink:title="tomoBay.model.sql.queries.concrete\lQueries.InsertPrestigeStockReq">
<polygon fill="none" stroke="black" points="190.5,-931.5 190.5,-961.5 366.5,-961.5 366.5,-931.5 190.5,-931.5"/>
<text text-anchor="start" x="198.5" y="-949.5" font-family="Helvetica,sans-Serif" font-size="10.00">tomoBay.model.sql.queries.concrete</text>
<text text-anchor="middle" x="278.5" y="-938.5" font-family="Helvetica,sans-Serif" font-size="10.00">Queries.InsertPrestigeStockReq</text>
</a>
</g>
</g>
<!-- Node1&#45;&gt;Node10 -->
<g id="edge9" class="edge"><title>Node1&#45;&gt;Node10</title>
<path fill="none" stroke="midnightblue" d="M73.1721,-701.541C80.8579,-751.375 105.205,-863.18 174,-921.5 178.935,-925.684 184.456,-929.191 190.309,-932.128"/>
<polygon fill="midnightblue" stroke="midnightblue" points="76.6325,-701.014 71.7384,-691.617 69.7044,-702.015 76.6325,-701.014"/>
</g>
<!-- Node11 -->
<g id="node11" class="node"><title>Node11</title>
<g id="a_node11"><a xlink:href="classtomoBay_1_1model_1_1sql_1_1queries_1_1concreteQueries_1_1InsertPSAStockReq.html" target="_top" xlink:title="tomoBay.model.sql.queries.concrete\lQueries.InsertPSAStockReq">
<polygon fill="none" stroke="black" points="190.5,-882.5 190.5,-912.5 366.5,-912.5 366.5,-882.5 190.5,-882.5"/>
<text text-anchor="start" x="198.5" y="-900.5" font-family="Helvetica,sans-Serif" font-size="10.00">tomoBay.model.sql.queries.concrete</text>
<text text-anchor="middle" x="278.5" y="-889.5" font-family="Helvetica,sans-Serif" font-size="10.00">Queries.InsertPSAStockReq</text>
</a>
</g>
</g>
<!-- Node1&#45;&gt;Node11 -->
<g id="edge10" class="edge"><title>Node1&#45;&gt;Node11</title>
<path fill="none" stroke="midnightblue" d="M75.9939,-701.2C87.4987,-743.151 116.769,-828.084 174,-872.5 179.038,-876.41 184.598,-879.72 190.448,-882.521"/>
<polygon fill="midnightblue" stroke="midnightblue" points="79.3742,-700.292 73.4455,-691.512 72.6044,-702.073 79.3742,-700.292"/>
</g>
<!-- Node12 -->
<g id="node12" class="node"><title>Node12</title>
<g id="a_node12"><a xlink:href="classtomoBay_1_1model_1_1sql_1_1queries_1_1concreteQueries_1_1SelectEbayItems.html" target="_top" xlink:title="tomoBay.model.sql.queries.concrete\lQueries.SelectEbayItems">
<polygon fill="none" stroke="black" points="190.5,-833.5 190.5,-863.5 366.5,-863.5 366.5,-833.5 190.5,-833.5"/>
<text text-anchor="start" x="198.5" y="-851.5" font-family="Helvetica,sans-Serif" font-size="10.00">tomoBay.model.sql.queries.concrete</text>
<text text-anchor="middle" x="278.5" y="-840.5" font-family="Helvetica,sans-Serif" font-size="10.00">Queries.SelectEbayItems</text>
</a>
</g>
</g>
<!-- Node1&#45;&gt;Node12 -->
<g id="edge11" class="edge"><title>Node1&#45;&gt;Node12</title>
<path fill="none" stroke="midnightblue" d="M80.5908,-701.14C96.1233,-734.242 128.28,-792.487 174,-823.5 179.737,-827.391 186.014,-830.679 192.549,-833.457"/>
<polygon fill="midnightblue" stroke="midnightblue" points="83.6366,-699.383 76.3074,-691.732 77.2658,-702.284 83.6366,-699.383"/>
</g>
<!-- Node13 -->
<g id="node13" class="node"><title>Node13</title>
<g id="a_node13"><a xlink:href="classtomoBay_1_1model_1_1sql_1_1queries_1_1concreteQueries_1_1SelectEbayItemsNotInTransactions.html" target="_top" xlink:title="tomoBay.model.sql.queries.concrete\lQueries.SelectEbayItemsNotInTransactions">
<polygon fill="none" stroke="black" points="174,-784.5 174,-814.5 383,-814.5 383,-784.5 174,-784.5"/>
<text text-anchor="start" x="182" y="-802.5" font-family="Helvetica,sans-Serif" font-size="10.00">tomoBay.model.sql.queries.concrete</text>
<text text-anchor="middle" x="278.5" y="-791.5" font-family="Helvetica,sans-Serif" font-size="10.00">Queries.SelectEbayItemsNotInTransactions</text>
</a>
</g>
</g>
<!-- Node1&#45;&gt;Node13 -->
<g id="edge12" class="edge"><title>Node1&#45;&gt;Node13</title>
<path fill="none" stroke="midnightblue" d="M88.0699,-699.401C107.072,-721.91 139.028,-755.56 174,-774.5 181.152,-778.373 188.903,-781.654 196.836,-784.431"/>
<polygon fill="midnightblue" stroke="midnightblue" points="90.7414,-697.14 81.6734,-691.66 85.3453,-701.599 90.7414,-697.14"/>
</g>
<!-- Node14 -->
<g id="node14" class="node"><title>Node14</title>
<g id="a_node14"><a xlink:href="classtomoBay_1_1model_1_1sql_1_1queries_1_1concreteQueries_1_1SelectEbayItemSpecific.html" target="_top" xlink:title="tomoBay.model.sql.queries.concrete\lQueries.SelectEbayItemSpecific">
<polygon fill="none" stroke="black" points="190.5,-735.5 190.5,-765.5 366.5,-765.5 366.5,-735.5 190.5,-735.5"/>
<text text-anchor="start" x="198.5" y="-753.5" font-family="Helvetica,sans-Serif" font-size="10.00">tomoBay.model.sql.queries.concrete</text>
<text text-anchor="middle" x="278.5" y="-742.5" font-family="Helvetica,sans-Serif" font-size="10.00">Queries.SelectEbayItemSpecific</text>
</a>
</g>
</g>
<!-- Node1&#45;&gt;Node14 -->
<g id="edge13" class="edge"><title>Node1&#45;&gt;Node14</title>
<path fill="none" stroke="midnightblue" d="M107.174,-696.272C126.672,-706.059 151.189,-717.465 174,-725.5 184.461,-729.185 195.704,-732.516 206.788,-735.456"/>
<polygon fill="midnightblue" stroke="midnightblue" points="108.535,-693.038 98.0358,-691.62 105.36,-699.276 108.535,-693.038"/>
</g>
<!-- Node15 -->
<g id="node15" class="node"><title>Node15</title>
<g id="a_node15"><a xlink:href="classtomoBay_1_1model_1_1sql_1_1queries_1_1concreteQueries_1_1SelectEbayOrders.html" target="_top" xlink:title="tomoBay.model.sql.queries.concrete\lQueries.SelectEbayOrders">
<polygon fill="none" stroke="black" points="190.5,-686.5 190.5,-716.5 366.5,-716.5 366.5,-686.5 190.5,-686.5"/>
<text text-anchor="start" x="198.5" y="-704.5" font-family="Helvetica,sans-Serif" font-size="10.00">tomoBay.model.sql.queries.concrete</text>
<text text-anchor="middle" x="278.5" y="-693.5" font-family="Helvetica,sans-Serif" font-size="10.00">Queries.SelectEbayOrders</text>
</a>
</g>
</g>
<!-- Node1&#45;&gt;Node15 -->
<g id="edge14" class="edge"><title>Node1&#45;&gt;Node15</title>
<path fill="none" stroke="midnightblue" d="M148.535,-685.962C162.19,-687.607 176.465,-689.327 190.335,-690.998"/>
<polygon fill="midnightblue" stroke="midnightblue" points="148.578,-682.442 138.231,-684.721 147.74,-689.392 148.578,-682.442"/>
</g>
<!-- Node16 -->
<g id="node16" class="node"><title>Node16</title>
<g id="a_node16"><a xlink:href="classtomoBay_1_1model_1_1sql_1_1queries_1_1concreteQueries_1_1SelectFordStockReqByPart.html" target="_top" xlink:title="tomoBay.model.sql.queries.concrete\lQueries.SelectFordStockReqByPart">
<polygon fill="none" stroke="black" points="190.5,-637.5 190.5,-667.5 366.5,-667.5 366.5,-637.5 190.5,-637.5"/>
<text text-anchor="start" x="198.5" y="-655.5" font-family="Helvetica,sans-Serif" font-size="10.00">tomoBay.model.sql.queries.concrete</text>
<text text-anchor="middle" x="278.5" y="-644.5" font-family="Helvetica,sans-Serif" font-size="10.00">Queries.SelectFordStockReqByPart</text>
</a>
</g>
</g>
<!-- Node1&#45;&gt;Node16 -->
<g id="edge15" class="edge"><title>Node1&#45;&gt;Node16</title>
<path fill="none" stroke="midnightblue" d="M148.535,-667.416C162.19,-665.837 176.465,-664.186 190.335,-662.582"/>
<polygon fill="midnightblue" stroke="midnightblue" points="147.762,-663.982 138.231,-668.608 148.567,-670.936 147.762,-663.982"/>
</g>
<!-- Node17 -->
<g id="node17" class="node"><title>Node17</title>
<g id="a_node17"><a xlink:href="classtomoBay_1_1model_1_1sql_1_1queries_1_1concreteQueries_1_1SelectPrestigeStockReqByPart.html" target="_top" xlink:title="tomoBay.model.sql.queries.concrete\lQueries.SelectPrestigeStockReqByPart">
<polygon fill="none" stroke="black" points="183,-588.5 183,-618.5 374,-618.5 374,-588.5 183,-588.5"/>
<text text-anchor="start" x="191" y="-606.5" font-family="Helvetica,sans-Serif" font-size="10.00">tomoBay.model.sql.queries.concrete</text>
<text text-anchor="middle" x="278.5" y="-595.5" font-family="Helvetica,sans-Serif" font-size="10.00">Queries.SelectPrestigeStockReqByPart</text>
</a>
</g>
</g>
<!-- Node1&#45;&gt;Node17 -->
<g id="edge16" class="edge"><title>Node1&#45;&gt;Node17</title>
<path fill="none" stroke="midnightblue" d="M107.634,-656.964C127.075,-647.433 151.403,-636.359 174,-628.5 184.563,-624.826 195.914,-621.493 207.091,-618.544"/>
<polygon fill="midnightblue" stroke="midnightblue" points="105.909,-653.913 98.5119,-661.498 109.025,-660.181 105.909,-653.913"/>
</g>
<!-- Node18 -->
<g id="node18" class="node"><title>Node18</title>
<g id="a_node18"><a xlink:href="classtomoBay_1_1model_1_1sql_1_1queries_1_1concreteQueries_1_1SelectPSAStockReqByPart.html" target="_top" xlink:title="tomoBay.model.sql.queries.concrete\lQueries.SelectPSAStockReqByPart">
<polygon fill="none" stroke="black" points="190.5,-539.5 190.5,-569.5 366.5,-569.5 366.5,-539.5 190.5,-539.5"/>
<text text-anchor="start" x="198.5" y="-557.5" font-family="Helvetica,sans-Serif" font-size="10.00">tomoBay.model.sql.queries.concrete</text>
<text text-anchor="middle" x="278.5" y="-546.5" font-family="Helvetica,sans-Serif" font-size="10.00">Queries.SelectPSAStockReqByPart</text>
</a>
</g>
</g>
<!-- Node1&#45;&gt;Node18 -->
<g id="edge17" class="edge"><title>Node1&#45;&gt;Node18</title>
<path fill="none" stroke="midnightblue" d="M88.3712,-653.544C107.442,-631.271 139.3,-598.178 174,-579.5 181.243,-575.601 189.096,-572.302 197.127,-569.513"/>
<polygon fill="midnightblue" stroke="midnightblue" points="85.4469,-651.585 81.7088,-661.498 90.8132,-656.08 85.4469,-651.585"/>
</g>
<!-- Node19 -->
<g id="node19" class="node"><title>Node19</title>
<g id="a_node19"><a xlink:href="classtomoBay_1_1model_1_1sql_1_1queries_1_1concreteQueries_1_1SelectTransactionByOrder.html" target="_top" xlink:title="tomoBay.model.sql.queries.concrete\lQueries.SelectTransactionByOrder">
<polygon fill="none" stroke="black" points="190.5,-490.5 190.5,-520.5 366.5,-520.5 366.5,-490.5 190.5,-490.5"/>
<text text-anchor="start" x="198.5" y="-508.5" font-family="Helvetica,sans-Serif" font-size="10.00">tomoBay.model.sql.queries.concrete</text>
<text text-anchor="middle" x="278.5" y="-497.5" font-family="Helvetica,sans-Serif" font-size="10.00">Queries.SelectTransactionByOrder</text>
</a>
</g>
</g>
<!-- Node1&#45;&gt;Node19 -->
<g id="edge18" class="edge"><title>Node1&#45;&gt;Node19</title>
<path fill="none" stroke="midnightblue" d="M80.6361,-652.027C96.2208,-619.149 128.438,-561.299 174,-530.5 179.743,-526.618 186.024,-523.337 192.563,-520.563"/>
<polygon fill="midnightblue" stroke="midnightblue" points="77.3372,-650.823 76.337,-661.371 83.6964,-653.749 77.3372,-650.823"/>
</g>
<!-- Node20 -->
<g id="node20" class="node"><title>Node20</title>
<g id="a_node20"><a xlink:href="classtomoBay_1_1model_1_1sql_1_1queries_1_1concreteQueries_1_1SelectUninvoicedOrders.html" target="_top" xlink:title="tomoBay.model.sql.queries.concrete\lQueries.SelectUninvoicedOrders">
<polygon fill="none" stroke="black" points="190.5,-441.5 190.5,-471.5 366.5,-471.5 366.5,-441.5 190.5,-441.5"/>
<text text-anchor="start" x="198.5" y="-459.5" font-family="Helvetica,sans-Serif" font-size="10.00">tomoBay.model.sql.queries.concrete</text>
<text text-anchor="middle" x="278.5" y="-448.5" font-family="Helvetica,sans-Serif" font-size="10.00">Queries.SelectUninvoicedOrders</text>
</a>
</g>
</g>
<!-- Node1&#45;&gt;Node20 -->
<g id="edge19" class="edge"><title>Node1&#45;&gt;Node20</title>
<path fill="none" stroke="midnightblue" d="M76.1174,-651.616C87.7388,-609.769 117.09,-525.57 174,-481.5 179.042,-477.595 184.605,-474.289 190.457,-471.491"/>
<polygon fill="midnightblue" stroke="midnightblue" points="72.7319,-650.728 73.5388,-661.292 79.4959,-652.53 72.7319,-650.728"/>
</g>
<!-- Node21 -->
<g id="node21" class="node"><title>Node21</title>
<g id="a_node21"><a xlink:href="classtomoBay_1_1model_1_1sql_1_1queries_1_1concreteQueries_1_1UpdateAvailableStockFord.html" target="_top" xlink:title="tomoBay.model.sql.queries.concrete\lQueries.UpdateAvailableStockFord">
<polygon fill="none" stroke="black" points="190.5,-392.5 190.5,-422.5 366.5,-422.5 366.5,-392.5 190.5,-392.5"/>
<text text-anchor="start" x="198.5" y="-410.5" font-family="Helvetica,sans-Serif" font-size="10.00">tomoBay.model.sql.queries.concrete</text>
<text text-anchor="middle" x="278.5" y="-399.5" font-family="Helvetica,sans-Serif" font-size="10.00">Queries.UpdateAvailableStockFord</text>
</a>
</g>
</g>
<!-- Node1&#45;&gt;Node21 -->
<g id="edge20" class="edge"><title>Node1&#45;&gt;Node21</title>
<path fill="none" stroke="midnightblue" d="M73.2541,-651.246C81.0533,-601.458 105.544,-490.446 174,-432.5 178.938,-428.32 184.461,-424.815 190.316,-421.88"/>
<polygon fill="midnightblue" stroke="midnightblue" points="69.7469,-651.041 71.7592,-661.443 76.6728,-652.056 69.7469,-651.041"/>
</g>
<!-- Node22 -->
<g id="node22" class="node"><title>Node22</title>
<g id="a_node22"><a xlink:href="classtomoBay_1_1model_1_1sql_1_1queries_1_1concreteQueries_1_1UpdateAvailableStockPrestige.html" target="_top" xlink:title="tomoBay.model.sql.queries.concrete\lQueries.UpdateAvailableStockPrestige">
<polygon fill="none" stroke="black" points="185.5,-343.5 185.5,-373.5 371.5,-373.5 371.5,-343.5 185.5,-343.5"/>
<text text-anchor="start" x="193.5" y="-361.5" font-family="Helvetica,sans-Serif" font-size="10.00">tomoBay.model.sql.queries.concrete</text>
<text text-anchor="middle" x="278.5" y="-350.5" font-family="Helvetica,sans-Serif" font-size="10.00">Queries.UpdateAvailableStockPrestige</text>
</a>
</g>
</g>
<!-- Node1&#45;&gt;Node22 -->
<g id="edge21" class="edge"><title>Node1&#45;&gt;Node22</title>
<path fill="none" stroke="midnightblue" d="M71.2292,-651.079C75.4061,-594.164 93.7347,-455.818 174,-383.5 178.257,-379.664 183.001,-376.391 188.052,-373.6"/>
<polygon fill="midnightblue" stroke="midnightblue" points="67.7188,-651.129 70.5683,-661.333 74.7043,-651.579 67.7188,-651.129"/>
</g>
<!-- Node23 -->
<g id="node23" class="node"><title>Node23</title>
<g id="a_node23"><a xlink:href="classtomoBay_1_1model_1_1sql_1_1queries_1_1concreteQueries_1_1UpdateAvailableStockPSA.html" target="_top" xlink:title="tomoBay.model.sql.queries.concrete\lQueries.UpdateAvailableStockPSA">
<polygon fill="none" stroke="black" points="190.5,-294.5 190.5,-324.5 366.5,-324.5 366.5,-294.5 190.5,-294.5"/>
<text text-anchor="start" x="198.5" y="-312.5" font-family="Helvetica,sans-Serif" font-size="10.00">tomoBay.model.sql.queries.concrete</text>
<text text-anchor="middle" x="278.5" y="-301.5" font-family="Helvetica,sans-Serif" font-size="10.00">Queries.UpdateAvailableStockPSA</text>
</a>
</g>
</g>
<!-- Node1&#45;&gt;Node23 -->
<g id="edge22" class="edge"><title>Node1&#45;&gt;Node23</title>
<path fill="none" stroke="midnightblue" d="M69.7285,-650.876C70.522,-587.353 81.8052,-421.479 174,-334.5 178.841,-329.933 184.366,-326.157 190.289,-323.038"/>
<polygon fill="midnightblue" stroke="midnightblue" points="66.2273,-651.156 69.6837,-661.171 73.2272,-651.187 66.2273,-651.156"/>
</g>
<!-- Node24 -->
<g id="node24" class="node"><title>Node24</title>
<g id="a_node24"><a xlink:href="classtomoBay_1_1model_1_1sql_1_1queries_1_1concreteQueries_1_1UpdateFordStockReq.html" target="_top" xlink:title="tomoBay.model.sql.queries.concrete\lQueries.UpdateFordStockReq">
<polygon fill="none" stroke="black" points="190.5,-245.5 190.5,-275.5 366.5,-275.5 366.5,-245.5 190.5,-245.5"/>
<text text-anchor="start" x="198.5" y="-263.5" font-family="Helvetica,sans-Serif" font-size="10.00">tomoBay.model.sql.queries.concrete</text>
<text text-anchor="middle" x="278.5" y="-252.5" font-family="Helvetica,sans-Serif" font-size="10.00">Queries.UpdateFordStockReq</text>
</a>
</g>
</g>
<!-- Node1&#45;&gt;Node24 -->
<g id="edge23" class="edge"><title>Node1&#45;&gt;Node24</title>
<path fill="none" stroke="midnightblue" d="M73.3575,-651.038C84.1856,-572.742 120.613,-337.675 174,-285.5 178.759,-280.849 184.227,-277.011 190.109,-273.851"/>
<polygon fill="midnightblue" stroke="midnightblue" points="69.8262,-651.032 71.9467,-661.412 76.7624,-651.975 69.8262,-651.032"/>
</g>
<!-- Node25 -->
<g id="node25" class="node"><title>Node25</title>
<g id="a_node25"><a xlink:href="classtomoBay_1_1model_1_1sql_1_1queries_1_1concreteQueries_1_1UpdateInvoiceStatus.html" target="_top" xlink:title="tomoBay.model.sql.queries.concrete\lQueries.UpdateInvoiceStatus">
<polygon fill="none" stroke="black" points="190.5,-196.5 190.5,-226.5 366.5,-226.5 366.5,-196.5 190.5,-196.5"/>
<text text-anchor="start" x="198.5" y="-214.5" font-family="Helvetica,sans-Serif" font-size="10.00">tomoBay.model.sql.queries.concrete</text>
<text text-anchor="middle" x="278.5" y="-203.5" font-family="Helvetica,sans-Serif" font-size="10.00">Queries.UpdateInvoiceStatus</text>
</a>
</g>
</g>
<!-- Node1&#45;&gt;Node25 -->
<g id="edge24" class="edge"><title>Node1&#45;&gt;Node25</title>
<path fill="none" stroke="midnightblue" d="M72.4994,-651.509C81.4113,-567.393 114.327,-296.466 174,-236.5 178.824,-231.652 184.416,-227.683 190.453,-224.44"/>
<polygon fill="midnightblue" stroke="midnightblue" points="69.0177,-651.152 71.4656,-661.46 75.9803,-651.875 69.0177,-651.152"/>
</g>
<!-- Node26 -->
<g id="node26" class="node"><title>Node26</title>
<g id="a_node26"><a xlink:href="classtomoBay_1_1model_1_1sql_1_1queries_1_1concreteQueries_1_1UpdateItemBrandAndPartNo.html" target="_top" xlink:title="tomoBay.model.sql.queries.concrete\lQueries.UpdateItemBrandAndPartNo">
<polygon fill="none" stroke="black" points="189.5,-147.5 189.5,-177.5 367.5,-177.5 367.5,-147.5 189.5,-147.5"/>
<text text-anchor="start" x="197.5" y="-165.5" font-family="Helvetica,sans-Serif" font-size="10.00">tomoBay.model.sql.queries.concrete</text>
<text text-anchor="middle" x="278.5" y="-154.5" font-family="Helvetica,sans-Serif" font-size="10.00">Queries.UpdateItemBrandAndPartNo</text>
</a>
</g>
</g>
<!-- Node1&#45;&gt;Node26 -->
<g id="edge25" class="edge"><title>Node1&#45;&gt;Node26</title>
<path fill="none" stroke="midnightblue" d="M71.8899,-651.151C79.1497,-560.633 108.2,-255.132 174,-187.5 178.512,-182.863 183.724,-179.026 189.362,-175.858"/>
<polygon fill="midnightblue" stroke="midnightblue" points="68.3849,-651.08 71.0942,-661.323 75.3635,-651.626 68.3849,-651.08"/>
</g>
<!-- Node27 -->
<g id="node27" class="node"><title>Node27</title>
<g id="a_node27"><a xlink:href="classtomoBay_1_1model_1_1sql_1_1queries_1_1concreteQueries_1_1UpdatePrestigeStockReq.html" target="_top" xlink:title="tomoBay.model.sql.queries.concrete\lQueries.UpdatePrestigeStockReq">
<polygon fill="none" stroke="black" points="190.5,-98.5 190.5,-128.5 366.5,-128.5 366.5,-98.5 190.5,-98.5"/>
<text text-anchor="start" x="198.5" y="-116.5" font-family="Helvetica,sans-Serif" font-size="10.00">tomoBay.model.sql.queries.concrete</text>
<text text-anchor="middle" x="278.5" y="-105.5" font-family="Helvetica,sans-Serif" font-size="10.00">Queries.UpdatePrestigeStockReq</text>
</a>
</g>
</g>
<!-- Node1&#45;&gt;Node27 -->
<g id="edge26" class="edge"><title>Node1&#45;&gt;Node27</title>
<path fill="none" stroke="midnightblue" d="M71.3563,-651.172C77.0218,-554.983 101.953,-213.944 174,-138.5 178.724,-133.554 184.244,-129.515 190.232,-126.224"/>
<polygon fill="midnightblue" stroke="midnightblue" points="67.8473,-651.231 70.7722,-661.415 74.836,-651.63 67.8473,-651.231"/>
</g>
<!-- Node28 -->
<g id="node28" class="node"><title>Node28</title>
<g id="a_node28"><a xlink:href="classtomoBay_1_1model_1_1sql_1_1queries_1_1concreteQueries_1_1UpdatePSAStockReq.html" target="_top" xlink:title="tomoBay.model.sql.queries.concrete\lQueries.UpdatePSAStockReq">
<polygon fill="none" stroke="black" points="190.5,-49.5 190.5,-79.5 366.5,-79.5 366.5,-49.5 190.5,-49.5"/>
<text text-anchor="start" x="198.5" y="-67.5" font-family="Helvetica,sans-Serif" font-size="10.00">tomoBay.model.sql.queries.concrete</text>
<text text-anchor="middle" x="278.5" y="-56.5" font-family="Helvetica,sans-Serif" font-size="10.00">Queries.UpdatePSAStockReq</text>
</a>
</g>
</g>
<!-- Node1&#45;&gt;Node28 -->
<g id="edge27" class="edge"><title>Node1&#45;&gt;Node28</title>
<path fill="none" stroke="midnightblue" d="M70.9094,-651.21C75.0796,-549.634 95.6752,-172.809 174,-89.5 178.685,-84.5169 184.178,-80.452 190.147,-77.1439"/>
<polygon fill="midnightblue" stroke="midnightblue" points="67.4028,-651.313 70.5075,-661.443 74.3974,-651.588 67.4028,-651.313"/>
</g>
<!-- Node29 -->
<g id="node29" class="node"><title>Node29</title>
<g id="a_node29"><a xlink:href="classtomoBay_1_1model_1_1sql_1_1queries_1_1concreteQueries_1_1UpdateTotalItemsRequired.html" target="_top" xlink:title="tomoBay.model.sql.queries.concrete\lQueries.UpdateTotalItemsRequired">
<polygon fill="none" stroke="black" points="190.5,-0.5 190.5,-30.5 366.5,-30.5 366.5,-0.5 190.5,-0.5"/>
<text text-anchor="start" x="198.5" y="-18.5" font-family="Helvetica,sans-Serif" font-size="10.00">tomoBay.model.sql.queries.concrete</text>
<text text-anchor="middle" x="278.5" y="-7.5" font-family="Helvetica,sans-Serif" font-size="10.00">Queries.UpdateTotalItemsRequired</text>
</a>
</g>
</g>
<!-- Node1&#45;&gt;Node29 -->
<g id="edge28" class="edge"><title>Node1&#45;&gt;Node29</title>
<path fill="none" stroke="midnightblue" d="M70.5321,-651.193C73.2992,-544.374 89.3899,-131.699 174,-40.5 178.652,-35.4859 184.121,-31.399 190.074,-28.0759"/>
<polygon fill="midnightblue" stroke="midnightblue" points="67.0292,-651.274 70.286,-661.356 74.0272,-651.444 67.0292,-651.274"/>
</g>
</g>
</svg>
