<?xml version="1.0" encoding="UTF-8" standalone="no"?>
<!DOCTYPE svg PUBLIC "-//W3C//DTD SVG 1.1//EN"
 "http://www.w3.org/Graphics/SVG/1.1/DTD/svg11.dtd">
<!-- Generated by graphviz version 2.38.0 (20140413.2041)
 -->
<!-- Title: Graphical Class Hierarchy Pages: 1 -->
<svg width="504pt" height="294pt"
 viewBox="0.00 0.00 504.00 294.50" xmlns="http://www.w3.org/2000/svg" xmlns:xlink="http://www.w3.org/1999/xlink">
<g id="graph0" class="graph" transform="scale(1 1) rotate(0) translate(4 290.5)">
<title>Graphical Class Hierarchy</title>
<!-- Node1 -->
<g id="node1" class="node"><title>Node1</title>
<polygon fill="none" stroke="#bfbfbf" points="0,-138.5 0,-157.5 58,-157.5 58,-138.5 0,-138.5"/>
<text text-anchor="middle" x="29" y="-145.5" font-family="Helvetica,sans-Serif" font-size="10.00">Runnable</text>
</g>
<!-- Node2 -->
<g id="node2" class="node"><title>Node2</title>
<g id="a_node2"><a xlink:href="interfacetomoBay_1_1model_1_1services_1_1AbstractService.html" target="_top" xlink:title="tomoBay.model.services.Abstract\lService">
<polygon fill="none" stroke="black" points="94,-133 94,-163 258,-163 258,-133 94,-133"/>
<text text-anchor="start" x="102" y="-151" font-family="Helvetica,sans-Serif" font-size="10.00">tomoBay.model.services.Abstract</text>
<text text-anchor="middle" x="176" y="-140" font-family="Helvetica,sans-Serif" font-size="10.00">Service</text>
</a>
</g>
</g>
<!-- Node1&#45;&gt;Node2 -->
<g id="edge1" class="edge"><title>Node1&#45;&gt;Node2</title>
<path fill="none" stroke="midnightblue" d="M68.5618,-148C76.4349,-148 84.9976,-148 93.7326,-148"/>
<polygon fill="midnightblue" stroke="midnightblue" points="68.3017,-144.5 58.3017,-148 68.3016,-151.5 68.3017,-144.5"/>
</g>
<!-- Node3 -->
<g id="node3" class="node"><title>Node3</title>
<g id="a_node3"><a xlink:href="classtomoBay_1_1model_1_1services_1_1basicEbayUpdate_1_1BasicEbayUpdateService.html" target="_top" xlink:title="tomoBay.model.services.basic\lEbayUpdate.BasicEbayUpdateService">
<polygon fill="none" stroke="black" points="302.5,-256 302.5,-286 487.5,-286 487.5,-256 302.5,-256"/>
<text text-anchor="start" x="310.5" y="-274" font-family="Helvetica,sans-Serif" font-size="10.00">tomoBay.model.services.basic</text>
<text text-anchor="middle" x="395" y="-263" font-family="Helvetica,sans-Serif" font-size="10.00">EbayUpdate.BasicEbayUpdateService</text>
</a>
</g>
</g>
<!-- Node2&#45;&gt;Node3 -->
<g id="edge2" class="edge"><title>Node2&#45;&gt;Node3</title>
<path fill="none" stroke="midnightblue" d="M197.668,-170.465C219.504,-192.862 255.984,-226.636 294,-246 301.574,-249.858 309.781,-253.145 318.124,-255.94"/>
<polygon fill="midnightblue" stroke="midnightblue" points="200.02,-167.861 190.576,-163.06 194.965,-172.703 200.02,-167.861"/>
</g>
<!-- Node4 -->
<g id="node4" class="node"><title>Node4</title>
<g id="a_node4"><a xlink:href="classtomoBay_1_1model_1_1services_1_1individualItemRefresh_1_1IndividualItemRefreshService.html" target="_top" xlink:title="tomoBay.model.services.individual\lItemRefresh.IndividualItemRefreshService">
<polygon fill="none" stroke="black" points="294,-207 294,-237 496,-237 496,-207 294,-207"/>
<text text-anchor="start" x="302" y="-225" font-family="Helvetica,sans-Serif" font-size="10.00">tomoBay.model.services.individual</text>
<text text-anchor="middle" x="395" y="-214" font-family="Helvetica,sans-Serif" font-size="10.00">ItemRefresh.IndividualItemRefreshService</text>
</a>
</g>
</g>
<!-- Node2&#45;&gt;Node4 -->
<g id="edge3" class="edge"><title>Node2&#45;&gt;Node4</title>
<path fill="none" stroke="midnightblue" d="M218.679,-167.269C240.758,-177.012 268.514,-188.532 294,-197 304.784,-200.583 316.371,-203.927 327.699,-206.93"/>
<polygon fill="midnightblue" stroke="midnightblue" points="219.834,-163.952 209.276,-163.077 216.984,-170.346 219.834,-163.952"/>
</g>
<!-- Node5 -->
<g id="node5" class="node"><title>Node5</title>
<g id="a_node5"><a xlink:href="classtomoBay_1_1model_1_1services_1_1invoiceOrderService_1_1InvoiceService.html" target="_top" xlink:title="tomoBay.model.services.invoice\lOrderService.InvoiceService">
<polygon fill="none" stroke="black" points="316,-158 316,-188 474,-188 474,-158 316,-158"/>
<text text-anchor="start" x="324" y="-176" font-family="Helvetica,sans-Serif" font-size="10.00">tomoBay.model.services.invoice</text>
<text text-anchor="middle" x="395" y="-165" font-family="Helvetica,sans-Serif" font-size="10.00">OrderService.InvoiceService</text>
</a>
</g>
</g>
<!-- Node2&#45;&gt;Node5 -->
<g id="edge4" class="edge"><title>Node2&#45;&gt;Node5</title>
<path fill="none" stroke="midnightblue" d="M268.4,-158.53C284.187,-160.349 300.47,-162.225 315.866,-163.998"/>
<polygon fill="midnightblue" stroke="midnightblue" points="268.446,-155.012 258.111,-157.345 267.645,-161.966 268.446,-155.012"/>
</g>
<!-- Node6 -->
<g id="node6" class="node"><title>Node6</title>
<g id="a_node6"><a xlink:href="classtomoBay_1_1model_1_1services_1_1stockUpdate_1_1StockUpdateService.html" target="_top" xlink:title="tomoBay.model.services.stock\lUpdate.StockUpdateService">
<polygon fill="none" stroke="black" points="319,-109 319,-139 471,-139 471,-109 319,-109"/>
<text text-anchor="start" x="327" y="-127" font-family="Helvetica,sans-Serif" font-size="10.00">tomoBay.model.services.stock</text>
<text text-anchor="middle" x="395" y="-116" font-family="Helvetica,sans-Serif" font-size="10.00">Update.StockUpdateService</text>
</a>
</g>
</g>
<!-- Node2&#45;&gt;Node6 -->
<g id="edge5" class="edge"><title>Node2&#45;&gt;Node6</title>
<path fill="none" stroke="midnightblue" d="M268.455,-137.885C285.206,-136.033 302.513,-134.118 318.724,-132.325"/>
<polygon fill="midnightblue" stroke="midnightblue" points="267.666,-134.451 258.111,-139.029 268.436,-141.409 267.666,-134.451"/>
</g>
<!-- Node7 -->
<g id="node7" class="node"><title>Node7</title>
<g id="a_node7"><a xlink:href="classtomoBay_1_1model_1_1services_1_1testService_1_1TestService.html" target="_top" xlink:title="tomoBay.model.services.test\lService.TestService">
<polygon fill="none" stroke="black" points="323,-60 323,-90 467,-90 467,-60 323,-60"/>
<text text-anchor="start" x="331" y="-78" font-family="Helvetica,sans-Serif" font-size="10.00">tomoBay.model.services.test</text>
<text text-anchor="middle" x="395" y="-67" font-family="Helvetica,sans-Serif" font-size="10.00">Service.TestService</text>
</a>
</g>
</g>
<!-- Node2&#45;&gt;Node7 -->
<g id="edge6" class="edge"><title>Node2&#45;&gt;Node7</title>
<path fill="none" stroke="midnightblue" d="M219.429,-128.862C241.401,-119.396 268.833,-108.261 294,-100 304.882,-96.4283 316.573,-93.0799 327.988,-90.0665"/>
<polygon fill="midnightblue" stroke="midnightblue" points="217.831,-125.74 210.058,-132.94 220.624,-132.159 217.831,-125.74"/>
</g>
<!-- Node8 -->
<g id="node8" class="node"><title>Node8</title>
<g id="a_node8"><a xlink:href="classtomoBay_1_1model_1_1services_1_1updateOrderStatusService_1_1UpdateOrderStatusService.html" target="_top" xlink:title="tomoBay.model.services.update\lOrderStatusService.UpdateOrderStatus\lService">
<polygon fill="none" stroke="black" points="300.5,-0.5 300.5,-41.5 489.5,-41.5 489.5,-0.5 300.5,-0.5"/>
<text text-anchor="start" x="308.5" y="-29.5" font-family="Helvetica,sans-Serif" font-size="10.00">tomoBay.model.services.update</text>
<text text-anchor="start" x="308.5" y="-18.5" font-family="Helvetica,sans-Serif" font-size="10.00">OrderStatusService.UpdateOrderStatus</text>
<text text-anchor="middle" x="395" y="-7.5" font-family="Helvetica,sans-Serif" font-size="10.00">Service</text>
</a>
</g>
</g>
<!-- Node2&#45;&gt;Node8 -->
<g id="edge7" class="edge"><title>Node2&#45;&gt;Node8</title>
<path fill="none" stroke="midnightblue" d="M198.641,-125.401C220.739,-103.525 256.967,-70.8402 294,-51 300.551,-47.4905 307.568,-44.3357 314.735,-41.5119"/>
<polygon fill="midnightblue" stroke="midnightblue" points="196.004,-123.09 191.436,-132.65 200.969,-128.025 196.004,-123.09"/>
</g>
</g>
</svg>
