<?xml version="1.0" encoding="UTF-8" standalone="no"?>
<!DOCTYPE svg PUBLIC "-//W3C//DTD SVG 1.1//EN"
 "http://www.w3.org/Graphics/SVG/1.1/DTD/svg11.dtd">
<!-- Generated by graphviz version 2.38.0 (20140413.2041)
 -->
<!-- Title: tomoBay.model.services.AbstractService Pages: 1 -->
<svg width="1129pt" height="331pt"
 viewBox="0.00 0.00 1129.00 331.00" xmlns="http://www.w3.org/2000/svg" xmlns:xlink="http://www.w3.org/1999/xlink">
<g id="graph0" class="graph" transform="scale(1 1) rotate(0) translate(4 327)">
<title>tomoBay.model.services.AbstractService</title>
<!-- Node1 -->
<g id="node1" class="node"><title>Node1</title>
<polygon fill="#bfbfbf" stroke="black" points="506.5,-149.5 506.5,-228.5 670.5,-228.5 670.5,-149.5 506.5,-149.5"/>
<text text-anchor="start" x="514.5" y="-216.5" font-family="Helvetica,sans-Serif" font-size="10.00">tomoBay.model.services.Abstract</text>
<text text-anchor="middle" x="588.5" y="-205.5" font-family="Helvetica,sans-Serif" font-size="10.00">Service</text>
<polyline fill="none" stroke="black" points="506.5,-198.5 670.5,-198.5 "/>
<text text-anchor="middle" x="588.5" y="-186.5" font-family="Helvetica,sans-Serif" font-size="10.00"> </text>
<polyline fill="none" stroke="black" points="506.5,-179.5 670.5,-179.5 "/>
<text text-anchor="start" x="514.5" y="-167.5" font-family="Helvetica,sans-Serif" font-size="10.00">+ run()</text>
<text text-anchor="start" x="514.5" y="-156.5" font-family="Helvetica,sans-Serif" font-size="10.00">+ setConfig()</text>
</g>
<!-- Node3 -->
<g id="node3" class="node"><title>Node3</title>
<g id="a_node3"><a xlink:href="classtomoBay_1_1model_1_1services_1_1basicEbayUpdate_1_1BasicEbayUpdateService.html" target="_top" xlink:title="{tomoBay.model.services.basic\lEbayUpdate.BasicEbayUpdateService\n||+ run()\l~ setConfig()\l}">
<polygon fill="none" stroke="black" points="0,-17 0,-96 185,-96 185,-17 0,-17"/>
<text text-anchor="start" x="8" y="-84" font-family="Helvetica,sans-Serif" font-size="10.00">tomoBay.model.services.basic</text>
<text text-anchor="middle" x="92.5" y="-73" font-family="Helvetica,sans-Serif" font-size="10.00">EbayUpdate.BasicEbayUpdateService</text>
<polyline fill="none" stroke="black" points="0,-66 185,-66 "/>
<text text-anchor="middle" x="92.5" y="-54" font-family="Helvetica,sans-Serif" font-size="10.00"> </text>
<polyline fill="none" stroke="black" points="0,-47 185,-47 "/>
<text text-anchor="start" x="8" y="-35" font-family="Helvetica,sans-Serif" font-size="10.00">+ run()</text>
<text text-anchor="start" x="8" y="-24" font-family="Helvetica,sans-Serif" font-size="10.00">~ setConfig()</text>
</a>
</g>
</g>
<!-- Node1&#45;&gt;Node3 -->
<g id="edge2" class="edge"><title>Node1&#45;&gt;Node3</title>
<path fill="none" stroke="midnightblue" d="M495.986,-178.605C414.757,-168.441 294.323,-148.672 194.5,-113 181.686,-108.421 168.537,-102.398 156.123,-96.0109"/>
<polygon fill="none" stroke="midnightblue" points="495.837,-182.113 506.189,-179.857 496.689,-175.165 495.837,-182.113"/>
</g>
<!-- Node4 -->
<g id="node4" class="node"><title>Node4</title>
<g id="a_node4"><a xlink:href="classtomoBay_1_1model_1_1services_1_1individualItemRefresh_1_1IndividualItemRefreshService.html" target="_top" xlink:title="{tomoBay.model.services.individual\lItemRefresh.IndividualItemRefreshService\n|&#45; listingID_M\l|+ run()\l~ setConfig()\l&#45; getItemData()\l&#45; getSpecifics()\l}">
<polygon fill="none" stroke="black" points="203.5,-6 203.5,-107 405.5,-107 405.5,-6 203.5,-6"/>
<text text-anchor="start" x="211.5" y="-95" font-family="Helvetica,sans-Serif" font-size="10.00">tomoBay.model.services.individual</text>
<text text-anchor="middle" x="304.5" y="-84" font-family="Helvetica,sans-Serif" font-size="10.00">ItemRefresh.IndividualItemRefreshService</text>
<polyline fill="none" stroke="black" points="203.5,-77 405.5,-77 "/>
<text text-anchor="start" x="211.5" y="-65" font-family="Helvetica,sans-Serif" font-size="10.00">&#45; listingID_M</text>
<polyline fill="none" stroke="black" points="203.5,-58 405.5,-58 "/>
<text text-anchor="start" x="211.5" y="-46" font-family="Helvetica,sans-Serif" font-size="10.00">+ run()</text>
<text text-anchor="start" x="211.5" y="-35" font-family="Helvetica,sans-Serif" font-size="10.00">~ setConfig()</text>
<text text-anchor="start" x="211.5" y="-24" font-family="Helvetica,sans-Serif" font-size="10.00">&#45; getItemData()</text>
<text text-anchor="start" x="211.5" y="-13" font-family="Helvetica,sans-Serif" font-size="10.00">&#45; getSpecifics()</text>
</a>
</g>
</g>
<!-- Node1&#45;&gt;Node4 -->
<g id="edge3" class="edge"><title>Node1&#45;&gt;Node4</title>
<path fill="none" stroke="midnightblue" d="M496.836,-149.717C470.14,-138.237 441.026,-125.395 414.5,-113 410.43,-111.098 406.288,-109.135 402.113,-107.134"/>
<polygon fill="none" stroke="midnightblue" points="495.599,-152.995 506.17,-153.717 498.357,-146.561 495.599,-152.995"/>
</g>
<!-- Node5 -->
<g id="node5" class="node"><title>Node5</title>
<g id="a_node5"><a xlink:href="classtomoBay_1_1model_1_1services_1_1invoiceOrderService_1_1InvoiceService.html" target="_top" xlink:title="{tomoBay.model.services.invoice\lOrderService.InvoiceService\n||+ run()\l~ setConfig()\l}">
<polygon fill="none" stroke="black" points="423.5,-17 423.5,-96 581.5,-96 581.5,-17 423.5,-17"/>
<text text-anchor="start" x="431.5" y="-84" font-family="Helvetica,sans-Serif" font-size="10.00">tomoBay.model.services.invoice</text>
<text text-anchor="middle" x="502.5" y="-73" font-family="Helvetica,sans-Serif" font-size="10.00">OrderService.InvoiceService</text>
<polyline fill="none" stroke="black" points="423.5,-66 581.5,-66 "/>
<text text-anchor="middle" x="502.5" y="-54" font-family="Helvetica,sans-Serif" font-size="10.00"> </text>
<polyline fill="none" stroke="black" points="423.5,-47 581.5,-47 "/>
<text text-anchor="start" x="431.5" y="-35" font-family="Helvetica,sans-Serif" font-size="10.00">+ run()</text>
<text text-anchor="start" x="431.5" y="-24" font-family="Helvetica,sans-Serif" font-size="10.00">~ setConfig()</text>
</a>
</g>
</g>
<!-- Node1&#45;&gt;Node5 -->
<g id="edge4" class="edge"><title>Node1&#45;&gt;Node5</title>
<path fill="none" stroke="midnightblue" d="M557.388,-140.79C547.78,-126.21 537.313,-110.327 528.12,-96.3768"/>
<polygon fill="none" stroke="midnightblue" points="554.505,-142.775 562.93,-149.199 560.35,-138.923 554.505,-142.775"/>
</g>
<!-- Node6 -->
<g id="node6" class="node"><title>Node6</title>
<g id="a_node6"><a xlink:href="classtomoBay_1_1model_1_1services_1_1stockUpdate_1_1StockUpdateService.html" target="_top" xlink:title="{tomoBay.model.services.stock\lUpdate.StockUpdateService\n||+ StockUpdateService()\l+ run()\l~ setConfig()\l&#45; getStockLevel()\l&#45; insertStockIntoDB()\l}">
<polygon fill="none" stroke="black" points="599.5,-0.5 599.5,-112.5 751.5,-112.5 751.5,-0.5 599.5,-0.5"/>
<text text-anchor="start" x="607.5" y="-100.5" font-family="Helvetica,sans-Serif" font-size="10.00">tomoBay.model.services.stock</text>
<text text-anchor="middle" x="675.5" y="-89.5" font-family="Helvetica,sans-Serif" font-size="10.00">Update.StockUpdateService</text>
<polyline fill="none" stroke="black" points="599.5,-82.5 751.5,-82.5 "/>
<text text-anchor="middle" x="675.5" y="-70.5" font-family="Helvetica,sans-Serif" font-size="10.00"> </text>
<polyline fill="none" stroke="black" points="599.5,-63.5 751.5,-63.5 "/>
<text text-anchor="start" x="607.5" y="-51.5" font-family="Helvetica,sans-Serif" font-size="10.00">+ StockUpdateService()</text>
<text text-anchor="start" x="607.5" y="-40.5" font-family="Helvetica,sans-Serif" font-size="10.00">+ run()</text>
<text text-anchor="start" x="607.5" y="-29.5" font-family="Helvetica,sans-Serif" font-size="10.00">~ setConfig()</text>
<text text-anchor="start" x="607.5" y="-18.5" font-family="Helvetica,sans-Serif" font-size="10.00">&#45; getStockLevel()</text>
<text text-anchor="start" x="607.5" y="-7.5" font-family="Helvetica,sans-Serif" font-size="10.00">&#45; insertStockIntoDB()</text>
</a>
</g>
</g>
<!-- Node1&#45;&gt;Node6 -->
<g id="edge5" class="edge"><title>Node1&#45;&gt;Node6</title>
<path fill="none" stroke="midnightblue" d="M620.035,-140.698C626.07,-131.645 632.438,-122.092 638.624,-112.814"/>
<polygon fill="none" stroke="midnightblue" points="617.002,-138.937 614.367,-149.199 622.827,-142.82 617.002,-138.937"/>
</g>
<!-- Node7 -->
<g id="node7" class="node"><title>Node7</title>
<g id="a_node7"><a xlink:href="classtomoBay_1_1model_1_1services_1_1testService_1_1TestService.html" target="_top" xlink:title="{tomoBay.model.services.test\lService.TestService\n|~ i\l|+ run()\l~ setConfig()\l}">
<polygon fill="none" stroke="black" points="769.5,-17 769.5,-96 913.5,-96 913.5,-17 769.5,-17"/>
<text text-anchor="start" x="777.5" y="-84" font-family="Helvetica,sans-Serif" font-size="10.00">tomoBay.model.services.test</text>
<text text-anchor="middle" x="841.5" y="-73" font-family="Helvetica,sans-Serif" font-size="10.00">Service.TestService</text>
<polyline fill="none" stroke="black" points="769.5,-66 913.5,-66 "/>
<text text-anchor="start" x="777.5" y="-54" font-family="Helvetica,sans-Serif" font-size="10.00">~ i</text>
<polyline fill="none" stroke="black" points="769.5,-47 913.5,-47 "/>
<text text-anchor="start" x="777.5" y="-35" font-family="Helvetica,sans-Serif" font-size="10.00">+ run()</text>
<text text-anchor="start" x="777.5" y="-24" font-family="Helvetica,sans-Serif" font-size="10.00">~ setConfig()</text>
</a>
</g>
</g>
<!-- Node1&#45;&gt;Node7 -->
<g id="edge6" class="edge"><title>Node1&#45;&gt;Node7</title>
<path fill="none" stroke="midnightblue" d="M679.808,-152.005C706.333,-140.533 735.01,-127.123 760.5,-113 769.596,-107.96 778.956,-102.171 787.938,-96.2761"/>
<polygon fill="none" stroke="midnightblue" points="678.34,-148.826 670.525,-155.979 681.095,-155.261 678.34,-148.826"/>
</g>
<!-- Node8 -->
<g id="node8" class="node"><title>Node8</title>
<g id="a_node8"><a xlink:href="classtomoBay_1_1model_1_1services_1_1updateOrderStatusService_1_1UpdateOrderStatusService.html" target="_top" xlink:title="{tomoBay.model.services.update\lOrderStatusService.UpdateOrderStatus\lService\n||+ run()\l~ setConfig()\l}">
<polygon fill="none" stroke="black" points="932,-11.5 932,-101.5 1121,-101.5 1121,-11.5 932,-11.5"/>
<text text-anchor="start" x="940" y="-89.5" font-family="Helvetica,sans-Serif" font-size="10.00">tomoBay.model.services.update</text>
<text text-anchor="start" x="940" y="-78.5" font-family="Helvetica,sans-Serif" font-size="10.00">OrderStatusService.UpdateOrderStatus</text>
<text text-anchor="middle" x="1026.5" y="-67.5" font-family="Helvetica,sans-Serif" font-size="10.00">Service</text>
<polyline fill="none" stroke="black" points="932,-60.5 1121,-60.5 "/>
<text text-anchor="middle" x="1026.5" y="-48.5" font-family="Helvetica,sans-Serif" font-size="10.00"> </text>
<polyline fill="none" stroke="black" points="932,-41.5 1121,-41.5 "/>
<text text-anchor="start" x="940" y="-29.5" font-family="Helvetica,sans-Serif" font-size="10.00">+ run()</text>
<text text-anchor="start" x="940" y="-18.5" font-family="Helvetica,sans-Serif" font-size="10.00">~ setConfig()</text>
</a>
</g>
</g>
<!-- Node1&#45;&gt;Node8 -->
<g id="edge7" class="edge"><title>Node1&#45;&gt;Node8</title>
<path fill="none" stroke="midnightblue" d="M680.438,-174.227C748.623,-162.377 843.113,-142.478 922.5,-113 931.421,-109.687 940.533,-105.747 949.472,-101.516"/>
<polygon fill="none" stroke="midnightblue" points="679.839,-170.779 670.574,-175.918 681.022,-177.678 679.839,-170.779"/>
</g>
<!-- Node2 -->
<g id="node2" class="node"><title>Node2</title>
<polygon fill="none" stroke="#bfbfbf" points="559.5,-265.5 559.5,-322.5 617.5,-322.5 617.5,-265.5 559.5,-265.5"/>
<text text-anchor="middle" x="588.5" y="-310.5" font-family="Helvetica,sans-Serif" font-size="10.00">Runnable</text>
<polyline fill="none" stroke="#bfbfbf" points="559.5,-303.5 617.5,-303.5 "/>
<text text-anchor="middle" x="588.5" y="-291.5" font-family="Helvetica,sans-Serif" font-size="10.00"> </text>
<polyline fill="none" stroke="#bfbfbf" points="559.5,-284.5 617.5,-284.5 "/>
<text text-anchor="middle" x="588.5" y="-272.5" font-family="Helvetica,sans-Serif" font-size="10.00"> </text>
</g>
<!-- Node2&#45;&gt;Node1 -->
<g id="edge1" class="edge"><title>Node2&#45;&gt;Node1</title>
<path fill="none" stroke="midnightblue" d="M588.5,-255.156C588.5,-246.473 588.5,-237.232 588.5,-228.52"/>
<polygon fill="none" stroke="midnightblue" points="585,-255.398 588.5,-265.398 592,-255.398 585,-255.398"/>
</g>
</g>
</svg>
