<?xml version="1.0" encoding="UTF-8" standalone="no"?>
<!DOCTYPE svg PUBLIC "-//W3C//DTD SVG 1.1//EN"
 "http://www.w3.org/Graphics/SVG/1.1/DTD/svg11.dtd">
<!-- Generated by graphviz version 2.38.0 (20140413.2041)
 -->
<!-- Title: AbstractView Pages: 1 -->
<!--zoomable 193 -->
<svg id="main" version="1.1" xmlns="http://www.w3.org/2000/svg" xmlns:xlink="http://www.w3.org/1999/xlink" xml:space="preserve" onload="init(evt)">
<style type="text/css"><![CDATA[
.edge:hover path { stroke: red; }
.edge:hover polygon { stroke: red; fill: red; }
]]></style>
<script type="text/javascript"><![CDATA[
var edges = document.getElementsByTagName('g');
if (edges && edges.length) {
  for (var i=0;i<edges.length;i++) {
    if (edges[i].id.substr(0,4)=='edge') {
      edges[i].setAttribute('class','edge');
    }
  }
}
]]></script>
        <defs>
                <circle id="rim" cx="0" cy="0" r="7"/>
                <circle id="rim2" cx="0" cy="0" r="3.5"/>
                <g id="zoomPlus">
                        <use xlink:href="#rim" fill="#404040">
                                <set attributeName="fill" to="#808080" begin="zoomplus.mouseover" end="zoomplus.mouseout"/>
                        </use>
                        <path d="M-4,0h8M0,-4v8" fill="none" stroke="white" stroke-width="1.5" pointer-events="none"/>
                </g>
                <g id="zoomMin">
                        <use xlink:href="#rim" fill="#404040">
                                <set attributeName="fill" to="#808080" begin="zoomminus.mouseover" end="zoomminus.mouseout"/>
                        </use>
                        <path d="M-4,0h8" fill="none" stroke="white" stroke-width="1.5" pointer-events="none"/>
                </g>
                <g id="dirArrow">
                        <path fill="none" stroke="white" stroke-width="1.5" d="M0,-3.0v7 M-2.5,-0.5L0,-3.0L2.5,-0.5"/>
                </g>
               <g id="resetDef">
                       <use xlink:href="#rim2" fill="#404040">
                               <set attributeName="fill" to="#808080" begin="reset.mouseover" end="reset.mouseout"/>
                       </use>
               </g>
        </defs>

<script type="text/javascript">
var viewWidth = 1072;
var viewHeight = 193;
var sectionId = 'dynsection-0';
</script>
<script xlink:href="svgpan.js"/>
<svg id="graph" class="graph">
<g id="viewport">
<title>AbstractView</title>
<polygon fill="white" stroke="none" points="-4,4 -4,-189 1067.5,-189 1067.5,4 -4,4"/>
<!-- Node1 -->
<g id="node1" class="node"><title>Node1</title>
<polygon fill="#bfbfbf" stroke="black" points="492,-127.5 492,-184.5 567,-184.5 567,-127.5 492,-127.5"/>
<text text-anchor="middle" x="529.5" y="-172.5" font-family="Helvetica,sans-Serif" font-size="10.00">AbstractView</text>
<polyline fill="none" stroke="black" points="492,-165.5 567,-165.5 "/>
<text text-anchor="middle" x="529.5" y="-153.5" font-family="Helvetica,sans-Serif" font-size="10.00"> </text>
<polyline fill="none" stroke="black" points="492,-146.5 567,-146.5 "/>
<text text-anchor="start" x="500" y="-134.5" font-family="Helvetica,sans-Serif" font-size="10.00">+ format()</text>
</g>
<!-- Node2 -->
<g id="node2" class="node"><title>Node2</title>
<g id="a_node2"><a xlink:href="classtomoBay_1_1view_1_1views_1_1AdminServiceView.html" target="_top" xlink:title="Copyright(C) 2015 Jan P.C. ">
<polygon fill="white" stroke="black" points="0,-17 0,-74 99,-74 99,-17 0,-17"/>
<text text-anchor="middle" x="49.5" y="-62" font-family="Helvetica,sans-Serif" font-size="10.00">AdminServiceView</text>
<polyline fill="none" stroke="black" points="0,-55 99,-55 "/>
<text text-anchor="middle" x="49.5" y="-43" font-family="Helvetica,sans-Serif" font-size="10.00"> </text>
<polyline fill="none" stroke="black" points="0,-36 99,-36 "/>
<text text-anchor="start" x="8" y="-24" font-family="Helvetica,sans-Serif" font-size="10.00">+ format()</text>
</a>
</g>
</g>
<!-- Node1&#45;&gt;Node2 -->
<g id="edge1" class="edge"><title>Node1&#45;&gt;Node2</title>
<path fill="none" stroke="midnightblue" d="M481.514,-155.243C401.151,-154.032 235.656,-144.542 108.5,-91 98.5675,-86.8177 88.8009,-80.5889 80.1607,-74.1069"/>
<polygon fill="none" stroke="midnightblue" points="481.774,-158.746 491.812,-155.36 481.853,-151.747 481.774,-158.746"/>
</g>
<!-- Node3 -->
<g id="node3" class="node"><title>Node3</title>
<g id="a_node3"><a xlink:href="classtomoBay_1_1view_1_1views_1_1CRMDetailView.html" target="_top" xlink:title="Copyright(C) 2015 Jan P.C. ">
<polygon fill="white" stroke="black" points="117.5,-11.5 117.5,-79.5 219.5,-79.5 219.5,-11.5 117.5,-11.5"/>
<text text-anchor="middle" x="168.5" y="-67.5" font-family="Helvetica,sans-Serif" font-size="10.00">CRMDetailView</text>
<polyline fill="none" stroke="black" points="117.5,-60.5 219.5,-60.5 "/>
<text text-anchor="middle" x="168.5" y="-48.5" font-family="Helvetica,sans-Serif" font-size="10.00"> </text>
<polyline fill="none" stroke="black" points="117.5,-41.5 219.5,-41.5 "/>
<text text-anchor="start" x="125.5" y="-29.5" font-family="Helvetica,sans-Serif" font-size="10.00">+ CRMDetailView()</text>
<text text-anchor="start" x="125.5" y="-18.5" font-family="Helvetica,sans-Serif" font-size="10.00">+ format()</text>
</a>
</g>
</g>
<!-- Node1&#45;&gt;Node3 -->
<g id="edge2" class="edge"><title>Node1&#45;&gt;Node3</title>
<path fill="none" stroke="midnightblue" d="M481.655,-151.166C420.581,-144.873 312.744,-129.008 228.5,-91 221.644,-87.9066 214.814,-83.9307 208.351,-79.6309"/>
<polygon fill="none" stroke="midnightblue" points="481.476,-154.665 491.772,-152.164 482.164,-147.699 481.476,-154.665"/>
</g>
<!-- Node4 -->
<g id="node4" class="node"><title>Node4</title>
<g id="a_node4"><a xlink:href="classtomoBay_1_1view_1_1views_1_1CRMOverviewView.html" target="_top" xlink:title="Copyright(C) 2015 Jan P.C. ">
<polygon fill="white" stroke="black" points="237.5,-11.5 237.5,-79.5 355.5,-79.5 355.5,-11.5 237.5,-11.5"/>
<text text-anchor="middle" x="296.5" y="-67.5" font-family="Helvetica,sans-Serif" font-size="10.00">CRMOverviewView</text>
<polyline fill="none" stroke="black" points="237.5,-60.5 355.5,-60.5 "/>
<text text-anchor="middle" x="296.5" y="-48.5" font-family="Helvetica,sans-Serif" font-size="10.00"> </text>
<polyline fill="none" stroke="black" points="237.5,-41.5 355.5,-41.5 "/>
<text text-anchor="start" x="245.5" y="-29.5" font-family="Helvetica,sans-Serif" font-size="10.00">+ CRMOverviewView()</text>
<text text-anchor="start" x="245.5" y="-18.5" font-family="Helvetica,sans-Serif" font-size="10.00">+ format()</text>
</a>
</g>
</g>
<!-- Node1&#45;&gt;Node4 -->
<g id="edge3" class="edge"><title>Node1&#45;&gt;Node4</title>
<path fill="none" stroke="midnightblue" d="M482.252,-139.639C448.626,-128 402.803,-110.686 364.5,-91 357.849,-87.5819 351.038,-83.6717 344.417,-79.6198"/>
<polygon fill="none" stroke="midnightblue" points="481.239,-142.992 491.834,-142.917 483.505,-136.369 481.239,-142.992"/>
</g>
<!-- Node5 -->
<g id="node5" class="node"><title>Node5</title>
<g id="a_node5"><a xlink:href="classtomoBay_1_1view_1_1views_1_1ErrorView.html" target="_top" xlink:title="{ErrorView\n||+ format()\l}">
<polygon fill="white" stroke="black" points="374,-17 374,-74 433,-74 433,-17 374,-17"/>
<text text-anchor="middle" x="403.5" y="-62" font-family="Helvetica,sans-Serif" font-size="10.00">ErrorView</text>
<polyline fill="none" stroke="black" points="374,-55 433,-55 "/>
<text text-anchor="middle" x="403.5" y="-43" font-family="Helvetica,sans-Serif" font-size="10.00"> </text>
<polyline fill="none" stroke="black" points="374,-36 433,-36 "/>
<text text-anchor="start" x="382" y="-24" font-family="Helvetica,sans-Serif" font-size="10.00">+ format()</text>
</a>
</g>
</g>
<!-- Node1&#45;&gt;Node5 -->
<g id="edge4" class="edge"><title>Node1&#45;&gt;Node5</title>
<path fill="none" stroke="midnightblue" d="M483.371,-123.923C469.726,-113.986 455.082,-102.551 442.5,-91 436.9,-85.859 431.279,-79.9718 426.117,-74.1994"/>
<polygon fill="none" stroke="midnightblue" points="481.545,-126.921 491.71,-129.905 485.625,-121.233 481.545,-126.921"/>
</g>
<!-- Node6 -->
<g id="node6" class="node"><title>Node6</title>
<g id="a_node6"><a xlink:href="classtomoBay_1_1view_1_1views_1_1OrderView.html" target="_top" xlink:title="Copyright(C) 2015 Jan P.C. ">
<polygon fill="white" stroke="black" points="451.5,-17 451.5,-74 513.5,-74 513.5,-17 451.5,-17"/>
<text text-anchor="middle" x="482.5" y="-62" font-family="Helvetica,sans-Serif" font-size="10.00">OrderView</text>
<polyline fill="none" stroke="black" points="451.5,-55 513.5,-55 "/>
<text text-anchor="middle" x="482.5" y="-43" font-family="Helvetica,sans-Serif" font-size="10.00"> </text>
<polyline fill="none" stroke="black" points="451.5,-36 513.5,-36 "/>
<text text-anchor="start" x="459.5" y="-24" font-family="Helvetica,sans-Serif" font-size="10.00">+ format()</text>
</a>
</g>
</g>
<!-- Node1&#45;&gt;Node6 -->
<g id="edge5" class="edge"><title>Node1&#45;&gt;Node6</title>
<path fill="none" stroke="midnightblue" d="M513.37,-117.764C507.167,-103.445 500.202,-87.3655 494.46,-74.1094"/>
<polygon fill="none" stroke="midnightblue" points="510.332,-119.555 517.518,-127.34 516.755,-116.773 510.332,-119.555"/>
</g>
<!-- Node7 -->
<g id="node7" class="node"><title>Node7</title>
<g id="a_node7"><a xlink:href="classtomoBay_1_1view_1_1views_1_1OutOfHoursView.html" target="_top" xlink:title="Copyright(C) 2015 Jan P.C. ">
<polygon fill="white" stroke="black" points="532,-11.5 532,-79.5 623,-79.5 623,-11.5 532,-11.5"/>
<text text-anchor="middle" x="577.5" y="-67.5" font-family="Helvetica,sans-Serif" font-size="10.00">OutOfHoursView</text>
<polyline fill="none" stroke="black" points="532,-60.5 623,-60.5 "/>
<text text-anchor="middle" x="577.5" y="-48.5" font-family="Helvetica,sans-Serif" font-size="10.00"> </text>
<polyline fill="none" stroke="black" points="532,-41.5 623,-41.5 "/>
<text text-anchor="start" x="540" y="-29.5" font-family="Helvetica,sans-Serif" font-size="10.00">+ format()</text>
<text text-anchor="start" x="540" y="-18.5" font-family="Helvetica,sans-Serif" font-size="10.00">&#45; replaceLast()</text>
</a>
</g>
</g>
<!-- Node1&#45;&gt;Node7 -->
<g id="edge6" class="edge"><title>Node1&#45;&gt;Node7</title>
<path fill="none" stroke="midnightblue" d="M545.827,-118.094C551.36,-105.586 557.502,-91.7041 562.893,-79.5186"/>
<polygon fill="none" stroke="midnightblue" points="542.582,-116.779 541.737,-127.34 548.983,-119.611 542.582,-116.779"/>
</g>
<!-- Node8 -->
<g id="node8" class="node"><title>Node8</title>
<g id="a_node8"><a xlink:href="classtomoBay_1_1view_1_1views_1_1RootView.html" target="_top" xlink:title="{RootView\n||+ format()\l}">
<polygon fill="white" stroke="black" points="641,-17 641,-74 700,-74 700,-17 641,-17"/>
<text text-anchor="middle" x="670.5" y="-62" font-family="Helvetica,sans-Serif" font-size="10.00">RootView</text>
<polyline fill="none" stroke="black" points="641,-55 700,-55 "/>
<text text-anchor="middle" x="670.5" y="-43" font-family="Helvetica,sans-Serif" font-size="10.00"> </text>
<polyline fill="none" stroke="black" points="641,-36 700,-36 "/>
<text text-anchor="start" x="649" y="-24" font-family="Helvetica,sans-Serif" font-size="10.00">+ format()</text>
</a>
</g>
</g>
<!-- Node1&#45;&gt;Node8 -->
<g id="edge7" class="edge"><title>Node1&#45;&gt;Node8</title>
<path fill="none" stroke="midnightblue" d="M575.981,-130.246C594.456,-119.38 615.349,-105.741 632.5,-91 638.355,-85.9672 644.083,-80.0006 649.243,-74.0983"/>
<polygon fill="none" stroke="midnightblue" points="574.046,-127.322 567.133,-135.351 577.544,-133.386 574.046,-127.322"/>
</g>
<!-- Node9 -->
<g id="node9" class="node"><title>Node9</title>
<g id="a_node9"><a xlink:href="classtomoBay_1_1view_1_1views_1_1SalesHistoryView.html" target="_top" xlink:title="Copyright(C) 2015 Jan P.C. ">
<polygon fill="white" stroke="black" points="718,-11.5 718,-79.5 813,-79.5 813,-11.5 718,-11.5"/>
<text text-anchor="middle" x="765.5" y="-67.5" font-family="Helvetica,sans-Serif" font-size="10.00">SalesHistoryView</text>
<polyline fill="none" stroke="black" points="718,-60.5 813,-60.5 "/>
<text text-anchor="middle" x="765.5" y="-48.5" font-family="Helvetica,sans-Serif" font-size="10.00"> </text>
<polyline fill="none" stroke="black" points="718,-41.5 813,-41.5 "/>
<text text-anchor="start" x="726" y="-29.5" font-family="Helvetica,sans-Serif" font-size="10.00">+ format()</text>
<text text-anchor="start" x="726" y="-18.5" font-family="Helvetica,sans-Serif" font-size="10.00">&#45; replaceLast()</text>
</a>
</g>
</g>
<!-- Node1&#45;&gt;Node9 -->
<g id="edge8" class="edge"><title>Node1&#45;&gt;Node9</title>
<path fill="none" stroke="midnightblue" d="M576.868,-142.809C614.266,-132.105 667.037,-114.56 709.5,-91 715.472,-87.6864 721.463,-83.7426 727.189,-79.5924"/>
<polygon fill="none" stroke="midnightblue" points="575.912,-139.443 567.229,-145.515 577.803,-146.182 575.912,-139.443"/>
</g>
<!-- Node10 -->
<g id="node10" class="node"><title>Node10</title>
<g id="a_node10"><a xlink:href="classtomoBay_1_1view_1_1views_1_1salesOrderView_1_1SalesOrderView.html" target="_top" xlink:title="This class is responsible for formatting the data passed to it by the SalesOrderPresenter and providi...">
<polygon fill="white" stroke="black" points="831.5,-0.5 831.5,-90.5 933.5,-90.5 933.5,-0.5 831.5,-0.5"/>
<text text-anchor="middle" x="882.5" y="-78.5" font-family="Helvetica,sans-Serif" font-size="10.00">SalesOrderView</text>
<polyline fill="none" stroke="black" points="831.5,-71.5 933.5,-71.5 "/>
<text text-anchor="middle" x="882.5" y="-59.5" font-family="Helvetica,sans-Serif" font-size="10.00"> </text>
<polyline fill="none" stroke="black" points="831.5,-52.5 933.5,-52.5 "/>
<text text-anchor="start" x="839.5" y="-40.5" font-family="Helvetica,sans-Serif" font-size="10.00">+ SalesOrderView()</text>
<text text-anchor="start" x="839.5" y="-29.5" font-family="Helvetica,sans-Serif" font-size="10.00">+ format()</text>
<text text-anchor="start" x="839.5" y="-18.5" font-family="Helvetica,sans-Serif" font-size="10.00">&#45; pickeability()</text>
<text text-anchor="start" x="839.5" y="-7.5" font-family="Helvetica,sans-Serif" font-size="10.00">&#45; replaceLast()</text>
</a>
</g>
</g>
<!-- Node1&#45;&gt;Node10 -->
<g id="edge9" class="edge"><title>Node1&#45;&gt;Node10</title>
<path fill="none" stroke="midnightblue" d="M577.424,-150.784C637.105,-144.151 741.116,-127.99 822.5,-91 825.452,-89.6584 828.399,-88.1545 831.315,-86.5327"/>
<polygon fill="none" stroke="midnightblue" points="576.74,-147.337 567.168,-151.878 577.482,-154.297 576.74,-147.337"/>
</g>
<!-- Node11 -->
<g id="node11" class="node"><title>Node11</title>
<g id="a_node11"><a xlink:href="classtomoBay_1_1view_1_1views_1_1WarehouseOrderView.html" target="_top" xlink:title="Copyright(C) 2015 Jan P.C. ">
<polygon fill="white" stroke="black" points="951.5,-17 951.5,-74 1063.5,-74 1063.5,-17 951.5,-17"/>
<text text-anchor="middle" x="1007.5" y="-62" font-family="Helvetica,sans-Serif" font-size="10.00">WarehouseOrderView</text>
<polyline fill="none" stroke="black" points="951.5,-55 1063.5,-55 "/>
<text text-anchor="middle" x="1007.5" y="-43" font-family="Helvetica,sans-Serif" font-size="10.00"> </text>
<polyline fill="none" stroke="black" points="951.5,-36 1063.5,-36 "/>
<text text-anchor="start" x="959.5" y="-24" font-family="Helvetica,sans-Serif" font-size="10.00">+ format()</text>
</a>
</g>
</g>
<!-- Node1&#45;&gt;Node11 -->
<g id="edge10" class="edge"><title>Node1&#45;&gt;Node11</title>
<path fill="none" stroke="midnightblue" d="M577.228,-154.402C656.027,-151.945 817.088,-140.66 942.5,-91 953.181,-86.7706 963.851,-80.5256 973.367,-74.0431"/>
<polygon fill="none" stroke="midnightblue" points="577.022,-150.907 567.123,-154.683 577.216,-157.904 577.022,-150.907"/>
</g>
</g>
</svg>
        <g id="navigator" transform="translate(0 0)" fill="#404254">
                <rect fill="#f2f5e9" fill-opacity="0.5" stroke="#606060" stroke-width=".5" x="0" y="0" width="60" height="60"/>
                <use id="zoomplus" xlink:href="#zoomPlus" x="17" y="9" onmousedown="handleZoom(evt,'in')"/>
                <use id="zoomminus" xlink:href="#zoomMin" x="42" y="9" onmousedown="handleZoom(evt,'out')"/>
                <use id="reset" xlink:href="#resetDef" x="30" y="36" onmousedown="handleReset()"/>
                <g id="arrowUp" xlink:href="#dirArrow" transform="translate(30 24)" onmousedown="handlePan(0,-1)">
                  <use xlink:href="#rim" fill="#404040">
                        <set attributeName="fill" to="#808080" begin="arrowUp.mouseover" end="arrowUp.mouseout"/>
                  </use>
                  <path fill="none" stroke="white" stroke-width="1.5" d="M0,-3.0v7 M-2.5,-0.5L0,-3.0L2.5,-0.5"/>
                </g>
                <g id="arrowRight" xlink:href="#dirArrow" transform="rotate(90) translate(36 -43)" onmousedown="handlePan(1,0)">
                  <use xlink:href="#rim" fill="#404040">
                        <set attributeName="fill" to="#808080" begin="arrowRight.mouseover" end="arrowRight.mouseout"/>
                  </use>
                  <path fill="none" stroke="white" stroke-width="1.5" d="M0,-3.0v7 M-2.5,-0.5L0,-3.0L2.5,-0.5"/>
                </g>
                <g id="arrowDown" xlink:href="#dirArrow" transform="rotate(180) translate(-30 -48)" onmousedown="handlePan(0,1)">
                  <use xlink:href="#rim" fill="#404040">
                        <set attributeName="fill" to="#808080" begin="arrowDown.mouseover" end="arrowDown.mouseout"/>
                  </use>
                  <path fill="none" stroke="white" stroke-width="1.5" d="M0,-3.0v7 M-2.5,-0.5L0,-3.0L2.5,-0.5"/>
                </g>
                <g id="arrowLeft" xlink:href="#dirArrow" transform="rotate(270) translate(-36 17)" onmousedown="handlePan(-1,0)">
                  <use xlink:href="#rim" fill="#404040">
                        <set attributeName="fill" to="#808080" begin="arrowLeft.mouseover" end="arrowLeft.mouseout"/>
                  </use>
                  <path fill="none" stroke="white" stroke-width="1.5" d="M0,-3.0v7 M-2.5,-0.5L0,-3.0L2.5,-0.5"/>
                </g>
        </g>
        <svg viewBox="0 0 15 15" width="100%" height="30px" preserveAspectRatio="xMaxYMin meet">
         <g id="arrow_out" transform="scale(0.3 0.3)">
          <a xlink:href="interfacetomoBay_1_1view_1_1AbstractView__inherit__graph_org.svg" target="_base">
           <rect id="button" ry="5" rx="5" y="6" x="6" height="38" width="38"
                fill="#f2f5e9" fill-opacity="0.5" stroke="#606060" stroke-width="1.0"/>
           <path id="arrow"
             d="M 11.500037,31.436501 C 11.940474,20.09759 22.043105,11.32322 32.158766,21.979434 L 37.068811,17.246167 C 37.068811,17.246167 37.088388,32 37.088388,32 L 22.160133,31.978069 C 22.160133,31.978069 26.997745,27.140456 26.997745,27.140456 C 18.528582,18.264221 13.291696,25.230495 11.500037,31.436501 z"
             style="fill:#404040;"/>
          </a>
         </g>
        </svg>
</svg>
