<?xml version="1.0" encoding="UTF-8" standalone="no"?>
<!DOCTYPE svg PUBLIC "-//W3C//DTD SVG 1.1//EN"
 "http://www.w3.org/Graphics/SVG/1.1/DTD/svg11.dtd">
<!-- Generated by graphviz version 2.38.0 (20140413.2041)
 -->
<!-- Title: AbstractConfiguration&lt; T &gt; Pages: 1 -->
<svg width="597pt" height="204pt"
 viewBox="0.00 0.00 597.00 204.00" xmlns="http://www.w3.org/2000/svg" xmlns:xlink="http://www.w3.org/1999/xlink">
<g id="graph0" class="graph" transform="scale(1 1) rotate(0) translate(4 200)">
<title>AbstractConfiguration&lt; T &gt;</title>
<polygon fill="white" stroke="none" points="-4,4 -4,-200 593,-200 593,4 -4,4"/>
<!-- Node1 -->
<g id="node1" class="node"><title>Node1</title>
<polygon fill="#bfbfbf" stroke="black" points="214,-127.5 214,-195.5 349,-195.5 349,-127.5 214,-127.5"/>
<text text-anchor="middle" x="281.5" y="-183.5" font-family="Helvetica,sans-Serif" font-size="10.00">AbstractConfiguration&lt; T &gt;</text>
<polyline fill="none" stroke="black" points="214,-176.5 349,-176.5 "/>
<text text-anchor="middle" x="281.5" y="-164.5" font-family="Helvetica,sans-Serif" font-size="10.00"> </text>
<polyline fill="none" stroke="black" points="214,-157.5 349,-157.5 "/>
<text text-anchor="start" x="222" y="-145.5" font-family="Helvetica,sans-Serif" font-size="10.00">+ configure()</text>
<text text-anchor="start" x="222" y="-134.5" font-family="Helvetica,sans-Serif" font-size="10.00">+ configure()</text>
</g>
<!-- Node2 -->
<g id="node2" class="node"><title>Node2</title>
<g id="a_node2"><a xlink:href="classtomoBay_1_1model_1_1services_1_1emailErrorsService_1_1EmailErrorsConfig.html" target="_top" xlink:title="Copyright(C) 2015 Jan P.C. ">
<polygon fill="white" stroke="black" points="0,-0.5 0,-90.5 111,-90.5 111,-0.5 0,-0.5"/>
<text text-anchor="start" x="8" y="-78.5" font-family="Helvetica,sans-Serif" font-size="10.00">EmailErrorsConfig&lt;</text>
<text text-anchor="middle" x="55.5" y="-67.5" font-family="Helvetica,sans-Serif" font-size="10.00"> String &gt;</text>
<polyline fill="none" stroke="black" points="0,-60.5 111,-60.5 "/>
<text text-anchor="start" x="8" y="-48.5" font-family="Helvetica,sans-Serif" font-size="10.00">&#45; EmailConfigData_M</text>
<polyline fill="none" stroke="black" points="0,-41.5 111,-41.5 "/>
<text text-anchor="start" x="8" y="-29.5" font-family="Helvetica,sans-Serif" font-size="10.00">+ EmailErrorsConfig()</text>
<text text-anchor="start" x="8" y="-18.5" font-family="Helvetica,sans-Serif" font-size="10.00">+ configure()</text>
<text text-anchor="start" x="8" y="-7.5" font-family="Helvetica,sans-Serif" font-size="10.00">+ configure()</text>
</a>
</g>
</g>
<!-- Node1&#45;&gt;Node2 -->
<g id="edge1" class="edge"><title>Node1&#45;&gt;Node2</title>
<path fill="none" stroke="midnightblue" d="M204.495,-130.817C177.401,-119.449 147.091,-105.662 120.5,-91 117.386,-89.2831 114.235,-87.4559 111.085,-85.5585"/>
<polygon fill="none" stroke="midnightblue" points="203.356,-134.134 213.934,-134.735 206.039,-127.669 203.356,-134.134"/>
</g>
<!-- Node3 -->
<g id="node3" class="node"><title>Node3</title>
<g id="a_node3"><a xlink:href="classtomoBay_1_1model_1_1services_1_1individualItemRefreshService_1_1IndividualItemRefreshConfig.html" target="_top" xlink:title="This class defines an object that is passed to the IndividualItemRefreshService setConfig method...">
<polygon fill="white" stroke="black" points="129.5,-6 129.5,-85 269.5,-85 269.5,-6 129.5,-6"/>
<text text-anchor="start" x="137.5" y="-73" font-family="Helvetica,sans-Serif" font-size="10.00">IndividualItemRefreshConfig</text>
<text text-anchor="middle" x="199.5" y="-62" font-family="Helvetica,sans-Serif" font-size="10.00">&lt; Long &gt;</text>
<polyline fill="none" stroke="black" points="129.5,-55 269.5,-55 "/>
<text text-anchor="start" x="137.5" y="-43" font-family="Helvetica,sans-Serif" font-size="10.00">&#45; listingID_M</text>
<polyline fill="none" stroke="black" points="129.5,-36 269.5,-36 "/>
<text text-anchor="start" x="137.5" y="-24" font-family="Helvetica,sans-Serif" font-size="10.00">+ configure()</text>
<text text-anchor="start" x="137.5" y="-13" font-family="Helvetica,sans-Serif" font-size="10.00">+ configure()</text>
</a>
</g>
</g>
<!-- Node1&#45;&gt;Node3 -->
<g id="edge2" class="edge"><title>Node1&#45;&gt;Node3</title>
<path fill="none" stroke="midnightblue" d="M251.64,-118.987C243.714,-107.968 235.188,-96.1143 227.372,-85.2493"/>
<polygon fill="none" stroke="midnightblue" points="248.881,-121.146 257.562,-127.22 254.564,-117.058 248.881,-121.146"/>
</g>
<!-- Node4 -->
<g id="node4" class="node"><title>Node4</title>
<g id="a_node4"><a xlink:href="classtomoBay_1_1model_1_1services_1_1reScanBuyerService_1_1ReScanBuyerServiceConfig.html" target="_top" xlink:title="Copyright(C) 2015 Jan P.C. ">
<polygon fill="white" stroke="black" points="287.5,-0.5 287.5,-90.5 441.5,-90.5 441.5,-0.5 287.5,-0.5"/>
<text text-anchor="start" x="295.5" y="-78.5" font-family="Helvetica,sans-Serif" font-size="10.00">ReScanBuyerServiceConfig</text>
<text text-anchor="middle" x="364.5" y="-67.5" font-family="Helvetica,sans-Serif" font-size="10.00">&lt; String &gt;</text>
<polyline fill="none" stroke="black" points="287.5,-60.5 441.5,-60.5 "/>
<text text-anchor="start" x="295.5" y="-48.5" font-family="Helvetica,sans-Serif" font-size="10.00">&#45; buyerID_M</text>
<polyline fill="none" stroke="black" points="287.5,-41.5 441.5,-41.5 "/>
<text text-anchor="start" x="295.5" y="-29.5" font-family="Helvetica,sans-Serif" font-size="10.00">+ ReScanBuyerServiceConfig()</text>
<text text-anchor="start" x="295.5" y="-18.5" font-family="Helvetica,sans-Serif" font-size="10.00">+ configure()</text>
<text text-anchor="start" x="295.5" y="-7.5" font-family="Helvetica,sans-Serif" font-size="10.00">+ configure()</text>
</a>
</g>
</g>
<!-- Node1&#45;&gt;Node4 -->
<g id="edge3" class="edge"><title>Node1&#45;&gt;Node4</title>
<path fill="none" stroke="midnightblue" d="M311.748,-118.955C318.455,-109.743 325.585,-99.9489 332.365,-90.6378"/>
<polygon fill="none" stroke="midnightblue" points="308.787,-117.076 305.73,-127.22 314.446,-121.196 308.787,-117.076"/>
</g>
<!-- Node5 -->
<g id="node5" class="node"><title>Node5</title>
<g id="a_node5"><a xlink:href="classtomoBay_1_1model_1_1services_1_1updateOrderStatusService_1_1UpdateOrderStatusConfig.html" target="_top" xlink:title="configuration object for the UpdateOrderStatusService, carries OrderStatus (enum) information ...">
<polygon fill="white" stroke="black" points="460,-6 460,-85 589,-85 589,-6 460,-6"/>
<text text-anchor="start" x="468" y="-73" font-family="Helvetica,sans-Serif" font-size="10.00">UpdateOrderStatusConfig</text>
<text text-anchor="middle" x="524.5" y="-62" font-family="Helvetica,sans-Serif" font-size="10.00">&lt; OrderStatus &gt;</text>
<polyline fill="none" stroke="black" points="460,-55 589,-55 "/>
<text text-anchor="start" x="468" y="-43" font-family="Helvetica,sans-Serif" font-size="10.00">&#45; status_M</text>
<polyline fill="none" stroke="black" points="460,-36 589,-36 "/>
<text text-anchor="start" x="468" y="-24" font-family="Helvetica,sans-Serif" font-size="10.00">+ configure()</text>
<text text-anchor="start" x="468" y="-13" font-family="Helvetica,sans-Serif" font-size="10.00">+ configure()</text>
</a>
</g>
</g>
<!-- Node1&#45;&gt;Node5 -->
<g id="edge4" class="edge"><title>Node1&#45;&gt;Node5</title>
<path fill="none" stroke="midnightblue" d="M358.505,-131.685C387.751,-120.004 421.087,-105.785 450.5,-91 454.25,-89.1148 458.066,-87.1096 461.887,-85.0332"/>
<polygon fill="none" stroke="midnightblue" points="357.171,-128.449 349.163,-135.386 359.749,-134.957 357.171,-128.449"/>
</g>
</g>
</svg>
