<?xml version="1.0" encoding="UTF-8" standalone="no"?>
<!DOCTYPE svg PUBLIC "-//W3C//DTD SVG 1.1//EN"
 "http://www.w3.org/Graphics/SVG/1.1/DTD/svg11.dtd">
<!-- Generated by graphviz version 2.38.0 (20140413.2041)
 -->
<!-- Title: AbstractModifyQueryParamsFactory Pages: 1 -->
<!--zoomable 392 -->
<svg id="main" version="1.1" xmlns="http://www.w3.org/2000/svg" xmlns:xlink="http://www.w3.org/1999/xlink" xml:space="preserve" onload="init(evt)">
<style type="text/css"><![CDATA[
.edge:hover path { stroke: red; }
.edge:hover polygon { stroke: red; fill: red; }
]]></style>
<script type="text/javascript"><![CDATA[
var edges = document.getElementsByTagName('g');
if (edges && edges.length) {
  for (var i=0;i<edges.length;i++) {
    if (edges[i].id.substr(0,4)=='edge') {
      edges[i].setAttribute('class','edge');
    }
  }
}
]]></script>
        <defs>
                <circle id="rim" cx="0" cy="0" r="7"/>
                <circle id="rim2" cx="0" cy="0" r="3.5"/>
                <g id="zoomPlus">
                        <use xlink:href="#rim" fill="#404040">
                                <set attributeName="fill" to="#808080" begin="zoomplus.mouseover" end="zoomplus.mouseout"/>
                        </use>
                        <path d="M-4,0h8M0,-4v8" fill="none" stroke="white" stroke-width="1.5" pointer-events="none"/>
                </g>
                <g id="zoomMin">
                        <use xlink:href="#rim" fill="#404040">
                                <set attributeName="fill" to="#808080" begin="zoomminus.mouseover" end="zoomminus.mouseout"/>
                        </use>
                        <path d="M-4,0h8" fill="none" stroke="white" stroke-width="1.5" pointer-events="none"/>
                </g>
                <g id="dirArrow">
                        <path fill="none" stroke="white" stroke-width="1.5" d="M0,-3.0v7 M-2.5,-0.5L0,-3.0L2.5,-0.5"/>
                </g>
               <g id="resetDef">
                       <use xlink:href="#rim2" fill="#404040">
                               <set attributeName="fill" to="#808080" begin="reset.mouseover" end="reset.mouseout"/>
                       </use>
               </g>
        </defs>

<script type="text/javascript">
var viewWidth = 2118;
var viewHeight = 392;
var sectionId = 'dynsection-0';
</script>
<script xlink:href="svgpan.js"/>
<svg id="graph" class="graph">
<g id="viewport">
<title>AbstractModifyQueryParamsFactory</title>
<polygon fill="white" stroke="none" points="-4,4 -4,-388 2114,-388 2114,4 -4,4"/>
<!-- Node1 -->
<g id="node1" class="node"><title>Node1</title>
<polygon fill="#bfbfbf" stroke="black" points="978,-127.5 978,-195.5 1121,-195.5 1121,-127.5 978,-127.5"/>
<text text-anchor="start" x="986" y="-183.5" font-family="Helvetica,sans-Serif" font-size="10.00">AbstractModifyQueryParams</text>
<text text-anchor="middle" x="1049.5" y="-172.5" font-family="Helvetica,sans-Serif" font-size="10.00">Factory</text>
<polyline fill="none" stroke="black" points="978,-165.5 1121,-165.5 "/>
<text text-anchor="middle" x="1049.5" y="-153.5" font-family="Helvetica,sans-Serif" font-size="10.00"> </text>
<polyline fill="none" stroke="black" points="978,-146.5 1121,-146.5 "/>
<text text-anchor="start" x="986" y="-134.5" font-family="Helvetica,sans-Serif" font-size="10.00">+ make()</text>
</g>
<!-- Node4 -->
<g id="node4" class="node"><title>Node4</title>
<g id="a_node4"><a xlink:href="classtomoBay_1_1model_1_1sql_1_1queries_1_1factories_1_1delete_1_1DeleteOrderFromOrderStatusFactory.html" target="_top" xlink:title="factory that makes a DeleteOrderFromOrderStatus object. ">
<polygon fill="white" stroke="black" points="0,-0.5 0,-90.5 153,-90.5 153,-0.5 0,-0.5"/>
<text text-anchor="start" x="8" y="-78.5" font-family="Helvetica,sans-Serif" font-size="10.00">DeleteOrderFromOrderStatus</text>
<text text-anchor="middle" x="76.5" y="-67.5" font-family="Helvetica,sans-Serif" font-size="10.00">Factory</text>
<polyline fill="none" stroke="black" points="0,-60.5 153,-60.5 "/>
<text text-anchor="middle" x="76.5" y="-48.5" font-family="Helvetica,sans-Serif" font-size="10.00"> </text>
<polyline fill="none" stroke="black" points="0,-41.5 153,-41.5 "/>
<text text-anchor="start" x="8" y="-29.5" font-family="Helvetica,sans-Serif" font-size="10.00">+ DeleteOrderFromOrderStatus</text>
<text text-anchor="start" x="8" y="-18.5" font-family="Helvetica,sans-Serif" font-size="10.00">Factory()</text>
<text text-anchor="start" x="8" y="-7.5" font-family="Helvetica,sans-Serif" font-size="10.00">+ make()</text>
</a>
</g>
</g>
<!-- Node1&#45;&gt;Node4 -->
<g id="edge3" class="edge"><title>Node1&#45;&gt;Node4</title>
<path fill="none" stroke="midnightblue" d="M967.763,-158.296C777.858,-152.5 311.618,-134.2 161.5,-91 158.779,-90.2169 156.044,-89.3416 153.31,-88.3897"/>
<polygon fill="none" stroke="midnightblue" points="967.86,-161.8 977.96,-158.603 968.07,-154.803 967.86,-161.8"/>
</g>
<!-- Node5 -->
<g id="node5" class="node"><title>Node5</title>
<g id="a_node5"><a xlink:href="classtomoBay_1_1model_1_1sql_1_1queries_1_1factories_1_1insert_1_1InsertEbayBuyersFactory.html" target="_top" xlink:title="Creates an InsertEbayBuyers query object. ">
<polygon fill="white" stroke="black" points="171,-11.5 171,-79.5 314,-79.5 314,-11.5 171,-11.5"/>
<text text-anchor="middle" x="242.5" y="-67.5" font-family="Helvetica,sans-Serif" font-size="10.00">InsertEbayBuyersFactory</text>
<polyline fill="none" stroke="black" points="171,-60.5 314,-60.5 "/>
<text text-anchor="middle" x="242.5" y="-48.5" font-family="Helvetica,sans-Serif" font-size="10.00"> </text>
<polyline fill="none" stroke="black" points="171,-41.5 314,-41.5 "/>
<text text-anchor="start" x="179" y="-29.5" font-family="Helvetica,sans-Serif" font-size="10.00">+ InsertEbayBuyersFactory()</text>
<text text-anchor="start" x="179" y="-18.5" font-family="Helvetica,sans-Serif" font-size="10.00">+ make()</text>
</a>
</g>
</g>
<!-- Node1&#45;&gt;Node5 -->
<g id="edge4" class="edge"><title>Node1&#45;&gt;Node5</title>
<path fill="none" stroke="midnightblue" d="M967.712,-156.904C803.896,-149.012 441.09,-127.875 322.5,-91 313.242,-88.1214 303.855,-84.088 294.924,-79.6136"/>
<polygon fill="none" stroke="midnightblue" points="967.581,-160.402 977.736,-157.382 967.914,-153.41 967.581,-160.402"/>
</g>
<!-- Node6 -->
<g id="node6" class="node"><title>Node6</title>
<g id="a_node6"><a xlink:href="classtomoBay_1_1model_1_1sql_1_1queries_1_1factories_1_1insert_1_1InsertEbayItemsFactory.html" target="_top" xlink:title="creates an InsertEbayItems query object ">
<polygon fill="white" stroke="black" points="332,-11.5 332,-79.5 469,-79.5 469,-11.5 332,-11.5"/>
<text text-anchor="middle" x="400.5" y="-67.5" font-family="Helvetica,sans-Serif" font-size="10.00">InsertEbayItemsFactory</text>
<polyline fill="none" stroke="black" points="332,-60.5 469,-60.5 "/>
<text text-anchor="middle" x="400.5" y="-48.5" font-family="Helvetica,sans-Serif" font-size="10.00"> </text>
<polyline fill="none" stroke="black" points="332,-41.5 469,-41.5 "/>
<text text-anchor="start" x="340" y="-29.5" font-family="Helvetica,sans-Serif" font-size="10.00">+ InsertEbayItemsFactory()</text>
<text text-anchor="start" x="340" y="-18.5" font-family="Helvetica,sans-Serif" font-size="10.00">+ make()</text>
</a>
</g>
</g>
<!-- Node1&#45;&gt;Node6 -->
<g id="edge5" class="edge"><title>Node1&#45;&gt;Node6</title>
<path fill="none" stroke="midnightblue" d="M967.635,-160.76C854.53,-158.853 645.413,-147.105 477.5,-91 468.714,-88.0642 459.816,-84.06 451.342,-79.6497"/>
<polygon fill="none" stroke="midnightblue" points="967.892,-164.264 977.943,-160.91 967.995,-157.264 967.892,-164.264"/>
</g>
<!-- Node7 -->
<g id="node7" class="node"><title>Node7</title>
<g id="a_node7"><a xlink:href="classtomoBay_1_1model_1_1sql_1_1queries_1_1factories_1_1insert_1_1InsertEbayOrdersFactory.html" target="_top" xlink:title="creates an InsertEbayOrders query object ">
<polygon fill="white" stroke="black" points="487,-11.5 487,-79.5 628,-79.5 628,-11.5 487,-11.5"/>
<text text-anchor="middle" x="557.5" y="-67.5" font-family="Helvetica,sans-Serif" font-size="10.00">InsertEbayOrdersFactory</text>
<polyline fill="none" stroke="black" points="487,-60.5 628,-60.5 "/>
<text text-anchor="middle" x="557.5" y="-48.5" font-family="Helvetica,sans-Serif" font-size="10.00"> </text>
<polyline fill="none" stroke="black" points="487,-41.5 628,-41.5 "/>
<text text-anchor="start" x="495" y="-29.5" font-family="Helvetica,sans-Serif" font-size="10.00">+ InsertEbayOrdersFactory()</text>
<text text-anchor="start" x="495" y="-18.5" font-family="Helvetica,sans-Serif" font-size="10.00">+ make()</text>
</a>
</g>
</g>
<!-- Node1&#45;&gt;Node7 -->
<g id="edge6" class="edge"><title>Node1&#45;&gt;Node7</title>
<path fill="none" stroke="midnightblue" d="M967.617,-154.924C882.978,-147.275 748.003,-129.762 637.5,-91 628.802,-87.9488 619.938,-83.9959 611.431,-79.7066"/>
<polygon fill="none" stroke="midnightblue" points="967.416,-158.42 977.684,-155.808 968.029,-151.446 967.416,-158.42"/>
</g>
<!-- Node8 -->
<g id="node8" class="node"><title>Node8</title>
<g id="a_node8"><a xlink:href="classtomoBay_1_1model_1_1sql_1_1queries_1_1factories_1_1insert_1_1InsertEbayTransactionsFactory.html" target="_top" xlink:title="creates an InsertEbayTransactions query object ">
<polygon fill="white" stroke="black" points="646.5,-11.5 646.5,-79.5 814.5,-79.5 814.5,-11.5 646.5,-11.5"/>
<text text-anchor="middle" x="730.5" y="-67.5" font-family="Helvetica,sans-Serif" font-size="10.00">InsertEbayTransactionsFactory</text>
<polyline fill="none" stroke="black" points="646.5,-60.5 814.5,-60.5 "/>
<text text-anchor="middle" x="730.5" y="-48.5" font-family="Helvetica,sans-Serif" font-size="10.00"> </text>
<polyline fill="none" stroke="black" points="646.5,-41.5 814.5,-41.5 "/>
<text text-anchor="start" x="654.5" y="-29.5" font-family="Helvetica,sans-Serif" font-size="10.00">+ InsertEbayTransactionsFactory()</text>
<text text-anchor="start" x="654.5" y="-18.5" font-family="Helvetica,sans-Serif" font-size="10.00">+ make()</text>
</a>
</g>
</g>
<!-- Node1&#45;&gt;Node8 -->
<g id="edge7" class="edge"><title>Node1&#45;&gt;Node8</title>
<path fill="none" stroke="midnightblue" d="M968.16,-138.643C924.702,-126.179 870.602,-109.395 823.5,-91 814.663,-87.549 805.5,-83.6196 796.523,-79.5578"/>
<polygon fill="none" stroke="midnightblue" points="967.254,-142.024 977.83,-141.396 969.17,-135.292 967.254,-142.024"/>
</g>
<!-- Node9 -->
<g id="node9" class="node"><title>Node9</title>
<g id="a_node9"><a xlink:href="classtomoBay_1_1model_1_1sql_1_1queries_1_1factories_1_1insert_1_1InsertOrderInOrderStatusFactory.html" target="_top" xlink:title="{InsertOrderInOrderStatus\lFactory\n||+ InsertOrderInOrderStatus\lFactory()\l+ make()\l}">
<polygon fill="white" stroke="black" points="833,-0.5 833,-90.5 968,-90.5 968,-0.5 833,-0.5"/>
<text text-anchor="start" x="841" y="-78.5" font-family="Helvetica,sans-Serif" font-size="10.00">InsertOrderInOrderStatus</text>
<text text-anchor="middle" x="900.5" y="-67.5" font-family="Helvetica,sans-Serif" font-size="10.00">Factory</text>
<polyline fill="none" stroke="black" points="833,-60.5 968,-60.5 "/>
<text text-anchor="middle" x="900.5" y="-48.5" font-family="Helvetica,sans-Serif" font-size="10.00"> </text>
<polyline fill="none" stroke="black" points="833,-41.5 968,-41.5 "/>
<text text-anchor="start" x="841" y="-29.5" font-family="Helvetica,sans-Serif" font-size="10.00">+ InsertOrderInOrderStatus</text>
<text text-anchor="start" x="841" y="-18.5" font-family="Helvetica,sans-Serif" font-size="10.00">Factory()</text>
<text text-anchor="start" x="841" y="-7.5" font-family="Helvetica,sans-Serif" font-size="10.00">+ make()</text>
</a>
</g>
</g>
<!-- Node1&#45;&gt;Node9 -->
<g id="edge8" class="edge"><title>Node1&#45;&gt;Node9</title>
<path fill="none" stroke="midnightblue" d="M997.767,-120.919C984.992,-111.145 971.228,-100.614 958.189,-90.6378"/>
<polygon fill="none" stroke="midnightblue" points="995.934,-123.923 1006,-127.22 1000.19,-118.364 995.934,-123.923"/>
</g>
<!-- Node10 -->
<g id="node10" class="node"><title>Node10</title>
<g id="a_node10"><a xlink:href="classtomoBay_1_1model_1_1sql_1_1queries_1_1factories_1_1insert_1_1InsertOutOfHoursFactory.html" target="_top" xlink:title="{InsertOutOfHoursFactory\n||+ make()\l}">
<polygon fill="white" stroke="black" points="986,-17 986,-74 1113,-74 1113,-17 986,-17"/>
<text text-anchor="middle" x="1049.5" y="-62" font-family="Helvetica,sans-Serif" font-size="10.00">InsertOutOfHoursFactory</text>
<polyline fill="none" stroke="black" points="986,-55 1113,-55 "/>
<text text-anchor="middle" x="1049.5" y="-43" font-family="Helvetica,sans-Serif" font-size="10.00"> </text>
<polyline fill="none" stroke="black" points="986,-36 1113,-36 "/>
<text text-anchor="start" x="994" y="-24" font-family="Helvetica,sans-Serif" font-size="10.00">+ make()</text>
</a>
</g>
</g>
<!-- Node1&#45;&gt;Node10 -->
<g id="edge9" class="edge"><title>Node1&#45;&gt;Node10</title>
<path fill="none" stroke="midnightblue" d="M1049.5,-117.034C1049.5,-102.673 1049.5,-87.0958 1049.5,-74.2418"/>
<polygon fill="none" stroke="midnightblue" points="1046,-117.22 1049.5,-127.22 1053,-117.22 1046,-117.22"/>
</g>
<!-- Node11 -->
<g id="node11" class="node"><title>Node11</title>
<g id="a_node11"><a xlink:href="classtomoBay_1_1model_1_1sql_1_1queries_1_1factories_1_1update_1_1UpdateEbayBuyerFactory.html" target="_top" xlink:title="{UpdateEbayBuyerFactory\n||+ UpdateEbayBuyerFactory()\l+ make()\l}">
<polygon fill="white" stroke="black" points="1131.5,-11.5 1131.5,-79.5 1275.5,-79.5 1275.5,-11.5 1131.5,-11.5"/>
<text text-anchor="middle" x="1203.5" y="-67.5" font-family="Helvetica,sans-Serif" font-size="10.00">UpdateEbayBuyerFactory</text>
<polyline fill="none" stroke="black" points="1131.5,-60.5 1275.5,-60.5 "/>
<text text-anchor="middle" x="1203.5" y="-48.5" font-family="Helvetica,sans-Serif" font-size="10.00"> </text>
<polyline fill="none" stroke="black" points="1131.5,-41.5 1275.5,-41.5 "/>
<text text-anchor="start" x="1139.5" y="-29.5" font-family="Helvetica,sans-Serif" font-size="10.00">+ UpdateEbayBuyerFactory()</text>
<text text-anchor="start" x="1139.5" y="-18.5" font-family="Helvetica,sans-Serif" font-size="10.00">+ make()</text>
</a>
</g>
</g>
<!-- Node1&#45;&gt;Node11 -->
<g id="edge10" class="edge"><title>Node1&#45;&gt;Node11</title>
<path fill="none" stroke="midnightblue" d="M1102.7,-121.121C1120.97,-107.596 1141.22,-92.6023 1158.75,-79.6243"/>
<polygon fill="none" stroke="midnightblue" points="1100.41,-118.457 1094.46,-127.22 1104.58,-124.083 1100.41,-118.457"/>
</g>
<!-- Node12 -->
<g id="node12" class="node"><title>Node12</title>
<g id="a_node12"><a xlink:href="classtomoBay_1_1model_1_1sql_1_1queries_1_1factories_1_1update_1_1UpdateInvoiceStatusFactory.html" target="_top" xlink:title="Creates an UpdateInvoiceStatus query object. ">
<polygon fill="white" stroke="black" points="1293.5,-11.5 1293.5,-79.5 1449.5,-79.5 1449.5,-11.5 1293.5,-11.5"/>
<text text-anchor="middle" x="1371.5" y="-67.5" font-family="Helvetica,sans-Serif" font-size="10.00">UpdateInvoiceStatusFactory</text>
<polyline fill="none" stroke="black" points="1293.5,-60.5 1449.5,-60.5 "/>
<text text-anchor="middle" x="1371.5" y="-48.5" font-family="Helvetica,sans-Serif" font-size="10.00"> </text>
<polyline fill="none" stroke="black" points="1293.5,-41.5 1449.5,-41.5 "/>
<text text-anchor="start" x="1301.5" y="-29.5" font-family="Helvetica,sans-Serif" font-size="10.00">+ UpdateInvoiceStatusFactory()</text>
<text text-anchor="start" x="1301.5" y="-18.5" font-family="Helvetica,sans-Serif" font-size="10.00">+ make()</text>
</a>
</g>
</g>
<!-- Node1&#45;&gt;Node12 -->
<g id="edge11" class="edge"><title>Node1&#45;&gt;Node12</title>
<path fill="none" stroke="midnightblue" d="M1130.98,-140.394C1176.8,-128.104 1234.63,-110.93 1284.5,-91 1293.01,-87.6004 1301.8,-83.655 1310.37,-79.5453"/>
<polygon fill="none" stroke="midnightblue" points="1129.87,-137.07 1121.1,-143.02 1131.67,-143.835 1129.87,-137.07"/>
</g>
<!-- Node13 -->
<g id="node13" class="node"><title>Node13</title>
<g id="a_node13"><a xlink:href="classtomoBay_1_1model_1_1sql_1_1queries_1_1factories_1_1update_1_1UpdateInvoiceStatusSRNFactory.html" target="_top" xlink:title="{UpdateInvoiceStatusSRNFactory\n||+ make()\l}">
<polygon fill="white" stroke="black" points="1468,-17 1468,-74 1631,-74 1631,-17 1468,-17"/>
<text text-anchor="middle" x="1549.5" y="-62" font-family="Helvetica,sans-Serif" font-size="10.00">UpdateInvoiceStatusSRNFactory</text>
<polyline fill="none" stroke="black" points="1468,-55 1631,-55 "/>
<text text-anchor="middle" x="1549.5" y="-43" font-family="Helvetica,sans-Serif" font-size="10.00"> </text>
<polyline fill="none" stroke="black" points="1468,-36 1631,-36 "/>
<text text-anchor="start" x="1476" y="-24" font-family="Helvetica,sans-Serif" font-size="10.00">+ make()</text>
</a>
</g>
</g>
<!-- Node1&#45;&gt;Node13 -->
<g id="edge12" class="edge"><title>Node1&#45;&gt;Node13</title>
<path fill="none" stroke="midnightblue" d="M1131.14,-153.57C1214.88,-144.862 1348.15,-126.538 1458.5,-91 1472.23,-86.5793 1486.5,-80.4248 1499.55,-74.101"/>
<polygon fill="none" stroke="midnightblue" points="1130.77,-150.089 1121.17,-154.584 1131.48,-157.053 1130.77,-150.089"/>
</g>
<!-- Node14 -->
<g id="node14" class="node"><title>Node14</title>
<g id="a_node14"><a xlink:href="classtomoBay_1_1model_1_1sql_1_1queries_1_1factories_1_1update_1_1UpdateItemBrandAndPartNoFactory.html" target="_top" xlink:title="create an UpdateItemBrandAndPartNo query object ">
<polygon fill="white" stroke="black" points="1649.5,-0.5 1649.5,-90.5 1799.5,-90.5 1799.5,-0.5 1649.5,-0.5"/>
<text text-anchor="start" x="1657.5" y="-78.5" font-family="Helvetica,sans-Serif" font-size="10.00">UpdateItemBrandAndPartNo</text>
<text text-anchor="middle" x="1724.5" y="-67.5" font-family="Helvetica,sans-Serif" font-size="10.00">Factory</text>
<polyline fill="none" stroke="black" points="1649.5,-60.5 1799.5,-60.5 "/>
<text text-anchor="middle" x="1724.5" y="-48.5" font-family="Helvetica,sans-Serif" font-size="10.00"> </text>
<polyline fill="none" stroke="black" points="1649.5,-41.5 1799.5,-41.5 "/>
<text text-anchor="start" x="1657.5" y="-29.5" font-family="Helvetica,sans-Serif" font-size="10.00">+ UpdateItemBrandAndPartNo</text>
<text text-anchor="start" x="1657.5" y="-18.5" font-family="Helvetica,sans-Serif" font-size="10.00">Factory()</text>
<text text-anchor="start" x="1657.5" y="-7.5" font-family="Helvetica,sans-Serif" font-size="10.00">+ make()</text>
</a>
</g>
</g>
<!-- Node1&#45;&gt;Node14 -->
<g id="edge13" class="edge"><title>Node1&#45;&gt;Node14</title>
<path fill="none" stroke="midnightblue" d="M1131.52,-160.319C1247.49,-157.96 1464.81,-145.754 1640.5,-91 1643.34,-90.1161 1646.19,-89.1365 1649.04,-88.0791"/>
<polygon fill="none" stroke="midnightblue" points="1131.24,-156.824 1121.31,-160.507 1131.37,-163.823 1131.24,-156.824"/>
</g>
<!-- Node15 -->
<g id="node15" class="node"><title>Node15</title>
<g id="a_node15"><a xlink:href="classtomoBay_1_1model_1_1sql_1_1queries_1_1factories_1_1update_1_1UpdateItemErrorFactory.html" target="_top" xlink:title="{UpdateItemErrorFactory\n||+ UpdateItemErrorFactory()\l+ make()\l}">
<polygon fill="white" stroke="black" points="1818,-11.5 1818,-79.5 1955,-79.5 1955,-11.5 1818,-11.5"/>
<text text-anchor="middle" x="1886.5" y="-67.5" font-family="Helvetica,sans-Serif" font-size="10.00">UpdateItemErrorFactory</text>
<polyline fill="none" stroke="black" points="1818,-60.5 1955,-60.5 "/>
<text text-anchor="middle" x="1886.5" y="-48.5" font-family="Helvetica,sans-Serif" font-size="10.00"> </text>
<polyline fill="none" stroke="black" points="1818,-41.5 1955,-41.5 "/>
<text text-anchor="start" x="1826" y="-29.5" font-family="Helvetica,sans-Serif" font-size="10.00">+ UpdateItemErrorFactory()</text>
<text text-anchor="start" x="1826" y="-18.5" font-family="Helvetica,sans-Serif" font-size="10.00">+ make()</text>
</a>
</g>
</g>
<!-- Node1&#45;&gt;Node15 -->
<g id="edge14" class="edge"><title>Node1&#45;&gt;Node15</title>
<path fill="none" stroke="midnightblue" d="M1131.17,-157.399C1300.4,-150.261 1683.96,-130.193 1808.5,-91 1817.57,-88.1452 1826.75,-84.1243 1835.47,-79.655"/>
<polygon fill="none" stroke="midnightblue" points="1130.91,-153.906 1121.07,-157.82 1131.2,-160.9 1130.91,-153.906"/>
</g>
<!-- Node16 -->
<g id="node16" class="node"><title>Node16</title>
<g id="a_node16"><a xlink:href="classtomoBay_1_1model_1_1sql_1_1queries_1_1factories_1_1update_1_1UpdateItemNoteFactory.html" target="_top" xlink:title="{UpdateItemNoteFactory\n||+ UpdateItemNoteFactory()\l+ make()\l}">
<polygon fill="white" stroke="black" points="1973,-11.5 1973,-79.5 2110,-79.5 2110,-11.5 1973,-11.5"/>
<text text-anchor="middle" x="2041.5" y="-67.5" font-family="Helvetica,sans-Serif" font-size="10.00">UpdateItemNoteFactory</text>
<polyline fill="none" stroke="black" points="1973,-60.5 2110,-60.5 "/>
<text text-anchor="middle" x="2041.5" y="-48.5" font-family="Helvetica,sans-Serif" font-size="10.00"> </text>
<polyline fill="none" stroke="black" points="1973,-41.5 2110,-41.5 "/>
<text text-anchor="start" x="1981" y="-29.5" font-family="Helvetica,sans-Serif" font-size="10.00">+ UpdateItemNoteFactory()</text>
<text text-anchor="start" x="1981" y="-18.5" font-family="Helvetica,sans-Serif" font-size="10.00">+ make()</text>
</a>
</g>
</g>
<!-- Node1&#45;&gt;Node16 -->
<g id="edge15" class="edge"><title>Node1&#45;&gt;Node16</title>
<path fill="none" stroke="midnightblue" d="M1131.43,-158.931C1325.8,-154.463 1810.12,-138.743 1964.5,-91 1973.65,-88.1718 1982.88,-84.1034 1991.62,-79.5613"/>
<polygon fill="none" stroke="midnightblue" points="1131.19,-155.435 1121.27,-159.16 1131.35,-162.434 1131.19,-155.435"/>
</g>
<!-- Node2 -->
<g id="node2" class="node"><title>Node2</title>
<g id="a_node2"><a xlink:href="interfacetomoBay_1_1model_1_1sql_1_1framework_1_1queryFactories_1_1AbstractModifyQueryFactory.html" target="_top" xlink:title="{AbstractModifyQueryFactory\n||+ make()\l}">
<polygon fill="white" stroke="black" points="978.5,-232.5 978.5,-289.5 1120.5,-289.5 1120.5,-232.5 978.5,-232.5"/>
<text text-anchor="middle" x="1049.5" y="-277.5" font-family="Helvetica,sans-Serif" font-size="10.00">AbstractModifyQueryFactory</text>
<polyline fill="none" stroke="black" points="978.5,-270.5 1120.5,-270.5 "/>
<text text-anchor="middle" x="1049.5" y="-258.5" font-family="Helvetica,sans-Serif" font-size="10.00"> </text>
<polyline fill="none" stroke="black" points="978.5,-251.5 1120.5,-251.5 "/>
<text text-anchor="start" x="986.5" y="-239.5" font-family="Helvetica,sans-Serif" font-size="10.00">+ make()</text>
</a>
</g>
</g>
<!-- Node2&#45;&gt;Node1 -->
<g id="edge1" class="edge"><title>Node2&#45;&gt;Node1</title>
<path fill="none" stroke="midnightblue" d="M1049.5,-222.063C1049.5,-213.393 1049.5,-204.243 1049.5,-195.786"/>
<polygon fill="none" stroke="midnightblue" points="1046,-222.321 1049.5,-232.321 1053,-222.321 1046,-222.321"/>
</g>
<!-- Node3 -->
<g id="node3" class="node"><title>Node3</title>
<g id="a_node3"><a xlink:href="interfacetomoBay_1_1model_1_1sql_1_1framework_1_1queryFactories_1_1AbstractQueryFactory.html" target="_top" xlink:title="all Queries are instantiated using a factory and each of these factories must conform to this interfa...">
<polygon fill="white" stroke="black" points="993,-326.5 993,-383.5 1106,-383.5 1106,-326.5 993,-326.5"/>
<text text-anchor="middle" x="1049.5" y="-371.5" font-family="Helvetica,sans-Serif" font-size="10.00">AbstractQueryFactory</text>
<polyline fill="none" stroke="black" points="993,-364.5 1106,-364.5 "/>
<text text-anchor="middle" x="1049.5" y="-352.5" font-family="Helvetica,sans-Serif" font-size="10.00"> </text>
<polyline fill="none" stroke="black" points="993,-345.5 1106,-345.5 "/>
<text text-anchor="start" x="1001" y="-333.5" font-family="Helvetica,sans-Serif" font-size="10.00">+ make()</text>
</a>
</g>
</g>
<!-- Node3&#45;&gt;Node2 -->
<g id="edge2" class="edge"><title>Node3&#45;&gt;Node2</title>
<path fill="none" stroke="midnightblue" d="M1049.5,-316.209C1049.5,-307.293 1049.5,-297.951 1049.5,-289.584"/>
<polygon fill="none" stroke="midnightblue" points="1046,-316.397 1049.5,-326.397 1053,-316.397 1046,-316.397"/>
</g>
</g>
</svg>
        <g id="navigator" transform="translate(0 0)" fill="#404254">
                <rect fill="#f2f5e9" fill-opacity="0.5" stroke="#606060" stroke-width=".5" x="0" y="0" width="60" height="60"/>
                <use id="zoomplus" xlink:href="#zoomPlus" x="17" y="9" onmousedown="handleZoom(evt,'in')"/>
                <use id="zoomminus" xlink:href="#zoomMin" x="42" y="9" onmousedown="handleZoom(evt,'out')"/>
                <use id="reset" xlink:href="#resetDef" x="30" y="36" onmousedown="handleReset()"/>
                <g id="arrowUp" xlink:href="#dirArrow" transform="translate(30 24)" onmousedown="handlePan(0,-1)">
                  <use xlink:href="#rim" fill="#404040">
                        <set attributeName="fill" to="#808080" begin="arrowUp.mouseover" end="arrowUp.mouseout"/>
                  </use>
                  <path fill="none" stroke="white" stroke-width="1.5" d="M0,-3.0v7 M-2.5,-0.5L0,-3.0L2.5,-0.5"/>
                </g>
                <g id="arrowRight" xlink:href="#dirArrow" transform="rotate(90) translate(36 -43)" onmousedown="handlePan(1,0)">
                  <use xlink:href="#rim" fill="#404040">
                        <set attributeName="fill" to="#808080" begin="arrowRight.mouseover" end="arrowRight.mouseout"/>
                  </use>
                  <path fill="none" stroke="white" stroke-width="1.5" d="M0,-3.0v7 M-2.5,-0.5L0,-3.0L2.5,-0.5"/>
                </g>
                <g id="arrowDown" xlink:href="#dirArrow" transform="rotate(180) translate(-30 -48)" onmousedown="handlePan(0,1)">
                  <use xlink:href="#rim" fill="#404040">
                        <set attributeName="fill" to="#808080" begin="arrowDown.mouseover" end="arrowDown.mouseout"/>
                  </use>
                  <path fill="none" stroke="white" stroke-width="1.5" d="M0,-3.0v7 M-2.5,-0.5L0,-3.0L2.5,-0.5"/>
                </g>
                <g id="arrowLeft" xlink:href="#dirArrow" transform="rotate(270) translate(-36 17)" onmousedown="handlePan(-1,0)">
                  <use xlink:href="#rim" fill="#404040">
                        <set attributeName="fill" to="#808080" begin="arrowLeft.mouseover" end="arrowLeft.mouseout"/>
                  </use>
                  <path fill="none" stroke="white" stroke-width="1.5" d="M0,-3.0v7 M-2.5,-0.5L0,-3.0L2.5,-0.5"/>
                </g>
        </g>
        <svg viewBox="0 0 15 15" width="100%" height="30px" preserveAspectRatio="xMaxYMin meet">
         <g id="arrow_out" transform="scale(0.3 0.3)">
          <a xlink:href="interfacetomoBay_1_1model_1_1sql_1_1framework_1_1queryFactories_1_1AbstractModifyQueryParamsFactory__inherit__graph_org.svg" target="_base">
           <rect id="button" ry="5" rx="5" y="6" x="6" height="38" width="38"
                fill="#f2f5e9" fill-opacity="0.5" stroke="#606060" stroke-width="1.0"/>
           <path id="arrow"
             d="M 11.500037,31.436501 C 11.940474,20.09759 22.043105,11.32322 32.158766,21.979434 L 37.068811,17.246167 C 37.068811,17.246167 37.088388,32 37.088388,32 L 22.160133,31.978069 C 22.160133,31.978069 26.997745,27.140456 26.997745,27.140456 C 18.528582,18.264221 13.291696,25.230495 11.500037,31.436501 z"
             style="fill:#404040;"/>
          </a>
         </g>
        </svg>
</svg>
