<?xml version="1.0" encoding="UTF-8" standalone="no"?>
<!DOCTYPE svg PUBLIC "-//W3C//DTD SVG 1.1//EN"
 "http://www.w3.org/Graphics/SVG/1.1/DTD/svg11.dtd">
<!-- Generated by graphviz version 2.38.0 (20140413.2041)
 -->
<!-- Title: tomoBay.presenters.factories.AbstractPresenterFactory Pages: 1 -->
<svg width="495pt" height="193pt"
 viewBox="0.00 0.00 495.50 193.00" xmlns="http://www.w3.org/2000/svg" xmlns:xlink="http://www.w3.org/1999/xlink">
<g id="graph0" class="graph" transform="scale(1 1) rotate(0) translate(4 189)">
<title>tomoBay.presenters.factories.AbstractPresenterFactory</title>
<!-- Node1 -->
<g id="node1" class="node"><title>Node1</title>
<polygon fill="#bfbfbf" stroke="black" points="166,-116.5 166,-184.5 314,-184.5 314,-116.5 166,-116.5"/>
<text text-anchor="start" x="174" y="-172.5" font-family="Helvetica,sans-Serif" font-size="10.00">tomoBay.presenters.factories.</text>
<text text-anchor="middle" x="240" y="-161.5" font-family="Helvetica,sans-Serif" font-size="10.00">AbstractPresenterFactory</text>
<polyline fill="none" stroke="black" points="166,-154.5 314,-154.5 "/>
<text text-anchor="middle" x="240" y="-142.5" font-family="Helvetica,sans-Serif" font-size="10.00"> </text>
<polyline fill="none" stroke="black" points="166,-135.5 314,-135.5 "/>
<text text-anchor="start" x="174" y="-123.5" font-family="Helvetica,sans-Serif" font-size="10.00">+ make()</text>
</g>
<!-- Node2 -->
<g id="node2" class="node"><title>Node2</title>
<g id="a_node2"><a xlink:href="classtomoBay_1_1presenters_1_1factories_1_1ErrorPresenterFactory.html" target="_top" xlink:title="{tomoBay.presenters.factories.\lErrorPresenterFactory\n||+ ErrorPresenterFactory()\l+ make()\l}">
<polygon fill="none" stroke="black" points="0,-0.5 0,-79.5 148,-79.5 148,-0.5 0,-0.5"/>
<text text-anchor="start" x="8" y="-67.5" font-family="Helvetica,sans-Serif" font-size="10.00">tomoBay.presenters.factories.</text>
<text text-anchor="middle" x="74" y="-56.5" font-family="Helvetica,sans-Serif" font-size="10.00">ErrorPresenterFactory</text>
<polyline fill="none" stroke="black" points="0,-49.5 148,-49.5 "/>
<text text-anchor="middle" x="74" y="-37.5" font-family="Helvetica,sans-Serif" font-size="10.00"> </text>
<polyline fill="none" stroke="black" points="0,-30.5 148,-30.5 "/>
<text text-anchor="start" x="8" y="-18.5" font-family="Helvetica,sans-Serif" font-size="10.00">+ ErrorPresenterFactory()</text>
<text text-anchor="start" x="8" y="-7.5" font-family="Helvetica,sans-Serif" font-size="10.00">+ make()</text>
</a>
</g>
</g>
<!-- Node1&#45;&gt;Node2 -->
<g id="edge1" class="edge"><title>Node1&#45;&gt;Node2</title>
<path fill="none" stroke="midnightblue" d="M180.824,-110.822C165.329,-100.694 148.624,-89.7755 133.132,-79.6493"/>
<polygon fill="none" stroke="midnightblue" points="179.007,-113.815 189.293,-116.357 182.837,-107.956 179.007,-113.815"/>
</g>
<!-- Node3 -->
<g id="node3" class="node"><title>Node3</title>
<g id="a_node3"><a xlink:href="classtomoBay_1_1presenters_1_1factories_1_1RootPresenterFactory.html" target="_top" xlink:title="{tomoBay.presenters.factories.\lRootPresenterFactory\n||+ RootPresenterFactory()\l+ make()\l}">
<polygon fill="none" stroke="black" points="166,-0.5 166,-79.5 314,-79.5 314,-0.5 166,-0.5"/>
<text text-anchor="start" x="174" y="-67.5" font-family="Helvetica,sans-Serif" font-size="10.00">tomoBay.presenters.factories.</text>
<text text-anchor="middle" x="240" y="-56.5" font-family="Helvetica,sans-Serif" font-size="10.00">RootPresenterFactory</text>
<polyline fill="none" stroke="black" points="166,-49.5 314,-49.5 "/>
<text text-anchor="middle" x="240" y="-37.5" font-family="Helvetica,sans-Serif" font-size="10.00"> </text>
<polyline fill="none" stroke="black" points="166,-30.5 314,-30.5 "/>
<text text-anchor="start" x="174" y="-18.5" font-family="Helvetica,sans-Serif" font-size="10.00">+ RootPresenterFactory()</text>
<text text-anchor="start" x="174" y="-7.5" font-family="Helvetica,sans-Serif" font-size="10.00">+ make()</text>
</a>
</g>
</g>
<!-- Node1&#45;&gt;Node3 -->
<g id="edge2" class="edge"><title>Node1&#45;&gt;Node3</title>
<path fill="none" stroke="midnightblue" d="M240,-106.274C240,-97.4764 240,-88.2753 240,-79.6493"/>
<polygon fill="none" stroke="midnightblue" points="236.5,-106.357 240,-116.357 243.5,-106.357 236.5,-106.357"/>
</g>
<!-- Node4 -->
<g id="node4" class="node"><title>Node4</title>
<g id="a_node4"><a xlink:href="classtomoBay_1_1presenters_1_1factories_1_1SalesOrderPresenterFactory.html" target="_top" xlink:title="{tomoBay.presenters.factories.\lSalesOrderPresenterFactory\n||+ SalesOrderPresenterFactory()\l+ make()\l}">
<polygon fill="none" stroke="black" points="332.5,-0.5 332.5,-79.5 487.5,-79.5 487.5,-0.5 332.5,-0.5"/>
<text text-anchor="start" x="340.5" y="-67.5" font-family="Helvetica,sans-Serif" font-size="10.00">tomoBay.presenters.factories.</text>
<text text-anchor="middle" x="410" y="-56.5" font-family="Helvetica,sans-Serif" font-size="10.00">SalesOrderPresenterFactory</text>
<polyline fill="none" stroke="black" points="332.5,-49.5 487.5,-49.5 "/>
<text text-anchor="middle" x="410" y="-37.5" font-family="Helvetica,sans-Serif" font-size="10.00"> </text>
<polyline fill="none" stroke="black" points="332.5,-30.5 487.5,-30.5 "/>
<text text-anchor="start" x="340.5" y="-18.5" font-family="Helvetica,sans-Serif" font-size="10.00">+ SalesOrderPresenterFactory()</text>
<text text-anchor="start" x="340.5" y="-7.5" font-family="Helvetica,sans-Serif" font-size="10.00">+ make()</text>
</a>
</g>
</g>
<!-- Node1&#45;&gt;Node4 -->
<g id="edge3" class="edge"><title>Node1&#45;&gt;Node4</title>
<path fill="none" stroke="midnightblue" d="M300.602,-110.822C316.47,-100.694 333.578,-89.7755 349.443,-79.6493"/>
<polygon fill="none" stroke="midnightblue" points="298.476,-108.027 291.929,-116.357 302.242,-113.927 298.476,-108.027"/>
</g>
</g>
</svg>
