<?xml version="1.0" encoding="UTF-8" standalone="no"?>
<!DOCTYPE svg PUBLIC "-//W3C//DTD SVG 1.1//EN"
 "http://www.w3.org/Graphics/SVG/1.1/DTD/svg11.dtd">
<!-- Generated by graphviz version 2.38.0 (20140413.2041)
 -->
<!-- Title: tomoBay.model.services.AbstractConfiguration&lt; T &gt; Pages: 1 -->
<svg width="309pt" height="226pt"
 viewBox="0.00 0.00 309.50 226.00" xmlns="http://www.w3.org/2000/svg" xmlns:xlink="http://www.w3.org/1999/xlink">
<g id="graph0" class="graph" transform="scale(1 1) rotate(0) translate(4 222)">
<title>tomoBay.model.services.AbstractConfiguration&lt; T &gt;</title>
<!-- Node1 -->
<g id="node1" class="node"><title>Node1</title>
<polygon fill="#bfbfbf" stroke="black" points="71,-138.5 71,-217.5 235,-217.5 235,-138.5 71,-138.5"/>
<text text-anchor="start" x="79" y="-205.5" font-family="Helvetica,sans-Serif" font-size="10.00">tomoBay.model.services.Abstract</text>
<text text-anchor="middle" x="153" y="-194.5" font-family="Helvetica,sans-Serif" font-size="10.00">Configuration&lt; T &gt;</text>
<polyline fill="none" stroke="black" points="71,-187.5 235,-187.5 "/>
<text text-anchor="middle" x="153" y="-175.5" font-family="Helvetica,sans-Serif" font-size="10.00"> </text>
<polyline fill="none" stroke="black" points="71,-168.5 235,-168.5 "/>
<text text-anchor="start" x="79" y="-156.5" font-family="Helvetica,sans-Serif" font-size="10.00">+ configure()</text>
<text text-anchor="start" x="79" y="-145.5" font-family="Helvetica,sans-Serif" font-size="10.00">+ configure()</text>
</g>
<!-- Node2 -->
<g id="node2" class="node"><title>Node2</title>
<g id="a_node2"><a xlink:href="classtomoBay_1_1model_1_1services_1_1individualItemRefresh_1_1IndividualItemRefreshConfig.html" target="_top" xlink:title="{tomoBay::model::services\l::individualItemRefresh\l::IndividualItemRefreshConfig\l\&lt; Long \&gt;\n|&#45; listingID_M\l|+ configure()\l+ configure()\l}">
<polygon fill="none" stroke="black" points="0,-0.5 0,-101.5 146,-101.5 146,-0.5 0,-0.5"/>
<text text-anchor="start" x="8" y="-89.5" font-family="Helvetica,sans-Serif" font-size="10.00">tomoBay::model::services</text>
<text text-anchor="start" x="8" y="-78.5" font-family="Helvetica,sans-Serif" font-size="10.00">::individualItemRefresh</text>
<text text-anchor="start" x="8" y="-67.5" font-family="Helvetica,sans-Serif" font-size="10.00">::IndividualItemRefreshConfig</text>
<text text-anchor="middle" x="73" y="-56.5" font-family="Helvetica,sans-Serif" font-size="10.00">&lt; Long &gt;</text>
<polyline fill="none" stroke="black" points="0,-49.5 146,-49.5 "/>
<text text-anchor="start" x="8" y="-37.5" font-family="Helvetica,sans-Serif" font-size="10.00">&#45; listingID_M</text>
<polyline fill="none" stroke="black" points="0,-30.5 146,-30.5 "/>
<text text-anchor="start" x="8" y="-18.5" font-family="Helvetica,sans-Serif" font-size="10.00">+ configure()</text>
<text text-anchor="start" x="8" y="-7.5" font-family="Helvetica,sans-Serif" font-size="10.00">+ configure()</text>
</a>
</g>
</g>
<!-- Node1&#45;&gt;Node2 -->
<g id="edge1" class="edge"><title>Node1&#45;&gt;Node2</title>
<path fill="none" stroke="midnightblue" d="M122.812,-129.831C116.926,-120.635 110.738,-110.966 104.802,-101.691"/>
<polygon fill="none" stroke="midnightblue" points="120.006,-131.94 128.345,-138.476 125.902,-128.166 120.006,-131.94"/>
</g>
<!-- Node3 -->
<g id="node3" class="node"><title>Node3</title>
<g id="a_node3"><a xlink:href="classtomoBay_1_1model_1_1services_1_1updateOrderStatusService_1_1UpdateOrderStatusConfig.html" target="_top" xlink:title="{tomoBay::model::services\l::updateOrderStatusService\l::UpdateOrderStatusConfig\l\&lt; OrderStatus \&gt;\n|&#45; status_M\l|+ configure()\l+ configure()\l}">
<polygon fill="none" stroke="black" points="164.5,-0.5 164.5,-101.5 301.5,-101.5 301.5,-0.5 164.5,-0.5"/>
<text text-anchor="start" x="172.5" y="-89.5" font-family="Helvetica,sans-Serif" font-size="10.00">tomoBay::model::services</text>
<text text-anchor="start" x="172.5" y="-78.5" font-family="Helvetica,sans-Serif" font-size="10.00">::updateOrderStatusService</text>
<text text-anchor="start" x="172.5" y="-67.5" font-family="Helvetica,sans-Serif" font-size="10.00">::UpdateOrderStatusConfig</text>
<text text-anchor="middle" x="233" y="-56.5" font-family="Helvetica,sans-Serif" font-size="10.00">&lt; OrderStatus &gt;</text>
<polyline fill="none" stroke="black" points="164.5,-49.5 301.5,-49.5 "/>
<text text-anchor="start" x="172.5" y="-37.5" font-family="Helvetica,sans-Serif" font-size="10.00">&#45; status_M</text>
<polyline fill="none" stroke="black" points="164.5,-30.5 301.5,-30.5 "/>
<text text-anchor="start" x="172.5" y="-18.5" font-family="Helvetica,sans-Serif" font-size="10.00">+ configure()</text>
<text text-anchor="start" x="172.5" y="-7.5" font-family="Helvetica,sans-Serif" font-size="10.00">+ configure()</text>
</a>
</g>
</g>
<!-- Node1&#45;&gt;Node3 -->
<g id="edge2" class="edge"><title>Node1&#45;&gt;Node3</title>
<path fill="none" stroke="midnightblue" d="M183.188,-129.831C189.074,-120.635 195.262,-110.966 201.198,-101.691"/>
<polygon fill="none" stroke="midnightblue" points="180.098,-128.166 177.655,-138.476 185.994,-131.94 180.098,-128.166"/>
</g>
</g>
</svg>
