<?xml version="1.0" encoding="UTF-8" standalone="no"?>
<!DOCTYPE svg PUBLIC "-//W3C//DTD SVG 1.1//EN"
 "http://www.w3.org/Graphics/SVG/1.1/DTD/svg11.dtd">
<!-- Generated by graphviz version 2.38.0 (20140413.2041)
 -->
<!-- Title: AbstractTypeSchema Pages: 1 -->
<svg width="972pt" height="248pt"
 viewBox="0.00 0.00 971.50 248.00" xmlns="http://www.w3.org/2000/svg" xmlns:xlink="http://www.w3.org/1999/xlink">
<g id="graph0" class="graph" transform="scale(1 1) rotate(0) translate(4 244)">
<title>AbstractTypeSchema</title>
<polygon fill="white" stroke="none" points="-4,4 -4,-244 967.5,-244 967.5,4 -4,4"/>
<!-- Node1 -->
<g id="node1" class="node"><title>Node1</title>
<polygon fill="#bfbfbf" stroke="black" points="408,-182.5 408,-239.5 519,-239.5 519,-182.5 408,-182.5"/>
<text text-anchor="middle" x="463.5" y="-227.5" font-family="Helvetica,sans-Serif" font-size="10.00">AbstractTypeSchema</text>
<polyline fill="none" stroke="black" points="408,-220.5 519,-220.5 "/>
<text text-anchor="middle" x="463.5" y="-208.5" font-family="Helvetica,sans-Serif" font-size="10.00"> </text>
<polyline fill="none" stroke="black" points="408,-201.5 519,-201.5 "/>
<text text-anchor="middle" x="463.5" y="-189.5" font-family="Helvetica,sans-Serif" font-size="10.00"> </text>
</g>
<!-- Node2 -->
<g id="node2" class="node"><title>Node2</title>
<g id="a_node2"><a xlink:href="classtomoBay_1_1model_1_1sql_1_1schema_1_1accountsTable_1_1AccountsTable.html" target="_top" xlink:title="This represents the structure of the ebay_accounts table in the database. ">
<polygon fill="white" stroke="black" points="0,-22.5 0,-123.5 113,-123.5 113,-22.5 0,-22.5"/>
<text text-anchor="middle" x="56.5" y="-111.5" font-family="Helvetica,sans-Serif" font-size="10.00">AccountsTable</text>
<polyline fill="none" stroke="black" points="0,-104.5 113,-104.5 "/>
<text text-anchor="start" x="8" y="-92.5" font-family="Helvetica,sans-Serif" font-size="10.00">+ ID</text>
<text text-anchor="start" x="8" y="-81.5" font-family="Helvetica,sans-Serif" font-size="10.00">+ API_KEY</text>
<text text-anchor="start" x="8" y="-70.5" font-family="Helvetica,sans-Serif" font-size="10.00">+ SERVER_ADDR</text>
<text text-anchor="start" x="8" y="-59.5" font-family="Helvetica,sans-Serif" font-size="10.00">+ ACCOUNT_NAME</text>
<text text-anchor="start" x="8" y="-48.5" font-family="Helvetica,sans-Serif" font-size="10.00">+ LOOKBACK_DAYS</text>
<polyline fill="none" stroke="black" points="0,-41.5 113,-41.5 "/>
<text text-anchor="start" x="8" y="-29.5" font-family="Helvetica,sans-Serif" font-size="10.00">+ AccountsTable()</text>
</a>
</g>
</g>
<!-- Node1&#45;&gt;Node2 -->
<g id="edge1" class="edge"><title>Node1&#45;&gt;Node2</title>
<path fill="none" stroke="midnightblue" d="M397.658,-209.782C325.768,-206.89 209.319,-194.243 122.5,-146 112.124,-140.235 102.488,-132.239 93.9628,-123.663"/>
<polygon fill="none" stroke="midnightblue" points="397.817,-213.29 407.933,-210.141 398.061,-206.294 397.817,-213.29"/>
</g>
<!-- Node3 -->
<g id="node3" class="node"><title>Node3</title>
<g id="a_node3"><a xlink:href="classtomoBay_1_1model_1_1sql_1_1schema_1_1buyerTable_1_1BuyerTable.html" target="_top" xlink:title="This represents the structure of the ebay_buyers table in the database. ">
<polygon fill="white" stroke="black" points="131.5,-0.5 131.5,-145.5 213.5,-145.5 213.5,-0.5 131.5,-0.5"/>
<text text-anchor="middle" x="172.5" y="-133.5" font-family="Helvetica,sans-Serif" font-size="10.00">BuyerTable</text>
<polyline fill="none" stroke="black" points="131.5,-126.5 213.5,-126.5 "/>
<text text-anchor="start" x="139.5" y="-114.5" font-family="Helvetica,sans-Serif" font-size="10.00">+ BUYERID</text>
<text text-anchor="start" x="139.5" y="-103.5" font-family="Helvetica,sans-Serif" font-size="10.00">+ NAME</text>
<text text-anchor="start" x="139.5" y="-92.5" font-family="Helvetica,sans-Serif" font-size="10.00">+ STREET1</text>
<text text-anchor="start" x="139.5" y="-81.5" font-family="Helvetica,sans-Serif" font-size="10.00">+ STREET2</text>
<text text-anchor="start" x="139.5" y="-70.5" font-family="Helvetica,sans-Serif" font-size="10.00">+ CITY</text>
<text text-anchor="start" x="139.5" y="-59.5" font-family="Helvetica,sans-Serif" font-size="10.00">+ COUNTY</text>
<text text-anchor="start" x="139.5" y="-48.5" font-family="Helvetica,sans-Serif" font-size="10.00">+ POSTCODE</text>
<text text-anchor="start" x="139.5" y="-37.5" font-family="Helvetica,sans-Serif" font-size="10.00">+ EMAIL</text>
<text text-anchor="start" x="139.5" y="-26.5" font-family="Helvetica,sans-Serif" font-size="10.00">+ PHONE</text>
<polyline fill="none" stroke="black" points="131.5,-19.5 213.5,-19.5 "/>
<text text-anchor="start" x="139.5" y="-7.5" font-family="Helvetica,sans-Serif" font-size="10.00">&#45; BuyerTable()</text>
</a>
</g>
</g>
<!-- Node1&#45;&gt;Node3 -->
<g id="edge2" class="edge"><title>Node1&#45;&gt;Node3</title>
<path fill="none" stroke="midnightblue" d="M397.671,-204.909C346.055,-198.162 274.499,-182.474 222.5,-146 219.385,-143.815 216.402,-141.37 213.554,-138.737"/>
<polygon fill="none" stroke="midnightblue" points="397.365,-208.397 407.717,-206.143 398.218,-201.45 397.365,-208.397"/>
</g>
<!-- Node4 -->
<g id="node4" class="node"><title>Node4</title>
<g id="a_node4"><a xlink:href="classtomoBay_1_1model_1_1sql_1_1schema_1_1itemsTable_1_1ItemsTable.html" target="_top" xlink:title="This represents the structure of the ebay_items table of the database. ">
<polygon fill="white" stroke="black" points="232,-11.5 232,-134.5 315,-134.5 315,-11.5 232,-11.5"/>
<text text-anchor="middle" x="273.5" y="-122.5" font-family="Helvetica,sans-Serif" font-size="10.00">ItemsTable</text>
<polyline fill="none" stroke="black" points="232,-115.5 315,-115.5 "/>
<text text-anchor="start" x="240" y="-103.5" font-family="Helvetica,sans-Serif" font-size="10.00">+ ITEM_ID</text>
<text text-anchor="start" x="240" y="-92.5" font-family="Helvetica,sans-Serif" font-size="10.00">+ TITLE</text>
<text text-anchor="start" x="240" y="-81.5" font-family="Helvetica,sans-Serif" font-size="10.00">+ CONDITION</text>
<text text-anchor="start" x="240" y="-70.5" font-family="Helvetica,sans-Serif" font-size="10.00">+ BRAND</text>
<text text-anchor="start" x="240" y="-59.5" font-family="Helvetica,sans-Serif" font-size="10.00">+ PART_NO</text>
<text text-anchor="start" x="240" y="-48.5" font-family="Helvetica,sans-Serif" font-size="10.00">+ NOTES</text>
<text text-anchor="start" x="240" y="-37.5" font-family="Helvetica,sans-Serif" font-size="10.00">+ ACCOUNT</text>
<polyline fill="none" stroke="black" points="232,-30.5 315,-30.5 "/>
<text text-anchor="start" x="240" y="-18.5" font-family="Helvetica,sans-Serif" font-size="10.00">&#45; ItemsTable()</text>
</a>
</g>
</g>
<!-- Node1&#45;&gt;Node4 -->
<g id="edge3" class="edge"><title>Node1&#45;&gt;Node4</title>
<path fill="none" stroke="midnightblue" d="M398.304,-188.663C373.185,-178.373 345.317,-164.239 323.5,-146 319.413,-142.584 315.51,-138.756 311.815,-134.693"/>
<polygon fill="none" stroke="midnightblue" points="397.192,-191.987 407.778,-192.419 399.772,-185.48 397.192,-191.987"/>
</g>
<!-- Node5 -->
<g id="node5" class="node"><title>Node5</title>
<g id="a_node5"><a xlink:href="classtomoBay_1_1model_1_1sql_1_1schema_1_1nonDBFields_1_1NonDBFields.html" target="_top" xlink:title="{NonDBFields\n|+ RESULT_CODE\l+ DATE_COMPARISON\l|&#45; NonDBFields()\l}">
<polygon fill="white" stroke="black" points="333,-39 333,-107 460,-107 460,-39 333,-39"/>
<text text-anchor="middle" x="396.5" y="-95" font-family="Helvetica,sans-Serif" font-size="10.00">NonDBFields</text>
<polyline fill="none" stroke="black" points="333,-88 460,-88 "/>
<text text-anchor="start" x="341" y="-76" font-family="Helvetica,sans-Serif" font-size="10.00">+ RESULT_CODE</text>
<text text-anchor="start" x="341" y="-65" font-family="Helvetica,sans-Serif" font-size="10.00">+ DATE_COMPARISON</text>
<polyline fill="none" stroke="black" points="333,-58 460,-58 "/>
<text text-anchor="start" x="341" y="-46" font-family="Helvetica,sans-Serif" font-size="10.00">&#45; NonDBFields()</text>
</a>
</g>
</g>
<!-- Node1&#45;&gt;Node5 -->
<g id="edge4" class="edge"><title>Node1&#45;&gt;Node5</title>
<path fill="none" stroke="midnightblue" d="M445.468,-173.398C435.32,-152.798 422.745,-127.273 412.879,-107.248"/>
<polygon fill="none" stroke="midnightblue" points="442.383,-175.055 449.942,-182.478 448.662,-171.961 442.383,-175.055"/>
</g>
<!-- Node6 -->
<g id="node6" class="node"><title>Node6</title>
<g id="a_node6"><a xlink:href="classtomoBay_1_1model_1_1sql_1_1schema_1_1ordersTable_1_1OrdersTable.html" target="_top" xlink:title="This class represents the ebay_orders table in the database. ">
<polygon fill="white" stroke="black" points="478.5,-6 478.5,-140 584.5,-140 584.5,-6 478.5,-6"/>
<text text-anchor="middle" x="531.5" y="-128" font-family="Helvetica,sans-Serif" font-size="10.00">OrdersTable</text>
<polyline fill="none" stroke="black" points="478.5,-121 584.5,-121 "/>
<text text-anchor="start" x="486.5" y="-109" font-family="Helvetica,sans-Serif" font-size="10.00">+ ORDER_ID</text>
<text text-anchor="start" x="486.5" y="-98" font-family="Helvetica,sans-Serif" font-size="10.00">+ BUYERID</text>
<text text-anchor="start" x="486.5" y="-87" font-family="Helvetica,sans-Serif" font-size="10.00">+ SALES_REC_NO</text>
<text text-anchor="start" x="486.5" y="-76" font-family="Helvetica,sans-Serif" font-size="10.00">+ SHIPPING_TYPE</text>
<text text-anchor="start" x="486.5" y="-65" font-family="Helvetica,sans-Serif" font-size="10.00">+ CREATED_TIME</text>
<text text-anchor="start" x="486.5" y="-54" font-family="Helvetica,sans-Serif" font-size="10.00">+ INVOICED</text>
<text text-anchor="start" x="486.5" y="-43" font-family="Helvetica,sans-Serif" font-size="10.00">+ ORDER_TOTAL</text>
<text text-anchor="start" x="486.5" y="-32" font-family="Helvetica,sans-Serif" font-size="10.00">+ ACCOUNT</text>
<polyline fill="none" stroke="black" points="478.5,-25 584.5,-25 "/>
<text text-anchor="start" x="486.5" y="-13" font-family="Helvetica,sans-Serif" font-size="10.00">&#45; OrdersTable()</text>
</a>
</g>
</g>
<!-- Node1&#45;&gt;Node6 -->
<g id="edge5" class="edge"><title>Node1&#45;&gt;Node6</title>
<path fill="none" stroke="midnightblue" d="M481.781,-173.438C486.911,-163.178 492.653,-151.694 498.362,-140.276"/>
<polygon fill="none" stroke="midnightblue" points="478.603,-171.969 477.261,-182.478 484.864,-175.099 478.603,-171.969"/>
</g>
<!-- Node7 -->
<g id="node7" class="node"><title>Node7</title>
<g id="a_node7"><a xlink:href="classtomoBay_1_1model_1_1sql_1_1schema_1_1orderStatusTable_1_1OrderStatusTable.html" target="_top" xlink:title="This class represents the order_status table in the database. ">
<polygon fill="white" stroke="black" points="603,-22.5 603,-123.5 708,-123.5 708,-22.5 603,-22.5"/>
<text text-anchor="middle" x="655.5" y="-111.5" font-family="Helvetica,sans-Serif" font-size="10.00">OrderStatusTable</text>
<polyline fill="none" stroke="black" points="603,-104.5 708,-104.5 "/>
<text text-anchor="start" x="611" y="-92.5" font-family="Helvetica,sans-Serif" font-size="10.00">+ ORDER_ID</text>
<text text-anchor="start" x="611" y="-81.5" font-family="Helvetica,sans-Serif" font-size="10.00">+ PICKING</text>
<text text-anchor="start" x="611" y="-70.5" font-family="Helvetica,sans-Serif" font-size="10.00">+ PACKING</text>
<text text-anchor="start" x="611" y="-59.5" font-family="Helvetica,sans-Serif" font-size="10.00">+ SHIPPING</text>
<text text-anchor="start" x="611" y="-48.5" font-family="Helvetica,sans-Serif" font-size="10.00">+ INVOICE_NO</text>
<polyline fill="none" stroke="black" points="603,-41.5 708,-41.5 "/>
<text text-anchor="start" x="611" y="-29.5" font-family="Helvetica,sans-Serif" font-size="10.00">&#45; OrderStatusTable()</text>
</a>
</g>
</g>
<!-- Node1&#45;&gt;Node7 -->
<g id="edge6" class="edge"><title>Node1&#45;&gt;Node7</title>
<path fill="none" stroke="midnightblue" d="M528.363,-184.336C550.173,-174.12 573.917,-161.157 593.5,-146 601.849,-139.538 609.898,-131.807 617.276,-123.846"/>
<polygon fill="none" stroke="midnightblue" points="526.794,-181.205 519.152,-188.544 529.703,-187.572 526.794,-181.205"/>
</g>
<!-- Node8 -->
<g id="node8" class="node"><title>Node8</title>
<g id="a_node8"><a xlink:href="classtomoBay_1_1model_1_1sql_1_1schema_1_1outOfHoursTable_1_1OutOfHoursTable.html" target="_top" xlink:title="This class represents the out_of_hours table in the database implementation. ">
<polygon fill="white" stroke="black" points="726,-39 726,-107 831,-107 831,-39 726,-39"/>
<text text-anchor="middle" x="778.5" y="-95" font-family="Helvetica,sans-Serif" font-size="10.00">OutOfHoursTable</text>
<polyline fill="none" stroke="black" points="726,-88 831,-88 "/>
<text text-anchor="start" x="734" y="-76" font-family="Helvetica,sans-Serif" font-size="10.00">+ SALES_REC_NO</text>
<text text-anchor="start" x="734" y="-65" font-family="Helvetica,sans-Serif" font-size="10.00">+ DATE</text>
<polyline fill="none" stroke="black" points="726,-58 831,-58 "/>
<text text-anchor="start" x="734" y="-46" font-family="Helvetica,sans-Serif" font-size="10.00">&#45; OutOfHoursTable()</text>
</a>
</g>
</g>
<!-- Node1&#45;&gt;Node8 -->
<g id="edge7" class="edge"><title>Node1&#45;&gt;Node8</title>
<path fill="none" stroke="midnightblue" d="M529.239,-204.608C583.244,-197.671 659.944,-181.875 717.5,-146 733.211,-136.207 746.937,-121.031 757.37,-107.133"/>
<polygon fill="none" stroke="midnightblue" points="528.596,-201.16 519.092,-205.842 529.441,-208.109 528.596,-201.16"/>
</g>
<!-- Node9 -->
<g id="node9" class="node"><title>Node9</title>
<g id="a_node9"><a xlink:href="classtomoBay_1_1model_1_1sql_1_1schema_1_1transactionsTable_1_1TransactionsTable.html" target="_top" xlink:title="This represents the ebay_transactions table in the database, An order usually consists of one transac...">
<polygon fill="white" stroke="black" points="849.5,-17 849.5,-129 963.5,-129 963.5,-17 849.5,-17"/>
<text text-anchor="middle" x="906.5" y="-117" font-family="Helvetica,sans-Serif" font-size="10.00">TransactionsTable</text>
<polyline fill="none" stroke="black" points="849.5,-110 963.5,-110 "/>
<text text-anchor="start" x="857.5" y="-98" font-family="Helvetica,sans-Serif" font-size="10.00">+ TRANSACTION_ID</text>
<text text-anchor="start" x="857.5" y="-87" font-family="Helvetica,sans-Serif" font-size="10.00">+ ORDER_ID</text>
<text text-anchor="start" x="857.5" y="-76" font-family="Helvetica,sans-Serif" font-size="10.00">+ ITEM_ID</text>
<text text-anchor="start" x="857.5" y="-65" font-family="Helvetica,sans-Serif" font-size="10.00">+ QUANTITY</text>
<text text-anchor="start" x="857.5" y="-54" font-family="Helvetica,sans-Serif" font-size="10.00">+ PRICE</text>
<text text-anchor="start" x="857.5" y="-43" font-family="Helvetica,sans-Serif" font-size="10.00">+ SHIPPING_COST</text>
<polyline fill="none" stroke="black" points="849.5,-36 963.5,-36 "/>
<text text-anchor="start" x="857.5" y="-24" font-family="Helvetica,sans-Serif" font-size="10.00">&#45; TransactionsTable()</text>
</a>
</g>
</g>
<!-- Node1&#45;&gt;Node9 -->
<g id="edge8" class="edge"><title>Node1&#45;&gt;Node9</title>
<path fill="none" stroke="midnightblue" d="M529.199,-204.018C622.512,-194.656 787.952,-174.605 840.5,-146 848.691,-141.541 856.409,-135.675 863.479,-129.211"/>
<polygon fill="none" stroke="midnightblue" points="528.625,-200.558 519.018,-205.026 529.314,-207.524 528.625,-200.558"/>
</g>
</g>
</svg>
