<?xml version="1.0" encoding="UTF-8" standalone="no"?>
<!DOCTYPE svg PUBLIC "-//W3C//DTD SVG 1.1//EN"
 "http://www.w3.org/Graphics/SVG/1.1/DTD/svg11.dtd">
<!-- Generated by graphviz version 2.38.0 (20140413.2041)
 -->
<!-- Title: AbstractPresenterFactory Pages: 1 -->
<!--zoomable 171 -->
<svg id="main" version="1.1" xmlns="http://www.w3.org/2000/svg" xmlns:xlink="http://www.w3.org/1999/xlink" xml:space="preserve" onload="init(evt)">
<style type="text/css"><![CDATA[
.edge:hover path { stroke: red; }
.edge:hover polygon { stroke: red; fill: red; }
]]></style>
<script type="text/javascript"><![CDATA[
var edges = document.getElementsByTagName('g');
if (edges && edges.length) {
  for (var i=0;i<edges.length;i++) {
    if (edges[i].id.substr(0,4)=='edge') {
      edges[i].setAttribute('class','edge');
    }
  }
}
]]></script>
        <defs>
                <circle id="rim" cx="0" cy="0" r="7"/>
                <circle id="rim2" cx="0" cy="0" r="3.5"/>
                <g id="zoomPlus">
                        <use xlink:href="#rim" fill="#404040">
                                <set attributeName="fill" to="#808080" begin="zoomplus.mouseover" end="zoomplus.mouseout"/>
                        </use>
                        <path d="M-4,0h8M0,-4v8" fill="none" stroke="white" stroke-width="1.5" pointer-events="none"/>
                </g>
                <g id="zoomMin">
                        <use xlink:href="#rim" fill="#404040">
                                <set attributeName="fill" to="#808080" begin="zoomminus.mouseover" end="zoomminus.mouseout"/>
                        </use>
                        <path d="M-4,0h8" fill="none" stroke="white" stroke-width="1.5" pointer-events="none"/>
                </g>
                <g id="dirArrow">
                        <path fill="none" stroke="white" stroke-width="1.5" d="M0,-3.0v7 M-2.5,-0.5L0,-3.0L2.5,-0.5"/>
                </g>
               <g id="resetDef">
                       <use xlink:href="#rim2" fill="#404040">
                               <set attributeName="fill" to="#808080" begin="reset.mouseover" end="reset.mouseout"/>
                       </use>
               </g>
        </defs>

<script type="text/javascript">
var viewWidth = 1497;
var viewHeight = 171;
var sectionId = 'dynsection-0';
</script>
<script xlink:href="svgpan.js"/>
<svg id="graph" class="graph">
<g id="viewport">
<title>AbstractPresenterFactory</title>
<polygon fill="white" stroke="none" points="-4,4 -4,-167 1492.5,-167 1492.5,4 -4,4"/>
<!-- Node1 -->
<g id="node1" class="node"><title>Node1</title>
<polygon fill="#bfbfbf" stroke="black" points="696,-105.5 696,-162.5 824,-162.5 824,-105.5 696,-105.5"/>
<text text-anchor="middle" x="760" y="-150.5" font-family="Helvetica,sans-Serif" font-size="10.00">AbstractPresenterFactory</text>
<polyline fill="none" stroke="black" points="696,-143.5 824,-143.5 "/>
<text text-anchor="middle" x="760" y="-131.5" font-family="Helvetica,sans-Serif" font-size="10.00"> </text>
<polyline fill="none" stroke="black" points="696,-124.5 824,-124.5 "/>
<text text-anchor="start" x="704" y="-112.5" font-family="Helvetica,sans-Serif" font-size="10.00">+ make()</text>
</g>
<!-- Node2 -->
<g id="node2" class="node"><title>Node2</title>
<g id="a_node2"><a xlink:href="classtomoBay_1_1presenters_1_1factories_1_1AdminServicePresenterFactory.html" target="_top" xlink:title="{AdminServicePresenterFactory\n||+ make()\l}">
<polygon fill="white" stroke="black" points="0,-6 0,-63 152,-63 152,-6 0,-6"/>
<text text-anchor="middle" x="76" y="-51" font-family="Helvetica,sans-Serif" font-size="10.00">AdminServicePresenterFactory</text>
<polyline fill="none" stroke="black" points="0,-44 152,-44 "/>
<text text-anchor="middle" x="76" y="-32" font-family="Helvetica,sans-Serif" font-size="10.00"> </text>
<polyline fill="none" stroke="black" points="0,-25 152,-25 "/>
<text text-anchor="start" x="8" y="-13" font-family="Helvetica,sans-Serif" font-size="10.00">+ make()</text>
</a>
</g>
</g>
<!-- Node1&#45;&gt;Node2 -->
<g id="edge1" class="edge"><title>Node1&#45;&gt;Node2</title>
<path fill="none" stroke="midnightblue" d="M685.589,-131.449C571.235,-127.641 346.1,-114.48 161,-69 154.376,-67.3726 147.58,-65.3467 140.855,-63.1021"/>
<polygon fill="none" stroke="midnightblue" points="685.53,-134.949 695.637,-131.769 685.753,-127.953 685.53,-134.949"/>
</g>
<!-- Node3 -->
<g id="node3" class="node"><title>Node3</title>
<g id="a_node3"><a xlink:href="classtomoBay_1_1presenters_1_1factories_1_1CRMDetailPresenterFactory.html" target="_top" xlink:title="{CRMDetailPresenterFactory\n||+ CRMDetailPresenterFactory()\l+ make()\l}">
<polygon fill="white" stroke="black" points="170.5,-0.5 170.5,-68.5 325.5,-68.5 325.5,-0.5 170.5,-0.5"/>
<text text-anchor="middle" x="248" y="-56.5" font-family="Helvetica,sans-Serif" font-size="10.00">CRMDetailPresenterFactory</text>
<polyline fill="none" stroke="black" points="170.5,-49.5 325.5,-49.5 "/>
<text text-anchor="middle" x="248" y="-37.5" font-family="Helvetica,sans-Serif" font-size="10.00"> </text>
<polyline fill="none" stroke="black" points="170.5,-30.5 325.5,-30.5 "/>
<text text-anchor="start" x="178.5" y="-18.5" font-family="Helvetica,sans-Serif" font-size="10.00">+ CRMDetailPresenterFactory()</text>
<text text-anchor="start" x="178.5" y="-7.5" font-family="Helvetica,sans-Serif" font-size="10.00">+ make()</text>
</a>
</g>
</g>
<!-- Node1&#45;&gt;Node3 -->
<g id="edge2" class="edge"><title>Node1&#45;&gt;Node3</title>
<path fill="none" stroke="midnightblue" d="M685.779,-126.893C599.97,-118.677 455.01,-101.228 334,-69 331.213,-68.2577 328.393,-67.4542 325.558,-66.6018"/>
<polygon fill="none" stroke="midnightblue" points="685.661,-130.397 695.945,-127.849 686.317,-123.428 685.661,-130.397"/>
</g>
<!-- Node4 -->
<g id="node4" class="node"><title>Node4</title>
<g id="a_node4"><a xlink:href="classtomoBay_1_1presenters_1_1factories_1_1CRMOverviewPresenterFactory.html" target="_top" xlink:title="{CRMOverviewPresenterFactory\n||+ CRMOverviewPresenterFactory()\l+ make()\l}">
<polygon fill="white" stroke="black" points="343.5,-0.5 343.5,-68.5 514.5,-68.5 514.5,-0.5 343.5,-0.5"/>
<text text-anchor="middle" x="429" y="-56.5" font-family="Helvetica,sans-Serif" font-size="10.00">CRMOverviewPresenterFactory</text>
<polyline fill="none" stroke="black" points="343.5,-49.5 514.5,-49.5 "/>
<text text-anchor="middle" x="429" y="-37.5" font-family="Helvetica,sans-Serif" font-size="10.00"> </text>
<polyline fill="none" stroke="black" points="343.5,-30.5 514.5,-30.5 "/>
<text text-anchor="start" x="351.5" y="-18.5" font-family="Helvetica,sans-Serif" font-size="10.00">+ CRMOverviewPresenterFactory()</text>
<text text-anchor="start" x="351.5" y="-7.5" font-family="Helvetica,sans-Serif" font-size="10.00">+ make()</text>
</a>
</g>
</g>
<!-- Node1&#45;&gt;Node4 -->
<g id="edge3" class="edge"><title>Node1&#45;&gt;Node4</title>
<path fill="none" stroke="midnightblue" d="M686.037,-114.448C639.319,-102.358 577.828,-85.7641 524,-69 520.911,-68.038 517.772,-67.04 514.607,-66.0164"/>
<polygon fill="none" stroke="midnightblue" points="685.217,-117.85 695.774,-116.957 686.964,-111.072 685.217,-117.85"/>
</g>
<!-- Node5 -->
<g id="node5" class="node"><title>Node5</title>
<g id="a_node5"><a xlink:href="classtomoBay_1_1presenters_1_1factories_1_1ErrorPresenterFactory.html" target="_top" xlink:title="This class is creates an ErrorPresenter object. ">
<polygon fill="white" stroke="black" points="533,-0.5 533,-68.5 661,-68.5 661,-0.5 533,-0.5"/>
<text text-anchor="middle" x="597" y="-56.5" font-family="Helvetica,sans-Serif" font-size="10.00">ErrorPresenterFactory</text>
<polyline fill="none" stroke="black" points="533,-49.5 661,-49.5 "/>
<text text-anchor="middle" x="597" y="-37.5" font-family="Helvetica,sans-Serif" font-size="10.00"> </text>
<polyline fill="none" stroke="black" points="533,-30.5 661,-30.5 "/>
<text text-anchor="start" x="541" y="-18.5" font-family="Helvetica,sans-Serif" font-size="10.00">+ ErrorPresenterFactory()</text>
<text text-anchor="start" x="541" y="-7.5" font-family="Helvetica,sans-Serif" font-size="10.00">+ make()</text>
</a>
</g>
</g>
<!-- Node1&#45;&gt;Node5 -->
<g id="edge4" class="edge"><title>Node1&#45;&gt;Node5</title>
<path fill="none" stroke="midnightblue" d="M705.025,-100.116C688.05,-89.9624 669.352,-78.7779 652.351,-68.609"/>
<polygon fill="none" stroke="midnightblue" points="703.348,-103.191 713.727,-105.321 706.942,-97.1842 703.348,-103.191"/>
</g>
<!-- Node6 -->
<g id="node6" class="node"><title>Node6</title>
<g id="a_node6"><a xlink:href="classtomoBay_1_1presenters_1_1factories_1_1OrderDetailsPresenterFactory.html" target="_top" xlink:title="{OrderDetailsPresenterFactory\n||+ OrderDetailsPresenterFactory()\l+ make()\l}">
<polygon fill="white" stroke="black" points="679.5,-0.5 679.5,-68.5 840.5,-68.5 840.5,-0.5 679.5,-0.5"/>
<text text-anchor="middle" x="760" y="-56.5" font-family="Helvetica,sans-Serif" font-size="10.00">OrderDetailsPresenterFactory</text>
<polyline fill="none" stroke="black" points="679.5,-49.5 840.5,-49.5 "/>
<text text-anchor="middle" x="760" y="-37.5" font-family="Helvetica,sans-Serif" font-size="10.00"> </text>
<polyline fill="none" stroke="black" points="679.5,-30.5 840.5,-30.5 "/>
<text text-anchor="start" x="687.5" y="-18.5" font-family="Helvetica,sans-Serif" font-size="10.00">+ OrderDetailsPresenterFactory()</text>
<text text-anchor="start" x="687.5" y="-7.5" font-family="Helvetica,sans-Serif" font-size="10.00">+ make()</text>
</a>
</g>
</g>
<!-- Node1&#45;&gt;Node6 -->
<g id="edge5" class="edge"><title>Node1&#45;&gt;Node6</title>
<path fill="none" stroke="midnightblue" d="M760,-95.0631C760,-86.3933 760,-77.2431 760,-68.7855"/>
<polygon fill="none" stroke="midnightblue" points="756.5,-95.3212 760,-105.321 763.5,-95.3212 756.5,-95.3212"/>
</g>
<!-- Node7 -->
<g id="node7" class="node"><title>Node7</title>
<g id="a_node7"><a xlink:href="classtomoBay_1_1presenters_1_1factories_1_1OutOfHoursPresenterFactory.html" target="_top" xlink:title="{OutOfHoursPresenterFactory\n||+ make()\l}">
<polygon fill="white" stroke="black" points="859,-6 859,-63 1003,-63 1003,-6 859,-6"/>
<text text-anchor="middle" x="931" y="-51" font-family="Helvetica,sans-Serif" font-size="10.00">OutOfHoursPresenterFactory</text>
<polyline fill="none" stroke="black" points="859,-44 1003,-44 "/>
<text text-anchor="middle" x="931" y="-32" font-family="Helvetica,sans-Serif" font-size="10.00"> </text>
<polyline fill="none" stroke="black" points="859,-25 1003,-25 "/>
<text text-anchor="start" x="867" y="-13" font-family="Helvetica,sans-Serif" font-size="10.00">+ make()</text>
</a>
</g>
</g>
<!-- Node1&#45;&gt;Node7 -->
<g id="edge6" class="edge"><title>Node1&#45;&gt;Node7</title>
<path fill="none" stroke="midnightblue" d="M817.439,-100.25C838.603,-88.1826 862.347,-74.6444 882.63,-63.0791"/>
<polygon fill="none" stroke="midnightblue" points="815.498,-97.3275 808.544,-105.321 818.965,-103.408 815.498,-97.3275"/>
</g>
<!-- Node8 -->
<g id="node8" class="node"><title>Node8</title>
<g id="a_node8"><a xlink:href="classtomoBay_1_1presenters_1_1factories_1_1RootPresenterFactory.html" target="_top" xlink:title="This class is creates an RootPresenter object. ">
<polygon fill="white" stroke="black" points="1021,-0.5 1021,-68.5 1149,-68.5 1149,-0.5 1021,-0.5"/>
<text text-anchor="middle" x="1085" y="-56.5" font-family="Helvetica,sans-Serif" font-size="10.00">RootPresenterFactory</text>
<polyline fill="none" stroke="black" points="1021,-49.5 1149,-49.5 "/>
<text text-anchor="middle" x="1085" y="-37.5" font-family="Helvetica,sans-Serif" font-size="10.00"> </text>
<polyline fill="none" stroke="black" points="1021,-30.5 1149,-30.5 "/>
<text text-anchor="start" x="1029" y="-18.5" font-family="Helvetica,sans-Serif" font-size="10.00">+ RootPresenterFactory()</text>
<text text-anchor="start" x="1029" y="-7.5" font-family="Helvetica,sans-Serif" font-size="10.00">+ make()</text>
</a>
</g>
</g>
<!-- Node1&#45;&gt;Node8 -->
<g id="edge7" class="edge"><title>Node1&#45;&gt;Node8</title>
<path fill="none" stroke="midnightblue" d="M834.033,-117.918C884.81,-106.673 953.343,-89.7143 1012,-69 1014.89,-67.9785 1017.83,-66.8851 1020.78,-65.7398"/>
<polygon fill="none" stroke="midnightblue" points="833.142,-114.53 824.123,-120.09 834.64,-121.368 833.142,-114.53"/>
</g>
<!-- Node9 -->
<g id="node9" class="node"><title>Node9</title>
<g id="a_node9"><a xlink:href="classtomoBay_1_1presenters_1_1factories_1_1SalesHistoryPresenterFactory.html" target="_top" xlink:title="Copyright(C) 2015 Jan P.C. ">
<polygon fill="white" stroke="black" points="1167,-6 1167,-63 1315,-63 1315,-6 1167,-6"/>
<text text-anchor="middle" x="1241" y="-51" font-family="Helvetica,sans-Serif" font-size="10.00">SalesHistoryPresenterFactory</text>
<polyline fill="none" stroke="black" points="1167,-44 1315,-44 "/>
<text text-anchor="middle" x="1241" y="-32" font-family="Helvetica,sans-Serif" font-size="10.00"> </text>
<polyline fill="none" stroke="black" points="1167,-25 1315,-25 "/>
<text text-anchor="start" x="1175" y="-13" font-family="Helvetica,sans-Serif" font-size="10.00">+ make()</text>
</a>
</g>
</g>
<!-- Node1&#45;&gt;Node9 -->
<g id="edge8" class="edge"><title>Node1&#45;&gt;Node9</title>
<path fill="none" stroke="midnightblue" d="M834.086,-126.107C914.824,-117.44 1047.28,-99.8257 1158,-69 1164.14,-67.2913 1170.44,-65.2706 1176.69,-63.0817"/>
<polygon fill="none" stroke="midnightblue" points="833.594,-122.639 824.016,-127.17 834.329,-129.601 833.594,-122.639"/>
</g>
<!-- Node10 -->
<g id="node10" class="node"><title>Node10</title>
<g id="a_node10"><a xlink:href="classtomoBay_1_1presenters_1_1factories_1_1SalesOrderPresenterFactory.html" target="_top" xlink:title="This class is creates an SalesOrderPresenter object. ">
<polygon fill="white" stroke="black" points="1333.5,-0.5 1333.5,-68.5 1488.5,-68.5 1488.5,-0.5 1333.5,-0.5"/>
<text text-anchor="middle" x="1411" y="-56.5" font-family="Helvetica,sans-Serif" font-size="10.00">SalesOrderPresenterFactory</text>
<polyline fill="none" stroke="black" points="1333.5,-49.5 1488.5,-49.5 "/>
<text text-anchor="middle" x="1411" y="-37.5" font-family="Helvetica,sans-Serif" font-size="10.00"> </text>
<polyline fill="none" stroke="black" points="1333.5,-30.5 1488.5,-30.5 "/>
<text text-anchor="start" x="1341.5" y="-18.5" font-family="Helvetica,sans-Serif" font-size="10.00">+ SalesOrderPresenterFactory()</text>
<text text-anchor="start" x="1341.5" y="-7.5" font-family="Helvetica,sans-Serif" font-size="10.00">+ make()</text>
</a>
</g>
</g>
<!-- Node1&#45;&gt;Node10 -->
<g id="edge9" class="edge"><title>Node1&#45;&gt;Node10</title>
<path fill="none" stroke="midnightblue" d="M834.596,-130.564C943.561,-125.656 1152,-111.142 1324,-69 1326.99,-68.2682 1330.01,-67.4605 1333.05,-66.5922"/>
<polygon fill="none" stroke="midnightblue" points="834.204,-127.078 824.366,-131.009 834.509,-134.071 834.204,-127.078"/>
</g>
</g>
</svg>
        <g id="navigator" transform="translate(0 0)" fill="#404254">
                <rect fill="#f2f5e9" fill-opacity="0.5" stroke="#606060" stroke-width=".5" x="0" y="0" width="60" height="60"/>
                <use id="zoomplus" xlink:href="#zoomPlus" x="17" y="9" onmousedown="handleZoom(evt,'in')"/>
                <use id="zoomminus" xlink:href="#zoomMin" x="42" y="9" onmousedown="handleZoom(evt,'out')"/>
                <use id="reset" xlink:href="#resetDef" x="30" y="36" onmousedown="handleReset()"/>
                <g id="arrowUp" xlink:href="#dirArrow" transform="translate(30 24)" onmousedown="handlePan(0,-1)">
                  <use xlink:href="#rim" fill="#404040">
                        <set attributeName="fill" to="#808080" begin="arrowUp.mouseover" end="arrowUp.mouseout"/>
                  </use>
                  <path fill="none" stroke="white" stroke-width="1.5" d="M0,-3.0v7 M-2.5,-0.5L0,-3.0L2.5,-0.5"/>
                </g>
                <g id="arrowRight" xlink:href="#dirArrow" transform="rotate(90) translate(36 -43)" onmousedown="handlePan(1,0)">
                  <use xlink:href="#rim" fill="#404040">
                        <set attributeName="fill" to="#808080" begin="arrowRight.mouseover" end="arrowRight.mouseout"/>
                  </use>
                  <path fill="none" stroke="white" stroke-width="1.5" d="M0,-3.0v7 M-2.5,-0.5L0,-3.0L2.5,-0.5"/>
                </g>
                <g id="arrowDown" xlink:href="#dirArrow" transform="rotate(180) translate(-30 -48)" onmousedown="handlePan(0,1)">
                  <use xlink:href="#rim" fill="#404040">
                        <set attributeName="fill" to="#808080" begin="arrowDown.mouseover" end="arrowDown.mouseout"/>
                  </use>
                  <path fill="none" stroke="white" stroke-width="1.5" d="M0,-3.0v7 M-2.5,-0.5L0,-3.0L2.5,-0.5"/>
                </g>
                <g id="arrowLeft" xlink:href="#dirArrow" transform="rotate(270) translate(-36 17)" onmousedown="handlePan(-1,0)">
                  <use xlink:href="#rim" fill="#404040">
                        <set attributeName="fill" to="#808080" begin="arrowLeft.mouseover" end="arrowLeft.mouseout"/>
                  </use>
                  <path fill="none" stroke="white" stroke-width="1.5" d="M0,-3.0v7 M-2.5,-0.5L0,-3.0L2.5,-0.5"/>
                </g>
        </g>
        <svg viewBox="0 0 15 15" width="100%" height="30px" preserveAspectRatio="xMaxYMin meet">
         <g id="arrow_out" transform="scale(0.3 0.3)">
          <a xlink:href="interfacetomoBay_1_1presenters_1_1factories_1_1AbstractPresenterFactory__inherit__graph_org.svg" target="_base">
           <rect id="button" ry="5" rx="5" y="6" x="6" height="38" width="38"
                fill="#f2f5e9" fill-opacity="0.5" stroke="#606060" stroke-width="1.0"/>
           <path id="arrow"
             d="M 11.500037,31.436501 C 11.940474,20.09759 22.043105,11.32322 32.158766,21.979434 L 37.068811,17.246167 C 37.068811,17.246167 37.088388,32 37.088388,32 L 22.160133,31.978069 C 22.160133,31.978069 26.997745,27.140456 26.997745,27.140456 C 18.528582,18.264221 13.291696,25.230495 11.500037,31.436501 z"
             style="fill:#404040;"/>
          </a>
         </g>
        </svg>
</svg>
