<?xml version="1.0" encoding="UTF-8" standalone="no"?>
<!DOCTYPE svg PUBLIC "-//W3C//DTD SVG 1.1//EN"
 "http://www.w3.org/Graphics/SVG/1.1/DTD/svg11.dtd">
<!-- Generated by graphviz version 2.38.0 (20140413.2041)
 -->
<!-- Title: setBYTEParam Pages: 1 -->
<svg width="761pt" height="1123pt"
 viewBox="0.00 0.00 761.00 1123.00" xmlns="http://www.w3.org/2000/svg" xmlns:xlink="http://www.w3.org/1999/xlink">
<g id="graph0" class="graph" transform="scale(1 1) rotate(0) translate(4 1119)">
<title>setBYTEParam</title>
<polygon fill="white" stroke="none" points="-4,4 -4,-1119 757,-1119 757,4 -4,4"/>
<!-- Node1 -->
<g id="node1" class="node"><title>Node1</title>
<polygon fill="#bfbfbf" stroke="black" points="0,-501.5 0,-520.5 85,-520.5 85,-501.5 0,-501.5"/>
<text text-anchor="middle" x="42.5" y="-508.5" font-family="Helvetica,sans-Serif" font-size="10.00">setBYTEParam</text>
</g>
<!-- Node2 -->
<g id="node2" class="node"><title>Node2</title>
<g id="a_node2"><a xlink:href="classtomoBay_1_1model_1_1sql_1_1framework_1_1QueryUtility.html#a3249b16421a9902f2248cb86d4dd3be3" target="_top" xlink:title="set an Integer parameter for the query object specified. ">
<polygon fill="white" stroke="black" points="121,-501.5 121,-520.5 230,-520.5 230,-501.5 121,-501.5"/>
<text text-anchor="middle" x="175.5" y="-508.5" font-family="Helvetica,sans-Serif" font-size="10.00">setVARCHARParam</text>
</a>
</g>
</g>
<!-- Node1&#45;&gt;Node2 -->
<g id="edge1" class="edge"><title>Node1&#45;&gt;Node2</title>
<path fill="none" stroke="midnightblue" d="M95.5551,-511C103.802,-511 112.346,-511 120.634,-511"/>
<polygon fill="midnightblue" stroke="midnightblue" points="95.3094,-507.5 85.3094,-511 95.3094,-514.5 95.3094,-507.5"/>
</g>
<!-- Node3 -->
<g id="node3" class="node"><title>Node3</title>
<g id="a_node3"><a xlink:href="classtomoBay_1_1model_1_1sql_1_1framework_1_1QueryUtility.html#aca3b74b8ac7e194a86c0b896a674e2f2" target="_top" xlink:title="set an Integer parameter for the query object specified. ">
<polygon fill="white" stroke="black" points="330,-852.5 330,-871.5 434,-871.5 434,-852.5 330,-852.5"/>
<text text-anchor="middle" x="382" y="-859.5" font-family="Helvetica,sans-Serif" font-size="10.00">setINTEGERParam</text>
</a>
</g>
</g>
<!-- Node2&#45;&gt;Node3 -->
<g id="edge2" class="edge"><title>Node2&#45;&gt;Node3</title>
<path fill="none" stroke="midnightblue" d="M175.777,-531.092C174.913,-587.079 180.486,-746.287 266,-831 282.82,-847.663 307.6,-855.621 329.854,-859.329"/>
<polygon fill="midnightblue" stroke="midnightblue" points="179.284,-530.859 176.032,-520.776 172.286,-530.686 179.284,-530.859"/>
</g>
<!-- Node6 -->
<g id="node6" class="node"><title>Node6</title>
<g id="a_node6"><a xlink:href="classtomoBay_1_1model_1_1sql_1_1queries_1_1concreteQueries_1_1update_1_1UpdateInvoiceStatus.html#af9020b85517904668d036bc2bf89433c" target="_top" xlink:title="tomoBay.model.sql.queries.concrete\lQueries.update.UpdateInvoiceStatus.set\lParameters">
<polygon fill="white" stroke="black" points="546.5,-1073.5 546.5,-1114.5 740.5,-1114.5 740.5,-1073.5 546.5,-1073.5"/>
<text text-anchor="start" x="554.5" y="-1102.5" font-family="Helvetica,sans-Serif" font-size="10.00">tomoBay.model.sql.queries.concrete</text>
<text text-anchor="start" x="554.5" y="-1091.5" font-family="Helvetica,sans-Serif" font-size="10.00">Queries.update.UpdateInvoiceStatus.set</text>
<text text-anchor="middle" x="643.5" y="-1080.5" font-family="Helvetica,sans-Serif" font-size="10.00">Parameters</text>
</a>
</g>
</g>
<!-- Node2&#45;&gt;Node6 -->
<g id="edge13" class="edge"><title>Node2&#45;&gt;Node6</title>
<path fill="none" stroke="midnightblue" d="M176.478,-530.695C177.342,-589.414 186.768,-766.299 266,-881 347.975,-999.671 403.167,-1003.29 534,-1064 541.446,-1067.45 549.369,-1070.58 557.412,-1073.4"/>
<polygon fill="midnightblue" stroke="midnightblue" points="179.977,-530.554 176.401,-520.581 172.977,-530.607 179.977,-530.554"/>
</g>
<!-- Node8 -->
<g id="node8" class="node"><title>Node8</title>
<g id="a_node8"><a xlink:href="classtomoBay_1_1model_1_1sql_1_1queries_1_1concreteQueries_1_1insert_1_1InsertEbayItems.html#af9020b85517904668d036bc2bf89433c" target="_top" xlink:title="tomoBay.model.sql.queries.concrete\lQueries.insert.InsertEbayItems.setParameters">
<polygon fill="white" stroke="black" points="534,-806 534,-836 753,-836 753,-806 534,-806"/>
<text text-anchor="start" x="542" y="-824" font-family="Helvetica,sans-Serif" font-size="10.00">tomoBay.model.sql.queries.concrete</text>
<text text-anchor="middle" x="643.5" y="-813" font-family="Helvetica,sans-Serif" font-size="10.00">Queries.insert.InsertEbayItems.setParameters</text>
</a>
</g>
</g>
<!-- Node2&#45;&gt;Node8 -->
<g id="edge18" class="edge"><title>Node2&#45;&gt;Node8</title>
<path fill="none" stroke="midnightblue" d="M176.503,-530.953C177.691,-581.325 188.402,-714.084 266,-777 344.722,-840.827 464.979,-843.785 548.311,-836.009"/>
<polygon fill="midnightblue" stroke="midnightblue" points="180,-530.708 176.371,-520.754 173,-530.798 180,-530.708"/>
</g>
<!-- Node9 -->
<g id="node9" class="node"><title>Node9</title>
<g id="a_node9"><a xlink:href="classtomoBay_1_1model_1_1sql_1_1queries_1_1concreteQueries_1_1insert_1_1InsertEbayOrders.html#af9020b85517904668d036bc2bf89433c" target="_top" xlink:title="tomoBay.model.sql.queries.concrete\lQueries.insert.InsertEbayOrders.set\lParameters">
<polygon fill="white" stroke="black" points="555.5,-746.5 555.5,-787.5 731.5,-787.5 731.5,-746.5 555.5,-746.5"/>
<text text-anchor="start" x="563.5" y="-775.5" font-family="Helvetica,sans-Serif" font-size="10.00">tomoBay.model.sql.queries.concrete</text>
<text text-anchor="start" x="563.5" y="-764.5" font-family="Helvetica,sans-Serif" font-size="10.00">Queries.insert.InsertEbayOrders.set</text>
<text text-anchor="middle" x="643.5" y="-753.5" font-family="Helvetica,sans-Serif" font-size="10.00">Parameters</text>
</a>
</g>
</g>
<!-- Node2&#45;&gt;Node9 -->
<g id="edge17" class="edge"><title>Node2&#45;&gt;Node9</title>
<path fill="none" stroke="midnightblue" d="M177.74,-531.04C181.717,-576.193 198.236,-685.843 266,-736 349.16,-797.552 472.795,-795.018 555.445,-784.005"/>
<polygon fill="midnightblue" stroke="midnightblue" points="181.21,-530.503 176.961,-520.797 174.23,-531.034 181.21,-530.503"/>
</g>
<!-- Node10 -->
<g id="node10" class="node"><title>Node10</title>
<g id="a_node10"><a xlink:href="classtomoBay_1_1model_1_1sql_1_1queries_1_1concreteQueries_1_1insert_1_1InsertEbayTransactions.html#af9020b85517904668d036bc2bf89433c" target="_top" xlink:title="tomoBay.model.sql.queries.concrete\lQueries.insert.InsertEbayTransactions.set\lParameters">
<polygon fill="white" stroke="black" points="543.5,-686.5 543.5,-727.5 743.5,-727.5 743.5,-686.5 543.5,-686.5"/>
<text text-anchor="start" x="551.5" y="-715.5" font-family="Helvetica,sans-Serif" font-size="10.00">tomoBay.model.sql.queries.concrete</text>
<text text-anchor="start" x="551.5" y="-704.5" font-family="Helvetica,sans-Serif" font-size="10.00">Queries.insert.InsertEbayTransactions.set</text>
<text text-anchor="middle" x="643.5" y="-693.5" font-family="Helvetica,sans-Serif" font-size="10.00">Parameters</text>
</a>
</g>
</g>
<!-- Node2&#45;&gt;Node10 -->
<g id="edge19" class="edge"><title>Node2&#45;&gt;Node10</title>
<path fill="none" stroke="midnightblue" d="M178.955,-530.821C185.156,-571.313 205.526,-662.987 266,-702 356.912,-760.649 487.633,-745.556 568.695,-727.556"/>
<polygon fill="midnightblue" stroke="midnightblue" points="182.412,-530.263 177.561,-520.844 175.479,-531.232 182.412,-530.263"/>
</g>
<!-- Node11 -->
<g id="node11" class="node"><title>Node11</title>
<g id="a_node11"><a xlink:href="classtomoBay_1_1model_1_1sql_1_1queries_1_1concreteQueries_1_1select_1_1params_1_1SelectBuyerByAccAndSRN.html#af9020b85517904668d036bc2bf89433c" target="_top" xlink:title="tomoBay.model.sql.queries.concrete\lQueries.select.params.SelectBuyerBy\lAccAndSRN.setParameters">
<polygon fill="white" stroke="black" points="552,-626.5 552,-667.5 735,-667.5 735,-626.5 552,-626.5"/>
<text text-anchor="start" x="560" y="-655.5" font-family="Helvetica,sans-Serif" font-size="10.00">tomoBay.model.sql.queries.concrete</text>
<text text-anchor="start" x="560" y="-644.5" font-family="Helvetica,sans-Serif" font-size="10.00">Queries.select.params.SelectBuyerBy</text>
<text text-anchor="middle" x="643.5" y="-633.5" font-family="Helvetica,sans-Serif" font-size="10.00">AccAndSRN.setParameters</text>
</a>
</g>
</g>
<!-- Node2&#45;&gt;Node11 -->
<g id="edge21" class="edge"><title>Node2&#45;&gt;Node11</title>
<path fill="none" stroke="midnightblue" d="M180.387,-530.71C188.742,-567.086 212.198,-643.976 266,-676 354.604,-728.738 395.394,-686.194 498,-676 516.46,-674.166 536.053,-671.045 554.658,-667.513"/>
<polygon fill="midnightblue" stroke="midnightblue" points="183.784,-529.858 178.262,-520.816 176.94,-531.328 183.784,-529.858"/>
</g>
<!-- Node13 -->
<g id="node13" class="node"><title>Node13</title>
<g id="a_node13"><a xlink:href="classtomoBay_1_1model_1_1sql_1_1queries_1_1concreteQueries_1_1insert_1_1InsertOrderInOrderStatus.html#af9020b85517904668d036bc2bf89433c" target="_top" xlink:title="tomoBay.model.sql.queries.concrete\lQueries.insert.InsertOrderInOrderStatus.set\lParameters">
<polygon fill="white" stroke="black" points="279,-625.5 279,-666.5 485,-666.5 485,-625.5 279,-625.5"/>
<text text-anchor="start" x="287" y="-654.5" font-family="Helvetica,sans-Serif" font-size="10.00">tomoBay.model.sql.queries.concrete</text>
<text text-anchor="start" x="287" y="-643.5" font-family="Helvetica,sans-Serif" font-size="10.00">Queries.insert.InsertOrderInOrderStatus.set</text>
<text text-anchor="middle" x="382" y="-632.5" font-family="Helvetica,sans-Serif" font-size="10.00">Parameters</text>
</a>
</g>
</g>
<!-- Node2&#45;&gt;Node13 -->
<g id="edge12" class="edge"><title>Node2&#45;&gt;Node13</title>
<path fill="none" stroke="midnightblue" d="M186.998,-529.454C201.586,-553.382 230.271,-594.684 266,-617 271.064,-620.163 276.457,-622.982 282.039,-625.494"/>
<polygon fill="midnightblue" stroke="midnightblue" points="189.893,-527.474 181.789,-520.649 183.868,-531.038 189.893,-527.474"/>
</g>
<!-- Node14 -->
<g id="node14" class="node"><title>Node14</title>
<g id="a_node14"><a xlink:href="classtomoBay_1_1model_1_1sql_1_1queries_1_1concreteQueries_1_1update_1_1UpdateItemNote.html#af9020b85517904668d036bc2bf89433c" target="_top" xlink:title="tomoBay.model.sql.queries.concrete\lQueries.update.UpdateItemNote.setParameters">
<polygon fill="white" stroke="black" points="270,-577 270,-607 494,-607 494,-577 270,-577"/>
<text text-anchor="start" x="278" y="-595" font-family="Helvetica,sans-Serif" font-size="10.00">tomoBay.model.sql.queries.concrete</text>
<text text-anchor="middle" x="382" y="-584" font-family="Helvetica,sans-Serif" font-size="10.00">Queries.update.UpdateItemNote.setParameters</text>
</a>
</g>
</g>
<!-- Node2&#45;&gt;Node14 -->
<g id="edge14" class="edge"><title>Node2&#45;&gt;Node14</title>
<path fill="none" stroke="midnightblue" d="M196.705,-526.901C214.12,-539.836 240.426,-557.595 266,-568 274.407,-571.42 283.366,-574.377 292.431,-576.927"/>
<polygon fill="midnightblue" stroke="midnightblue" points="198.541,-523.9 188.46,-520.64 194.308,-529.475 198.541,-523.9"/>
</g>
<!-- Node15 -->
<g id="node15" class="node"><title>Node15</title>
<g id="a_node15"><a xlink:href="classtomoBay_1_1model_1_1sql_1_1queries_1_1concreteQueries_1_1update_1_1UpdateItemBrandAndPartNo.html#af9020b85517904668d036bc2bf89433c" target="_top" xlink:title="tomoBay.model.sql.queries.concrete\lQueries.update.UpdateItemBrandAndPart\lNo.setParameters">
<polygon fill="white" stroke="black" points="283.5,-517.5 283.5,-558.5 480.5,-558.5 480.5,-517.5 283.5,-517.5"/>
<text text-anchor="start" x="291.5" y="-546.5" font-family="Helvetica,sans-Serif" font-size="10.00">tomoBay.model.sql.queries.concrete</text>
<text text-anchor="start" x="291.5" y="-535.5" font-family="Helvetica,sans-Serif" font-size="10.00">Queries.update.UpdateItemBrandAndPart</text>
<text text-anchor="middle" x="382" y="-524.5" font-family="Helvetica,sans-Serif" font-size="10.00">No.setParameters</text>
</a>
</g>
</g>
<!-- Node2&#45;&gt;Node15 -->
<g id="edge15" class="edge"><title>Node2&#45;&gt;Node15</title>
<path fill="none" stroke="midnightblue" d="M240.428,-519.44C254.06,-521.24 268.755,-523.18 283.326,-525.104"/>
<polygon fill="midnightblue" stroke="midnightblue" points="240.602,-515.933 230.23,-518.094 239.686,-522.873 240.602,-515.933"/>
</g>
<!-- Node16 -->
<g id="node16" class="node"><title>Node16</title>
<g id="a_node16"><a xlink:href="classtomoBay_1_1model_1_1sql_1_1queries_1_1concreteQueries_1_1update_1_1UpdateItemError.html#af9020b85517904668d036bc2bf89433c" target="_top" xlink:title="tomoBay.model.sql.queries.concrete\lQueries.update.UpdateItemError.setParameters">
<polygon fill="white" stroke="black" points="270,-469 270,-499 494,-499 494,-469 270,-469"/>
<text text-anchor="start" x="278" y="-487" font-family="Helvetica,sans-Serif" font-size="10.00">tomoBay.model.sql.queries.concrete</text>
<text text-anchor="middle" x="382" y="-476" font-family="Helvetica,sans-Serif" font-size="10.00">Queries.update.UpdateItemError.setParameters</text>
</a>
</g>
</g>
<!-- Node2&#45;&gt;Node16 -->
<g id="edge16" class="edge"><title>Node2&#45;&gt;Node16</title>
<path fill="none" stroke="midnightblue" d="M240.277,-502.58C249.739,-501.33 259.717,-500.013 269.811,-498.68"/>
<polygon fill="midnightblue" stroke="midnightblue" points="239.686,-499.127 230.23,-503.906 240.602,-506.067 239.686,-499.127"/>
</g>
<!-- Node17 -->
<g id="node17" class="node"><title>Node17</title>
<g id="a_node17"><a xlink:href="classtomoBay_1_1model_1_1sql_1_1queries_1_1concreteQueries_1_1update_1_1UpdateEbayBuyer.html#af9020b85517904668d036bc2bf89433c" target="_top" xlink:title="tomoBay.model.sql.queries.concrete\lQueries.update.UpdateEbayBuyer.setParameters">
<polygon fill="white" stroke="black" points="266,-420 266,-450 498,-450 498,-420 266,-420"/>
<text text-anchor="start" x="274" y="-438" font-family="Helvetica,sans-Serif" font-size="10.00">tomoBay.model.sql.queries.concrete</text>
<text text-anchor="middle" x="382" y="-427" font-family="Helvetica,sans-Serif" font-size="10.00">Queries.update.UpdateEbayBuyer.setParameters</text>
</a>
</g>
</g>
<!-- Node2&#45;&gt;Node17 -->
<g id="edge20" class="edge"><title>Node2&#45;&gt;Node17</title>
<path fill="none" stroke="midnightblue" d="M198.507,-495.93C216.072,-484.538 241.683,-469.32 266,-460 275.921,-456.198 286.556,-452.909 297.206,-450.081"/>
<polygon fill="midnightblue" stroke="midnightblue" points="196.515,-493.051 190.104,-501.486 200.376,-498.89 196.515,-493.051"/>
</g>
<!-- Node18 -->
<g id="node18" class="node"><title>Node18</title>
<g id="a_node18"><a xlink:href="classtomoBay_1_1model_1_1sql_1_1queries_1_1concreteQueries_1_1insert_1_1InsertEbayBuyers.html#af9020b85517904668d036bc2bf89433c" target="_top" xlink:title="tomoBay.model.sql.queries.concrete\lQueries.insert.InsertEbayBuyers.set\lParameters">
<polygon fill="white" stroke="black" points="294,-360.5 294,-401.5 470,-401.5 470,-360.5 294,-360.5"/>
<text text-anchor="start" x="302" y="-389.5" font-family="Helvetica,sans-Serif" font-size="10.00">tomoBay.model.sql.queries.concrete</text>
<text text-anchor="start" x="302" y="-378.5" font-family="Helvetica,sans-Serif" font-size="10.00">Queries.insert.InsertEbayBuyers.set</text>
<text text-anchor="middle" x="382" y="-367.5" font-family="Helvetica,sans-Serif" font-size="10.00">Parameters</text>
</a>
</g>
</g>
<!-- Node2&#45;&gt;Node18 -->
<g id="edge22" class="edge"><title>Node2&#45;&gt;Node18</title>
<path fill="none" stroke="midnightblue" d="M187.937,-492.657C203.025,-470.008 231.719,-431.922 266,-411 274.63,-405.733 284.17,-401.383 293.954,-397.792"/>
<polygon fill="midnightblue" stroke="midnightblue" points="184.823,-491.027 182.327,-501.324 190.699,-494.831 184.823,-491.027"/>
</g>
<!-- Node19 -->
<g id="node19" class="node"><title>Node19</title>
<g id="a_node19"><a xlink:href="classtomoBay_1_1model_1_1sql_1_1queries_1_1concreteQueries_1_1select_1_1params_1_1SelectEbayOrderByBuyer.html#af9020b85517904668d036bc2bf89433c" target="_top" xlink:title="tomoBay.model.sql.queries.concrete\lQueries.select.params.SelectEbayOrder\lByBuyer.setParameters">
<polygon fill="white" stroke="black" points="286,-300.5 286,-341.5 478,-341.5 478,-300.5 286,-300.5"/>
<text text-anchor="start" x="294" y="-329.5" font-family="Helvetica,sans-Serif" font-size="10.00">tomoBay.model.sql.queries.concrete</text>
<text text-anchor="start" x="294" y="-318.5" font-family="Helvetica,sans-Serif" font-size="10.00">Queries.select.params.SelectEbayOrder</text>
<text text-anchor="middle" x="382" y="-307.5" font-family="Helvetica,sans-Serif" font-size="10.00">ByBuyer.setParameters</text>
</a>
</g>
</g>
<!-- Node2&#45;&gt;Node19 -->
<g id="edge23" class="edge"><title>Node2&#45;&gt;Node19</title>
<path fill="none" stroke="midnightblue" d="M181.821,-491.682C192.168,-457.828 218.279,-387.882 266,-351 272.041,-346.331 278.737,-342.386 285.774,-339.051"/>
<polygon fill="midnightblue" stroke="midnightblue" points="178.451,-490.737 179.008,-501.318 185.17,-492.699 178.451,-490.737"/>
</g>
<!-- Node20 -->
<g id="node20" class="node"><title>Node20</title>
<g id="a_node20"><a xlink:href="classtomoBay_1_1model_1_1sql_1_1queries_1_1concreteQueries_1_1select_1_1params_1_1SelectTransactionByOrder.html#af9020b85517904668d036bc2bf89433c" target="_top" xlink:title="tomoBay.model.sql.queries.concrete\lQueries.select.params.SelectTransaction\lByOrder.setParameters">
<polygon fill="white" stroke="black" points="283.5,-240.5 283.5,-281.5 480.5,-281.5 480.5,-240.5 283.5,-240.5"/>
<text text-anchor="start" x="291.5" y="-269.5" font-family="Helvetica,sans-Serif" font-size="10.00">tomoBay.model.sql.queries.concrete</text>
<text text-anchor="start" x="291.5" y="-258.5" font-family="Helvetica,sans-Serif" font-size="10.00">Queries.select.params.SelectTransaction</text>
<text text-anchor="middle" x="382" y="-247.5" font-family="Helvetica,sans-Serif" font-size="10.00">ByOrder.setParameters</text>
</a>
</g>
</g>
<!-- Node2&#45;&gt;Node20 -->
<g id="edge24" class="edge"><title>Node2&#45;&gt;Node20</title>
<path fill="none" stroke="midnightblue" d="M178.641,-491.312C184.403,-448.233 204.238,-345.148 266,-291 271.275,-286.375 277.178,-282.45 283.448,-279.119"/>
<polygon fill="midnightblue" stroke="midnightblue" points="175.154,-490.994 177.414,-501.345 182.102,-491.844 175.154,-490.994"/>
</g>
<!-- Node21 -->
<g id="node21" class="node"><title>Node21</title>
<g id="a_node21"><a xlink:href="classtomoBay_1_1model_1_1sql_1_1queries_1_1concreteQueries_1_1select_1_1params_1_1SelectBrandAndPartNoByOrderID.html#af9020b85517904668d036bc2bf89433c" target="_top" xlink:title="tomoBay.model.sql.queries.concrete\lQueries.select.params.SelectBrandAnd\lPartNoByOrderID.setParameters">
<polygon fill="white" stroke="black" points="288,-180.5 288,-221.5 476,-221.5 476,-180.5 288,-180.5"/>
<text text-anchor="start" x="296" y="-209.5" font-family="Helvetica,sans-Serif" font-size="10.00">tomoBay.model.sql.queries.concrete</text>
<text text-anchor="start" x="296" y="-198.5" font-family="Helvetica,sans-Serif" font-size="10.00">Queries.select.params.SelectBrandAnd</text>
<text text-anchor="middle" x="382" y="-187.5" font-family="Helvetica,sans-Serif" font-size="10.00">PartNoByOrderID.setParameters</text>
</a>
</g>
</g>
<!-- Node2&#45;&gt;Node21 -->
<g id="edge25" class="edge"><title>Node2&#45;&gt;Node21</title>
<path fill="none" stroke="midnightblue" d="M176.676,-491.348C178.241,-440.448 189.702,-303.271 266,-231 272.367,-224.97 279.789,-220.115 287.741,-216.211"/>
<polygon fill="midnightblue" stroke="midnightblue" points="173.177,-491.279 176.467,-501.35 180.175,-491.426 173.177,-491.279"/>
</g>
<!-- Node22 -->
<g id="node22" class="node"><title>Node22</title>
<g id="a_node22"><a xlink:href="classtomoBay_1_1model_1_1sql_1_1queries_1_1concreteQueries_1_1select_1_1params_1_1SelectEbayOrderByID.html#af9020b85517904668d036bc2bf89433c" target="_top" xlink:title="tomoBay.model.sql.queries.concrete\lQueries.select.params.SelectEbayOrder\lByID.setParameters">
<polygon fill="white" stroke="black" points="286,-120.5 286,-161.5 478,-161.5 478,-120.5 286,-120.5"/>
<text text-anchor="start" x="294" y="-149.5" font-family="Helvetica,sans-Serif" font-size="10.00">tomoBay.model.sql.queries.concrete</text>
<text text-anchor="start" x="294" y="-138.5" font-family="Helvetica,sans-Serif" font-size="10.00">Queries.select.params.SelectEbayOrder</text>
<text text-anchor="middle" x="382" y="-127.5" font-family="Helvetica,sans-Serif" font-size="10.00">ByID.setParameters</text>
</a>
</g>
</g>
<!-- Node2&#45;&gt;Node22 -->
<g id="edge26" class="edge"><title>Node2&#45;&gt;Node22</title>
<path fill="none" stroke="midnightblue" d="M179.067,-491.275C187.969,-425.827 219.532,-217.365 266,-171 271.769,-165.243 278.496,-160.549 285.748,-156.726"/>
<polygon fill="midnightblue" stroke="midnightblue" points="175.562,-491.077 177.71,-501.451 182.501,-492.002 175.562,-491.077"/>
</g>
<!-- Node23 -->
<g id="node23" class="node"><title>Node23</title>
<g id="a_node23"><a xlink:href="classtomoBay_1_1model_1_1sql_1_1queries_1_1concreteQueries_1_1select_1_1params_1_1SelectEbayBuyer.html#af9020b85517904668d036bc2bf89433c" target="_top" xlink:title="tomoBay.model.sql.queries.concrete\lQueries.select.params.SelectEbayBuyer.set\lParameters">
<polygon fill="white" stroke="black" points="277,-60.5 277,-101.5 487,-101.5 487,-60.5 277,-60.5"/>
<text text-anchor="start" x="285" y="-89.5" font-family="Helvetica,sans-Serif" font-size="10.00">tomoBay.model.sql.queries.concrete</text>
<text text-anchor="start" x="285" y="-78.5" font-family="Helvetica,sans-Serif" font-size="10.00">Queries.select.params.SelectEbayBuyer.set</text>
<text text-anchor="middle" x="382" y="-67.5" font-family="Helvetica,sans-Serif" font-size="10.00">Parameters</text>
</a>
</g>
</g>
<!-- Node2&#45;&gt;Node23 -->
<g id="edge27" class="edge"><title>Node2&#45;&gt;Node23</title>
<path fill="none" stroke="midnightblue" d="M178.239,-491.186C185.024,-418.367 212.043,-166.882 266,-111 269.368,-107.512 273.087,-104.411 277.063,-101.656"/>
<polygon fill="midnightblue" stroke="midnightblue" points="174.741,-491.007 177.323,-501.282 181.713,-491.639 174.741,-491.007"/>
</g>
<!-- Node24 -->
<g id="node24" class="node"><title>Node24</title>
<g id="a_node24"><a xlink:href="classtomoBay_1_1model_1_1sql_1_1queries_1_1concreteQueries_1_1select_1_1params_1_1SelectFullOrderLine.html#af9020b85517904668d036bc2bf89433c" target="_top" xlink:title="tomoBay.model.sql.queries.concrete\lQueries.select.params.SelectFullOrder\lLine.setParameters">
<polygon fill="white" stroke="black" points="289.5,-0.5 289.5,-41.5 474.5,-41.5 474.5,-0.5 289.5,-0.5"/>
<text text-anchor="start" x="297.5" y="-29.5" font-family="Helvetica,sans-Serif" font-size="10.00">tomoBay.model.sql.queries.concrete</text>
<text text-anchor="start" x="297.5" y="-18.5" font-family="Helvetica,sans-Serif" font-size="10.00">Queries.select.params.SelectFullOrder</text>
<text text-anchor="middle" x="382" y="-7.5" font-family="Helvetica,sans-Serif" font-size="10.00">Line.setParameters</text>
</a>
</g>
</g>
<!-- Node2&#45;&gt;Node24 -->
<g id="edge28" class="edge"><title>Node2&#45;&gt;Node24</title>
<path fill="none" stroke="midnightblue" d="M177.602,-491.366C182.449,-412.072 204.43,-116.578 266,-51 272.638,-43.93 280.715,-38.4449 289.478,-34.2009"/>
<polygon fill="midnightblue" stroke="midnightblue" points="174.103,-491.255 177.009,-501.443 181.091,-491.666 174.103,-491.255"/>
</g>
<!-- Node4 -->
<g id="node4" class="node"><title>Node4</title>
<g id="a_node4"><a xlink:href="classtomoBay_1_1model_1_1sql_1_1framework_1_1QueryUtility.html#a2da2ce60a8a037d55bdc69309db4815b" target="_top" xlink:title="private ctor ensures that this class is never instantiated ">
<polygon fill="white" stroke="black" points="609.5,-855.5 609.5,-874.5 677.5,-874.5 677.5,-855.5 609.5,-855.5"/>
<text text-anchor="middle" x="643.5" y="-862.5" font-family="Helvetica,sans-Serif" font-size="10.00">QueryUtility</text>
</a>
</g>
</g>
<!-- Node3&#45;&gt;Node4 -->
<g id="edge3" class="edge"><title>Node3&#45;&gt;Node4</title>
<path fill="none" stroke="midnightblue" d="M444.318,-862.709C495.992,-863.306 567.952,-864.138 609.437,-864.618"/>
<polygon fill="midnightblue" stroke="midnightblue" points="444.309,-859.209 434.269,-862.593 444.228,-866.208 444.309,-859.209"/>
</g>
<!-- Node5 -->
<g id="node5" class="node"><title>Node5</title>
<g id="a_node5"><a xlink:href="classtomoBay_1_1model_1_1sql_1_1queries_1_1concreteQueries_1_1update_1_1UpdateInvoiceStatusSRN.html#af9020b85517904668d036bc2bf89433c" target="_top" xlink:title="tomoBay.model.sql.queries.concrete\lQueries.update.UpdateInvoiceStatusSRN.set\lParameters">
<polygon fill="white" stroke="black" points="536,-1013.5 536,-1054.5 751,-1054.5 751,-1013.5 536,-1013.5"/>
<text text-anchor="start" x="544" y="-1042.5" font-family="Helvetica,sans-Serif" font-size="10.00">tomoBay.model.sql.queries.concrete</text>
<text text-anchor="start" x="544" y="-1031.5" font-family="Helvetica,sans-Serif" font-size="10.00">Queries.update.UpdateInvoiceStatusSRN.set</text>
<text text-anchor="middle" x="643.5" y="-1020.5" font-family="Helvetica,sans-Serif" font-size="10.00">Parameters</text>
</a>
</g>
</g>
<!-- Node3&#45;&gt;Node5 -->
<g id="edge4" class="edge"><title>Node3&#45;&gt;Node5</title>
<path fill="none" stroke="midnightblue" d="M396.663,-879.523C421.006,-909.542 474.903,-970.771 534,-1004 540.303,-1007.54 547.051,-1010.69 553.983,-1013.48"/>
<polygon fill="midnightblue" stroke="midnightblue" points="399.316,-877.235 390.342,-871.603 393.845,-881.602 399.316,-877.235"/>
</g>
<!-- Node3&#45;&gt;Node6 -->
<g id="edge5" class="edge"><title>Node3&#45;&gt;Node6</title>
<path fill="none" stroke="midnightblue" d="M401.627,-878.305C426.16,-900.522 469.519,-942.434 498,-985 519.457,-1017.07 504.651,-1038.95 534,-1064 538.162,-1067.55 542.712,-1070.69 547.515,-1073.45"/>
<polygon fill="midnightblue" stroke="midnightblue" points="403.864,-875.61 394.077,-871.553 399.198,-880.828 403.864,-875.61"/>
</g>
<!-- Node7 -->
<g id="node7" class="node"><title>Node7</title>
<g id="a_node7"><a xlink:href="classtomoBay_1_1model_1_1sql_1_1queries_1_1concreteQueries_1_1insert_1_1InsertOutOfHoursOrders.html#af9020b85517904668d036bc2bf89433c" target="_top" xlink:title="tomoBay.model.sql.queries.concrete\lQueries.insert.InsertOutOfHoursOrders.set\lParameters">
<polygon fill="white" stroke="black" points="542,-953.5 542,-994.5 745,-994.5 745,-953.5 542,-953.5"/>
<text text-anchor="start" x="550" y="-982.5" font-family="Helvetica,sans-Serif" font-size="10.00">tomoBay.model.sql.queries.concrete</text>
<text text-anchor="start" x="550" y="-971.5" font-family="Helvetica,sans-Serif" font-size="10.00">Queries.insert.InsertOutOfHoursOrders.set</text>
<text text-anchor="middle" x="643.5" y="-960.5" font-family="Helvetica,sans-Serif" font-size="10.00">Parameters</text>
</a>
</g>
</g>
<!-- Node3&#45;&gt;Node7 -->
<g id="edge6" class="edge"><title>Node3&#45;&gt;Node7</title>
<path fill="none" stroke="midnightblue" d="M406.474,-876.946C435.489,-894.895 486.823,-924.958 534,-944 542.427,-947.401 551.373,-950.557 560.37,-953.444"/>
<polygon fill="midnightblue" stroke="midnightblue" points="408.207,-873.902 397.871,-871.574 404.499,-879.84 408.207,-873.902"/>
</g>
<!-- Node3&#45;&gt;Node8 -->
<g id="edge7" class="edge"><title>Node3&#45;&gt;Node8</title>
<path fill="none" stroke="midnightblue" d="M444.408,-852.298C475.162,-847.439 513.083,-841.447 547.488,-836.012"/>
<polygon fill="midnightblue" stroke="midnightblue" points="443.6,-848.882 434.269,-853.9 444.693,-855.796 443.6,-848.882"/>
</g>
<!-- Node3&#45;&gt;Node9 -->
<g id="edge8" class="edge"><title>Node3&#45;&gt;Node9</title>
<path fill="none" stroke="midnightblue" d="M411.75,-848.223C441.789,-834.163 490.511,-812.292 534,-797 543.403,-793.694 553.365,-790.514 563.292,-787.542"/>
<polygon fill="midnightblue" stroke="midnightblue" points="410.238,-845.067 402.684,-852.495 413.222,-851.399 410.238,-845.067"/>
</g>
<!-- Node3&#45;&gt;Node10 -->
<g id="edge9" class="edge"><title>Node3&#45;&gt;Node10</title>
<path fill="none" stroke="midnightblue" d="M398.951,-844.755C424.779,-817.842 478.484,-765.946 534,-737 540.759,-733.476 547.976,-730.33 555.356,-727.528"/>
<polygon fill="midnightblue" stroke="midnightblue" points="396.189,-842.582 391.86,-852.252 401.274,-847.392 396.189,-842.582"/>
</g>
<!-- Node3&#45;&gt;Node11 -->
<g id="edge10" class="edge"><title>Node3&#45;&gt;Node11</title>
<path fill="none" stroke="midnightblue" d="M395.567,-843.935C425.068,-802.004 498.9,-699.896 534,-677 539.565,-673.37 545.566,-670.174 551.789,-667.363"/>
<polygon fill="midnightblue" stroke="midnightblue" points="392.692,-841.94 389.823,-852.139 398.426,-845.955 392.692,-841.94"/>
</g>
<!-- Node12 -->
<g id="node12" class="node"><title>Node12</title>
<g id="a_node12"><a xlink:href="classtomoBay_1_1model_1_1sql_1_1queries_1_1concreteQueries_1_1select_1_1params_1_1SelectBrandByInv.html#af9020b85517904668d036bc2bf89433c" target="_top" xlink:title="tomoBay.model.sql.queries.concrete\lQueries.select.params.SelectBrandBy\lInv.setParameters">
<polygon fill="white" stroke="black" points="552,-893.5 552,-934.5 735,-934.5 735,-893.5 552,-893.5"/>
<text text-anchor="start" x="560" y="-922.5" font-family="Helvetica,sans-Serif" font-size="10.00">tomoBay.model.sql.queries.concrete</text>
<text text-anchor="start" x="560" y="-911.5" font-family="Helvetica,sans-Serif" font-size="10.00">Queries.select.params.SelectBrandBy</text>
<text text-anchor="middle" x="643.5" y="-900.5" font-family="Helvetica,sans-Serif" font-size="10.00">Inv.setParameters</text>
</a>
</g>
</g>
<!-- Node3&#45;&gt;Node12 -->
<g id="edge11" class="edge"><title>Node3&#45;&gt;Node12</title>
<path fill="none" stroke="midnightblue" d="M440.442,-873.511C473.15,-880.065 514.862,-888.423 551.885,-895.842"/>
<polygon fill="midnightblue" stroke="midnightblue" points="441.089,-870.071 430.596,-871.538 439.714,-876.934 441.089,-870.071"/>
</g>
</g>
</svg>
