<?xml version="1.0" encoding="UTF-8" standalone="no"?>
<!DOCTYPE svg PUBLIC "-//W3C//DTD SVG 1.1//EN"
 "http://www.w3.org/Graphics/SVG/1.1/DTD/svg11.dtd">
<!-- Generated by graphviz version 2.38.0 (20140413.2041)
 -->
<!-- Title: toString Pages: 1 -->
<svg width="801pt" height="248pt"
 viewBox="0.00 0.00 801.00 247.50" xmlns="http://www.w3.org/2000/svg" xmlns:xlink="http://www.w3.org/1999/xlink">
<g id="graph0" class="graph" transform="scale(1 1) rotate(0) translate(4 243.5)">
<title>toString</title>
<polygon fill="white" stroke="none" points="-4,4 -4,-243.5 797,-243.5 797,4 -4,4"/>
<!-- Node1 -->
<g id="node1" class="node"><title>Node1</title>
<polygon fill="#bfbfbf" stroke="black" points="0,-104 0,-123 50,-123 50,-104 0,-104"/>
<text text-anchor="middle" x="25" y="-111" font-family="Helvetica,sans-Serif" font-size="10.00">toString</text>
</g>
<!-- Node2 -->
<g id="node2" class="node"><title>Node2</title>
<g id="a_node2"><a xlink:href="classtomoBay_1_1model_1_1services_1_1basicEbayUpdateService_1_1OnRunning.html#ae4a4f4cadce2787c7e80005639fbd5d9" target="_top" xlink:title="this method defines what to do in the given derived state ">
<polygon fill="white" stroke="black" points="95.5,-198.5 95.5,-228.5 288.5,-228.5 288.5,-198.5 95.5,-198.5"/>
<text text-anchor="start" x="103.5" y="-216.5" font-family="Helvetica,sans-Serif" font-size="10.00">tomoBay.model.services.basic</text>
<text text-anchor="middle" x="192" y="-205.5" font-family="Helvetica,sans-Serif" font-size="10.00">EbayUpdateService.OnRunning.execute</text>
</a>
</g>
</g>
<!-- Node1&#45;&gt;Node2 -->
<g id="edge1" class="edge"><title>Node1&#45;&gt;Node2</title>
<path fill="none" stroke="midnightblue" d="M36.2811,-132.113C46.635,-149.109 64.1789,-173.633 86,-187.5 92.8155,-191.831 100.304,-195.441 108.047,-198.449"/>
<polygon fill="midnightblue" stroke="midnightblue" points="39.0962,-129.993 31.0377,-123.114 33.0479,-133.517 39.0962,-129.993"/>
</g>
<!-- Node5 -->
<g id="node5" class="node"><title>Node5</title>
<g id="a_node5"><a xlink:href="classtomoBay_1_1model_1_1services_1_1individualItemRefreshService_1_1OnRunning.html#ac963522e7548952e01f9292cf94880ed" target="_top" xlink:title="use the itemID passed in to find out information about a specific eBay item. ">
<polygon fill="white" stroke="black" points="86,-147.5 86,-177.5 298,-177.5 298,-147.5 86,-147.5"/>
<text text-anchor="start" x="94" y="-165.5" font-family="Helvetica,sans-Serif" font-size="10.00">tomoBay.model.services.individual</text>
<text text-anchor="middle" x="192" y="-154.5" font-family="Helvetica,sans-Serif" font-size="10.00">ItemRefreshService.OnRunning.getItemData</text>
</a>
</g>
</g>
<!-- Node1&#45;&gt;Node5 -->
<g id="edge4" class="edge"><title>Node1&#45;&gt;Node5</title>
<path fill="none" stroke="midnightblue" d="M57.1793,-126.978C66.3625,-130.673 76.4973,-134.486 86,-137.5 97.3423,-141.097 109.518,-144.448 121.416,-147.454"/>
<polygon fill="midnightblue" stroke="midnightblue" points="58.2425,-123.631 47.6631,-123.06 55.5769,-130.104 58.2425,-123.631"/>
</g>
<!-- Node8 -->
<g id="node8" class="node"><title>Node8</title>
<g id="a_node8"><a xlink:href="classtomoBay_1_1model_1_1dataTypes_1_1order_1_1Order.html#a1a4a46cf487479c2676b3583be1adfc0" target="_top" xlink:title="initialise this order using the orderID provided ">
<polygon fill="white" stroke="black" points="111.5,-98.5 111.5,-128.5 272.5,-128.5 272.5,-98.5 111.5,-98.5"/>
<text text-anchor="start" x="119.5" y="-116.5" font-family="Helvetica,sans-Serif" font-size="10.00">tomoBay.model.dataTypes.order.</text>
<text text-anchor="middle" x="192" y="-105.5" font-family="Helvetica,sans-Serif" font-size="10.00">Order.Order</text>
</a>
</g>
</g>
<!-- Node1&#45;&gt;Node8 -->
<g id="edge7" class="edge"><title>Node1&#45;&gt;Node8</title>
<path fill="none" stroke="midnightblue" d="M60.5644,-113.5C75.4356,-113.5 93.4885,-113.5 111.362,-113.5"/>
<polygon fill="midnightblue" stroke="midnightblue" points="60.3464,-110 50.3463,-113.5 60.3463,-117 60.3464,-110"/>
</g>
<!-- Node9 -->
<g id="node9" class="node"><title>Node9</title>
<g id="a_node9"><a xlink:href="classtomoBay_1_1presenters_1_1presenterActions_1_1concreteActions_1_1PrintInvoices.html#a3396bf15e4a594abdeb16cb37f076ce2" target="_top" xlink:title="actually send the data to the winstock server to print the invoice ">
<polygon fill="white" stroke="black" points="89.5,-49.5 89.5,-79.5 294.5,-79.5 294.5,-49.5 89.5,-49.5"/>
<text text-anchor="start" x="97.5" y="-67.5" font-family="Helvetica,sans-Serif" font-size="10.00">tomoBay.presenters.presenter</text>
<text text-anchor="middle" x="192" y="-56.5" font-family="Helvetica,sans-Serif" font-size="10.00">Actions.concreteActions.PrintInvoices.print</text>
</a>
</g>
</g>
<!-- Node1&#45;&gt;Node9 -->
<g id="edge8" class="edge"><title>Node1&#45;&gt;Node9</title>
<path fill="none" stroke="midnightblue" d="M55.9109,-99.8622C65.4051,-95.8528 76.029,-91.6912 86,-88.5 96.2404,-85.2225 107.178,-82.2066 117.982,-79.5"/>
<polygon fill="midnightblue" stroke="midnightblue" points="54.2856,-96.7519 46.5007,-103.938 57.068,-103.175 54.2856,-96.7519"/>
</g>
<!-- Node11 -->
<g id="node11" class="node"><title>Node11</title>
<g id="a_node11"><a xlink:href="classtomoBay_1_1model_1_1services_1_1ServiceScheduler.html#a46684698b1c0824da9f966a138908bc8" target="_top" xlink:title="starts the periodic services. ">
<polygon fill="white" stroke="black" points="111.5,-0.5 111.5,-30.5 272.5,-30.5 272.5,-0.5 111.5,-0.5"/>
<text text-anchor="start" x="119.5" y="-18.5" font-family="Helvetica,sans-Serif" font-size="10.00">tomoBay.model.services.Service</text>
<text text-anchor="middle" x="192" y="-7.5" font-family="Helvetica,sans-Serif" font-size="10.00">Scheduler.start</text>
</a>
</g>
</g>
<!-- Node1&#45;&gt;Node11 -->
<g id="edge10" class="edge"><title>Node1&#45;&gt;Node11</title>
<path fill="none" stroke="midnightblue" d="M36.2246,-94.7968C46.5383,-77.7376 64.0548,-53.1702 86,-39.5 93.7772,-34.6554 102.424,-30.7861 111.323,-27.6963"/>
<polygon fill="midnightblue" stroke="midnightblue" points="32.9756,-93.4243 31.0054,-103.834 39.0373,-96.925 32.9756,-93.4243"/>
</g>
<!-- Node3 -->
<g id="node3" class="node"><title>Node3</title>
<g id="a_node3"><a xlink:href="classtomoBay_1_1model_1_1services_1_1basicEbayUpdateService_1_1BasicEbayUpdateService.html#ae3b0a282dcba7f2d675ca89b1dd48487" target="_top" xlink:title="tomoBay.model.services.basic\lEbayUpdateService.BasicEbayUpdate\lService.onRunning">
<polygon fill="white" stroke="black" points="352,-196 352,-237 537,-237 537,-196 352,-196"/>
<text text-anchor="start" x="360" y="-225" font-family="Helvetica,sans-Serif" font-size="10.00">tomoBay.model.services.basic</text>
<text text-anchor="start" x="360" y="-214" font-family="Helvetica,sans-Serif" font-size="10.00">EbayUpdateService.BasicEbayUpdate</text>
<text text-anchor="middle" x="444.5" y="-203" font-family="Helvetica,sans-Serif" font-size="10.00">Service.onRunning</text>
</a>
</g>
</g>
<!-- Node2&#45;&gt;Node3 -->
<g id="edge2" class="edge"><title>Node2&#45;&gt;Node3</title>
<path fill="none" stroke="midnightblue" d="M299.054,-214.77C316.631,-214.981 334.724,-215.197 351.905,-215.403"/>
<polygon fill="midnightblue" stroke="midnightblue" points="298.817,-211.267 288.776,-214.647 298.733,-218.267 298.817,-211.267"/>
</g>
<!-- Node4 -->
<g id="node4" class="node"><title>Node4</title>
<g id="a_node4"><a xlink:href="classtomoBay_1_1model_1_1services_1_1basicEbayUpdateService_1_1BasicEbayUpdateService.html#afd85cd6baa355d54ab15c19c16c21df9" target="_top" xlink:title="tomoBay.model.services.basic\lEbayUpdateService.BasicEbayUpdate\lService.onPaused">
<polygon fill="white" stroke="black" points="599.5,-198 599.5,-239 784.5,-239 784.5,-198 599.5,-198"/>
<text text-anchor="start" x="607.5" y="-227" font-family="Helvetica,sans-Serif" font-size="10.00">tomoBay.model.services.basic</text>
<text text-anchor="start" x="607.5" y="-216" font-family="Helvetica,sans-Serif" font-size="10.00">EbayUpdateService.BasicEbayUpdate</text>
<text text-anchor="middle" x="692" y="-205" font-family="Helvetica,sans-Serif" font-size="10.00">Service.onPaused</text>
</a>
</g>
</g>
<!-- Node3&#45;&gt;Node4 -->
<g id="edge3" class="edge"><title>Node3&#45;&gt;Node4</title>
<path fill="none" stroke="midnightblue" d="M547.339,-217.33C564.58,-217.47 582.387,-217.615 599.347,-217.753"/>
<polygon fill="midnightblue" stroke="midnightblue" points="547.292,-213.829 537.264,-217.248 547.235,-220.829 547.292,-213.829"/>
</g>
<!-- Node6 -->
<g id="node6" class="node"><title>Node6</title>
<g id="a_node6"><a xlink:href="classtomoBay_1_1model_1_1services_1_1individualItemRefreshService_1_1OnRunning.html#ae4a4f4cadce2787c7e80005639fbd5d9" target="_top" xlink:title="this method defines what to do in the given derived state ">
<polygon fill="white" stroke="black" points="348,-144.5 348,-174.5 541,-174.5 541,-144.5 348,-144.5"/>
<text text-anchor="start" x="356" y="-162.5" font-family="Helvetica,sans-Serif" font-size="10.00">tomoBay.model.services.individual</text>
<text text-anchor="middle" x="444.5" y="-151.5" font-family="Helvetica,sans-Serif" font-size="10.00">ItemRefreshService.OnRunning.execute</text>
</a>
</g>
</g>
<!-- Node5&#45;&gt;Node6 -->
<g id="edge5" class="edge"><title>Node5&#45;&gt;Node6</title>
<path fill="none" stroke="midnightblue" d="M308.23,-161.12C321.469,-160.961 334.858,-160.801 347.801,-160.646"/>
<polygon fill="midnightblue" stroke="midnightblue" points="308.103,-157.621 298.146,-161.241 308.187,-164.621 308.103,-157.621"/>
</g>
<!-- Node7 -->
<g id="node7" class="node"><title>Node7</title>
<g id="a_node7"><a xlink:href="classtomoBay_1_1model_1_1services_1_1individualItemRefreshService_1_1IndividualItemRefreshService.html#ae3b0a282dcba7f2d675ca89b1dd48487" target="_top" xlink:title="tomoBay.model.services.individual\lItemRefreshService.IndividualItemRefresh\lService.onRunning">
<polygon fill="white" stroke="black" points="591,-138 591,-179 793,-179 793,-138 591,-138"/>
<text text-anchor="start" x="599" y="-167" font-family="Helvetica,sans-Serif" font-size="10.00">tomoBay.model.services.individual</text>
<text text-anchor="start" x="599" y="-156" font-family="Helvetica,sans-Serif" font-size="10.00">ItemRefreshService.IndividualItemRefresh</text>
<text text-anchor="middle" x="692" y="-145" font-family="Helvetica,sans-Serif" font-size="10.00">Service.onRunning</text>
</a>
</g>
</g>
<!-- Node6&#45;&gt;Node7 -->
<g id="edge6" class="edge"><title>Node6&#45;&gt;Node7</title>
<path fill="none" stroke="midnightblue" d="M551.507,-159.068C564.541,-159.015 577.833,-158.961 590.778,-158.908"/>
<polygon fill="midnightblue" stroke="midnightblue" points="551.105,-155.57 541.12,-159.111 551.134,-162.57 551.105,-155.57"/>
</g>
<!-- Node10 -->
<g id="node10" class="node"><title>Node10</title>
<g id="a_node10"><a xlink:href="classtomoBay_1_1presenters_1_1presenterActions_1_1concreteActions_1_1PrintInvoices.html#adb3dedf31dc2c7fc796f20406c235ccd" target="_top" xlink:title="performs the action specified ">
<polygon fill="white" stroke="black" points="334,-49.5 334,-79.5 555,-79.5 555,-49.5 334,-49.5"/>
<text text-anchor="start" x="342" y="-67.5" font-family="Helvetica,sans-Serif" font-size="10.00">tomoBay.presenters.presenter</text>
<text text-anchor="middle" x="444.5" y="-56.5" font-family="Helvetica,sans-Serif" font-size="10.00">Actions.concreteActions.PrintInvoices.execute</text>
</a>
</g>
</g>
<!-- Node9&#45;&gt;Node10 -->
<g id="edge9" class="edge"><title>Node9&#45;&gt;Node10</title>
<path fill="none" stroke="midnightblue" d="M304.551,-64.5C314.218,-64.5 323.996,-64.5 333.649,-64.5"/>
<polygon fill="midnightblue" stroke="midnightblue" points="304.527,-61.0001 294.527,-64.5 304.527,-68.0001 304.527,-61.0001"/>
</g>
<!-- Node12 -->
<g id="node12" class="node"><title>Node12</title>
<g id="a_node12"><a xlink:href="classtomoBay_1_1MAIN.html#a61e38df44ecd3cfa182ce847a01fa2c7" target="_top" xlink:title="tomoBay.MAIN.main">
<polygon fill="white" stroke="black" points="390.5,-6 390.5,-25 498.5,-25 498.5,-6 390.5,-6"/>
<text text-anchor="middle" x="444.5" y="-13" font-family="Helvetica,sans-Serif" font-size="10.00">tomoBay.MAIN.main</text>
</a>
</g>
</g>
<!-- Node11&#45;&gt;Node12 -->
<g id="edge11" class="edge"><title>Node11&#45;&gt;Node12</title>
<path fill="none" stroke="midnightblue" d="M282.638,-15.5C318.657,-15.5 358.96,-15.5 390.215,-15.5"/>
<polygon fill="midnightblue" stroke="midnightblue" points="282.604,-12.0001 272.604,-15.5 282.604,-19.0001 282.604,-12.0001"/>
</g>
</g>
</svg>
