<?xml version="1.0" encoding="UTF-8" standalone="no"?>
<!DOCTYPE svg PUBLIC "-//W3C//DTD SVG 1.1//EN"
 "http://www.w3.org/Graphics/SVG/1.1/DTD/svg11.dtd">
<!-- Generated by graphviz version 2.38.0 (20140413.2041)
 -->
<!-- Title: setTINYINTParam Pages: 1 -->
<!--zoomable 924 -->
<svg id="main" version="1.1" xmlns="http://www.w3.org/2000/svg" xmlns:xlink="http://www.w3.org/1999/xlink" xml:space="preserve" onload="init(evt)">
<style type="text/css"><![CDATA[
.edge:hover path { stroke: red; }
.edge:hover polygon { stroke: red; fill: red; }
]]></style>
<script type="text/javascript"><![CDATA[
var edges = document.getElementsByTagName('g');
if (edges && edges.length) {
  for (var i=0;i<edges.length;i++) {
    if (edges[i].id.substr(0,4)=='edge') {
      edges[i].setAttribute('class','edge');
    }
  }
}
]]></script>
        <defs>
                <circle id="rim" cx="0" cy="0" r="7"/>
                <circle id="rim2" cx="0" cy="0" r="3.5"/>
                <g id="zoomPlus">
                        <use xlink:href="#rim" fill="#404040">
                                <set attributeName="fill" to="#808080" begin="zoomplus.mouseover" end="zoomplus.mouseout"/>
                        </use>
                        <path d="M-4,0h8M0,-4v8" fill="none" stroke="white" stroke-width="1.5" pointer-events="none"/>
                </g>
                <g id="zoomMin">
                        <use xlink:href="#rim" fill="#404040">
                                <set attributeName="fill" to="#808080" begin="zoomminus.mouseover" end="zoomminus.mouseout"/>
                        </use>
                        <path d="M-4,0h8" fill="none" stroke="white" stroke-width="1.5" pointer-events="none"/>
                </g>
                <g id="dirArrow">
                        <path fill="none" stroke="white" stroke-width="1.5" d="M0,-3.0v7 M-2.5,-0.5L0,-3.0L2.5,-0.5"/>
                </g>
               <g id="resetDef">
                       <use xlink:href="#rim2" fill="#404040">
                               <set attributeName="fill" to="#808080" begin="reset.mouseover" end="reset.mouseout"/>
                       </use>
               </g>
        </defs>

<script type="text/javascript">
var viewWidth = 1157;
var viewHeight = 924;
var sectionId = 'dynsection-11';
</script>
<script xlink:href="svgpan.js"/>
<svg id="graph" class="graph">
<g id="viewport">
<title>setTINYINTParam</title>
<polygon fill="white" stroke="none" points="-4,4 -4,-920.441 1153,-920.441 1153,4 -4,4"/>
<!-- Node1 -->
<g id="node1" class="node"><title>Node1</title>
<polygon fill="#bfbfbf" stroke="black" points="0,-242 0,-261 98,-261 98,-242 0,-242"/>
<text text-anchor="middle" x="49" y="-249" font-family="Helvetica,sans-Serif" font-size="10.00">setTINYINTParam</text>
</g>
<!-- Node2 -->
<g id="node2" class="node"><title>Node2</title>
<g id="a_node2"><a xlink:href="classtomoBay_1_1model_1_1sql_1_1framework_1_1QueryUtility.html#a138f0c046bc0a6df71b168ab35c3c3e3" target="_top" xlink:title="set an Integer parameter for the query object specified. ">
<polygon fill="white" stroke="black" points="134,-242 134,-261 226,-261 226,-242 134,-242"/>
<text text-anchor="middle" x="180" y="-249" font-family="Helvetica,sans-Serif" font-size="10.00">setBIGINTParam</text>
</a>
</g>
</g>
<!-- Node1&#45;&gt;Node2 -->
<g id="edge1" class="edge"><title>Node1&#45;&gt;Node2</title>
<path fill="none" stroke="midnightblue" d="M108.095,-251.5C116.757,-251.5 125.575,-251.5 133.916,-251.5"/>
<polygon fill="midnightblue" stroke="midnightblue" points="108.035,-248 98.0348,-251.5 108.035,-255 108.035,-248"/>
</g>
<!-- Node3 -->
<g id="node3" class="node"><title>Node3</title>
<g id="a_node3"><a xlink:href="classtomoBay_1_1model_1_1sql_1_1framework_1_1QueryUtility.html#a50955d4f51a1a7a88ef0c8aadbe9c793" target="_top" xlink:title="set an Integer parameter for the query object specified. ">
<polygon fill="white" stroke="black" points="329,-373 329,-392 414,-392 414,-373 329,-373"/>
<text text-anchor="middle" x="371.5" y="-380" font-family="Helvetica,sans-Serif" font-size="10.00">setBYTEParam</text>
</a>
</g>
</g>
<!-- Node2&#45;&gt;Node3 -->
<g id="edge2" class="edge"><title>Node2&#45;&gt;Node3</title>
<path fill="none" stroke="midnightblue" d="M203.624,-267.14C243.25,-294.533 324.081,-350.411 356.545,-372.853"/>
<polygon fill="midnightblue" stroke="midnightblue" points="205.151,-263.94 194.934,-261.133 201.17,-269.698 205.151,-263.94"/>
</g>
<!-- Node10 -->
<g id="node10" class="node"><title>Node10</title>
<g id="a_node10"><a xlink:href="classtomoBay_1_1model_1_1sql_1_1queries_1_1concreteQueries_1_1insert_1_1InsertEbayItems.html#af9020b85517904668d036bc2bf89433c" target="_top" xlink:title="tomoBay.model.sql.queries.concrete\lQueries.insert.InsertEbayItems.setParameters">
<polygon fill="white" stroke="black" points="930,-877.5 930,-907.5 1149,-907.5 1149,-877.5 930,-877.5"/>
<text text-anchor="start" x="938" y="-895.5" font-family="Helvetica,sans-Serif" font-size="10.00">tomoBay.model.sql.queries.concrete</text>
<text text-anchor="middle" x="1039.5" y="-884.5" font-family="Helvetica,sans-Serif" font-size="10.00">Queries.insert.InsertEbayItems.setParameters</text>
</a>
</g>
</g>
<!-- Node2&#45;&gt;Node10 -->
<g id="edge33" class="edge"><title>Node2&#45;&gt;Node10</title>
<path fill="none" stroke="midnightblue" d="M181.595,-271.228C184.065,-325.855 196.77,-482.135 262,-589.5 339.872,-717.672 391.942,-727.72 517,-810.5 576.835,-850.106 592.34,-864.285 662,-881.5 750.241,-903.307 853.656,-904.676 929.752,-901.372"/>
<polygon fill="midnightblue" stroke="midnightblue" points="185.09,-271.027 181.208,-261.169 178.095,-271.296 185.09,-271.027"/>
</g>
<!-- Node12 -->
<g id="node12" class="node"><title>Node12</title>
<g id="a_node12"><a xlink:href="classtomoBay_1_1model_1_1sql_1_1queries_1_1concreteQueries_1_1insert_1_1InsertEbayTransactions.html#af9020b85517904668d036bc2bf89433c" target="_top" xlink:title="tomoBay.model.sql.queries.concrete\lQueries.insert.InsertEbayTransactions.set\lParameters">
<polygon fill="white" stroke="black" points="939.5,-818 939.5,-859 1139.5,-859 1139.5,-818 939.5,-818"/>
<text text-anchor="start" x="947.5" y="-847" font-family="Helvetica,sans-Serif" font-size="10.00">tomoBay.model.sql.queries.concrete</text>
<text text-anchor="start" x="947.5" y="-836" font-family="Helvetica,sans-Serif" font-size="10.00">Queries.insert.InsertEbayTransactions.set</text>
<text text-anchor="middle" x="1039.5" y="-825" font-family="Helvetica,sans-Serif" font-size="10.00">Parameters</text>
</a>
</g>
</g>
<!-- Node2&#45;&gt;Node12 -->
<g id="edge35" class="edge"><title>Node2&#45;&gt;Node12</title>
<path fill="none" stroke="midnightblue" d="M188.436,-270.601C224.124,-359.158 387.512,-730.693 662,-854.5 761.893,-899.557 892.248,-878.803 970.438,-859.069"/>
<polygon fill="midnightblue" stroke="midnightblue" points="191.662,-269.242 184.718,-261.24 185.156,-271.826 191.662,-269.242"/>
</g>
<!-- Node16 -->
<g id="node16" class="node"><title>Node16</title>
<g id="a_node16"><a xlink:href="classtomoBay_1_1model_1_1sql_1_1queries_1_1concreteQueries_1_1update_1_1UpdateItemNote.html#af9020b85517904668d036bc2bf89433c" target="_top" xlink:title="tomoBay.model.sql.queries.concrete\lQueries.update.UpdateItemNote.setParameters">
<polygon fill="white" stroke="black" points="666,-108.5 666,-138.5 890,-138.5 890,-108.5 666,-108.5"/>
<text text-anchor="start" x="674" y="-126.5" font-family="Helvetica,sans-Serif" font-size="10.00">tomoBay.model.sql.queries.concrete</text>
<text text-anchor="middle" x="778" y="-115.5" font-family="Helvetica,sans-Serif" font-size="10.00">Queries.update.UpdateItemNote.setParameters</text>
</a>
</g>
</g>
<!-- Node2&#45;&gt;Node16 -->
<g id="edge31" class="edge"><title>Node2&#45;&gt;Node16</title>
<path fill="none" stroke="midnightblue" d="M218.465,-264.018C300.861,-289.026 500.444,-335.498 626,-246.5 664.196,-219.425 626.613,-178.156 662,-147.5 665.931,-144.095 670.22,-141.13 674.756,-138.551"/>
<polygon fill="midnightblue" stroke="midnightblue" points="219.369,-260.634 208.781,-261.012 217.294,-267.319 219.369,-260.634"/>
</g>
<!-- Node17 -->
<g id="node17" class="node"><title>Node17</title>
<g id="a_node17"><a xlink:href="classtomoBay_1_1model_1_1sql_1_1queries_1_1concreteQueries_1_1update_1_1UpdateItemBrandAndPartNo.html#af9020b85517904668d036bc2bf89433c" target="_top" xlink:title="tomoBay.model.sql.queries.concrete\lQueries.update.UpdateItemBrandAndPart\lNo.setParameters">
<polygon fill="white" stroke="black" points="679.5,-49 679.5,-90 876.5,-90 876.5,-49 679.5,-49"/>
<text text-anchor="start" x="687.5" y="-78" font-family="Helvetica,sans-Serif" font-size="10.00">tomoBay.model.sql.queries.concrete</text>
<text text-anchor="start" x="687.5" y="-67" font-family="Helvetica,sans-Serif" font-size="10.00">Queries.update.UpdateItemBrandAndPart</text>
<text text-anchor="middle" x="778" y="-56" font-family="Helvetica,sans-Serif" font-size="10.00">No.setParameters</text>
</a>
</g>
</g>
<!-- Node2&#45;&gt;Node17 -->
<g id="edge32" class="edge"><title>Node2&#45;&gt;Node17</title>
<path fill="none" stroke="midnightblue" d="M236.248,-253.423C341.864,-255.956 567.166,-255.502 626,-208.5 665.86,-176.656 624.792,-134.406 662,-99.5 667.192,-94.6296 673.072,-90.527 679.363,-87.0738"/>
<polygon fill="midnightblue" stroke="midnightblue" points="236.192,-249.92 226.105,-253.161 236.012,-256.918 236.192,-249.92"/>
</g>
<!-- Node18 -->
<g id="node18" class="node"><title>Node18</title>
<g id="a_node18"><a xlink:href="classtomoBay_1_1model_1_1sql_1_1queries_1_1concreteQueries_1_1update_1_1UpdateItemError.html#af9020b85517904668d036bc2bf89433c" target="_top" xlink:title="tomoBay.model.sql.queries.concrete\lQueries.update.UpdateItemError.setParameters">
<polygon fill="white" stroke="black" points="666,-0.5 666,-30.5 890,-30.5 890,-0.5 666,-0.5"/>
<text text-anchor="start" x="674" y="-18.5" font-family="Helvetica,sans-Serif" font-size="10.00">tomoBay.model.sql.queries.concrete</text>
<text text-anchor="middle" x="778" y="-7.5" font-family="Helvetica,sans-Serif" font-size="10.00">Queries.update.UpdateItemError.setParameters</text>
</a>
</g>
</g>
<!-- Node2&#45;&gt;Node18 -->
<g id="edge34" class="edge"><title>Node2&#45;&gt;Node18</title>
<path fill="none" stroke="midnightblue" d="M236.059,-244.24C297.986,-234.582 400.426,-214.05 481,-175.5 571.769,-132.073 570.332,-80.9945 662,-39.5 669.618,-36.0516 677.746,-33.0922 686.024,-30.5536"/>
<polygon fill="midnightblue" stroke="midnightblue" points="235.465,-240.79 226.104,-245.753 236.517,-247.711 235.465,-240.79"/>
</g>
<!-- Node27 -->
<g id="node27" class="node"><title>Node27</title>
<g id="a_node27"><a xlink:href="classtomoBay_1_1model_1_1sql_1_1queries_1_1concreteQueries_1_1select_1_1params_1_1SelectEbayTransactionByID.html#af9020b85517904668d036bc2bf89433c" target="_top" xlink:title="tomoBay.model.sql.queries.concrete\lQueries.select.params.SelectEbayTransaction\lByID.setParameters">
<polygon fill="white" stroke="black" points="262,-125 262,-166 481,-166 481,-125 262,-125"/>
<text text-anchor="start" x="270" y="-154" font-family="Helvetica,sans-Serif" font-size="10.00">tomoBay.model.sql.queries.concrete</text>
<text text-anchor="start" x="270" y="-143" font-family="Helvetica,sans-Serif" font-size="10.00">Queries.select.params.SelectEbayTransaction</text>
<text text-anchor="middle" x="371.5" y="-132" font-family="Helvetica,sans-Serif" font-size="10.00">ByID.setParameters</text>
</a>
</g>
</g>
<!-- Node2&#45;&gt;Node27 -->
<g id="edge36" class="edge"><title>Node2&#45;&gt;Node27</title>
<path fill="none" stroke="midnightblue" d="M196.605,-234.26C211.881,-218.312 236.512,-194.954 262,-180.5 271.728,-174.984 282.446,-170.197 293.245,-166.088"/>
<polygon fill="midnightblue" stroke="midnightblue" points="193.791,-232.145 189.515,-241.838 198.903,-236.927 193.791,-232.145"/>
</g>
<!-- Node28 -->
<g id="node28" class="node"><title>Node28</title>
<g id="a_node28"><a xlink:href="classtomoBay_1_1model_1_1sql_1_1queries_1_1concreteQueries_1_1select_1_1params_1_1SelectEbayItemSpecific.html#af9020b85517904668d036bc2bf89433c" target="_top" xlink:title="tomoBay.model.sql.queries.concrete\lQueries.select.params.SelectEbayItem\lSpecific.setParameters">
<polygon fill="white" stroke="black" points="277.5,-65 277.5,-106 465.5,-106 465.5,-65 277.5,-65"/>
<text text-anchor="start" x="285.5" y="-94" font-family="Helvetica,sans-Serif" font-size="10.00">tomoBay.model.sql.queries.concrete</text>
<text text-anchor="start" x="285.5" y="-83" font-family="Helvetica,sans-Serif" font-size="10.00">Queries.select.params.SelectEbayItem</text>
<text text-anchor="middle" x="371.5" y="-72" font-family="Helvetica,sans-Serif" font-size="10.00">Specific.setParameters</text>
</a>
</g>
</g>
<!-- Node2&#45;&gt;Node28 -->
<g id="edge37" class="edge"><title>Node2&#45;&gt;Node28</title>
<path fill="none" stroke="midnightblue" d="M187.168,-232.299C197.681,-202.682 221.913,-146.081 262,-115.5 266.739,-111.885 271.889,-108.705 277.285,-105.908"/>
<polygon fill="midnightblue" stroke="midnightblue" points="183.812,-231.298 183.912,-241.892 190.441,-233.548 183.812,-231.298"/>
</g>
<!-- Node4 -->
<g id="node4" class="node"><title>Node4</title>
<g id="a_node4"><a xlink:href="classtomoBay_1_1model_1_1sql_1_1framework_1_1QueryUtility.html#a3249b16421a9902f2248cb86d4dd3be3" target="_top" xlink:title="set an Integer parameter for the query object specified. ">
<polygon fill="white" stroke="black" points="517,-446 517,-465 626,-465 626,-446 517,-446"/>
<text text-anchor="middle" x="571.5" y="-453" font-family="Helvetica,sans-Serif" font-size="10.00">setVARCHARParam</text>
</a>
</g>
</g>
<!-- Node3&#45;&gt;Node4 -->
<g id="edge3" class="edge"><title>Node3&#45;&gt;Node4</title>
<path fill="none" stroke="midnightblue" d="M407.841,-395.53C447.123,-410.012 509.623,-433.056 544.609,-445.954"/>
<polygon fill="midnightblue" stroke="midnightblue" points="408.978,-392.219 398.385,-392.043 406.557,-398.787 408.978,-392.219"/>
</g>
<!-- Node5 -->
<g id="node5" class="node"><title>Node5</title>
<g id="a_node5"><a xlink:href="classtomoBay_1_1model_1_1sql_1_1framework_1_1QueryUtility.html#aca3b74b8ac7e194a86c0b896a674e2f2" target="_top" xlink:title="set an Integer parameter for the query object specified. ">
<polygon fill="white" stroke="black" points="726,-641 726,-660 830,-660 830,-641 726,-641"/>
<text text-anchor="middle" x="778" y="-648" font-family="Helvetica,sans-Serif" font-size="10.00">setINTEGERParam</text>
</a>
</g>
</g>
<!-- Node4&#45;&gt;Node5 -->
<g id="edge4" class="edge"><title>Node4&#45;&gt;Node5</title>
<path fill="none" stroke="midnightblue" d="M576.843,-474.875C585.961,-510.817 610.641,-587.685 662,-626.5 680.142,-640.211 704.297,-646.532 725.784,-649.298"/>
<polygon fill="midnightblue" stroke="midnightblue" points="580.239,-474.028 574.5,-465.122 573.433,-475.663 580.239,-474.028"/>
</g>
<!-- Node8 -->
<g id="node8" class="node"><title>Node8</title>
<g id="a_node8"><a xlink:href="classtomoBay_1_1model_1_1sql_1_1queries_1_1concreteQueries_1_1update_1_1UpdateInvoiceStatus.html#af9020b85517904668d036bc2bf89433c" target="_top" xlink:title="tomoBay.model.sql.queries.concrete\lQueries.update.UpdateInvoiceStatus.set\lParameters">
<polygon fill="white" stroke="black" points="942.5,-743 942.5,-784 1136.5,-784 1136.5,-743 942.5,-743"/>
<text text-anchor="start" x="950.5" y="-772" font-family="Helvetica,sans-Serif" font-size="10.00">tomoBay.model.sql.queries.concrete</text>
<text text-anchor="start" x="950.5" y="-761" font-family="Helvetica,sans-Serif" font-size="10.00">Queries.update.UpdateInvoiceStatus.set</text>
<text text-anchor="middle" x="1039.5" y="-750" font-family="Helvetica,sans-Serif" font-size="10.00">Parameters</text>
</a>
</g>
</g>
<!-- Node4&#45;&gt;Node8 -->
<g id="edge15" class="edge"><title>Node4&#45;&gt;Node8</title>
<path fill="none" stroke="midnightblue" d="M574.466,-475.087C579.875,-517.864 599.048,-619.778 662,-669.5 743.994,-734.262 797.517,-667.398 894,-707.5 912.225,-715.075 912.208,-724.958 930,-733.5 937.223,-736.968 944.916,-740.095 952.743,-742.901"/>
<polygon fill="midnightblue" stroke="midnightblue" points="577.939,-474.652 573.324,-465.115 570.984,-475.449 577.939,-474.652"/>
</g>
<!-- Node4&#45;&gt;Node10 -->
<g id="edge20" class="edge"><title>Node4&#45;&gt;Node10</title>
<path fill="none" stroke="midnightblue" d="M573.977,-475.546C579.838,-549.177 604.014,-803.089 662,-854.5 745.692,-928.701 884.584,-921.016 968.241,-907.541"/>
<polygon fill="midnightblue" stroke="midnightblue" points="577.449,-475.037 573.192,-465.335 570.469,-475.574 577.449,-475.037"/>
</g>
<!-- Node11 -->
<g id="node11" class="node"><title>Node11</title>
<g id="a_node11"><a xlink:href="classtomoBay_1_1model_1_1sql_1_1queries_1_1concreteQueries_1_1insert_1_1InsertEbayOrders.html#af9020b85517904668d036bc2bf89433c" target="_top" xlink:title="tomoBay.model.sql.queries.concrete\lQueries.insert.InsertEbayOrders.set\lParameters">
<polygon fill="white" stroke="black" points="951.5,-465 951.5,-506 1127.5,-506 1127.5,-465 951.5,-465"/>
<text text-anchor="start" x="959.5" y="-494" font-family="Helvetica,sans-Serif" font-size="10.00">tomoBay.model.sql.queries.concrete</text>
<text text-anchor="start" x="959.5" y="-483" font-family="Helvetica,sans-Serif" font-size="10.00">Queries.insert.InsertEbayOrders.set</text>
<text text-anchor="middle" x="1039.5" y="-472" font-family="Helvetica,sans-Serif" font-size="10.00">Parameters</text>
</a>
</g>
</g>
<!-- Node4&#45;&gt;Node11 -->
<g id="edge19" class="edge"><title>Node4&#45;&gt;Node11</title>
<path fill="none" stroke="midnightblue" d="M578.437,-475.092C589.214,-506.742 615.315,-568.134 662,-593.5 707.3,-618.114 850.573,-621.286 894,-593.5 926.161,-572.922 900.898,-540.216 930,-515.5 936.405,-510.06 943.72,-505.601 951.458,-501.947"/>
<polygon fill="midnightblue" stroke="midnightblue" points="581.66,-473.684 575.255,-465.245 574.999,-475.836 581.66,-473.684"/>
</g>
<!-- Node4&#45;&gt;Node12 -->
<g id="edge21" class="edge"><title>Node4&#45;&gt;Node12</title>
<path fill="none" stroke="midnightblue" d="M574.168,-475.22C580.551,-545.505 605.944,-781.989 662,-827.5 702.994,-860.783 842.106,-856.45 939.224,-848.716"/>
<polygon fill="midnightblue" stroke="midnightblue" points="577.639,-474.743 573.276,-465.089 570.666,-475.357 577.639,-474.743"/>
</g>
<!-- Node13 -->
<g id="node13" class="node"><title>Node13</title>
<g id="a_node13"><a xlink:href="classtomoBay_1_1model_1_1sql_1_1queries_1_1concreteQueries_1_1select_1_1params_1_1SelectBuyerByAccAndSRN.html#af9020b85517904668d036bc2bf89433c" target="_top" xlink:title="tomoBay.model.sql.queries.concrete\lQueries.select.params.SelectBuyerBy\lAccAndSRN.setParameters">
<polygon fill="white" stroke="black" points="948,-373 948,-414 1131,-414 1131,-373 948,-373"/>
<text text-anchor="start" x="956" y="-402" font-family="Helvetica,sans-Serif" font-size="10.00">tomoBay.model.sql.queries.concrete</text>
<text text-anchor="start" x="956" y="-391" font-family="Helvetica,sans-Serif" font-size="10.00">Queries.select.params.SelectBuyerBy</text>
<text text-anchor="middle" x="1039.5" y="-380" font-family="Helvetica,sans-Serif" font-size="10.00">AccAndSRN.setParameters</text>
</a>
</g>
</g>
<!-- Node4&#45;&gt;Node13 -->
<g id="edge23" class="edge"><title>Node4&#45;&gt;Node13</title>
<path fill="none" stroke="midnightblue" d="M583.911,-437.299C598.797,-415.471 627.105,-380.011 662,-365.5 766.852,-321.898 902.223,-350.136 978.782,-372.947"/>
<polygon fill="midnightblue" stroke="midnightblue" points="580.944,-435.441 578.373,-445.719 586.792,-439.288 580.944,-435.441"/>
</g>
<!-- Node15 -->
<g id="node15" class="node"><title>Node15</title>
<g id="a_node15"><a xlink:href="classtomoBay_1_1model_1_1sql_1_1queries_1_1concreteQueries_1_1insert_1_1InsertOrderInOrderStatus.html#af9020b85517904668d036bc2bf89433c" target="_top" xlink:title="tomoBay.model.sql.queries.concrete\lQueries.insert.InsertOrderInOrderStatus.set\lParameters">
<polygon fill="white" stroke="black" points="675,-543 675,-584 881,-584 881,-543 675,-543"/>
<text text-anchor="start" x="683" y="-572" font-family="Helvetica,sans-Serif" font-size="10.00">tomoBay.model.sql.queries.concrete</text>
<text text-anchor="start" x="683" y="-561" font-family="Helvetica,sans-Serif" font-size="10.00">Queries.insert.InsertOrderInOrderStatus.set</text>
<text text-anchor="middle" x="778" y="-550" font-family="Helvetica,sans-Serif" font-size="10.00">Parameters</text>
</a>
</g>
</g>
<!-- Node4&#45;&gt;Node15 -->
<g id="edge14" class="edge"><title>Node4&#45;&gt;Node15</title>
<path fill="none" stroke="midnightblue" d="M587.249,-472.668C603.693,-490.721 631.95,-518.661 662,-534.5 667.92,-537.62 674.19,-540.416 680.626,-542.919"/>
<polygon fill="midnightblue" stroke="midnightblue" points="589.823,-470.295 580.562,-465.148 584.592,-474.946 589.823,-470.295"/>
</g>
<!-- Node4&#45;&gt;Node16 -->
<g id="edge16" class="edge"><title>Node4&#45;&gt;Node16</title>
<path fill="none" stroke="midnightblue" d="M578.864,-436.184C589.198,-404.596 610.077,-339.855 626,-284.5 643.404,-223.997 616.358,-190.862 662,-147.5 665.549,-144.129 669.443,-141.178 673.586,-138.6"/>
<polygon fill="midnightblue" stroke="midnightblue" points="575.466,-435.312 575.673,-445.905 582.117,-437.495 575.466,-435.312"/>
</g>
<!-- Node4&#45;&gt;Node17 -->
<g id="edge17" class="edge"><title>Node4&#45;&gt;Node17</title>
<path fill="none" stroke="midnightblue" d="M577.565,-435.996C587.144,-399.05 608.519,-316.304 626,-246.5 642.34,-181.251 614.796,-147.418 662,-99.5 667.14,-94.2818 673.067,-89.9339 679.462,-86.3154"/>
<polygon fill="midnightblue" stroke="midnightblue" points="574.112,-435.368 574.989,-445.926 580.888,-437.126 574.112,-435.368"/>
</g>
<!-- Node4&#45;&gt;Node18 -->
<g id="edge18" class="edge"><title>Node4&#45;&gt;Node18</title>
<path fill="none" stroke="midnightblue" d="M576.83,-435.619C585.964,-393.663 607.852,-292.984 626,-208.5 642.129,-133.416 607.585,-93.6907 662,-39.5 665.396,-36.1179 669.138,-33.1545 673.133,-30.5614"/>
<polygon fill="midnightblue" stroke="midnightblue" points="573.361,-435.104 574.653,-445.62 580.2,-436.593 573.361,-435.104"/>
</g>
<!-- Node19 -->
<g id="node19" class="node"><title>Node19</title>
<g id="a_node19"><a xlink:href="classtomoBay_1_1model_1_1sql_1_1queries_1_1concreteQueries_1_1update_1_1UpdateEbayBuyer.html#af9020b85517904668d036bc2bf89433c" target="_top" xlink:title="tomoBay.model.sql.queries.concrete\lQueries.update.UpdateEbayBuyer.setParameters">
<polygon fill="white" stroke="black" points="662,-494.5 662,-524.5 894,-524.5 894,-494.5 662,-494.5"/>
<text text-anchor="start" x="670" y="-512.5" font-family="Helvetica,sans-Serif" font-size="10.00">tomoBay.model.sql.queries.concrete</text>
<text text-anchor="middle" x="778" y="-501.5" font-family="Helvetica,sans-Serif" font-size="10.00">Queries.update.UpdateEbayBuyer.setParameters</text>
</a>
</g>
</g>
<!-- Node4&#45;&gt;Node19 -->
<g id="edge22" class="edge"><title>Node4&#45;&gt;Node19</title>
<path fill="none" stroke="midnightblue" d="M608.154,-468.524C624.437,-474.193 644.054,-480.638 662,-485.5 673.811,-488.7 686.403,-491.719 698.761,-494.465"/>
<polygon fill="midnightblue" stroke="midnightblue" points="609.085,-465.141 598.491,-465.115 606.757,-471.742 609.085,-465.141"/>
</g>
<!-- Node20 -->
<g id="node20" class="node"><title>Node20</title>
<g id="a_node20"><a xlink:href="classtomoBay_1_1model_1_1sql_1_1queries_1_1concreteQueries_1_1insert_1_1InsertEbayBuyers.html#af9020b85517904668d036bc2bf89433c" target="_top" xlink:title="tomoBay.model.sql.queries.concrete\lQueries.insert.InsertEbayBuyers.set\lParameters">
<polygon fill="white" stroke="black" points="690,-435 690,-476 866,-476 866,-435 690,-435"/>
<text text-anchor="start" x="698" y="-464" font-family="Helvetica,sans-Serif" font-size="10.00">tomoBay.model.sql.queries.concrete</text>
<text text-anchor="start" x="698" y="-453" font-family="Helvetica,sans-Serif" font-size="10.00">Queries.insert.InsertEbayBuyers.set</text>
<text text-anchor="middle" x="778" y="-442" font-family="Helvetica,sans-Serif" font-size="10.00">Parameters</text>
</a>
</g>
</g>
<!-- Node4&#45;&gt;Node20 -->
<g id="edge24" class="edge"><title>Node4&#45;&gt;Node20</title>
<path fill="none" stroke="midnightblue" d="M636.486,-455.5C653.326,-455.5 671.784,-455.5 689.625,-455.5"/>
<polygon fill="midnightblue" stroke="midnightblue" points="636.23,-452 626.23,-455.5 636.23,-459 636.23,-452"/>
</g>
<!-- Node21 -->
<g id="node21" class="node"><title>Node21</title>
<g id="a_node21"><a xlink:href="classtomoBay_1_1model_1_1sql_1_1queries_1_1concreteQueries_1_1select_1_1params_1_1SelectEbayOrderByBuyer.html#af9020b85517904668d036bc2bf89433c" target="_top" xlink:title="tomoBay.model.sql.queries.concrete\lQueries.select.params.SelectEbayOrder\lByBuyer.setParameters">
<polygon fill="white" stroke="black" points="682,-375 682,-416 874,-416 874,-375 682,-375"/>
<text text-anchor="start" x="690" y="-404" font-family="Helvetica,sans-Serif" font-size="10.00">tomoBay.model.sql.queries.concrete</text>
<text text-anchor="start" x="690" y="-393" font-family="Helvetica,sans-Serif" font-size="10.00">Queries.select.params.SelectEbayOrder</text>
<text text-anchor="middle" x="778" y="-382" font-family="Helvetica,sans-Serif" font-size="10.00">ByBuyer.setParameters</text>
</a>
</g>
</g>
<!-- Node4&#45;&gt;Node21 -->
<g id="edge25" class="edge"><title>Node4&#45;&gt;Node21</title>
<path fill="none" stroke="midnightblue" d="M608.987,-442.642C625.149,-437.11 644.44,-430.727 662,-425.5 672.778,-422.292 684.179,-419.09 695.449,-416.037"/>
<polygon fill="midnightblue" stroke="midnightblue" points="607.683,-439.389 599.371,-445.959 609.966,-446.007 607.683,-439.389"/>
</g>
<!-- Node22 -->
<g id="node22" class="node"><title>Node22</title>
<g id="a_node22"><a xlink:href="classtomoBay_1_1model_1_1sql_1_1queries_1_1concreteQueries_1_1select_1_1params_1_1SelectTransactionByOrder.html#af9020b85517904668d036bc2bf89433c" target="_top" xlink:title="tomoBay.model.sql.queries.concrete\lQueries.select.params.SelectTransaction\lByOrder.setParameters">
<polygon fill="white" stroke="black" points="679.5,-277 679.5,-318 876.5,-318 876.5,-277 679.5,-277"/>
<text text-anchor="start" x="687.5" y="-306" font-family="Helvetica,sans-Serif" font-size="10.00">tomoBay.model.sql.queries.concrete</text>
<text text-anchor="start" x="687.5" y="-295" font-family="Helvetica,sans-Serif" font-size="10.00">Queries.select.params.SelectTransaction</text>
<text text-anchor="middle" x="778" y="-284" font-family="Helvetica,sans-Serif" font-size="10.00">ByOrder.setParameters</text>
</a>
</g>
</g>
<!-- Node4&#45;&gt;Node22 -->
<g id="edge26" class="edge"><title>Node4&#45;&gt;Node22</title>
<path fill="none" stroke="midnightblue" d="M581.24,-436.705C594.757,-409.679 623.272,-360.067 662,-332.5 669.991,-326.812 678.924,-322.033 688.184,-318.021"/>
<polygon fill="midnightblue" stroke="midnightblue" points="578.013,-435.339 576.804,-445.864 584.313,-438.39 578.013,-435.339"/>
</g>
<!-- Node23 -->
<g id="node23" class="node"><title>Node23</title>
<g id="a_node23"><a xlink:href="classtomoBay_1_1model_1_1sql_1_1queries_1_1concreteQueries_1_1select_1_1params_1_1SelectBrandAndPartNoByOrderID.html#af9020b85517904668d036bc2bf89433c" target="_top" xlink:title="tomoBay.model.sql.queries.concrete\lQueries.select.params.SelectBrandAnd\lPartNoByOrderID.setParameters">
<polygon fill="white" stroke="black" points="684,-217 684,-258 872,-258 872,-217 684,-217"/>
<text text-anchor="start" x="692" y="-246" font-family="Helvetica,sans-Serif" font-size="10.00">tomoBay.model.sql.queries.concrete</text>
<text text-anchor="start" x="692" y="-235" font-family="Helvetica,sans-Serif" font-size="10.00">Queries.select.params.SelectBrandAnd</text>
<text text-anchor="middle" x="778" y="-224" font-family="Helvetica,sans-Serif" font-size="10.00">PartNoByOrderID.setParameters</text>
</a>
</g>
</g>
<!-- Node4&#45;&gt;Node23 -->
<g id="edge27" class="edge"><title>Node4&#45;&gt;Node23</title>
<path fill="none" stroke="midnightblue" d="M576.098,-436.081C584.235,-397.786 607.735,-312.363 662,-267.5 668.6,-262.044 676.082,-257.568 683.986,-253.899"/>
<polygon fill="midnightblue" stroke="midnightblue" points="572.651,-435.468 574.122,-445.96 579.515,-436.84 572.651,-435.468"/>
</g>
<!-- Node24 -->
<g id="node24" class="node"><title>Node24</title>
<g id="a_node24"><a xlink:href="classtomoBay_1_1model_1_1sql_1_1queries_1_1concreteQueries_1_1select_1_1params_1_1SelectEbayOrderByID.html#af9020b85517904668d036bc2bf89433c" target="_top" xlink:title="tomoBay.model.sql.queries.concrete\lQueries.select.params.SelectEbayOrder\lByID.setParameters">
<polygon fill="white" stroke="black" points="682,-157 682,-198 874,-198 874,-157 682,-157"/>
<text text-anchor="start" x="690" y="-186" font-family="Helvetica,sans-Serif" font-size="10.00">tomoBay.model.sql.queries.concrete</text>
<text text-anchor="start" x="690" y="-175" font-family="Helvetica,sans-Serif" font-size="10.00">Queries.select.params.SelectEbayOrder</text>
<text text-anchor="middle" x="778" y="-164" font-family="Helvetica,sans-Serif" font-size="10.00">ByID.setParameters</text>
</a>
</g>
</g>
<!-- Node4&#45;&gt;Node24 -->
<g id="edge28" class="edge"><title>Node4&#45;&gt;Node24</title>
<path fill="none" stroke="midnightblue" d="M578.298,-436.297C595.177,-380.904 644.211,-223.737 662,-207.5 667.867,-202.145 674.571,-197.721 681.726,-194.071"/>
<polygon fill="midnightblue" stroke="midnightblue" points="574.925,-435.361 575.37,-445.946 581.623,-437.393 574.925,-435.361"/>
</g>
<!-- Node25 -->
<g id="node25" class="node"><title>Node25</title>
<g id="a_node25"><a xlink:href="classtomoBay_1_1model_1_1sql_1_1queries_1_1concreteQueries_1_1select_1_1params_1_1SelectEbayBuyer.html#af9020b85517904668d036bc2bf89433c" target="_top" xlink:title="tomoBay.model.sql.queries.concrete\lQueries.select.params.SelectEbayBuyer.set\lParameters">
<polygon fill="white" stroke="black" points="673,-777 673,-818 883,-818 883,-777 673,-777"/>
<text text-anchor="start" x="681" y="-806" font-family="Helvetica,sans-Serif" font-size="10.00">tomoBay.model.sql.queries.concrete</text>
<text text-anchor="start" x="681" y="-795" font-family="Helvetica,sans-Serif" font-size="10.00">Queries.select.params.SelectEbayBuyer.set</text>
<text text-anchor="middle" x="778" y="-784" font-family="Helvetica,sans-Serif" font-size="10.00">Parameters</text>
</a>
</g>
</g>
<!-- Node4&#45;&gt;Node25 -->
<g id="edge29" class="edge"><title>Node4&#45;&gt;Node25</title>
<path fill="none" stroke="midnightblue" d="M571.918,-475.137C571.421,-529.849 577.858,-685.368 662,-767.5 665.618,-771.031 669.596,-774.161 673.833,-776.934"/>
<polygon fill="midnightblue" stroke="midnightblue" points="575.419,-475.118 572.103,-465.055 568.42,-474.989 575.419,-475.118"/>
</g>
<!-- Node26 -->
<g id="node26" class="node"><title>Node26</title>
<g id="a_node26"><a xlink:href="classtomoBay_1_1model_1_1sql_1_1queries_1_1concreteQueries_1_1select_1_1params_1_1SelectFullOrderLine.html#af9020b85517904668d036bc2bf89433c" target="_top" xlink:title="tomoBay.model.sql.queries.concrete\lQueries.select.params.SelectFullOrder\lLine.setParameters">
<polygon fill="white" stroke="black" points="685.5,-717 685.5,-758 870.5,-758 870.5,-717 685.5,-717"/>
<text text-anchor="start" x="693.5" y="-746" font-family="Helvetica,sans-Serif" font-size="10.00">tomoBay.model.sql.queries.concrete</text>
<text text-anchor="start" x="693.5" y="-735" font-family="Helvetica,sans-Serif" font-size="10.00">Queries.select.params.SelectFullOrder</text>
<text text-anchor="middle" x="778" y="-724" font-family="Helvetica,sans-Serif" font-size="10.00">Line.setParameters</text>
</a>
</g>
</g>
<!-- Node4&#45;&gt;Node26 -->
<g id="edge30" class="edge"><title>Node4&#45;&gt;Node26</title>
<path fill="none" stroke="midnightblue" d="M573.827,-475.148C578.03,-521.586 595.069,-638.974 662,-702.5 668.812,-708.965 676.782,-714.239 685.293,-718.54"/>
<polygon fill="midnightblue" stroke="midnightblue" points="577.316,-474.867 573.028,-465.178 570.338,-475.426 577.316,-474.867"/>
</g>
<!-- Node6 -->
<g id="node6" class="node"><title>Node6</title>
<g id="a_node6"><a xlink:href="classtomoBay_1_1model_1_1sql_1_1framework_1_1QueryUtility.html#a2da2ce60a8a037d55bdc69309db4815b" target="_top" xlink:title="private ctor ensures that this class is never instantiated ">
<polygon fill="white" stroke="black" points="1005.5,-705 1005.5,-724 1073.5,-724 1073.5,-705 1005.5,-705"/>
<text text-anchor="middle" x="1039.5" y="-712" font-family="Helvetica,sans-Serif" font-size="10.00">QueryUtility</text>
</a>
</g>
</g>
<!-- Node5&#45;&gt;Node6 -->
<g id="edge5" class="edge"><title>Node5&#45;&gt;Node6</title>
<path fill="none" stroke="midnightblue" d="M840.318,-659.498C857.983,-663.101 877.051,-667.986 894,-674.5 911.29,-681.145 912.604,-689.136 930,-695.5 954.425,-704.436 983.52,-709.239 1005.43,-711.78"/>
<polygon fill="midnightblue" stroke="midnightblue" points="840.59,-655.986 830.107,-657.523 839.26,-662.858 840.59,-655.986"/>
</g>
<!-- Node7 -->
<g id="node7" class="node"><title>Node7</title>
<g id="a_node7"><a xlink:href="classtomoBay_1_1model_1_1sql_1_1queries_1_1concreteQueries_1_1update_1_1UpdateInvoiceStatusSRN.html#af9020b85517904668d036bc2bf89433c" target="_top" xlink:title="tomoBay.model.sql.queries.concrete\lQueries.update.UpdateInvoiceStatusSRN.set\lParameters">
<polygon fill="white" stroke="black" points="932,-645 932,-686 1147,-686 1147,-645 932,-645"/>
<text text-anchor="start" x="940" y="-674" font-family="Helvetica,sans-Serif" font-size="10.00">tomoBay.model.sql.queries.concrete</text>
<text text-anchor="start" x="940" y="-663" font-family="Helvetica,sans-Serif" font-size="10.00">Queries.update.UpdateInvoiceStatusSRN.set</text>
<text text-anchor="middle" x="1039.5" y="-652" font-family="Helvetica,sans-Serif" font-size="10.00">Parameters</text>
</a>
</g>
</g>
<!-- Node5&#45;&gt;Node7 -->
<g id="edge6" class="edge"><title>Node5&#45;&gt;Node7</title>
<path fill="none" stroke="midnightblue" d="M840.44,-654.051C867.741,-655.63 900.686,-657.534 931.803,-659.333"/>
<polygon fill="midnightblue" stroke="midnightblue" points="840.454,-650.547 830.269,-653.464 840.05,-657.535 840.454,-650.547"/>
</g>
<!-- Node5&#45;&gt;Node8 -->
<g id="edge7" class="edge"><title>Node5&#45;&gt;Node8</title>
<path fill="none" stroke="midnightblue" d="M839.997,-653.883C858.63,-657.266 878.319,-663.439 894,-674.5 919.102,-692.206 905.478,-714.999 930,-733.5 934.68,-737.031 939.754,-740.147 945.064,-742.896"/>
<polygon fill="midnightblue" stroke="midnightblue" points="840.507,-650.42 830.083,-652.317 839.414,-657.334 840.507,-650.42"/>
</g>
<!-- Node9 -->
<g id="node9" class="node"><title>Node9</title>
<g id="a_node9"><a xlink:href="classtomoBay_1_1model_1_1sql_1_1queries_1_1concreteQueries_1_1insert_1_1InsertOutOfHoursOrders.html#af9020b85517904668d036bc2bf89433c" target="_top" xlink:title="tomoBay.model.sql.queries.concrete\lQueries.insert.InsertOutOfHoursOrders.set\lParameters">
<polygon fill="white" stroke="black" points="938,-585 938,-626 1141,-626 1141,-585 938,-585"/>
<text text-anchor="start" x="946" y="-614" font-family="Helvetica,sans-Serif" font-size="10.00">tomoBay.model.sql.queries.concrete</text>
<text text-anchor="start" x="946" y="-603" font-family="Helvetica,sans-Serif" font-size="10.00">Queries.insert.InsertOutOfHoursOrders.set</text>
<text text-anchor="middle" x="1039.5" y="-592" font-family="Helvetica,sans-Serif" font-size="10.00">Parameters</text>
</a>
</g>
</g>
<!-- Node5&#45;&gt;Node9 -->
<g id="edge8" class="edge"><title>Node5&#45;&gt;Node9</title>
<path fill="none" stroke="midnightblue" d="M840.289,-639.872C869.419,-634.82 905.002,-628.65 937.938,-622.938"/>
<polygon fill="midnightblue" stroke="midnightblue" points="839.524,-636.452 830.269,-641.609 840.72,-643.349 839.524,-636.452"/>
</g>
<!-- Node5&#45;&gt;Node10 -->
<g id="edge9" class="edge"><title>Node5&#45;&gt;Node10</title>
<path fill="none" stroke="midnightblue" d="M826.649,-663.387C850.24,-672.126 877.195,-686.083 894,-707.5 939.262,-765.185 878.094,-816.713 930,-868.5 933.414,-871.906 937.196,-874.877 941.242,-877.463"/>
<polygon fill="midnightblue" stroke="midnightblue" points="827.72,-660.053 817.125,-660.066 825.415,-666.663 827.72,-660.053"/>
</g>
<!-- Node5&#45;&gt;Node11 -->
<g id="edge10" class="edge"><title>Node5&#45;&gt;Node11</title>
<path fill="none" stroke="midnightblue" d="M840.149,-649.485C859.345,-646.313 879.33,-639.667 894,-626.5 932.597,-591.858 892.532,-551.36 930,-515.5 936.212,-509.554 943.495,-504.766 951.295,-500.913"/>
<polygon fill="midnightblue" stroke="midnightblue" points="839.649,-646.02 830.215,-650.843 840.597,-652.956 839.649,-646.02"/>
</g>
<!-- Node5&#45;&gt;Node12 -->
<g id="edge11" class="edge"><title>Node5&#45;&gt;Node12</title>
<path fill="none" stroke="midnightblue" d="M822.176,-663.518C845.985,-672.574 874.569,-686.79 894,-707.5 922.351,-737.718 900.652,-764.249 930,-793.5 940.255,-803.721 953.167,-811.734 966.474,-817.978"/>
<polygon fill="midnightblue" stroke="midnightblue" points="823.238,-660.18 812.643,-660.066 820.854,-666.762 823.238,-660.18"/>
</g>
<!-- Node5&#45;&gt;Node13 -->
<g id="edge12" class="edge"><title>Node5&#45;&gt;Node13</title>
<path fill="none" stroke="midnightblue" d="M825.582,-637.651C849.265,-628.861 876.636,-614.846 894,-593.5 934,-544.329 891.468,-505.829 930,-455.5 943.782,-437.498 964.392,-423.862 983.958,-414.028"/>
<polygon fill="midnightblue" stroke="midnightblue" points="824.321,-634.385 816.039,-640.993 826.634,-640.992 824.321,-634.385"/>
</g>
<!-- Node14 -->
<g id="node14" class="node"><title>Node14</title>
<g id="a_node14"><a xlink:href="classtomoBay_1_1model_1_1sql_1_1queries_1_1concreteQueries_1_1select_1_1params_1_1SelectBrandByInv.html#af9020b85517904668d036bc2bf89433c" target="_top" xlink:title="tomoBay.model.sql.queries.concrete\lQueries.select.params.SelectBrandBy\lInv.setParameters">
<polygon fill="white" stroke="black" points="948,-525 948,-566 1131,-566 1131,-525 948,-525"/>
<text text-anchor="start" x="956" y="-554" font-family="Helvetica,sans-Serif" font-size="10.00">tomoBay.model.sql.queries.concrete</text>
<text text-anchor="start" x="956" y="-543" font-family="Helvetica,sans-Serif" font-size="10.00">Queries.select.params.SelectBrandBy</text>
<text text-anchor="middle" x="1039.5" y="-532" font-family="Helvetica,sans-Serif" font-size="10.00">Inv.setParameters</text>
</a>
</g>
</g>
<!-- Node5&#45;&gt;Node14 -->
<g id="edge13" class="edge"><title>Node5&#45;&gt;Node14</title>
<path fill="none" stroke="midnightblue" d="M840.323,-646.341C858.71,-642.899 878.176,-636.889 894,-626.5 917.193,-611.273 907.306,-591.461 930,-575.5 935.515,-571.621 941.514,-568.243 947.767,-565.301"/>
<polygon fill="midnightblue" stroke="midnightblue" points="839.547,-642.921 830.249,-648 840.685,-649.828 839.547,-642.921"/>
</g>
</g>
</svg>
        <g id="navigator" transform="translate(0 0)" fill="#404254">
                <rect fill="#f2f5e9" fill-opacity="0.5" stroke="#606060" stroke-width=".5" x="0" y="0" width="60" height="60"/>
                <use id="zoomplus" xlink:href="#zoomPlus" x="17" y="9" onmousedown="handleZoom(evt,'in')"/>
                <use id="zoomminus" xlink:href="#zoomMin" x="42" y="9" onmousedown="handleZoom(evt,'out')"/>
                <use id="reset" xlink:href="#resetDef" x="30" y="36" onmousedown="handleReset()"/>
                <g id="arrowUp" xlink:href="#dirArrow" transform="translate(30 24)" onmousedown="handlePan(0,-1)">
                  <use xlink:href="#rim" fill="#404040">
                        <set attributeName="fill" to="#808080" begin="arrowUp.mouseover" end="arrowUp.mouseout"/>
                  </use>
                  <path fill="none" stroke="white" stroke-width="1.5" d="M0,-3.0v7 M-2.5,-0.5L0,-3.0L2.5,-0.5"/>
                </g>
                <g id="arrowRight" xlink:href="#dirArrow" transform="rotate(90) translate(36 -43)" onmousedown="handlePan(1,0)">
                  <use xlink:href="#rim" fill="#404040">
                        <set attributeName="fill" to="#808080" begin="arrowRight.mouseover" end="arrowRight.mouseout"/>
                  </use>
                  <path fill="none" stroke="white" stroke-width="1.5" d="M0,-3.0v7 M-2.5,-0.5L0,-3.0L2.5,-0.5"/>
                </g>
                <g id="arrowDown" xlink:href="#dirArrow" transform="rotate(180) translate(-30 -48)" onmousedown="handlePan(0,1)">
                  <use xlink:href="#rim" fill="#404040">
                        <set attributeName="fill" to="#808080" begin="arrowDown.mouseover" end="arrowDown.mouseout"/>
                  </use>
                  <path fill="none" stroke="white" stroke-width="1.5" d="M0,-3.0v7 M-2.5,-0.5L0,-3.0L2.5,-0.5"/>
                </g>
                <g id="arrowLeft" xlink:href="#dirArrow" transform="rotate(270) translate(-36 17)" onmousedown="handlePan(-1,0)">
                  <use xlink:href="#rim" fill="#404040">
                        <set attributeName="fill" to="#808080" begin="arrowLeft.mouseover" end="arrowLeft.mouseout"/>
                  </use>
                  <path fill="none" stroke="white" stroke-width="1.5" d="M0,-3.0v7 M-2.5,-0.5L0,-3.0L2.5,-0.5"/>
                </g>
        </g>
        <svg viewBox="0 0 15 15" width="100%" height="30px" preserveAspectRatio="xMaxYMin meet">
         <g id="arrow_out" transform="scale(0.3 0.3)">
          <a xlink:href="classtomoBay_1_1model_1_1sql_1_1framework_1_1QueryUtility_a56a65ac583b8720ae73dc81278e5690e_icgraph_org.svg" target="_base">
           <rect id="button" ry="5" rx="5" y="6" x="6" height="38" width="38"
                fill="#f2f5e9" fill-opacity="0.5" stroke="#606060" stroke-width="1.0"/>
           <path id="arrow"
             d="M 11.500037,31.436501 C 11.940474,20.09759 22.043105,11.32322 32.158766,21.979434 L 37.068811,17.246167 C 37.068811,17.246167 37.088388,32 37.088388,32 L 22.160133,31.978069 C 22.160133,31.978069 26.997745,27.140456 26.997745,27.140456 C 18.528582,18.264221 13.291696,25.230495 11.500037,31.436501 z"
             style="fill:#404040;"/>
          </a>
         </g>
        </svg>
</svg>
