<?xml version="1.0" encoding="UTF-8" standalone="no"?>
<!DOCTYPE svg PUBLIC "-//W3C//DTD SVG 1.1//EN"
 "http://www.w3.org/Graphics/SVG/1.1/DTD/svg11.dtd">
<!-- Generated by graphviz version 2.38.0 (20140413.2041)
 -->
<!-- Title: setDATEParam Pages: 1 -->
<!--zoomable 1015 -->
<svg id="main" version="1.1" xmlns="http://www.w3.org/2000/svg" xmlns:xlink="http://www.w3.org/1999/xlink" xml:space="preserve" onload="init(evt)">
<style type="text/css"><![CDATA[
.edge:hover path { stroke: red; }
.edge:hover polygon { stroke: red; fill: red; }
]]></style>
<script type="text/javascript"><![CDATA[
var edges = document.getElementsByTagName('g');
if (edges && edges.length) {
  for (var i=0;i<edges.length;i++) {
    if (edges[i].id.substr(0,4)=='edge') {
      edges[i].setAttribute('class','edge');
    }
  }
}
]]></script>
        <defs>
                <circle id="rim" cx="0" cy="0" r="7"/>
                <circle id="rim2" cx="0" cy="0" r="3.5"/>
                <g id="zoomPlus">
                        <use xlink:href="#rim" fill="#404040">
                                <set attributeName="fill" to="#808080" begin="zoomplus.mouseover" end="zoomplus.mouseout"/>
                        </use>
                        <path d="M-4,0h8M0,-4v8" fill="none" stroke="white" stroke-width="1.5" pointer-events="none"/>
                </g>
                <g id="zoomMin">
                        <use xlink:href="#rim" fill="#404040">
                                <set attributeName="fill" to="#808080" begin="zoomminus.mouseover" end="zoomminus.mouseout"/>
                        </use>
                        <path d="M-4,0h8" fill="none" stroke="white" stroke-width="1.5" pointer-events="none"/>
                </g>
                <g id="dirArrow">
                        <path fill="none" stroke="white" stroke-width="1.5" d="M0,-3.0v7 M-2.5,-0.5L0,-3.0L2.5,-0.5"/>
                </g>
               <g id="resetDef">
                       <use xlink:href="#rim2" fill="#404040">
                               <set attributeName="fill" to="#808080" begin="reset.mouseover" end="reset.mouseout"/>
                       </use>
               </g>
        </defs>

<script type="text/javascript">
var viewWidth = 1513;
var viewHeight = 1015;
var sectionId = 'dynsection-15';
</script>
<script xlink:href="svgpan.js"/>
<svg id="graph" class="graph">
<g id="viewport">
<title>setDATEParam</title>
<polygon fill="white" stroke="none" points="-4,4 -4,-1010.57 1509,-1010.57 1509,4 -4,4"/>
<!-- Node1 -->
<g id="node1" class="node"><title>Node1</title>
<polygon fill="#bfbfbf" stroke="black" points="0,-747.073 0,-766.073 86,-766.073 86,-747.073 0,-747.073"/>
<text text-anchor="middle" x="43" y="-754.073" font-family="Helvetica,sans-Serif" font-size="10.00">setDATEParam</text>
</g>
<!-- Node2 -->
<g id="node2" class="node"><title>Node2</title>
<g id="a_node2"><a xlink:href="classtomoBay_1_1model_1_1sql_1_1queries_1_1concreteQueries_1_1insert_1_1InsertOutOfHoursOrders.html#af9020b85517904668d036bc2bf89433c" target="_top" xlink:title="tomoBay.model.sql.queries.concrete\lQueries.insert.InsertOutOfHoursOrders.set\lParameters">
<polygon fill="white" stroke="black" points="1294,-953.073 1294,-994.073 1497,-994.073 1497,-953.073 1294,-953.073"/>
<text text-anchor="start" x="1302" y="-982.073" font-family="Helvetica,sans-Serif" font-size="10.00">tomoBay.model.sql.queries.concrete</text>
<text text-anchor="start" x="1302" y="-971.073" font-family="Helvetica,sans-Serif" font-size="10.00">Queries.insert.InsertOutOfHoursOrders.set</text>
<text text-anchor="middle" x="1395.5" y="-960.073" font-family="Helvetica,sans-Serif" font-size="10.00">Parameters</text>
</a>
</g>
</g>
<!-- Node1&#45;&gt;Node2 -->
<g id="edge1" class="edge"><title>Node1&#45;&gt;Node2</title>
<path fill="none" stroke="midnightblue" d="M56.7123,-774.513C98.9391,-831.796 241.125,-1006.57 404,-1006.57 404,-1006.57 404,-1006.57 928.5,-1006.57 1054.62,-1006.57 1199.46,-994.397 1293.74,-984.838"/>
<polygon fill="midnightblue" stroke="midnightblue" points="59.5116,-772.411 50.8056,-766.373 53.846,-776.523 59.5116,-772.411"/>
</g>
<!-- Node3 -->
<g id="node3" class="node"><title>Node3</title>
<g id="a_node3"><a xlink:href="classtomoBay_1_1model_1_1sql_1_1queries_1_1concreteQueries_1_1select_1_1params_1_1SelectOutOfHoursOrders.html#af9020b85517904668d036bc2bf89433c" target="_top" xlink:title="tomoBay.model.sql.queries.concrete\lQueries.select.params.SelectOutOfHours\lOrders.setParameters">
<polygon fill="white" stroke="black" points="122,-736.073 122,-777.073 320,-777.073 320,-736.073 122,-736.073"/>
<text text-anchor="start" x="130" y="-765.073" font-family="Helvetica,sans-Serif" font-size="10.00">tomoBay.model.sql.queries.concrete</text>
<text text-anchor="start" x="130" y="-754.073" font-family="Helvetica,sans-Serif" font-size="10.00">Queries.select.params.SelectOutOfHours</text>
<text text-anchor="middle" x="221" y="-743.073" font-family="Helvetica,sans-Serif" font-size="10.00">Orders.setParameters</text>
</a>
</g>
</g>
<!-- Node1&#45;&gt;Node3 -->
<g id="edge2" class="edge"><title>Node1&#45;&gt;Node3</title>
<path fill="none" stroke="midnightblue" d="M96.1641,-756.573C104.294,-756.573 112.915,-756.573 121.675,-756.573"/>
<polygon fill="midnightblue" stroke="midnightblue" points="96.1564,-753.073 86.1564,-756.573 96.1564,-760.073 96.1564,-753.073"/>
</g>
<!-- Node4 -->
<g id="node4" class="node"><title>Node4</title>
<g id="a_node4"><a xlink:href="classtomoBay_1_1model_1_1sql_1_1framework_1_1QueryUtility.html#ab07d04299a96461dcf893416b8e32604" target="_top" xlink:title="set an Integer parameter for the query object specified. ">
<polygon fill="white" stroke="black" points="162.5,-443.073 162.5,-462.073 279.5,-462.073 279.5,-443.073 162.5,-443.073"/>
<text text-anchor="middle" x="221" y="-450.073" font-family="Helvetica,sans-Serif" font-size="10.00">setTIMESTAMPParam</text>
</a>
</g>
</g>
<!-- Node1&#45;&gt;Node4 -->
<g id="edge3" class="edge"><title>Node1&#45;&gt;Node4</title>
<path fill="none" stroke="midnightblue" d="M54.7485,-738.008C88.1818,-680.259 189.59,-505.1 214.452,-462.155"/>
<polygon fill="midnightblue" stroke="midnightblue" points="51.6379,-736.395 49.6565,-746.803 57.6959,-739.902 51.6379,-736.395"/>
</g>
<!-- Node5 -->
<g id="node5" class="node"><title>Node5</title>
<g id="a_node5"><a xlink:href="classtomoBay_1_1model_1_1sql_1_1queries_1_1concreteQueries_1_1insert_1_1InsertEbayOrders.html#af9020b85517904668d036bc2bf89433c" target="_top" xlink:title="tomoBay.model.sql.queries.concrete\lQueries.insert.InsertEbayOrders.set\lParameters">
<polygon fill="white" stroke="black" points="1307.5,-171.073 1307.5,-212.073 1483.5,-212.073 1483.5,-171.073 1307.5,-171.073"/>
<text text-anchor="start" x="1315.5" y="-200.073" font-family="Helvetica,sans-Serif" font-size="10.00">tomoBay.model.sql.queries.concrete</text>
<text text-anchor="start" x="1315.5" y="-189.073" font-family="Helvetica,sans-Serif" font-size="10.00">Queries.insert.InsertEbayOrders.set</text>
<text text-anchor="middle" x="1395.5" y="-178.073" font-family="Helvetica,sans-Serif" font-size="10.00">Parameters</text>
</a>
</g>
</g>
<!-- Node4&#45;&gt;Node5 -->
<g id="edge4" class="edge"><title>Node4&#45;&gt;Node5</title>
<path fill="none" stroke="midnightblue" d="M225.761,-433.15C243.415,-348.322 326.143,-14.5731 535,-14.5731 535,-14.5731 535,-14.5731 928.5,-14.5731 1071.64,-14.5731 1120.77,27.9789 1250,-33.5731 1313.43,-63.7844 1361.96,-135.506 1383.02,-170.979"/>
<polygon fill="midnightblue" stroke="midnightblue" points="222.317,-432.523 223.771,-443.018 229.179,-433.907 222.317,-432.523"/>
</g>
<!-- Node6 -->
<g id="node6" class="node"><title>Node6</title>
<g id="a_node6"><a xlink:href="classtomoBay_1_1model_1_1sql_1_1framework_1_1QueryUtility.html#a56a65ac583b8720ae73dc81278e5690e" target="_top" xlink:title="set an Integer parameter for the query object specified. ">
<polygon fill="white" stroke="black" points="356,-443.073 356,-462.073 454,-462.073 454,-443.073 356,-443.073"/>
<text text-anchor="middle" x="405" y="-450.073" font-family="Helvetica,sans-Serif" font-size="10.00">setTINYINTParam</text>
</a>
</g>
</g>
<!-- Node4&#45;&gt;Node6 -->
<g id="edge5" class="edge"><title>Node4&#45;&gt;Node6</title>
<path fill="none" stroke="midnightblue" d="M289.856,-452.573C311.824,-452.573 335.72,-452.573 355.944,-452.573"/>
<polygon fill="midnightblue" stroke="midnightblue" points="289.586,-449.073 279.586,-452.573 289.586,-456.073 289.586,-449.073"/>
</g>
<!-- Node7 -->
<g id="node7" class="node"><title>Node7</title>
<g id="a_node7"><a xlink:href="classtomoBay_1_1model_1_1sql_1_1framework_1_1QueryUtility.html#a138f0c046bc0a6df71b168ab35c3c3e3" target="_top" xlink:title="set an Integer parameter for the query object specified. ">
<polygon fill="white" stroke="black" points="490,-443.073 490,-462.073 582,-462.073 582,-443.073 490,-443.073"/>
<text text-anchor="middle" x="536" y="-450.073" font-family="Helvetica,sans-Serif" font-size="10.00">setBIGINTParam</text>
</a>
</g>
</g>
<!-- Node6&#45;&gt;Node7 -->
<g id="edge6" class="edge"><title>Node6&#45;&gt;Node7</title>
<path fill="none" stroke="midnightblue" d="M464.095,-452.573C472.757,-452.573 481.575,-452.573 489.916,-452.573"/>
<polygon fill="midnightblue" stroke="midnightblue" points="464.035,-449.073 454.035,-452.573 464.035,-456.073 464.035,-449.073"/>
</g>
<!-- Node8 -->
<g id="node8" class="node"><title>Node8</title>
<g id="a_node8"><a xlink:href="classtomoBay_1_1model_1_1sql_1_1framework_1_1QueryUtility.html#a50955d4f51a1a7a88ef0c8aadbe9c793" target="_top" xlink:title="set an Integer parameter for the query object specified. ">
<polygon fill="white" stroke="black" points="685,-419.073 685,-438.073 770,-438.073 770,-419.073 685,-419.073"/>
<text text-anchor="middle" x="727.5" y="-426.073" font-family="Helvetica,sans-Serif" font-size="10.00">setBYTEParam</text>
</a>
</g>
</g>
<!-- Node7&#45;&gt;Node8 -->
<g id="edge7" class="edge"><title>Node7&#45;&gt;Node8</title>
<path fill="none" stroke="midnightblue" d="M592.534,-445.54C622.004,-441.807 657.62,-437.297 684.719,-433.865"/>
<polygon fill="midnightblue" stroke="midnightblue" points="591.871,-442.096 582.39,-446.825 592.751,-449.04 591.871,-442.096"/>
</g>
<!-- Node14 -->
<g id="node14" class="node"><title>Node14</title>
<g id="a_node14"><a xlink:href="classtomoBay_1_1model_1_1sql_1_1queries_1_1concreteQueries_1_1insert_1_1InsertEbayItems.html#af9020b85517904668d036bc2bf89433c" target="_top" xlink:title="tomoBay.model.sql.queries.concrete\lQueries.insert.InsertEbayItems.setParameters">
<polygon fill="white" stroke="black" points="1286,-230.573 1286,-260.573 1505,-260.573 1505,-230.573 1286,-230.573"/>
<text text-anchor="start" x="1294" y="-248.573" font-family="Helvetica,sans-Serif" font-size="10.00">tomoBay.model.sql.queries.concrete</text>
<text text-anchor="middle" x="1395.5" y="-237.573" font-family="Helvetica,sans-Serif" font-size="10.00">Queries.insert.InsertEbayItems.setParameters</text>
</a>
</g>
</g>
<!-- Node7&#45;&gt;Node14 -->
<g id="edge36" class="edge"><title>Node7&#45;&gt;Node14</title>
<path fill="none" stroke="midnightblue" d="M541.027,-433.197C549.44,-397.026 572.034,-318.555 618,-270.573 755.361,-127.188 824.703,-117 1018,-71.5731 1118.38,-47.9835 1169.03,-7.73466 1250,-71.5731 1303.84,-114.02 1237.09,-173.529 1286,-221.573 1289.44,-224.953 1293.24,-227.902 1297.31,-230.471"/>
<polygon fill="midnightblue" stroke="midnightblue" points="537.604,-432.464 538.861,-442.984 544.439,-433.977 537.604,-432.464"/>
</g>
<!-- Node15 -->
<g id="node15" class="node"><title>Node15</title>
<g id="a_node15"><a xlink:href="classtomoBay_1_1model_1_1sql_1_1queries_1_1concreteQueries_1_1insert_1_1InsertEbayTransactions.html#af9020b85517904668d036bc2bf89433c" target="_top" xlink:title="tomoBay.model.sql.queries.concrete\lQueries.insert.InsertEbayTransactions.set\lParameters">
<polygon fill="white" stroke="black" points="1295.5,-860.073 1295.5,-901.073 1495.5,-901.073 1495.5,-860.073 1295.5,-860.073"/>
<text text-anchor="start" x="1303.5" y="-889.073" font-family="Helvetica,sans-Serif" font-size="10.00">tomoBay.model.sql.queries.concrete</text>
<text text-anchor="start" x="1303.5" y="-878.073" font-family="Helvetica,sans-Serif" font-size="10.00">Queries.insert.InsertEbayTransactions.set</text>
<text text-anchor="middle" x="1395.5" y="-867.073" font-family="Helvetica,sans-Serif" font-size="10.00">Parameters</text>
</a>
</g>
</g>
<!-- Node7&#45;&gt;Node15 -->
<g id="edge38" class="edge"><title>Node7&#45;&gt;Node15</title>
<path fill="none" stroke="midnightblue" d="M539.418,-472.045C545.595,-514.92 565.355,-619.031 618,-686.573 748.648,-854.19 814.352,-887.815 1018,-948.573 1116.81,-978.052 1149.37,-971.067 1250,-948.573 1290.59,-939.5 1333.22,-917.714 1361.57,-901.227"/>
<polygon fill="midnightblue" stroke="midnightblue" points="542.88,-471.53 538.074,-462.088 535.943,-472.466 542.88,-471.53"/>
</g>
<!-- Node18 -->
<g id="node18" class="node"><title>Node18</title>
<g id="a_node18"><a xlink:href="classtomoBay_1_1model_1_1sql_1_1queries_1_1concreteQueries_1_1update_1_1UpdateItemNote.html#af9020b85517904668d036bc2bf89433c" target="_top" xlink:title="tomoBay.model.sql.queries.concrete\lQueries.update.UpdateItemNote.setParameters">
<polygon fill="white" stroke="black" points="1022,-140.573 1022,-170.573 1246,-170.573 1246,-140.573 1022,-140.573"/>
<text text-anchor="start" x="1030" y="-158.573" font-family="Helvetica,sans-Serif" font-size="10.00">tomoBay.model.sql.queries.concrete</text>
<text text-anchor="middle" x="1134" y="-147.573" font-family="Helvetica,sans-Serif" font-size="10.00">Queries.update.UpdateItemNote.setParameters</text>
</a>
</g>
</g>
<!-- Node7&#45;&gt;Node18 -->
<g id="edge34" class="edge"><title>Node7&#45;&gt;Node18</title>
<path fill="none" stroke="midnightblue" d="M559.901,-437.245C627.335,-392.709 832.114,-261.732 1018,-186.573 1033.34,-180.372 1050.32,-175.02 1066.42,-170.591"/>
<polygon fill="midnightblue" stroke="midnightblue" points="557.713,-434.496 551.314,-442.94 561.582,-440.33 557.713,-434.496"/>
</g>
<!-- Node19 -->
<g id="node19" class="node"><title>Node19</title>
<g id="a_node19"><a xlink:href="classtomoBay_1_1model_1_1sql_1_1queries_1_1concreteQueries_1_1update_1_1UpdateItemBrandAndPartNo.html#af9020b85517904668d036bc2bf89433c" target="_top" xlink:title="tomoBay.model.sql.queries.concrete\lQueries.update.UpdateItemBrandAndPart\lNo.setParameters">
<polygon fill="white" stroke="black" points="1035.5,-81.0731 1035.5,-122.073 1232.5,-122.073 1232.5,-81.0731 1035.5,-81.0731"/>
<text text-anchor="start" x="1043.5" y="-110.073" font-family="Helvetica,sans-Serif" font-size="10.00">tomoBay.model.sql.queries.concrete</text>
<text text-anchor="start" x="1043.5" y="-99.0731" font-family="Helvetica,sans-Serif" font-size="10.00">Queries.update.UpdateItemBrandAndPart</text>
<text text-anchor="middle" x="1134" y="-88.0731" font-family="Helvetica,sans-Serif" font-size="10.00">No.setParameters</text>
</a>
</g>
</g>
<!-- Node7&#45;&gt;Node19 -->
<g id="edge35" class="edge"><title>Node7&#45;&gt;Node19</title>
<path fill="none" stroke="midnightblue" d="M540.484,-432.644C547.99,-395.547 569.127,-315.591 618,-270.573 734.883,-162.909 921.666,-123.747 1035.26,-109.562"/>
<polygon fill="midnightblue" stroke="midnightblue" points="537.002,-432.217 538.577,-442.694 543.88,-433.522 537.002,-432.217"/>
</g>
<!-- Node20 -->
<g id="node20" class="node"><title>Node20</title>
<g id="a_node20"><a xlink:href="classtomoBay_1_1model_1_1sql_1_1queries_1_1concreteQueries_1_1update_1_1UpdateItemError.html#af9020b85517904668d036bc2bf89433c" target="_top" xlink:title="tomoBay.model.sql.queries.concrete\lQueries.update.UpdateItemError.setParameters">
<polygon fill="white" stroke="black" points="1022,-909.573 1022,-939.573 1246,-939.573 1246,-909.573 1022,-909.573"/>
<text text-anchor="start" x="1030" y="-927.573" font-family="Helvetica,sans-Serif" font-size="10.00">tomoBay.model.sql.queries.concrete</text>
<text text-anchor="middle" x="1134" y="-916.573" font-family="Helvetica,sans-Serif" font-size="10.00">Queries.update.UpdateItemError.setParameters</text>
</a>
</g>
</g>
<!-- Node7&#45;&gt;Node20 -->
<g id="edge37" class="edge"><title>Node7&#45;&gt;Node20</title>
<path fill="none" stroke="midnightblue" d="M547.648,-470.869C561.936,-494.593 588.905,-536.597 618,-567.573 774.056,-733.721 816.858,-781.332 1018,-888.573 1034.15,-897.185 1052.7,-904.116 1070.11,-909.508"/>
<polygon fill="midnightblue" stroke="midnightblue" points="550.605,-468.994 542.492,-462.18 544.585,-472.566 550.605,-468.994"/>
</g>
<!-- Node29 -->
<g id="node29" class="node"><title>Node29</title>
<g id="a_node29"><a xlink:href="classtomoBay_1_1model_1_1sql_1_1queries_1_1concreteQueries_1_1select_1_1params_1_1SelectEbayTransactionByID.html#af9020b85517904668d036bc2bf89433c" target="_top" xlink:title="tomoBay.model.sql.queries.concrete\lQueries.select.params.SelectEbayTransaction\lByID.setParameters">
<polygon fill="white" stroke="black" points="618,-517.073 618,-558.073 837,-558.073 837,-517.073 618,-517.073"/>
<text text-anchor="start" x="626" y="-546.073" font-family="Helvetica,sans-Serif" font-size="10.00">tomoBay.model.sql.queries.concrete</text>
<text text-anchor="start" x="626" y="-535.073" font-family="Helvetica,sans-Serif" font-size="10.00">Queries.select.params.SelectEbayTransaction</text>
<text text-anchor="middle" x="727.5" y="-524.073" font-family="Helvetica,sans-Serif" font-size="10.00">ByID.setParameters</text>
</a>
</g>
</g>
<!-- Node7&#45;&gt;Node29 -->
<g id="edge39" class="edge"><title>Node7&#45;&gt;Node29</title>
<path fill="none" stroke="midnightblue" d="M556.547,-468.549C572.306,-480.74 595.48,-497.159 618,-507.573 625.539,-511.059 633.565,-514.215 641.709,-517.053"/>
<polygon fill="midnightblue" stroke="midnightblue" points="558.622,-465.728 548.605,-462.276 554.283,-471.221 558.622,-465.728"/>
</g>
<!-- Node30 -->
<g id="node30" class="node"><title>Node30</title>
<g id="a_node30"><a xlink:href="classtomoBay_1_1model_1_1sql_1_1queries_1_1concreteQueries_1_1select_1_1params_1_1SelectEbayItemSpecific.html#af9020b85517904668d036bc2bf89433c" target="_top" xlink:title="tomoBay.model.sql.queries.concrete\lQueries.select.params.SelectEbayItem\lSpecific.setParameters">
<polygon fill="white" stroke="black" points="633.5,-457.073 633.5,-498.073 821.5,-498.073 821.5,-457.073 633.5,-457.073"/>
<text text-anchor="start" x="641.5" y="-486.073" font-family="Helvetica,sans-Serif" font-size="10.00">tomoBay.model.sql.queries.concrete</text>
<text text-anchor="start" x="641.5" y="-475.073" font-family="Helvetica,sans-Serif" font-size="10.00">Queries.select.params.SelectEbayItem</text>
<text text-anchor="middle" x="727.5" y="-464.073" font-family="Helvetica,sans-Serif" font-size="10.00">Specific.setParameters</text>
</a>
</g>
</g>
<!-- Node7&#45;&gt;Node30 -->
<g id="edge40" class="edge"><title>Node7&#45;&gt;Node30</title>
<path fill="none" stroke="midnightblue" d="M592.46,-459.89C605.362,-461.592 619.445,-463.45 633.477,-465.301"/>
<polygon fill="midnightblue" stroke="midnightblue" points="592.762,-456.399 582.39,-458.561 591.846,-463.339 592.762,-456.399"/>
</g>
<!-- Node9 -->
<g id="node9" class="node"><title>Node9</title>
<g id="a_node9"><a xlink:href="classtomoBay_1_1model_1_1sql_1_1framework_1_1QueryUtility.html#a3249b16421a9902f2248cb86d4dd3be3" target="_top" xlink:title="set an Integer parameter for the query object specified. ">
<polygon fill="white" stroke="black" points="873,-487.073 873,-506.073 982,-506.073 982,-487.073 873,-487.073"/>
<text text-anchor="middle" x="927.5" y="-494.073" font-family="Helvetica,sans-Serif" font-size="10.00">setVARCHARParam</text>
</a>
</g>
</g>
<!-- Node8&#45;&gt;Node9 -->
<g id="edge8" class="edge"><title>Node8&#45;&gt;Node9</title>
<path fill="none" stroke="midnightblue" d="M779.94,-434.059C798.283,-436.93 818.88,-441.222 837,-447.573 865.419,-457.535 895.562,-475.874 912.607,-487.072"/>
<polygon fill="midnightblue" stroke="midnightblue" points="780.412,-430.591 770.011,-432.606 779.399,-437.517 780.412,-430.591"/>
</g>
<!-- Node9&#45;&gt;Node5 -->
<g id="edge22" class="edge"><title>Node9&#45;&gt;Node5</title>
<path fill="none" stroke="midnightblue" d="M934.999,-477.156C945.074,-447.053 965.066,-387.297 982,-336.573 998.022,-288.581 978.452,-260.132 1018,-228.573 1061.19,-194.11 1210.24,-188.965 1307.34,-189.487"/>
<polygon fill="midnightblue" stroke="midnightblue" points="931.615,-476.24 931.76,-486.834 938.253,-478.462 931.615,-476.24"/>
</g>
<!-- Node10 -->
<g id="node10" class="node"><title>Node10</title>
<g id="a_node10"><a xlink:href="classtomoBay_1_1model_1_1sql_1_1framework_1_1QueryUtility.html#aca3b74b8ac7e194a86c0b896a674e2f2" target="_top" xlink:title="set an Integer parameter for the query object specified. ">
<polygon fill="white" stroke="black" points="1082,-686.073 1082,-705.073 1186,-705.073 1186,-686.073 1082,-686.073"/>
<text text-anchor="middle" x="1134" y="-693.073" font-family="Helvetica,sans-Serif" font-size="10.00">setINTEGERParam</text>
</a>
</g>
</g>
<!-- Node9&#45;&gt;Node10 -->
<g id="edge9" class="edge"><title>Node9&#45;&gt;Node10</title>
<path fill="none" stroke="midnightblue" d="M932.248,-516.618C940.464,-554.533 963.827,-636.528 1018,-676.573 1036.14,-689.985 1060.3,-695.319 1081.79,-697.066"/>
<polygon fill="midnightblue" stroke="midnightblue" points="935.586,-515.467 930.167,-506.362 928.726,-516.859 935.586,-515.467"/>
</g>
<!-- Node13 -->
<g id="node13" class="node"><title>Node13</title>
<g id="a_node13"><a xlink:href="classtomoBay_1_1model_1_1sql_1_1queries_1_1concreteQueries_1_1update_1_1UpdateInvoiceStatus.html#af9020b85517904668d036bc2bf89433c" target="_top" xlink:title="tomoBay.model.sql.queries.concrete\lQueries.update.UpdateInvoiceStatus.set\lParameters">
<polygon fill="white" stroke="black" points="1298.5,-787.073 1298.5,-828.073 1492.5,-828.073 1492.5,-787.073 1298.5,-787.073"/>
<text text-anchor="start" x="1306.5" y="-816.073" font-family="Helvetica,sans-Serif" font-size="10.00">tomoBay.model.sql.queries.concrete</text>
<text text-anchor="start" x="1306.5" y="-805.073" font-family="Helvetica,sans-Serif" font-size="10.00">Queries.update.UpdateInvoiceStatus.set</text>
<text text-anchor="middle" x="1395.5" y="-794.073" font-family="Helvetica,sans-Serif" font-size="10.00">Parameters</text>
</a>
</g>
</g>
<!-- Node9&#45;&gt;Node13 -->
<g id="edge19" class="edge"><title>Node9&#45;&gt;Node13</title>
<path fill="none" stroke="midnightblue" d="M932.435,-516.192C946.194,-583.836 992.68,-804.252 1018,-823.573 1113.57,-896.5 1265.92,-856.494 1344.3,-828.103"/>
<polygon fill="midnightblue" stroke="midnightblue" points="935.863,-515.485 930.451,-506.377 929.002,-516.872 935.863,-515.485"/>
</g>
<!-- Node9&#45;&gt;Node14 -->
<g id="edge24" class="edge"><title>Node9&#45;&gt;Node14</title>
<path fill="none" stroke="midnightblue" d="M935.084,-477.144C954.122,-421.217 1008.49,-263.385 1018,-256.573 1059.4,-226.921 1189.79,-229.278 1285.56,-235.671"/>
<polygon fill="midnightblue" stroke="midnightblue" points="931.674,-476.302 931.771,-486.896 938.302,-478.554 931.674,-476.302"/>
</g>
<!-- Node9&#45;&gt;Node15 -->
<g id="edge25" class="edge"><title>Node9&#45;&gt;Node15</title>
<path fill="none" stroke="midnightblue" d="M931.98,-516.324C944.908,-588.646 990.825,-835.989 1018,-858.573 1058.66,-892.366 1197.86,-892.278 1295.09,-887.607"/>
<polygon fill="midnightblue" stroke="midnightblue" points="935.391,-515.514 930.196,-506.28 928.499,-516.738 935.391,-515.514"/>
</g>
<!-- Node17 -->
<g id="node17" class="node"><title>Node17</title>
<g id="a_node17"><a xlink:href="classtomoBay_1_1model_1_1sql_1_1queries_1_1concreteQueries_1_1insert_1_1InsertOrderInOrderStatus.html#af9020b85517904668d036bc2bf89433c" target="_top" xlink:title="tomoBay.model.sql.queries.concrete\lQueries.insert.InsertOrderInOrderStatus.set\lParameters">
<polygon fill="white" stroke="black" points="1031,-773.073 1031,-814.073 1237,-814.073 1237,-773.073 1031,-773.073"/>
<text text-anchor="start" x="1039" y="-802.073" font-family="Helvetica,sans-Serif" font-size="10.00">tomoBay.model.sql.queries.concrete</text>
<text text-anchor="start" x="1039" y="-791.073" font-family="Helvetica,sans-Serif" font-size="10.00">Queries.insert.InsertOrderInOrderStatus.set</text>
<text text-anchor="middle" x="1134" y="-780.073" font-family="Helvetica,sans-Serif" font-size="10.00">Parameters</text>
</a>
</g>
</g>
<!-- Node9&#45;&gt;Node17 -->
<g id="edge18" class="edge"><title>Node9&#45;&gt;Node17</title>
<path fill="none" stroke="midnightblue" d="M929.036,-516.31C931.481,-565.654 944.91,-695.309 1018,-763.573 1021.92,-767.235 1026.23,-770.462 1030.81,-773.306"/>
<polygon fill="midnightblue" stroke="midnightblue" points="932.533,-516.162 928.641,-506.307 925.538,-516.438 932.533,-516.162"/>
</g>
<!-- Node9&#45;&gt;Node18 -->
<g id="edge20" class="edge"><title>Node9&#45;&gt;Node18</title>
<path fill="none" stroke="midnightblue" d="M935.552,-477.328C946.358,-447.451 967.306,-387.991 982,-336.573 1000.96,-270.237 969.734,-234.871 1018,-185.573 1023.99,-179.455 1031.06,-174.531 1038.7,-170.577"/>
<polygon fill="midnightblue" stroke="midnightblue" points="932.189,-476.333 932.059,-486.927 938.768,-478.726 932.189,-476.333"/>
</g>
<!-- Node9&#45;&gt;Node19 -->
<g id="edge21" class="edge"><title>Node9&#45;&gt;Node19</title>
<path fill="none" stroke="midnightblue" d="M930.674,-476.688C938.599,-407.799 968.115,-180.818 1018,-130.573 1023.15,-125.386 1029.08,-121.08 1035.48,-117.51"/>
<polygon fill="midnightblue" stroke="midnightblue" points="927.155,-476.663 929.516,-486.992 934.111,-477.446 927.155,-476.663"/>
</g>
<!-- Node9&#45;&gt;Node20 -->
<g id="edge23" class="edge"><title>Node9&#45;&gt;Node20</title>
<path fill="none" stroke="midnightblue" d="M932.372,-516.442C947.762,-595.026 1004.42,-880.528 1018,-894.573 1023.88,-900.656 1030.83,-905.56 1038.35,-909.506"/>
<polygon fill="midnightblue" stroke="midnightblue" points="935.764,-515.55 930.411,-506.406 928.894,-516.892 935.764,-515.55"/>
</g>
<!-- Node21 -->
<g id="node21" class="node"><title>Node21</title>
<g id="a_node21"><a xlink:href="classtomoBay_1_1model_1_1sql_1_1queries_1_1concreteQueries_1_1update_1_1UpdateEbayBuyer.html#af9020b85517904668d036bc2bf89433c" target="_top" xlink:title="tomoBay.model.sql.queries.concrete\lQueries.update.UpdateEbayBuyer.setParameters">
<polygon fill="white" stroke="black" points="1018,-724.573 1018,-754.573 1250,-754.573 1250,-724.573 1018,-724.573"/>
<text text-anchor="start" x="1026" y="-742.573" font-family="Helvetica,sans-Serif" font-size="10.00">tomoBay.model.sql.queries.concrete</text>
<text text-anchor="middle" x="1134" y="-731.573" font-family="Helvetica,sans-Serif" font-size="10.00">Queries.update.UpdateEbayBuyer.setParameters</text>
</a>
</g>
</g>
<!-- Node9&#45;&gt;Node21 -->
<g id="edge26" class="edge"><title>Node9&#45;&gt;Node21</title>
<path fill="none" stroke="midnightblue" d="M930.539,-516.275C936.095,-559.347 955.544,-662.218 1018,-714.573 1022.54,-718.38 1027.53,-721.644 1032.8,-724.442"/>
<polygon fill="midnightblue" stroke="midnightblue" points="934.003,-515.763 929.361,-506.239 927.051,-516.579 934.003,-515.763"/>
</g>
<!-- Node22 -->
<g id="node22" class="node"><title>Node22</title>
<g id="a_node22"><a xlink:href="classtomoBay_1_1model_1_1sql_1_1queries_1_1concreteQueries_1_1insert_1_1InsertEbayBuyers.html#af9020b85517904668d036bc2bf89433c" target="_top" xlink:title="tomoBay.model.sql.queries.concrete\lQueries.insert.InsertEbayBuyers.set\lParameters">
<polygon fill="white" stroke="black" points="1046,-626.073 1046,-667.073 1222,-667.073 1222,-626.073 1046,-626.073"/>
<text text-anchor="start" x="1054" y="-655.073" font-family="Helvetica,sans-Serif" font-size="10.00">tomoBay.model.sql.queries.concrete</text>
<text text-anchor="start" x="1054" y="-644.073" font-family="Helvetica,sans-Serif" font-size="10.00">Queries.insert.InsertEbayBuyers.set</text>
<text text-anchor="middle" x="1134" y="-633.073" font-family="Helvetica,sans-Serif" font-size="10.00">Parameters</text>
</a>
</g>
</g>
<!-- Node9&#45;&gt;Node22 -->
<g id="edge27" class="edge"><title>Node9&#45;&gt;Node22</title>
<path fill="none" stroke="midnightblue" d="M937.219,-515.112C950.711,-541.732 979.194,-590.445 1018,-616.573 1026.47,-622.277 1035.97,-626.897 1045.77,-630.639"/>
<polygon fill="midnightblue" stroke="midnightblue" points="940.338,-513.522 932.793,-506.085 934.053,-516.604 940.338,-513.522"/>
</g>
<!-- Node23 -->
<g id="node23" class="node"><title>Node23</title>
<g id="a_node23"><a xlink:href="classtomoBay_1_1model_1_1sql_1_1queries_1_1concreteQueries_1_1select_1_1params_1_1SelectEbayOrderByBuyer.html#af9020b85517904668d036bc2bf89433c" target="_top" xlink:title="tomoBay.model.sql.queries.concrete\lQueries.select.params.SelectEbayOrder\lByBuyer.setParameters">
<polygon fill="white" stroke="black" points="1038,-566.073 1038,-607.073 1230,-607.073 1230,-566.073 1038,-566.073"/>
<text text-anchor="start" x="1046" y="-595.073" font-family="Helvetica,sans-Serif" font-size="10.00">tomoBay.model.sql.queries.concrete</text>
<text text-anchor="start" x="1046" y="-584.073" font-family="Helvetica,sans-Serif" font-size="10.00">Queries.select.params.SelectEbayOrder</text>
<text text-anchor="middle" x="1134" y="-573.073" font-family="Helvetica,sans-Serif" font-size="10.00">ByBuyer.setParameters</text>
</a>
</g>
</g>
<!-- Node9&#45;&gt;Node23 -->
<g id="edge28" class="edge"><title>Node9&#45;&gt;Node23</title>
<path fill="none" stroke="midnightblue" d="M948.119,-512.569C965.528,-526.045 992.142,-544.936 1018,-556.573 1025.71,-560.045 1033.91,-563.174 1042.23,-565.981"/>
<polygon fill="midnightblue" stroke="midnightblue" points="949.923,-509.535 939.906,-506.083 945.585,-515.028 949.923,-509.535"/>
</g>
<!-- Node24 -->
<g id="node24" class="node"><title>Node24</title>
<g id="a_node24"><a xlink:href="classtomoBay_1_1model_1_1sql_1_1queries_1_1concreteQueries_1_1select_1_1params_1_1SelectTransactionByOrder.html#af9020b85517904668d036bc2bf89433c" target="_top" xlink:title="tomoBay.model.sql.queries.concrete\lQueries.select.params.SelectTransaction\lByOrder.setParameters">
<polygon fill="white" stroke="black" points="1035.5,-506.073 1035.5,-547.073 1232.5,-547.073 1232.5,-506.073 1035.5,-506.073"/>
<text text-anchor="start" x="1043.5" y="-535.073" font-family="Helvetica,sans-Serif" font-size="10.00">tomoBay.model.sql.queries.concrete</text>
<text text-anchor="start" x="1043.5" y="-524.073" font-family="Helvetica,sans-Serif" font-size="10.00">Queries.select.params.SelectTransaction</text>
<text text-anchor="middle" x="1134" y="-513.073" font-family="Helvetica,sans-Serif" font-size="10.00">ByOrder.setParameters</text>
</a>
</g>
</g>
<!-- Node9&#45;&gt;Node24 -->
<g id="edge29" class="edge"><title>Node9&#45;&gt;Node24</title>
<path fill="none" stroke="midnightblue" d="M992.428,-505.951C1006.06,-507.951 1020.76,-510.107 1035.33,-512.244"/>
<polygon fill="midnightblue" stroke="midnightblue" points="992.632,-502.444 982.23,-504.455 991.616,-509.37 992.632,-502.444"/>
</g>
<!-- Node25 -->
<g id="node25" class="node"><title>Node25</title>
<g id="a_node25"><a xlink:href="classtomoBay_1_1model_1_1sql_1_1queries_1_1concreteQueries_1_1select_1_1params_1_1SelectBrandAndPartNoByOrderID.html#af9020b85517904668d036bc2bf89433c" target="_top" xlink:title="tomoBay.model.sql.queries.concrete\lQueries.select.params.SelectBrandAnd\lPartNoByOrderID.setParameters">
<polygon fill="white" stroke="black" points="1040,-446.073 1040,-487.073 1228,-487.073 1228,-446.073 1040,-446.073"/>
<text text-anchor="start" x="1048" y="-475.073" font-family="Helvetica,sans-Serif" font-size="10.00">tomoBay.model.sql.queries.concrete</text>
<text text-anchor="start" x="1048" y="-464.073" font-family="Helvetica,sans-Serif" font-size="10.00">Queries.select.params.SelectBrandAnd</text>
<text text-anchor="middle" x="1134" y="-453.073" font-family="Helvetica,sans-Serif" font-size="10.00">PartNoByOrderID.setParameters</text>
</a>
</g>
</g>
<!-- Node9&#45;&gt;Node25 -->
<g id="edge30" class="edge"><title>Node9&#45;&gt;Node25</title>
<path fill="none" stroke="midnightblue" d="M992.393,-487.2C1007.4,-484.999 1023.69,-482.608 1039.69,-480.261"/>
<polygon fill="midnightblue" stroke="midnightblue" points="991.616,-483.777 982.23,-488.691 992.632,-490.702 991.616,-483.777"/>
</g>
<!-- Node26 -->
<g id="node26" class="node"><title>Node26</title>
<g id="a_node26"><a xlink:href="classtomoBay_1_1model_1_1sql_1_1queries_1_1concreteQueries_1_1select_1_1params_1_1SelectEbayOrderByID.html#af9020b85517904668d036bc2bf89433c" target="_top" xlink:title="tomoBay.model.sql.queries.concrete\lQueries.select.params.SelectEbayOrder\lByID.setParameters">
<polygon fill="white" stroke="black" points="1038,-386.073 1038,-427.073 1230,-427.073 1230,-386.073 1038,-386.073"/>
<text text-anchor="start" x="1046" y="-415.073" font-family="Helvetica,sans-Serif" font-size="10.00">tomoBay.model.sql.queries.concrete</text>
<text text-anchor="start" x="1046" y="-404.073" font-family="Helvetica,sans-Serif" font-size="10.00">Queries.select.params.SelectEbayOrder</text>
<text text-anchor="middle" x="1134" y="-393.073" font-family="Helvetica,sans-Serif" font-size="10.00">ByID.setParameters</text>
</a>
</g>
</g>
<!-- Node9&#45;&gt;Node26 -->
<g id="edge31" class="edge"><title>Node9&#45;&gt;Node26</title>
<path fill="none" stroke="midnightblue" d="M948.119,-480.577C965.528,-467.101 992.142,-448.21 1018,-436.573 1025.71,-433.101 1033.91,-429.972 1042.23,-427.165"/>
<polygon fill="midnightblue" stroke="midnightblue" points="945.585,-478.118 939.906,-487.063 949.923,-483.612 945.585,-478.118"/>
</g>
<!-- Node27 -->
<g id="node27" class="node"><title>Node27</title>
<g id="a_node27"><a xlink:href="classtomoBay_1_1model_1_1sql_1_1queries_1_1concreteQueries_1_1select_1_1params_1_1SelectEbayBuyer.html#af9020b85517904668d036bc2bf89433c" target="_top" xlink:title="tomoBay.model.sql.queries.concrete\lQueries.select.params.SelectEbayBuyer.set\lParameters">
<polygon fill="white" stroke="black" points="1029,-326.073 1029,-367.073 1239,-367.073 1239,-326.073 1029,-326.073"/>
<text text-anchor="start" x="1037" y="-355.073" font-family="Helvetica,sans-Serif" font-size="10.00">tomoBay.model.sql.queries.concrete</text>
<text text-anchor="start" x="1037" y="-344.073" font-family="Helvetica,sans-Serif" font-size="10.00">Queries.select.params.SelectEbayBuyer.set</text>
<text text-anchor="middle" x="1134" y="-333.073" font-family="Helvetica,sans-Serif" font-size="10.00">Parameters</text>
</a>
</g>
</g>
<!-- Node9&#45;&gt;Node27 -->
<g id="edge32" class="edge"><title>Node9&#45;&gt;Node27</title>
<path fill="none" stroke="midnightblue" d="M937.219,-478.034C950.711,-451.415 979.194,-402.701 1018,-376.573 1023.31,-373.001 1029.01,-369.854 1034.95,-367.081"/>
<polygon fill="midnightblue" stroke="midnightblue" points="934.053,-476.542 932.793,-487.061 940.338,-479.624 934.053,-476.542"/>
</g>
<!-- Node28 -->
<g id="node28" class="node"><title>Node28</title>
<g id="a_node28"><a xlink:href="classtomoBay_1_1model_1_1sql_1_1queries_1_1concreteQueries_1_1select_1_1params_1_1SelectFullOrderLine.html#af9020b85517904668d036bc2bf89433c" target="_top" xlink:title="tomoBay.model.sql.queries.concrete\lQueries.select.params.SelectFullOrder\lLine.setParameters">
<polygon fill="white" stroke="black" points="1041.5,-266.073 1041.5,-307.073 1226.5,-307.073 1226.5,-266.073 1041.5,-266.073"/>
<text text-anchor="start" x="1049.5" y="-295.073" font-family="Helvetica,sans-Serif" font-size="10.00">tomoBay.model.sql.queries.concrete</text>
<text text-anchor="start" x="1049.5" y="-284.073" font-family="Helvetica,sans-Serif" font-size="10.00">Queries.select.params.SelectFullOrder</text>
<text text-anchor="middle" x="1134" y="-273.073" font-family="Helvetica,sans-Serif" font-size="10.00">Line.setParameters</text>
</a>
</g>
</g>
<!-- Node9&#45;&gt;Node28 -->
<g id="edge33" class="edge"><title>Node9&#45;&gt;Node28</title>
<path fill="none" stroke="midnightblue" d="M932.591,-476.97C941.392,-439.811 965.713,-359.053 1018,-316.573 1024.97,-310.913 1032.89,-306.311 1041.23,-302.57"/>
<polygon fill="midnightblue" stroke="midnightblue" points="929.112,-476.488 930.344,-487.011 935.943,-478.017 929.112,-476.488"/>
</g>
<!-- Node10&#45;&gt;Node2 -->
<g id="edge13" class="edge"><title>Node10&#45;&gt;Node2</title>
<path fill="none" stroke="midnightblue" d="M1196.22,-692.476C1215.71,-694.644 1235.86,-700.686 1250,-714.573 1313.19,-776.637 1235.03,-838.14 1286,-910.573 1299.1,-929.188 1319.58,-943.104 1339.24,-953.054"/>
<polygon fill="midnightblue" stroke="midnightblue" points="1196.37,-688.977 1186.12,-691.674 1195.81,-695.955 1196.37,-688.977"/>
</g>
<!-- Node10&#45;&gt;Node5 -->
<g id="edge15" class="edge"><title>Node10&#45;&gt;Node5</title>
<path fill="none" stroke="midnightblue" d="M1196.02,-699.588C1215.91,-697.594 1236.36,-691.426 1250,-676.573 1318.76,-601.709 1220.97,-298.697 1286,-220.573 1291.86,-213.53 1299.23,-208.095 1307.35,-203.916"/>
<polygon fill="midnightblue" stroke="midnightblue" points="1195.76,-696.098 1186.02,-700.263 1196.24,-703.082 1195.76,-696.098"/>
</g>
<!-- Node11 -->
<g id="node11" class="node"><title>Node11</title>
<g id="a_node11"><a xlink:href="classtomoBay_1_1model_1_1sql_1_1framework_1_1QueryUtility.html#a2da2ce60a8a037d55bdc69309db4815b" target="_top" xlink:title="private ctor ensures that this class is never instantiated ">
<polygon fill="white" stroke="black" points="1361.5,-735.073 1361.5,-754.073 1429.5,-754.073 1429.5,-735.073 1361.5,-735.073"/>
<text text-anchor="middle" x="1395.5" y="-742.073" font-family="Helvetica,sans-Serif" font-size="10.00">QueryUtility</text>
</a>
</g>
</g>
<!-- Node10&#45;&gt;Node11 -->
<g id="edge10" class="edge"><title>Node10&#45;&gt;Node11</title>
<path fill="none" stroke="midnightblue" d="M1196.31,-704.155C1213.75,-707.014 1232.71,-710.521 1250,-714.573 1266.29,-718.39 1269.73,-721.678 1286,-725.573 1310.92,-731.539 1339.48,-736.465 1361.04,-739.805"/>
<polygon fill="midnightblue" stroke="midnightblue" points="1196.67,-700.668 1186.24,-702.547 1195.56,-707.58 1196.67,-700.668"/>
</g>
<!-- Node12 -->
<g id="node12" class="node"><title>Node12</title>
<g id="a_node12"><a xlink:href="classtomoBay_1_1model_1_1sql_1_1queries_1_1concreteQueries_1_1update_1_1UpdateInvoiceStatusSRN.html#af9020b85517904668d036bc2bf89433c" target="_top" xlink:title="tomoBay.model.sql.queries.concrete\lQueries.update.UpdateInvoiceStatusSRN.set\lParameters">
<polygon fill="white" stroke="black" points="1288,-675.073 1288,-716.073 1503,-716.073 1503,-675.073 1288,-675.073"/>
<text text-anchor="start" x="1296" y="-704.073" font-family="Helvetica,sans-Serif" font-size="10.00">tomoBay.model.sql.queries.concrete</text>
<text text-anchor="start" x="1296" y="-693.073" font-family="Helvetica,sans-Serif" font-size="10.00">Queries.update.UpdateInvoiceStatusSRN.set</text>
<text text-anchor="middle" x="1395.5" y="-682.073" font-family="Helvetica,sans-Serif" font-size="10.00">Parameters</text>
</a>
</g>
</g>
<!-- Node10&#45;&gt;Node12 -->
<g id="edge11" class="edge"><title>Node10&#45;&gt;Node12</title>
<path fill="none" stroke="midnightblue" d="M1196.44,-695.573C1223.74,-695.573 1256.69,-695.573 1287.8,-695.573"/>
<polygon fill="midnightblue" stroke="midnightblue" points="1196.27,-692.073 1186.27,-695.573 1196.27,-699.073 1196.27,-692.073"/>
</g>
<!-- Node10&#45;&gt;Node13 -->
<g id="edge12" class="edge"><title>Node10&#45;&gt;Node13</title>
<path fill="none" stroke="midnightblue" d="M1196.1,-696.916C1214.48,-699.551 1233.99,-704.749 1250,-714.573 1273.03,-728.708 1264.67,-746.979 1286,-763.573 1298.19,-773.06 1312.71,-780.791 1327.09,-786.974"/>
<polygon fill="midnightblue" stroke="midnightblue" points="1196.38,-693.425 1186.04,-695.703 1195.55,-700.375 1196.38,-693.425"/>
</g>
<!-- Node10&#45;&gt;Node14 -->
<g id="edge14" class="edge"><title>Node10&#45;&gt;Node14</title>
<path fill="none" stroke="midnightblue" d="M1196.41,-697.331C1215.43,-694.965 1235.24,-689.142 1250,-676.573 1283.94,-647.66 1370.57,-333.893 1390.41,-260.751"/>
<polygon fill="midnightblue" stroke="midnightblue" points="1195.89,-693.864 1186.27,-698.291 1196.55,-700.833 1195.89,-693.864"/>
</g>
<!-- Node10&#45;&gt;Node15 -->
<g id="edge16" class="edge"><title>Node10&#45;&gt;Node15</title>
<path fill="none" stroke="midnightblue" d="M1196.45,-693.451C1215.56,-695.774 1235.43,-701.664 1250,-714.573 1292.64,-752.341 1247.63,-795.475 1286,-837.573 1294.53,-846.933 1305.36,-854.285 1316.86,-860.053"/>
<polygon fill="midnightblue" stroke="midnightblue" points="1196.52,-689.944 1186.25,-692.524 1195.89,-696.915 1196.52,-689.944"/>
</g>
<!-- Node16 -->
<g id="node16" class="node"><title>Node16</title>
<g id="a_node16"><a xlink:href="classtomoBay_1_1model_1_1sql_1_1queries_1_1concreteQueries_1_1select_1_1params_1_1SelectBrandByInv.html#af9020b85517904668d036bc2bf89433c" target="_top" xlink:title="tomoBay.model.sql.queries.concrete\lQueries.select.params.SelectBrandBy\lInv.setParameters">
<polygon fill="white" stroke="black" points="1304,-615.073 1304,-656.073 1487,-656.073 1487,-615.073 1304,-615.073"/>
<text text-anchor="start" x="1312" y="-644.073" font-family="Helvetica,sans-Serif" font-size="10.00">tomoBay.model.sql.queries.concrete</text>
<text text-anchor="start" x="1312" y="-633.073" font-family="Helvetica,sans-Serif" font-size="10.00">Queries.select.params.SelectBrandBy</text>
<text text-anchor="middle" x="1395.5" y="-622.073" font-family="Helvetica,sans-Serif" font-size="10.00">Inv.setParameters</text>
</a>
</g>
</g>
<!-- Node10&#45;&gt;Node16 -->
<g id="edge17" class="edge"><title>Node10&#45;&gt;Node16</title>
<path fill="none" stroke="midnightblue" d="M1196.31,-686.991C1213.75,-684.132 1232.71,-680.625 1250,-676.573 1266.29,-672.757 1269.94,-670.247 1286,-665.573 1296.7,-662.461 1308.01,-659.247 1319.13,-656.132"/>
<polygon fill="midnightblue" stroke="midnightblue" points="1195.56,-683.566 1186.24,-688.599 1196.67,-690.479 1195.56,-683.566"/>
</g>
</g>
</svg>
        <g id="navigator" transform="translate(0 0)" fill="#404254">
                <rect fill="#f2f5e9" fill-opacity="0.5" stroke="#606060" stroke-width=".5" x="0" y="0" width="60" height="60"/>
                <use id="zoomplus" xlink:href="#zoomPlus" x="17" y="9" onmousedown="handleZoom(evt,'in')"/>
                <use id="zoomminus" xlink:href="#zoomMin" x="42" y="9" onmousedown="handleZoom(evt,'out')"/>
                <use id="reset" xlink:href="#resetDef" x="30" y="36" onmousedown="handleReset()"/>
                <g id="arrowUp" xlink:href="#dirArrow" transform="translate(30 24)" onmousedown="handlePan(0,-1)">
                  <use xlink:href="#rim" fill="#404040">
                        <set attributeName="fill" to="#808080" begin="arrowUp.mouseover" end="arrowUp.mouseout"/>
                  </use>
                  <path fill="none" stroke="white" stroke-width="1.5" d="M0,-3.0v7 M-2.5,-0.5L0,-3.0L2.5,-0.5"/>
                </g>
                <g id="arrowRight" xlink:href="#dirArrow" transform="rotate(90) translate(36 -43)" onmousedown="handlePan(1,0)">
                  <use xlink:href="#rim" fill="#404040">
                        <set attributeName="fill" to="#808080" begin="arrowRight.mouseover" end="arrowRight.mouseout"/>
                  </use>
                  <path fill="none" stroke="white" stroke-width="1.5" d="M0,-3.0v7 M-2.5,-0.5L0,-3.0L2.5,-0.5"/>
                </g>
                <g id="arrowDown" xlink:href="#dirArrow" transform="rotate(180) translate(-30 -48)" onmousedown="handlePan(0,1)">
                  <use xlink:href="#rim" fill="#404040">
                        <set attributeName="fill" to="#808080" begin="arrowDown.mouseover" end="arrowDown.mouseout"/>
                  </use>
                  <path fill="none" stroke="white" stroke-width="1.5" d="M0,-3.0v7 M-2.5,-0.5L0,-3.0L2.5,-0.5"/>
                </g>
                <g id="arrowLeft" xlink:href="#dirArrow" transform="rotate(270) translate(-36 17)" onmousedown="handlePan(-1,0)">
                  <use xlink:href="#rim" fill="#404040">
                        <set attributeName="fill" to="#808080" begin="arrowLeft.mouseover" end="arrowLeft.mouseout"/>
                  </use>
                  <path fill="none" stroke="white" stroke-width="1.5" d="M0,-3.0v7 M-2.5,-0.5L0,-3.0L2.5,-0.5"/>
                </g>
        </g>
        <svg viewBox="0 0 15 15" width="100%" height="30px" preserveAspectRatio="xMaxYMin meet">
         <g id="arrow_out" transform="scale(0.3 0.3)">
          <a xlink:href="classtomoBay_1_1model_1_1sql_1_1framework_1_1QueryUtility_a202aab30c77e06c32318efd5cf949ca3_icgraph_org.svg" target="_base">
           <rect id="button" ry="5" rx="5" y="6" x="6" height="38" width="38"
                fill="#f2f5e9" fill-opacity="0.5" stroke="#606060" stroke-width="1.0"/>
           <path id="arrow"
             d="M 11.500037,31.436501 C 11.940474,20.09759 22.043105,11.32322 32.158766,21.979434 L 37.068811,17.246167 C 37.068811,17.246167 37.088388,32 37.088388,32 L 22.160133,31.978069 C 22.160133,31.978069 26.997745,27.140456 26.997745,27.140456 C 18.528582,18.264221 13.291696,25.230495 11.500037,31.436501 z"
             style="fill:#404040;"/>
          </a>
         </g>
        </svg>
</svg>
