<?xml version="1.0" encoding="UTF-8" standalone="no"?>
<!DOCTYPE svg PUBLIC "-//W3C//DTD SVG 1.1//EN"
 "http://www.w3.org/Graphics/SVG/1.1/DTD/svg11.dtd">
<!-- Generated by graphviz version 2.38.0 (20140413.2041)
 -->
<!-- Title: onRunning Pages: 1 -->
<!--zoomable 818 -->
<svg id="main" version="1.1" xmlns="http://www.w3.org/2000/svg" xmlns:xlink="http://www.w3.org/1999/xlink" xml:space="preserve" onload="init(evt)">
<style type="text/css"><![CDATA[
.edge:hover path { stroke: red; }
.edge:hover polygon { stroke: red; fill: red; }
]]></style>
<script type="text/javascript"><![CDATA[
var edges = document.getElementsByTagName('g');
if (edges && edges.length) {
  for (var i=0;i<edges.length;i++) {
    if (edges[i].id.substr(0,4)=='edge') {
      edges[i].setAttribute('class','edge');
    }
  }
}
]]></script>
        <defs>
                <circle id="rim" cx="0" cy="0" r="7"/>
                <circle id="rim2" cx="0" cy="0" r="3.5"/>
                <g id="zoomPlus">
                        <use xlink:href="#rim" fill="#404040">
                                <set attributeName="fill" to="#808080" begin="zoomplus.mouseover" end="zoomplus.mouseout"/>
                        </use>
                        <path d="M-4,0h8M0,-4v8" fill="none" stroke="white" stroke-width="1.5" pointer-events="none"/>
                </g>
                <g id="zoomMin">
                        <use xlink:href="#rim" fill="#404040">
                                <set attributeName="fill" to="#808080" begin="zoomminus.mouseover" end="zoomminus.mouseout"/>
                        </use>
                        <path d="M-4,0h8" fill="none" stroke="white" stroke-width="1.5" pointer-events="none"/>
                </g>
                <g id="dirArrow">
                        <path fill="none" stroke="white" stroke-width="1.5" d="M0,-3.0v7 M-2.5,-0.5L0,-3.0L2.5,-0.5"/>
                </g>
               <g id="resetDef">
                       <use xlink:href="#rim2" fill="#404040">
                               <set attributeName="fill" to="#808080" begin="reset.mouseover" end="reset.mouseout"/>
                       </use>
               </g>
        </defs>

<script type="text/javascript">
var viewWidth = 1196;
var viewHeight = 818;
var sectionId = 'dynsection-2';
</script>
<script xlink:href="svgpan.js"/>
<svg id="graph" class="graph">
<g id="viewport">
<title>onRunning</title>
<polygon fill="white" stroke="none" points="-4,4 -4,-813.5 1192,-813.5 1192,4 -4,4"/>
<!-- Node1 -->
<g id="node1" class="node"><title>Node1</title>
<polygon fill="#bfbfbf" stroke="black" points="0,-539.5 0,-558.5 63,-558.5 63,-539.5 0,-539.5"/>
<text text-anchor="middle" x="31.5" y="-546.5" font-family="Helvetica,sans-Serif" font-size="10.00">onRunning</text>
</g>
<!-- Node2 -->
<g id="node2" class="node"><title>Node2</title>
<g id="a_node2"><a xlink:href="classtomoBay_1_1model_1_1services_1_1basicEbayUpdateService_1_1OnRunning.html#ae4a4f4cadce2787c7e80005639fbd5d9" target="_top" xlink:title="this method defines what to do in the given derived state ">
<polygon fill="white" stroke="black" points="99,-534 99,-564 292,-564 292,-534 99,-534"/>
<text text-anchor="start" x="107" y="-552" font-family="Helvetica,sans-Serif" font-size="10.00">tomoBay.model.services.basic</text>
<text text-anchor="middle" x="195.5" y="-541" font-family="Helvetica,sans-Serif" font-size="10.00">EbayUpdateService.OnRunning.execute</text>
</a>
</g>
</g>
<!-- Node1&#45;&gt;Node2 -->
<g id="edge1" class="edge"><title>Node1&#45;&gt;Node2</title>
<path fill="none" stroke="midnightblue" d="M63.3523,-549C71.0379,-549 79.7165,-549 88.8579,-549"/>
<polygon fill="midnightblue" stroke="midnightblue" points="88.934,-552.5 98.9339,-549 88.9339,-545.5 88.934,-552.5"/>
</g>
<!-- Node3 -->
<g id="node3" class="node"><title>Node3</title>
<g id="a_node3"><a xlink:href="classtomoBay_1_1model_1_1eBayAPI_1_1EbayAccounts.html#afd73fefcdd9ef962a44be4ce715fbbed" target="_top" xlink:title="tomoBay.model.eBayAPI.Ebay\lAccounts.accounts">
<polygon fill="white" stroke="black" points="338,-779 338,-809 490,-809 490,-779 338,-779"/>
<text text-anchor="start" x="346" y="-797" font-family="Helvetica,sans-Serif" font-size="10.00">tomoBay.model.eBayAPI.Ebay</text>
<text text-anchor="middle" x="414" y="-786" font-family="Helvetica,sans-Serif" font-size="10.00">Accounts.accounts</text>
</a>
</g>
</g>
<!-- Node2&#45;&gt;Node3 -->
<g id="edge2" class="edge"><title>Node2&#45;&gt;Node3</title>
<path fill="none" stroke="midnightblue" d="M201.051,-564.006C213.957,-603.964 254.686,-713.731 328,-770 329.828,-771.403 331.735,-772.725 333.705,-773.969"/>
<polygon fill="midnightblue" stroke="midnightblue" points="332.25,-777.164 342.695,-778.943 335.639,-771.039 332.25,-777.164"/>
</g>
<!-- Node4 -->
<g id="node4" class="node"><title>Node4</title>
<g id="a_node4"><a xlink:href="classtomoBay_1_1model_1_1eBayAPI_1_1EbayAccounts.html#ae9b99457a79c932468c153115ef964b0" target="_top" xlink:title="retrieve the ebay api key for the account name specified ">
<polygon fill="white" stroke="black" points="338,-730 338,-760 490,-760 490,-730 338,-730"/>
<text text-anchor="start" x="346" y="-748" font-family="Helvetica,sans-Serif" font-size="10.00">tomoBay.model.eBayAPI.Ebay</text>
<text text-anchor="middle" x="414" y="-737" font-family="Helvetica,sans-Serif" font-size="10.00">Accounts.apiKey</text>
</a>
</g>
</g>
<!-- Node2&#45;&gt;Node4 -->
<g id="edge3" class="edge"><title>Node2&#45;&gt;Node4</title>
<path fill="none" stroke="midnightblue" d="M203.697,-564.027C220.531,-597.54 265.811,-678.762 328,-721 330.378,-722.615 332.864,-724.123 335.429,-725.53"/>
<polygon fill="midnightblue" stroke="midnightblue" points="333.894,-728.675 344.414,-729.935 336.976,-722.39 333.894,-728.675"/>
</g>
<!-- Node5 -->
<g id="node5" class="node"><title>Node5</title>
<g id="a_node5"><a xlink:href="classtomoBay_1_1model_1_1eBayAPI_1_1EbayAccounts.html#a17d78d1b20882cd5986119af592d4f3d" target="_top" xlink:title="retrieve the ebay server address for the account name specified ">
<polygon fill="white" stroke="black" points="338,-681 338,-711 490,-711 490,-681 338,-681"/>
<text text-anchor="start" x="346" y="-699" font-family="Helvetica,sans-Serif" font-size="10.00">tomoBay.model.eBayAPI.Ebay</text>
<text text-anchor="middle" x="414" y="-688" font-family="Helvetica,sans-Serif" font-size="10.00">Accounts.serverAddress</text>
</a>
</g>
</g>
<!-- Node2&#45;&gt;Node5 -->
<g id="edge4" class="edge"><title>Node2&#45;&gt;Node5</title>
<path fill="none" stroke="midnightblue" d="M208.571,-564.313C229.888,-590.326 276.813,-643.126 328,-672 331.193,-673.801 334.531,-675.475 337.958,-677.03"/>
<polygon fill="midnightblue" stroke="midnightblue" points="336.627,-680.267 347.204,-680.873 339.314,-673.803 336.627,-680.267"/>
</g>
<!-- Node6 -->
<g id="node6" class="node"><title>Node6</title>
<g id="a_node6"><a xlink:href="classtomoBay_1_1model_1_1eBayAPI_1_1EbayAccounts.html#a7df0b3cd6fc945ccbcbc0229394176c9" target="_top" xlink:title="retrieve the number of days previous to the current day that the system should retrieve orders from t...">
<polygon fill="white" stroke="black" points="338,-632 338,-662 490,-662 490,-632 338,-632"/>
<text text-anchor="start" x="346" y="-650" font-family="Helvetica,sans-Serif" font-size="10.00">tomoBay.model.eBayAPI.Ebay</text>
<text text-anchor="middle" x="414" y="-639" font-family="Helvetica,sans-Serif" font-size="10.00">Accounts.lookbackDays</text>
</a>
</g>
</g>
<!-- Node2&#45;&gt;Node6 -->
<g id="edge5" class="edge"><title>Node2&#45;&gt;Node6</title>
<path fill="none" stroke="midnightblue" d="M219.405,-564.116C244.996,-580.466 288.086,-606.412 328,-623 332.956,-625.06 338.146,-627.005 343.412,-628.828"/>
<polygon fill="midnightblue" stroke="midnightblue" points="342.349,-632.163 352.942,-631.977 344.545,-625.516 342.349,-632.163"/>
</g>
<!-- Node7 -->
<g id="node7" class="node"><title>Node7</title>
<g id="a_node7"><a xlink:href="classtomoBay_1_1model_1_1eBayAPI_1_1EbayAccounts.html#a137163c03f463ad5d9581aef47a9a3e4" target="_top" xlink:title="retrieve the id for the account name specified ">
<polygon fill="white" stroke="black" points="338,-583 338,-613 490,-613 490,-583 338,-583"/>
<text text-anchor="start" x="346" y="-601" font-family="Helvetica,sans-Serif" font-size="10.00">tomoBay.model.eBayAPI.Ebay</text>
<text text-anchor="middle" x="414" y="-590" font-family="Helvetica,sans-Serif" font-size="10.00">Accounts.id</text>
</a>
</g>
</g>
<!-- Node2&#45;&gt;Node7 -->
<g id="edge6" class="edge"><title>Node2&#45;&gt;Node7</title>
<path fill="none" stroke="midnightblue" d="M262.928,-564.035C286.307,-569.326 312.762,-575.313 336.877,-580.771"/>
<polygon fill="midnightblue" stroke="midnightblue" points="336.171,-584.2 346.697,-582.994 337.716,-577.373 336.171,-584.2"/>
</g>
<!-- Node8 -->
<g id="node8" class="node"><title>Node8</title>
<g id="a_node8"><a xlink:href="classtomoBay_1_1model_1_1eBayAPI_1_1OrdersCall.html#a6531876c53fd0c3c56eec68bd1b00df0" target="_top" xlink:title="This method performs a call to the API grabbing a list of orders for the specified number of days...">
<polygon fill="white" stroke="black" points="334.5,-534 334.5,-564 493.5,-564 493.5,-534 334.5,-534"/>
<text text-anchor="start" x="342.5" y="-552" font-family="Helvetica,sans-Serif" font-size="10.00">tomoBay.model.eBayAPI.Orders</text>
<text text-anchor="middle" x="414" y="-541" font-family="Helvetica,sans-Serif" font-size="10.00">Call.call</text>
</a>
</g>
</g>
<!-- Node2&#45;&gt;Node8 -->
<g id="edge7" class="edge"><title>Node2&#45;&gt;Node8</title>
<path fill="none" stroke="midnightblue" d="M292.09,-549C302.821,-549 313.719,-549 324.356,-549"/>
<polygon fill="midnightblue" stroke="midnightblue" points="324.461,-552.5 334.461,-549 324.461,-545.5 324.461,-552.5"/>
</g>
<!-- Node12 -->
<g id="node12" class="node"><title>Node12</title>
<g id="a_node12"><a xlink:href="classtomoBay_1_1model_1_1services_1_1basicEbayUpdateService_1_1Orders__Table.html#abb8f83ca32eba7defe488f4d08be8c74" target="_top" xlink:title="populates the Orders Table in the database with data grabbed from the ebay API ">
<polygon fill="white" stroke="black" points="338.5,-474.5 338.5,-515.5 489.5,-515.5 489.5,-474.5 338.5,-474.5"/>
<text text-anchor="start" x="346.5" y="-503.5" font-family="Helvetica,sans-Serif" font-size="10.00">tomoBay.model.services.basic</text>
<text text-anchor="start" x="346.5" y="-492.5" font-family="Helvetica,sans-Serif" font-size="10.00">EbayUpdateService.Orders</text>
<text text-anchor="middle" x="414" y="-481.5" font-family="Helvetica,sans-Serif" font-size="10.00">_Table.populate</text>
</a>
</g>
</g>
<!-- Node2&#45;&gt;Node12 -->
<g id="edge11" class="edge"><title>Node2&#45;&gt;Node12</title>
<path fill="none" stroke="midnightblue" d="M256.807,-533.958C279.021,-528.417 304.609,-522.035 328.562,-516.061"/>
<polygon fill="midnightblue" stroke="midnightblue" points="329.5,-519.434 338.356,-513.618 327.806,-512.642 329.5,-519.434"/>
</g>
<!-- Node18 -->
<g id="node18" class="node"><title>Node18</title>
<g id="a_node18"><a xlink:href="classtomoBay_1_1model_1_1services_1_1basicEbayUpdateService_1_1Transactions__Table.html#a6f7920f082037fcd84e9fb020730e4f6" target="_top" xlink:title="populates the Orders Table in the database with data grabbed from the ebay API ">
<polygon fill="white" stroke="black" points="332.5,-414.5 332.5,-455.5 495.5,-455.5 495.5,-414.5 332.5,-414.5"/>
<text text-anchor="start" x="340.5" y="-443.5" font-family="Helvetica,sans-Serif" font-size="10.00">tomoBay.model.services.basic</text>
<text text-anchor="start" x="340.5" y="-432.5" font-family="Helvetica,sans-Serif" font-size="10.00">EbayUpdateService.Transactions</text>
<text text-anchor="middle" x="414" y="-421.5" font-family="Helvetica,sans-Serif" font-size="10.00">_Table.populate</text>
</a>
</g>
</g>
<!-- Node2&#45;&gt;Node18 -->
<g id="edge18" class="edge"><title>Node2&#45;&gt;Node18</title>
<path fill="none" stroke="midnightblue" d="M217.037,-533.766C242.202,-515.609 286.609,-485.192 328,-465 331.984,-463.056 336.128,-461.175 340.346,-459.367"/>
<polygon fill="midnightblue" stroke="midnightblue" points="341.754,-462.573 349.668,-455.529 339.089,-456.1 341.754,-462.573"/>
</g>
<!-- Node19 -->
<g id="node19" class="node"><title>Node19</title>
<g id="a_node19"><a xlink:href="classtomoBay_1_1model_1_1services_1_1basicEbayUpdateService_1_1Buyers__Table.html#a6f7920f082037fcd84e9fb020730e4f6" target="_top" xlink:title="populates the Orders Table in the database with data grabbed from the ebay API ">
<polygon fill="white" stroke="black" points="338.5,-335.5 338.5,-376.5 489.5,-376.5 489.5,-335.5 338.5,-335.5"/>
<text text-anchor="start" x="346.5" y="-364.5" font-family="Helvetica,sans-Serif" font-size="10.00">tomoBay.model.services.basic</text>
<text text-anchor="start" x="346.5" y="-353.5" font-family="Helvetica,sans-Serif" font-size="10.00">EbayUpdateService.Buyers</text>
<text text-anchor="middle" x="414" y="-342.5" font-family="Helvetica,sans-Serif" font-size="10.00">_Table.populate</text>
</a>
</g>
</g>
<!-- Node2&#45;&gt;Node19 -->
<g id="edge22" class="edge"><title>Node2&#45;&gt;Node19</title>
<path fill="none" stroke="midnightblue" d="M207.878,-533.697C229.201,-505.725 277.591,-445.501 328,-405 338.581,-396.499 350.811,-388.542 362.638,-381.615"/>
<polygon fill="midnightblue" stroke="midnightblue" points="364.613,-384.517 371.57,-376.526 361.148,-378.435 364.613,-384.517"/>
</g>
<!-- Node22 -->
<g id="node22" class="node"><title>Node22</title>
<g id="a_node22"><a xlink:href="classtomoBay_1_1model_1_1services_1_1basicEbayUpdateService_1_1ItemsAndPartsTable.html#a0a4965df2e2331547f6b8d56f962b70c" target="_top" xlink:title="populates the Orders Table in the database with data grabbed from the ebay API ">
<polygon fill="white" stroke="black" points="328,-185.5 328,-226.5 500,-226.5 500,-185.5 328,-185.5"/>
<text text-anchor="start" x="336" y="-214.5" font-family="Helvetica,sans-Serif" font-size="10.00">tomoBay.model.services.basic</text>
<text text-anchor="start" x="336" y="-203.5" font-family="Helvetica,sans-Serif" font-size="10.00">EbayUpdateService.ItemsAndParts</text>
<text text-anchor="middle" x="414" y="-192.5" font-family="Helvetica,sans-Serif" font-size="10.00">Table.populate</text>
</a>
</g>
</g>
<!-- Node2&#45;&gt;Node22 -->
<g id="edge28" class="edge"><title>Node2&#45;&gt;Node22</title>
<path fill="none" stroke="midnightblue" d="M204.848,-533.863C225.046,-497.465 278.538,-402.401 328,-326 348.513,-294.315 373.682,-259.205 391.288,-235.193"/>
<polygon fill="midnightblue" stroke="midnightblue" points="394.301,-237.004 397.41,-226.875 388.663,-232.854 394.301,-237.004"/>
</g>
<!-- Node27 -->
<g id="node27" class="node"><title>Node27</title>
<g id="a_node27"><a xlink:href="classtomoBay_1_1helpers_1_1StackTraceToString.html#acc17f606a32b47fa21910194d3fc44c6" target="_top" xlink:title="Converts the stack trace of the exception provided into a string. ">
<polygon fill="white" stroke="black" points="342.5,-137 342.5,-167 485.5,-167 485.5,-137 342.5,-137"/>
<text text-anchor="start" x="350.5" y="-155" font-family="Helvetica,sans-Serif" font-size="10.00">tomoBay.helpers.StackTrace</text>
<text text-anchor="middle" x="414" y="-144" font-family="Helvetica,sans-Serif" font-size="10.00">ToString.toString</text>
</a>
</g>
</g>
<!-- Node2&#45;&gt;Node27 -->
<g id="edge35" class="edge"><title>Node2&#45;&gt;Node27</title>
<path fill="none" stroke="midnightblue" d="M197.095,-533.942C200.149,-477.8 218.586,-278.652 328,-176 329.726,-174.38 331.554,-172.869 333.463,-171.458"/>
<polygon fill="midnightblue" stroke="midnightblue" points="335.705,-174.183 342.307,-165.897 331.978,-168.257 335.705,-174.183"/>
</g>
<!-- Node9 -->
<g id="node9" class="node"><title>Node9</title>
<g id="a_node9"><a xlink:href="classtomoBay_1_1model_1_1eBayAPI_1_1OrdersCall.html#ae29dfd6b4e8a557a849bd0cd8b6c35e2" target="_top" xlink:title="convert the List&lt;OrderType[]&gt; passed in as an argument to a single OrderType[] containing all of the ...">
<polygon fill="white" stroke="black" points="556.5,-709 556.5,-739 715.5,-739 715.5,-709 556.5,-709"/>
<text text-anchor="start" x="564.5" y="-727" font-family="Helvetica,sans-Serif" font-size="10.00">tomoBay.model.eBayAPI.Orders</text>
<text text-anchor="middle" x="636" y="-716" font-family="Helvetica,sans-Serif" font-size="10.00">Call.reformResults</text>
</a>
</g>
</g>
<!-- Node8&#45;&gt;Node9 -->
<g id="edge8" class="edge"><title>Node8&#45;&gt;Node9</title>
<path fill="none" stroke="midnightblue" d="M487.19,-564.182C491.864,-566.935 496.208,-570.178 500,-574 541.023,-615.342 493.993,-659.659 536,-700 539.392,-703.258 543.148,-706.098 547.155,-708.571"/>
<polygon fill="midnightblue" stroke="midnightblue" points="545.813,-711.821 556.286,-713.422 549.097,-705.639 545.813,-711.821"/>
</g>
<!-- Node10 -->
<g id="node10" class="node"><title>Node10</title>
<g id="a_node10"><a xlink:href="classtomoBay_1_1model_1_1eBayAPI_1_1OrdersCall.html#a0636e18f9fb41faa3ba7c00887156b29" target="_top" xlink:title="this method does some setup for the API call ">
<polygon fill="white" stroke="black" points="556.5,-660 556.5,-690 715.5,-690 715.5,-660 556.5,-660"/>
<text text-anchor="start" x="564.5" y="-678" font-family="Helvetica,sans-Serif" font-size="10.00">tomoBay.model.eBayAPI.Orders</text>
<text text-anchor="middle" x="636" y="-667" font-family="Helvetica,sans-Serif" font-size="10.00">Call.setUpCall</text>
</a>
</g>
</g>
<!-- Node8&#45;&gt;Node10 -->
<g id="edge9" class="edge"><title>Node8&#45;&gt;Node10</title>
<path fill="none" stroke="midnightblue" d="M484.874,-564.01C490.313,-566.792 495.45,-570.091 500,-574 528.655,-598.618 506.76,-627.08 536,-651 539.388,-653.771 543.046,-656.231 546.891,-658.414"/>
<polygon fill="midnightblue" stroke="midnightblue" points="545.647,-661.704 556.16,-663.02 548.762,-655.436 545.647,-661.704"/>
</g>
<!-- Node11 -->
<g id="node11" class="node"><title>Node11</title>
<g id="a_node11"><a xlink:href="classtomoBay_1_1model_1_1eBayAPI_1_1OrdersCall.html#a5c2c034763b51de47c06064da1479d85" target="_top" xlink:title="do setup for the pagination. ">
<polygon fill="white" stroke="black" points="556.5,-611 556.5,-641 715.5,-641 715.5,-611 556.5,-611"/>
<text text-anchor="start" x="564.5" y="-629" font-family="Helvetica,sans-Serif" font-size="10.00">tomoBay.model.eBayAPI.Orders</text>
<text text-anchor="middle" x="636" y="-618" font-family="Helvetica,sans-Serif" font-size="10.00">Call.setUpPagination</text>
</a>
</g>
</g>
<!-- Node8&#45;&gt;Node11 -->
<g id="edge10" class="edge"><title>Node8&#45;&gt;Node11</title>
<path fill="none" stroke="midnightblue" d="M476.442,-564.057C484.552,-566.91 492.608,-570.212 500,-574 518.039,-583.244 517.743,-593.194 536,-602 540.098,-603.977 544.372,-605.799 548.746,-607.477"/>
<polygon fill="midnightblue" stroke="midnightblue" points="547.854,-610.874 558.449,-610.925 550.198,-604.278 547.854,-610.874"/>
</g>
<!-- Node13 -->
<g id="node13" class="node"><title>Node13</title>
<g id="a_node13"><a xlink:href="classtomoBay_1_1model_1_1dataTypes_1_1heteroTypeContainer_1_1HeteroFieldContainer.html#a3ba6289417930238a36bfee0056b6398" target="_top" xlink:title="add an arbitrary value to this Field container with the stipulation that this value is of the same ty...">
<polygon fill="white" stroke="black" points="772,-371 772,-401 966,-401 966,-371 772,-371"/>
<text text-anchor="start" x="780" y="-389" font-family="Helvetica,sans-Serif" font-size="10.00">tomoBay.model.dataTypes.hetero</text>
<text text-anchor="middle" x="869" y="-378" font-family="Helvetica,sans-Serif" font-size="10.00">TypeContainer.HeteroFieldContainer.add</text>
</a>
</g>
</g>
<!-- Node12&#45;&gt;Node13 -->
<g id="edge12" class="edge"><title>Node12&#45;&gt;Node13</title>
<path fill="none" stroke="midnightblue" d="M489.722,-512.854C556.569,-525.208 656.051,-534.525 736,-504 785.446,-485.121 828.094,-438.255 850.718,-409.591"/>
<polygon fill="midnightblue" stroke="midnightblue" points="853.752,-411.389 857.083,-401.331 848.207,-407.117 853.752,-411.389"/>
</g>
<!-- Node15 -->
<g id="node15" class="node"><title>Node15</title>
<g id="a_node15"><a xlink:href="classtomoBay_1_1model_1_1services_1_1basicEbayUpdateService_1_1Orders__Table.html#a40270d6bbca5a7946a70598b1f465f85" target="_top" xlink:title="tomoBay.model.services.basic\lEbayUpdateService.Orders\l_Table.populateGSP">
<polygon fill="white" stroke="black" points="560.5,-551.5 560.5,-592.5 711.5,-592.5 711.5,-551.5 560.5,-551.5"/>
<text text-anchor="start" x="568.5" y="-580.5" font-family="Helvetica,sans-Serif" font-size="10.00">tomoBay.model.services.basic</text>
<text text-anchor="start" x="568.5" y="-569.5" font-family="Helvetica,sans-Serif" font-size="10.00">EbayUpdateService.Orders</text>
<text text-anchor="middle" x="636" y="-558.5" font-family="Helvetica,sans-Serif" font-size="10.00">_Table.populateGSP</text>
</a>
</g>
</g>
<!-- Node12&#45;&gt;Node15 -->
<g id="edge14" class="edge"><title>Node12&#45;&gt;Node15</title>
<path fill="none" stroke="midnightblue" d="M473.667,-515.533C502.267,-525.543 536.834,-537.642 566.624,-548.068"/>
<polygon fill="midnightblue" stroke="midnightblue" points="565.52,-551.39 576.115,-551.39 567.832,-544.783 565.52,-551.39"/>
</g>
<!-- Node16 -->
<g id="node16" class="node"><title>Node16</title>
<g id="a_node16"><a xlink:href="classtomoBay_1_1model_1_1services_1_1helpers_1_1EbayOrderCancellationStatus.html#a3cfcc32627a105c95774cf20bdfeb062" target="_top" xlink:title="return the true/false value associated with a particular cancellation status. ">
<polygon fill="white" stroke="black" points="536,-464 536,-494 736,-494 736,-464 536,-464"/>
<text text-anchor="start" x="544" y="-482" font-family="Helvetica,sans-Serif" font-size="10.00">tomoBay.model.services.helpers.</text>
<text text-anchor="middle" x="636" y="-471" font-family="Helvetica,sans-Serif" font-size="10.00">EbayOrderCancellationStatus.isCancelled</text>
</a>
</g>
</g>
<!-- Node12&#45;&gt;Node16 -->
<g id="edge16" class="edge"><title>Node12&#45;&gt;Node16</title>
<path fill="none" stroke="midnightblue" d="M489.789,-489.561C501.37,-488.719 513.533,-487.834 525.685,-486.95"/>
<polygon fill="midnightblue" stroke="midnightblue" points="526.157,-490.425 535.876,-486.209 525.649,-483.444 526.157,-490.425"/>
</g>
<!-- Node17 -->
<g id="node17" class="node"><title>Node17</title>
<g id="a_node17"><a xlink:href="classtomoBay_1_1model_1_1sql_1_1framework_1_1ModifyQueryInvoker.html#ab8ef0fdf15f6720620e297c77ab25d46" target="_top" xlink:title="tomoBay.model.sql.framework.\lModifyQueryInvoker.execute">
<polygon fill="white" stroke="black" points="560,-376 560,-406 712,-406 712,-376 560,-376"/>
<text text-anchor="start" x="568" y="-394" font-family="Helvetica,sans-Serif" font-size="10.00">tomoBay.model.sql.framework.</text>
<text text-anchor="middle" x="636" y="-383" font-family="Helvetica,sans-Serif" font-size="10.00">ModifyQueryInvoker.execute</text>
</a>
</g>
</g>
<!-- Node12&#45;&gt;Node17 -->
<g id="edge17" class="edge"><title>Node12&#45;&gt;Node17</title>
<path fill="none" stroke="midnightblue" d="M477.207,-474.363C484.957,-471.407 492.714,-468.257 500,-465 535.734,-449.027 574.762,-427.113 601.622,-411.282"/>
<polygon fill="midnightblue" stroke="midnightblue" points="603.431,-414.278 610.243,-406.163 599.857,-408.259 603.431,-414.278"/>
</g>
<!-- Node14 -->
<g id="node14" class="node"><title>Node14</title>
<g id="a_node14"><a xlink:href="classtomoBay_1_1model_1_1dataTypes_1_1heteroTypeContainer_1_1HeteroFieldContainer.html#a9dee3c01eb5ab16203e1c6820a569484" target="_top" xlink:title="performs a type check, assuming that field and type are of the same type then this method returns tru...">
<polygon fill="white" stroke="black" points="1002,-365.5 1002,-406.5 1188,-406.5 1188,-365.5 1002,-365.5"/>
<text text-anchor="start" x="1010" y="-394.5" font-family="Helvetica,sans-Serif" font-size="10.00">tomoBay.model.dataTypes.hetero</text>
<text text-anchor="start" x="1010" y="-383.5" font-family="Helvetica,sans-Serif" font-size="10.00">TypeContainer.HeteroFieldContainer.is</text>
<text text-anchor="middle" x="1095" y="-372.5" font-family="Helvetica,sans-Serif" font-size="10.00">SameType</text>
</a>
</g>
</g>
<!-- Node13&#45;&gt;Node14 -->
<g id="edge13" class="edge"><title>Node13&#45;&gt;Node14</title>
<path fill="none" stroke="midnightblue" d="M966.296,-386C974.642,-386 983.106,-386 991.499,-386"/>
<polygon fill="midnightblue" stroke="midnightblue" points="991.688,-389.5 1001.69,-386 991.688,-382.5 991.688,-389.5"/>
</g>
<!-- Node15&#45;&gt;Node13 -->
<g id="edge15" class="edge"><title>Node15&#45;&gt;Node13</title>
<path fill="none" stroke="midnightblue" d="M709.169,-551.451C718.57,-547.367 727.778,-542.578 736,-537 787.358,-502.155 831.19,-442.631 853.078,-409.686"/>
<polygon fill="midnightblue" stroke="midnightblue" points="856.121,-411.428 858.658,-401.141 850.26,-407.601 856.121,-411.428"/>
</g>
<!-- Node18&#45;&gt;Node13 -->
<g id="edge19" class="edge"><title>Node18&#45;&gt;Node13</title>
<path fill="none" stroke="midnightblue" d="M495.506,-433.894C560.651,-432.122 654.614,-427.577 736,-416 757.395,-412.957 780.45,-408.229 801.213,-403.42"/>
<polygon fill="midnightblue" stroke="midnightblue" points="802.277,-406.765 811.204,-401.059 800.668,-399.952 802.277,-406.765"/>
</g>
<!-- Node18&#45;&gt;Node16 -->
<g id="edge20" class="edge"><title>Node18&#45;&gt;Node16</title>
<path fill="none" stroke="midnightblue" d="M495.671,-451.134C513.364,-454.673 532.15,-458.43 550.007,-462.001"/>
<polygon fill="midnightblue" stroke="midnightblue" points="549.327,-465.435 559.82,-463.964 550.7,-458.571 549.327,-465.435"/>
</g>
<!-- Node18&#45;&gt;Node17 -->
<g id="edge21" class="edge"><title>Node18&#45;&gt;Node17</title>
<path fill="none" stroke="midnightblue" d="M495.671,-418.866C513.364,-415.327 532.15,-411.57 550.007,-407.999"/>
<polygon fill="midnightblue" stroke="midnightblue" points="550.7,-411.429 559.82,-406.036 549.327,-404.565 550.7,-411.429"/>
</g>
<!-- Node19&#45;&gt;Node17 -->
<g id="edge27" class="edge"><title>Node19&#45;&gt;Node17</title>
<path fill="none" stroke="midnightblue" d="M489.789,-367.898C509.077,-370.967 529.979,-374.292 549.756,-377.438"/>
<polygon fill="midnightblue" stroke="midnightblue" points="549.244,-380.901 559.67,-379.016 550.344,-373.988 549.244,-380.901"/>
</g>
<!-- Node20 -->
<g id="node20" class="node"><title>Node20</title>
<g id="a_node20"><a xlink:href="classtomoBay_1_1model_1_1services_1_1basicEbayUpdateService_1_1Buyers__Table.html#a33706837d80ae402889acf879a8e2566" target="_top" xlink:title="retrieves the global shipping program address associated with the order passed in as an argument...">
<polygon fill="white" stroke="black" points="560.5,-256.5 560.5,-297.5 711.5,-297.5 711.5,-256.5 560.5,-256.5"/>
<text text-anchor="start" x="568.5" y="-285.5" font-family="Helvetica,sans-Serif" font-size="10.00">tomoBay.model.services.basic</text>
<text text-anchor="start" x="568.5" y="-274.5" font-family="Helvetica,sans-Serif" font-size="10.00">EbayUpdateService.Buyers</text>
<text text-anchor="middle" x="636" y="-263.5" font-family="Helvetica,sans-Serif" font-size="10.00">_Table.getGSPaddress</text>
</a>
</g>
</g>
<!-- Node19&#45;&gt;Node20 -->
<g id="edge23" class="edge"><title>Node19&#45;&gt;Node20</title>
<path fill="none" stroke="midnightblue" d="M462.899,-335.439C484.978,-326.262 511.638,-315.604 536,-307 542.001,-304.881 548.238,-302.773 554.53,-300.715"/>
<polygon fill="midnightblue" stroke="midnightblue" points="555.99,-303.922 564.437,-297.526 553.846,-297.258 555.99,-303.922"/>
</g>
<!-- Node21 -->
<g id="node21" class="node"><title>Node21</title>
<g id="a_node21"><a xlink:href="classtomoBay_1_1model_1_1services_1_1basicEbayUpdateService_1_1Buyers__Table.html#a2635d1876823db285122ff73faeed4b2" target="_top" xlink:title="retrieves the personal address associated with the order passed in as an argument. ">
<polygon fill="white" stroke="black" points="560.5,-316.5 560.5,-357.5 711.5,-357.5 711.5,-316.5 560.5,-316.5"/>
<text text-anchor="start" x="568.5" y="-345.5" font-family="Helvetica,sans-Serif" font-size="10.00">tomoBay.model.services.basic</text>
<text text-anchor="start" x="568.5" y="-334.5" font-family="Helvetica,sans-Serif" font-size="10.00">EbayUpdateService.Buyers</text>
<text text-anchor="middle" x="636" y="-323.5" font-family="Helvetica,sans-Serif" font-size="10.00">_Table.getAddress</text>
</a>
</g>
</g>
<!-- Node19&#45;&gt;Node21 -->
<g id="edge25" class="edge"><title>Node19&#45;&gt;Node21</title>
<path fill="none" stroke="midnightblue" d="M489.789,-349.541C509.29,-347.857 530.442,-346.03 550.411,-344.305"/>
<polygon fill="midnightblue" stroke="midnightblue" points="550.756,-347.789 560.418,-343.441 550.154,-340.815 550.756,-347.789"/>
</g>
<!-- Node20&#45;&gt;Node13 -->
<g id="edge24" class="edge"><title>Node20&#45;&gt;Node13</title>
<path fill="none" stroke="midnightblue" d="M711.517,-297.413C719.885,-300.342 728.2,-303.547 736,-307 772.861,-323.318 812.142,-347.857 838.176,-365.249"/>
<polygon fill="midnightblue" stroke="midnightblue" points="836.228,-368.157 846.474,-370.852 840.145,-362.355 836.228,-368.157"/>
</g>
<!-- Node21&#45;&gt;Node13 -->
<g id="edge26" class="edge"><title>Node21&#45;&gt;Node13</title>
<path fill="none" stroke="midnightblue" d="M711.68,-352.841C735.778,-357.953 762.596,-363.642 787.12,-368.844"/>
<polygon fill="midnightblue" stroke="midnightblue" points="786.604,-372.312 797.113,-370.963 788.057,-365.464 786.604,-372.312"/>
</g>
<!-- Node22&#45;&gt;Node13 -->
<g id="edge33" class="edge"><title>Node22&#45;&gt;Node13</title>
<path fill="none" stroke="midnightblue" d="M500.033,-210.425C580.902,-215.778 695.973,-226.711 736,-247 788.638,-273.681 831.688,-330.093 853.177,-362.246"/>
<polygon fill="midnightblue" stroke="midnightblue" points="850.254,-364.172 858.656,-370.626 856.113,-360.341 850.254,-364.172"/>
</g>
<!-- Node22&#45;&gt;Node17 -->
<g id="edge34" class="edge"><title>Node22&#45;&gt;Node17</title>
<path fill="none" stroke="midnightblue" d="M429.246,-226.518C458.04,-267.753 521.652,-357.557 536,-367 540.57,-370.008 545.482,-372.639 550.586,-374.941"/>
<polygon fill="midnightblue" stroke="midnightblue" points="549.365,-378.223 559.947,-378.739 551.996,-371.737 549.365,-378.223"/>
</g>
<!-- Node23 -->
<g id="node23" class="node"><title>Node23</title>
<g id="a_node23"><a xlink:href="classtomoBay_1_1model_1_1sql_1_1framework_1_1SelectQueryInvoker.html#a594282bcbcc0731a7d234482717422d7" target="_top" xlink:title="execute a requested query ">
<polygon fill="white" stroke="black" points="560,-169 560,-199 712,-199 712,-169 560,-169"/>
<text text-anchor="start" x="568" y="-187" font-family="Helvetica,sans-Serif" font-size="10.00">tomoBay.model.sql.framework.</text>
<text text-anchor="middle" x="636" y="-176" font-family="Helvetica,sans-Serif" font-size="10.00">SelectQueryInvoker.execute</text>
</a>
</g>
</g>
<!-- Node22&#45;&gt;Node23 -->
<g id="edge29" class="edge"><title>Node22&#45;&gt;Node23</title>
<path fill="none" stroke="midnightblue" d="M500.058,-197.494C516.379,-195.862 533.474,-194.153 549.8,-192.52"/>
<polygon fill="midnightblue" stroke="midnightblue" points="550.25,-195.993 559.852,-191.515 549.553,-189.027 550.25,-195.993"/>
</g>
<!-- Node24 -->
<g id="node24" class="node"><title>Node24</title>
<g id="a_node24"><a xlink:href="classtomoBay_1_1model_1_1eBayAPI_1_1ItemCall.html#a33a93e67cbad2090251fa506ebf4e3d5" target="_top" xlink:title="This method performs a call to the API grabbing a item data for the specified itemID. ">
<polygon fill="white" stroke="black" points="561.5,-120 561.5,-150 710.5,-150 710.5,-120 561.5,-120"/>
<text text-anchor="start" x="569.5" y="-138" font-family="Helvetica,sans-Serif" font-size="10.00">tomoBay.model.eBayAPI.Item</text>
<text text-anchor="middle" x="636" y="-127" font-family="Helvetica,sans-Serif" font-size="10.00">Call.call</text>
</a>
</g>
</g>
<!-- Node22&#45;&gt;Node24 -->
<g id="edge30" class="edge"><title>Node22&#45;&gt;Node24</title>
<path fill="none" stroke="midnightblue" d="M475.652,-185.446C483.885,-182.408 492.185,-179.215 500,-176 516.364,-169.269 519.316,-164.893 536,-159 542.274,-156.784 548.843,-154.701 555.483,-152.76"/>
<polygon fill="midnightblue" stroke="midnightblue" points="556.559,-156.093 565.239,-150.018 554.665,-149.354 556.559,-156.093"/>
</g>
<!-- Node25 -->
<g id="node25" class="node"><title>Node25</title>
<g id="a_node25"><a xlink:href="classtomoBay_1_1model_1_1services_1_1basicEbayUpdateService_1_1ItemsAndPartsTable.html#ab5d1e1822b0fcbc25a1dec195fdbfb91" target="_top" xlink:title="tomoBay.model.services.basic\lEbayUpdateService.ItemsAndParts\lTable.getSpecifics">
<polygon fill="white" stroke="black" points="550,-60.5 550,-101.5 722,-101.5 722,-60.5 550,-60.5"/>
<text text-anchor="start" x="558" y="-89.5" font-family="Helvetica,sans-Serif" font-size="10.00">tomoBay.model.services.basic</text>
<text text-anchor="start" x="558" y="-78.5" font-family="Helvetica,sans-Serif" font-size="10.00">EbayUpdateService.ItemsAndParts</text>
<text text-anchor="middle" x="636" y="-67.5" font-family="Helvetica,sans-Serif" font-size="10.00">Table.getSpecifics</text>
</a>
</g>
</g>
<!-- Node22&#45;&gt;Node25 -->
<g id="edge31" class="edge"><title>Node22&#45;&gt;Node25</title>
<path fill="none" stroke="midnightblue" d="M486.344,-185.468C491.211,-182.692 495.83,-179.551 500,-176 525.44,-154.338 509.981,-130.963 536,-110 537.569,-108.736 539.191,-107.527 540.859,-106.371"/>
<polygon fill="midnightblue" stroke="midnightblue" points="542.867,-109.244 549.542,-101.017 539.193,-103.286 542.867,-109.244"/>
</g>
<!-- Node26 -->
<g id="node26" class="node"><title>Node26</title>
<g id="a_node26"><a xlink:href="classtomoBay_1_1model_1_1services_1_1basicEbayUpdateService_1_1ItemsAndPartsTable.html#a1adf5dfcf78bb877f719dfc41b98b7ee" target="_top" xlink:title="tomoBay.model.services.basic\lEbayUpdateService.ItemsAndParts\lTable.populatePartsTable">
<polygon fill="white" stroke="black" points="550,-0.5 550,-41.5 722,-41.5 722,-0.5 550,-0.5"/>
<text text-anchor="start" x="558" y="-29.5" font-family="Helvetica,sans-Serif" font-size="10.00">tomoBay.model.services.basic</text>
<text text-anchor="start" x="558" y="-18.5" font-family="Helvetica,sans-Serif" font-size="10.00">EbayUpdateService.ItemsAndParts</text>
<text text-anchor="middle" x="636" y="-7.5" font-family="Helvetica,sans-Serif" font-size="10.00">Table.populatePartsTable</text>
</a>
</g>
</g>
<!-- Node22&#45;&gt;Node26 -->
<g id="edge32" class="edge"><title>Node22&#45;&gt;Node26</title>
<path fill="none" stroke="midnightblue" d="M488.851,-185.393C492.904,-182.645 496.672,-179.53 500,-176 539.659,-133.934 495.403,-92.162 536,-51 537.821,-49.1539 539.751,-47.4207 541.773,-45.7934"/>
<polygon fill="midnightblue" stroke="midnightblue" points="543.812,-48.6382 549.985,-40.0275 539.789,-42.9093 543.812,-48.6382"/>
</g>
</g>
</svg>
        <g id="navigator" transform="translate(0 0)" fill="#404254">
                <rect fill="#f2f5e9" fill-opacity="0.5" stroke="#606060" stroke-width=".5" x="0" y="0" width="60" height="60"/>
                <use id="zoomplus" xlink:href="#zoomPlus" x="17" y="9" onmousedown="handleZoom(evt,'in')"/>
                <use id="zoomminus" xlink:href="#zoomMin" x="42" y="9" onmousedown="handleZoom(evt,'out')"/>
                <use id="reset" xlink:href="#resetDef" x="30" y="36" onmousedown="handleReset()"/>
                <g id="arrowUp" xlink:href="#dirArrow" transform="translate(30 24)" onmousedown="handlePan(0,-1)">
                  <use xlink:href="#rim" fill="#404040">
                        <set attributeName="fill" to="#808080" begin="arrowUp.mouseover" end="arrowUp.mouseout"/>
                  </use>
                  <path fill="none" stroke="white" stroke-width="1.5" d="M0,-3.0v7 M-2.5,-0.5L0,-3.0L2.5,-0.5"/>
                </g>
                <g id="arrowRight" xlink:href="#dirArrow" transform="rotate(90) translate(36 -43)" onmousedown="handlePan(1,0)">
                  <use xlink:href="#rim" fill="#404040">
                        <set attributeName="fill" to="#808080" begin="arrowRight.mouseover" end="arrowRight.mouseout"/>
                  </use>
                  <path fill="none" stroke="white" stroke-width="1.5" d="M0,-3.0v7 M-2.5,-0.5L0,-3.0L2.5,-0.5"/>
                </g>
                <g id="arrowDown" xlink:href="#dirArrow" transform="rotate(180) translate(-30 -48)" onmousedown="handlePan(0,1)">
                  <use xlink:href="#rim" fill="#404040">
                        <set attributeName="fill" to="#808080" begin="arrowDown.mouseover" end="arrowDown.mouseout"/>
                  </use>
                  <path fill="none" stroke="white" stroke-width="1.5" d="M0,-3.0v7 M-2.5,-0.5L0,-3.0L2.5,-0.5"/>
                </g>
                <g id="arrowLeft" xlink:href="#dirArrow" transform="rotate(270) translate(-36 17)" onmousedown="handlePan(-1,0)">
                  <use xlink:href="#rim" fill="#404040">
                        <set attributeName="fill" to="#808080" begin="arrowLeft.mouseover" end="arrowLeft.mouseout"/>
                  </use>
                  <path fill="none" stroke="white" stroke-width="1.5" d="M0,-3.0v7 M-2.5,-0.5L0,-3.0L2.5,-0.5"/>
                </g>
        </g>
        <svg viewBox="0 0 15 15" width="100%" height="30px" preserveAspectRatio="xMaxYMin meet">
         <g id="arrow_out" transform="scale(0.3 0.3)">
          <a xlink:href="classtomoBay_1_1model_1_1services_1_1basicEbayUpdateService_1_1BasicEbayUpdateService_ae3b0a282dcba7f2d675ca89b1dd48487_cgraph_org.svg" target="_base">
           <rect id="button" ry="5" rx="5" y="6" x="6" height="38" width="38"
                fill="#f2f5e9" fill-opacity="0.5" stroke="#606060" stroke-width="1.0"/>
           <path id="arrow"
             d="M 11.500037,31.436501 C 11.940474,20.09759 22.043105,11.32322 32.158766,21.979434 L 37.068811,17.246167 C 37.068811,17.246167 37.088388,32 37.088388,32 L 22.160133,31.978069 C 22.160133,31.978069 26.997745,27.140456 26.997745,27.140456 C 18.528582,18.264221 13.291696,25.230495 11.500037,31.436501 z"
             style="fill:#404040;"/>
          </a>
         </g>
        </svg>
</svg>
