<?xml version="1.0" encoding="UTF-8" standalone="no"?>
<!DOCTYPE svg PUBLIC "-//W3C//DTD SVG 1.1//EN"
 "http://www.w3.org/Graphics/SVG/1.1/DTD/svg11.dtd">
<!-- Generated by graphviz version 2.38.0 (20140413.2041)
 -->
<!-- Title: MailException Pages: 1 -->
<svg width="346pt" height="276pt"
 viewBox="0.00 0.00 346.00 276.00" xmlns="http://www.w3.org/2000/svg" xmlns:xlink="http://www.w3.org/1999/xlink">
<g id="graph0" class="graph" transform="scale(1 1) rotate(0) translate(4 272)">
<title>MailException</title>
<polygon fill="white" stroke="none" points="-4,4 -4,-272 342,-272 342,4 -4,4"/>
<!-- Node1 -->
<g id="node1" class="node"><title>Node1</title>
<polygon fill="#bfbfbf" stroke="black" points="113.5,-105.5 113.5,-173.5 210.5,-173.5 210.5,-105.5 113.5,-105.5"/>
<text text-anchor="middle" x="162" y="-161.5" font-family="Helvetica,sans-Serif" font-size="10.00">MailException</text>
<polyline fill="none" stroke="black" points="113.5,-154.5 210.5,-154.5 "/>
<text text-anchor="start" x="121.5" y="-142.5" font-family="Helvetica,sans-Serif" font-size="10.00">&#45; serialVersionUID</text>
<polyline fill="none" stroke="black" points="113.5,-135.5 210.5,-135.5 "/>
<text text-anchor="start" x="121.5" y="-123.5" font-family="Helvetica,sans-Serif" font-size="10.00">+ MailException()</text>
<text text-anchor="start" x="121.5" y="-112.5" font-family="Helvetica,sans-Serif" font-size="10.00">+ MailException()</text>
</g>
<!-- Node3 -->
<g id="node3" class="node"><title>Node3</title>
<g id="a_node3"><a xlink:href="classtomoBay_1_1exceptions_1_1NullEmailObjectException.html" target="_top" xlink:title="exception thrown when the user tries to retrieve an email object that has not yet been created...">
<polygon fill="white" stroke="black" points="0,-0.5 0,-68.5 146,-68.5 146,-0.5 0,-0.5"/>
<text text-anchor="middle" x="73" y="-56.5" font-family="Helvetica,sans-Serif" font-size="10.00">NullEmailObjectException</text>
<polyline fill="none" stroke="black" points="0,-49.5 146,-49.5 "/>
<text text-anchor="start" x="8" y="-37.5" font-family="Helvetica,sans-Serif" font-size="10.00">&#45; serialVersionUID</text>
<polyline fill="none" stroke="black" points="0,-30.5 146,-30.5 "/>
<text text-anchor="start" x="8" y="-18.5" font-family="Helvetica,sans-Serif" font-size="10.00">+ NullEmailObjectException()</text>
<text text-anchor="start" x="8" y="-7.5" font-family="Helvetica,sans-Serif" font-size="10.00">+ NullEmailObjectException()</text>
</a>
</g>
</g>
<!-- Node1&#45;&gt;Node3 -->
<g id="edge2" class="edge"><title>Node1&#45;&gt;Node3</title>
<path fill="none" stroke="midnightblue" d="M126.773,-97.7318C118.421,-88.0655 109.612,-77.8714 101.596,-68.5947"/>
<polygon fill="none" stroke="midnightblue" points="124.163,-100.065 133.35,-105.343 129.46,-95.4882 124.163,-100.065"/>
</g>
<!-- Node4 -->
<g id="node4" class="node"><title>Node4</title>
<g id="a_node4"><a xlink:href="classtomoBay_1_1exceptions_1_1NullEmailServerObjectException.html" target="_top" xlink:title="exception thrown when the user tries to retrieve an email object that has not yet been created...">
<polygon fill="white" stroke="black" points="164,-0.5 164,-68.5 338,-68.5 338,-0.5 164,-0.5"/>
<text text-anchor="middle" x="251" y="-56.5" font-family="Helvetica,sans-Serif" font-size="10.00">NullEmailServerObjectException</text>
<polyline fill="none" stroke="black" points="164,-49.5 338,-49.5 "/>
<text text-anchor="start" x="172" y="-37.5" font-family="Helvetica,sans-Serif" font-size="10.00">&#45; serialVersionUID</text>
<polyline fill="none" stroke="black" points="164,-30.5 338,-30.5 "/>
<text text-anchor="start" x="172" y="-18.5" font-family="Helvetica,sans-Serif" font-size="10.00">+ NullEmailServerObjectException()</text>
<text text-anchor="start" x="172" y="-7.5" font-family="Helvetica,sans-Serif" font-size="10.00">+ NullEmailServerObjectException()</text>
</a>
</g>
</g>
<!-- Node1&#45;&gt;Node4 -->
<g id="edge3" class="edge"><title>Node1&#45;&gt;Node4</title>
<path fill="none" stroke="midnightblue" d="M197.227,-97.7318C205.579,-88.0655 214.388,-77.8714 222.404,-68.5947"/>
<polygon fill="none" stroke="midnightblue" points="194.54,-95.4882 190.65,-105.343 199.837,-100.065 194.54,-95.4882"/>
</g>
<!-- Node2 -->
<g id="node2" class="node"><title>Node2</title>
<polygon fill="white" stroke="#bfbfbf" points="132,-210.5 132,-267.5 192,-267.5 192,-210.5 132,-210.5"/>
<text text-anchor="middle" x="162" y="-255.5" font-family="Helvetica,sans-Serif" font-size="10.00">Exception</text>
<polyline fill="none" stroke="#bfbfbf" points="132,-248.5 192,-248.5 "/>
<text text-anchor="middle" x="162" y="-236.5" font-family="Helvetica,sans-Serif" font-size="10.00"> </text>
<polyline fill="none" stroke="#bfbfbf" points="132,-229.5 192,-229.5 "/>
<text text-anchor="middle" x="162" y="-217.5" font-family="Helvetica,sans-Serif" font-size="10.00"> </text>
</g>
<!-- Node2&#45;&gt;Node1 -->
<g id="edge1" class="edge"><title>Node2&#45;&gt;Node1</title>
<path fill="none" stroke="midnightblue" d="M162,-200.063C162,-191.393 162,-182.243 162,-173.786"/>
<polygon fill="none" stroke="midnightblue" points="158.5,-200.321 162,-210.321 165.5,-200.321 158.5,-200.321"/>
</g>
</g>
</svg>
