<?xml version="1.0" encoding="UTF-8" standalone="no"?>
<!DOCTYPE svg PUBLIC "-//W3C//DTD SVG 1.1//EN"
 "http://www.w3.org/Graphics/SVG/1.1/DTD/svg11.dtd">
<!-- Generated by graphviz version 2.38.0 (20140413.2041)
 -->
<!-- Title: print Pages: 1 -->
<svg width="987pt" height="207pt"
 viewBox="0.00 0.00 987.00 207.00" xmlns="http://www.w3.org/2000/svg" xmlns:xlink="http://www.w3.org/1999/xlink">
<g id="graph0" class="graph" transform="scale(1 1) rotate(0) translate(4 203)">
<title>print</title>
<polygon fill="white" stroke="none" points="-4,4 -4,-203 983,-203 983,4 -4,4"/>
<!-- Node1 -->
<g id="node1" class="node"><title>Node1</title>
<polygon fill="#bfbfbf" stroke="black" points="0,-90 0,-109 35,-109 35,-90 0,-90"/>
<text text-anchor="middle" x="17.5" y="-97" font-family="Helvetica,sans-Serif" font-size="10.00">print</text>
</g>
<!-- Node2 -->
<g id="node2" class="node"><title>Node2</title>
<g id="a_node2"><a xlink:href="classtomoBay_1_1model_1_1winstock_1_1WinstockCommandInvoker.html#af1434b0b82b0016e3a50a6aaecc770c2" target="_top" xlink:title="This method executes the AbstractWinstockCommand that the user has requested. ">
<polygon fill="white" stroke="black" points="91,-168.5 91,-198.5 262,-198.5 262,-168.5 91,-168.5"/>
<text text-anchor="start" x="99" y="-186.5" font-family="Helvetica,sans-Serif" font-size="10.00">tomoBay.model.winstock.Winstock</text>
<text text-anchor="middle" x="176.5" y="-175.5" font-family="Helvetica,sans-Serif" font-size="10.00">CommandInvoker.execute</text>
</a>
</g>
</g>
<!-- Node1&#45;&gt;Node2 -->
<g id="edge1" class="edge"><title>Node1&#45;&gt;Node2</title>
<path fill="none" stroke="midnightblue" d="M24.2621,-109.295C32.7323,-122.788 49.8537,-146.857 71,-159.5 74.4076,-161.537 77.9727,-163.402 81.6455,-165.108"/>
<polygon fill="midnightblue" stroke="midnightblue" points="80.3935,-168.378 90.9682,-169.032 83.109,-161.926 80.3935,-168.378"/>
</g>
<!-- Node3 -->
<g id="node3" class="node"><title>Node3</title>
<g id="a_node3"><a xlink:href="classtomoBay_1_1model_1_1dataTypes_1_1financial_1_1SalesOrderDayBook_1_1AbstractSalesDayBookLine.html#a2322342510367e536d54eb47f2c43512" target="_top" xlink:title="returns the invoice number of this invoice, if it exists. ">
<polygon fill="white" stroke="black" points="71,-109 71,-150 282,-150 282,-109 71,-109"/>
<text text-anchor="start" x="79" y="-138" font-family="Helvetica,sans-Serif" font-size="10.00">tomoBay.model.dataTypes.financial.</text>
<text text-anchor="start" x="79" y="-127" font-family="Helvetica,sans-Serif" font-size="10.00">SalesOrderDayBook.AbstractSalesDayBook</text>
<text text-anchor="middle" x="176.5" y="-116" font-family="Helvetica,sans-Serif" font-size="10.00">Line.invoiceNumber</text>
</a>
</g>
</g>
<!-- Node1&#45;&gt;Node3 -->
<g id="edge2" class="edge"><title>Node1&#45;&gt;Node3</title>
<path fill="none" stroke="midnightblue" d="M35.005,-102.654C42.0316,-103.996 50.8775,-105.687 60.6951,-107.563"/>
<polygon fill="midnightblue" stroke="midnightblue" points="60.3259,-111.055 70.8051,-109.495 61.6398,-104.18 60.3259,-111.055"/>
</g>
<!-- Node8 -->
<g id="node8" class="node"><title>Node8</title>
<g id="a_node8"><a xlink:href="interfacetomoBay_1_1model_1_1winstock_1_1response_1_1AbstractWinstockCommandResponse.html#a94c43012f032cf0ad0acc1d6a6047cf6" target="_top" xlink:title="method of descerning whether the AbstractWinstockCommand associated with this AbstractWinstockCommand...">
<polygon fill="white" stroke="black" points="79.5,-49 79.5,-90 273.5,-90 273.5,-49 79.5,-49"/>
<text text-anchor="start" x="87.5" y="-78" font-family="Helvetica,sans-Serif" font-size="10.00">tomoBay.model.winstock.response.</text>
<text text-anchor="start" x="87.5" y="-67" font-family="Helvetica,sans-Serif" font-size="10.00">AbstractWinstockCommandResponse.is</text>
<text text-anchor="middle" x="176.5" y="-56" font-family="Helvetica,sans-Serif" font-size="10.00">Success</text>
</a>
</g>
</g>
<!-- Node1&#45;&gt;Node8 -->
<g id="edge7" class="edge"><title>Node1&#45;&gt;Node8</title>
<path fill="none" stroke="midnightblue" d="M35.005,-96.3462C44.0644,-94.6151 56.1481,-92.3061 69.4393,-89.7664"/>
<polygon fill="midnightblue" stroke="midnightblue" points="70.1394,-93.196 79.3047,-87.8813 68.8255,-86.3204 70.1394,-93.196"/>
</g>
<!-- Node9 -->
<g id="node9" class="node"><title>Node9</title>
<g id="a_node9"><a xlink:href="classtomoBay_1_1helpers_1_1StackTraceToString.html#acc17f606a32b47fa21910194d3fc44c6" target="_top" xlink:title="Converts the stack trace of the exception provided into a string. ">
<polygon fill="white" stroke="black" points="105,-0.5 105,-30.5 248,-30.5 248,-0.5 105,-0.5"/>
<text text-anchor="start" x="113" y="-18.5" font-family="Helvetica,sans-Serif" font-size="10.00">tomoBay.helpers.StackTrace</text>
<text text-anchor="middle" x="176.5" y="-7.5" font-family="Helvetica,sans-Serif" font-size="10.00">ToString.toString</text>
</a>
</g>
</g>
<!-- Node1&#45;&gt;Node9 -->
<g id="edge8" class="edge"><title>Node1&#45;&gt;Node9</title>
<path fill="none" stroke="midnightblue" d="M24.2621,-89.7052C32.7323,-76.2119 49.8537,-52.1429 71,-39.5 78.4873,-35.0235 86.7352,-31.3817 95.2144,-28.419"/>
<polygon fill="midnightblue" stroke="midnightblue" points="96.3876,-31.7187 104.858,-25.3542 94.2673,-25.0475 96.3876,-31.7187"/>
</g>
<!-- Node4 -->
<g id="node4" class="node"><title>Node4</title>
<g id="a_node4"><a xlink:href="classtomoBay_1_1model_1_1dataTypes_1_1order_1_1Order.html#a71ffaf8494f38432864d46ea421343fc" target="_top" xlink:title="retrieve the invoice number from this order(if it has one) ">
<polygon fill="white" stroke="black" points="343,-141.5 343,-171.5 504,-171.5 504,-141.5 343,-141.5"/>
<text text-anchor="start" x="351" y="-159.5" font-family="Helvetica,sans-Serif" font-size="10.00">tomoBay.model.dataTypes.order.</text>
<text text-anchor="middle" x="423.5" y="-148.5" font-family="Helvetica,sans-Serif" font-size="10.00">Order.invoiceNo</text>
</a>
</g>
</g>
<!-- Node3&#45;&gt;Node4 -->
<g id="edge3" class="edge"><title>Node3&#45;&gt;Node4</title>
<path fill="none" stroke="midnightblue" d="M282.113,-141.029C298.915,-142.88 316.176,-144.783 332.594,-146.592"/>
<polygon fill="midnightblue" stroke="midnightblue" points="332.373,-150.089 342.696,-147.705 333.14,-143.131 332.373,-150.089"/>
</g>
<!-- Node7 -->
<g id="node7" class="node"><title>Node7</title>
<g id="a_node7"><a xlink:href="classtomoBay_1_1model_1_1dataTypes_1_1financial_1_1SalesOrderDayBook_1_1AbstractSalesDayBookLine.html#afacf6217c7f58a049b532205066da488" target="_top" xlink:title="retrieve the order that this AbstractSalesDayBookLine refers to. ">
<polygon fill="white" stroke="black" points="318,-82 318,-123 529,-123 529,-82 318,-82"/>
<text text-anchor="start" x="326" y="-111" font-family="Helvetica,sans-Serif" font-size="10.00">tomoBay.model.dataTypes.financial.</text>
<text text-anchor="start" x="326" y="-100" font-family="Helvetica,sans-Serif" font-size="10.00">SalesOrderDayBook.AbstractSalesDayBook</text>
<text text-anchor="middle" x="423.5" y="-89" font-family="Helvetica,sans-Serif" font-size="10.00">Line.orderInfo</text>
</a>
</g>
</g>
<!-- Node3&#45;&gt;Node7 -->
<g id="edge6" class="edge"><title>Node3&#45;&gt;Node7</title>
<path fill="none" stroke="midnightblue" d="M282.113,-117.971C290.619,-117.034 299.244,-116.083 307.817,-115.139"/>
<polygon fill="midnightblue" stroke="midnightblue" points="308.291,-118.608 317.847,-114.033 307.524,-111.65 308.291,-118.608"/>
</g>
<!-- Node5 -->
<g id="node5" class="node"><title>Node5</title>
<g id="a_node5"><a xlink:href="classtomoBay_1_1model_1_1dataTypes_1_1heteroTypeContainer_1_1HeteroFieldContainer.html#a988363ab964d6dc0ccb8560bef5895b6" target="_top" xlink:title="retrieve the the value of an AbstractField from this HeteroFieldContainer, the field should be of the...">
<polygon fill="white" stroke="black" points="565,-141.5 565,-171.5 757,-171.5 757,-141.5 565,-141.5"/>
<text text-anchor="start" x="573" y="-159.5" font-family="Helvetica,sans-Serif" font-size="10.00">tomoBay.model.dataTypes.hetero</text>
<text text-anchor="middle" x="661" y="-148.5" font-family="Helvetica,sans-Serif" font-size="10.00">TypeContainer.HeteroFieldContainer.get</text>
</a>
</g>
</g>
<!-- Node4&#45;&gt;Node5 -->
<g id="edge4" class="edge"><title>Node4&#45;&gt;Node5</title>
<path fill="none" stroke="midnightblue" d="M504.23,-156.5C520.363,-156.5 537.563,-156.5 554.427,-156.5"/>
<polygon fill="midnightblue" stroke="midnightblue" points="554.871,-160 564.871,-156.5 554.871,-153 554.871,-160"/>
</g>
<!-- Node6 -->
<g id="node6" class="node"><title>Node6</title>
<g id="a_node6"><a xlink:href="classtomoBay_1_1model_1_1dataTypes_1_1heteroTypeContainer_1_1HeteroFieldContainer.html#a9dee3c01eb5ab16203e1c6820a569484" target="_top" xlink:title="performs a type check, assuming that field and type are of the same type then this method returns tru...">
<polygon fill="white" stroke="black" points="793,-136 793,-177 979,-177 979,-136 793,-136"/>
<text text-anchor="start" x="801" y="-165" font-family="Helvetica,sans-Serif" font-size="10.00">tomoBay.model.dataTypes.hetero</text>
<text text-anchor="start" x="801" y="-154" font-family="Helvetica,sans-Serif" font-size="10.00">TypeContainer.HeteroFieldContainer.is</text>
<text text-anchor="middle" x="886" y="-143" font-family="Helvetica,sans-Serif" font-size="10.00">SameType</text>
</a>
</g>
</g>
<!-- Node5&#45;&gt;Node6 -->
<g id="edge5" class="edge"><title>Node5&#45;&gt;Node6</title>
<path fill="none" stroke="midnightblue" d="M757.219,-156.5C765.728,-156.5 774.365,-156.5 782.929,-156.5"/>
<polygon fill="midnightblue" stroke="midnightblue" points="782.934,-160 792.934,-156.5 782.934,-153 782.934,-160"/>
</g>
</g>
</svg>
