<?xml version="1.0" encoding="UTF-8" standalone="no"?>
<!DOCTYPE svg PUBLIC "-//W3C//DTD SVG 1.1//EN"
 "http://www.w3.org/Graphics/SVG/1.1/DTD/svg11.dtd">
<!-- Generated by graphviz version 2.38.0 (20140413.2041)
 -->
<!-- Title: encodeBase64 Pages: 1 -->
<svg width="355pt" height="39pt"
 viewBox="0.00 0.00 355.00 39.00" xmlns="http://www.w3.org/2000/svg" xmlns:xlink="http://www.w3.org/1999/xlink">
<g id="graph0" class="graph" transform="scale(1 1) rotate(0) translate(4 35)">
<title>encodeBase64</title>
<polygon fill="white" stroke="none" points="-4,4 -4,-35 351,-35 351,4 -4,4"/>
<!-- Node1 -->
<g id="node1" class="node"><title>Node1</title>
<polygon fill="#bfbfbf" stroke="black" points="0,-6 0,-25 81,-25 81,-6 0,-6"/>
<text text-anchor="middle" x="40.5" y="-13" font-family="Helvetica,sans-Serif" font-size="10.00">encodeBase64</text>
</g>
<!-- Node2 -->
<g id="node2" class="node"><title>Node2</title>
<g id="a_node2"><a xlink:href="classtomoBay_1_1model_1_1royalMail_1_1RoyalMailNonce.html#ac5f5202af3bb4156a22175cb76becb91" target="_top" xlink:title="get the nonce ">
<polygon fill="white" stroke="black" points="117,-6 117,-25 147,-25 147,-6 117,-6"/>
<text text-anchor="middle" x="132" y="-13" font-family="Helvetica,sans-Serif" font-size="10.00">get</text>
</a>
</g>
</g>
<!-- Node1&#45;&gt;Node2 -->
<g id="edge1" class="edge"><title>Node1&#45;&gt;Node2</title>
<path fill="none" stroke="midnightblue" d="M91.209,-15.5C100.569,-15.5 109.636,-15.5 116.744,-15.5"/>
<polygon fill="midnightblue" stroke="midnightblue" points="91.0166,-12.0001 81.0165,-15.5 91.0165,-19.0001 91.0166,-12.0001"/>
</g>
<!-- Node3 -->
<g id="node3" class="node"><title>Node3</title>
<g id="a_node3"><a xlink:href="classtomoBayTests_1_1model_1_1royalMail_1_1RoyalMailNonceTest.html#a6dbd31fe80cf803427e0b344147c794d" target="_top" xlink:title="tomoBayTests.model.royal\lMail.RoyalMailNonceTest.testGet">
<polygon fill="white" stroke="black" points="183,-0.5 183,-30.5 347,-30.5 347,-0.5 183,-0.5"/>
<text text-anchor="start" x="191" y="-18.5" font-family="Helvetica,sans-Serif" font-size="10.00">tomoBayTests.model.royal</text>
<text text-anchor="middle" x="265" y="-7.5" font-family="Helvetica,sans-Serif" font-size="10.00">Mail.RoyalMailNonceTest.testGet</text>
</a>
</g>
</g>
<!-- Node2&#45;&gt;Node3 -->
<g id="edge2" class="edge"><title>Node2&#45;&gt;Node3</title>
<path fill="none" stroke="midnightblue" d="M157.133,-15.5C164.71,-15.5 173.538,-15.5 182.812,-15.5"/>
<polygon fill="midnightblue" stroke="midnightblue" points="157.019,-12.0001 147.019,-15.5 157.019,-19.0001 157.019,-12.0001"/>
</g>
</g>
</svg>
