<?xml version="1.0" encoding="UTF-8" standalone="no"?>
<!DOCTYPE svg PUBLIC "-//W3C//DTD SVG 1.1//EN"
 "http://www.w3.org/Graphics/SVG/1.1/DTD/svg11.dtd">
<!-- Generated by graphviz version 2.38.0 (20140413.2041)
 -->
<!-- Title: setVARCHARParam Pages: 1 -->
<!--zoomable 540 -->
<svg id="main" version="1.1" xmlns="http://www.w3.org/2000/svg" xmlns:xlink="http://www.w3.org/1999/xlink" xml:space="preserve" onload="init(evt)">
<style type="text/css"><![CDATA[
.edge:hover path { stroke: red; }
.edge:hover polygon { stroke: red; fill: red; }
]]></style>
<script type="text/javascript"><![CDATA[
var edges = document.getElementsByTagName('g');
if (edges && edges.length) {
  for (var i=0;i<edges.length;i++) {
    if (edges[i].id.substr(0,4)=='edge') {
      edges[i].setAttribute('class','edge');
    }
  }
}
]]></script>
        <defs>
                <circle id="rim" cx="0" cy="0" r="7"/>
                <circle id="rim2" cx="0" cy="0" r="3.5"/>
                <g id="zoomPlus">
                        <use xlink:href="#rim" fill="#404040">
                                <set attributeName="fill" to="#808080" begin="zoomplus.mouseover" end="zoomplus.mouseout"/>
                        </use>
                        <path d="M-4,0h8M0,-4v8" fill="none" stroke="white" stroke-width="1.5" pointer-events="none"/>
                </g>
                <g id="zoomMin">
                        <use xlink:href="#rim" fill="#404040">
                                <set attributeName="fill" to="#808080" begin="zoomminus.mouseover" end="zoomminus.mouseout"/>
                        </use>
                        <path d="M-4,0h8" fill="none" stroke="white" stroke-width="1.5" pointer-events="none"/>
                </g>
                <g id="dirArrow">
                        <path fill="none" stroke="white" stroke-width="1.5" d="M0,-3.0v7 M-2.5,-0.5L0,-3.0L2.5,-0.5"/>
                </g>
               <g id="resetDef">
                       <use xlink:href="#rim2" fill="#404040">
                               <set attributeName="fill" to="#808080" begin="reset.mouseover" end="reset.mouseout"/>
                       </use>
               </g>
        </defs>

<script type="text/javascript">
var viewWidth = 1487;
var viewHeight = 540;
var sectionId = 'dynsection-4';
</script>
<script xlink:href="svgpan.js"/>
<svg id="graph" class="graph">
<g id="viewport">
<title>setVARCHARParam</title>
<polygon fill="white" stroke="none" points="-4,4 -4,-536 1483,-536 1483,4 -4,4"/>
<!-- Node1 -->
<g id="node1" class="node"><title>Node1</title>
<polygon fill="#bfbfbf" stroke="black" points="0,-256.5 0,-275.5 109,-275.5 109,-256.5 0,-256.5"/>
<text text-anchor="middle" x="54.5" y="-263.5" font-family="Helvetica,sans-Serif" font-size="10.00">setVARCHARParam</text>
</g>
<!-- Node2 -->
<g id="node2" class="node"><title>Node2</title>
<g id="a_node2"><a xlink:href="classtomoBay_1_1model_1_1dataTypes_1_1heteroTypeContainer_1_1HeteroFieldContainer.html#a988363ab964d6dc0ccb8560bef5895b6" target="_top" xlink:title="retrieve the the value of an AbstractField from this HeteroFieldContainer, the field should be of the...">
<polygon fill="white" stroke="black" points="1065,-118 1065,-148 1257,-148 1257,-118 1065,-118"/>
<text text-anchor="start" x="1073" y="-136" font-family="Helvetica,sans-Serif" font-size="10.00">tomoBay.model.dataTypes.hetero</text>
<text text-anchor="middle" x="1161" y="-125" font-family="Helvetica,sans-Serif" font-size="10.00">TypeContainer.HeteroFieldContainer.get</text>
</a>
</g>
</g>
<!-- Node1&#45;&gt;Node2 -->
<g id="edge1" class="edge"><title>Node1&#45;&gt;Node2</title>
<path fill="none" stroke="midnightblue" d="M59.1186,-256.217C77.5659,-208.228 165.965,-0 311,-0 311,-0 311,-0 854,-0 934.199,-0 955.822,-11.1854 1029,-44 1068.45,-61.6883 1108.85,-91.2203 1134.16,-111.376"/>
<polygon fill="midnightblue" stroke="midnightblue" points="1132.16,-114.261 1142.14,-117.821 1136.56,-108.815 1132.16,-114.261"/>
</g>
<!-- Node4 -->
<g id="node4" class="node"><title>Node4</title>
<g id="a_node4"><a xlink:href="classtomoBay_1_1model_1_1sql_1_1framework_1_1QueryUtility.html#a50955d4f51a1a7a88ef0c8aadbe9c793" target="_top" xlink:title="set an Integer parameter for the query object specified. ">
<polygon fill="white" stroke="black" points="145,-256.5 145,-275.5 230,-275.5 230,-256.5 145,-256.5"/>
<text text-anchor="middle" x="187.5" y="-263.5" font-family="Helvetica,sans-Serif" font-size="10.00">setBYTEParam</text>
</a>
</g>
</g>
<!-- Node1&#45;&gt;Node4 -->
<g id="edge3" class="edge"><title>Node1&#45;&gt;Node4</title>
<path fill="none" stroke="midnightblue" d="M109.161,-266C117.6,-266 126.311,-266 134.707,-266"/>
<polygon fill="midnightblue" stroke="midnightblue" points="134.753,-269.5 144.753,-266 134.753,-262.5 134.753,-269.5"/>
</g>
<!-- Node5 -->
<g id="node5" class="node"><title>Node5</title>
<g id="a_node5"><a xlink:href="classtomoBay_1_1model_1_1sql_1_1framework_1_1queryTypes_1_1AbstractDBQuery.html#a41678b13e84de4335130f10cea7ae562" target="_top" xlink:title="get the statement object associated with this query ">
<polygon fill="white" stroke="black" points="1073,-384 1073,-414 1249,-414 1249,-384 1073,-384"/>
<text text-anchor="start" x="1081" y="-402" font-family="Helvetica,sans-Serif" font-size="10.00">tomoBay.model.sql.framework.query</text>
<text text-anchor="middle" x="1161" y="-391" font-family="Helvetica,sans-Serif" font-size="10.00">Types.AbstractDBQuery.statement</text>
</a>
</g>
</g>
<!-- Node1&#45;&gt;Node5 -->
<g id="edge25" class="edge"><title>Node1&#45;&gt;Node5</title>
<path fill="none" stroke="midnightblue" d="M59.1186,-275.783C77.5659,-323.772 165.965,-532 311,-532 311,-532 311,-532 854,-532 934.42,-532 955.623,-518.912 1029,-486 1067.94,-468.533 1108.17,-439.956 1133.6,-420.352"/>
<polygon fill="midnightblue" stroke="midnightblue" points="1135.91,-422.991 1141.63,-414.076 1131.6,-417.475 1135.91,-422.991"/>
</g>
<!-- Node3 -->
<g id="node3" class="node"><title>Node3</title>
<g id="a_node3"><a xlink:href="classtomoBay_1_1model_1_1dataTypes_1_1heteroTypeContainer_1_1HeteroFieldContainer.html#a9dee3c01eb5ab16203e1c6820a569484" target="_top" xlink:title="performs a type check, assuming that field and type are of the same type then this method returns tru...">
<polygon fill="white" stroke="black" points="1293,-112.5 1293,-153.5 1479,-153.5 1479,-112.5 1293,-112.5"/>
<text text-anchor="start" x="1301" y="-141.5" font-family="Helvetica,sans-Serif" font-size="10.00">tomoBay.model.dataTypes.hetero</text>
<text text-anchor="start" x="1301" y="-130.5" font-family="Helvetica,sans-Serif" font-size="10.00">TypeContainer.HeteroFieldContainer.is</text>
<text text-anchor="middle" x="1386" y="-119.5" font-family="Helvetica,sans-Serif" font-size="10.00">SameType</text>
</a>
</g>
</g>
<!-- Node2&#45;&gt;Node3 -->
<g id="edge2" class="edge"><title>Node2&#45;&gt;Node3</title>
<path fill="none" stroke="midnightblue" d="M1257.22,-133C1265.73,-133 1274.37,-133 1282.93,-133"/>
<polygon fill="midnightblue" stroke="midnightblue" points="1282.93,-136.5 1292.93,-133 1282.93,-129.5 1282.93,-136.5"/>
</g>
<!-- Node4&#45;&gt;Node2 -->
<g id="edge6" class="edge"><title>Node4&#45;&gt;Node2</title>
<path fill="none" stroke="midnightblue" d="M193.034,-256.493C214.344,-213.343 309.113,-38 442,-38 442,-38 442,-38 854,-38 954.699,-38 1066,-85.5042 1122.55,-113.329"/>
<polygon fill="midnightblue" stroke="midnightblue" points="1121.29,-116.612 1131.8,-117.947 1124.42,-110.349 1121.29,-116.612"/>
</g>
<!-- Node4&#45;&gt;Node5 -->
<g id="edge4" class="edge"><title>Node4&#45;&gt;Node5</title>
<path fill="none" stroke="midnightblue" d="M193.034,-275.507C214.344,-318.657 309.113,-494 442,-494 442,-494 442,-494 854,-494 954.699,-494 1066,-446.496 1122.55,-418.671"/>
<polygon fill="midnightblue" stroke="midnightblue" points="1124.42,-421.651 1131.8,-414.053 1121.29,-415.388 1124.42,-421.651"/>
</g>
<!-- Node7 -->
<g id="node7" class="node"><title>Node7</title>
<g id="a_node7"><a xlink:href="classtomoBay_1_1model_1_1sql_1_1framework_1_1QueryUtility.html#a138f0c046bc0a6df71b168ab35c3c3e3" target="_top" xlink:title="set an Integer parameter for the query object specified. ">
<polygon fill="white" stroke="black" points="266,-256.5 266,-275.5 358,-275.5 358,-256.5 266,-256.5"/>
<text text-anchor="middle" x="312" y="-263.5" font-family="Helvetica,sans-Serif" font-size="10.00">setBIGINTParam</text>
</a>
</g>
</g>
<!-- Node4&#45;&gt;Node7 -->
<g id="edge7" class="edge"><title>Node4&#45;&gt;Node7</title>
<path fill="none" stroke="midnightblue" d="M230.315,-266C238.396,-266 246.981,-266 255.421,-266"/>
<polygon fill="midnightblue" stroke="midnightblue" points="255.6,-269.5 265.6,-266 255.6,-262.5 255.6,-269.5"/>
</g>
<!-- Node6 -->
<g id="node6" class="node"><title>Node6</title>
<g id="a_node6"><a xlink:href="classtomoBay_1_1model_1_1sql_1_1framework_1_1queryTypes_1_1AbstractDBQuery.html#ae8a5c5f1701ee77ef658050c8345d518" target="_top" xlink:title="Used by derived classes to define the Query string to be used in the query. ">
<polygon fill="white" stroke="black" points="1298,-384 1298,-414 1474,-414 1474,-384 1298,-384"/>
<text text-anchor="start" x="1306" y="-402" font-family="Helvetica,sans-Serif" font-size="10.00">tomoBay.model.sql.framework.query</text>
<text text-anchor="middle" x="1386" y="-391" font-family="Helvetica,sans-Serif" font-size="10.00">Types.AbstractDBQuery.queryString</text>
</a>
</g>
</g>
<!-- Node5&#45;&gt;Node6 -->
<g id="edge5" class="edge"><title>Node5&#45;&gt;Node6</title>
<path fill="none" stroke="midnightblue" d="M1249.18,-399C1261.8,-399 1274.87,-399 1287.68,-399"/>
<polygon fill="midnightblue" stroke="midnightblue" points="1287.88,-402.5 1297.88,-399 1287.88,-395.5 1287.88,-402.5"/>
</g>
<!-- Node7&#45;&gt;Node2 -->
<g id="edge9" class="edge"><title>Node7&#45;&gt;Node2</title>
<path fill="none" stroke="midnightblue" d="M319.741,-256.317C347.566,-217.598 458.042,-76 585.5,-76 585.5,-76 585.5,-76 854,-76 940.894,-76 1039.36,-98.4884 1100.57,-115.214"/>
<polygon fill="midnightblue" stroke="midnightblue" points="1099.87,-118.652 1110.44,-117.949 1101.74,-111.906 1099.87,-118.652"/>
</g>
<!-- Node7&#45;&gt;Node5 -->
<g id="edge8" class="edge"><title>Node7&#45;&gt;Node5</title>
<path fill="none" stroke="midnightblue" d="M319.741,-275.683C347.566,-314.402 458.042,-456 585.5,-456 585.5,-456 585.5,-456 854,-456 940.894,-456 1039.36,-433.512 1100.57,-416.786"/>
<polygon fill="midnightblue" stroke="midnightblue" points="1101.74,-420.094 1110.44,-414.051 1099.87,-413.348 1101.74,-420.094"/>
</g>
<!-- Node8 -->
<g id="node8" class="node"><title>Node8</title>
<g id="a_node8"><a xlink:href="classtomoBay_1_1model_1_1sql_1_1framework_1_1QueryUtility.html#a56a65ac583b8720ae73dc81278e5690e" target="_top" xlink:title="set an Integer parameter for the query object specified. ">
<polygon fill="white" stroke="black" points="394,-256.5 394,-275.5 492,-275.5 492,-256.5 394,-256.5"/>
<text text-anchor="middle" x="443" y="-263.5" font-family="Helvetica,sans-Serif" font-size="10.00">setTINYINTParam</text>
</a>
</g>
</g>
<!-- Node7&#45;&gt;Node8 -->
<g id="edge10" class="edge"><title>Node7&#45;&gt;Node8</title>
<path fill="none" stroke="midnightblue" d="M358.118,-266C366.279,-266 374.897,-266 383.378,-266"/>
<polygon fill="midnightblue" stroke="midnightblue" points="383.615,-269.5 393.615,-266 383.615,-262.5 383.615,-269.5"/>
</g>
<!-- Node8&#45;&gt;Node2 -->
<g id="edge12" class="edge"><title>Node8&#45;&gt;Node2</title>
<path fill="none" stroke="midnightblue" d="M453.119,-256.492C486.063,-223.215 603.304,-114 723,-114 723,-114 723,-114 854,-114 920.921,-114 995.916,-118.583 1054.91,-123.247"/>
<polygon fill="midnightblue" stroke="midnightblue" points="1054.74,-126.744 1064.99,-124.056 1055.3,-119.767 1054.74,-126.744"/>
</g>
<!-- Node8&#45;&gt;Node5 -->
<g id="edge11" class="edge"><title>Node8&#45;&gt;Node5</title>
<path fill="none" stroke="midnightblue" d="M453.119,-275.508C486.063,-308.785 603.304,-418 723,-418 723,-418 723,-418 854,-418 923.814,-418 1002.42,-413.012 1062.47,-408.148"/>
<polygon fill="midnightblue" stroke="midnightblue" points="1063.03,-411.614 1072.71,-407.306 1062.45,-404.638 1063.03,-411.614"/>
</g>
<!-- Node9 -->
<g id="node9" class="node"><title>Node9</title>
<g id="a_node9"><a xlink:href="classtomoBay_1_1model_1_1sql_1_1framework_1_1QueryUtility.html#ab07d04299a96461dcf893416b8e32604" target="_top" xlink:title="set an Integer parameter for the query object specified. ">
<polygon fill="white" stroke="black" points="528,-256.5 528,-275.5 645,-275.5 645,-256.5 528,-256.5"/>
<text text-anchor="middle" x="586.5" y="-263.5" font-family="Helvetica,sans-Serif" font-size="10.00">setTIMESTAMPParam</text>
</a>
</g>
</g>
<!-- Node8&#45;&gt;Node9 -->
<g id="edge13" class="edge"><title>Node8&#45;&gt;Node9</title>
<path fill="none" stroke="midnightblue" d="M492.301,-266C500.383,-266 508.901,-266 517.37,-266"/>
<polygon fill="midnightblue" stroke="midnightblue" points="517.642,-269.5 527.642,-266 517.642,-262.5 517.642,-269.5"/>
</g>
<!-- Node9&#45;&gt;Node2 -->
<g id="edge15" class="edge"><title>Node9&#45;&gt;Node2</title>
<path fill="none" stroke="midnightblue" d="M618.764,-256.489C679.856,-238.142 819.553,-197.35 939,-171 976.53,-162.721 1017.98,-155.176 1054.74,-149.031"/>
<polygon fill="midnightblue" stroke="midnightblue" points="1055.69,-152.422 1064.98,-147.335 1054.54,-145.516 1055.69,-152.422"/>
</g>
<!-- Node9&#45;&gt;Node5 -->
<g id="edge14" class="edge"><title>Node9&#45;&gt;Node5</title>
<path fill="none" stroke="midnightblue" d="M620.239,-275.597C682.128,-293.531 820.693,-332.686 939,-359 979.267,-367.956 1024,-376.341 1062.62,-383.098"/>
<polygon fill="midnightblue" stroke="midnightblue" points="1062.37,-386.607 1072.82,-384.869 1063.57,-379.71 1062.37,-386.607"/>
</g>
<!-- Node10 -->
<g id="node10" class="node"><title>Node10</title>
<g id="a_node10"><a xlink:href="classtomoBay_1_1model_1_1sql_1_1framework_1_1QueryUtility.html#a202aab30c77e06c32318efd5cf949ca3" target="_top" xlink:title="set an Integer parameter for the query object specified. ">
<polygon fill="white" stroke="black" points="681,-256.5 681,-275.5 767,-275.5 767,-256.5 681,-256.5"/>
<text text-anchor="middle" x="724" y="-263.5" font-family="Helvetica,sans-Serif" font-size="10.00">setDATEParam</text>
</a>
</g>
</g>
<!-- Node9&#45;&gt;Node10 -->
<g id="edge16" class="edge"><title>Node9&#45;&gt;Node10</title>
<path fill="none" stroke="midnightblue" d="M645.357,-266C653.753,-266 662.356,-266 670.635,-266"/>
<polygon fill="midnightblue" stroke="midnightblue" points="670.909,-269.5 680.909,-266 670.909,-262.5 670.909,-269.5"/>
</g>
<!-- Node10&#45;&gt;Node2 -->
<g id="edge18" class="edge"><title>Node10&#45;&gt;Node2</title>
<path fill="none" stroke="midnightblue" d="M756.284,-256.435C828.439,-234.374 1007.48,-179.633 1100.99,-151.041"/>
<polygon fill="midnightblue" stroke="midnightblue" points="1102.05,-154.377 1110.59,-148.106 1100.01,-147.683 1102.05,-154.377"/>
</g>
<!-- Node10&#45;&gt;Node5 -->
<g id="edge17" class="edge"><title>Node10&#45;&gt;Node5</title>
<path fill="none" stroke="midnightblue" d="M756.284,-275.565C828.439,-297.626 1007.48,-352.367 1100.99,-380.959"/>
<polygon fill="midnightblue" stroke="midnightblue" points="1100.01,-384.317 1110.59,-383.894 1102.05,-377.623 1100.01,-384.317"/>
</g>
<!-- Node11 -->
<g id="node11" class="node"><title>Node11</title>
<g id="a_node11"><a xlink:href="classtomoBay_1_1model_1_1sql_1_1framework_1_1QueryUtility.html#a5677c2440b48e612fb51b57130555e5d" target="_top" xlink:title="set an Integer parameter for the query object specified. ">
<polygon fill="white" stroke="black" points="803,-256.5 803,-275.5 903,-275.5 903,-256.5 803,-256.5"/>
<text text-anchor="middle" x="853" y="-263.5" font-family="Helvetica,sans-Serif" font-size="10.00">setDOUBLEParam</text>
</a>
</g>
</g>
<!-- Node10&#45;&gt;Node11 -->
<g id="edge19" class="edge"><title>Node10&#45;&gt;Node11</title>
<path fill="none" stroke="midnightblue" d="M767.289,-266C775.483,-266 784.21,-266 792.83,-266"/>
<polygon fill="midnightblue" stroke="midnightblue" points="792.862,-269.5 802.862,-266 792.862,-262.5 792.862,-269.5"/>
</g>
<!-- Node11&#45;&gt;Node2 -->
<g id="edge21" class="edge"><title>Node11&#45;&gt;Node2</title>
<path fill="none" stroke="midnightblue" d="M885.553,-256.463C921.044,-245.361 980.114,-225.748 1029,-204 1063.04,-188.857 1100.24,-168.281 1126.27,-153.178"/>
<polygon fill="midnightblue" stroke="midnightblue" points="1128.12,-156.15 1134.99,-148.082 1124.59,-150.107 1128.12,-156.15"/>
</g>
<!-- Node11&#45;&gt;Node5 -->
<g id="edge20" class="edge"><title>Node11&#45;&gt;Node5</title>
<path fill="none" stroke="midnightblue" d="M885.553,-275.537C921.044,-286.639 980.114,-306.252 1029,-328 1063.04,-343.143 1100.24,-363.719 1126.27,-378.822"/>
<polygon fill="midnightblue" stroke="midnightblue" points="1124.59,-381.893 1134.99,-383.918 1128.12,-375.85 1124.59,-381.893"/>
</g>
<!-- Node12 -->
<g id="node12" class="node"><title>Node12</title>
<g id="a_node12"><a xlink:href="classtomoBay_1_1model_1_1sql_1_1framework_1_1QueryUtility.html#adf8f1fea7b649baadeb0297c41be72f5" target="_top" xlink:title="set an Integer parameter for the query object specified. ">
<polygon fill="white" stroke="black" points="939,-256.5 939,-275.5 1029,-275.5 1029,-256.5 939,-256.5"/>
<text text-anchor="middle" x="984" y="-263.5" font-family="Helvetica,sans-Serif" font-size="10.00">setFLOATParam</text>
</a>
</g>
</g>
<!-- Node11&#45;&gt;Node12 -->
<g id="edge22" class="edge"><title>Node11&#45;&gt;Node12</title>
<path fill="none" stroke="midnightblue" d="M903.137,-266C911.439,-266 920.101,-266 928.529,-266"/>
<polygon fill="midnightblue" stroke="midnightblue" points="928.654,-269.5 938.653,-266 928.653,-262.5 928.654,-269.5"/>
</g>
<!-- Node12&#45;&gt;Node2 -->
<g id="edge24" class="edge"><title>Node12&#45;&gt;Node2</title>
<path fill="none" stroke="midnightblue" d="M1004.76,-256.275C1012.52,-252.188 1021.37,-247.183 1029,-242 1068.75,-214.999 1110.79,-178.383 1136.22,-155.222"/>
<polygon fill="midnightblue" stroke="midnightblue" points="1138.87,-157.544 1143.87,-148.204 1134.13,-152.387 1138.87,-157.544"/>
</g>
<!-- Node12&#45;&gt;Node5 -->
<g id="edge23" class="edge"><title>Node12&#45;&gt;Node5</title>
<path fill="none" stroke="midnightblue" d="M1004.76,-275.725C1012.52,-279.812 1021.37,-284.817 1029,-290 1068.75,-317.001 1110.79,-353.617 1136.22,-376.778"/>
<polygon fill="midnightblue" stroke="midnightblue" points="1134.13,-379.613 1143.87,-383.796 1138.87,-374.456 1134.13,-379.613"/>
</g>
</g>
</svg>
        <g id="navigator" transform="translate(0 0)" fill="#404254">
                <rect fill="#f2f5e9" fill-opacity="0.5" stroke="#606060" stroke-width=".5" x="0" y="0" width="60" height="60"/>
                <use id="zoomplus" xlink:href="#zoomPlus" x="17" y="9" onmousedown="handleZoom(evt,'in')"/>
                <use id="zoomminus" xlink:href="#zoomMin" x="42" y="9" onmousedown="handleZoom(evt,'out')"/>
                <use id="reset" xlink:href="#resetDef" x="30" y="36" onmousedown="handleReset()"/>
                <g id="arrowUp" xlink:href="#dirArrow" transform="translate(30 24)" onmousedown="handlePan(0,-1)">
                  <use xlink:href="#rim" fill="#404040">
                        <set attributeName="fill" to="#808080" begin="arrowUp.mouseover" end="arrowUp.mouseout"/>
                  </use>
                  <path fill="none" stroke="white" stroke-width="1.5" d="M0,-3.0v7 M-2.5,-0.5L0,-3.0L2.5,-0.5"/>
                </g>
                <g id="arrowRight" xlink:href="#dirArrow" transform="rotate(90) translate(36 -43)" onmousedown="handlePan(1,0)">
                  <use xlink:href="#rim" fill="#404040">
                        <set attributeName="fill" to="#808080" begin="arrowRight.mouseover" end="arrowRight.mouseout"/>
                  </use>
                  <path fill="none" stroke="white" stroke-width="1.5" d="M0,-3.0v7 M-2.5,-0.5L0,-3.0L2.5,-0.5"/>
                </g>
                <g id="arrowDown" xlink:href="#dirArrow" transform="rotate(180) translate(-30 -48)" onmousedown="handlePan(0,1)">
                  <use xlink:href="#rim" fill="#404040">
                        <set attributeName="fill" to="#808080" begin="arrowDown.mouseover" end="arrowDown.mouseout"/>
                  </use>
                  <path fill="none" stroke="white" stroke-width="1.5" d="M0,-3.0v7 M-2.5,-0.5L0,-3.0L2.5,-0.5"/>
                </g>
                <g id="arrowLeft" xlink:href="#dirArrow" transform="rotate(270) translate(-36 17)" onmousedown="handlePan(-1,0)">
                  <use xlink:href="#rim" fill="#404040">
                        <set attributeName="fill" to="#808080" begin="arrowLeft.mouseover" end="arrowLeft.mouseout"/>
                  </use>
                  <path fill="none" stroke="white" stroke-width="1.5" d="M0,-3.0v7 M-2.5,-0.5L0,-3.0L2.5,-0.5"/>
                </g>
        </g>
        <svg viewBox="0 0 15 15" width="100%" height="30px" preserveAspectRatio="xMaxYMin meet">
         <g id="arrow_out" transform="scale(0.3 0.3)">
          <a xlink:href="classtomoBay_1_1model_1_1sql_1_1framework_1_1QueryUtility_a3249b16421a9902f2248cb86d4dd3be3_cgraph_org.svg" target="_base">
           <rect id="button" ry="5" rx="5" y="6" x="6" height="38" width="38"
                fill="#f2f5e9" fill-opacity="0.5" stroke="#606060" stroke-width="1.0"/>
           <path id="arrow"
             d="M 11.500037,31.436501 C 11.940474,20.09759 22.043105,11.32322 32.158766,21.979434 L 37.068811,17.246167 C 37.068811,17.246167 37.088388,32 37.088388,32 L 22.160133,31.978069 C 22.160133,31.978069 26.997745,27.140456 26.997745,27.140456 C 18.528582,18.264221 13.291696,25.230495 11.500037,31.436501 z"
             style="fill:#404040;"/>
          </a>
         </g>
        </svg>
</svg>
