<?xml version="1.0" encoding="UTF-8" standalone="no"?>
<!DOCTYPE svg PUBLIC "-//W3C//DTD SVG 1.1//EN"
 "http://www.w3.org/Graphics/SVG/1.1/DTD/svg11.dtd">
<!-- Generated by graphviz version 2.38.0 (20140413.2041)
 -->
<!-- Title: idealConditionsTest Pages: 1 -->
<svg width="313pt" height="50pt"
 viewBox="0.00 0.00 313.00 50.00" xmlns="http://www.w3.org/2000/svg" xmlns:xlink="http://www.w3.org/1999/xlink">
<g id="graph0" class="graph" transform="scale(1 1) rotate(0) translate(4 46)">
<title>idealConditionsTest</title>
<polygon fill="white" stroke="none" points="-4,4 -4,-46 309,-46 309,4 -4,4"/>
<!-- Node1 -->
<g id="node1" class="node"><title>Node1</title>
<polygon fill="#bfbfbf" stroke="black" points="0,-11.5 0,-30.5 103,-30.5 103,-11.5 0,-11.5"/>
<text text-anchor="middle" x="51.5" y="-18.5" font-family="Helvetica,sans-Serif" font-size="10.00">idealConditionsTest</text>
</g>
<!-- Node2 -->
<g id="node2" class="node"><title>Node2</title>
<g id="a_node2"><a xlink:href="classtomoBay_1_1presenters_1_1presenterActions_1_1concreteActions_1_1GenerateRoyalMailCSV.html#adb3dedf31dc2c7fc796f20406c235ccd" target="_top" xlink:title="performs the action specified ">
<polygon fill="white" stroke="black" points="139,-0.5 139,-41.5 305,-41.5 305,-0.5 139,-0.5"/>
<text text-anchor="start" x="147" y="-29.5" font-family="Helvetica,sans-Serif" font-size="10.00">tomoBay.presenters.presenter</text>
<text text-anchor="start" x="147" y="-18.5" font-family="Helvetica,sans-Serif" font-size="10.00">Actions.concreteActions.Generate</text>
<text text-anchor="middle" x="222" y="-7.5" font-family="Helvetica,sans-Serif" font-size="10.00">RoyalMailCSV.execute</text>
</a>
</g>
</g>
<!-- Node1&#45;&gt;Node2 -->
<g id="edge1" class="edge"><title>Node1&#45;&gt;Node2</title>
<path fill="none" stroke="midnightblue" d="M103.056,-21C111.296,-21 120.052,-21 128.924,-21"/>
<polygon fill="midnightblue" stroke="midnightblue" points="128.969,-24.5001 138.969,-21 128.969,-17.5001 128.969,-24.5001"/>
</g>
</g>
</svg>
