<?xml version="1.0" encoding="UTF-8" standalone="no"?>
<!DOCTYPE svg PUBLIC "-//W3C//DTD SVG 1.1//EN"
 "http://www.w3.org/Graphics/SVG/1.1/DTD/svg11.dtd">
<!-- Generated by graphviz version 2.38.0 (20140413.2041)
 -->
<!-- Title: AccountsTable Pages: 1 -->
<svg width="121pt" height="204pt"
 viewBox="0.00 0.00 121.00 204.00" xmlns="http://www.w3.org/2000/svg" xmlns:xlink="http://www.w3.org/1999/xlink">
<g id="graph0" class="graph" transform="scale(1 1) rotate(0) translate(4 200)">
<title>AccountsTable</title>
<polygon fill="white" stroke="none" points="-4,4 -4,-200 117,-200 117,4 -4,4"/>
<!-- Node1 -->
<g id="node1" class="node"><title>Node1</title>
<polygon fill="#bfbfbf" stroke="black" points="0,-0.5 0,-101.5 113,-101.5 113,-0.5 0,-0.5"/>
<text text-anchor="middle" x="56.5" y="-89.5" font-family="Helvetica,sans-Serif" font-size="10.00">AccountsTable</text>
<polyline fill="none" stroke="black" points="0,-82.5 113,-82.5 "/>
<text text-anchor="start" x="8" y="-70.5" font-family="Helvetica,sans-Serif" font-size="10.00">+ ID</text>
<text text-anchor="start" x="8" y="-59.5" font-family="Helvetica,sans-Serif" font-size="10.00">+ API_KEY</text>
<text text-anchor="start" x="8" y="-48.5" font-family="Helvetica,sans-Serif" font-size="10.00">+ SERVER_ADDR</text>
<text text-anchor="start" x="8" y="-37.5" font-family="Helvetica,sans-Serif" font-size="10.00">+ ACCOUNT_NAME</text>
<text text-anchor="start" x="8" y="-26.5" font-family="Helvetica,sans-Serif" font-size="10.00">+ LOOKBACK_DAYS</text>
<polyline fill="none" stroke="black" points="0,-19.5 113,-19.5 "/>
<text text-anchor="start" x="8" y="-7.5" font-family="Helvetica,sans-Serif" font-size="10.00">+ AccountsTable()</text>
</g>
<!-- Node2 -->
<g id="node2" class="node"><title>Node2</title>
<g id="a_node2"><a xlink:href="interfacetomoBay_1_1model_1_1dataTypes_1_1heteroTypeContainer_1_1AbstractTypeSchema.html" target="_top" xlink:title="Derived types of this class represent the schema for a specific database and should only contain publ...">
<polygon fill="white" stroke="black" points="1,-138.5 1,-195.5 112,-195.5 112,-138.5 1,-138.5"/>
<text text-anchor="middle" x="56.5" y="-183.5" font-family="Helvetica,sans-Serif" font-size="10.00">AbstractTypeSchema</text>
<polyline fill="none" stroke="black" points="1,-176.5 112,-176.5 "/>
<text text-anchor="middle" x="56.5" y="-164.5" font-family="Helvetica,sans-Serif" font-size="10.00"> </text>
<polyline fill="none" stroke="black" points="1,-157.5 112,-157.5 "/>
<text text-anchor="middle" x="56.5" y="-145.5" font-family="Helvetica,sans-Serif" font-size="10.00"> </text>
</a>
</g>
</g>
<!-- Node2&#45;&gt;Node1 -->
<g id="edge1" class="edge"><title>Node2&#45;&gt;Node1</title>
<path fill="none" stroke="midnightblue" d="M56.5,-128.354C56.5,-119.796 56.5,-110.578 56.5,-101.608"/>
<polygon fill="none" stroke="midnightblue" points="53.0001,-128.404 56.5,-138.404 60.0001,-128.404 53.0001,-128.404"/>
</g>
</g>
</svg>
