<?xml version="1.0" encoding="UTF-8" standalone="no"?>
<!DOCTYPE svg PUBLIC "-//W3C//DTD SVG 1.1//EN"
 "http://www.w3.org/Graphics/SVG/1.1/DTD/svg11.dtd">
<!-- Generated by graphviz version 2.38.0 (20140413.2041)
 -->
<!-- Title: name Pages: 1 -->
<!--zoomable 315 -->
<svg id="main" version="1.1" xmlns="http://www.w3.org/2000/svg" xmlns:xlink="http://www.w3.org/1999/xlink" xml:space="preserve" onload="init(evt)">
<style type="text/css"><![CDATA[
.edge:hover path { stroke: red; }
.edge:hover polygon { stroke: red; fill: red; }
]]></style>
<script type="text/javascript"><![CDATA[
var edges = document.getElementsByTagName('g');
if (edges && edges.length) {
  for (var i=0;i<edges.length;i++) {
    if (edges[i].id.substr(0,4)=='edge') {
      edges[i].setAttribute('class','edge');
    }
  }
}
]]></script>
        <defs>
                <circle id="rim" cx="0" cy="0" r="7"/>
                <circle id="rim2" cx="0" cy="0" r="3.5"/>
                <g id="zoomPlus">
                        <use xlink:href="#rim" fill="#404040">
                                <set attributeName="fill" to="#808080" begin="zoomplus.mouseover" end="zoomplus.mouseout"/>
                        </use>
                        <path d="M-4,0h8M0,-4v8" fill="none" stroke="white" stroke-width="1.5" pointer-events="none"/>
                </g>
                <g id="zoomMin">
                        <use xlink:href="#rim" fill="#404040">
                                <set attributeName="fill" to="#808080" begin="zoomminus.mouseover" end="zoomminus.mouseout"/>
                        </use>
                        <path d="M-4,0h8" fill="none" stroke="white" stroke-width="1.5" pointer-events="none"/>
                </g>
                <g id="dirArrow">
                        <path fill="none" stroke="white" stroke-width="1.5" d="M0,-3.0v7 M-2.5,-0.5L0,-3.0L2.5,-0.5"/>
                </g>
               <g id="resetDef">
                       <use xlink:href="#rim2" fill="#404040">
                               <set attributeName="fill" to="#808080" begin="reset.mouseover" end="reset.mouseout"/>
                       </use>
               </g>
        </defs>

<script type="text/javascript">
var viewWidth = 1044;
var viewHeight = 315;
var sectionId = 'dynsection-3';
</script>
<script xlink:href="svgpan.js"/>
<svg id="graph" class="graph">
<g id="viewport">
<title>name</title>
<polygon fill="white" stroke="none" points="-4,4 -4,-311 1040,-311 1040,4 -4,4"/>
<!-- Node1 -->
<g id="node1" class="node"><title>Node1</title>
<polygon fill="#bfbfbf" stroke="black" points="0,-114.5 0,-133.5 41,-133.5 41,-114.5 0,-114.5"/>
<text text-anchor="middle" x="20.5" y="-121.5" font-family="Helvetica,sans-Serif" font-size="10.00">name</text>
</g>
<!-- Node2 -->
<g id="node2" class="node"><title>Node2</title>
<g id="a_node2"><a xlink:href="classtomoBay_1_1model_1_1dataTypes_1_1order_1_1Order.html#af1b2ba6868fd8d054a2c7f40f8a8b6e0" target="_top" xlink:title="retrieve the account that this order is associated with ">
<polygon fill="white" stroke="black" points="102.5,-211 102.5,-241 263.5,-241 263.5,-211 102.5,-211"/>
<text text-anchor="start" x="110.5" y="-229" font-family="Helvetica,sans-Serif" font-size="10.00">tomoBay.model.dataTypes.order.</text>
<text text-anchor="middle" x="183" y="-218" font-family="Helvetica,sans-Serif" font-size="10.00">Order.account</text>
</a>
</g>
</g>
<!-- Node1&#45;&gt;Node2 -->
<g id="edge1" class="edge"><title>Node1&#45;&gt;Node2</title>
<path fill="none" stroke="midnightblue" d="M30.9692,-142.507C40.4299,-159.174 56.5017,-183.123 77,-197 85.3784,-202.672 94.8406,-207.24 104.568,-210.917"/>
<polygon fill="midnightblue" stroke="midnightblue" points="34.0204,-140.791 26.1793,-133.666 27.8657,-144.126 34.0204,-140.791"/>
</g>
<!-- Node8 -->
<g id="node8" class="node"><title>Node8</title>
<g id="a_node8"><a xlink:href="classtomoBay_1_1model_1_1services_1_1reScanBuyerService_1_1OnRunning.html#ae4a4f4cadce2787c7e80005639fbd5d9" target="_top" xlink:title="this method defines what to do in the given derived state ">
<polygon fill="white" stroke="black" points="89.5,-158 89.5,-188 276.5,-188 276.5,-158 89.5,-158"/>
<text text-anchor="start" x="97.5" y="-176" font-family="Helvetica,sans-Serif" font-size="10.00">tomoBay.model.services.re</text>
<text text-anchor="middle" x="183" y="-165" font-family="Helvetica,sans-Serif" font-size="10.00">ScanBuyerService.OnRunning.execute</text>
</a>
</g>
</g>
<!-- Node1&#45;&gt;Node8 -->
<g id="edge7" class="edge"><title>Node1&#45;&gt;Node8</title>
<path fill="none" stroke="midnightblue" d="M50.5982,-137.716C59.0022,-141.366 68.2648,-145.096 77,-148 87.9359,-151.636 99.6772,-154.967 111.206,-157.931"/>
<polygon fill="midnightblue" stroke="midnightblue" points="51.7682,-134.405 41.2102,-133.522 48.9133,-140.796 51.7682,-134.405"/>
</g>
<!-- Node11 -->
<g id="node11" class="node"><title>Node11</title>
<g id="a_node11"><a xlink:href="classtomoBay_1_1view_1_1views_1_1salesOrderView_1_1SalesOrderView.html#a5724666c8c61c4e2ef28d5364c8c13d0" target="_top" xlink:title="this method is responsible for formatting the data as required for the specific derived view ...">
<polygon fill="white" stroke="black" points="99.5,-109 99.5,-139 266.5,-139 266.5,-109 99.5,-109"/>
<text text-anchor="start" x="107.5" y="-127" font-family="Helvetica,sans-Serif" font-size="10.00">tomoBay.view.views.sales</text>
<text text-anchor="middle" x="183" y="-116" font-family="Helvetica,sans-Serif" font-size="10.00">OrderView.SalesOrderView.format</text>
</a>
</g>
</g>
<!-- Node1&#45;&gt;Node11 -->
<g id="edge10" class="edge"><title>Node1&#45;&gt;Node11</title>
<path fill="none" stroke="midnightblue" d="M51.4379,-124C65.1861,-124 82.2363,-124 99.4286,-124"/>
<polygon fill="midnightblue" stroke="midnightblue" points="51.1805,-120.5 41.1805,-124 51.1804,-127.5 51.1805,-120.5"/>
</g>
<!-- Node12 -->
<g id="node12" class="node"><title>Node12</title>
<g id="a_node12"><a xlink:href="classtomoBay_1_1model_1_1services_1_1individualItemRefreshService_1_1OnRunning.html#ac963522e7548952e01f9292cf94880ed" target="_top" xlink:title="use the itemID passed in to find out information about a specific eBay item. ">
<polygon fill="white" stroke="black" points="77,-60 77,-90 289,-90 289,-60 77,-60"/>
<text text-anchor="start" x="85" y="-78" font-family="Helvetica,sans-Serif" font-size="10.00">tomoBay.model.services.individual</text>
<text text-anchor="middle" x="183" y="-67" font-family="Helvetica,sans-Serif" font-size="10.00">ItemRefreshService.OnRunning.getItemData</text>
</a>
</g>
</g>
<!-- Node1&#45;&gt;Node12 -->
<g id="edge11" class="edge"><title>Node1&#45;&gt;Node12</title>
<path fill="none" stroke="midnightblue" d="M49.4298,-110.117C58.1195,-106.154 67.8287,-102.08 77,-99 86.8382,-95.6963 97.3458,-92.6971 107.77,-90.0255"/>
<polygon fill="midnightblue" stroke="midnightblue" points="47.6962,-107.065 40.1351,-114.486 50.6741,-113.4 47.6962,-107.065"/>
</g>
<!-- Node15 -->
<g id="node15" class="node"><title>Node15</title>
<g id="a_node15"><a xlink:href="classtomoBay_1_1model_1_1services_1_1reScanErrorsService_1_1ItemSpecifics.html#a15839159a196a40202a2dd1e25a89423" target="_top" xlink:title="constructor creates an ItemSpecifics object for the itemID passed in as an argument. ">
<polygon fill="white" stroke="black" points="101,-0.5 101,-41.5 265,-41.5 265,-0.5 101,-0.5"/>
<text text-anchor="start" x="109" y="-29.5" font-family="Helvetica,sans-Serif" font-size="10.00">tomoBay.model.services.re</text>
<text text-anchor="start" x="109" y="-18.5" font-family="Helvetica,sans-Serif" font-size="10.00">ScanErrorsService.ItemSpecifics.</text>
<text text-anchor="middle" x="183" y="-7.5" font-family="Helvetica,sans-Serif" font-size="10.00">ItemSpecifics</text>
</a>
</g>
</g>
<!-- Node1&#45;&gt;Node15 -->
<g id="edge14" class="edge"><title>Node1&#45;&gt;Node15</title>
<path fill="none" stroke="midnightblue" d="M30.7566,-105.511C40.1535,-88.6042 56.2583,-64.141 77,-50 84.266,-45.0463 92.3566,-40.9354 100.733,-37.5245"/>
<polygon fill="midnightblue" stroke="midnightblue" points="27.6056,-103.982 26.0146,-114.457 33.7905,-107.261 27.6056,-103.982"/>
</g>
<!-- Node3 -->
<g id="node3" class="node"><title>Node3</title>
<g id="a_node3"><a xlink:href="classtomoBay_1_1presenters_1_1presenterActions_1_1concreteActions_1_1InvoiceOrders.html#a589f75735e26f66e44061ac5047d0cf0" target="_top" xlink:title="tomoBay.presenters.presenter\lActions.concreteActions.Invoice\lOrders.formatMailResult">
<polygon fill="white" stroke="black" points="359.5,-262.5 359.5,-303.5 517.5,-303.5 517.5,-262.5 359.5,-262.5"/>
<text text-anchor="start" x="367.5" y="-291.5" font-family="Helvetica,sans-Serif" font-size="10.00">tomoBay.presenters.presenter</text>
<text text-anchor="start" x="367.5" y="-280.5" font-family="Helvetica,sans-Serif" font-size="10.00">Actions.concreteActions.Invoice</text>
<text text-anchor="middle" x="438.5" y="-269.5" font-family="Helvetica,sans-Serif" font-size="10.00">Orders.formatMailResult</text>
</a>
</g>
</g>
<!-- Node2&#45;&gt;Node3 -->
<g id="edge2" class="edge"><title>Node2&#45;&gt;Node3</title>
<path fill="none" stroke="midnightblue" d="M260.884,-243.287C292.079,-250.302 328.068,-258.394 359.387,-265.436"/>
<polygon fill="midnightblue" stroke="midnightblue" points="261.46,-239.83 250.936,-241.051 259.924,-246.659 261.46,-239.83"/>
</g>
<!-- Node5 -->
<g id="node5" class="node"><title>Node5</title>
<g id="a_node5"><a xlink:href="classtomoBay_1_1presenters_1_1presenterActions_1_1concreteActions_1_1OrderInfo.html#a95f980d76c5d92ed97b2aaab0d2d0c21" target="_top" xlink:title="formats the summary information for this Order ">
<polygon fill="white" stroke="black" points="325,-211 325,-241 552,-241 552,-211 325,-211"/>
<text text-anchor="start" x="333" y="-229" font-family="Helvetica,sans-Serif" font-size="10.00">tomoBay.presenters.presenter</text>
<text text-anchor="middle" x="438.5" y="-218" font-family="Helvetica,sans-Serif" font-size="10.00">Actions.concreteActions.OrderInfo.summaryInfo</text>
</a>
</g>
</g>
<!-- Node2&#45;&gt;Node5 -->
<g id="edge4" class="edge"><title>Node2&#45;&gt;Node5</title>
<path fill="none" stroke="midnightblue" d="M273.688,-226C290.24,-226 307.715,-226 324.844,-226"/>
<polygon fill="midnightblue" stroke="midnightblue" points="273.513,-222.5 263.513,-226 273.513,-229.5 273.513,-222.5"/>
</g>
<!-- Node4 -->
<g id="node4" class="node"><title>Node4</title>
<g id="a_node4"><a xlink:href="classtomoBay_1_1presenters_1_1presenterActions_1_1concreteActions_1_1InvoiceOrders.html#adb3dedf31dc2c7fc796f20406c235ccd" target="_top" xlink:title="performs the action specified ">
<polygon fill="white" stroke="black" points="613,-265.5 613,-306.5 771,-306.5 771,-265.5 613,-265.5"/>
<text text-anchor="start" x="621" y="-294.5" font-family="Helvetica,sans-Serif" font-size="10.00">tomoBay.presenters.presenter</text>
<text text-anchor="start" x="621" y="-283.5" font-family="Helvetica,sans-Serif" font-size="10.00">Actions.concreteActions.Invoice</text>
<text text-anchor="middle" x="692" y="-272.5" font-family="Helvetica,sans-Serif" font-size="10.00">Orders.execute</text>
</a>
</g>
</g>
<!-- Node3&#45;&gt;Node4 -->
<g id="edge3" class="edge"><title>Node3&#45;&gt;Node4</title>
<path fill="none" stroke="midnightblue" d="M527.777,-284.053C555.495,-284.384 585.886,-284.746 612.851,-285.068"/>
<polygon fill="midnightblue" stroke="midnightblue" points="527.739,-280.552 517.698,-283.933 527.655,-287.552 527.739,-280.552"/>
</g>
<!-- Node6 -->
<g id="node6" class="node"><title>Node6</title>
<g id="a_node6"><a xlink:href="classtomoBay_1_1presenters_1_1presenterActions_1_1concreteActions_1_1OrderInfo.html#afeec1aeda079b77245edea1e74b25f33" target="_top" xlink:title="assembles the various parts of the order and outputs it as a fully formed JSON string. ">
<polygon fill="white" stroke="black" points="593.5,-205.5 593.5,-246.5 790.5,-246.5 790.5,-205.5 593.5,-205.5"/>
<text text-anchor="start" x="601.5" y="-234.5" font-family="Helvetica,sans-Serif" font-size="10.00">tomoBay.presenters.presenter</text>
<text text-anchor="start" x="601.5" y="-223.5" font-family="Helvetica,sans-Serif" font-size="10.00">Actions.concreteActions.OrderInfo.format</text>
<text text-anchor="middle" x="692" y="-212.5" font-family="Helvetica,sans-Serif" font-size="10.00">Results</text>
</a>
</g>
</g>
<!-- Node5&#45;&gt;Node6 -->
<g id="edge5" class="edge"><title>Node5&#45;&gt;Node6</title>
<path fill="none" stroke="midnightblue" d="M562.015,-226C572.47,-226 582.956,-226 593.181,-226"/>
<polygon fill="midnightblue" stroke="midnightblue" points="562.009,-222.5 552.009,-226 562.009,-229.5 562.009,-222.5"/>
</g>
<!-- Node7 -->
<g id="node7" class="node"><title>Node7</title>
<g id="a_node7"><a xlink:href="classtomoBay_1_1presenters_1_1presenterActions_1_1concreteActions_1_1OrderInfo.html#adb3dedf31dc2c7fc796f20406c235ccd" target="_top" xlink:title="performs the action specified ">
<polygon fill="white" stroke="black" points="832,-211 832,-241 1036,-241 1036,-211 832,-211"/>
<text text-anchor="start" x="840" y="-229" font-family="Helvetica,sans-Serif" font-size="10.00">tomoBay.presenters.presenter</text>
<text text-anchor="middle" x="934" y="-218" font-family="Helvetica,sans-Serif" font-size="10.00">Actions.concreteActions.OrderInfo.execute</text>
</a>
</g>
</g>
<!-- Node6&#45;&gt;Node7 -->
<g id="edge6" class="edge"><title>Node6&#45;&gt;Node7</title>
<path fill="none" stroke="midnightblue" d="M800.9,-226C811.235,-226 821.691,-226 831.957,-226"/>
<polygon fill="midnightblue" stroke="midnightblue" points="800.617,-222.5 790.617,-226 800.617,-229.5 800.617,-222.5"/>
</g>
<!-- Node9 -->
<g id="node9" class="node"><title>Node9</title>
<g id="a_node9"><a xlink:href="classtomoBay_1_1model_1_1services_1_1reScanBuyerService_1_1ReScanBuyerService.html#ae3b0a282dcba7f2d675ca89b1dd48487" target="_top" xlink:title="tomoBay.model.services.re\lScanBuyerService.ReScanBuyerService.on\lRunning">
<polygon fill="white" stroke="black" points="334.5,-148.5 334.5,-189.5 542.5,-189.5 542.5,-148.5 334.5,-148.5"/>
<text text-anchor="start" x="342.5" y="-177.5" font-family="Helvetica,sans-Serif" font-size="10.00">tomoBay.model.services.re</text>
<text text-anchor="start" x="342.5" y="-166.5" font-family="Helvetica,sans-Serif" font-size="10.00">ScanBuyerService.ReScanBuyerService.on</text>
<text text-anchor="middle" x="438.5" y="-155.5" font-family="Helvetica,sans-Serif" font-size="10.00">Running</text>
</a>
</g>
</g>
<!-- Node8&#45;&gt;Node9 -->
<g id="edge8" class="edge"><title>Node8&#45;&gt;Node9</title>
<path fill="none" stroke="midnightblue" d="M286.83,-171.377C302.532,-171.13 318.743,-170.874 334.45,-170.626"/>
<polygon fill="midnightblue" stroke="midnightblue" points="286.539,-167.881 276.595,-171.539 286.649,-174.881 286.539,-167.881"/>
</g>
<!-- Node10 -->
<g id="node10" class="node"><title>Node10</title>
<g id="a_node10"><a xlink:href="classtomoBay_1_1model_1_1services_1_1reScanBuyerService_1_1ReScanBuyerService.html#afd85cd6baa355d54ab15c19c16c21df9" target="_top" xlink:title="tomoBay.model.services.re\lScanBuyerService.ReScanBuyerService.on\lPaused">
<polygon fill="white" stroke="black" points="588,-145.5 588,-186.5 796,-186.5 796,-145.5 588,-145.5"/>
<text text-anchor="start" x="596" y="-174.5" font-family="Helvetica,sans-Serif" font-size="10.00">tomoBay.model.services.re</text>
<text text-anchor="start" x="596" y="-163.5" font-family="Helvetica,sans-Serif" font-size="10.00">ScanBuyerService.ReScanBuyerService.on</text>
<text text-anchor="middle" x="692" y="-152.5" font-family="Helvetica,sans-Serif" font-size="10.00">Paused</text>
</a>
</g>
</g>
<!-- Node9&#45;&gt;Node10 -->
<g id="edge9" class="edge"><title>Node9&#45;&gt;Node10</title>
<path fill="none" stroke="midnightblue" d="M552.72,-167.649C564.382,-167.51 576.188,-167.37 587.733,-167.232"/>
<polygon fill="midnightblue" stroke="midnightblue" points="552.478,-164.152 542.52,-167.771 552.561,-171.152 552.478,-164.152"/>
</g>
<!-- Node13 -->
<g id="node13" class="node"><title>Node13</title>
<g id="a_node13"><a xlink:href="classtomoBay_1_1model_1_1services_1_1individualItemRefreshService_1_1OnRunning.html#ae4a4f4cadce2787c7e80005639fbd5d9" target="_top" xlink:title="this method defines what to do in the given derived state ">
<polygon fill="white" stroke="black" points="342,-60 342,-90 535,-90 535,-60 342,-60"/>
<text text-anchor="start" x="350" y="-78" font-family="Helvetica,sans-Serif" font-size="10.00">tomoBay.model.services.individual</text>
<text text-anchor="middle" x="438.5" y="-67" font-family="Helvetica,sans-Serif" font-size="10.00">ItemRefreshService.OnRunning.execute</text>
</a>
</g>
</g>
<!-- Node12&#45;&gt;Node13 -->
<g id="edge12" class="edge"><title>Node12&#45;&gt;Node13</title>
<path fill="none" stroke="midnightblue" d="M299.56,-75C313.705,-75 328.036,-75 341.843,-75"/>
<polygon fill="midnightblue" stroke="midnightblue" points="299.305,-71.5001 289.305,-75 299.304,-78.5001 299.305,-71.5001"/>
</g>
<!-- Node14 -->
<g id="node14" class="node"><title>Node14</title>
<g id="a_node14"><a xlink:href="classtomoBay_1_1model_1_1services_1_1individualItemRefreshService_1_1IndividualItemRefreshService.html#ae3b0a282dcba7f2d675ca89b1dd48487" target="_top" xlink:title="tomoBay.model.services.individual\lItemRefreshService.IndividualItemRefresh\lService.onRunning">
<polygon fill="white" stroke="black" points="591,-54.5 591,-95.5 793,-95.5 793,-54.5 591,-54.5"/>
<text text-anchor="start" x="599" y="-83.5" font-family="Helvetica,sans-Serif" font-size="10.00">tomoBay.model.services.individual</text>
<text text-anchor="start" x="599" y="-72.5" font-family="Helvetica,sans-Serif" font-size="10.00">ItemRefreshService.IndividualItemRefresh</text>
<text text-anchor="middle" x="692" y="-61.5" font-family="Helvetica,sans-Serif" font-size="10.00">Service.onRunning</text>
</a>
</g>
</g>
<!-- Node13&#45;&gt;Node14 -->
<g id="edge13" class="edge"><title>Node13&#45;&gt;Node14</title>
<path fill="none" stroke="midnightblue" d="M545.611,-75C560.609,-75 575.99,-75 590.871,-75"/>
<polygon fill="midnightblue" stroke="midnightblue" points="545.299,-71.5001 535.299,-75 545.299,-78.5001 545.299,-71.5001"/>
</g>
</g>
</svg>
        <g id="navigator" transform="translate(0 0)" fill="#404254">
                <rect fill="#f2f5e9" fill-opacity="0.5" stroke="#606060" stroke-width=".5" x="0" y="0" width="60" height="60"/>
                <use id="zoomplus" xlink:href="#zoomPlus" x="17" y="9" onmousedown="handleZoom(evt,'in')"/>
                <use id="zoomminus" xlink:href="#zoomMin" x="42" y="9" onmousedown="handleZoom(evt,'out')"/>
                <use id="reset" xlink:href="#resetDef" x="30" y="36" onmousedown="handleReset()"/>
                <g id="arrowUp" xlink:href="#dirArrow" transform="translate(30 24)" onmousedown="handlePan(0,-1)">
                  <use xlink:href="#rim" fill="#404040">
                        <set attributeName="fill" to="#808080" begin="arrowUp.mouseover" end="arrowUp.mouseout"/>
                  </use>
                  <path fill="none" stroke="white" stroke-width="1.5" d="M0,-3.0v7 M-2.5,-0.5L0,-3.0L2.5,-0.5"/>
                </g>
                <g id="arrowRight" xlink:href="#dirArrow" transform="rotate(90) translate(36 -43)" onmousedown="handlePan(1,0)">
                  <use xlink:href="#rim" fill="#404040">
                        <set attributeName="fill" to="#808080" begin="arrowRight.mouseover" end="arrowRight.mouseout"/>
                  </use>
                  <path fill="none" stroke="white" stroke-width="1.5" d="M0,-3.0v7 M-2.5,-0.5L0,-3.0L2.5,-0.5"/>
                </g>
                <g id="arrowDown" xlink:href="#dirArrow" transform="rotate(180) translate(-30 -48)" onmousedown="handlePan(0,1)">
                  <use xlink:href="#rim" fill="#404040">
                        <set attributeName="fill" to="#808080" begin="arrowDown.mouseover" end="arrowDown.mouseout"/>
                  </use>
                  <path fill="none" stroke="white" stroke-width="1.5" d="M0,-3.0v7 M-2.5,-0.5L0,-3.0L2.5,-0.5"/>
                </g>
                <g id="arrowLeft" xlink:href="#dirArrow" transform="rotate(270) translate(-36 17)" onmousedown="handlePan(-1,0)">
                  <use xlink:href="#rim" fill="#404040">
                        <set attributeName="fill" to="#808080" begin="arrowLeft.mouseover" end="arrowLeft.mouseout"/>
                  </use>
                  <path fill="none" stroke="white" stroke-width="1.5" d="M0,-3.0v7 M-2.5,-0.5L0,-3.0L2.5,-0.5"/>
                </g>
        </g>
        <svg viewBox="0 0 15 15" width="100%" height="30px" preserveAspectRatio="xMaxYMin meet">
         <g id="arrow_out" transform="scale(0.3 0.3)">
          <a xlink:href="classtomoBay_1_1model_1_1eBayAPI_1_1EbayAccounts_a263b122a1c598841624ba7d1e4a6c617_icgraph_org.svg" target="_base">
           <rect id="button" ry="5" rx="5" y="6" x="6" height="38" width="38"
                fill="#f2f5e9" fill-opacity="0.5" stroke="#606060" stroke-width="1.0"/>
           <path id="arrow"
             d="M 11.500037,31.436501 C 11.940474,20.09759 22.043105,11.32322 32.158766,21.979434 L 37.068811,17.246167 C 37.068811,17.246167 37.088388,32 37.088388,32 L 22.160133,31.978069 C 22.160133,31.978069 26.997745,27.140456 26.997745,27.140456 C 18.528582,18.264221 13.291696,25.230495 11.500037,31.436501 z"
             style="fill:#404040;"/>
          </a>
         </g>
        </svg>
</svg>
