<?xml version="1.0" encoding="UTF-8" standalone="no"?>
<!DOCTYPE svg PUBLIC "-//W3C//DTD SVG 1.1//EN"
 "http://www.w3.org/Graphics/SVG/1.1/DTD/svg11.dtd">
<!-- Generated by graphviz version 2.38.0 (20140413.2041)
 -->
<!-- Title: GSPInvoiceFactory Pages: 1 -->
<svg width="145pt" height="182pt"
 viewBox="0.00 0.00 145.00 182.00" xmlns="http://www.w3.org/2000/svg" xmlns:xlink="http://www.w3.org/1999/xlink">
<g id="graph0" class="graph" transform="scale(1 1) rotate(0) translate(4 178)">
<title>GSPInvoiceFactory</title>
<polygon fill="white" stroke="none" points="-4,4 -4,-178 141,-178 141,4 -4,4"/>
<!-- Node1 -->
<g id="node1" class="node"><title>Node1</title>
<polygon fill="#bfbfbf" stroke="black" points="10,-0.5 10,-68.5 127,-68.5 127,-0.5 10,-0.5"/>
<text text-anchor="middle" x="68.5" y="-56.5" font-family="Helvetica,sans-Serif" font-size="10.00">GSPInvoiceFactory</text>
<polyline fill="none" stroke="black" points="10,-49.5 127,-49.5 "/>
<text text-anchor="middle" x="68.5" y="-37.5" font-family="Helvetica,sans-Serif" font-size="10.00"> </text>
<polyline fill="none" stroke="black" points="10,-30.5 127,-30.5 "/>
<text text-anchor="start" x="18" y="-18.5" font-family="Helvetica,sans-Serif" font-size="10.00">+ GSPInvoiceFactory()</text>
<text text-anchor="start" x="18" y="-7.5" font-family="Helvetica,sans-Serif" font-size="10.00">+ make()</text>
</g>
<!-- Node2 -->
<g id="node2" class="node"><title>Node2</title>
<g id="a_node2"><a xlink:href="interfacetomoBay_1_1model_1_1dataTypes_1_1financial_1_1SalesOrderDayBook_1_1factories_1_1AbstractSalesDayBookLineFactory.html" target="_top" xlink:title="{AbstractSalesDayBookLine\lFactory\n||+ make()\l}">
<polygon fill="white" stroke="black" points="0,-105.5 0,-173.5 137,-173.5 137,-105.5 0,-105.5"/>
<text text-anchor="start" x="8" y="-161.5" font-family="Helvetica,sans-Serif" font-size="10.00">AbstractSalesDayBookLine</text>
<text text-anchor="middle" x="68.5" y="-150.5" font-family="Helvetica,sans-Serif" font-size="10.00">Factory</text>
<polyline fill="none" stroke="black" points="0,-143.5 137,-143.5 "/>
<text text-anchor="middle" x="68.5" y="-131.5" font-family="Helvetica,sans-Serif" font-size="10.00"> </text>
<polyline fill="none" stroke="black" points="0,-124.5 137,-124.5 "/>
<text text-anchor="start" x="8" y="-112.5" font-family="Helvetica,sans-Serif" font-size="10.00">+ make()</text>
</a>
</g>
</g>
<!-- Node2&#45;&gt;Node1 -->
<g id="edge1" class="edge"><title>Node2&#45;&gt;Node1</title>
<path fill="none" stroke="midnightblue" d="M68.5,-95.1362C68.5,-86.256 68.5,-77.0447 68.5,-68.5947"/>
<polygon fill="none" stroke="midnightblue" points="65.0001,-95.3432 68.5,-105.343 72.0001,-95.3432 65.0001,-95.3432"/>
</g>
</g>
</svg>
