<?xml version="1.0" encoding="UTF-8" standalone="no"?>
<!DOCTYPE svg PUBLIC "-//W3C//DTD SVG 1.1//EN"
 "http://www.w3.org/Graphics/SVG/1.1/DTD/svg11.dtd">
<!-- Generated by graphviz version 2.38.0 (20140413.2041)
 -->
<!-- Title: totalPrice Pages: 1 -->
<svg width="1318pt" height="158pt"
 viewBox="0.00 0.00 1318.00 158.00" xmlns="http://www.w3.org/2000/svg" xmlns:xlink="http://www.w3.org/1999/xlink">
<g id="graph0" class="graph" transform="scale(1 1) rotate(0) translate(4 154)">
<title>totalPrice</title>
<polygon fill="white" stroke="none" points="-4,4 -4,-154 1314,-154 1314,4 -4,4"/>
<!-- Node1 -->
<g id="node1" class="node"><title>Node1</title>
<polygon fill="#bfbfbf" stroke="black" points="0,-92.5 0,-111.5 58,-111.5 58,-92.5 0,-92.5"/>
<text text-anchor="middle" x="29" y="-99.5" font-family="Helvetica,sans-Serif" font-size="10.00">totalPrice</text>
</g>
<!-- Node2 -->
<g id="node2" class="node"><title>Node2</title>
<g id="a_node2"><a xlink:href="classtomoBay_1_1presenters_1_1presenterActions_1_1concreteActions_1_1OrderInfo.html#a95f980d76c5d92ed97b2aaab0d2d0c21" target="_top" xlink:title="formats the summary information for this Order ">
<polygon fill="white" stroke="black" points="94,-114 94,-144 321,-144 321,-114 94,-114"/>
<text text-anchor="start" x="102" y="-132" font-family="Helvetica,sans-Serif" font-size="10.00">tomoBay.presenters.presenter</text>
<text text-anchor="middle" x="207.5" y="-121" font-family="Helvetica,sans-Serif" font-size="10.00">Actions.concreteActions.OrderInfo.summaryInfo</text>
</a>
</g>
</g>
<!-- Node1&#45;&gt;Node2 -->
<g id="edge1" class="edge"><title>Node1&#45;&gt;Node2</title>
<path fill="none" stroke="midnightblue" d="M68.3728,-107.87C80.3457,-109.702 94.1423,-111.812 108.285,-113.976"/>
<polygon fill="midnightblue" stroke="midnightblue" points="68.7721,-104.391 58.3578,-106.338 67.7135,-111.31 68.7721,-104.391"/>
</g>
<!-- Node5 -->
<g id="node5" class="node"><title>Node5</title>
<g id="a_node5"><a xlink:href="classtomoBay_1_1model_1_1dataTypes_1_1financial_1_1SalesOrderDayBook_1_1AbstractSalesDayBookLine.html#aea325f3c68ee2726fc713821e3e2b63c" target="_top" xlink:title="retrieve the total (including VAT) price of this order ">
<polygon fill="white" stroke="black" points="102,-54.5 102,-95.5 313,-95.5 313,-54.5 102,-54.5"/>
<text text-anchor="start" x="110" y="-83.5" font-family="Helvetica,sans-Serif" font-size="10.00">tomoBay.model.dataTypes.financial.</text>
<text text-anchor="start" x="110" y="-72.5" font-family="Helvetica,sans-Serif" font-size="10.00">SalesOrderDayBook.AbstractSalesDayBook</text>
<text text-anchor="middle" x="207.5" y="-61.5" font-family="Helvetica,sans-Serif" font-size="10.00">Line.totalIncVat</text>
</a>
</g>
</g>
<!-- Node1&#45;&gt;Node5 -->
<g id="edge4" class="edge"><title>Node1&#45;&gt;Node5</title>
<path fill="none" stroke="midnightblue" d="M68.4007,-96.1257C78.5265,-94.5767 89.9551,-92.8284 101.793,-91.0175"/>
<polygon fill="midnightblue" stroke="midnightblue" points="67.7135,-92.69 58.3578,-97.662 68.7721,-99.6095 67.7135,-92.69"/>
</g>
<!-- Node3 -->
<g id="node3" class="node"><title>Node3</title>
<g id="a_node3"><a xlink:href="classtomoBay_1_1presenters_1_1presenterActions_1_1concreteActions_1_1OrderInfo.html#afeec1aeda079b77245edea1e74b25f33" target="_top" xlink:title="assembles the various parts of the order and outputs it as a fully formed JSON string. ">
<polygon fill="white" stroke="black" points="365,-108.5 365,-149.5 562,-149.5 562,-108.5 365,-108.5"/>
<text text-anchor="start" x="373" y="-137.5" font-family="Helvetica,sans-Serif" font-size="10.00">tomoBay.presenters.presenter</text>
<text text-anchor="start" x="373" y="-126.5" font-family="Helvetica,sans-Serif" font-size="10.00">Actions.concreteActions.OrderInfo.format</text>
<text text-anchor="middle" x="463.5" y="-115.5" font-family="Helvetica,sans-Serif" font-size="10.00">Results</text>
</a>
</g>
</g>
<!-- Node2&#45;&gt;Node3 -->
<g id="edge2" class="edge"><title>Node2&#45;&gt;Node3</title>
<path fill="none" stroke="midnightblue" d="M331.313,-129C342.548,-129 353.827,-129 364.798,-129"/>
<polygon fill="midnightblue" stroke="midnightblue" points="331.017,-125.5 321.017,-129 331.017,-132.5 331.017,-125.5"/>
</g>
<!-- Node4 -->
<g id="node4" class="node"><title>Node4</title>
<g id="a_node4"><a xlink:href="classtomoBay_1_1presenters_1_1presenterActions_1_1concreteActions_1_1OrderInfo.html#adb3dedf31dc2c7fc796f20406c235ccd" target="_top" xlink:title="performs the action specified ">
<polygon fill="white" stroke="black" points="609,-114 609,-144 813,-144 813,-114 609,-114"/>
<text text-anchor="start" x="617" y="-132" font-family="Helvetica,sans-Serif" font-size="10.00">tomoBay.presenters.presenter</text>
<text text-anchor="middle" x="711" y="-121" font-family="Helvetica,sans-Serif" font-size="10.00">Actions.concreteActions.OrderInfo.execute</text>
</a>
</g>
</g>
<!-- Node3&#45;&gt;Node4 -->
<g id="edge3" class="edge"><title>Node3&#45;&gt;Node4</title>
<path fill="none" stroke="midnightblue" d="M572.393,-129C584.555,-129 596.915,-129 608.985,-129"/>
<polygon fill="midnightblue" stroke="midnightblue" points="572.234,-125.5 562.234,-129 572.233,-132.5 572.234,-125.5"/>
</g>
<!-- Node6 -->
<g id="node6" class="node"><title>Node6</title>
<g id="a_node6"><a xlink:href="classtomoBay_1_1model_1_1dataTypes_1_1financial_1_1SalesOrderDayBook_1_1PriceAdjustment.html#a7114ae819db1434d652d784079e06ed8" target="_top" xlink:title="this method represents a fitness function to be used when calculating the adjustments to the Abstract...">
<polygon fill="white" stroke="black" points="357,-60 357,-90 570,-90 570,-60 357,-60"/>
<text text-anchor="start" x="365" y="-78" font-family="Helvetica,sans-Serif" font-size="10.00">tomoBay.model.dataTypes.financial.</text>
<text text-anchor="middle" x="463.5" y="-67" font-family="Helvetica,sans-Serif" font-size="10.00">SalesOrderDayBook.PriceAdjustment.fitness</text>
</a>
</g>
</g>
<!-- Node5&#45;&gt;Node6 -->
<g id="edge5" class="edge"><title>Node5&#45;&gt;Node6</title>
<path fill="none" stroke="midnightblue" d="M323.421,-75C334.515,-75 345.733,-75 356.732,-75"/>
<polygon fill="midnightblue" stroke="midnightblue" points="323.278,-71.5001 313.278,-75 323.278,-78.5001 323.278,-71.5001"/>
</g>
<!-- Node10 -->
<g id="node10" class="node"><title>Node10</title>
<g id="a_node10"><a xlink:href="classtomoBay_1_1model_1_1dataTypes_1_1financial_1_1SalesOrderDayBook_1_1AbstractSalesDayBookLine.html#a596ba0a251d2f86898d7a0a23b4b1140" target="_top" xlink:title="retrieve the total (excluding VAT) price for this order ">
<polygon fill="white" stroke="black" points="358,-0.5 358,-41.5 569,-41.5 569,-0.5 358,-0.5"/>
<text text-anchor="start" x="366" y="-29.5" font-family="Helvetica,sans-Serif" font-size="10.00">tomoBay.model.dataTypes.financial.</text>
<text text-anchor="start" x="366" y="-18.5" font-family="Helvetica,sans-Serif" font-size="10.00">SalesOrderDayBook.AbstractSalesDayBook</text>
<text text-anchor="middle" x="463.5" y="-7.5" font-family="Helvetica,sans-Serif" font-size="10.00">Line.totalExVat</text>
</a>
</g>
</g>
<!-- Node5&#45;&gt;Node10 -->
<g id="edge9" class="edge"><title>Node5&#45;&gt;Node10</title>
<path fill="none" stroke="midnightblue" d="M315.125,-52.3317C332.008,-48.7424 349.384,-45.0482 366.018,-41.5119"/>
<polygon fill="midnightblue" stroke="midnightblue" points="314.305,-48.9278 305.251,-54.4309 315.76,-55.7748 314.305,-48.9278"/>
</g>
<!-- Node7 -->
<g id="node7" class="node"><title>Node7</title>
<g id="a_node7"><a xlink:href="classtomoBay_1_1model_1_1dataTypes_1_1financial_1_1SalesOrderDayBook_1_1PriceAdjustment.html#ac2a5cb96c13a986d05bd0457a1971e2f" target="_top" xlink:title="calculate the adjustments necessary and apply them to the AbstractSalesDayBookLine provided as an arg...">
<polygon fill="white" stroke="black" points="606,-60 606,-90 816,-90 816,-60 606,-60"/>
<text text-anchor="start" x="614" y="-78" font-family="Helvetica,sans-Serif" font-size="10.00">tomoBay.model.dataTypes.financial.</text>
<text text-anchor="middle" x="711" y="-67" font-family="Helvetica,sans-Serif" font-size="10.00">SalesOrderDayBook.PriceAdjustment.adjust</text>
</a>
</g>
</g>
<!-- Node6&#45;&gt;Node7 -->
<g id="edge6" class="edge"><title>Node6&#45;&gt;Node7</title>
<path fill="none" stroke="midnightblue" d="M580.059,-75C588.621,-75 597.23,-75 605.719,-75"/>
<polygon fill="midnightblue" stroke="midnightblue" points="580.039,-71.5001 570.039,-75 580.039,-78.5001 580.039,-71.5001"/>
</g>
<!-- Node8 -->
<g id="node8" class="node"><title>Node8</title>
<g id="a_node8"><a xlink:href="classtomoBay_1_1model_1_1dataTypes_1_1financial_1_1SalesOrderDayBook_1_1AbstractSalesDayBookLine.html#a0c8ce8b50d57fa99babc2c2199a39fe3" target="_top" xlink:title="tomoBay.model.dataTypes.financial.\lSalesOrderDayBook.AbstractSalesDayBook\lLine.adjustPrices">
<polygon fill="white" stroke="black" points="852,-54.5 852,-95.5 1063,-95.5 1063,-54.5 852,-54.5"/>
<text text-anchor="start" x="860" y="-83.5" font-family="Helvetica,sans-Serif" font-size="10.00">tomoBay.model.dataTypes.financial.</text>
<text text-anchor="start" x="860" y="-72.5" font-family="Helvetica,sans-Serif" font-size="10.00">SalesOrderDayBook.AbstractSalesDayBook</text>
<text text-anchor="middle" x="957.5" y="-61.5" font-family="Helvetica,sans-Serif" font-size="10.00">Line.adjustPrices</text>
</a>
</g>
</g>
<!-- Node7&#45;&gt;Node8 -->
<g id="edge7" class="edge"><title>Node7&#45;&gt;Node8</title>
<path fill="none" stroke="midnightblue" d="M826.069,-75C834.638,-75 843.261,-75 851.769,-75"/>
<polygon fill="midnightblue" stroke="midnightblue" points="826.045,-71.5001 816.045,-75 826.045,-78.5001 826.045,-71.5001"/>
</g>
<!-- Node9 -->
<g id="node9" class="node"><title>Node9</title>
<g id="a_node9"><a xlink:href="classtomoBay_1_1model_1_1dataTypes_1_1financial_1_1SalesOrderDayBook_1_1AbstractSalesDayBookLine.html#ae9d19609629c59f8df7ddec196fcc30c" target="_top" xlink:title="CONSTRUCTOR, creates a SalesDayBookLine based on the Order passed in as a parameter. ">
<polygon fill="white" stroke="black" points="1099,-54.5 1099,-95.5 1310,-95.5 1310,-54.5 1099,-54.5"/>
<text text-anchor="start" x="1107" y="-83.5" font-family="Helvetica,sans-Serif" font-size="10.00">tomoBay.model.dataTypes.financial.</text>
<text text-anchor="start" x="1107" y="-72.5" font-family="Helvetica,sans-Serif" font-size="10.00">SalesOrderDayBook.AbstractSalesDayBook</text>
<text text-anchor="middle" x="1204.5" y="-61.5" font-family="Helvetica,sans-Serif" font-size="10.00">Line.AbstractSalesDayBookLine</text>
</a>
</g>
</g>
<!-- Node8&#45;&gt;Node9 -->
<g id="edge8" class="edge"><title>Node8&#45;&gt;Node9</title>
<path fill="none" stroke="midnightblue" d="M1073.14,-75C1081.72,-75 1090.34,-75 1098.85,-75"/>
<polygon fill="midnightblue" stroke="midnightblue" points="1073.11,-71.5001 1063.11,-75 1073.11,-78.5001 1073.11,-71.5001"/>
</g>
</g>
</svg>
