<?xml version="1.0" encoding="UTF-8" standalone="no"?>
<!DOCTYPE svg PUBLIC "-//W3C//DTD SVG 1.1//EN"
 "http://www.w3.org/Graphics/SVG/1.1/DTD/svg11.dtd">
<!-- Generated by graphviz version 2.38.0 (20140413.2041)
 -->
<!-- Title: OrderTransactionsCall Pages: 1 -->
<svg width="256pt" height="193pt"
 viewBox="0.00 0.00 255.50 193.00" xmlns="http://www.w3.org/2000/svg" xmlns:xlink="http://www.w3.org/1999/xlink">
<g id="graph0" class="graph" transform="scale(1 1) rotate(0) translate(4 189)">
<title>OrderTransactionsCall</title>
<polygon fill="white" stroke="none" points="-4,4 -4,-189 251.5,-189 251.5,4 -4,4"/>
<!-- Node1 -->
<g id="node1" class="node"><title>Node1</title>
<polygon fill="#bfbfbf" stroke="black" points="51,-0.5 51,-68.5 180,-68.5 180,-0.5 51,-0.5"/>
<text text-anchor="middle" x="115.5" y="-56.5" font-family="Helvetica,sans-Serif" font-size="10.00">OrderTransactionsCall</text>
<polyline fill="none" stroke="black" points="51,-49.5 180,-49.5 "/>
<text text-anchor="middle" x="115.5" y="-37.5" font-family="Helvetica,sans-Serif" font-size="10.00"> </text>
<polyline fill="none" stroke="black" points="51,-30.5 180,-30.5 "/>
<text text-anchor="start" x="59" y="-18.5" font-family="Helvetica,sans-Serif" font-size="10.00">+ OrderTransactionsCall()</text>
<text text-anchor="start" x="59" y="-7.5" font-family="Helvetica,sans-Serif" font-size="10.00">+ call()</text>
</g>
<!-- Node2 -->
<g id="node2" class="node"><title>Node2</title>
<g id="a_node2"><a xlink:href="classtomoBay_1_1model_1_1eBayAPI_1_1AbstractAPIcall.html" target="_top" xlink:title="This is the abstract base class for all the recievers in this command pattern, it provides a common w...">
<polygon fill="white" stroke="black" points="0,-116.5 0,-184.5 99,-184.5 99,-116.5 0,-116.5"/>
<text text-anchor="middle" x="49.5" y="-172.5" font-family="Helvetica,sans-Serif" font-size="10.00">AbstractAPIcall</text>
<polyline fill="none" stroke="black" points="0,-165.5 99,-165.5 "/>
<text text-anchor="start" x="8" y="-153.5" font-family="Helvetica,sans-Serif" font-size="10.00"># usrToken_M</text>
<text text-anchor="start" x="8" y="-142.5" font-family="Helvetica,sans-Serif" font-size="10.00"># server_M</text>
<polyline fill="none" stroke="black" points="0,-135.5 99,-135.5 "/>
<text text-anchor="start" x="8" y="-123.5" font-family="Helvetica,sans-Serif" font-size="10.00"># AbstractAPIcall()</text>
</a>
</g>
</g>
<!-- Node2&#45;&gt;Node1 -->
<g id="edge1" class="edge"><title>Node2&#45;&gt;Node1</title>
<path fill="none" stroke="midnightblue" d="M73.7892,-107.546C81.2189,-94.7129 89.283,-80.7839 96.3228,-68.6243"/>
<polygon fill="none" stroke="midnightblue" points="70.7488,-105.812 68.7674,-116.22 76.8068,-109.319 70.7488,-105.812"/>
</g>
<!-- Node3 -->
<g id="node3" class="node"><title>Node3</title>
<polygon fill="white" stroke="#bfbfbf" points="117.5,-122 117.5,-179 247.5,-179 247.5,-122 117.5,-122"/>
<text text-anchor="middle" x="182.5" y="-167" font-family="Helvetica,sans-Serif" font-size="10.00">GetOrderTransactionsCall</text>
<polyline fill="none" stroke="#bfbfbf" points="117.5,-160 247.5,-160 "/>
<text text-anchor="middle" x="182.5" y="-148" font-family="Helvetica,sans-Serif" font-size="10.00"> </text>
<polyline fill="none" stroke="#bfbfbf" points="117.5,-141 247.5,-141 "/>
<text text-anchor="middle" x="182.5" y="-129" font-family="Helvetica,sans-Serif" font-size="10.00"> </text>
</g>
<!-- Node3&#45;&gt;Node1 -->
<g id="edge2" class="edge"><title>Node3&#45;&gt;Node1</title>
<path fill="none" stroke="#404040" d="M166.281,-121.904C158.751,-109.091 149.617,-93.549 141.182,-79.1983"/>
<polygon fill="none" stroke="#404040" points="140.988,-78.8669 134.499,-75.7209 134.907,-68.5214 141.396,-71.6674 140.988,-78.8669"/>
<text text-anchor="middle" x="162.5" y="-90" font-family="Helvetica,sans-Serif" font-size="10.00"> &#45;call</text>
</g>
</g>
</svg>
