<?xml version="1.0" encoding="UTF-8" standalone="no"?>
<!DOCTYPE svg PUBLIC "-//W3C//DTD SVG 1.1//EN"
 "http://www.w3.org/Graphics/SVG/1.1/DTD/svg11.dtd">
<!-- Generated by graphviz version 2.38.0 (20140413.2041)
 -->
<!-- Title: PrintInvoiceCommand Pages: 1 -->
<!--zoomable 524 -->
<svg id="main" version="1.1" xmlns="http://www.w3.org/2000/svg" xmlns:xlink="http://www.w3.org/1999/xlink" xml:space="preserve" onload="init(evt)">
<style type="text/css"><![CDATA[
.edge:hover path { stroke: red; }
.edge:hover polygon { stroke: red; fill: red; }
]]></style>
<script type="text/javascript"><![CDATA[
var edges = document.getElementsByTagName('g');
if (edges && edges.length) {
  for (var i=0;i<edges.length;i++) {
    if (edges[i].id.substr(0,4)=='edge') {
      edges[i].setAttribute('class','edge');
    }
  }
}
]]></script>
        <defs>
                <circle id="rim" cx="0" cy="0" r="7"/>
                <circle id="rim2" cx="0" cy="0" r="3.5"/>
                <g id="zoomPlus">
                        <use xlink:href="#rim" fill="#404040">
                                <set attributeName="fill" to="#808080" begin="zoomplus.mouseover" end="zoomplus.mouseout"/>
                        </use>
                        <path d="M-4,0h8M0,-4v8" fill="none" stroke="white" stroke-width="1.5" pointer-events="none"/>
                </g>
                <g id="zoomMin">
                        <use xlink:href="#rim" fill="#404040">
                                <set attributeName="fill" to="#808080" begin="zoomminus.mouseover" end="zoomminus.mouseout"/>
                        </use>
                        <path d="M-4,0h8" fill="none" stroke="white" stroke-width="1.5" pointer-events="none"/>
                </g>
                <g id="dirArrow">
                        <path fill="none" stroke="white" stroke-width="1.5" d="M0,-3.0v7 M-2.5,-0.5L0,-3.0L2.5,-0.5"/>
                </g>
               <g id="resetDef">
                       <use xlink:href="#rim2" fill="#404040">
                               <set attributeName="fill" to="#808080" begin="reset.mouseover" end="reset.mouseout"/>
                       </use>
               </g>
        </defs>

<script type="text/javascript">
var viewWidth = 764;
var viewHeight = 524;
var sectionId = 'dynsection-1';
</script>
<script xlink:href="svgpan.js"/>
<svg id="graph" class="graph">
<g id="viewport">
<title>PrintInvoiceCommand</title>
<polygon fill="white" stroke="none" points="-4,4 -4,-520 760,-520 760,4 -4,4"/>
<!-- Node1 -->
<g id="node1" class="node"><title>Node1</title>
<polygon fill="#bfbfbf" stroke="black" points="392.5,-0.5 392.5,-68.5 520.5,-68.5 520.5,-0.5 392.5,-0.5"/>
<text text-anchor="middle" x="456.5" y="-56.5" font-family="Helvetica,sans-Serif" font-size="10.00">PrintInvoiceCommand</text>
<polyline fill="none" stroke="black" points="392.5,-49.5 520.5,-49.5 "/>
<text text-anchor="start" x="400.5" y="-37.5" font-family="Helvetica,sans-Serif" font-size="10.00">&#45; RESPONSE_LENGTH</text>
<polyline fill="none" stroke="black" points="392.5,-30.5 520.5,-30.5 "/>
<text text-anchor="start" x="400.5" y="-18.5" font-family="Helvetica,sans-Serif" font-size="10.00">+ PrintInvoiceCommand()</text>
<text text-anchor="start" x="400.5" y="-7.5" font-family="Helvetica,sans-Serif" font-size="10.00">+ execute()</text>
</g>
<!-- Node2 -->
<g id="node2" class="node"><title>Node2</title>
<g id="a_node2"><a xlink:href="classtomoBay_1_1model_1_1winstock_1_1commands_1_1AbstractWinstockCommand.html" target="_top" xlink:title="This is the abstract base class for all Winstock commands, and acts as the abstract command in a GoF ...">
<polygon fill="white" stroke="black" points="215.5,-144 215.5,-212 369.5,-212 369.5,-144 215.5,-144"/>
<text text-anchor="middle" x="292.5" y="-200" font-family="Helvetica,sans-Serif" font-size="10.00">AbstractWinstockCommand</text>
<polyline fill="none" stroke="black" points="215.5,-193 369.5,-193 "/>
<text text-anchor="middle" x="292.5" y="-181" font-family="Helvetica,sans-Serif" font-size="10.00"> </text>
<polyline fill="none" stroke="black" points="215.5,-174 369.5,-174 "/>
<text text-anchor="start" x="223.5" y="-162" font-family="Helvetica,sans-Serif" font-size="10.00">+ execute()</text>
<text text-anchor="start" x="223.5" y="-151" font-family="Helvetica,sans-Serif" font-size="10.00"># AbstractWinstockCommand()</text>
</a>
</g>
</g>
<!-- Node2&#45;&gt;Node1 -->
<g id="edge1" class="edge"><title>Node2&#45;&gt;Node1</title>
<path fill="none" stroke="midnightblue" d="M338.533,-137.282C363.589,-115.664 394.232,-89.2253 418.006,-68.7125"/>
<polygon fill="none" stroke="midnightblue" points="336.236,-134.642 330.951,-143.825 340.809,-139.942 336.236,-134.642"/>
</g>
<!-- Node3 -->
<g id="node3" class="node"><title>Node3</title>
<g id="a_node3"><a xlink:href="classtomoBay_1_1model_1_1net_1_1ClientSocket.html" target="_top" xlink:title="This class is responsible for creating a client socket connection to a particular machine at a specif...">
<polygon fill="white" stroke="black" points="114.5,-298.5 114.5,-377.5 202.5,-377.5 202.5,-298.5 114.5,-298.5"/>
<text text-anchor="middle" x="158.5" y="-365.5" font-family="Helvetica,sans-Serif" font-size="10.00">ClientSocket</text>
<polyline fill="none" stroke="black" points="114.5,-358.5 202.5,-358.5 "/>
<text text-anchor="middle" x="158.5" y="-346.5" font-family="Helvetica,sans-Serif" font-size="10.00"> </text>
<polyline fill="none" stroke="black" points="114.5,-339.5 202.5,-339.5 "/>
<text text-anchor="start" x="122.5" y="-327.5" font-family="Helvetica,sans-Serif" font-size="10.00">+ ClientSocket()</text>
<text text-anchor="start" x="122.5" y="-316.5" font-family="Helvetica,sans-Serif" font-size="10.00">+ send()</text>
<text text-anchor="start" x="122.5" y="-305.5" font-family="Helvetica,sans-Serif" font-size="10.00">+ close()</text>
</a>
</g>
</g>
<!-- Node3&#45;&gt;Node2 -->
<g id="edge2" class="edge"><title>Node3&#45;&gt;Node2</title>
<path fill="none" stroke="#404040" d="M162.082,-298.098C164.766,-284.512 169.426,-269.739 177.5,-258 187.859,-242.938 202.104,-229.891 217.045,-218.98"/>
<polygon fill="none" stroke="#404040" points="217.071,-218.961 219.719,-212.254 226.929,-212.118 224.281,-218.826 217.071,-218.961"/>
<text text-anchor="middle" x="233" y="-261" font-family="Helvetica,sans-Serif" font-size="10.00"> #winstockConnection_M</text>
</g>
<!-- Node4 -->
<g id="node4" class="node"><title>Node4</title>
<polygon fill="white" stroke="#bfbfbf" points="0,-447.5 0,-504.5 91,-504.5 91,-447.5 0,-447.5"/>
<text text-anchor="middle" x="45.5" y="-492.5" font-family="Helvetica,sans-Serif" font-size="10.00">DataInputStream</text>
<polyline fill="none" stroke="#bfbfbf" points="0,-485.5 91,-485.5 "/>
<text text-anchor="middle" x="45.5" y="-473.5" font-family="Helvetica,sans-Serif" font-size="10.00"> </text>
<polyline fill="none" stroke="#bfbfbf" points="0,-466.5 91,-466.5 "/>
<text text-anchor="middle" x="45.5" y="-454.5" font-family="Helvetica,sans-Serif" font-size="10.00"> </text>
</g>
<!-- Node4&#45;&gt;Node3 -->
<g id="edge3" class="edge"><title>Node4&#45;&gt;Node3</title>
<path fill="none" stroke="#404040" d="M68.3672,-447.478C82.7866,-430.124 101.801,-407.24 118.647,-386.964"/>
<polygon fill="none" stroke="#404040" points="118.792,-386.79 119.55,-379.619 126.461,-377.56 125.703,-384.731 118.792,-386.79"/>
<text text-anchor="middle" x="126" y="-410" font-family="Helvetica,sans-Serif" font-size="10.00"> &#45;dataIn_M</text>
</g>
<!-- Node5 -->
<g id="node5" class="node"><title>Node5</title>
<polygon fill="white" stroke="#bfbfbf" points="109.5,-447.5 109.5,-504.5 207.5,-504.5 207.5,-447.5 109.5,-447.5"/>
<text text-anchor="middle" x="158.5" y="-492.5" font-family="Helvetica,sans-Serif" font-size="10.00">DataOutputStream</text>
<polyline fill="none" stroke="#bfbfbf" points="109.5,-485.5 207.5,-485.5 "/>
<text text-anchor="middle" x="158.5" y="-473.5" font-family="Helvetica,sans-Serif" font-size="10.00"> </text>
<polyline fill="none" stroke="#bfbfbf" points="109.5,-466.5 207.5,-466.5 "/>
<text text-anchor="middle" x="158.5" y="-454.5" font-family="Helvetica,sans-Serif" font-size="10.00"> </text>
</g>
<!-- Node5&#45;&gt;Node3 -->
<g id="edge4" class="edge"><title>Node5&#45;&gt;Node3</title>
<path fill="none" stroke="#404040" d="M158.5,-447.478C158.5,-430.909 158.5,-409.299 158.5,-389.732"/>
<polygon fill="none" stroke="#404040" points="158.5,-389.56 154.5,-383.56 158.5,-377.56 162.5,-383.56 158.5,-389.56"/>
<text text-anchor="middle" x="186" y="-410" font-family="Helvetica,sans-Serif" font-size="10.00"> &#45;dataOut_M</text>
</g>
<!-- Node6 -->
<g id="node6" class="node"><title>Node6</title>
<polygon fill="white" stroke="#bfbfbf" points="226,-447.5 226,-504.5 273,-504.5 273,-447.5 226,-447.5"/>
<text text-anchor="middle" x="249.5" y="-492.5" font-family="Helvetica,sans-Serif" font-size="10.00">Socket</text>
<polyline fill="none" stroke="#bfbfbf" points="226,-485.5 273,-485.5 "/>
<text text-anchor="middle" x="249.5" y="-473.5" font-family="Helvetica,sans-Serif" font-size="10.00"> </text>
<polyline fill="none" stroke="#bfbfbf" points="226,-466.5 273,-466.5 "/>
<text text-anchor="middle" x="249.5" y="-454.5" font-family="Helvetica,sans-Serif" font-size="10.00"> </text>
</g>
<!-- Node6&#45;&gt;Node3 -->
<g id="edge5" class="edge"><title>Node6&#45;&gt;Node3</title>
<path fill="none" stroke="#404040" d="M238.523,-447.281C232.977,-434.573 225.688,-419.573 217.5,-407 213.145,-400.312 208.179,-393.587 203.021,-387.105"/>
<polygon fill="none" stroke="#404040" points="203,-387.08 196.099,-384.99 195.373,-377.816 202.275,-379.906 203,-387.08"/>
<text text-anchor="middle" x="249" y="-410" font-family="Helvetica,sans-Serif" font-size="10.00"> &#45;socket_M</text>
</g>
<!-- Node7 -->
<g id="node7" class="node"><title>Node7</title>
<g id="a_node7"><a xlink:href="classtomoBay_1_1model_1_1winstock_1_1WinstockConfig.html" target="_top" xlink:title="This class is responsible for grabbing and storing the contents of the winstock configuration file...">
<polygon fill="white" stroke="black" points="238.5,-298.5 238.5,-377.5 346.5,-377.5 346.5,-298.5 238.5,-298.5"/>
<text text-anchor="middle" x="292.5" y="-365.5" font-family="Helvetica,sans-Serif" font-size="10.00">WinstockConfig</text>
<polyline fill="none" stroke="black" points="238.5,-358.5 346.5,-358.5 "/>
<text text-anchor="middle" x="292.5" y="-346.5" font-family="Helvetica,sans-Serif" font-size="10.00"> </text>
<polyline fill="none" stroke="black" points="238.5,-339.5 346.5,-339.5 "/>
<text text-anchor="start" x="246.5" y="-327.5" font-family="Helvetica,sans-Serif" font-size="10.00">+ WinstockConfig()</text>
<text text-anchor="start" x="246.5" y="-316.5" font-family="Helvetica,sans-Serif" font-size="10.00">+ getMachineName()</text>
<text text-anchor="start" x="246.5" y="-305.5" font-family="Helvetica,sans-Serif" font-size="10.00">+ getPort()</text>
</a>
</g>
</g>
<!-- Node7&#45;&gt;Node2 -->
<g id="edge6" class="edge"><title>Node7&#45;&gt;Node2</title>
<path fill="none" stroke="#404040" d="M292.5,-298.349C292.5,-275.968 292.5,-247.682 292.5,-224.265"/>
<polygon fill="none" stroke="#404040" points="292.5,-224.174 288.5,-218.174 292.5,-212.174 296.5,-218.174 292.5,-224.174"/>
<text text-anchor="middle" x="317" y="-261" font-family="Helvetica,sans-Serif" font-size="10.00"> #config_M</text>
</g>
<!-- Node8 -->
<g id="node8" class="node"><title>Node8</title>
<g id="a_node8"><a xlink:href="classtomoBay_1_1model_1_1winstock_1_1response_1_1PrintInvoiceResponse.html" target="_top" xlink:title="{PrintInvoiceResponse\n|&#45; responseBytes_M\l&#45; sentBytes_M\l|+ PrintInvoiceResponse()\l+ isSuccess()\l+ setSentBytes()\l+ setResponseBytes()\l+ getRecieved()\l+ getSent()\l}">
<polygon fill="white" stroke="black" points="392.5,-116.5 392.5,-239.5 520.5,-239.5 520.5,-116.5 392.5,-116.5"/>
<text text-anchor="middle" x="456.5" y="-227.5" font-family="Helvetica,sans-Serif" font-size="10.00">PrintInvoiceResponse</text>
<polyline fill="none" stroke="black" points="392.5,-220.5 520.5,-220.5 "/>
<text text-anchor="start" x="400.5" y="-208.5" font-family="Helvetica,sans-Serif" font-size="10.00">&#45; responseBytes_M</text>
<text text-anchor="start" x="400.5" y="-197.5" font-family="Helvetica,sans-Serif" font-size="10.00">&#45; sentBytes_M</text>
<polyline fill="none" stroke="black" points="392.5,-190.5 520.5,-190.5 "/>
<text text-anchor="start" x="400.5" y="-178.5" font-family="Helvetica,sans-Serif" font-size="10.00">+ PrintInvoiceResponse()</text>
<text text-anchor="start" x="400.5" y="-167.5" font-family="Helvetica,sans-Serif" font-size="10.00">+ isSuccess()</text>
<text text-anchor="start" x="400.5" y="-156.5" font-family="Helvetica,sans-Serif" font-size="10.00">+ setSentBytes()</text>
<text text-anchor="start" x="400.5" y="-145.5" font-family="Helvetica,sans-Serif" font-size="10.00">+ setResponseBytes()</text>
<text text-anchor="start" x="400.5" y="-134.5" font-family="Helvetica,sans-Serif" font-size="10.00">+ getRecieved()</text>
<text text-anchor="start" x="400.5" y="-123.5" font-family="Helvetica,sans-Serif" font-size="10.00">+ getSent()</text>
</a>
</g>
</g>
<!-- Node8&#45;&gt;Node1 -->
<g id="edge7" class="edge"><title>Node8&#45;&gt;Node1</title>
<path fill="none" stroke="#404040" d="M456.5,-116.17C456.5,-104.306 456.5,-92.0619 456.5,-80.8086"/>
<polygon fill="none" stroke="#404040" points="456.5,-80.5973 452.5,-74.5973 456.5,-68.5973 460.5,-74.5973 456.5,-80.5973"/>
<text text-anchor="middle" x="486.5" y="-90" font-family="Helvetica,sans-Serif" font-size="10.00"> &#45;response_M</text>
</g>
<!-- Node9 -->
<g id="node9" class="node"><title>Node9</title>
<g id="a_node9"><a xlink:href="interfacetomoBay_1_1model_1_1winstock_1_1response_1_1AbstractWinstockCommandResponse.html" target="_top" xlink:title="This is the interface that all winstock command responses should subscribe to. ">
<polygon fill="white" stroke="black" points="364.5,-287.5 364.5,-388.5 548.5,-388.5 548.5,-287.5 364.5,-287.5"/>
<text text-anchor="middle" x="456.5" y="-376.5" font-family="Helvetica,sans-Serif" font-size="10.00">AbstractWinstockCommandResponse</text>
<polyline fill="none" stroke="black" points="364.5,-369.5 548.5,-369.5 "/>
<text text-anchor="middle" x="456.5" y="-357.5" font-family="Helvetica,sans-Serif" font-size="10.00"> </text>
<polyline fill="none" stroke="black" points="364.5,-350.5 548.5,-350.5 "/>
<text text-anchor="start" x="372.5" y="-338.5" font-family="Helvetica,sans-Serif" font-size="10.00">+ setSentBytes()</text>
<text text-anchor="start" x="372.5" y="-327.5" font-family="Helvetica,sans-Serif" font-size="10.00">+ setResponseBytes()</text>
<text text-anchor="start" x="372.5" y="-316.5" font-family="Helvetica,sans-Serif" font-size="10.00">+ isSuccess()</text>
<text text-anchor="start" x="372.5" y="-305.5" font-family="Helvetica,sans-Serif" font-size="10.00">+ getRecieved()</text>
<text text-anchor="start" x="372.5" y="-294.5" font-family="Helvetica,sans-Serif" font-size="10.00">+ getSent()</text>
</a>
</g>
</g>
<!-- Node9&#45;&gt;Node8 -->
<g id="edge8" class="edge"><title>Node9&#45;&gt;Node8</title>
<path fill="none" stroke="midnightblue" d="M456.5,-277.31C456.5,-265.031 456.5,-252.088 456.5,-239.77"/>
<polygon fill="none" stroke="midnightblue" points="453,-277.441 456.5,-287.441 460,-277.441 453,-277.441"/>
</g>
<!-- Node10 -->
<g id="node10" class="node"><title>Node10</title>
<g id="a_node10"><a xlink:href="classtomoBay_1_1model_1_1winstock_1_1payloads_1_1PrintInvoicePayload.html" target="_top" xlink:title="This class converts data into a byte[] payload that can be used passed to a ClientSocket object...">
<polygon fill="white" stroke="black" points="544,-149.5 544,-206.5 663,-206.5 663,-149.5 544,-149.5"/>
<text text-anchor="middle" x="603.5" y="-194.5" font-family="Helvetica,sans-Serif" font-size="10.00">PrintInvoicePayload</text>
<polyline fill="none" stroke="black" points="544,-187.5 663,-187.5 "/>
<text text-anchor="middle" x="603.5" y="-175.5" font-family="Helvetica,sans-Serif" font-size="10.00"> </text>
<polyline fill="none" stroke="black" points="544,-168.5 663,-168.5 "/>
<text text-anchor="start" x="552" y="-156.5" font-family="Helvetica,sans-Serif" font-size="10.00">+ PrintInvoicePayload()</text>
</a>
</g>
</g>
<!-- Node10&#45;&gt;Node1 -->
<g id="edge9" class="edge"><title>Node10&#45;&gt;Node1</title>
<path fill="none" stroke="#404040" d="M579.806,-149.226C563.722,-130.907 541.617,-106.74 520.5,-87 516.808,-83.5487 512.912,-80.066 508.938,-76.6268"/>
<polygon fill="none" stroke="#404040" points="508.749,-76.4667 501.585,-75.6451 499.588,-68.7161 506.752,-69.5376 508.749,-76.4667"/>
<text text-anchor="middle" x="557.5" y="-90" font-family="Helvetica,sans-Serif" font-size="10.00"> &#45;payload_M</text>
</g>
<!-- Node11 -->
<g id="node11" class="node"><title>Node11</title>
<g id="a_node11"><a xlink:href="classtomoBay_1_1model_1_1winstock_1_1payloads_1_1AbstractPayload.html" target="_top" xlink:title="This is the abstract base class for all Payload sub types. ">
<polygon fill="white" stroke="black" points="566.5,-293 566.5,-383 670.5,-383 670.5,-293 566.5,-293"/>
<text text-anchor="middle" x="618.5" y="-371" font-family="Helvetica,sans-Serif" font-size="10.00">AbstractPayload</text>
<polyline fill="none" stroke="black" points="566.5,-364 670.5,-364 "/>
<text text-anchor="start" x="574.5" y="-352" font-family="Helvetica,sans-Serif" font-size="10.00"># HEADER_M</text>
<text text-anchor="start" x="574.5" y="-341" font-family="Helvetica,sans-Serif" font-size="10.00"># FOOTER_M</text>
<polyline fill="none" stroke="black" points="566.5,-334 670.5,-334 "/>
<text text-anchor="start" x="574.5" y="-322" font-family="Helvetica,sans-Serif" font-size="10.00">+ AbstractPayload()</text>
<text text-anchor="start" x="574.5" y="-311" font-family="Helvetica,sans-Serif" font-size="10.00">+ getPayload()</text>
<text text-anchor="start" x="574.5" y="-300" font-family="Helvetica,sans-Serif" font-size="10.00">&#45; getResult()</text>
</a>
</g>
</g>
<!-- Node11&#45;&gt;Node10 -->
<g id="edge10" class="edge"><title>Node11&#45;&gt;Node10</title>
<path fill="none" stroke="midnightblue" d="M613.376,-283.029C610.946,-257.428 608.144,-227.917 606.147,-206.881"/>
<polygon fill="none" stroke="midnightblue" points="609.892,-283.364 614.322,-292.988 616.861,-282.702 609.892,-283.364"/>
</g>
<!-- Node12 -->
<g id="node12" class="node"><title>Node12</title>
<polygon fill="white" stroke="#bfbfbf" points="384,-436.5 384,-515.5 667,-515.5 667,-436.5 384,-436.5"/>
<text text-anchor="start" x="392" y="-503.5" font-family="Helvetica,sans-Serif" font-size="10.00">Map&lt; tomoBay.model.winstock.payloads.</text>
<text text-anchor="start" x="392" y="-492.5" font-family="Helvetica,sans-Serif" font-size="10.00">PayloadType, tomoBay.model.winstock.payloads.component</text>
<text text-anchor="middle" x="525.5" y="-481.5" font-family="Helvetica,sans-Serif" font-size="10.00">Factories.AbstractComponentFactory &gt;</text>
<polyline fill="none" stroke="#bfbfbf" points="384,-474.5 667,-474.5 "/>
<text text-anchor="middle" x="525.5" y="-462.5" font-family="Helvetica,sans-Serif" font-size="10.00"> </text>
<polyline fill="none" stroke="#bfbfbf" points="384,-455.5 667,-455.5 "/>
<text text-anchor="middle" x="525.5" y="-443.5" font-family="Helvetica,sans-Serif" font-size="10.00"> </text>
</g>
<!-- Node12&#45;&gt;Node11 -->
<g id="edge11" class="edge"><title>Node12&#45;&gt;Node11</title>
<path fill="none" stroke="#404040" d="M551.901,-436.392C560.976,-423.121 571.315,-408.002 581.096,-393.699"/>
<polygon fill="none" stroke="#404040" points="581.319,-393.372 581.404,-386.162 588.093,-383.467 588.008,-390.677 581.319,-393.372"/>
<text text-anchor="middle" x="615.5" y="-410" font-family="Helvetica,sans-Serif" font-size="10.00"> #payloadBuilder_M</text>
</g>
<!-- Node13 -->
<g id="node13" class="node"><title>Node13</title>
<polygon fill="white" stroke="#bfbfbf" points="685,-447.5 685,-504.5 756,-504.5 756,-447.5 685,-447.5"/>
<text text-anchor="middle" x="720.5" y="-492.5" font-family="Helvetica,sans-Serif" font-size="10.00">List&lt; Byte &gt;</text>
<polyline fill="none" stroke="#bfbfbf" points="685,-485.5 756,-485.5 "/>
<text text-anchor="middle" x="720.5" y="-473.5" font-family="Helvetica,sans-Serif" font-size="10.00"> </text>
<polyline fill="none" stroke="#bfbfbf" points="685,-466.5 756,-466.5 "/>
<text text-anchor="middle" x="720.5" y="-454.5" font-family="Helvetica,sans-Serif" font-size="10.00"> </text>
</g>
<!-- Node13&#45;&gt;Node11 -->
<g id="edge12" class="edge"><title>Node13&#45;&gt;Node11</title>
<path fill="none" stroke="#404040" d="M699.859,-447.478C688.061,-431.748 672.855,-411.473 658.788,-392.717"/>
<polygon fill="none" stroke="#404040" points="658.759,-392.679 651.959,-390.279 651.559,-383.079 658.359,-385.479 658.759,-392.679"/>
<text text-anchor="middle" x="699.5" y="-410" font-family="Helvetica,sans-Serif" font-size="10.00"> #result_M</text>
</g>
</g>
</svg>
        <g id="navigator" transform="translate(0 0)" fill="#404254">
                <rect fill="#f2f5e9" fill-opacity="0.5" stroke="#606060" stroke-width=".5" x="0" y="0" width="60" height="60"/>
                <use id="zoomplus" xlink:href="#zoomPlus" x="17" y="9" onmousedown="handleZoom(evt,'in')"/>
                <use id="zoomminus" xlink:href="#zoomMin" x="42" y="9" onmousedown="handleZoom(evt,'out')"/>
                <use id="reset" xlink:href="#resetDef" x="30" y="36" onmousedown="handleReset()"/>
                <g id="arrowUp" xlink:href="#dirArrow" transform="translate(30 24)" onmousedown="handlePan(0,-1)">
                  <use xlink:href="#rim" fill="#404040">
                        <set attributeName="fill" to="#808080" begin="arrowUp.mouseover" end="arrowUp.mouseout"/>
                  </use>
                  <path fill="none" stroke="white" stroke-width="1.5" d="M0,-3.0v7 M-2.5,-0.5L0,-3.0L2.5,-0.5"/>
                </g>
                <g id="arrowRight" xlink:href="#dirArrow" transform="rotate(90) translate(36 -43)" onmousedown="handlePan(1,0)">
                  <use xlink:href="#rim" fill="#404040">
                        <set attributeName="fill" to="#808080" begin="arrowRight.mouseover" end="arrowRight.mouseout"/>
                  </use>
                  <path fill="none" stroke="white" stroke-width="1.5" d="M0,-3.0v7 M-2.5,-0.5L0,-3.0L2.5,-0.5"/>
                </g>
                <g id="arrowDown" xlink:href="#dirArrow" transform="rotate(180) translate(-30 -48)" onmousedown="handlePan(0,1)">
                  <use xlink:href="#rim" fill="#404040">
                        <set attributeName="fill" to="#808080" begin="arrowDown.mouseover" end="arrowDown.mouseout"/>
                  </use>
                  <path fill="none" stroke="white" stroke-width="1.5" d="M0,-3.0v7 M-2.5,-0.5L0,-3.0L2.5,-0.5"/>
                </g>
                <g id="arrowLeft" xlink:href="#dirArrow" transform="rotate(270) translate(-36 17)" onmousedown="handlePan(-1,0)">
                  <use xlink:href="#rim" fill="#404040">
                        <set attributeName="fill" to="#808080" begin="arrowLeft.mouseover" end="arrowLeft.mouseout"/>
                  </use>
                  <path fill="none" stroke="white" stroke-width="1.5" d="M0,-3.0v7 M-2.5,-0.5L0,-3.0L2.5,-0.5"/>
                </g>
        </g>
        <svg viewBox="0 0 15 15" width="100%" height="30px" preserveAspectRatio="xMaxYMin meet">
         <g id="arrow_out" transform="scale(0.3 0.3)">
          <a xlink:href="classtomoBay_1_1model_1_1winstock_1_1commands_1_1PrintInvoiceCommand__coll__graph_org.svg" target="_base">
           <rect id="button" ry="5" rx="5" y="6" x="6" height="38" width="38"
                fill="#f2f5e9" fill-opacity="0.5" stroke="#606060" stroke-width="1.0"/>
           <path id="arrow"
             d="M 11.500037,31.436501 C 11.940474,20.09759 22.043105,11.32322 32.158766,21.979434 L 37.068811,17.246167 C 37.068811,17.246167 37.088388,32 37.088388,32 L 22.160133,31.978069 C 22.160133,31.978069 26.997745,27.140456 26.997745,27.140456 C 18.528582,18.264221 13.291696,25.230495 11.500037,31.436501 z"
             style="fill:#404040;"/>
          </a>
         </g>
        </svg>
</svg>
