<?xml version="1.0" encoding="UTF-8" standalone="no"?>
<!DOCTYPE svg PUBLIC "-//W3C//DTD SVG 1.1//EN"
 "http://www.w3.org/Graphics/SVG/1.1/DTD/svg11.dtd">
<!-- Generated by graphviz version 2.38.0 (20140413.2041)
 -->
<!-- Title: street2 Pages: 1 -->
<svg width="840pt" height="246pt"
 viewBox="0.00 0.00 840.00 245.50" xmlns="http://www.w3.org/2000/svg" xmlns:xlink="http://www.w3.org/1999/xlink">
<g id="graph0" class="graph" transform="scale(1 1) rotate(0) translate(4 241.5)">
<title>street2</title>
<polygon fill="white" stroke="none" points="-4,4 -4,-241.5 836,-241.5 836,4 -4,4"/>
<!-- Node1 -->
<g id="node1" class="node"><title>Node1</title>
<polygon fill="#bfbfbf" stroke="black" points="0,-138.5 0,-157.5 47,-157.5 47,-138.5 0,-138.5"/>
<text text-anchor="middle" x="23.5" y="-145.5" font-family="Helvetica,sans-Serif" font-size="10.00">street2</text>
</g>
<!-- Node2 -->
<g id="node2" class="node"><title>Node2</title>
<g id="a_node2"><a xlink:href="classtomoBay_1_1presenters_1_1presenterActions_1_1concreteActions_1_1OrderInfo.html#a0efe6811d772c53811b18a441c11b757" target="_top" xlink:title="formats the buyer information associated with this order ">
<polygon fill="white" stroke="black" points="104,-207 104,-237 314,-237 314,-207 104,-207"/>
<text text-anchor="start" x="112" y="-225" font-family="Helvetica,sans-Serif" font-size="10.00">tomoBay.presenters.presenter</text>
<text text-anchor="middle" x="209" y="-214" font-family="Helvetica,sans-Serif" font-size="10.00">Actions.concreteActions.OrderInfo.buyerInfo</text>
</a>
</g>
</g>
<!-- Node1&#45;&gt;Node2 -->
<g id="edge1" class="edge"><title>Node1&#45;&gt;Node2</title>
<path fill="none" stroke="midnightblue" d="M40.111,-164.879C51.0786,-175.708 66.6599,-189.161 83,-197 91.0812,-200.877 99.734,-204.153 108.575,-206.921"/>
<polygon fill="midnightblue" stroke="midnightblue" points="42.4807,-162.296 32.9953,-157.576 37.4669,-167.181 42.4807,-162.296"/>
</g>
<!-- Node5 -->
<g id="node5" class="node"><title>Node5</title>
<g id="a_node5"><a xlink:href="classtomoBay_1_1model_1_1dataTypes_1_1financial_1_1SalesOrderDayBook_1_1formats_1_1WinstockFormat.html#accefd62bc10c59d9ba78937d90a5fa8c" target="_top" xlink:title="tomoBay.model.dataTypes.financial.\lSalesOrderDayBook.formats.WinstockFormat.format">
<polygon fill="white" stroke="black" points="85,-158 85,-188 333,-188 333,-158 85,-158"/>
<text text-anchor="start" x="93" y="-176" font-family="Helvetica,sans-Serif" font-size="10.00">tomoBay.model.dataTypes.financial.</text>
<text text-anchor="middle" x="209" y="-165" font-family="Helvetica,sans-Serif" font-size="10.00">SalesOrderDayBook.formats.WinstockFormat.format</text>
</a>
</g>
</g>
<!-- Node1&#45;&gt;Node5 -->
<g id="edge4" class="edge"><title>Node1&#45;&gt;Node5</title>
<path fill="none" stroke="midnightblue" d="M57.1516,-152.448C68.9498,-154.056 83.0175,-155.972 97.7492,-157.979"/>
<polygon fill="midnightblue" stroke="midnightblue" points="57.3817,-148.948 47.0007,-151.065 56.4367,-155.883 57.3817,-148.948"/>
</g>
<!-- Node6 -->
<g id="node6" class="node"><title>Node6</title>
<g id="a_node6"><a xlink:href="classtomoBay_1_1model_1_1dataTypes_1_1financial_1_1SalesOrderDayBook_1_1SalesDayBookLineFactory.html#a2d63fd7591115332417a84014f39b204" target="_top" xlink:title="create the requested AbstractSalesDayBookLine. ">
<polygon fill="white" stroke="black" points="83,-60 83,-90 335,-90 335,-60 83,-60"/>
<text text-anchor="start" x="91" y="-78" font-family="Helvetica,sans-Serif" font-size="10.00">tomoBay.model.dataTypes.financial.</text>
<text text-anchor="middle" x="209" y="-67" font-family="Helvetica,sans-Serif" font-size="10.00">SalesOrderDayBook.SalesDayBookLineFactory.make</text>
</a>
</g>
</g>
<!-- Node1&#45;&gt;Node6 -->
<g id="edge5" class="edge"><title>Node1&#45;&gt;Node6</title>
<path fill="none" stroke="midnightblue" d="M40.0914,-131.08C51.0506,-120.234 66.6299,-106.776 83,-99 90.2855,-95.5392 98.0345,-92.5774 105.967,-90.0426"/>
<polygon fill="midnightblue" stroke="midnightblue" points="37.4401,-128.786 32.9827,-138.398 42.461,-133.664 37.4401,-128.786"/>
</g>
<!-- Node9 -->
<g id="node9" class="node"><title>Node9</title>
<g id="a_node9"><a xlink:href="classtomoBay_1_1presenters_1_1presenterActions_1_1concreteActions_1_1OrderInfo.html#ab4b3569de633225260e7e17c8947c8c5" target="_top" xlink:title="formats the shipping information associated with this order ">
<polygon fill="white" stroke="black" points="98,-109 98,-139 320,-139 320,-109 98,-109"/>
<text text-anchor="start" x="106" y="-127" font-family="Helvetica,sans-Serif" font-size="10.00">tomoBay.presenters.presenter</text>
<text text-anchor="middle" x="209" y="-116" font-family="Helvetica,sans-Serif" font-size="10.00">Actions.concreteActions.OrderInfo.shippingInfo</text>
</a>
</g>
</g>
<!-- Node1&#45;&gt;Node9 -->
<g id="edge9" class="edge"><title>Node1&#45;&gt;Node9</title>
<path fill="none" stroke="midnightblue" d="M57.1516,-143.729C68.9498,-142.186 83.0175,-140.346 97.7492,-138.42"/>
<polygon fill="midnightblue" stroke="midnightblue" points="56.4623,-140.29 47.0007,-145.057 57.3702,-147.231 56.4623,-140.29"/>
</g>
<!-- Node3 -->
<g id="node3" class="node"><title>Node3</title>
<g id="a_node3"><a xlink:href="classtomoBay_1_1presenters_1_1presenterActions_1_1concreteActions_1_1OrderInfo.html#afeec1aeda079b77245edea1e74b25f33" target="_top" xlink:title="assembles the various parts of the order and outputs it as a fully formed JSON string. ">
<polygon fill="white" stroke="black" points="383,-147.5 383,-188.5 580,-188.5 580,-147.5 383,-147.5"/>
<text text-anchor="start" x="391" y="-176.5" font-family="Helvetica,sans-Serif" font-size="10.00">tomoBay.presenters.presenter</text>
<text text-anchor="start" x="391" y="-165.5" font-family="Helvetica,sans-Serif" font-size="10.00">Actions.concreteActions.OrderInfo.format</text>
<text text-anchor="middle" x="481.5" y="-154.5" font-family="Helvetica,sans-Serif" font-size="10.00">Results</text>
</a>
</g>
</g>
<!-- Node2&#45;&gt;Node3 -->
<g id="edge2" class="edge"><title>Node2&#45;&gt;Node3</title>
<path fill="none" stroke="midnightblue" d="M295.417,-204.948C323.174,-199.407 354.185,-193.216 382.769,-187.51"/>
<polygon fill="midnightblue" stroke="midnightblue" points="294.471,-201.568 285.349,-206.958 295.841,-208.433 294.471,-201.568"/>
</g>
<!-- Node4 -->
<g id="node4" class="node"><title>Node4</title>
<g id="a_node4"><a xlink:href="classtomoBay_1_1presenters_1_1presenterActions_1_1concreteActions_1_1OrderInfo.html#adb3dedf31dc2c7fc796f20406c235ccd" target="_top" xlink:title="performs the action specified ">
<polygon fill="white" stroke="black" points="628,-128 628,-158 832,-158 832,-128 628,-128"/>
<text text-anchor="start" x="636" y="-146" font-family="Helvetica,sans-Serif" font-size="10.00">tomoBay.presenters.presenter</text>
<text text-anchor="middle" x="730" y="-135" font-family="Helvetica,sans-Serif" font-size="10.00">Actions.concreteActions.OrderInfo.execute</text>
</a>
</g>
</g>
<!-- Node3&#45;&gt;Node4 -->
<g id="edge3" class="edge"><title>Node3&#45;&gt;Node4</title>
<path fill="none" stroke="midnightblue" d="M590.58,-157.038C602.917,-155.787 615.459,-154.515 627.702,-153.274"/>
<polygon fill="midnightblue" stroke="midnightblue" points="589.873,-153.592 580.277,-158.083 590.58,-160.556 589.873,-153.592"/>
</g>
<!-- Node6&#45;&gt;Node4 -->
<g id="edge6" class="edge"><title>Node6&#45;&gt;Node4</title>
<path fill="none" stroke="midnightblue" d="M318.542,-91.5688C336.07,-94.1325 354.029,-96.6925 371,-99 457.559,-110.769 556.087,-122.777 627.836,-131.269"/>
<polygon fill="midnightblue" stroke="midnightblue" points="318.685,-88.0523 308.282,-90.0608 317.667,-94.9779 318.685,-88.0523"/>
</g>
<!-- Node7 -->
<g id="node7" class="node"><title>Node7</title>
<g id="a_node7"><a xlink:href="classtomoBay_1_1presenters_1_1presenterActions_1_1concreteActions_1_1PrintInvoices.html#adb3dedf31dc2c7fc796f20406c235ccd" target="_top" xlink:title="performs the action specified ">
<polygon fill="white" stroke="black" points="371,-60 371,-90 592,-90 592,-60 371,-60"/>
<text text-anchor="start" x="379" y="-78" font-family="Helvetica,sans-Serif" font-size="10.00">tomoBay.presenters.presenter</text>
<text text-anchor="middle" x="481.5" y="-67" font-family="Helvetica,sans-Serif" font-size="10.00">Actions.concreteActions.PrintInvoices.execute</text>
</a>
</g>
</g>
<!-- Node6&#45;&gt;Node7 -->
<g id="edge7" class="edge"><title>Node6&#45;&gt;Node7</title>
<path fill="none" stroke="midnightblue" d="M345.396,-75C353.959,-75 362.521,-75 370.945,-75"/>
<polygon fill="midnightblue" stroke="midnightblue" points="345.352,-71.5001 335.352,-75 345.352,-78.5001 345.352,-71.5001"/>
</g>
<!-- Node8 -->
<g id="node8" class="node"><title>Node8</title>
<g id="a_node8"><a xlink:href="classtomoBay_1_1presenters_1_1presenterActions_1_1concreteActions_1_1InvoiceOrders.html#adb3dedf31dc2c7fc796f20406c235ccd" target="_top" xlink:title="performs the action specified ">
<polygon fill="white" stroke="black" points="402.5,-0.5 402.5,-41.5 560.5,-41.5 560.5,-0.5 402.5,-0.5"/>
<text text-anchor="start" x="410.5" y="-29.5" font-family="Helvetica,sans-Serif" font-size="10.00">tomoBay.presenters.presenter</text>
<text text-anchor="start" x="410.5" y="-18.5" font-family="Helvetica,sans-Serif" font-size="10.00">Actions.concreteActions.Invoice</text>
<text text-anchor="middle" x="481.5" y="-7.5" font-family="Helvetica,sans-Serif" font-size="10.00">Orders.execute</text>
</a>
</g>
</g>
<!-- Node6&#45;&gt;Node8 -->
<g id="edge8" class="edge"><title>Node6&#45;&gt;Node8</title>
<path fill="none" stroke="midnightblue" d="M295.332,-57.9651C329.568,-51.1307 368.767,-43.3054 402.257,-36.6196"/>
<polygon fill="midnightblue" stroke="midnightblue" points="294.471,-54.568 285.349,-59.958 295.841,-61.4325 294.471,-54.568"/>
</g>
<!-- Node9&#45;&gt;Node3 -->
<g id="edge10" class="edge"><title>Node9&#45;&gt;Node3</title>
<path fill="none" stroke="midnightblue" d="M312.444,-140.664C335.437,-144.404 359.776,-148.363 382.579,-152.072"/>
<polygon fill="midnightblue" stroke="midnightblue" points="312.766,-137.17 302.334,-139.019 311.643,-144.079 312.766,-137.17"/>
</g>
</g>
</svg>
