<?xml version="1.0" encoding="UTF-8" standalone="no"?>
<!DOCTYPE svg PUBLIC "-//W3C//DTD SVG 1.1//EN"
 "http://www.w3.org/Graphics/SVG/1.1/DTD/svg11.dtd">
<!-- Generated by graphviz version 2.38.0 (20140413.2041)
 -->
<!-- Title: onRunning Pages: 1 -->
<!--zoomable 339 -->
<svg id="main" version="1.1" xmlns="http://www.w3.org/2000/svg" xmlns:xlink="http://www.w3.org/1999/xlink" xml:space="preserve" onload="init(evt)">
<style type="text/css"><![CDATA[
.edge:hover path { stroke: red; }
.edge:hover polygon { stroke: red; fill: red; }
]]></style>
<script type="text/javascript"><![CDATA[
var edges = document.getElementsByTagName('g');
if (edges && edges.length) {
  for (var i=0;i<edges.length;i++) {
    if (edges[i].id.substr(0,4)=='edge') {
      edges[i].setAttribute('class','edge');
    }
  }
}
]]></script>
        <defs>
                <circle id="rim" cx="0" cy="0" r="7"/>
                <circle id="rim2" cx="0" cy="0" r="3.5"/>
                <g id="zoomPlus">
                        <use xlink:href="#rim" fill="#404040">
                                <set attributeName="fill" to="#808080" begin="zoomplus.mouseover" end="zoomplus.mouseout"/>
                        </use>
                        <path d="M-4,0h8M0,-4v8" fill="none" stroke="white" stroke-width="1.5" pointer-events="none"/>
                </g>
                <g id="zoomMin">
                        <use xlink:href="#rim" fill="#404040">
                                <set attributeName="fill" to="#808080" begin="zoomminus.mouseover" end="zoomminus.mouseout"/>
                        </use>
                        <path d="M-4,0h8" fill="none" stroke="white" stroke-width="1.5" pointer-events="none"/>
                </g>
                <g id="dirArrow">
                        <path fill="none" stroke="white" stroke-width="1.5" d="M0,-3.0v7 M-2.5,-0.5L0,-3.0L2.5,-0.5"/>
                </g>
               <g id="resetDef">
                       <use xlink:href="#rim2" fill="#404040">
                               <set attributeName="fill" to="#808080" begin="reset.mouseover" end="reset.mouseout"/>
                       </use>
               </g>
        </defs>

<script type="text/javascript">
var viewWidth = 971;
var viewHeight = 339;
var sectionId = 'dynsection-2';
</script>
<script xlink:href="svgpan.js"/>
<svg id="graph" class="graph">
<g id="viewport">
<title>onRunning</title>
<polygon fill="white" stroke="none" points="-4,4 -4,-334.5 967,-334.5 967,4 -4,4"/>
<!-- Node1 -->
<g id="node1" class="node"><title>Node1</title>
<polygon fill="#bfbfbf" stroke="black" points="0,-104 0,-123 63,-123 63,-104 0,-104"/>
<text text-anchor="middle" x="31.5" y="-111" font-family="Helvetica,sans-Serif" font-size="10.00">onRunning</text>
</g>
<!-- Node2 -->
<g id="node2" class="node"><title>Node2</title>
<g id="a_node2"><a xlink:href="classtomoBay_1_1model_1_1services_1_1reScanErrorsService_1_1OnRunning.html#ae4a4f4cadce2787c7e80005639fbd5d9" target="_top" xlink:title="this method defines what to do in the given derived state ">
<polygon fill="white" stroke="black" points="99,-98.5 99,-128.5 287,-128.5 287,-98.5 99,-98.5"/>
<text text-anchor="start" x="107" y="-116.5" font-family="Helvetica,sans-Serif" font-size="10.00">tomoBay.model.services.re</text>
<text text-anchor="middle" x="193" y="-105.5" font-family="Helvetica,sans-Serif" font-size="10.00">ScanErrorsService.OnRunning.execute</text>
</a>
</g>
</g>
<!-- Node1&#45;&gt;Node2 -->
<g id="edge1" class="edge"><title>Node1&#45;&gt;Node2</title>
<path fill="none" stroke="midnightblue" d="M63.2532,-113.5C70.9648,-113.5 79.6744,-113.5 88.8363,-113.5"/>
<polygon fill="midnightblue" stroke="midnightblue" points="88.9297,-117 98.9297,-113.5 88.9297,-110 88.9297,-117"/>
</g>
<!-- Node3 -->
<g id="node3" class="node"><title>Node3</title>
<g id="a_node3"><a xlink:href="classtomoBay_1_1model_1_1services_1_1reScanErrorsService_1_1ReScanErrorsWinstockActions.html#a08319255a892c8a0f21883af69843d6c" target="_top" xlink:title="this method checks to see if a particular item (through the ItemSpecifics passed in as an argument) h...">
<polygon fill="white" stroke="black" points="335.5,-93 335.5,-134 498.5,-134 498.5,-93 335.5,-93"/>
<text text-anchor="start" x="343.5" y="-122" font-family="Helvetica,sans-Serif" font-size="10.00">tomoBay.model.services.re</text>
<text text-anchor="start" x="343.5" y="-111" font-family="Helvetica,sans-Serif" font-size="10.00">ScanErrorsService.ReScanErrors</text>
<text text-anchor="middle" x="417" y="-100" font-family="Helvetica,sans-Serif" font-size="10.00">WinstockActions.partNoHasError</text>
</a>
</g>
</g>
<!-- Node2&#45;&gt;Node3 -->
<g id="edge2" class="edge"><title>Node2&#45;&gt;Node3</title>
<path fill="none" stroke="midnightblue" d="M287.183,-113.5C299.823,-113.5 312.779,-113.5 325.373,-113.5"/>
<polygon fill="midnightblue" stroke="midnightblue" points="325.383,-117 335.383,-113.5 325.383,-110 325.383,-117"/>
</g>
<!-- Node7 -->
<g id="node7" class="node"><title>Node7</title>
<g id="a_node7"><a xlink:href="classtomoBay_1_1model_1_1services_1_1reScanErrorsService_1_1ReScanErrorsDBActions.html#a8a4bbc75f3e9766f7f1c51141551702a" target="_top" xlink:title="returns a list of items from the database that contain errors in the &#39;notes&#39; field of the ebay_items ...">
<polygon fill="white" stroke="black" points="335.5,-14 335.5,-55 498.5,-55 498.5,-14 335.5,-14"/>
<text text-anchor="start" x="343.5" y="-43" font-family="Helvetica,sans-Serif" font-size="10.00">tomoBay.model.services.re</text>
<text text-anchor="start" x="343.5" y="-32" font-family="Helvetica,sans-Serif" font-size="10.00">ScanErrorsService.ReScanErrors</text>
<text text-anchor="middle" x="417" y="-21" font-family="Helvetica,sans-Serif" font-size="10.00">DBActions.retrieveAllErrorItems</text>
</a>
</g>
</g>
<!-- Node2&#45;&gt;Node7 -->
<g id="edge6" class="edge"><title>Node2&#45;&gt;Node7</title>
<path fill="none" stroke="midnightblue" d="M236.279,-98.4548C268.037,-87.1535 312.168,-71.4491 348.751,-58.4309"/>
<polygon fill="midnightblue" stroke="midnightblue" points="350.116,-61.6604 358.364,-55.0103 347.769,-55.0655 350.116,-61.6604"/>
</g>
<!-- Node9 -->
<g id="node9" class="node"><title>Node9</title>
<g id="a_node9"><a xlink:href="classtomoBay_1_1model_1_1services_1_1reScanErrorsService_1_1ReScanErrorsDBActions.html#a686181ed1b6d7f86e1b05653dc98f37e" target="_top" xlink:title="updates the database with corrected information, as provided in the ItemSpecifics passed in as an arg...">
<polygon fill="white" stroke="black" points="323,-191 323,-232 511,-232 511,-191 323,-191"/>
<text text-anchor="start" x="331" y="-220" font-family="Helvetica,sans-Serif" font-size="10.00">tomoBay.model.services.re</text>
<text text-anchor="start" x="331" y="-209" font-family="Helvetica,sans-Serif" font-size="10.00">ScanErrorsService.ReScanErrors</text>
<text text-anchor="middle" x="417" y="-198" font-family="Helvetica,sans-Serif" font-size="10.00">DBActions.updateDBwithCorrectedInfo</text>
</a>
</g>
</g>
<!-- Node2&#45;&gt;Node9 -->
<g id="edge8" class="edge"><title>Node2&#45;&gt;Node9</title>
<path fill="none" stroke="midnightblue" d="M228.201,-128.598C263.367,-144.122 318.705,-168.55 360.218,-186.875"/>
<polygon fill="midnightblue" stroke="midnightblue" points="358.823,-190.085 369.384,-190.922 361.65,-183.682 358.823,-190.085"/>
</g>
<!-- Node4 -->
<g id="node4" class="node"><title>Node4</title>
<g id="a_node4"><a xlink:href="classtomoBay_1_1model_1_1services_1_1reScanErrorsService_1_1ItemSpecifics.html#ad28f052945833b0267c4353afcbf58eb" target="_top" xlink:title="returns a particular Item specific ">
<polygon fill="white" stroke="black" points="555,-147.5 555,-177.5 733,-177.5 733,-147.5 555,-147.5"/>
<text text-anchor="start" x="563" y="-165.5" font-family="Helvetica,sans-Serif" font-size="10.00">tomoBay.model.services.re</text>
<text text-anchor="middle" x="644" y="-154.5" font-family="Helvetica,sans-Serif" font-size="10.00">ScanErrorsService.ItemSpecifics.get</text>
</a>
</g>
</g>
<!-- Node3&#45;&gt;Node4 -->
<g id="edge3" class="edge"><title>Node3&#45;&gt;Node4</title>
<path fill="none" stroke="midnightblue" d="M498.595,-131.052C519.931,-135.698 542.936,-140.708 564.176,-145.334"/>
<polygon fill="midnightblue" stroke="midnightblue" points="563.606,-148.792 574.122,-147.5 565.095,-141.952 563.606,-148.792"/>
</g>
<!-- Node5 -->
<g id="node5" class="node"><title>Node5</title>
<g id="a_node5"><a xlink:href="classtomoBay_1_1model_1_1dataTypes_1_1PartList.html#af4aaf5b8fadfc85ebed2a9c4d683fba5" target="_top" xlink:title="get the part numbers as a whole ">
<polygon fill="white" stroke="black" points="575.5,-98.5 575.5,-128.5 712.5,-128.5 712.5,-98.5 575.5,-98.5"/>
<text text-anchor="start" x="583.5" y="-116.5" font-family="Helvetica,sans-Serif" font-size="10.00">tomoBay.model.dataTypes.</text>
<text text-anchor="middle" x="644" y="-105.5" font-family="Helvetica,sans-Serif" font-size="10.00">PartList.getPartNumbers</text>
</a>
</g>
</g>
<!-- Node3&#45;&gt;Node5 -->
<g id="edge4" class="edge"><title>Node3&#45;&gt;Node5</title>
<path fill="none" stroke="midnightblue" d="M498.595,-113.5C520.257,-113.5 543.64,-113.5 565.15,-113.5"/>
<polygon fill="midnightblue" stroke="midnightblue" points="565.215,-117 575.215,-113.5 565.215,-110 565.215,-117"/>
</g>
<!-- Node6 -->
<g id="node6" class="node"><title>Node6</title>
<g id="a_node6"><a xlink:href="classtomoBay_1_1helpers_1_1BrandToCode.html#a10207714bd294d73dd98b80fd94a2ab8" target="_top" xlink:title="converts converts a string like &quot;citroen&quot; or &quot;fOrd&quot; to a brandcode integer specific to winstock...">
<polygon fill="white" stroke="black" points="550,-49.5 550,-79.5 738,-79.5 738,-49.5 550,-49.5"/>
<text text-anchor="start" x="558" y="-67.5" font-family="Helvetica,sans-Serif" font-size="10.00">tomoBay.helpers.BrandToCode.convert</text>
<text text-anchor="middle" x="644" y="-56.5" font-family="Helvetica,sans-Serif" font-size="10.00">ToWinstockInt</text>
</a>
</g>
</g>
<!-- Node3&#45;&gt;Node6 -->
<g id="edge5" class="edge"><title>Node3&#45;&gt;Node6</title>
<path fill="none" stroke="midnightblue" d="M498.595,-95.9483C519.931,-91.3018 542.936,-86.2918 564.176,-81.6661"/>
<polygon fill="midnightblue" stroke="midnightblue" points="565.095,-85.048 574.122,-79.5002 563.606,-78.2083 565.095,-85.048"/>
</g>
<!-- Node8 -->
<g id="node8" class="node"><title>Node8</title>
<g id="a_node8"><a xlink:href="classtomoBay_1_1model_1_1sql_1_1framework_1_1SelectQueryInvoker.html#a594282bcbcc0731a7d234482717422d7" target="_top" xlink:title="execute a requested query ">
<polygon fill="white" stroke="black" points="568,-0.5 568,-30.5 720,-30.5 720,-0.5 568,-0.5"/>
<text text-anchor="start" x="576" y="-18.5" font-family="Helvetica,sans-Serif" font-size="10.00">tomoBay.model.sql.framework.</text>
<text text-anchor="middle" x="644" y="-7.5" font-family="Helvetica,sans-Serif" font-size="10.00">SelectQueryInvoker.execute</text>
</a>
</g>
</g>
<!-- Node7&#45;&gt;Node8 -->
<g id="edge7" class="edge"><title>Node7&#45;&gt;Node8</title>
<path fill="none" stroke="midnightblue" d="M498.595,-27.6942C517.815,-26.0711 538.391,-24.3337 557.811,-22.6938"/>
<polygon fill="midnightblue" stroke="midnightblue" points="558.177,-26.1754 567.847,-21.8462 557.588,-19.2002 558.177,-26.1754"/>
</g>
<!-- Node9&#45;&gt;Node4 -->
<g id="edge12" class="edge"><title>Node9&#45;&gt;Node4</title>
<path fill="none" stroke="midnightblue" d="M511.14,-191.216C528.725,-187.387 546.96,-183.415 564.058,-179.692"/>
<polygon fill="midnightblue" stroke="midnightblue" points="564.953,-183.079 573.979,-177.531 563.463,-176.239 564.953,-183.079"/>
</g>
<!-- Node10 -->
<g id="node10" class="node"><title>Node10</title>
<g id="a_node10"><a xlink:href="classtomoBay_1_1model_1_1dataTypes_1_1heteroTypeContainer_1_1HeteroFieldContainer.html#a3ba6289417930238a36bfee0056b6398" target="_top" xlink:title="add an arbitrary value to this Field container with the stipulation that this value is of the same ty...">
<polygon fill="white" stroke="black" points="547,-294.5 547,-324.5 741,-324.5 741,-294.5 547,-294.5"/>
<text text-anchor="start" x="555" y="-312.5" font-family="Helvetica,sans-Serif" font-size="10.00">tomoBay.model.dataTypes.hetero</text>
<text text-anchor="middle" x="644" y="-301.5" font-family="Helvetica,sans-Serif" font-size="10.00">TypeContainer.HeteroFieldContainer.add</text>
</a>
</g>
</g>
<!-- Node9&#45;&gt;Node10 -->
<g id="edge9" class="edge"><title>Node9&#45;&gt;Node10</title>
<path fill="none" stroke="midnightblue" d="M448.917,-232.045C474.355,-248.187 511.82,-270.25 547,-284.5 553.22,-287.02 559.772,-289.352 566.409,-291.494"/>
<polygon fill="midnightblue" stroke="midnightblue" points="565.578,-294.901 576.166,-294.498 567.638,-288.211 565.578,-294.901"/>
</g>
<!-- Node12 -->
<g id="node12" class="node"><title>Node12</title>
<g id="a_node12"><a xlink:href="classtomoBay_1_1model_1_1sql_1_1framework_1_1ModifyQueryInvoker.html#ab8ef0fdf15f6720620e297c77ab25d46" target="_top" xlink:title="tomoBay.model.sql.framework.\lModifyQueryInvoker.execute">
<polygon fill="white" stroke="black" points="568,-245.5 568,-275.5 720,-275.5 720,-245.5 568,-245.5"/>
<text text-anchor="start" x="576" y="-263.5" font-family="Helvetica,sans-Serif" font-size="10.00">tomoBay.model.sql.framework.</text>
<text text-anchor="middle" x="644" y="-252.5" font-family="Helvetica,sans-Serif" font-size="10.00">ModifyQueryInvoker.execute</text>
</a>
</g>
</g>
<!-- Node9&#45;&gt;Node12 -->
<g id="edge11" class="edge"><title>Node9&#45;&gt;Node12</title>
<path fill="none" stroke="midnightblue" d="M511.14,-231.784C528.725,-235.613 546.96,-239.585 564.058,-243.308"/>
<polygon fill="midnightblue" stroke="midnightblue" points="563.463,-246.761 573.979,-245.469 564.953,-239.921 563.463,-246.761"/>
</g>
<!-- Node13 -->
<g id="node13" class="node"><title>Node13</title>
<g id="a_node13"><a xlink:href="classtomoBay_1_1model_1_1services_1_1reScanErrorsService_1_1ItemSpecifics.html#a6f88f2bf3d7e595a8857570aa6076890" target="_top" xlink:title="provides the itemID associated with this ItemSpecifics object ">
<polygon fill="white" stroke="black" points="550,-196.5 550,-226.5 738,-226.5 738,-196.5 550,-196.5"/>
<text text-anchor="start" x="558" y="-214.5" font-family="Helvetica,sans-Serif" font-size="10.00">tomoBay.model.services.re</text>
<text text-anchor="middle" x="644" y="-203.5" font-family="Helvetica,sans-Serif" font-size="10.00">ScanErrorsService.ItemSpecifics.getID</text>
</a>
</g>
</g>
<!-- Node9&#45;&gt;Node13 -->
<g id="edge13" class="edge"><title>Node9&#45;&gt;Node13</title>
<path fill="none" stroke="midnightblue" d="M511.14,-211.5C520.551,-211.5 530.149,-211.5 539.658,-211.5"/>
<polygon fill="midnightblue" stroke="midnightblue" points="539.93,-215 549.93,-211.5 539.93,-208 539.93,-215"/>
</g>
<!-- Node11 -->
<g id="node11" class="node"><title>Node11</title>
<g id="a_node11"><a xlink:href="classtomoBay_1_1model_1_1dataTypes_1_1heteroTypeContainer_1_1HeteroFieldContainer.html#a9dee3c01eb5ab16203e1c6820a569484" target="_top" xlink:title="performs a type check, assuming that field and type are of the same type then this method returns tru...">
<polygon fill="white" stroke="black" points="777,-289 777,-330 963,-330 963,-289 777,-289"/>
<text text-anchor="start" x="785" y="-318" font-family="Helvetica,sans-Serif" font-size="10.00">tomoBay.model.dataTypes.hetero</text>
<text text-anchor="start" x="785" y="-307" font-family="Helvetica,sans-Serif" font-size="10.00">TypeContainer.HeteroFieldContainer.is</text>
<text text-anchor="middle" x="870" y="-296" font-family="Helvetica,sans-Serif" font-size="10.00">SameType</text>
</a>
</g>
</g>
<!-- Node10&#45;&gt;Node11 -->
<g id="edge10" class="edge"><title>Node10&#45;&gt;Node11</title>
<path fill="none" stroke="midnightblue" d="M741.296,-309.5C749.642,-309.5 758.106,-309.5 766.499,-309.5"/>
<polygon fill="midnightblue" stroke="midnightblue" points="766.688,-313 776.688,-309.5 766.688,-306 766.688,-313"/>
</g>
</g>
</svg>
        <g id="navigator" transform="translate(0 0)" fill="#404254">
                <rect fill="#f2f5e9" fill-opacity="0.5" stroke="#606060" stroke-width=".5" x="0" y="0" width="60" height="60"/>
                <use id="zoomplus" xlink:href="#zoomPlus" x="17" y="9" onmousedown="handleZoom(evt,'in')"/>
                <use id="zoomminus" xlink:href="#zoomMin" x="42" y="9" onmousedown="handleZoom(evt,'out')"/>
                <use id="reset" xlink:href="#resetDef" x="30" y="36" onmousedown="handleReset()"/>
                <g id="arrowUp" xlink:href="#dirArrow" transform="translate(30 24)" onmousedown="handlePan(0,-1)">
                  <use xlink:href="#rim" fill="#404040">
                        <set attributeName="fill" to="#808080" begin="arrowUp.mouseover" end="arrowUp.mouseout"/>
                  </use>
                  <path fill="none" stroke="white" stroke-width="1.5" d="M0,-3.0v7 M-2.5,-0.5L0,-3.0L2.5,-0.5"/>
                </g>
                <g id="arrowRight" xlink:href="#dirArrow" transform="rotate(90) translate(36 -43)" onmousedown="handlePan(1,0)">
                  <use xlink:href="#rim" fill="#404040">
                        <set attributeName="fill" to="#808080" begin="arrowRight.mouseover" end="arrowRight.mouseout"/>
                  </use>
                  <path fill="none" stroke="white" stroke-width="1.5" d="M0,-3.0v7 M-2.5,-0.5L0,-3.0L2.5,-0.5"/>
                </g>
                <g id="arrowDown" xlink:href="#dirArrow" transform="rotate(180) translate(-30 -48)" onmousedown="handlePan(0,1)">
                  <use xlink:href="#rim" fill="#404040">
                        <set attributeName="fill" to="#808080" begin="arrowDown.mouseover" end="arrowDown.mouseout"/>
                  </use>
                  <path fill="none" stroke="white" stroke-width="1.5" d="M0,-3.0v7 M-2.5,-0.5L0,-3.0L2.5,-0.5"/>
                </g>
                <g id="arrowLeft" xlink:href="#dirArrow" transform="rotate(270) translate(-36 17)" onmousedown="handlePan(-1,0)">
                  <use xlink:href="#rim" fill="#404040">
                        <set attributeName="fill" to="#808080" begin="arrowLeft.mouseover" end="arrowLeft.mouseout"/>
                  </use>
                  <path fill="none" stroke="white" stroke-width="1.5" d="M0,-3.0v7 M-2.5,-0.5L0,-3.0L2.5,-0.5"/>
                </g>
        </g>
        <svg viewBox="0 0 15 15" width="100%" height="30px" preserveAspectRatio="xMaxYMin meet">
         <g id="arrow_out" transform="scale(0.3 0.3)">
          <a xlink:href="classtomoBay_1_1model_1_1services_1_1reScanErrorsService_1_1ReScanErrorsService_ae3b0a282dcba7f2d675ca89b1dd48487_cgraph_org.svg" target="_base">
           <rect id="button" ry="5" rx="5" y="6" x="6" height="38" width="38"
                fill="#f2f5e9" fill-opacity="0.5" stroke="#606060" stroke-width="1.0"/>
           <path id="arrow"
             d="M 11.500037,31.436501 C 11.940474,20.09759 22.043105,11.32322 32.158766,21.979434 L 37.068811,17.246167 C 37.068811,17.246167 37.088388,32 37.088388,32 L 22.160133,31.978069 C 22.160133,31.978069 26.997745,27.140456 26.997745,27.140456 C 18.528582,18.264221 13.291696,25.230495 11.500037,31.436501 z"
             style="fill:#404040;"/>
          </a>
         </g>
        </svg>
</svg>
