<?xml version="1.0" encoding="UTF-8" standalone="no"?>
<!DOCTYPE svg PUBLIC "-//W3C//DTD SVG 1.1//EN"
 "http://www.w3.org/Graphics/SVG/1.1/DTD/svg11.dtd">
<!-- Generated by graphviz version 2.38.0 (20140413.2041)
 -->
<!-- Title: updateItemNote Pages: 1 -->
<svg width="397pt" height="50pt"
 viewBox="0.00 0.00 397.00 50.00" xmlns="http://www.w3.org/2000/svg" xmlns:xlink="http://www.w3.org/1999/xlink">
<g id="graph0" class="graph" transform="scale(1 1) rotate(0) translate(4 46)">
<title>updateItemNote</title>
<polygon fill="white" stroke="none" points="-4,4 -4,-46 393,-46 393,4 -4,4"/>
<!-- Node1 -->
<g id="node1" class="node"><title>Node1</title>
<polygon fill="#bfbfbf" stroke="black" points="0,-11.5 0,-30.5 86,-30.5 86,-11.5 0,-11.5"/>
<text text-anchor="middle" x="43" y="-18.5" font-family="Helvetica,sans-Serif" font-size="10.00">updateItemNote</text>
</g>
<!-- Node2 -->
<g id="node2" class="node"><title>Node2</title>
<g id="a_node2"><a xlink:href="classtomoBay_1_1model_1_1services_1_1checkErrorsService_1_1OnRunning.html#ae4a4f4cadce2787c7e80005639fbd5d9" target="_top" xlink:title="this method defines what to do in the given derived state ">
<polygon fill="white" stroke="black" points="122,-11.5 122,-30.5 173,-30.5 173,-11.5 122,-11.5"/>
<text text-anchor="middle" x="147.5" y="-18.5" font-family="Helvetica,sans-Serif" font-size="10.00">execute</text>
</a>
</g>
</g>
<!-- Node1&#45;&gt;Node2 -->
<g id="edge1" class="edge"><title>Node1&#45;&gt;Node2</title>
<path fill="none" stroke="midnightblue" d="M96.3319,-21C105.268,-21 114.159,-21 121.92,-21"/>
<polygon fill="midnightblue" stroke="midnightblue" points="96.2825,-17.5001 86.2824,-21 96.2824,-24.5001 96.2825,-17.5001"/>
</g>
<!-- Node3 -->
<g id="node3" class="node"><title>Node3</title>
<g id="a_node3"><a xlink:href="classtomoBay_1_1model_1_1services_1_1checkErrorsService_1_1CheckErrorsService.html#ae3b0a282dcba7f2d675ca89b1dd48487" target="_top" xlink:title="tomoBay.model.services.check\lErrorsService.CheckErrorsService.on\lRunning">
<polygon fill="white" stroke="black" points="209,-0.5 209,-41.5 389,-41.5 389,-0.5 209,-0.5"/>
<text text-anchor="start" x="217" y="-29.5" font-family="Helvetica,sans-Serif" font-size="10.00">tomoBay.model.services.check</text>
<text text-anchor="start" x="217" y="-18.5" font-family="Helvetica,sans-Serif" font-size="10.00">ErrorsService.CheckErrorsService.on</text>
<text text-anchor="middle" x="299" y="-7.5" font-family="Helvetica,sans-Serif" font-size="10.00">Running</text>
</a>
</g>
</g>
<!-- Node2&#45;&gt;Node3 -->
<g id="edge2" class="edge"><title>Node2&#45;&gt;Node3</title>
<path fill="none" stroke="midnightblue" d="M183.286,-21C191.104,-21 199.748,-21 208.681,-21"/>
<polygon fill="midnightblue" stroke="midnightblue" points="183.187,-17.5001 173.187,-21 183.187,-24.5001 183.187,-17.5001"/>
</g>
</g>
</svg>
