<?xml version="1.0" encoding="UTF-8" standalone="no"?>
<!DOCTYPE svg PUBLIC "-//W3C//DTD SVG 1.1//EN"
 "http://www.w3.org/Graphics/SVG/1.1/DTD/svg11.dtd">
<!-- Generated by graphviz version 2.38.0 (20140413.2041)
 -->
<!-- Title: convertToJSon Pages: 1 -->
<svg width="402pt" height="230pt"
 viewBox="0.00 0.00 402.00 230.00" xmlns="http://www.w3.org/2000/svg" xmlns:xlink="http://www.w3.org/1999/xlink">
<g id="graph0" class="graph" transform="scale(1 1) rotate(0) translate(4 226)">
<title>convertToJSon</title>
<polygon fill="white" stroke="none" points="-4,4 -4,-226 398,-226 398,4 -4,4"/>
<!-- Node1 -->
<g id="node1" class="node"><title>Node1</title>
<polygon fill="#bfbfbf" stroke="black" points="0,-101.5 0,-120.5 83,-120.5 83,-101.5 0,-101.5"/>
<text text-anchor="middle" x="41.5" y="-108.5" font-family="Helvetica,sans-Serif" font-size="10.00">convertToJSon</text>
</g>
<!-- Node2 -->
<g id="node2" class="node"><title>Node2</title>
<g id="a_node2"><a xlink:href="classtomoBay_1_1presenters_1_1presenterActions_1_1concreteActions_1_1StockReOrderAnalysis.html#adb3dedf31dc2c7fc796f20406c235ccd" target="_top" xlink:title="performs the action specified ">
<polygon fill="white" stroke="black" points="119,-101.5 119,-120.5 170,-120.5 170,-101.5 119,-101.5"/>
<text text-anchor="middle" x="144.5" y="-108.5" font-family="Helvetica,sans-Serif" font-size="10.00">execute</text>
</a>
</g>
</g>
<!-- Node1&#45;&gt;Node2 -->
<g id="edge1" class="edge"><title>Node1&#45;&gt;Node2</title>
<path fill="none" stroke="midnightblue" d="M93.5698,-111C102.373,-111 111.152,-111 118.839,-111"/>
<polygon fill="midnightblue" stroke="midnightblue" points="93.2895,-107.5 83.2894,-111 93.2894,-114.5 93.2895,-107.5"/>
</g>
<!-- Node3 -->
<g id="node3" class="node"><title>Node3</title>
<g id="a_node3"><a xlink:href="classtomoBayTests_1_1presenters_1_1presenterActions_1_1concreteActions_1_1StockReOrderAnalysisTest.html#a07b7831bd5f69df06f9ff2cce3661376" target="_top" xlink:title="tomoBayTests.presenters.presenter\lActions.concreteActions.StockReOrder\lAnalysisTest.testExecuteBadData1">
<polygon fill="white" stroke="black" points="206,-180.5 206,-221.5 394,-221.5 394,-180.5 206,-180.5"/>
<text text-anchor="start" x="214" y="-209.5" font-family="Helvetica,sans-Serif" font-size="10.00">tomoBayTests.presenters.presenter</text>
<text text-anchor="start" x="214" y="-198.5" font-family="Helvetica,sans-Serif" font-size="10.00">Actions.concreteActions.StockReOrder</text>
<text text-anchor="middle" x="300" y="-187.5" font-family="Helvetica,sans-Serif" font-size="10.00">AnalysisTest.testExecuteBadData1</text>
</a>
</g>
</g>
<!-- Node2&#45;&gt;Node3 -->
<g id="edge2" class="edge"><title>Node2&#45;&gt;Node3</title>
<path fill="none" stroke="midnightblue" d="M159.188,-128.491C170.463,-141.833 187.548,-159.772 206,-171 211.652,-174.439 217.741,-177.527 224.001,-180.29"/>
<polygon fill="midnightblue" stroke="midnightblue" points="161.7,-126.033 152.662,-120.504 156.279,-130.462 161.7,-126.033"/>
</g>
<!-- Node4 -->
<g id="node4" class="node"><title>Node4</title>
<g id="a_node4"><a xlink:href="classtomoBayTests_1_1presenters_1_1presenterActions_1_1concreteActions_1_1StockReOrderAnalysisTest.html#a9fe5a553cc6d9ead3154faa3121e5bb9" target="_top" xlink:title="tomoBayTests.presenters.presenter\lActions.concreteActions.StockReOrder\lAnalysisTest.testExecuteBadData2">
<polygon fill="white" stroke="black" points="206,-120.5 206,-161.5 394,-161.5 394,-120.5 206,-120.5"/>
<text text-anchor="start" x="214" y="-149.5" font-family="Helvetica,sans-Serif" font-size="10.00">tomoBayTests.presenters.presenter</text>
<text text-anchor="start" x="214" y="-138.5" font-family="Helvetica,sans-Serif" font-size="10.00">Actions.concreteActions.StockReOrder</text>
<text text-anchor="middle" x="300" y="-127.5" font-family="Helvetica,sans-Serif" font-size="10.00">AnalysisTest.testExecuteBadData2</text>
</a>
</g>
</g>
<!-- Node2&#45;&gt;Node4 -->
<g id="edge3" class="edge"><title>Node2&#45;&gt;Node4</title>
<path fill="none" stroke="midnightblue" d="M180.055,-117.753C187.999,-119.306 196.818,-121.03 205.961,-122.816"/>
<polygon fill="midnightblue" stroke="midnightblue" points="180.648,-114.303 170.162,-115.82 179.305,-121.173 180.648,-114.303"/>
</g>
<!-- Node5 -->
<g id="node5" class="node"><title>Node5</title>
<g id="a_node5"><a xlink:href="classtomoBayTests_1_1presenters_1_1presenterActions_1_1concreteActions_1_1StockReOrderAnalysisTest.html#a523accba573f6d4c7f68fb358a0563cb" target="_top" xlink:title="tomoBayTests.presenters.presenter\lActions.concreteActions.StockReOrder\lAnalysisTest.testExecuteBadData3">
<polygon fill="white" stroke="black" points="206,-60.5 206,-101.5 394,-101.5 394,-60.5 206,-60.5"/>
<text text-anchor="start" x="214" y="-89.5" font-family="Helvetica,sans-Serif" font-size="10.00">tomoBayTests.presenters.presenter</text>
<text text-anchor="start" x="214" y="-78.5" font-family="Helvetica,sans-Serif" font-size="10.00">Actions.concreteActions.StockReOrder</text>
<text text-anchor="middle" x="300" y="-67.5" font-family="Helvetica,sans-Serif" font-size="10.00">AnalysisTest.testExecuteBadData3</text>
</a>
</g>
</g>
<!-- Node2&#45;&gt;Node5 -->
<g id="edge4" class="edge"><title>Node2&#45;&gt;Node5</title>
<path fill="none" stroke="midnightblue" d="M180.055,-104.247C187.999,-102.694 196.818,-100.97 205.961,-99.1836"/>
<polygon fill="midnightblue" stroke="midnightblue" points="179.305,-100.827 170.162,-106.18 180.648,-107.697 179.305,-100.827"/>
</g>
<!-- Node6 -->
<g id="node6" class="node"><title>Node6</title>
<g id="a_node6"><a xlink:href="classtomoBayTests_1_1presenters_1_1presenterActions_1_1concreteActions_1_1StockReOrderAnalysisTest.html#a7dc81a7ba138b011b60a6eae74362a03" target="_top" xlink:title="tomoBayTests.presenters.presenter\lActions.concreteActions.StockReOrder\lAnalysisTest.testExecuteGoodData">
<polygon fill="white" stroke="black" points="206,-0.5 206,-41.5 394,-41.5 394,-0.5 206,-0.5"/>
<text text-anchor="start" x="214" y="-29.5" font-family="Helvetica,sans-Serif" font-size="10.00">tomoBayTests.presenters.presenter</text>
<text text-anchor="start" x="214" y="-18.5" font-family="Helvetica,sans-Serif" font-size="10.00">Actions.concreteActions.StockReOrder</text>
<text text-anchor="middle" x="300" y="-7.5" font-family="Helvetica,sans-Serif" font-size="10.00">AnalysisTest.testExecuteGoodData</text>
</a>
</g>
</g>
<!-- Node2&#45;&gt;Node6 -->
<g id="edge5" class="edge"><title>Node2&#45;&gt;Node6</title>
<path fill="none" stroke="midnightblue" d="M159.188,-93.5093C170.463,-80.1674 187.548,-62.2282 206,-51 211.652,-47.5606 217.741,-44.4729 224.001,-41.7096"/>
<polygon fill="midnightblue" stroke="midnightblue" points="156.279,-91.5378 152.662,-101.496 161.7,-95.9669 156.279,-91.5378"/>
</g>
</g>
</svg>
