<?xml version="1.0" encoding="UTF-8" standalone="no"?>
<!DOCTYPE svg PUBLIC "-//W3C//DTD SVG 1.1//EN"
 "http://www.w3.org/Graphics/SVG/1.1/DTD/svg11.dtd">
<!-- Generated by graphviz version 2.38.0 (20140413.2041)
 -->
<!-- Title: start Pages: 1 -->
<svg width="208pt" height="104pt"
 viewBox="0.00 0.00 208.00 104.00" xmlns="http://www.w3.org/2000/svg" xmlns:xlink="http://www.w3.org/1999/xlink">
<g id="graph0" class="graph" transform="scale(1 1) rotate(0) translate(4 100)">
<title>start</title>
<polygon fill="white" stroke="none" points="-4,4 -4,-100 204,-100 204,4 -4,4"/>
<!-- Node1 -->
<g id="node1" class="node"><title>Node1</title>
<polygon fill="#bfbfbf" stroke="black" points="0,-38.5 0,-57.5 36,-57.5 36,-38.5 0,-38.5"/>
<text text-anchor="middle" x="18" y="-45.5" font-family="Helvetica,sans-Serif" font-size="10.00">start</text>
</g>
<!-- Node2 -->
<g id="node2" class="node"><title>Node2</title>
<g id="a_node2"><a xlink:href="classtomoBay_1_1view_1_1HttpServer.html#a0c34b163e64bf808b5834997c2734543" target="_top" xlink:title="do setup for the servlet handler ">
<polygon fill="white" stroke="black" points="72,-76.5 72,-95.5 200,-95.5 200,-76.5 72,-76.5"/>
<text text-anchor="middle" x="136" y="-83.5" font-family="Helvetica,sans-Serif" font-size="10.00">setUpDataServletHandler</text>
</a>
</g>
</g>
<!-- Node1&#45;&gt;Node2 -->
<g id="edge1" class="edge"><title>Node1&#45;&gt;Node2</title>
<path fill="none" stroke="midnightblue" d="M36.1087,-54.3849C46.4534,-58.1826 59.9321,-63.02 72,-67 78.5604,-69.1636 85.5366,-71.3652 92.3661,-73.4661"/>
<polygon fill="midnightblue" stroke="midnightblue" points="91.616,-76.8961 102.202,-76.4559 93.6519,-70.1987 91.616,-76.8961"/>
</g>
<!-- Node3 -->
<g id="node3" class="node"><title>Node3</title>
<g id="a_node3"><a xlink:href="classtomoBay_1_1view_1_1HttpServer.html#a65b0b81d4aceba0f463e6fe36596760f" target="_top" xlink:title="do setup for the static resource handler ">
<polygon fill="white" stroke="black" points="90,-38.5 90,-57.5 182,-57.5 182,-38.5 90,-38.5"/>
<text text-anchor="middle" x="136" y="-45.5" font-family="Helvetica,sans-Serif" font-size="10.00">setUpGuiHandler</text>
</a>
</g>
</g>
<!-- Node1&#45;&gt;Node3 -->
<g id="edge2" class="edge"><title>Node1&#45;&gt;Node3</title>
<path fill="none" stroke="midnightblue" d="M36.1162,-48C47.7482,-48 63.844,-48 79.6736,-48"/>
<polygon fill="midnightblue" stroke="midnightblue" points="79.988,-51.5001 89.9879,-48 79.9879,-44.5001 79.988,-51.5001"/>
</g>
<!-- Node4 -->
<g id="node4" class="node"><title>Node4</title>
<g id="a_node4"><a xlink:href="classtomoBay_1_1view_1_1HttpServer.html#a6b549ec85bbf44d0d9606964cad26097" target="_top" xlink:title="set up the ssl server connector ">
<polygon fill="white" stroke="black" points="99,-0.5 99,-19.5 173,-19.5 173,-0.5 99,-0.5"/>
<text text-anchor="middle" x="136" y="-7.5" font-family="Helvetica,sans-Serif" font-size="10.00">sslConnector</text>
</a>
</g>
</g>
<!-- Node1&#45;&gt;Node4 -->
<g id="edge3" class="edge"><title>Node1&#45;&gt;Node4</title>
<path fill="none" stroke="midnightblue" d="M36.1087,-41.6151C46.4534,-37.8174 59.9321,-32.98 72,-29 78.5604,-26.8364 85.5366,-24.6348 92.3661,-22.5339"/>
<polygon fill="midnightblue" stroke="midnightblue" points="93.6519,-25.8013 102.202,-19.5441 91.616,-19.1039 93.6519,-25.8013"/>
</g>
</g>
</svg>
