<?xml version="1.0" encoding="UTF-8" standalone="no"?>
<!DOCTYPE svg PUBLIC "-//W3C//DTD SVG 1.1//EN"
 "http://www.w3.org/Graphics/SVG/1.1/DTD/svg11.dtd">
<!-- Generated by graphviz version 2.38.0 (20140413.2041)
 -->
<!-- Title: onRunning Pages: 1 -->
<!--zoomable 397 -->
<svg id="main" version="1.1" xmlns="http://www.w3.org/2000/svg" xmlns:xlink="http://www.w3.org/1999/xlink" xml:space="preserve" onload="init(evt)">
<style type="text/css"><![CDATA[
.edge:hover path { stroke: red; }
.edge:hover polygon { stroke: red; fill: red; }
]]></style>
<script type="text/javascript"><![CDATA[
var edges = document.getElementsByTagName('g');
if (edges && edges.length) {
  for (var i=0;i<edges.length;i++) {
    if (edges[i].id.substr(0,4)=='edge') {
      edges[i].setAttribute('class','edge');
    }
  }
}
]]></script>
        <defs>
                <circle id="rim" cx="0" cy="0" r="7"/>
                <circle id="rim2" cx="0" cy="0" r="3.5"/>
                <g id="zoomPlus">
                        <use xlink:href="#rim" fill="#404040">
                                <set attributeName="fill" to="#808080" begin="zoomplus.mouseover" end="zoomplus.mouseout"/>
                        </use>
                        <path d="M-4,0h8M0,-4v8" fill="none" stroke="white" stroke-width="1.5" pointer-events="none"/>
                </g>
                <g id="zoomMin">
                        <use xlink:href="#rim" fill="#404040">
                                <set attributeName="fill" to="#808080" begin="zoomminus.mouseover" end="zoomminus.mouseout"/>
                        </use>
                        <path d="M-4,0h8" fill="none" stroke="white" stroke-width="1.5" pointer-events="none"/>
                </g>
                <g id="dirArrow">
                        <path fill="none" stroke="white" stroke-width="1.5" d="M0,-3.0v7 M-2.5,-0.5L0,-3.0L2.5,-0.5"/>
                </g>
               <g id="resetDef">
                       <use xlink:href="#rim2" fill="#404040">
                               <set attributeName="fill" to="#808080" begin="reset.mouseover" end="reset.mouseout"/>
                       </use>
               </g>
        </defs>

<script type="text/javascript">
var viewWidth = 1191;
var viewHeight = 397;
var sectionId = 'dynsection-3';
</script>
<script xlink:href="svgpan.js"/>
<svg id="graph" class="graph">
<g id="viewport">
<title>onRunning</title>
<polygon fill="white" stroke="none" points="-4,4 -4,-393 1187,-393 1187,4 -4,4"/>
<!-- Node1 -->
<g id="node1" class="node"><title>Node1</title>
<polygon fill="#bfbfbf" stroke="black" points="0,-251 0,-270 63,-270 63,-251 0,-251"/>
<text text-anchor="middle" x="31.5" y="-258" font-family="Helvetica,sans-Serif" font-size="10.00">onRunning</text>
</g>
<!-- Node2 -->
<g id="node2" class="node"><title>Node2</title>
<g id="a_node2"><a xlink:href="classtomoBay_1_1model_1_1services_1_1emailErrorsService_1_1OnRunning.html#ae4a4f4cadce2787c7e80005639fbd5d9" target="_top" xlink:title="this method defines what to do in the given derived state ">
<polygon fill="white" stroke="black" points="99,-245.5 99,-275.5 264,-275.5 264,-245.5 99,-245.5"/>
<text text-anchor="start" x="107" y="-263.5" font-family="Helvetica,sans-Serif" font-size="10.00">tomoBay.model.services.email</text>
<text text-anchor="middle" x="181.5" y="-252.5" font-family="Helvetica,sans-Serif" font-size="10.00">ErrorsService.OnRunning.execute</text>
</a>
</g>
</g>
<!-- Node1&#45;&gt;Node2 -->
<g id="edge1" class="edge"><title>Node1&#45;&gt;Node2</title>
<path fill="none" stroke="midnightblue" d="M63.1657,-260.5C70.938,-260.5 79.695,-260.5 88.8338,-260.5"/>
<polygon fill="midnightblue" stroke="midnightblue" points="88.8717,-264 98.8717,-260.5 88.8716,-257 88.8717,-264"/>
</g>
<!-- Node3 -->
<g id="node3" class="node"><title>Node3</title>
<g id="a_node3"><a xlink:href="classtomoBay_1_1model_1_1services_1_1emailErrorsService_1_1ErrorsList.html#a601e4cc34958e6c6b53c9ef8ecc3f0f7" target="_top" xlink:title="returns true if errors exist in the ebay listings false if not ">
<polygon fill="white" stroke="black" points="336,-358.5 336,-388.5 487,-388.5 487,-358.5 336,-358.5"/>
<text text-anchor="start" x="344" y="-376.5" font-family="Helvetica,sans-Serif" font-size="10.00">tomoBay.model.services.email</text>
<text text-anchor="middle" x="411.5" y="-365.5" font-family="Helvetica,sans-Serif" font-size="10.00">ErrorsService.ErrorsList.exist</text>
</a>
</g>
</g>
<!-- Node2&#45;&gt;Node3 -->
<g id="edge2" class="edge"><title>Node2&#45;&gt;Node3</title>
<path fill="none" stroke="midnightblue" d="M199.597,-275.534C221.453,-294.024 261.135,-325.201 300,-343.5 309.707,-348.071 320.234,-352.048 330.802,-355.478"/>
<polygon fill="midnightblue" stroke="midnightblue" points="329.91,-358.865 340.497,-358.476 331.978,-352.178 329.91,-358.865"/>
</g>
<!-- Node4 -->
<g id="node4" class="node"><title>Node4</title>
<g id="a_node4"><a xlink:href="classtomoBay_1_1model_1_1services_1_1emailErrorsService_1_1EmailErrorsMailActions.html#ad1dbcb645114a23c7e2a441cb6ae9ca4" target="_top" xlink:title="handle the creation of the Email by passing in a map with the appropriate data inside it...">
<polygon fill="white" stroke="black" points="300,-270.5 300,-300.5 523,-300.5 523,-270.5 300,-270.5"/>
<text text-anchor="start" x="308" y="-288.5" font-family="Helvetica,sans-Serif" font-size="10.00">tomoBay.model.services.email</text>
<text text-anchor="middle" x="411.5" y="-277.5" font-family="Helvetica,sans-Serif" font-size="10.00">ErrorsService.EmailErrorsMailActions.loadData</text>
</a>
</g>
</g>
<!-- Node2&#45;&gt;Node4 -->
<g id="edge3" class="edge"><title>Node2&#45;&gt;Node4</title>
<path fill="none" stroke="midnightblue" d="M264.169,-269.455C272.527,-270.371 281.137,-271.315 289.799,-272.265"/>
<polygon fill="midnightblue" stroke="midnightblue" points="289.657,-275.771 299.979,-273.381 290.42,-268.812 289.657,-275.771"/>
</g>
<!-- Node5 -->
<g id="node5" class="node"><title>Node5</title>
<g id="a_node5"><a xlink:href="classtomoBay_1_1model_1_1services_1_1emailErrorsService_1_1EmailErrorsMailActions.html#a05337b002b830d253e7580044fbe0419" target="_top" xlink:title="add a message to the email ">
<polygon fill="white" stroke="black" points="559,-325 559,-366 759,-366 759,-325 559,-325"/>
<text text-anchor="start" x="567" y="-354" font-family="Helvetica,sans-Serif" font-size="10.00">tomoBay.model.services.email</text>
<text text-anchor="start" x="567" y="-343" font-family="Helvetica,sans-Serif" font-size="10.00">ErrorsService.EmailErrorsMailActions.add</text>
<text text-anchor="middle" x="659" y="-332" font-family="Helvetica,sans-Serif" font-size="10.00">Message</text>
</a>
</g>
</g>
<!-- Node2&#45;&gt;Node5 -->
<g id="edge12" class="edge"><title>Node2&#45;&gt;Node5</title>
<path fill="none" stroke="midnightblue" d="M211.091,-275.591C234.367,-287.151 268.423,-302.441 300,-310.5 381.752,-331.365 476.926,-339.955 548.585,-343.415"/>
<polygon fill="midnightblue" stroke="midnightblue" points="548.833,-346.93 558.983,-343.889 549.152,-339.937 548.833,-346.93"/>
</g>
<!-- Node11 -->
<g id="node11" class="node"><title>Node11</title>
<g id="a_node11"><a xlink:href="classtomoBay_1_1model_1_1services_1_1emailErrorsService_1_1EmailErrorsDataFormat.html#a0737965f869eead756f082c11adf33a8" target="_top" xlink:title="format the List of strings provided as a HTML string that can be sent as an email. ">
<polygon fill="white" stroke="black" points="300.5,-221.5 300.5,-251.5 522.5,-251.5 522.5,-221.5 300.5,-221.5"/>
<text text-anchor="start" x="308.5" y="-239.5" font-family="Helvetica,sans-Serif" font-size="10.00">tomoBay.model.services.email</text>
<text text-anchor="middle" x="411.5" y="-228.5" font-family="Helvetica,sans-Serif" font-size="10.00">ErrorsService.EmailErrorsDataFormat.asHTML</text>
</a>
</g>
</g>
<!-- Node2&#45;&gt;Node11 -->
<g id="edge10" class="edge"><title>Node2&#45;&gt;Node11</title>
<path fill="none" stroke="midnightblue" d="M264.169,-251.903C272.71,-251.004 281.515,-250.077 290.37,-249.145"/>
<polygon fill="midnightblue" stroke="midnightblue" points="290.798,-252.62 300.377,-248.092 290.065,-245.658 290.798,-252.62"/>
</g>
<!-- Node12 -->
<g id="node12" class="node"><title>Node12</title>
<g id="a_node12"><a xlink:href="classtomoBay_1_1model_1_1services_1_1emailErrorsService_1_1ErrorsList.html#a2c41d1c38f3d7a643ec4f7a64180fcb2" target="_top" xlink:title="generate a list of items from the database that contain error messages. ">
<polygon fill="white" stroke="black" points="336,-172.5 336,-202.5 487,-202.5 487,-172.5 336,-172.5"/>
<text text-anchor="start" x="344" y="-190.5" font-family="Helvetica,sans-Serif" font-size="10.00">tomoBay.model.services.email</text>
<text text-anchor="middle" x="411.5" y="-179.5" font-family="Helvetica,sans-Serif" font-size="10.00">ErrorsService.ErrorsList.get</text>
</a>
</g>
</g>
<!-- Node2&#45;&gt;Node12 -->
<g id="edge11" class="edge"><title>Node2&#45;&gt;Node12</title>
<path fill="none" stroke="midnightblue" d="M215.138,-245.464C238.424,-235.159 270.68,-221.736 300,-212.5 308.473,-209.831 317.395,-207.326 326.345,-205.009"/>
<polygon fill="midnightblue" stroke="midnightblue" points="327.202,-208.403 336.047,-202.571 325.496,-201.614 327.202,-208.403"/>
</g>
<!-- Node13 -->
<g id="node13" class="node"><title>Node13</title>
<g id="a_node13"><a xlink:href="classtomoBay_1_1model_1_1services_1_1emailErrorsService_1_1EmailErrorsMailActions.html#ae9399f5ec7881c5d18173def8068108e" target="_top" xlink:title="send the email ">
<polygon fill="white" stroke="black" points="309,-120.5 309,-150.5 514,-150.5 514,-120.5 309,-120.5"/>
<text text-anchor="start" x="317" y="-138.5" font-family="Helvetica,sans-Serif" font-size="10.00">tomoBay.model.services.email</text>
<text text-anchor="middle" x="411.5" y="-127.5" font-family="Helvetica,sans-Serif" font-size="10.00">ErrorsService.EmailErrorsMailActions.send</text>
</a>
</g>
</g>
<!-- Node2&#45;&gt;Node13 -->
<g id="edge13" class="edge"><title>Node2&#45;&gt;Node13</title>
<path fill="none" stroke="midnightblue" d="M196.133,-245.413C216.565,-223.741 257.315,-184.043 300,-162.5 306.485,-159.227 313.387,-156.337 320.453,-153.788"/>
<polygon fill="midnightblue" stroke="midnightblue" points="321.805,-157.026 330.166,-150.519 319.572,-150.392 321.805,-157.026"/>
</g>
<!-- Node4&#45;&gt;Node5 -->
<g id="edge4" class="edge"><title>Node4&#45;&gt;Node5</title>
<path fill="none" stroke="midnightblue" d="M474.133,-300.563C501.314,-307.206 533.862,-315.161 563.969,-322.519"/>
<polygon fill="midnightblue" stroke="midnightblue" points="563.529,-326.014 574.074,-324.989 565.191,-319.214 563.529,-326.014"/>
</g>
<!-- Node7 -->
<g id="node7" class="node"><title>Node7</title>
<g id="a_node7"><a xlink:href="classtomoBay_1_1model_1_1services_1_1emailErrorsService_1_1EmailErrorsMailActions.html#a6821a16486f28486b3191bb50a167262" target="_top" xlink:title="add a recipient to the email ">
<polygon fill="white" stroke="black" points="559,-265 559,-306 759,-306 759,-265 559,-265"/>
<text text-anchor="start" x="567" y="-294" font-family="Helvetica,sans-Serif" font-size="10.00">tomoBay.model.services.email</text>
<text text-anchor="start" x="567" y="-283" font-family="Helvetica,sans-Serif" font-size="10.00">ErrorsService.EmailErrorsMailActions.add</text>
<text text-anchor="middle" x="659" y="-272" font-family="Helvetica,sans-Serif" font-size="10.00">Recipient</text>
</a>
</g>
</g>
<!-- Node4&#45;&gt;Node7 -->
<g id="edge6" class="edge"><title>Node4&#45;&gt;Node7</title>
<path fill="none" stroke="midnightblue" d="M523.041,-285.5C531.64,-285.5 540.319,-285.5 548.908,-285.5"/>
<polygon fill="midnightblue" stroke="midnightblue" points="548.939,-289 558.939,-285.5 548.939,-282 548.939,-289"/>
</g>
<!-- Node9 -->
<g id="node9" class="node"><title>Node9</title>
<g id="a_node9"><a xlink:href="classtomoBay_1_1model_1_1services_1_1emailErrorsService_1_1EmailErrorsMailActions.html#a2a8614817e293230d76a7dfab60c7f4f" target="_top" xlink:title="add a subject line to the email ">
<polygon fill="white" stroke="black" points="559,-205 559,-246 759,-246 759,-205 559,-205"/>
<text text-anchor="start" x="567" y="-234" font-family="Helvetica,sans-Serif" font-size="10.00">tomoBay.model.services.email</text>
<text text-anchor="start" x="567" y="-223" font-family="Helvetica,sans-Serif" font-size="10.00">ErrorsService.EmailErrorsMailActions.add</text>
<text text-anchor="middle" x="659" y="-212" font-family="Helvetica,sans-Serif" font-size="10.00">Subject</text>
</a>
</g>
</g>
<!-- Node4&#45;&gt;Node9 -->
<g id="edge8" class="edge"><title>Node4&#45;&gt;Node9</title>
<path fill="none" stroke="midnightblue" d="M483.942,-270.495C496.962,-267.615 510.406,-264.545 523,-261.5 539.457,-257.521 556.976,-253.035 573.754,-248.615"/>
<polygon fill="midnightblue" stroke="midnightblue" points="574.764,-251.969 583.534,-246.025 572.971,-245.202 574.764,-251.969"/>
</g>
<!-- Node6 -->
<g id="node6" class="node"><title>Node6</title>
<g id="a_node6"><a xlink:href="classtomoBay_1_1model_1_1net_1_1email_1_1Email.html#acc7b010f914eeee1745a79004eca2481" target="_top" xlink:title="sets the email body ">
<polygon fill="white" stroke="black" points="824.5,-330.5 824.5,-360.5 955.5,-360.5 955.5,-330.5 824.5,-330.5"/>
<text text-anchor="start" x="832.5" y="-348.5" font-family="Helvetica,sans-Serif" font-size="10.00">tomoBay.model.net.email.</text>
<text text-anchor="middle" x="890" y="-337.5" font-family="Helvetica,sans-Serif" font-size="10.00">Email.setMessage</text>
</a>
</g>
</g>
<!-- Node5&#45;&gt;Node6 -->
<g id="edge5" class="edge"><title>Node5&#45;&gt;Node6</title>
<path fill="none" stroke="midnightblue" d="M759.111,-345.5C777.602,-345.5 796.639,-345.5 814.245,-345.5"/>
<polygon fill="midnightblue" stroke="midnightblue" points="814.431,-349 824.431,-345.5 814.431,-342 814.431,-349"/>
</g>
<!-- Node8 -->
<g id="node8" class="node"><title>Node8</title>
<g id="a_node8"><a xlink:href="classtomoBay_1_1model_1_1net_1_1email_1_1Email.html#a5c78f073f0c4c95dddbb78f7a9eb6cd2" target="_top" xlink:title="set a recipient of the email, valid RecipientType listed in Message.RecipientType : TO/CC/BCC...">
<polygon fill="white" stroke="black" points="824.5,-270.5 824.5,-300.5 955.5,-300.5 955.5,-270.5 824.5,-270.5"/>
<text text-anchor="start" x="832.5" y="-288.5" font-family="Helvetica,sans-Serif" font-size="10.00">tomoBay.model.net.email.</text>
<text text-anchor="middle" x="890" y="-277.5" font-family="Helvetica,sans-Serif" font-size="10.00">Email.setRecipient</text>
</a>
</g>
</g>
<!-- Node7&#45;&gt;Node8 -->
<g id="edge7" class="edge"><title>Node7&#45;&gt;Node8</title>
<path fill="none" stroke="midnightblue" d="M759.111,-285.5C777.602,-285.5 796.639,-285.5 814.245,-285.5"/>
<polygon fill="midnightblue" stroke="midnightblue" points="814.431,-289 824.431,-285.5 814.431,-282 814.431,-289"/>
</g>
<!-- Node10 -->
<g id="node10" class="node"><title>Node10</title>
<g id="a_node10"><a xlink:href="classtomoBay_1_1model_1_1net_1_1email_1_1Email.html#a39f0298f055f0b78ad2ac781d38f326f" target="_top" xlink:title="set the subject line of the email. ">
<polygon fill="white" stroke="black" points="824.5,-213.5 824.5,-243.5 955.5,-243.5 955.5,-213.5 824.5,-213.5"/>
<text text-anchor="start" x="832.5" y="-231.5" font-family="Helvetica,sans-Serif" font-size="10.00">tomoBay.model.net.email.</text>
<text text-anchor="middle" x="890" y="-220.5" font-family="Helvetica,sans-Serif" font-size="10.00">Email.setSubject</text>
</a>
</g>
</g>
<!-- Node9&#45;&gt;Node10 -->
<g id="edge9" class="edge"><title>Node9&#45;&gt;Node10</title>
<path fill="none" stroke="midnightblue" d="M759.111,-226.798C777.602,-227.041 796.639,-227.29 814.245,-227.521"/>
<polygon fill="midnightblue" stroke="midnightblue" points="814.386,-231.023 824.431,-227.654 814.478,-224.023 814.386,-231.023"/>
</g>
<!-- Node14 -->
<g id="node14" class="node"><title>Node14</title>
<g id="a_node14"><a xlink:href="classtomoBay_1_1helpers_1_1ConfigReader.html#a310420c6db22982498520c2ad7a2b82f" target="_top" xlink:title="find the value of the config variable specified in the arguments. ">
<polygon fill="white" stroke="black" points="563.5,-126 563.5,-145 754.5,-145 754.5,-126 563.5,-126"/>
<text text-anchor="middle" x="659" y="-133" font-family="Helvetica,sans-Serif" font-size="10.00">tomoBay.helpers.ConfigReader.getConf</text>
</a>
</g>
</g>
<!-- Node13&#45;&gt;Node14 -->
<g id="edge14" class="edge"><title>Node13&#45;&gt;Node14</title>
<path fill="none" stroke="midnightblue" d="M514.126,-135.5C526.929,-135.5 540.048,-135.5 552.903,-135.5"/>
<polygon fill="midnightblue" stroke="midnightblue" points="553.144,-139 563.144,-135.5 553.144,-132 553.144,-139"/>
</g>
<!-- Node18 -->
<g id="node18" class="node"><title>Node18</title>
<g id="a_node18"><a xlink:href="classtomoBay_1_1model_1_1net_1_1email_1_1MailServerSend.html#ae0ea6b0d6bda14c2c1ea809ca187c4be" target="_top" xlink:title="this method sends the given email using the userID and password provided in the arguments ...">
<polygon fill="white" stroke="black" points="593.5,-44.5 593.5,-74.5 724.5,-74.5 724.5,-44.5 593.5,-44.5"/>
<text text-anchor="start" x="601.5" y="-62.5" font-family="Helvetica,sans-Serif" font-size="10.00">tomoBay.model.net.email.</text>
<text text-anchor="middle" x="659" y="-51.5" font-family="Helvetica,sans-Serif" font-size="10.00">MailServerSend.send</text>
</a>
</g>
</g>
<!-- Node13&#45;&gt;Node18 -->
<g id="edge18" class="edge"><title>Node13&#45;&gt;Node18</title>
<path fill="none" stroke="midnightblue" d="M461.003,-120.485C500.802,-108.164 557.283,-90.6793 599.57,-77.5885"/>
<polygon fill="midnightblue" stroke="midnightblue" points="600.661,-80.9146 609.178,-74.6138 598.591,-74.2277 600.661,-80.9146"/>
</g>
<!-- Node15 -->
<g id="node15" class="node"><title>Node15</title>
<g id="a_node15"><a xlink:href="classtomoBay_1_1helpers_1_1ConfigReader.html#ab69b4a3a0fc6a7c7440362b06ec4b4d3" target="_top" xlink:title="reads the whole config file into a string ">
<polygon fill="white" stroke="black" points="805,-164.5 805,-194.5 975,-194.5 975,-164.5 805,-164.5"/>
<text text-anchor="start" x="813" y="-182.5" font-family="Helvetica,sans-Serif" font-size="10.00">tomoBay.helpers.ConfigReader.get</text>
<text text-anchor="middle" x="890" y="-171.5" font-family="Helvetica,sans-Serif" font-size="10.00">Config</text>
</a>
</g>
</g>
<!-- Node14&#45;&gt;Node15 -->
<g id="edge15" class="edge"><title>Node14&#45;&gt;Node15</title>
<path fill="none" stroke="midnightblue" d="M709.69,-145.047C736.278,-150.156 769.819,-156.601 800.679,-162.53"/>
<polygon fill="midnightblue" stroke="midnightblue" points="800.111,-165.985 810.592,-164.435 801.432,-159.111 800.111,-165.985"/>
</g>
<!-- Node16 -->
<g id="node16" class="node"><title>Node16</title>
<g id="a_node16"><a xlink:href="enumtomoBay_1_1helpers_1_1Config.html#a43cb99408ba4f337caad395ca67f9a6c" target="_top" xlink:title="return the string associated with the enum const ">
<polygon fill="white" stroke="black" points="813.5,-126 813.5,-145 966.5,-145 966.5,-126 813.5,-126"/>
<text text-anchor="middle" x="890" y="-133" font-family="Helvetica,sans-Serif" font-size="10.00">tomoBay.helpers.Config.getVar</text>
</a>
</g>
</g>
<!-- Node14&#45;&gt;Node16 -->
<g id="edge16" class="edge"><title>Node14&#45;&gt;Node16</title>
<path fill="none" stroke="midnightblue" d="M754.796,-135.5C770.845,-135.5 787.426,-135.5 803.227,-135.5"/>
<polygon fill="midnightblue" stroke="midnightblue" points="803.485,-139 813.485,-135.5 803.484,-132 803.485,-139"/>
</g>
<!-- Node17 -->
<g id="node17" class="node"><title>Node17</title>
<g id="a_node17"><a xlink:href="classtomoBay_1_1helpers_1_1XMLParser.html#a9936151017dd4e908cf37d453b22c8ef" target="_top" xlink:title="parses an XML formatted string looking for the first tag specified in the parameters. ">
<polygon fill="white" stroke="black" points="805.5,-88 805.5,-107 974.5,-107 974.5,-88 805.5,-88"/>
<text text-anchor="middle" x="890" y="-95" font-family="Helvetica,sans-Serif" font-size="10.00">tomoBay.helpers.XMLParser.parse</text>
</a>
</g>
</g>
<!-- Node14&#45;&gt;Node17 -->
<g id="edge17" class="edge"><title>Node14&#45;&gt;Node17</title>
<path fill="none" stroke="midnightblue" d="M717.491,-125.96C749.069,-120.72 788.413,-114.191 821.451,-108.709"/>
<polygon fill="midnightblue" stroke="midnightblue" points="822.193,-112.134 831.486,-107.044 821.047,-105.228 822.193,-112.134"/>
</g>
<!-- Node19 -->
<g id="node19" class="node"><title>Node19</title>
<g id="a_node19"><a xlink:href="classtomoBay_1_1model_1_1net_1_1email_1_1MailServerSend.html#ab5988b28fa18ed6b82ed54193ed21ccc" target="_top" xlink:title="creates a mail server session. ">
<polygon fill="white" stroke="black" points="1021,-17 1021,-58 1183,-58 1183,-17 1021,-17"/>
<text text-anchor="start" x="1029" y="-46" font-family="Helvetica,sans-Serif" font-size="10.00">tomoBay.model.net.email.</text>
<text text-anchor="start" x="1029" y="-35" font-family="Helvetica,sans-Serif" font-size="10.00">MailServerSend.createMailServer</text>
<text text-anchor="middle" x="1102" y="-24" font-family="Helvetica,sans-Serif" font-size="10.00">Session</text>
</a>
</g>
</g>
<!-- Node18&#45;&gt;Node19 -->
<g id="edge19" class="edge"><title>Node18&#45;&gt;Node19</title>
<path fill="none" stroke="midnightblue" d="M724.597,-56.2775C800.119,-52.51 925.595,-46.2504 1010.72,-42.0038"/>
<polygon fill="midnightblue" stroke="midnightblue" points="1011.08,-45.4902 1020.9,-41.4962 1010.73,-38.4989 1011.08,-45.4902"/>
</g>
<!-- Node20 -->
<g id="node20" class="node"><title>Node20</title>
<g id="a_node20"><a xlink:href="classtomoBay_1_1model_1_1net_1_1email_1_1MailServerSend.html#ae07411f271807d3f10b7e4db187d4b3c" target="_top" xlink:title="generates a MimeMessage from the Email object ">
<polygon fill="white" stroke="black" points="795,-0.5 795,-30.5 985,-30.5 985,-0.5 795,-0.5"/>
<text text-anchor="start" x="803" y="-18.5" font-family="Helvetica,sans-Serif" font-size="10.00">tomoBay.model.net.email.</text>
<text text-anchor="middle" x="890" y="-7.5" font-family="Helvetica,sans-Serif" font-size="10.00">MailServerSend.generateMimeMessage</text>
</a>
</g>
</g>
<!-- Node18&#45;&gt;Node20 -->
<g id="edge20" class="edge"><title>Node18&#45;&gt;Node20</title>
<path fill="none" stroke="midnightblue" d="M724.704,-47.0678C748.29,-42.536 775.377,-37.3315 800.665,-32.4727"/>
<polygon fill="midnightblue" stroke="midnightblue" points="801.468,-35.8825 810.628,-30.5584 800.147,-29.0082 801.468,-35.8825"/>
</g>
<!-- Node20&#45;&gt;Node19 -->
<g id="edge21" class="edge"><title>Node20&#45;&gt;Node19</title>
<path fill="none" stroke="midnightblue" d="M985.25,-25.3738C993.7,-26.259 1002.24,-27.154 1010.66,-28.0356"/>
<polygon fill="midnightblue" stroke="midnightblue" points="1010.53,-31.5417 1020.84,-29.1027 1011.26,-24.5798 1010.53,-31.5417"/>
</g>
</g>
</svg>
        <g id="navigator" transform="translate(0 0)" fill="#404254">
                <rect fill="#f2f5e9" fill-opacity="0.5" stroke="#606060" stroke-width=".5" x="0" y="0" width="60" height="60"/>
                <use id="zoomplus" xlink:href="#zoomPlus" x="17" y="9" onmousedown="handleZoom(evt,'in')"/>
                <use id="zoomminus" xlink:href="#zoomMin" x="42" y="9" onmousedown="handleZoom(evt,'out')"/>
                <use id="reset" xlink:href="#resetDef" x="30" y="36" onmousedown="handleReset()"/>
                <g id="arrowUp" xlink:href="#dirArrow" transform="translate(30 24)" onmousedown="handlePan(0,-1)">
                  <use xlink:href="#rim" fill="#404040">
                        <set attributeName="fill" to="#808080" begin="arrowUp.mouseover" end="arrowUp.mouseout"/>
                  </use>
                  <path fill="none" stroke="white" stroke-width="1.5" d="M0,-3.0v7 M-2.5,-0.5L0,-3.0L2.5,-0.5"/>
                </g>
                <g id="arrowRight" xlink:href="#dirArrow" transform="rotate(90) translate(36 -43)" onmousedown="handlePan(1,0)">
                  <use xlink:href="#rim" fill="#404040">
                        <set attributeName="fill" to="#808080" begin="arrowRight.mouseover" end="arrowRight.mouseout"/>
                  </use>
                  <path fill="none" stroke="white" stroke-width="1.5" d="M0,-3.0v7 M-2.5,-0.5L0,-3.0L2.5,-0.5"/>
                </g>
                <g id="arrowDown" xlink:href="#dirArrow" transform="rotate(180) translate(-30 -48)" onmousedown="handlePan(0,1)">
                  <use xlink:href="#rim" fill="#404040">
                        <set attributeName="fill" to="#808080" begin="arrowDown.mouseover" end="arrowDown.mouseout"/>
                  </use>
                  <path fill="none" stroke="white" stroke-width="1.5" d="M0,-3.0v7 M-2.5,-0.5L0,-3.0L2.5,-0.5"/>
                </g>
                <g id="arrowLeft" xlink:href="#dirArrow" transform="rotate(270) translate(-36 17)" onmousedown="handlePan(-1,0)">
                  <use xlink:href="#rim" fill="#404040">
                        <set attributeName="fill" to="#808080" begin="arrowLeft.mouseover" end="arrowLeft.mouseout"/>
                  </use>
                  <path fill="none" stroke="white" stroke-width="1.5" d="M0,-3.0v7 M-2.5,-0.5L0,-3.0L2.5,-0.5"/>
                </g>
        </g>
        <svg viewBox="0 0 15 15" width="100%" height="30px" preserveAspectRatio="xMaxYMin meet">
         <g id="arrow_out" transform="scale(0.3 0.3)">
          <a xlink:href="classtomoBay_1_1model_1_1services_1_1emailErrorsService_1_1EmailErrorsService_ae3b0a282dcba7f2d675ca89b1dd48487_cgraph_org.svg" target="_base">
           <rect id="button" ry="5" rx="5" y="6" x="6" height="38" width="38"
                fill="#f2f5e9" fill-opacity="0.5" stroke="#606060" stroke-width="1.0"/>
           <path id="arrow"
             d="M 11.500037,31.436501 C 11.940474,20.09759 22.043105,11.32322 32.158766,21.979434 L 37.068811,17.246167 C 37.068811,17.246167 37.088388,32 37.088388,32 L 22.160133,31.978069 C 22.160133,31.978069 26.997745,27.140456 26.997745,27.140456 C 18.528582,18.264221 13.291696,25.230495 11.500037,31.436501 z"
             style="fill:#404040;"/>
          </a>
         </g>
        </svg>
</svg>
