<?xml version="1.0" encoding="UTF-8" standalone="no"?>
<!DOCTYPE svg PUBLIC "-//W3C//DTD SVG 1.1//EN"
 "http://www.w3.org/Graphics/SVG/1.1/DTD/svg11.dtd">
<!-- Generated by graphviz version 2.38.0 (20140413.2041)
 -->
<!-- Title: GenerateRoyalMailCSV Pages: 1 -->
<svg width="160pt" height="270pt"
 viewBox="0.00 0.00 160.00 270.00" xmlns="http://www.w3.org/2000/svg" xmlns:xlink="http://www.w3.org/1999/xlink">
<g id="graph0" class="graph" transform="scale(1 1) rotate(0) translate(4 266)">
<title>GenerateRoyalMailCSV</title>
<polygon fill="white" stroke="none" points="-4,4 -4,-266 156,-266 156,4 -4,4"/>
<!-- Node1 -->
<g id="node1" class="node"><title>Node1</title>
<polygon fill="#bfbfbf" stroke="black" points="0,-0.5 0,-167.5 152,-167.5 152,-0.5 0,-0.5"/>
<text text-anchor="middle" x="76" y="-155.5" font-family="Helvetica,sans-Serif" font-size="10.00">GenerateRoyalMailCSV</text>
<polyline fill="none" stroke="black" points="0,-148.5 152,-148.5 "/>
<text text-anchor="start" x="8" y="-136.5" font-family="Helvetica,sans-Serif" font-size="10.00">&#45; csvGen_M</text>
<text text-anchor="start" x="8" y="-125.5" font-family="Helvetica,sans-Serif" font-size="10.00">&#45; ACCOUNT</text>
<text text-anchor="start" x="8" y="-114.5" font-family="Helvetica,sans-Serif" font-size="10.00">&#45; SALES_REC_NO</text>
<text text-anchor="start" x="8" y="-103.5" font-family="Helvetica,sans-Serif" font-size="10.00">&#45; SERVICE</text>
<text text-anchor="start" x="8" y="-92.5" font-family="Helvetica,sans-Serif" font-size="10.00">&#45; SERVICE_ENHANCEMENT</text>
<text text-anchor="start" x="8" y="-81.5" font-family="Helvetica,sans-Serif" font-size="10.00">&#45; FORMAT</text>
<polyline fill="none" stroke="black" points="0,-74.5 152,-74.5 "/>
<text text-anchor="start" x="8" y="-62.5" font-family="Helvetica,sans-Serif" font-size="10.00">+ GenerateRoyalMailCSV()</text>
<text text-anchor="start" x="8" y="-51.5" font-family="Helvetica,sans-Serif" font-size="10.00">+ execute()</text>
<text text-anchor="start" x="8" y="-40.5" font-family="Helvetica,sans-Serif" font-size="10.00">&#45; processInput()</text>
<text text-anchor="start" x="8" y="-29.5" font-family="Helvetica,sans-Serif" font-size="10.00">&#45; grabNecessaryDBData()</text>
<text text-anchor="start" x="8" y="-18.5" font-family="Helvetica,sans-Serif" font-size="10.00">&#45; getInvoiceWeight()</text>
<text text-anchor="start" x="8" y="-7.5" font-family="Helvetica,sans-Serif" font-size="10.00">&#45; createCSV()</text>
</g>
<!-- Node2 -->
<g id="node2" class="node"><title>Node2</title>
<g id="a_node2"><a xlink:href="interfacetomoBay_1_1presenters_1_1presenterActions_1_1AbstractPresenterAction.html" target="_top" xlink:title="Copyright(C) 2015 Jan P.C. ">
<polygon fill="white" stroke="black" points="14.5,-204.5 14.5,-261.5 137.5,-261.5 137.5,-204.5 14.5,-204.5"/>
<text text-anchor="middle" x="76" y="-249.5" font-family="Helvetica,sans-Serif" font-size="10.00">AbstractPresenterAction</text>
<polyline fill="none" stroke="black" points="14.5,-242.5 137.5,-242.5 "/>
<text text-anchor="middle" x="76" y="-230.5" font-family="Helvetica,sans-Serif" font-size="10.00"> </text>
<polyline fill="none" stroke="black" points="14.5,-223.5 137.5,-223.5 "/>
<text text-anchor="start" x="22.5" y="-211.5" font-family="Helvetica,sans-Serif" font-size="10.00">+ execute()</text>
</a>
</g>
</g>
<!-- Node2&#45;&gt;Node1 -->
<g id="edge1" class="edge"><title>Node2&#45;&gt;Node1</title>
<path fill="none" stroke="midnightblue" d="M76,-194.35C76,-186.08 76,-177.008 76,-167.738"/>
<polygon fill="none" stroke="midnightblue" points="72.5001,-194.35 76,-204.35 79.5001,-194.35 72.5001,-194.35"/>
</g>
</g>
</svg>
