<?xml version="1.0" encoding="UTF-8" standalone="no"?>
<!DOCTYPE svg PUBLIC "-//W3C//DTD SVG 1.1//EN"
 "http://www.w3.org/Graphics/SVG/1.1/DTD/svg11.dtd">
<!-- Generated by graphviz version 2.38.0 (20140413.2041)
 -->
<!-- Title: SoapMessage Pages: 1 -->
<svg width="147pt" height="237pt"
 viewBox="0.00 0.00 147.00 237.00" xmlns="http://www.w3.org/2000/svg" xmlns:xlink="http://www.w3.org/1999/xlink">
<g id="graph0" class="graph" transform="scale(1 1) rotate(0) translate(4 233)">
<title>SoapMessage</title>
<polygon fill="white" stroke="none" points="-4,4 -4,-233 143,-233 143,4 -4,4"/>
<!-- Node1 -->
<g id="node1" class="node"><title>Node1</title>
<polygon fill="#bfbfbf" stroke="black" points="23,-116.5 23,-228.5 116,-228.5 116,-116.5 23,-116.5"/>
<text text-anchor="middle" x="69.5" y="-216.5" font-family="Helvetica,sans-Serif" font-size="10.00">SoapMessage</text>
<polyline fill="none" stroke="black" points="23,-209.5 116,-209.5 "/>
<text text-anchor="start" x="31" y="-197.5" font-family="Helvetica,sans-Serif" font-size="10.00">&#45; message_M</text>
<text text-anchor="start" x="31" y="-186.5" font-family="Helvetica,sans-Serif" font-size="10.00">&#45; envelope_M</text>
<text text-anchor="start" x="31" y="-175.5" font-family="Helvetica,sans-Serif" font-size="10.00">&#45; header_M</text>
<polyline fill="none" stroke="black" points="23,-168.5 116,-168.5 "/>
<text text-anchor="start" x="31" y="-156.5" font-family="Helvetica,sans-Serif" font-size="10.00">+ call()</text>
<text text-anchor="start" x="31" y="-145.5" font-family="Helvetica,sans-Serif" font-size="10.00"># SoapMessage()</text>
<text text-anchor="start" x="31" y="-134.5" font-family="Helvetica,sans-Serif" font-size="10.00"># httpHeaders()</text>
<text text-anchor="start" x="31" y="-123.5" font-family="Helvetica,sans-Serif" font-size="10.00"># message()</text>
</g>
<!-- Node2 -->
<g id="node2" class="node"><title>Node2</title>
<g id="a_node2"><a xlink:href="classtomoBay_1_1model_1_1royalMail_1_1calls_1_1AbstractRoyalMailAPICallPrototype.html" target="_top" xlink:title="Copyright(C) 2015 Jan P.C. ">
<polygon fill="white" stroke="black" points="0,-0.5 0,-79.5 139,-79.5 139,-0.5 0,-0.5"/>
<text text-anchor="start" x="8" y="-67.5" font-family="Helvetica,sans-Serif" font-size="10.00">AbstractRoyalMailAPICall</text>
<text text-anchor="middle" x="69.5" y="-56.5" font-family="Helvetica,sans-Serif" font-size="10.00">Prototype</text>
<polyline fill="none" stroke="black" points="0,-49.5 139,-49.5 "/>
<text text-anchor="middle" x="69.5" y="-37.5" font-family="Helvetica,sans-Serif" font-size="10.00"> </text>
<polyline fill="none" stroke="black" points="0,-30.5 139,-30.5 "/>
<text text-anchor="start" x="8" y="-18.5" font-family="Helvetica,sans-Serif" font-size="10.00"># AbstractRoyalMailAPICall</text>
<text text-anchor="start" x="8" y="-7.5" font-family="Helvetica,sans-Serif" font-size="10.00">Prototype()</text>
</a>
</g>
</g>
<!-- Node1&#45;&gt;Node2 -->
<g id="edge1" class="edge"><title>Node1&#45;&gt;Node2</title>
<path fill="none" stroke="midnightblue" d="M69.5,-106.056C69.5,-97.0806 69.5,-88.1097 69.5,-79.823"/>
<polygon fill="none" stroke="midnightblue" points="66.0001,-106.156 69.5,-116.156 73.0001,-106.156 66.0001,-106.156"/>
</g>
</g>
</svg>
