<?xml version="1.0" encoding="UTF-8" standalone="no"?>
<!DOCTYPE svg PUBLIC "-//W3C//DTD SVG 1.1//EN"
 "http://www.w3.org/Graphics/SVG/1.1/DTD/svg11.dtd">
<!-- Generated by graphviz version 2.38.0 (20140413.2041)
 -->
<!-- Title: setDOUBLEParam Pages: 1 -->
<!--zoomable 1070 -->
<svg id="main" version="1.1" xmlns="http://www.w3.org/2000/svg" xmlns:xlink="http://www.w3.org/1999/xlink" xml:space="preserve" onload="init(evt)">
<style type="text/css"><![CDATA[
.edge:hover path { stroke: red; }
.edge:hover polygon { stroke: red; fill: red; }
]]></style>
<script type="text/javascript"><![CDATA[
var edges = document.getElementsByTagName('g');
if (edges && edges.length) {
  for (var i=0;i<edges.length;i++) {
    if (edges[i].id.substr(0,4)=='edge') {
      edges[i].setAttribute('class','edge');
    }
  }
}
]]></script>
        <defs>
                <circle id="rim" cx="0" cy="0" r="7"/>
                <circle id="rim2" cx="0" cy="0" r="3.5"/>
                <g id="zoomPlus">
                        <use xlink:href="#rim" fill="#404040">
                                <set attributeName="fill" to="#808080" begin="zoomplus.mouseover" end="zoomplus.mouseout"/>
                        </use>
                        <path d="M-4,0h8M0,-4v8" fill="none" stroke="white" stroke-width="1.5" pointer-events="none"/>
                </g>
                <g id="zoomMin">
                        <use xlink:href="#rim" fill="#404040">
                                <set attributeName="fill" to="#808080" begin="zoomminus.mouseover" end="zoomminus.mouseout"/>
                        </use>
                        <path d="M-4,0h8" fill="none" stroke="white" stroke-width="1.5" pointer-events="none"/>
                </g>
                <g id="dirArrow">
                        <path fill="none" stroke="white" stroke-width="1.5" d="M0,-3.0v7 M-2.5,-0.5L0,-3.0L2.5,-0.5"/>
                </g>
               <g id="resetDef">
                       <use xlink:href="#rim2" fill="#404040">
                               <set attributeName="fill" to="#808080" begin="reset.mouseover" end="reset.mouseout"/>
                       </use>
               </g>
        </defs>

<script type="text/javascript">
var viewWidth = 1649;
var viewHeight = 1070;
var sectionId = 'dynsection-17';
</script>
<script xlink:href="svgpan.js"/>
<svg id="graph" class="graph">
<g id="viewport">
<title>setDOUBLEParam</title>
<polygon fill="white" stroke="none" points="-4,4 -4,-1066.07 1645,-1066.07 1645,4 -4,4"/>
<!-- Node1 -->
<g id="node1" class="node"><title>Node1</title>
<polygon fill="#bfbfbf" stroke="black" points="0,-997.39 0,-1016.39 100,-1016.39 100,-997.39 0,-997.39"/>
<text text-anchor="middle" x="50" y="-1004.39" font-family="Helvetica,sans-Serif" font-size="10.00">setDOUBLEParam</text>
</g>
<!-- Node2 -->
<g id="node2" class="node"><title>Node2</title>
<g id="a_node2"><a xlink:href="classtomoBay_1_1model_1_1sql_1_1framework_1_1QueryUtility.html#a202aab30c77e06c32318efd5cf949ca3" target="_top" xlink:title="set an Integer parameter for the query object specified. ">
<polygon fill="white" stroke="black" points="136,-997.39 136,-1016.39 222,-1016.39 222,-997.39 136,-997.39"/>
<text text-anchor="middle" x="179" y="-1004.39" font-family="Helvetica,sans-Serif" font-size="10.00">setDATEParam</text>
</a>
</g>
</g>
<!-- Node1&#45;&gt;Node2 -->
<g id="edge1" class="edge"><title>Node1&#45;&gt;Node2</title>
<path fill="none" stroke="midnightblue" d="M110.122,-1006.89C118.732,-1006.89 127.45,-1006.89 135.639,-1006.89"/>
<polygon fill="midnightblue" stroke="midnightblue" points="110.102,-1003.39 100.102,-1006.89 110.101,-1010.39 110.102,-1003.39"/>
</g>
<!-- Node3 -->
<g id="node3" class="node"><title>Node3</title>
<g id="a_node3"><a xlink:href="classtomoBay_1_1model_1_1sql_1_1queries_1_1concreteQueries_1_1insert_1_1InsertOutOfHoursOrders.html#af9020b85517904668d036bc2bf89433c" target="_top" xlink:title="tomoBay.model.sql.queries.concrete\lQueries.insert.InsertOutOfHoursOrders.set\lParameters">
<polygon fill="white" stroke="black" points="1430,-882.39 1430,-923.39 1633,-923.39 1633,-882.39 1430,-882.39"/>
<text text-anchor="start" x="1438" y="-911.39" font-family="Helvetica,sans-Serif" font-size="10.00">tomoBay.model.sql.queries.concrete</text>
<text text-anchor="start" x="1438" y="-900.39" font-family="Helvetica,sans-Serif" font-size="10.00">Queries.insert.InsertOutOfHoursOrders.set</text>
<text text-anchor="middle" x="1531.5" y="-889.39" font-family="Helvetica,sans-Serif" font-size="10.00">Parameters</text>
</a>
</g>
</g>
<!-- Node2&#45;&gt;Node3 -->
<g id="edge2" class="edge"><title>Node2&#45;&gt;Node3</title>
<path fill="none" stroke="midnightblue" d="M209.354,-1020.58C223.707,-1026.65 241.424,-1033.23 258,-1036.89 380.665,-1063.96 414.383,-1055.89 540,-1055.89 540,-1055.89 540,-1055.89 1064.5,-1055.89 1208.01,-1055.89 1253.77,-1081.66 1386,-1025.89 1440.03,-1003.1 1488.79,-952.538 1513.48,-923.841"/>
<polygon fill="midnightblue" stroke="midnightblue" points="210.576,-1017.3 200.011,-1016.51 207.777,-1023.71 210.576,-1017.3"/>
</g>
<!-- Node4 -->
<g id="node4" class="node"><title>Node4</title>
<g id="a_node4"><a xlink:href="classtomoBay_1_1model_1_1sql_1_1queries_1_1concreteQueries_1_1select_1_1params_1_1SelectOutOfHoursOrders.html#af9020b85517904668d036bc2bf89433c" target="_top" xlink:title="tomoBay.model.sql.queries.concrete\lQueries.select.params.SelectOutOfHours\lOrders.setParameters">
<polygon fill="white" stroke="black" points="258,-986.39 258,-1027.39 456,-1027.39 456,-986.39 258,-986.39"/>
<text text-anchor="start" x="266" y="-1015.39" font-family="Helvetica,sans-Serif" font-size="10.00">tomoBay.model.sql.queries.concrete</text>
<text text-anchor="start" x="266" y="-1004.39" font-family="Helvetica,sans-Serif" font-size="10.00">Queries.select.params.SelectOutOfHours</text>
<text text-anchor="middle" x="357" y="-993.39" font-family="Helvetica,sans-Serif" font-size="10.00">Orders.setParameters</text>
</a>
</g>
</g>
<!-- Node2&#45;&gt;Node4 -->
<g id="edge3" class="edge"><title>Node2&#45;&gt;Node4</title>
<path fill="none" stroke="midnightblue" d="M232.164,-1006.89C240.294,-1006.89 248.915,-1006.89 257.675,-1006.89"/>
<polygon fill="midnightblue" stroke="midnightblue" points="232.156,-1003.39 222.156,-1006.89 232.156,-1010.39 232.156,-1003.39"/>
</g>
<!-- Node5 -->
<g id="node5" class="node"><title>Node5</title>
<g id="a_node5"><a xlink:href="classtomoBay_1_1model_1_1sql_1_1framework_1_1QueryUtility.html#ab07d04299a96461dcf893416b8e32604" target="_top" xlink:title="set an Integer parameter for the query object specified. ">
<polygon fill="white" stroke="black" points="298.5,-948.39 298.5,-967.39 415.5,-967.39 415.5,-948.39 298.5,-948.39"/>
<text text-anchor="middle" x="357" y="-955.39" font-family="Helvetica,sans-Serif" font-size="10.00">setTIMESTAMPParam</text>
</a>
</g>
</g>
<!-- Node2&#45;&gt;Node5 -->
<g id="edge4" class="edge"><title>Node2&#45;&gt;Node5</title>
<path fill="none" stroke="midnightblue" d="M211.095,-993.487C225.215,-987.778 242.249,-981.408 258,-976.89 270.911,-973.187 284.986,-969.984 298.337,-967.319"/>
<polygon fill="midnightblue" stroke="midnightblue" points="209.749,-990.256 201.837,-997.303 212.417,-996.728 209.749,-990.256"/>
</g>
<!-- Node6 -->
<g id="node6" class="node"><title>Node6</title>
<g id="a_node6"><a xlink:href="classtomoBay_1_1model_1_1sql_1_1queries_1_1concreteQueries_1_1insert_1_1InsertEbayOrders.html#af9020b85517904668d036bc2bf89433c" target="_top" xlink:title="tomoBay.model.sql.queries.concrete\lQueries.insert.InsertEbayOrders.set\lParameters">
<polygon fill="white" stroke="black" points="1443.5,-670.39 1443.5,-711.39 1619.5,-711.39 1619.5,-670.39 1443.5,-670.39"/>
<text text-anchor="start" x="1451.5" y="-699.39" font-family="Helvetica,sans-Serif" font-size="10.00">tomoBay.model.sql.queries.concrete</text>
<text text-anchor="start" x="1451.5" y="-688.39" font-family="Helvetica,sans-Serif" font-size="10.00">Queries.insert.InsertEbayOrders.set</text>
<text text-anchor="middle" x="1531.5" y="-677.39" font-family="Helvetica,sans-Serif" font-size="10.00">Parameters</text>
</a>
</g>
</g>
<!-- Node5&#45;&gt;Node6 -->
<g id="edge5" class="edge"><title>Node5&#45;&gt;Node6</title>
<path fill="none" stroke="midnightblue" d="M417.118,-969.294C507.391,-986.698 669.404,-1017.89 671,-1017.89 671,-1017.89 671,-1017.89 1064.5,-1017.89 1136.07,-1017.89 1330.16,-1043.66 1386,-998.89 1431.44,-962.461 1398.89,-926.352 1422,-872.89 1448.78,-810.927 1492.92,-744.283 1515.77,-711.504"/>
<polygon fill="midnightblue" stroke="midnightblue" points="417.762,-965.854 407.28,-967.397 416.437,-972.727 417.762,-965.854"/>
</g>
<!-- Node7 -->
<g id="node7" class="node"><title>Node7</title>
<g id="a_node7"><a xlink:href="classtomoBay_1_1model_1_1sql_1_1framework_1_1QueryUtility.html#a56a65ac583b8720ae73dc81278e5690e" target="_top" xlink:title="set an Integer parameter for the query object specified. ">
<polygon fill="white" stroke="black" points="492,-569.39 492,-588.39 590,-588.39 590,-569.39 492,-569.39"/>
<text text-anchor="middle" x="541" y="-576.39" font-family="Helvetica,sans-Serif" font-size="10.00">setTINYINTParam</text>
</a>
</g>
</g>
<!-- Node5&#45;&gt;Node7 -->
<g id="edge6" class="edge"><title>Node5&#45;&gt;Node7</title>
<path fill="none" stroke="midnightblue" d="M367.081,-938.98C399.827,-870.788 511.185,-638.895 535.349,-588.575"/>
<polygon fill="midnightblue" stroke="midnightblue" points="363.856,-937.611 362.682,-948.141 370.166,-940.641 363.856,-937.611"/>
</g>
<!-- Node8 -->
<g id="node8" class="node"><title>Node8</title>
<g id="a_node8"><a xlink:href="classtomoBay_1_1model_1_1sql_1_1framework_1_1QueryUtility.html#a138f0c046bc0a6df71b168ab35c3c3e3" target="_top" xlink:title="set an Integer parameter for the query object specified. ">
<polygon fill="white" stroke="black" points="626,-191.39 626,-210.39 718,-210.39 718,-191.39 626,-191.39"/>
<text text-anchor="middle" x="672" y="-198.39" font-family="Helvetica,sans-Serif" font-size="10.00">setBIGINTParam</text>
</a>
</g>
</g>
<!-- Node7&#45;&gt;Node8 -->
<g id="edge7" class="edge"><title>Node7&#45;&gt;Node8</title>
<path fill="none" stroke="midnightblue" d="M548.58,-559.609C571.971,-491.069 650.611,-260.633 667.704,-210.549"/>
<polygon fill="midnightblue" stroke="midnightblue" points="545.236,-558.572 545.318,-569.166 551.861,-560.833 545.236,-558.572"/>
</g>
<!-- Node9 -->
<g id="node9" class="node"><title>Node9</title>
<g id="a_node9"><a xlink:href="classtomoBay_1_1model_1_1sql_1_1framework_1_1QueryUtility.html#a50955d4f51a1a7a88ef0c8aadbe9c793" target="_top" xlink:title="set an Integer parameter for the query object specified. ">
<polygon fill="white" stroke="black" points="821,-229.39 821,-248.39 906,-248.39 906,-229.39 821,-229.39"/>
<text text-anchor="middle" x="863.5" y="-236.39" font-family="Helvetica,sans-Serif" font-size="10.00">setBYTEParam</text>
</a>
</g>
</g>
<!-- Node8&#45;&gt;Node9 -->
<g id="edge8" class="edge"><title>Node8&#45;&gt;Node9</title>
<path fill="none" stroke="midnightblue" d="M728.534,-212.026C758.004,-217.936 793.62,-225.078 820.719,-230.512"/>
<polygon fill="midnightblue" stroke="midnightblue" points="728.883,-208.526 718.39,-209.992 727.507,-215.39 728.883,-208.526"/>
</g>
<!-- Node16 -->
<g id="node16" class="node"><title>Node16</title>
<g id="a_node16"><a xlink:href="classtomoBay_1_1model_1_1sql_1_1queries_1_1concreteQueries_1_1insert_1_1InsertEbayItems.html#af9020b85517904668d036bc2bf89433c" target="_top" xlink:title="tomoBay.model.sql.queries.concrete\lQueries.insert.InsertEbayItems.setParameters">
<polygon fill="white" stroke="black" points="1422,-283.89 1422,-313.89 1641,-313.89 1641,-283.89 1422,-283.89"/>
<text text-anchor="start" x="1430" y="-301.89" font-family="Helvetica,sans-Serif" font-size="10.00">tomoBay.model.sql.queries.concrete</text>
<text text-anchor="middle" x="1531.5" y="-290.89" font-family="Helvetica,sans-Serif" font-size="10.00">Queries.insert.InsertEbayItems.setParameters</text>
</a>
</g>
</g>
<!-- Node8&#45;&gt;Node16 -->
<g id="edge40" class="edge"><title>Node8&#45;&gt;Node16</title>
<path fill="none" stroke="midnightblue" d="M689.556,-184C704.855,-169.499 728.945,-149.335 754,-138.89 884.121,-84.6449 1277.48,6.09044 1386,-83.89 1452.5,-139.026 1361.88,-212.856 1422,-274.89 1425.22,-278.215 1428.79,-281.127 1432.62,-283.676"/>
<polygon fill="midnightblue" stroke="midnightblue" points="687.111,-181.495 682.399,-190.984 692,-186.505 687.111,-181.495"/>
</g>
<!-- Node17 -->
<g id="node17" class="node"><title>Node17</title>
<g id="a_node17"><a xlink:href="classtomoBay_1_1model_1_1sql_1_1queries_1_1concreteQueries_1_1insert_1_1InsertEbayTransactions.html#af9020b85517904668d036bc2bf89433c" target="_top" xlink:title="tomoBay.model.sql.queries.concrete\lQueries.insert.InsertEbayTransactions.set\lParameters">
<polygon fill="white" stroke="black" points="1431.5,-224.39 1431.5,-265.39 1631.5,-265.39 1631.5,-224.39 1431.5,-224.39"/>
<text text-anchor="start" x="1439.5" y="-253.39" font-family="Helvetica,sans-Serif" font-size="10.00">tomoBay.model.sql.queries.concrete</text>
<text text-anchor="start" x="1439.5" y="-242.39" font-family="Helvetica,sans-Serif" font-size="10.00">Queries.insert.InsertEbayTransactions.set</text>
<text text-anchor="middle" x="1531.5" y="-231.39" font-family="Helvetica,sans-Serif" font-size="10.00">Parameters</text>
</a>
</g>
</g>
<!-- Node8&#45;&gt;Node17 -->
<g id="edge42" class="edge"><title>Node8&#45;&gt;Node17</title>
<path fill="none" stroke="midnightblue" d="M676.91,-181.157C684.778,-147.412 706.044,-79.495 754,-50.89 874.617,21.0562 1260.49,12.1263 1386,-50.89 1459.75,-87.9177 1505.42,-182.402 1522.66,-224.323"/>
<polygon fill="midnightblue" stroke="midnightblue" points="673.434,-180.67 674.736,-191.185 680.275,-182.154 673.434,-180.67"/>
</g>
<!-- Node21 -->
<g id="node21" class="node"><title>Node21</title>
<g id="a_node21"><a xlink:href="classtomoBay_1_1model_1_1sql_1_1queries_1_1concreteQueries_1_1update_1_1UpdateItemNote.html#af9020b85517904668d036bc2bf89433c" target="_top" xlink:title="tomoBay.model.sql.queries.concrete\lQueries.update.UpdateItemNote.setParameters">
<polygon fill="white" stroke="black" points="1158,-201.89 1158,-231.89 1382,-231.89 1382,-201.89 1158,-201.89"/>
<text text-anchor="start" x="1166" y="-219.89" font-family="Helvetica,sans-Serif" font-size="10.00">tomoBay.model.sql.queries.concrete</text>
<text text-anchor="middle" x="1270" y="-208.89" font-family="Helvetica,sans-Serif" font-size="10.00">Queries.update.UpdateItemNote.setParameters</text>
</a>
</g>
</g>
<!-- Node8&#45;&gt;Node21 -->
<g id="edge38" class="edge"><title>Node8&#45;&gt;Node21</title>
<path fill="none" stroke="midnightblue" d="M728.527,-202.381C826.172,-205.002 1030.35,-210.483 1157.9,-213.908"/>
<polygon fill="midnightblue" stroke="midnightblue" points="728.376,-198.875 718.286,-202.106 728.188,-205.873 728.376,-198.875"/>
</g>
<!-- Node22 -->
<g id="node22" class="node"><title>Node22</title>
<g id="a_node22"><a xlink:href="classtomoBay_1_1model_1_1sql_1_1queries_1_1concreteQueries_1_1update_1_1UpdateItemBrandAndPartNo.html#af9020b85517904668d036bc2bf89433c" target="_top" xlink:title="tomoBay.model.sql.queries.concrete\lQueries.update.UpdateItemBrandAndPart\lNo.setParameters">
<polygon fill="white" stroke="black" points="1171.5,-142.39 1171.5,-183.39 1368.5,-183.39 1368.5,-142.39 1171.5,-142.39"/>
<text text-anchor="start" x="1179.5" y="-171.39" font-family="Helvetica,sans-Serif" font-size="10.00">tomoBay.model.sql.queries.concrete</text>
<text text-anchor="start" x="1179.5" y="-160.39" font-family="Helvetica,sans-Serif" font-size="10.00">Queries.update.UpdateItemBrandAndPart</text>
<text text-anchor="middle" x="1270" y="-149.39" font-family="Helvetica,sans-Serif" font-size="10.00">No.setParameters</text>
</a>
</g>
</g>
<!-- Node8&#45;&gt;Node22 -->
<g id="edge39" class="edge"><title>Node8&#45;&gt;Node22</title>
<path fill="none" stroke="midnightblue" d="M728.28,-197.365C829.298,-190.925 1044.92,-177.177 1171.23,-169.124"/>
<polygon fill="midnightblue" stroke="midnightblue" points="728.043,-193.873 718.286,-198.003 728.489,-200.859 728.043,-193.873"/>
</g>
<!-- Node23 -->
<g id="node23" class="node"><title>Node23</title>
<g id="a_node23"><a xlink:href="classtomoBay_1_1model_1_1sql_1_1queries_1_1concreteQueries_1_1update_1_1UpdateItemError.html#af9020b85517904668d036bc2bf89433c" target="_top" xlink:title="tomoBay.model.sql.queries.concrete\lQueries.update.UpdateItemError.setParameters">
<polygon fill="white" stroke="black" points="1158,-93.89 1158,-123.89 1382,-123.89 1382,-93.89 1158,-93.89"/>
<text text-anchor="start" x="1166" y="-111.89" font-family="Helvetica,sans-Serif" font-size="10.00">tomoBay.model.sql.queries.concrete</text>
<text text-anchor="middle" x="1270" y="-100.89" font-family="Helvetica,sans-Serif" font-size="10.00">Queries.update.UpdateItemError.setParameters</text>
</a>
</g>
</g>
<!-- Node8&#45;&gt;Node23 -->
<g id="edge41" class="edge"><title>Node8&#45;&gt;Node23</title>
<path fill="none" stroke="midnightblue" d="M712.424,-188.469C725.55,-184.663 740.314,-180.735 754,-177.89 891.891,-149.23 1053.14,-129.864 1157.97,-119.115"/>
<polygon fill="midnightblue" stroke="midnightblue" points="711.344,-185.139 702.75,-191.336 713.332,-191.85 711.344,-185.139"/>
</g>
<!-- Node32 -->
<g id="node32" class="node"><title>Node32</title>
<g id="a_node32"><a xlink:href="classtomoBay_1_1model_1_1sql_1_1queries_1_1concreteQueries_1_1select_1_1params_1_1SelectEbayTransactionByID.html#af9020b85517904668d036bc2bf89433c" target="_top" xlink:title="tomoBay.model.sql.queries.concrete\lQueries.select.params.SelectEbayTransaction\lByID.setParameters">
<polygon fill="white" stroke="black" points="754,-327.39 754,-368.39 973,-368.39 973,-327.39 754,-327.39"/>
<text text-anchor="start" x="762" y="-356.39" font-family="Helvetica,sans-Serif" font-size="10.00">tomoBay.model.sql.queries.concrete</text>
<text text-anchor="start" x="762" y="-345.39" font-family="Helvetica,sans-Serif" font-size="10.00">Queries.select.params.SelectEbayTransaction</text>
<text text-anchor="middle" x="863.5" y="-334.39" font-family="Helvetica,sans-Serif" font-size="10.00">ByID.setParameters</text>
</a>
</g>
</g>
<!-- Node8&#45;&gt;Node32 -->
<g id="edge43" class="edge"><title>Node8&#45;&gt;Node32</title>
<path fill="none" stroke="midnightblue" d="M680.925,-219.621C692.898,-245.637 718.08,-292.381 754,-317.89 759.019,-321.454 764.446,-324.596 770.104,-327.365"/>
<polygon fill="midnightblue" stroke="midnightblue" points="684.113,-218.177 676.86,-210.454 677.714,-221.015 684.113,-218.177"/>
</g>
<!-- Node33 -->
<g id="node33" class="node"><title>Node33</title>
<g id="a_node33"><a xlink:href="classtomoBay_1_1model_1_1sql_1_1queries_1_1concreteQueries_1_1select_1_1params_1_1SelectEbayItemSpecific.html#af9020b85517904668d036bc2bf89433c" target="_top" xlink:title="tomoBay.model.sql.queries.concrete\lQueries.select.params.SelectEbayItem\lSpecific.setParameters">
<polygon fill="white" stroke="black" points="769.5,-267.39 769.5,-308.39 957.5,-308.39 957.5,-267.39 769.5,-267.39"/>
<text text-anchor="start" x="777.5" y="-296.39" font-family="Helvetica,sans-Serif" font-size="10.00">tomoBay.model.sql.queries.concrete</text>
<text text-anchor="start" x="777.5" y="-285.39" font-family="Helvetica,sans-Serif" font-size="10.00">Queries.select.params.SelectEbayItem</text>
<text text-anchor="middle" x="863.5" y="-274.39" font-family="Helvetica,sans-Serif" font-size="10.00">Specific.setParameters</text>
</a>
</g>
</g>
<!-- Node8&#45;&gt;Node33 -->
<g id="edge44" class="edge"><title>Node8&#45;&gt;Node33</title>
<path fill="none" stroke="midnightblue" d="M691.909,-217.047C707.623,-229.745 731.044,-247.041 754,-257.89 761.333,-261.355 769.14,-264.486 777.074,-267.298"/>
<polygon fill="midnightblue" stroke="midnightblue" points="693.964,-214.205 684.025,-210.537 689.507,-219.603 693.964,-214.205"/>
</g>
<!-- Node10 -->
<g id="node10" class="node"><title>Node10</title>
<g id="a_node10"><a xlink:href="classtomoBay_1_1model_1_1sql_1_1framework_1_1QueryUtility.html#a3249b16421a9902f2248cb86d4dd3be3" target="_top" xlink:title="set an Integer parameter for the query object specified. ">
<polygon fill="white" stroke="black" points="1009,-474.39 1009,-493.39 1118,-493.39 1118,-474.39 1009,-474.39"/>
<text text-anchor="middle" x="1063.5" y="-481.39" font-family="Helvetica,sans-Serif" font-size="10.00">setVARCHARParam</text>
</a>
</g>
</g>
<!-- Node9&#45;&gt;Node10 -->
<g id="edge9" class="edge"><title>Node9&#45;&gt;Node10</title>
<path fill="none" stroke="midnightblue" d="M916.164,-237.604C935.801,-239.584 957.217,-245.034 973,-257.89 1044.33,-315.991 1059.08,-439.024 1061.88,-474.27"/>
<polygon fill="midnightblue" stroke="midnightblue" points="916.327,-234.107 906.097,-236.864 915.814,-241.088 916.327,-234.107"/>
</g>
<!-- Node10&#45;&gt;Node6 -->
<g id="edge26" class="edge"><title>Node10&#45;&gt;Node6</title>
<path fill="none" stroke="midnightblue" d="M1085,-499.648C1102.42,-512.232 1128.57,-529.293 1154,-538.89 1251.89,-575.836 1303.59,-514.414 1386,-578.89 1417.35,-603.416 1391.9,-634.842 1422,-660.89 1428.35,-666.39 1435.64,-670.888 1443.35,-674.567"/>
<polygon fill="midnightblue" stroke="midnightblue" points="1086.86,-496.671 1076.74,-493.54 1082.7,-502.299 1086.86,-496.671"/>
</g>
<!-- Node11 -->
<g id="node11" class="node"><title>Node11</title>
<g id="a_node11"><a xlink:href="classtomoBay_1_1model_1_1sql_1_1framework_1_1QueryUtility.html#aca3b74b8ac7e194a86c0b896a674e2f2" target="_top" xlink:title="set an Integer parameter for the query object specified. ">
<polygon fill="white" stroke="black" points="1218,-474.39 1218,-493.39 1322,-493.39 1322,-474.39 1218,-474.39"/>
<text text-anchor="middle" x="1270" y="-481.39" font-family="Helvetica,sans-Serif" font-size="10.00">setINTEGERParam</text>
</a>
</g>
</g>
<!-- Node10&#45;&gt;Node11 -->
<g id="edge10" class="edge"><title>Node10&#45;&gt;Node11</title>
<path fill="none" stroke="midnightblue" d="M1128.58,-483.89C1157.3,-483.89 1190.72,-483.89 1217.74,-483.89"/>
<polygon fill="midnightblue" stroke="midnightblue" points="1128.23,-480.39 1118.23,-483.89 1128.23,-487.39 1128.23,-480.39"/>
</g>
<!-- Node14 -->
<g id="node14" class="node"><title>Node14</title>
<g id="a_node14"><a xlink:href="classtomoBay_1_1model_1_1sql_1_1queries_1_1concreteQueries_1_1update_1_1UpdateInvoiceStatus.html#af9020b85517904668d036bc2bf89433c" target="_top" xlink:title="tomoBay.model.sql.queries.concrete\lQueries.update.UpdateInvoiceStatus.set\lParameters">
<polygon fill="white" stroke="black" points="1434.5,-610.39 1434.5,-651.39 1628.5,-651.39 1628.5,-610.39 1434.5,-610.39"/>
<text text-anchor="start" x="1442.5" y="-639.39" font-family="Helvetica,sans-Serif" font-size="10.00">tomoBay.model.sql.queries.concrete</text>
<text text-anchor="start" x="1442.5" y="-628.39" font-family="Helvetica,sans-Serif" font-size="10.00">Queries.update.UpdateInvoiceStatus.set</text>
<text text-anchor="middle" x="1531.5" y="-617.39" font-family="Helvetica,sans-Serif" font-size="10.00">Parameters</text>
</a>
</g>
</g>
<!-- Node10&#45;&gt;Node14 -->
<g id="edge22" class="edge"><title>Node10&#45;&gt;Node14</title>
<path fill="none" stroke="midnightblue" d="M1118.29,-495.545C1130.05,-498.027 1142.43,-500.59 1154,-502.89 1256.85,-523.336 1298.7,-487.786 1386,-545.89 1410.32,-562.077 1398.4,-583.666 1422,-600.89 1426.89,-604.462 1432.19,-607.608 1437.73,-610.38"/>
<polygon fill="midnightblue" stroke="midnightblue" points="1118.66,-492.047 1108.15,-493.394 1117.21,-498.894 1118.66,-492.047"/>
</g>
<!-- Node10&#45;&gt;Node16 -->
<g id="edge27" class="edge"><title>Node10&#45;&gt;Node16</title>
<path fill="none" stroke="midnightblue" d="M1068.5,-464.318C1077.05,-428.15 1100.82,-351.483 1154,-317.89 1197.02,-290.715 1326.69,-289.543 1421.87,-292.811"/>
<polygon fill="midnightblue" stroke="midnightblue" points="1065.07,-463.629 1066.32,-474.149 1071.9,-465.144 1065.07,-463.629"/>
</g>
<!-- Node10&#45;&gt;Node17 -->
<g id="edge28" class="edge"><title>Node10&#45;&gt;Node17</title>
<path fill="none" stroke="midnightblue" d="M1067.12,-464.062C1073.62,-423.468 1094.52,-331.087 1154,-287.89 1196.85,-256.771 1334.72,-247.786 1431.14,-245.403"/>
<polygon fill="midnightblue" stroke="midnightblue" points="1063.64,-463.651 1065.64,-474.055 1070.56,-464.671 1063.64,-463.651"/>
</g>
<!-- Node18 -->
<g id="node18" class="node"><title>Node18</title>
<g id="a_node18"><a xlink:href="classtomoBay_1_1model_1_1sql_1_1queries_1_1concreteQueries_1_1select_1_1params_1_1SelectBuyerByAccAndSRN.html#af9020b85517904668d036bc2bf89433c" target="_top" xlink:title="tomoBay.model.sql.queries.concrete\lQueries.select.params.SelectBuyerBy\lAccAndSRN.setParameters">
<polygon fill="white" stroke="black" points="1440,-332.39 1440,-373.39 1623,-373.39 1623,-332.39 1440,-332.39"/>
<text text-anchor="start" x="1448" y="-361.39" font-family="Helvetica,sans-Serif" font-size="10.00">tomoBay.model.sql.queries.concrete</text>
<text text-anchor="start" x="1448" y="-350.39" font-family="Helvetica,sans-Serif" font-size="10.00">Queries.select.params.SelectBuyerBy</text>
<text text-anchor="middle" x="1531.5" y="-339.39" font-family="Helvetica,sans-Serif" font-size="10.00">AccAndSRN.setParameters</text>
</a>
</g>
</g>
<!-- Node10&#45;&gt;Node18 -->
<g id="edge30" class="edge"><title>Node10&#45;&gt;Node18</title>
<path fill="none" stroke="midnightblue" d="M1117.53,-472.205C1129.5,-469.685 1142.17,-467.113 1154,-464.89 1256.69,-445.591 1295.52,-479.143 1386,-426.89 1407.88,-414.254 1400.83,-396.682 1422,-382.89 1427.57,-379.263 1433.57,-376.07 1439.79,-373.26"/>
<polygon fill="midnightblue" stroke="midnightblue" points="1116.72,-468.798 1107.66,-474.3 1118.17,-475.645 1116.72,-468.798"/>
</g>
<!-- Node20 -->
<g id="node20" class="node"><title>Node20</title>
<g id="a_node20"><a xlink:href="classtomoBay_1_1model_1_1sql_1_1queries_1_1concreteQueries_1_1insert_1_1InsertOrderInOrderStatus.html#af9020b85517904668d036bc2bf89433c" target="_top" xlink:title="tomoBay.model.sql.queries.concrete\lQueries.insert.InsertOrderInOrderStatus.set\lParameters">
<polygon fill="white" stroke="black" points="1167,-376.39 1167,-417.39 1373,-417.39 1373,-376.39 1167,-376.39"/>
<text text-anchor="start" x="1175" y="-405.39" font-family="Helvetica,sans-Serif" font-size="10.00">tomoBay.model.sql.queries.concrete</text>
<text text-anchor="start" x="1175" y="-394.39" font-family="Helvetica,sans-Serif" font-size="10.00">Queries.insert.InsertOrderInOrderStatus.set</text>
<text text-anchor="middle" x="1270" y="-383.39" font-family="Helvetica,sans-Serif" font-size="10.00">Parameters</text>
</a>
</g>
</g>
<!-- Node10&#45;&gt;Node20 -->
<g id="edge21" class="edge"><title>Node10&#45;&gt;Node20</title>
<path fill="none" stroke="midnightblue" d="M1087,-468.854C1104.65,-457.549 1130.15,-442.281 1154,-431.89 1166.24,-426.555 1179.55,-421.7 1192.63,-417.419"/>
<polygon fill="midnightblue" stroke="midnightblue" points="1085.01,-465.974 1078.53,-474.359 1088.82,-471.843 1085.01,-465.974"/>
</g>
<!-- Node10&#45;&gt;Node21 -->
<g id="edge23" class="edge"><title>Node10&#45;&gt;Node21</title>
<path fill="none" stroke="midnightblue" d="M1066.02,-463.937C1070.59,-418.359 1088.28,-305.996 1154,-246.89 1160.83,-240.75 1168.76,-235.838 1177.2,-231.913"/>
<polygon fill="midnightblue" stroke="midnightblue" points="1062.52,-463.741 1065.12,-474.012 1069.49,-464.364 1062.52,-463.741"/>
</g>
<!-- Node10&#45;&gt;Node22 -->
<g id="edge24" class="edge"><title>Node10&#45;&gt;Node22</title>
<path fill="none" stroke="midnightblue" d="M1064.34,-464.094C1065.05,-411.557 1074.52,-267.467 1154,-191.89 1159.15,-186.995 1165,-182.893 1171.26,-179.458"/>
<polygon fill="midnightblue" stroke="midnightblue" points="1060.84,-464.362 1064.3,-474.374 1067.84,-464.387 1060.84,-464.362"/>
</g>
<!-- Node10&#45;&gt;Node23 -->
<g id="edge25" class="edge"><title>Node10&#45;&gt;Node23</title>
<path fill="none" stroke="midnightblue" d="M1066.78,-464.303C1074.95,-397.454 1104.93,-179.85 1154,-132.89 1157.54,-129.506 1161.42,-126.545 1165.56,-123.958"/>
<polygon fill="midnightblue" stroke="midnightblue" points="1063.29,-463.984 1065.58,-474.329 1070.24,-464.815 1063.29,-463.984"/>
</g>
<!-- Node24 -->
<g id="node24" class="node"><title>Node24</title>
<g id="a_node24"><a xlink:href="classtomoBay_1_1model_1_1sql_1_1queries_1_1concreteQueries_1_1update_1_1UpdateEbayBuyer.html#af9020b85517904668d036bc2bf89433c" target="_top" xlink:title="tomoBay.model.sql.queries.concrete\lQueries.update.UpdateEbayBuyer.setParameters">
<polygon fill="white" stroke="black" points="1154,-327.89 1154,-357.89 1386,-357.89 1386,-327.89 1154,-327.89"/>
<text text-anchor="start" x="1162" y="-345.89" font-family="Helvetica,sans-Serif" font-size="10.00">tomoBay.model.sql.queries.concrete</text>
<text text-anchor="middle" x="1270" y="-334.89" font-family="Helvetica,sans-Serif" font-size="10.00">Queries.update.UpdateEbayBuyer.setParameters</text>
</a>
</g>
</g>
<!-- Node10&#45;&gt;Node24 -->
<g id="edge29" class="edge"><title>Node10&#45;&gt;Node24</title>
<path fill="none" stroke="midnightblue" d="M1073.38,-465.173C1086.9,-438.823 1115.23,-391.291 1154,-366.89 1159.44,-363.468 1165.28,-360.524 1171.34,-357.994"/>
<polygon fill="midnightblue" stroke="midnightblue" points="1070.24,-463.628 1068.93,-474.142 1076.51,-466.738 1070.24,-463.628"/>
</g>
<!-- Node25 -->
<g id="node25" class="node"><title>Node25</title>
<g id="a_node25"><a xlink:href="classtomoBay_1_1model_1_1sql_1_1queries_1_1concreteQueries_1_1insert_1_1InsertEbayBuyers.html#af9020b85517904668d036bc2bf89433c" target="_top" xlink:title="tomoBay.model.sql.queries.concrete\lQueries.insert.InsertEbayBuyers.set\lParameters">
<polygon fill="white" stroke="black" points="1182,-948.39 1182,-989.39 1358,-989.39 1358,-948.39 1182,-948.39"/>
<text text-anchor="start" x="1190" y="-977.39" font-family="Helvetica,sans-Serif" font-size="10.00">tomoBay.model.sql.queries.concrete</text>
<text text-anchor="start" x="1190" y="-966.39" font-family="Helvetica,sans-Serif" font-size="10.00">Queries.insert.InsertEbayBuyers.set</text>
<text text-anchor="middle" x="1270" y="-955.39" font-family="Helvetica,sans-Serif" font-size="10.00">Parameters</text>
</a>
</g>
</g>
<!-- Node10&#45;&gt;Node25 -->
<g id="edge31" class="edge"><title>Node10&#45;&gt;Node25</title>
<path fill="none" stroke="midnightblue" d="M1065.67,-503.823C1070.7,-583.011 1093.14,-874.201 1154,-938.89 1161.71,-947.08 1171.34,-953.143 1181.74,-957.613"/>
<polygon fill="midnightblue" stroke="midnightblue" points="1069.15,-503.496 1065.05,-493.73 1062.17,-503.925 1069.15,-503.496"/>
</g>
<!-- Node26 -->
<g id="node26" class="node"><title>Node26</title>
<g id="a_node26"><a xlink:href="classtomoBay_1_1model_1_1sql_1_1queries_1_1concreteQueries_1_1select_1_1params_1_1SelectEbayOrderByBuyer.html#af9020b85517904668d036bc2bf89433c" target="_top" xlink:title="tomoBay.model.sql.queries.concrete\lQueries.select.params.SelectEbayOrder\lByBuyer.setParameters">
<polygon fill="white" stroke="black" points="1174,-888.39 1174,-929.39 1366,-929.39 1366,-888.39 1174,-888.39"/>
<text text-anchor="start" x="1182" y="-917.39" font-family="Helvetica,sans-Serif" font-size="10.00">tomoBay.model.sql.queries.concrete</text>
<text text-anchor="start" x="1182" y="-906.39" font-family="Helvetica,sans-Serif" font-size="10.00">Queries.select.params.SelectEbayOrder</text>
<text text-anchor="middle" x="1270" y="-895.39" font-family="Helvetica,sans-Serif" font-size="10.00">ByBuyer.setParameters</text>
</a>
</g>
</g>
<!-- Node10&#45;&gt;Node26 -->
<g id="edge32" class="edge"><title>Node10&#45;&gt;Node26</title>
<path fill="none" stroke="midnightblue" d="M1066.28,-503.459C1073.19,-575.377 1100.61,-823.744 1154,-878.89 1159.74,-884.82 1166.5,-889.629 1173.81,-893.523"/>
<polygon fill="midnightblue" stroke="midnightblue" points="1069.76,-503.118 1065.34,-493.488 1062.79,-503.771 1069.76,-503.118"/>
</g>
<!-- Node27 -->
<g id="node27" class="node"><title>Node27</title>
<g id="a_node27"><a xlink:href="classtomoBay_1_1model_1_1sql_1_1queries_1_1concreteQueries_1_1select_1_1params_1_1SelectTransactionByOrder.html#af9020b85517904668d036bc2bf89433c" target="_top" xlink:title="tomoBay.model.sql.queries.concrete\lQueries.select.params.SelectTransaction\lByOrder.setParameters">
<polygon fill="white" stroke="black" points="1171.5,-828.39 1171.5,-869.39 1368.5,-869.39 1368.5,-828.39 1171.5,-828.39"/>
<text text-anchor="start" x="1179.5" y="-857.39" font-family="Helvetica,sans-Serif" font-size="10.00">tomoBay.model.sql.queries.concrete</text>
<text text-anchor="start" x="1179.5" y="-846.39" font-family="Helvetica,sans-Serif" font-size="10.00">Queries.select.params.SelectTransaction</text>
<text text-anchor="middle" x="1270" y="-835.39" font-family="Helvetica,sans-Serif" font-size="10.00">ByOrder.setParameters</text>
</a>
</g>
</g>
<!-- Node10&#45;&gt;Node27 -->
<g id="edge33" class="edge"><title>Node10&#45;&gt;Node27</title>
<path fill="none" stroke="midnightblue" d="M1067.17,-503.754C1076.29,-568.724 1108.19,-773.347 1154,-818.89 1159.12,-823.981 1164.99,-828.241 1171.31,-831.802"/>
<polygon fill="midnightblue" stroke="midnightblue" points="1070.61,-503.056 1065.78,-493.626 1063.67,-504.01 1070.61,-503.056"/>
</g>
<!-- Node28 -->
<g id="node28" class="node"><title>Node28</title>
<g id="a_node28"><a xlink:href="classtomoBay_1_1model_1_1sql_1_1queries_1_1concreteQueries_1_1select_1_1params_1_1SelectBrandAndPartNoByOrderID.html#af9020b85517904668d036bc2bf89433c" target="_top" xlink:title="tomoBay.model.sql.queries.concrete\lQueries.select.params.SelectBrandAnd\lPartNoByOrderID.setParameters">
<polygon fill="white" stroke="black" points="1176,-768.39 1176,-809.39 1364,-809.39 1364,-768.39 1176,-768.39"/>
<text text-anchor="start" x="1184" y="-797.39" font-family="Helvetica,sans-Serif" font-size="10.00">tomoBay.model.sql.queries.concrete</text>
<text text-anchor="start" x="1184" y="-786.39" font-family="Helvetica,sans-Serif" font-size="10.00">Queries.select.params.SelectBrandAnd</text>
<text text-anchor="middle" x="1270" y="-775.39" font-family="Helvetica,sans-Serif" font-size="10.00">PartNoByOrderID.setParameters</text>
</a>
</g>
</g>
<!-- Node10&#45;&gt;Node28 -->
<g id="edge34" class="edge"><title>Node10&#45;&gt;Node28</title>
<path fill="none" stroke="midnightblue" d="M1064.82,-503.858C1066.76,-554.384 1079.08,-688.296 1154,-758.89 1160.38,-764.904 1167.82,-769.747 1175.77,-773.644"/>
<polygon fill="midnightblue" stroke="midnightblue" points="1068.31,-503.536 1064.53,-493.638 1061.32,-503.733 1068.31,-503.536"/>
</g>
<!-- Node29 -->
<g id="node29" class="node"><title>Node29</title>
<g id="a_node29"><a xlink:href="classtomoBay_1_1model_1_1sql_1_1queries_1_1concreteQueries_1_1select_1_1params_1_1SelectEbayOrderByID.html#af9020b85517904668d036bc2bf89433c" target="_top" xlink:title="tomoBay.model.sql.queries.concrete\lQueries.select.params.SelectEbayOrder\lByID.setParameters">
<polygon fill="white" stroke="black" points="1174,-708.39 1174,-749.39 1366,-749.39 1366,-708.39 1174,-708.39"/>
<text text-anchor="start" x="1182" y="-737.39" font-family="Helvetica,sans-Serif" font-size="10.00">tomoBay.model.sql.queries.concrete</text>
<text text-anchor="start" x="1182" y="-726.39" font-family="Helvetica,sans-Serif" font-size="10.00">Queries.select.params.SelectEbayOrder</text>
<text text-anchor="middle" x="1270" y="-715.39" font-family="Helvetica,sans-Serif" font-size="10.00">ByID.setParameters</text>
</a>
</g>
</g>
<!-- Node10&#45;&gt;Node29 -->
<g id="edge35" class="edge"><title>Node10&#45;&gt;Node29</title>
<path fill="none" stroke="midnightblue" d="M1066.87,-503.727C1073.03,-546.189 1093.51,-646.285 1154,-698.89 1159.92,-704.035 1166.61,-708.314 1173.72,-711.87"/>
<polygon fill="midnightblue" stroke="midnightblue" points="1070.34,-503.248 1065.55,-493.799 1063.4,-504.175 1070.34,-503.248"/>
</g>
<!-- Node30 -->
<g id="node30" class="node"><title>Node30</title>
<g id="a_node30"><a xlink:href="classtomoBay_1_1model_1_1sql_1_1queries_1_1concreteQueries_1_1select_1_1params_1_1SelectEbayBuyer.html#af9020b85517904668d036bc2bf89433c" target="_top" xlink:title="tomoBay.model.sql.queries.concrete\lQueries.select.params.SelectEbayBuyer.set\lParameters">
<polygon fill="white" stroke="black" points="1165,-648.39 1165,-689.39 1375,-689.39 1375,-648.39 1165,-648.39"/>
<text text-anchor="start" x="1173" y="-677.39" font-family="Helvetica,sans-Serif" font-size="10.00">tomoBay.model.sql.queries.concrete</text>
<text text-anchor="start" x="1173" y="-666.39" font-family="Helvetica,sans-Serif" font-size="10.00">Queries.select.params.SelectEbayBuyer.set</text>
<text text-anchor="middle" x="1270" y="-655.39" font-family="Helvetica,sans-Serif" font-size="10.00">Parameters</text>
</a>
</g>
</g>
<!-- Node10&#45;&gt;Node30 -->
<g id="edge36" class="edge"><title>Node10&#45;&gt;Node30</title>
<path fill="none" stroke="midnightblue" d="M1070.29,-503.514C1081.11,-536.648 1107.59,-603.525 1154,-638.89 1158.68,-642.454 1163.74,-645.597 1169.04,-648.367"/>
<polygon fill="midnightblue" stroke="midnightblue" points="1073.54,-502.168 1067.22,-493.665 1066.86,-504.253 1073.54,-502.168"/>
</g>
<!-- Node31 -->
<g id="node31" class="node"><title>Node31</title>
<g id="a_node31"><a xlink:href="classtomoBay_1_1model_1_1sql_1_1queries_1_1concreteQueries_1_1select_1_1params_1_1SelectFullOrderLine.html#af9020b85517904668d036bc2bf89433c" target="_top" xlink:title="tomoBay.model.sql.queries.concrete\lQueries.select.params.SelectFullOrder\lLine.setParameters">
<polygon fill="white" stroke="black" points="1177.5,-588.39 1177.5,-629.39 1362.5,-629.39 1362.5,-588.39 1177.5,-588.39"/>
<text text-anchor="start" x="1185.5" y="-617.39" font-family="Helvetica,sans-Serif" font-size="10.00">tomoBay.model.sql.queries.concrete</text>
<text text-anchor="start" x="1185.5" y="-606.39" font-family="Helvetica,sans-Serif" font-size="10.00">Queries.select.params.SelectFullOrder</text>
<text text-anchor="middle" x="1270" y="-595.39" font-family="Helvetica,sans-Serif" font-size="10.00">Line.setParameters</text>
</a>
</g>
</g>
<!-- Node10&#45;&gt;Node31 -->
<g id="edge37" class="edge"><title>Node10&#45;&gt;Node31</title>
<path fill="none" stroke="midnightblue" d="M1077.68,-501.671C1093.61,-521.958 1122.26,-554.785 1154,-573.89 1163.3,-579.486 1173.56,-584.253 1184.02,-588.297"/>
<polygon fill="midnightblue" stroke="midnightblue" points="1080.33,-499.383 1071.47,-493.574 1074.78,-503.641 1080.33,-499.383"/>
</g>
<!-- Node11&#45;&gt;Node3 -->
<g id="edge14" class="edge"><title>Node11&#45;&gt;Node3</title>
<path fill="none" stroke="midnightblue" d="M1297.54,-498.869C1323.96,-515.163 1363.7,-543.658 1386,-578.89 1420.82,-633.903 1397.07,-660.744 1422,-720.89 1447.85,-783.248 1492.39,-849.721 1515.54,-882.371"/>
<polygon fill="midnightblue" stroke="midnightblue" points="1299.17,-495.769 1288.8,-493.623 1295.57,-501.771 1299.17,-495.769"/>
</g>
<!-- Node11&#45;&gt;Node6 -->
<g id="edge17" class="edge"><title>Node11&#45;&gt;Node6</title>
<path fill="none" stroke="midnightblue" d="M1312.16,-497.088C1336.77,-506.933 1366.88,-522.722 1386,-545.89 1420.09,-587.2 1383.5,-623.661 1422,-660.89 1428.25,-666.935 1435.61,-671.786 1443.5,-675.673"/>
<polygon fill="midnightblue" stroke="midnightblue" points="1313.28,-493.768 1302.68,-493.478 1310.78,-500.31 1313.28,-493.768"/>
</g>
<!-- Node12 -->
<g id="node12" class="node"><title>Node12</title>
<g id="a_node12"><a xlink:href="classtomoBay_1_1model_1_1sql_1_1framework_1_1QueryUtility.html#a2da2ce60a8a037d55bdc69309db4815b" target="_top" xlink:title="private ctor ensures that this class is never instantiated ">
<polygon fill="white" stroke="black" points="1497.5,-512.39 1497.5,-531.39 1565.5,-531.39 1565.5,-512.39 1497.5,-512.39"/>
<text text-anchor="middle" x="1531.5" y="-519.39" font-family="Helvetica,sans-Serif" font-size="10.00">QueryUtility</text>
</a>
</g>
</g>
<!-- Node11&#45;&gt;Node12 -->
<g id="edge11" class="edge"><title>Node11&#45;&gt;Node12</title>
<path fill="none" stroke="midnightblue" d="M1332.32,-492.869C1383.99,-500.436 1455.95,-510.973 1497.44,-517.048"/>
<polygon fill="midnightblue" stroke="midnightblue" points="1332.67,-489.383 1322.27,-491.398 1331.66,-496.31 1332.67,-489.383"/>
</g>
<!-- Node13 -->
<g id="node13" class="node"><title>Node13</title>
<g id="a_node13"><a xlink:href="classtomoBay_1_1model_1_1sql_1_1queries_1_1concreteQueries_1_1update_1_1UpdateInvoiceStatusSRN.html#af9020b85517904668d036bc2bf89433c" target="_top" xlink:title="tomoBay.model.sql.queries.concrete\lQueries.update.UpdateInvoiceStatusSRN.set\lParameters">
<polygon fill="white" stroke="black" points="1424,-452.39 1424,-493.39 1639,-493.39 1639,-452.39 1424,-452.39"/>
<text text-anchor="start" x="1432" y="-481.39" font-family="Helvetica,sans-Serif" font-size="10.00">tomoBay.model.sql.queries.concrete</text>
<text text-anchor="start" x="1432" y="-470.39" font-family="Helvetica,sans-Serif" font-size="10.00">Queries.update.UpdateInvoiceStatusSRN.set</text>
<text text-anchor="middle" x="1531.5" y="-459.39" font-family="Helvetica,sans-Serif" font-size="10.00">Parameters</text>
</a>
</g>
</g>
<!-- Node11&#45;&gt;Node13 -->
<g id="edge12" class="edge"><title>Node11&#45;&gt;Node13</title>
<path fill="none" stroke="midnightblue" d="M1332.44,-481.286C1359.74,-480.128 1392.69,-478.732 1423.8,-477.413"/>
<polygon fill="midnightblue" stroke="midnightblue" points="1332.11,-477.796 1322.27,-481.717 1332.41,-484.79 1332.11,-477.796"/>
</g>
<!-- Node11&#45;&gt;Node14 -->
<g id="edge13" class="edge"><title>Node11&#45;&gt;Node14</title>
<path fill="none" stroke="midnightblue" d="M1332.25,-485.473C1351.25,-488.71 1371.1,-495.251 1386,-507.89 1419.8,-536.565 1389.14,-571.148 1422,-600.89 1425.91,-604.431 1430.21,-607.559 1434.76,-610.321"/>
<polygon fill="midnightblue" stroke="midnightblue" points="1332.5,-481.975 1322.11,-484.032 1331.52,-488.905 1332.5,-481.975"/>
</g>
<!-- Node15 -->
<g id="node15" class="node"><title>Node15</title>
<g id="a_node15"><a xlink:href="classtomoBay_1_1model_1_1sql_1_1queries_1_1concreteQueries_1_1select_1_1params_1_1SelectEbayOrderHistoryLastNDays.html#af9020b85517904668d036bc2bf89433c" target="_top" xlink:title="tomoBay.model.sql.queries.concrete\lQueries.select.params.SelectEbayOrder\lHistoryLastNDays.setParameters">
<polygon fill="white" stroke="black" points="1435.5,-392.39 1435.5,-433.39 1627.5,-433.39 1627.5,-392.39 1435.5,-392.39"/>
<text text-anchor="start" x="1443.5" y="-421.39" font-family="Helvetica,sans-Serif" font-size="10.00">tomoBay.model.sql.queries.concrete</text>
<text text-anchor="start" x="1443.5" y="-410.39" font-family="Helvetica,sans-Serif" font-size="10.00">Queries.select.params.SelectEbayOrder</text>
<text text-anchor="middle" x="1531.5" y="-399.39" font-family="Helvetica,sans-Serif" font-size="10.00">HistoryLastNDays.setParameters</text>
</a>
</g>
</g>
<!-- Node11&#45;&gt;Node15 -->
<g id="edge15" class="edge"><title>Node11&#45;&gt;Node15</title>
<path fill="none" stroke="midnightblue" d="M1332.23,-473.893C1349.81,-470.277 1368.86,-465.634 1386,-459.89 1402.78,-454.266 1405.41,-449.048 1422,-442.89 1430.98,-439.557 1440.49,-436.401 1450.01,-433.476"/>
<polygon fill="midnightblue" stroke="midnightblue" points="1331.2,-470.529 1322.07,-475.904 1332.56,-477.396 1331.2,-470.529"/>
</g>
<!-- Node11&#45;&gt;Node16 -->
<g id="edge16" class="edge"><title>Node11&#45;&gt;Node16</title>
<path fill="none" stroke="midnightblue" d="M1315.67,-470.957C1339.44,-462.029 1367.49,-447.909 1386,-426.89 1418.32,-390.179 1385.47,-355.422 1422,-322.89 1425.82,-319.49 1430.01,-316.536 1434.45,-313.974"/>
<polygon fill="midnightblue" stroke="midnightblue" points="1314.38,-467.703 1306.13,-474.356 1316.72,-474.297 1314.38,-467.703"/>
</g>
<!-- Node11&#45;&gt;Node17 -->
<g id="edge18" class="edge"><title>Node11&#45;&gt;Node17</title>
<path fill="none" stroke="midnightblue" d="M1318.3,-471.021C1341.92,-462.266 1369.02,-448.29 1386,-426.89 1429.43,-372.172 1373.35,-324.024 1422,-273.89 1424.99,-270.812 1428.26,-268.048 1431.75,-265.568"/>
<polygon fill="midnightblue" stroke="midnightblue" points="1317.05,-467.748 1308.77,-474.348 1319.36,-474.357 1317.05,-467.748"/>
</g>
<!-- Node11&#45;&gt;Node18 -->
<g id="edge19" class="edge"><title>Node11&#45;&gt;Node18</title>
<path fill="none" stroke="midnightblue" d="M1332.25,-481.615C1351.08,-478.313 1370.82,-471.908 1386,-459.89 1415.62,-436.442 1393.15,-407.274 1422,-382.89 1427.37,-378.349 1433.38,-374.492 1439.74,-371.216"/>
<polygon fill="midnightblue" stroke="midnightblue" points="1331.6,-478.174 1322.22,-483.11 1332.63,-485.098 1331.6,-478.174"/>
</g>
<!-- Node19 -->
<g id="node19" class="node"><title>Node19</title>
<g id="a_node19"><a xlink:href="classtomoBay_1_1model_1_1sql_1_1queries_1_1concreteQueries_1_1select_1_1params_1_1SelectBrandByInv.html#af9020b85517904668d036bc2bf89433c" target="_top" xlink:title="tomoBay.model.sql.queries.concrete\lQueries.select.params.SelectBrandBy\lInv.setParameters">
<polygon fill="white" stroke="black" points="1440,-550.39 1440,-591.39 1623,-591.39 1623,-550.39 1440,-550.39"/>
<text text-anchor="start" x="1448" y="-579.39" font-family="Helvetica,sans-Serif" font-size="10.00">tomoBay.model.sql.queries.concrete</text>
<text text-anchor="start" x="1448" y="-568.39" font-family="Helvetica,sans-Serif" font-size="10.00">Queries.select.params.SelectBrandBy</text>
<text text-anchor="middle" x="1531.5" y="-557.39" font-family="Helvetica,sans-Serif" font-size="10.00">Inv.setParameters</text>
</a>
</g>
</g>
<!-- Node11&#45;&gt;Node19 -->
<g id="edge20" class="edge"><title>Node11&#45;&gt;Node19</title>
<path fill="none" stroke="midnightblue" d="M1332.08,-490.379C1350.13,-493.925 1369.46,-499.409 1386,-507.89 1405.31,-517.794 1403.01,-530.373 1422,-540.89 1428.33,-544.394 1435.09,-547.512 1442.03,-550.282"/>
<polygon fill="midnightblue" stroke="midnightblue" points="1332.68,-486.93 1322.21,-488.601 1331.44,-493.819 1332.68,-486.93"/>
</g>
</g>
</svg>
        <g id="navigator" transform="translate(0 0)" fill="#404254">
                <rect fill="#f2f5e9" fill-opacity="0.5" stroke="#606060" stroke-width=".5" x="0" y="0" width="60" height="60"/>
                <use id="zoomplus" xlink:href="#zoomPlus" x="17" y="9" onmousedown="handleZoom(evt,'in')"/>
                <use id="zoomminus" xlink:href="#zoomMin" x="42" y="9" onmousedown="handleZoom(evt,'out')"/>
                <use id="reset" xlink:href="#resetDef" x="30" y="36" onmousedown="handleReset()"/>
                <g id="arrowUp" xlink:href="#dirArrow" transform="translate(30 24)" onmousedown="handlePan(0,-1)">
                  <use xlink:href="#rim" fill="#404040">
                        <set attributeName="fill" to="#808080" begin="arrowUp.mouseover" end="arrowUp.mouseout"/>
                  </use>
                  <path fill="none" stroke="white" stroke-width="1.5" d="M0,-3.0v7 M-2.5,-0.5L0,-3.0L2.5,-0.5"/>
                </g>
                <g id="arrowRight" xlink:href="#dirArrow" transform="rotate(90) translate(36 -43)" onmousedown="handlePan(1,0)">
                  <use xlink:href="#rim" fill="#404040">
                        <set attributeName="fill" to="#808080" begin="arrowRight.mouseover" end="arrowRight.mouseout"/>
                  </use>
                  <path fill="none" stroke="white" stroke-width="1.5" d="M0,-3.0v7 M-2.5,-0.5L0,-3.0L2.5,-0.5"/>
                </g>
                <g id="arrowDown" xlink:href="#dirArrow" transform="rotate(180) translate(-30 -48)" onmousedown="handlePan(0,1)">
                  <use xlink:href="#rim" fill="#404040">
                        <set attributeName="fill" to="#808080" begin="arrowDown.mouseover" end="arrowDown.mouseout"/>
                  </use>
                  <path fill="none" stroke="white" stroke-width="1.5" d="M0,-3.0v7 M-2.5,-0.5L0,-3.0L2.5,-0.5"/>
                </g>
                <g id="arrowLeft" xlink:href="#dirArrow" transform="rotate(270) translate(-36 17)" onmousedown="handlePan(-1,0)">
                  <use xlink:href="#rim" fill="#404040">
                        <set attributeName="fill" to="#808080" begin="arrowLeft.mouseover" end="arrowLeft.mouseout"/>
                  </use>
                  <path fill="none" stroke="white" stroke-width="1.5" d="M0,-3.0v7 M-2.5,-0.5L0,-3.0L2.5,-0.5"/>
                </g>
        </g>
        <svg viewBox="0 0 15 15" width="100%" height="30px" preserveAspectRatio="xMaxYMin meet">
         <g id="arrow_out" transform="scale(0.3 0.3)">
          <a xlink:href="classtomoBay_1_1model_1_1sql_1_1framework_1_1QueryUtility_a5677c2440b48e612fb51b57130555e5d_icgraph_org.svg" target="_base">
           <rect id="button" ry="5" rx="5" y="6" x="6" height="38" width="38"
                fill="#f2f5e9" fill-opacity="0.5" stroke="#606060" stroke-width="1.0"/>
           <path id="arrow"
             d="M 11.500037,31.436501 C 11.940474,20.09759 22.043105,11.32322 32.158766,21.979434 L 37.068811,17.246167 C 37.068811,17.246167 37.088388,32 37.088388,32 L 22.160133,31.978069 C 22.160133,31.978069 26.997745,27.140456 26.997745,27.140456 C 18.528582,18.264221 13.291696,25.230495 11.500037,31.436501 z"
             style="fill:#404040;"/>
          </a>
         </g>
        </svg>
</svg>
