<?xml version="1.0" encoding="UTF-8" standalone="no"?>
<!DOCTYPE svg PUBLIC "-//W3C//DTD SVG 1.1//EN"
 "http://www.w3.org/Graphics/SVG/1.1/DTD/svg11.dtd">
<!-- Generated by graphviz version 2.38.0 (20140413.2041)
 -->
<!-- Title: OnRunning Pages: 1 -->
<svg width="182pt" height="204pt"
 viewBox="0.00 0.00 182.00 204.00" xmlns="http://www.w3.org/2000/svg" xmlns:xlink="http://www.w3.org/1999/xlink">
<g id="graph0" class="graph" transform="scale(1 1) rotate(0) translate(4 200)">
<title>OnRunning</title>
<polygon fill="white" stroke="none" points="-4,4 -4,-200 178,-200 178,4 -4,4"/>
<!-- Node1 -->
<g id="node1" class="node"><title>Node1</title>
<polygon fill="#bfbfbf" stroke="black" points="61.5,-0.5 61.5,-90.5 144.5,-90.5 144.5,-0.5 61.5,-0.5"/>
<text text-anchor="middle" x="103" y="-78.5" font-family="Helvetica,sans-Serif" font-size="10.00">OnRunning</text>
<polyline fill="none" stroke="black" points="61.5,-71.5 144.5,-71.5 "/>
<text text-anchor="start" x="69.5" y="-59.5" font-family="Helvetica,sans-Serif" font-size="10.00">&#45; listingID_M</text>
<polyline fill="none" stroke="black" points="61.5,-52.5 144.5,-52.5 "/>
<text text-anchor="start" x="69.5" y="-40.5" font-family="Helvetica,sans-Serif" font-size="10.00">+ OnRunning()</text>
<text text-anchor="start" x="69.5" y="-29.5" font-family="Helvetica,sans-Serif" font-size="10.00">+ execute()</text>
<text text-anchor="start" x="69.5" y="-18.5" font-family="Helvetica,sans-Serif" font-size="10.00">&#45; getItemData()</text>
<text text-anchor="start" x="69.5" y="-7.5" font-family="Helvetica,sans-Serif" font-size="10.00">&#45; getSpecifics()</text>
</g>
<!-- Node2 -->
<g id="node2" class="node"><title>Node2</title>
<g id="a_node2"><a xlink:href="interfacetomoBay_1_1model_1_1services_1_1AbstractServiceState.html" target="_top" xlink:title="Copyright(C) 2015 Jan P.C. ">
<polygon fill="white" stroke="black" points="0,-138.5 0,-195.5 110,-195.5 110,-138.5 0,-138.5"/>
<text text-anchor="middle" x="55" y="-183.5" font-family="Helvetica,sans-Serif" font-size="10.00">AbstractServiceState</text>
<polyline fill="none" stroke="black" points="0,-176.5 110,-176.5 "/>
<text text-anchor="middle" x="55" y="-164.5" font-family="Helvetica,sans-Serif" font-size="10.00"> </text>
<polyline fill="none" stroke="black" points="0,-157.5 110,-157.5 "/>
<text text-anchor="start" x="8" y="-145.5" font-family="Helvetica,sans-Serif" font-size="10.00">+ execute()</text>
</a>
</g>
</g>
<!-- Node2&#45;&gt;Node1 -->
<g id="edge1" class="edge"><title>Node2&#45;&gt;Node1</title>
<path fill="none" stroke="midnightblue" d="M69.8698,-128.98C74.7081,-116.935 80.1282,-103.441 85.1607,-90.9125"/>
<polygon fill="none" stroke="midnightblue" points="66.6124,-127.7 66.1328,-138.284 73.108,-130.309 66.6124,-127.7"/>
</g>
<!-- Node3 -->
<g id="node3" class="node"><title>Node3</title>
<polygon fill="white" stroke="#bfbfbf" points="128,-138.5 128,-195.5 174,-195.5 174,-138.5 128,-138.5"/>
<text text-anchor="middle" x="151" y="-183.5" font-family="Helvetica,sans-Serif" font-size="10.00">Logger</text>
<polyline fill="none" stroke="#bfbfbf" points="128,-176.5 174,-176.5 "/>
<text text-anchor="middle" x="151" y="-164.5" font-family="Helvetica,sans-Serif" font-size="10.00"> </text>
<polyline fill="none" stroke="#bfbfbf" points="128,-157.5 174,-157.5 "/>
<text text-anchor="middle" x="151" y="-145.5" font-family="Helvetica,sans-Serif" font-size="10.00"> </text>
</g>
<!-- Node3&#45;&gt;Node1 -->
<g id="edge2" class="edge"><title>Node3&#45;&gt;Node1</title>
<path fill="none" stroke="#404040" d="M139.867,-138.284C135.542,-127.515 130.424,-114.775 125.401,-102.269"/>
<polygon fill="none" stroke="#404040" points="125.312,-102.048 119.364,-97.971 120.839,-90.9125 126.787,-94.9892 125.312,-102.048"/>
<text text-anchor="middle" x="140.5" y="-112" font-family="Helvetica,sans-Serif" font-size="10.00"> &#45;log</text>
</g>
</g>
</svg>
