<?xml version="1.0" encoding="UTF-8" standalone="no"?>
<!DOCTYPE svg PUBLIC "-//W3C//DTD SVG 1.1//EN"
 "http://www.w3.org/Graphics/SVG/1.1/DTD/svg11.dtd">
<!-- Generated by graphviz version 2.38.0 (20140413.2041)
 -->
<!-- Title: OrdersTable Pages: 1 -->
<svg width="811pt" height="299pt"
 viewBox="0.00 0.00 810.50 299.00" xmlns="http://www.w3.org/2000/svg" xmlns:xlink="http://www.w3.org/1999/xlink">
<g id="graph0" class="graph" transform="scale(1 1) rotate(0) translate(4 295)">
<title>OrdersTable</title>
<polygon fill="white" stroke="none" points="-4,4 -4,-295 806.5,-295 806.5,4 -4,4"/>
<!-- Node1 -->
<g id="node1" class="node"><title>Node1</title>
<polygon fill="#bfbfbf" stroke="black" points="351.5,-0.5 351.5,-57.5 433.5,-57.5 433.5,-0.5 351.5,-0.5"/>
<text text-anchor="middle" x="392.5" y="-45.5" font-family="Helvetica,sans-Serif" font-size="10.00">OrdersTable</text>
<polyline fill="none" stroke="black" points="351.5,-38.5 433.5,-38.5 "/>
<text text-anchor="middle" x="392.5" y="-26.5" font-family="Helvetica,sans-Serif" font-size="10.00"> </text>
<polyline fill="none" stroke="black" points="351.5,-19.5 433.5,-19.5 "/>
<text text-anchor="start" x="359.5" y="-7.5" font-family="Helvetica,sans-Serif" font-size="10.00">&#45; OrdersTable()</text>
</g>
<!-- Node2 -->
<g id="node2" class="node"><title>Node2</title>
<g id="a_node2"><a xlink:href="interfacetomoBay_1_1model_1_1dataTypes_1_1heteroTypeContainer_1_1AbstractTypeSchema.html" target="_top" xlink:title="Derived types of this class represent the schema for a specific database and should only contain publ...">
<polygon fill="white" stroke="black" points="0,-116.5 0,-173.5 111,-173.5 111,-116.5 0,-116.5"/>
<text text-anchor="middle" x="55.5" y="-161.5" font-family="Helvetica,sans-Serif" font-size="10.00">AbstractTypeSchema</text>
<polyline fill="none" stroke="black" points="0,-154.5 111,-154.5 "/>
<text text-anchor="middle" x="55.5" y="-142.5" font-family="Helvetica,sans-Serif" font-size="10.00"> </text>
<polyline fill="none" stroke="black" points="0,-135.5 111,-135.5 "/>
<text text-anchor="middle" x="55.5" y="-123.5" font-family="Helvetica,sans-Serif" font-size="10.00"> </text>
</a>
</g>
</g>
<!-- Node2&#45;&gt;Node1 -->
<g id="edge1" class="edge"><title>Node2&#45;&gt;Node1</title>
<path fill="none" stroke="midnightblue" d="M87.3305,-109.255C100.462,-96.9217 116.567,-84.1042 133.5,-76 204.971,-41.7928 298.53,-32.8235 351.409,-30.5951"/>
<polygon fill="none" stroke="midnightblue" points="84.6893,-106.941 79.9584,-116.421 89.5685,-111.96 84.6893,-106.941"/>
</g>
<!-- Node3 -->
<g id="node3" class="node"><title>Node3</title>
<g id="a_node3"><a xlink:href="classtomoBay_1_1model_1_1sql_1_1schema_1_1ordersTable_1_1Invoiced.html" target="_top" xlink:title="this is the invoiced field of the ebay_orders table in the database. ">
<polygon fill="white" stroke="black" points="225.5,-105.5 225.5,-184.5 293.5,-184.5 293.5,-105.5 225.5,-105.5"/>
<text text-anchor="middle" x="259.5" y="-172.5" font-family="Helvetica,sans-Serif" font-size="10.00">Invoiced</text>
<polyline fill="none" stroke="black" points="225.5,-165.5 293.5,-165.5 "/>
<text text-anchor="start" x="233.5" y="-153.5" font-family="Helvetica,sans-Serif" font-size="10.00">&#45; size_M</text>
<polyline fill="none" stroke="black" points="225.5,-146.5 293.5,-146.5 "/>
<text text-anchor="start" x="233.5" y="-134.5" font-family="Helvetica,sans-Serif" font-size="10.00">+ Invoiced()</text>
<text text-anchor="start" x="233.5" y="-123.5" font-family="Helvetica,sans-Serif" font-size="10.00">+ type()</text>
<text text-anchor="start" x="233.5" y="-112.5" font-family="Helvetica,sans-Serif" font-size="10.00">+ size()</text>
</a>
</g>
</g>
<!-- Node3&#45;&gt;Node1 -->
<g id="edge2" class="edge"><title>Node3&#45;&gt;Node1</title>
<path fill="none" stroke="#404040" d="M260.752,-105.394C262.765,-94.9009 266.569,-84.1875 273.5,-76 290.074,-56.4215 316.007,-45.143 339.438,-38.6618"/>
<polygon fill="none" stroke="#404040" points="339.754,-38.5833 344.613,-33.2552 351.401,-35.6912 346.542,-41.0194 339.754,-38.5833"/>
<text text-anchor="middle" x="303" y="-79" font-family="Helvetica,sans-Serif" font-size="10.00"> +INVOICED</text>
</g>
<!-- Node4 -->
<g id="node4" class="node"><title>Node4</title>
<g id="a_node4"><a xlink:href="interfacetomoBay_1_1model_1_1dataTypes_1_1heteroTypeContainer_1_1AbstractField.html" target="_top" xlink:title="This interface is the abstract base for all derived AbstractDBField types, and represents a a column ...">
<polygon fill="white" stroke="black" points="424.5,-222.5 424.5,-290.5 498.5,-290.5 498.5,-222.5 424.5,-222.5"/>
<text text-anchor="middle" x="461.5" y="-278.5" font-family="Helvetica,sans-Serif" font-size="10.00">AbstractField</text>
<polyline fill="none" stroke="black" points="424.5,-271.5 498.5,-271.5 "/>
<text text-anchor="middle" x="461.5" y="-259.5" font-family="Helvetica,sans-Serif" font-size="10.00"> </text>
<polyline fill="none" stroke="black" points="424.5,-252.5 498.5,-252.5 "/>
<text text-anchor="start" x="432.5" y="-240.5" font-family="Helvetica,sans-Serif" font-size="10.00">+ type()</text>
<text text-anchor="start" x="432.5" y="-229.5" font-family="Helvetica,sans-Serif" font-size="10.00">+ size()</text>
</a>
</g>
</g>
<!-- Node4&#45;&gt;Node1 -->
<g id="edge8" class="edge"><title>Node4&#45;&gt;Node1</title>
<path fill="none" stroke="#404040" d="M424.271,-252.541C350.414,-245.817 189.608,-226.633 156.5,-185 134.37,-157.171 135.508,-133.697 156.5,-105 198.149,-48.0624 283.367,-33.3023 339.189,-30.043"/>
<polygon fill="none" stroke="#404040" points="339.331,-30.0366 345.141,-25.7663 351.318,-29.4876 345.507,-33.7579 339.331,-30.0366"/>
<text text-anchor="middle" x="186.5" y="-148" font-family="Helvetica,sans-Serif" font-size="10.00"> +ACCOUNT</text>
<text text-anchor="middle" x="186.5" y="-137" font-family="Helvetica,sans-Serif" font-size="10.00">+BUYERID</text>
</g>
<!-- Node4&#45;&gt;Node3 -->
<g id="edge3" class="edge"><title>Node4&#45;&gt;Node3</title>
<path fill="none" stroke="midnightblue" d="M414.663,-239.281C381.885,-226.866 337.82,-207.989 302.5,-185 299.628,-183.131 296.761,-181.07 293.947,-178.902"/>
<polygon fill="none" stroke="midnightblue" points="413.858,-242.716 424.451,-242.924 416.3,-236.156 413.858,-242.716"/>
</g>
<!-- Node5 -->
<g id="node5" class="node"><title>Node5</title>
<g id="a_node5"><a xlink:href="classtomoBay_1_1model_1_1sql_1_1schema_1_1ordersTable_1_1CreatedTime.html" target="_top" xlink:title="this is the createdTime field of the ebay_orders table in the database. ">
<polygon fill="white" stroke="black" points="311.5,-105.5 311.5,-184.5 399.5,-184.5 399.5,-105.5 311.5,-105.5"/>
<text text-anchor="middle" x="355.5" y="-172.5" font-family="Helvetica,sans-Serif" font-size="10.00">CreatedTime</text>
<polyline fill="none" stroke="black" points="311.5,-165.5 399.5,-165.5 "/>
<text text-anchor="start" x="319.5" y="-153.5" font-family="Helvetica,sans-Serif" font-size="10.00">&#45; size_M</text>
<polyline fill="none" stroke="black" points="311.5,-146.5 399.5,-146.5 "/>
<text text-anchor="start" x="319.5" y="-134.5" font-family="Helvetica,sans-Serif" font-size="10.00">+ CreatedTime()</text>
<text text-anchor="start" x="319.5" y="-123.5" font-family="Helvetica,sans-Serif" font-size="10.00">+ type()</text>
<text text-anchor="start" x="319.5" y="-112.5" font-family="Helvetica,sans-Serif" font-size="10.00">+ size()</text>
</a>
</g>
</g>
<!-- Node4&#45;&gt;Node5 -->
<g id="edge5" class="edge"><title>Node4&#45;&gt;Node5</title>
<path fill="none" stroke="midnightblue" d="M422.258,-214.963C412.715,-205.105 402.533,-194.586 393.07,-184.81"/>
<polygon fill="none" stroke="midnightblue" points="419.939,-217.599 429.409,-222.349 424.968,-212.73 419.939,-217.599"/>
</g>
<!-- Node6 -->
<g id="node6" class="node"><title>Node6</title>
<g id="a_node6"><a xlink:href="classtomoBay_1_1model_1_1sql_1_1schema_1_1ordersTable_1_1SalesRecNo.html" target="_top" xlink:title="his is the salesRecNo field of the ebay_orders table in the database, it is a number generated by eba...">
<polygon fill="white" stroke="black" points="418,-105.5 418,-184.5 505,-184.5 505,-105.5 418,-105.5"/>
<text text-anchor="middle" x="461.5" y="-172.5" font-family="Helvetica,sans-Serif" font-size="10.00">SalesRecNo</text>
<polyline fill="none" stroke="black" points="418,-165.5 505,-165.5 "/>
<text text-anchor="start" x="426" y="-153.5" font-family="Helvetica,sans-Serif" font-size="10.00">&#45; size_M</text>
<polyline fill="none" stroke="black" points="418,-146.5 505,-146.5 "/>
<text text-anchor="start" x="426" y="-134.5" font-family="Helvetica,sans-Serif" font-size="10.00">+ SalesRecNo()</text>
<text text-anchor="start" x="426" y="-123.5" font-family="Helvetica,sans-Serif" font-size="10.00">+ type()</text>
<text text-anchor="start" x="426" y="-112.5" font-family="Helvetica,sans-Serif" font-size="10.00">+ size()</text>
</a>
</g>
</g>
<!-- Node4&#45;&gt;Node6 -->
<g id="edge7" class="edge"><title>Node4&#45;&gt;Node6</title>
<path fill="none" stroke="midnightblue" d="M461.5,-212.339C461.5,-203.254 461.5,-193.724 461.5,-184.81"/>
<polygon fill="none" stroke="midnightblue" points="458,-212.349 461.5,-222.349 465,-212.349 458,-212.349"/>
</g>
<!-- Node7 -->
<g id="node7" class="node"><title>Node7</title>
<g id="a_node7"><a xlink:href="classtomoBay_1_1model_1_1sql_1_1schema_1_1ordersTable_1_1OrderTotal.html" target="_top" xlink:title="this is the account field of the ebay_orders table in the database. ">
<polygon fill="white" stroke="black" points="523,-105.5 523,-184.5 600,-184.5 600,-105.5 523,-105.5"/>
<text text-anchor="middle" x="561.5" y="-172.5" font-family="Helvetica,sans-Serif" font-size="10.00">OrderTotal</text>
<polyline fill="none" stroke="black" points="523,-165.5 600,-165.5 "/>
<text text-anchor="start" x="531" y="-153.5" font-family="Helvetica,sans-Serif" font-size="10.00">&#45; size_M</text>
<polyline fill="none" stroke="black" points="523,-146.5 600,-146.5 "/>
<text text-anchor="start" x="531" y="-134.5" font-family="Helvetica,sans-Serif" font-size="10.00">+ OrderTotal()</text>
<text text-anchor="start" x="531" y="-123.5" font-family="Helvetica,sans-Serif" font-size="10.00">+ type()</text>
<text text-anchor="start" x="531" y="-112.5" font-family="Helvetica,sans-Serif" font-size="10.00">+ size()</text>
</a>
</g>
</g>
<!-- Node4&#45;&gt;Node7 -->
<g id="edge10" class="edge"><title>Node4&#45;&gt;Node7</title>
<path fill="none" stroke="midnightblue" d="M498.52,-214.963C507.523,-205.105 517.129,-194.586 526.057,-184.81"/>
<polygon fill="none" stroke="midnightblue" points="495.934,-212.605 491.775,-222.349 501.103,-217.325 495.934,-212.605"/>
</g>
<!-- Node8 -->
<g id="node8" class="node"><title>Node8</title>
<g id="a_node8"><a xlink:href="classtomoBay_1_1model_1_1sql_1_1schema_1_1ordersTable_1_1OrderID.html" target="_top" xlink:title="this is the orderID field of the ebay_orders table in the database, and is the primary key for this t...">
<polygon fill="white" stroke="black" points="619.5,-105.5 619.5,-184.5 685.5,-184.5 685.5,-105.5 619.5,-105.5"/>
<text text-anchor="middle" x="652.5" y="-172.5" font-family="Helvetica,sans-Serif" font-size="10.00">OrderID</text>
<polyline fill="none" stroke="black" points="619.5,-165.5 685.5,-165.5 "/>
<text text-anchor="start" x="627.5" y="-153.5" font-family="Helvetica,sans-Serif" font-size="10.00">&#45; size_M</text>
<polyline fill="none" stroke="black" points="619.5,-146.5 685.5,-146.5 "/>
<text text-anchor="start" x="627.5" y="-134.5" font-family="Helvetica,sans-Serif" font-size="10.00">+ OrderID()</text>
<text text-anchor="start" x="627.5" y="-123.5" font-family="Helvetica,sans-Serif" font-size="10.00">+ type()</text>
<text text-anchor="start" x="627.5" y="-112.5" font-family="Helvetica,sans-Serif" font-size="10.00">+ size()</text>
</a>
</g>
</g>
<!-- Node4&#45;&gt;Node8 -->
<g id="edge12" class="edge"><title>Node4&#45;&gt;Node8</title>
<path fill="none" stroke="midnightblue" d="M508.009,-237.15C537.85,-224.437 576.799,-206.052 608.5,-185 612.071,-182.628 615.655,-179.985 619.151,-177.223"/>
<polygon fill="none" stroke="midnightblue" points="506.527,-233.976 498.662,-241.074 509.237,-240.43 506.527,-233.976"/>
</g>
<!-- Node9 -->
<g id="node9" class="node"><title>Node9</title>
<g id="a_node9"><a xlink:href="classtomoBay_1_1model_1_1sql_1_1schema_1_1ordersTable_1_1ShippingType.html" target="_top" xlink:title="this is the shippingType field of the ebay_orders table of the database and is a textual representati...">
<polygon fill="white" stroke="black" points="704,-105.5 704,-184.5 795,-184.5 795,-105.5 704,-105.5"/>
<text text-anchor="middle" x="749.5" y="-172.5" font-family="Helvetica,sans-Serif" font-size="10.00">ShippingType</text>
<polyline fill="none" stroke="black" points="704,-165.5 795,-165.5 "/>
<text text-anchor="start" x="712" y="-153.5" font-family="Helvetica,sans-Serif" font-size="10.00">&#45; size_M</text>
<polyline fill="none" stroke="black" points="704,-146.5 795,-146.5 "/>
<text text-anchor="start" x="712" y="-134.5" font-family="Helvetica,sans-Serif" font-size="10.00">+ ShippingType()</text>
<text text-anchor="start" x="712" y="-123.5" font-family="Helvetica,sans-Serif" font-size="10.00">+ type()</text>
<text text-anchor="start" x="712" y="-112.5" font-family="Helvetica,sans-Serif" font-size="10.00">+ size()</text>
</a>
</g>
</g>
<!-- Node4&#45;&gt;Node9 -->
<g id="edge14" class="edge"><title>Node4&#45;&gt;Node9</title>
<path fill="none" stroke="midnightblue" d="M508.658,-245.95C556.945,-235.103 633.372,-214.929 694.5,-185 697.654,-183.456 700.824,-181.738 703.963,-179.908"/>
<polygon fill="none" stroke="midnightblue" points="507.809,-242.553 498.797,-248.124 509.316,-249.389 507.809,-242.553"/>
</g>
<!-- Node5&#45;&gt;Node1 -->
<g id="edge4" class="edge"><title>Node5&#45;&gt;Node1</title>
<path fill="none" stroke="#404040" d="M336.901,-105.372C334.564,-95.5414 334.266,-85.1697 338.5,-76 339.976,-72.803 341.797,-69.7463 343.865,-66.8384"/>
<polygon fill="none" stroke="#404040" points="343.977,-66.7062 344.792,-59.5412 351.719,-57.5376 350.904,-64.7026 343.977,-66.7062"/>
<text text-anchor="middle" x="382.5" y="-79" font-family="Helvetica,sans-Serif" font-size="10.00"> +CREATED_TIME</text>
</g>
<!-- Node6&#45;&gt;Node1 -->
<g id="edge6" class="edge"><title>Node6&#45;&gt;Node1</title>
<path fill="none" stroke="#404040" d="M442.936,-105.278C437.902,-95.5484 432.246,-85.2481 426.5,-76 424.79,-73.248 422.964,-70.4503 421.079,-67.6633"/>
<polygon fill="none" stroke="#404040" points="420.992,-67.5393 414.27,-64.9271 414.096,-57.7181 420.818,-60.3302 420.992,-67.5393"/>
<text text-anchor="middle" x="478" y="-79" font-family="Helvetica,sans-Serif" font-size="10.00"> +SALES_REC_NO</text>
</g>
<!-- Node7&#45;&gt;Node1 -->
<g id="edge9" class="edge"><title>Node7&#45;&gt;Node1</title>
<path fill="none" stroke="#404040" d="M547.837,-105.165C542.547,-94.5423 535.538,-83.817 526.5,-76 503.833,-56.3961 472.389,-45.0329 445.657,-38.5069"/>
<polygon fill="none" stroke="#404040" points="445.464,-38.4636 438.734,-41.0531 433.755,-35.8366 440.485,-33.2471 445.464,-38.4636"/>
<text text-anchor="middle" x="578" y="-79" font-family="Helvetica,sans-Serif" font-size="10.00"> +ORDER_TOTAL</text>
</g>
<!-- Node8&#45;&gt;Node1 -->
<g id="edge11" class="edge"><title>Node8&#45;&gt;Node1</title>
<path fill="none" stroke="#404040" d="M643.329,-105.199C638.989,-94.3198 632.665,-83.444 623.5,-76 596.83,-54.339 505.635,-41.2944 446.12,-34.8878"/>
<polygon fill="none" stroke="#404040" points="445.871,-34.862 439.49,-38.2199 433.936,-33.6208 440.317,-30.2629 445.871,-34.862"/>
<text text-anchor="middle" x="664.5" y="-79" font-family="Helvetica,sans-Serif" font-size="10.00"> +ORDER_ID</text>
</g>
<!-- Node9&#45;&gt;Node1 -->
<g id="edge13" class="edge"><title>Node9&#45;&gt;Node1</title>
<path fill="none" stroke="#404040" d="M728.943,-105.319C721.169,-94.1723 711.295,-83.1143 699.5,-76 657.807,-50.8517 522.026,-38.2873 445.747,-33.0714"/>
<polygon fill="none" stroke="#404040" points="445.562,-33.0592 439.311,-36.6547 433.588,-32.2677 439.839,-28.6721 445.562,-33.0592"/>
<text text-anchor="middle" x="757.5" y="-79" font-family="Helvetica,sans-Serif" font-size="10.00"> +SHIPPING_TYPE</text>
</g>
</g>
</svg>
