<?xml version="1.0" encoding="UTF-8" standalone="no"?>
<!DOCTYPE svg PUBLIC "-//W3C//DTD SVG 1.1//EN"
 "http://www.w3.org/Graphics/SVG/1.1/DTD/svg11.dtd">
<!-- Generated by graphviz version 2.38.0 (20140413.2041)
 -->
<!-- Title: getInvoiceWeight Pages: 1 -->
<svg width="414pt" height="50pt"
 viewBox="0.00 0.00 414.00 50.00" xmlns="http://www.w3.org/2000/svg" xmlns:xlink="http://www.w3.org/1999/xlink">
<g id="graph0" class="graph" transform="scale(1 1) rotate(0) translate(4 46)">
<title>getInvoiceWeight</title>
<polygon fill="white" stroke="none" points="-4,4 -4,-46 410,-46 410,4 -4,4"/>
<!-- Node1 -->
<g id="node1" class="node"><title>Node1</title>
<polygon fill="#bfbfbf" stroke="black" points="0,-11.5 0,-30.5 92,-30.5 92,-11.5 0,-11.5"/>
<text text-anchor="middle" x="46" y="-18.5" font-family="Helvetica,sans-Serif" font-size="10.00">getInvoiceWeight</text>
</g>
<!-- Node2 -->
<g id="node2" class="node"><title>Node2</title>
<g id="a_node2"><a xlink:href="classtomoBay_1_1presenters_1_1presenterActions_1_1concreteActions_1_1GenerateRoyalMailCSV.html#adb3dedf31dc2c7fc796f20406c235ccd" target="_top" xlink:title="performs the action specified ">
<polygon fill="white" stroke="black" points="128,-11.5 128,-30.5 179,-30.5 179,-11.5 128,-11.5"/>
<text text-anchor="middle" x="153.5" y="-18.5" font-family="Helvetica,sans-Serif" font-size="10.00">execute</text>
</a>
</g>
</g>
<!-- Node1&#45;&gt;Node2 -->
<g id="edge1" class="edge"><title>Node1&#45;&gt;Node2</title>
<path fill="none" stroke="midnightblue" d="M102.227,-21C111.256,-21 120.188,-21 127.962,-21"/>
<polygon fill="midnightblue" stroke="midnightblue" points="102.048,-17.5001 92.0475,-21 102.047,-24.5001 102.048,-17.5001"/>
</g>
<!-- Node3 -->
<g id="node3" class="node"><title>Node3</title>
<g id="a_node3"><a xlink:href="classtomoBayTests_1_1presenters_1_1presenterActions_1_1concreteActions_1_1GenerateRoyalMailCSVTest.html#a1b260e6772d2ced79e03e1c8c5acd12b" target="_top" xlink:title="tomoBayTests.presenters.presenter\lActions.concreteActions.GenerateRoyal\lMailCSVTest.testExecute">
<polygon fill="white" stroke="black" points="215,-0.5 215,-41.5 406,-41.5 406,-0.5 215,-0.5"/>
<text text-anchor="start" x="223" y="-29.5" font-family="Helvetica,sans-Serif" font-size="10.00">tomoBayTests.presenters.presenter</text>
<text text-anchor="start" x="223" y="-18.5" font-family="Helvetica,sans-Serif" font-size="10.00">Actions.concreteActions.GenerateRoyal</text>
<text text-anchor="middle" x="310.5" y="-7.5" font-family="Helvetica,sans-Serif" font-size="10.00">MailCSVTest.testExecute</text>
</a>
</g>
</g>
<!-- Node2&#45;&gt;Node3 -->
<g id="edge2" class="edge"><title>Node2&#45;&gt;Node3</title>
<path fill="none" stroke="midnightblue" d="M189.215,-21C197.088,-21 205.819,-21 214.879,-21"/>
<polygon fill="midnightblue" stroke="midnightblue" points="189.06,-17.5001 179.06,-21 189.06,-24.5001 189.06,-17.5001"/>
</g>
</g>
</svg>
