<?xml version="1.0" encoding="UTF-8" standalone="no"?>
<!DOCTYPE svg PUBLIC "-//W3C//DTD SVG 1.1//EN"
 "http://www.w3.org/Graphics/SVG/1.1/DTD/svg11.dtd">
<!-- Generated by graphviz version 2.38.0 (20140413.2041)
 -->
<!-- Title: present Pages: 1 -->
<svg width="264pt" height="78pt"
 viewBox="0.00 0.00 264.00 77.50" xmlns="http://www.w3.org/2000/svg" xmlns:xlink="http://www.w3.org/1999/xlink">
<g id="graph0" class="graph" transform="scale(1 1) rotate(0) translate(4 73.5)">
<title>present</title>
<polygon fill="white" stroke="none" points="-4,4 -4,-73.5 260,-73.5 260,4 -4,4"/>
<!-- Node1 -->
<g id="node1" class="node"><title>Node1</title>
<polygon fill="#bfbfbf" stroke="black" points="0,-22.5 0,-41.5 49,-41.5 49,-22.5 0,-22.5"/>
<text text-anchor="middle" x="24.5" y="-29.5" font-family="Helvetica,sans-Serif" font-size="10.00">present</text>
</g>
<!-- Node2 -->
<g id="node2" class="node"><title>Node2</title>
<g id="a_node2"><a xlink:href="classtomoBay_1_1model_1_1sql_1_1framework_1_1SelectQueryInvoker.html#a594282bcbcc0731a7d234482717422d7" target="_top" xlink:title="execute a requested query ">
<polygon fill="white" stroke="black" points="94.5,-39 94.5,-69 246.5,-69 246.5,-39 94.5,-39"/>
<text text-anchor="start" x="102.5" y="-57" font-family="Helvetica,sans-Serif" font-size="10.00">tomoBay.model.sql.framework.</text>
<text text-anchor="middle" x="170.5" y="-46" font-family="Helvetica,sans-Serif" font-size="10.00">SelectQueryInvoker.execute</text>
</a>
</g>
</g>
<!-- Node1&#45;&gt;Node2 -->
<g id="edge1" class="edge"><title>Node1&#45;&gt;Node2</title>
<path fill="none" stroke="midnightblue" d="M49.2787,-35.6329C59.2728,-37.1597 71.561,-39.0371 84.4254,-41.0025"/>
<polygon fill="midnightblue" stroke="midnightblue" points="83.9328,-44.4678 94.3467,-42.5182 84.99,-37.5481 83.9328,-44.4678"/>
</g>
<!-- Node3 -->
<g id="node3" class="node"><title>Node3</title>
<g id="a_node3"><a xlink:href="interfacetomoBay_1_1view_1_1AbstractView.html#a5724666c8c61c4e2ef28d5364c8c13d0" target="_top" xlink:title="this method is responsible for formatting the data as required for the specific derived view ...">
<polygon fill="white" stroke="black" points="85,-0.5 85,-19.5 256,-19.5 256,-0.5 85,-0.5"/>
<text text-anchor="middle" x="170.5" y="-7.5" font-family="Helvetica,sans-Serif" font-size="10.00">tomoBay.view.AbstractView.format</text>
</a>
</g>
</g>
<!-- Node1&#45;&gt;Node3 -->
<g id="edge2" class="edge"><title>Node1&#45;&gt;Node3</title>
<path fill="none" stroke="midnightblue" d="M49.2787,-28.3671C62.5005,-26.3471 79.7376,-23.7137 97.0122,-21.0745"/>
<polygon fill="midnightblue" stroke="midnightblue" points="97.8007,-24.4948 107.157,-19.5246 96.7435,-17.575 97.8007,-24.4948"/>
</g>
</g>
</svg>
