<?xml version="1.0" encoding="UTF-8" standalone="no"?>
<!DOCTYPE svg PUBLIC "-//W3C//DTD SVG 1.1//EN"
 "http://www.w3.org/Graphics/SVG/1.1/DTD/svg11.dtd">
<!-- Generated by graphviz version 2.38.0 (20140413.2041)
 -->
<!-- Title: setINTEGERParam Pages: 1 -->
<!--zoomable 556 -->
<svg id="main" version="1.1" xmlns="http://www.w3.org/2000/svg" xmlns:xlink="http://www.w3.org/1999/xlink" xml:space="preserve" onload="init(evt)">
<style type="text/css"><![CDATA[
.edge:hover path { stroke: red; }
.edge:hover polygon { stroke: red; fill: red; }
]]></style>
<script type="text/javascript"><![CDATA[
var edges = document.getElementsByTagName('g');
if (edges && edges.length) {
  for (var i=0;i<edges.length;i++) {
    if (edges[i].id.substr(0,4)=='edge') {
      edges[i].setAttribute('class','edge');
    }
  }
}
]]></script>
        <defs>
                <circle id="rim" cx="0" cy="0" r="7"/>
                <circle id="rim2" cx="0" cy="0" r="3.5"/>
                <g id="zoomPlus">
                        <use xlink:href="#rim" fill="#404040">
                                <set attributeName="fill" to="#808080" begin="zoomplus.mouseover" end="zoomplus.mouseout"/>
                        </use>
                        <path d="M-4,0h8M0,-4v8" fill="none" stroke="white" stroke-width="1.5" pointer-events="none"/>
                </g>
                <g id="zoomMin">
                        <use xlink:href="#rim" fill="#404040">
                                <set attributeName="fill" to="#808080" begin="zoomminus.mouseover" end="zoomminus.mouseout"/>
                        </use>
                        <path d="M-4,0h8" fill="none" stroke="white" stroke-width="1.5" pointer-events="none"/>
                </g>
                <g id="dirArrow">
                        <path fill="none" stroke="white" stroke-width="1.5" d="M0,-3.0v7 M-2.5,-0.5L0,-3.0L2.5,-0.5"/>
                </g>
               <g id="resetDef">
                       <use xlink:href="#rim2" fill="#404040">
                               <set attributeName="fill" to="#808080" begin="reset.mouseover" end="reset.mouseout"/>
                       </use>
               </g>
        </defs>

<script type="text/javascript">
var viewWidth = 367;
var viewHeight = 556;
var sectionId = 'dynsection-3';
</script>
<script xlink:href="svgpan.js"/>
<svg id="graph" class="graph">
<g id="viewport">
<title>setINTEGERParam</title>
<polygon fill="white" stroke="none" points="-4,4 -4,-552 363,-552 363,4 -4,4"/>
<!-- Node1 -->
<g id="node1" class="node"><title>Node1</title>
<polygon fill="#bfbfbf" stroke="black" points="0,-272.5 0,-291.5 104,-291.5 104,-272.5 0,-272.5"/>
<text text-anchor="middle" x="52" y="-279.5" font-family="Helvetica,sans-Serif" font-size="10.00">setINTEGERParam</text>
</g>
<!-- Node2 -->
<g id="node2" class="node"><title>Node2</title>
<g id="a_node2"><a xlink:href="classtomoBay_1_1model_1_1sql_1_1framework_1_1QueryUtility.html#a2da2ce60a8a037d55bdc69309db4815b" target="_top" xlink:title="private ctor ensures that this class is never instantiated ">
<polygon fill="white" stroke="black" points="215.5,-528.5 215.5,-547.5 283.5,-547.5 283.5,-528.5 215.5,-528.5"/>
<text text-anchor="middle" x="249.5" y="-535.5" font-family="Helvetica,sans-Serif" font-size="10.00">QueryUtility</text>
</a>
</g>
</g>
<!-- Node1&#45;&gt;Node2 -->
<g id="edge1" class="edge"><title>Node1&#45;&gt;Node2</title>
<path fill="none" stroke="midnightblue" d="M53.917,-301.683C57.188,-347.61 72.1014,-462.253 140,-519 160.69,-536.292 191.503,-540.299 215.012,-540.41"/>
<polygon fill="midnightblue" stroke="midnightblue" points="57.4027,-301.337 53.3111,-291.564 50.4152,-301.755 57.4027,-301.337"/>
</g>
<!-- Node3 -->
<g id="node3" class="node"><title>Node3</title>
<g id="a_node3"><a xlink:href="classtomoBay_1_1model_1_1sql_1_1queries_1_1concreteQueries_1_1update_1_1UpdateInvoiceStatusSRN.html#af9020b85517904668d036bc2bf89433c" target="_top" xlink:title="tomoBay.model.sql.queries.concrete\lQueries.update.UpdateInvoiceStatusSRN.set\lParameters">
<polygon fill="white" stroke="black" points="142,-468.5 142,-509.5 357,-509.5 357,-468.5 142,-468.5"/>
<text text-anchor="start" x="150" y="-497.5" font-family="Helvetica,sans-Serif" font-size="10.00">tomoBay.model.sql.queries.concrete</text>
<text text-anchor="start" x="150" y="-486.5" font-family="Helvetica,sans-Serif" font-size="10.00">Queries.update.UpdateInvoiceStatusSRN.set</text>
<text text-anchor="middle" x="249.5" y="-475.5" font-family="Helvetica,sans-Serif" font-size="10.00">Parameters</text>
</a>
</g>
</g>
<!-- Node1&#45;&gt;Node3 -->
<g id="edge2" class="edge"><title>Node1&#45;&gt;Node3</title>
<path fill="none" stroke="midnightblue" d="M57.0846,-301.721C65.719,-338.365 89.3415,-417.032 140,-459 144.289,-462.553 148.968,-465.687 153.897,-468.451"/>
<polygon fill="midnightblue" stroke="midnightblue" points="60.4621,-300.785 54.8728,-291.785 53.6294,-302.306 60.4621,-300.785"/>
</g>
<!-- Node4 -->
<g id="node4" class="node"><title>Node4</title>
<g id="a_node4"><a xlink:href="classtomoBay_1_1model_1_1sql_1_1queries_1_1concreteQueries_1_1update_1_1UpdateInvoiceStatus.html#af9020b85517904668d036bc2bf89433c" target="_top" xlink:title="tomoBay.model.sql.queries.concrete\lQueries.update.UpdateInvoiceStatus.set\lParameters">
<polygon fill="white" stroke="black" points="152.5,-408.5 152.5,-449.5 346.5,-449.5 346.5,-408.5 152.5,-408.5"/>
<text text-anchor="start" x="160.5" y="-437.5" font-family="Helvetica,sans-Serif" font-size="10.00">tomoBay.model.sql.queries.concrete</text>
<text text-anchor="start" x="160.5" y="-426.5" font-family="Helvetica,sans-Serif" font-size="10.00">Queries.update.UpdateInvoiceStatus.set</text>
<text text-anchor="middle" x="249.5" y="-415.5" font-family="Helvetica,sans-Serif" font-size="10.00">Parameters</text>
</a>
</g>
</g>
<!-- Node1&#45;&gt;Node4 -->
<g id="edge3" class="edge"><title>Node1&#45;&gt;Node4</title>
<path fill="none" stroke="midnightblue" d="M61.882,-300.731C75.1859,-326.747 102.76,-373.49 140,-399 145.16,-402.534 150.725,-405.654 156.513,-408.407"/>
<polygon fill="midnightblue" stroke="midnightblue" points="64.9192,-298.977 57.3491,-291.564 58.6445,-302.08 64.9192,-298.977"/>
</g>
<!-- Node5 -->
<g id="node5" class="node"><title>Node5</title>
<g id="a_node5"><a xlink:href="classtomoBay_1_1model_1_1sql_1_1queries_1_1concreteQueries_1_1insert_1_1InsertOutOfHoursOrders.html#af9020b85517904668d036bc2bf89433c" target="_top" xlink:title="tomoBay.model.sql.queries.concrete\lQueries.insert.InsertOutOfHoursOrders.set\lParameters">
<polygon fill="white" stroke="black" points="148,-348.5 148,-389.5 351,-389.5 351,-348.5 148,-348.5"/>
<text text-anchor="start" x="156" y="-377.5" font-family="Helvetica,sans-Serif" font-size="10.00">tomoBay.model.sql.queries.concrete</text>
<text text-anchor="start" x="156" y="-366.5" font-family="Helvetica,sans-Serif" font-size="10.00">Queries.insert.InsertOutOfHoursOrders.set</text>
<text text-anchor="middle" x="249.5" y="-355.5" font-family="Helvetica,sans-Serif" font-size="10.00">Parameters</text>
</a>
</g>
</g>
<!-- Node1&#45;&gt;Node5 -->
<g id="edge4" class="edge"><title>Node1&#45;&gt;Node5</title>
<path fill="none" stroke="midnightblue" d="M73.0358,-297.731C90.0285,-310.414 115.483,-327.908 140,-339 147.657,-342.464 155.802,-345.611 164.056,-348.449"/>
<polygon fill="midnightblue" stroke="midnightblue" points="75.0489,-294.865 64.9709,-291.596 70.811,-300.436 75.0489,-294.865"/>
</g>
<!-- Node6 -->
<g id="node6" class="node"><title>Node6</title>
<g id="a_node6"><a xlink:href="classtomoBay_1_1model_1_1sql_1_1queries_1_1concreteQueries_1_1select_1_1params_1_1SelectEbayOrderHistoryLastNDays.html#af9020b85517904668d036bc2bf89433c" target="_top" xlink:title="tomoBay.model.sql.queries.concrete\lQueries.select.params.SelectEbayOrder\lHistoryLastNDays.setParameters">
<polygon fill="white" stroke="black" points="153.5,-288.5 153.5,-329.5 345.5,-329.5 345.5,-288.5 153.5,-288.5"/>
<text text-anchor="start" x="161.5" y="-317.5" font-family="Helvetica,sans-Serif" font-size="10.00">tomoBay.model.sql.queries.concrete</text>
<text text-anchor="start" x="161.5" y="-306.5" font-family="Helvetica,sans-Serif" font-size="10.00">Queries.select.params.SelectEbayOrder</text>
<text text-anchor="middle" x="249.5" y="-295.5" font-family="Helvetica,sans-Serif" font-size="10.00">HistoryLastNDays.setParameters</text>
</a>
</g>
</g>
<!-- Node1&#45;&gt;Node6 -->
<g id="edge5" class="edge"><title>Node1&#45;&gt;Node6</title>
<path fill="none" stroke="midnightblue" d="M114.318,-290.468C126.753,-292.186 140.105,-294.03 153.393,-295.865"/>
<polygon fill="midnightblue" stroke="midnightblue" points="114.495,-286.96 104.11,-289.059 113.537,-293.894 114.495,-286.96"/>
</g>
<!-- Node7 -->
<g id="node7" class="node"><title>Node7</title>
<g id="a_node7"><a xlink:href="classtomoBay_1_1model_1_1sql_1_1queries_1_1concreteQueries_1_1insert_1_1InsertEbayItems.html#af9020b85517904668d036bc2bf89433c" target="_top" xlink:title="tomoBay.model.sql.queries.concrete\lQueries.insert.InsertEbayItems.setParameters">
<polygon fill="white" stroke="black" points="140,-240 140,-270 359,-270 359,-240 140,-240"/>
<text text-anchor="start" x="148" y="-258" font-family="Helvetica,sans-Serif" font-size="10.00">tomoBay.model.sql.queries.concrete</text>
<text text-anchor="middle" x="249.5" y="-247" font-family="Helvetica,sans-Serif" font-size="10.00">Queries.insert.InsertEbayItems.setParameters</text>
</a>
</g>
</g>
<!-- Node1&#45;&gt;Node7 -->
<g id="edge6" class="edge"><title>Node1&#45;&gt;Node7</title>
<path fill="none" stroke="midnightblue" d="M114.24,-273.542C122.422,-272.412 131.003,-271.227 139.702,-270.026"/>
<polygon fill="midnightblue" stroke="midnightblue" points="113.537,-270.106 104.11,-274.941 114.495,-277.04 113.537,-270.106"/>
</g>
<!-- Node8 -->
<g id="node8" class="node"><title>Node8</title>
<g id="a_node8"><a xlink:href="classtomoBay_1_1model_1_1sql_1_1queries_1_1concreteQueries_1_1insert_1_1InsertEbayOrders.html#af9020b85517904668d036bc2bf89433c" target="_top" xlink:title="tomoBay.model.sql.queries.concrete\lQueries.insert.InsertEbayOrders.set\lParameters">
<polygon fill="white" stroke="black" points="161.5,-180.5 161.5,-221.5 337.5,-221.5 337.5,-180.5 161.5,-180.5"/>
<text text-anchor="start" x="169.5" y="-209.5" font-family="Helvetica,sans-Serif" font-size="10.00">tomoBay.model.sql.queries.concrete</text>
<text text-anchor="start" x="169.5" y="-198.5" font-family="Helvetica,sans-Serif" font-size="10.00">Queries.insert.InsertEbayOrders.set</text>
<text text-anchor="middle" x="249.5" y="-187.5" font-family="Helvetica,sans-Serif" font-size="10.00">Parameters</text>
</a>
</g>
</g>
<!-- Node1&#45;&gt;Node8 -->
<g id="edge7" class="edge"><title>Node1&#45;&gt;Node8</title>
<path fill="none" stroke="midnightblue" d="M75.5552,-266.566C92.6346,-255.436 117.005,-240.722 140,-231 148.1,-227.575 156.706,-224.428 165.388,-221.565"/>
<polygon fill="midnightblue" stroke="midnightblue" points="73.2706,-263.881 66.8717,-272.325 77.1399,-269.714 73.2706,-263.881"/>
</g>
<!-- Node9 -->
<g id="node9" class="node"><title>Node9</title>
<g id="a_node9"><a xlink:href="classtomoBay_1_1model_1_1sql_1_1queries_1_1concreteQueries_1_1insert_1_1InsertEbayTransactions.html#af9020b85517904668d036bc2bf89433c" target="_top" xlink:title="tomoBay.model.sql.queries.concrete\lQueries.insert.InsertEbayTransactions.set\lParameters">
<polygon fill="white" stroke="black" points="149.5,-120.5 149.5,-161.5 349.5,-161.5 349.5,-120.5 149.5,-120.5"/>
<text text-anchor="start" x="157.5" y="-149.5" font-family="Helvetica,sans-Serif" font-size="10.00">tomoBay.model.sql.queries.concrete</text>
<text text-anchor="start" x="157.5" y="-138.5" font-family="Helvetica,sans-Serif" font-size="10.00">Queries.insert.InsertEbayTransactions.set</text>
<text text-anchor="middle" x="249.5" y="-127.5" font-family="Helvetica,sans-Serif" font-size="10.00">Parameters</text>
</a>
</g>
</g>
<!-- Node1&#45;&gt;Node9 -->
<g id="edge8" class="edge"><title>Node1&#45;&gt;Node9</title>
<path fill="none" stroke="midnightblue" d="M62.7244,-263.164C76.5363,-238.294 104.186,-194.87 140,-171 145.285,-167.477 150.977,-164.366 156.888,-161.617"/>
<polygon fill="midnightblue" stroke="midnightblue" points="59.4718,-261.823 57.8183,-272.288 65.637,-265.138 59.4718,-261.823"/>
</g>
<!-- Node10 -->
<g id="node10" class="node"><title>Node10</title>
<g id="a_node10"><a xlink:href="classtomoBay_1_1model_1_1sql_1_1queries_1_1concreteQueries_1_1select_1_1params_1_1SelectBuyerByAccAndSRN.html#af9020b85517904668d036bc2bf89433c" target="_top" xlink:title="tomoBay.model.sql.queries.concrete\lQueries.select.params.SelectBuyerBy\lAccAndSRN.setParameters">
<polygon fill="white" stroke="black" points="158,-60.5 158,-101.5 341,-101.5 341,-60.5 158,-60.5"/>
<text text-anchor="start" x="166" y="-89.5" font-family="Helvetica,sans-Serif" font-size="10.00">tomoBay.model.sql.queries.concrete</text>
<text text-anchor="start" x="166" y="-78.5" font-family="Helvetica,sans-Serif" font-size="10.00">Queries.select.params.SelectBuyerBy</text>
<text text-anchor="middle" x="249.5" y="-67.5" font-family="Helvetica,sans-Serif" font-size="10.00">AccAndSRN.setParameters</text>
</a>
</g>
</g>
<!-- Node1&#45;&gt;Node10 -->
<g id="edge9" class="edge"><title>Node1&#45;&gt;Node10</title>
<path fill="none" stroke="midnightblue" d="M57.5359,-261.97C66.7044,-226.149 90.8859,-151.121 140,-111 145.449,-106.549 151.511,-102.756 157.906,-99.5254"/>
<polygon fill="midnightblue" stroke="midnightblue" points="54.0279,-261.585 55.0741,-272.128 60.831,-263.234 54.0279,-261.585"/>
</g>
<!-- Node11 -->
<g id="node11" class="node"><title>Node11</title>
<g id="a_node11"><a xlink:href="classtomoBay_1_1model_1_1sql_1_1queries_1_1concreteQueries_1_1select_1_1params_1_1SelectBrandByInv.html#af9020b85517904668d036bc2bf89433c" target="_top" xlink:title="tomoBay.model.sql.queries.concrete\lQueries.select.params.SelectBrandBy\lInv.setParameters">
<polygon fill="white" stroke="black" points="158,-0.5 158,-41.5 341,-41.5 341,-0.5 158,-0.5"/>
<text text-anchor="start" x="166" y="-29.5" font-family="Helvetica,sans-Serif" font-size="10.00">tomoBay.model.sql.queries.concrete</text>
<text text-anchor="start" x="166" y="-18.5" font-family="Helvetica,sans-Serif" font-size="10.00">Queries.select.params.SelectBrandBy</text>
<text text-anchor="middle" x="249.5" y="-7.5" font-family="Helvetica,sans-Serif" font-size="10.00">Inv.setParameters</text>
</a>
</g>
</g>
<!-- Node1&#45;&gt;Node11 -->
<g id="edge10" class="edge"><title>Node1&#45;&gt;Node11</title>
<path fill="none" stroke="midnightblue" d="M54.546,-262.335C59.1186,-217.87 76.5457,-108.96 140,-51 145.339,-46.1232 151.401,-42.0294 157.866,-38.5941"/>
<polygon fill="midnightblue" stroke="midnightblue" points="51.0504,-262.129 53.6222,-272.406 58.0211,-262.768 51.0504,-262.129"/>
</g>
</g>
</svg>
        <g id="navigator" transform="translate(0 0)" fill="#404254">
                <rect fill="#f2f5e9" fill-opacity="0.5" stroke="#606060" stroke-width=".5" x="0" y="0" width="60" height="60"/>
                <use id="zoomplus" xlink:href="#zoomPlus" x="17" y="9" onmousedown="handleZoom(evt,'in')"/>
                <use id="zoomminus" xlink:href="#zoomMin" x="42" y="9" onmousedown="handleZoom(evt,'out')"/>
                <use id="reset" xlink:href="#resetDef" x="30" y="36" onmousedown="handleReset()"/>
                <g id="arrowUp" xlink:href="#dirArrow" transform="translate(30 24)" onmousedown="handlePan(0,-1)">
                  <use xlink:href="#rim" fill="#404040">
                        <set attributeName="fill" to="#808080" begin="arrowUp.mouseover" end="arrowUp.mouseout"/>
                  </use>
                  <path fill="none" stroke="white" stroke-width="1.5" d="M0,-3.0v7 M-2.5,-0.5L0,-3.0L2.5,-0.5"/>
                </g>
                <g id="arrowRight" xlink:href="#dirArrow" transform="rotate(90) translate(36 -43)" onmousedown="handlePan(1,0)">
                  <use xlink:href="#rim" fill="#404040">
                        <set attributeName="fill" to="#808080" begin="arrowRight.mouseover" end="arrowRight.mouseout"/>
                  </use>
                  <path fill="none" stroke="white" stroke-width="1.5" d="M0,-3.0v7 M-2.5,-0.5L0,-3.0L2.5,-0.5"/>
                </g>
                <g id="arrowDown" xlink:href="#dirArrow" transform="rotate(180) translate(-30 -48)" onmousedown="handlePan(0,1)">
                  <use xlink:href="#rim" fill="#404040">
                        <set attributeName="fill" to="#808080" begin="arrowDown.mouseover" end="arrowDown.mouseout"/>
                  </use>
                  <path fill="none" stroke="white" stroke-width="1.5" d="M0,-3.0v7 M-2.5,-0.5L0,-3.0L2.5,-0.5"/>
                </g>
                <g id="arrowLeft" xlink:href="#dirArrow" transform="rotate(270) translate(-36 17)" onmousedown="handlePan(-1,0)">
                  <use xlink:href="#rim" fill="#404040">
                        <set attributeName="fill" to="#808080" begin="arrowLeft.mouseover" end="arrowLeft.mouseout"/>
                  </use>
                  <path fill="none" stroke="white" stroke-width="1.5" d="M0,-3.0v7 M-2.5,-0.5L0,-3.0L2.5,-0.5"/>
                </g>
        </g>
        <svg viewBox="0 0 15 15" width="100%" height="30px" preserveAspectRatio="xMaxYMin meet">
         <g id="arrow_out" transform="scale(0.3 0.3)">
          <a xlink:href="classtomoBay_1_1model_1_1sql_1_1framework_1_1QueryUtility_aca3b74b8ac7e194a86c0b896a674e2f2_icgraph_org.svg" target="_base">
           <rect id="button" ry="5" rx="5" y="6" x="6" height="38" width="38"
                fill="#f2f5e9" fill-opacity="0.5" stroke="#606060" stroke-width="1.0"/>
           <path id="arrow"
             d="M 11.500037,31.436501 C 11.940474,20.09759 22.043105,11.32322 32.158766,21.979434 L 37.068811,17.246167 C 37.068811,17.246167 37.088388,32 37.088388,32 L 22.160133,31.978069 C 22.160133,31.978069 26.997745,27.140456 26.997745,27.140456 C 18.528582,18.264221 13.291696,25.230495 11.500037,31.436501 z"
             style="fill:#404040;"/>
          </a>
         </g>
        </svg>
</svg>
