<?xml version="1.0" encoding="UTF-8" standalone="no"?>
<!DOCTYPE svg PUBLIC "-//W3C//DTD SVG 1.1//EN"
 "http://www.w3.org/Graphics/SVG/1.1/DTD/svg11.dtd">
<!-- Generated by graphviz version 2.38.0 (20140413.2041)
 -->
<!-- Title: addMessage Pages: 1 -->
<svg width="585pt" height="58pt"
 viewBox="0.00 0.00 585.00 58.00" xmlns="http://www.w3.org/2000/svg" xmlns:xlink="http://www.w3.org/1999/xlink">
<g id="graph0" class="graph" transform="scale(1 1) rotate(0) translate(4 54)">
<title>addMessage</title>
<polygon fill="white" stroke="none" points="-4,4 -4,-54 581,-54 581,4 -4,4"/>
<!-- Node1 -->
<g id="node1" class="node"><title>Node1</title>
<polygon fill="#bfbfbf" stroke="black" points="0,-19.5 0,-38.5 72,-38.5 72,-19.5 0,-19.5"/>
<text text-anchor="middle" x="36" y="-26.5" font-family="Helvetica,sans-Serif" font-size="10.00">addMessage</text>
</g>
<!-- Node2 -->
<g id="node2" class="node"><title>Node2</title>
<g id="a_node2"><a xlink:href="classtomoBay_1_1model_1_1services_1_1emailErrorsService_1_1OnRunning.html#ae4a4f4cadce2787c7e80005639fbd5d9" target="_top" xlink:title="this method defines what to do in the given derived state ">
<polygon fill="white" stroke="black" points="200,-14 200,-44 365,-44 365,-14 200,-14"/>
<text text-anchor="start" x="208" y="-32" font-family="Helvetica,sans-Serif" font-size="10.00">tomoBay.model.services.email</text>
<text text-anchor="middle" x="282.5" y="-21" font-family="Helvetica,sans-Serif" font-size="10.00">ErrorsService.OnRunning.execute</text>
</a>
</g>
</g>
<!-- Node1&#45;&gt;Node2 -->
<g id="edge1" class="edge"><title>Node1&#45;&gt;Node2</title>
<path fill="none" stroke="midnightblue" d="M82.2489,-29C115.152,-29 160.607,-29 199.794,-29"/>
<polygon fill="midnightblue" stroke="midnightblue" points="82.0309,-25.5001 72.0309,-29 82.0309,-32.5001 82.0309,-25.5001"/>
</g>
<!-- Node4 -->
<g id="node4" class="node"><title>Node4</title>
<g id="a_node4"><a xlink:href="classtomoBay_1_1model_1_1services_1_1emailErrorsService_1_1EmailErrorsMailActions.html#ad1dbcb645114a23c7e2a441cb6ae9ca4" target="_top" xlink:title="handle the creation of the Email by passing in a map with the appropriate data inside it...">
<polygon fill="white" stroke="black" points="108,-0.5 108,-19.5 164,-19.5 164,-0.5 108,-0.5"/>
<text text-anchor="middle" x="136" y="-7.5" font-family="Helvetica,sans-Serif" font-size="10.00">loadData</text>
</a>
</g>
</g>
<!-- Node1&#45;&gt;Node4 -->
<g id="edge3" class="edge"><title>Node1&#45;&gt;Node4</title>
<path fill="none" stroke="midnightblue" d="M81.9438,-20.2864C90.781,-18.5731 99.7954,-16.8254 107.827,-15.2683"/>
<polygon fill="midnightblue" stroke="midnightblue" points="81.2544,-16.8548 72.1034,-22.1942 82.5868,-23.7268 81.2544,-16.8548"/>
</g>
<!-- Node3 -->
<g id="node3" class="node"><title>Node3</title>
<g id="a_node3"><a xlink:href="classtomoBay_1_1model_1_1services_1_1emailErrorsService_1_1EmailErrorsService.html#ae3b0a282dcba7f2d675ca89b1dd48487" target="_top" xlink:title="tomoBay.model.services.email\lErrorsService.EmailErrorsService.on\lRunning">
<polygon fill="white" stroke="black" points="401,-8.5 401,-49.5 577,-49.5 577,-8.5 401,-8.5"/>
<text text-anchor="start" x="409" y="-37.5" font-family="Helvetica,sans-Serif" font-size="10.00">tomoBay.model.services.email</text>
<text text-anchor="start" x="409" y="-26.5" font-family="Helvetica,sans-Serif" font-size="10.00">ErrorsService.EmailErrorsService.on</text>
<text text-anchor="middle" x="489" y="-15.5" font-family="Helvetica,sans-Serif" font-size="10.00">Running</text>
</a>
</g>
</g>
<!-- Node2&#45;&gt;Node3 -->
<g id="edge2" class="edge"><title>Node2&#45;&gt;Node3</title>
<path fill="none" stroke="midnightblue" d="M375.413,-29C383.833,-29 392.348,-29 400.725,-29"/>
<polygon fill="midnightblue" stroke="midnightblue" points="375.205,-25.5001 365.205,-29 375.205,-32.5001 375.205,-25.5001"/>
</g>
<!-- Node4&#45;&gt;Node2 -->
<g id="edge4" class="edge"><title>Node4&#45;&gt;Node2</title>
<path fill="none" stroke="midnightblue" d="M174.199,-14.8912C182.186,-15.9415 190.929,-17.091 199.866,-18.2661"/>
<polygon fill="midnightblue" stroke="midnightblue" points="174.55,-11.4074 164.179,-13.5738 173.638,-18.3476 174.55,-11.4074"/>
</g>
</g>
</svg>
