<?xml version="1.0" encoding="UTF-8" standalone="no"?>
<!DOCTYPE svg PUBLIC "-//W3C//DTD SVG 1.1//EN"
 "http://www.w3.org/Graphics/SVG/1.1/DTD/svg11.dtd">
<!-- Generated by graphviz version 2.38.0 (20140413.2041)
 -->
<!-- Title: setINTEGERParam Pages: 1 -->
<svg width="367pt" height="496pt"
 viewBox="0.00 0.00 367.00 496.00" xmlns="http://www.w3.org/2000/svg" xmlns:xlink="http://www.w3.org/1999/xlink">
<g id="graph0" class="graph" transform="scale(1 1) rotate(0) translate(4 492)">
<title>setINTEGERParam</title>
<polygon fill="white" stroke="none" points="-4,4 -4,-492 363,-492 363,4 -4,4"/>
<!-- Node1 -->
<g id="node1" class="node"><title>Node1</title>
<polygon fill="#bfbfbf" stroke="black" points="0,-245.5 0,-264.5 104,-264.5 104,-245.5 0,-245.5"/>
<text text-anchor="middle" x="52" y="-252.5" font-family="Helvetica,sans-Serif" font-size="10.00">setINTEGERParam</text>
</g>
<!-- Node2 -->
<g id="node2" class="node"><title>Node2</title>
<g id="a_node2"><a xlink:href="classtomoBay_1_1model_1_1sql_1_1framework_1_1QueryUtility.html#a2da2ce60a8a037d55bdc69309db4815b" target="_top" xlink:title="private ctor ensures that this class is never instantiated ">
<polygon fill="white" stroke="black" points="215.5,-468.5 215.5,-487.5 283.5,-487.5 283.5,-468.5 215.5,-468.5"/>
<text text-anchor="middle" x="249.5" y="-475.5" font-family="Helvetica,sans-Serif" font-size="10.00">QueryUtility</text>
</a>
</g>
</g>
<!-- Node1&#45;&gt;Node2 -->
<g id="edge1" class="edge"><title>Node1&#45;&gt;Node2</title>
<path fill="none" stroke="midnightblue" d="M55.2247,-274.726C61.0011,-316.046 80.439,-411.762 140,-459 161.126,-475.755 191.895,-479.817 215.276,-480.086"/>
<polygon fill="midnightblue" stroke="midnightblue" points="58.6705,-274.078 53.9358,-264.6 51.7266,-274.962 58.6705,-274.078"/>
</g>
<!-- Node3 -->
<g id="node3" class="node"><title>Node3</title>
<g id="a_node3"><a xlink:href="classtomoBay_1_1model_1_1sql_1_1queries_1_1concreteQueries_1_1update_1_1UpdateInvoiceStatusSRN.html#af9020b85517904668d036bc2bf89433c" target="_top" xlink:title="tomoBay.model.sql.queries.concrete\lQueries.update.UpdateInvoiceStatusSRN.set\lParameters">
<polygon fill="white" stroke="black" points="142,-408.5 142,-449.5 357,-449.5 357,-408.5 142,-408.5"/>
<text text-anchor="start" x="150" y="-437.5" font-family="Helvetica,sans-Serif" font-size="10.00">tomoBay.model.sql.queries.concrete</text>
<text text-anchor="start" x="150" y="-426.5" font-family="Helvetica,sans-Serif" font-size="10.00">Queries.update.UpdateInvoiceStatusSRN.set</text>
<text text-anchor="middle" x="249.5" y="-415.5" font-family="Helvetica,sans-Serif" font-size="10.00">Parameters</text>
</a>
</g>
</g>
<!-- Node1&#45;&gt;Node3 -->
<g id="edge2" class="edge"><title>Node1&#45;&gt;Node3</title>
<path fill="none" stroke="midnightblue" d="M59.3959,-274.469C70.6307,-305.584 96.8962,-366.332 140,-399 144.673,-402.541 149.74,-405.665 155.046,-408.42"/>
<polygon fill="midnightblue" stroke="midnightblue" points="62.6251,-273.098 56.0459,-264.793 56.0104,-275.388 62.6251,-273.098"/>
</g>
<!-- Node4 -->
<g id="node4" class="node"><title>Node4</title>
<g id="a_node4"><a xlink:href="classtomoBay_1_1model_1_1sql_1_1queries_1_1concreteQueries_1_1update_1_1UpdateInvoiceStatus.html#af9020b85517904668d036bc2bf89433c" target="_top" xlink:title="tomoBay.model.sql.queries.concrete\lQueries.update.UpdateInvoiceStatus.set\lParameters">
<polygon fill="white" stroke="black" points="152.5,-348.5 152.5,-389.5 346.5,-389.5 346.5,-348.5 152.5,-348.5"/>
<text text-anchor="start" x="160.5" y="-377.5" font-family="Helvetica,sans-Serif" font-size="10.00">tomoBay.model.sql.queries.concrete</text>
<text text-anchor="start" x="160.5" y="-366.5" font-family="Helvetica,sans-Serif" font-size="10.00">Queries.update.UpdateInvoiceStatus.set</text>
<text text-anchor="middle" x="249.5" y="-355.5" font-family="Helvetica,sans-Serif" font-size="10.00">Parameters</text>
</a>
</g>
</g>
<!-- Node1&#45;&gt;Node4 -->
<g id="edge3" class="edge"><title>Node1&#45;&gt;Node4</title>
<path fill="none" stroke="midnightblue" d="M66.5797,-272.565C82.2601,-291.663 109.801,-321.757 140,-339 146.195,-342.537 152.829,-345.675 159.651,-348.457"/>
<polygon fill="midnightblue" stroke="midnightblue" points="69.225,-270.269 60.2428,-264.65 63.7605,-274.644 69.225,-270.269"/>
</g>
<!-- Node5 -->
<g id="node5" class="node"><title>Node5</title>
<g id="a_node5"><a xlink:href="classtomoBay_1_1model_1_1sql_1_1queries_1_1concreteQueries_1_1insert_1_1InsertOutOfHoursOrders.html#af9020b85517904668d036bc2bf89433c" target="_top" xlink:title="tomoBay.model.sql.queries.concrete\lQueries.insert.InsertOutOfHoursOrders.set\lParameters">
<polygon fill="white" stroke="black" points="148,-288.5 148,-329.5 351,-329.5 351,-288.5 148,-288.5"/>
<text text-anchor="start" x="156" y="-317.5" font-family="Helvetica,sans-Serif" font-size="10.00">tomoBay.model.sql.queries.concrete</text>
<text text-anchor="start" x="156" y="-306.5" font-family="Helvetica,sans-Serif" font-size="10.00">Queries.insert.InsertOutOfHoursOrders.set</text>
<text text-anchor="middle" x="249.5" y="-295.5" font-family="Helvetica,sans-Serif" font-size="10.00">Parameters</text>
</a>
</g>
</g>
<!-- Node1&#45;&gt;Node5 -->
<g id="edge4" class="edge"><title>Node1&#45;&gt;Node5</title>
<path fill="none" stroke="midnightblue" d="M95.5429,-267.397C109.673,-271.468 125.498,-275.979 140,-280 149.958,-282.761 160.444,-285.622 170.811,-288.423"/>
<polygon fill="midnightblue" stroke="midnightblue" points="96.1754,-263.936 85.5968,-264.523 94.2323,-270.661 96.1754,-263.936"/>
</g>
<!-- Node6 -->
<g id="node6" class="node"><title>Node6</title>
<g id="a_node6"><a xlink:href="classtomoBay_1_1model_1_1sql_1_1queries_1_1concreteQueries_1_1insert_1_1InsertEbayItems.html#af9020b85517904668d036bc2bf89433c" target="_top" xlink:title="tomoBay.model.sql.queries.concrete\lQueries.insert.InsertEbayItems.setParameters">
<polygon fill="white" stroke="black" points="140,-240 140,-270 359,-270 359,-240 140,-240"/>
<text text-anchor="start" x="148" y="-258" font-family="Helvetica,sans-Serif" font-size="10.00">tomoBay.model.sql.queries.concrete</text>
<text text-anchor="middle" x="249.5" y="-247" font-family="Helvetica,sans-Serif" font-size="10.00">Queries.insert.InsertEbayItems.setParameters</text>
</a>
</g>
</g>
<!-- Node1&#45;&gt;Node6 -->
<g id="edge5" class="edge"><title>Node1&#45;&gt;Node6</title>
<path fill="none" stroke="midnightblue" d="M114.24,-255C122.422,-255 131.003,-255 139.702,-255"/>
<polygon fill="midnightblue" stroke="midnightblue" points="114.11,-251.5 104.11,-255 114.11,-258.5 114.11,-251.5"/>
</g>
<!-- Node7 -->
<g id="node7" class="node"><title>Node7</title>
<g id="a_node7"><a xlink:href="classtomoBay_1_1model_1_1sql_1_1queries_1_1concreteQueries_1_1insert_1_1InsertEbayOrders.html#af9020b85517904668d036bc2bf89433c" target="_top" xlink:title="tomoBay.model.sql.queries.concrete\lQueries.insert.InsertEbayOrders.set\lParameters">
<polygon fill="white" stroke="black" points="161.5,-180.5 161.5,-221.5 337.5,-221.5 337.5,-180.5 161.5,-180.5"/>
<text text-anchor="start" x="169.5" y="-209.5" font-family="Helvetica,sans-Serif" font-size="10.00">tomoBay.model.sql.queries.concrete</text>
<text text-anchor="start" x="169.5" y="-198.5" font-family="Helvetica,sans-Serif" font-size="10.00">Queries.insert.InsertEbayOrders.set</text>
<text text-anchor="middle" x="249.5" y="-187.5" font-family="Helvetica,sans-Serif" font-size="10.00">Parameters</text>
</a>
</g>
</g>
<!-- Node1&#45;&gt;Node7 -->
<g id="edge6" class="edge"><title>Node1&#45;&gt;Node7</title>
<path fill="none" stroke="midnightblue" d="M97.204,-242.79C119.945,-236.509 148.277,-228.683 174.256,-221.507"/>
<polygon fill="midnightblue" stroke="midnightblue" points="96.2086,-239.434 87.5015,-245.47 98.0724,-246.181 96.2086,-239.434"/>
</g>
<!-- Node8 -->
<g id="node8" class="node"><title>Node8</title>
<g id="a_node8"><a xlink:href="classtomoBay_1_1model_1_1sql_1_1queries_1_1concreteQueries_1_1insert_1_1InsertEbayTransactions.html#af9020b85517904668d036bc2bf89433c" target="_top" xlink:title="tomoBay.model.sql.queries.concrete\lQueries.insert.InsertEbayTransactions.set\lParameters">
<polygon fill="white" stroke="black" points="149.5,-120.5 149.5,-161.5 349.5,-161.5 349.5,-120.5 149.5,-120.5"/>
<text text-anchor="start" x="157.5" y="-149.5" font-family="Helvetica,sans-Serif" font-size="10.00">tomoBay.model.sql.queries.concrete</text>
<text text-anchor="start" x="157.5" y="-138.5" font-family="Helvetica,sans-Serif" font-size="10.00">Queries.insert.InsertEbayTransactions.set</text>
<text text-anchor="middle" x="249.5" y="-127.5" font-family="Helvetica,sans-Serif" font-size="10.00">Parameters</text>
</a>
</g>
</g>
<!-- Node1&#45;&gt;Node8 -->
<g id="edge7" class="edge"><title>Node1&#45;&gt;Node8</title>
<path fill="none" stroke="midnightblue" d="M66.5797,-237.435C82.2601,-218.337 109.801,-188.243 140,-171 146.195,-167.463 152.829,-164.325 159.651,-161.543"/>
<polygon fill="midnightblue" stroke="midnightblue" points="63.7605,-235.356 60.2428,-245.35 69.225,-239.731 63.7605,-235.356"/>
</g>
<!-- Node9 -->
<g id="node9" class="node"><title>Node9</title>
<g id="a_node9"><a xlink:href="classtomoBay_1_1model_1_1sql_1_1queries_1_1concreteQueries_1_1select_1_1params_1_1SelectBuyerByAccAndSRN.html#af9020b85517904668d036bc2bf89433c" target="_top" xlink:title="tomoBay.model.sql.queries.concrete\lQueries.select.params.SelectBuyerBy\lAccAndSRN.setParameters">
<polygon fill="white" stroke="black" points="158,-60.5 158,-101.5 341,-101.5 341,-60.5 158,-60.5"/>
<text text-anchor="start" x="166" y="-89.5" font-family="Helvetica,sans-Serif" font-size="10.00">tomoBay.model.sql.queries.concrete</text>
<text text-anchor="start" x="166" y="-78.5" font-family="Helvetica,sans-Serif" font-size="10.00">Queries.select.params.SelectBuyerBy</text>
<text text-anchor="middle" x="249.5" y="-67.5" font-family="Helvetica,sans-Serif" font-size="10.00">AccAndSRN.setParameters</text>
</a>
</g>
</g>
<!-- Node1&#45;&gt;Node9 -->
<g id="edge8" class="edge"><title>Node1&#45;&gt;Node9</title>
<path fill="none" stroke="midnightblue" d="M59.3959,-235.531C70.6307,-204.416 96.8962,-143.668 140,-111 145.529,-106.809 151.612,-103.204 157.987,-100.102"/>
<polygon fill="midnightblue" stroke="midnightblue" points="56.0104,-234.612 56.0459,-245.207 62.6251,-236.902 56.0104,-234.612"/>
</g>
<!-- Node10 -->
<g id="node10" class="node"><title>Node10</title>
<g id="a_node10"><a xlink:href="classtomoBay_1_1model_1_1sql_1_1queries_1_1concreteQueries_1_1select_1_1params_1_1SelectBrandByInv.html#af9020b85517904668d036bc2bf89433c" target="_top" xlink:title="tomoBay.model.sql.queries.concrete\lQueries.select.params.SelectBrandBy\lInv.setParameters">
<polygon fill="white" stroke="black" points="158,-0.5 158,-41.5 341,-41.5 341,-0.5 158,-0.5"/>
<text text-anchor="start" x="166" y="-29.5" font-family="Helvetica,sans-Serif" font-size="10.00">tomoBay.model.sql.queries.concrete</text>
<text text-anchor="start" x="166" y="-18.5" font-family="Helvetica,sans-Serif" font-size="10.00">Queries.select.params.SelectBrandBy</text>
<text text-anchor="middle" x="249.5" y="-7.5" font-family="Helvetica,sans-Serif" font-size="10.00">Inv.setParameters</text>
</a>
</g>
</g>
<!-- Node1&#45;&gt;Node10 -->
<g id="edge9" class="edge"><title>Node1&#45;&gt;Node10</title>
<path fill="none" stroke="midnightblue" d="M55.6838,-235.15C62.2666,-194.37 83.049,-100.821 140,-51 145.369,-46.3032 151.413,-42.3359 157.829,-38.9855"/>
<polygon fill="midnightblue" stroke="midnightblue" points="52.2026,-234.765 54.1855,-245.172 59.1257,-235.8 52.2026,-234.765"/>
</g>
</g>
</svg>
