<?xml version="1.0" encoding="UTF-8" standalone="no"?>
<!DOCTYPE svg PUBLIC "-//W3C//DTD SVG 1.1//EN"
 "http://www.w3.org/Graphics/SVG/1.1/DTD/svg11.dtd">
<!-- Generated by graphviz version 2.38.0 (20140413.2041)
 -->
<!-- Title: setTINYINTParam Pages: 1 -->
<svg width="1093pt" height="312pt"
 viewBox="0.00 0.00 1093.00 312.00" xmlns="http://www.w3.org/2000/svg" xmlns:xlink="http://www.w3.org/1999/xlink">
<g id="graph0" class="graph" transform="scale(1 1) rotate(0) translate(4 308)">
<title>setTINYINTParam</title>
<polygon fill="white" stroke="none" points="-4,4 -4,-308 1089,-308 1089,4 -4,4"/>
<!-- Node1 -->
<g id="node1" class="node"><title>Node1</title>
<polygon fill="#bfbfbf" stroke="black" points="0,-142.5 0,-161.5 98,-161.5 98,-142.5 0,-142.5"/>
<text text-anchor="middle" x="49" y="-149.5" font-family="Helvetica,sans-Serif" font-size="10.00">setTINYINTParam</text>
</g>
<!-- Node2 -->
<g id="node2" class="node"><title>Node2</title>
<g id="a_node2"><a xlink:href="classtomoBay_1_1model_1_1dataTypes_1_1heteroTypeContainer_1_1HeteroFieldContainer.html#a988363ab964d6dc0ccb8560bef5895b6" target="_top" xlink:title="retrieve the the value of an AbstractField from this HeteroFieldContainer, the field should be of the...">
<polygon fill="white" stroke="black" points="671,-213 671,-243 863,-243 863,-213 671,-213"/>
<text text-anchor="start" x="679" y="-231" font-family="Helvetica,sans-Serif" font-size="10.00">tomoBay.model.dataTypes.hetero</text>
<text text-anchor="middle" x="767" y="-220" font-family="Helvetica,sans-Serif" font-size="10.00">TypeContainer.HeteroFieldContainer.get</text>
</a>
</g>
</g>
<!-- Node1&#45;&gt;Node2 -->
<g id="edge1" class="edge"><title>Node1&#45;&gt;Node2</title>
<path fill="none" stroke="midnightblue" d="M59.1188,-161.508C92.0627,-194.785 209.304,-304 329,-304 329,-304 329,-304 460,-304 554.89,-304 661.581,-269.152 720.581,-246.65"/>
<polygon fill="midnightblue" stroke="midnightblue" points="721.916,-249.886 729.981,-243.015 719.391,-243.358 721.916,-249.886"/>
</g>
<!-- Node4 -->
<g id="node4" class="node"><title>Node4</title>
<g id="a_node4"><a xlink:href="classtomoBay_1_1model_1_1sql_1_1framework_1_1QueryUtility.html#ab07d04299a96461dcf893416b8e32604" target="_top" xlink:title="set an Integer parameter for the query object specified. ">
<polygon fill="white" stroke="black" points="134,-142.5 134,-161.5 251,-161.5 251,-142.5 134,-142.5"/>
<text text-anchor="middle" x="192.5" y="-149.5" font-family="Helvetica,sans-Serif" font-size="10.00">setTIMESTAMPParam</text>
</a>
</g>
</g>
<!-- Node1&#45;&gt;Node4 -->
<g id="edge3" class="edge"><title>Node1&#45;&gt;Node4</title>
<path fill="none" stroke="midnightblue" d="M98.3005,-152C106.383,-152 114.901,-152 123.37,-152"/>
<polygon fill="midnightblue" stroke="midnightblue" points="123.642,-155.5 133.642,-152 123.642,-148.5 123.642,-155.5"/>
</g>
<!-- Node5 -->
<g id="node5" class="node"><title>Node5</title>
<g id="a_node5"><a xlink:href="classtomoBay_1_1model_1_1sql_1_1framework_1_1queryTypes_1_1AbstractDBQuery.html#a41678b13e84de4335130f10cea7ae562" target="_top" xlink:title="get the statement object associated with this query ">
<polygon fill="white" stroke="black" points="679,-61 679,-91 855,-91 855,-61 679,-61"/>
<text text-anchor="start" x="687" y="-79" font-family="Helvetica,sans-Serif" font-size="10.00">tomoBay.model.sql.framework.query</text>
<text text-anchor="middle" x="767" y="-68" font-family="Helvetica,sans-Serif" font-size="10.00">Types.AbstractDBQuery.statement</text>
</a>
</g>
</g>
<!-- Node1&#45;&gt;Node5 -->
<g id="edge16" class="edge"><title>Node1&#45;&gt;Node5</title>
<path fill="none" stroke="midnightblue" d="M59.1188,-142.492C92.0627,-109.215 209.304,-0 329,-0 329,-0 329,-0 460,-0 554.89,-0 661.581,-34.8481 720.581,-57.3498"/>
<polygon fill="midnightblue" stroke="midnightblue" points="719.391,-60.6424 729.981,-60.9848 721.916,-54.1135 719.391,-60.6424"/>
</g>
<!-- Node3 -->
<g id="node3" class="node"><title>Node3</title>
<g id="a_node3"><a xlink:href="classtomoBay_1_1model_1_1dataTypes_1_1heteroTypeContainer_1_1HeteroFieldContainer.html#a9dee3c01eb5ab16203e1c6820a569484" target="_top" xlink:title="performs a type check, assuming that field and type are of the same type then this method returns tru...">
<polygon fill="white" stroke="black" points="899,-207.5 899,-248.5 1085,-248.5 1085,-207.5 899,-207.5"/>
<text text-anchor="start" x="907" y="-236.5" font-family="Helvetica,sans-Serif" font-size="10.00">tomoBay.model.dataTypes.hetero</text>
<text text-anchor="start" x="907" y="-225.5" font-family="Helvetica,sans-Serif" font-size="10.00">TypeContainer.HeteroFieldContainer.is</text>
<text text-anchor="middle" x="992" y="-214.5" font-family="Helvetica,sans-Serif" font-size="10.00">SameType</text>
</a>
</g>
</g>
<!-- Node2&#45;&gt;Node3 -->
<g id="edge2" class="edge"><title>Node2&#45;&gt;Node3</title>
<path fill="none" stroke="midnightblue" d="M863.219,-228C871.728,-228 880.365,-228 888.929,-228"/>
<polygon fill="midnightblue" stroke="midnightblue" points="888.934,-231.5 898.934,-228 888.934,-224.5 888.934,-231.5"/>
</g>
<!-- Node4&#45;&gt;Node2 -->
<g id="edge6" class="edge"><title>Node4&#45;&gt;Node2</title>
<path fill="none" stroke="midnightblue" d="M240.096,-161.528C255.07,-164.574 271.732,-167.947 287,-171 401.291,-193.854 429.105,-205.625 545,-218 582.614,-222.016 623.997,-224.422 660.681,-225.863"/>
<polygon fill="midnightblue" stroke="midnightblue" points="660.773,-229.369 670.897,-226.244 661.034,-222.373 660.773,-229.369"/>
</g>
<!-- Node4&#45;&gt;Node5 -->
<g id="edge4" class="edge"><title>Node4&#45;&gt;Node5</title>
<path fill="none" stroke="midnightblue" d="M235.056,-142.458C278.339,-132.724 348.189,-117.585 409,-107 469.127,-96.5342 484.253,-93.882 545,-88 585.375,-84.0906 630.031,-81.3649 668.573,-79.5114"/>
<polygon fill="midnightblue" stroke="midnightblue" points="668.926,-82.9988 678.752,-79.0351 668.599,-76.0064 668.926,-82.9988"/>
</g>
<!-- Node7 -->
<g id="node7" class="node"><title>Node7</title>
<g id="a_node7"><a xlink:href="classtomoBay_1_1model_1_1sql_1_1framework_1_1QueryUtility.html#a202aab30c77e06c32318efd5cf949ca3" target="_top" xlink:title="set an Integer parameter for the query object specified. ">
<polygon fill="white" stroke="black" points="287,-142.5 287,-161.5 373,-161.5 373,-142.5 287,-142.5"/>
<text text-anchor="middle" x="330" y="-149.5" font-family="Helvetica,sans-Serif" font-size="10.00">setDATEParam</text>
</a>
</g>
</g>
<!-- Node4&#45;&gt;Node7 -->
<g id="edge7" class="edge"><title>Node4&#45;&gt;Node7</title>
<path fill="none" stroke="midnightblue" d="M251.357,-152C259.753,-152 268.356,-152 276.635,-152"/>
<polygon fill="midnightblue" stroke="midnightblue" points="276.909,-155.5 286.909,-152 276.909,-148.5 276.909,-155.5"/>
</g>
<!-- Node6 -->
<g id="node6" class="node"><title>Node6</title>
<g id="a_node6"><a xlink:href="classtomoBay_1_1model_1_1sql_1_1framework_1_1queryTypes_1_1AbstractDBQuery.html#ae8a5c5f1701ee77ef658050c8345d518" target="_top" xlink:title="Used by derived classes to define the Query string to be used in the query. ">
<polygon fill="white" stroke="black" points="904,-61 904,-91 1080,-91 1080,-61 904,-61"/>
<text text-anchor="start" x="912" y="-79" font-family="Helvetica,sans-Serif" font-size="10.00">tomoBay.model.sql.framework.query</text>
<text text-anchor="middle" x="992" y="-68" font-family="Helvetica,sans-Serif" font-size="10.00">Types.AbstractDBQuery.queryString</text>
</a>
</g>
</g>
<!-- Node5&#45;&gt;Node6 -->
<g id="edge5" class="edge"><title>Node5&#45;&gt;Node6</title>
<path fill="none" stroke="midnightblue" d="M855.176,-76C867.803,-76 880.868,-76 893.678,-76"/>
<polygon fill="midnightblue" stroke="midnightblue" points="893.885,-79.5001 903.885,-76 893.885,-72.5001 893.885,-79.5001"/>
</g>
<!-- Node7&#45;&gt;Node2 -->
<g id="edge9" class="edge"><title>Node7&#45;&gt;Node2</title>
<path fill="none" stroke="midnightblue" d="M368.614,-161.508C381.403,-164.649 395.799,-168.083 409,-171 469.173,-184.295 484.217,-187.851 545,-198 582.615,-204.281 623.998,-210.169 660.682,-215.038"/>
<polygon fill="midnightblue" stroke="midnightblue" points="660.526,-218.547 670.898,-216.383 661.44,-211.607 660.526,-218.547"/>
</g>
<!-- Node7&#45;&gt;Node5 -->
<g id="edge8" class="edge"><title>Node7&#45;&gt;Node5</title>
<path fill="none" stroke="midnightblue" d="M369.022,-142.449C381.713,-139.338 395.945,-135.933 409,-133 469.211,-119.473 484.144,-115.244 545,-105 585.372,-98.2044 630.119,-92.0728 668.731,-87.2169"/>
<polygon fill="midnightblue" stroke="midnightblue" points="669.437,-90.656 678.927,-85.9461 668.571,-83.7097 669.437,-90.656"/>
</g>
<!-- Node8 -->
<g id="node8" class="node"><title>Node8</title>
<g id="a_node8"><a xlink:href="classtomoBay_1_1model_1_1sql_1_1framework_1_1QueryUtility.html#a5677c2440b48e612fb51b57130555e5d" target="_top" xlink:title="set an Integer parameter for the query object specified. ">
<polygon fill="white" stroke="black" points="409,-142.5 409,-161.5 509,-161.5 509,-142.5 409,-142.5"/>
<text text-anchor="middle" x="459" y="-149.5" font-family="Helvetica,sans-Serif" font-size="10.00">setDOUBLEParam</text>
</a>
</g>
</g>
<!-- Node7&#45;&gt;Node8 -->
<g id="edge10" class="edge"><title>Node7&#45;&gt;Node8</title>
<path fill="none" stroke="midnightblue" d="M373.289,-152C381.483,-152 390.21,-152 398.83,-152"/>
<polygon fill="midnightblue" stroke="midnightblue" points="398.862,-155.5 408.862,-152 398.862,-148.5 398.862,-155.5"/>
</g>
<!-- Node8&#45;&gt;Node2 -->
<g id="edge12" class="edge"><title>Node8&#45;&gt;Node2</title>
<path fill="none" stroke="midnightblue" d="M498.445,-161.548C547.787,-173.803 634.32,-195.295 695.602,-210.516"/>
<polygon fill="midnightblue" stroke="midnightblue" points="695.043,-213.983 705.592,-212.997 696.73,-207.189 695.043,-213.983"/>
</g>
<!-- Node8&#45;&gt;Node5 -->
<g id="edge11" class="edge"><title>Node8&#45;&gt;Node5</title>
<path fill="none" stroke="midnightblue" d="M498.445,-142.452C547.787,-130.197 634.32,-108.705 695.602,-93.4844"/>
<polygon fill="midnightblue" stroke="midnightblue" points="696.73,-96.8107 705.592,-91.0034 695.043,-90.0171 696.73,-96.8107"/>
</g>
<!-- Node9 -->
<g id="node9" class="node"><title>Node9</title>
<g id="a_node9"><a xlink:href="classtomoBay_1_1model_1_1sql_1_1framework_1_1QueryUtility.html#adf8f1fea7b649baadeb0297c41be72f5" target="_top" xlink:title="set an Integer parameter for the query object specified. ">
<polygon fill="white" stroke="black" points="545,-142.5 545,-161.5 635,-161.5 635,-142.5 545,-142.5"/>
<text text-anchor="middle" x="590" y="-149.5" font-family="Helvetica,sans-Serif" font-size="10.00">setFLOATParam</text>
</a>
</g>
</g>
<!-- Node8&#45;&gt;Node9 -->
<g id="edge13" class="edge"><title>Node8&#45;&gt;Node9</title>
<path fill="none" stroke="midnightblue" d="M509.137,-152C517.439,-152 526.101,-152 534.529,-152"/>
<polygon fill="midnightblue" stroke="midnightblue" points="534.654,-155.5 544.653,-152 534.653,-148.5 534.654,-155.5"/>
</g>
<!-- Node9&#45;&gt;Node2 -->
<g id="edge15" class="edge"><title>Node9&#45;&gt;Node2</title>
<path fill="none" stroke="midnightblue" d="M613.164,-161.625C640.402,-173.455 687.266,-193.807 721.937,-208.864"/>
<polygon fill="midnightblue" stroke="midnightblue" points="720.8,-212.186 731.367,-212.959 723.589,-205.765 720.8,-212.186"/>
</g>
<!-- Node9&#45;&gt;Node5 -->
<g id="edge14" class="edge"><title>Node9&#45;&gt;Node5</title>
<path fill="none" stroke="midnightblue" d="M613.164,-142.375C640.402,-130.545 687.266,-110.193 721.937,-95.1358"/>
<polygon fill="midnightblue" stroke="midnightblue" points="723.589,-98.2345 731.367,-91.0407 720.8,-91.8138 723.589,-98.2345"/>
</g>
</g>
</svg>
