<?xml version="1.0" encoding="UTF-8" standalone="no"?>
<!DOCTYPE svg PUBLIC "-//W3C//DTD SVG 1.1//EN"
 "http://www.w3.org/Graphics/SVG/1.1/DTD/svg11.dtd">
<!-- Generated by graphviz version 2.38.0 (20140413.2041)
 -->
<!-- Title: ItemCall Pages: 1 -->
<svg width="323pt" height="193pt"
 viewBox="0.00 0.00 322.50 193.00" xmlns="http://www.w3.org/2000/svg" xmlns:xlink="http://www.w3.org/1999/xlink">
<g id="graph0" class="graph" transform="scale(1 1) rotate(0) translate(4 189)">
<title>ItemCall</title>
<polygon fill="white" stroke="none" points="-4,4 -4,-189 318.5,-189 318.5,4 -4,4"/>
<!-- Node1 -->
<g id="node1" class="node"><title>Node1</title>
<polygon fill="#bfbfbf" stroke="black" points="117.5,-0.5 117.5,-68.5 185.5,-68.5 185.5,-0.5 117.5,-0.5"/>
<text text-anchor="middle" x="151.5" y="-56.5" font-family="Helvetica,sans-Serif" font-size="10.00">ItemCall</text>
<polyline fill="none" stroke="black" points="117.5,-49.5 185.5,-49.5 "/>
<text text-anchor="middle" x="151.5" y="-37.5" font-family="Helvetica,sans-Serif" font-size="10.00"> </text>
<polyline fill="none" stroke="black" points="117.5,-30.5 185.5,-30.5 "/>
<text text-anchor="start" x="125.5" y="-18.5" font-family="Helvetica,sans-Serif" font-size="10.00">+ ItemCall()</text>
<text text-anchor="start" x="125.5" y="-7.5" font-family="Helvetica,sans-Serif" font-size="10.00">+ call()</text>
</g>
<!-- Node2 -->
<g id="node2" class="node"><title>Node2</title>
<g id="a_node2"><a xlink:href="classtomoBay_1_1model_1_1eBayAPI_1_1AbstractAPIcall.html" target="_top" xlink:title="This is the abstract base class for all the recievers in this command pattern, it provides a common w...">
<polygon fill="white" stroke="black" points="0,-116.5 0,-184.5 99,-184.5 99,-116.5 0,-116.5"/>
<text text-anchor="middle" x="49.5" y="-172.5" font-family="Helvetica,sans-Serif" font-size="10.00">AbstractAPIcall</text>
<polyline fill="none" stroke="black" points="0,-165.5 99,-165.5 "/>
<text text-anchor="start" x="8" y="-153.5" font-family="Helvetica,sans-Serif" font-size="10.00"># usrToken_M</text>
<text text-anchor="start" x="8" y="-142.5" font-family="Helvetica,sans-Serif" font-size="10.00"># server_M</text>
<polyline fill="none" stroke="black" points="0,-135.5 99,-135.5 "/>
<text text-anchor="start" x="8" y="-123.5" font-family="Helvetica,sans-Serif" font-size="10.00"># AbstractAPIcall()</text>
</a>
</g>
</g>
<!-- Node2&#45;&gt;Node1 -->
<g id="edge1" class="edge"><title>Node2&#45;&gt;Node1</title>
<path fill="none" stroke="midnightblue" d="M86.0467,-108.654C97.7998,-95.5179 110.669,-81.1346 121.863,-68.6243"/>
<polygon fill="none" stroke="midnightblue" points="83.3364,-106.434 79.2768,-116.22 88.5532,-111.101 83.3364,-106.434"/>
</g>
<!-- Node3 -->
<g id="node3" class="node"><title>Node3</title>
<polygon fill="white" stroke="#bfbfbf" points="117,-122 117,-179 186,-179 186,-122 117,-122"/>
<text text-anchor="middle" x="151.5" y="-167" font-family="Helvetica,sans-Serif" font-size="10.00">GetItemCall</text>
<polyline fill="none" stroke="#bfbfbf" points="117,-160 186,-160 "/>
<text text-anchor="middle" x="151.5" y="-148" font-family="Helvetica,sans-Serif" font-size="10.00"> </text>
<polyline fill="none" stroke="#bfbfbf" points="117,-141 186,-141 "/>
<text text-anchor="middle" x="151.5" y="-129" font-family="Helvetica,sans-Serif" font-size="10.00"> </text>
</g>
<!-- Node3&#45;&gt;Node1 -->
<g id="edge2" class="edge"><title>Node3&#45;&gt;Node1</title>
<path fill="none" stroke="#404040" d="M151.5,-121.904C151.5,-109.594 151.5,-94.7638 151.5,-80.8919"/>
<polygon fill="none" stroke="#404040" points="151.5,-80.5214 147.5,-74.5214 151.5,-68.5214 155.5,-74.5213 151.5,-80.5214"/>
<text text-anchor="middle" x="172.5" y="-90" font-family="Helvetica,sans-Serif" font-size="10.00"> ~item_M</text>
</g>
<!-- Node4 -->
<g id="node4" class="node"><title>Node4</title>
<polygon fill="white" stroke="#bfbfbf" points="204.5,-122 204.5,-179 314.5,-179 314.5,-122 204.5,-122"/>
<text text-anchor="middle" x="259.5" y="-167" font-family="Helvetica,sans-Serif" font-size="10.00">GetItemRequestType</text>
<polyline fill="none" stroke="#bfbfbf" points="204.5,-160 314.5,-160 "/>
<text text-anchor="middle" x="259.5" y="-148" font-family="Helvetica,sans-Serif" font-size="10.00"> </text>
<polyline fill="none" stroke="#bfbfbf" points="204.5,-141 314.5,-141 "/>
<text text-anchor="middle" x="259.5" y="-129" font-family="Helvetica,sans-Serif" font-size="10.00"> </text>
</g>
<!-- Node4&#45;&gt;Node1 -->
<g id="edge3" class="edge"><title>Node4&#45;&gt;Node1</title>
<path fill="none" stroke="#404040" d="M233.356,-121.904C220.742,-108.589 205.335,-92.3258 191.304,-77.5157"/>
<polygon fill="none" stroke="#404040" points="191.036,-77.2328 184.006,-75.6281 182.783,-68.5214 189.814,-70.1261 191.036,-77.2328"/>
<text text-anchor="middle" x="237" y="-90" font-family="Helvetica,sans-Serif" font-size="10.00"> ~itemreq_M</text>
</g>
</g>
</svg>
