<?xml version="1.0" encoding="UTF-8" standalone="no"?>
<!DOCTYPE svg PUBLIC "-//W3C//DTD SVG 1.1//EN"
 "http://www.w3.org/Graphics/SVG/1.1/DTD/svg11.dtd">
<!-- Generated by graphviz version 2.38.0 (20140413.2041)
 -->
<!-- Title: toString Pages: 1 -->
<!--zoomable 366 -->
<svg id="main" version="1.1" xmlns="http://www.w3.org/2000/svg" xmlns:xlink="http://www.w3.org/1999/xlink" xml:space="preserve" onload="init(evt)">
<style type="text/css"><![CDATA[
.edge:hover path { stroke: red; }
.edge:hover polygon { stroke: red; fill: red; }
]]></style>
<script type="text/javascript"><![CDATA[
var edges = document.getElementsByTagName('g');
if (edges && edges.length) {
  for (var i=0;i<edges.length;i++) {
    if (edges[i].id.substr(0,4)=='edge') {
      edges[i].setAttribute('class','edge');
    }
  }
}
]]></script>
        <defs>
                <circle id="rim" cx="0" cy="0" r="7"/>
                <circle id="rim2" cx="0" cy="0" r="3.5"/>
                <g id="zoomPlus">
                        <use xlink:href="#rim" fill="#404040">
                                <set attributeName="fill" to="#808080" begin="zoomplus.mouseover" end="zoomplus.mouseout"/>
                        </use>
                        <path d="M-4,0h8M0,-4v8" fill="none" stroke="white" stroke-width="1.5" pointer-events="none"/>
                </g>
                <g id="zoomMin">
                        <use xlink:href="#rim" fill="#404040">
                                <set attributeName="fill" to="#808080" begin="zoomminus.mouseover" end="zoomminus.mouseout"/>
                        </use>
                        <path d="M-4,0h8" fill="none" stroke="white" stroke-width="1.5" pointer-events="none"/>
                </g>
                <g id="dirArrow">
                        <path fill="none" stroke="white" stroke-width="1.5" d="M0,-3.0v7 M-2.5,-0.5L0,-3.0L2.5,-0.5"/>
                </g>
               <g id="resetDef">
                       <use xlink:href="#rim2" fill="#404040">
                               <set attributeName="fill" to="#808080" begin="reset.mouseover" end="reset.mouseout"/>
                       </use>
               </g>
        </defs>

<script type="text/javascript">
var viewWidth = 1057;
var viewHeight = 366;
var sectionId = 'dynsection-10';
</script>
<script xlink:href="svgpan.js"/>
<svg id="graph" class="graph">
<g id="viewport">
<title>toString</title>
<polygon fill="white" stroke="none" points="-4,4 -4,-362 1053,-362 1053,4 -4,4"/>
<!-- Node1 -->
<g id="node1" class="node"><title>Node1</title>
<polygon fill="#bfbfbf" stroke="black" points="0,-164.5 0,-183.5 50,-183.5 50,-164.5 0,-164.5"/>
<text text-anchor="middle" x="25" y="-171.5" font-family="Helvetica,sans-Serif" font-size="10.00">toString</text>
</g>
<!-- Node2 -->
<g id="node2" class="node"><title>Node2</title>
<g id="a_node2"><a xlink:href="classtomoBay_1_1model_1_1dataTypes_1_1json_1_1JSONentity.html#a885a59c0d9a3b39e50ba2862dfa57b2e" target="_top" xlink:title="addBranch">
<polygon fill="white" stroke="black" points="164.5,-202.5 164.5,-221.5 227.5,-221.5 227.5,-202.5 164.5,-202.5"/>
<text text-anchor="middle" x="196" y="-209.5" font-family="Helvetica,sans-Serif" font-size="10.00">addBranch</text>
</a>
</g>
</g>
<!-- Node1&#45;&gt;Node2 -->
<g id="edge1" class="edge"><title>Node1&#45;&gt;Node2</title>
<path fill="none" stroke="midnightblue" d="M60.1446,-182.045C68.5903,-184.013 77.6196,-186.1 86,-188 112.456,-193.999 142.575,-200.614 164.438,-205.378"/>
<polygon fill="midnightblue" stroke="midnightblue" points="60.7493,-178.592 50.215,-179.723 59.1552,-185.408 60.7493,-178.592"/>
</g>
<!-- Node3 -->
<g id="node3" class="node"><title>Node3</title>
<g id="a_node3"><a xlink:href="classtomoBay_1_1presenters_1_1presenterActions_1_1concreteActions_1_1BuyerList.html#adb3dedf31dc2c7fc796f20406c235ccd" target="_top" xlink:title="performs the action specified ">
<polygon fill="white" stroke="black" points="356.5,-279 356.5,-309 561.5,-309 561.5,-279 356.5,-279"/>
<text text-anchor="start" x="364.5" y="-297" font-family="Helvetica,sans-Serif" font-size="10.00">tomoBay.presenters.presenter</text>
<text text-anchor="middle" x="459" y="-286" font-family="Helvetica,sans-Serif" font-size="10.00">Actions.concreteActions.BuyerList.execute</text>
</a>
</g>
</g>
<!-- Node1&#45;&gt;Node3 -->
<g id="edge7" class="edge"><title>Node1&#45;&gt;Node3</title>
<path fill="none" stroke="midnightblue" d="M32.8209,-193.084C41.5513,-214.414 58.874,-248.047 86,-264 130.261,-290.031 262.315,-295.328 356.483,-295.587"/>
<polygon fill="midnightblue" stroke="midnightblue" points="36.0797,-191.807 29.22,-183.733 29.5472,-194.323 36.0797,-191.807"/>
</g>
<!-- Node4 -->
<g id="node4" class="node"><title>Node4</title>
<g id="a_node4"><a xlink:href="classtomoBay_1_1presenters_1_1presenterActions_1_1concreteActions_1_1OrderInfo.html#a703cbb509cdc01530f19b03f573120c9" target="_top" xlink:title="formats the transaction information associated with this order ">
<polygon fill="white" stroke="black" points="342,-165 342,-195 576,-195 576,-165 342,-165"/>
<text text-anchor="start" x="350" y="-183" font-family="Helvetica,sans-Serif" font-size="10.00">tomoBay.presenters.presenter</text>
<text text-anchor="middle" x="459" y="-172" font-family="Helvetica,sans-Serif" font-size="10.00">Actions.concreteActions.OrderInfo.transactionInfo</text>
</a>
</g>
</g>
<!-- Node1&#45;&gt;Node4 -->
<g id="edge15" class="edge"><title>Node1&#45;&gt;Node4</title>
<path fill="none" stroke="midnightblue" d="M60.2342,-174.475C120.351,-175.31 247.468,-177.076 341.906,-178.388"/>
<polygon fill="midnightblue" stroke="midnightblue" points="60.1995,-170.975 50.1519,-174.335 60.1023,-177.974 60.1995,-170.975"/>
</g>
<!-- Node5 -->
<g id="node5" class="node"><title>Node5</title>
<g id="a_node5"><a xlink:href="classtomoBay_1_1presenters_1_1presenterActions_1_1concreteActions_1_1OrderInfo.html#afeec1aeda079b77245edea1e74b25f33" target="_top" xlink:title="assembles the various parts of the order and outputs it as a fully formed JSON string. ">
<polygon fill="white" stroke="black" points="612,-137.5 612,-178.5 809,-178.5 809,-137.5 612,-137.5"/>
<text text-anchor="start" x="620" y="-166.5" font-family="Helvetica,sans-Serif" font-size="10.00">tomoBay.presenters.presenter</text>
<text text-anchor="start" x="620" y="-155.5" font-family="Helvetica,sans-Serif" font-size="10.00">Actions.concreteActions.OrderInfo.format</text>
<text text-anchor="middle" x="710.5" y="-144.5" font-family="Helvetica,sans-Serif" font-size="10.00">Results</text>
</a>
</g>
</g>
<!-- Node1&#45;&gt;Node5 -->
<g id="edge10" class="edge"><title>Node1&#45;&gt;Node5</title>
<path fill="none" stroke="midnightblue" d="M60.4357,-171.634C68.8008,-171.078 77.7205,-170.502 86,-170 199.739,-163.099 228.095,-159.112 342,-156 445.961,-153.159 472.003,-155.221 576,-156 587.59,-156.087 599.744,-156.216 611.802,-156.368"/>
<polygon fill="midnightblue" stroke="midnightblue" points="59.9697,-168.157 50.2267,-172.319 60.4387,-175.141 59.9697,-168.157"/>
</g>
<!-- Node6 -->
<g id="node6" class="node"><title>Node6</title>
<g id="a_node6"><a xlink:href="classtomoBay_1_1presenters_1_1presenterActions_1_1concreteActions_1_1OrderInfo.html#adb3dedf31dc2c7fc796f20406c235ccd" target="_top" xlink:title="performs the action specified ">
<polygon fill="white" stroke="black" points="845,-200 845,-230 1049,-230 1049,-200 845,-200"/>
<text text-anchor="start" x="853" y="-218" font-family="Helvetica,sans-Serif" font-size="10.00">tomoBay.presenters.presenter</text>
<text text-anchor="middle" x="947" y="-207" font-family="Helvetica,sans-Serif" font-size="10.00">Actions.concreteActions.OrderInfo.execute</text>
</a>
</g>
</g>
<!-- Node1&#45;&gt;Node6 -->
<g id="edge8" class="edge"><title>Node1&#45;&gt;Node6</title>
<path fill="none" stroke="midnightblue" d="M38.557,-191.76C49.3624,-205.379 66.2975,-223.133 86,-231 176.807,-267.257 208.23,-232.222 306,-231 496.461,-228.62 718.731,-222.256 844.868,-218.309"/>
<polygon fill="midnightblue" stroke="midnightblue" points="41.1867,-189.434 32.3739,-183.553 35.5958,-193.646 41.1867,-189.434"/>
</g>
<!-- Node7 -->
<g id="node7" class="node"><title>Node7</title>
<g id="a_node7"><a xlink:href="classtomoBay_1_1presenters_1_1presenterActions_1_1concreteActions_1_1BuyerDetails.html#adb3dedf31dc2c7fc796f20406c235ccd" target="_top" xlink:title="performs the action specified ">
<polygon fill="white" stroke="black" points="86,-39 86,-69 306,-69 306,-39 86,-39"/>
<text text-anchor="start" x="94" y="-57" font-family="Helvetica,sans-Serif" font-size="10.00">tomoBay.presenters.presenter</text>
<text text-anchor="middle" x="196" y="-46" font-family="Helvetica,sans-Serif" font-size="10.00">Actions.concreteActions.BuyerDetails.execute</text>
</a>
</g>
</g>
<!-- Node1&#45;&gt;Node7 -->
<g id="edge6" class="edge"><title>Node1&#45;&gt;Node7</title>
<path fill="none" stroke="midnightblue" d="M33.6708,-155.205C43.0138,-134.664 60.7383,-102.252 86,-84 94.5114,-77.8503 104.226,-72.9607 114.269,-69.0732"/>
<polygon fill="midnightblue" stroke="midnightblue" points="30.4188,-153.907 29.657,-164.475 36.8425,-156.689 30.4188,-153.907"/>
</g>
<!-- Node8 -->
<g id="node8" class="node"><title>Node8</title>
<g id="a_node8"><a xlink:href="classtomoBay_1_1model_1_1dataTypes_1_1json_1_1JSONentity.html#a32d626626eee0bc4ade146973f6abb1c" target="_top" xlink:title="finalize">
<polygon fill="white" stroke="black" points="172.5,-0.5 172.5,-19.5 219.5,-19.5 219.5,-0.5 172.5,-0.5"/>
<text text-anchor="middle" x="196" y="-7.5" font-family="Helvetica,sans-Serif" font-size="10.00">finalize</text>
</a>
</g>
</g>
<!-- Node1&#45;&gt;Node8 -->
<g id="edge9" class="edge"><title>Node1&#45;&gt;Node8</title>
<path fill="none" stroke="midnightblue" d="M28.1906,-154.128C32.8118,-122.372 46.6149,-60.5583 86,-29 110.584,-9.30134 148.404,-7.04398 172.411,-7.96559"/>
<polygon fill="midnightblue" stroke="midnightblue" points="24.6794,-153.991 26.8731,-164.356 31.6221,-154.885 24.6794,-153.991"/>
</g>
<!-- Node9 -->
<g id="node9" class="node"><title>Node9</title>
<g id="a_node9"><a xlink:href="classtomoBay_1_1presenters_1_1presenterActions_1_1concreteActions_1_1BuyerList.html#a1b9a0fa1ef5b8b60a831e9ebc80e6f97" target="_top" xlink:title="format the results of the query as a JSON string ">
<polygon fill="white" stroke="black" points="97,-316.5 97,-357.5 295,-357.5 295,-316.5 97,-316.5"/>
<text text-anchor="start" x="105" y="-345.5" font-family="Helvetica,sans-Serif" font-size="10.00">tomoBay.presenters.presenter</text>
<text text-anchor="start" x="105" y="-334.5" font-family="Helvetica,sans-Serif" font-size="10.00">Actions.concreteActions.BuyerList.format</text>
<text text-anchor="middle" x="196" y="-323.5" font-family="Helvetica,sans-Serif" font-size="10.00">Results</text>
</a>
</g>
</g>
<!-- Node1&#45;&gt;Node9 -->
<g id="edge11" class="edge"><title>Node1&#45;&gt;Node9</title>
<path fill="none" stroke="midnightblue" d="M29.9448,-193.386C36.6277,-221.339 52.8167,-272.803 86,-302 92.4909,-307.711 99.9231,-312.492 107.789,-316.494"/>
<polygon fill="midnightblue" stroke="midnightblue" points="33.3568,-192.606 27.7684,-183.605 26.5239,-194.126 33.3568,-192.606"/>
</g>
<!-- Node10 -->
<g id="node10" class="node"><title>Node10</title>
<g id="a_node10"><a xlink:href="classtomoBay_1_1presenters_1_1presenterActions_1_1concreteActions_1_1OrderInfo.html#ab4b3569de633225260e7e17c8947c8c5" target="_top" xlink:title="formats the shipping information associated with this order ">
<polygon fill="white" stroke="black" points="348,-77 348,-107 570,-107 570,-77 348,-77"/>
<text text-anchor="start" x="356" y="-95" font-family="Helvetica,sans-Serif" font-size="10.00">tomoBay.presenters.presenter</text>
<text text-anchor="middle" x="459" y="-84" font-family="Helvetica,sans-Serif" font-size="10.00">Actions.concreteActions.OrderInfo.shippingInfo</text>
</a>
</g>
</g>
<!-- Node1&#45;&gt;Node10 -->
<g id="edge13" class="edge"><title>Node1&#45;&gt;Node10</title>
<path fill="none" stroke="midnightblue" d="M40.507,-156.595C51.6093,-144.611 68.0302,-129.54 86,-122 169.048,-87.1538 271.582,-81.3039 347.958,-83.2354"/>
<polygon fill="midnightblue" stroke="midnightblue" points="37.7227,-154.46 33.7168,-164.269 42.9649,-159.099 37.7227,-154.46"/>
</g>
<!-- Node2&#45;&gt;Node3 -->
<g id="edge2" class="edge"><title>Node2&#45;&gt;Node3</title>
<path fill="none" stroke="midnightblue" d="M237.193,-224.628C283.761,-239.258 360.432,-263.346 410.064,-278.94"/>
<polygon fill="midnightblue" stroke="midnightblue" points="238.04,-221.225 227.451,-221.567 235.942,-227.903 238.04,-221.225"/>
</g>
<!-- Node2&#45;&gt;Node4 -->
<g id="edge3" class="edge"><title>Node2&#45;&gt;Node4</title>
<path fill="none" stroke="midnightblue" d="M237.922,-206.983C266.008,-203.539 304.793,-198.784 341.987,-194.224"/>
<polygon fill="midnightblue" stroke="midnightblue" points="237.207,-203.544 227.708,-208.235 238.059,-210.492 237.207,-203.544"/>
</g>
<!-- Node4&#45;&gt;Node5 -->
<g id="edge4" class="edge"><title>Node4&#45;&gt;Node5</title>
<path fill="none" stroke="midnightblue" d="M586.333,-168.86C594.841,-168.11 603.34,-167.361 611.671,-166.626"/>
<polygon fill="midnightblue" stroke="midnightblue" points="586.004,-165.376 576.35,-169.741 586.618,-172.349 586.004,-165.376"/>
</g>
<!-- Node5&#45;&gt;Node6 -->
<g id="edge5" class="edge"><title>Node5&#45;&gt;Node6</title>
<path fill="none" stroke="midnightblue" d="M806.158,-181.009C832.478,-187.406 860.376,-194.187 884.273,-199.996"/>
<polygon fill="midnightblue" stroke="midnightblue" points="806.704,-177.539 796.16,-178.578 805.05,-184.341 806.704,-177.539"/>
</g>
<!-- Node9&#45;&gt;Node3 -->
<g id="edge12" class="edge"><title>Node9&#45;&gt;Node3</title>
<path fill="none" stroke="midnightblue" d="M305.255,-319.165C325.673,-315.801 346.84,-312.314 366.676,-309.046"/>
<polygon fill="midnightblue" stroke="midnightblue" points="304.599,-315.726 295.301,-320.805 305.737,-322.633 304.599,-315.726"/>
</g>
<!-- Node10&#45;&gt;Node5 -->
<g id="edge14" class="edge"><title>Node10&#45;&gt;Node5</title>
<path fill="none" stroke="midnightblue" d="M528.804,-109.669C544.334,-113.692 560.739,-117.969 576,-122 594.799,-126.966 615.067,-132.393 633.992,-137.493"/>
<polygon fill="midnightblue" stroke="midnightblue" points="529.303,-106.183 518.745,-107.067 527.55,-112.96 529.303,-106.183"/>
</g>
</g>
</svg>
        <g id="navigator" transform="translate(0 0)" fill="#404254">
                <rect fill="#f2f5e9" fill-opacity="0.5" stroke="#606060" stroke-width=".5" x="0" y="0" width="60" height="60"/>
                <use id="zoomplus" xlink:href="#zoomPlus" x="17" y="9" onmousedown="handleZoom(evt,'in')"/>
                <use id="zoomminus" xlink:href="#zoomMin" x="42" y="9" onmousedown="handleZoom(evt,'out')"/>
                <use id="reset" xlink:href="#resetDef" x="30" y="36" onmousedown="handleReset()"/>
                <g id="arrowUp" xlink:href="#dirArrow" transform="translate(30 24)" onmousedown="handlePan(0,-1)">
                  <use xlink:href="#rim" fill="#404040">
                        <set attributeName="fill" to="#808080" begin="arrowUp.mouseover" end="arrowUp.mouseout"/>
                  </use>
                  <path fill="none" stroke="white" stroke-width="1.5" d="M0,-3.0v7 M-2.5,-0.5L0,-3.0L2.5,-0.5"/>
                </g>
                <g id="arrowRight" xlink:href="#dirArrow" transform="rotate(90) translate(36 -43)" onmousedown="handlePan(1,0)">
                  <use xlink:href="#rim" fill="#404040">
                        <set attributeName="fill" to="#808080" begin="arrowRight.mouseover" end="arrowRight.mouseout"/>
                  </use>
                  <path fill="none" stroke="white" stroke-width="1.5" d="M0,-3.0v7 M-2.5,-0.5L0,-3.0L2.5,-0.5"/>
                </g>
                <g id="arrowDown" xlink:href="#dirArrow" transform="rotate(180) translate(-30 -48)" onmousedown="handlePan(0,1)">
                  <use xlink:href="#rim" fill="#404040">
                        <set attributeName="fill" to="#808080" begin="arrowDown.mouseover" end="arrowDown.mouseout"/>
                  </use>
                  <path fill="none" stroke="white" stroke-width="1.5" d="M0,-3.0v7 M-2.5,-0.5L0,-3.0L2.5,-0.5"/>
                </g>
                <g id="arrowLeft" xlink:href="#dirArrow" transform="rotate(270) translate(-36 17)" onmousedown="handlePan(-1,0)">
                  <use xlink:href="#rim" fill="#404040">
                        <set attributeName="fill" to="#808080" begin="arrowLeft.mouseover" end="arrowLeft.mouseout"/>
                  </use>
                  <path fill="none" stroke="white" stroke-width="1.5" d="M0,-3.0v7 M-2.5,-0.5L0,-3.0L2.5,-0.5"/>
                </g>
        </g>
        <svg viewBox="0 0 15 15" width="100%" height="30px" preserveAspectRatio="xMaxYMin meet">
         <g id="arrow_out" transform="scale(0.3 0.3)">
          <a xlink:href="classtomoBay_1_1model_1_1dataTypes_1_1json_1_1JSONentity_a77e2151cf49df9f80a4999e0e9e54d55_icgraph_org.svg" target="_base">
           <rect id="button" ry="5" rx="5" y="6" x="6" height="38" width="38"
                fill="#f2f5e9" fill-opacity="0.5" stroke="#606060" stroke-width="1.0"/>
           <path id="arrow"
             d="M 11.500037,31.436501 C 11.940474,20.09759 22.043105,11.32322 32.158766,21.979434 L 37.068811,17.246167 C 37.068811,17.246167 37.088388,32 37.088388,32 L 22.160133,31.978069 C 22.160133,31.978069 26.997745,27.140456 26.997745,27.140456 C 18.528582,18.264221 13.291696,25.230495 11.500037,31.436501 z"
             style="fill:#404040;"/>
          </a>
         </g>
        </svg>
</svg>
