<?xml version="1.0" encoding="UTF-8" standalone="no"?>
<!DOCTYPE svg PUBLIC "-//W3C//DTD SVG 1.1//EN"
 "http://www.w3.org/Graphics/SVG/1.1/DTD/svg11.dtd">
<!-- Generated by graphviz version 2.38.0 (20140413.2041)
 -->
<!-- Title: getListingInfo Pages: 1 -->
<svg width="535pt" height="94pt"
 viewBox="0.00 0.00 535.00 93.50" xmlns="http://www.w3.org/2000/svg" xmlns:xlink="http://www.w3.org/1999/xlink">
<g id="graph0" class="graph" transform="scale(1 1) rotate(0) translate(4 89.5)">
<title>getListingInfo</title>
<polygon fill="white" stroke="none" points="-4,4 -4,-89.5 531,-89.5 531,4 -4,4"/>
<!-- Node1 -->
<g id="node1" class="node"><title>Node1</title>
<polygon fill="#bfbfbf" stroke="black" points="0,-30 0,-49 75,-49 75,-30 0,-30"/>
<text text-anchor="middle" x="37.5" y="-37" font-family="Helvetica,sans-Serif" font-size="10.00">getListingInfo</text>
</g>
<!-- Node2 -->
<g id="node2" class="node"><title>Node2</title>
<g id="a_node2"><a xlink:href="classtomoBay_1_1model_1_1dataTypes_1_1heteroTypeContainer_1_1HeteroFieldContainer.html#a3ba6289417930238a36bfee0056b6398" target="_top" xlink:title="add an arbitrary value to this Field container with the stipulation that this value is of the same ty...">
<polygon fill="white" stroke="black" points="111,-49.5 111,-79.5 305,-79.5 305,-49.5 111,-49.5"/>
<text text-anchor="start" x="119" y="-67.5" font-family="Helvetica,sans-Serif" font-size="10.00">tomoBay.model.dataTypes.hetero</text>
<text text-anchor="middle" x="208" y="-56.5" font-family="Helvetica,sans-Serif" font-size="10.00">TypeContainer.HeteroFieldContainer.add</text>
</a>
</g>
</g>
<!-- Node1&#45;&gt;Node2 -->
<g id="edge1" class="edge"><title>Node1&#45;&gt;Node2</title>
<path fill="none" stroke="midnightblue" d="M75.062,-44.9246C82.952,-46.0953 91.674,-47.3893 100.763,-48.7379"/>
<polygon fill="midnightblue" stroke="midnightblue" points="100.342,-52.2137 110.748,-50.2193 101.37,-45.2895 100.342,-52.2137"/>
</g>
<!-- Node4 -->
<g id="node4" class="node"><title>Node4</title>
<g id="a_node4"><a xlink:href="classtomoBay_1_1model_1_1sql_1_1framework_1_1SelectQueryInvoker.html#a594282bcbcc0731a7d234482717422d7" target="_top" xlink:title="execute a requested query ">
<polygon fill="white" stroke="black" points="132,-0.5 132,-30.5 284,-30.5 284,-0.5 132,-0.5"/>
<text text-anchor="start" x="140" y="-18.5" font-family="Helvetica,sans-Serif" font-size="10.00">tomoBay.model.sql.framework.</text>
<text text-anchor="middle" x="208" y="-7.5" font-family="Helvetica,sans-Serif" font-size="10.00">SelectQueryInvoker.execute</text>
</a>
</g>
</g>
<!-- Node1&#45;&gt;Node4 -->
<g id="edge3" class="edge"><title>Node1&#45;&gt;Node4</title>
<path fill="none" stroke="midnightblue" d="M75.062,-34.2924C88.8487,-32.3287 105.176,-30.0031 121.563,-27.6691"/>
<polygon fill="midnightblue" stroke="midnightblue" points="122.345,-31.0931 131.752,-26.2179 121.358,-24.163 122.345,-31.0931"/>
</g>
<!-- Node3 -->
<g id="node3" class="node"><title>Node3</title>
<g id="a_node3"><a xlink:href="classtomoBay_1_1model_1_1dataTypes_1_1heteroTypeContainer_1_1HeteroFieldContainer.html#a9dee3c01eb5ab16203e1c6820a569484" target="_top" xlink:title="performs a type check, assuming that field and type are of the same type then this method returns tru...">
<polygon fill="white" stroke="black" points="341,-44 341,-85 527,-85 527,-44 341,-44"/>
<text text-anchor="start" x="349" y="-73" font-family="Helvetica,sans-Serif" font-size="10.00">tomoBay.model.dataTypes.hetero</text>
<text text-anchor="start" x="349" y="-62" font-family="Helvetica,sans-Serif" font-size="10.00">TypeContainer.HeteroFieldContainer.is</text>
<text text-anchor="middle" x="434" y="-51" font-family="Helvetica,sans-Serif" font-size="10.00">SameType</text>
</a>
</g>
</g>
<!-- Node2&#45;&gt;Node3 -->
<g id="edge2" class="edge"><title>Node2&#45;&gt;Node3</title>
<path fill="none" stroke="midnightblue" d="M305.296,-64.5C313.642,-64.5 322.106,-64.5 330.499,-64.5"/>
<polygon fill="midnightblue" stroke="midnightblue" points="330.688,-68.0001 340.688,-64.5 330.688,-61.0001 330.688,-68.0001"/>
</g>
</g>
</svg>
