<?xml version="1.0" encoding="UTF-8" standalone="no"?>
<!DOCTYPE svg PUBLIC "-//W3C//DTD SVG 1.1//EN"
 "http://www.w3.org/Graphics/SVG/1.1/DTD/svg11.dtd">
<!-- Generated by graphviz version 2.38.0 (20140413.2041)
 -->
<!-- Title: setBYTEParam Pages: 1 -->
<svg width="761pt" height="1182pt"
 viewBox="0.00 0.00 761.00 1182.00" xmlns="http://www.w3.org/2000/svg" xmlns:xlink="http://www.w3.org/1999/xlink">
<g id="graph0" class="graph" transform="scale(1 1) rotate(0) translate(4 1178)">
<title>setBYTEParam</title>
<polygon fill="white" stroke="none" points="-4,4 -4,-1178 757,-1178 757,4 -4,4"/>
<!-- Node1 -->
<g id="node1" class="node"><title>Node1</title>
<polygon fill="#bfbfbf" stroke="black" points="0,-501.5 0,-520.5 85,-520.5 85,-501.5 0,-501.5"/>
<text text-anchor="middle" x="42.5" y="-508.5" font-family="Helvetica,sans-Serif" font-size="10.00">setBYTEParam</text>
</g>
<!-- Node2 -->
<g id="node2" class="node"><title>Node2</title>
<g id="a_node2"><a xlink:href="classtomoBay_1_1model_1_1sql_1_1framework_1_1QueryUtility.html#a3249b16421a9902f2248cb86d4dd3be3" target="_top" xlink:title="set an Integer parameter for the query object specified. ">
<polygon fill="white" stroke="black" points="121,-501.5 121,-520.5 230,-520.5 230,-501.5 121,-501.5"/>
<text text-anchor="middle" x="175.5" y="-508.5" font-family="Helvetica,sans-Serif" font-size="10.00">setVARCHARParam</text>
</a>
</g>
</g>
<!-- Node1&#45;&gt;Node2 -->
<g id="edge1" class="edge"><title>Node1&#45;&gt;Node2</title>
<path fill="none" stroke="midnightblue" d="M95.5551,-511C103.802,-511 112.346,-511 120.634,-511"/>
<polygon fill="midnightblue" stroke="midnightblue" points="95.3094,-507.5 85.3094,-511 95.3094,-514.5 95.3094,-507.5"/>
</g>
<!-- Node3 -->
<g id="node3" class="node"><title>Node3</title>
<g id="a_node3"><a xlink:href="classtomoBay_1_1model_1_1sql_1_1framework_1_1QueryUtility.html#aca3b74b8ac7e194a86c0b896a674e2f2" target="_top" xlink:title="set an Integer parameter for the query object specified. ">
<polygon fill="white" stroke="black" points="330,-865.5 330,-884.5 434,-884.5 434,-865.5 330,-865.5"/>
<text text-anchor="middle" x="382" y="-872.5" font-family="Helvetica,sans-Serif" font-size="10.00">setINTEGERParam</text>
</a>
</g>
</g>
<!-- Node2&#45;&gt;Node3 -->
<g id="edge2" class="edge"><title>Node2&#45;&gt;Node3</title>
<path fill="none" stroke="midnightblue" d="M176.232,-530.656C176.554,-585.506 184.921,-742.033 266,-831 282.559,-849.17 307.447,-859.894 329.84,-866.196"/>
<polygon fill="midnightblue" stroke="midnightblue" points="179.732,-530.566 176.262,-520.555 172.732,-530.545 179.732,-530.566"/>
</g>
<!-- Node6 -->
<g id="node6" class="node"><title>Node6</title>
<g id="a_node6"><a xlink:href="classtomoBay_1_1model_1_1sql_1_1queries_1_1concreteQueries_1_1update_1_1UpdateInvoiceStatus.html#af9020b85517904668d036bc2bf89433c" target="_top" xlink:title="tomoBay.model.sql.queries.concrete\lQueries.update.UpdateInvoiceStatus.set\lParameters">
<polygon fill="white" stroke="black" points="546.5,-1132.5 546.5,-1173.5 740.5,-1173.5 740.5,-1132.5 546.5,-1132.5"/>
<text text-anchor="start" x="554.5" y="-1161.5" font-family="Helvetica,sans-Serif" font-size="10.00">tomoBay.model.sql.queries.concrete</text>
<text text-anchor="start" x="554.5" y="-1150.5" font-family="Helvetica,sans-Serif" font-size="10.00">Queries.update.UpdateInvoiceStatus.set</text>
<text text-anchor="middle" x="643.5" y="-1139.5" font-family="Helvetica,sans-Serif" font-size="10.00">Parameters</text>
</a>
</g>
</g>
<!-- Node2&#45;&gt;Node6 -->
<g id="edge14" class="edge"><title>Node2&#45;&gt;Node6</title>
<path fill="none" stroke="midnightblue" d="M176.883,-530.986C178.876,-590.649 191.127,-770.952 266,-894 347.441,-1027.84 395.647,-1049.48 534,-1123 540.644,-1126.53 547.744,-1129.68 555.013,-1132.48"/>
<polygon fill="midnightblue" stroke="midnightblue" points="180.375,-530.616 176.606,-520.715 173.377,-530.805 180.375,-530.616"/>
</g>
<!-- Node9 -->
<g id="node9" class="node"><title>Node9</title>
<g id="a_node9"><a xlink:href="classtomoBay_1_1model_1_1sql_1_1queries_1_1concreteQueries_1_1insert_1_1InsertEbayItems.html#af9020b85517904668d036bc2bf89433c" target="_top" xlink:title="tomoBay.model.sql.queries.concrete\lQueries.insert.InsertEbayItems.setParameters">
<polygon fill="white" stroke="black" points="534,-806 534,-836 753,-836 753,-806 534,-806"/>
<text text-anchor="start" x="542" y="-824" font-family="Helvetica,sans-Serif" font-size="10.00">tomoBay.model.sql.queries.concrete</text>
<text text-anchor="middle" x="643.5" y="-813" font-family="Helvetica,sans-Serif" font-size="10.00">Queries.insert.InsertEbayItems.setParameters</text>
</a>
</g>
</g>
<!-- Node2&#45;&gt;Node9 -->
<g id="edge19" class="edge"><title>Node2&#45;&gt;Node9</title>
<path fill="none" stroke="midnightblue" d="M176.503,-530.953C177.691,-581.325 188.402,-714.084 266,-777 344.722,-840.827 464.979,-843.785 548.311,-836.009"/>
<polygon fill="midnightblue" stroke="midnightblue" points="180,-530.708 176.371,-520.754 173,-530.798 180,-530.708"/>
</g>
<!-- Node10 -->
<g id="node10" class="node"><title>Node10</title>
<g id="a_node10"><a xlink:href="classtomoBay_1_1model_1_1sql_1_1queries_1_1concreteQueries_1_1insert_1_1InsertEbayOrders.html#af9020b85517904668d036bc2bf89433c" target="_top" xlink:title="tomoBay.model.sql.queries.concrete\lQueries.insert.InsertEbayOrders.set\lParameters">
<polygon fill="white" stroke="black" points="555.5,-746.5 555.5,-787.5 731.5,-787.5 731.5,-746.5 555.5,-746.5"/>
<text text-anchor="start" x="563.5" y="-775.5" font-family="Helvetica,sans-Serif" font-size="10.00">tomoBay.model.sql.queries.concrete</text>
<text text-anchor="start" x="563.5" y="-764.5" font-family="Helvetica,sans-Serif" font-size="10.00">Queries.insert.InsertEbayOrders.set</text>
<text text-anchor="middle" x="643.5" y="-753.5" font-family="Helvetica,sans-Serif" font-size="10.00">Parameters</text>
</a>
</g>
</g>
<!-- Node2&#45;&gt;Node10 -->
<g id="edge18" class="edge"><title>Node2&#45;&gt;Node10</title>
<path fill="none" stroke="midnightblue" d="M177.74,-531.04C181.717,-576.193 198.236,-685.843 266,-736 349.16,-797.552 472.795,-795.018 555.445,-784.005"/>
<polygon fill="midnightblue" stroke="midnightblue" points="181.21,-530.503 176.961,-520.797 174.23,-531.034 181.21,-530.503"/>
</g>
<!-- Node11 -->
<g id="node11" class="node"><title>Node11</title>
<g id="a_node11"><a xlink:href="classtomoBay_1_1model_1_1sql_1_1queries_1_1concreteQueries_1_1insert_1_1InsertEbayTransactions.html#af9020b85517904668d036bc2bf89433c" target="_top" xlink:title="tomoBay.model.sql.queries.concrete\lQueries.insert.InsertEbayTransactions.set\lParameters">
<polygon fill="white" stroke="black" points="543.5,-686.5 543.5,-727.5 743.5,-727.5 743.5,-686.5 543.5,-686.5"/>
<text text-anchor="start" x="551.5" y="-715.5" font-family="Helvetica,sans-Serif" font-size="10.00">tomoBay.model.sql.queries.concrete</text>
<text text-anchor="start" x="551.5" y="-704.5" font-family="Helvetica,sans-Serif" font-size="10.00">Queries.insert.InsertEbayTransactions.set</text>
<text text-anchor="middle" x="643.5" y="-693.5" font-family="Helvetica,sans-Serif" font-size="10.00">Parameters</text>
</a>
</g>
</g>
<!-- Node2&#45;&gt;Node11 -->
<g id="edge20" class="edge"><title>Node2&#45;&gt;Node11</title>
<path fill="none" stroke="midnightblue" d="M178.955,-530.821C185.156,-571.313 205.526,-662.987 266,-702 356.912,-760.649 487.633,-745.556 568.695,-727.556"/>
<polygon fill="midnightblue" stroke="midnightblue" points="182.412,-530.263 177.561,-520.844 175.479,-531.232 182.412,-530.263"/>
</g>
<!-- Node12 -->
<g id="node12" class="node"><title>Node12</title>
<g id="a_node12"><a xlink:href="classtomoBay_1_1model_1_1sql_1_1queries_1_1concreteQueries_1_1select_1_1params_1_1SelectBuyerByAccAndSRN.html#af9020b85517904668d036bc2bf89433c" target="_top" xlink:title="tomoBay.model.sql.queries.concrete\lQueries.select.params.SelectBuyerBy\lAccAndSRN.setParameters">
<polygon fill="white" stroke="black" points="552,-626.5 552,-667.5 735,-667.5 735,-626.5 552,-626.5"/>
<text text-anchor="start" x="560" y="-655.5" font-family="Helvetica,sans-Serif" font-size="10.00">tomoBay.model.sql.queries.concrete</text>
<text text-anchor="start" x="560" y="-644.5" font-family="Helvetica,sans-Serif" font-size="10.00">Queries.select.params.SelectBuyerBy</text>
<text text-anchor="middle" x="643.5" y="-633.5" font-family="Helvetica,sans-Serif" font-size="10.00">AccAndSRN.setParameters</text>
</a>
</g>
</g>
<!-- Node2&#45;&gt;Node12 -->
<g id="edge22" class="edge"><title>Node2&#45;&gt;Node12</title>
<path fill="none" stroke="midnightblue" d="M180.387,-530.71C188.742,-567.086 212.198,-643.976 266,-676 354.604,-728.738 395.394,-686.194 498,-676 516.46,-674.166 536.053,-671.045 554.658,-667.513"/>
<polygon fill="midnightblue" stroke="midnightblue" points="183.784,-529.858 178.262,-520.816 176.94,-531.328 183.784,-529.858"/>
</g>
<!-- Node14 -->
<g id="node14" class="node"><title>Node14</title>
<g id="a_node14"><a xlink:href="classtomoBay_1_1model_1_1sql_1_1queries_1_1concreteQueries_1_1insert_1_1InsertOrderInOrderStatus.html#af9020b85517904668d036bc2bf89433c" target="_top" xlink:title="tomoBay.model.sql.queries.concrete\lQueries.insert.InsertOrderInOrderStatus.set\lParameters">
<polygon fill="white" stroke="black" points="279,-625.5 279,-666.5 485,-666.5 485,-625.5 279,-625.5"/>
<text text-anchor="start" x="287" y="-654.5" font-family="Helvetica,sans-Serif" font-size="10.00">tomoBay.model.sql.queries.concrete</text>
<text text-anchor="start" x="287" y="-643.5" font-family="Helvetica,sans-Serif" font-size="10.00">Queries.insert.InsertOrderInOrderStatus.set</text>
<text text-anchor="middle" x="382" y="-632.5" font-family="Helvetica,sans-Serif" font-size="10.00">Parameters</text>
</a>
</g>
</g>
<!-- Node2&#45;&gt;Node14 -->
<g id="edge13" class="edge"><title>Node2&#45;&gt;Node14</title>
<path fill="none" stroke="midnightblue" d="M186.998,-529.454C201.586,-553.382 230.271,-594.684 266,-617 271.064,-620.163 276.457,-622.982 282.039,-625.494"/>
<polygon fill="midnightblue" stroke="midnightblue" points="189.893,-527.474 181.789,-520.649 183.868,-531.038 189.893,-527.474"/>
</g>
<!-- Node15 -->
<g id="node15" class="node"><title>Node15</title>
<g id="a_node15"><a xlink:href="classtomoBay_1_1model_1_1sql_1_1queries_1_1concreteQueries_1_1update_1_1UpdateItemNote.html#af9020b85517904668d036bc2bf89433c" target="_top" xlink:title="tomoBay.model.sql.queries.concrete\lQueries.update.UpdateItemNote.setParameters">
<polygon fill="white" stroke="black" points="270,-577 270,-607 494,-607 494,-577 270,-577"/>
<text text-anchor="start" x="278" y="-595" font-family="Helvetica,sans-Serif" font-size="10.00">tomoBay.model.sql.queries.concrete</text>
<text text-anchor="middle" x="382" y="-584" font-family="Helvetica,sans-Serif" font-size="10.00">Queries.update.UpdateItemNote.setParameters</text>
</a>
</g>
</g>
<!-- Node2&#45;&gt;Node15 -->
<g id="edge15" class="edge"><title>Node2&#45;&gt;Node15</title>
<path fill="none" stroke="midnightblue" d="M196.705,-526.901C214.12,-539.836 240.426,-557.595 266,-568 274.407,-571.42 283.366,-574.377 292.431,-576.927"/>
<polygon fill="midnightblue" stroke="midnightblue" points="198.541,-523.9 188.46,-520.64 194.308,-529.475 198.541,-523.9"/>
</g>
<!-- Node16 -->
<g id="node16" class="node"><title>Node16</title>
<g id="a_node16"><a xlink:href="classtomoBay_1_1model_1_1sql_1_1queries_1_1concreteQueries_1_1update_1_1UpdateItemBrandAndPartNo.html#af9020b85517904668d036bc2bf89433c" target="_top" xlink:title="tomoBay.model.sql.queries.concrete\lQueries.update.UpdateItemBrandAndPart\lNo.setParameters">
<polygon fill="white" stroke="black" points="283.5,-517.5 283.5,-558.5 480.5,-558.5 480.5,-517.5 283.5,-517.5"/>
<text text-anchor="start" x="291.5" y="-546.5" font-family="Helvetica,sans-Serif" font-size="10.00">tomoBay.model.sql.queries.concrete</text>
<text text-anchor="start" x="291.5" y="-535.5" font-family="Helvetica,sans-Serif" font-size="10.00">Queries.update.UpdateItemBrandAndPart</text>
<text text-anchor="middle" x="382" y="-524.5" font-family="Helvetica,sans-Serif" font-size="10.00">No.setParameters</text>
</a>
</g>
</g>
<!-- Node2&#45;&gt;Node16 -->
<g id="edge16" class="edge"><title>Node2&#45;&gt;Node16</title>
<path fill="none" stroke="midnightblue" d="M240.428,-519.44C254.06,-521.24 268.755,-523.18 283.326,-525.104"/>
<polygon fill="midnightblue" stroke="midnightblue" points="240.602,-515.933 230.23,-518.094 239.686,-522.873 240.602,-515.933"/>
</g>
<!-- Node17 -->
<g id="node17" class="node"><title>Node17</title>
<g id="a_node17"><a xlink:href="classtomoBay_1_1model_1_1sql_1_1queries_1_1concreteQueries_1_1update_1_1UpdateItemError.html#af9020b85517904668d036bc2bf89433c" target="_top" xlink:title="tomoBay.model.sql.queries.concrete\lQueries.update.UpdateItemError.setParameters">
<polygon fill="white" stroke="black" points="270,-469 270,-499 494,-499 494,-469 270,-469"/>
<text text-anchor="start" x="278" y="-487" font-family="Helvetica,sans-Serif" font-size="10.00">tomoBay.model.sql.queries.concrete</text>
<text text-anchor="middle" x="382" y="-476" font-family="Helvetica,sans-Serif" font-size="10.00">Queries.update.UpdateItemError.setParameters</text>
</a>
</g>
</g>
<!-- Node2&#45;&gt;Node17 -->
<g id="edge17" class="edge"><title>Node2&#45;&gt;Node17</title>
<path fill="none" stroke="midnightblue" d="M240.277,-502.58C249.739,-501.33 259.717,-500.013 269.811,-498.68"/>
<polygon fill="midnightblue" stroke="midnightblue" points="239.686,-499.127 230.23,-503.906 240.602,-506.067 239.686,-499.127"/>
</g>
<!-- Node18 -->
<g id="node18" class="node"><title>Node18</title>
<g id="a_node18"><a xlink:href="classtomoBay_1_1model_1_1sql_1_1queries_1_1concreteQueries_1_1update_1_1UpdateEbayBuyer.html#af9020b85517904668d036bc2bf89433c" target="_top" xlink:title="tomoBay.model.sql.queries.concrete\lQueries.update.UpdateEbayBuyer.setParameters">
<polygon fill="white" stroke="black" points="266,-420 266,-450 498,-450 498,-420 266,-420"/>
<text text-anchor="start" x="274" y="-438" font-family="Helvetica,sans-Serif" font-size="10.00">tomoBay.model.sql.queries.concrete</text>
<text text-anchor="middle" x="382" y="-427" font-family="Helvetica,sans-Serif" font-size="10.00">Queries.update.UpdateEbayBuyer.setParameters</text>
</a>
</g>
</g>
<!-- Node2&#45;&gt;Node18 -->
<g id="edge21" class="edge"><title>Node2&#45;&gt;Node18</title>
<path fill="none" stroke="midnightblue" d="M198.507,-495.93C216.072,-484.538 241.683,-469.32 266,-460 275.921,-456.198 286.556,-452.909 297.206,-450.081"/>
<polygon fill="midnightblue" stroke="midnightblue" points="196.515,-493.051 190.104,-501.486 200.376,-498.89 196.515,-493.051"/>
</g>
<!-- Node19 -->
<g id="node19" class="node"><title>Node19</title>
<g id="a_node19"><a xlink:href="classtomoBay_1_1model_1_1sql_1_1queries_1_1concreteQueries_1_1insert_1_1InsertEbayBuyers.html#af9020b85517904668d036bc2bf89433c" target="_top" xlink:title="tomoBay.model.sql.queries.concrete\lQueries.insert.InsertEbayBuyers.set\lParameters">
<polygon fill="white" stroke="black" points="294,-360.5 294,-401.5 470,-401.5 470,-360.5 294,-360.5"/>
<text text-anchor="start" x="302" y="-389.5" font-family="Helvetica,sans-Serif" font-size="10.00">tomoBay.model.sql.queries.concrete</text>
<text text-anchor="start" x="302" y="-378.5" font-family="Helvetica,sans-Serif" font-size="10.00">Queries.insert.InsertEbayBuyers.set</text>
<text text-anchor="middle" x="382" y="-367.5" font-family="Helvetica,sans-Serif" font-size="10.00">Parameters</text>
</a>
</g>
</g>
<!-- Node2&#45;&gt;Node19 -->
<g id="edge23" class="edge"><title>Node2&#45;&gt;Node19</title>
<path fill="none" stroke="midnightblue" d="M187.937,-492.657C203.025,-470.008 231.719,-431.922 266,-411 274.63,-405.733 284.17,-401.383 293.954,-397.792"/>
<polygon fill="midnightblue" stroke="midnightblue" points="184.823,-491.027 182.327,-501.324 190.699,-494.831 184.823,-491.027"/>
</g>
<!-- Node20 -->
<g id="node20" class="node"><title>Node20</title>
<g id="a_node20"><a xlink:href="classtomoBay_1_1model_1_1sql_1_1queries_1_1concreteQueries_1_1select_1_1params_1_1SelectEbayOrderByBuyer.html#af9020b85517904668d036bc2bf89433c" target="_top" xlink:title="tomoBay.model.sql.queries.concrete\lQueries.select.params.SelectEbayOrder\lByBuyer.setParameters">
<polygon fill="white" stroke="black" points="286,-300.5 286,-341.5 478,-341.5 478,-300.5 286,-300.5"/>
<text text-anchor="start" x="294" y="-329.5" font-family="Helvetica,sans-Serif" font-size="10.00">tomoBay.model.sql.queries.concrete</text>
<text text-anchor="start" x="294" y="-318.5" font-family="Helvetica,sans-Serif" font-size="10.00">Queries.select.params.SelectEbayOrder</text>
<text text-anchor="middle" x="382" y="-307.5" font-family="Helvetica,sans-Serif" font-size="10.00">ByBuyer.setParameters</text>
</a>
</g>
</g>
<!-- Node2&#45;&gt;Node20 -->
<g id="edge24" class="edge"><title>Node2&#45;&gt;Node20</title>
<path fill="none" stroke="midnightblue" d="M181.821,-491.682C192.168,-457.828 218.279,-387.882 266,-351 272.041,-346.331 278.737,-342.386 285.774,-339.051"/>
<polygon fill="midnightblue" stroke="midnightblue" points="178.451,-490.737 179.008,-501.318 185.17,-492.699 178.451,-490.737"/>
</g>
<!-- Node21 -->
<g id="node21" class="node"><title>Node21</title>
<g id="a_node21"><a xlink:href="classtomoBay_1_1model_1_1sql_1_1queries_1_1concreteQueries_1_1select_1_1params_1_1SelectTransactionByOrder.html#af9020b85517904668d036bc2bf89433c" target="_top" xlink:title="tomoBay.model.sql.queries.concrete\lQueries.select.params.SelectTransaction\lByOrder.setParameters">
<polygon fill="white" stroke="black" points="283.5,-240.5 283.5,-281.5 480.5,-281.5 480.5,-240.5 283.5,-240.5"/>
<text text-anchor="start" x="291.5" y="-269.5" font-family="Helvetica,sans-Serif" font-size="10.00">tomoBay.model.sql.queries.concrete</text>
<text text-anchor="start" x="291.5" y="-258.5" font-family="Helvetica,sans-Serif" font-size="10.00">Queries.select.params.SelectTransaction</text>
<text text-anchor="middle" x="382" y="-247.5" font-family="Helvetica,sans-Serif" font-size="10.00">ByOrder.setParameters</text>
</a>
</g>
</g>
<!-- Node2&#45;&gt;Node21 -->
<g id="edge25" class="edge"><title>Node2&#45;&gt;Node21</title>
<path fill="none" stroke="midnightblue" d="M178.641,-491.312C184.403,-448.233 204.238,-345.148 266,-291 271.275,-286.375 277.178,-282.45 283.448,-279.119"/>
<polygon fill="midnightblue" stroke="midnightblue" points="175.154,-490.994 177.414,-501.345 182.102,-491.844 175.154,-490.994"/>
</g>
<!-- Node22 -->
<g id="node22" class="node"><title>Node22</title>
<g id="a_node22"><a xlink:href="classtomoBay_1_1model_1_1sql_1_1queries_1_1concreteQueries_1_1select_1_1params_1_1SelectBrandAndPartNoByOrderID.html#af9020b85517904668d036bc2bf89433c" target="_top" xlink:title="tomoBay.model.sql.queries.concrete\lQueries.select.params.SelectBrandAnd\lPartNoByOrderID.setParameters">
<polygon fill="white" stroke="black" points="288,-180.5 288,-221.5 476,-221.5 476,-180.5 288,-180.5"/>
<text text-anchor="start" x="296" y="-209.5" font-family="Helvetica,sans-Serif" font-size="10.00">tomoBay.model.sql.queries.concrete</text>
<text text-anchor="start" x="296" y="-198.5" font-family="Helvetica,sans-Serif" font-size="10.00">Queries.select.params.SelectBrandAnd</text>
<text text-anchor="middle" x="382" y="-187.5" font-family="Helvetica,sans-Serif" font-size="10.00">PartNoByOrderID.setParameters</text>
</a>
</g>
</g>
<!-- Node2&#45;&gt;Node22 -->
<g id="edge26" class="edge"><title>Node2&#45;&gt;Node22</title>
<path fill="none" stroke="midnightblue" d="M176.676,-491.348C178.241,-440.448 189.702,-303.271 266,-231 272.367,-224.97 279.789,-220.115 287.741,-216.211"/>
<polygon fill="midnightblue" stroke="midnightblue" points="173.177,-491.279 176.467,-501.35 180.175,-491.426 173.177,-491.279"/>
</g>
<!-- Node23 -->
<g id="node23" class="node"><title>Node23</title>
<g id="a_node23"><a xlink:href="classtomoBay_1_1model_1_1sql_1_1queries_1_1concreteQueries_1_1select_1_1params_1_1SelectEbayOrderByID.html#af9020b85517904668d036bc2bf89433c" target="_top" xlink:title="tomoBay.model.sql.queries.concrete\lQueries.select.params.SelectEbayOrder\lByID.setParameters">
<polygon fill="white" stroke="black" points="286,-120.5 286,-161.5 478,-161.5 478,-120.5 286,-120.5"/>
<text text-anchor="start" x="294" y="-149.5" font-family="Helvetica,sans-Serif" font-size="10.00">tomoBay.model.sql.queries.concrete</text>
<text text-anchor="start" x="294" y="-138.5" font-family="Helvetica,sans-Serif" font-size="10.00">Queries.select.params.SelectEbayOrder</text>
<text text-anchor="middle" x="382" y="-127.5" font-family="Helvetica,sans-Serif" font-size="10.00">ByID.setParameters</text>
</a>
</g>
</g>
<!-- Node2&#45;&gt;Node23 -->
<g id="edge27" class="edge"><title>Node2&#45;&gt;Node23</title>
<path fill="none" stroke="midnightblue" d="M179.067,-491.275C187.969,-425.827 219.532,-217.365 266,-171 271.769,-165.243 278.496,-160.549 285.748,-156.726"/>
<polygon fill="midnightblue" stroke="midnightblue" points="175.562,-491.077 177.71,-501.451 182.501,-492.002 175.562,-491.077"/>
</g>
<!-- Node24 -->
<g id="node24" class="node"><title>Node24</title>
<g id="a_node24"><a xlink:href="classtomoBay_1_1model_1_1sql_1_1queries_1_1concreteQueries_1_1select_1_1params_1_1SelectEbayBuyer.html#af9020b85517904668d036bc2bf89433c" target="_top" xlink:title="tomoBay.model.sql.queries.concrete\lQueries.select.params.SelectEbayBuyer.set\lParameters">
<polygon fill="white" stroke="black" points="277,-60.5 277,-101.5 487,-101.5 487,-60.5 277,-60.5"/>
<text text-anchor="start" x="285" y="-89.5" font-family="Helvetica,sans-Serif" font-size="10.00">tomoBay.model.sql.queries.concrete</text>
<text text-anchor="start" x="285" y="-78.5" font-family="Helvetica,sans-Serif" font-size="10.00">Queries.select.params.SelectEbayBuyer.set</text>
<text text-anchor="middle" x="382" y="-67.5" font-family="Helvetica,sans-Serif" font-size="10.00">Parameters</text>
</a>
</g>
</g>
<!-- Node2&#45;&gt;Node24 -->
<g id="edge28" class="edge"><title>Node2&#45;&gt;Node24</title>
<path fill="none" stroke="midnightblue" d="M178.239,-491.186C185.024,-418.367 212.043,-166.882 266,-111 269.368,-107.512 273.087,-104.411 277.063,-101.656"/>
<polygon fill="midnightblue" stroke="midnightblue" points="174.741,-491.007 177.323,-501.282 181.713,-491.639 174.741,-491.007"/>
</g>
<!-- Node25 -->
<g id="node25" class="node"><title>Node25</title>
<g id="a_node25"><a xlink:href="classtomoBay_1_1model_1_1sql_1_1queries_1_1concreteQueries_1_1select_1_1params_1_1SelectFullOrderLine.html#af9020b85517904668d036bc2bf89433c" target="_top" xlink:title="tomoBay.model.sql.queries.concrete\lQueries.select.params.SelectFullOrder\lLine.setParameters">
<polygon fill="white" stroke="black" points="289.5,-0.5 289.5,-41.5 474.5,-41.5 474.5,-0.5 289.5,-0.5"/>
<text text-anchor="start" x="297.5" y="-29.5" font-family="Helvetica,sans-Serif" font-size="10.00">tomoBay.model.sql.queries.concrete</text>
<text text-anchor="start" x="297.5" y="-18.5" font-family="Helvetica,sans-Serif" font-size="10.00">Queries.select.params.SelectFullOrder</text>
<text text-anchor="middle" x="382" y="-7.5" font-family="Helvetica,sans-Serif" font-size="10.00">Line.setParameters</text>
</a>
</g>
</g>
<!-- Node2&#45;&gt;Node25 -->
<g id="edge29" class="edge"><title>Node2&#45;&gt;Node25</title>
<path fill="none" stroke="midnightblue" d="M177.602,-491.366C182.449,-412.072 204.43,-116.578 266,-51 272.638,-43.93 280.715,-38.4449 289.478,-34.2009"/>
<polygon fill="midnightblue" stroke="midnightblue" points="174.103,-491.255 177.009,-501.443 181.091,-491.666 174.103,-491.255"/>
</g>
<!-- Node4 -->
<g id="node4" class="node"><title>Node4</title>
<g id="a_node4"><a xlink:href="classtomoBay_1_1model_1_1sql_1_1framework_1_1QueryUtility.html#a2da2ce60a8a037d55bdc69309db4815b" target="_top" xlink:title="private ctor ensures that this class is never instantiated ">
<polygon fill="white" stroke="black" points="609.5,-1094.5 609.5,-1113.5 677.5,-1113.5 677.5,-1094.5 609.5,-1094.5"/>
<text text-anchor="middle" x="643.5" y="-1101.5" font-family="Helvetica,sans-Serif" font-size="10.00">QueryUtility</text>
</a>
</g>
</g>
<!-- Node3&#45;&gt;Node4 -->
<g id="edge3" class="edge"><title>Node3&#45;&gt;Node4</title>
<path fill="none" stroke="midnightblue" d="M398.432,-892.257C421.548,-918.544 465.879,-970.674 498,-1019 516.496,-1046.83 506.852,-1065.52 534,-1085 555.752,-1100.61 586.162,-1104.83 609.255,-1105.45"/>
<polygon fill="midnightblue" stroke="midnightblue" points="400.963,-889.836 391.714,-884.668 395.722,-894.476 400.963,-889.836"/>
</g>
<!-- Node5 -->
<g id="node5" class="node"><title>Node5</title>
<g id="a_node5"><a xlink:href="classtomoBay_1_1model_1_1sql_1_1queries_1_1concreteQueries_1_1update_1_1UpdateInvoiceStatusSRN.html#af9020b85517904668d036bc2bf89433c" target="_top" xlink:title="tomoBay.model.sql.queries.concrete\lQueries.update.UpdateInvoiceStatusSRN.set\lParameters">
<polygon fill="white" stroke="black" points="536,-1034.5 536,-1075.5 751,-1075.5 751,-1034.5 536,-1034.5"/>
<text text-anchor="start" x="544" y="-1063.5" font-family="Helvetica,sans-Serif" font-size="10.00">tomoBay.model.sql.queries.concrete</text>
<text text-anchor="start" x="544" y="-1052.5" font-family="Helvetica,sans-Serif" font-size="10.00">Queries.update.UpdateInvoiceStatusSRN.set</text>
<text text-anchor="middle" x="643.5" y="-1041.5" font-family="Helvetica,sans-Serif" font-size="10.00">Parameters</text>
</a>
</g>
</g>
<!-- Node3&#45;&gt;Node5 -->
<g id="edge4" class="edge"><title>Node3&#45;&gt;Node5</title>
<path fill="none" stroke="midnightblue" d="M396.085,-893.084C419.903,-924.675 473.5,-989.883 534,-1025 540.085,-1028.53 546.604,-1031.66 553.315,-1034.44"/>
<polygon fill="midnightblue" stroke="midnightblue" points="398.691,-890.723 389.924,-884.773 393.068,-894.891 398.691,-890.723"/>
</g>
<!-- Node3&#45;&gt;Node6 -->
<g id="edge5" class="edge"><title>Node3&#45;&gt;Node6</title>
<path fill="none" stroke="midnightblue" d="M399.849,-892.002C424.408,-917.596 470.138,-968.428 498,-1019 521.603,-1061.84 498.333,-1089.53 534,-1123 537.777,-1126.54 541.934,-1129.68 546.353,-1132.44"/>
<polygon fill="midnightblue" stroke="midnightblue" points="402.147,-889.345 392.669,-884.612 397.127,-894.223 402.147,-889.345"/>
</g>
<!-- Node7 -->
<g id="node7" class="node"><title>Node7</title>
<g id="a_node7"><a xlink:href="classtomoBay_1_1model_1_1sql_1_1queries_1_1concreteQueries_1_1insert_1_1InsertOutOfHoursOrders.html#af9020b85517904668d036bc2bf89433c" target="_top" xlink:title="tomoBay.model.sql.queries.concrete\lQueries.insert.InsertOutOfHoursOrders.set\lParameters">
<polygon fill="white" stroke="black" points="542,-974.5 542,-1015.5 745,-1015.5 745,-974.5 542,-974.5"/>
<text text-anchor="start" x="550" y="-1003.5" font-family="Helvetica,sans-Serif" font-size="10.00">tomoBay.model.sql.queries.concrete</text>
<text text-anchor="start" x="550" y="-992.5" font-family="Helvetica,sans-Serif" font-size="10.00">Queries.insert.InsertOutOfHoursOrders.set</text>
<text text-anchor="middle" x="643.5" y="-981.5" font-family="Helvetica,sans-Serif" font-size="10.00">Parameters</text>
</a>
</g>
</g>
<!-- Node3&#45;&gt;Node7 -->
<g id="edge6" class="edge"><title>Node3&#45;&gt;Node7</title>
<path fill="none" stroke="midnightblue" d="M404.89,-890.622C433.407,-910.355 485.375,-944.234 534,-965 542.088,-968.454 550.685,-971.621 559.362,-974.495"/>
<polygon fill="midnightblue" stroke="midnightblue" points="406.691,-887.61 396.49,-884.747 402.679,-893.347 406.691,-887.61"/>
</g>
<!-- Node8 -->
<g id="node8" class="node"><title>Node8</title>
<g id="a_node8"><a xlink:href="classtomoBay_1_1model_1_1sql_1_1queries_1_1concreteQueries_1_1select_1_1params_1_1SelectEbayOrderHistoryLastNDays.html#af9020b85517904668d036bc2bf89433c" target="_top" xlink:title="tomoBay.model.sql.queries.concrete\lQueries.select.params.SelectEbayOrder\lHistoryLastNDays.setParameters">
<polygon fill="white" stroke="black" points="547.5,-914.5 547.5,-955.5 739.5,-955.5 739.5,-914.5 547.5,-914.5"/>
<text text-anchor="start" x="555.5" y="-943.5" font-family="Helvetica,sans-Serif" font-size="10.00">tomoBay.model.sql.queries.concrete</text>
<text text-anchor="start" x="555.5" y="-932.5" font-family="Helvetica,sans-Serif" font-size="10.00">Queries.select.params.SelectEbayOrder</text>
<text text-anchor="middle" x="643.5" y="-921.5" font-family="Helvetica,sans-Serif" font-size="10.00">HistoryLastNDays.setParameters</text>
</a>
</g>
</g>
<!-- Node3&#45;&gt;Node8 -->
<g id="edge7" class="edge"><title>Node3&#45;&gt;Node8</title>
<path fill="none" stroke="midnightblue" d="M434.295,-886.86C468.339,-894.732 513.922,-905.271 553.758,-914.482"/>
<polygon fill="midnightblue" stroke="midnightblue" points="434.65,-883.35 424.119,-884.507 433.073,-890.17 434.65,-883.35"/>
</g>
<!-- Node3&#45;&gt;Node9 -->
<g id="edge8" class="edge"><title>Node3&#45;&gt;Node9</title>
<path fill="none" stroke="midnightblue" d="M438.772,-863.394C477.209,-855.396 528.654,-844.691 570.23,-836.039"/>
<polygon fill="midnightblue" stroke="midnightblue" points="437.873,-860.006 428.796,-865.47 439.299,-866.859 437.873,-860.006"/>
</g>
<!-- Node3&#45;&gt;Node10 -->
<g id="edge9" class="edge"><title>Node3&#45;&gt;Node10</title>
<path fill="none" stroke="midnightblue" d="M407.514,-860.319C436.792,-843.266 487.64,-815.156 534,-797 542.644,-793.615 551.816,-790.453 561.021,-787.548"/>
<polygon fill="midnightblue" stroke="midnightblue" points="405.647,-857.356 398.799,-865.44 409.193,-863.391 405.647,-857.356"/>
</g>
<!-- Node3&#45;&gt;Node11 -->
<g id="edge10" class="edge"><title>Node3&#45;&gt;Node11</title>
<path fill="none" stroke="midnightblue" d="M397.134,-857.563C421.816,-828.268 475.729,-769.221 534,-737 540.414,-733.454 547.276,-730.302 554.319,-727.507"/>
<polygon fill="midnightblue" stroke="midnightblue" points="394.395,-855.384 390.704,-865.315 399.782,-859.853 394.395,-855.384"/>
</g>
<!-- Node3&#45;&gt;Node12 -->
<g id="edge11" class="edge"><title>Node3&#45;&gt;Node12</title>
<path fill="none" stroke="midnightblue" d="M394.626,-856.887C423.252,-812.797 497.465,-701.701 534,-677 539.586,-673.223 545.636,-669.92 551.925,-667.031"/>
<polygon fill="midnightblue" stroke="midnightblue" points="391.581,-855.15 389.094,-865.449 397.46,-858.949 391.581,-855.15"/>
</g>
<!-- Node13 -->
<g id="node13" class="node"><title>Node13</title>
<g id="a_node13"><a xlink:href="classtomoBay_1_1model_1_1sql_1_1queries_1_1concreteQueries_1_1select_1_1params_1_1SelectBrandByInv.html#af9020b85517904668d036bc2bf89433c" target="_top" xlink:title="tomoBay.model.sql.queries.concrete\lQueries.select.params.SelectBrandBy\lInv.setParameters">
<polygon fill="white" stroke="black" points="552,-854.5 552,-895.5 735,-895.5 735,-854.5 552,-854.5"/>
<text text-anchor="start" x="560" y="-883.5" font-family="Helvetica,sans-Serif" font-size="10.00">tomoBay.model.sql.queries.concrete</text>
<text text-anchor="start" x="560" y="-872.5" font-family="Helvetica,sans-Serif" font-size="10.00">Queries.select.params.SelectBrandBy</text>
<text text-anchor="middle" x="643.5" y="-861.5" font-family="Helvetica,sans-Serif" font-size="10.00">Inv.setParameters</text>
</a>
</g>
</g>
<!-- Node3&#45;&gt;Node13 -->
<g id="edge12" class="edge"><title>Node3&#45;&gt;Node13</title>
<path fill="none" stroke="midnightblue" d="M444.397,-875C476.484,-875 516.377,-875 551.936,-875"/>
<polygon fill="midnightblue" stroke="midnightblue" points="444.269,-871.5 434.269,-875 444.269,-878.5 444.269,-871.5"/>
</g>
</g>
</svg>
