<?xml version="1.0" encoding="UTF-8" standalone="no"?>
<!DOCTYPE svg PUBLIC "-//W3C//DTD SVG 1.1//EN"
 "http://www.w3.org/Graphics/SVG/1.1/DTD/svg11.dtd">
<!-- Generated by graphviz version 2.38.0 (20140413.2041)
 -->
<!-- Title: setINTEGERParam Pages: 1 -->
<svg width="1627pt" height="616pt"
 viewBox="0.00 0.00 1627.00 616.00" xmlns="http://www.w3.org/2000/svg" xmlns:xlink="http://www.w3.org/1999/xlink">
<g id="graph0" class="graph" transform="scale(1 1) rotate(0) translate(4 612)">
<title>setINTEGERParam</title>
<polygon fill="white" stroke="none" points="-4,4 -4,-612 1623,-612 1623,4 -4,4"/>
<!-- Node1 -->
<g id="node1" class="node"><title>Node1</title>
<polygon fill="#bfbfbf" stroke="black" points="0,-294.5 0,-313.5 104,-313.5 104,-294.5 0,-294.5"/>
<text text-anchor="middle" x="52" y="-301.5" font-family="Helvetica,sans-Serif" font-size="10.00">setINTEGERParam</text>
</g>
<!-- Node2 -->
<g id="node2" class="node"><title>Node2</title>
<g id="a_node2"><a xlink:href="classtomoBay_1_1model_1_1dataTypes_1_1heteroTypeContainer_1_1HeteroFieldContainer.html#a988363ab964d6dc0ccb8560bef5895b6" target="_top" xlink:title="retrieve the the value of an AbstractField from this HeteroFieldContainer, the field should be of the...">
<polygon fill="white" stroke="black" points="1205,-137 1205,-167 1397,-167 1397,-137 1205,-137"/>
<text text-anchor="start" x="1213" y="-155" font-family="Helvetica,sans-Serif" font-size="10.00">tomoBay.model.dataTypes.hetero</text>
<text text-anchor="middle" x="1301" y="-144" font-family="Helvetica,sans-Serif" font-size="10.00">TypeContainer.HeteroFieldContainer.get</text>
</a>
</g>
</g>
<!-- Node1&#45;&gt;Node2 -->
<g id="edge1" class="edge"><title>Node1&#45;&gt;Node2</title>
<path fill="none" stroke="midnightblue" d="M56.1743,-294.23C73.7517,-242.195 164.28,-0 326.5,-0 326.5,-0 326.5,-0 994,-0 1074.2,-0 1097.42,-7.83007 1169,-44 1212.68,-66.0716 1254.8,-104.942 1279.02,-129.537"/>
<polygon fill="midnightblue" stroke="midnightblue" points="1276.76,-132.234 1286.23,-136.981 1281.78,-127.363 1276.76,-132.234"/>
</g>
<!-- Node4 -->
<g id="node4" class="node"><title>Node4</title>
<g id="a_node4"><a xlink:href="classtomoBay_1_1model_1_1sql_1_1framework_1_1QueryUtility.html#a3249b16421a9902f2248cb86d4dd3be3" target="_top" xlink:title="set an Integer parameter for the query object specified. ">
<polygon fill="white" stroke="black" points="140,-294.5 140,-313.5 249,-313.5 249,-294.5 140,-294.5"/>
<text text-anchor="middle" x="194.5" y="-301.5" font-family="Helvetica,sans-Serif" font-size="10.00">setVARCHARParam</text>
</a>
</g>
</g>
<!-- Node1&#45;&gt;Node4 -->
<g id="edge3" class="edge"><title>Node1&#45;&gt;Node4</title>
<path fill="none" stroke="midnightblue" d="M104.121,-304C112.468,-304 121.204,-304 129.808,-304"/>
<polygon fill="midnightblue" stroke="midnightblue" points="129.816,-307.5 139.816,-304 129.816,-300.5 129.816,-307.5"/>
</g>
<!-- Node5 -->
<g id="node5" class="node"><title>Node5</title>
<g id="a_node5"><a xlink:href="classtomoBay_1_1model_1_1sql_1_1framework_1_1queryTypes_1_1AbstractDBQuery.html#a41678b13e84de4335130f10cea7ae562" target="_top" xlink:title="get the statement object associated with this query ">
<polygon fill="white" stroke="black" points="1213,-441 1213,-471 1389,-471 1389,-441 1213,-441"/>
<text text-anchor="start" x="1221" y="-459" font-family="Helvetica,sans-Serif" font-size="10.00">tomoBay.model.sql.framework.query</text>
<text text-anchor="middle" x="1301" y="-448" font-family="Helvetica,sans-Serif" font-size="10.00">Types.AbstractDBQuery.statement</text>
</a>
</g>
</g>
<!-- Node1&#45;&gt;Node5 -->
<g id="edge28" class="edge"><title>Node1&#45;&gt;Node5</title>
<path fill="none" stroke="midnightblue" d="M56.1743,-313.77C73.7517,-365.805 164.28,-608 326.5,-608 326.5,-608 326.5,-608 994,-608 1074.89,-608 1096.88,-594.629 1169,-558 1210.97,-536.682 1252.71,-501.049 1277.43,-478.043"/>
<polygon fill="midnightblue" stroke="midnightblue" points="1279.97,-480.461 1284.83,-471.051 1275.16,-475.371 1279.97,-480.461"/>
</g>
<!-- Node3 -->
<g id="node3" class="node"><title>Node3</title>
<g id="a_node3"><a xlink:href="classtomoBay_1_1model_1_1dataTypes_1_1heteroTypeContainer_1_1HeteroFieldContainer.html#a9dee3c01eb5ab16203e1c6820a569484" target="_top" xlink:title="performs a type check, assuming that field and type are of the same type then this method returns tru...">
<polygon fill="white" stroke="black" points="1433,-131.5 1433,-172.5 1619,-172.5 1619,-131.5 1433,-131.5"/>
<text text-anchor="start" x="1441" y="-160.5" font-family="Helvetica,sans-Serif" font-size="10.00">tomoBay.model.dataTypes.hetero</text>
<text text-anchor="start" x="1441" y="-149.5" font-family="Helvetica,sans-Serif" font-size="10.00">TypeContainer.HeteroFieldContainer.is</text>
<text text-anchor="middle" x="1526" y="-138.5" font-family="Helvetica,sans-Serif" font-size="10.00">SameType</text>
</a>
</g>
</g>
<!-- Node2&#45;&gt;Node3 -->
<g id="edge2" class="edge"><title>Node2&#45;&gt;Node3</title>
<path fill="none" stroke="midnightblue" d="M1397.22,-152C1405.73,-152 1414.37,-152 1422.93,-152"/>
<polygon fill="midnightblue" stroke="midnightblue" points="1422.93,-155.5 1432.93,-152 1422.93,-148.5 1422.93,-155.5"/>
</g>
<!-- Node4&#45;&gt;Node2 -->
<g id="edge6" class="edge"><title>Node4&#45;&gt;Node2</title>
<path fill="none" stroke="midnightblue" d="M199.119,-294.217C217.566,-246.228 305.965,-38 451,-38 451,-38 451,-38 994,-38 1073.99,-38 1094.4,-51.1467 1169,-80 1204.51,-93.7337 1242.34,-115.371 1268.17,-131.344"/>
<polygon fill="midnightblue" stroke="midnightblue" points="1266.45,-134.396 1276.78,-136.736 1270.16,-128.463 1266.45,-134.396"/>
</g>
<!-- Node4&#45;&gt;Node5 -->
<g id="edge4" class="edge"><title>Node4&#45;&gt;Node5</title>
<path fill="none" stroke="midnightblue" d="M199.119,-313.783C217.566,-361.772 305.965,-570 451,-570 451,-570 451,-570 994,-570 1073.99,-570 1094.4,-556.853 1169,-528 1204.51,-514.266 1242.34,-492.629 1268.17,-476.656"/>
<polygon fill="midnightblue" stroke="midnightblue" points="1270.16,-479.537 1276.78,-471.264 1266.45,-473.604 1270.16,-479.537"/>
</g>
<!-- Node7 -->
<g id="node7" class="node"><title>Node7</title>
<g id="a_node7"><a xlink:href="classtomoBay_1_1model_1_1sql_1_1framework_1_1QueryUtility.html#a50955d4f51a1a7a88ef0c8aadbe9c793" target="_top" xlink:title="set an Integer parameter for the query object specified. ">
<polygon fill="white" stroke="black" points="285,-294.5 285,-313.5 370,-313.5 370,-294.5 285,-294.5"/>
<text text-anchor="middle" x="327.5" y="-301.5" font-family="Helvetica,sans-Serif" font-size="10.00">setBYTEParam</text>
</a>
</g>
</g>
<!-- Node4&#45;&gt;Node7 -->
<g id="edge7" class="edge"><title>Node4&#45;&gt;Node7</title>
<path fill="none" stroke="midnightblue" d="M249.161,-304C257.6,-304 266.311,-304 274.707,-304"/>
<polygon fill="midnightblue" stroke="midnightblue" points="274.753,-307.5 284.753,-304 274.753,-300.5 274.753,-307.5"/>
</g>
<!-- Node6 -->
<g id="node6" class="node"><title>Node6</title>
<g id="a_node6"><a xlink:href="classtomoBay_1_1model_1_1sql_1_1framework_1_1queryTypes_1_1AbstractDBQuery.html#ae8a5c5f1701ee77ef658050c8345d518" target="_top" xlink:title="Used by derived classes to define the Query string to be used in the query. ">
<polygon fill="white" stroke="black" points="1438,-441 1438,-471 1614,-471 1614,-441 1438,-441"/>
<text text-anchor="start" x="1446" y="-459" font-family="Helvetica,sans-Serif" font-size="10.00">tomoBay.model.sql.framework.query</text>
<text text-anchor="middle" x="1526" y="-448" font-family="Helvetica,sans-Serif" font-size="10.00">Types.AbstractDBQuery.queryString</text>
</a>
</g>
</g>
<!-- Node5&#45;&gt;Node6 -->
<g id="edge5" class="edge"><title>Node5&#45;&gt;Node6</title>
<path fill="none" stroke="midnightblue" d="M1389.18,-456C1401.8,-456 1414.87,-456 1427.68,-456"/>
<polygon fill="midnightblue" stroke="midnightblue" points="1427.88,-459.5 1437.88,-456 1427.88,-452.5 1427.88,-459.5"/>
</g>
<!-- Node7&#45;&gt;Node2 -->
<g id="edge9" class="edge"><title>Node7&#45;&gt;Node2</title>
<path fill="none" stroke="midnightblue" d="M333.034,-294.493C354.344,-251.343 449.113,-76 582,-76 582,-76 582,-76 994,-76 1088.89,-76 1195.58,-110.848 1254.58,-133.35"/>
<polygon fill="midnightblue" stroke="midnightblue" points="1253.39,-136.642 1263.98,-136.985 1255.92,-130.114 1253.39,-136.642"/>
</g>
<!-- Node7&#45;&gt;Node5 -->
<g id="edge8" class="edge"><title>Node7&#45;&gt;Node5</title>
<path fill="none" stroke="midnightblue" d="M333.034,-313.507C354.344,-356.657 449.113,-532 582,-532 582,-532 582,-532 994,-532 1088.89,-532 1195.58,-497.152 1254.58,-474.65"/>
<polygon fill="midnightblue" stroke="midnightblue" points="1255.92,-477.886 1263.98,-471.015 1253.39,-471.358 1255.92,-477.886"/>
</g>
<!-- Node8 -->
<g id="node8" class="node"><title>Node8</title>
<g id="a_node8"><a xlink:href="classtomoBay_1_1model_1_1sql_1_1framework_1_1QueryUtility.html#a138f0c046bc0a6df71b168ab35c3c3e3" target="_top" xlink:title="set an Integer parameter for the query object specified. ">
<polygon fill="white" stroke="black" points="406,-294.5 406,-313.5 498,-313.5 498,-294.5 406,-294.5"/>
<text text-anchor="middle" x="452" y="-301.5" font-family="Helvetica,sans-Serif" font-size="10.00">setBIGINTParam</text>
</a>
</g>
</g>
<!-- Node7&#45;&gt;Node8 -->
<g id="edge10" class="edge"><title>Node7&#45;&gt;Node8</title>
<path fill="none" stroke="midnightblue" d="M370.315,-304C378.396,-304 386.981,-304 395.421,-304"/>
<polygon fill="midnightblue" stroke="midnightblue" points="395.6,-307.5 405.6,-304 395.6,-300.5 395.6,-307.5"/>
</g>
<!-- Node8&#45;&gt;Node2 -->
<g id="edge12" class="edge"><title>Node8&#45;&gt;Node2</title>
<path fill="none" stroke="midnightblue" d="M459.741,-294.317C487.566,-255.598 598.042,-114 725.5,-114 725.5,-114 725.5,-114 994,-114 1068.04,-114 1151.39,-125.091 1212.38,-135.289"/>
<polygon fill="midnightblue" stroke="midnightblue" points="1211.91,-138.759 1222.35,-136.981 1213.08,-131.857 1211.91,-138.759"/>
</g>
<!-- Node8&#45;&gt;Node5 -->
<g id="edge11" class="edge"><title>Node8&#45;&gt;Node5</title>
<path fill="none" stroke="midnightblue" d="M459.741,-313.683C487.566,-352.402 598.042,-494 725.5,-494 725.5,-494 725.5,-494 994,-494 1068.04,-494 1151.39,-482.909 1212.38,-472.711"/>
<polygon fill="midnightblue" stroke="midnightblue" points="1213.08,-476.143 1222.35,-471.019 1211.91,-469.241 1213.08,-476.143"/>
</g>
<!-- Node9 -->
<g id="node9" class="node"><title>Node9</title>
<g id="a_node9"><a xlink:href="classtomoBay_1_1model_1_1sql_1_1framework_1_1QueryUtility.html#a56a65ac583b8720ae73dc81278e5690e" target="_top" xlink:title="set an Integer parameter for the query object specified. ">
<polygon fill="white" stroke="black" points="534,-294.5 534,-313.5 632,-313.5 632,-294.5 534,-294.5"/>
<text text-anchor="middle" x="583" y="-301.5" font-family="Helvetica,sans-Serif" font-size="10.00">setTINYINTParam</text>
</a>
</g>
</g>
<!-- Node8&#45;&gt;Node9 -->
<g id="edge13" class="edge"><title>Node8&#45;&gt;Node9</title>
<path fill="none" stroke="midnightblue" d="M498.118,-304C506.279,-304 514.897,-304 523.378,-304"/>
<polygon fill="midnightblue" stroke="midnightblue" points="523.615,-307.5 533.615,-304 523.615,-300.5 523.615,-307.5"/>
</g>
<!-- Node9&#45;&gt;Node2 -->
<g id="edge15" class="edge"><title>Node9&#45;&gt;Node2</title>
<path fill="none" stroke="midnightblue" d="M593.119,-294.492C626.063,-261.215 743.304,-152 863,-152 863,-152 863,-152 994,-152 1060.79,-152 1135.79,-152 1194.81,-152"/>
<polygon fill="midnightblue" stroke="midnightblue" points="1194.89,-155.5 1204.89,-152 1194.89,-148.5 1194.89,-155.5"/>
</g>
<!-- Node9&#45;&gt;Node5 -->
<g id="edge14" class="edge"><title>Node9&#45;&gt;Node5</title>
<path fill="none" stroke="midnightblue" d="M593.119,-313.508C626.063,-346.785 743.304,-456 863,-456 863,-456 863,-456 994,-456 1063.81,-456 1142.57,-456 1202.7,-456"/>
<polygon fill="midnightblue" stroke="midnightblue" points="1202.95,-459.5 1212.95,-456 1202.95,-452.5 1202.95,-459.5"/>
</g>
<!-- Node10 -->
<g id="node10" class="node"><title>Node10</title>
<g id="a_node10"><a xlink:href="classtomoBay_1_1model_1_1sql_1_1framework_1_1QueryUtility.html#ab07d04299a96461dcf893416b8e32604" target="_top" xlink:title="set an Integer parameter for the query object specified. ">
<polygon fill="white" stroke="black" points="668,-294.5 668,-313.5 785,-313.5 785,-294.5 668,-294.5"/>
<text text-anchor="middle" x="726.5" y="-301.5" font-family="Helvetica,sans-Serif" font-size="10.00">setTIMESTAMPParam</text>
</a>
</g>
</g>
<!-- Node9&#45;&gt;Node10 -->
<g id="edge16" class="edge"><title>Node9&#45;&gt;Node10</title>
<path fill="none" stroke="midnightblue" d="M632.301,-304C640.383,-304 648.901,-304 657.37,-304"/>
<polygon fill="midnightblue" stroke="midnightblue" points="657.642,-307.5 667.642,-304 657.642,-300.5 657.642,-307.5"/>
</g>
<!-- Node10&#45;&gt;Node2 -->
<g id="edge18" class="edge"><title>Node10&#45;&gt;Node2</title>
<path fill="none" stroke="midnightblue" d="M759.352,-294.405C820.883,-275.989 960.482,-234.785 1079,-204 1126.5,-191.661 1180.08,-179.023 1222.58,-169.296"/>
<polygon fill="midnightblue" stroke="midnightblue" points="1223.61,-172.651 1232.58,-167.015 1222.06,-165.827 1223.61,-172.651"/>
</g>
<!-- Node10&#45;&gt;Node5 -->
<g id="edge17" class="edge"><title>Node10&#45;&gt;Node5</title>
<path fill="none" stroke="midnightblue" d="M760.357,-313.543C822.442,-331.488 961.322,-371.227 1079,-402 1127.92,-414.793 1183.18,-428.296 1226.21,-438.599"/>
<polygon fill="midnightblue" stroke="midnightblue" points="1225.49,-442.027 1236.03,-440.947 1227.12,-435.218 1225.49,-442.027"/>
</g>
<!-- Node11 -->
<g id="node11" class="node"><title>Node11</title>
<g id="a_node11"><a xlink:href="classtomoBay_1_1model_1_1sql_1_1framework_1_1QueryUtility.html#a202aab30c77e06c32318efd5cf949ca3" target="_top" xlink:title="set an Integer parameter for the query object specified. ">
<polygon fill="white" stroke="black" points="821,-294.5 821,-313.5 907,-313.5 907,-294.5 821,-294.5"/>
<text text-anchor="middle" x="864" y="-301.5" font-family="Helvetica,sans-Serif" font-size="10.00">setDATEParam</text>
</a>
</g>
</g>
<!-- Node10&#45;&gt;Node11 -->
<g id="edge19" class="edge"><title>Node10&#45;&gt;Node11</title>
<path fill="none" stroke="midnightblue" d="M785.357,-304C793.753,-304 802.356,-304 810.635,-304"/>
<polygon fill="midnightblue" stroke="midnightblue" points="810.909,-307.5 820.909,-304 810.909,-300.5 810.909,-307.5"/>
</g>
<!-- Node11&#45;&gt;Node2 -->
<g id="edge21" class="edge"><title>Node11&#45;&gt;Node2</title>
<path fill="none" stroke="midnightblue" d="M896.284,-294.392C951.628,-277.242 1070.28,-239.793 1169,-204 1197.66,-193.609 1229.45,-181.016 1254.54,-170.826"/>
<polygon fill="midnightblue" stroke="midnightblue" points="1255.86,-174.064 1263.8,-167.047 1253.22,-167.582 1255.86,-174.064"/>
</g>
<!-- Node11&#45;&gt;Node5 -->
<g id="edge20" class="edge"><title>Node11&#45;&gt;Node5</title>
<path fill="none" stroke="midnightblue" d="M896.284,-313.608C951.628,-330.758 1070.28,-368.207 1169,-404 1197.66,-414.391 1229.45,-426.984 1254.54,-437.174"/>
<polygon fill="midnightblue" stroke="midnightblue" points="1253.22,-440.418 1263.8,-440.953 1255.86,-433.936 1253.22,-440.418"/>
</g>
<!-- Node12 -->
<g id="node12" class="node"><title>Node12</title>
<g id="a_node12"><a xlink:href="classtomoBay_1_1model_1_1sql_1_1framework_1_1QueryUtility.html#a5677c2440b48e612fb51b57130555e5d" target="_top" xlink:title="set an Integer parameter for the query object specified. ">
<polygon fill="white" stroke="black" points="943,-294.5 943,-313.5 1043,-313.5 1043,-294.5 943,-294.5"/>
<text text-anchor="middle" x="993" y="-301.5" font-family="Helvetica,sans-Serif" font-size="10.00">setDOUBLEParam</text>
</a>
</g>
</g>
<!-- Node11&#45;&gt;Node12 -->
<g id="edge22" class="edge"><title>Node11&#45;&gt;Node12</title>
<path fill="none" stroke="midnightblue" d="M907.289,-304C915.483,-304 924.21,-304 932.83,-304"/>
<polygon fill="midnightblue" stroke="midnightblue" points="932.862,-307.5 942.862,-304 932.862,-300.5 932.862,-307.5"/>
</g>
<!-- Node12&#45;&gt;Node2 -->
<g id="edge24" class="edge"><title>Node12&#45;&gt;Node2</title>
<path fill="none" stroke="midnightblue" d="M1029.31,-294.456C1065.47,-284.007 1122.76,-265.559 1169,-242 1207.43,-222.417 1247.78,-193.19 1273.37,-173.4"/>
<polygon fill="midnightblue" stroke="midnightblue" points="1275.73,-175.993 1281.46,-167.078 1271.42,-170.478 1275.73,-175.993"/>
</g>
<!-- Node12&#45;&gt;Node5 -->
<g id="edge23" class="edge"><title>Node12&#45;&gt;Node5</title>
<path fill="none" stroke="midnightblue" d="M1029.31,-313.544C1065.47,-323.993 1122.76,-342.441 1169,-366 1207.43,-385.583 1247.78,-414.81 1273.37,-434.6"/>
<polygon fill="midnightblue" stroke="midnightblue" points="1271.42,-437.522 1281.46,-440.922 1275.73,-432.007 1271.42,-437.522"/>
</g>
<!-- Node13 -->
<g id="node13" class="node"><title>Node13</title>
<g id="a_node13"><a xlink:href="classtomoBay_1_1model_1_1sql_1_1framework_1_1QueryUtility.html#adf8f1fea7b649baadeb0297c41be72f5" target="_top" xlink:title="set an Integer parameter for the query object specified. ">
<polygon fill="white" stroke="black" points="1079,-294.5 1079,-313.5 1169,-313.5 1169,-294.5 1079,-294.5"/>
<text text-anchor="middle" x="1124" y="-301.5" font-family="Helvetica,sans-Serif" font-size="10.00">setFLOATParam</text>
</a>
</g>
</g>
<!-- Node12&#45;&gt;Node13 -->
<g id="edge25" class="edge"><title>Node12&#45;&gt;Node13</title>
<path fill="none" stroke="midnightblue" d="M1043.14,-304C1051.44,-304 1060.1,-304 1068.53,-304"/>
<polygon fill="midnightblue" stroke="midnightblue" points="1068.65,-307.5 1078.65,-304 1068.65,-300.5 1068.65,-307.5"/>
</g>
<!-- Node13&#45;&gt;Node2 -->
<g id="edge27" class="edge"><title>Node13&#45;&gt;Node2</title>
<path fill="none" stroke="midnightblue" d="M1145.42,-294.354C1153.1,-290.349 1161.72,-285.379 1169,-280 1212.33,-247.967 1255.7,-202.252 1280.07,-175.007"/>
<polygon fill="midnightblue" stroke="midnightblue" points="1282.99,-176.987 1287,-167.18 1277.75,-172.346 1282.99,-176.987"/>
</g>
<!-- Node13&#45;&gt;Node5 -->
<g id="edge26" class="edge"><title>Node13&#45;&gt;Node5</title>
<path fill="none" stroke="midnightblue" d="M1145.42,-313.646C1153.1,-317.651 1161.72,-322.621 1169,-328 1212.33,-360.033 1255.7,-405.748 1280.07,-432.993"/>
<polygon fill="midnightblue" stroke="midnightblue" points="1277.75,-435.654 1287,-440.82 1282.99,-431.013 1277.75,-435.654"/>
</g>
</g>
</svg>
