<?xml version="1.0" encoding="UTF-8" standalone="no"?>
<!DOCTYPE svg PUBLIC "-//W3C//DTD SVG 1.1//EN"
 "http://www.w3.org/Graphics/SVG/1.1/DTD/svg11.dtd">
<!-- Generated by graphviz version 2.38.0 (20140413.2041)
 -->
<!-- Title: summaryInfo Pages: 1 -->
<svg width="1026pt" height="621pt"
 viewBox="0.00 0.00 1026.00 621.00" xmlns="http://www.w3.org/2000/svg" xmlns:xlink="http://www.w3.org/1999/xlink">
<g id="graph0" class="graph" transform="scale(1 1) rotate(0) translate(4 617)">
<title>summaryInfo</title>
<polygon fill="white" stroke="none" points="-4,4 -4,-617 1022,-617 1022,4 -4,4"/>
<!-- Node1 -->
<g id="node1" class="node"><title>Node1</title>
<polygon fill="#bfbfbf" stroke="black" points="0,-274 0,-293 74,-293 74,-274 0,-274"/>
<text text-anchor="middle" x="37" y="-281" font-family="Helvetica,sans-Serif" font-size="10.00">summaryInfo</text>
</g>
<!-- Node2 -->
<g id="node2" class="node"><title>Node2</title>
<g id="a_node2"><a xlink:href="classtomoBay_1_1model_1_1dataTypes_1_1order_1_1Order.html#af1b2ba6868fd8d054a2c7f40f8a8b6e0" target="_top" xlink:title="retrieve the account that this order is associated with ">
<polygon fill="white" stroke="black" points="135,-546.5 135,-576.5 296,-576.5 296,-546.5 135,-546.5"/>
<text text-anchor="start" x="143" y="-564.5" font-family="Helvetica,sans-Serif" font-size="10.00">tomoBay.model.dataTypes.order.</text>
<text text-anchor="middle" x="215.5" y="-553.5" font-family="Helvetica,sans-Serif" font-size="10.00">Order.account</text>
</a>
</g>
</g>
<!-- Node1&#45;&gt;Node2 -->
<g id="edge1" class="edge"><title>Node1&#45;&gt;Node2</title>
<path fill="none" stroke="midnightblue" d="M37.5356,-293.034C36.2729,-330.373 36.9217,-468.02 110,-537.5 114.648,-541.919 119.937,-545.583 125.612,-548.616"/>
<polygon fill="midnightblue" stroke="midnightblue" points="124.264,-551.849 134.809,-552.879 127.208,-545.498 124.264,-551.849"/>
</g>
<!-- Node7 -->
<g id="node7" class="node"><title>Node7</title>
<g id="a_node7"><a xlink:href="classtomoBay_1_1model_1_1dataTypes_1_1json_1_1JSONentity.html#afead82af115042a64d2604ec5f508f45" target="_top" xlink:title="A leaf node is simply a key value pair. ">
<polygon fill="white" stroke="black" points="136.5,-497.5 136.5,-527.5 294.5,-527.5 294.5,-497.5 136.5,-497.5"/>
<text text-anchor="start" x="144.5" y="-515.5" font-family="Helvetica,sans-Serif" font-size="10.00">tomoBay.model.dataTypes.json.</text>
<text text-anchor="middle" x="215.5" y="-504.5" font-family="Helvetica,sans-Serif" font-size="10.00">JSONentity.addLeaf</text>
</a>
</g>
</g>
<!-- Node1&#45;&gt;Node7 -->
<g id="edge6" class="edge"><title>Node1&#45;&gt;Node7</title>
<path fill="none" stroke="midnightblue" d="M38.508,-293.028C40.7301,-324.861 52.2889,-428.564 110,-482.5 115.096,-487.263 120.898,-491.275 127.096,-494.655"/>
<polygon fill="midnightblue" stroke="midnightblue" points="125.899,-497.964 136.425,-499.169 128.947,-491.663 125.899,-497.964"/>
</g>
<!-- Node9 -->
<g id="node9" class="node"><title>Node9</title>
<g id="a_node9"><a xlink:href="classtomoBay_1_1model_1_1dataTypes_1_1order_1_1Order.html#af3f37e9085e3517cf3b87bf1a9e9aa9a" target="_top" xlink:title="retrieve the time at which this order was created ">
<polygon fill="white" stroke="black" points="382,-442.5 382,-472.5 543,-472.5 543,-442.5 382,-442.5"/>
<text text-anchor="start" x="390" y="-460.5" font-family="Helvetica,sans-Serif" font-size="10.00">tomoBay.model.dataTypes.order.</text>
<text text-anchor="middle" x="462.5" y="-449.5" font-family="Helvetica,sans-Serif" font-size="10.00">Order.createdTime</text>
</a>
</g>
</g>
<!-- Node1&#45;&gt;Node9 -->
<g id="edge8" class="edge"><title>Node1&#45;&gt;Node9</title>
<path fill="none" stroke="midnightblue" d="M38.7784,-293.168C41.7284,-322.626 55.0337,-411.5 110,-448.5 151.142,-476.194 281.665,-472.358 371.53,-465.861"/>
<polygon fill="midnightblue" stroke="midnightblue" points="372.02,-469.334 381.732,-465.099 371.499,-462.353 372.02,-469.334"/>
</g>
<!-- Node10 -->
<g id="node10" class="node"><title>Node10</title>
<g id="a_node10"><a xlink:href="classtomoBay_1_1model_1_1dataTypes_1_1financial_1_1VAT.html#ac23e191d87387543f277a9c19345181f" target="_top" xlink:title="provides the value for VAT due on a particular value ">
<polygon fill="white" stroke="black" points="127.5,-409.5 127.5,-439.5 303.5,-439.5 303.5,-409.5 127.5,-409.5"/>
<text text-anchor="start" x="135.5" y="-427.5" font-family="Helvetica,sans-Serif" font-size="10.00">tomoBay.model.dataTypes.financial.</text>
<text text-anchor="middle" x="215.5" y="-416.5" font-family="Helvetica,sans-Serif" font-size="10.00">VAT.due</text>
</a>
</g>
</g>
<!-- Node1&#45;&gt;Node10 -->
<g id="edge10" class="edge"><title>Node1&#45;&gt;Node10</title>
<path fill="none" stroke="midnightblue" d="M41.0344,-293.172C48.6581,-315.803 70.8575,-372.411 110,-400.5 112.684,-402.426 115.499,-404.201 118.413,-405.836"/>
<polygon fill="midnightblue" stroke="midnightblue" points="116.91,-408.997 127.421,-410.331 120.036,-402.734 116.91,-408.997"/>
</g>
<!-- Node11 -->
<g id="node11" class="node"><title>Node11</title>
<g id="a_node11"><a xlink:href="classtomoBay_1_1model_1_1dataTypes_1_1financial_1_1SalesOrderDayBook_1_1AbstractSalesDayBookLine.html#a2322342510367e536d54eb47f2c43512" target="_top" xlink:title="returns the invoice number of this invoice, if it exists. ">
<polygon fill="white" stroke="black" points="110,-350 110,-391 321,-391 321,-350 110,-350"/>
<text text-anchor="start" x="118" y="-379" font-family="Helvetica,sans-Serif" font-size="10.00">tomoBay.model.dataTypes.financial.</text>
<text text-anchor="start" x="118" y="-368" font-family="Helvetica,sans-Serif" font-size="10.00">SalesOrderDayBook.AbstractSalesDayBook</text>
<text text-anchor="middle" x="215.5" y="-357" font-family="Helvetica,sans-Serif" font-size="10.00">Line.invoiceNumber</text>
</a>
</g>
</g>
<!-- Node1&#45;&gt;Node11 -->
<g id="edge11" class="edge"><title>Node1&#45;&gt;Node11</title>
<path fill="none" stroke="midnightblue" d="M49.0224,-293.109C62.5823,-304.525 86.6814,-323.527 110,-335.5 117.667,-339.437 125.872,-343.072 134.187,-346.389"/>
<polygon fill="midnightblue" stroke="midnightblue" points="133.01,-349.686 143.6,-349.999 135.516,-343.15 133.01,-349.686"/>
</g>
<!-- Node13 -->
<g id="node13" class="node"><title>Node13</title>
<g id="a_node13"><a xlink:href="classtomoBay_1_1model_1_1dataTypes_1_1financial_1_1SalesOrderDayBook_1_1AbstractSalesDayBookLine.html#afacf6217c7f58a049b532205066da488" target="_top" xlink:title="retrieve the order that this AbstractSalesDayBookLine refers to. ">
<polygon fill="white" stroke="black" points="357,-328 357,-369 568,-369 568,-328 357,-328"/>
<text text-anchor="start" x="365" y="-357" font-family="Helvetica,sans-Serif" font-size="10.00">tomoBay.model.dataTypes.financial.</text>
<text text-anchor="start" x="365" y="-346" font-family="Helvetica,sans-Serif" font-size="10.00">SalesOrderDayBook.AbstractSalesDayBook</text>
<text text-anchor="middle" x="462.5" y="-335" font-family="Helvetica,sans-Serif" font-size="10.00">Line.orderInfo</text>
</a>
</g>
</g>
<!-- Node1&#45;&gt;Node13 -->
<g id="edge17" class="edge"><title>Node1&#45;&gt;Node13</title>
<path fill="none" stroke="midnightblue" d="M70.771,-293.094C83.0027,-296.424 97.0611,-299.957 110,-302.5 188.424,-317.913 277.734,-329.526 346.705,-337.228"/>
<polygon fill="midnightblue" stroke="midnightblue" points="346.406,-340.716 356.73,-338.336 347.175,-333.759 346.406,-340.716"/>
</g>
<!-- Node14 -->
<g id="node14" class="node"><title>Node14</title>
<g id="a_node14"><a xlink:href="classtomoBay_1_1model_1_1dataTypes_1_1order_1_1Order.html#ab745ca2c180765a4cb8792a60edd5dc7" target="_top" xlink:title="The order ID is a string(numerical) that uniquely identifies this order from all others. ">
<polygon fill="white" stroke="black" points="382,-279.5 382,-309.5 543,-309.5 543,-279.5 382,-279.5"/>
<text text-anchor="start" x="390" y="-297.5" font-family="Helvetica,sans-Serif" font-size="10.00">tomoBay.model.dataTypes.order.</text>
<text text-anchor="middle" x="462.5" y="-286.5" font-family="Helvetica,sans-Serif" font-size="10.00">Order.orderID</text>
</a>
</g>
</g>
<!-- Node1&#45;&gt;Node14 -->
<g id="edge15" class="edge"><title>Node1&#45;&gt;Node14</title>
<path fill="none" stroke="midnightblue" d="M74.1074,-284.438C139.467,-286.135 279.181,-289.764 371.726,-292.168"/>
<polygon fill="midnightblue" stroke="midnightblue" points="371.841,-295.672 381.928,-292.433 372.023,-288.675 371.841,-295.672"/>
</g>
<!-- Node15 -->
<g id="node15" class="node"><title>Node15</title>
<g id="a_node15"><a xlink:href="classtomoBay_1_1model_1_1dataTypes_1_1order_1_1Order.html#a828ca20853400d5a09e3a6a48b6659d1" target="_top" xlink:title="retrieve the sales record number associated with this order ">
<polygon fill="white" stroke="black" points="382,-230.5 382,-260.5 543,-260.5 543,-230.5 382,-230.5"/>
<text text-anchor="start" x="390" y="-248.5" font-family="Helvetica,sans-Serif" font-size="10.00">tomoBay.model.dataTypes.order.</text>
<text text-anchor="middle" x="462.5" y="-237.5" font-family="Helvetica,sans-Serif" font-size="10.00">Order.salesRecNo</text>
</a>
</g>
</g>
<!-- Node1&#45;&gt;Node15 -->
<g id="edge18" class="edge"><title>Node1&#45;&gt;Node15</title>
<path fill="none" stroke="midnightblue" d="M74.1074,-280.26C139.467,-274.396 279.181,-261.859 371.726,-253.555"/>
<polygon fill="midnightblue" stroke="midnightblue" points="372.281,-257.02 381.928,-252.64 371.656,-250.048 372.281,-257.02"/>
</g>
<!-- Node16 -->
<g id="node16" class="node"><title>Node16</title>
<g id="a_node16"><a xlink:href="classtomoBay_1_1model_1_1dataTypes_1_1order_1_1Order.html#a4c5c37e55b25b6dd3a7ef8695deca2eb" target="_top" xlink:title="retrieve the shipping type used for this order as a string ">
<polygon fill="white" stroke="black" points="135,-186.5 135,-216.5 296,-216.5 296,-186.5 135,-186.5"/>
<text text-anchor="start" x="143" y="-204.5" font-family="Helvetica,sans-Serif" font-size="10.00">tomoBay.model.dataTypes.order.</text>
<text text-anchor="middle" x="215.5" y="-193.5" font-family="Helvetica,sans-Serif" font-size="10.00">Order.shippingType</text>
</a>
</g>
</g>
<!-- Node1&#45;&gt;Node16 -->
<g id="edge20" class="edge"><title>Node1&#45;&gt;Node16</title>
<path fill="none" stroke="midnightblue" d="M48.9358,-273.718C62.4106,-262.131 86.4258,-242.961 110,-231.5 119.262,-226.997 129.323,-223.051 139.422,-219.628"/>
<polygon fill="midnightblue" stroke="midnightblue" points="140.65,-222.91 149.091,-216.507 138.499,-216.248 140.65,-222.91"/>
</g>
<!-- Node17 -->
<g id="node17" class="node"><title>Node17</title>
<g id="a_node17"><a xlink:href="classtomoBay_1_1model_1_1dataTypes_1_1financial_1_1VAT.html#a9dfd34f223ef659c7eaa29ffc0f06b02" target="_top" xlink:title="subtract vat to the value provided as argument ">
<polygon fill="white" stroke="black" points="127.5,-137.5 127.5,-167.5 303.5,-167.5 303.5,-137.5 127.5,-137.5"/>
<text text-anchor="start" x="135.5" y="-155.5" font-family="Helvetica,sans-Serif" font-size="10.00">tomoBay.model.dataTypes.financial.</text>
<text text-anchor="middle" x="215.5" y="-144.5" font-family="Helvetica,sans-Serif" font-size="10.00">VAT.subtract</text>
</a>
</g>
</g>
<!-- Node1&#45;&gt;Node17 -->
<g id="edge22" class="edge"><title>Node1&#45;&gt;Node17</title>
<path fill="none" stroke="midnightblue" d="M41.6574,-273.702C50.1407,-252.394 73.279,-201.737 110,-176.5 112.601,-174.713 115.315,-173.057 118.117,-171.523"/>
<polygon fill="midnightblue" stroke="midnightblue" points="119.878,-174.558 127.33,-167.027 116.808,-168.267 119.878,-174.558"/>
</g>
<!-- Node18 -->
<g id="node18" class="node"><title>Node18</title>
<g id="a_node18"><a xlink:href="classtomoBay_1_1model_1_1dataTypes_1_1financial_1_1GBP.html#a4869bc1854b4c53820b934c48bc7d868" target="_top" xlink:title="converts the given amount of pound into pennies (rounding down in the process) ">
<polygon fill="white" stroke="black" points="127.5,-88.5 127.5,-118.5 303.5,-118.5 303.5,-88.5 127.5,-88.5"/>
<text text-anchor="start" x="135.5" y="-106.5" font-family="Helvetica,sans-Serif" font-size="10.00">tomoBay.model.dataTypes.financial.</text>
<text text-anchor="middle" x="215.5" y="-95.5" font-family="Helvetica,sans-Serif" font-size="10.00">GBP.toPennies</text>
</a>
</g>
</g>
<!-- Node1&#45;&gt;Node18 -->
<g id="edge23" class="edge"><title>Node1&#45;&gt;Node18</title>
<path fill="none" stroke="midnightblue" d="M39.4959,-273.63C44.2408,-245.908 61.6056,-166.801 110,-127.5 112.637,-125.358 115.429,-123.4 118.341,-121.61"/>
<polygon fill="midnightblue" stroke="midnightblue" points="120.257,-124.554 127.4,-116.729 116.936,-118.391 120.257,-124.554"/>
</g>
<!-- Node19 -->
<g id="node19" class="node"><title>Node19</title>
<g id="a_node19"><a xlink:href="classtomoBay_1_1model_1_1dataTypes_1_1financial_1_1GBP.html#ab1488ca02aec4338b86ca2ab9691627f" target="_top" xlink:title="converts the given integer to a string representing the number of pennies ">
<polygon fill="white" stroke="black" points="374.5,-66.5 374.5,-96.5 550.5,-96.5 550.5,-66.5 374.5,-66.5"/>
<text text-anchor="start" x="382.5" y="-84.5" font-family="Helvetica,sans-Serif" font-size="10.00">tomoBay.model.dataTypes.financial.</text>
<text text-anchor="middle" x="462.5" y="-73.5" font-family="Helvetica,sans-Serif" font-size="10.00">GBP.toString</text>
</a>
</g>
</g>
<!-- Node1&#45;&gt;Node19 -->
<g id="edge25" class="edge"><title>Node1&#45;&gt;Node19</title>
<path fill="none" stroke="midnightblue" d="M37.8539,-273.972C37.9176,-240.217 43.2141,-125.829 110,-78.5 149.374,-50.5972 274.254,-58.3157 363.962,-68.2919"/>
<polygon fill="midnightblue" stroke="midnightblue" points="363.839,-71.8004 374.171,-69.4535 364.631,-64.8453 363.839,-71.8004"/>
</g>
<!-- Node20 -->
<g id="node20" class="node"><title>Node20</title>
<g id="a_node20"><a xlink:href="classtomoBay_1_1model_1_1dataTypes_1_1order_1_1Order.html#abbc5ea6a986dd37b7239d4c859db9f2b" target="_top" xlink:title="retrieve the total price associated with this order, i.e. ">
<polygon fill="white" stroke="black" points="135,-0.5 135,-30.5 296,-30.5 296,-0.5 135,-0.5"/>
<text text-anchor="start" x="143" y="-18.5" font-family="Helvetica,sans-Serif" font-size="10.00">tomoBay.model.dataTypes.order.</text>
<text text-anchor="middle" x="215.5" y="-7.5" font-family="Helvetica,sans-Serif" font-size="10.00">Order.totalPrice</text>
</a>
</g>
</g>
<!-- Node1&#45;&gt;Node20 -->
<g id="edge26" class="edge"><title>Node1&#45;&gt;Node20</title>
<path fill="none" stroke="midnightblue" d="M37.8585,-273.692C37.8934,-237.702 42.9846,-111.57 110,-45.5 114.631,-40.9344 119.908,-37.0543 125.574,-33.758"/>
<polygon fill="midnightblue" stroke="midnightblue" points="127.461,-36.7236 134.76,-29.0438 124.265,-30.4958 127.461,-36.7236"/>
</g>
<!-- Node3 -->
<g id="node3" class="node"><title>Node3</title>
<g id="a_node3"><a xlink:href="classtomoBay_1_1model_1_1dataTypes_1_1heteroTypeContainer_1_1HeteroFieldContainer.html#a988363ab964d6dc0ccb8560bef5895b6" target="_top" xlink:title="retrieve the the value of an AbstractField from this HeteroFieldContainer, the field should be of the...">
<polygon fill="white" stroke="black" points="604,-279.5 604,-309.5 796,-309.5 796,-279.5 604,-279.5"/>
<text text-anchor="start" x="612" y="-297.5" font-family="Helvetica,sans-Serif" font-size="10.00">tomoBay.model.dataTypes.hetero</text>
<text text-anchor="middle" x="700" y="-286.5" font-family="Helvetica,sans-Serif" font-size="10.00">TypeContainer.HeteroFieldContainer.get</text>
</a>
</g>
</g>
<!-- Node2&#45;&gt;Node3 -->
<g id="edge2" class="edge"><title>Node2&#45;&gt;Node3</title>
<path fill="none" stroke="midnightblue" d="M296.046,-563.999C385.706,-565.343 524.633,-562.537 568,-534.5 646.156,-483.972 681.435,-370.075 693.671,-319.504"/>
<polygon fill="midnightblue" stroke="midnightblue" points="697.091,-320.252 695.94,-309.72 690.272,-318.671 697.091,-320.252"/>
</g>
<!-- Node5 -->
<g id="node5" class="node"><title>Node5</title>
<g id="a_node5"><a xlink:href="classtomoBay_1_1model_1_1eBayAPI_1_1EbayAccounts.html#a263b122a1c598841624ba7d1e4a6c617" target="_top" xlink:title="convert an account ID to a textual name value. ">
<polygon fill="white" stroke="black" points="386.5,-582.5 386.5,-612.5 538.5,-612.5 538.5,-582.5 386.5,-582.5"/>
<text text-anchor="start" x="394.5" y="-600.5" font-family="Helvetica,sans-Serif" font-size="10.00">tomoBay.model.eBayAPI.Ebay</text>
<text text-anchor="middle" x="462.5" y="-589.5" font-family="Helvetica,sans-Serif" font-size="10.00">Accounts.name</text>
</a>
</g>
</g>
<!-- Node2&#45;&gt;Node5 -->
<g id="edge4" class="edge"><title>Node2&#45;&gt;Node5</title>
<path fill="none" stroke="midnightblue" d="M296.044,-573.188C321.578,-576.94 349.962,-581.111 375.909,-584.923"/>
<polygon fill="midnightblue" stroke="midnightblue" points="375.699,-588.43 386.101,-586.421 376.716,-581.504 375.699,-588.43"/>
</g>
<!-- Node4 -->
<g id="node4" class="node"><title>Node4</title>
<g id="a_node4"><a xlink:href="classtomoBay_1_1model_1_1dataTypes_1_1heteroTypeContainer_1_1HeteroFieldContainer.html#a9dee3c01eb5ab16203e1c6820a569484" target="_top" xlink:title="performs a type check, assuming that field and type are of the same type then this method returns tru...">
<polygon fill="white" stroke="black" points="832,-274 832,-315 1018,-315 1018,-274 832,-274"/>
<text text-anchor="start" x="840" y="-303" font-family="Helvetica,sans-Serif" font-size="10.00">tomoBay.model.dataTypes.hetero</text>
<text text-anchor="start" x="840" y="-292" font-family="Helvetica,sans-Serif" font-size="10.00">TypeContainer.HeteroFieldContainer.is</text>
<text text-anchor="middle" x="925" y="-281" font-family="Helvetica,sans-Serif" font-size="10.00">SameType</text>
</a>
</g>
</g>
<!-- Node3&#45;&gt;Node4 -->
<g id="edge3" class="edge"><title>Node3&#45;&gt;Node4</title>
<path fill="none" stroke="midnightblue" d="M796.219,-294.5C804.728,-294.5 813.365,-294.5 821.929,-294.5"/>
<polygon fill="midnightblue" stroke="midnightblue" points="821.934,-298 831.934,-294.5 821.934,-291 821.934,-298"/>
</g>
<!-- Node6 -->
<g id="node6" class="node"><title>Node6</title>
<g id="a_node6"><a xlink:href="classtomoBay_1_1model_1_1eBayAPI_1_1EbayAccounts.html#a137163c03f463ad5d9581aef47a9a3e4" target="_top" xlink:title="retrieve the id for the account name specified ">
<polygon fill="white" stroke="black" points="624,-582.5 624,-612.5 776,-612.5 776,-582.5 624,-582.5"/>
<text text-anchor="start" x="632" y="-600.5" font-family="Helvetica,sans-Serif" font-size="10.00">tomoBay.model.eBayAPI.Ebay</text>
<text text-anchor="middle" x="700" y="-589.5" font-family="Helvetica,sans-Serif" font-size="10.00">Accounts.id</text>
</a>
</g>
</g>
<!-- Node5&#45;&gt;Node6 -->
<g id="edge5" class="edge"><title>Node5&#45;&gt;Node6</title>
<path fill="none" stroke="midnightblue" d="M538.661,-597.5C562.56,-597.5 589.164,-597.5 613.723,-597.5"/>
<polygon fill="midnightblue" stroke="midnightblue" points="613.745,-601 623.745,-597.5 613.745,-594 613.745,-601"/>
</g>
<!-- Node8 -->
<g id="node8" class="node"><title>Node8</title>
<g id="a_node8"><a xlink:href="classtomoBay_1_1model_1_1dataTypes_1_1DualList.html#ac6c5d11a7054f49bb7c9489f5893daeb" target="_top" xlink:title="add a value pair to the DualList ">
<polygon fill="white" stroke="black" points="394,-494.5 394,-524.5 531,-524.5 531,-494.5 394,-494.5"/>
<text text-anchor="start" x="402" y="-512.5" font-family="Helvetica,sans-Serif" font-size="10.00">tomoBay.model.dataTypes.</text>
<text text-anchor="middle" x="462.5" y="-501.5" font-family="Helvetica,sans-Serif" font-size="10.00">DualList.put</text>
</a>
</g>
</g>
<!-- Node7&#45;&gt;Node8 -->
<g id="edge7" class="edge"><title>Node7&#45;&gt;Node8</title>
<path fill="none" stroke="midnightblue" d="M294.693,-511.543C323.13,-511.194 355.249,-510.801 383.656,-510.453"/>
<polygon fill="midnightblue" stroke="midnightblue" points="383.983,-513.95 393.94,-510.327 383.897,-506.95 383.983,-513.95"/>
</g>
<!-- Node9&#45;&gt;Node3 -->
<g id="edge9" class="edge"><title>Node9&#45;&gt;Node3</title>
<path fill="none" stroke="midnightblue" d="M532.203,-442.49C544.589,-438.307 557.036,-433.054 568,-426.5 616.175,-397.701 659.33,-347.146 682.068,-317.663"/>
<polygon fill="midnightblue" stroke="midnightblue" points="684.937,-319.672 688.19,-309.588 679.359,-315.442 684.937,-319.672"/>
</g>
<!-- Node12 -->
<g id="node12" class="node"><title>Node12</title>
<g id="a_node12"><a xlink:href="classtomoBay_1_1model_1_1dataTypes_1_1order_1_1Order.html#a71ffaf8494f38432864d46ea421343fc" target="_top" xlink:title="retrieve the invoice number from this order(if it has one) ">
<polygon fill="white" stroke="black" points="382,-387.5 382,-417.5 543,-417.5 543,-387.5 382,-387.5"/>
<text text-anchor="start" x="390" y="-405.5" font-family="Helvetica,sans-Serif" font-size="10.00">tomoBay.model.dataTypes.order.</text>
<text text-anchor="middle" x="462.5" y="-394.5" font-family="Helvetica,sans-Serif" font-size="10.00">Order.invoiceNo</text>
</a>
</g>
</g>
<!-- Node11&#45;&gt;Node12 -->
<g id="edge12" class="edge"><title>Node11&#45;&gt;Node12</title>
<path fill="none" stroke="midnightblue" d="M321.113,-384.164C337.915,-386.358 355.176,-388.613 371.594,-390.757"/>
<polygon fill="midnightblue" stroke="midnightblue" points="371.327,-394.252 381.696,-392.077 372.234,-387.311 371.327,-394.252"/>
</g>
<!-- Node11&#45;&gt;Node13 -->
<g id="edge14" class="edge"><title>Node11&#45;&gt;Node13</title>
<path fill="none" stroke="midnightblue" d="M321.113,-361.106C329.619,-360.342 338.244,-359.568 346.817,-358.798"/>
<polygon fill="midnightblue" stroke="midnightblue" points="347.2,-362.278 356.847,-357.897 346.574,-355.306 347.2,-362.278"/>
</g>
<!-- Node12&#45;&gt;Node3 -->
<g id="edge13" class="edge"><title>Node12&#45;&gt;Node3</title>
<path fill="none" stroke="midnightblue" d="M542.322,-387.491C551.125,-384.908 559.849,-381.927 568,-378.5 606.711,-362.226 646.706,-334.749 672.155,-315.671"/>
<polygon fill="midnightblue" stroke="midnightblue" points="674.363,-318.39 680.206,-309.552 670.126,-312.817 674.363,-318.39"/>
</g>
<!-- Node14&#45;&gt;Node3 -->
<g id="edge16" class="edge"><title>Node14&#45;&gt;Node3</title>
<path fill="none" stroke="midnightblue" d="M543.23,-294.5C559.363,-294.5 576.563,-294.5 593.427,-294.5"/>
<polygon fill="midnightblue" stroke="midnightblue" points="593.871,-298 603.871,-294.5 593.871,-291 593.871,-298"/>
</g>
<!-- Node15&#45;&gt;Node3 -->
<g id="edge19" class="edge"><title>Node15&#45;&gt;Node3</title>
<path fill="none" stroke="midnightblue" d="M535.758,-260.535C561.415,-265.873 590.477,-271.92 616.895,-277.417"/>
<polygon fill="midnightblue" stroke="midnightblue" points="616.375,-280.883 626.878,-279.494 617.801,-274.03 616.375,-280.883"/>
</g>
<!-- Node16&#45;&gt;Node3 -->
<g id="edge21" class="edge"><title>Node16&#45;&gt;Node3</title>
<path fill="none" stroke="midnightblue" d="M296.059,-195.596C368.455,-192.598 477.511,-194.077 568,-220.5 606.13,-231.634 645.185,-255.652 670.611,-273.319"/>
<polygon fill="midnightblue" stroke="midnightblue" points="668.83,-276.346 679.013,-279.271 672.876,-270.634 668.83,-276.346"/>
</g>
<!-- Node18&#45;&gt;Node19 -->
<g id="edge24" class="edge"><title>Node18&#45;&gt;Node19</title>
<path fill="none" stroke="midnightblue" d="M303.568,-95.6817C323.217,-93.9173 344.197,-92.0333 364.235,-90.234"/>
<polygon fill="midnightblue" stroke="midnightblue" points="364.653,-93.7106 374.3,-89.3302 364.027,-86.7387 364.653,-93.7106"/>
</g>
<!-- Node20&#45;&gt;Node3 -->
<g id="edge27" class="edge"><title>Node20&#45;&gt;Node3</title>
<path fill="none" stroke="midnightblue" d="M296.177,-5.11501C372.428,0.582632 487.44,-2.34177 568,-56.5 644.397,-107.86 680.449,-219.249 693.267,-269.278"/>
<polygon fill="midnightblue" stroke="midnightblue" points="689.933,-270.377 695.72,-279.252 696.731,-268.705 689.933,-270.377"/>
</g>
</g>
</svg>
