<?xml version="1.0" encoding="UTF-8" standalone="no"?>
<!DOCTYPE svg PUBLIC "-//W3C//DTD SVG 1.1//EN"
 "http://www.w3.org/Graphics/SVG/1.1/DTD/svg11.dtd">
<!-- Generated by graphviz version 2.38.0 (20140413.2041)
 -->
<!-- Title: execute Pages: 1 -->
<!--zoomable 350 -->
<svg id="main" version="1.1" xmlns="http://www.w3.org/2000/svg" xmlns:xlink="http://www.w3.org/1999/xlink" xml:space="preserve" onload="init(evt)">
<style type="text/css"><![CDATA[
.edge:hover path { stroke: red; }
.edge:hover polygon { stroke: red; fill: red; }
]]></style>
<script type="text/javascript"><![CDATA[
var edges = document.getElementsByTagName('g');
if (edges && edges.length) {
  for (var i=0;i<edges.length;i++) {
    if (edges[i].id.substr(0,4)=='edge') {
      edges[i].setAttribute('class','edge');
    }
  }
}
]]></script>
        <defs>
                <circle id="rim" cx="0" cy="0" r="7"/>
                <circle id="rim2" cx="0" cy="0" r="3.5"/>
                <g id="zoomPlus">
                        <use xlink:href="#rim" fill="#404040">
                                <set attributeName="fill" to="#808080" begin="zoomplus.mouseover" end="zoomplus.mouseout"/>
                        </use>
                        <path d="M-4,0h8M0,-4v8" fill="none" stroke="white" stroke-width="1.5" pointer-events="none"/>
                </g>
                <g id="zoomMin">
                        <use xlink:href="#rim" fill="#404040">
                                <set attributeName="fill" to="#808080" begin="zoomminus.mouseover" end="zoomminus.mouseout"/>
                        </use>
                        <path d="M-4,0h8" fill="none" stroke="white" stroke-width="1.5" pointer-events="none"/>
                </g>
                <g id="dirArrow">
                        <path fill="none" stroke="white" stroke-width="1.5" d="M0,-3.0v7 M-2.5,-0.5L0,-3.0L2.5,-0.5"/>
                </g>
               <g id="resetDef">
                       <use xlink:href="#rim2" fill="#404040">
                               <set attributeName="fill" to="#808080" begin="reset.mouseover" end="reset.mouseout"/>
                       </use>
               </g>
        </defs>

<script type="text/javascript">
var viewWidth = 738;
var viewHeight = 350;
var sectionId = 'dynsection-2';
</script>
<script xlink:href="svgpan.js"/>
<svg id="graph" class="graph">
<g id="viewport">
<title>execute</title>
<polygon fill="white" stroke="none" points="-4,4 -4,-346 734,-346 734,4 -4,4"/>
<!-- Node1 -->
<g id="node1" class="node"><title>Node1</title>
<polygon fill="#bfbfbf" stroke="black" points="0,-219 0,-238 51,-238 51,-219 0,-219"/>
<text text-anchor="middle" x="25.5" y="-226" font-family="Helvetica,sans-Serif" font-size="10.00">execute</text>
</g>
<!-- Node2 -->
<g id="node2" class="node"><title>Node2</title>
<g id="a_node2"><a xlink:href="classtomoBay_1_1helpers_1_1BrandToCode.html#a10207714bd294d73dd98b80fd94a2ab8" target="_top" xlink:title="converts converts a string like &quot;citroen&quot; or &quot;fOrd&quot; to a brandcode integer specific to winstock...">
<polygon fill="white" stroke="black" points="88.5,-311.5 88.5,-341.5 276.5,-341.5 276.5,-311.5 88.5,-311.5"/>
<text text-anchor="start" x="96.5" y="-329.5" font-family="Helvetica,sans-Serif" font-size="10.00">tomoBay.helpers.BrandToCode.convert</text>
<text text-anchor="middle" x="182.5" y="-318.5" font-family="Helvetica,sans-Serif" font-size="10.00">ToWinstockInt</text>
</a>
</g>
</g>
<!-- Node1&#45;&gt;Node2 -->
<g id="edge1" class="edge"><title>Node1&#45;&gt;Node2</title>
<path fill="none" stroke="midnightblue" d="M31.6117,-238.097C40.6085,-254.029 60.8256,-285.831 87,-302.5 89.628,-304.174 92.3666,-305.731 95.1863,-307.179"/>
<polygon fill="midnightblue" stroke="midnightblue" points="93.8851,-310.433 104.431,-311.446 96.8185,-304.078 93.8851,-310.433"/>
</g>
<!-- Node3 -->
<g id="node3" class="node"><title>Node3</title>
<g id="a_node3"><a xlink:href="classtomoBay_1_1model_1_1sql_1_1framework_1_1SelectQueryInvoker.html#a594282bcbcc0731a7d234482717422d7" target="_top" xlink:title="execute a requested query ">
<polygon fill="white" stroke="black" points="106.5,-262.5 106.5,-292.5 258.5,-292.5 258.5,-262.5 106.5,-262.5"/>
<text text-anchor="start" x="114.5" y="-280.5" font-family="Helvetica,sans-Serif" font-size="10.00">tomoBay.model.sql.framework.</text>
<text text-anchor="middle" x="182.5" y="-269.5" font-family="Helvetica,sans-Serif" font-size="10.00">SelectQueryInvoker.execute</text>
</a>
</g>
</g>
<!-- Node1&#45;&gt;Node3 -->
<g id="edge2" class="edge"><title>Node1&#45;&gt;Node3</title>
<path fill="none" stroke="midnightblue" d="M47.4988,-238.047C59.0117,-243.059 73.6242,-249.063 87,-253.5 93.4767,-255.648 100.257,-257.715 107.085,-259.673"/>
<polygon fill="midnightblue" stroke="midnightblue" points="106.519,-263.149 117.092,-262.46 108.397,-256.405 106.519,-263.149"/>
</g>
<!-- Node4 -->
<g id="node4" class="node"><title>Node4</title>
<g id="a_node4"><a xlink:href="classtomoBay_1_1model_1_1dataTypes_1_1PartList.html#af4aaf5b8fadfc85ebed2a9c4d683fba5" target="_top" xlink:title="get the part numbers as a whole ">
<polygon fill="white" stroke="black" points="114,-213.5 114,-243.5 251,-243.5 251,-213.5 114,-213.5"/>
<text text-anchor="start" x="122" y="-231.5" font-family="Helvetica,sans-Serif" font-size="10.00">tomoBay.model.dataTypes.</text>
<text text-anchor="middle" x="182.5" y="-220.5" font-family="Helvetica,sans-Serif" font-size="10.00">PartList.getPartNumbers</text>
</a>
</g>
</g>
<!-- Node1&#45;&gt;Node4 -->
<g id="edge3" class="edge"><title>Node1&#45;&gt;Node4</title>
<path fill="none" stroke="midnightblue" d="M51.0602,-228.5C65.5259,-228.5 84.7052,-228.5 103.893,-228.5"/>
<polygon fill="midnightblue" stroke="midnightblue" points="103.903,-232 113.903,-228.5 103.903,-225 103.903,-232"/>
</g>
<!-- Node5 -->
<g id="node5" class="node"><title>Node5</title>
<g id="a_node5"><a xlink:href="classtomoBay_1_1model_1_1winstock_1_1Stock.html#a06d21b6ad2b8a746c52fadb5d4711778" target="_top" xlink:title="query winstock for the stock level of a particular part. ">
<polygon fill="white" stroke="black" points="87,-164.5 87,-194.5 278,-194.5 278,-164.5 87,-164.5"/>
<text text-anchor="start" x="95" y="-182.5" font-family="Helvetica,sans-Serif" font-size="10.00">tomoBay.model.winstock.Stock.request</text>
<text text-anchor="middle" x="182.5" y="-171.5" font-family="Helvetica,sans-Serif" font-size="10.00">StockLevel</text>
</a>
</g>
</g>
<!-- Node1&#45;&gt;Node5 -->
<g id="edge4" class="edge"><title>Node1&#45;&gt;Node5</title>
<path fill="none" stroke="midnightblue" d="M48.6776,-218.968C60.0223,-214.28 74.1208,-208.741 87,-204.5 94.6207,-201.99 102.65,-199.555 110.676,-197.252"/>
<polygon fill="midnightblue" stroke="midnightblue" points="111.755,-200.584 120.438,-194.513 109.864,-193.845 111.755,-200.584"/>
</g>
<!-- Node10 -->
<g id="node10" class="node"><title>Node10</title>
<g id="a_node10"><a xlink:href="classtomoBay_1_1model_1_1services_1_1checkErrorsService_1_1OnRunning.html#a31cd6cc646f62a47db7edc3f4f8d2da5" target="_top" xlink:title="this method updates the notes field in the database to reflect the error that has been found ...">
<polygon fill="white" stroke="black" points="139.5,-79 139.5,-98 225.5,-98 225.5,-79 139.5,-79"/>
<text text-anchor="middle" x="182.5" y="-86" font-family="Helvetica,sans-Serif" font-size="10.00">updateItemNote</text>
</a>
</g>
</g>
<!-- Node1&#45;&gt;Node10 -->
<g id="edge9" class="edge"><title>Node1&#45;&gt;Node10</title>
<path fill="none" stroke="midnightblue" d="M33.2369,-218.834C43.7224,-204.174 65.0342,-175.871 87,-155.5 108.867,-135.221 137.109,-115.954 157.003,-103.332"/>
<polygon fill="midnightblue" stroke="midnightblue" points="158.878,-106.287 165.504,-98.0199 155.168,-100.351 158.878,-106.287"/>
</g>
<!-- Node6 -->
<g id="node6" class="node"><title>Node6</title>
<g id="a_node6"><a xlink:href="classtomoBay_1_1model_1_1winstock_1_1Stock.html#a82b5421e7d3a2ba82bdc5d54b09a8069" target="_top" xlink:title="tomoBay.model.winstock.Stock.query\lWinstockURL">
<polygon fill="white" stroke="black" points="320,-235.5 320,-265.5 502,-265.5 502,-235.5 320,-235.5"/>
<text text-anchor="start" x="328" y="-253.5" font-family="Helvetica,sans-Serif" font-size="10.00">tomoBay.model.winstock.Stock.query</text>
<text text-anchor="middle" x="411" y="-242.5" font-family="Helvetica,sans-Serif" font-size="10.00">WinstockURL</text>
</a>
</g>
</g>
<!-- Node5&#45;&gt;Node6 -->
<g id="edge5" class="edge"><title>Node5&#45;&gt;Node6</title>
<path fill="none" stroke="midnightblue" d="M250.157,-194.524C259.653,-197.413 269.182,-200.734 278,-204.5 295.245,-211.864 296.706,-219.254 314,-226.5 319.051,-228.616 324.332,-230.577 329.708,-232.389"/>
<polygon fill="midnightblue" stroke="midnightblue" points="328.867,-235.795 339.458,-235.491 330.99,-229.124 328.867,-235.795"/>
</g>
<!-- Node7 -->
<g id="node7" class="node"><title>Node7</title>
<g id="a_node7"><a xlink:href="classtomoBay_1_1model_1_1winstock_1_1Stock.html#a42fa652d82ed49749a0ad929a6c798d0" target="_top" xlink:title="remove the header bumpf from the bottom of the response ">
<polygon fill="white" stroke="black" points="322.5,-186.5 322.5,-216.5 499.5,-216.5 499.5,-186.5 322.5,-186.5"/>
<text text-anchor="start" x="330.5" y="-204.5" font-family="Helvetica,sans-Serif" font-size="10.00">tomoBay.model.winstock.Stock.post</text>
<text text-anchor="middle" x="411" y="-193.5" font-family="Helvetica,sans-Serif" font-size="10.00">FormatXMLString</text>
</a>
</g>
</g>
<!-- Node5&#45;&gt;Node7 -->
<g id="edge6" class="edge"><title>Node5&#45;&gt;Node7</title>
<path fill="none" stroke="midnightblue" d="M278.244,-188.703C289.382,-189.784 300.764,-190.89 311.946,-191.976"/>
<polygon fill="midnightblue" stroke="midnightblue" points="311.854,-195.483 322.146,-192.967 312.531,-188.516 311.854,-195.483"/>
</g>
<!-- Node9 -->
<g id="node9" class="node"><title>Node9</title>
<g id="a_node9"><a xlink:href="classtomoBay_1_1helpers_1_1XMLParser.html#a9936151017dd4e908cf37d453b22c8ef" target="_top" xlink:title="parses an XML formatted string looking for the first tag specified in the parameters. ">
<polygon fill="white" stroke="black" points="326.5,-148 326.5,-167 495.5,-167 495.5,-148 326.5,-148"/>
<text text-anchor="middle" x="411" y="-155" font-family="Helvetica,sans-Serif" font-size="10.00">tomoBay.helpers.XMLParser.parse</text>
</a>
</g>
</g>
<!-- Node5&#45;&gt;Node9 -->
<g id="edge8" class="edge"><title>Node5&#45;&gt;Node9</title>
<path fill="none" stroke="midnightblue" d="M278.244,-170.297C290.87,-169.071 303.812,-167.814 316.418,-166.59"/>
<polygon fill="midnightblue" stroke="midnightblue" points="316.829,-170.066 326.444,-165.616 316.152,-163.099 316.829,-170.066"/>
</g>
<!-- Node8 -->
<g id="node8" class="node"><title>Node8</title>
<g id="a_node8"><a xlink:href="classtomoBay_1_1model_1_1net_1_1HttpResponse.html#afb798c825935128953439404fb763997" target="_top" xlink:title="get the Response message ">
<polygon fill="white" stroke="black" points="545,-186.5 545,-216.5 729,-216.5 729,-186.5 545,-186.5"/>
<text text-anchor="start" x="553" y="-204.5" font-family="Helvetica,sans-Serif" font-size="10.00">tomoBay.model.net.HttpResponse.get</text>
<text text-anchor="middle" x="637" y="-193.5" font-family="Helvetica,sans-Serif" font-size="10.00">ResponseMessage</text>
</a>
</g>
</g>
<!-- Node7&#45;&gt;Node8 -->
<g id="edge7" class="edge"><title>Node7&#45;&gt;Node8</title>
<path fill="none" stroke="midnightblue" d="M499.567,-201.5C511.05,-201.5 522.894,-201.5 534.583,-201.5"/>
<polygon fill="midnightblue" stroke="midnightblue" points="534.802,-205 544.802,-201.5 534.802,-198 534.802,-205"/>
</g>
<!-- Node11 -->
<g id="node11" class="node"><title>Node11</title>
<g id="a_node11"><a xlink:href="classtomoBay_1_1model_1_1dataTypes_1_1heteroTypeContainer_1_1HeteroFieldContainer.html#a988363ab964d6dc0ccb8560bef5895b6" target="_top" xlink:title="retrieve the the value of an AbstractField from this HeteroFieldContainer, the field should be of the...">
<polygon fill="white" stroke="black" points="315,-98.5 315,-128.5 507,-128.5 507,-98.5 315,-98.5"/>
<text text-anchor="start" x="323" y="-116.5" font-family="Helvetica,sans-Serif" font-size="10.00">tomoBay.model.dataTypes.hetero</text>
<text text-anchor="middle" x="411" y="-105.5" font-family="Helvetica,sans-Serif" font-size="10.00">TypeContainer.HeteroFieldContainer.get</text>
</a>
</g>
</g>
<!-- Node10&#45;&gt;Node11 -->
<g id="edge10" class="edge"><title>Node10&#45;&gt;Node11</title>
<path fill="none" stroke="midnightblue" d="M225.572,-93.1437C247.905,-95.6087 276.447,-98.7591 304.369,-101.841"/>
<polygon fill="midnightblue" stroke="midnightblue" points="304.292,-105.354 314.615,-102.972 305.06,-98.3959 304.292,-105.354"/>
</g>
<!-- Node13 -->
<g id="node13" class="node"><title>Node13</title>
<g id="a_node13"><a xlink:href="classtomoBay_1_1model_1_1dataTypes_1_1heteroTypeContainer_1_1HeteroFieldContainer.html#a3ba6289417930238a36bfee0056b6398" target="_top" xlink:title="add an arbitrary value to this Field container with the stipulation that this value is of the same ty...">
<polygon fill="white" stroke="black" points="314,-49.5 314,-79.5 508,-79.5 508,-49.5 314,-49.5"/>
<text text-anchor="start" x="322" y="-67.5" font-family="Helvetica,sans-Serif" font-size="10.00">tomoBay.model.dataTypes.hetero</text>
<text text-anchor="middle" x="411" y="-56.5" font-family="Helvetica,sans-Serif" font-size="10.00">TypeContainer.HeteroFieldContainer.add</text>
</a>
</g>
</g>
<!-- Node10&#45;&gt;Node13 -->
<g id="edge12" class="edge"><title>Node10&#45;&gt;Node13</title>
<path fill="none" stroke="midnightblue" d="M225.572,-84.042C247.677,-81.6998 275.865,-78.713 303.514,-75.7833"/>
<polygon fill="midnightblue" stroke="midnightblue" points="304.088,-79.2421 313.664,-74.7078 303.351,-72.2811 304.088,-79.2421"/>
</g>
<!-- Node14 -->
<g id="node14" class="node"><title>Node14</title>
<g id="a_node14"><a xlink:href="classtomoBay_1_1model_1_1sql_1_1framework_1_1ModifyQueryInvoker.html#ab8ef0fdf15f6720620e297c77ab25d46" target="_top" xlink:title="tomoBay.model.sql.framework.\lModifyQueryInvoker.execute">
<polygon fill="white" stroke="black" points="335,-0.5 335,-30.5 487,-30.5 487,-0.5 335,-0.5"/>
<text text-anchor="start" x="343" y="-18.5" font-family="Helvetica,sans-Serif" font-size="10.00">tomoBay.model.sql.framework.</text>
<text text-anchor="middle" x="411" y="-7.5" font-family="Helvetica,sans-Serif" font-size="10.00">ModifyQueryInvoker.execute</text>
</a>
</g>
</g>
<!-- Node10&#45;&gt;Node14 -->
<g id="edge14" class="edge"><title>Node10&#45;&gt;Node14</title>
<path fill="none" stroke="midnightblue" d="M206.795,-78.8306C232.685,-68.3015 275.877,-51.38 314,-39.5 320.935,-37.339 328.198,-35.2371 335.491,-33.2338"/>
<polygon fill="midnightblue" stroke="midnightblue" points="336.676,-36.5395 345.427,-30.5668 334.862,-29.7788 336.676,-36.5395"/>
</g>
<!-- Node12 -->
<g id="node12" class="node"><title>Node12</title>
<g id="a_node12"><a xlink:href="classtomoBay_1_1model_1_1dataTypes_1_1heteroTypeContainer_1_1HeteroFieldContainer.html#a9dee3c01eb5ab16203e1c6820a569484" target="_top" xlink:title="performs a type check, assuming that field and type are of the same type then this method returns tru...">
<polygon fill="white" stroke="black" points="544,-69 544,-110 730,-110 730,-69 544,-69"/>
<text text-anchor="start" x="552" y="-98" font-family="Helvetica,sans-Serif" font-size="10.00">tomoBay.model.dataTypes.hetero</text>
<text text-anchor="start" x="552" y="-87" font-family="Helvetica,sans-Serif" font-size="10.00">TypeContainer.HeteroFieldContainer.is</text>
<text text-anchor="middle" x="637" y="-76" font-family="Helvetica,sans-Serif" font-size="10.00">SameType</text>
</a>
</g>
</g>
<!-- Node11&#45;&gt;Node12 -->
<g id="edge11" class="edge"><title>Node11&#45;&gt;Node12</title>
<path fill="none" stroke="midnightblue" d="M507.321,-103.287C516.146,-102.342 525.112,-101.381 533.993,-100.429"/>
<polygon fill="midnightblue" stroke="midnightblue" points="534.403,-103.906 543.973,-99.3601 533.657,-96.9454 534.403,-103.906"/>
</g>
<!-- Node13&#45;&gt;Node12 -->
<g id="edge13" class="edge"><title>Node13&#45;&gt;Node12</title>
<path fill="none" stroke="midnightblue" d="M508.296,-75.2473C516.642,-76.1788 525.106,-77.1235 533.499,-78.0602"/>
<polygon fill="midnightblue" stroke="midnightblue" points="533.362,-81.5665 543.688,-79.1974 534.138,-74.6097 533.362,-81.5665"/>
</g>
</g>
</svg>
        <g id="navigator" transform="translate(0 0)" fill="#404254">
                <rect fill="#f2f5e9" fill-opacity="0.5" stroke="#606060" stroke-width=".5" x="0" y="0" width="60" height="60"/>
                <use id="zoomplus" xlink:href="#zoomPlus" x="17" y="9" onmousedown="handleZoom(evt,'in')"/>
                <use id="zoomminus" xlink:href="#zoomMin" x="42" y="9" onmousedown="handleZoom(evt,'out')"/>
                <use id="reset" xlink:href="#resetDef" x="30" y="36" onmousedown="handleReset()"/>
                <g id="arrowUp" xlink:href="#dirArrow" transform="translate(30 24)" onmousedown="handlePan(0,-1)">
                  <use xlink:href="#rim" fill="#404040">
                        <set attributeName="fill" to="#808080" begin="arrowUp.mouseover" end="arrowUp.mouseout"/>
                  </use>
                  <path fill="none" stroke="white" stroke-width="1.5" d="M0,-3.0v7 M-2.5,-0.5L0,-3.0L2.5,-0.5"/>
                </g>
                <g id="arrowRight" xlink:href="#dirArrow" transform="rotate(90) translate(36 -43)" onmousedown="handlePan(1,0)">
                  <use xlink:href="#rim" fill="#404040">
                        <set attributeName="fill" to="#808080" begin="arrowRight.mouseover" end="arrowRight.mouseout"/>
                  </use>
                  <path fill="none" stroke="white" stroke-width="1.5" d="M0,-3.0v7 M-2.5,-0.5L0,-3.0L2.5,-0.5"/>
                </g>
                <g id="arrowDown" xlink:href="#dirArrow" transform="rotate(180) translate(-30 -48)" onmousedown="handlePan(0,1)">
                  <use xlink:href="#rim" fill="#404040">
                        <set attributeName="fill" to="#808080" begin="arrowDown.mouseover" end="arrowDown.mouseout"/>
                  </use>
                  <path fill="none" stroke="white" stroke-width="1.5" d="M0,-3.0v7 M-2.5,-0.5L0,-3.0L2.5,-0.5"/>
                </g>
                <g id="arrowLeft" xlink:href="#dirArrow" transform="rotate(270) translate(-36 17)" onmousedown="handlePan(-1,0)">
                  <use xlink:href="#rim" fill="#404040">
                        <set attributeName="fill" to="#808080" begin="arrowLeft.mouseover" end="arrowLeft.mouseout"/>
                  </use>
                  <path fill="none" stroke="white" stroke-width="1.5" d="M0,-3.0v7 M-2.5,-0.5L0,-3.0L2.5,-0.5"/>
                </g>
        </g>
        <svg viewBox="0 0 15 15" width="100%" height="30px" preserveAspectRatio="xMaxYMin meet">
         <g id="arrow_out" transform="scale(0.3 0.3)">
          <a xlink:href="classtomoBay_1_1model_1_1services_1_1checkErrorsService_1_1OnRunning_ae4a4f4cadce2787c7e80005639fbd5d9_cgraph_org.svg" target="_base">
           <rect id="button" ry="5" rx="5" y="6" x="6" height="38" width="38"
                fill="#f2f5e9" fill-opacity="0.5" stroke="#606060" stroke-width="1.0"/>
           <path id="arrow"
             d="M 11.500037,31.436501 C 11.940474,20.09759 22.043105,11.32322 32.158766,21.979434 L 37.068811,17.246167 C 37.068811,17.246167 37.088388,32 37.088388,32 L 22.160133,31.978069 C 22.160133,31.978069 26.997745,27.140456 26.997745,27.140456 C 18.528582,18.264221 13.291696,25.230495 11.500037,31.436501 z"
             style="fill:#404040;"/>
          </a>
         </g>
        </svg>
</svg>
