<?xml version="1.0" encoding="UTF-8" standalone="no"?>
<!DOCTYPE svg PUBLIC "-//W3C//DTD SVG 1.1//EN"
 "http://www.w3.org/Graphics/SVG/1.1/DTD/svg11.dtd">
<!-- Generated by graphviz version 2.38.0 (20140413.2041)
 -->
<!-- Title: setParameters Pages: 1 -->
<svg width="2272pt" height="629pt"
 viewBox="0.00 0.00 2272.00 629.14" xmlns="http://www.w3.org/2000/svg" xmlns:xlink="http://www.w3.org/1999/xlink">
<g id="graph0" class="graph" transform="scale(1 1) rotate(0) translate(4 625.145)">
<title>setParameters</title>
<polygon fill="white" stroke="none" points="-4,4 -4,-625.145 2268,-625.145 2268,4 -4,4"/>
<!-- Node1 -->
<g id="node1" class="node"><title>Node1</title>
<polygon fill="#bfbfbf" stroke="black" points="0,-301.564 0,-320.564 80,-320.564 80,-301.564 0,-301.564"/>
<text text-anchor="middle" x="40" y="-308.564" font-family="Helvetica,sans-Serif" font-size="10.00">setParameters</text>
</g>
<!-- Node2 -->
<g id="node2" class="node"><title>Node2</title>
<g id="a_node2"><a xlink:href="classtomoBay_1_1model_1_1sql_1_1framework_1_1QueryUtility.html#aca3b74b8ac7e194a86c0b896a674e2f2" target="_top" xlink:title="set an Integer parameter for the query object specified. ">
<polygon fill="white" stroke="black" points="116,-296.064 116,-326.064 274,-326.064 274,-296.064 116,-296.064"/>
<text text-anchor="start" x="124" y="-314.064" font-family="Helvetica,sans-Serif" font-size="10.00">tomoBay.model.sql.framework.</text>
<text text-anchor="middle" x="195" y="-303.064" font-family="Helvetica,sans-Serif" font-size="10.00">QueryUtility.setINTEGERParam</text>
</a>
</g>
</g>
<!-- Node1&#45;&gt;Node2 -->
<g id="edge1" class="edge"><title>Node1&#45;&gt;Node2</title>
<path fill="none" stroke="midnightblue" d="M80.0042,-311.064C87.9807,-311.064 96.6797,-311.064 105.6,-311.064"/>
<polygon fill="midnightblue" stroke="midnightblue" points="105.739,-314.564 115.739,-311.064 105.739,-307.564 105.739,-314.564"/>
</g>
<!-- Node3 -->
<g id="node3" class="node"><title>Node3</title>
<g id="a_node3"><a xlink:href="classtomoBay_1_1model_1_1dataTypes_1_1heteroTypeContainer_1_1HeteroFieldContainer.html#a988363ab964d6dc0ccb8560bef5895b6" target="_top" xlink:title="retrieve the the value of an AbstractField from this HeteroFieldContainer, the field should be of the...">
<polygon fill="white" stroke="black" points="1850,-454.064 1850,-484.064 2042,-484.064 2042,-454.064 1850,-454.064"/>
<text text-anchor="start" x="1858" y="-472.064" font-family="Helvetica,sans-Serif" font-size="10.00">tomoBay.model.dataTypes.hetero</text>
<text text-anchor="middle" x="1946" y="-461.064" font-family="Helvetica,sans-Serif" font-size="10.00">TypeContainer.HeteroFieldContainer.get</text>
</a>
</g>
</g>
<!-- Node2&#45;&gt;Node3 -->
<g id="edge2" class="edge"><title>Node2&#45;&gt;Node3</title>
<path fill="none" stroke="midnightblue" d="M204.869,-326.437C242.227,-388.989 393.72,-621.064 585,-621.064 585,-621.064 585,-621.064 1549.5,-621.064 1668.98,-621.064 1705.17,-622.355 1814,-573.064 1857.68,-553.281 1899.52,-515.748 1923.71,-491.595"/>
<polygon fill="midnightblue" stroke="midnightblue" points="1926.41,-493.845 1930.93,-484.263 1921.42,-488.935 1926.41,-493.845"/>
</g>
<!-- Node5 -->
<g id="node5" class="node"><title>Node5</title>
<g id="a_node5"><a xlink:href="classtomoBay_1_1model_1_1sql_1_1framework_1_1QueryUtility.html#a3249b16421a9902f2248cb86d4dd3be3" target="_top" xlink:title="set an Integer parameter for the query object specified. ">
<polygon fill="white" stroke="black" points="310,-296.064 310,-326.064 474,-326.064 474,-296.064 310,-296.064"/>
<text text-anchor="start" x="318" y="-314.064" font-family="Helvetica,sans-Serif" font-size="10.00">tomoBay.model.sql.framework.</text>
<text text-anchor="middle" x="392" y="-303.064" font-family="Helvetica,sans-Serif" font-size="10.00">QueryUtility.setVARCHARParam</text>
</a>
</g>
</g>
<!-- Node2&#45;&gt;Node5 -->
<g id="edge4" class="edge"><title>Node2&#45;&gt;Node5</title>
<path fill="none" stroke="midnightblue" d="M274.19,-311.064C282.644,-311.064 291.299,-311.064 299.888,-311.064"/>
<polygon fill="midnightblue" stroke="midnightblue" points="299.924,-314.564 309.924,-311.064 299.924,-307.564 299.924,-314.564"/>
</g>
<!-- Node13 -->
<g id="node13" class="node"><title>Node13</title>
<g id="a_node13"><a xlink:href="classtomoBay_1_1model_1_1sql_1_1framework_1_1queryTypes_1_1AbstractDBQuery.html#a41678b13e84de4335130f10cea7ae562" target="_top" xlink:title="get the statement object associated with this query ">
<polygon fill="white" stroke="black" points="1858,-138.064 1858,-168.064 2034,-168.064 2034,-138.064 1858,-138.064"/>
<text text-anchor="start" x="1866" y="-156.064" font-family="Helvetica,sans-Serif" font-size="10.00">tomoBay.model.sql.framework.query</text>
<text text-anchor="middle" x="1946" y="-145.064" font-family="Helvetica,sans-Serif" font-size="10.00">Types.AbstractDBQuery.statement</text>
</a>
</g>
</g>
<!-- Node2&#45;&gt;Node13 -->
<g id="edge29" class="edge"><title>Node2&#45;&gt;Node13</title>
<path fill="none" stroke="midnightblue" d="M204.869,-295.691C242.227,-233.14 393.72,-1.06404 585,-1.06404 585,-1.06404 585,-1.06404 1549.5,-1.06404 1668.33,-1.06404 1705.95,9.37158 1814,-40.064 1860.29,-61.2402 1902.7,-103.899 1926.08,-130.319"/>
<polygon fill="midnightblue" stroke="midnightblue" points="1923.51,-132.698 1932.71,-137.954 1928.8,-128.109 1923.51,-132.698"/>
</g>
<!-- Node4 -->
<g id="node4" class="node"><title>Node4</title>
<g id="a_node4"><a xlink:href="classtomoBay_1_1model_1_1dataTypes_1_1heteroTypeContainer_1_1HeteroFieldContainer.html#a9dee3c01eb5ab16203e1c6820a569484" target="_top" xlink:title="performs a type check, assuming that field and type are of the same type then this method returns tru...">
<polygon fill="white" stroke="black" points="2078,-448.564 2078,-489.564 2264,-489.564 2264,-448.564 2078,-448.564"/>
<text text-anchor="start" x="2086" y="-477.564" font-family="Helvetica,sans-Serif" font-size="10.00">tomoBay.model.dataTypes.hetero</text>
<text text-anchor="start" x="2086" y="-466.564" font-family="Helvetica,sans-Serif" font-size="10.00">TypeContainer.HeteroFieldContainer.is</text>
<text text-anchor="middle" x="2171" y="-455.564" font-family="Helvetica,sans-Serif" font-size="10.00">SameType</text>
</a>
</g>
</g>
<!-- Node3&#45;&gt;Node4 -->
<g id="edge3" class="edge"><title>Node3&#45;&gt;Node4</title>
<path fill="none" stroke="midnightblue" d="M2042.22,-469.064C2050.73,-469.064 2059.37,-469.064 2067.93,-469.064"/>
<polygon fill="midnightblue" stroke="midnightblue" points="2067.93,-472.564 2077.93,-469.064 2067.93,-465.564 2067.93,-472.564"/>
</g>
<!-- Node5&#45;&gt;Node3 -->
<g id="edge5" class="edge"><title>Node5&#45;&gt;Node3</title>
<path fill="none" stroke="midnightblue" d="M403.111,-326.075C442.853,-383.097 594.917,-583.064 773,-583.064 773,-583.064 773,-583.064 1549.5,-583.064 1668.67,-583.064 1701.17,-577.432 1814,-539.064 1850.03,-526.81 1888.06,-505.418 1913.81,-489.497"/>
<polygon fill="midnightblue" stroke="midnightblue" points="1915.77,-492.399 1922.38,-484.118 1912.05,-486.469 1915.77,-492.399"/>
</g>
<!-- Node6 -->
<g id="node6" class="node"><title>Node6</title>
<g id="a_node6"><a xlink:href="classtomoBay_1_1model_1_1sql_1_1framework_1_1QueryUtility.html#a50955d4f51a1a7a88ef0c8aadbe9c793" target="_top" xlink:title="set an Integer parameter for the query object specified. ">
<polygon fill="white" stroke="black" points="510,-296.064 510,-326.064 662,-326.064 662,-296.064 510,-296.064"/>
<text text-anchor="start" x="518" y="-314.064" font-family="Helvetica,sans-Serif" font-size="10.00">tomoBay.model.sql.framework.</text>
<text text-anchor="middle" x="586" y="-303.064" font-family="Helvetica,sans-Serif" font-size="10.00">QueryUtility.setBYTEParam</text>
</a>
</g>
</g>
<!-- Node5&#45;&gt;Node6 -->
<g id="edge6" class="edge"><title>Node5&#45;&gt;Node6</title>
<path fill="none" stroke="midnightblue" d="M474.147,-311.064C482.587,-311.064 491.185,-311.064 499.669,-311.064"/>
<polygon fill="midnightblue" stroke="midnightblue" points="499.945,-314.564 509.945,-311.064 499.945,-307.564 499.945,-314.564"/>
</g>
<!-- Node5&#45;&gt;Node13 -->
<g id="edge28" class="edge"><title>Node5&#45;&gt;Node13</title>
<path fill="none" stroke="midnightblue" d="M403.111,-296.053C442.853,-239.031 594.917,-39.064 773,-39.064 773,-39.064 773,-39.064 1549.5,-39.064 1668.67,-39.064 1701.17,-44.6961 1814,-83.064 1850.03,-95.3177 1888.06,-116.711 1913.81,-132.631"/>
<polygon fill="midnightblue" stroke="midnightblue" points="1912.05,-135.659 1922.38,-138.01 1915.77,-129.73 1912.05,-135.659"/>
</g>
<!-- Node6&#45;&gt;Node3 -->
<g id="edge7" class="edge"><title>Node6&#45;&gt;Node3</title>
<path fill="none" stroke="midnightblue" d="M599.443,-326.417C643.139,-378.476 795.902,-545.064 961.5,-545.064 961.5,-545.064 961.5,-545.064 1549.5,-545.064 1668.08,-545.064 1698.21,-535.645 1814,-510.064 1840.69,-504.167 1869.76,-495.324 1893.72,-487.359"/>
<polygon fill="midnightblue" stroke="midnightblue" points="1894.95,-490.636 1903.31,-484.126 1892.72,-484.003 1894.95,-490.636"/>
</g>
<!-- Node7 -->
<g id="node7" class="node"><title>Node7</title>
<g id="a_node7"><a xlink:href="classtomoBay_1_1model_1_1sql_1_1framework_1_1QueryUtility.html#a138f0c046bc0a6df71b168ab35c3c3e3" target="_top" xlink:title="set an Integer parameter for the query object specified. ">
<polygon fill="white" stroke="black" points="698,-296.064 698,-326.064 850,-326.064 850,-296.064 698,-296.064"/>
<text text-anchor="start" x="706" y="-314.064" font-family="Helvetica,sans-Serif" font-size="10.00">tomoBay.model.sql.framework.</text>
<text text-anchor="middle" x="774" y="-303.064" font-family="Helvetica,sans-Serif" font-size="10.00">QueryUtility.setBIGINTParam</text>
</a>
</g>
</g>
<!-- Node6&#45;&gt;Node7 -->
<g id="edge8" class="edge"><title>Node6&#45;&gt;Node7</title>
<path fill="none" stroke="midnightblue" d="M662.117,-311.064C670.596,-311.064 679.281,-311.064 687.875,-311.064"/>
<polygon fill="midnightblue" stroke="midnightblue" points="687.905,-314.564 697.905,-311.064 687.905,-307.564 687.905,-314.564"/>
</g>
<!-- Node6&#45;&gt;Node13 -->
<g id="edge27" class="edge"><title>Node6&#45;&gt;Node13</title>
<path fill="none" stroke="midnightblue" d="M599.443,-295.711C643.139,-243.652 795.902,-77.064 961.5,-77.064 961.5,-77.064 961.5,-77.064 1549.5,-77.064 1671.95,-77.064 1811.97,-112.634 1888.2,-135.106"/>
<polygon fill="midnightblue" stroke="midnightblue" points="1887.49,-138.547 1898.07,-138.049 1889.49,-131.838 1887.49,-138.547"/>
</g>
<!-- Node7&#45;&gt;Node3 -->
<g id="edge9" class="edge"><title>Node7&#45;&gt;Node3</title>
<path fill="none" stroke="midnightblue" d="M790.765,-326.118C840.559,-372.014 1000.62,-507.064 1160,-507.064 1160,-507.064 1160,-507.064 1549.5,-507.064 1648.23,-507.064 1760.19,-495.186 1839.72,-484.711"/>
<polygon fill="midnightblue" stroke="midnightblue" points="1840.3,-488.166 1849.75,-483.376 1839.37,-481.227 1840.3,-488.166"/>
</g>
<!-- Node8 -->
<g id="node8" class="node"><title>Node8</title>
<g id="a_node8"><a xlink:href="classtomoBay_1_1model_1_1sql_1_1framework_1_1QueryUtility.html#a56a65ac583b8720ae73dc81278e5690e" target="_top" xlink:title="set an Integer parameter for the query object specified. ">
<polygon fill="white" stroke="black" points="886,-296.064 886,-326.064 1039,-326.064 1039,-296.064 886,-296.064"/>
<text text-anchor="start" x="894" y="-314.064" font-family="Helvetica,sans-Serif" font-size="10.00">tomoBay.model.sql.framework.</text>
<text text-anchor="middle" x="962.5" y="-303.064" font-family="Helvetica,sans-Serif" font-size="10.00">QueryUtility.setTINYINTParam</text>
</a>
</g>
</g>
<!-- Node7&#45;&gt;Node8 -->
<g id="edge10" class="edge"><title>Node7&#45;&gt;Node8</title>
<path fill="none" stroke="midnightblue" d="M850.051,-311.064C858.562,-311.064 867.285,-311.064 875.919,-311.064"/>
<polygon fill="midnightblue" stroke="midnightblue" points="875.996,-314.564 885.996,-311.064 875.996,-307.564 875.996,-314.564"/>
</g>
<!-- Node7&#45;&gt;Node13 -->
<g id="edge26" class="edge"><title>Node7&#45;&gt;Node13</title>
<path fill="none" stroke="midnightblue" d="M790.765,-296.01C840.559,-250.114 1000.62,-115.064 1160,-115.064 1160,-115.064 1160,-115.064 1549.5,-115.064 1651.54,-115.064 1767.7,-127.752 1847.61,-138.464"/>
<polygon fill="midnightblue" stroke="midnightblue" points="1847.27,-141.951 1857.65,-139.827 1848.22,-135.015 1847.27,-141.951"/>
</g>
<!-- Node8&#45;&gt;Node3 -->
<g id="edge11" class="edge"><title>Node8&#45;&gt;Node3</title>
<path fill="none" stroke="midnightblue" d="M984.541,-326.214C1041.6,-365.76 1205.28,-469.064 1358,-469.064 1358,-469.064 1358,-469.064 1549.5,-469.064 1647.94,-469.064 1760.16,-469.064 1839.86,-469.064"/>
<polygon fill="midnightblue" stroke="midnightblue" points="1839.9,-472.564 1849.9,-469.064 1839.9,-465.564 1839.9,-472.564"/>
</g>
<!-- Node9 -->
<g id="node9" class="node"><title>Node9</title>
<g id="a_node9"><a xlink:href="classtomoBay_1_1model_1_1sql_1_1framework_1_1QueryUtility.html#ab07d04299a96461dcf893416b8e32604" target="_top" xlink:title="set an Integer parameter for the query object specified. ">
<polygon fill="white" stroke="black" points="1075,-296.064 1075,-326.064 1247,-326.064 1247,-296.064 1075,-296.064"/>
<text text-anchor="start" x="1083" y="-314.064" font-family="Helvetica,sans-Serif" font-size="10.00">tomoBay.model.sql.framework.</text>
<text text-anchor="middle" x="1161" y="-303.064" font-family="Helvetica,sans-Serif" font-size="10.00">QueryUtility.setTIMESTAMPParam</text>
</a>
</g>
</g>
<!-- Node8&#45;&gt;Node9 -->
<g id="edge12" class="edge"><title>Node8&#45;&gt;Node9</title>
<path fill="none" stroke="midnightblue" d="M1039.19,-311.064C1047.58,-311.064 1056.21,-311.064 1064.8,-311.064"/>
<polygon fill="midnightblue" stroke="midnightblue" points="1064.86,-314.564 1074.86,-311.064 1064.86,-307.564 1064.86,-314.564"/>
</g>
<!-- Node8&#45;&gt;Node13 -->
<g id="edge25" class="edge"><title>Node8&#45;&gt;Node13</title>
<path fill="none" stroke="midnightblue" d="M984.541,-295.914C1041.6,-256.368 1205.28,-153.064 1358,-153.064 1358,-153.064 1358,-153.064 1549.5,-153.064 1651.23,-153.064 1767.69,-153.064 1847.74,-153.064"/>
<polygon fill="midnightblue" stroke="midnightblue" points="1847.81,-156.564 1857.81,-153.064 1847.81,-149.564 1847.81,-156.564"/>
</g>
<!-- Node9&#45;&gt;Node3 -->
<g id="edge13" class="edge"><title>Node9&#45;&gt;Node3</title>
<path fill="none" stroke="midnightblue" d="M1233.57,-326.07C1330.59,-346.351 1509.27,-383.492 1662,-414.064 1727.05,-427.085 1800.6,-441.366 1856.41,-452.112"/>
<polygon fill="midnightblue" stroke="midnightblue" points="1855.79,-455.556 1866.27,-454.008 1857.11,-448.682 1855.79,-455.556"/>
</g>
<!-- Node10 -->
<g id="node10" class="node"><title>Node10</title>
<g id="a_node10"><a xlink:href="classtomoBay_1_1model_1_1sql_1_1framework_1_1QueryUtility.html#a202aab30c77e06c32318efd5cf949ca3" target="_top" xlink:title="set an Integer parameter for the query object specified. ">
<polygon fill="white" stroke="black" points="1283,-296.064 1283,-326.064 1435,-326.064 1435,-296.064 1283,-296.064"/>
<text text-anchor="start" x="1291" y="-314.064" font-family="Helvetica,sans-Serif" font-size="10.00">tomoBay.model.sql.framework.</text>
<text text-anchor="middle" x="1359" y="-303.064" font-family="Helvetica,sans-Serif" font-size="10.00">QueryUtility.setDATEParam</text>
</a>
</g>
</g>
<!-- Node9&#45;&gt;Node10 -->
<g id="edge14" class="edge"><title>Node9&#45;&gt;Node10</title>
<path fill="none" stroke="midnightblue" d="M1247.11,-311.064C1255.56,-311.064 1264.14,-311.064 1272.59,-311.064"/>
<polygon fill="midnightblue" stroke="midnightblue" points="1272.81,-314.564 1282.81,-311.064 1272.81,-307.564 1272.81,-314.564"/>
</g>
<!-- Node9&#45;&gt;Node13 -->
<g id="edge24" class="edge"><title>Node9&#45;&gt;Node13</title>
<path fill="none" stroke="midnightblue" d="M1230.22,-295.987C1326.36,-274.88 1507.27,-235.674 1662,-205.064 1724.4,-192.72 1794.73,-179.792 1849.67,-169.914"/>
<polygon fill="midnightblue" stroke="midnightblue" points="1850.52,-173.317 1859.75,-168.106 1849.29,-166.427 1850.52,-173.317"/>
</g>
<!-- Node10&#45;&gt;Node3 -->
<g id="edge15" class="edge"><title>Node10&#45;&gt;Node3</title>
<path fill="none" stroke="midnightblue" d="M1426.73,-326.067C1543.78,-352.47 1777.22,-405.539 1814,-417.064 1843.82,-426.405 1876.48,-439.365 1901.73,-450.009"/>
<polygon fill="midnightblue" stroke="midnightblue" points="1900.45,-453.269 1911.02,-453.963 1903.19,-446.828 1900.45,-453.269"/>
</g>
<!-- Node11 -->
<g id="node11" class="node"><title>Node11</title>
<g id="a_node11"><a xlink:href="classtomoBay_1_1model_1_1sql_1_1framework_1_1QueryUtility.html#a5677c2440b48e612fb51b57130555e5d" target="_top" xlink:title="set an Integer parameter for the query object specified. ">
<polygon fill="white" stroke="black" points="1471,-296.064 1471,-326.064 1626,-326.064 1626,-296.064 1471,-296.064"/>
<text text-anchor="start" x="1479" y="-314.064" font-family="Helvetica,sans-Serif" font-size="10.00">tomoBay.model.sql.framework.</text>
<text text-anchor="middle" x="1548.5" y="-303.064" font-family="Helvetica,sans-Serif" font-size="10.00">QueryUtility.setDOUBLEParam</text>
</a>
</g>
</g>
<!-- Node10&#45;&gt;Node11 -->
<g id="edge16" class="edge"><title>Node10&#45;&gt;Node11</title>
<path fill="none" stroke="midnightblue" d="M1435.18,-311.064C1443.51,-311.064 1452.05,-311.064 1460.51,-311.064"/>
<polygon fill="midnightblue" stroke="midnightblue" points="1460.77,-314.564 1470.77,-311.064 1460.77,-307.564 1460.77,-314.564"/>
</g>
<!-- Node10&#45;&gt;Node13 -->
<g id="edge23" class="edge"><title>Node10&#45;&gt;Node13</title>
<path fill="none" stroke="midnightblue" d="M1426.73,-296.061C1543.78,-269.658 1777.22,-216.589 1814,-205.064 1843.82,-195.723 1876.48,-182.763 1901.73,-172.119"/>
<polygon fill="midnightblue" stroke="midnightblue" points="1903.19,-175.301 1911.02,-168.165 1900.45,-168.859 1903.19,-175.301"/>
</g>
<!-- Node11&#45;&gt;Node3 -->
<g id="edge17" class="edge"><title>Node11&#45;&gt;Node3</title>
<path fill="none" stroke="midnightblue" d="M1619.24,-326.094C1685.37,-340.867 1779.58,-363.411 1814,-379.064 1853.49,-397.023 1893.89,-426.871 1919.18,-447.229"/>
<polygon fill="midnightblue" stroke="midnightblue" points="1917.2,-450.127 1927.16,-453.739 1921.62,-444.704 1917.2,-450.127"/>
</g>
<!-- Node12 -->
<g id="node12" class="node"><title>Node12</title>
<g id="a_node12"><a xlink:href="classtomoBay_1_1model_1_1sql_1_1framework_1_1QueryUtility.html#adf8f1fea7b649baadeb0297c41be72f5" target="_top" xlink:title="set an Integer parameter for the query object specified. ">
<polygon fill="white" stroke="black" points="1662,-296.064 1662,-326.064 1814,-326.064 1814,-296.064 1662,-296.064"/>
<text text-anchor="start" x="1670" y="-314.064" font-family="Helvetica,sans-Serif" font-size="10.00">tomoBay.model.sql.framework.</text>
<text text-anchor="middle" x="1738" y="-303.064" font-family="Helvetica,sans-Serif" font-size="10.00">QueryUtility.setFLOATParam</text>
</a>
</g>
</g>
<!-- Node11&#45;&gt;Node12 -->
<g id="edge18" class="edge"><title>Node11&#45;&gt;Node12</title>
<path fill="none" stroke="midnightblue" d="M1626.03,-311.064C1634.55,-311.064 1643.26,-311.064 1651.87,-311.064"/>
<polygon fill="midnightblue" stroke="midnightblue" points="1651.92,-314.564 1661.92,-311.064 1651.92,-307.564 1651.92,-314.564"/>
</g>
<!-- Node11&#45;&gt;Node13 -->
<g id="edge22" class="edge"><title>Node11&#45;&gt;Node13</title>
<path fill="none" stroke="midnightblue" d="M1612.78,-296.022C1685.04,-278.655 1795.66,-251.406 1814,-243.064 1853.49,-225.105 1893.89,-195.257 1919.18,-174.899"/>
<polygon fill="midnightblue" stroke="midnightblue" points="1921.62,-177.424 1927.16,-168.389 1917.2,-172.001 1921.62,-177.424"/>
</g>
<!-- Node12&#45;&gt;Node3 -->
<g id="edge19" class="edge"><title>Node12&#45;&gt;Node3</title>
<path fill="none" stroke="midnightblue" d="M1784.85,-326.076C1794.83,-330.242 1805.07,-335.248 1814,-341.064 1859.59,-370.752 1902.76,-417.938 1926.38,-445.967"/>
<polygon fill="midnightblue" stroke="midnightblue" points="1923.7,-448.22 1932.79,-453.672 1929.08,-443.745 1923.7,-448.22"/>
</g>
<!-- Node12&#45;&gt;Node13 -->
<g id="edge20" class="edge"><title>Node12&#45;&gt;Node13</title>
<path fill="none" stroke="midnightblue" d="M1784.85,-296.052C1794.83,-291.886 1805.07,-286.88 1814,-281.064 1859.59,-251.376 1902.76,-204.19 1926.38,-176.161"/>
<polygon fill="midnightblue" stroke="midnightblue" points="1929.08,-178.383 1932.79,-168.456 1923.7,-173.908 1929.08,-178.383"/>
</g>
<!-- Node14 -->
<g id="node14" class="node"><title>Node14</title>
<g id="a_node14"><a xlink:href="classtomoBay_1_1model_1_1sql_1_1framework_1_1queryTypes_1_1AbstractDBQuery.html#ae8a5c5f1701ee77ef658050c8345d518" target="_top" xlink:title="Used by derived classes to define the Query string to be used in the query. ">
<polygon fill="white" stroke="black" points="2083,-138.064 2083,-168.064 2259,-168.064 2259,-138.064 2083,-138.064"/>
<text text-anchor="start" x="2091" y="-156.064" font-family="Helvetica,sans-Serif" font-size="10.00">tomoBay.model.sql.framework.query</text>
<text text-anchor="middle" x="2171" y="-145.064" font-family="Helvetica,sans-Serif" font-size="10.00">Types.AbstractDBQuery.queryString</text>
</a>
</g>
</g>
<!-- Node13&#45;&gt;Node14 -->
<g id="edge21" class="edge"><title>Node13&#45;&gt;Node14</title>
<path fill="none" stroke="midnightblue" d="M2034.18,-153.064C2046.8,-153.064 2059.87,-153.064 2072.68,-153.064"/>
<polygon fill="midnightblue" stroke="midnightblue" points="2072.88,-156.564 2082.88,-153.064 2072.88,-149.564 2072.88,-156.564"/>
</g>
</g>
</svg>
