<?xml version="1.0" encoding="UTF-8" standalone="no"?>
<!DOCTYPE svg PUBLIC "-//W3C//DTD SVG 1.1//EN"
 "http://www.w3.org/Graphics/SVG/1.1/DTD/svg11.dtd">
<!-- Generated by graphviz version 2.38.0 (20140413.2041)
 -->
<!-- Title: getCost Pages: 1 -->
<!--zoomable 127 -->
<svg id="main" version="1.1" xmlns="http://www.w3.org/2000/svg" xmlns:xlink="http://www.w3.org/1999/xlink" xml:space="preserve" onload="init(evt)">
<style type="text/css"><![CDATA[
.edge:hover path { stroke: red; }
.edge:hover polygon { stroke: red; fill: red; }
]]></style>
<script type="text/javascript"><![CDATA[
var edges = document.getElementsByTagName('g');
if (edges && edges.length) {
  for (var i=0;i<edges.length;i++) {
    if (edges[i].id.substr(0,4)=='edge') {
      edges[i].setAttribute('class','edge');
    }
  }
}
]]></script>
        <defs>
                <circle id="rim" cx="0" cy="0" r="7"/>
                <circle id="rim2" cx="0" cy="0" r="3.5"/>
                <g id="zoomPlus">
                        <use xlink:href="#rim" fill="#404040">
                                <set attributeName="fill" to="#808080" begin="zoomplus.mouseover" end="zoomplus.mouseout"/>
                        </use>
                        <path d="M-4,0h8M0,-4v8" fill="none" stroke="white" stroke-width="1.5" pointer-events="none"/>
                </g>
                <g id="zoomMin">
                        <use xlink:href="#rim" fill="#404040">
                                <set attributeName="fill" to="#808080" begin="zoomminus.mouseover" end="zoomminus.mouseout"/>
                        </use>
                        <path d="M-4,0h8" fill="none" stroke="white" stroke-width="1.5" pointer-events="none"/>
                </g>
                <g id="dirArrow">
                        <path fill="none" stroke="white" stroke-width="1.5" d="M0,-3.0v7 M-2.5,-0.5L0,-3.0L2.5,-0.5"/>
                </g>
               <g id="resetDef">
                       <use xlink:href="#rim2" fill="#404040">
                               <set attributeName="fill" to="#808080" begin="reset.mouseover" end="reset.mouseout"/>
                       </use>
               </g>
        </defs>

<script type="text/javascript">
var viewWidth = 724;
var viewHeight = 127;
var sectionId = 'dynsection-6';
</script>
<script xlink:href="svgpan.js"/>
<svg id="graph" class="graph">
<g id="viewport">
<title>getCost</title>
<polygon fill="white" stroke="none" points="-4,4 -4,-122.5 720,-122.5 720,4 -4,4"/>
<!-- Node1 -->
<g id="node1" class="node"><title>Node1</title>
<polygon fill="#bfbfbf" stroke="black" points="0,-68.5 0,-87.5 51,-87.5 51,-68.5 0,-68.5"/>
<text text-anchor="middle" x="25.5" y="-75.5" font-family="Helvetica,sans-Serif" font-size="10.00">getCost</text>
</g>
<!-- Node2 -->
<g id="node2" class="node"><title>Node2</title>
<g id="a_node2"><a xlink:href="classtomoBay_1_1helpers_1_1BrandToCode.html#a10207714bd294d73dd98b80fd94a2ab8" target="_top" xlink:title="converts converts a string like &quot;citroen&quot; or &quot;fOrd&quot; to a brandcode integer specific to winstock...">
<polygon fill="white" stroke="black" points="88.5,-88 88.5,-118 276.5,-118 276.5,-88 88.5,-88"/>
<text text-anchor="start" x="96.5" y="-106" font-family="Helvetica,sans-Serif" font-size="10.00">tomoBay.helpers.BrandToCode.convert</text>
<text text-anchor="middle" x="182.5" y="-95" font-family="Helvetica,sans-Serif" font-size="10.00">ToWinstockInt</text>
</a>
</g>
</g>
<!-- Node1&#45;&gt;Node2 -->
<g id="edge1" class="edge"><title>Node1&#45;&gt;Node2</title>
<path fill="none" stroke="midnightblue" d="M51.0602,-81.9613C58.9349,-83.2314 68.2065,-84.7269 78.1159,-86.3251"/>
<polygon fill="midnightblue" stroke="midnightblue" points="77.7801,-89.8161 88.2098,-87.9532 78.8948,-82.9054 77.7801,-89.8161"/>
</g>
<!-- Node3 -->
<g id="node3" class="node"><title>Node3</title>
<g id="a_node3"><a xlink:href="classtomoBay_1_1model_1_1winstock_1_1Stock.html#a5171bbe1448b8e4840e617ffd75cc261" target="_top" xlink:title="query winstock for the last cost price of a particular part. ">
<polygon fill="white" stroke="black" points="87,-39 87,-69 278,-69 278,-39 87,-39"/>
<text text-anchor="start" x="95" y="-57" font-family="Helvetica,sans-Serif" font-size="10.00">tomoBay.model.winstock.Stock.request</text>
<text text-anchor="middle" x="182.5" y="-46" font-family="Helvetica,sans-Serif" font-size="10.00">LastCost</text>
</a>
</g>
</g>
<!-- Node1&#45;&gt;Node3 -->
<g id="edge2" class="edge"><title>Node1&#45;&gt;Node3</title>
<path fill="none" stroke="midnightblue" d="M51.0602,-74.1971C58.5995,-73.0298 67.4191,-71.6641 76.8531,-70.2034"/>
<polygon fill="midnightblue" stroke="midnightblue" points="77.532,-73.6401 86.8787,-68.651 76.4609,-66.7225 77.532,-73.6401"/>
</g>
<!-- Node4 -->
<g id="node4" class="node"><title>Node4</title>
<g id="a_node4"><a xlink:href="classtomoBay_1_1model_1_1winstock_1_1Stock.html#a82b5421e7d3a2ba82bdc5d54b09a8069" target="_top" xlink:title="tomoBay.model.winstock.Stock.query\lWinstockURL">
<polygon fill="white" stroke="black" points="314,-88 314,-118 496,-118 496,-88 314,-88"/>
<text text-anchor="start" x="322" y="-106" font-family="Helvetica,sans-Serif" font-size="10.00">tomoBay.model.winstock.Stock.query</text>
<text text-anchor="middle" x="405" y="-95" font-family="Helvetica,sans-Serif" font-size="10.00">WinstockURL</text>
</a>
</g>
</g>
<!-- Node3&#45;&gt;Node4 -->
<g id="edge3" class="edge"><title>Node3&#45;&gt;Node4</title>
<path fill="none" stroke="midnightblue" d="M251.156,-69.0346C274.967,-74.3259 301.91,-80.3133 326.47,-85.7712"/>
<polygon fill="midnightblue" stroke="midnightblue" points="325.951,-89.2411 336.472,-87.9938 327.47,-82.4078 325.951,-89.2411"/>
</g>
<!-- Node5 -->
<g id="node5" class="node"><title>Node5</title>
<g id="a_node5"><a xlink:href="classtomoBay_1_1model_1_1winstock_1_1Stock.html#a42fa652d82ed49749a0ad929a6c798d0" target="_top" xlink:title="remove the header bumpf from the bottom of the response ">
<polygon fill="white" stroke="black" points="316.5,-39 316.5,-69 493.5,-69 493.5,-39 316.5,-39"/>
<text text-anchor="start" x="324.5" y="-57" font-family="Helvetica,sans-Serif" font-size="10.00">tomoBay.model.winstock.Stock.post</text>
<text text-anchor="middle" x="405" y="-46" font-family="Helvetica,sans-Serif" font-size="10.00">FormatXMLString</text>
</a>
</g>
</g>
<!-- Node3&#45;&gt;Node5 -->
<g id="edge4" class="edge"><title>Node3&#45;&gt;Node5</title>
<path fill="none" stroke="midnightblue" d="M278.292,-54C287.549,-54 296.955,-54 306.242,-54"/>
<polygon fill="midnightblue" stroke="midnightblue" points="306.259,-57.5001 316.259,-54 306.259,-50.5001 306.259,-57.5001"/>
</g>
<!-- Node7 -->
<g id="node7" class="node"><title>Node7</title>
<g id="a_node7"><a xlink:href="classtomoBay_1_1helpers_1_1XMLParser.html#a9936151017dd4e908cf37d453b22c8ef" target="_top" xlink:title="parses an XML formatted string looking for the first tag specified in the parameters. ">
<polygon fill="white" stroke="black" points="320.5,-0.5 320.5,-19.5 489.5,-19.5 489.5,-0.5 320.5,-0.5"/>
<text text-anchor="middle" x="405" y="-7.5" font-family="Helvetica,sans-Serif" font-size="10.00">tomoBay.helpers.XMLParser.parse</text>
</a>
</g>
</g>
<!-- Node3&#45;&gt;Node7 -->
<g id="edge6" class="edge"><title>Node3&#45;&gt;Node7</title>
<path fill="none" stroke="midnightblue" d="M258.767,-38.9808C287.419,-33.2633 319.588,-26.844 346.355,-21.5029"/>
<polygon fill="midnightblue" stroke="midnightblue" points="347.208,-24.9017 356.33,-19.5124 345.838,-18.0371 347.208,-24.9017"/>
</g>
<!-- Node6 -->
<g id="node6" class="node"><title>Node6</title>
<g id="a_node6"><a xlink:href="classtomoBay_1_1model_1_1net_1_1HttpResponse.html#afb798c825935128953439404fb763997" target="_top" xlink:title="get the Response message ">
<polygon fill="white" stroke="black" points="532,-39 532,-69 716,-69 716,-39 532,-39"/>
<text text-anchor="start" x="540" y="-57" font-family="Helvetica,sans-Serif" font-size="10.00">tomoBay.model.net.HttpResponse.get</text>
<text text-anchor="middle" x="624" y="-46" font-family="Helvetica,sans-Serif" font-size="10.00">ResponseMessage</text>
</a>
</g>
</g>
<!-- Node5&#45;&gt;Node6 -->
<g id="edge5" class="edge"><title>Node5&#45;&gt;Node6</title>
<path fill="none" stroke="midnightblue" d="M493.637,-54C502.88,-54 512.333,-54 521.713,-54"/>
<polygon fill="midnightblue" stroke="midnightblue" points="521.851,-57.5001 531.851,-54 521.851,-50.5001 521.851,-57.5001"/>
</g>
</g>
</svg>
        <g id="navigator" transform="translate(0 0)" fill="#404254">
                <rect fill="#f2f5e9" fill-opacity="0.5" stroke="#606060" stroke-width=".5" x="0" y="0" width="60" height="60"/>
                <use id="zoomplus" xlink:href="#zoomPlus" x="17" y="9" onmousedown="handleZoom(evt,'in')"/>
                <use id="zoomminus" xlink:href="#zoomMin" x="42" y="9" onmousedown="handleZoom(evt,'out')"/>
                <use id="reset" xlink:href="#resetDef" x="30" y="36" onmousedown="handleReset()"/>
                <g id="arrowUp" xlink:href="#dirArrow" transform="translate(30 24)" onmousedown="handlePan(0,-1)">
                  <use xlink:href="#rim" fill="#404040">
                        <set attributeName="fill" to="#808080" begin="arrowUp.mouseover" end="arrowUp.mouseout"/>
                  </use>
                  <path fill="none" stroke="white" stroke-width="1.5" d="M0,-3.0v7 M-2.5,-0.5L0,-3.0L2.5,-0.5"/>
                </g>
                <g id="arrowRight" xlink:href="#dirArrow" transform="rotate(90) translate(36 -43)" onmousedown="handlePan(1,0)">
                  <use xlink:href="#rim" fill="#404040">
                        <set attributeName="fill" to="#808080" begin="arrowRight.mouseover" end="arrowRight.mouseout"/>
                  </use>
                  <path fill="none" stroke="white" stroke-width="1.5" d="M0,-3.0v7 M-2.5,-0.5L0,-3.0L2.5,-0.5"/>
                </g>
                <g id="arrowDown" xlink:href="#dirArrow" transform="rotate(180) translate(-30 -48)" onmousedown="handlePan(0,1)">
                  <use xlink:href="#rim" fill="#404040">
                        <set attributeName="fill" to="#808080" begin="arrowDown.mouseover" end="arrowDown.mouseout"/>
                  </use>
                  <path fill="none" stroke="white" stroke-width="1.5" d="M0,-3.0v7 M-2.5,-0.5L0,-3.0L2.5,-0.5"/>
                </g>
                <g id="arrowLeft" xlink:href="#dirArrow" transform="rotate(270) translate(-36 17)" onmousedown="handlePan(-1,0)">
                  <use xlink:href="#rim" fill="#404040">
                        <set attributeName="fill" to="#808080" begin="arrowLeft.mouseover" end="arrowLeft.mouseout"/>
                  </use>
                  <path fill="none" stroke="white" stroke-width="1.5" d="M0,-3.0v7 M-2.5,-0.5L0,-3.0L2.5,-0.5"/>
                </g>
        </g>
        <svg viewBox="0 0 15 15" width="100%" height="30px" preserveAspectRatio="xMaxYMin meet">
         <g id="arrow_out" transform="scale(0.3 0.3)">
          <a xlink:href="classtomoBay_1_1model_1_1dataTypes_1_1order_1_1Part_aee50f745ad12c48b5f2dc8eda4fdd6ec_cgraph_org.svg" target="_base">
           <rect id="button" ry="5" rx="5" y="6" x="6" height="38" width="38"
                fill="#f2f5e9" fill-opacity="0.5" stroke="#606060" stroke-width="1.0"/>
           <path id="arrow"
             d="M 11.500037,31.436501 C 11.940474,20.09759 22.043105,11.32322 32.158766,21.979434 L 37.068811,17.246167 C 37.068811,17.246167 37.088388,32 37.088388,32 L 22.160133,31.978069 C 22.160133,31.978069 26.997745,27.140456 26.997745,27.140456 C 18.528582,18.264221 13.291696,25.230495 11.500037,31.436501 z"
             style="fill:#404040;"/>
          </a>
         </g>
        </svg>
</svg>
