<?xml version="1.0" encoding="UTF-8" standalone="no"?>
<!DOCTYPE svg PUBLIC "-//W3C//DTD SVG 1.1//EN"
 "http://www.w3.org/Graphics/SVG/1.1/DTD/svg11.dtd">
<!-- Generated by graphviz version 2.38.0 (20140413.2041)
 -->
<!-- Title: testGet Pages: 1 -->
<svg width="415pt" height="39pt"
 viewBox="0.00 0.00 415.00 39.00" xmlns="http://www.w3.org/2000/svg" xmlns:xlink="http://www.w3.org/1999/xlink">
<g id="graph0" class="graph" transform="scale(1 1) rotate(0) translate(4 35)">
<title>testGet</title>
<polygon fill="white" stroke="none" points="-4,4 -4,-35 411,-35 411,4 -4,4"/>
<!-- Node1 -->
<g id="node1" class="node"><title>Node1</title>
<polygon fill="#bfbfbf" stroke="black" points="0,-6 0,-25 49,-25 49,-6 0,-6"/>
<text text-anchor="middle" x="24.5" y="-13" font-family="Helvetica,sans-Serif" font-size="10.00">testGet</text>
</g>
<!-- Node2 -->
<g id="node2" class="node"><title>Node2</title>
<g id="a_node2"><a xlink:href="classtomoBay_1_1model_1_1royalMail_1_1RoyalMailNonce.html#ac5f5202af3bb4156a22175cb76becb91" target="_top" xlink:title="get the nonce ">
<polygon fill="white" stroke="black" points="85,-0.5 85,-30.5 215,-30.5 215,-0.5 85,-0.5"/>
<text text-anchor="start" x="93" y="-18.5" font-family="Helvetica,sans-Serif" font-size="10.00">tomoBay.model.royalMail.</text>
<text text-anchor="middle" x="150" y="-7.5" font-family="Helvetica,sans-Serif" font-size="10.00">RoyalMailNonce.get</text>
</a>
</g>
</g>
<!-- Node1&#45;&gt;Node2 -->
<g id="edge1" class="edge"><title>Node1&#45;&gt;Node2</title>
<path fill="none" stroke="midnightblue" d="M49.0201,-15.5C56.6266,-15.5 65.5091,-15.5 74.783,-15.5"/>
<polygon fill="midnightblue" stroke="midnightblue" points="74.9581,-19.0001 84.958,-15.5 74.958,-12.0001 74.9581,-19.0001"/>
</g>
<!-- Node3 -->
<g id="node3" class="node"><title>Node3</title>
<g id="a_node3"><a xlink:href="classtomoBay_1_1model_1_1royalMail_1_1RoyalMailNonce.html#a15b10ba7f46fcf44f08dc70e10d70544" target="_top" xlink:title="convert the nonce into a Base64 encoded string ">
<polygon fill="white" stroke="black" points="251,-0.5 251,-30.5 407,-30.5 407,-0.5 251,-0.5"/>
<text text-anchor="start" x="259" y="-18.5" font-family="Helvetica,sans-Serif" font-size="10.00">tomoBay.model.royalMail.</text>
<text text-anchor="middle" x="329" y="-7.5" font-family="Helvetica,sans-Serif" font-size="10.00">RoyalMailNonce.encodeBase64</text>
</a>
</g>
</g>
<!-- Node2&#45;&gt;Node3 -->
<g id="edge2" class="edge"><title>Node2&#45;&gt;Node3</title>
<path fill="none" stroke="midnightblue" d="M215.151,-15.5C223.471,-15.5 232.102,-15.5 240.718,-15.5"/>
<polygon fill="midnightblue" stroke="midnightblue" points="240.805,-19.0001 250.805,-15.5 240.805,-12.0001 240.805,-19.0001"/>
</g>
</g>
</svg>
