<?xml version="1.0" encoding="UTF-8" standalone="no"?>
<!DOCTYPE svg PUBLIC "-//W3C//DTD SVG 1.1//EN"
 "http://www.w3.org/Graphics/SVG/1.1/DTD/svg11.dtd">
<!-- Generated by graphviz version 2.38.0 (20140413.2041)
 -->
<!-- Title: checkSize Pages: 1 -->
<svg width="379pt" height="208pt"
 viewBox="0.00 0.00 379.00 208.00" xmlns="http://www.w3.org/2000/svg" xmlns:xlink="http://www.w3.org/1999/xlink">
<g id="graph0" class="graph" transform="scale(1 1) rotate(0) translate(4 204)">
<title>checkSize</title>
<polygon fill="white" stroke="none" points="-4,4 -4,-204 375,-204 375,4 -4,4"/>
<!-- Node1 -->
<g id="node1" class="node"><title>Node1</title>
<polygon fill="#bfbfbf" stroke="black" points="0,-101.5 0,-120.5 62,-120.5 62,-101.5 0,-101.5"/>
<text text-anchor="middle" x="31" y="-108.5" font-family="Helvetica,sans-Serif" font-size="10.00">checkSize</text>
</g>
<!-- Node2 -->
<g id="node2" class="node"><title>Node2</title>
<g id="a_node2"><a xlink:href="classtomoBay_1_1model_1_1royalMail_1_1RoyalMailCSVGenerator.html#a4448e544d88b5d685f92e50cf8c3067d" target="_top" xlink:title="Adds a row of data to the CSV and checks the validity of the data against the specification defined i...">
<polygon fill="white" stroke="black" points="98,-101.5 98,-120.5 151,-120.5 151,-101.5 98,-101.5"/>
<text text-anchor="middle" x="124.5" y="-108.5" font-family="Helvetica,sans-Serif" font-size="10.00">addRow</text>
</a>
</g>
</g>
<!-- Node1&#45;&gt;Node2 -->
<g id="edge1" class="edge"><title>Node1&#45;&gt;Node2</title>
<path fill="none" stroke="midnightblue" d="M72.2434,-111C80.9586,-111 89.9442,-111 97.9105,-111"/>
<polygon fill="midnightblue" stroke="midnightblue" points="72.2141,-107.5 62.2141,-111 72.2141,-114.5 72.2141,-107.5"/>
</g>
<!-- Node3 -->
<g id="node3" class="node"><title>Node3</title>
<g id="a_node3"><a xlink:href="classtomoBay_1_1model_1_1royalMail_1_1test.html#a8b260eecbaabcef8473fd87ada040682" target="_top" xlink:title="tomoBay.model.royalMail.test.main">
<polygon fill="white" stroke="black" points="194,-180.5 194,-199.5 364,-199.5 364,-180.5 194,-180.5"/>
<text text-anchor="middle" x="279" y="-187.5" font-family="Helvetica,sans-Serif" font-size="10.00">tomoBay.model.royalMail.test.main</text>
</a>
</g>
</g>
<!-- Node2&#45;&gt;Node3 -->
<g id="edge2" class="edge"><title>Node2&#45;&gt;Node3</title>
<path fill="none" stroke="midnightblue" d="M139.156,-129.038C150.475,-142.682 167.776,-160.76 187,-171 194.265,-174.87 202.246,-177.952 210.371,-180.406"/>
<polygon fill="midnightblue" stroke="midnightblue" points="141.592,-126.478 132.622,-120.839 136.118,-130.841 141.592,-126.478"/>
</g>
<!-- Node4 -->
<g id="node4" class="node"><title>Node4</title>
<g id="a_node4"><a xlink:href="classtomoBayTests_1_1model_1_1royalMail_1_1RoyalMailCSVGeneratorTest.html#a4f16e86bb3ba3d0c933b524c43a83bea" target="_top" xlink:title="Test method for tomoBay.model.royalMail.RoyalMailCSVGenerator#setseparators(char, char)...">
<polygon fill="white" stroke="black" points="187,-120.5 187,-161.5 371,-161.5 371,-120.5 187,-120.5"/>
<text text-anchor="start" x="195" y="-149.5" font-family="Helvetica,sans-Serif" font-size="10.00">tomoBayTests.model.royal</text>
<text text-anchor="start" x="195" y="-138.5" font-family="Helvetica,sans-Serif" font-size="10.00">Mail.RoyalMailCSVGeneratorTest.test</text>
<text text-anchor="middle" x="279" y="-127.5" font-family="Helvetica,sans-Serif" font-size="10.00">Setseparators</text>
</a>
</g>
</g>
<!-- Node2&#45;&gt;Node4 -->
<g id="edge3" class="edge"><title>Node2&#45;&gt;Node4</title>
<path fill="none" stroke="midnightblue" d="M160.981,-117.98C168.96,-119.549 177.782,-121.285 186.898,-123.078"/>
<polygon fill="midnightblue" stroke="midnightblue" points="161.513,-114.517 151.025,-116.021 160.161,-121.386 161.513,-114.517"/>
</g>
<!-- Node5 -->
<g id="node5" class="node"><title>Node5</title>
<g id="a_node5"><a xlink:href="classtomoBayTests_1_1model_1_1royalMail_1_1RoyalMailCSVGeneratorTest.html#a228f0f1aaa740933e1ee5526464b0d4e" target="_top" xlink:title="Test method for tomoBay.model.royalMail.RoyalMailCSVGenerator#toString(). ">
<polygon fill="white" stroke="black" points="187,-60.5 187,-101.5 371,-101.5 371,-60.5 187,-60.5"/>
<text text-anchor="start" x="195" y="-89.5" font-family="Helvetica,sans-Serif" font-size="10.00">tomoBayTests.model.royal</text>
<text text-anchor="start" x="195" y="-78.5" font-family="Helvetica,sans-Serif" font-size="10.00">Mail.RoyalMailCSVGeneratorTest.test</text>
<text text-anchor="middle" x="279" y="-67.5" font-family="Helvetica,sans-Serif" font-size="10.00">ToStringBadInput</text>
</a>
</g>
</g>
<!-- Node2&#45;&gt;Node5 -->
<g id="edge4" class="edge"><title>Node2&#45;&gt;Node5</title>
<path fill="none" stroke="midnightblue" d="M160.981,-104.02C168.96,-102.451 177.782,-100.715 186.898,-98.9216"/>
<polygon fill="midnightblue" stroke="midnightblue" points="160.161,-100.614 151.025,-105.979 161.513,-107.483 160.161,-100.614"/>
</g>
<!-- Node6 -->
<g id="node6" class="node"><title>Node6</title>
<g id="a_node6"><a xlink:href="classtomoBayTests_1_1model_1_1royalMail_1_1RoyalMailCSVGeneratorTest.html#aa785bc5cc98af5c4ec7210ac0e314af4" target="_top" xlink:title="Test method for tomoBay.model.royalMail.RoyalMailCSVGenerator#toString(). ">
<polygon fill="white" stroke="black" points="187,-0.5 187,-41.5 371,-41.5 371,-0.5 187,-0.5"/>
<text text-anchor="start" x="195" y="-29.5" font-family="Helvetica,sans-Serif" font-size="10.00">tomoBayTests.model.royal</text>
<text text-anchor="start" x="195" y="-18.5" font-family="Helvetica,sans-Serif" font-size="10.00">Mail.RoyalMailCSVGeneratorTest.test</text>
<text text-anchor="middle" x="279" y="-7.5" font-family="Helvetica,sans-Serif" font-size="10.00">ToStringGoodInput</text>
</a>
</g>
</g>
<!-- Node2&#45;&gt;Node6 -->
<g id="edge5" class="edge"><title>Node2&#45;&gt;Node6</title>
<path fill="none" stroke="midnightblue" d="M139.882,-93.1014C151.387,-79.8318 168.592,-62.1785 187,-51 192.687,-47.5462 198.819,-44.4392 205.118,-41.6551"/>
<polygon fill="midnightblue" stroke="midnightblue" points="136.937,-91.1662 133.19,-101.076 142.299,-95.666 136.937,-91.1662"/>
</g>
</g>
</svg>
