<?xml version="1.0" encoding="UTF-8" standalone="no"?>
<!DOCTYPE svg PUBLIC "-//W3C//DTD SVG 1.1//EN"
 "http://www.w3.org/Graphics/SVG/1.1/DTD/svg11.dtd">
<!-- Generated by graphviz version 2.38.0 (20140413.2041)
 -->
<!-- Title: RoyalMailCSVGenerator Pages: 1 -->
<svg width="147pt" height="336pt"
 viewBox="0.00 0.00 147.00 336.00" xmlns="http://www.w3.org/2000/svg" xmlns:xlink="http://www.w3.org/1999/xlink">
<g id="graph0" class="graph" transform="scale(1 1) rotate(0) translate(4 332)">
<title>RoyalMailCSVGenerator</title>
<polygon fill="white" stroke="none" points="-4,4 -4,-332 143,-332 143,4 -4,4"/>
<!-- Node1 -->
<g id="node1" class="node"><title>Node1</title>
<polygon fill="#bfbfbf" stroke="black" points="0,-0.5 0,-189.5 139,-189.5 139,-0.5 0,-0.5"/>
<text text-anchor="middle" x="69.5" y="-177.5" font-family="Helvetica,sans-Serif" font-size="10.00">RoyalMailCSVGenerator</text>
<polyline fill="none" stroke="black" points="0,-170.5 139,-170.5 "/>
<text text-anchor="start" x="8" y="-158.5" font-family="Helvetica,sans-Serif" font-size="10.00">&#45; columnNames_M</text>
<text text-anchor="start" x="8" y="-147.5" font-family="Helvetica,sans-Serif" font-size="10.00">&#45; columnValidations_M</text>
<text text-anchor="start" x="8" y="-136.5" font-family="Helvetica,sans-Serif" font-size="10.00">&#45; separator_M</text>
<text text-anchor="start" x="8" y="-125.5" font-family="Helvetica,sans-Serif" font-size="10.00">&#45; entryIndicator_M</text>
<text text-anchor="start" x="8" y="-114.5" font-family="Helvetica,sans-Serif" font-size="10.00">&#45; result_M</text>
<polyline fill="none" stroke="black" points="0,-107.5 139,-107.5 "/>
<text text-anchor="start" x="8" y="-95.5" font-family="Helvetica,sans-Serif" font-size="10.00">+ RoyalMailCSVGenerator()</text>
<text text-anchor="start" x="8" y="-84.5" font-family="Helvetica,sans-Serif" font-size="10.00">+ setseparators()</text>
<text text-anchor="start" x="8" y="-73.5" font-family="Helvetica,sans-Serif" font-size="10.00">+ addRow()</text>
<text text-anchor="start" x="8" y="-62.5" font-family="Helvetica,sans-Serif" font-size="10.00">+ addBatch()</text>
<text text-anchor="start" x="8" y="-51.5" font-family="Helvetica,sans-Serif" font-size="10.00">+ generate()</text>
<text text-anchor="start" x="8" y="-40.5" font-family="Helvetica,sans-Serif" font-size="10.00">+ size()</text>
<text text-anchor="start" x="8" y="-29.5" font-family="Helvetica,sans-Serif" font-size="10.00">+ toString()</text>
<text text-anchor="start" x="8" y="-18.5" font-family="Helvetica,sans-Serif" font-size="10.00">&#45; checkSize()</text>
<text text-anchor="start" x="8" y="-7.5" font-family="Helvetica,sans-Serif" font-size="10.00">&#45; validate()</text>
</g>
<!-- Node2 -->
<g id="node2" class="node"><title>Node2</title>
<g id="a_node2"><a xlink:href="interfacetomoBay_1_1model_1_1royalMail_1_1CSVGenerator.html" target="_top" xlink:title="This is the public interface for all CSV generator derived classes and defines the necessary function...">
<polygon fill="white" stroke="black" points="24,-226.5 24,-327.5 115,-327.5 115,-226.5 24,-226.5"/>
<text text-anchor="middle" x="69.5" y="-315.5" font-family="Helvetica,sans-Serif" font-size="10.00">CSVGenerator</text>
<polyline fill="none" stroke="black" points="24,-308.5 115,-308.5 "/>
<text text-anchor="middle" x="69.5" y="-296.5" font-family="Helvetica,sans-Serif" font-size="10.00"> </text>
<polyline fill="none" stroke="black" points="24,-289.5 115,-289.5 "/>
<text text-anchor="start" x="32" y="-277.5" font-family="Helvetica,sans-Serif" font-size="10.00">+ setseparators()</text>
<text text-anchor="start" x="32" y="-266.5" font-family="Helvetica,sans-Serif" font-size="10.00">+ addRow()</text>
<text text-anchor="start" x="32" y="-255.5" font-family="Helvetica,sans-Serif" font-size="10.00">+ generate()</text>
<text text-anchor="start" x="32" y="-244.5" font-family="Helvetica,sans-Serif" font-size="10.00">+ size()</text>
<text text-anchor="start" x="32" y="-233.5" font-family="Helvetica,sans-Serif" font-size="10.00">+ toString()</text>
</a>
</g>
</g>
<!-- Node2&#45;&gt;Node1 -->
<g id="edge1" class="edge"><title>Node2&#45;&gt;Node1</title>
<path fill="none" stroke="midnightblue" d="M69.5,-216.16C69.5,-207.631 69.5,-198.693 69.5,-189.705"/>
<polygon fill="none" stroke="midnightblue" points="66.0001,-216.338 69.5,-226.338 73.0001,-216.338 66.0001,-216.338"/>
</g>
</g>
</svg>
