<?xml version="1.0" encoding="UTF-8" standalone="no"?>
<!DOCTYPE svg PUBLIC "-//W3C//DTD SVG 1.1//EN"
 "http://www.w3.org/Graphics/SVG/1.1/DTD/svg11.dtd">
<!-- Generated by graphviz version 2.38.0 (20140413.2041)
 -->
<!-- Title: execute Pages: 1 -->
<!--zoomable 447 -->
<svg id="main" version="1.1" xmlns="http://www.w3.org/2000/svg" xmlns:xlink="http://www.w3.org/1999/xlink" xml:space="preserve" onload="init(evt)">
<style type="text/css"><![CDATA[
.edge:hover path { stroke: red; }
.edge:hover polygon { stroke: red; fill: red; }
]]></style>
<script type="text/javascript"><![CDATA[
var edges = document.getElementsByTagName('g');
if (edges && edges.length) {
  for (var i=0;i<edges.length;i++) {
    if (edges[i].id.substr(0,4)=='edge') {
      edges[i].setAttribute('class','edge');
    }
  }
}
]]></script>
        <defs>
                <circle id="rim" cx="0" cy="0" r="7"/>
                <circle id="rim2" cx="0" cy="0" r="3.5"/>
                <g id="zoomPlus">
                        <use xlink:href="#rim" fill="#404040">
                                <set attributeName="fill" to="#808080" begin="zoomplus.mouseover" end="zoomplus.mouseout"/>
                        </use>
                        <path d="M-4,0h8M0,-4v8" fill="none" stroke="white" stroke-width="1.5" pointer-events="none"/>
                </g>
                <g id="zoomMin">
                        <use xlink:href="#rim" fill="#404040">
                                <set attributeName="fill" to="#808080" begin="zoomminus.mouseover" end="zoomminus.mouseout"/>
                        </use>
                        <path d="M-4,0h8" fill="none" stroke="white" stroke-width="1.5" pointer-events="none"/>
                </g>
                <g id="dirArrow">
                        <path fill="none" stroke="white" stroke-width="1.5" d="M0,-3.0v7 M-2.5,-0.5L0,-3.0L2.5,-0.5"/>
                </g>
               <g id="resetDef">
                       <use xlink:href="#rim2" fill="#404040">
                               <set attributeName="fill" to="#808080" begin="reset.mouseover" end="reset.mouseout"/>
                       </use>
               </g>
        </defs>

<script type="text/javascript">
var viewWidth = 727;
var viewHeight = 447;
var sectionId = 'dynsection-2';
</script>
<script xlink:href="svgpan.js"/>
<svg id="graph" class="graph">
<g id="viewport">
<title>execute</title>
<polygon fill="white" stroke="none" points="-4,4 -4,-442.5 723,-442.5 723,4 -4,4"/>
<!-- Node1 -->
<g id="node1" class="node"><title>Node1</title>
<polygon fill="#bfbfbf" stroke="black" points="0,-217.5 0,-236.5 51,-236.5 51,-217.5 0,-217.5"/>
<text text-anchor="middle" x="25.5" y="-224.5" font-family="Helvetica,sans-Serif" font-size="10.00">execute</text>
</g>
<!-- Node2 -->
<g id="node2" class="node"><title>Node2</title>
<g id="a_node2"><a xlink:href="classtomoBay_1_1model_1_1eBayAPI_1_1EbayAccounts.html#ae9b99457a79c932468c153115ef964b0" target="_top" xlink:title="retrieve the ebay api key for the account name specified ">
<polygon fill="white" stroke="black" points="101,-381 101,-411 253,-411 253,-381 101,-381"/>
<text text-anchor="start" x="109" y="-399" font-family="Helvetica,sans-Serif" font-size="10.00">tomoBay.model.eBayAPI.Ebay</text>
<text text-anchor="middle" x="177" y="-388" font-family="Helvetica,sans-Serif" font-size="10.00">Accounts.apiKey</text>
</a>
</g>
</g>
<!-- Node1&#45;&gt;Node2 -->
<g id="edge1" class="edge"><title>Node1&#45;&gt;Node2</title>
<path fill="none" stroke="midnightblue" d="M27.6332,-236.814C31.1857,-262.952 44.5303,-334.792 87,-372 88.7115,-373.499 90.5075,-374.906 92.3732,-376.227"/>
<polygon fill="midnightblue" stroke="midnightblue" points="90.5981,-379.243 100.955,-381.475 94.2505,-373.272 90.5981,-379.243"/>
</g>
<!-- Node3 -->
<g id="node3" class="node"><title>Node3</title>
<g id="a_node3"><a xlink:href="classtomoBay_1_1model_1_1eBayAPI_1_1OrdersCall.html#a6531876c53fd0c3c56eec68bd1b00df0" target="_top" xlink:title="This method performs a call to the API grabbing a list of orders for the specified number of days...">
<polygon fill="white" stroke="black" points="97.5,-332 97.5,-362 256.5,-362 256.5,-332 97.5,-332"/>
<text text-anchor="start" x="105.5" y="-350" font-family="Helvetica,sans-Serif" font-size="10.00">tomoBay.model.eBayAPI.Orders</text>
<text text-anchor="middle" x="177" y="-339" font-family="Helvetica,sans-Serif" font-size="10.00">Call.call</text>
</a>
</g>
</g>
<!-- Node1&#45;&gt;Node3 -->
<g id="edge2" class="edge"><title>Node1&#45;&gt;Node3</title>
<path fill="none" stroke="midnightblue" d="M30.4412,-236.663C38.398,-254.994 58.118,-294.951 87,-317 92.3989,-321.122 98.3972,-324.696 104.657,-327.793"/>
<polygon fill="midnightblue" stroke="midnightblue" points="103.421,-331.075 113.976,-331.995 106.299,-324.694 103.421,-331.075"/>
</g>
<!-- Node7 -->
<g id="node7" class="node"><title>Node7</title>
<g id="a_node7"><a xlink:href="classtomoBay_1_1model_1_1dataTypes_1_1heteroTypeContainer_1_1HeteroFieldContainer.html#a988363ab964d6dc0ccb8560bef5895b6" target="_top" xlink:title="retrieve the the value of an AbstractField from this HeteroFieldContainer, the field should be of the...">
<polygon fill="white" stroke="black" points="304,-261 304,-291 496,-291 496,-261 304,-261"/>
<text text-anchor="start" x="312" y="-279" font-family="Helvetica,sans-Serif" font-size="10.00">tomoBay.model.dataTypes.hetero</text>
<text text-anchor="middle" x="400" y="-268" font-family="Helvetica,sans-Serif" font-size="10.00">TypeContainer.HeteroFieldContainer.get</text>
</a>
</g>
</g>
<!-- Node1&#45;&gt;Node7 -->
<g id="edge6" class="edge"><title>Node1&#45;&gt;Node7</title>
<path fill="none" stroke="midnightblue" d="M32.9468,-236.555C42.7544,-250.131 62.8563,-274.418 87,-284 165.401,-315.116 263.822,-305.431 328.925,-293.06"/>
<polygon fill="midnightblue" stroke="midnightblue" points="329.945,-296.427 339.079,-291.058 328.591,-289.559 329.945,-296.427"/>
</g>
<!-- Node9 -->
<g id="node9" class="node"><title>Node9</title>
<g id="a_node9"><a xlink:href="classtomoBay_1_1model_1_1services_1_1reScanBuyerService_1_1OnRunning.html#a2635d1876823db285122ff73faeed4b2" target="_top" xlink:title="retrieves the personal address associated with the order passed in as an argument. ">
<polygon fill="white" stroke="black" points="144,-255.5 144,-274.5 210,-274.5 210,-255.5 144,-255.5"/>
<text text-anchor="middle" x="177" y="-262.5" font-family="Helvetica,sans-Serif" font-size="10.00">getAddress</text>
</a>
</g>
</g>
<!-- Node1&#45;&gt;Node9 -->
<g id="edge8" class="edge"><title>Node1&#45;&gt;Node9</title>
<path fill="none" stroke="midnightblue" d="M51.0734,-235.293C62.0049,-238.833 75.0756,-242.862 87,-246 102.146,-249.986 118.906,-253.733 133.76,-256.83"/>
<polygon fill="midnightblue" stroke="midnightblue" points="133.197,-260.287 143.695,-258.864 134.601,-253.429 133.197,-260.287"/>
</g>
<!-- Node11 -->
<g id="node11" class="node"><title>Node11</title>
<g id="a_node11"><a xlink:href="classtomoBay_1_1model_1_1services_1_1reScanBuyerService_1_1OnRunning.html#a33706837d80ae402889acf879a8e2566" target="_top" xlink:title="retrieves the global shipping program address associated with the order passed in as an argument...">
<polygon fill="white" stroke="black" points="134,-217.5 134,-236.5 220,-236.5 220,-217.5 134,-217.5"/>
<text text-anchor="middle" x="177" y="-224.5" font-family="Helvetica,sans-Serif" font-size="10.00">getGSPaddress</text>
</a>
</g>
</g>
<!-- Node1&#45;&gt;Node11 -->
<g id="edge11" class="edge"><title>Node1&#45;&gt;Node11</title>
<path fill="none" stroke="midnightblue" d="M51.1869,-227C70.78,-227 98.866,-227 123.436,-227"/>
<polygon fill="midnightblue" stroke="midnightblue" points="123.715,-230.5 133.715,-227 123.715,-223.5 123.715,-230.5"/>
</g>
<!-- Node12 -->
<g id="node12" class="node"><title>Node12</title>
<g id="a_node12"><a xlink:href="classtomoBay_1_1model_1_1services_1_1reScanBuyerService_1_1DBActions.html#a7b6294e946014db474b821904f218bad" target="_top" xlink:title="get the latest orderID for the buyer passed in as an argument ">
<polygon fill="white" stroke="black" points="95,-157.5 95,-198.5 259,-198.5 259,-157.5 95,-157.5"/>
<text text-anchor="start" x="103" y="-186.5" font-family="Helvetica,sans-Serif" font-size="10.00">tomoBay.model.services.re</text>
<text text-anchor="start" x="103" y="-175.5" font-family="Helvetica,sans-Serif" font-size="10.00">ScanBuyerService.DBActions.get</text>
<text text-anchor="middle" x="177" y="-164.5" font-family="Helvetica,sans-Serif" font-size="10.00">LatestOrderID</text>
</a>
</g>
</g>
<!-- Node1&#45;&gt;Node12 -->
<g id="edge13" class="edge"><title>Node1&#45;&gt;Node12</title>
<path fill="none" stroke="midnightblue" d="M51.1869,-218.909C65.6602,-214.165 84.7677,-207.902 103.669,-201.707"/>
<polygon fill="midnightblue" stroke="midnightblue" points="104.795,-205.021 113.208,-198.581 102.615,-198.369 104.795,-205.021"/>
</g>
<!-- Node14 -->
<g id="node14" class="node"><title>Node14</title>
<g id="a_node14"><a xlink:href="classtomoBay_1_1model_1_1eBayAPI_1_1EbayAccounts.html#a263b122a1c598841624ba7d1e4a6c617" target="_top" xlink:title="convert an account ID to a textual name value. ">
<polygon fill="white" stroke="black" points="101,-109 101,-139 253,-139 253,-109 101,-109"/>
<text text-anchor="start" x="109" y="-127" font-family="Helvetica,sans-Serif" font-size="10.00">tomoBay.model.eBayAPI.Ebay</text>
<text text-anchor="middle" x="177" y="-116" font-family="Helvetica,sans-Serif" font-size="10.00">Accounts.name</text>
</a>
</g>
</g>
<!-- Node1&#45;&gt;Node14 -->
<g id="edge16" class="edge"><title>Node1&#45;&gt;Node14</title>
<path fill="none" stroke="midnightblue" d="M31.1892,-217.333C39.826,-200.573 59.8756,-166.174 87,-148 89.4305,-146.372 91.9677,-144.853 94.584,-143.438"/>
<polygon fill="midnightblue" stroke="midnightblue" points="96.2638,-146.513 103.744,-139.01 93.2174,-140.211 96.2638,-146.513"/>
</g>
<!-- Node16 -->
<g id="node16" class="node"><title>Node16</title>
<g id="a_node16"><a xlink:href="classtomoBay_1_1model_1_1eBayAPI_1_1EbayAccounts.html#a17d78d1b20882cd5986119af592d4f3d" target="_top" xlink:title="retrieve the ebay server address for the account name specified ">
<polygon fill="white" stroke="black" points="101,-60 101,-90 253,-90 253,-60 101,-60"/>
<text text-anchor="start" x="109" y="-78" font-family="Helvetica,sans-Serif" font-size="10.00">tomoBay.model.eBayAPI.Ebay</text>
<text text-anchor="middle" x="177" y="-67" font-family="Helvetica,sans-Serif" font-size="10.00">Accounts.serverAddress</text>
</a>
</g>
</g>
<!-- Node1&#45;&gt;Node16 -->
<g id="edge18" class="edge"><title>Node1&#45;&gt;Node16</title>
<path fill="none" stroke="midnightblue" d="M28.2129,-217.283C32.9538,-193.347 48.5309,-131.161 87,-99 88.5654,-97.6913 90.1957,-96.4533 91.8804,-95.2825"/>
<polygon fill="midnightblue" stroke="midnightblue" points="93.9468,-98.1239 100.71,-89.9689 90.3375,-92.1261 93.9468,-98.1239"/>
</g>
<!-- Node17 -->
<g id="node17" class="node"><title>Node17</title>
<g id="a_node17"><a xlink:href="classtomoBay_1_1model_1_1services_1_1reScanBuyerService_1_1DBActions.html#ada9d7427b2cf9579ce36b038793eadd0" target="_top" xlink:title="updates the buyer table in the database with the new buyer information. ">
<polygon fill="white" stroke="black" points="87,-0.5 87,-41.5 267,-41.5 267,-0.5 87,-0.5"/>
<text text-anchor="start" x="95" y="-29.5" font-family="Helvetica,sans-Serif" font-size="10.00">tomoBay.model.services.re</text>
<text text-anchor="start" x="95" y="-18.5" font-family="Helvetica,sans-Serif" font-size="10.00">ScanBuyerService.DBActions.update</text>
<text text-anchor="middle" x="177" y="-7.5" font-family="Helvetica,sans-Serif" font-size="10.00">BuyerTable</text>
</a>
</g>
</g>
<!-- Node1&#45;&gt;Node17 -->
<g id="edge19" class="edge"><title>Node1&#45;&gt;Node17</title>
<path fill="none" stroke="midnightblue" d="M26.9021,-217.394C28.6556,-187.999 37.9699,-98.3308 87,-50 87.6836,-49.3262 88.3829,-48.668 89.0971,-48.0252"/>
<polygon fill="midnightblue" stroke="midnightblue" points="91.4962,-50.5942 97.2625,-41.706 87.212,-45.0583 91.4962,-50.5942"/>
</g>
<!-- Node4 -->
<g id="node4" class="node"><title>Node4</title>
<g id="a_node4"><a xlink:href="classtomoBay_1_1model_1_1eBayAPI_1_1OrdersCall.html#ae29dfd6b4e8a557a849bd0cd8b6c35e2" target="_top" xlink:title="convert the List&lt;OrderType[]&gt; passed in as an argument to a single OrderType[] containing all of the ...">
<polygon fill="white" stroke="black" points="320.5,-408 320.5,-438 479.5,-438 479.5,-408 320.5,-408"/>
<text text-anchor="start" x="328.5" y="-426" font-family="Helvetica,sans-Serif" font-size="10.00">tomoBay.model.eBayAPI.Orders</text>
<text text-anchor="middle" x="400" y="-415" font-family="Helvetica,sans-Serif" font-size="10.00">Call.reformResults</text>
</a>
</g>
</g>
<!-- Node3&#45;&gt;Node4 -->
<g id="edge3" class="edge"><title>Node3&#45;&gt;Node4</title>
<path fill="none" stroke="midnightblue" d="M242.748,-362.125C251.089,-364.956 259.373,-368.234 267,-372 284.933,-380.855 284.941,-390.405 303,-399 307.283,-401.038 311.758,-402.916 316.335,-404.645"/>
<polygon fill="midnightblue" stroke="midnightblue" points="315.249,-407.973 325.844,-407.986 317.569,-401.368 315.249,-407.973"/>
</g>
<!-- Node5 -->
<g id="node5" class="node"><title>Node5</title>
<g id="a_node5"><a xlink:href="classtomoBay_1_1model_1_1eBayAPI_1_1OrdersCall.html#a0636e18f9fb41faa3ba7c00887156b29" target="_top" xlink:title="this method does some setup for the API call ">
<polygon fill="white" stroke="black" points="320.5,-359 320.5,-389 479.5,-389 479.5,-359 320.5,-359"/>
<text text-anchor="start" x="328.5" y="-377" font-family="Helvetica,sans-Serif" font-size="10.00">tomoBay.model.eBayAPI.Orders</text>
<text text-anchor="middle" x="400" y="-366" font-family="Helvetica,sans-Serif" font-size="10.00">Call.setUpCall</text>
</a>
</g>
</g>
<!-- Node3&#45;&gt;Node5 -->
<g id="edge4" class="edge"><title>Node3&#45;&gt;Node5</title>
<path fill="none" stroke="midnightblue" d="M256.539,-356.595C273.858,-358.711 292.324,-360.967 310.024,-363.13"/>
<polygon fill="midnightblue" stroke="midnightblue" points="309.992,-366.652 320.342,-364.39 310.84,-359.703 309.992,-366.652"/>
</g>
<!-- Node6 -->
<g id="node6" class="node"><title>Node6</title>
<g id="a_node6"><a xlink:href="classtomoBay_1_1model_1_1eBayAPI_1_1OrdersCall.html#a5c2c034763b51de47c06064da1479d85" target="_top" xlink:title="do setup for the pagination. ">
<polygon fill="white" stroke="black" points="320.5,-310 320.5,-340 479.5,-340 479.5,-310 320.5,-310"/>
<text text-anchor="start" x="328.5" y="-328" font-family="Helvetica,sans-Serif" font-size="10.00">tomoBay.model.eBayAPI.Orders</text>
<text text-anchor="middle" x="400" y="-317" font-family="Helvetica,sans-Serif" font-size="10.00">Call.setUpPagination</text>
</a>
</g>
</g>
<!-- Node3&#45;&gt;Node6 -->
<g id="edge5" class="edge"><title>Node3&#45;&gt;Node6</title>
<path fill="none" stroke="midnightblue" d="M256.539,-339.182C273.858,-337.458 292.324,-335.619 310.024,-333.857"/>
<polygon fill="midnightblue" stroke="midnightblue" points="310.738,-337.304 320.342,-332.83 310.045,-330.338 310.738,-337.304"/>
</g>
<!-- Node8 -->
<g id="node8" class="node"><title>Node8</title>
<g id="a_node8"><a xlink:href="classtomoBay_1_1model_1_1dataTypes_1_1heteroTypeContainer_1_1HeteroFieldContainer.html#a9dee3c01eb5ab16203e1c6820a569484" target="_top" xlink:title="performs a type check, assuming that field and type are of the same type then this method returns tru...">
<polygon fill="white" stroke="black" points="533,-230.5 533,-271.5 719,-271.5 719,-230.5 533,-230.5"/>
<text text-anchor="start" x="541" y="-259.5" font-family="Helvetica,sans-Serif" font-size="10.00">tomoBay.model.dataTypes.hetero</text>
<text text-anchor="start" x="541" y="-248.5" font-family="Helvetica,sans-Serif" font-size="10.00">TypeContainer.HeteroFieldContainer.is</text>
<text text-anchor="middle" x="626" y="-237.5" font-family="Helvetica,sans-Serif" font-size="10.00">SameType</text>
</a>
</g>
</g>
<!-- Node7&#45;&gt;Node8 -->
<g id="edge7" class="edge"><title>Node7&#45;&gt;Node8</title>
<path fill="none" stroke="midnightblue" d="M496.321,-265.361C505.146,-264.377 514.112,-263.376 522.993,-262.385"/>
<polygon fill="midnightblue" stroke="midnightblue" points="523.423,-265.859 532.973,-261.271 522.646,-258.902 523.423,-265.859"/>
</g>
<!-- Node10 -->
<g id="node10" class="node"><title>Node10</title>
<g id="a_node10"><a xlink:href="classtomoBay_1_1model_1_1dataTypes_1_1heteroTypeContainer_1_1HeteroFieldContainer.html#a3ba6289417930238a36bfee0056b6398" target="_top" xlink:title="add an arbitrary value to this Field container with the stipulation that this value is of the same ty...">
<polygon fill="white" stroke="black" points="303,-212 303,-242 497,-242 497,-212 303,-212"/>
<text text-anchor="start" x="311" y="-230" font-family="Helvetica,sans-Serif" font-size="10.00">tomoBay.model.dataTypes.hetero</text>
<text text-anchor="middle" x="400" y="-219" font-family="Helvetica,sans-Serif" font-size="10.00">TypeContainer.HeteroFieldContainer.add</text>
</a>
</g>
</g>
<!-- Node9&#45;&gt;Node10 -->
<g id="edge9" class="edge"><title>Node9&#45;&gt;Node10</title>
<path fill="none" stroke="midnightblue" d="M210.135,-259.474C234.22,-255.333 268.539,-249.432 301.33,-243.794"/>
<polygon fill="midnightblue" stroke="midnightblue" points="302.182,-247.199 311.444,-242.055 300.996,-240.3 302.182,-247.199"/>
</g>
<!-- Node10&#45;&gt;Node8 -->
<g id="edge10" class="edge"><title>Node10&#45;&gt;Node8</title>
<path fill="none" stroke="midnightblue" d="M497.296,-237.317C505.642,-238.212 514.106,-239.119 522.499,-240.018"/>
<polygon fill="midnightblue" stroke="midnightblue" points="522.372,-243.524 532.688,-241.109 523.118,-236.564 522.372,-243.524"/>
</g>
<!-- Node11&#45;&gt;Node10 -->
<g id="edge12" class="edge"><title>Node11&#45;&gt;Node10</title>
<path fill="none" stroke="midnightblue" d="M220.089,-227C240.763,-227 266.706,-227 292.37,-227"/>
<polygon fill="midnightblue" stroke="midnightblue" points="292.562,-230.5 302.562,-227 292.562,-223.5 292.562,-230.5"/>
</g>
<!-- Node12&#45;&gt;Node10 -->
<g id="edge14" class="edge"><title>Node12&#45;&gt;Node10</title>
<path fill="none" stroke="midnightblue" d="M259.037,-195.968C279.271,-200.454 300.927,-205.255 321.01,-209.708"/>
<polygon fill="midnightblue" stroke="midnightblue" points="320.52,-213.184 331.04,-211.932 322.035,-206.35 320.52,-213.184"/>
</g>
<!-- Node13 -->
<g id="node13" class="node"><title>Node13</title>
<g id="a_node13"><a xlink:href="classtomoBay_1_1model_1_1sql_1_1framework_1_1SelectQueryInvoker.html#a594282bcbcc0731a7d234482717422d7" target="_top" xlink:title="execute a requested query ">
<polygon fill="white" stroke="black" points="324,-163 324,-193 476,-193 476,-163 324,-163"/>
<text text-anchor="start" x="332" y="-181" font-family="Helvetica,sans-Serif" font-size="10.00">tomoBay.model.sql.framework.</text>
<text text-anchor="middle" x="400" y="-170" font-family="Helvetica,sans-Serif" font-size="10.00">SelectQueryInvoker.execute</text>
</a>
</g>
</g>
<!-- Node12&#45;&gt;Node13 -->
<g id="edge15" class="edge"><title>Node12&#45;&gt;Node13</title>
<path fill="none" stroke="midnightblue" d="M259.037,-178C276.833,-178 295.727,-178 313.685,-178"/>
<polygon fill="midnightblue" stroke="midnightblue" points="313.842,-181.5 323.842,-178 313.842,-174.5 313.842,-181.5"/>
</g>
<!-- Node15 -->
<g id="node15" class="node"><title>Node15</title>
<g id="a_node15"><a xlink:href="classtomoBay_1_1model_1_1eBayAPI_1_1EbayAccounts.html#a137163c03f463ad5d9581aef47a9a3e4" target="_top" xlink:title="retrieve the id for the account name specified ">
<polygon fill="white" stroke="black" points="324,-109 324,-139 476,-139 476,-109 324,-109"/>
<text text-anchor="start" x="332" y="-127" font-family="Helvetica,sans-Serif" font-size="10.00">tomoBay.model.eBayAPI.Ebay</text>
<text text-anchor="middle" x="400" y="-116" font-family="Helvetica,sans-Serif" font-size="10.00">Accounts.id</text>
</a>
</g>
</g>
<!-- Node14&#45;&gt;Node15 -->
<g id="edge17" class="edge"><title>Node14&#45;&gt;Node15</title>
<path fill="none" stroke="midnightblue" d="M253.129,-124C272.612,-124 293.734,-124 313.698,-124"/>
<polygon fill="midnightblue" stroke="midnightblue" points="313.704,-127.5 323.704,-124 313.704,-120.5 313.704,-127.5"/>
</g>
<!-- Node18 -->
<g id="node18" class="node"><title>Node18</title>
<g id="a_node18"><a xlink:href="classtomoBay_1_1model_1_1sql_1_1framework_1_1ModifyQueryInvoker.html#ab8ef0fdf15f6720620e297c77ab25d46" target="_top" xlink:title="tomoBay.model.sql.framework.\lModifyQueryInvoker.execute">
<polygon fill="white" stroke="black" points="324,-6 324,-36 476,-36 476,-6 324,-6"/>
<text text-anchor="start" x="332" y="-24" font-family="Helvetica,sans-Serif" font-size="10.00">tomoBay.model.sql.framework.</text>
<text text-anchor="middle" x="400" y="-13" font-family="Helvetica,sans-Serif" font-size="10.00">ModifyQueryInvoker.execute</text>
</a>
</g>
</g>
<!-- Node17&#45;&gt;Node18 -->
<g id="edge20" class="edge"><title>Node17&#45;&gt;Node18</title>
<path fill="none" stroke="midnightblue" d="M267.252,-21C282.534,-21 298.379,-21 313.558,-21"/>
<polygon fill="midnightblue" stroke="midnightblue" points="313.945,-24.5001 323.945,-21 313.945,-17.5001 313.945,-24.5001"/>
</g>
</g>
</svg>
        <g id="navigator" transform="translate(0 0)" fill="#404254">
                <rect fill="#f2f5e9" fill-opacity="0.5" stroke="#606060" stroke-width=".5" x="0" y="0" width="60" height="60"/>
                <use id="zoomplus" xlink:href="#zoomPlus" x="17" y="9" onmousedown="handleZoom(evt,'in')"/>
                <use id="zoomminus" xlink:href="#zoomMin" x="42" y="9" onmousedown="handleZoom(evt,'out')"/>
                <use id="reset" xlink:href="#resetDef" x="30" y="36" onmousedown="handleReset()"/>
                <g id="arrowUp" xlink:href="#dirArrow" transform="translate(30 24)" onmousedown="handlePan(0,-1)">
                  <use xlink:href="#rim" fill="#404040">
                        <set attributeName="fill" to="#808080" begin="arrowUp.mouseover" end="arrowUp.mouseout"/>
                  </use>
                  <path fill="none" stroke="white" stroke-width="1.5" d="M0,-3.0v7 M-2.5,-0.5L0,-3.0L2.5,-0.5"/>
                </g>
                <g id="arrowRight" xlink:href="#dirArrow" transform="rotate(90) translate(36 -43)" onmousedown="handlePan(1,0)">
                  <use xlink:href="#rim" fill="#404040">
                        <set attributeName="fill" to="#808080" begin="arrowRight.mouseover" end="arrowRight.mouseout"/>
                  </use>
                  <path fill="none" stroke="white" stroke-width="1.5" d="M0,-3.0v7 M-2.5,-0.5L0,-3.0L2.5,-0.5"/>
                </g>
                <g id="arrowDown" xlink:href="#dirArrow" transform="rotate(180) translate(-30 -48)" onmousedown="handlePan(0,1)">
                  <use xlink:href="#rim" fill="#404040">
                        <set attributeName="fill" to="#808080" begin="arrowDown.mouseover" end="arrowDown.mouseout"/>
                  </use>
                  <path fill="none" stroke="white" stroke-width="1.5" d="M0,-3.0v7 M-2.5,-0.5L0,-3.0L2.5,-0.5"/>
                </g>
                <g id="arrowLeft" xlink:href="#dirArrow" transform="rotate(270) translate(-36 17)" onmousedown="handlePan(-1,0)">
                  <use xlink:href="#rim" fill="#404040">
                        <set attributeName="fill" to="#808080" begin="arrowLeft.mouseover" end="arrowLeft.mouseout"/>
                  </use>
                  <path fill="none" stroke="white" stroke-width="1.5" d="M0,-3.0v7 M-2.5,-0.5L0,-3.0L2.5,-0.5"/>
                </g>
        </g>
        <svg viewBox="0 0 15 15" width="100%" height="30px" preserveAspectRatio="xMaxYMin meet">
         <g id="arrow_out" transform="scale(0.3 0.3)">
          <a xlink:href="classtomoBay_1_1model_1_1services_1_1reScanBuyerService_1_1OnRunning_ae4a4f4cadce2787c7e80005639fbd5d9_cgraph_org.svg" target="_base">
           <rect id="button" ry="5" rx="5" y="6" x="6" height="38" width="38"
                fill="#f2f5e9" fill-opacity="0.5" stroke="#606060" stroke-width="1.0"/>
           <path id="arrow"
             d="M 11.500037,31.436501 C 11.940474,20.09759 22.043105,11.32322 32.158766,21.979434 L 37.068811,17.246167 C 37.068811,17.246167 37.088388,32 37.088388,32 L 22.160133,31.978069 C 22.160133,31.978069 26.997745,27.140456 26.997745,27.140456 C 18.528582,18.264221 13.291696,25.230495 11.500037,31.436501 z"
             style="fill:#404040;"/>
          </a>
         </g>
        </svg>
</svg>
