<?xml version="1.0" encoding="UTF-8" standalone="no"?>
<!DOCTYPE svg PUBLIC "-//W3C//DTD SVG 1.1//EN"
 "http://www.w3.org/Graphics/SVG/1.1/DTD/svg11.dtd">
<!-- Generated by graphviz version 2.38.0 (20140413.2041)
 -->
<!-- Title: execute Pages: 1 -->
<svg width="283pt" height="230pt"
 viewBox="0.00 0.00 283.00 230.00" xmlns="http://www.w3.org/2000/svg" xmlns:xlink="http://www.w3.org/1999/xlink">
<g id="graph0" class="graph" transform="scale(1 1) rotate(0) translate(4 226)">
<title>execute</title>
<polygon fill="white" stroke="none" points="-4,4 -4,-226 279,-226 279,4 -4,4"/>
<!-- Node1 -->
<g id="node1" class="node"><title>Node1</title>
<polygon fill="#bfbfbf" stroke="black" points="0,-101.5 0,-120.5 51,-120.5 51,-101.5 0,-101.5"/>
<text text-anchor="middle" x="25.5" y="-108.5" font-family="Helvetica,sans-Serif" font-size="10.00">execute</text>
</g>
<!-- Node2 -->
<g id="node2" class="node"><title>Node2</title>
<g id="a_node2"><a xlink:href="classtomoBayTests_1_1presenters_1_1presenterActions_1_1concreteActions_1_1StockReOrderAnalysisTest.html#a07b7831bd5f69df06f9ff2cce3661376" target="_top" xlink:title="tomoBayTests.presenters.presenter\lActions.concreteActions.StockReOrder\lAnalysisTest.testExecuteBadData1">
<polygon fill="white" stroke="black" points="87,-180.5 87,-221.5 275,-221.5 275,-180.5 87,-180.5"/>
<text text-anchor="start" x="95" y="-209.5" font-family="Helvetica,sans-Serif" font-size="10.00">tomoBayTests.presenters.presenter</text>
<text text-anchor="start" x="95" y="-198.5" font-family="Helvetica,sans-Serif" font-size="10.00">Actions.concreteActions.StockReOrder</text>
<text text-anchor="middle" x="181" y="-187.5" font-family="Helvetica,sans-Serif" font-size="10.00">AnalysisTest.testExecuteBadData1</text>
</a>
</g>
</g>
<!-- Node1&#45;&gt;Node2 -->
<g id="edge1" class="edge"><title>Node1&#45;&gt;Node2</title>
<path fill="none" stroke="midnightblue" d="M40.1881,-128.491C51.4626,-141.833 68.5477,-159.772 87,-171 92.6522,-174.439 98.7407,-177.527 105.001,-180.29"/>
<polygon fill="midnightblue" stroke="midnightblue" points="42.6998,-126.033 33.6622,-120.504 37.2792,-130.462 42.6998,-126.033"/>
</g>
<!-- Node3 -->
<g id="node3" class="node"><title>Node3</title>
<g id="a_node3"><a xlink:href="classtomoBayTests_1_1presenters_1_1presenterActions_1_1concreteActions_1_1StockReOrderAnalysisTest.html#a9fe5a553cc6d9ead3154faa3121e5bb9" target="_top" xlink:title="tomoBayTests.presenters.presenter\lActions.concreteActions.StockReOrder\lAnalysisTest.testExecuteBadData2">
<polygon fill="white" stroke="black" points="87,-120.5 87,-161.5 275,-161.5 275,-120.5 87,-120.5"/>
<text text-anchor="start" x="95" y="-149.5" font-family="Helvetica,sans-Serif" font-size="10.00">tomoBayTests.presenters.presenter</text>
<text text-anchor="start" x="95" y="-138.5" font-family="Helvetica,sans-Serif" font-size="10.00">Actions.concreteActions.StockReOrder</text>
<text text-anchor="middle" x="181" y="-127.5" font-family="Helvetica,sans-Serif" font-size="10.00">AnalysisTest.testExecuteBadData2</text>
</a>
</g>
</g>
<!-- Node1&#45;&gt;Node3 -->
<g id="edge2" class="edge"><title>Node1&#45;&gt;Node3</title>
<path fill="none" stroke="midnightblue" d="M61.0552,-117.753C68.9992,-119.306 77.8183,-121.03 86.9607,-122.816"/>
<polygon fill="midnightblue" stroke="midnightblue" points="61.6481,-114.303 51.1624,-115.82 60.3054,-121.173 61.6481,-114.303"/>
</g>
<!-- Node4 -->
<g id="node4" class="node"><title>Node4</title>
<g id="a_node4"><a xlink:href="classtomoBayTests_1_1presenters_1_1presenterActions_1_1concreteActions_1_1StockReOrderAnalysisTest.html#a523accba573f6d4c7f68fb358a0563cb" target="_top" xlink:title="tomoBayTests.presenters.presenter\lActions.concreteActions.StockReOrder\lAnalysisTest.testExecuteBadData3">
<polygon fill="white" stroke="black" points="87,-60.5 87,-101.5 275,-101.5 275,-60.5 87,-60.5"/>
<text text-anchor="start" x="95" y="-89.5" font-family="Helvetica,sans-Serif" font-size="10.00">tomoBayTests.presenters.presenter</text>
<text text-anchor="start" x="95" y="-78.5" font-family="Helvetica,sans-Serif" font-size="10.00">Actions.concreteActions.StockReOrder</text>
<text text-anchor="middle" x="181" y="-67.5" font-family="Helvetica,sans-Serif" font-size="10.00">AnalysisTest.testExecuteBadData3</text>
</a>
</g>
</g>
<!-- Node1&#45;&gt;Node4 -->
<g id="edge3" class="edge"><title>Node1&#45;&gt;Node4</title>
<path fill="none" stroke="midnightblue" d="M61.0552,-104.247C68.9992,-102.694 77.8183,-100.97 86.9607,-99.1836"/>
<polygon fill="midnightblue" stroke="midnightblue" points="60.3054,-100.827 51.1624,-106.18 61.6481,-107.697 60.3054,-100.827"/>
</g>
<!-- Node5 -->
<g id="node5" class="node"><title>Node5</title>
<g id="a_node5"><a xlink:href="classtomoBayTests_1_1presenters_1_1presenterActions_1_1concreteActions_1_1StockReOrderAnalysisTest.html#a7dc81a7ba138b011b60a6eae74362a03" target="_top" xlink:title="tomoBayTests.presenters.presenter\lActions.concreteActions.StockReOrder\lAnalysisTest.testExecuteGoodData">
<polygon fill="white" stroke="black" points="87,-0.5 87,-41.5 275,-41.5 275,-0.5 87,-0.5"/>
<text text-anchor="start" x="95" y="-29.5" font-family="Helvetica,sans-Serif" font-size="10.00">tomoBayTests.presenters.presenter</text>
<text text-anchor="start" x="95" y="-18.5" font-family="Helvetica,sans-Serif" font-size="10.00">Actions.concreteActions.StockReOrder</text>
<text text-anchor="middle" x="181" y="-7.5" font-family="Helvetica,sans-Serif" font-size="10.00">AnalysisTest.testExecuteGoodData</text>
</a>
</g>
</g>
<!-- Node1&#45;&gt;Node5 -->
<g id="edge4" class="edge"><title>Node1&#45;&gt;Node5</title>
<path fill="none" stroke="midnightblue" d="M40.1881,-93.5093C51.4626,-80.1674 68.5477,-62.2282 87,-51 92.6522,-47.5606 98.7407,-44.4729 105.001,-41.7096"/>
<polygon fill="midnightblue" stroke="midnightblue" points="37.2792,-91.5378 33.6622,-101.496 42.6998,-95.9669 37.2792,-91.5378"/>
</g>
</g>
</svg>
