<?xml version="1.0" encoding="UTF-8" standalone="no"?>
<!DOCTYPE svg PUBLIC "-//W3C//DTD SVG 1.1//EN"
 "http://www.w3.org/Graphics/SVG/1.1/DTD/svg11.dtd">
<!-- Generated by graphviz version 2.38.0 (20140413.2041)
 -->
<!-- Title: convertToInt Pages: 1 -->
<!--zoomable 344 -->
<svg id="main" version="1.1" xmlns="http://www.w3.org/2000/svg" xmlns:xlink="http://www.w3.org/1999/xlink" xml:space="preserve" onload="init(evt)">
<style type="text/css"><![CDATA[
.edge:hover path { stroke: red; }
.edge:hover polygon { stroke: red; fill: red; }
]]></style>
<script type="text/javascript"><![CDATA[
var edges = document.getElementsByTagName('g');
if (edges && edges.length) {
  for (var i=0;i<edges.length;i++) {
    if (edges[i].id.substr(0,4)=='edge') {
      edges[i].setAttribute('class','edge');
    }
  }
}
]]></script>
        <defs>
                <circle id="rim" cx="0" cy="0" r="7"/>
                <circle id="rim2" cx="0" cy="0" r="3.5"/>
                <g id="zoomPlus">
                        <use xlink:href="#rim" fill="#404040">
                                <set attributeName="fill" to="#808080" begin="zoomplus.mouseover" end="zoomplus.mouseout"/>
                        </use>
                        <path d="M-4,0h8M0,-4v8" fill="none" stroke="white" stroke-width="1.5" pointer-events="none"/>
                </g>
                <g id="zoomMin">
                        <use xlink:href="#rim" fill="#404040">
                                <set attributeName="fill" to="#808080" begin="zoomminus.mouseover" end="zoomminus.mouseout"/>
                        </use>
                        <path d="M-4,0h8" fill="none" stroke="white" stroke-width="1.5" pointer-events="none"/>
                </g>
                <g id="dirArrow">
                        <path fill="none" stroke="white" stroke-width="1.5" d="M0,-3.0v7 M-2.5,-0.5L0,-3.0L2.5,-0.5"/>
                </g>
               <g id="resetDef">
                       <use xlink:href="#rim2" fill="#404040">
                               <set attributeName="fill" to="#808080" begin="reset.mouseover" end="reset.mouseout"/>
                       </use>
               </g>
        </defs>

<script type="text/javascript">
var viewWidth = 823;
var viewHeight = 344;
var sectionId = 'dynsection-1';
</script>
<script xlink:href="svgpan.js"/>
<svg id="graph" class="graph">
<g id="viewport">
<title>convertToInt</title>
<polygon fill="white" stroke="none" points="-4,4 -4,-339.5 819,-339.5 819,4 -4,4"/>
<!-- Node1 -->
<g id="node1" class="node"><title>Node1</title>
<polygon fill="#bfbfbf" stroke="black" points="0,-163.5 0,-182.5 71,-182.5 71,-163.5 0,-163.5"/>
<text text-anchor="middle" x="35.5" y="-170.5" font-family="Helvetica,sans-Serif" font-size="10.00">convertToInt</text>
</g>
<!-- Node2 -->
<g id="node2" class="node"><title>Node2</title>
<g id="a_node2"><a xlink:href="classtomoBay_1_1presenters_1_1helpers_1_1pickeability_1_1ItemStockLevel.html#a22844faa947573bb01d9313f7bdb1e56" target="_top" xlink:title="Takes the list of items generated in this.assembleItemsList and checks a PartList associated with eac...">
<polygon fill="white" stroke="black" points="132,-305 132,-335 330,-335 330,-305 132,-305"/>
<text text-anchor="start" x="140" y="-323" font-family="Helvetica,sans-Serif" font-size="10.00">tomoBay.presenters.helpers.pickeability.</text>
<text text-anchor="middle" x="231" y="-312" font-family="Helvetica,sans-Serif" font-size="10.00">ItemStockLevel.checkStockLevelOfItems</text>
</a>
</g>
</g>
<!-- Node1&#45;&gt;Node2 -->
<g id="edge1" class="edge"><title>Node1&#45;&gt;Node2</title>
<path fill="none" stroke="midnightblue" d="M41.914,-192.221C50.7387,-219.821 70.9626,-270.19 107,-296 114.517,-301.384 122.929,-305.642 131.73,-308.999"/>
<polygon fill="midnightblue" stroke="midnightblue" points="45.2332,-191.106 38.9919,-182.544 38.5321,-193.129 45.2332,-191.106"/>
</g>
<!-- Node5 -->
<g id="node5" class="node"><title>Node5</title>
<g id="a_node5"><a xlink:href="classtomoBay_1_1presenters_1_1presenterActions_1_1concreteActions_1_1PrintInvoices.html#adb3dedf31dc2c7fc796f20406c235ccd" target="_top" xlink:title="performs the action specified ">
<polygon fill="white" stroke="black" points="120.5,-256 120.5,-286 341.5,-286 341.5,-256 120.5,-256"/>
<text text-anchor="start" x="128.5" y="-274" font-family="Helvetica,sans-Serif" font-size="10.00">tomoBay.presenters.presenter</text>
<text text-anchor="middle" x="231" y="-263" font-family="Helvetica,sans-Serif" font-size="10.00">Actions.concreteActions.PrintInvoices.execute</text>
</a>
</g>
</g>
<!-- Node1&#45;&gt;Node5 -->
<g id="edge4" class="edge"><title>Node1&#45;&gt;Node5</title>
<path fill="none" stroke="midnightblue" d="M48.8266,-191.38C61.3781,-208.569 82.4458,-233.549 107,-247 113.297,-250.449 120.014,-253.408 126.939,-255.946"/>
<polygon fill="midnightblue" stroke="midnightblue" points="51.3769,-188.922 42.7616,-182.755 45.6509,-192.949 51.3769,-188.922"/>
</g>
<!-- Node6 -->
<g id="node6" class="node"><title>Node6</title>
<g id="a_node6"><a xlink:href="classtomoBay_1_1model_1_1services_1_1checkErrorsService_1_1OnRunning.html#ae4a4f4cadce2787c7e80005639fbd5d9" target="_top" xlink:title="this method defines what to do in the given derived state ">
<polygon fill="white" stroke="black" points="148.5,-207 148.5,-237 313.5,-237 313.5,-207 148.5,-207"/>
<text text-anchor="start" x="156.5" y="-225" font-family="Helvetica,sans-Serif" font-size="10.00">tomoBay.model.services.check</text>
<text text-anchor="middle" x="231" y="-214" font-family="Helvetica,sans-Serif" font-size="10.00">ErrorsService.OnRunning.execute</text>
</a>
</g>
</g>
<!-- Node1&#45;&gt;Node6 -->
<g id="edge5" class="edge"><title>Node1&#45;&gt;Node6</title>
<path fill="none" stroke="midnightblue" d="M70.3573,-186.151C81.8704,-190.315 94.8888,-194.691 107,-198 120.222,-201.613 134.386,-204.901 148.226,-207.806"/>
<polygon fill="midnightblue" stroke="midnightblue" points="71.2812,-182.761 60.6879,-182.578 68.8549,-189.327 71.2812,-182.761"/>
</g>
<!-- Node8 -->
<g id="node8" class="node"><title>Node8</title>
<g id="a_node8"><a xlink:href="classtomoBay_1_1model_1_1dataTypes_1_1financial_1_1SalesOrderDayBook_1_1formats_1_1WinstockFormat.html#accefd62bc10c59d9ba78937d90a5fa8c" target="_top" xlink:title="tomoBay.model.dataTypes.financial.\lSalesOrderDayBook.formats.WinstockFormat.format">
<polygon fill="white" stroke="black" points="107,-158 107,-188 355,-188 355,-158 107,-158"/>
<text text-anchor="start" x="115" y="-176" font-family="Helvetica,sans-Serif" font-size="10.00">tomoBay.model.dataTypes.financial.</text>
<text text-anchor="middle" x="231" y="-165" font-family="Helvetica,sans-Serif" font-size="10.00">SalesOrderDayBook.formats.WinstockFormat.format</text>
</a>
</g>
</g>
<!-- Node1&#45;&gt;Node8 -->
<g id="edge7" class="edge"><title>Node1&#45;&gt;Node8</title>
<path fill="none" stroke="midnightblue" d="M81.179,-173C89.1682,-173 97.8322,-173 106.826,-173"/>
<polygon fill="midnightblue" stroke="midnightblue" points="81.094,-169.5 71.0939,-173 81.0939,-176.5 81.094,-169.5"/>
</g>
<!-- Node9 -->
<g id="node9" class="node"><title>Node9</title>
<g id="a_node9"><a xlink:href="classtomoBay_1_1model_1_1dataTypes_1_1order_1_1Part.html#aee50f745ad12c48b5f2dc8eda4fdd6ec" target="_top" xlink:title="retrieve the cost of this particular part from winstock ">
<polygon fill="white" stroke="black" points="150.5,-109 150.5,-139 311.5,-139 311.5,-109 150.5,-109"/>
<text text-anchor="start" x="158.5" y="-127" font-family="Helvetica,sans-Serif" font-size="10.00">tomoBay.model.dataTypes.order.</text>
<text text-anchor="middle" x="231" y="-116" font-family="Helvetica,sans-Serif" font-size="10.00">Part.getCost</text>
</a>
</g>
</g>
<!-- Node1&#45;&gt;Node9 -->
<g id="edge8" class="edge"><title>Node1&#45;&gt;Node9</title>
<path fill="none" stroke="midnightblue" d="M71.52,-160.094C82.7582,-156.218 95.3202,-152.161 107,-149 120.882,-145.243 135.782,-141.761 150.252,-138.663"/>
<polygon fill="midnightblue" stroke="midnightblue" points="70.3137,-156.808 62.0402,-163.426 72.635,-163.412 70.3137,-156.808"/>
</g>
<!-- Node11 -->
<g id="node11" class="node"><title>Node11</title>
<g id="a_node11"><a xlink:href="classtomoBay_1_1model_1_1dataTypes_1_1order_1_1Part.html#a35fa0786da9722faf378ccf27cccbea6" target="_top" xlink:title="find the description of this part, using winstock ">
<polygon fill="white" stroke="black" points="150.5,-60 150.5,-90 311.5,-90 311.5,-60 150.5,-60"/>
<text text-anchor="start" x="158.5" y="-78" font-family="Helvetica,sans-Serif" font-size="10.00">tomoBay.model.dataTypes.order.</text>
<text text-anchor="middle" x="231" y="-67" font-family="Helvetica,sans-Serif" font-size="10.00">Part.getDescription</text>
</a>
</g>
</g>
<!-- Node1&#45;&gt;Node11 -->
<g id="edge10" class="edge"><title>Node1&#45;&gt;Node11</title>
<path fill="none" stroke="midnightblue" d="M48.9062,-154.912C61.5164,-137.988 82.626,-113.368 107,-100 120.278,-92.7171 135.413,-87.546 150.416,-83.8768"/>
<polygon fill="midnightblue" stroke="midnightblue" points="45.7992,-153.238 42.8082,-163.402 51.4847,-157.322 45.7992,-153.238"/>
</g>
<!-- Node12 -->
<g id="node12" class="node"><title>Node12</title>
<g id="a_node12"><a xlink:href="classtomoBay_1_1model_1_1services_1_1reScanErrorsService_1_1ReScanErrorsWinstockActions.html#a08319255a892c8a0f21883af69843d6c" target="_top" xlink:title="this method checks to see if a particular item (through the ItemSpecifics passed in as an argument) h...">
<polygon fill="white" stroke="black" points="149.5,-0.5 149.5,-41.5 312.5,-41.5 312.5,-0.5 149.5,-0.5"/>
<text text-anchor="start" x="157.5" y="-29.5" font-family="Helvetica,sans-Serif" font-size="10.00">tomoBay.model.services.re</text>
<text text-anchor="start" x="157.5" y="-18.5" font-family="Helvetica,sans-Serif" font-size="10.00">ScanErrorsService.ReScanErrors</text>
<text text-anchor="middle" x="231" y="-7.5" font-family="Helvetica,sans-Serif" font-size="10.00">WinstockActions.partNoHasError</text>
</a>
</g>
</g>
<!-- Node1&#45;&gt;Node12 -->
<g id="edge12" class="edge"><title>Node1&#45;&gt;Node12</title>
<path fill="none" stroke="midnightblue" d="M42.2541,-153.75C51.4031,-126.557 71.9155,-77.287 107,-51 119.401,-41.7084 134.3,-35.2592 149.381,-30.7916"/>
<polygon fill="midnightblue" stroke="midnightblue" points="38.9103,-152.716 39.2039,-163.307 45.5789,-154.844 38.9103,-152.716"/>
</g>
<!-- Node3 -->
<g id="node3" class="node"><title>Node3</title>
<g id="a_node3"><a xlink:href="classtomoBay_1_1presenters_1_1helpers_1_1pickeability_1_1ItemStockLevel.html#a1aed814db05c4991e9bc719f39ea62ce" target="_top" xlink:title="tomoBay.presenters.helpers.pickeability.\lItemStockLevel.check">
<polygon fill="white" stroke="black" points="391,-305 391,-335 585,-335 585,-305 391,-305"/>
<text text-anchor="start" x="399" y="-323" font-family="Helvetica,sans-Serif" font-size="10.00">tomoBay.presenters.helpers.pickeability.</text>
<text text-anchor="middle" x="488" y="-312" font-family="Helvetica,sans-Serif" font-size="10.00">ItemStockLevel.check</text>
</a>
</g>
</g>
<!-- Node2&#45;&gt;Node3 -->
<g id="edge2" class="edge"><title>Node2&#45;&gt;Node3</title>
<path fill="none" stroke="midnightblue" d="M340.576,-320C357.311,-320 374.49,-320 390.926,-320"/>
<polygon fill="midnightblue" stroke="midnightblue" points="340.225,-316.5 330.225,-320 340.225,-323.5 340.225,-316.5"/>
</g>
<!-- Node4 -->
<g id="node4" class="node"><title>Node4</title>
<g id="a_node4"><a xlink:href="classtomoBay_1_1presenters_1_1helpers_1_1pickeability_1_1Pickeablity.html#ae05e03af15e33d53f9e0511ec0295a04" target="_top" xlink:title="default ctor ">
<polygon fill="white" stroke="black" points="621,-305 621,-335 815,-335 815,-305 621,-305"/>
<text text-anchor="start" x="629" y="-323" font-family="Helvetica,sans-Serif" font-size="10.00">tomoBay.presenters.helpers.pickeability.</text>
<text text-anchor="middle" x="718" y="-312" font-family="Helvetica,sans-Serif" font-size="10.00">Pickeablity.Pickeablity</text>
</a>
</g>
</g>
<!-- Node3&#45;&gt;Node4 -->
<g id="edge3" class="edge"><title>Node3&#45;&gt;Node4</title>
<path fill="none" stroke="midnightblue" d="M595.043,-320C603.605,-320 612.227,-320 620.714,-320"/>
<polygon fill="midnightblue" stroke="midnightblue" points="595.032,-316.5 585.032,-320 595.032,-323.5 595.032,-316.5"/>
</g>
<!-- Node7 -->
<g id="node7" class="node"><title>Node7</title>
<g id="a_node7"><a xlink:href="classtomoBay_1_1model_1_1services_1_1checkErrorsService_1_1CheckErrorsService.html#ae3b0a282dcba7f2d675ca89b1dd48487" target="_top" xlink:title="tomoBay.model.services.check\lErrorsService.CheckErrorsService.on\lRunning">
<polygon fill="white" stroke="black" points="398,-201.5 398,-242.5 578,-242.5 578,-201.5 398,-201.5"/>
<text text-anchor="start" x="406" y="-230.5" font-family="Helvetica,sans-Serif" font-size="10.00">tomoBay.model.services.check</text>
<text text-anchor="start" x="406" y="-219.5" font-family="Helvetica,sans-Serif" font-size="10.00">ErrorsService.CheckErrorsService.on</text>
<text text-anchor="middle" x="488" y="-208.5" font-family="Helvetica,sans-Serif" font-size="10.00">Running</text>
</a>
</g>
</g>
<!-- Node6&#45;&gt;Node7 -->
<g id="edge6" class="edge"><title>Node6&#45;&gt;Node7</title>
<path fill="none" stroke="midnightblue" d="M323.922,-222C347.979,-222 373.872,-222 397.785,-222"/>
<polygon fill="midnightblue" stroke="midnightblue" points="323.736,-218.5 313.736,-222 323.736,-225.5 323.736,-218.5"/>
</g>
<!-- Node10 -->
<g id="node10" class="node"><title>Node10</title>
<g id="a_node10"><a xlink:href="classtomoBay_1_1model_1_1dataTypes_1_1order_1_1Part.html#a21a16cfaa442e4ae57f10d8cc440c1fa" target="_top" xlink:title="default ctor ">
<polygon fill="white" stroke="black" points="407.5,-84 407.5,-114 568.5,-114 568.5,-84 407.5,-84"/>
<text text-anchor="start" x="415.5" y="-102" font-family="Helvetica,sans-Serif" font-size="10.00">tomoBay.model.dataTypes.order.</text>
<text text-anchor="middle" x="488" y="-91" font-family="Helvetica,sans-Serif" font-size="10.00">Part.Part</text>
</a>
</g>
</g>
<!-- Node9&#45;&gt;Node10 -->
<g id="edge9" class="edge"><title>Node9&#45;&gt;Node10</title>
<path fill="none" stroke="midnightblue" d="M321.75,-115.201C349.558,-112.475 379.999,-109.49 407.092,-106.834"/>
<polygon fill="midnightblue" stroke="midnightblue" points="321.245,-111.734 311.635,-116.193 321.928,-118.7 321.245,-111.734"/>
</g>
<!-- Node11&#45;&gt;Node10 -->
<g id="edge11" class="edge"><title>Node11&#45;&gt;Node10</title>
<path fill="none" stroke="midnightblue" d="M321.75,-83.447C349.558,-86.0642 379.999,-88.9293 407.092,-91.4793"/>
<polygon fill="midnightblue" stroke="midnightblue" points="321.919,-79.9476 311.635,-82.495 321.263,-86.9168 321.919,-79.9476"/>
</g>
<!-- Node13 -->
<g id="node13" class="node"><title>Node13</title>
<g id="a_node13"><a xlink:href="classtomoBay_1_1model_1_1services_1_1reScanErrorsService_1_1OnRunning.html#ae4a4f4cadce2787c7e80005639fbd5d9" target="_top" xlink:title="this method defines what to do in the given derived state ">
<polygon fill="white" stroke="black" points="394,-6 394,-36 582,-36 582,-6 394,-6"/>
<text text-anchor="start" x="402" y="-24" font-family="Helvetica,sans-Serif" font-size="10.00">tomoBay.model.services.re</text>
<text text-anchor="middle" x="488" y="-13" font-family="Helvetica,sans-Serif" font-size="10.00">ScanErrorsService.OnRunning.execute</text>
</a>
</g>
</g>
<!-- Node12&#45;&gt;Node13 -->
<g id="edge13" class="edge"><title>Node12&#45;&gt;Node13</title>
<path fill="none" stroke="midnightblue" d="M322.809,-21C345.9,-21 370.746,-21 393.947,-21"/>
<polygon fill="midnightblue" stroke="midnightblue" points="322.684,-17.5001 312.684,-21 322.684,-24.5001 322.684,-17.5001"/>
</g>
<!-- Node14 -->
<g id="node14" class="node"><title>Node14</title>
<g id="a_node14"><a xlink:href="classtomoBay_1_1model_1_1services_1_1reScanErrorsService_1_1ReScanErrorsService.html#ae3b0a282dcba7f2d675ca89b1dd48487" target="_top" xlink:title="tomoBay.model.services.re\lScanErrorsService.ReScanErrors\lService.onRunning">
<polygon fill="white" stroke="black" points="636.5,-0.5 636.5,-41.5 799.5,-41.5 799.5,-0.5 636.5,-0.5"/>
<text text-anchor="start" x="644.5" y="-29.5" font-family="Helvetica,sans-Serif" font-size="10.00">tomoBay.model.services.re</text>
<text text-anchor="start" x="644.5" y="-18.5" font-family="Helvetica,sans-Serif" font-size="10.00">ScanErrorsService.ReScanErrors</text>
<text text-anchor="middle" x="718" y="-7.5" font-family="Helvetica,sans-Serif" font-size="10.00">Service.onRunning</text>
</a>
</g>
</g>
<!-- Node13&#45;&gt;Node14 -->
<g id="edge14" class="edge"><title>Node13&#45;&gt;Node14</title>
<path fill="none" stroke="midnightblue" d="M592.241,-21C607.013,-21 622.029,-21 636.284,-21"/>
<polygon fill="midnightblue" stroke="midnightblue" points="592.065,-17.5001 582.065,-21 592.065,-24.5001 592.065,-17.5001"/>
</g>
</g>
</svg>
        <g id="navigator" transform="translate(0 0)" fill="#404254">
                <rect fill="#f2f5e9" fill-opacity="0.5" stroke="#606060" stroke-width=".5" x="0" y="0" width="60" height="60"/>
                <use id="zoomplus" xlink:href="#zoomPlus" x="17" y="9" onmousedown="handleZoom(evt,'in')"/>
                <use id="zoomminus" xlink:href="#zoomMin" x="42" y="9" onmousedown="handleZoom(evt,'out')"/>
                <use id="reset" xlink:href="#resetDef" x="30" y="36" onmousedown="handleReset()"/>
                <g id="arrowUp" xlink:href="#dirArrow" transform="translate(30 24)" onmousedown="handlePan(0,-1)">
                  <use xlink:href="#rim" fill="#404040">
                        <set attributeName="fill" to="#808080" begin="arrowUp.mouseover" end="arrowUp.mouseout"/>
                  </use>
                  <path fill="none" stroke="white" stroke-width="1.5" d="M0,-3.0v7 M-2.5,-0.5L0,-3.0L2.5,-0.5"/>
                </g>
                <g id="arrowRight" xlink:href="#dirArrow" transform="rotate(90) translate(36 -43)" onmousedown="handlePan(1,0)">
                  <use xlink:href="#rim" fill="#404040">
                        <set attributeName="fill" to="#808080" begin="arrowRight.mouseover" end="arrowRight.mouseout"/>
                  </use>
                  <path fill="none" stroke="white" stroke-width="1.5" d="M0,-3.0v7 M-2.5,-0.5L0,-3.0L2.5,-0.5"/>
                </g>
                <g id="arrowDown" xlink:href="#dirArrow" transform="rotate(180) translate(-30 -48)" onmousedown="handlePan(0,1)">
                  <use xlink:href="#rim" fill="#404040">
                        <set attributeName="fill" to="#808080" begin="arrowDown.mouseover" end="arrowDown.mouseout"/>
                  </use>
                  <path fill="none" stroke="white" stroke-width="1.5" d="M0,-3.0v7 M-2.5,-0.5L0,-3.0L2.5,-0.5"/>
                </g>
                <g id="arrowLeft" xlink:href="#dirArrow" transform="rotate(270) translate(-36 17)" onmousedown="handlePan(-1,0)">
                  <use xlink:href="#rim" fill="#404040">
                        <set attributeName="fill" to="#808080" begin="arrowLeft.mouseover" end="arrowLeft.mouseout"/>
                  </use>
                  <path fill="none" stroke="white" stroke-width="1.5" d="M0,-3.0v7 M-2.5,-0.5L0,-3.0L2.5,-0.5"/>
                </g>
        </g>
        <svg viewBox="0 0 15 15" width="100%" height="30px" preserveAspectRatio="xMaxYMin meet">
         <g id="arrow_out" transform="scale(0.3 0.3)">
          <a xlink:href="classtomoBay_1_1helpers_1_1BrandToCode_ab3e03f7919360bb577b970dfd18b66ff_icgraph_org.svg" target="_base">
           <rect id="button" ry="5" rx="5" y="6" x="6" height="38" width="38"
                fill="#f2f5e9" fill-opacity="0.5" stroke="#606060" stroke-width="1.0"/>
           <path id="arrow"
             d="M 11.500037,31.436501 C 11.940474,20.09759 22.043105,11.32322 32.158766,21.979434 L 37.068811,17.246167 C 37.068811,17.246167 37.088388,32 37.088388,32 L 22.160133,31.978069 C 22.160133,31.978069 26.997745,27.140456 26.997745,27.140456 C 18.528582,18.264221 13.291696,25.230495 11.500037,31.436501 z"
             style="fill:#404040;"/>
          </a>
         </g>
        </svg>
</svg>
