<?xml version="1.0" encoding="UTF-8" standalone="no"?>
<!DOCTYPE svg PUBLIC "-//W3C//DTD SVG 1.1//EN"
 "http://www.w3.org/Graphics/SVG/1.1/DTD/svg11.dtd">
<!-- Generated by graphviz version 2.38.0 (20140413.2041)
 -->
<!-- Title: setFLOATParam Pages: 1 -->
<!--zoomable 1112 -->
<svg id="main" version="1.1" xmlns="http://www.w3.org/2000/svg" xmlns:xlink="http://www.w3.org/1999/xlink" xml:space="preserve" onload="init(evt)">
<style type="text/css"><![CDATA[
.edge:hover path { stroke: red; }
.edge:hover polygon { stroke: red; fill: red; }
]]></style>
<script type="text/javascript"><![CDATA[
var edges = document.getElementsByTagName('g');
if (edges && edges.length) {
  for (var i=0;i<edges.length;i++) {
    if (edges[i].id.substr(0,4)=='edge') {
      edges[i].setAttribute('class','edge');
    }
  }
}
]]></script>
        <defs>
                <circle id="rim" cx="0" cy="0" r="7"/>
                <circle id="rim2" cx="0" cy="0" r="3.5"/>
                <g id="zoomPlus">
                        <use xlink:href="#rim" fill="#404040">
                                <set attributeName="fill" to="#808080" begin="zoomplus.mouseover" end="zoomplus.mouseout"/>
                        </use>
                        <path d="M-4,0h8M0,-4v8" fill="none" stroke="white" stroke-width="1.5" pointer-events="none"/>
                </g>
                <g id="zoomMin">
                        <use xlink:href="#rim" fill="#404040">
                                <set attributeName="fill" to="#808080" begin="zoomminus.mouseover" end="zoomminus.mouseout"/>
                        </use>
                        <path d="M-4,0h8" fill="none" stroke="white" stroke-width="1.5" pointer-events="none"/>
                </g>
                <g id="dirArrow">
                        <path fill="none" stroke="white" stroke-width="1.5" d="M0,-3.0v7 M-2.5,-0.5L0,-3.0L2.5,-0.5"/>
                </g>
               <g id="resetDef">
                       <use xlink:href="#rim2" fill="#404040">
                               <set attributeName="fill" to="#808080" begin="reset.mouseover" end="reset.mouseout"/>
                       </use>
               </g>
        </defs>

<script type="text/javascript">
var viewWidth = 1775;
var viewHeight = 1112;
var sectionId = 'dynsection-19';
</script>
<script xlink:href="svgpan.js"/>
<svg id="graph" class="graph">
<g id="viewport">
<title>setFLOATParam</title>
<polygon fill="white" stroke="none" points="-4,4 -4,-1108 1771,-1108 1771,4 -4,4"/>
<!-- Node1 -->
<g id="node1" class="node"><title>Node1</title>
<polygon fill="#bfbfbf" stroke="black" points="0,-952.5 0,-971.5 90,-971.5 90,-952.5 0,-952.5"/>
<text text-anchor="middle" x="45" y="-959.5" font-family="Helvetica,sans-Serif" font-size="10.00">setFLOATParam</text>
</g>
<!-- Node2 -->
<g id="node2" class="node"><title>Node2</title>
<g id="a_node2"><a xlink:href="classtomoBay_1_1model_1_1sql_1_1framework_1_1QueryUtility.html#a5677c2440b48e612fb51b57130555e5d" target="_top" xlink:title="set an Integer parameter for the query object specified. ">
<polygon fill="white" stroke="black" points="126,-952.5 126,-971.5 226,-971.5 226,-952.5 126,-952.5"/>
<text text-anchor="middle" x="176" y="-959.5" font-family="Helvetica,sans-Serif" font-size="10.00">setDOUBLEParam</text>
</a>
</g>
</g>
<!-- Node1&#45;&gt;Node2 -->
<g id="edge1" class="edge"><title>Node1&#45;&gt;Node2</title>
<path fill="none" stroke="midnightblue" d="M100.237,-962C108.735,-962 117.477,-962 125.853,-962"/>
<polygon fill="midnightblue" stroke="midnightblue" points="100.034,-958.5 90.0337,-962 100.034,-965.5 100.034,-958.5"/>
</g>
<!-- Node7 -->
<g id="node7" class="node"><title>Node7</title>
<g id="a_node7"><a xlink:href="classtomoBay_1_1model_1_1sql_1_1queries_1_1concreteQueries_1_1insert_1_1InsertEbayOrders.html#af9020b85517904668d036bc2bf89433c" target="_top" xlink:title="tomoBay.model.sql.queries.concrete\lQueries.insert.InsertEbayOrders.set\lParameters">
<polygon fill="white" stroke="black" points="1569.5,-11.5 1569.5,-52.5 1745.5,-52.5 1745.5,-11.5 1569.5,-11.5"/>
<text text-anchor="start" x="1577.5" y="-40.5" font-family="Helvetica,sans-Serif" font-size="10.00">tomoBay.model.sql.queries.concrete</text>
<text text-anchor="start" x="1577.5" y="-29.5" font-family="Helvetica,sans-Serif" font-size="10.00">Queries.insert.InsertEbayOrders.set</text>
<text text-anchor="middle" x="1657.5" y="-18.5" font-family="Helvetica,sans-Serif" font-size="10.00">Parameters</text>
</a>
</g>
</g>
<!-- Node1&#45;&gt;Node7 -->
<g id="edge45" class="edge"><title>Node1&#45;&gt;Node7</title>
<path fill="none" stroke="midnightblue" d="M46.8912,-942.216C53.5944,-804.962 101.537,-0 304,-0 304,-0 304,-0 1190.5,-0 1322.88,-0 1475.93,-13.013 1569.45,-22.4423"/>
<polygon fill="midnightblue" stroke="midnightblue" points="43.3823,-942.325 46.4074,-952.479 50.3745,-942.655 43.3823,-942.325"/>
</g>
<!-- Node17 -->
<g id="node17" class="node"><title>Node17</title>
<g id="a_node17"><a xlink:href="classtomoBay_1_1model_1_1sql_1_1queries_1_1concreteQueries_1_1insert_1_1InsertEbayTransactions.html#af9020b85517904668d036bc2bf89433c" target="_top" xlink:title="tomoBay.model.sql.queries.concrete\lQueries.insert.InsertEbayTransactions.set\lParameters">
<polygon fill="white" stroke="black" points="1557.5,-967.5 1557.5,-1008.5 1757.5,-1008.5 1757.5,-967.5 1557.5,-967.5"/>
<text text-anchor="start" x="1565.5" y="-996.5" font-family="Helvetica,sans-Serif" font-size="10.00">tomoBay.model.sql.queries.concrete</text>
<text text-anchor="start" x="1565.5" y="-985.5" font-family="Helvetica,sans-Serif" font-size="10.00">Queries.insert.InsertEbayTransactions.set</text>
<text text-anchor="middle" x="1657.5" y="-974.5" font-family="Helvetica,sans-Serif" font-size="10.00">Parameters</text>
</a>
</g>
</g>
<!-- Node1&#45;&gt;Node17 -->
<g id="edge46" class="edge"><title>Node1&#45;&gt;Node17</title>
<path fill="none" stroke="midnightblue" d="M62.538,-979.003C101.07,-1016.7 201.375,-1104 304,-1104 304,-1104 304,-1104 1190.5,-1104 1335.46,-1104 1372.86,-1089.68 1512,-1049 1547.81,-1038.53 1586.67,-1021.8 1615.07,-1008.5"/>
<polygon fill="midnightblue" stroke="midnightblue" points="64.8272,-976.343 55.2747,-971.76 59.8845,-981.3 64.8272,-976.343"/>
</g>
<!-- Node3 -->
<g id="node3" class="node"><title>Node3</title>
<g id="a_node3"><a xlink:href="classtomoBay_1_1model_1_1sql_1_1framework_1_1QueryUtility.html#a202aab30c77e06c32318efd5cf949ca3" target="_top" xlink:title="set an Integer parameter for the query object specified. ">
<polygon fill="white" stroke="black" points="262,-952.5 262,-971.5 348,-971.5 348,-952.5 262,-952.5"/>
<text text-anchor="middle" x="305" y="-959.5" font-family="Helvetica,sans-Serif" font-size="10.00">setDATEParam</text>
</a>
</g>
</g>
<!-- Node2&#45;&gt;Node3 -->
<g id="edge2" class="edge"><title>Node2&#45;&gt;Node3</title>
<path fill="none" stroke="midnightblue" d="M236.122,-962C244.732,-962 253.45,-962 261.639,-962"/>
<polygon fill="midnightblue" stroke="midnightblue" points="236.102,-958.5 226.102,-962 236.101,-965.5 236.102,-958.5"/>
</g>
<!-- Node4 -->
<g id="node4" class="node"><title>Node4</title>
<g id="a_node4"><a xlink:href="classtomoBay_1_1model_1_1sql_1_1queries_1_1concreteQueries_1_1insert_1_1InsertOutOfHoursOrders.html#af9020b85517904668d036bc2bf89433c" target="_top" xlink:title="tomoBay.model.sql.queries.concrete\lQueries.insert.InsertOutOfHoursOrders.set\lParameters">
<polygon fill="white" stroke="black" points="1556,-868.5 1556,-909.5 1759,-909.5 1759,-868.5 1556,-868.5"/>
<text text-anchor="start" x="1564" y="-897.5" font-family="Helvetica,sans-Serif" font-size="10.00">tomoBay.model.sql.queries.concrete</text>
<text text-anchor="start" x="1564" y="-886.5" font-family="Helvetica,sans-Serif" font-size="10.00">Queries.insert.InsertOutOfHoursOrders.set</text>
<text text-anchor="middle" x="1657.5" y="-875.5" font-family="Helvetica,sans-Serif" font-size="10.00">Parameters</text>
</a>
</g>
</g>
<!-- Node3&#45;&gt;Node4 -->
<g id="edge3" class="edge"><title>Node3&#45;&gt;Node4</title>
<path fill="none" stroke="midnightblue" d="M334.101,-976.012C393.696,-1004.39 537.82,-1066 666,-1066 666,-1066 666,-1066 1190.5,-1066 1336.19,-1066 1387.1,-1077 1512,-1002 1533.66,-988.992 1529.1,-974.77 1548,-958 1569.21,-939.184 1596.07,-922.055 1617.77,-909.571"/>
<polygon fill="midnightblue" stroke="midnightblue" points="335.478,-972.791 324.951,-971.598 332.437,-979.096 335.478,-972.791"/>
</g>
<!-- Node5 -->
<g id="node5" class="node"><title>Node5</title>
<g id="a_node5"><a xlink:href="classtomoBay_1_1model_1_1sql_1_1queries_1_1concreteQueries_1_1select_1_1params_1_1SelectOutOfHoursOrders.html#af9020b85517904668d036bc2bf89433c" target="_top" xlink:title="tomoBay.model.sql.queries.concrete\lQueries.select.params.SelectOutOfHours\lOrders.setParameters">
<polygon fill="white" stroke="black" points="384,-941.5 384,-982.5 582,-982.5 582,-941.5 384,-941.5"/>
<text text-anchor="start" x="392" y="-970.5" font-family="Helvetica,sans-Serif" font-size="10.00">tomoBay.model.sql.queries.concrete</text>
<text text-anchor="start" x="392" y="-959.5" font-family="Helvetica,sans-Serif" font-size="10.00">Queries.select.params.SelectOutOfHours</text>
<text text-anchor="middle" x="483" y="-948.5" font-family="Helvetica,sans-Serif" font-size="10.00">Orders.setParameters</text>
</a>
</g>
</g>
<!-- Node3&#45;&gt;Node5 -->
<g id="edge4" class="edge"><title>Node3&#45;&gt;Node5</title>
<path fill="none" stroke="midnightblue" d="M358.164,-962C366.294,-962 374.915,-962 383.675,-962"/>
<polygon fill="midnightblue" stroke="midnightblue" points="358.156,-958.5 348.156,-962 358.156,-965.5 358.156,-958.5"/>
</g>
<!-- Node6 -->
<g id="node6" class="node"><title>Node6</title>
<g id="a_node6"><a xlink:href="classtomoBay_1_1model_1_1sql_1_1framework_1_1QueryUtility.html#ab07d04299a96461dcf893416b8e32604" target="_top" xlink:title="set an Integer parameter for the query object specified. ">
<polygon fill="white" stroke="black" points="424.5,-867.5 424.5,-886.5 541.5,-886.5 541.5,-867.5 424.5,-867.5"/>
<text text-anchor="middle" x="483" y="-874.5" font-family="Helvetica,sans-Serif" font-size="10.00">setTIMESTAMPParam</text>
</a>
</g>
</g>
<!-- Node3&#45;&gt;Node6 -->
<g id="edge5" class="edge"><title>Node3&#45;&gt;Node6</title>
<path fill="none" stroke="midnightblue" d="M335.311,-947.844C371.28,-930.473 431.291,-901.49 462.225,-886.55"/>
<polygon fill="midnightblue" stroke="midnightblue" points="333.33,-944.914 325.847,-952.415 336.374,-951.217 333.33,-944.914"/>
</g>
<!-- Node6&#45;&gt;Node7 -->
<g id="edge6" class="edge"><title>Node6&#45;&gt;Node7</title>
<path fill="none" stroke="midnightblue" d="M486.862,-857.075C505.654,-729.987 616.277,-38 797,-38 797,-38 797,-38 1190.5,-38 1322.58,-38 1475.71,-35.5601 1569.33,-33.7921"/>
<polygon fill="midnightblue" stroke="midnightblue" points="483.352,-856.887 485.371,-867.287 490.279,-857.898 483.352,-856.887"/>
</g>
<!-- Node8 -->
<g id="node8" class="node"><title>Node8</title>
<g id="a_node8"><a xlink:href="classtomoBay_1_1model_1_1sql_1_1framework_1_1QueryUtility.html#a56a65ac583b8720ae73dc81278e5690e" target="_top" xlink:title="set an Integer parameter for the query object specified. ">
<polygon fill="white" stroke="black" points="618,-867.5 618,-886.5 716,-886.5 716,-867.5 618,-867.5"/>
<text text-anchor="middle" x="667" y="-874.5" font-family="Helvetica,sans-Serif" font-size="10.00">setTINYINTParam</text>
</a>
</g>
</g>
<!-- Node6&#45;&gt;Node8 -->
<g id="edge7" class="edge"><title>Node6&#45;&gt;Node8</title>
<path fill="none" stroke="midnightblue" d="M551.856,-877C573.824,-877 597.72,-877 617.944,-877"/>
<polygon fill="midnightblue" stroke="midnightblue" points="551.586,-873.5 541.586,-877 551.586,-880.5 551.586,-873.5"/>
</g>
<!-- Node9 -->
<g id="node9" class="node"><title>Node9</title>
<g id="a_node9"><a xlink:href="classtomoBay_1_1model_1_1sql_1_1framework_1_1QueryUtility.html#a138f0c046bc0a6df71b168ab35c3c3e3" target="_top" xlink:title="set an Integer parameter for the query object specified. ">
<polygon fill="white" stroke="black" points="752,-867.5 752,-886.5 844,-886.5 844,-867.5 752,-867.5"/>
<text text-anchor="middle" x="798" y="-874.5" font-family="Helvetica,sans-Serif" font-size="10.00">setBIGINTParam</text>
</a>
</g>
</g>
<!-- Node8&#45;&gt;Node9 -->
<g id="edge8" class="edge"><title>Node8&#45;&gt;Node9</title>
<path fill="none" stroke="midnightblue" d="M726.095,-877C734.757,-877 743.575,-877 751.916,-877"/>
<polygon fill="midnightblue" stroke="midnightblue" points="726.035,-873.5 716.035,-877 726.035,-880.5 726.035,-873.5"/>
</g>
<!-- Node10 -->
<g id="node10" class="node"><title>Node10</title>
<g id="a_node10"><a xlink:href="classtomoBay_1_1model_1_1sql_1_1framework_1_1QueryUtility.html#a50955d4f51a1a7a88ef0c8aadbe9c793" target="_top" xlink:title="set an Integer parameter for the query object specified. ">
<polygon fill="white" stroke="black" points="947,-612.5 947,-631.5 1032,-631.5 1032,-612.5 947,-612.5"/>
<text text-anchor="middle" x="989.5" y="-619.5" font-family="Helvetica,sans-Serif" font-size="10.00">setBYTEParam</text>
</a>
</g>
</g>
<!-- Node9&#45;&gt;Node10 -->
<g id="edge9" class="edge"><title>Node9&#45;&gt;Node10</title>
<path fill="none" stroke="midnightblue" d="M806.16,-857.782C818.319,-826.663 845.117,-764.178 880,-719 908.568,-682.001 952.508,-647.821 974.684,-631.707"/>
<polygon fill="midnightblue" stroke="midnightblue" points="802.784,-856.811 802.481,-867.401 809.322,-859.312 802.784,-856.811"/>
</g>
<!-- Node16 -->
<g id="node16" class="node"><title>Node16</title>
<g id="a_node16"><a xlink:href="classtomoBay_1_1model_1_1sql_1_1queries_1_1concreteQueries_1_1insert_1_1InsertEbayItems.html#af9020b85517904668d036bc2bf89433c" target="_top" xlink:title="tomoBay.model.sql.queries.concrete\lQueries.insert.InsertEbayItems.setParameters">
<polygon fill="white" stroke="black" points="1548,-741 1548,-771 1767,-771 1767,-741 1548,-741"/>
<text text-anchor="start" x="1556" y="-759" font-family="Helvetica,sans-Serif" font-size="10.00">tomoBay.model.sql.queries.concrete</text>
<text text-anchor="middle" x="1657.5" y="-748" font-family="Helvetica,sans-Serif" font-size="10.00">Queries.insert.InsertEbayItems.setParameters</text>
</a>
</g>
</g>
<!-- Node9&#45;&gt;Node16 -->
<g id="edge40" class="edge"><title>Node9&#45;&gt;Node16</title>
<path fill="none" stroke="midnightblue" d="M820.087,-892.503C835.791,-903.208 858.198,-916.772 880,-924 1013.66,-968.314 1398.1,-1052.8 1512,-970 1553.95,-939.504 1520.34,-902.872 1548,-859 1571.27,-822.089 1610.73,-789.265 1635.1,-771.06"/>
<polygon fill="midnightblue" stroke="midnightblue" points="821.867,-889.476 811.67,-886.599 817.847,-895.207 821.867,-889.476"/>
</g>
<!-- Node9&#45;&gt;Node17 -->
<g id="edge42" class="edge"><title>Node9&#45;&gt;Node17</title>
<path fill="none" stroke="midnightblue" d="M804.69,-896.252C814.557,-925.699 837.929,-980.933 880,-1004 993.651,-1066.31 1374.52,-1026.01 1557.17,-1002.08"/>
<polygon fill="midnightblue" stroke="midnightblue" points="808.014,-895.153 801.657,-886.678 801.341,-897.268 808.014,-895.153"/>
</g>
<!-- Node21 -->
<g id="node21" class="node"><title>Node21</title>
<g id="a_node21"><a xlink:href="classtomoBay_1_1model_1_1sql_1_1queries_1_1concreteQueries_1_1update_1_1UpdateItemNote.html#af9020b85517904668d036bc2bf89433c" target="_top" xlink:title="tomoBay.model.sql.queries.concrete\lQueries.update.UpdateItemNote.setParameters">
<polygon fill="white" stroke="black" points="1284,-931 1284,-961 1508,-961 1508,-931 1284,-931"/>
<text text-anchor="start" x="1292" y="-949" font-family="Helvetica,sans-Serif" font-size="10.00">tomoBay.model.sql.queries.concrete</text>
<text text-anchor="middle" x="1396" y="-938" font-family="Helvetica,sans-Serif" font-size="10.00">Queries.update.UpdateItemNote.setParameters</text>
</a>
</g>
</g>
<!-- Node9&#45;&gt;Node21 -->
<g id="edge38" class="edge"><title>Node9&#45;&gt;Node21</title>
<path fill="none" stroke="midnightblue" d="M844.861,-888.882C856.28,-891.529 868.537,-894.108 880,-896 1018.26,-918.823 1179.26,-932.397 1283.94,-939.52"/>
<polygon fill="midnightblue" stroke="midnightblue" points="845.621,-885.465 835.082,-886.553 843.999,-892.274 845.621,-885.465"/>
</g>
<!-- Node22 -->
<g id="node22" class="node"><title>Node22</title>
<g id="a_node22"><a xlink:href="classtomoBay_1_1model_1_1sql_1_1queries_1_1concreteQueries_1_1update_1_1UpdateItemBrandAndPartNo.html#af9020b85517904668d036bc2bf89433c" target="_top" xlink:title="tomoBay.model.sql.queries.concrete\lQueries.update.UpdateItemBrandAndPart\lNo.setParameters">
<polygon fill="white" stroke="black" points="1297.5,-871.5 1297.5,-912.5 1494.5,-912.5 1494.5,-871.5 1297.5,-871.5"/>
<text text-anchor="start" x="1305.5" y="-900.5" font-family="Helvetica,sans-Serif" font-size="10.00">tomoBay.model.sql.queries.concrete</text>
<text text-anchor="start" x="1305.5" y="-889.5" font-family="Helvetica,sans-Serif" font-size="10.00">Queries.update.UpdateItemBrandAndPart</text>
<text text-anchor="middle" x="1396" y="-878.5" font-family="Helvetica,sans-Serif" font-size="10.00">No.setParameters</text>
</a>
</g>
</g>
<!-- Node9&#45;&gt;Node22 -->
<g id="edge39" class="edge"><title>Node9&#45;&gt;Node22</title>
<path fill="none" stroke="midnightblue" d="M854.587,-878.399C955.734,-880.945 1171.05,-886.364 1297.23,-889.539"/>
<polygon fill="midnightblue" stroke="midnightblue" points="854.371,-874.893 844.286,-878.14 854.195,-881.89 854.371,-874.893"/>
</g>
<!-- Node23 -->
<g id="node23" class="node"><title>Node23</title>
<g id="a_node23"><a xlink:href="classtomoBay_1_1model_1_1sql_1_1queries_1_1concreteQueries_1_1update_1_1UpdateItemError.html#af9020b85517904668d036bc2bf89433c" target="_top" xlink:title="tomoBay.model.sql.queries.concrete\lQueries.update.UpdateItemError.setParameters">
<polygon fill="white" stroke="black" points="1284,-823 1284,-853 1508,-853 1508,-823 1284,-823"/>
<text text-anchor="start" x="1292" y="-841" font-family="Helvetica,sans-Serif" font-size="10.00">tomoBay.model.sql.queries.concrete</text>
<text text-anchor="middle" x="1396" y="-830" font-family="Helvetica,sans-Serif" font-size="10.00">Queries.update.UpdateItemError.setParameters</text>
</a>
</g>
</g>
<!-- Node9&#45;&gt;Node23 -->
<g id="edge41" class="edge"><title>Node9&#45;&gt;Node23</title>
<path fill="none" stroke="midnightblue" d="M854.527,-873.367C952.172,-866.977 1156.35,-853.617 1283.9,-845.27"/>
<polygon fill="midnightblue" stroke="midnightblue" points="854.036,-869.891 844.286,-874.037 854.493,-876.876 854.036,-869.891"/>
</g>
<!-- Node32 -->
<g id="node32" class="node"><title>Node32</title>
<g id="a_node32"><a xlink:href="classtomoBay_1_1model_1_1sql_1_1queries_1_1concreteQueries_1_1select_1_1params_1_1SelectEbayTransactionByID.html#af9020b85517904668d036bc2bf89433c" target="_top" xlink:title="tomoBay.model.sql.queries.concrete\lQueries.select.params.SelectEbayTransaction\lByID.setParameters">
<polygon fill="white" stroke="black" points="880,-788.5 880,-829.5 1099,-829.5 1099,-788.5 880,-788.5"/>
<text text-anchor="start" x="888" y="-817.5" font-family="Helvetica,sans-Serif" font-size="10.00">tomoBay.model.sql.queries.concrete</text>
<text text-anchor="start" x="888" y="-806.5" font-family="Helvetica,sans-Serif" font-size="10.00">Queries.select.params.SelectEbayTransaction</text>
<text text-anchor="middle" x="989.5" y="-795.5" font-family="Helvetica,sans-Serif" font-size="10.00">ByID.setParameters</text>
</a>
</g>
</g>
<!-- Node9&#45;&gt;Node32 -->
<g id="edge43" class="edge"><title>Node9&#45;&gt;Node32</title>
<path fill="none" stroke="midnightblue" d="M830.46,-863.543C845.373,-857.329 863.498,-850.013 880,-844 893.575,-839.053 908.231,-834.081 922.247,-829.501"/>
<polygon fill="midnightblue" stroke="midnightblue" points="829.038,-860.344 821.173,-867.443 831.748,-866.798 829.038,-860.344"/>
</g>
<!-- Node33 -->
<g id="node33" class="node"><title>Node33</title>
<g id="a_node33"><a xlink:href="classtomoBay_1_1model_1_1sql_1_1queries_1_1concreteQueries_1_1select_1_1params_1_1SelectEbayItemSpecific.html#af9020b85517904668d036bc2bf89433c" target="_top" xlink:title="tomoBay.model.sql.queries.concrete\lQueries.select.params.SelectEbayItem\lSpecific.setParameters">
<polygon fill="white" stroke="black" points="895.5,-728.5 895.5,-769.5 1083.5,-769.5 1083.5,-728.5 895.5,-728.5"/>
<text text-anchor="start" x="903.5" y="-757.5" font-family="Helvetica,sans-Serif" font-size="10.00">tomoBay.model.sql.queries.concrete</text>
<text text-anchor="start" x="903.5" y="-746.5" font-family="Helvetica,sans-Serif" font-size="10.00">Queries.select.params.SelectEbayItem</text>
<text text-anchor="middle" x="989.5" y="-735.5" font-family="Helvetica,sans-Serif" font-size="10.00">Specific.setParameters</text>
</a>
</g>
</g>
<!-- Node9&#45;&gt;Node33 -->
<g id="edge44" class="edge"><title>Node9&#45;&gt;Node33</title>
<path fill="none" stroke="midnightblue" d="M809.446,-858.447C822.903,-836.241 848.372,-799.493 880,-779 885.495,-775.44 891.409,-772.298 897.54,-769.525"/>
<polygon fill="midnightblue" stroke="midnightblue" points="806.322,-856.854 804.279,-867.25 812.359,-860.397 806.322,-856.854"/>
</g>
<!-- Node11 -->
<g id="node11" class="node"><title>Node11</title>
<g id="a_node11"><a xlink:href="classtomoBay_1_1model_1_1sql_1_1framework_1_1QueryUtility.html#a3249b16421a9902f2248cb86d4dd3be3" target="_top" xlink:title="set an Integer parameter for the query object specified. ">
<polygon fill="white" stroke="black" points="1135,-529.5 1135,-548.5 1244,-548.5 1244,-529.5 1135,-529.5"/>
<text text-anchor="middle" x="1189.5" y="-536.5" font-family="Helvetica,sans-Serif" font-size="10.00">setVARCHARParam</text>
</a>
</g>
</g>
<!-- Node10&#45;&gt;Node11 -->
<g id="edge10" class="edge"><title>Node10&#45;&gt;Node11</title>
<path fill="none" stroke="midnightblue" d="M1022.55,-608.565C1062.71,-591.73 1130.53,-563.299 1165.75,-548.538"/>
<polygon fill="midnightblue" stroke="midnightblue" points="1021.08,-605.385 1013.21,-612.479 1023.79,-611.841 1021.08,-605.385"/>
</g>
<!-- Node11&#45;&gt;Node7 -->
<g id="edge26" class="edge"><title>Node11&#45;&gt;Node7</title>
<path fill="none" stroke="midnightblue" d="M1191.52,-519.147C1196.01,-440.301 1216.65,-150.631 1280,-90 1285.23,-84.9914 1459.74,-59.6594 1569.31,-44.1768"/>
<polygon fill="midnightblue" stroke="midnightblue" points="1188.03,-519.022 1190.98,-529.198 1195.02,-519.403 1188.03,-519.022"/>
</g>
<!-- Node12 -->
<g id="node12" class="node"><title>Node12</title>
<g id="a_node12"><a xlink:href="classtomoBay_1_1model_1_1sql_1_1framework_1_1QueryUtility.html#aca3b74b8ac7e194a86c0b896a674e2f2" target="_top" xlink:title="set an Integer parameter for the query object specified. ">
<polygon fill="white" stroke="black" points="1344,-142.5 1344,-161.5 1448,-161.5 1448,-142.5 1344,-142.5"/>
<text text-anchor="middle" x="1396" y="-149.5" font-family="Helvetica,sans-Serif" font-size="10.00">setINTEGERParam</text>
</a>
</g>
</g>
<!-- Node11&#45;&gt;Node12 -->
<g id="edge11" class="edge"><title>Node11&#45;&gt;Node12</title>
<path fill="none" stroke="midnightblue" d="M1192.63,-519.202C1200.39,-450.627 1229.44,-224.776 1280,-176 1296.81,-159.787 1321.59,-153.276 1343.84,-151.031"/>
<polygon fill="midnightblue" stroke="midnightblue" points="1189.11,-519.136 1191.49,-529.46 1196.07,-519.905 1189.11,-519.136"/>
</g>
<!-- Node15 -->
<g id="node15" class="node"><title>Node15</title>
<g id="a_node15"><a xlink:href="classtomoBay_1_1model_1_1sql_1_1queries_1_1concreteQueries_1_1update_1_1UpdateInvoiceStatus.html#af9020b85517904668d036bc2bf89433c" target="_top" xlink:title="tomoBay.model.sql.queries.concrete\lQueries.update.UpdateInvoiceStatus.set\lParameters">
<polygon fill="white" stroke="black" points="1560.5,-289.5 1560.5,-330.5 1754.5,-330.5 1754.5,-289.5 1560.5,-289.5"/>
<text text-anchor="start" x="1568.5" y="-318.5" font-family="Helvetica,sans-Serif" font-size="10.00">tomoBay.model.sql.queries.concrete</text>
<text text-anchor="start" x="1568.5" y="-307.5" font-family="Helvetica,sans-Serif" font-size="10.00">Queries.update.UpdateInvoiceStatus.set</text>
<text text-anchor="middle" x="1657.5" y="-296.5" font-family="Helvetica,sans-Serif" font-size="10.00">Parameters</text>
</a>
</g>
</g>
<!-- Node11&#45;&gt;Node15 -->
<g id="edge22" class="edge"><title>Node11&#45;&gt;Node15</title>
<path fill="none" stroke="midnightblue" d="M1192.74,-519.379C1200.61,-454.345 1229.29,-247.786 1280,-209 1320.95,-177.677 1468.07,-182.019 1512,-209 1542.15,-227.516 1520.62,-257.598 1548,-280 1552.31,-283.527 1557.01,-286.64 1561.95,-289.388"/>
<polygon fill="midnightblue" stroke="midnightblue" points="1189.24,-519.155 1191.55,-529.496 1196.2,-519.975 1189.24,-519.155"/>
</g>
<!-- Node11&#45;&gt;Node16 -->
<g id="edge27" class="edge"><title>Node11&#45;&gt;Node16</title>
<path fill="none" stroke="midnightblue" d="M1192.75,-558.758C1198.61,-600.033 1218.46,-695.047 1280,-737 1322.11,-765.709 1452.34,-766.518 1547.88,-762.749"/>
<polygon fill="midnightblue" stroke="midnightblue" points="1196.19,-558.1 1191.44,-548.63 1189.25,-558.995 1196.19,-558.1"/>
</g>
<!-- Node11&#45;&gt;Node17 -->
<g id="edge28" class="edge"><title>Node11&#45;&gt;Node17</title>
<path fill="none" stroke="midnightblue" d="M1192.16,-558.557C1197.01,-602.721 1215.21,-710.552 1280,-765 1360.61,-832.742 1433.1,-743.277 1512,-813 1549.28,-845.945 1517.26,-879.875 1548,-919 1564.2,-939.626 1588.39,-955.854 1609.82,-967.376"/>
<polygon fill="midnightblue" stroke="midnightblue" points="1195.64,-558.158 1191.18,-548.548 1188.67,-558.843 1195.64,-558.158"/>
</g>
<!-- Node18 -->
<g id="node18" class="node"><title>Node18</title>
<g id="a_node18"><a xlink:href="classtomoBay_1_1model_1_1sql_1_1queries_1_1concreteQueries_1_1select_1_1params_1_1SelectBuyerByAccAndSRN.html#af9020b85517904668d036bc2bf89433c" target="_top" xlink:title="tomoBay.model.sql.queries.concrete\lQueries.select.params.SelectBuyerBy\lAccAndSRN.setParameters">
<polygon fill="white" stroke="black" points="1566,-71.5 1566,-112.5 1749,-112.5 1749,-71.5 1566,-71.5"/>
<text text-anchor="start" x="1574" y="-100.5" font-family="Helvetica,sans-Serif" font-size="10.00">tomoBay.model.sql.queries.concrete</text>
<text text-anchor="start" x="1574" y="-89.5" font-family="Helvetica,sans-Serif" font-size="10.00">Queries.select.params.SelectBuyerBy</text>
<text text-anchor="middle" x="1657.5" y="-78.5" font-family="Helvetica,sans-Serif" font-size="10.00">AccAndSRN.setParameters</text>
</a>
</g>
</g>
<!-- Node11&#45;&gt;Node18 -->
<g id="edge30" class="edge"><title>Node11&#45;&gt;Node18</title>
<path fill="none" stroke="midnightblue" d="M1191.9,-519.107C1197.54,-444.891 1221.22,-185.724 1280,-133 1320.75,-96.4503 1467.75,-90.1005 1565.56,-90.1279"/>
<polygon fill="midnightblue" stroke="midnightblue" points="1188.39,-519.141 1191.14,-529.371 1195.37,-519.654 1188.39,-519.141"/>
</g>
<!-- Node20 -->
<g id="node20" class="node"><title>Node20</title>
<g id="a_node20"><a xlink:href="classtomoBay_1_1model_1_1sql_1_1queries_1_1concreteQueries_1_1insert_1_1InsertOrderInOrderStatus.html#af9020b85517904668d036bc2bf89433c" target="_top" xlink:title="tomoBay.model.sql.queries.concrete\lQueries.insert.InsertOrderInOrderStatus.set\lParameters">
<polygon fill="white" stroke="black" points="1293,-686.5 1293,-727.5 1499,-727.5 1499,-686.5 1293,-686.5"/>
<text text-anchor="start" x="1301" y="-715.5" font-family="Helvetica,sans-Serif" font-size="10.00">tomoBay.model.sql.queries.concrete</text>
<text text-anchor="start" x="1301" y="-704.5" font-family="Helvetica,sans-Serif" font-size="10.00">Queries.insert.InsertOrderInOrderStatus.set</text>
<text text-anchor="middle" x="1396" y="-693.5" font-family="Helvetica,sans-Serif" font-size="10.00">Parameters</text>
</a>
</g>
</g>
<!-- Node11&#45;&gt;Node20 -->
<g id="edge21" class="edge"><title>Node11&#45;&gt;Node20</title>
<path fill="none" stroke="midnightblue" d="M1197.59,-558.175C1209.72,-588.237 1237.34,-646.198 1280,-677 1284.94,-680.563 1290.26,-683.703 1295.82,-686.471"/>
<polygon fill="midnightblue" stroke="midnightblue" points="1200.83,-556.851 1193.95,-548.796 1194.31,-559.385 1200.83,-556.851"/>
</g>
<!-- Node11&#45;&gt;Node21 -->
<g id="edge23" class="edge"><title>Node11&#45;&gt;Node21</title>
<path fill="none" stroke="midnightblue" d="M1192.37,-558.962C1199.44,-630.159 1226.89,-870.144 1280,-922 1283.43,-925.349 1287.2,-928.284 1291.21,-930.855"/>
<polygon fill="midnightblue" stroke="midnightblue" points="1195.82,-558.319 1191.38,-548.703 1188.86,-558.993 1195.82,-558.319"/>
</g>
<!-- Node11&#45;&gt;Node22 -->
<g id="edge24" class="edge"><title>Node11&#45;&gt;Node22</title>
<path fill="none" stroke="midnightblue" d="M1189.68,-558.933C1188.53,-615.185 1193.31,-776.607 1280,-862 1285.14,-867.068 1291.03,-871.311 1297.36,-874.859"/>
<polygon fill="midnightblue" stroke="midnightblue" points="1193.19,-558.692 1189.99,-548.591 1186.2,-558.482 1193.19,-558.692"/>
</g>
<!-- Node11&#45;&gt;Node23 -->
<g id="edge25" class="edge"><title>Node11&#45;&gt;Node23</title>
<path fill="none" stroke="midnightblue" d="M1190.97,-558.544C1193.26,-607.993 1206.33,-739.038 1280,-808 1286.55,-814.134 1294.2,-819.049 1302.38,-822.983"/>
<polygon fill="midnightblue" stroke="midnightblue" points="1194.47,-558.408 1190.61,-548.541 1187.47,-558.661 1194.47,-558.408"/>
</g>
<!-- Node24 -->
<g id="node24" class="node"><title>Node24</title>
<g id="a_node24"><a xlink:href="classtomoBay_1_1model_1_1sql_1_1queries_1_1concreteQueries_1_1update_1_1UpdateEbayBuyer.html#af9020b85517904668d036bc2bf89433c" target="_top" xlink:title="tomoBay.model.sql.queries.concrete\lQueries.update.UpdateEbayBuyer.setParameters">
<polygon fill="white" stroke="black" points="1280,-638 1280,-668 1512,-668 1512,-638 1280,-638"/>
<text text-anchor="start" x="1288" y="-656" font-family="Helvetica,sans-Serif" font-size="10.00">tomoBay.model.sql.queries.concrete</text>
<text text-anchor="middle" x="1396" y="-645" font-family="Helvetica,sans-Serif" font-size="10.00">Queries.update.UpdateEbayBuyer.setParameters</text>
</a>
</g>
</g>
<!-- Node11&#45;&gt;Node24 -->
<g id="edge29" class="edge"><title>Node11&#45;&gt;Node24</title>
<path fill="none" stroke="midnightblue" d="M1203.14,-556.97C1218.75,-577.713 1247.27,-611.246 1280,-629 1286.36,-632.452 1293.18,-635.408 1300.19,-637.939"/>
<polygon fill="midnightblue" stroke="midnightblue" points="1205.82,-554.7 1197.09,-548.693 1200.17,-558.832 1205.82,-554.7"/>
</g>
<!-- Node25 -->
<g id="node25" class="node"><title>Node25</title>
<g id="a_node25"><a xlink:href="classtomoBay_1_1model_1_1sql_1_1queries_1_1concreteQueries_1_1insert_1_1InsertEbayBuyers.html#af9020b85517904668d036bc2bf89433c" target="_top" xlink:title="tomoBay.model.sql.queries.concrete\lQueries.insert.InsertEbayBuyers.set\lParameters">
<polygon fill="white" stroke="black" points="1308,-578.5 1308,-619.5 1484,-619.5 1484,-578.5 1308,-578.5"/>
<text text-anchor="start" x="1316" y="-607.5" font-family="Helvetica,sans-Serif" font-size="10.00">tomoBay.model.sql.queries.concrete</text>
<text text-anchor="start" x="1316" y="-596.5" font-family="Helvetica,sans-Serif" font-size="10.00">Queries.insert.InsertEbayBuyers.set</text>
<text text-anchor="middle" x="1396" y="-585.5" font-family="Helvetica,sans-Serif" font-size="10.00">Parameters</text>
</a>
</g>
</g>
<!-- Node11&#45;&gt;Node25 -->
<g id="edge31" class="edge"><title>Node11&#45;&gt;Node25</title>
<path fill="none" stroke="midnightblue" d="M1226.99,-551.858C1243.15,-557.39 1262.44,-563.773 1280,-569 1290.78,-572.208 1302.18,-575.41 1313.45,-578.463"/>
<polygon fill="midnightblue" stroke="midnightblue" points="1227.97,-548.493 1217.37,-548.541 1225.68,-555.111 1227.97,-548.493"/>
</g>
<!-- Node26 -->
<g id="node26" class="node"><title>Node26</title>
<g id="a_node26"><a xlink:href="classtomoBay_1_1model_1_1sql_1_1queries_1_1concreteQueries_1_1select_1_1params_1_1SelectEbayOrderByBuyer.html#af9020b85517904668d036bc2bf89433c" target="_top" xlink:title="tomoBay.model.sql.queries.concrete\lQueries.select.params.SelectEbayOrder\lByBuyer.setParameters">
<polygon fill="white" stroke="black" points="1300,-518.5 1300,-559.5 1492,-559.5 1492,-518.5 1300,-518.5"/>
<text text-anchor="start" x="1308" y="-547.5" font-family="Helvetica,sans-Serif" font-size="10.00">tomoBay.model.sql.queries.concrete</text>
<text text-anchor="start" x="1308" y="-536.5" font-family="Helvetica,sans-Serif" font-size="10.00">Queries.select.params.SelectEbayOrder</text>
<text text-anchor="middle" x="1396" y="-525.5" font-family="Helvetica,sans-Serif" font-size="10.00">ByBuyer.setParameters</text>
</a>
</g>
</g>
<!-- Node11&#45;&gt;Node26 -->
<g id="edge32" class="edge"><title>Node11&#45;&gt;Node26</title>
<path fill="none" stroke="midnightblue" d="M1254.46,-539C1268.83,-539 1284.37,-539 1299.71,-539"/>
<polygon fill="midnightblue" stroke="midnightblue" points="1254.23,-535.5 1244.23,-539 1254.23,-542.5 1254.23,-535.5"/>
</g>
<!-- Node27 -->
<g id="node27" class="node"><title>Node27</title>
<g id="a_node27"><a xlink:href="classtomoBay_1_1model_1_1sql_1_1queries_1_1concreteQueries_1_1select_1_1params_1_1SelectTransactionByOrder.html#af9020b85517904668d036bc2bf89433c" target="_top" xlink:title="tomoBay.model.sql.queries.concrete\lQueries.select.params.SelectTransaction\lByOrder.setParameters">
<polygon fill="white" stroke="black" points="1297.5,-458.5 1297.5,-499.5 1494.5,-499.5 1494.5,-458.5 1297.5,-458.5"/>
<text text-anchor="start" x="1305.5" y="-487.5" font-family="Helvetica,sans-Serif" font-size="10.00">tomoBay.model.sql.queries.concrete</text>
<text text-anchor="start" x="1305.5" y="-476.5" font-family="Helvetica,sans-Serif" font-size="10.00">Queries.select.params.SelectTransaction</text>
<text text-anchor="middle" x="1396" y="-465.5" font-family="Helvetica,sans-Serif" font-size="10.00">ByOrder.setParameters</text>
</a>
</g>
</g>
<!-- Node11&#45;&gt;Node27 -->
<g id="edge33" class="edge"><title>Node11&#45;&gt;Node27</title>
<path fill="none" stroke="midnightblue" d="M1226.99,-526.142C1243.15,-520.61 1262.44,-514.227 1280,-509 1290.78,-505.792 1302.18,-502.59 1313.45,-499.537"/>
<polygon fill="midnightblue" stroke="midnightblue" points="1225.68,-522.889 1217.37,-529.459 1227.97,-529.507 1225.68,-522.889"/>
</g>
<!-- Node28 -->
<g id="node28" class="node"><title>Node28</title>
<g id="a_node28"><a xlink:href="classtomoBay_1_1model_1_1sql_1_1queries_1_1concreteQueries_1_1select_1_1params_1_1SelectBrandAndPartNoByOrderID.html#af9020b85517904668d036bc2bf89433c" target="_top" xlink:title="tomoBay.model.sql.queries.concrete\lQueries.select.params.SelectBrandAnd\lPartNoByOrderID.setParameters">
<polygon fill="white" stroke="black" points="1302,-398.5 1302,-439.5 1490,-439.5 1490,-398.5 1302,-398.5"/>
<text text-anchor="start" x="1310" y="-427.5" font-family="Helvetica,sans-Serif" font-size="10.00">tomoBay.model.sql.queries.concrete</text>
<text text-anchor="start" x="1310" y="-416.5" font-family="Helvetica,sans-Serif" font-size="10.00">Queries.select.params.SelectBrandAnd</text>
<text text-anchor="middle" x="1396" y="-405.5" font-family="Helvetica,sans-Serif" font-size="10.00">PartNoByOrderID.setParameters</text>
</a>
</g>
</g>
<!-- Node11&#45;&gt;Node28 -->
<g id="edge34" class="edge"><title>Node11&#45;&gt;Node28</title>
<path fill="none" stroke="midnightblue" d="M1203.3,-521.309C1219.05,-500.833 1247.71,-467.558 1280,-449 1286.89,-445.041 1294.3,-441.595 1301.93,-438.596"/>
<polygon fill="midnightblue" stroke="midnightblue" points="1200.38,-519.368 1197.18,-529.469 1205.98,-523.566 1200.38,-519.368"/>
</g>
<!-- Node29 -->
<g id="node29" class="node"><title>Node29</title>
<g id="a_node29"><a xlink:href="classtomoBay_1_1model_1_1sql_1_1queries_1_1concreteQueries_1_1select_1_1params_1_1SelectEbayOrderByID.html#af9020b85517904668d036bc2bf89433c" target="_top" xlink:title="tomoBay.model.sql.queries.concrete\lQueries.select.params.SelectEbayOrder\lByID.setParameters">
<polygon fill="white" stroke="black" points="1300,-338.5 1300,-379.5 1492,-379.5 1492,-338.5 1300,-338.5"/>
<text text-anchor="start" x="1308" y="-367.5" font-family="Helvetica,sans-Serif" font-size="10.00">tomoBay.model.sql.queries.concrete</text>
<text text-anchor="start" x="1308" y="-356.5" font-family="Helvetica,sans-Serif" font-size="10.00">Queries.select.params.SelectEbayOrder</text>
<text text-anchor="middle" x="1396" y="-345.5" font-family="Helvetica,sans-Serif" font-size="10.00">ByID.setParameters</text>
</a>
</g>
</g>
<!-- Node11&#45;&gt;Node29 -->
<g id="edge35" class="edge"><title>Node11&#45;&gt;Node29</title>
<path fill="none" stroke="midnightblue" d="M1196.64,-519.539C1207.83,-487.305 1234.68,-423.025 1280,-389 1286.11,-384.416 1292.85,-380.531 1299.92,-377.238"/>
<polygon fill="midnightblue" stroke="midnightblue" points="1193.28,-518.558 1193.44,-529.151 1199.92,-520.769 1193.28,-518.558"/>
</g>
<!-- Node30 -->
<g id="node30" class="node"><title>Node30</title>
<g id="a_node30"><a xlink:href="classtomoBay_1_1model_1_1sql_1_1queries_1_1concreteQueries_1_1select_1_1params_1_1SelectEbayBuyer.html#af9020b85517904668d036bc2bf89433c" target="_top" xlink:title="tomoBay.model.sql.queries.concrete\lQueries.select.params.SelectEbayBuyer.set\lParameters">
<polygon fill="white" stroke="black" points="1291,-278.5 1291,-319.5 1501,-319.5 1501,-278.5 1291,-278.5"/>
<text text-anchor="start" x="1299" y="-307.5" font-family="Helvetica,sans-Serif" font-size="10.00">tomoBay.model.sql.queries.concrete</text>
<text text-anchor="start" x="1299" y="-296.5" font-family="Helvetica,sans-Serif" font-size="10.00">Queries.select.params.SelectEbayBuyer.set</text>
<text text-anchor="middle" x="1396" y="-285.5" font-family="Helvetica,sans-Serif" font-size="10.00">Parameters</text>
</a>
</g>
</g>
<!-- Node11&#45;&gt;Node30 -->
<g id="edge36" class="edge"><title>Node11&#45;&gt;Node30</title>
<path fill="none" stroke="midnightblue" d="M1193.06,-519.348C1199.56,-477.703 1220.61,-380.205 1280,-329 1284.06,-325.497 1288.49,-322.396 1293.16,-319.651"/>
<polygon fill="midnightblue" stroke="midnightblue" points="1189.59,-518.918 1191.62,-529.316 1196.52,-519.918 1189.59,-518.918"/>
</g>
<!-- Node31 -->
<g id="node31" class="node"><title>Node31</title>
<g id="a_node31"><a xlink:href="classtomoBay_1_1model_1_1sql_1_1queries_1_1concreteQueries_1_1select_1_1params_1_1SelectFullOrderLine.html#af9020b85517904668d036bc2bf89433c" target="_top" xlink:title="tomoBay.model.sql.queries.concrete\lQueries.select.params.SelectFullOrder\lLine.setParameters">
<polygon fill="white" stroke="black" points="1303.5,-218.5 1303.5,-259.5 1488.5,-259.5 1488.5,-218.5 1303.5,-218.5"/>
<text text-anchor="start" x="1311.5" y="-247.5" font-family="Helvetica,sans-Serif" font-size="10.00">tomoBay.model.sql.queries.concrete</text>
<text text-anchor="start" x="1311.5" y="-236.5" font-family="Helvetica,sans-Serif" font-size="10.00">Queries.select.params.SelectFullOrder</text>
<text text-anchor="middle" x="1396" y="-225.5" font-family="Helvetica,sans-Serif" font-size="10.00">Line.setParameters</text>
</a>
</g>
</g>
<!-- Node11&#45;&gt;Node31 -->
<g id="edge37" class="edge"><title>Node11&#45;&gt;Node31</title>
<path fill="none" stroke="midnightblue" d="M1190.94,-519.386C1193.17,-469.757 1206.12,-338.234 1280,-269 1286.78,-262.651 1294.72,-257.607 1303.22,-253.606"/>
<polygon fill="midnightblue" stroke="midnightblue" points="1187.45,-519.309 1190.6,-529.424 1194.44,-519.552 1187.45,-519.309"/>
</g>
<!-- Node12&#45;&gt;Node4 -->
<g id="edge15" class="edge"><title>Node12&#45;&gt;Node4</title>
<path fill="none" stroke="midnightblue" d="M1448.67,-164.794C1471.97,-173.336 1497.47,-187.146 1512,-209 1582.4,-314.872 1495.81,-664.067 1548,-780 1564.77,-817.251 1600.25,-848.909 1626.09,-868.354"/>
<polygon fill="midnightblue" stroke="midnightblue" points="1449.79,-161.48 1439.2,-161.557 1447.53,-168.103 1449.79,-161.48"/>
</g>
<!-- Node12&#45;&gt;Node7 -->
<g id="edge17" class="edge"><title>Node12&#45;&gt;Node7</title>
<path fill="none" stroke="midnightblue" d="M1426.28,-137.913C1449.99,-126.108 1483.94,-108.291 1512,-90 1528.98,-78.9298 1529.89,-71.0967 1548,-62 1554.99,-58.4917 1562.44,-55.3473 1570.04,-52.5388"/>
<polygon fill="midnightblue" stroke="midnightblue" points="1424.53,-134.875 1417.11,-142.436 1427.63,-141.154 1424.53,-134.875"/>
</g>
<!-- Node13 -->
<g id="node13" class="node"><title>Node13</title>
<g id="a_node13"><a xlink:href="classtomoBay_1_1model_1_1sql_1_1framework_1_1QueryUtility.html#a2da2ce60a8a037d55bdc69309db4815b" target="_top" xlink:title="private ctor ensures that this class is never instantiated ">
<polygon fill="white" stroke="black" points="1623.5,-251.5 1623.5,-270.5 1691.5,-270.5 1691.5,-251.5 1623.5,-251.5"/>
<text text-anchor="middle" x="1657.5" y="-258.5" font-family="Helvetica,sans-Serif" font-size="10.00">QueryUtility</text>
</a>
</g>
</g>
<!-- Node12&#45;&gt;Node13 -->
<g id="edge12" class="edge"><title>Node12&#45;&gt;Node13</title>
<path fill="none" stroke="midnightblue" d="M1458.07,-154.885C1476.8,-158.233 1496.52,-164.51 1512,-176 1538.83,-195.917 1520.85,-222.52 1548,-242 1569.75,-257.608 1600.16,-261.827 1623.26,-262.446"/>
<polygon fill="midnightblue" stroke="midnightblue" points="1458.52,-151.413 1448.1,-153.351 1457.46,-158.332 1458.52,-151.413"/>
</g>
<!-- Node14 -->
<g id="node14" class="node"><title>Node14</title>
<g id="a_node14"><a xlink:href="classtomoBay_1_1model_1_1sql_1_1queries_1_1concreteQueries_1_1update_1_1UpdateInvoiceStatusSRN.html#af9020b85517904668d036bc2bf89433c" target="_top" xlink:title="tomoBay.model.sql.queries.concrete\lQueries.update.UpdateInvoiceStatusSRN.set\lParameters">
<polygon fill="white" stroke="black" points="1550,-191.5 1550,-232.5 1765,-232.5 1765,-191.5 1550,-191.5"/>
<text text-anchor="start" x="1558" y="-220.5" font-family="Helvetica,sans-Serif" font-size="10.00">tomoBay.model.sql.queries.concrete</text>
<text text-anchor="start" x="1558" y="-209.5" font-family="Helvetica,sans-Serif" font-size="10.00">Queries.update.UpdateInvoiceStatusSRN.set</text>
<text text-anchor="middle" x="1657.5" y="-198.5" font-family="Helvetica,sans-Serif" font-size="10.00">Parameters</text>
</a>
</g>
</g>
<!-- Node12&#45;&gt;Node14 -->
<g id="edge13" class="edge"><title>Node12&#45;&gt;Node14</title>
<path fill="none" stroke="midnightblue" d="M1454.62,-163.573C1472.99,-167.384 1493.38,-171.739 1512,-176 1532.92,-180.787 1555.46,-186.254 1576.38,-191.457"/>
<polygon fill="midnightblue" stroke="midnightblue" points="1455.15,-160.108 1444.65,-161.516 1453.73,-166.964 1455.15,-160.108"/>
</g>
<!-- Node12&#45;&gt;Node15 -->
<g id="edge14" class="edge"><title>Node12&#45;&gt;Node15</title>
<path fill="none" stroke="midnightblue" d="M1458,-153.183C1477.18,-156.367 1497.2,-162.977 1512,-176 1548.72,-208.313 1512.33,-246.528 1548,-280 1551.78,-283.544 1555.93,-286.676 1560.35,-289.443"/>
<polygon fill="midnightblue" stroke="midnightblue" points="1458.46,-149.714 1448.07,-151.815 1457.5,-156.648 1458.46,-149.714"/>
</g>
<!-- Node12&#45;&gt;Node16 -->
<g id="edge16" class="edge"><title>Node12&#45;&gt;Node16</title>
<path fill="none" stroke="midnightblue" d="M1443.56,-164.87C1467.23,-173.667 1494.6,-187.681 1512,-209 1514.24,-211.741 1629.59,-653.001 1652.55,-740.881"/>
<polygon fill="midnightblue" stroke="midnightblue" points="1444.61,-161.531 1434.02,-161.526 1442.3,-168.137 1444.61,-161.531"/>
</g>
<!-- Node12&#45;&gt;Node17 -->
<g id="edge18" class="edge"><title>Node12&#45;&gt;Node17</title>
<path fill="none" stroke="midnightblue" d="M1449.36,-164.926C1472.53,-173.466 1497.72,-187.237 1512,-209 1598.66,-341.089 1468.47,-782.495 1548,-919 1560.53,-940.507 1582.73,-956.369 1603.79,-967.423"/>
<polygon fill="midnightblue" stroke="midnightblue" points="1450.18,-161.509 1439.59,-161.578 1447.91,-168.131 1450.18,-161.509"/>
</g>
<!-- Node12&#45;&gt;Node18 -->
<g id="edge19" class="edge"><title>Node12&#45;&gt;Node18</title>
<path fill="none" stroke="midnightblue" d="M1454.62,-140.427C1472.99,-136.616 1493.38,-132.261 1512,-128 1532.92,-123.213 1555.46,-117.746 1576.38,-112.543"/>
<polygon fill="midnightblue" stroke="midnightblue" points="1453.73,-137.036 1444.65,-142.484 1455.15,-143.892 1453.73,-137.036"/>
</g>
<!-- Node19 -->
<g id="node19" class="node"><title>Node19</title>
<g id="a_node19"><a xlink:href="classtomoBay_1_1model_1_1sql_1_1queries_1_1concreteQueries_1_1select_1_1params_1_1SelectBrandByInv.html#af9020b85517904668d036bc2bf89433c" target="_top" xlink:title="tomoBay.model.sql.queries.concrete\lQueries.select.params.SelectBrandBy\lInv.setParameters">
<polygon fill="white" stroke="black" points="1566,-131.5 1566,-172.5 1749,-172.5 1749,-131.5 1566,-131.5"/>
<text text-anchor="start" x="1574" y="-160.5" font-family="Helvetica,sans-Serif" font-size="10.00">tomoBay.model.sql.queries.concrete</text>
<text text-anchor="start" x="1574" y="-149.5" font-family="Helvetica,sans-Serif" font-size="10.00">Queries.select.params.SelectBrandBy</text>
<text text-anchor="middle" x="1657.5" y="-138.5" font-family="Helvetica,sans-Serif" font-size="10.00">Inv.setParameters</text>
</a>
</g>
</g>
<!-- Node12&#45;&gt;Node19 -->
<g id="edge20" class="edge"><title>Node12&#45;&gt;Node19</title>
<path fill="none" stroke="midnightblue" d="M1458.4,-152C1490.48,-152 1530.38,-152 1565.94,-152"/>
<polygon fill="midnightblue" stroke="midnightblue" points="1458.27,-148.5 1448.27,-152 1458.27,-155.5 1458.27,-148.5"/>
</g>
</g>
</svg>
        <g id="navigator" transform="translate(0 0)" fill="#404254">
                <rect fill="#f2f5e9" fill-opacity="0.5" stroke="#606060" stroke-width=".5" x="0" y="0" width="60" height="60"/>
                <use id="zoomplus" xlink:href="#zoomPlus" x="17" y="9" onmousedown="handleZoom(evt,'in')"/>
                <use id="zoomminus" xlink:href="#zoomMin" x="42" y="9" onmousedown="handleZoom(evt,'out')"/>
                <use id="reset" xlink:href="#resetDef" x="30" y="36" onmousedown="handleReset()"/>
                <g id="arrowUp" xlink:href="#dirArrow" transform="translate(30 24)" onmousedown="handlePan(0,-1)">
                  <use xlink:href="#rim" fill="#404040">
                        <set attributeName="fill" to="#808080" begin="arrowUp.mouseover" end="arrowUp.mouseout"/>
                  </use>
                  <path fill="none" stroke="white" stroke-width="1.5" d="M0,-3.0v7 M-2.5,-0.5L0,-3.0L2.5,-0.5"/>
                </g>
                <g id="arrowRight" xlink:href="#dirArrow" transform="rotate(90) translate(36 -43)" onmousedown="handlePan(1,0)">
                  <use xlink:href="#rim" fill="#404040">
                        <set attributeName="fill" to="#808080" begin="arrowRight.mouseover" end="arrowRight.mouseout"/>
                  </use>
                  <path fill="none" stroke="white" stroke-width="1.5" d="M0,-3.0v7 M-2.5,-0.5L0,-3.0L2.5,-0.5"/>
                </g>
                <g id="arrowDown" xlink:href="#dirArrow" transform="rotate(180) translate(-30 -48)" onmousedown="handlePan(0,1)">
                  <use xlink:href="#rim" fill="#404040">
                        <set attributeName="fill" to="#808080" begin="arrowDown.mouseover" end="arrowDown.mouseout"/>
                  </use>
                  <path fill="none" stroke="white" stroke-width="1.5" d="M0,-3.0v7 M-2.5,-0.5L0,-3.0L2.5,-0.5"/>
                </g>
                <g id="arrowLeft" xlink:href="#dirArrow" transform="rotate(270) translate(-36 17)" onmousedown="handlePan(-1,0)">
                  <use xlink:href="#rim" fill="#404040">
                        <set attributeName="fill" to="#808080" begin="arrowLeft.mouseover" end="arrowLeft.mouseout"/>
                  </use>
                  <path fill="none" stroke="white" stroke-width="1.5" d="M0,-3.0v7 M-2.5,-0.5L0,-3.0L2.5,-0.5"/>
                </g>
        </g>
        <svg viewBox="0 0 15 15" width="100%" height="30px" preserveAspectRatio="xMaxYMin meet">
         <g id="arrow_out" transform="scale(0.3 0.3)">
          <a xlink:href="classtomoBay_1_1model_1_1sql_1_1framework_1_1QueryUtility_adf8f1fea7b649baadeb0297c41be72f5_icgraph_org.svg" target="_base">
           <rect id="button" ry="5" rx="5" y="6" x="6" height="38" width="38"
                fill="#f2f5e9" fill-opacity="0.5" stroke="#606060" stroke-width="1.0"/>
           <path id="arrow"
             d="M 11.500037,31.436501 C 11.940474,20.09759 22.043105,11.32322 32.158766,21.979434 L 37.068811,17.246167 C 37.068811,17.246167 37.088388,32 37.088388,32 L 22.160133,31.978069 C 22.160133,31.978069 26.997745,27.140456 26.997745,27.140456 C 18.528582,18.264221 13.291696,25.230495 11.500037,31.436501 z"
             style="fill:#404040;"/>
          </a>
         </g>
        </svg>
</svg>
