<?xml version="1.0" encoding="UTF-8" standalone="no"?>
<!DOCTYPE svg PUBLIC "-//W3C//DTD SVG 1.1//EN"
 "http://www.w3.org/Graphics/SVG/1.1/DTD/svg11.dtd">
<!-- Generated by graphviz version 2.38.0 (20140413.2041)
 -->
<!-- Title: GenerateRoyalMailCSVFactory Pages: 1 -->
<svg width="177pt" height="171pt"
 viewBox="0.00 0.00 177.00 171.00" xmlns="http://www.w3.org/2000/svg" xmlns:xlink="http://www.w3.org/1999/xlink">
<g id="graph0" class="graph" transform="scale(1 1) rotate(0) translate(4 167)">
<title>GenerateRoyalMailCSVFactory</title>
<polygon fill="white" stroke="none" points="-4,4 -4,-167 173,-167 173,4 -4,4"/>
<!-- Node1 -->
<g id="node1" class="node"><title>Node1</title>
<polygon fill="#bfbfbf" stroke="black" points="-1.42109e-14,-0.5 -1.42109e-14,-68.5 169,-68.5 169,-0.5 -1.42109e-14,-0.5"/>
<text text-anchor="middle" x="84.5" y="-56.5" font-family="Helvetica,sans-Serif" font-size="10.00">GenerateRoyalMailCSVFactory</text>
<polyline fill="none" stroke="black" points="-1.42109e-14,-49.5 169,-49.5 "/>
<text text-anchor="middle" x="84.5" y="-37.5" font-family="Helvetica,sans-Serif" font-size="10.00"> </text>
<polyline fill="none" stroke="black" points="-1.42109e-14,-30.5 169,-30.5 "/>
<text text-anchor="start" x="8" y="-18.5" font-family="Helvetica,sans-Serif" font-size="10.00">+ GenerateRoyalMailCSVFactory()</text>
<text text-anchor="start" x="8" y="-7.5" font-family="Helvetica,sans-Serif" font-size="10.00">+ make()</text>
</g>
<!-- Node2 -->
<g id="node2" class="node"><title>Node2</title>
<g id="a_node2"><a xlink:href="interfacetomoBay_1_1presenters_1_1presenterActions_1_1factories_1_1AbstractPresenterActionFactory.html" target="_top" xlink:title="the interface all factories that create AbstractPresenterAction objects should inherit from...">
<polygon fill="white" stroke="black" points="6.5,-105.5 6.5,-162.5 162.5,-162.5 162.5,-105.5 6.5,-105.5"/>
<text text-anchor="middle" x="84.5" y="-150.5" font-family="Helvetica,sans-Serif" font-size="10.00">AbstractPresenterActionFactory</text>
<polyline fill="none" stroke="black" points="6.5,-143.5 162.5,-143.5 "/>
<text text-anchor="middle" x="84.5" y="-131.5" font-family="Helvetica,sans-Serif" font-size="10.00"> </text>
<polyline fill="none" stroke="black" points="6.5,-124.5 162.5,-124.5 "/>
<text text-anchor="start" x="14.5" y="-112.5" font-family="Helvetica,sans-Serif" font-size="10.00">+ make()</text>
</a>
</g>
</g>
<!-- Node2&#45;&gt;Node1 -->
<g id="edge1" class="edge"><title>Node2&#45;&gt;Node1</title>
<path fill="none" stroke="midnightblue" d="M84.5,-95.0631C84.5,-86.3933 84.5,-77.2431 84.5,-68.7855"/>
<polygon fill="none" stroke="midnightblue" points="81.0001,-95.3212 84.5,-105.321 88.0001,-95.3212 81.0001,-95.3212"/>
</g>
</g>
</svg>
