<?xml version="1.0" encoding="UTF-8" standalone="no"?>
<!DOCTYPE svg PUBLIC "-//W3C//DTD SVG 1.1//EN"
 "http://www.w3.org/Graphics/SVG/1.1/DTD/svg11.dtd">
<!-- Generated by graphviz version 2.38.0 (20140413.2041)
 -->
<!-- Title: execute Pages: 1 -->
<svg width="557pt" height="148pt"
 viewBox="0.00 0.00 557.00 147.50" xmlns="http://www.w3.org/2000/svg" xmlns:xlink="http://www.w3.org/1999/xlink">
<g id="graph0" class="graph" transform="scale(1 1) rotate(0) translate(4 143.5)">
<title>execute</title>
<polygon fill="white" stroke="none" points="-4,4 -4,-143.5 553,-143.5 553,4 -4,4"/>
<!-- Node1 -->
<g id="node1" class="node"><title>Node1</title>
<polygon fill="#bfbfbf" stroke="black" points="0,-55 0,-74 51,-74 51,-55 0,-55"/>
<text text-anchor="middle" x="25.5" y="-62" font-family="Helvetica,sans-Serif" font-size="10.00">execute</text>
</g>
<!-- Node2 -->
<g id="node2" class="node"><title>Node2</title>
<g id="a_node2"><a xlink:href="classtomoBay_1_1presenters_1_1presenterActions_1_1concreteActions_1_1InvoiceOrders.html#adb3dedf31dc2c7fc796f20406c235ccd" target="_top" xlink:title="performs the action specified ">
<polygon fill="white" stroke="black" points="110.5,-98 110.5,-139 268.5,-139 268.5,-98 110.5,-98"/>
<text text-anchor="start" x="118.5" y="-127" font-family="Helvetica,sans-Serif" font-size="10.00">tomoBay.presenters.presenter</text>
<text text-anchor="start" x="118.5" y="-116" font-family="Helvetica,sans-Serif" font-size="10.00">Actions.concreteActions.Invoice</text>
<text text-anchor="middle" x="189.5" y="-105" font-family="Helvetica,sans-Serif" font-size="10.00">Orders.execute</text>
</a>
</g>
</g>
<!-- Node1&#45;&gt;Node2 -->
<g id="edge1" class="edge"><title>Node1&#45;&gt;Node2</title>
<path fill="none" stroke="midnightblue" d="M57.2389,-77.9931C66.6987,-81.9308 77.2021,-86.0883 87,-89.5 95.3941,-92.4229 104.251,-95.2792 113.093,-97.9891"/>
<polygon fill="midnightblue" stroke="midnightblue" points="58.4051,-74.6862 47.8319,-74.0098 55.6756,-81.1321 58.4051,-74.6862"/>
</g>
<!-- Node3 -->
<g id="node3" class="node"><title>Node3</title>
<g id="a_node3"><a xlink:href="classtomoBay_1_1presenters_1_1presenterActions_1_1concreteActions_1_1PrintInvoices.html#a3396bf15e4a594abdeb16cb37f076ce2" target="_top" xlink:title="actually send the data to the winstock server to print the invoice ">
<polygon fill="white" stroke="black" points="87,-49.5 87,-79.5 292,-79.5 292,-49.5 87,-49.5"/>
<text text-anchor="start" x="95" y="-67.5" font-family="Helvetica,sans-Serif" font-size="10.00">tomoBay.presenters.presenter</text>
<text text-anchor="middle" x="189.5" y="-56.5" font-family="Helvetica,sans-Serif" font-size="10.00">Actions.concreteActions.PrintInvoices.print</text>
</a>
</g>
</g>
<!-- Node1&#45;&gt;Node3 -->
<g id="edge2" class="edge"><title>Node1&#45;&gt;Node3</title>
<path fill="none" stroke="midnightblue" d="M61.1966,-64.5C69.027,-64.5 77.7267,-64.5 86.7976,-64.5"/>
<polygon fill="midnightblue" stroke="midnightblue" points="61.1043,-61.0001 51.1043,-64.5 61.1043,-68.0001 61.1043,-61.0001"/>
</g>
<!-- Node5 -->
<g id="node5" class="node"><title>Node5</title>
<g id="a_node5"><a xlink:href="classtomoBayTests_1_1model_1_1net_1_1ClientSocketTest.html#a9e05d6ab69028f9da119689d187c95b2" target="_top" xlink:title="tomoBayTests.model.net.Client\lSocketTest.test">
<polygon fill="white" stroke="black" points="112,-0.5 112,-30.5 267,-30.5 267,-0.5 112,-0.5"/>
<text text-anchor="start" x="120" y="-18.5" font-family="Helvetica,sans-Serif" font-size="10.00">tomoBayTests.model.net.Client</text>
<text text-anchor="middle" x="189.5" y="-7.5" font-family="Helvetica,sans-Serif" font-size="10.00">SocketTest.test</text>
</a>
</g>
</g>
<!-- Node1&#45;&gt;Node5 -->
<g id="edge4" class="edge"><title>Node1&#45;&gt;Node5</title>
<path fill="none" stroke="midnightblue" d="M57.6674,-51.1971C67.0054,-47.4675 77.3347,-43.5915 87,-40.5 98.1491,-36.9338 110.123,-33.5777 121.799,-30.5521"/>
<polygon fill="midnightblue" stroke="midnightblue" points="56.3019,-47.9741 48.3645,-54.9917 58.9457,-54.4556 56.3019,-47.9741"/>
</g>
<!-- Node4 -->
<g id="node4" class="node"><title>Node4</title>
<g id="a_node4"><a xlink:href="classtomoBay_1_1presenters_1_1presenterActions_1_1concreteActions_1_1PrintInvoices.html#adb3dedf31dc2c7fc796f20406c235ccd" target="_top" xlink:title="performs the action specified ">
<polygon fill="white" stroke="black" points="328,-49.5 328,-79.5 549,-79.5 549,-49.5 328,-49.5"/>
<text text-anchor="start" x="336" y="-67.5" font-family="Helvetica,sans-Serif" font-size="10.00">tomoBay.presenters.presenter</text>
<text text-anchor="middle" x="438.5" y="-56.5" font-family="Helvetica,sans-Serif" font-size="10.00">Actions.concreteActions.PrintInvoices.execute</text>
</a>
</g>
</g>
<!-- Node3&#45;&gt;Node4 -->
<g id="edge3" class="edge"><title>Node3&#45;&gt;Node4</title>
<path fill="none" stroke="midnightblue" d="M302.081,-64.5C310.68,-64.5 319.356,-64.5 327.941,-64.5"/>
<polygon fill="midnightblue" stroke="midnightblue" points="302.034,-61.0001 292.034,-64.5 302.034,-68.0001 302.034,-61.0001"/>
</g>
<!-- Node6 -->
<g id="node6" class="node"><title>Node6</title>
<g id="a_node6"><a xlink:href="classtomoBayTests_1_1model_1_1net_1_1ClientSocketTest.html#a8b260eecbaabcef8473fd87ada040682" target="_top" xlink:title="tomoBayTests.model.net.Client\lSocketTest.main">
<polygon fill="white" stroke="black" points="361,-0.5 361,-30.5 516,-30.5 516,-0.5 361,-0.5"/>
<text text-anchor="start" x="369" y="-18.5" font-family="Helvetica,sans-Serif" font-size="10.00">tomoBayTests.model.net.Client</text>
<text text-anchor="middle" x="438.5" y="-7.5" font-family="Helvetica,sans-Serif" font-size="10.00">SocketTest.main</text>
</a>
</g>
</g>
<!-- Node5&#45;&gt;Node6 -->
<g id="edge5" class="edge"><title>Node5&#45;&gt;Node6</title>
<path fill="none" stroke="midnightblue" d="M277.556,-15.5C304.681,-15.5 334.383,-15.5 360.749,-15.5"/>
<polygon fill="midnightblue" stroke="midnightblue" points="277.298,-12.0001 267.298,-15.5 277.298,-19.0001 277.298,-12.0001"/>
</g>
</g>
</svg>
