<?xml version="1.0" encoding="UTF-8" standalone="no"?>
<!DOCTYPE svg PUBLIC "-//W3C//DTD SVG 1.1//EN"
 "http://www.w3.org/Graphics/SVG/1.1/DTD/svg11.dtd">
<!-- Generated by graphviz version 2.38.0 (20140413.2041)
 -->
<!-- Title: parseAll Pages: 1 -->
<svg width="693pt" height="196pt"
 viewBox="0.00 0.00 693.00 196.00" xmlns="http://www.w3.org/2000/svg" xmlns:xlink="http://www.w3.org/1999/xlink">
<g id="graph0" class="graph" transform="scale(1 1) rotate(0) translate(4 192)">
<title>parseAll</title>
<polygon fill="white" stroke="none" points="-4,4 -4,-192 689,-192 689,4 -4,4"/>
<!-- Node1 -->
<g id="node1" class="node"><title>Node1</title>
<polygon fill="#bfbfbf" stroke="black" points="0,-82 0,-101 52,-101 52,-82 0,-82"/>
<text text-anchor="middle" x="26" y="-89" font-family="Helvetica,sans-Serif" font-size="10.00">parseAll</text>
</g>
<!-- Node2 -->
<g id="node2" class="node"><title>Node2</title>
<g id="a_node2"><a xlink:href="classtomoBay_1_1helpers_1_1ConfigReader.html#a4fdc2d8934d35629ffad56417a76329f" target="_top" xlink:title="find the value of the config variable specified in the arguments. ">
<polygon fill="white" stroke="black" points="88,-153 88,-172 279,-172 279,-153 88,-153"/>
<text text-anchor="middle" x="183.5" y="-160" font-family="Helvetica,sans-Serif" font-size="10.00">tomoBay.helpers.ConfigReader.getConf</text>
</a>
</g>
</g>
<!-- Node1&#45;&gt;Node2 -->
<g id="edge1" class="edge"><title>Node1&#45;&gt;Node2</title>
<path fill="none" stroke="midnightblue" d="M42.4904,-108.674C53.9343,-120.287 70.5068,-135.003 88,-143.5 95.978,-147.375 104.703,-150.46 113.524,-152.916"/>
<polygon fill="midnightblue" stroke="midnightblue" points="44.8615,-106.088 35.4387,-101.244 39.7843,-110.907 44.8615,-106.088"/>
</g>
<!-- Node3 -->
<g id="node3" class="node"><title>Node3</title>
<g id="a_node3"><a xlink:href="classtomoBay_1_1helpers_1_1ConfigReader.html#a7059b3afa0bba045e7069deaa7460887" target="_top" xlink:title="Find all values of the specified config variable, if multiple instances exist then the array will be ...">
<polygon fill="white" stroke="black" points="98.5,-103.5 98.5,-133.5 268.5,-133.5 268.5,-103.5 98.5,-103.5"/>
<text text-anchor="start" x="106.5" y="-121.5" font-family="Helvetica,sans-Serif" font-size="10.00">tomoBay.helpers.ConfigReader.get</text>
<text text-anchor="middle" x="183.5" y="-110.5" font-family="Helvetica,sans-Serif" font-size="10.00">Confs</text>
</a>
</g>
</g>
<!-- Node1&#45;&gt;Node3 -->
<g id="edge2" class="edge"><title>Node1&#45;&gt;Node3</title>
<path fill="none" stroke="midnightblue" d="M62.2282,-97.6168C73.1123,-99.5066 85.6019,-101.675 98.3225,-103.884"/>
<polygon fill="midnightblue" stroke="midnightblue" points="62.7812,-94.1605 52.3298,-95.8981 61.5836,-101.057 62.7812,-94.1605"/>
</g>
<!-- Node8 -->
<g id="node8" class="node"><title>Node8</title>
<g id="a_node8"><a xlink:href="classtomoBay_1_1model_1_1services_1_1emailErrorsService_1_1EmailErrorsService.html#afedc044522908ef89df6b3c9ef1eb8ce" target="_top" xlink:title="tomoBay.model.services.email\lErrorsService.EmailErrorsService.set\lConfig">
<polygon fill="white" stroke="black" points="94,-44 94,-85 273,-85 273,-44 94,-44"/>
<text text-anchor="start" x="102" y="-73" font-family="Helvetica,sans-Serif" font-size="10.00">tomoBay.model.services.email</text>
<text text-anchor="start" x="102" y="-62" font-family="Helvetica,sans-Serif" font-size="10.00">ErrorsService.EmailErrorsService.set</text>
<text text-anchor="middle" x="183.5" y="-51" font-family="Helvetica,sans-Serif" font-size="10.00">Config</text>
</a>
</g>
</g>
<!-- Node1&#45;&gt;Node8 -->
<g id="edge7" class="edge"><title>Node1&#45;&gt;Node8</title>
<path fill="none" stroke="midnightblue" d="M62.2395,-85.3812C71.8677,-83.7095 82.7516,-81.8197 93.9402,-79.8769"/>
<polygon fill="midnightblue" stroke="midnightblue" points="61.5836,-81.9427 52.3298,-87.1019 62.7812,-88.8395 61.5836,-81.9427"/>
</g>
<!-- Node9 -->
<g id="node9" class="node"><title>Node9</title>
<g id="a_node9"><a xlink:href="classtomoBay_1_1helpers_1_1ConfigReader.html#ad3d2ffd9b97b6fcdb33c2ca3bb528a11" target="_top" xlink:title="find out how many instances of a particular config variable exist within the config file...">
<polygon fill="white" stroke="black" points="96.5,-6 96.5,-25 270.5,-25 270.5,-6 96.5,-6"/>
<text text-anchor="middle" x="183.5" y="-13" font-family="Helvetica,sans-Serif" font-size="10.00">tomoBay.helpers.ConfigReader.size</text>
</a>
</g>
</g>
<!-- Node1&#45;&gt;Node9 -->
<g id="edge8" class="edge"><title>Node1&#45;&gt;Node9</title>
<path fill="none" stroke="midnightblue" d="M41.0646,-73.8974C52.3696,-60.9745 69.3903,-44.0696 88,-34.5 95.5899,-30.5971 103.906,-27.4951 112.358,-25.03"/>
<polygon fill="midnightblue" stroke="midnightblue" points="38.2617,-71.7923 34.5016,-81.6975 43.618,-76.2991 38.2617,-71.7923"/>
</g>
<!-- Node4 -->
<g id="node4" class="node"><title>Node4</title>
<g id="a_node4"><a xlink:href="classtomoBay_1_1helpers_1_1Shipping__Priority.html#aeaa068d370466a132fa02c3dd61f4111" target="_top" xlink:title="populates the internal map containing the shipping priorities ">
<polygon fill="white" stroke="black" points="345.5,-132.5 345.5,-162.5 487.5,-162.5 487.5,-132.5 345.5,-132.5"/>
<text text-anchor="start" x="353.5" y="-150.5" font-family="Helvetica,sans-Serif" font-size="10.00">tomoBay.helpers.Shipping</text>
<text text-anchor="middle" x="416.5" y="-139.5" font-family="Helvetica,sans-Serif" font-size="10.00">_Priority.populatePriorityMap</text>
</a>
</g>
</g>
<!-- Node3&#45;&gt;Node4 -->
<g id="edge3" class="edge"><title>Node3&#45;&gt;Node4</title>
<path fill="none" stroke="midnightblue" d="M278.674,-130.323C300.904,-133.113 324.225,-136.041 345.189,-138.673"/>
<polygon fill="midnightblue" stroke="midnightblue" points="278.908,-126.825 268.55,-129.052 278.036,-133.77 278.908,-126.825"/>
</g>
<!-- Node7 -->
<g id="node7" class="node"><title>Node7</title>
<g id="a_node7"><a xlink:href="classtomoBay_1_1model_1_1royalMail_1_1RoyalMailCSVGenerator.html#a1cb65b7538dfdc8bf869f5c77421c90b" target="_top" xlink:title="ctor, creates an empty CSV of the format: &quot;Service Reference&quot;,&quot;Service&quot;,&quot;Recipient&quot;,&quot;Address Line 1&quot;,&quot;Address Line 2&quot;,&quot;PostCode&quot;,&quot;Post Town&quot;, &quot;Country Code&quot;,&quot;Reference&quot;,&quot;Items&quot;,&quot;Weight&quot;,&quot;Service Enhancement&quot;,&quot;Service Format&quot;, ">
<polygon fill="white" stroke="black" points="331.5,-73 331.5,-114 501.5,-114 501.5,-73 331.5,-73"/>
<text text-anchor="start" x="339.5" y="-102" font-family="Helvetica,sans-Serif" font-size="10.00">tomoBay.model.royalMail.</text>
<text text-anchor="start" x="339.5" y="-91" font-family="Helvetica,sans-Serif" font-size="10.00">RoyalMailCSVGenerator.RoyalMail</text>
<text text-anchor="middle" x="416.5" y="-80" font-family="Helvetica,sans-Serif" font-size="10.00">CSVGenerator</text>
</a>
</g>
</g>
<!-- Node3&#45;&gt;Node7 -->
<g id="edge6" class="edge"><title>Node3&#45;&gt;Node7</title>
<path fill="none" stroke="midnightblue" d="M278.683,-108.307C296.046,-106.428 314.075,-104.477 331.126,-102.631"/>
<polygon fill="midnightblue" stroke="midnightblue" points="278.115,-104.848 268.55,-109.404 278.868,-111.807 278.115,-104.848"/>
</g>
<!-- Node5 -->
<g id="node5" class="node"><title>Node5</title>
<g id="a_node5"><a xlink:href="classtomoBay_1_1helpers_1_1Shipping__Priority.html#a540b8555f73cab7f8082c2a6a4aad375" target="_top" xlink:title="refreshes the internal representation of the shipping type hierarchy with any changes made to the con...">
<polygon fill="white" stroke="black" points="554,-157.5 554,-187.5 685,-187.5 685,-157.5 554,-157.5"/>
<text text-anchor="start" x="562" y="-175.5" font-family="Helvetica,sans-Serif" font-size="10.00">tomoBay.helpers.Shipping</text>
<text text-anchor="middle" x="619.5" y="-164.5" font-family="Helvetica,sans-Serif" font-size="10.00">_Priority.refresh</text>
</a>
</g>
</g>
<!-- Node4&#45;&gt;Node5 -->
<g id="edge4" class="edge"><title>Node4&#45;&gt;Node5</title>
<path fill="none" stroke="midnightblue" d="M497.484,-157.448C516.175,-159.773 535.855,-162.221 553.786,-164.451"/>
<polygon fill="midnightblue" stroke="midnightblue" points="497.873,-153.97 487.518,-156.209 497.009,-160.916 497.873,-153.97"/>
</g>
<!-- Node6 -->
<g id="node6" class="node"><title>Node6</title>
<g id="a_node6"><a xlink:href="classtomoBay_1_1helpers_1_1Shipping__Priority.html#ab2c54f868e5d66f974ab70defd889b5f" target="_top" xlink:title="singleton ctor, ensures that this class is never instantiated ">
<polygon fill="white" stroke="black" points="554,-108.5 554,-138.5 685,-138.5 685,-108.5 554,-108.5"/>
<text text-anchor="start" x="562" y="-126.5" font-family="Helvetica,sans-Serif" font-size="10.00">tomoBay.helpers.Shipping</text>
<text text-anchor="middle" x="619.5" y="-115.5" font-family="Helvetica,sans-Serif" font-size="10.00">_Priority.Shipping_Priority</text>
</a>
</g>
</g>
<!-- Node4&#45;&gt;Node6 -->
<g id="edge5" class="edge"><title>Node4&#45;&gt;Node6</title>
<path fill="none" stroke="midnightblue" d="M497.484,-137.95C516.175,-135.718 535.855,-133.368 553.786,-131.227"/>
<polygon fill="midnightblue" stroke="midnightblue" points="497.032,-134.479 487.518,-139.14 497.862,-141.429 497.032,-134.479"/>
</g>
<!-- Node10 -->
<g id="node10" class="node"><title>Node10</title>
<g id="a_node10"><a xlink:href="classtomoBayTests_1_1model_1_1royalMail_1_1RoyalMailCSVGeneratorTest.html#a05dfc16869302fa4e497a69059c20301" target="_top" xlink:title="tomoBayTests.model.royal\lMail.RoyalMailCSVGeneratorTest.testSize">
<polygon fill="white" stroke="black" points="315,-0.5 315,-30.5 518,-30.5 518,-0.5 315,-0.5"/>
<text text-anchor="start" x="323" y="-18.5" font-family="Helvetica,sans-Serif" font-size="10.00">tomoBayTests.model.royal</text>
<text text-anchor="middle" x="416.5" y="-7.5" font-family="Helvetica,sans-Serif" font-size="10.00">Mail.RoyalMailCSVGeneratorTest.testSize</text>
</a>
</g>
</g>
<!-- Node9&#45;&gt;Node10 -->
<g id="edge9" class="edge"><title>Node9&#45;&gt;Node10</title>
<path fill="none" stroke="midnightblue" d="M280.804,-15.5C292.098,-15.5 303.644,-15.5 314.994,-15.5"/>
<polygon fill="midnightblue" stroke="midnightblue" points="280.516,-12.0001 270.516,-15.5 280.516,-19.0001 280.516,-12.0001"/>
</g>
</g>
</svg>
