<?xml version="1.0" encoding="UTF-8" standalone="no"?>
<!DOCTYPE svg PUBLIC "-//W3C//DTD SVG 1.1//EN"
 "http://www.w3.org/Graphics/SVG/1.1/DTD/svg11.dtd">
<!-- Generated by graphviz version 2.38.0 (20140413.2041)
 -->
<!-- Title: setDOUBLEParam Pages: 1 -->
<svg width="684pt" height="104pt"
 viewBox="0.00 0.00 684.00 103.50" xmlns="http://www.w3.org/2000/svg" xmlns:xlink="http://www.w3.org/1999/xlink">
<g id="graph0" class="graph" transform="scale(1 1) rotate(0) translate(4 99.5)">
<title>setDOUBLEParam</title>
<polygon fill="white" stroke="none" points="-4,4 -4,-99.5 680,-99.5 680,4 -4,4"/>
<!-- Node1 -->
<g id="node1" class="node"><title>Node1</title>
<polygon fill="#bfbfbf" stroke="black" points="0,-33 0,-52 100,-52 100,-33 0,-33"/>
<text text-anchor="middle" x="50" y="-40" font-family="Helvetica,sans-Serif" font-size="10.00">setDOUBLEParam</text>
</g>
<!-- Node2 -->
<g id="node2" class="node"><title>Node2</title>
<g id="a_node2"><a xlink:href="classtomoBay_1_1model_1_1dataTypes_1_1heteroTypeContainer_1_1HeteroFieldContainer.html#a988363ab964d6dc0ccb8560bef5895b6" target="_top" xlink:title="retrieve the the value of an AbstractField from this HeteroFieldContainer, the field should be of the...">
<polygon fill="white" stroke="black" points="262,-59.5 262,-89.5 454,-89.5 454,-59.5 262,-59.5"/>
<text text-anchor="start" x="270" y="-77.5" font-family="Helvetica,sans-Serif" font-size="10.00">tomoBay.model.dataTypes.hetero</text>
<text text-anchor="middle" x="358" y="-66.5" font-family="Helvetica,sans-Serif" font-size="10.00">TypeContainer.HeteroFieldContainer.get</text>
</a>
</g>
</g>
<!-- Node1&#45;&gt;Node2 -->
<g id="edge1" class="edge"><title>Node1&#45;&gt;Node2</title>
<path fill="none" stroke="midnightblue" d="M87.5815,-52.0332C102.499,-55.565 119.977,-59.2529 136,-61.5 173.487,-66.7574 214.841,-69.8936 251.538,-71.7627"/>
<polygon fill="midnightblue" stroke="midnightblue" points="251.6,-75.2697 261.757,-72.257 251.938,-68.2779 251.6,-75.2697"/>
</g>
<!-- Node4 -->
<g id="node4" class="node"><title>Node4</title>
<g id="a_node4"><a xlink:href="classtomoBay_1_1model_1_1sql_1_1framework_1_1QueryUtility.html#adf8f1fea7b649baadeb0297c41be72f5" target="_top" xlink:title="set an Integer parameter for the query object specified. ">
<polygon fill="white" stroke="black" points="136,-33 136,-52 226,-52 226,-33 136,-33"/>
<text text-anchor="middle" x="181" y="-40" font-family="Helvetica,sans-Serif" font-size="10.00">setFLOATParam</text>
</a>
</g>
</g>
<!-- Node1&#45;&gt;Node4 -->
<g id="edge3" class="edge"><title>Node1&#45;&gt;Node4</title>
<path fill="none" stroke="midnightblue" d="M100.137,-42.5C108.439,-42.5 117.101,-42.5 125.529,-42.5"/>
<polygon fill="midnightblue" stroke="midnightblue" points="125.654,-46.0001 135.653,-42.5 125.653,-39.0001 125.654,-46.0001"/>
</g>
<!-- Node5 -->
<g id="node5" class="node"><title>Node5</title>
<g id="a_node5"><a xlink:href="classtomoBay_1_1model_1_1sql_1_1framework_1_1queryTypes_1_1AbstractDBQuery.html#a41678b13e84de4335130f10cea7ae562" target="_top" xlink:title="get the statement object associated with this query ">
<polygon fill="white" stroke="black" points="270,-0.5 270,-30.5 446,-30.5 446,-0.5 270,-0.5"/>
<text text-anchor="start" x="278" y="-18.5" font-family="Helvetica,sans-Serif" font-size="10.00">tomoBay.model.sql.framework.query</text>
<text text-anchor="middle" x="358" y="-7.5" font-family="Helvetica,sans-Serif" font-size="10.00">Types.AbstractDBQuery.statement</text>
</a>
</g>
</g>
<!-- Node1&#45;&gt;Node5 -->
<g id="edge7" class="edge"><title>Node1&#45;&gt;Node5</title>
<path fill="none" stroke="midnightblue" d="M86.7232,-32.9823C101.817,-29.3617 119.653,-25.6047 136,-23.5 176.286,-18.3131 221.018,-16.047 259.642,-15.1734"/>
<polygon fill="midnightblue" stroke="midnightblue" points="259.914,-18.6689 269.843,-14.9715 259.775,-11.6702 259.914,-18.6689"/>
</g>
<!-- Node3 -->
<g id="node3" class="node"><title>Node3</title>
<g id="a_node3"><a xlink:href="classtomoBay_1_1model_1_1dataTypes_1_1heteroTypeContainer_1_1HeteroFieldContainer.html#a9dee3c01eb5ab16203e1c6820a569484" target="_top" xlink:title="performs a type check, assuming that field and type are of the same type then this method returns tru...">
<polygon fill="white" stroke="black" points="490,-54 490,-95 676,-95 676,-54 490,-54"/>
<text text-anchor="start" x="498" y="-83" font-family="Helvetica,sans-Serif" font-size="10.00">tomoBay.model.dataTypes.hetero</text>
<text text-anchor="start" x="498" y="-72" font-family="Helvetica,sans-Serif" font-size="10.00">TypeContainer.HeteroFieldContainer.is</text>
<text text-anchor="middle" x="583" y="-61" font-family="Helvetica,sans-Serif" font-size="10.00">SameType</text>
</a>
</g>
</g>
<!-- Node2&#45;&gt;Node3 -->
<g id="edge2" class="edge"><title>Node2&#45;&gt;Node3</title>
<path fill="none" stroke="midnightblue" d="M454.219,-74.5C462.728,-74.5 471.365,-74.5 479.929,-74.5"/>
<polygon fill="midnightblue" stroke="midnightblue" points="479.934,-78.0001 489.934,-74.5 479.934,-71.0001 479.934,-78.0001"/>
</g>
<!-- Node4&#45;&gt;Node2 -->
<g id="edge6" class="edge"><title>Node4&#45;&gt;Node2</title>
<path fill="none" stroke="midnightblue" d="M226.16,-50.575C237.94,-52.7291 251.123,-55.1396 264.462,-57.5787"/>
<polygon fill="midnightblue" stroke="midnightblue" points="264.206,-61.0899 274.672,-59.4458 265.465,-54.2041 264.206,-61.0899"/>
</g>
<!-- Node4&#45;&gt;Node5 -->
<g id="edge4" class="edge"><title>Node4&#45;&gt;Node5</title>
<path fill="none" stroke="midnightblue" d="M226.16,-35.6868C236.602,-34.0757 248.145,-32.2947 259.923,-30.4776"/>
<polygon fill="midnightblue" stroke="midnightblue" points="260.503,-33.9296 269.852,-28.9456 259.436,-27.0114 260.503,-33.9296"/>
</g>
<!-- Node6 -->
<g id="node6" class="node"><title>Node6</title>
<g id="a_node6"><a xlink:href="classtomoBay_1_1model_1_1sql_1_1framework_1_1queryTypes_1_1AbstractDBQuery.html#ae8a5c5f1701ee77ef658050c8345d518" target="_top" xlink:title="Used by derived classes to define the Query string to be used in the query. ">
<polygon fill="white" stroke="black" points="495,-0.5 495,-30.5 671,-30.5 671,-0.5 495,-0.5"/>
<text text-anchor="start" x="503" y="-18.5" font-family="Helvetica,sans-Serif" font-size="10.00">tomoBay.model.sql.framework.query</text>
<text text-anchor="middle" x="583" y="-7.5" font-family="Helvetica,sans-Serif" font-size="10.00">Types.AbstractDBQuery.queryString</text>
</a>
</g>
</g>
<!-- Node5&#45;&gt;Node6 -->
<g id="edge5" class="edge"><title>Node5&#45;&gt;Node6</title>
<path fill="none" stroke="midnightblue" d="M446.176,-15.5C458.803,-15.5 471.868,-15.5 484.678,-15.5"/>
<polygon fill="midnightblue" stroke="midnightblue" points="484.885,-19.0001 494.885,-15.5 484.885,-12.0001 484.885,-19.0001"/>
</g>
</g>
</svg>
