<?xml version="1.0" encoding="UTF-8" standalone="no"?>
<!DOCTYPE svg PUBLIC "-//W3C//DTD SVG 1.1//EN"
 "http://www.w3.org/Graphics/SVG/1.1/DTD/svg11.dtd">
<!-- Generated by graphviz version 2.38.0 (20140413.2041)
 -->
<!-- Title: AbstractAPIcall Pages: 1 -->
<!--zoomable 259 -->
<svg id="main" version="1.1" xmlns="http://www.w3.org/2000/svg" xmlns:xlink="http://www.w3.org/1999/xlink" xml:space="preserve" onload="init(evt)">
<style type="text/css"><![CDATA[
.edge:hover path { stroke: red; }
.edge:hover polygon { stroke: red; fill: red; }
]]></style>
<script type="text/javascript"><![CDATA[
var edges = document.getElementsByTagName('g');
if (edges && edges.length) {
  for (var i=0;i<edges.length;i++) {
    if (edges[i].id.substr(0,4)=='edge') {
      edges[i].setAttribute('class','edge');
    }
  }
}
]]></script>
        <defs>
                <circle id="rim" cx="0" cy="0" r="7"/>
                <circle id="rim2" cx="0" cy="0" r="3.5"/>
                <g id="zoomPlus">
                        <use xlink:href="#rim" fill="#404040">
                                <set attributeName="fill" to="#808080" begin="zoomplus.mouseover" end="zoomplus.mouseout"/>
                        </use>
                        <path d="M-4,0h8M0,-4v8" fill="none" stroke="white" stroke-width="1.5" pointer-events="none"/>
                </g>
                <g id="zoomMin">
                        <use xlink:href="#rim" fill="#404040">
                                <set attributeName="fill" to="#808080" begin="zoomminus.mouseover" end="zoomminus.mouseout"/>
                        </use>
                        <path d="M-4,0h8" fill="none" stroke="white" stroke-width="1.5" pointer-events="none"/>
                </g>
                <g id="dirArrow">
                        <path fill="none" stroke="white" stroke-width="1.5" d="M0,-3.0v7 M-2.5,-0.5L0,-3.0L2.5,-0.5"/>
                </g>
               <g id="resetDef">
                       <use xlink:href="#rim2" fill="#404040">
                               <set attributeName="fill" to="#808080" begin="reset.mouseover" end="reset.mouseout"/>
                       </use>
               </g>
        </defs>

<script type="text/javascript">
var viewWidth = 559;
var viewHeight = 259;
var sectionId = 'dynsection-0';
</script>
<script xlink:href="svgpan.js"/>
<svg id="graph" class="graph">
<g id="viewport">
<title>AbstractAPIcall</title>
<polygon fill="white" stroke="none" points="-4,4 -4,-255 555,-255 555,4 -4,4"/>
<!-- Node1 -->
<g id="node1" class="node"><title>Node1</title>
<polygon fill="#bfbfbf" stroke="black" points="193,-182.5 193,-250.5 292,-250.5 292,-182.5 193,-182.5"/>
<text text-anchor="middle" x="242.5" y="-238.5" font-family="Helvetica,sans-Serif" font-size="10.00">AbstractAPIcall</text>
<polyline fill="none" stroke="black" points="193,-231.5 292,-231.5 "/>
<text text-anchor="start" x="201" y="-219.5" font-family="Helvetica,sans-Serif" font-size="10.00"># usrToken_M</text>
<text text-anchor="start" x="201" y="-208.5" font-family="Helvetica,sans-Serif" font-size="10.00"># server_M</text>
<polyline fill="none" stroke="black" points="193,-201.5 292,-201.5 "/>
<text text-anchor="start" x="201" y="-189.5" font-family="Helvetica,sans-Serif" font-size="10.00"># AbstractAPIcall()</text>
</g>
<!-- Node2 -->
<g id="node2" class="node"><title>Node2</title>
<g id="a_node2"><a xlink:href="classtomoBay_1_1model_1_1eBayAPI_1_1GetSessionID.html" target="_top" xlink:title="{GetSessionID\n||+ GetSessionID()\l+ call()\l}">
<polygon fill="white" stroke="black" points="0,-39 0,-107 93,-107 93,-39 0,-39"/>
<text text-anchor="middle" x="46.5" y="-95" font-family="Helvetica,sans-Serif" font-size="10.00">GetSessionID</text>
<polyline fill="none" stroke="black" points="0,-88 93,-88 "/>
<text text-anchor="middle" x="46.5" y="-76" font-family="Helvetica,sans-Serif" font-size="10.00"> </text>
<polyline fill="none" stroke="black" points="0,-69 93,-69 "/>
<text text-anchor="start" x="8" y="-57" font-family="Helvetica,sans-Serif" font-size="10.00">+ GetSessionID()</text>
<text text-anchor="start" x="8" y="-46" font-family="Helvetica,sans-Serif" font-size="10.00">+ call()</text>
</a>
</g>
</g>
<!-- Node1&#45;&gt;Node2 -->
<g id="edge1" class="edge"><title>Node1&#45;&gt;Node2</title>
<path fill="none" stroke="midnightblue" d="M183.633,-193.736C156.869,-182.094 125.824,-166.003 101.5,-146 88.2571,-135.11 76.3205,-120.441 66.9785,-107.185"/>
<polygon fill="none" stroke="midnightblue" points="182.33,-196.985 192.903,-197.667 185.063,-190.541 182.33,-196.985"/>
</g>
<!-- Node3 -->
<g id="node3" class="node"><title>Node3</title>
<g id="a_node3"><a xlink:href="classtomoBay_1_1model_1_1eBayAPI_1_1ItemCall.html" target="_top" xlink:title="This class represents an eBay API call requesting Item Data. ">
<polygon fill="white" stroke="black" points="111,-33.5 111,-112.5 182,-112.5 182,-33.5 111,-33.5"/>
<text text-anchor="middle" x="146.5" y="-100.5" font-family="Helvetica,sans-Serif" font-size="10.00">ItemCall</text>
<polyline fill="none" stroke="black" points="111,-93.5 182,-93.5 "/>
<text text-anchor="start" x="119" y="-81.5" font-family="Helvetica,sans-Serif" font-size="10.00">~ item_M</text>
<text text-anchor="start" x="119" y="-70.5" font-family="Helvetica,sans-Serif" font-size="10.00">~ itemreq_M</text>
<polyline fill="none" stroke="black" points="111,-63.5 182,-63.5 "/>
<text text-anchor="start" x="119" y="-51.5" font-family="Helvetica,sans-Serif" font-size="10.00">+ ItemCall()</text>
<text text-anchor="start" x="119" y="-40.5" font-family="Helvetica,sans-Serif" font-size="10.00">+ call()</text>
</a>
</g>
</g>
<!-- Node1&#45;&gt;Node3 -->
<g id="edge2" class="edge"><title>Node1&#45;&gt;Node3</title>
<path fill="none" stroke="midnightblue" d="M211.316,-174.062C204.648,-164.91 197.738,-155.199 191.5,-146 184.303,-135.386 176.801,-123.67 170.031,-112.828"/>
<polygon fill="none" stroke="midnightblue" points="208.608,-176.287 217.346,-182.278 214.251,-172.145 208.608,-176.287"/>
</g>
<!-- Node4 -->
<g id="node4" class="node"><title>Node4</title>
<g id="a_node4"><a xlink:href="classtomoBay_1_1model_1_1eBayAPI_1_1ListingsCall.html" target="_top" xlink:title="This represents an eBay API call requesting information about a listing. ">
<polygon fill="white" stroke="black" points="200.5,-39 200.5,-107 284.5,-107 284.5,-39 200.5,-39"/>
<text text-anchor="middle" x="242.5" y="-95" font-family="Helvetica,sans-Serif" font-size="10.00">ListingsCall</text>
<polyline fill="none" stroke="black" points="200.5,-88 284.5,-88 "/>
<text text-anchor="start" x="208.5" y="-76" font-family="Helvetica,sans-Serif" font-size="10.00">&#45; listingsCall_M</text>
<polyline fill="none" stroke="black" points="200.5,-69 284.5,-69 "/>
<text text-anchor="start" x="208.5" y="-57" font-family="Helvetica,sans-Serif" font-size="10.00">+ ListingsCall()</text>
<text text-anchor="start" x="208.5" y="-46" font-family="Helvetica,sans-Serif" font-size="10.00">+ call()</text>
</a>
</g>
</g>
<!-- Node1&#45;&gt;Node4 -->
<g id="edge3" class="edge"><title>Node1&#45;&gt;Node4</title>
<path fill="none" stroke="midnightblue" d="M242.5,-172.143C242.5,-151.338 242.5,-126.796 242.5,-107.458"/>
<polygon fill="none" stroke="midnightblue" points="239,-172.325 242.5,-182.325 246,-172.325 239,-172.325"/>
</g>
<!-- Node5 -->
<g id="node5" class="node"><title>Node5</title>
<g id="a_node5"><a xlink:href="classtomoBay_1_1model_1_1eBayAPI_1_1OrdersCall.html" target="_top" xlink:title="This represents an eBay API call that requests information about an order. ">
<polygon fill="white" stroke="black" points="303,-0.5 303,-145.5 404,-145.5 404,-0.5 303,-0.5"/>
<text text-anchor="middle" x="353.5" y="-133.5" font-family="Helvetica,sans-Serif" font-size="10.00">OrdersCall</text>
<polyline fill="none" stroke="black" points="303,-126.5 404,-126.5 "/>
<text text-anchor="start" x="311" y="-114.5" font-family="Helvetica,sans-Serif" font-size="10.00">~ log</text>
<text text-anchor="start" x="311" y="-103.5" font-family="Helvetica,sans-Serif" font-size="10.00">&#45; order_M</text>
<text text-anchor="start" x="311" y="-92.5" font-family="Helvetica,sans-Serif" font-size="10.00">&#45; ordreq_M</text>
<text text-anchor="start" x="311" y="-81.5" font-family="Helvetica,sans-Serif" font-size="10.00">&#45; PAGE_NO_MIN</text>
<polyline fill="none" stroke="black" points="303,-74.5 404,-74.5 "/>
<text text-anchor="start" x="311" y="-62.5" font-family="Helvetica,sans-Serif" font-size="10.00">+ OrdersCall()</text>
<text text-anchor="start" x="311" y="-51.5" font-family="Helvetica,sans-Serif" font-size="10.00">+ call()</text>
<text text-anchor="start" x="311" y="-40.5" font-family="Helvetica,sans-Serif" font-size="10.00">+ call()</text>
<text text-anchor="start" x="311" y="-29.5" font-family="Helvetica,sans-Serif" font-size="10.00">&#45; setUpCall()</text>
<text text-anchor="start" x="311" y="-18.5" font-family="Helvetica,sans-Serif" font-size="10.00">&#45; setUpPagination()</text>
<text text-anchor="start" x="311" y="-7.5" font-family="Helvetica,sans-Serif" font-size="10.00">&#45; reformResults()</text>
</a>
</g>
</g>
<!-- Node1&#45;&gt;Node5 -->
<g id="edge4" class="edge"><title>Node1&#45;&gt;Node5</title>
<path fill="none" stroke="midnightblue" d="M274.772,-174.36C283.607,-163.098 293.4,-150.613 302.993,-138.385"/>
<polygon fill="none" stroke="midnightblue" points="271.943,-172.296 268.525,-182.325 277.45,-176.617 271.943,-172.296"/>
</g>
<!-- Node6 -->
<g id="node6" class="node"><title>Node6</title>
<g id="a_node6"><a xlink:href="classtomoBay_1_1model_1_1eBayAPI_1_1OrderTransactionsCall.html" target="_top" xlink:title="Copyright(C) 2015 Jan P.C. ">
<polygon fill="white" stroke="black" points="422,-39 422,-107 551,-107 551,-39 422,-39"/>
<text text-anchor="middle" x="486.5" y="-95" font-family="Helvetica,sans-Serif" font-size="10.00">OrderTransactionsCall</text>
<polyline fill="none" stroke="black" points="422,-88 551,-88 "/>
<text text-anchor="start" x="430" y="-76" font-family="Helvetica,sans-Serif" font-size="10.00">&#45; call</text>
<polyline fill="none" stroke="black" points="422,-69 551,-69 "/>
<text text-anchor="start" x="430" y="-57" font-family="Helvetica,sans-Serif" font-size="10.00">+ OrderTransactionsCall()</text>
<text text-anchor="start" x="430" y="-46" font-family="Helvetica,sans-Serif" font-size="10.00">+ call()</text>
</a>
</g>
</g>
<!-- Node1&#45;&gt;Node6 -->
<g id="edge5" class="edge"><title>Node1&#45;&gt;Node6</title>
<path fill="none" stroke="midnightblue" d="M302.04,-197.759C336.269,-186.022 379.152,-168.616 413.5,-146 429.854,-135.232 445.632,-120.424 458.31,-107.037"/>
<polygon fill="none" stroke="midnightblue" points="300.54,-194.57 292.173,-201.069 302.766,-201.207 300.54,-194.57"/>
</g>
</g>
</svg>
        <g id="navigator" transform="translate(0 0)" fill="#404254">
                <rect fill="#f2f5e9" fill-opacity="0.5" stroke="#606060" stroke-width=".5" x="0" y="0" width="60" height="60"/>
                <use id="zoomplus" xlink:href="#zoomPlus" x="17" y="9" onmousedown="handleZoom(evt,'in')"/>
                <use id="zoomminus" xlink:href="#zoomMin" x="42" y="9" onmousedown="handleZoom(evt,'out')"/>
                <use id="reset" xlink:href="#resetDef" x="30" y="36" onmousedown="handleReset()"/>
                <g id="arrowUp" xlink:href="#dirArrow" transform="translate(30 24)" onmousedown="handlePan(0,-1)">
                  <use xlink:href="#rim" fill="#404040">
                        <set attributeName="fill" to="#808080" begin="arrowUp.mouseover" end="arrowUp.mouseout"/>
                  </use>
                  <path fill="none" stroke="white" stroke-width="1.5" d="M0,-3.0v7 M-2.5,-0.5L0,-3.0L2.5,-0.5"/>
                </g>
                <g id="arrowRight" xlink:href="#dirArrow" transform="rotate(90) translate(36 -43)" onmousedown="handlePan(1,0)">
                  <use xlink:href="#rim" fill="#404040">
                        <set attributeName="fill" to="#808080" begin="arrowRight.mouseover" end="arrowRight.mouseout"/>
                  </use>
                  <path fill="none" stroke="white" stroke-width="1.5" d="M0,-3.0v7 M-2.5,-0.5L0,-3.0L2.5,-0.5"/>
                </g>
                <g id="arrowDown" xlink:href="#dirArrow" transform="rotate(180) translate(-30 -48)" onmousedown="handlePan(0,1)">
                  <use xlink:href="#rim" fill="#404040">
                        <set attributeName="fill" to="#808080" begin="arrowDown.mouseover" end="arrowDown.mouseout"/>
                  </use>
                  <path fill="none" stroke="white" stroke-width="1.5" d="M0,-3.0v7 M-2.5,-0.5L0,-3.0L2.5,-0.5"/>
                </g>
                <g id="arrowLeft" xlink:href="#dirArrow" transform="rotate(270) translate(-36 17)" onmousedown="handlePan(-1,0)">
                  <use xlink:href="#rim" fill="#404040">
                        <set attributeName="fill" to="#808080" begin="arrowLeft.mouseover" end="arrowLeft.mouseout"/>
                  </use>
                  <path fill="none" stroke="white" stroke-width="1.5" d="M0,-3.0v7 M-2.5,-0.5L0,-3.0L2.5,-0.5"/>
                </g>
        </g>
        <svg viewBox="0 0 15 15" width="100%" height="30px" preserveAspectRatio="xMaxYMin meet">
         <g id="arrow_out" transform="scale(0.3 0.3)">
          <a xlink:href="classtomoBay_1_1model_1_1eBayAPI_1_1AbstractAPIcall__inherit__graph_org.svg" target="_base">
           <rect id="button" ry="5" rx="5" y="6" x="6" height="38" width="38"
                fill="#f2f5e9" fill-opacity="0.5" stroke="#606060" stroke-width="1.0"/>
           <path id="arrow"
             d="M 11.500037,31.436501 C 11.940474,20.09759 22.043105,11.32322 32.158766,21.979434 L 37.068811,17.246167 C 37.068811,17.246167 37.088388,32 37.088388,32 L 22.160133,31.978069 C 22.160133,31.978069 26.997745,27.140456 26.997745,27.140456 C 18.528582,18.264221 13.291696,25.230495 11.500037,31.436501 z"
             style="fill:#404040;"/>
          </a>
         </g>
        </svg>
</svg>
