<?xml version="1.0" encoding="UTF-8" standalone="no"?>
<!DOCTYPE svg PUBLIC "-//W3C//DTD SVG 1.1//EN"
 "http://www.w3.org/Graphics/SVG/1.1/DTD/svg11.dtd">
<!-- Generated by graphviz version 2.38.0 (20140413.2041)
 -->
<!-- Title: Part Pages: 1 -->
<!--zoomable 507 -->
<svg id="main" version="1.1" xmlns="http://www.w3.org/2000/svg" xmlns:xlink="http://www.w3.org/1999/xlink" xml:space="preserve" onload="init(evt)">
<style type="text/css"><![CDATA[
.edge:hover path { stroke: red; }
.edge:hover polygon { stroke: red; fill: red; }
]]></style>
<script type="text/javascript"><![CDATA[
var edges = document.getElementsByTagName('g');
if (edges && edges.length) {
  for (var i=0;i<edges.length;i++) {
    if (edges[i].id.substr(0,4)=='edge') {
      edges[i].setAttribute('class','edge');
    }
  }
}
]]></script>
        <defs>
                <circle id="rim" cx="0" cy="0" r="7"/>
                <circle id="rim2" cx="0" cy="0" r="3.5"/>
                <g id="zoomPlus">
                        <use xlink:href="#rim" fill="#404040">
                                <set attributeName="fill" to="#808080" begin="zoomplus.mouseover" end="zoomplus.mouseout"/>
                        </use>
                        <path d="M-4,0h8M0,-4v8" fill="none" stroke="white" stroke-width="1.5" pointer-events="none"/>
                </g>
                <g id="zoomMin">
                        <use xlink:href="#rim" fill="#404040">
                                <set attributeName="fill" to="#808080" begin="zoomminus.mouseover" end="zoomminus.mouseout"/>
                        </use>
                        <path d="M-4,0h8" fill="none" stroke="white" stroke-width="1.5" pointer-events="none"/>
                </g>
                <g id="dirArrow">
                        <path fill="none" stroke="white" stroke-width="1.5" d="M0,-3.0v7 M-2.5,-0.5L0,-3.0L2.5,-0.5"/>
                </g>
               <g id="resetDef">
                       <use xlink:href="#rim2" fill="#404040">
                               <set attributeName="fill" to="#808080" begin="reset.mouseover" end="reset.mouseout"/>
                       </use>
               </g>
        </defs>

<script type="text/javascript">
var viewWidth = 342;
var viewHeight = 507;
var sectionId = 'dynsection-0';
</script>
<script xlink:href="svgpan.js"/>
<svg id="graph" class="graph">
<g id="viewport">
<title>Part</title>
<polygon fill="white" stroke="none" points="-4,4 -4,-503 338,-503 338,4 -4,4"/>
<!-- Node1 -->
<g id="node1" class="node"><title>Node1</title>
<polygon fill="#bfbfbf" stroke="black" points="149.5,-0.5 149.5,-145.5 241.5,-145.5 241.5,-0.5 149.5,-0.5"/>
<text text-anchor="middle" x="195.5" y="-133.5" font-family="Helvetica,sans-Serif" font-size="10.00">Part</text>
<polyline fill="none" stroke="black" points="149.5,-126.5 241.5,-126.5 "/>
<text text-anchor="start" x="157.5" y="-114.5" font-family="Helvetica,sans-Serif" font-size="10.00">&#45; cost_M</text>
<text text-anchor="start" x="157.5" y="-103.5" font-family="Helvetica,sans-Serif" font-size="10.00">&#45; BADCHAR</text>
<polyline fill="none" stroke="black" points="149.5,-96.5 241.5,-96.5 "/>
<text text-anchor="start" x="157.5" y="-84.5" font-family="Helvetica,sans-Serif" font-size="10.00">+ Part()</text>
<text text-anchor="start" x="157.5" y="-73.5" font-family="Helvetica,sans-Serif" font-size="10.00">+ partNo()</text>
<text text-anchor="start" x="157.5" y="-62.5" font-family="Helvetica,sans-Serif" font-size="10.00">+ brand()</text>
<text text-anchor="start" x="157.5" y="-51.5" font-family="Helvetica,sans-Serif" font-size="10.00">+ description()</text>
<text text-anchor="start" x="157.5" y="-40.5" font-family="Helvetica,sans-Serif" font-size="10.00">+ cost()</text>
<text text-anchor="start" x="157.5" y="-29.5" font-family="Helvetica,sans-Serif" font-size="10.00">&#45; getCost()</text>
<text text-anchor="start" x="157.5" y="-18.5" font-family="Helvetica,sans-Serif" font-size="10.00">&#45; getDescription()</text>
<text text-anchor="start" x="157.5" y="-7.5" font-family="Helvetica,sans-Serif" font-size="10.00">&#45; badChar()</text>
</g>
<!-- Node2 -->
<g id="node2" class="node"><title>Node2</title>
<g id="a_node2"><a xlink:href="classtomoBay_1_1model_1_1winstock_1_1Stock.html" target="_top" xlink:title="This class is responsible for querying stock levels on winstock. ">
<polygon fill="white" stroke="black" points="2.5,-193.5 2.5,-360.5 126.5,-360.5 126.5,-193.5 2.5,-193.5"/>
<text text-anchor="middle" x="64.5" y="-348.5" font-family="Helvetica,sans-Serif" font-size="10.00">Stock</text>
<polyline fill="none" stroke="black" points="2.5,-341.5 126.5,-341.5 "/>
<text text-anchor="start" x="10.5" y="-329.5" font-family="Helvetica,sans-Serif" font-size="10.00">+ ERROR</text>
<text text-anchor="start" x="10.5" y="-318.5" font-family="Helvetica,sans-Serif" font-size="10.00">&#45; currentPartNo_M</text>
<text text-anchor="start" x="10.5" y="-307.5" font-family="Helvetica,sans-Serif" font-size="10.00">&#45; currentBrandCode_M</text>
<text text-anchor="start" x="10.5" y="-296.5" font-family="Helvetica,sans-Serif" font-size="10.00">&#45; HTTP_HEADER</text>
<text text-anchor="start" x="10.5" y="-285.5" font-family="Helvetica,sans-Serif" font-size="10.00">&#45; URL_PT1_M</text>
<text text-anchor="start" x="10.5" y="-274.5" font-family="Helvetica,sans-Serif" font-size="10.00">&#45; URL_PT2_M</text>
<polyline fill="none" stroke="black" points="2.5,-267.5 126.5,-267.5 "/>
<text text-anchor="start" x="10.5" y="-255.5" font-family="Helvetica,sans-Serif" font-size="10.00">+ Stock()</text>
<text text-anchor="start" x="10.5" y="-244.5" font-family="Helvetica,sans-Serif" font-size="10.00">+ requestStockLevel()</text>
<text text-anchor="start" x="10.5" y="-233.5" font-family="Helvetica,sans-Serif" font-size="10.00">+ requestDescription()</text>
<text text-anchor="start" x="10.5" y="-222.5" font-family="Helvetica,sans-Serif" font-size="10.00">+ requestLastCost()</text>
<text text-anchor="start" x="10.5" y="-211.5" font-family="Helvetica,sans-Serif" font-size="10.00">&#45; queryWinstockURL()</text>
<text text-anchor="start" x="10.5" y="-200.5" font-family="Helvetica,sans-Serif" font-size="10.00">&#45; postFormatXMLString()</text>
</a>
</g>
</g>
<!-- Node2&#45;&gt;Node1 -->
<g id="edge1" class="edge"><title>Node2&#45;&gt;Node1</title>
<path fill="none" stroke="#404040" d="M118.161,-193.256C126.275,-180.743 134.641,-167.844 142.737,-155.361"/>
<polygon fill="none" stroke="#404040" points="142.932,-155.058 142.841,-147.848 149.462,-144.99 149.553,-152.201 142.932,-155.058"/>
<text text-anchor="middle" x="164" y="-167" font-family="Helvetica,sans-Serif" font-size="10.00"> &#45;winstock_M</text>
</g>
<!-- Node3 -->
<g id="node3" class="node"><title>Node3</title>
<g id="a_node3"><a xlink:href="classtomoBay_1_1model_1_1net_1_1HttpResponse.html" target="_top" xlink:title="Copyright(C) 2015 Jan P.C. ">
<polygon fill="white" stroke="black" points="0,-408.5 0,-498.5 129,-498.5 129,-408.5 0,-408.5"/>
<text text-anchor="middle" x="64.5" y="-486.5" font-family="Helvetica,sans-Serif" font-size="10.00">HttpResponse</text>
<polyline fill="none" stroke="black" points="0,-479.5 129,-479.5 "/>
<text text-anchor="start" x="8" y="-467.5" font-family="Helvetica,sans-Serif" font-size="10.00">&#45; responseCode_M</text>
<text text-anchor="start" x="8" y="-456.5" font-family="Helvetica,sans-Serif" font-size="10.00">&#45; responseMessage_M</text>
<polyline fill="none" stroke="black" points="0,-449.5 129,-449.5 "/>
<text text-anchor="start" x="8" y="-437.5" font-family="Helvetica,sans-Serif" font-size="10.00">+ HttpResponse()</text>
<text text-anchor="start" x="8" y="-426.5" font-family="Helvetica,sans-Serif" font-size="10.00">+ getResponseCode()</text>
<text text-anchor="start" x="8" y="-415.5" font-family="Helvetica,sans-Serif" font-size="10.00">+ getResponseMessage()</text>
</a>
</g>
</g>
<!-- Node3&#45;&gt;Node2 -->
<g id="edge2" class="edge"><title>Node3&#45;&gt;Node2</title>
<path fill="none" stroke="#404040" d="M64.5,-408.466C64.5,-397.562 64.5,-385.453 64.5,-373.133"/>
<polygon fill="none" stroke="#404040" points="64.5001,-372.778 60.5,-366.779 64.5,-360.778 68.5,-366.778 64.5001,-372.778"/>
<text text-anchor="middle" x="94.5" y="-382" font-family="Helvetica,sans-Serif" font-size="10.00"> &#45;response_M</text>
</g>
<!-- Node4 -->
<g id="node4" class="node"><title>Node4</title>
<polygon fill="white" stroke="#bfbfbf" points="145,-243 145,-311 334,-311 334,-243 145,-243"/>
<text text-anchor="start" x="153" y="-299" font-family="Helvetica,sans-Serif" font-size="10.00">Map&lt; tomoBay.model.dataTypes.order.</text>
<text text-anchor="middle" x="239.5" y="-288" font-family="Helvetica,sans-Serif" font-size="10.00">Part.stringTypes, String &gt;</text>
<polyline fill="none" stroke="#bfbfbf" points="145,-281 334,-281 "/>
<text text-anchor="middle" x="239.5" y="-269" font-family="Helvetica,sans-Serif" font-size="10.00"> </text>
<polyline fill="none" stroke="#bfbfbf" points="145,-262 334,-262 "/>
<text text-anchor="middle" x="239.5" y="-250" font-family="Helvetica,sans-Serif" font-size="10.00"> </text>
</g>
<!-- Node4&#45;&gt;Node1 -->
<g id="edge3" class="edge"><title>Node4&#45;&gt;Node1</title>
<path fill="none" stroke="#404040" d="M232.234,-242.644C227.17,-219.396 220.179,-187.3 213.654,-157.342"/>
<polygon fill="none" stroke="#404040" points="213.639,-157.276 208.454,-152.265 211.085,-145.551 216.271,-150.562 213.639,-157.276"/>
<text text-anchor="middle" x="261.5" y="-167" font-family="Helvetica,sans-Serif" font-size="10.00"> &#45;stringProperties_M</text>
</g>
</g>
</svg>
        <g id="navigator" transform="translate(0 0)" fill="#404254">
                <rect fill="#f2f5e9" fill-opacity="0.5" stroke="#606060" stroke-width=".5" x="0" y="0" width="60" height="60"/>
                <use id="zoomplus" xlink:href="#zoomPlus" x="17" y="9" onmousedown="handleZoom(evt,'in')"/>
                <use id="zoomminus" xlink:href="#zoomMin" x="42" y="9" onmousedown="handleZoom(evt,'out')"/>
                <use id="reset" xlink:href="#resetDef" x="30" y="36" onmousedown="handleReset()"/>
                <g id="arrowUp" xlink:href="#dirArrow" transform="translate(30 24)" onmousedown="handlePan(0,-1)">
                  <use xlink:href="#rim" fill="#404040">
                        <set attributeName="fill" to="#808080" begin="arrowUp.mouseover" end="arrowUp.mouseout"/>
                  </use>
                  <path fill="none" stroke="white" stroke-width="1.5" d="M0,-3.0v7 M-2.5,-0.5L0,-3.0L2.5,-0.5"/>
                </g>
                <g id="arrowRight" xlink:href="#dirArrow" transform="rotate(90) translate(36 -43)" onmousedown="handlePan(1,0)">
                  <use xlink:href="#rim" fill="#404040">
                        <set attributeName="fill" to="#808080" begin="arrowRight.mouseover" end="arrowRight.mouseout"/>
                  </use>
                  <path fill="none" stroke="white" stroke-width="1.5" d="M0,-3.0v7 M-2.5,-0.5L0,-3.0L2.5,-0.5"/>
                </g>
                <g id="arrowDown" xlink:href="#dirArrow" transform="rotate(180) translate(-30 -48)" onmousedown="handlePan(0,1)">
                  <use xlink:href="#rim" fill="#404040">
                        <set attributeName="fill" to="#808080" begin="arrowDown.mouseover" end="arrowDown.mouseout"/>
                  </use>
                  <path fill="none" stroke="white" stroke-width="1.5" d="M0,-3.0v7 M-2.5,-0.5L0,-3.0L2.5,-0.5"/>
                </g>
                <g id="arrowLeft" xlink:href="#dirArrow" transform="rotate(270) translate(-36 17)" onmousedown="handlePan(-1,0)">
                  <use xlink:href="#rim" fill="#404040">
                        <set attributeName="fill" to="#808080" begin="arrowLeft.mouseover" end="arrowLeft.mouseout"/>
                  </use>
                  <path fill="none" stroke="white" stroke-width="1.5" d="M0,-3.0v7 M-2.5,-0.5L0,-3.0L2.5,-0.5"/>
                </g>
        </g>
        <svg viewBox="0 0 15 15" width="100%" height="30px" preserveAspectRatio="xMaxYMin meet">
         <g id="arrow_out" transform="scale(0.3 0.3)">
          <a xlink:href="classtomoBay_1_1model_1_1dataTypes_1_1order_1_1Part__coll__graph_org.svg" target="_base">
           <rect id="button" ry="5" rx="5" y="6" x="6" height="38" width="38"
                fill="#f2f5e9" fill-opacity="0.5" stroke="#606060" stroke-width="1.0"/>
           <path id="arrow"
             d="M 11.500037,31.436501 C 11.940474,20.09759 22.043105,11.32322 32.158766,21.979434 L 37.068811,17.246167 C 37.068811,17.246167 37.088388,32 37.088388,32 L 22.160133,31.978069 C 22.160133,31.978069 26.997745,27.140456 26.997745,27.140456 C 18.528582,18.264221 13.291696,25.230495 11.500037,31.436501 z"
             style="fill:#404040;"/>
          </a>
         </g>
        </svg>
</svg>
