<?xml version="1.0" encoding="UTF-8" standalone="no"?>
<!DOCTYPE svg PUBLIC "-//W3C//DTD SVG 1.1//EN"
 "http://www.w3.org/Graphics/SVG/1.1/DTD/svg11.dtd">
<!-- Generated by graphviz version 2.38.0 (20140413.2041)
 -->
<!-- Title: ConnectionManager Pages: 1 -->
<svg width="209pt" height="193pt"
 viewBox="0.00 0.00 209.00 193.00" xmlns="http://www.w3.org/2000/svg" xmlns:xlink="http://www.w3.org/1999/xlink">
<g id="graph0" class="graph" transform="scale(1 1) rotate(0) translate(4 189)">
<title>ConnectionManager</title>
<polygon fill="white" stroke="none" points="-4,4 -4,-189 205,-189 205,4 -4,4"/>
<!-- Node1 -->
<g id="node1" class="node"><title>Node1</title>
<polygon fill="#bfbfbf" stroke="black" points="7,-0.5 7,-79.5 123,-79.5 123,-0.5 7,-0.5"/>
<text text-anchor="middle" x="65" y="-67.5" font-family="Helvetica,sans-Serif" font-size="10.00">ConnectionManager</text>
<polyline fill="none" stroke="black" points="7,-60.5 123,-60.5 "/>
<text text-anchor="middle" x="65" y="-48.5" font-family="Helvetica,sans-Serif" font-size="10.00"> </text>
<polyline fill="none" stroke="black" points="7,-41.5 123,-41.5 "/>
<text text-anchor="start" x="15" y="-29.5" font-family="Helvetica,sans-Serif" font-size="10.00">+ getConnection()</text>
<text text-anchor="start" x="15" y="-18.5" font-family="Helvetica,sans-Serif" font-size="10.00">+ instance()</text>
<text text-anchor="start" x="15" y="-7.5" font-family="Helvetica,sans-Serif" font-size="10.00">&#45; ConnectionManager()</text>
</g>
<!-- Node1&#45;&gt;Node1 -->
<g id="edge2" class="edge"><title>Node1&#45;&gt;Node1</title>
<path fill="none" stroke="#404040" d="M123.312,-50.9431C133.726,-49.5208 141,-45.873 141,-40 141,-36.7882 138.824,-34.2419 135.15,-32.3611"/>
<polygon fill="none" stroke="#404040" points="134.87,-32.2831 128.015,-34.5227 123.312,-29.0569 130.166,-26.8173 134.87,-32.2831"/>
<text text-anchor="middle" x="171" y="-37.5" font-family="Helvetica,sans-Serif" font-size="10.00"> &#45;connMan_M</text>
</g>
<!-- Node2 -->
<g id="node2" class="node"><title>Node2</title>
<polygon fill="white" stroke="#bfbfbf" points="0,-127.5 0,-184.5 130,-184.5 130,-127.5 0,-127.5"/>
<text text-anchor="middle" x="65" y="-172.5" font-family="Helvetica,sans-Serif" font-size="10.00">ComboPooledDataSource</text>
<polyline fill="none" stroke="#bfbfbf" points="0,-165.5 130,-165.5 "/>
<text text-anchor="middle" x="65" y="-153.5" font-family="Helvetica,sans-Serif" font-size="10.00"> </text>
<polyline fill="none" stroke="#bfbfbf" points="0,-146.5 130,-146.5 "/>
<text text-anchor="middle" x="65" y="-134.5" font-family="Helvetica,sans-Serif" font-size="10.00"> </text>
</g>
<!-- Node2&#45;&gt;Node1 -->
<g id="edge1" class="edge"><title>Node2&#45;&gt;Node1</title>
<path fill="none" stroke="#404040" d="M65,-127.404C65,-116.63 65,-103.926 65,-91.6231"/>
<polygon fill="none" stroke="#404040" points="65.0001,-91.5406 61,-85.5406 65,-79.5406 69,-85.5405 65.0001,-91.5406"/>
<text text-anchor="middle" x="79" y="-101" font-family="Helvetica,sans-Serif" font-size="10.00"> &#45;cpds</text>
</g>
</g>
</svg>
