<?xml version="1.0" encoding="UTF-8" standalone="no"?>
<!DOCTYPE svg PUBLIC "-//W3C//DTD SVG 1.1//EN"
 "http://www.w3.org/Graphics/SVG/1.1/DTD/svg11.dtd">
<!-- Generated by graphviz version 2.38.0 (20140413.2041)
 -->
<!-- Title: ReScanBuyerFactory Pages: 1 -->
<svg width="164pt" height="171pt"
 viewBox="0.00 0.00 164.00 171.00" xmlns="http://www.w3.org/2000/svg" xmlns:xlink="http://www.w3.org/1999/xlink">
<g id="graph0" class="graph" transform="scale(1 1) rotate(0) translate(4 167)">
<title>ReScanBuyerFactory</title>
<polygon fill="white" stroke="none" points="-4,4 -4,-167 160,-167 160,4 -4,4"/>
<!-- Node1 -->
<g id="node1" class="node"><title>Node1</title>
<polygon fill="#bfbfbf" stroke="black" points="15.5,-0.5 15.5,-68.5 140.5,-68.5 140.5,-0.5 15.5,-0.5"/>
<text text-anchor="middle" x="78" y="-56.5" font-family="Helvetica,sans-Serif" font-size="10.00">ReScanBuyerFactory</text>
<polyline fill="none" stroke="black" points="15.5,-49.5 140.5,-49.5 "/>
<text text-anchor="middle" x="78" y="-37.5" font-family="Helvetica,sans-Serif" font-size="10.00"> </text>
<polyline fill="none" stroke="black" points="15.5,-30.5 140.5,-30.5 "/>
<text text-anchor="start" x="23.5" y="-18.5" font-family="Helvetica,sans-Serif" font-size="10.00">+ ReScanBuyerFactory()</text>
<text text-anchor="start" x="23.5" y="-7.5" font-family="Helvetica,sans-Serif" font-size="10.00">+ make()</text>
</g>
<!-- Node2 -->
<g id="node2" class="node"><title>Node2</title>
<g id="a_node2"><a xlink:href="interfacetomoBay_1_1presenters_1_1presenterActions_1_1factories_1_1AbstractPresenterActionFactory.html" target="_top" xlink:title="the interface all factories that create AbstractPresenterAction objects should inherit from...">
<polygon fill="white" stroke="black" points="0,-105.5 0,-162.5 156,-162.5 156,-105.5 0,-105.5"/>
<text text-anchor="middle" x="78" y="-150.5" font-family="Helvetica,sans-Serif" font-size="10.00">AbstractPresenterActionFactory</text>
<polyline fill="none" stroke="black" points="0,-143.5 156,-143.5 "/>
<text text-anchor="middle" x="78" y="-131.5" font-family="Helvetica,sans-Serif" font-size="10.00"> </text>
<polyline fill="none" stroke="black" points="0,-124.5 156,-124.5 "/>
<text text-anchor="start" x="8" y="-112.5" font-family="Helvetica,sans-Serif" font-size="10.00">+ make()</text>
</a>
</g>
</g>
<!-- Node2&#45;&gt;Node1 -->
<g id="edge1" class="edge"><title>Node2&#45;&gt;Node1</title>
<path fill="none" stroke="midnightblue" d="M78,-95.0631C78,-86.3933 78,-77.2431 78,-68.7855"/>
<polygon fill="none" stroke="midnightblue" points="74.5001,-95.3212 78,-105.321 81.5001,-95.3212 74.5001,-95.3212"/>
</g>
</g>
</svg>
