<?xml version="1.0" encoding="UTF-8" standalone="no"?>
<!DOCTYPE svg PUBLIC "-//W3C//DTD SVG 1.1//EN"
 "http://www.w3.org/Graphics/SVG/1.1/DTD/svg11.dtd">
<!-- Generated by graphviz version 2.38.0 (20140413.2041)
 -->
<!-- Title: AccountsTable Pages: 1 -->
<svg width="250pt" height="226pt"
 viewBox="0.00 0.00 249.50 226.00" xmlns="http://www.w3.org/2000/svg" xmlns:xlink="http://www.w3.org/1999/xlink">
<g id="graph0" class="graph" transform="scale(1 1) rotate(0) translate(4 222)">
<title>AccountsTable</title>
<polygon fill="white" stroke="none" points="-4,4 -4,-222 245.5,-222 245.5,4 -4,4"/>
<!-- Node1 -->
<g id="node1" class="node"><title>Node1</title>
<polygon fill="#bfbfbf" stroke="black" points="62,-0.5 62,-57.5 159,-57.5 159,-0.5 62,-0.5"/>
<text text-anchor="middle" x="110.5" y="-45.5" font-family="Helvetica,sans-Serif" font-size="10.00">AccountsTable</text>
<polyline fill="none" stroke="black" points="62,-38.5 159,-38.5 "/>
<text text-anchor="middle" x="110.5" y="-26.5" font-family="Helvetica,sans-Serif" font-size="10.00"> </text>
<polyline fill="none" stroke="black" points="62,-19.5 159,-19.5 "/>
<text text-anchor="start" x="70" y="-7.5" font-family="Helvetica,sans-Serif" font-size="10.00">+ AccountsTable()</text>
</g>
<!-- Node2 -->
<g id="node2" class="node"><title>Node2</title>
<g id="a_node2"><a xlink:href="interfacetomoBay_1_1model_1_1dataTypes_1_1heteroTypeContainer_1_1AbstractTypeSchema.html" target="_top" xlink:title="Derived types of this class represent the schema for a specific database and should only contain publ...">
<polygon fill="white" stroke="black" points="0,-155 0,-212 111,-212 111,-155 0,-155"/>
<text text-anchor="middle" x="55.5" y="-200" font-family="Helvetica,sans-Serif" font-size="10.00">AbstractTypeSchema</text>
<polyline fill="none" stroke="black" points="0,-193 111,-193 "/>
<text text-anchor="middle" x="55.5" y="-181" font-family="Helvetica,sans-Serif" font-size="10.00"> </text>
<polyline fill="none" stroke="black" points="0,-174 111,-174 "/>
<text text-anchor="middle" x="55.5" y="-162" font-family="Helvetica,sans-Serif" font-size="10.00"> </text>
</a>
</g>
</g>
<!-- Node2&#45;&gt;Node1 -->
<g id="edge1" class="edge"><title>Node2&#45;&gt;Node1</title>
<path fill="none" stroke="midnightblue" d="M68.8951,-145.359C78.6551,-118.297 91.6653,-82.2234 100.521,-57.6684"/>
<polygon fill="none" stroke="midnightblue" points="65.5604,-144.289 65.4601,-154.883 72.1452,-146.664 65.5604,-144.289"/>
</g>
<!-- Node3 -->
<g id="node3" class="node"><title>Node3</title>
<g id="a_node3"><a xlink:href="interfacetomoBay_1_1model_1_1dataTypes_1_1heteroTypeContainer_1_1AbstractField.html" target="_top" xlink:title="This interface is the abstract base for all derived AbstractDBField types, and represents a a column ...">
<polygon fill="white" stroke="black" points="129.5,-149.5 129.5,-217.5 203.5,-217.5 203.5,-149.5 129.5,-149.5"/>
<text text-anchor="middle" x="166.5" y="-205.5" font-family="Helvetica,sans-Serif" font-size="10.00">AbstractField</text>
<polyline fill="none" stroke="black" points="129.5,-198.5 203.5,-198.5 "/>
<text text-anchor="middle" x="166.5" y="-186.5" font-family="Helvetica,sans-Serif" font-size="10.00"> </text>
<polyline fill="none" stroke="black" points="129.5,-179.5 203.5,-179.5 "/>
<text text-anchor="start" x="137.5" y="-167.5" font-family="Helvetica,sans-Serif" font-size="10.00">+ type()</text>
<text text-anchor="start" x="137.5" y="-156.5" font-family="Helvetica,sans-Serif" font-size="10.00">+ size()</text>
</a>
</g>
</g>
<!-- Node3&#45;&gt;Node1 -->
<g id="edge2" class="edge"><title>Node3&#45;&gt;Node1</title>
<path fill="none" stroke="#404040" d="M154.349,-149.41C145.724,-125.922 134.107,-94.2871 124.997,-69.4796"/>
<polygon fill="none" stroke="#404040" points="124.887,-69.1799 119.064,-64.9265 120.751,-57.9154 126.574,-62.1688 124.887,-69.1799"/>
<text text-anchor="middle" x="194.5" y="-123" font-family="Helvetica,sans-Serif" font-size="10.00"> +SERVER_ADDR</text>
<text text-anchor="middle" x="194.5" y="-112" font-family="Helvetica,sans-Serif" font-size="10.00">+ID</text>
<text text-anchor="middle" x="194.5" y="-101" font-family="Helvetica,sans-Serif" font-size="10.00">+ACCOUNT_NAME</text>
<text text-anchor="middle" x="194.5" y="-90" font-family="Helvetica,sans-Serif" font-size="10.00">+LOOKBACK_DAYS</text>
<text text-anchor="middle" x="194.5" y="-79" font-family="Helvetica,sans-Serif" font-size="10.00">+API_KEY</text>
</g>
</g>
</svg>
