<?xml version="1.0" encoding="UTF-8" standalone="no"?>
<!DOCTYPE svg PUBLIC "-//W3C//DTD SVG 1.1//EN"
 "http://www.w3.org/Graphics/SVG/1.1/DTD/svg11.dtd">
<!-- Generated by graphviz version 2.38.0 (20140413.2041)
 -->
<!-- Title: getPartQty Pages: 1 -->
<svg width="766pt" height="137pt"
 viewBox="0.00 0.00 766.00 137.00" xmlns="http://www.w3.org/2000/svg" xmlns:xlink="http://www.w3.org/1999/xlink">
<g id="graph0" class="graph" transform="scale(1 1) rotate(0) translate(4 133)">
<title>getPartQty</title>
<polygon fill="white" stroke="none" points="-4,4 -4,-133 762,-133 762,4 -4,4"/>
<!-- Node1 -->
<g id="node1" class="node"><title>Node1</title>
<polygon fill="#bfbfbf" stroke="black" points="0,-55 0,-74 64,-74 64,-55 0,-55"/>
<text text-anchor="middle" x="32" y="-62" font-family="Helvetica,sans-Serif" font-size="10.00">getPartQty</text>
</g>
<!-- Node2 -->
<g id="node2" class="node"><title>Node2</title>
<g id="a_node2"><a xlink:href="classtomoBay_1_1presenters_1_1helpers_1_1pickeability_1_1ItemStockLevel.html#a22844faa947573bb01d9313f7bdb1e56" target="_top" xlink:title="Takes the list of items generated in this.assembleItemsList and checks a PartList associated with eac...">
<polygon fill="white" stroke="black" points="100,-98.5 100,-128.5 298,-128.5 298,-98.5 100,-98.5"/>
<text text-anchor="start" x="108" y="-116.5" font-family="Helvetica,sans-Serif" font-size="10.00">tomoBay.presenters.helpers.pickeability.</text>
<text text-anchor="middle" x="199" y="-105.5" font-family="Helvetica,sans-Serif" font-size="10.00">ItemStockLevel.checkStockLevelOfItems</text>
</a>
</g>
</g>
<!-- Node1&#45;&gt;Node2 -->
<g id="edge1" class="edge"><title>Node1&#45;&gt;Node2</title>
<path fill="none" stroke="midnightblue" d="M66.0753,-77.7159C76.8062,-81.7678 88.8258,-86.0599 100,-89.5 110.296,-92.6697 121.301,-95.7016 132.08,-98.4789"/>
<polygon fill="midnightblue" stroke="midnightblue" points="67.2339,-74.4117 56.6439,-74.0937 64.7242,-80.9464 67.2339,-74.4117"/>
</g>
<!-- Node5 -->
<g id="node5" class="node"><title>Node5</title>
<g id="a_node5"><a xlink:href="classtomoBay_1_1model_1_1dataTypes_1_1order_1_1Listing.html#a08c9dd8979fc599a5710705156ea0b3e" target="_top" xlink:title="constructor, instantiates this listing based on the listingID provided (aka in the database as itemID...">
<polygon fill="white" stroke="black" points="118.5,-49.5 118.5,-79.5 279.5,-79.5 279.5,-49.5 118.5,-49.5"/>
<text text-anchor="start" x="126.5" y="-67.5" font-family="Helvetica,sans-Serif" font-size="10.00">tomoBay.model.dataTypes.order.</text>
<text text-anchor="middle" x="199" y="-56.5" font-family="Helvetica,sans-Serif" font-size="10.00">Listing.Listing</text>
</a>
</g>
</g>
<!-- Node1&#45;&gt;Node5 -->
<g id="edge4" class="edge"><title>Node1&#45;&gt;Node5</title>
<path fill="none" stroke="midnightblue" d="M74.3402,-64.5C87.7616,-64.5 103.137,-64.5 118.381,-64.5"/>
<polygon fill="midnightblue" stroke="midnightblue" points="74.0353,-61.0001 64.0352,-64.5 74.0352,-68.0001 74.0353,-61.0001"/>
</g>
<!-- Node6 -->
<g id="node6" class="node"><title>Node6</title>
<g id="a_node6"><a xlink:href="classtomoBay_1_1model_1_1royalMail_1_1SAAJTest.html#a8b260eecbaabcef8473fd87ada040682" target="_top" xlink:title="tomoBay.model.royalMail.\lSAAJTest.main">
<polygon fill="white" stroke="black" points="134,-0.5 134,-30.5 264,-30.5 264,-0.5 134,-0.5"/>
<text text-anchor="start" x="142" y="-18.5" font-family="Helvetica,sans-Serif" font-size="10.00">tomoBay.model.royalMail.</text>
<text text-anchor="middle" x="199" y="-7.5" font-family="Helvetica,sans-Serif" font-size="10.00">SAAJTest.main</text>
</a>
</g>
</g>
<!-- Node1&#45;&gt;Node6 -->
<g id="edge5" class="edge"><title>Node1&#45;&gt;Node6</title>
<path fill="none" stroke="midnightblue" d="M67.5042,-51.4389C77.8828,-47.7007 89.3451,-43.7595 100,-40.5 111.334,-37.0329 123.504,-33.6561 135.282,-30.5629"/>
<polygon fill="midnightblue" stroke="midnightblue" points="66.1381,-48.2117 57.9473,-54.9319 68.5411,-54.7863 66.1381,-48.2117"/>
</g>
<!-- Node3 -->
<g id="node3" class="node"><title>Node3</title>
<g id="a_node3"><a xlink:href="classtomoBay_1_1presenters_1_1helpers_1_1pickeability_1_1ItemStockLevel.html#a1aed814db05c4991e9bc719f39ea62ce" target="_top" xlink:title="tomoBay.presenters.helpers.pickeability.\lItemStockLevel.check">
<polygon fill="white" stroke="black" points="334,-98.5 334,-128.5 528,-128.5 528,-98.5 334,-98.5"/>
<text text-anchor="start" x="342" y="-116.5" font-family="Helvetica,sans-Serif" font-size="10.00">tomoBay.presenters.helpers.pickeability.</text>
<text text-anchor="middle" x="431" y="-105.5" font-family="Helvetica,sans-Serif" font-size="10.00">ItemStockLevel.check</text>
</a>
</g>
</g>
<!-- Node2&#45;&gt;Node3 -->
<g id="edge2" class="edge"><title>Node2&#45;&gt;Node3</title>
<path fill="none" stroke="midnightblue" d="M308.247,-113.5C316.828,-113.5 325.459,-113.5 333.949,-113.5"/>
<polygon fill="midnightblue" stroke="midnightblue" points="308.208,-110 298.208,-113.5 308.208,-117 308.208,-110"/>
</g>
<!-- Node4 -->
<g id="node4" class="node"><title>Node4</title>
<g id="a_node4"><a xlink:href="classtomoBay_1_1presenters_1_1helpers_1_1pickeability_1_1Pickeablity.html#ae05e03af15e33d53f9e0511ec0295a04" target="_top" xlink:title="default ctor ">
<polygon fill="white" stroke="black" points="564,-98.5 564,-128.5 758,-128.5 758,-98.5 564,-98.5"/>
<text text-anchor="start" x="572" y="-116.5" font-family="Helvetica,sans-Serif" font-size="10.00">tomoBay.presenters.helpers.pickeability.</text>
<text text-anchor="middle" x="661" y="-105.5" font-family="Helvetica,sans-Serif" font-size="10.00">Pickeablity.Pickeablity</text>
</a>
</g>
</g>
<!-- Node3&#45;&gt;Node4 -->
<g id="edge3" class="edge"><title>Node3&#45;&gt;Node4</title>
<path fill="none" stroke="midnightblue" d="M538.043,-113.5C546.605,-113.5 555.227,-113.5 563.714,-113.5"/>
<polygon fill="midnightblue" stroke="midnightblue" points="538.032,-110 528.032,-113.5 538.032,-117 538.032,-110"/>
</g>
</g>
</svg>
