<?xml version="1.0" encoding="UTF-8" standalone="no"?>
<!DOCTYPE svg PUBLIC "-//W3C//DTD SVG 1.1//EN"
 "http://www.w3.org/Graphics/SVG/1.1/DTD/svg11.dtd">
<!-- Generated by graphviz version 2.38.0 (20140413.2041)
 -->
<!-- Title: execute Pages: 1 -->
<svg width="1038pt" height="946pt"
 viewBox="0.00 0.00 1038.00 945.50" xmlns="http://www.w3.org/2000/svg" xmlns:xlink="http://www.w3.org/1999/xlink">
<g id="graph0" class="graph" transform="scale(1 1) rotate(0) translate(4 941.5)">
<title>execute</title>
<polygon fill="white" stroke="none" points="-4,4 -4,-941.5 1034,-941.5 1034,4 -4,4"/>
<!-- Node1 -->
<g id="node1" class="node"><title>Node1</title>
<polygon fill="#bfbfbf" stroke="black" points="0,-464.5 0,-483.5 51,-483.5 51,-464.5 0,-464.5"/>
<text text-anchor="middle" x="25.5" y="-471.5" font-family="Helvetica,sans-Serif" font-size="10.00">execute</text>
</g>
<!-- Node2 -->
<g id="node2" class="node"><title>Node2</title>
<g id="a_node2"><a xlink:href="classtomoBay_1_1model_1_1dataTypes_1_1order_1_1Buyer.html#affc1776a5666701eb8d4c0cd761f1eaa" target="_top" xlink:title="CONSTRUCTOR, initialises object by grabbing the relevant information from the database, requires a valid buyerID in order to function properly. ">
<polygon fill="white" stroke="black" points="106,-907 106,-937 267,-937 267,-907 106,-907"/>
<text text-anchor="start" x="114" y="-925" font-family="Helvetica,sans-Serif" font-size="10.00">tomoBay.model.dataTypes.order.</text>
<text text-anchor="middle" x="186.5" y="-914" font-family="Helvetica,sans-Serif" font-size="10.00">Buyer.Buyer</text>
</a>
</g>
</g>
<!-- Node1&#45;&gt;Node2 -->
<g id="edge1" class="edge"><title>Node1&#45;&gt;Node2</title>
<path fill="none" stroke="midnightblue" d="M26.4963,-493.952C26.8978,-569.615 32.2265,-837.622 87,-898 92.3217,-903.866 98.8161,-908.412 105.906,-911.919"/>
<polygon fill="midnightblue" stroke="midnightblue" points="29.9952,-493.511 26.4673,-483.521 22.9952,-493.531 29.9952,-493.511"/>
</g>
<!-- Node3 -->
<g id="node3" class="node"><title>Node3</title>
<g id="a_node3"><a xlink:href="classtomoBay_1_1presenters_1_1helpers_1_1pickeability_1_1ItemStockLevel.html#a1aed814db05c4991e9bc719f39ea62ce" target="_top" xlink:title="tomoBay.presenters.helpers.pickeability.\lItemStockLevel.check">
<polygon fill="white" stroke="black" points="89.5,-858 89.5,-888 283.5,-888 283.5,-858 89.5,-858"/>
<text text-anchor="start" x="97.5" y="-876" font-family="Helvetica,sans-Serif" font-size="10.00">tomoBay.presenters.helpers.pickeability.</text>
<text text-anchor="middle" x="186.5" y="-865" font-family="Helvetica,sans-Serif" font-size="10.00">ItemStockLevel.check</text>
</a>
</g>
</g>
<!-- Node1&#45;&gt;Node3 -->
<g id="edge2" class="edge"><title>Node1&#45;&gt;Node3</title>
<path fill="none" stroke="midnightblue" d="M26.9057,-493.872C28.7419,-563.706 38.4611,-796.464 87,-849 90.1055,-852.361 93.5963,-855.287 97.3619,-857.832"/>
<polygon fill="midnightblue" stroke="midnightblue" points="30.4027,-493.698 26.667,-483.783 23.4046,-493.863 30.4027,-493.698"/>
</g>
<!-- Node5 -->
<g id="node5" class="node"><title>Node5</title>
<g id="a_node5"><a xlink:href="classtomoBay_1_1model_1_1services_1_1checkErrorsService_1_1OnRunning.html#ae4a4f4cadce2787c7e80005639fbd5d9" target="_top" xlink:title="this method defines what to do in the given derived state ">
<polygon fill="white" stroke="black" points="104,-809 104,-839 269,-839 269,-809 104,-809"/>
<text text-anchor="start" x="112" y="-827" font-family="Helvetica,sans-Serif" font-size="10.00">tomoBay.model.services.check</text>
<text text-anchor="middle" x="186.5" y="-816" font-family="Helvetica,sans-Serif" font-size="10.00">ErrorsService.OnRunning.execute</text>
</a>
</g>
</g>
<!-- Node1&#45;&gt;Node5 -->
<g id="edge4" class="edge"><title>Node1&#45;&gt;Node5</title>
<path fill="none" stroke="midnightblue" d="M27.4475,-494.101C30.8733,-558.068 44.7319,-755.318 87,-800 91.8383,-805.115 97.5693,-809.217 103.796,-812.498"/>
<polygon fill="midnightblue" stroke="midnightblue" points="30.9259,-493.586 26.9247,-483.775 23.9349,-493.94 30.9259,-493.586"/>
</g>
<!-- Node7 -->
<g id="node7" class="node"><title>Node7</title>
<g id="a_node7"><a xlink:href="classtomoBay_1_1model_1_1services_1_1emailErrorsService_1_1ErrorsList.html#a1f92960677ce81dd39ce60043a38140f" target="_top" xlink:title="generate the list of errors. ">
<polygon fill="white" stroke="black" points="106,-749.5 106,-790.5 267,-790.5 267,-749.5 106,-749.5"/>
<text text-anchor="start" x="114" y="-778.5" font-family="Helvetica,sans-Serif" font-size="10.00">tomoBay.model.services.email</text>
<text text-anchor="start" x="114" y="-767.5" font-family="Helvetica,sans-Serif" font-size="10.00">ErrorsService.ErrorsList.generate</text>
<text text-anchor="middle" x="186.5" y="-756.5" font-family="Helvetica,sans-Serif" font-size="10.00">ErrorList</text>
</a>
</g>
</g>
<!-- Node1&#45;&gt;Node7 -->
<g id="edge6" class="edge"><title>Node1&#45;&gt;Node7</title>
<path fill="none" stroke="midnightblue" d="M28.4494,-493.842C34.2738,-549.217 53.2666,-703.746 87,-740 92.358,-745.758 98.784,-750.424 105.753,-754.201"/>
<polygon fill="midnightblue" stroke="midnightblue" points="31.9024,-493.203 27.4059,-483.609 24.9385,-493.913 31.9024,-493.203"/>
</g>
<!-- Node9 -->
<g id="node9" class="node"><title>Node9</title>
<g id="a_node9"><a xlink:href="classtomoBay_1_1model_1_1services_1_1reScanBuyerService_1_1DBActions.html#a7b6294e946014db474b821904f218bad" target="_top" xlink:title="get the latest orderID for the buyer passed in as an argument ">
<polygon fill="white" stroke="black" points="104.5,-689.5 104.5,-730.5 268.5,-730.5 268.5,-689.5 104.5,-689.5"/>
<text text-anchor="start" x="112.5" y="-718.5" font-family="Helvetica,sans-Serif" font-size="10.00">tomoBay.model.services.re</text>
<text text-anchor="start" x="112.5" y="-707.5" font-family="Helvetica,sans-Serif" font-size="10.00">ScanBuyerService.DBActions.get</text>
<text text-anchor="middle" x="186.5" y="-696.5" font-family="Helvetica,sans-Serif" font-size="10.00">LatestOrderID</text>
</a>
</g>
</g>
<!-- Node1&#45;&gt;Node9 -->
<g id="edge8" class="edge"><title>Node1&#45;&gt;Node9</title>
<path fill="none" stroke="midnightblue" d="M26.3626,-493.895C27.1943,-534.812 35.0223,-628.92 87,-681 92.0371,-686.047 97.9049,-690.225 104.221,-693.682"/>
<polygon fill="midnightblue" stroke="midnightblue" points="29.8622,-493.815 26.2827,-483.844 22.8624,-493.871 29.8622,-493.815"/>
</g>
<!-- Node13 -->
<g id="node13" class="node"><title>Node13</title>
<g id="a_node13"><a xlink:href="classtomoBay_1_1model_1_1dataTypes_1_1order_1_1Listing.html#a5cb1f2d7360a6afa9e2c250b5d1e9bae" target="_top" xlink:title="internal method, gets the data for a listing from the database ">
<polygon fill="white" stroke="black" points="106,-641 106,-671 267,-671 267,-641 106,-641"/>
<text text-anchor="start" x="114" y="-659" font-family="Helvetica,sans-Serif" font-size="10.00">tomoBay.model.dataTypes.order.</text>
<text text-anchor="middle" x="186.5" y="-648" font-family="Helvetica,sans-Serif" font-size="10.00">Listing.getListingInfo</text>
</a>
</g>
</g>
<!-- Node1&#45;&gt;Node13 -->
<g id="edge12" class="edge"><title>Node1&#45;&gt;Node13</title>
<path fill="none" stroke="midnightblue" d="M28.4145,-494.19C32.6992,-527.715 46.1513,-594.754 87,-631 92.5426,-635.918 98.9178,-639.895 105.703,-643.108"/>
<polygon fill="midnightblue" stroke="midnightblue" points="31.8458,-493.382 27.2513,-483.835 24.8896,-494.164 31.8458,-493.382"/>
</g>
<!-- Node15 -->
<g id="node15" class="node"><title>Node15</title>
<g id="a_node15"><a xlink:href="classtomoBay_1_1model_1_1dataTypes_1_1order_1_1Order.html#a3db324ec2aad9cf01bed37c33055982d" target="_top" xlink:title="helper method, retrieves the order specific information from the database, in order to be able to pop...">
<polygon fill="white" stroke="black" points="106,-592 106,-622 267,-622 267,-592 106,-592"/>
<text text-anchor="start" x="114" y="-610" font-family="Helvetica,sans-Serif" font-size="10.00">tomoBay.model.dataTypes.order.</text>
<text text-anchor="middle" x="186.5" y="-599" font-family="Helvetica,sans-Serif" font-size="10.00">Order.getOrderInfo</text>
</a>
</g>
</g>
<!-- Node1&#45;&gt;Node15 -->
<g id="edge14" class="edge"><title>Node1&#45;&gt;Node15</title>
<path fill="none" stroke="midnightblue" d="M32.1034,-493.413C40.1725,-517.838 57.4405,-559.325 87,-582 92.7394,-586.403 99.1669,-590.036 105.915,-593.035"/>
<polygon fill="midnightblue" stroke="midnightblue" points="35.4277,-492.316 29.1155,-483.807 28.7435,-494.395 35.4277,-492.316"/>
</g>
<!-- Node17 -->
<g id="node17" class="node"><title>Node17</title>
<g id="a_node17"><a xlink:href="classtomoBay_1_1presenters_1_1presenterActions_1_1concreteActions_1_1BuyerList.html#a689d63fa5ca62b756f66d8940f722bac" target="_top" xlink:title="retrieve a list of buyers and associated information from the database ">
<polygon fill="white" stroke="black" points="94.5,-483.5 94.5,-524.5 278.5,-524.5 278.5,-483.5 94.5,-483.5"/>
<text text-anchor="start" x="102.5" y="-512.5" font-family="Helvetica,sans-Serif" font-size="10.00">tomoBay.presenters.presenter</text>
<text text-anchor="start" x="102.5" y="-501.5" font-family="Helvetica,sans-Serif" font-size="10.00">Actions.concreteActions.BuyerList.get</text>
<text text-anchor="middle" x="186.5" y="-490.5" font-family="Helvetica,sans-Serif" font-size="10.00">RawData</text>
</a>
</g>
</g>
<!-- Node1&#45;&gt;Node17 -->
<g id="edge16" class="edge"><title>Node1&#45;&gt;Node17</title>
<path fill="none" stroke="midnightblue" d="M61.1929,-480.546C71.1723,-482.429 82.5503,-484.576 94.2762,-486.788"/>
<polygon fill="midnightblue" stroke="midnightblue" points="61.8193,-477.102 51.3438,-478.688 60.5214,-483.981 61.8193,-477.102"/>
</g>
<!-- Node19 -->
<g id="node19" class="node"><title>Node19</title>
<g id="a_node19"><a xlink:href="classtomoBay_1_1presenters_1_1presenterActions_1_1concreteActions_1_1BuyerDetails.html#a03a0b25fcf5af4585ded3afef8887ca4" target="_top" xlink:title="tomoBay.presenters.presenter\lActions.concreteActions.BuyerDetails.get\lRawData">
<polygon fill="white" stroke="black" points="87,-423.5 87,-464.5 286,-464.5 286,-423.5 87,-423.5"/>
<text text-anchor="start" x="95" y="-452.5" font-family="Helvetica,sans-Serif" font-size="10.00">tomoBay.presenters.presenter</text>
<text text-anchor="start" x="95" y="-441.5" font-family="Helvetica,sans-Serif" font-size="10.00">Actions.concreteActions.BuyerDetails.get</text>
<text text-anchor="middle" x="186.5" y="-430.5" font-family="Helvetica,sans-Serif" font-size="10.00">RawData</text>
</a>
</g>
</g>
<!-- Node1&#45;&gt;Node19 -->
<g id="edge18" class="edge"><title>Node1&#45;&gt;Node19</title>
<path fill="none" stroke="midnightblue" d="M61.3748,-467.42C69.1475,-465.953 77.7621,-464.328 86.7244,-462.637"/>
<polygon fill="midnightblue" stroke="midnightblue" points="60.5214,-464.019 51.3438,-469.312 61.8193,-470.898 60.5214,-464.019"/>
</g>
<!-- Node21 -->
<g id="node21" class="node"><title>Node21</title>
<g id="a_node21"><a xlink:href="classtomoBay_1_1model_1_1dataTypes_1_1order_1_1Transaction.html#a862d942998078cd69fad19dfb4140f56" target="_top" xlink:title="retrieve the transaction information for this order from the database based on the order ID passed in...">
<polygon fill="white" stroke="black" points="106,-375 106,-405 267,-405 267,-375 106,-375"/>
<text text-anchor="start" x="114" y="-393" font-family="Helvetica,sans-Serif" font-size="10.00">tomoBay.model.dataTypes.order.</text>
<text text-anchor="middle" x="186.5" y="-382" font-family="Helvetica,sans-Serif" font-size="10.00">Transaction.getTransactionInfo</text>
</a>
</g>
</g>
<!-- Node1&#45;&gt;Node21 -->
<g id="edge20" class="edge"><title>Node1&#45;&gt;Node21</title>
<path fill="none" stroke="midnightblue" d="M39.9679,-456.132C51.1209,-442.582 68.1501,-424.547 87,-414 93.144,-410.562 99.7729,-407.613 106.585,-405.083"/>
<polygon fill="midnightblue" stroke="midnightblue" points="36.9918,-454.252 33.5272,-464.265 42.4794,-458.598 36.9918,-454.252"/>
</g>
<!-- Node23 -->
<g id="node23" class="node"><title>Node23</title>
<g id="a_node23"><a xlink:href="classtomoBay_1_1model_1_1dataTypes_1_1order_1_1Order.html#a76355aa9cd8f667cbacc05801005dbf2" target="_top" xlink:title="helper method, retrieves the transactions associated with this order by querying the database and usi...">
<polygon fill="white" stroke="black" points="106,-543 106,-573 267,-573 267,-543 106,-543"/>
<text text-anchor="start" x="114" y="-561" font-family="Helvetica,sans-Serif" font-size="10.00">tomoBay.model.dataTypes.order.</text>
<text text-anchor="middle" x="186.5" y="-550" font-family="Helvetica,sans-Serif" font-size="10.00">Order.getTransactionList</text>
</a>
</g>
</g>
<!-- Node1&#45;&gt;Node23 -->
<g id="edge22" class="edge"><title>Node1&#45;&gt;Node23</title>
<path fill="none" stroke="midnightblue" d="M39.9679,-491.868C51.1209,-505.418 68.1501,-523.453 87,-534 93.144,-537.438 99.7729,-540.387 106.585,-542.917"/>
<polygon fill="midnightblue" stroke="midnightblue" points="42.4794,-489.402 33.5272,-483.735 36.9918,-493.748 42.4794,-489.402"/>
</g>
<!-- Node24 -->
<g id="node24" class="node"><title>Node24</title>
<g id="a_node24"><a xlink:href="classtomoBay_1_1presenters_1_1presenterActions_1_1concreteActions_1_1GenerateRoyalMailCSV.html#a50d25ea728cbc1115c9ea4e50e95599f" target="_top" xlink:title="grabs the rest of the data necessary for the RoyalMailCSVGenerator to create a CSV file ...">
<polygon fill="white" stroke="black" points="91,-315.5 91,-356.5 282,-356.5 282,-315.5 91,-315.5"/>
<text text-anchor="start" x="99" y="-344.5" font-family="Helvetica,sans-Serif" font-size="10.00">tomoBay.presenters.presenter</text>
<text text-anchor="start" x="99" y="-333.5" font-family="Helvetica,sans-Serif" font-size="10.00">Actions.concreteActions.Generate</text>
<text text-anchor="middle" x="186.5" y="-322.5" font-family="Helvetica,sans-Serif" font-size="10.00">RoyalMailCSV.grabAndProcessDBData</text>
</a>
</g>
</g>
<!-- Node1&#45;&gt;Node24 -->
<g id="edge24" class="edge"><title>Node1&#45;&gt;Node24</title>
<path fill="none" stroke="midnightblue" d="M32.189,-454.584C40.3493,-430.121 57.7144,-388.451 87,-365 90.8962,-361.88 95.1184,-359.096 99.5488,-356.611"/>
<polygon fill="midnightblue" stroke="midnightblue" points="28.8266,-453.609 29.1622,-464.199 35.5035,-455.711 28.8266,-453.609"/>
</g>
<!-- Node27 -->
<g id="node27" class="node"><title>Node27</title>
<g id="a_node27"><a xlink:href="classtomoBay_1_1model_1_1services_1_1basicEbayUpdateService_1_1ItemsAndPartsTable.html#a0a4965df2e2331547f6b8d56f962b70c" target="_top" xlink:title="populates the Orders Table in the database with data grabbed from the ebay API ">
<polygon fill="white" stroke="black" points="100.5,-255.5 100.5,-296.5 272.5,-296.5 272.5,-255.5 100.5,-255.5"/>
<text text-anchor="start" x="108.5" y="-284.5" font-family="Helvetica,sans-Serif" font-size="10.00">tomoBay.model.services.basic</text>
<text text-anchor="start" x="108.5" y="-273.5" font-family="Helvetica,sans-Serif" font-size="10.00">EbayUpdateService.ItemsAndParts</text>
<text text-anchor="middle" x="186.5" y="-262.5" font-family="Helvetica,sans-Serif" font-size="10.00">Table.populate</text>
</a>
</g>
</g>
<!-- Node1&#45;&gt;Node27 -->
<g id="edge27" class="edge"><title>Node1&#45;&gt;Node27</title>
<path fill="none" stroke="midnightblue" d="M28.0055,-454.116C31.7259,-419.144 44.4191,-346.503 87,-306 91.0153,-302.181 95.5025,-298.846 100.288,-295.936"/>
<polygon fill="midnightblue" stroke="midnightblue" points="24.4875,-454.152 27.0576,-464.431 31.4581,-454.793 24.4875,-454.152"/>
</g>
<!-- Node31 -->
<g id="node31" class="node"><title>Node31</title>
<g id="a_node31"><a xlink:href="classtomoBay_1_1presenters_1_1sales_1_1SalesHistoryPresenter.html#aae3ef9e158aa1e975acedd263e47fa3c" target="_top" xlink:title="this method is called when you actually want to present the information to be displayed to the approp...">
<polygon fill="white" stroke="black" points="111.5,-207 111.5,-237 261.5,-237 261.5,-207 111.5,-207"/>
<text text-anchor="start" x="119.5" y="-225" font-family="Helvetica,sans-Serif" font-size="10.00">tomoBay.presenters.sales.</text>
<text text-anchor="middle" x="186.5" y="-214" font-family="Helvetica,sans-Serif" font-size="10.00">SalesHistoryPresenter.present</text>
</a>
</g>
</g>
<!-- Node1&#45;&gt;Node31 -->
<g id="edge31" class="edge"><title>Node1&#45;&gt;Node31</title>
<path fill="none" stroke="midnightblue" d="M29.1259,-454.316C36.1581,-404.53 56.9448,-275.449 87,-246 93.9146,-239.225 102.405,-234.253 111.474,-230.623"/>
<polygon fill="midnightblue" stroke="midnightblue" points="25.6312,-454.039 27.7351,-464.423 32.5658,-454.994 25.6312,-454.039"/>
</g>
<!-- Node32 -->
<g id="node32" class="node"><title>Node32</title>
<g id="a_node32"><a xlink:href="classtomoBay_1_1presenters_1_1sales_1_1OutOfHoursPresenter.html#aae3ef9e158aa1e975acedd263e47fa3c" target="_top" xlink:title="this method is called when you actually want to present the information to be displayed to the approp...">
<polygon fill="white" stroke="black" points="113.5,-158 113.5,-188 259.5,-188 259.5,-158 113.5,-158"/>
<text text-anchor="start" x="121.5" y="-176" font-family="Helvetica,sans-Serif" font-size="10.00">tomoBay.presenters.sales.</text>
<text text-anchor="middle" x="186.5" y="-165" font-family="Helvetica,sans-Serif" font-size="10.00">OutOfHoursPresenter.present</text>
</a>
</g>
</g>
<!-- Node1&#45;&gt;Node32 -->
<g id="edge32" class="edge"><title>Node1&#45;&gt;Node32</title>
<path fill="none" stroke="midnightblue" d="M28.1586,-453.99C33.308,-396.734 50.8884,-233.988 87,-197 94.2545,-189.57 103.397,-184.289 113.172,-180.563"/>
<polygon fill="midnightblue" stroke="midnightblue" points="24.6463,-453.981 27.2693,-464.246 31.6202,-454.586 24.6463,-453.981"/>
</g>
<!-- Node33 -->
<g id="node33" class="node"><title>Node33</title>
<g id="a_node33"><a xlink:href="classtomoBay_1_1presenters_1_1sales_1_1SalesOrderPresenter.html#aae3ef9e158aa1e975acedd263e47fa3c" target="_top" xlink:title="this method is called when you actually want to present the information to be displayed to the approp...">
<polygon fill="white" stroke="black" points="115,-109 115,-139 258,-139 258,-109 115,-109"/>
<text text-anchor="start" x="123" y="-127" font-family="Helvetica,sans-Serif" font-size="10.00">tomoBay.presenters.sales.</text>
<text text-anchor="middle" x="186.5" y="-116" font-family="Helvetica,sans-Serif" font-size="10.00">SalesOrderPresenter.present</text>
</a>
</g>
</g>
<!-- Node1&#45;&gt;Node33 -->
<g id="edge33" class="edge"><title>Node1&#45;&gt;Node33</title>
<path fill="none" stroke="midnightblue" d="M27.4475,-453.899C30.8733,-389.932 44.7319,-192.682 87,-148 94.6203,-139.945 104.455,-134.4 114.954,-130.619"/>
<polygon fill="midnightblue" stroke="midnightblue" points="23.9349,-454.06 26.9247,-464.225 30.9259,-454.414 23.9349,-454.06"/>
</g>
<!-- Node34 -->
<g id="node34" class="node"><title>Node34</title>
<g id="a_node34"><a xlink:href="classtomoBay_1_1model_1_1eBayAPI_1_1EbayAccounts.html#a540b8555f73cab7f8082c2a6a4aad375" target="_top" xlink:title="refresh the account information. ">
<polygon fill="white" stroke="black" points="110.5,-60 110.5,-90 262.5,-90 262.5,-60 110.5,-60"/>
<text text-anchor="start" x="118.5" y="-78" font-family="Helvetica,sans-Serif" font-size="10.00">tomoBay.model.eBayAPI.Ebay</text>
<text text-anchor="middle" x="186.5" y="-67" font-family="Helvetica,sans-Serif" font-size="10.00">Accounts.refresh</text>
</a>
</g>
</g>
<!-- Node1&#45;&gt;Node34 -->
<g id="edge34" class="edge"><title>Node1&#45;&gt;Node34</title>
<path fill="none" stroke="midnightblue" d="M26.9057,-454.128C28.7419,-384.294 38.4611,-151.536 87,-99 93.4499,-92.019 101.562,-86.9152 110.347,-83.2073"/>
<polygon fill="midnightblue" stroke="midnightblue" points="23.4046,-454.137 26.667,-464.217 30.4027,-454.302 23.4046,-454.137"/>
</g>
<!-- Node36 -->
<g id="node36" class="node"><title>Node36</title>
<g id="a_node36"><a xlink:href="classtomoBay_1_1model_1_1services_1_1reScanErrorsService_1_1ReScanErrorsDBActions.html#a8a4bbc75f3e9766f7f1c51141551702a" target="_top" xlink:title="returns a list of items from the database that contain errors in the &#39;notes&#39; field of the ebay_items ...">
<polygon fill="white" stroke="black" points="105,-0.5 105,-41.5 268,-41.5 268,-0.5 105,-0.5"/>
<text text-anchor="start" x="113" y="-29.5" font-family="Helvetica,sans-Serif" font-size="10.00">tomoBay.model.services.re</text>
<text text-anchor="start" x="113" y="-18.5" font-family="Helvetica,sans-Serif" font-size="10.00">ScanErrorsService.ReScanErrors</text>
<text text-anchor="middle" x="186.5" y="-7.5" font-family="Helvetica,sans-Serif" font-size="10.00">DBActions.retrieveAllErrorItems</text>
</a>
</g>
</g>
<!-- Node1&#45;&gt;Node36 -->
<g id="edge36" class="edge"><title>Node1&#45;&gt;Node36</title>
<path fill="none" stroke="midnightblue" d="M26.5857,-454.102C27.3136,-378.692 33.6765,-111.65 87,-50 92.0146,-44.2024 98.1236,-39.5342 104.818,-35.7797"/>
<polygon fill="midnightblue" stroke="midnightblue" points="23.0856,-454.121 26.5125,-464.147 30.0854,-454.172 23.0856,-454.121"/>
</g>
<!-- Node4 -->
<g id="node4" class="node"><title>Node4</title>
<g id="a_node4"><a xlink:href="classtomoBay_1_1presenters_1_1helpers_1_1pickeability_1_1Pickeablity.html#ae05e03af15e33d53f9e0511ec0295a04" target="_top" xlink:title="default ctor ">
<polygon fill="white" stroke="black" points="335,-863 335,-893 529,-893 529,-863 335,-863"/>
<text text-anchor="start" x="343" y="-881" font-family="Helvetica,sans-Serif" font-size="10.00">tomoBay.presenters.helpers.pickeability.</text>
<text text-anchor="middle" x="432" y="-870" font-family="Helvetica,sans-Serif" font-size="10.00">Pickeablity.Pickeablity</text>
</a>
</g>
</g>
<!-- Node3&#45;&gt;Node4 -->
<g id="edge3" class="edge"><title>Node3&#45;&gt;Node4</title>
<path fill="none" stroke="midnightblue" d="M294.017,-875.187C307.538,-875.465 321.314,-875.748 334.664,-876.022"/>
<polygon fill="midnightblue" stroke="midnightblue" points="293.807,-871.682 283.738,-874.976 293.664,-878.681 293.807,-871.682"/>
</g>
<!-- Node6 -->
<g id="node6" class="node"><title>Node6</title>
<g id="a_node6"><a xlink:href="classtomoBay_1_1model_1_1services_1_1checkErrorsService_1_1CheckErrorsService.html#ae3b0a282dcba7f2d675ca89b1dd48487" target="_top" xlink:title="tomoBay.model.services.check\lErrorsService.CheckErrorsService.on\lRunning">
<polygon fill="white" stroke="black" points="342,-803.5 342,-844.5 522,-844.5 522,-803.5 342,-803.5"/>
<text text-anchor="start" x="350" y="-832.5" font-family="Helvetica,sans-Serif" font-size="10.00">tomoBay.model.services.check</text>
<text text-anchor="start" x="350" y="-821.5" font-family="Helvetica,sans-Serif" font-size="10.00">ErrorsService.CheckErrorsService.on</text>
<text text-anchor="middle" x="432" y="-810.5" font-family="Helvetica,sans-Serif" font-size="10.00">Running</text>
</a>
</g>
</g>
<!-- Node5&#45;&gt;Node6 -->
<g id="edge5" class="edge"><title>Node5&#45;&gt;Node6</title>
<path fill="none" stroke="midnightblue" d="M279.51,-824C299.959,-824 321.6,-824 341.929,-824"/>
<polygon fill="midnightblue" stroke="midnightblue" points="279.259,-820.5 269.259,-824 279.259,-827.5 279.259,-820.5"/>
</g>
<!-- Node8 -->
<g id="node8" class="node"><title>Node8</title>
<g id="a_node8"><a xlink:href="classtomoBay_1_1model_1_1services_1_1emailErrorsService_1_1ErrorsList.html#afa69909cbf6e0f417015e69b4866ccbc" target="_top" xlink:title="default ctor, generates a the list of errors that this object represents ">
<polygon fill="white" stroke="black" points="349,-755 349,-785 515,-785 515,-755 349,-755"/>
<text text-anchor="start" x="357" y="-773" font-family="Helvetica,sans-Serif" font-size="10.00">tomoBay.model.services.email</text>
<text text-anchor="middle" x="432" y="-762" font-family="Helvetica,sans-Serif" font-size="10.00">ErrorsService.ErrorsList.ErrorsList</text>
</a>
</g>
</g>
<!-- Node7&#45;&gt;Node8 -->
<g id="edge7" class="edge"><title>Node7&#45;&gt;Node8</title>
<path fill="none" stroke="midnightblue" d="M277.449,-770C300.74,-770 325.7,-770 348.583,-770"/>
<polygon fill="midnightblue" stroke="midnightblue" points="277.231,-766.5 267.231,-770 277.231,-773.5 277.231,-766.5"/>
</g>
<!-- Node10 -->
<g id="node10" class="node"><title>Node10</title>
<g id="a_node10"><a xlink:href="classtomoBay_1_1model_1_1services_1_1reScanBuyerService_1_1OnRunning.html#ae4a4f4cadce2787c7e80005639fbd5d9" target="_top" xlink:title="this method defines what to do in the given derived state ">
<polygon fill="white" stroke="black" points="338.5,-695 338.5,-725 525.5,-725 525.5,-695 338.5,-695"/>
<text text-anchor="start" x="346.5" y="-713" font-family="Helvetica,sans-Serif" font-size="10.00">tomoBay.model.services.re</text>
<text text-anchor="middle" x="432" y="-702" font-family="Helvetica,sans-Serif" font-size="10.00">ScanBuyerService.OnRunning.execute</text>
</a>
</g>
</g>
<!-- Node9&#45;&gt;Node10 -->
<g id="edge9" class="edge"><title>Node9&#45;&gt;Node10</title>
<path fill="none" stroke="midnightblue" d="M278.688,-710C298.232,-710 318.899,-710 338.493,-710"/>
<polygon fill="midnightblue" stroke="midnightblue" points="278.582,-706.5 268.582,-710 278.582,-713.5 278.582,-706.5"/>
</g>
<!-- Node11 -->
<g id="node11" class="node"><title>Node11</title>
<g id="a_node11"><a xlink:href="classtomoBay_1_1model_1_1services_1_1reScanBuyerService_1_1ReScanBuyerService.html#ae3b0a282dcba7f2d675ca89b1dd48487" target="_top" xlink:title="tomoBay.model.services.re\lScanBuyerService.ReScanBuyerService.on\lRunning">
<polygon fill="white" stroke="black" points="578,-689.5 578,-730.5 786,-730.5 786,-689.5 578,-689.5"/>
<text text-anchor="start" x="586" y="-718.5" font-family="Helvetica,sans-Serif" font-size="10.00">tomoBay.model.services.re</text>
<text text-anchor="start" x="586" y="-707.5" font-family="Helvetica,sans-Serif" font-size="10.00">ScanBuyerService.ReScanBuyerService.on</text>
<text text-anchor="middle" x="682" y="-696.5" font-family="Helvetica,sans-Serif" font-size="10.00">Running</text>
</a>
</g>
</g>
<!-- Node10&#45;&gt;Node11 -->
<g id="edge10" class="edge"><title>Node10&#45;&gt;Node11</title>
<path fill="none" stroke="midnightblue" d="M535.699,-710C549.536,-710 563.737,-710 577.586,-710"/>
<polygon fill="midnightblue" stroke="midnightblue" points="535.699,-706.5 525.699,-710 535.699,-713.5 535.699,-706.5"/>
</g>
<!-- Node12 -->
<g id="node12" class="node"><title>Node12</title>
<g id="a_node12"><a xlink:href="classtomoBay_1_1model_1_1services_1_1reScanBuyerService_1_1ReScanBuyerService.html#afd85cd6baa355d54ab15c19c16c21df9" target="_top" xlink:title="tomoBay.model.services.re\lScanBuyerService.ReScanBuyerService.on\lPaused">
<polygon fill="white" stroke="black" points="822,-689.5 822,-730.5 1030,-730.5 1030,-689.5 822,-689.5"/>
<text text-anchor="start" x="830" y="-718.5" font-family="Helvetica,sans-Serif" font-size="10.00">tomoBay.model.services.re</text>
<text text-anchor="start" x="830" y="-707.5" font-family="Helvetica,sans-Serif" font-size="10.00">ScanBuyerService.ReScanBuyerService.on</text>
<text text-anchor="middle" x="926" y="-696.5" font-family="Helvetica,sans-Serif" font-size="10.00">Paused</text>
</a>
</g>
</g>
<!-- Node11&#45;&gt;Node12 -->
<g id="edge11" class="edge"><title>Node11&#45;&gt;Node12</title>
<path fill="none" stroke="midnightblue" d="M796.515,-710C804.892,-710 813.317,-710 821.628,-710"/>
<polygon fill="midnightblue" stroke="midnightblue" points="796.332,-706.5 786.332,-710 796.332,-713.5 796.332,-706.5"/>
</g>
<!-- Node14 -->
<g id="node14" class="node"><title>Node14</title>
<g id="a_node14"><a xlink:href="classtomoBay_1_1model_1_1dataTypes_1_1order_1_1Listing.html#a08c9dd8979fc599a5710705156ea0b3e" target="_top" xlink:title="constructor, instantiates this listing based on the listingID provided (aka in the database as itemID...">
<polygon fill="white" stroke="black" points="351.5,-641 351.5,-671 512.5,-671 512.5,-641 351.5,-641"/>
<text text-anchor="start" x="359.5" y="-659" font-family="Helvetica,sans-Serif" font-size="10.00">tomoBay.model.dataTypes.order.</text>
<text text-anchor="middle" x="432" y="-648" font-family="Helvetica,sans-Serif" font-size="10.00">Listing.Listing</text>
</a>
</g>
</g>
<!-- Node13&#45;&gt;Node14 -->
<g id="edge13" class="edge"><title>Node13&#45;&gt;Node14</title>
<path fill="none" stroke="midnightblue" d="M277.456,-656C301.598,-656 327.533,-656 351.09,-656"/>
<polygon fill="midnightblue" stroke="midnightblue" points="277.231,-652.5 267.231,-656 277.231,-659.5 277.231,-652.5"/>
</g>
<!-- Node16 -->
<g id="node16" class="node"><title>Node16</title>
<g id="a_node16"><a xlink:href="classtomoBay_1_1model_1_1dataTypes_1_1order_1_1Order.html#a1a4a46cf487479c2676b3583be1adfc0" target="_top" xlink:title="initialise this order using the orderID provided ">
<polygon fill="white" stroke="black" points="351.5,-567 351.5,-597 512.5,-597 512.5,-567 351.5,-567"/>
<text text-anchor="start" x="359.5" y="-585" font-family="Helvetica,sans-Serif" font-size="10.00">tomoBay.model.dataTypes.order.</text>
<text text-anchor="middle" x="432" y="-574" font-family="Helvetica,sans-Serif" font-size="10.00">Order.Order</text>
</a>
</g>
</g>
<!-- Node15&#45;&gt;Node16 -->
<g id="edge15" class="edge"><title>Node15&#45;&gt;Node16</title>
<path fill="none" stroke="midnightblue" d="M277.456,-597.764C301.598,-595.286 327.533,-592.623 351.09,-590.204"/>
<polygon fill="midnightblue" stroke="midnightblue" points="276.821,-594.311 267.231,-598.814 277.536,-601.274 276.821,-594.311"/>
</g>
<!-- Node18 -->
<g id="node18" class="node"><title>Node18</title>
<g id="a_node18"><a xlink:href="classtomoBay_1_1presenters_1_1presenterActions_1_1concreteActions_1_1BuyerList.html#adb3dedf31dc2c7fc796f20406c235ccd" target="_top" xlink:title="performs the action specified ">
<polygon fill="white" stroke="black" points="329.5,-489 329.5,-519 534.5,-519 534.5,-489 329.5,-489"/>
<text text-anchor="start" x="337.5" y="-507" font-family="Helvetica,sans-Serif" font-size="10.00">tomoBay.presenters.presenter</text>
<text text-anchor="middle" x="432" y="-496" font-family="Helvetica,sans-Serif" font-size="10.00">Actions.concreteActions.BuyerList.execute</text>
</a>
</g>
</g>
<!-- Node17&#45;&gt;Node18 -->
<g id="edge17" class="edge"><title>Node17&#45;&gt;Node18</title>
<path fill="none" stroke="midnightblue" d="M288.731,-504C302.192,-504 315.997,-504 329.462,-504"/>
<polygon fill="midnightblue" stroke="midnightblue" points="288.517,-500.5 278.517,-504 288.517,-507.5 288.517,-500.5"/>
</g>
<!-- Node20 -->
<g id="node20" class="node"><title>Node20</title>
<g id="a_node20"><a xlink:href="classtomoBay_1_1presenters_1_1presenterActions_1_1concreteActions_1_1BuyerDetails.html#adb3dedf31dc2c7fc796f20406c235ccd" target="_top" xlink:title="performs the action specified ">
<polygon fill="white" stroke="black" points="322,-429 322,-459 542,-459 542,-429 322,-429"/>
<text text-anchor="start" x="330" y="-447" font-family="Helvetica,sans-Serif" font-size="10.00">tomoBay.presenters.presenter</text>
<text text-anchor="middle" x="432" y="-436" font-family="Helvetica,sans-Serif" font-size="10.00">Actions.concreteActions.BuyerDetails.execute</text>
</a>
</g>
</g>
<!-- Node19&#45;&gt;Node20 -->
<g id="edge19" class="edge"><title>Node19&#45;&gt;Node20</title>
<path fill="none" stroke="midnightblue" d="M296.428,-444C304.864,-444 313.383,-444 321.821,-444"/>
<polygon fill="midnightblue" stroke="midnightblue" points="296.19,-440.5 286.19,-444 296.19,-447.5 296.19,-440.5"/>
</g>
<!-- Node22 -->
<g id="node22" class="node"><title>Node22</title>
<g id="a_node22"><a xlink:href="classtomoBay_1_1model_1_1dataTypes_1_1order_1_1Transaction.html#ab1052d348cb96869921bd11db552d96c" target="_top" xlink:title="CONSTRUCTOR, initialise object using the transactionID provided to query the database for the rest of...">
<polygon fill="white" stroke="black" points="351.5,-375 351.5,-405 512.5,-405 512.5,-375 351.5,-375"/>
<text text-anchor="start" x="359.5" y="-393" font-family="Helvetica,sans-Serif" font-size="10.00">tomoBay.model.dataTypes.order.</text>
<text text-anchor="middle" x="432" y="-382" font-family="Helvetica,sans-Serif" font-size="10.00">Transaction.Transaction</text>
</a>
</g>
</g>
<!-- Node21&#45;&gt;Node22 -->
<g id="edge21" class="edge"><title>Node21&#45;&gt;Node22</title>
<path fill="none" stroke="midnightblue" d="M277.456,-390C301.598,-390 327.533,-390 351.09,-390"/>
<polygon fill="midnightblue" stroke="midnightblue" points="277.231,-386.5 267.231,-390 277.231,-393.5 277.231,-386.5"/>
</g>
<!-- Node23&#45;&gt;Node16 -->
<g id="edge23" class="edge"><title>Node23&#45;&gt;Node16</title>
<path fill="none" stroke="midnightblue" d="M277.456,-566.866C301.598,-569.246 327.533,-571.802 351.09,-574.124"/>
<polygon fill="midnightblue" stroke="midnightblue" points="277.526,-563.356 267.231,-565.858 276.839,-570.323 277.526,-563.356"/>
</g>
<!-- Node25 -->
<g id="node25" class="node"><title>Node25</title>
<g id="a_node25"><a xlink:href="classtomoBay_1_1presenters_1_1presenterActions_1_1concreteActions_1_1GenerateRoyalMailCSV.html#adb3dedf31dc2c7fc796f20406c235ccd" target="_top" xlink:title="performs the action specified ">
<polygon fill="white" stroke="black" points="349,-315.5 349,-356.5 515,-356.5 515,-315.5 349,-315.5"/>
<text text-anchor="start" x="357" y="-344.5" font-family="Helvetica,sans-Serif" font-size="10.00">tomoBay.presenters.presenter</text>
<text text-anchor="start" x="357" y="-333.5" font-family="Helvetica,sans-Serif" font-size="10.00">Actions.concreteActions.Generate</text>
<text text-anchor="middle" x="432" y="-322.5" font-family="Helvetica,sans-Serif" font-size="10.00">RoyalMailCSV.execute</text>
</a>
</g>
</g>
<!-- Node24&#45;&gt;Node25 -->
<g id="edge25" class="edge"><title>Node24&#45;&gt;Node25</title>
<path fill="none" stroke="midnightblue" d="M292.424,-336C311.244,-336 330.611,-336 348.679,-336"/>
<polygon fill="midnightblue" stroke="midnightblue" points="292.341,-332.5 282.341,-336 292.341,-339.5 292.341,-332.5"/>
</g>
<!-- Node26 -->
<g id="node26" class="node"><title>Node26</title>
<g id="a_node26"><a xlink:href="classtomoBayTests_1_1presenters_1_1presenterActions_1_1concreteActions_1_1GenerateRoyalMailCSVTest.html#a1b260e6772d2ced79e03e1c8c5acd12b" target="_top" xlink:title="tomoBayTests.presenters.presenter\lActions.concreteActions.GenerateRoyal\lMailCSVTest.testExecute">
<polygon fill="white" stroke="black" points="586.5,-315.5 586.5,-356.5 777.5,-356.5 777.5,-315.5 586.5,-315.5"/>
<text text-anchor="start" x="594.5" y="-344.5" font-family="Helvetica,sans-Serif" font-size="10.00">tomoBayTests.presenters.presenter</text>
<text text-anchor="start" x="594.5" y="-333.5" font-family="Helvetica,sans-Serif" font-size="10.00">Actions.concreteActions.GenerateRoyal</text>
<text text-anchor="middle" x="682" y="-322.5" font-family="Helvetica,sans-Serif" font-size="10.00">MailCSVTest.testExecute</text>
</a>
</g>
</g>
<!-- Node25&#45;&gt;Node26 -->
<g id="edge26" class="edge"><title>Node25&#45;&gt;Node26</title>
<path fill="none" stroke="midnightblue" d="M525.473,-336C545.271,-336 566.218,-336 586.106,-336"/>
<polygon fill="midnightblue" stroke="midnightblue" points="525.236,-332.5 515.236,-336 525.236,-339.5 525.236,-332.5"/>
</g>
<!-- Node28 -->
<g id="node28" class="node"><title>Node28</title>
<g id="a_node28"><a xlink:href="classtomoBay_1_1model_1_1services_1_1basicEbayUpdateService_1_1OnRunning.html#ae4a4f4cadce2787c7e80005639fbd5d9" target="_top" xlink:title="this method defines what to do in the given derived state ">
<polygon fill="white" stroke="black" points="335.5,-261 335.5,-291 528.5,-291 528.5,-261 335.5,-261"/>
<text text-anchor="start" x="343.5" y="-279" font-family="Helvetica,sans-Serif" font-size="10.00">tomoBay.model.services.basic</text>
<text text-anchor="middle" x="432" y="-268" font-family="Helvetica,sans-Serif" font-size="10.00">EbayUpdateService.OnRunning.execute</text>
</a>
</g>
</g>
<!-- Node27&#45;&gt;Node28 -->
<g id="edge28" class="edge"><title>Node27&#45;&gt;Node28</title>
<path fill="none" stroke="midnightblue" d="M282.764,-276C300.084,-276 318.156,-276 335.483,-276"/>
<polygon fill="midnightblue" stroke="midnightblue" points="282.665,-272.5 272.664,-276 282.664,-279.5 282.665,-272.5"/>
</g>
<!-- Node29 -->
<g id="node29" class="node"><title>Node29</title>
<g id="a_node29"><a xlink:href="classtomoBay_1_1model_1_1services_1_1basicEbayUpdateService_1_1BasicEbayUpdateService.html#ae3b0a282dcba7f2d675ca89b1dd48487" target="_top" xlink:title="tomoBay.model.services.basic\lEbayUpdateService.BasicEbayUpdate\lService.onRunning">
<polygon fill="white" stroke="black" points="589.5,-255.5 589.5,-296.5 774.5,-296.5 774.5,-255.5 589.5,-255.5"/>
<text text-anchor="start" x="597.5" y="-284.5" font-family="Helvetica,sans-Serif" font-size="10.00">tomoBay.model.services.basic</text>
<text text-anchor="start" x="597.5" y="-273.5" font-family="Helvetica,sans-Serif" font-size="10.00">EbayUpdateService.BasicEbayUpdate</text>
<text text-anchor="middle" x="682" y="-262.5" font-family="Helvetica,sans-Serif" font-size="10.00">Service.onRunning</text>
</a>
</g>
</g>
<!-- Node28&#45;&gt;Node29 -->
<g id="edge29" class="edge"><title>Node28&#45;&gt;Node29</title>
<path fill="none" stroke="midnightblue" d="M538.881,-276C555.62,-276 572.809,-276 589.192,-276"/>
<polygon fill="midnightblue" stroke="midnightblue" points="538.529,-272.5 528.529,-276 538.528,-279.5 538.529,-272.5"/>
</g>
<!-- Node30 -->
<g id="node30" class="node"><title>Node30</title>
<g id="a_node30"><a xlink:href="classtomoBay_1_1model_1_1services_1_1basicEbayUpdateService_1_1BasicEbayUpdateService.html#afd85cd6baa355d54ab15c19c16c21df9" target="_top" xlink:title="tomoBay.model.services.basic\lEbayUpdateService.BasicEbayUpdate\lService.onPaused">
<polygon fill="white" stroke="black" points="833.5,-255.5 833.5,-296.5 1018.5,-296.5 1018.5,-255.5 833.5,-255.5"/>
<text text-anchor="start" x="841.5" y="-284.5" font-family="Helvetica,sans-Serif" font-size="10.00">tomoBay.model.services.basic</text>
<text text-anchor="start" x="841.5" y="-273.5" font-family="Helvetica,sans-Serif" font-size="10.00">EbayUpdateService.BasicEbayUpdate</text>
<text text-anchor="middle" x="926" y="-262.5" font-family="Helvetica,sans-Serif" font-size="10.00">Service.onPaused</text>
</a>
</g>
</g>
<!-- Node29&#45;&gt;Node30 -->
<g id="edge30" class="edge"><title>Node29&#45;&gt;Node30</title>
<path fill="none" stroke="midnightblue" d="M785.23,-276C801.165,-276 817.545,-276 833.228,-276"/>
<polygon fill="midnightblue" stroke="midnightblue" points="784.835,-272.5 774.835,-276 784.835,-279.5 784.835,-272.5"/>
</g>
<!-- Node35 -->
<g id="node35" class="node"><title>Node35</title>
<g id="a_node35"><a xlink:href="classtomoBay_1_1model_1_1eBayAPI_1_1EbayAccounts.html#ae1c74869a4f54cb21882960d3ed7cb65" target="_top" xlink:title="register a new account on the system ">
<polygon fill="white" stroke="black" points="356,-60 356,-90 508,-90 508,-60 356,-60"/>
<text text-anchor="start" x="364" y="-78" font-family="Helvetica,sans-Serif" font-size="10.00">tomoBay.model.eBayAPI.Ebay</text>
<text text-anchor="middle" x="432" y="-67" font-family="Helvetica,sans-Serif" font-size="10.00">Accounts.registerAccount</text>
</a>
</g>
</g>
<!-- Node34&#45;&gt;Node35 -->
<g id="edge35" class="edge"><title>Node34&#45;&gt;Node35</title>
<path fill="none" stroke="midnightblue" d="M272.767,-75C299.811,-75 329.5,-75 355.784,-75"/>
<polygon fill="midnightblue" stroke="midnightblue" points="272.545,-71.5001 262.545,-75 272.545,-78.5001 272.545,-71.5001"/>
</g>
<!-- Node37 -->
<g id="node37" class="node"><title>Node37</title>
<g id="a_node37"><a xlink:href="classtomoBay_1_1model_1_1services_1_1reScanErrorsService_1_1OnRunning.html#ae4a4f4cadce2787c7e80005639fbd5d9" target="_top" xlink:title="this method defines what to do in the given derived state ">
<polygon fill="white" stroke="black" points="338,-6 338,-36 526,-36 526,-6 338,-6"/>
<text text-anchor="start" x="346" y="-24" font-family="Helvetica,sans-Serif" font-size="10.00">tomoBay.model.services.re</text>
<text text-anchor="middle" x="432" y="-13" font-family="Helvetica,sans-Serif" font-size="10.00">ScanErrorsService.OnRunning.execute</text>
</a>
</g>
</g>
<!-- Node36&#45;&gt;Node37 -->
<g id="edge37" class="edge"><title>Node36&#45;&gt;Node37</title>
<path fill="none" stroke="midnightblue" d="M278.295,-21C297.734,-21 318.301,-21 337.828,-21"/>
<polygon fill="midnightblue" stroke="midnightblue" points="278.244,-17.5001 268.244,-21 278.244,-24.5001 278.244,-17.5001"/>
</g>
<!-- Node38 -->
<g id="node38" class="node"><title>Node38</title>
<g id="a_node38"><a xlink:href="classtomoBay_1_1model_1_1services_1_1reScanErrorsService_1_1ReScanErrorsService.html#ae3b0a282dcba7f2d675ca89b1dd48487" target="_top" xlink:title="tomoBay.model.services.re\lScanErrorsService.ReScanErrors\lService.onRunning">
<polygon fill="white" stroke="black" points="600.5,-0.5 600.5,-41.5 763.5,-41.5 763.5,-0.5 600.5,-0.5"/>
<text text-anchor="start" x="608.5" y="-29.5" font-family="Helvetica,sans-Serif" font-size="10.00">tomoBay.model.services.re</text>
<text text-anchor="start" x="608.5" y="-18.5" font-family="Helvetica,sans-Serif" font-size="10.00">ScanErrorsService.ReScanErrors</text>
<text text-anchor="middle" x="682" y="-7.5" font-family="Helvetica,sans-Serif" font-size="10.00">Service.onRunning</text>
</a>
</g>
</g>
<!-- Node37&#45;&gt;Node38 -->
<g id="edge38" class="edge"><title>Node37&#45;&gt;Node38</title>
<path fill="none" stroke="midnightblue" d="M536.172,-21C557.63,-21 579.945,-21 600.447,-21"/>
<polygon fill="midnightblue" stroke="midnightblue" points="536.052,-17.5001 526.052,-21 536.052,-24.5001 536.052,-17.5001"/>
</g>
</g>
</svg>
