<?xml version="1.0" encoding="UTF-8" standalone="no"?>
<!DOCTYPE svg PUBLIC "-//W3C//DTD SVG 1.1//EN"
 "http://www.w3.org/Graphics/SVG/1.1/DTD/svg11.dtd">
<!-- Generated by graphviz version 2.38.0 (20140413.2041)
 -->
<!-- Title: execute Pages: 1 -->
<svg width="1291pt" height="562pt"
 viewBox="0.00 0.00 1291.00 562.00" xmlns="http://www.w3.org/2000/svg" xmlns:xlink="http://www.w3.org/1999/xlink">
<g id="graph0" class="graph" transform="scale(1 1) rotate(0) translate(4 558)">
<title>execute</title>
<polygon fill="white" stroke="none" points="-4,4 -4,-558 1287,-558 1287,4 -4,4"/>
<!-- Node1 -->
<g id="node1" class="node"><title>Node1</title>
<polygon fill="#bfbfbf" stroke="black" points="0,-225 0,-244 51,-244 51,-225 0,-225"/>
<text text-anchor="middle" x="25.5" y="-232" font-family="Helvetica,sans-Serif" font-size="10.00">execute</text>
</g>
<!-- Node2 -->
<g id="node2" class="node"><title>Node2</title>
<g id="a_node2"><a xlink:href="classtomoBay_1_1model_1_1dataTypes_1_1order_1_1Part.html#adf7708b28d8ccb0cec8e58a9cd8fa38c" target="_top" xlink:title="retrieve the brand associated with this part ">
<polygon fill="white" stroke="black" points="132.5,-464.5 132.5,-494.5 293.5,-494.5 293.5,-464.5 132.5,-464.5"/>
<text text-anchor="start" x="140.5" y="-482.5" font-family="Helvetica,sans-Serif" font-size="10.00">tomoBay.model.dataTypes.order.</text>
<text text-anchor="middle" x="213" y="-471.5" font-family="Helvetica,sans-Serif" font-size="10.00">Part.brand</text>
</a>
</g>
</g>
<!-- Node1&#45;&gt;Node2 -->
<g id="edge1" class="edge"><title>Node1&#45;&gt;Node2</title>
<path fill="none" stroke="midnightblue" d="M27.7742,-244.089C33.0902,-282.635 54.7369,-425.646 87,-455.5 97.0496,-464.799 109.557,-471.003 122.744,-475.065"/>
<polygon fill="midnightblue" stroke="midnightblue" points="121.876,-478.456 132.441,-477.658 123.684,-471.693 121.876,-478.456"/>
</g>
<!-- Node3 -->
<g id="node3" class="node"><title>Node3</title>
<g id="a_node3"><a xlink:href="classtomoBay_1_1helpers_1_1BrandToCode.html#ab3e03f7919360bb577b970dfd18b66ff" target="_top" xlink:title="converts converts a string like &quot;citroen&quot; or &quot;fOrd&quot; to a brandcode integer specific to winstock...">
<polygon fill="white" stroke="black" points="119,-415.5 119,-445.5 307,-445.5 307,-415.5 119,-415.5"/>
<text text-anchor="start" x="127" y="-433.5" font-family="Helvetica,sans-Serif" font-size="10.00">tomoBay.helpers.BrandToCode.convert</text>
<text text-anchor="middle" x="213" y="-422.5" font-family="Helvetica,sans-Serif" font-size="10.00">ToInt</text>
</a>
</g>
</g>
<!-- Node1&#45;&gt;Node3 -->
<g id="edge2" class="edge"><title>Node1&#45;&gt;Node3</title>
<path fill="none" stroke="midnightblue" d="M26.7762,-244.043C28.167,-273.2 36.5488,-361.778 87,-405.5 93.6833,-411.292 101.326,-415.885 109.466,-419.512"/>
<polygon fill="midnightblue" stroke="midnightblue" points="108.255,-422.797 118.842,-423.209 110.823,-416.285 108.255,-422.797"/>
</g>
<!-- Node4 -->
<g id="node4" class="node"><title>Node4</title>
<g id="a_node4"><a xlink:href="classtomoBay_1_1presenters_1_1presenterActions_1_1concreteActions_1_1PrintInvoices.html#ac97d696be5d448872836685e8efd21a6" target="_top" xlink:title="formats the AbstractSalesDayBookLine into a format that can be passed to the WinstockCommandInvoker. ">
<polygon fill="white" stroke="black" points="167,-377 167,-396 259,-396 259,-377 167,-377"/>
<text text-anchor="middle" x="213" y="-384" font-family="Helvetica,sans-Serif" font-size="10.00">formatAsDualList</text>
</a>
</g>
</g>
<!-- Node1&#45;&gt;Node4 -->
<g id="edge3" class="edge"><title>Node1&#45;&gt;Node4</title>
<path fill="none" stroke="midnightblue" d="M27.7519,-244.132C31.5424,-269.069 45.3167,-335.985 87,-367.5 106.676,-382.376 133.163,-387.853 156.69,-389.316"/>
<polygon fill="midnightblue" stroke="midnightblue" points="156.779,-392.823 166.909,-389.72 157.055,-385.828 156.779,-392.823"/>
</g>
<!-- Node6 -->
<g id="node6" class="node"><title>Node6</title>
<g id="a_node6"><a xlink:href="classtomoBay_1_1model_1_1dataTypes_1_1financial_1_1SalesOrderDayBook_1_1AbstractSalesDayBookLine.html#a2322342510367e536d54eb47f2c43512" target="_top" xlink:title="returns the invoice number of this invoice, if it exists. ">
<polygon fill="white" stroke="black" points="375,-268 375,-309 586,-309 586,-268 375,-268"/>
<text text-anchor="start" x="383" y="-297" font-family="Helvetica,sans-Serif" font-size="10.00">tomoBay.model.dataTypes.financial.</text>
<text text-anchor="start" x="383" y="-286" font-family="Helvetica,sans-Serif" font-size="10.00">SalesOrderDayBook.AbstractSalesDayBook</text>
<text text-anchor="middle" x="480.5" y="-275" font-family="Helvetica,sans-Serif" font-size="10.00">Line.invoiceNumber</text>
</a>
</g>
</g>
<!-- Node1&#45;&gt;Node6 -->
<g id="edge5" class="edge"><title>Node1&#45;&gt;Node6</title>
<path fill="none" stroke="midnightblue" d="M51.2062,-243.584C62.0492,-247.224 75.0152,-251.113 87,-253.5 179.304,-271.886 285.752,-280.619 364.486,-284.764"/>
<polygon fill="midnightblue" stroke="midnightblue" points="364.754,-288.282 374.919,-285.295 365.11,-281.291 364.754,-288.282"/>
</g>
<!-- Node10 -->
<g id="node10" class="node"><title>Node10</title>
<g id="a_node10"><a xlink:href="classtomoBay_1_1model_1_1dataTypes_1_1financial_1_1SalesOrderDayBook_1_1AbstractSalesDayBookLine.html#afacf6217c7f58a049b532205066da488" target="_top" xlink:title="retrieve the order that this AbstractSalesDayBookLine refers to. ">
<polygon fill="white" stroke="black" points="622,-177 622,-218 833,-218 833,-177 622,-177"/>
<text text-anchor="start" x="630" y="-206" font-family="Helvetica,sans-Serif" font-size="10.00">tomoBay.model.dataTypes.financial.</text>
<text text-anchor="start" x="630" y="-195" font-family="Helvetica,sans-Serif" font-size="10.00">SalesOrderDayBook.AbstractSalesDayBook</text>
<text text-anchor="middle" x="727.5" y="-184" font-family="Helvetica,sans-Serif" font-size="10.00">Line.orderInfo</text>
</a>
</g>
</g>
<!-- Node1&#45;&gt;Node10 -->
<g id="edge17" class="edge"><title>Node1&#45;&gt;Node10</title>
<path fill="none" stroke="midnightblue" d="M51.2864,-225.788C62.1436,-222.213 75.0985,-218.273 87,-215.5 197.377,-189.782 247.988,-244.038 339,-176.5 368.692,-154.466 343.705,-121.192 375,-101.5 454.372,-51.5564 496.403,-73.8131 586,-101.5 629.229,-114.858 671.022,-146.594 697.623,-169.936"/>
<polygon fill="midnightblue" stroke="midnightblue" points="695.592,-172.816 705.376,-176.881 700.263,-167.602 695.592,-172.816"/>
</g>
<!-- Node11 -->
<g id="node11" class="node"><title>Node11</title>
<g id="a_node11"><a xlink:href="classtomoBay_1_1model_1_1dataTypes_1_1order_1_1Transaction.html#ae22e0c0169b69acfb681cf924aa8f0a8" target="_top" xlink:title="retrieve the listing associated with this transaction ">
<polygon fill="white" stroke="black" points="132.5,-137.5 132.5,-167.5 293.5,-167.5 293.5,-137.5 132.5,-137.5"/>
<text text-anchor="start" x="140.5" y="-155.5" font-family="Helvetica,sans-Serif" font-size="10.00">tomoBay.model.dataTypes.order.</text>
<text text-anchor="middle" x="213" y="-144.5" font-family="Helvetica,sans-Serif" font-size="10.00">Transaction.listing</text>
</a>
</g>
</g>
<!-- Node1&#45;&gt;Node11 -->
<g id="edge10" class="edge"><title>Node1&#45;&gt;Node11</title>
<path fill="none" stroke="midnightblue" d="M34.9162,-224.882C45.7709,-213.092 65.7909,-193.347 87,-182.5 98.0533,-176.847 110.205,-172.234 122.456,-168.476"/>
<polygon fill="midnightblue" stroke="midnightblue" points="123.645,-171.776 132.284,-165.642 121.706,-165.05 123.645,-171.776"/>
</g>
<!-- Node12 -->
<g id="node12" class="node"><title>Node12</title>
<g id="a_node12"><a xlink:href="classtomoBay_1_1model_1_1dataTypes_1_1financial_1_1SalesOrderDayBook_1_1SalesDayBookLineFactory.html#a2d63fd7591115332417a84014f39b204" target="_top" xlink:title="create the requested AbstractSalesDayBookLine. ">
<polygon fill="white" stroke="black" points="87,-327.5 87,-357.5 339,-357.5 339,-327.5 87,-327.5"/>
<text text-anchor="start" x="95" y="-345.5" font-family="Helvetica,sans-Serif" font-size="10.00">tomoBay.model.dataTypes.financial.</text>
<text text-anchor="middle" x="213" y="-334.5" font-family="Helvetica,sans-Serif" font-size="10.00">SalesOrderDayBook.SalesDayBookLineFactory.make</text>
</a>
</g>
</g>
<!-- Node1&#45;&gt;Node12 -->
<g id="edge11" class="edge"><title>Node1&#45;&gt;Node12</title>
<path fill="none" stroke="midnightblue" d="M34.1266,-244.275C44.7395,-257.306 65.1363,-280.364 87,-294.5 105.875,-306.703 128.323,-316.536 148.953,-324.047"/>
<polygon fill="midnightblue" stroke="midnightblue" points="148.001,-327.423 158.596,-327.442 150.326,-320.82 148.001,-327.423"/>
</g>
<!-- Node17 -->
<g id="node17" class="node"><title>Node17</title>
<g id="a_node17"><a xlink:href="classtomoBay_1_1model_1_1dataTypes_1_1order_1_1Listing.html#aeb86e87dbdd13b9820905d09d542e7e4" target="_top" xlink:title="retrieve the part specified in the parameter ">
<polygon fill="white" stroke="black" points="132.5,-88.5 132.5,-118.5 293.5,-118.5 293.5,-88.5 132.5,-88.5"/>
<text text-anchor="start" x="140.5" y="-106.5" font-family="Helvetica,sans-Serif" font-size="10.00">tomoBay.model.dataTypes.order.</text>
<text text-anchor="middle" x="213" y="-95.5" font-family="Helvetica,sans-Serif" font-size="10.00">Listing.part</text>
</a>
</g>
</g>
<!-- Node1&#45;&gt;Node17 -->
<g id="edge18" class="edge"><title>Node1&#45;&gt;Node17</title>
<path fill="none" stroke="midnightblue" d="M28.9424,-224.954C34.9084,-203.702 52.3364,-152.401 87,-127.5 97.5832,-119.897 109.923,-114.524 122.649,-110.756"/>
<polygon fill="midnightblue" stroke="midnightblue" points="123.656,-114.11 132.433,-108.177 121.871,-107.341 123.656,-114.11"/>
</g>
<!-- Node18 -->
<g id="node18" class="node"><title>Node18</title>
<g id="a_node18"><a xlink:href="classtomoBay_1_1presenters_1_1presenterActions_1_1concreteActions_1_1PrintInvoices.html#a3396bf15e4a594abdeb16cb37f076ce2" target="_top" xlink:title="actually send the data to the winstock server to print the invoice ">
<polygon fill="white" stroke="black" points="195.5,-225 195.5,-244 230.5,-244 230.5,-225 195.5,-225"/>
<text text-anchor="middle" x="213" y="-232" font-family="Helvetica,sans-Serif" font-size="10.00">print</text>
</a>
</g>
</g>
<!-- Node1&#45;&gt;Node18 -->
<g id="edge19" class="edge"><title>Node1&#45;&gt;Node18</title>
<path fill="none" stroke="midnightblue" d="M51.133,-234.5C85.9656,-234.5 149.365,-234.5 185.293,-234.5"/>
<polygon fill="midnightblue" stroke="midnightblue" points="185.499,-238 195.499,-234.5 185.499,-231 185.499,-238"/>
</g>
<!-- Node22 -->
<g id="node22" class="node"><title>Node22</title>
<g id="a_node22"><a xlink:href="classtomoBay_1_1presenters_1_1presenterActions_1_1concreteActions_1_1PrintInvoices.html#a1dcb7cb2d938a4d9ed4403825bfa97e4" target="_top" xlink:title="splits the &#39;data&#39; string into a string array ">
<polygon fill="white" stroke="black" points="164.5,-50 164.5,-69 261.5,-69 261.5,-50 164.5,-50"/>
<text text-anchor="middle" x="213" y="-57" font-family="Helvetica,sans-Serif" font-size="10.00">splitOrderNoString</text>
</a>
</g>
</g>
<!-- Node1&#45;&gt;Node22 -->
<g id="edge24" class="edge"><title>Node1&#45;&gt;Node22</title>
<path fill="none" stroke="midnightblue" d="M27.0482,-224.896C29.1851,-197.188 39.407,-116.66 87,-78.5 105.722,-63.4887 131.249,-57.8333 154.355,-56.2807"/>
<polygon fill="midnightblue" stroke="midnightblue" points="154.585,-59.7741 164.424,-55.8439 154.282,-52.7807 154.585,-59.7741"/>
</g>
<!-- Node23 -->
<g id="node23" class="node"><title>Node23</title>
<g id="a_node23"><a xlink:href="classtomoBay_1_1model_1_1dataTypes_1_1order_1_1Order.html#a39d4b856c1dcba627c763d60c3be86b0" target="_top" xlink:title="An order is made up of transactions, this method retrieves the specified transaction, given the index parameter. ">
<polygon fill="white" stroke="black" points="132.5,-0.5 132.5,-30.5 293.5,-30.5 293.5,-0.5 132.5,-0.5"/>
<text text-anchor="start" x="140.5" y="-18.5" font-family="Helvetica,sans-Serif" font-size="10.00">tomoBay.model.dataTypes.order.</text>
<text text-anchor="middle" x="213" y="-7.5" font-family="Helvetica,sans-Serif" font-size="10.00">Order.transaction</text>
</a>
</g>
</g>
<!-- Node1&#45;&gt;Node23 -->
<g id="edge25" class="edge"><title>Node1&#45;&gt;Node23</title>
<path fill="none" stroke="midnightblue" d="M26.32,-224.627C26.3114,-192.641 30.888,-91.0142 87,-40.5 97.1252,-31.3849 109.609,-25.208 122.731,-21.0832"/>
<polygon fill="midnightblue" stroke="midnightblue" points="123.661,-24.4574 132.374,-18.4297 121.804,-17.7082 123.661,-24.4574"/>
</g>
<!-- Node5 -->
<g id="node5" class="node"><title>Node5</title>
<g id="a_node5"><a xlink:href="classtomoBay_1_1model_1_1dataTypes_1_1DualList.html#ac6c5d11a7054f49bb7c9489f5893daeb" target="_top" xlink:title="add a value pair to the DualList ">
<polygon fill="white" stroke="black" points="412,-523.5 412,-553.5 549,-553.5 549,-523.5 412,-523.5"/>
<text text-anchor="start" x="420" y="-541.5" font-family="Helvetica,sans-Serif" font-size="10.00">tomoBay.model.dataTypes.</text>
<text text-anchor="middle" x="480.5" y="-530.5" font-family="Helvetica,sans-Serif" font-size="10.00">DualList.put</text>
</a>
</g>
</g>
<!-- Node4&#45;&gt;Node5 -->
<g id="edge4" class="edge"><title>Node4&#45;&gt;Node5</title>
<path fill="none" stroke="midnightblue" d="M259.089,-382.968C285.166,-383.33 317.058,-388.202 339,-406.5 375.921,-437.289 340.007,-475.537 375,-508.5 382.837,-515.882 392.369,-521.464 402.452,-525.681"/>
<polygon fill="midnightblue" stroke="midnightblue" points="401.242,-528.965 411.835,-529.183 403.69,-522.407 401.242,-528.965"/>
</g>
<!-- Node7 -->
<g id="node7" class="node"><title>Node7</title>
<g id="a_node7"><a xlink:href="classtomoBay_1_1model_1_1dataTypes_1_1order_1_1Order.html#a71ffaf8494f38432864d46ea421343fc" target="_top" xlink:title="retrieve the invoice number from this order(if it has one) ">
<polygon fill="white" stroke="black" points="647,-312.5 647,-342.5 808,-342.5 808,-312.5 647,-312.5"/>
<text text-anchor="start" x="655" y="-330.5" font-family="Helvetica,sans-Serif" font-size="10.00">tomoBay.model.dataTypes.order.</text>
<text text-anchor="middle" x="727.5" y="-319.5" font-family="Helvetica,sans-Serif" font-size="10.00">Order.invoiceNo</text>
</a>
</g>
</g>
<!-- Node6&#45;&gt;Node7 -->
<g id="edge6" class="edge"><title>Node6&#45;&gt;Node7</title>
<path fill="none" stroke="midnightblue" d="M586.113,-305.153C602.915,-307.827 620.176,-310.575 636.594,-313.188"/>
<polygon fill="midnightblue" stroke="midnightblue" points="636.27,-316.681 646.696,-314.797 637.371,-309.768 636.27,-316.681"/>
</g>
<!-- Node6&#45;&gt;Node10 -->
<g id="edge9" class="edge"><title>Node6&#45;&gt;Node10</title>
<path fill="none" stroke="midnightblue" d="M560.345,-267.941C569.058,-265.278 577.755,-262.446 586,-259.5 615.964,-248.795 648.525,-234.596 674.75,-222.488"/>
<polygon fill="midnightblue" stroke="midnightblue" points="676.52,-225.525 684.109,-218.132 673.566,-219.179 676.52,-225.525"/>
</g>
<!-- Node8 -->
<g id="node8" class="node"><title>Node8</title>
<g id="a_node8"><a xlink:href="classtomoBay_1_1model_1_1dataTypes_1_1heteroTypeContainer_1_1HeteroFieldContainer.html#a988363ab964d6dc0ccb8560bef5895b6" target="_top" xlink:title="retrieve the the value of an AbstractField from this HeteroFieldContainer, the field should be of the...">
<polygon fill="white" stroke="black" points="869,-375.5 869,-405.5 1061,-405.5 1061,-375.5 869,-375.5"/>
<text text-anchor="start" x="877" y="-393.5" font-family="Helvetica,sans-Serif" font-size="10.00">tomoBay.model.dataTypes.hetero</text>
<text text-anchor="middle" x="965" y="-382.5" font-family="Helvetica,sans-Serif" font-size="10.00">TypeContainer.HeteroFieldContainer.get</text>
</a>
</g>
</g>
<!-- Node7&#45;&gt;Node8 -->
<g id="edge7" class="edge"><title>Node7&#45;&gt;Node8</title>
<path fill="none" stroke="midnightblue" d="M784.609,-342.51C818.682,-351.625 862.346,-363.306 898.064,-372.861"/>
<polygon fill="midnightblue" stroke="midnightblue" points="897.348,-376.293 907.913,-375.496 899.157,-369.53 897.348,-376.293"/>
</g>
<!-- Node9 -->
<g id="node9" class="node"><title>Node9</title>
<g id="a_node9"><a xlink:href="classtomoBay_1_1model_1_1dataTypes_1_1heteroTypeContainer_1_1HeteroFieldContainer.html#a9dee3c01eb5ab16203e1c6820a569484" target="_top" xlink:title="performs a type check, assuming that field and type are of the same type then this method returns tru...">
<polygon fill="white" stroke="black" points="1097,-370 1097,-411 1283,-411 1283,-370 1097,-370"/>
<text text-anchor="start" x="1105" y="-399" font-family="Helvetica,sans-Serif" font-size="10.00">tomoBay.model.dataTypes.hetero</text>
<text text-anchor="start" x="1105" y="-388" font-family="Helvetica,sans-Serif" font-size="10.00">TypeContainer.HeteroFieldContainer.is</text>
<text text-anchor="middle" x="1190" y="-377" font-family="Helvetica,sans-Serif" font-size="10.00">SameType</text>
</a>
</g>
</g>
<!-- Node8&#45;&gt;Node9 -->
<g id="edge8" class="edge"><title>Node8&#45;&gt;Node9</title>
<path fill="none" stroke="midnightblue" d="M1061.22,-390.5C1069.73,-390.5 1078.37,-390.5 1086.93,-390.5"/>
<polygon fill="midnightblue" stroke="midnightblue" points="1086.93,-394 1096.93,-390.5 1086.93,-387 1086.93,-394"/>
</g>
<!-- Node13 -->
<g id="node13" class="node"><title>Node13</title>
<g id="a_node13"><a xlink:href="classtomoBay_1_1model_1_1dataTypes_1_1order_1_1Order.html#a72e31cd12a6fab47d81bc64942d3f25f" target="_top" xlink:title="Retrieve the Buyer that placed this order. ">
<polygon fill="white" stroke="black" points="400,-435.5 400,-465.5 561,-465.5 561,-435.5 400,-435.5"/>
<text text-anchor="start" x="408" y="-453.5" font-family="Helvetica,sans-Serif" font-size="10.00">tomoBay.model.dataTypes.order.</text>
<text text-anchor="middle" x="480.5" y="-442.5" font-family="Helvetica,sans-Serif" font-size="10.00">Order.buyer</text>
</a>
</g>
</g>
<!-- Node12&#45;&gt;Node13 -->
<g id="edge12" class="edge"><title>Node12&#45;&gt;Node13</title>
<path fill="none" stroke="midnightblue" d="M321.223,-357.517C327.48,-360.331 333.468,-363.632 339,-367.5 364.175,-385.102 350.077,-408.543 375,-426.5 379.789,-429.951 384.996,-432.915 390.442,-435.46"/>
<polygon fill="midnightblue" stroke="midnightblue" points="389.226,-438.745 399.803,-439.359 391.918,-432.283 389.226,-438.745"/>
</g>
<!-- Node14 -->
<g id="node14" class="node"><title>Node14</title>
<g id="a_node14"><a xlink:href="interfacetomoBay_1_1model_1_1dataTypes_1_1financial_1_1SalesOrderDayBook_1_1factories_1_1AbstractSalesDayBookLineFactory.html#ab4b1ec3764547f367b1515c5d7b378fb" target="_top" xlink:title="make an AbstractSalesDayBookLine specific to this child class. ">
<polygon fill="white" stroke="black" points="387.5,-376 387.5,-417 573.5,-417 573.5,-376 387.5,-376"/>
<text text-anchor="start" x="395.5" y="-405" font-family="Helvetica,sans-Serif" font-size="10.00">tomoBay.model.dataTypes.financial.</text>
<text text-anchor="start" x="395.5" y="-394" font-family="Helvetica,sans-Serif" font-size="10.00">SalesOrderDayBook.factories.Abstract</text>
<text text-anchor="middle" x="480.5" y="-383" font-family="Helvetica,sans-Serif" font-size="10.00">SalesDayBookLineFactory.make</text>
</a>
</g>
</g>
<!-- Node12&#45;&gt;Node14 -->
<g id="edge13" class="edge"><title>Node12&#45;&gt;Node14</title>
<path fill="none" stroke="midnightblue" d="M289.701,-357.562C305.968,-360.821 323.059,-364.261 339,-367.5 351.448,-370.029 364.512,-372.702 377.454,-375.36"/>
<polygon fill="midnightblue" stroke="midnightblue" points="376.813,-378.802 387.313,-377.388 378.223,-371.945 376.813,-378.802"/>
</g>
<!-- Node15 -->
<g id="node15" class="node"><title>Node15</title>
<g id="a_node15"><a xlink:href="classtomoBay_1_1model_1_1dataTypes_1_1order_1_1Order.html#aa1be772bd50137a618371188bfc5d284" target="_top" xlink:title="tomoBay.model.dataTypes.order.\lOrder.shippingCost">
<polygon fill="white" stroke="black" points="400,-327.5 400,-357.5 561,-357.5 561,-327.5 400,-327.5"/>
<text text-anchor="start" x="408" y="-345.5" font-family="Helvetica,sans-Serif" font-size="10.00">tomoBay.model.dataTypes.order.</text>
<text text-anchor="middle" x="480.5" y="-334.5" font-family="Helvetica,sans-Serif" font-size="10.00">Order.shippingCost</text>
</a>
</g>
</g>
<!-- Node12&#45;&gt;Node15 -->
<g id="edge14" class="edge"><title>Node12&#45;&gt;Node15</title>
<path fill="none" stroke="midnightblue" d="M339.364,-342.5C356.215,-342.5 373.226,-342.5 389.305,-342.5"/>
<polygon fill="midnightblue" stroke="midnightblue" points="389.725,-346 399.725,-342.5 389.725,-339 389.725,-346"/>
</g>
<!-- Node16 -->
<g id="node16" class="node"><title>Node16</title>
<g id="a_node16"><a xlink:href="classtomoBay_1_1model_1_1dataTypes_1_1order_1_1Buyer.html#a1b6c2d401bf44f453c1b2ed3aaa04638" target="_top" xlink:title="retrieve the second street line of the address of this buyer ">
<polygon fill="white" stroke="black" points="647,-439.5 647,-469.5 808,-469.5 808,-439.5 647,-439.5"/>
<text text-anchor="start" x="655" y="-457.5" font-family="Helvetica,sans-Serif" font-size="10.00">tomoBay.model.dataTypes.order.</text>
<text text-anchor="middle" x="727.5" y="-446.5" font-family="Helvetica,sans-Serif" font-size="10.00">Buyer.street2</text>
</a>
</g>
</g>
<!-- Node12&#45;&gt;Node16 -->
<g id="edge15" class="edge"><title>Node12&#45;&gt;Node16</title>
<path fill="none" stroke="midnightblue" d="M324.948,-357.557C329.959,-360.399 334.686,-363.692 339,-367.5 376.931,-400.985 333.954,-445.916 375,-475.5 467.127,-541.901 610.634,-500.879 682.445,-473.37"/>
<polygon fill="midnightblue" stroke="midnightblue" points="684.056,-476.498 692.09,-469.591 681.502,-469.981 684.056,-476.498"/>
</g>
<!-- Node16&#45;&gt;Node8 -->
<g id="edge16" class="edge"><title>Node16&#45;&gt;Node8</title>
<path fill="none" stroke="midnightblue" d="M783.714,-439.495C818.136,-430.14 862.603,-418.056 898.761,-408.229"/>
<polygon fill="midnightblue" stroke="midnightblue" points="899.992,-411.522 908.724,-405.522 898.156,-404.767 899.992,-411.522"/>
</g>
<!-- Node18&#45;&gt;Node6 -->
<g id="edge22" class="edge"><title>Node18&#45;&gt;Node6</title>
<path fill="none" stroke="midnightblue" d="M230.608,-237.878C258.235,-243.497 315.827,-255.211 368.658,-265.956"/>
<polygon fill="midnightblue" stroke="midnightblue" points="367.962,-269.386 378.459,-267.949 369.357,-262.526 367.962,-269.386"/>
</g>
<!-- Node19 -->
<g id="node19" class="node"><title>Node19</title>
<g id="a_node19"><a xlink:href="classtomoBay_1_1model_1_1winstock_1_1WinstockCommandInvoker.html#af1434b0b82b0016e3a50a6aaecc770c2" target="_top" xlink:title="This method executes the AbstractWinstockCommand that the user has requested. ">
<polygon fill="white" stroke="black" points="395,-170.5 395,-200.5 566,-200.5 566,-170.5 395,-170.5"/>
<text text-anchor="start" x="403" y="-188.5" font-family="Helvetica,sans-Serif" font-size="10.00">tomoBay.model.winstock.Winstock</text>
<text text-anchor="middle" x="480.5" y="-177.5" font-family="Helvetica,sans-Serif" font-size="10.00">CommandInvoker.execute</text>
</a>
</g>
</g>
<!-- Node18&#45;&gt;Node19 -->
<g id="edge20" class="edge"><title>Node18&#45;&gt;Node19</title>
<path fill="none" stroke="midnightblue" d="M230.608,-231.435C261.676,-225.701 330.64,-212.973 388.112,-202.366"/>
<polygon fill="midnightblue" stroke="midnightblue" points="388.763,-205.805 397.962,-200.548 387.493,-198.922 388.763,-205.805"/>
</g>
<!-- Node20 -->
<g id="node20" class="node"><title>Node20</title>
<g id="a_node20"><a xlink:href="interfacetomoBay_1_1model_1_1winstock_1_1response_1_1AbstractWinstockCommandResponse.html#a94c43012f032cf0ad0acc1d6a6047cf6" target="_top" xlink:title="method of descerning whether the AbstractWinstockCommand associated with this AbstractWinstockCommand...">
<polygon fill="white" stroke="black" points="383.5,-111 383.5,-152 577.5,-152 577.5,-111 383.5,-111"/>
<text text-anchor="start" x="391.5" y="-140" font-family="Helvetica,sans-Serif" font-size="10.00">tomoBay.model.winstock.response.</text>
<text text-anchor="start" x="391.5" y="-129" font-family="Helvetica,sans-Serif" font-size="10.00">AbstractWinstockCommandResponse.is</text>
<text text-anchor="middle" x="480.5" y="-118" font-family="Helvetica,sans-Serif" font-size="10.00">Success</text>
</a>
</g>
</g>
<!-- Node18&#45;&gt;Node20 -->
<g id="edge21" class="edge"><title>Node18&#45;&gt;Node20</title>
<path fill="none" stroke="midnightblue" d="M230.798,-235.069C256.224,-235.143 305.102,-232.143 339,-210.5 362.08,-195.764 352.536,-176.158 375,-160.5 376.68,-159.329 378.405,-158.205 380.17,-157.127"/>
<polygon fill="midnightblue" stroke="midnightblue" points="382.217,-159.995 389.285,-152.103 378.838,-153.865 382.217,-159.995"/>
</g>
<!-- Node21 -->
<g id="node21" class="node"><title>Node21</title>
<g id="a_node21"><a xlink:href="classtomoBay_1_1helpers_1_1StackTraceToString.html#acc17f606a32b47fa21910194d3fc44c6" target="_top" xlink:title="Converts the stack trace of the exception provided into a string. ">
<polygon fill="white" stroke="black" points="409,-219.5 409,-249.5 552,-249.5 552,-219.5 409,-219.5"/>
<text text-anchor="start" x="417" y="-237.5" font-family="Helvetica,sans-Serif" font-size="10.00">tomoBay.helpers.StackTrace</text>
<text text-anchor="middle" x="480.5" y="-226.5" font-family="Helvetica,sans-Serif" font-size="10.00">ToString.toString</text>
</a>
</g>
</g>
<!-- Node18&#45;&gt;Node21 -->
<g id="edge23" class="edge"><title>Node18&#45;&gt;Node21</title>
<path fill="none" stroke="midnightblue" d="M230.608,-234.5C263.608,-234.5 339.362,-234.5 398.687,-234.5"/>
<polygon fill="midnightblue" stroke="midnightblue" points="398.807,-238 408.807,-234.5 398.807,-231 398.807,-238"/>
</g>
</g>
</svg>
