<?xml version="1.0" encoding="UTF-8" standalone="no"?>
<!DOCTYPE svg PUBLIC "-//W3C//DTD SVG 1.1//EN"
 "http://www.w3.org/Graphics/SVG/1.1/DTD/svg11.dtd">
<!-- Generated by graphviz version 2.38.0 (20140413.2041)
 -->
<!-- Title: AbstractLineItem Pages: 1 -->
<svg width="424pt" height="292pt"
 viewBox="0.00 0.00 424.00 292.00" xmlns="http://www.w3.org/2000/svg" xmlns:xlink="http://www.w3.org/1999/xlink">
<g id="graph0" class="graph" transform="scale(1 1) rotate(0) translate(4 288)">
<title>AbstractLineItem</title>
<polygon fill="white" stroke="none" points="-4,4 -4,-288 420,-288 420,4 -4,4"/>
<!-- Node1 -->
<g id="node1" class="node"><title>Node1</title>
<polygon fill="#bfbfbf" stroke="black" points="125,-138.5 125,-283.5 235,-283.5 235,-138.5 125,-138.5"/>
<text text-anchor="middle" x="180" y="-271.5" font-family="Helvetica,sans-Serif" font-size="10.00">AbstractLineItem</text>
<polyline fill="none" stroke="black" points="125,-264.5 235,-264.5 "/>
<text text-anchor="start" x="133" y="-252.5" font-family="Helvetica,sans-Serif" font-size="10.00"># partIndex</text>
<text text-anchor="start" x="133" y="-241.5" font-family="Helvetica,sans-Serif" font-size="10.00"># transactionIndex_M</text>
<text text-anchor="start" x="133" y="-230.5" font-family="Helvetica,sans-Serif" font-size="10.00">&#45; price_M</text>
<polyline fill="none" stroke="black" points="125,-223.5 235,-223.5 "/>
<text text-anchor="start" x="133" y="-211.5" font-family="Helvetica,sans-Serif" font-size="10.00">+ AbstractLineItem()</text>
<text text-anchor="start" x="133" y="-200.5" font-family="Helvetica,sans-Serif" font-size="10.00">+ adjustPrice()</text>
<text text-anchor="start" x="133" y="-189.5" font-family="Helvetica,sans-Serif" font-size="10.00">+ quantity()</text>
<text text-anchor="start" x="133" y="-178.5" font-family="Helvetica,sans-Serif" font-size="10.00">+ description()</text>
<text text-anchor="start" x="133" y="-167.5" font-family="Helvetica,sans-Serif" font-size="10.00">+ partNo()</text>
<text text-anchor="start" x="133" y="-156.5" font-family="Helvetica,sans-Serif" font-size="10.00">+ price()</text>
<text text-anchor="start" x="133" y="-145.5" font-family="Helvetica,sans-Serif" font-size="10.00"># unitPrice()</text>
</g>
<!-- Node2 -->
<g id="node2" class="node"><title>Node2</title>
<g id="a_node2"><a xlink:href="classtomoBay_1_1model_1_1dataTypes_1_1financial_1_1SalesOrderDayBook_1_1concreteLineTypes_1_1GSPInvoiceLine.html" target="_top" xlink:title="{GSPInvoiceLine\n||+ GSPInvoiceLine()\l# unitPrice()\l}">
<polygon fill="white" stroke="black" points="0,-17 0,-85 102,-85 102,-17 0,-17"/>
<text text-anchor="middle" x="51" y="-73" font-family="Helvetica,sans-Serif" font-size="10.00">GSPInvoiceLine</text>
<polyline fill="none" stroke="black" points="0,-66 102,-66 "/>
<text text-anchor="middle" x="51" y="-54" font-family="Helvetica,sans-Serif" font-size="10.00"> </text>
<polyline fill="none" stroke="black" points="0,-47 102,-47 "/>
<text text-anchor="start" x="8" y="-35" font-family="Helvetica,sans-Serif" font-size="10.00">+ GSPInvoiceLine()</text>
<text text-anchor="start" x="8" y="-24" font-family="Helvetica,sans-Serif" font-size="10.00"># unitPrice()</text>
</a>
</g>
</g>
<!-- Node1&#45;&gt;Node2 -->
<g id="edge1" class="edge"><title>Node1&#45;&gt;Node2</title>
<path fill="none" stroke="midnightblue" d="M118.446,-134.608C104.309,-117.294 89.9836,-99.7473 78.1926,-85.3056"/>
<polygon fill="none" stroke="midnightblue" points="115.883,-137.003 124.918,-142.535 121.305,-132.576 115.883,-137.003"/>
</g>
<!-- Node3 -->
<g id="node3" class="node"><title>Node3</title>
<g id="a_node3"><a xlink:href="classtomoBay_1_1model_1_1dataTypes_1_1financial_1_1SalesOrderDayBook_1_1concreteLineTypes_1_1StandardInvoiceLine.html" target="_top" xlink:title="{StandardInvoiceLine\n||+ StandardInvoiceLine()\l# unitPrice()\l}">
<polygon fill="white" stroke="black" points="120,-17 120,-85 240,-85 240,-17 120,-17"/>
<text text-anchor="middle" x="180" y="-73" font-family="Helvetica,sans-Serif" font-size="10.00">StandardInvoiceLine</text>
<polyline fill="none" stroke="black" points="120,-66 240,-66 "/>
<text text-anchor="middle" x="180" y="-54" font-family="Helvetica,sans-Serif" font-size="10.00"> </text>
<polyline fill="none" stroke="black" points="120,-47 240,-47 "/>
<text text-anchor="start" x="128" y="-35" font-family="Helvetica,sans-Serif" font-size="10.00">+ StandardInvoiceLine()</text>
<text text-anchor="start" x="128" y="-24" font-family="Helvetica,sans-Serif" font-size="10.00"># unitPrice()</text>
</a>
</g>
</g>
<!-- Node1&#45;&gt;Node3 -->
<g id="edge2" class="edge"><title>Node1&#45;&gt;Node3</title>
<path fill="none" stroke="midnightblue" d="M180,-128.332C180,-113.009 180,-97.8196 180,-85.0739"/>
<polygon fill="none" stroke="midnightblue" points="176.5,-128.397 180,-138.397 183.5,-128.397 176.5,-128.397"/>
</g>
<!-- Node4 -->
<g id="node4" class="node"><title>Node4</title>
<g id="a_node4"><a xlink:href="classtomoBay_1_1model_1_1dataTypes_1_1financial_1_1SalesOrderDayBook_1_1concreteLineTypes_1_1StandardInvoiceShippingLine.html" target="_top" xlink:title="{StandardInvoiceShippingLine\n||+ StandardInvoiceShippingLine()\l+ quantity()\l+ description()\l+ partNo()\l# unitPrice()\l}">
<polygon fill="white" stroke="black" points="258,-0.5 258,-101.5 416,-101.5 416,-0.5 258,-0.5"/>
<text text-anchor="middle" x="337" y="-89.5" font-family="Helvetica,sans-Serif" font-size="10.00">StandardInvoiceShippingLine</text>
<polyline fill="none" stroke="black" points="258,-82.5 416,-82.5 "/>
<text text-anchor="middle" x="337" y="-70.5" font-family="Helvetica,sans-Serif" font-size="10.00"> </text>
<polyline fill="none" stroke="black" points="258,-63.5 416,-63.5 "/>
<text text-anchor="start" x="266" y="-51.5" font-family="Helvetica,sans-Serif" font-size="10.00">+ StandardInvoiceShippingLine()</text>
<text text-anchor="start" x="266" y="-40.5" font-family="Helvetica,sans-Serif" font-size="10.00">+ quantity()</text>
<text text-anchor="start" x="266" y="-29.5" font-family="Helvetica,sans-Serif" font-size="10.00">+ description()</text>
<text text-anchor="start" x="266" y="-18.5" font-family="Helvetica,sans-Serif" font-size="10.00">+ partNo()</text>
<text text-anchor="start" x="266" y="-7.5" font-family="Helvetica,sans-Serif" font-size="10.00"># unitPrice()</text>
</a>
</g>
</g>
<!-- Node1&#45;&gt;Node4 -->
<g id="edge3" class="edge"><title>Node1&#45;&gt;Node4</title>
<path fill="none" stroke="midnightblue" d="M242.625,-146.976C257.593,-131.913 273.363,-116.042 287.636,-101.678"/>
<polygon fill="none" stroke="midnightblue" points="239.918,-144.735 235.352,-154.295 244.884,-149.669 239.918,-144.735"/>
</g>
</g>
</svg>
