<?xml version="1.0" encoding="UTF-8" standalone="no"?>
<!DOCTYPE svg PUBLIC "-//W3C//DTD SVG 1.1//EN"
 "http://www.w3.org/Graphics/SVG/1.1/DTD/svg11.dtd">
<!-- Generated by graphviz version 2.38.0 (20140413.2041)
 -->
<!-- Title: execute Pages: 1 -->
<svg width="1058pt" height="662pt"
 viewBox="0.00 0.00 1058.00 661.50" xmlns="http://www.w3.org/2000/svg" xmlns:xlink="http://www.w3.org/1999/xlink">
<g id="graph0" class="graph" transform="scale(1 1) rotate(0) translate(4 657.5)">
<title>execute</title>
<polygon fill="white" stroke="none" points="-4,4 -4,-657.5 1054,-657.5 1054,4 -4,4"/>
<!-- Node1 -->
<g id="node1" class="node"><title>Node1</title>
<polygon fill="#bfbfbf" stroke="black" points="0,-337.5 0,-356.5 51,-356.5 51,-337.5 0,-337.5"/>
<text text-anchor="middle" x="25.5" y="-344.5" font-family="Helvetica,sans-Serif" font-size="10.00">execute</text>
</g>
<!-- Node2 -->
<g id="node2" class="node"><title>Node2</title>
<g id="a_node2"><a xlink:href="classtomoBay_1_1presenters_1_1presenterActions_1_1concreteActions_1_1MarkAsInvoiced.html#adb3dedf31dc2c7fc796f20406c235ccd" target="_top" xlink:title="performs the action specified ">
<polygon fill="white" stroke="black" points="93,-623 93,-653 327,-653 327,-623 93,-623"/>
<text text-anchor="start" x="101" y="-641" font-family="Helvetica,sans-Serif" font-size="10.00">tomoBay.presenters.presenter</text>
<text text-anchor="middle" x="210" y="-630" font-family="Helvetica,sans-Serif" font-size="10.00">Actions.concreteActions.MarkAsInvoiced.execute</text>
</a>
</g>
</g>
<!-- Node1&#45;&gt;Node2 -->
<g id="edge1" class="edge"><title>Node1&#45;&gt;Node2</title>
<path fill="none" stroke="midnightblue" d="M28.2244,-366.743C33.5011,-422.488 51.2851,-579.292 87,-614 90.4831,-617.385 94.2964,-620.36 98.3549,-622.972"/>
<polygon fill="midnightblue" stroke="midnightblue" points="31.7053,-366.374 27.3101,-356.734 24.7344,-367.011 31.7053,-366.374"/>
</g>
<!-- Node3 -->
<g id="node3" class="node"><title>Node3</title>
<g id="a_node3"><a xlink:href="classtomoBay_1_1presenters_1_1presenterActions_1_1concreteActions_1_1MarkAsUninvoiced.html#adb3dedf31dc2c7fc796f20406c235ccd" target="_top" xlink:title="performs the action specified ">
<polygon fill="white" stroke="black" points="87,-574 87,-604 333,-604 333,-574 87,-574"/>
<text text-anchor="start" x="95" y="-592" font-family="Helvetica,sans-Serif" font-size="10.00">tomoBay.presenters.presenter</text>
<text text-anchor="middle" x="210" y="-581" font-family="Helvetica,sans-Serif" font-size="10.00">Actions.concreteActions.MarkAsUninvoiced.execute</text>
</a>
</g>
</g>
<!-- Node1&#45;&gt;Node3 -->
<g id="edge2" class="edge"><title>Node1&#45;&gt;Node3</title>
<path fill="none" stroke="midnightblue" d="M25.6317,-366.856C24.9179,-409.848 29.7232,-511.944 87,-565 90.6423,-568.374 94.615,-571.335 98.8291,-573.931"/>
<polygon fill="midnightblue" stroke="midnightblue" points="29.1375,-366.702 25.931,-356.604 22.1405,-366.498 29.1375,-366.702"/>
</g>
<!-- Node4 -->
<g id="node4" class="node"><title>Node4</title>
<g id="a_node4"><a xlink:href="classtomoBay_1_1model_1_1services_1_1outOfHoursService_1_1OnRunning.html#ae4a4f4cadce2787c7e80005639fbd5d9" target="_top" xlink:title="this method defines what to do in the given derived state ">
<polygon fill="white" stroke="black" points="122,-525 122,-555 298,-555 298,-525 122,-525"/>
<text text-anchor="start" x="130" y="-543" font-family="Helvetica,sans-Serif" font-size="10.00">tomoBay.model.services.out</text>
<text text-anchor="middle" x="210" y="-532" font-family="Helvetica,sans-Serif" font-size="10.00">OfHoursService.OnRunning.execute</text>
</a>
</g>
</g>
<!-- Node1&#45;&gt;Node4 -->
<g id="edge3" class="edge"><title>Node1&#45;&gt;Node4</title>
<path fill="none" stroke="midnightblue" d="M27.5229,-366.983C30.4853,-402.683 42.0279,-477.296 87,-516 96.9805,-524.59 109.132,-530.448 121.852,-534.39"/>
<polygon fill="midnightblue" stroke="midnightblue" points="31.0044,-366.592 26.831,-356.854 24.0207,-367.069 31.0044,-366.592"/>
</g>
<!-- Node6 -->
<g id="node6" class="node"><title>Node6</title>
<g id="a_node6"><a xlink:href="classtomoBay_1_1model_1_1services_1_1individualItemRefreshService_1_1RePopulateEbayItem.html#a9b89b443a8826a0c43b0bf19215986fc" target="_top" xlink:title="update the database with the new brand and part number information gleaned from an ItemCall ...">
<polygon fill="white" stroke="black" points="90.5,-476 90.5,-506 329.5,-506 329.5,-476 90.5,-476"/>
<text text-anchor="start" x="98.5" y="-494" font-family="Helvetica,sans-Serif" font-size="10.00">tomoBay.model.services.individual</text>
<text text-anchor="middle" x="210" y="-483" font-family="Helvetica,sans-Serif" font-size="10.00">ItemRefreshService.RePopulateEbayItem.populate</text>
</a>
</g>
</g>
<!-- Node1&#45;&gt;Node6 -->
<g id="edge5" class="edge"><title>Node1&#45;&gt;Node6</title>
<path fill="none" stroke="midnightblue" d="M30.6642,-366.451C37.5126,-393.462 53.8368,-441.84 87,-467 91.4713,-470.392 96.2928,-473.343 101.347,-475.907"/>
<polygon fill="midnightblue" stroke="midnightblue" points="34.0488,-365.554 28.3539,-356.62 27.2344,-367.155 34.0488,-365.554"/>
</g>
<!-- Node9 -->
<g id="node9" class="node"><title>Node9</title>
<g id="a_node9"><a xlink:href="classtomoBay_1_1model_1_1services_1_1basicEbayUpdateService_1_1Buyers__Table.html#a6f7920f082037fcd84e9fb020730e4f6" target="_top" xlink:title="populates the Orders Table in the database with data grabbed from the ebay API ">
<polygon fill="white" stroke="black" points="134.5,-416.5 134.5,-457.5 285.5,-457.5 285.5,-416.5 134.5,-416.5"/>
<text text-anchor="start" x="142.5" y="-445.5" font-family="Helvetica,sans-Serif" font-size="10.00">tomoBay.model.services.basic</text>
<text text-anchor="start" x="142.5" y="-434.5" font-family="Helvetica,sans-Serif" font-size="10.00">EbayUpdateService.Buyers</text>
<text text-anchor="middle" x="210" y="-423.5" font-family="Helvetica,sans-Serif" font-size="10.00">_Table.populate</text>
</a>
</g>
</g>
<!-- Node1&#45;&gt;Node9 -->
<g id="edge8" class="edge"><title>Node1&#45;&gt;Node9</title>
<path fill="none" stroke="midnightblue" d="M39.9741,-364.857C51.1305,-378.401 68.1613,-396.433 87,-407 101.458,-415.11 118.084,-421.048 134.316,-425.39"/>
<polygon fill="midnightblue" stroke="midnightblue" points="42.4856,-362.391 33.531,-356.728 36.9999,-366.739 42.4856,-362.391"/>
</g>
<!-- Node13 -->
<g id="node13" class="node"><title>Node13</title>
<g id="a_node13"><a xlink:href="classtomoBay_1_1model_1_1services_1_1basicEbayUpdateService_1_1Transactions__Table.html#a6f7920f082037fcd84e9fb020730e4f6" target="_top" xlink:title="populates the Orders Table in the database with data grabbed from the ebay API ">
<polygon fill="white" stroke="black" points="128.5,-356.5 128.5,-397.5 291.5,-397.5 291.5,-356.5 128.5,-356.5"/>
<text text-anchor="start" x="136.5" y="-385.5" font-family="Helvetica,sans-Serif" font-size="10.00">tomoBay.model.services.basic</text>
<text text-anchor="start" x="136.5" y="-374.5" font-family="Helvetica,sans-Serif" font-size="10.00">EbayUpdateService.Transactions</text>
<text text-anchor="middle" x="210" y="-363.5" font-family="Helvetica,sans-Serif" font-size="10.00">_Table.populate</text>
</a>
</g>
</g>
<!-- Node1&#45;&gt;Node13 -->
<g id="edge12" class="edge"><title>Node1&#45;&gt;Node13</title>
<path fill="none" stroke="midnightblue" d="M61.1055,-352.689C80.177,-355.824 104.71,-359.856 128.291,-363.733"/>
<polygon fill="midnightblue" stroke="midnightblue" points="61.5481,-349.214 51.1128,-351.046 60.4126,-356.122 61.5481,-349.214"/>
</g>
<!-- Node14 -->
<g id="node14" class="node"><title>Node14</title>
<g id="a_node14"><a xlink:href="classtomoBay_1_1model_1_1services_1_1basicEbayUpdateService_1_1ItemsAndPartsTable.html#a0a4965df2e2331547f6b8d56f962b70c" target="_top" xlink:title="populates the Orders Table in the database with data grabbed from the ebay API ">
<polygon fill="white" stroke="black" points="124,-296.5 124,-337.5 296,-337.5 296,-296.5 124,-296.5"/>
<text text-anchor="start" x="132" y="-325.5" font-family="Helvetica,sans-Serif" font-size="10.00">tomoBay.model.services.basic</text>
<text text-anchor="start" x="132" y="-314.5" font-family="Helvetica,sans-Serif" font-size="10.00">EbayUpdateService.ItemsAndParts</text>
<text text-anchor="middle" x="210" y="-303.5" font-family="Helvetica,sans-Serif" font-size="10.00">Table.populate</text>
</a>
</g>
</g>
<!-- Node1&#45;&gt;Node14 -->
<g id="edge14" class="edge"><title>Node1&#45;&gt;Node14</title>
<path fill="none" stroke="midnightblue" d="M61.0383,-341.322C78.9073,-338.385 101.584,-334.657 123.782,-331.008"/>
<polygon fill="midnightblue" stroke="midnightblue" points="60.4126,-337.878 51.1128,-342.954 61.5481,-344.786 60.4126,-337.878"/>
</g>
<!-- Node15 -->
<g id="node15" class="node"><title>Node15</title>
<g id="a_node15"><a xlink:href="classtomoBay_1_1model_1_1services_1_1basicEbayUpdateService_1_1Orders__Table.html#abb8f83ca32eba7defe488f4d08be8c74" target="_top" xlink:title="populates the Orders Table in the database with data grabbed from the ebay API ">
<polygon fill="white" stroke="black" points="134.5,-236.5 134.5,-277.5 285.5,-277.5 285.5,-236.5 134.5,-236.5"/>
<text text-anchor="start" x="142.5" y="-265.5" font-family="Helvetica,sans-Serif" font-size="10.00">tomoBay.model.services.basic</text>
<text text-anchor="start" x="142.5" y="-254.5" font-family="Helvetica,sans-Serif" font-size="10.00">EbayUpdateService.Orders</text>
<text text-anchor="middle" x="210" y="-243.5" font-family="Helvetica,sans-Serif" font-size="10.00">_Table.populate</text>
</a>
</g>
</g>
<!-- Node1&#45;&gt;Node15 -->
<g id="edge16" class="edge"><title>Node1&#45;&gt;Node15</title>
<path fill="none" stroke="midnightblue" d="M39.9741,-329.143C51.1305,-315.599 68.1613,-297.567 87,-287 101.458,-278.89 118.084,-272.952 134.316,-268.61"/>
<polygon fill="midnightblue" stroke="midnightblue" points="36.9999,-327.261 33.531,-337.272 42.4856,-331.609 36.9999,-327.261"/>
</g>
<!-- Node16 -->
<g id="node16" class="node"><title>Node16</title>
<g id="a_node16"><a xlink:href="classtomoBay_1_1model_1_1services_1_1reScanBuyerService_1_1DBActions.html#ada9d7427b2cf9579ce36b038793eadd0" target="_top" xlink:title="updates the buyer table in the database with the new buyer information. ">
<polygon fill="white" stroke="black" points="120,-176.5 120,-217.5 300,-217.5 300,-176.5 120,-176.5"/>
<text text-anchor="start" x="128" y="-205.5" font-family="Helvetica,sans-Serif" font-size="10.00">tomoBay.model.services.re</text>
<text text-anchor="start" x="128" y="-194.5" font-family="Helvetica,sans-Serif" font-size="10.00">ScanBuyerService.DBActions.update</text>
<text text-anchor="middle" x="210" y="-183.5" font-family="Helvetica,sans-Serif" font-size="10.00">BuyerTable</text>
</a>
</g>
</g>
<!-- Node1&#45;&gt;Node16 -->
<g id="edge18" class="edge"><title>Node1&#45;&gt;Node16</title>
<path fill="none" stroke="midnightblue" d="M30.8292,-327.761C37.8756,-301.005 54.4356,-252.93 87,-227 96.6405,-219.323 107.968,-213.574 119.769,-209.275"/>
<polygon fill="midnightblue" stroke="midnightblue" points="27.4252,-326.947 28.4415,-337.493 34.2236,-328.615 27.4252,-326.947"/>
</g>
<!-- Node20 -->
<g id="node20" class="node"><title>Node20</title>
<g id="a_node20"><a xlink:href="classtomoBay_1_1presenters_1_1presenterActions_1_1concreteActions_1_1InvoiceOrders.html#a68025f3b1c18d39e769389078a0663a2" target="_top" xlink:title="update the database entry for a particular order to include the invoice number in the invoiced column...">
<polygon fill="white" stroke="black" points="131,-116.5 131,-157.5 289,-157.5 289,-116.5 131,-116.5"/>
<text text-anchor="start" x="139" y="-145.5" font-family="Helvetica,sans-Serif" font-size="10.00">tomoBay.presenters.presenter</text>
<text text-anchor="start" x="139" y="-134.5" font-family="Helvetica,sans-Serif" font-size="10.00">Actions.concreteActions.Invoice</text>
<text text-anchor="middle" x="210" y="-123.5" font-family="Helvetica,sans-Serif" font-size="10.00">Orders.updateDB</text>
</a>
</g>
</g>
<!-- Node1&#45;&gt;Node20 -->
<g id="edge22" class="edge"><title>Node1&#45;&gt;Node20</title>
<path fill="none" stroke="midnightblue" d="M27.1805,-327.508C29.5644,-290.539 40.1698,-210.09 87,-167 99.1985,-155.776 114.907,-148.572 130.965,-143.99"/>
<polygon fill="midnightblue" stroke="midnightblue" points="23.685,-327.331 26.6736,-337.495 30.676,-327.686 23.685,-327.331"/>
</g>
<!-- Node22 -->
<g id="node22" class="node"><title>Node22</title>
<g id="a_node22"><a xlink:href="classtomoBay_1_1model_1_1services_1_1reScanErrorsService_1_1ReScanErrorsDBActions.html#a686181ed1b6d7f86e1b05653dc98f37e" target="_top" xlink:title="updates the database with corrected information, as provided in the ItemSpecifics passed in as an arg...">
<polygon fill="white" stroke="black" points="116,-56.5 116,-97.5 304,-97.5 304,-56.5 116,-56.5"/>
<text text-anchor="start" x="124" y="-85.5" font-family="Helvetica,sans-Serif" font-size="10.00">tomoBay.model.services.re</text>
<text text-anchor="start" x="124" y="-74.5" font-family="Helvetica,sans-Serif" font-size="10.00">ScanErrorsService.ReScanErrors</text>
<text text-anchor="middle" x="210" y="-63.5" font-family="Helvetica,sans-Serif" font-size="10.00">DBActions.updateDBwithCorrectedInfo</text>
</a>
</g>
</g>
<!-- Node1&#45;&gt;Node22 -->
<g id="edge24" class="edge"><title>Node1&#45;&gt;Node22</title>
<path fill="none" stroke="midnightblue" d="M28.8482,-327.326C35.3981,-275.729 55.4827,-138.334 87,-107 95.198,-98.8496 105.231,-92.7881 115.987,-88.2999"/>
<polygon fill="midnightblue" stroke="midnightblue" points="25.3467,-327.124 27.5953,-337.478 32.294,-327.982 25.3467,-327.124"/>
</g>
<!-- Node25 -->
<g id="node25" class="node"><title>Node25</title>
<g id="a_node25"><a xlink:href="classtomoBay_1_1model_1_1services_1_1checkErrorsService_1_1OnRunning.html#a31cd6cc646f62a47db7edc3f4f8d2da5" target="_top" xlink:title="this method updates the notes field in the database to reflect the error that has been found ...">
<polygon fill="white" stroke="black" points="110,-7 110,-37 310,-37 310,-7 110,-7"/>
<text text-anchor="start" x="118" y="-25" font-family="Helvetica,sans-Serif" font-size="10.00">tomoBay.model.services.check</text>
<text text-anchor="middle" x="210" y="-14" font-family="Helvetica,sans-Serif" font-size="10.00">ErrorsService.OnRunning.updateItemNote</text>
</a>
</g>
</g>
<!-- Node1&#45;&gt;Node25 -->
<g id="edge27" class="edge"><title>Node1&#45;&gt;Node25</title>
<path fill="none" stroke="midnightblue" d="M27.7052,-327.265C31.7956,-266.984 47.1788,-86.9458 87,-47 93.5636,-40.4158 101.364,-35.3382 109.801,-31.4468"/>
<polygon fill="midnightblue" stroke="midnightblue" points="24.2052,-327.152 27.0515,-337.358 31.1905,-327.605 24.2052,-327.152"/>
</g>
<!-- Node5 -->
<g id="node5" class="node"><title>Node5</title>
<g id="a_node5"><a xlink:href="classtomoBay_1_1model_1_1services_1_1outOfHoursService_1_1OutOfHoursService.html#ae3b0a282dcba7f2d675ca89b1dd48487" target="_top" xlink:title="tomoBay.model.services.out\lOfHoursService.OutOfHoursService.on\lRunning">
<polygon fill="white" stroke="black" points="371.5,-521.5 371.5,-562.5 559.5,-562.5 559.5,-521.5 371.5,-521.5"/>
<text text-anchor="start" x="379.5" y="-550.5" font-family="Helvetica,sans-Serif" font-size="10.00">tomoBay.model.services.out</text>
<text text-anchor="start" x="379.5" y="-539.5" font-family="Helvetica,sans-Serif" font-size="10.00">OfHoursService.OutOfHoursService.on</text>
<text text-anchor="middle" x="465.5" y="-528.5" font-family="Helvetica,sans-Serif" font-size="10.00">Running</text>
</a>
</g>
</g>
<!-- Node4&#45;&gt;Node5 -->
<g id="edge4" class="edge"><title>Node4&#45;&gt;Node5</title>
<path fill="none" stroke="midnightblue" d="M308.32,-540.768C329.056,-540.931 350.905,-541.104 371.475,-541.266"/>
<polygon fill="midnightblue" stroke="midnightblue" points="308.268,-537.267 298.24,-540.688 308.212,-544.267 308.268,-537.267"/>
</g>
<!-- Node7 -->
<g id="node7" class="node"><title>Node7</title>
<g id="a_node7"><a xlink:href="classtomoBay_1_1model_1_1services_1_1individualItemRefreshService_1_1OnRunning.html#ae4a4f4cadce2787c7e80005639fbd5d9" target="_top" xlink:title="this method defines what to do in the given derived state ">
<polygon fill="white" stroke="black" points="369,-473 369,-503 562,-503 562,-473 369,-473"/>
<text text-anchor="start" x="377" y="-491" font-family="Helvetica,sans-Serif" font-size="10.00">tomoBay.model.services.individual</text>
<text text-anchor="middle" x="465.5" y="-480" font-family="Helvetica,sans-Serif" font-size="10.00">ItemRefreshService.OnRunning.execute</text>
</a>
</g>
</g>
<!-- Node6&#45;&gt;Node7 -->
<g id="edge6" class="edge"><title>Node6&#45;&gt;Node7</title>
<path fill="none" stroke="midnightblue" d="M339.765,-489.476C349.537,-489.361 359.293,-489.245 368.801,-489.133"/>
<polygon fill="midnightblue" stroke="midnightblue" points="339.543,-485.978 329.586,-489.597 339.626,-492.978 339.543,-485.978"/>
</g>
<!-- Node8 -->
<g id="node8" class="node"><title>Node8</title>
<g id="a_node8"><a xlink:href="classtomoBay_1_1model_1_1services_1_1individualItemRefreshService_1_1IndividualItemRefreshService.html#ae3b0a282dcba7f2d675ca89b1dd48487" target="_top" xlink:title="tomoBay.model.services.individual\lItemRefreshService.IndividualItemRefresh\lService.onRunning">
<polygon fill="white" stroke="black" points="601,-467.5 601,-508.5 803,-508.5 803,-467.5 601,-467.5"/>
<text text-anchor="start" x="609" y="-496.5" font-family="Helvetica,sans-Serif" font-size="10.00">tomoBay.model.services.individual</text>
<text text-anchor="start" x="609" y="-485.5" font-family="Helvetica,sans-Serif" font-size="10.00">ItemRefreshService.IndividualItemRefresh</text>
<text text-anchor="middle" x="702" y="-474.5" font-family="Helvetica,sans-Serif" font-size="10.00">Service.onRunning</text>
</a>
</g>
</g>
<!-- Node7&#45;&gt;Node8 -->
<g id="edge7" class="edge"><title>Node7&#45;&gt;Node8</title>
<path fill="none" stroke="midnightblue" d="M572.372,-488C581.776,-488 591.278,-488 600.634,-488"/>
<polygon fill="midnightblue" stroke="midnightblue" points="572.218,-484.5 562.218,-488 572.218,-491.5 572.218,-484.5"/>
</g>
<!-- Node10 -->
<g id="node10" class="node"><title>Node10</title>
<g id="a_node10"><a xlink:href="classtomoBay_1_1model_1_1services_1_1basicEbayUpdateService_1_1OnRunning.html#ae4a4f4cadce2787c7e80005639fbd5d9" target="_top" xlink:title="this method defines what to do in the given derived state ">
<polygon fill="white" stroke="black" points="369,-332 369,-362 562,-362 562,-332 369,-332"/>
<text text-anchor="start" x="377" y="-350" font-family="Helvetica,sans-Serif" font-size="10.00">tomoBay.model.services.basic</text>
<text text-anchor="middle" x="465.5" y="-339" font-family="Helvetica,sans-Serif" font-size="10.00">EbayUpdateService.OnRunning.execute</text>
</a>
</g>
</g>
<!-- Node9&#45;&gt;Node10 -->
<g id="edge9" class="edge"><title>Node9&#45;&gt;Node10</title>
<path fill="none" stroke="midnightblue" d="M295.233,-418.478C308.002,-415.041 320.933,-411.195 333,-407 369.383,-394.351 409.413,-375.299 435.636,-362.07"/>
<polygon fill="midnightblue" stroke="midnightblue" points="294.303,-415.103 285.518,-421.025 296.079,-421.874 294.303,-415.103"/>
</g>
<!-- Node11 -->
<g id="node11" class="node"><title>Node11</title>
<g id="a_node11"><a xlink:href="classtomoBay_1_1model_1_1services_1_1basicEbayUpdateService_1_1BasicEbayUpdateService.html#ae3b0a282dcba7f2d675ca89b1dd48487" target="_top" xlink:title="tomoBay.model.services.basic\lEbayUpdateService.BasicEbayUpdate\lService.onRunning">
<polygon fill="white" stroke="black" points="609.5,-326.5 609.5,-367.5 794.5,-367.5 794.5,-326.5 609.5,-326.5"/>
<text text-anchor="start" x="617.5" y="-355.5" font-family="Helvetica,sans-Serif" font-size="10.00">tomoBay.model.services.basic</text>
<text text-anchor="start" x="617.5" y="-344.5" font-family="Helvetica,sans-Serif" font-size="10.00">EbayUpdateService.BasicEbayUpdate</text>
<text text-anchor="middle" x="702" y="-333.5" font-family="Helvetica,sans-Serif" font-size="10.00">Service.onRunning</text>
</a>
</g>
</g>
<!-- Node10&#45;&gt;Node11 -->
<g id="edge10" class="edge"><title>Node10&#45;&gt;Node11</title>
<path fill="none" stroke="midnightblue" d="M572.504,-347C584.81,-347 597.283,-347 609.374,-347"/>
<polygon fill="midnightblue" stroke="midnightblue" points="572.218,-343.5 562.218,-347 572.218,-350.5 572.218,-343.5"/>
</g>
<!-- Node12 -->
<g id="node12" class="node"><title>Node12</title>
<g id="a_node12"><a xlink:href="classtomoBay_1_1model_1_1services_1_1basicEbayUpdateService_1_1BasicEbayUpdateService.html#afd85cd6baa355d54ab15c19c16c21df9" target="_top" xlink:title="tomoBay.model.services.basic\lEbayUpdateService.BasicEbayUpdate\lService.onPaused">
<polygon fill="white" stroke="black" points="853.5,-326.5 853.5,-367.5 1038.5,-367.5 1038.5,-326.5 853.5,-326.5"/>
<text text-anchor="start" x="861.5" y="-355.5" font-family="Helvetica,sans-Serif" font-size="10.00">tomoBay.model.services.basic</text>
<text text-anchor="start" x="861.5" y="-344.5" font-family="Helvetica,sans-Serif" font-size="10.00">EbayUpdateService.BasicEbayUpdate</text>
<text text-anchor="middle" x="946" y="-333.5" font-family="Helvetica,sans-Serif" font-size="10.00">Service.onPaused</text>
</a>
</g>
</g>
<!-- Node11&#45;&gt;Node12 -->
<g id="edge11" class="edge"><title>Node11&#45;&gt;Node12</title>
<path fill="none" stroke="midnightblue" d="M805.23,-347C821.165,-347 837.545,-347 853.228,-347"/>
<polygon fill="midnightblue" stroke="midnightblue" points="804.835,-343.5 794.835,-347 804.835,-350.5 804.835,-343.5"/>
</g>
<!-- Node13&#45;&gt;Node10 -->
<g id="edge13" class="edge"><title>Node13&#45;&gt;Node10</title>
<path fill="none" stroke="midnightblue" d="M301.745,-366.261C323.455,-363.692 346.701,-360.941 368.634,-358.345"/>
<polygon fill="midnightblue" stroke="midnightblue" points="301.077,-362.816 291.557,-367.467 301.899,-369.767 301.077,-362.816"/>
</g>
<!-- Node14&#45;&gt;Node10 -->
<g id="edge15" class="edge"><title>Node14&#45;&gt;Node10</title>
<path fill="none" stroke="midnightblue" d="M306.062,-328.25C326.535,-330.673 348.187,-333.235 368.688,-335.661"/>
<polygon fill="midnightblue" stroke="midnightblue" points="306.459,-324.773 296.117,-327.073 305.636,-331.724 306.459,-324.773"/>
</g>
<!-- Node15&#45;&gt;Node10 -->
<g id="edge17" class="edge"><title>Node15&#45;&gt;Node10</title>
<path fill="none" stroke="midnightblue" d="M295.233,-275.522C308.002,-278.959 320.933,-282.805 333,-287 369.383,-299.649 409.413,-318.701 435.636,-331.93"/>
<polygon fill="midnightblue" stroke="midnightblue" points="296.079,-272.126 285.518,-272.975 294.303,-278.897 296.079,-272.126"/>
</g>
<!-- Node17 -->
<g id="node17" class="node"><title>Node17</title>
<g id="a_node17"><a xlink:href="classtomoBay_1_1model_1_1services_1_1reScanBuyerService_1_1OnRunning.html#ae4a4f4cadce2787c7e80005639fbd5d9" target="_top" xlink:title="this method defines what to do in the given derived state ">
<polygon fill="white" stroke="black" points="372,-182 372,-212 559,-212 559,-182 372,-182"/>
<text text-anchor="start" x="380" y="-200" font-family="Helvetica,sans-Serif" font-size="10.00">tomoBay.model.services.re</text>
<text text-anchor="middle" x="465.5" y="-189" font-family="Helvetica,sans-Serif" font-size="10.00">ScanBuyerService.OnRunning.execute</text>
</a>
</g>
</g>
<!-- Node16&#45;&gt;Node17 -->
<g id="edge19" class="edge"><title>Node16&#45;&gt;Node17</title>
<path fill="none" stroke="midnightblue" d="M310.207,-197C330.498,-197 351.778,-197 371.83,-197"/>
<polygon fill="midnightblue" stroke="midnightblue" points="310.018,-193.5 300.018,-197 310.018,-200.5 310.018,-193.5"/>
</g>
<!-- Node18 -->
<g id="node18" class="node"><title>Node18</title>
<g id="a_node18"><a xlink:href="classtomoBay_1_1model_1_1services_1_1reScanBuyerService_1_1ReScanBuyerService.html#ae3b0a282dcba7f2d675ca89b1dd48487" target="_top" xlink:title="tomoBay.model.services.re\lScanBuyerService.ReScanBuyerService.on\lRunning">
<polygon fill="white" stroke="black" points="598,-176.5 598,-217.5 806,-217.5 806,-176.5 598,-176.5"/>
<text text-anchor="start" x="606" y="-205.5" font-family="Helvetica,sans-Serif" font-size="10.00">tomoBay.model.services.re</text>
<text text-anchor="start" x="606" y="-194.5" font-family="Helvetica,sans-Serif" font-size="10.00">ScanBuyerService.ReScanBuyerService.on</text>
<text text-anchor="middle" x="702" y="-183.5" font-family="Helvetica,sans-Serif" font-size="10.00">Running</text>
</a>
</g>
</g>
<!-- Node17&#45;&gt;Node18 -->
<g id="edge20" class="edge"><title>Node17&#45;&gt;Node18</title>
<path fill="none" stroke="midnightblue" d="M569.353,-197C578.785,-197 588.342,-197 597.777,-197"/>
<polygon fill="midnightblue" stroke="midnightblue" points="569.181,-193.5 559.181,-197 569.181,-200.5 569.181,-193.5"/>
</g>
<!-- Node19 -->
<g id="node19" class="node"><title>Node19</title>
<g id="a_node19"><a xlink:href="classtomoBay_1_1model_1_1services_1_1reScanBuyerService_1_1ReScanBuyerService.html#afd85cd6baa355d54ab15c19c16c21df9" target="_top" xlink:title="tomoBay.model.services.re\lScanBuyerService.ReScanBuyerService.on\lPaused">
<polygon fill="white" stroke="black" points="842,-176.5 842,-217.5 1050,-217.5 1050,-176.5 842,-176.5"/>
<text text-anchor="start" x="850" y="-205.5" font-family="Helvetica,sans-Serif" font-size="10.00">tomoBay.model.services.re</text>
<text text-anchor="start" x="850" y="-194.5" font-family="Helvetica,sans-Serif" font-size="10.00">ScanBuyerService.ReScanBuyerService.on</text>
<text text-anchor="middle" x="946" y="-183.5" font-family="Helvetica,sans-Serif" font-size="10.00">Paused</text>
</a>
</g>
</g>
<!-- Node18&#45;&gt;Node19 -->
<g id="edge21" class="edge"><title>Node18&#45;&gt;Node19</title>
<path fill="none" stroke="midnightblue" d="M816.515,-197C824.892,-197 833.317,-197 841.628,-197"/>
<polygon fill="midnightblue" stroke="midnightblue" points="816.332,-193.5 806.332,-197 816.332,-200.5 816.332,-193.5"/>
</g>
<!-- Node21 -->
<g id="node21" class="node"><title>Node21</title>
<g id="a_node21"><a xlink:href="classtomoBay_1_1presenters_1_1presenterActions_1_1concreteActions_1_1InvoiceOrders.html#adb3dedf31dc2c7fc796f20406c235ccd" target="_top" xlink:title="performs the action specified ">
<polygon fill="white" stroke="black" points="386.5,-116.5 386.5,-157.5 544.5,-157.5 544.5,-116.5 386.5,-116.5"/>
<text text-anchor="start" x="394.5" y="-145.5" font-family="Helvetica,sans-Serif" font-size="10.00">tomoBay.presenters.presenter</text>
<text text-anchor="start" x="394.5" y="-134.5" font-family="Helvetica,sans-Serif" font-size="10.00">Actions.concreteActions.Invoice</text>
<text text-anchor="middle" x="465.5" y="-123.5" font-family="Helvetica,sans-Serif" font-size="10.00">Orders.execute</text>
</a>
</g>
</g>
<!-- Node20&#45;&gt;Node21 -->
<g id="edge23" class="edge"><title>Node20&#45;&gt;Node21</title>
<path fill="none" stroke="midnightblue" d="M299.397,-137C327.651,-137 358.711,-137 386.195,-137"/>
<polygon fill="midnightblue" stroke="midnightblue" points="299.127,-133.5 289.127,-137 299.127,-140.5 299.127,-133.5"/>
</g>
<!-- Node23 -->
<g id="node23" class="node"><title>Node23</title>
<g id="a_node23"><a xlink:href="classtomoBay_1_1model_1_1services_1_1reScanErrorsService_1_1OnRunning.html#ae4a4f4cadce2787c7e80005639fbd5d9" target="_top" xlink:title="this method defines what to do in the given derived state ">
<polygon fill="white" stroke="black" points="371.5,-65 371.5,-95 559.5,-95 559.5,-65 371.5,-65"/>
<text text-anchor="start" x="379.5" y="-83" font-family="Helvetica,sans-Serif" font-size="10.00">tomoBay.model.services.re</text>
<text text-anchor="middle" x="465.5" y="-72" font-family="Helvetica,sans-Serif" font-size="10.00">ScanErrorsService.OnRunning.execute</text>
</a>
</g>
</g>
<!-- Node22&#45;&gt;Node23 -->
<g id="edge25" class="edge"><title>Node22&#45;&gt;Node23</title>
<path fill="none" stroke="midnightblue" d="M314.404,-78.2237C333.266,-78.4469 352.842,-78.6786 371.383,-78.898"/>
<polygon fill="midnightblue" stroke="midnightblue" points="314.355,-74.723 304.314,-78.1043 314.272,-81.7225 314.355,-74.723"/>
</g>
<!-- Node24 -->
<g id="node24" class="node"><title>Node24</title>
<g id="a_node24"><a xlink:href="classtomoBay_1_1model_1_1services_1_1reScanErrorsService_1_1ReScanErrorsService.html#ae3b0a282dcba7f2d675ca89b1dd48487" target="_top" xlink:title="tomoBay.model.services.re\lScanErrorsService.ReScanErrors\lService.onRunning">
<polygon fill="white" stroke="black" points="620.5,-60.5 620.5,-101.5 783.5,-101.5 783.5,-60.5 620.5,-60.5"/>
<text text-anchor="start" x="628.5" y="-89.5" font-family="Helvetica,sans-Serif" font-size="10.00">tomoBay.model.services.re</text>
<text text-anchor="start" x="628.5" y="-78.5" font-family="Helvetica,sans-Serif" font-size="10.00">ScanErrorsService.ReScanErrors</text>
<text text-anchor="middle" x="702" y="-67.5" font-family="Helvetica,sans-Serif" font-size="10.00">Service.onRunning</text>
</a>
</g>
</g>
<!-- Node23&#45;&gt;Node24 -->
<g id="edge26" class="edge"><title>Node23&#45;&gt;Node24</title>
<path fill="none" stroke="midnightblue" d="M569.944,-80.4411C586.791,-80.513 604.023,-80.5865 620.223,-80.6555"/>
<polygon fill="midnightblue" stroke="midnightblue" points="569.532,-76.9394 559.517,-80.3967 569.502,-83.9394 569.532,-76.9394"/>
</g>
<!-- Node26 -->
<g id="node26" class="node"><title>Node26</title>
<g id="a_node26"><a xlink:href="classtomoBay_1_1model_1_1services_1_1checkErrorsService_1_1OnRunning.html#ae4a4f4cadce2787c7e80005639fbd5d9" target="_top" xlink:title="this method defines what to do in the given derived state ">
<polygon fill="white" stroke="black" points="383,-6 383,-36 548,-36 548,-6 383,-6"/>
<text text-anchor="start" x="391" y="-24" font-family="Helvetica,sans-Serif" font-size="10.00">tomoBay.model.services.check</text>
<text text-anchor="middle" x="465.5" y="-13" font-family="Helvetica,sans-Serif" font-size="10.00">ErrorsService.OnRunning.execute</text>
</a>
</g>
</g>
<!-- Node25&#45;&gt;Node26 -->
<g id="edge28" class="edge"><title>Node25&#45;&gt;Node26</title>
<path fill="none" stroke="midnightblue" d="M320.306,-21.5688C341.226,-21.4863 362.792,-21.4012 382.665,-21.3228"/>
<polygon fill="midnightblue" stroke="midnightblue" points="320.085,-18.0696 310.099,-21.6091 320.113,-25.0695 320.085,-18.0696"/>
</g>
<!-- Node27 -->
<g id="node27" class="node"><title>Node27</title>
<g id="a_node27"><a xlink:href="classtomoBay_1_1model_1_1services_1_1checkErrorsService_1_1CheckErrorsService.html#ae3b0a282dcba7f2d675ca89b1dd48487" target="_top" xlink:title="tomoBay.model.services.check\lErrorsService.CheckErrorsService.on\lRunning">
<polygon fill="white" stroke="black" points="612,-0.5 612,-41.5 792,-41.5 792,-0.5 612,-0.5"/>
<text text-anchor="start" x="620" y="-29.5" font-family="Helvetica,sans-Serif" font-size="10.00">tomoBay.model.services.check</text>
<text text-anchor="start" x="620" y="-18.5" font-family="Helvetica,sans-Serif" font-size="10.00">ErrorsService.CheckErrorsService.on</text>
<text text-anchor="middle" x="702" y="-7.5" font-family="Helvetica,sans-Serif" font-size="10.00">Running</text>
</a>
</g>
</g>
<!-- Node26&#45;&gt;Node27 -->
<g id="edge29" class="edge"><title>Node26&#45;&gt;Node27</title>
<path fill="none" stroke="midnightblue" d="M558.388,-21C575.89,-21 594.183,-21 611.605,-21"/>
<polygon fill="midnightblue" stroke="midnightblue" points="558.188,-17.5001 548.188,-21 558.187,-24.5001 558.188,-17.5001"/>
</g>
</g>
</svg>
