<?xml version="1.0" encoding="UTF-8" standalone="no"?>
<!DOCTYPE svg PUBLIC "-//W3C//DTD SVG 1.1//EN"
 "http://www.w3.org/Graphics/SVG/1.1/DTD/svg11.dtd">
<!-- Generated by graphviz version 2.38.0 (20140413.2041)
 -->
<!-- Title: execute Pages: 1 -->
<!--zoomable 751 -->
<svg id="main" version="1.1" xmlns="http://www.w3.org/2000/svg" xmlns:xlink="http://www.w3.org/1999/xlink" xml:space="preserve" onload="init(evt)">
<style type="text/css"><![CDATA[
.edge:hover path { stroke: red; }
.edge:hover polygon { stroke: red; fill: red; }
]]></style>
<script type="text/javascript"><![CDATA[
var edges = document.getElementsByTagName('g');
if (edges && edges.length) {
  for (var i=0;i<edges.length;i++) {
    if (edges[i].id.substr(0,4)=='edge') {
      edges[i].setAttribute('class','edge');
    }
  }
}
]]></script>
        <defs>
                <circle id="rim" cx="0" cy="0" r="7"/>
                <circle id="rim2" cx="0" cy="0" r="3.5"/>
                <g id="zoomPlus">
                        <use xlink:href="#rim" fill="#404040">
                                <set attributeName="fill" to="#808080" begin="zoomplus.mouseover" end="zoomplus.mouseout"/>
                        </use>
                        <path d="M-4,0h8M0,-4v8" fill="none" stroke="white" stroke-width="1.5" pointer-events="none"/>
                </g>
                <g id="zoomMin">
                        <use xlink:href="#rim" fill="#404040">
                                <set attributeName="fill" to="#808080" begin="zoomminus.mouseover" end="zoomminus.mouseout"/>
                        </use>
                        <path d="M-4,0h8" fill="none" stroke="white" stroke-width="1.5" pointer-events="none"/>
                </g>
                <g id="dirArrow">
                        <path fill="none" stroke="white" stroke-width="1.5" d="M0,-3.0v7 M-2.5,-0.5L0,-3.0L2.5,-0.5"/>
                </g>
               <g id="resetDef">
                       <use xlink:href="#rim2" fill="#404040">
                               <set attributeName="fill" to="#808080" begin="reset.mouseover" end="reset.mouseout"/>
                       </use>
               </g>
        </defs>

<script type="text/javascript">
var viewWidth = 955;
var viewHeight = 751;
var sectionId = 'dynsection-2';
</script>
<script xlink:href="svgpan.js"/>
<svg id="graph" class="graph">
<g id="viewport">
<title>execute</title>
<polygon fill="white" stroke="none" points="-4,4 -4,-746.5 951,-746.5 951,4 -4,4"/>
<!-- Node1 -->
<g id="node1" class="node"><title>Node1</title>
<polygon fill="#bfbfbf" stroke="black" points="0,-467.5 0,-486.5 51,-486.5 51,-467.5 0,-467.5"/>
<text text-anchor="middle" x="25.5" y="-474.5" font-family="Helvetica,sans-Serif" font-size="10.00">execute</text>
</g>
<!-- Node2 -->
<g id="node2" class="node"><title>Node2</title>
<g id="a_node2"><a xlink:href="classtomoBay_1_1model_1_1eBayAPI_1_1EbayAccounts.html#afd73fefcdd9ef962a44be4ce715fbbed" target="_top" xlink:title="tomoBay.model.eBayAPI.Ebay\lAccounts.accounts">
<polygon fill="white" stroke="black" points="97,-712 97,-742 249,-742 249,-712 97,-712"/>
<text text-anchor="start" x="105" y="-730" font-family="Helvetica,sans-Serif" font-size="10.00">tomoBay.model.eBayAPI.Ebay</text>
<text text-anchor="middle" x="173" y="-719" font-family="Helvetica,sans-Serif" font-size="10.00">Accounts.accounts</text>
</a>
</g>
</g>
<!-- Node1&#45;&gt;Node2 -->
<g id="edge1" class="edge"><title>Node1&#45;&gt;Node2</title>
<path fill="none" stroke="midnightblue" d="M25.9748,-486.768C24.6697,-521.496 25.1013,-640.252 87,-703 87.9389,-703.952 88.9124,-704.867 89.9171,-705.746"/>
<polygon fill="midnightblue" stroke="midnightblue" points="88.0427,-708.712 98.1736,-711.813 92.1878,-703.071 88.0427,-708.712"/>
</g>
<!-- Node3 -->
<g id="node3" class="node"><title>Node3</title>
<g id="a_node3"><a xlink:href="classtomoBay_1_1model_1_1eBayAPI_1_1EbayAccounts.html#ae9b99457a79c932468c153115ef964b0" target="_top" xlink:title="retrieve the ebay api key for the account name specified ">
<polygon fill="white" stroke="black" points="97,-663 97,-693 249,-693 249,-663 97,-663"/>
<text text-anchor="start" x="105" y="-681" font-family="Helvetica,sans-Serif" font-size="10.00">tomoBay.model.eBayAPI.Ebay</text>
<text text-anchor="middle" x="173" y="-670" font-family="Helvetica,sans-Serif" font-size="10.00">Accounts.apiKey</text>
</a>
</g>
</g>
<!-- Node1&#45;&gt;Node3 -->
<g id="edge2" class="edge"><title>Node1&#45;&gt;Node3</title>
<path fill="none" stroke="midnightblue" d="M26.8178,-486.693C28.3283,-516.34 37.0178,-606.655 87,-654 88.1132,-655.055 89.2692,-656.063 90.4629,-657.028"/>
<polygon fill="midnightblue" stroke="midnightblue" points="88.6109,-660.002 98.8346,-662.782 92.5757,-654.233 88.6109,-660.002"/>
</g>
<!-- Node4 -->
<g id="node4" class="node"><title>Node4</title>
<g id="a_node4"><a xlink:href="classtomoBay_1_1model_1_1eBayAPI_1_1OrdersCall.html#a6531876c53fd0c3c56eec68bd1b00df0" target="_top" xlink:title="This method performs a call to the API grabbing a list of orders for the specified number of days...">
<polygon fill="white" stroke="black" points="93.5,-614 93.5,-644 252.5,-644 252.5,-614 93.5,-614"/>
<text text-anchor="start" x="101.5" y="-632" font-family="Helvetica,sans-Serif" font-size="10.00">tomoBay.model.eBayAPI.Orders</text>
<text text-anchor="middle" x="173" y="-621" font-family="Helvetica,sans-Serif" font-size="10.00">Call.call</text>
</a>
</g>
</g>
<!-- Node1&#45;&gt;Node4 -->
<g id="edge3" class="edge"><title>Node1&#45;&gt;Node4</title>
<path fill="none" stroke="midnightblue" d="M28.2364,-486.689C33.0311,-510.561 48.7212,-572.612 87,-605 88.5364,-606.3 90.1387,-607.53 91.7961,-608.693"/>
<polygon fill="midnightblue" stroke="midnightblue" points="90.128,-611.775 100.492,-613.974 93.7613,-605.792 90.128,-611.775"/>
</g>
<!-- Node8 -->
<g id="node8" class="node"><title>Node8</title>
<g id="a_node8"><a xlink:href="classtomoBay_1_1model_1_1eBayAPI_1_1EbayAccounts.html#a137163c03f463ad5d9581aef47a9a3e4" target="_top" xlink:title="retrieve the id for the account name specified ">
<polygon fill="white" stroke="black" points="97,-565 97,-595 249,-595 249,-565 97,-565"/>
<text text-anchor="start" x="105" y="-583" font-family="Helvetica,sans-Serif" font-size="10.00">tomoBay.model.eBayAPI.Ebay</text>
<text text-anchor="middle" x="173" y="-572" font-family="Helvetica,sans-Serif" font-size="10.00">Accounts.id</text>
</a>
</g>
</g>
<!-- Node1&#45;&gt;Node8 -->
<g id="edge7" class="edge"><title>Node1&#45;&gt;Node8</title>
<path fill="none" stroke="midnightblue" d="M31.2113,-486.634C39.8823,-503.344 59.9832,-537.666 87,-556 89.3791,-557.614 91.8656,-559.121 94.4311,-560.527"/>
<polygon fill="midnightblue" stroke="midnightblue" points="92.8967,-563.673 103.417,-564.93 95.977,-557.387 92.8967,-563.673"/>
</g>
<!-- Node9 -->
<g id="node9" class="node"><title>Node9</title>
<g id="a_node9"><a xlink:href="classtomoBay_1_1model_1_1eBayAPI_1_1EbayAccounts.html#a7df0b3cd6fc945ccbcbc0229394176c9" target="_top" xlink:title="retrieve the number of days previous to the current day that the system should retrieve orders from t...">
<polygon fill="white" stroke="black" points="97,-516 97,-546 249,-546 249,-516 97,-516"/>
<text text-anchor="start" x="105" y="-534" font-family="Helvetica,sans-Serif" font-size="10.00">tomoBay.model.eBayAPI.Ebay</text>
<text text-anchor="middle" x="173" y="-523" font-family="Helvetica,sans-Serif" font-size="10.00">Accounts.lookbackDays</text>
</a>
</g>
</g>
<!-- Node1&#45;&gt;Node9 -->
<g id="edge8" class="edge"><title>Node1&#45;&gt;Node9</title>
<path fill="none" stroke="midnightblue" d="M43.5895,-486.538C55.5017,-492.92 71.9029,-501.183 87,-507 92.1869,-508.998 97.6091,-510.912 103.096,-512.725"/>
<polygon fill="midnightblue" stroke="midnightblue" points="102.415,-516.181 113.006,-515.876 104.536,-509.51 102.415,-516.181"/>
</g>
<!-- Node10 -->
<g id="node10" class="node"><title>Node10</title>
<g id="a_node10"><a xlink:href="classtomoBay_1_1model_1_1services_1_1basicEbayUpdateService_1_1Buyers__Table.html#a6f7920f082037fcd84e9fb020730e4f6" target="_top" xlink:title="populates the Orders Table in the database with data grabbed from the ebay API ">
<polygon fill="white" stroke="black" points="97.5,-327.5 97.5,-368.5 248.5,-368.5 248.5,-327.5 97.5,-327.5"/>
<text text-anchor="start" x="105.5" y="-356.5" font-family="Helvetica,sans-Serif" font-size="10.00">tomoBay.model.services.basic</text>
<text text-anchor="start" x="105.5" y="-345.5" font-family="Helvetica,sans-Serif" font-size="10.00">EbayUpdateService.Buyers</text>
<text text-anchor="middle" x="173" y="-334.5" font-family="Helvetica,sans-Serif" font-size="10.00">_Table.populate</text>
</a>
</g>
</g>
<!-- Node1&#45;&gt;Node10 -->
<g id="edge9" class="edge"><title>Node1&#45;&gt;Node10</title>
<path fill="none" stroke="midnightblue" d="M30.7892,-467.327C39.1982,-449.332 59.4588,-410.413 87,-387 92.9145,-381.972 99.5847,-377.462 106.522,-373.451"/>
<polygon fill="midnightblue" stroke="midnightblue" points="108.287,-376.475 115.415,-368.637 104.955,-370.32 108.287,-376.475"/>
</g>
<!-- Node16 -->
<g id="node16" class="node"><title>Node16</title>
<g id="a_node16"><a xlink:href="classtomoBay_1_1model_1_1services_1_1basicEbayUpdateService_1_1Transactions__Table.html#a6f7920f082037fcd84e9fb020730e4f6" target="_top" xlink:title="populates the Orders Table in the database with data grabbed from the ebay API ">
<polygon fill="white" stroke="black" points="91.5,-396.5 91.5,-437.5 254.5,-437.5 254.5,-396.5 91.5,-396.5"/>
<text text-anchor="start" x="99.5" y="-425.5" font-family="Helvetica,sans-Serif" font-size="10.00">tomoBay.model.services.basic</text>
<text text-anchor="start" x="99.5" y="-414.5" font-family="Helvetica,sans-Serif" font-size="10.00">EbayUpdateService.Transactions</text>
<text text-anchor="middle" x="173" y="-403.5" font-family="Helvetica,sans-Serif" font-size="10.00">_Table.populate</text>
</a>
</g>
</g>
<!-- Node1&#45;&gt;Node16 -->
<g id="edge16" class="edge"><title>Node1&#45;&gt;Node16</title>
<path fill="none" stroke="midnightblue" d="M44.2364,-467.496C56.1562,-461.285 72.313,-453.206 87,-447 91.6556,-445.033 96.4893,-443.084 101.382,-441.181"/>
<polygon fill="midnightblue" stroke="midnightblue" points="102.732,-444.413 110.833,-437.585 100.242,-437.87 102.732,-444.413"/>
</g>
<!-- Node18 -->
<g id="node18" class="node"><title>Node18</title>
<g id="a_node18"><a xlink:href="classtomoBay_1_1model_1_1services_1_1basicEbayUpdateService_1_1ItemsAndPartsTable.html#a0a4965df2e2331547f6b8d56f962b70c" target="_top" xlink:title="populates the Orders Table in the database with data grabbed from the ebay API ">
<polygon fill="white" stroke="black" points="87,-207.5 87,-248.5 259,-248.5 259,-207.5 87,-207.5"/>
<text text-anchor="start" x="95" y="-236.5" font-family="Helvetica,sans-Serif" font-size="10.00">tomoBay.model.services.basic</text>
<text text-anchor="start" x="95" y="-225.5" font-family="Helvetica,sans-Serif" font-size="10.00">EbayUpdateService.ItemsAndParts</text>
<text text-anchor="middle" x="173" y="-214.5" font-family="Helvetica,sans-Serif" font-size="10.00">Table.populate</text>
</a>
</g>
</g>
<!-- Node1&#45;&gt;Node18 -->
<g id="edge20" class="edge"><title>Node1&#45;&gt;Node18</title>
<path fill="none" stroke="midnightblue" d="M28.7305,-467.447C35.0075,-441.785 54.5138,-369.792 87,-318 101.459,-294.948 122.407,-272.684 139.889,-256.067"/>
<polygon fill="midnightblue" stroke="midnightblue" points="142.709,-258.223 147.641,-248.847 137.938,-253.101 142.709,-258.223"/>
</g>
<!-- Node23 -->
<g id="node23" class="node"><title>Node23</title>
<g id="a_node23"><a xlink:href="classtomoBay_1_1model_1_1services_1_1basicEbayUpdateService_1_1Orders__Table.html#abb8f83ca32eba7defe488f4d08be8c74" target="_top" xlink:title="populates the Orders Table in the database with data grabbed from the ebay API ">
<polygon fill="white" stroke="black" points="97.5,-456.5 97.5,-497.5 248.5,-497.5 248.5,-456.5 97.5,-456.5"/>
<text text-anchor="start" x="105.5" y="-485.5" font-family="Helvetica,sans-Serif" font-size="10.00">tomoBay.model.services.basic</text>
<text text-anchor="start" x="105.5" y="-474.5" font-family="Helvetica,sans-Serif" font-size="10.00">EbayUpdateService.Orders</text>
<text text-anchor="middle" x="173" y="-463.5" font-family="Helvetica,sans-Serif" font-size="10.00">_Table.populate</text>
</a>
</g>
</g>
<!-- Node1&#45;&gt;Node23 -->
<g id="edge27" class="edge"><title>Node1&#45;&gt;Node23</title>
<path fill="none" stroke="midnightblue" d="M51.1821,-477C61.4549,-477 74.0422,-477 87.1694,-477"/>
<polygon fill="midnightblue" stroke="midnightblue" points="87.2837,-480.5 97.2837,-477 87.2837,-473.5 87.2837,-480.5"/>
</g>
<!-- Node25 -->
<g id="node25" class="node"><title>Node25</title>
<g id="a_node25"><a xlink:href="classtomoBay_1_1model_1_1eBayAPI_1_1EbayAccounts.html#a17d78d1b20882cd5986119af592d4f3d" target="_top" xlink:title="retrieve the ebay server address for the account name specified ">
<polygon fill="white" stroke="black" points="97,-159 97,-189 249,-189 249,-159 97,-159"/>
<text text-anchor="start" x="105" y="-177" font-family="Helvetica,sans-Serif" font-size="10.00">tomoBay.model.eBayAPI.Ebay</text>
<text text-anchor="middle" x="173" y="-166" font-family="Helvetica,sans-Serif" font-size="10.00">Accounts.serverAddress</text>
</a>
</g>
</g>
<!-- Node1&#45;&gt;Node25 -->
<g id="edge33" class="edge"><title>Node1&#45;&gt;Node25</title>
<path fill="none" stroke="midnightblue" d="M27.2916,-467.208C31.0944,-422.539 48.8914,-238.533 87,-198 87.9158,-197.026 88.8677,-196.09 89.8524,-195.192"/>
<polygon fill="midnightblue" stroke="midnightblue" points="92.1454,-197.845 97.983,-189.004 87.9059,-192.275 92.1454,-197.845"/>
</g>
<!-- Node26 -->
<g id="node26" class="node"><title>Node26</title>
<g id="a_node26"><a xlink:href="classtomoBay_1_1helpers_1_1StackTraceToString.html#acc17f606a32b47fa21910194d3fc44c6" target="_top" xlink:title="Converts the stack trace of the exception provided into a string. ">
<polygon fill="white" stroke="black" points="101.5,-110 101.5,-140 244.5,-140 244.5,-110 101.5,-110"/>
<text text-anchor="start" x="109.5" y="-128" font-family="Helvetica,sans-Serif" font-size="10.00">tomoBay.helpers.StackTrace</text>
<text text-anchor="middle" x="173" y="-117" font-family="Helvetica,sans-Serif" font-size="10.00">ToString.toString</text>
</a>
</g>
</g>
<!-- Node1&#45;&gt;Node26 -->
<g id="edge34" class="edge"><title>Node1&#45;&gt;Node26</title>
<path fill="none" stroke="midnightblue" d="M26.949,-467.196C29.4013,-417.903 42.7327,-197.578 87,-149 88.8074,-147.017 90.765,-145.192 92.8436,-143.514"/>
<polygon fill="midnightblue" stroke="midnightblue" points="95.0671,-146.236 101.4,-137.743 91.1528,-140.433 95.0671,-146.236"/>
</g>
<!-- Node5 -->
<g id="node5" class="node"><title>Node5</title>
<g id="a_node5"><a xlink:href="classtomoBay_1_1model_1_1eBayAPI_1_1OrdersCall.html#ae29dfd6b4e8a557a849bd0cd8b6c35e2" target="_top" xlink:title="convert the List&lt;OrderType[]&gt; passed in as an argument to a single OrderType[] containing all of the ...">
<polygon fill="white" stroke="black" points="315.5,-709 315.5,-739 474.5,-739 474.5,-709 315.5,-709"/>
<text text-anchor="start" x="323.5" y="-727" font-family="Helvetica,sans-Serif" font-size="10.00">tomoBay.model.eBayAPI.Orders</text>
<text text-anchor="middle" x="395" y="-716" font-family="Helvetica,sans-Serif" font-size="10.00">Call.reformResults</text>
</a>
</g>
</g>
<!-- Node4&#45;&gt;Node5 -->
<g id="edge4" class="edge"><title>Node4&#45;&gt;Node5</title>
<path fill="none" stroke="midnightblue" d="M240.373,-644.031C246.933,-646.819 253.273,-650.112 259,-654 280.479,-668.581 273.176,-685.941 295,-700 298.554,-702.29 302.308,-704.361 306.193,-706.235"/>
<polygon fill="midnightblue" stroke="midnightblue" points="304.897,-709.488 315.464,-710.258 307.684,-703.066 304.897,-709.488"/>
</g>
<!-- Node6 -->
<g id="node6" class="node"><title>Node6</title>
<g id="a_node6"><a xlink:href="classtomoBay_1_1model_1_1eBayAPI_1_1OrdersCall.html#a0636e18f9fb41faa3ba7c00887156b29" target="_top" xlink:title="this method does some setup for the API call ">
<polygon fill="white" stroke="black" points="315.5,-660 315.5,-690 474.5,-690 474.5,-660 315.5,-660"/>
<text text-anchor="start" x="323.5" y="-678" font-family="Helvetica,sans-Serif" font-size="10.00">tomoBay.model.eBayAPI.Orders</text>
<text text-anchor="middle" x="395" y="-667" font-family="Helvetica,sans-Serif" font-size="10.00">Call.setUpCall</text>
</a>
</g>
</g>
<!-- Node4&#45;&gt;Node6 -->
<g id="edge5" class="edge"><title>Node4&#45;&gt;Node6</title>
<path fill="none" stroke="midnightblue" d="M246.036,-644.062C267.227,-648.493 290.561,-653.372 312.31,-657.919"/>
<polygon fill="midnightblue" stroke="midnightblue" points="311.673,-661.362 322.178,-659.983 313.106,-654.51 311.673,-661.362"/>
</g>
<!-- Node7 -->
<g id="node7" class="node"><title>Node7</title>
<g id="a_node7"><a xlink:href="classtomoBay_1_1model_1_1eBayAPI_1_1OrdersCall.html#a5c2c034763b51de47c06064da1479d85" target="_top" xlink:title="do setup for the pagination. ">
<polygon fill="white" stroke="black" points="315.5,-611 315.5,-641 474.5,-641 474.5,-611 315.5,-611"/>
<text text-anchor="start" x="323.5" y="-629" font-family="Helvetica,sans-Serif" font-size="10.00">tomoBay.model.eBayAPI.Orders</text>
<text text-anchor="middle" x="395" y="-618" font-family="Helvetica,sans-Serif" font-size="10.00">Call.setUpPagination</text>
</a>
</g>
</g>
<!-- Node4&#45;&gt;Node7 -->
<g id="edge6" class="edge"><title>Node4&#45;&gt;Node7</title>
<path fill="none" stroke="midnightblue" d="M252.804,-627.925C269.81,-627.694 287.9,-627.447 305.256,-627.21"/>
<polygon fill="midnightblue" stroke="midnightblue" points="305.426,-630.708 315.377,-627.072 305.33,-623.709 305.426,-630.708"/>
</g>
<!-- Node11 -->
<g id="node11" class="node"><title>Node11</title>
<g id="a_node11"><a xlink:href="classtomoBay_1_1model_1_1sql_1_1framework_1_1ModifyQueryInvoker.html#ab8ef0fdf15f6720620e297c77ab25d46" target="_top" xlink:title="tomoBay.model.sql.framework.\lModifyQueryInvoker.execute">
<polygon fill="white" stroke="black" points="319,-376 319,-406 471,-406 471,-376 319,-376"/>
<text text-anchor="start" x="327" y="-394" font-family="Helvetica,sans-Serif" font-size="10.00">tomoBay.model.sql.framework.</text>
<text text-anchor="middle" x="395" y="-383" font-family="Helvetica,sans-Serif" font-size="10.00">ModifyQueryInvoker.execute</text>
</a>
</g>
</g>
<!-- Node10&#45;&gt;Node11 -->
<g id="edge10" class="edge"><title>Node10&#45;&gt;Node11</title>
<path fill="none" stroke="midnightblue" d="M248.789,-362.618C268.077,-366.388 288.979,-370.473 308.756,-374.339"/>
<polygon fill="midnightblue" stroke="midnightblue" points="308.184,-377.793 318.67,-376.276 309.527,-370.923 308.184,-377.793"/>
</g>
<!-- Node12 -->
<g id="node12" class="node"><title>Node12</title>
<g id="a_node12"><a xlink:href="classtomoBay_1_1model_1_1services_1_1basicEbayUpdateService_1_1Buyers__Table.html#a2635d1876823db285122ff73faeed4b2" target="_top" xlink:title="retrieves the personal address associated with the order passed in as an argument. ">
<polygon fill="white" stroke="black" points="319.5,-256.5 319.5,-297.5 470.5,-297.5 470.5,-256.5 319.5,-256.5"/>
<text text-anchor="start" x="327.5" y="-285.5" font-family="Helvetica,sans-Serif" font-size="10.00">tomoBay.model.services.basic</text>
<text text-anchor="start" x="327.5" y="-274.5" font-family="Helvetica,sans-Serif" font-size="10.00">EbayUpdateService.Buyers</text>
<text text-anchor="middle" x="395" y="-263.5" font-family="Helvetica,sans-Serif" font-size="10.00">_Table.getAddress</text>
</a>
</g>
</g>
<!-- Node10&#45;&gt;Node12 -->
<g id="edge11" class="edge"><title>Node10&#45;&gt;Node12</title>
<path fill="none" stroke="midnightblue" d="M233.263,-327.491C252.871,-320.82 274.831,-313.471 295,-307 301.549,-304.899 308.354,-302.755 315.192,-300.628"/>
<polygon fill="midnightblue" stroke="midnightblue" points="316.689,-303.829 325.208,-297.531 314.621,-297.141 316.689,-303.829"/>
</g>
<!-- Node15 -->
<g id="node15" class="node"><title>Node15</title>
<g id="a_node15"><a xlink:href="classtomoBay_1_1model_1_1services_1_1basicEbayUpdateService_1_1Buyers__Table.html#a33706837d80ae402889acf879a8e2566" target="_top" xlink:title="retrieves the global shipping program address associated with the order passed in as an argument...">
<polygon fill="white" stroke="black" points="319.5,-316.5 319.5,-357.5 470.5,-357.5 470.5,-316.5 319.5,-316.5"/>
<text text-anchor="start" x="327.5" y="-345.5" font-family="Helvetica,sans-Serif" font-size="10.00">tomoBay.model.services.basic</text>
<text text-anchor="start" x="327.5" y="-334.5" font-family="Helvetica,sans-Serif" font-size="10.00">EbayUpdateService.Buyers</text>
<text text-anchor="middle" x="395" y="-323.5" font-family="Helvetica,sans-Serif" font-size="10.00">_Table.getGSPaddress</text>
</a>
</g>
</g>
<!-- Node10&#45;&gt;Node15 -->
<g id="edge14" class="edge"><title>Node10&#45;&gt;Node15</title>
<path fill="none" stroke="midnightblue" d="M248.789,-344.261C268.29,-343.285 289.442,-342.228 309.411,-341.229"/>
<polygon fill="midnightblue" stroke="midnightblue" points="309.605,-344.724 319.418,-340.729 309.256,-337.733 309.605,-344.724"/>
</g>
<!-- Node13 -->
<g id="node13" class="node"><title>Node13</title>
<g id="a_node13"><a xlink:href="classtomoBay_1_1model_1_1dataTypes_1_1heteroTypeContainer_1_1HeteroFieldContainer.html#a3ba6289417930238a36bfee0056b6398" target="_top" xlink:title="add an arbitrary value to this Field container with the stipulation that this value is of the same ty...">
<polygon fill="white" stroke="black" points="531,-371 531,-401 725,-401 725,-371 531,-371"/>
<text text-anchor="start" x="539" y="-389" font-family="Helvetica,sans-Serif" font-size="10.00">tomoBay.model.dataTypes.hetero</text>
<text text-anchor="middle" x="628" y="-378" font-family="Helvetica,sans-Serif" font-size="10.00">TypeContainer.HeteroFieldContainer.add</text>
</a>
</g>
</g>
<!-- Node12&#45;&gt;Node13 -->
<g id="edge12" class="edge"><title>Node12&#45;&gt;Node13</title>
<path fill="none" stroke="midnightblue" d="M470.517,-297.413C478.885,-300.342 487.2,-303.547 495,-307 531.861,-323.318 571.142,-347.857 597.176,-365.249"/>
<polygon fill="midnightblue" stroke="midnightblue" points="595.228,-368.157 605.474,-370.852 599.145,-362.355 595.228,-368.157"/>
</g>
<!-- Node14 -->
<g id="node14" class="node"><title>Node14</title>
<g id="a_node14"><a xlink:href="classtomoBay_1_1model_1_1dataTypes_1_1heteroTypeContainer_1_1HeteroFieldContainer.html#a9dee3c01eb5ab16203e1c6820a569484" target="_top" xlink:title="performs a type check, assuming that field and type are of the same type then this method returns tru...">
<polygon fill="white" stroke="black" points="761,-365.5 761,-406.5 947,-406.5 947,-365.5 761,-365.5"/>
<text text-anchor="start" x="769" y="-394.5" font-family="Helvetica,sans-Serif" font-size="10.00">tomoBay.model.dataTypes.hetero</text>
<text text-anchor="start" x="769" y="-383.5" font-family="Helvetica,sans-Serif" font-size="10.00">TypeContainer.HeteroFieldContainer.is</text>
<text text-anchor="middle" x="854" y="-372.5" font-family="Helvetica,sans-Serif" font-size="10.00">SameType</text>
</a>
</g>
</g>
<!-- Node13&#45;&gt;Node14 -->
<g id="edge13" class="edge"><title>Node13&#45;&gt;Node14</title>
<path fill="none" stroke="midnightblue" d="M725.296,-386C733.642,-386 742.106,-386 750.499,-386"/>
<polygon fill="midnightblue" stroke="midnightblue" points="750.688,-389.5 760.688,-386 750.688,-382.5 750.688,-389.5"/>
</g>
<!-- Node15&#45;&gt;Node13 -->
<g id="edge15" class="edge"><title>Node15&#45;&gt;Node13</title>
<path fill="none" stroke="midnightblue" d="M470.68,-352.841C494.778,-357.953 521.596,-363.642 546.12,-368.844"/>
<polygon fill="midnightblue" stroke="midnightblue" points="545.604,-372.312 556.113,-370.963 547.057,-365.464 545.604,-372.312"/>
</g>
<!-- Node16&#45;&gt;Node11 -->
<g id="edge19" class="edge"><title>Node16&#45;&gt;Node11</title>
<path fill="none" stroke="midnightblue" d="M254.671,-407.466C272.2,-405.394 290.802,-403.196 308.511,-401.103"/>
<polygon fill="midnightblue" stroke="midnightblue" points="309.3,-404.534 318.82,-399.885 308.478,-397.583 309.3,-404.534"/>
</g>
<!-- Node16&#45;&gt;Node13 -->
<g id="edge17" class="edge"><title>Node16&#45;&gt;Node13</title>
<path fill="none" stroke="midnightblue" d="M254.746,-421.167C319.826,-423.404 413.583,-424.095 495,-415 516.741,-412.571 540.154,-408.065 561.138,-403.317"/>
<polygon fill="midnightblue" stroke="midnightblue" points="561.958,-406.72 570.908,-401.05 560.376,-399.901 561.958,-406.72"/>
</g>
<!-- Node17 -->
<g id="node17" class="node"><title>Node17</title>
<g id="a_node17"><a xlink:href="classtomoBay_1_1model_1_1services_1_1helpers_1_1EbayOrderCancellationStatus.html#a3cfcc32627a105c95774cf20bdfeb062" target="_top" xlink:title="return the true/false value associated with a particular cancellation status. ">
<polygon fill="white" stroke="black" points="295,-464 295,-494 495,-494 495,-464 295,-464"/>
<text text-anchor="start" x="303" y="-482" font-family="Helvetica,sans-Serif" font-size="10.00">tomoBay.model.services.helpers.</text>
<text text-anchor="middle" x="395" y="-471" font-family="Helvetica,sans-Serif" font-size="10.00">EbayOrderCancellationStatus.isCancelled</text>
</a>
</g>
</g>
<!-- Node16&#45;&gt;Node17 -->
<g id="edge18" class="edge"><title>Node16&#45;&gt;Node17</title>
<path fill="none" stroke="midnightblue" d="M246.951,-437.559C274.124,-445.217 304.712,-453.837 330.924,-461.224"/>
<polygon fill="midnightblue" stroke="midnightblue" points="330.166,-464.647 340.74,-463.99 332.065,-457.909 330.166,-464.647"/>
</g>
<!-- Node18&#45;&gt;Node11 -->
<g id="edge23" class="edge"><title>Node18&#45;&gt;Node11</title>
<path fill="none" stroke="midnightblue" d="M195.029,-248.78C212.716,-266.6 238.349,-293.244 259,-318 276.31,-338.751 272.508,-352.021 295,-367 299.554,-370.033 304.453,-372.683 309.548,-374.999"/>
<polygon fill="midnightblue" stroke="midnightblue" points="308.315,-378.276 318.896,-378.817 310.962,-371.796 308.315,-378.276"/>
</g>
<!-- Node18&#45;&gt;Node13 -->
<g id="edge21" class="edge"><title>Node18&#45;&gt;Node13</title>
<path fill="none" stroke="midnightblue" d="M259.24,-216.531C326.432,-211.283 420.837,-212.522 495,-247 548.79,-272.007 591.667,-329.575 612.751,-362.24"/>
<polygon fill="midnightblue" stroke="midnightblue" points="609.818,-364.151 618.111,-370.745 615.74,-360.418 609.818,-364.151"/>
</g>
<!-- Node19 -->
<g id="node19" class="node"><title>Node19</title>
<g id="a_node19"><a xlink:href="classtomoBay_1_1model_1_1eBayAPI_1_1ItemCall.html#a33a93e67cbad2090251fa506ebf4e3d5" target="_top" xlink:title="This method performs a call to the API grabbing a item data for the specified itemID. ">
<polygon fill="white" stroke="black" points="320.5,-169 320.5,-199 469.5,-199 469.5,-169 320.5,-169"/>
<text text-anchor="start" x="328.5" y="-187" font-family="Helvetica,sans-Serif" font-size="10.00">tomoBay.model.eBayAPI.Item</text>
<text text-anchor="middle" x="395" y="-176" font-family="Helvetica,sans-Serif" font-size="10.00">Call.call</text>
</a>
</g>
</g>
<!-- Node18&#45;&gt;Node19 -->
<g id="edge22" class="edge"><title>Node18&#45;&gt;Node19</title>
<path fill="none" stroke="midnightblue" d="M259.058,-210.988C275.78,-207.644 293.314,-204.137 310.001,-200.8"/>
<polygon fill="midnightblue" stroke="midnightblue" points="311.147,-204.14 320.266,-198.747 309.774,-197.276 311.147,-204.14"/>
</g>
<!-- Node20 -->
<g id="node20" class="node"><title>Node20</title>
<g id="a_node20"><a xlink:href="classtomoBay_1_1model_1_1sql_1_1framework_1_1SelectQueryInvoker.html#a594282bcbcc0731a7d234482717422d7" target="_top" xlink:title="execute a requested query ">
<polygon fill="white" stroke="black" points="319,-120 319,-150 471,-150 471,-120 319,-120"/>
<text text-anchor="start" x="327" y="-138" font-family="Helvetica,sans-Serif" font-size="10.00">tomoBay.model.sql.framework.</text>
<text text-anchor="middle" x="395" y="-127" font-family="Helvetica,sans-Serif" font-size="10.00">SelectQueryInvoker.execute</text>
</a>
</g>
</g>
<!-- Node18&#45;&gt;Node20 -->
<g id="edge24" class="edge"><title>Node18&#45;&gt;Node20</title>
<path fill="none" stroke="midnightblue" d="M242.257,-207.321C248.103,-204.542 253.772,-201.443 259,-198 278.701,-185.027 274.666,-170.958 295,-159 299.506,-156.35 304.29,-153.993 309.23,-151.895"/>
<polygon fill="midnightblue" stroke="midnightblue" points="310.814,-155.035 318.886,-148.172 308.297,-148.504 310.814,-155.035"/>
</g>
<!-- Node21 -->
<g id="node21" class="node"><title>Node21</title>
<g id="a_node21"><a xlink:href="classtomoBay_1_1model_1_1services_1_1basicEbayUpdateService_1_1ItemsAndPartsTable.html#ab5d1e1822b0fcbc25a1dec195fdbfb91" target="_top" xlink:title="tomoBay.model.services.basic\lEbayUpdateService.ItemsAndParts\lTable.getSpecifics">
<polygon fill="white" stroke="black" points="309,-60.5 309,-101.5 481,-101.5 481,-60.5 309,-60.5"/>
<text text-anchor="start" x="317" y="-89.5" font-family="Helvetica,sans-Serif" font-size="10.00">tomoBay.model.services.basic</text>
<text text-anchor="start" x="317" y="-78.5" font-family="Helvetica,sans-Serif" font-size="10.00">EbayUpdateService.ItemsAndParts</text>
<text text-anchor="middle" x="395" y="-67.5" font-family="Helvetica,sans-Serif" font-size="10.00">Table.getSpecifics</text>
</a>
</g>
</g>
<!-- Node18&#45;&gt;Node21 -->
<g id="edge25" class="edge"><title>Node18&#45;&gt;Node21</title>
<path fill="none" stroke="midnightblue" d="M246.613,-207.473C251.072,-204.703 255.26,-201.561 259,-198 289.604,-168.861 263.616,-138.297 295,-110 296.546,-108.606 298.156,-107.278 299.821,-106.015"/>
<polygon fill="midnightblue" stroke="midnightblue" points="302.165,-108.659 308.559,-100.211 298.293,-102.828 302.165,-108.659"/>
</g>
<!-- Node22 -->
<g id="node22" class="node"><title>Node22</title>
<g id="a_node22"><a xlink:href="classtomoBay_1_1model_1_1services_1_1basicEbayUpdateService_1_1ItemsAndPartsTable.html#a1adf5dfcf78bb877f719dfc41b98b7ee" target="_top" xlink:title="tomoBay.model.services.basic\lEbayUpdateService.ItemsAndParts\lTable.populatePartsTable">
<polygon fill="white" stroke="black" points="309,-0.5 309,-41.5 481,-41.5 481,-0.5 309,-0.5"/>
<text text-anchor="start" x="317" y="-29.5" font-family="Helvetica,sans-Serif" font-size="10.00">tomoBay.model.services.basic</text>
<text text-anchor="start" x="317" y="-18.5" font-family="Helvetica,sans-Serif" font-size="10.00">EbayUpdateService.ItemsAndParts</text>
<text text-anchor="middle" x="395" y="-7.5" font-family="Helvetica,sans-Serif" font-size="10.00">Table.populatePartsTable</text>
</a>
</g>
</g>
<!-- Node18&#45;&gt;Node22 -->
<g id="edge26" class="edge"><title>Node18&#45;&gt;Node22</title>
<path fill="none" stroke="midnightblue" d="M248.404,-207.276C252.269,-204.556 255.849,-201.48 259,-198 304.148,-148.139 248.74,-99.831 295,-51 296.783,-49.1177 298.68,-47.3522 300.672,-45.6965"/>
<polygon fill="midnightblue" stroke="midnightblue" points="302.729,-48.5288 308.79,-39.8388 298.632,-42.8525 302.729,-48.5288"/>
</g>
<!-- Node23&#45;&gt;Node11 -->
<g id="edge32" class="edge"><title>Node23&#45;&gt;Node11</title>
<path fill="none" stroke="midnightblue" d="M233.595,-456.425C242.148,-453.339 250.818,-450.138 259,-447 289.595,-435.265 323.676,-421.119 349.941,-409.981"/>
<polygon fill="midnightblue" stroke="midnightblue" points="351.412,-413.159 359.243,-406.023 348.671,-406.718 351.412,-413.159"/>
</g>
<!-- Node23&#45;&gt;Node13 -->
<g id="edge28" class="edge"><title>Node23&#45;&gt;Node13</title>
<path fill="none" stroke="midnightblue" d="M235.073,-497.545C301.347,-516.372 409.184,-536.765 495,-504 544.446,-485.121 587.094,-438.255 609.718,-409.591"/>
<polygon fill="midnightblue" stroke="midnightblue" points="612.752,-411.389 616.083,-401.331 607.207,-407.117 612.752,-411.389"/>
</g>
<!-- Node23&#45;&gt;Node17 -->
<g id="edge31" class="edge"><title>Node23&#45;&gt;Node17</title>
<path fill="none" stroke="midnightblue" d="M248.789,-477.68C260.37,-477.785 272.533,-477.896 284.685,-478.006"/>
<polygon fill="midnightblue" stroke="midnightblue" points="284.845,-481.508 294.876,-478.099 284.909,-474.508 284.845,-481.508"/>
</g>
<!-- Node24 -->
<g id="node24" class="node"><title>Node24</title>
<g id="a_node24"><a xlink:href="classtomoBay_1_1model_1_1services_1_1basicEbayUpdateService_1_1Orders__Table.html#a40270d6bbca5a7946a70598b1f465f85" target="_top" xlink:title="tomoBay.model.services.basic\lEbayUpdateService.Orders\l_Table.populateGSP">
<polygon fill="white" stroke="black" points="319.5,-551.5 319.5,-592.5 470.5,-592.5 470.5,-551.5 319.5,-551.5"/>
<text text-anchor="start" x="327.5" y="-580.5" font-family="Helvetica,sans-Serif" font-size="10.00">tomoBay.model.services.basic</text>
<text text-anchor="start" x="327.5" y="-569.5" font-family="Helvetica,sans-Serif" font-size="10.00">EbayUpdateService.Orders</text>
<text text-anchor="middle" x="395" y="-558.5" font-family="Helvetica,sans-Serif" font-size="10.00">_Table.populateGSP</text>
</a>
</g>
</g>
<!-- Node23&#45;&gt;Node24 -->
<g id="edge29" class="edge"><title>Node23&#45;&gt;Node24</title>
<path fill="none" stroke="midnightblue" d="M240.015,-497.644C246.575,-500.477 253.014,-503.597 259,-507 277.105,-517.295 276.898,-526.701 295,-537 301.74,-540.835 308.974,-544.362 316.351,-547.577"/>
<polygon fill="midnightblue" stroke="midnightblue" points="315.169,-550.876 325.746,-551.483 317.856,-544.412 315.169,-550.876"/>
</g>
<!-- Node24&#45;&gt;Node13 -->
<g id="edge30" class="edge"><title>Node24&#45;&gt;Node13</title>
<path fill="none" stroke="midnightblue" d="M468.169,-551.451C477.57,-547.367 486.778,-542.578 495,-537 546.358,-502.155 590.19,-442.631 612.078,-409.686"/>
<polygon fill="midnightblue" stroke="midnightblue" points="615.121,-411.428 617.658,-401.141 609.26,-407.601 615.121,-411.428"/>
</g>
</g>
</svg>
        <g id="navigator" transform="translate(0 0)" fill="#404254">
                <rect fill="#f2f5e9" fill-opacity="0.5" stroke="#606060" stroke-width=".5" x="0" y="0" width="60" height="60"/>
                <use id="zoomplus" xlink:href="#zoomPlus" x="17" y="9" onmousedown="handleZoom(evt,'in')"/>
                <use id="zoomminus" xlink:href="#zoomMin" x="42" y="9" onmousedown="handleZoom(evt,'out')"/>
                <use id="reset" xlink:href="#resetDef" x="30" y="36" onmousedown="handleReset()"/>
                <g id="arrowUp" xlink:href="#dirArrow" transform="translate(30 24)" onmousedown="handlePan(0,-1)">
                  <use xlink:href="#rim" fill="#404040">
                        <set attributeName="fill" to="#808080" begin="arrowUp.mouseover" end="arrowUp.mouseout"/>
                  </use>
                  <path fill="none" stroke="white" stroke-width="1.5" d="M0,-3.0v7 M-2.5,-0.5L0,-3.0L2.5,-0.5"/>
                </g>
                <g id="arrowRight" xlink:href="#dirArrow" transform="rotate(90) translate(36 -43)" onmousedown="handlePan(1,0)">
                  <use xlink:href="#rim" fill="#404040">
                        <set attributeName="fill" to="#808080" begin="arrowRight.mouseover" end="arrowRight.mouseout"/>
                  </use>
                  <path fill="none" stroke="white" stroke-width="1.5" d="M0,-3.0v7 M-2.5,-0.5L0,-3.0L2.5,-0.5"/>
                </g>
                <g id="arrowDown" xlink:href="#dirArrow" transform="rotate(180) translate(-30 -48)" onmousedown="handlePan(0,1)">
                  <use xlink:href="#rim" fill="#404040">
                        <set attributeName="fill" to="#808080" begin="arrowDown.mouseover" end="arrowDown.mouseout"/>
                  </use>
                  <path fill="none" stroke="white" stroke-width="1.5" d="M0,-3.0v7 M-2.5,-0.5L0,-3.0L2.5,-0.5"/>
                </g>
                <g id="arrowLeft" xlink:href="#dirArrow" transform="rotate(270) translate(-36 17)" onmousedown="handlePan(-1,0)">
                  <use xlink:href="#rim" fill="#404040">
                        <set attributeName="fill" to="#808080" begin="arrowLeft.mouseover" end="arrowLeft.mouseout"/>
                  </use>
                  <path fill="none" stroke="white" stroke-width="1.5" d="M0,-3.0v7 M-2.5,-0.5L0,-3.0L2.5,-0.5"/>
                </g>
        </g>
        <svg viewBox="0 0 15 15" width="100%" height="30px" preserveAspectRatio="xMaxYMin meet">
         <g id="arrow_out" transform="scale(0.3 0.3)">
          <a xlink:href="classtomoBay_1_1model_1_1services_1_1basicEbayUpdateService_1_1OnRunning_ae4a4f4cadce2787c7e80005639fbd5d9_cgraph_org.svg" target="_base">
           <rect id="button" ry="5" rx="5" y="6" x="6" height="38" width="38"
                fill="#f2f5e9" fill-opacity="0.5" stroke="#606060" stroke-width="1.0"/>
           <path id="arrow"
             d="M 11.500037,31.436501 C 11.940474,20.09759 22.043105,11.32322 32.158766,21.979434 L 37.068811,17.246167 C 37.068811,17.246167 37.088388,32 37.088388,32 L 22.160133,31.978069 C 22.160133,31.978069 26.997745,27.140456 26.997745,27.140456 C 18.528582,18.264221 13.291696,25.230495 11.500037,31.436501 z"
             style="fill:#404040;"/>
          </a>
         </g>
        </svg>
</svg>
