<?xml version="1.0" encoding="UTF-8" standalone="no"?>
<!DOCTYPE svg PUBLIC "-//W3C//DTD SVG 1.1//EN"
 "http://www.w3.org/Graphics/SVG/1.1/DTD/svg11.dtd">
<!-- Generated by graphviz version 2.38.0 (20140413.2041)
 -->
<!-- Title: getPartNumber Pages: 1 -->
<!--zoomable 298 -->
<svg id="main" version="1.1" xmlns="http://www.w3.org/2000/svg" xmlns:xlink="http://www.w3.org/1999/xlink" xml:space="preserve" onload="init(evt)">
<style type="text/css"><![CDATA[
.edge:hover path { stroke: red; }
.edge:hover polygon { stroke: red; fill: red; }
]]></style>
<script type="text/javascript"><![CDATA[
var edges = document.getElementsByTagName('g');
if (edges && edges.length) {
  for (var i=0;i<edges.length;i++) {
    if (edges[i].id.substr(0,4)=='edge') {
      edges[i].setAttribute('class','edge');
    }
  }
}
]]></script>
        <defs>
                <circle id="rim" cx="0" cy="0" r="7"/>
                <circle id="rim2" cx="0" cy="0" r="3.5"/>
                <g id="zoomPlus">
                        <use xlink:href="#rim" fill="#404040">
                                <set attributeName="fill" to="#808080" begin="zoomplus.mouseover" end="zoomplus.mouseout"/>
                        </use>
                        <path d="M-4,0h8M0,-4v8" fill="none" stroke="white" stroke-width="1.5" pointer-events="none"/>
                </g>
                <g id="zoomMin">
                        <use xlink:href="#rim" fill="#404040">
                                <set attributeName="fill" to="#808080" begin="zoomminus.mouseover" end="zoomminus.mouseout"/>
                        </use>
                        <path d="M-4,0h8" fill="none" stroke="white" stroke-width="1.5" pointer-events="none"/>
                </g>
                <g id="dirArrow">
                        <path fill="none" stroke="white" stroke-width="1.5" d="M0,-3.0v7 M-2.5,-0.5L0,-3.0L2.5,-0.5"/>
                </g>
               <g id="resetDef">
                       <use xlink:href="#rim2" fill="#404040">
                               <set attributeName="fill" to="#808080" begin="reset.mouseover" end="reset.mouseout"/>
                       </use>
               </g>
        </defs>

<script type="text/javascript">
var viewWidth = 785;
var viewHeight = 298;
var sectionId = 'dynsection-4';
</script>
<script xlink:href="svgpan.js"/>
<svg id="graph" class="graph">
<g id="viewport">
<title>getPartNumber</title>
<polygon fill="white" stroke="none" points="-4,4 -4,-293.5 781,-293.5 781,4 -4,4"/>
<!-- Node1 -->
<g id="node1" class="node"><title>Node1</title>
<polygon fill="#bfbfbf" stroke="black" points="0,-190.5 0,-209.5 83,-209.5 83,-190.5 0,-190.5"/>
<text text-anchor="middle" x="41.5" y="-197.5" font-family="Helvetica,sans-Serif" font-size="10.00">getPartNumber</text>
</g>
<!-- Node2 -->
<g id="node2" class="node"><title>Node2</title>
<g id="a_node2"><a xlink:href="classtomoBay_1_1presenters_1_1helpers_1_1pickeability_1_1ItemStockLevel.html#a22844faa947573bb01d9313f7bdb1e56" target="_top" xlink:title="Takes the list of items generated in this.assembleItemsList and checks a PartList associated with eac...">
<polygon fill="white" stroke="black" points="119,-259 119,-289 317,-289 317,-259 119,-259"/>
<text text-anchor="start" x="127" y="-277" font-family="Helvetica,sans-Serif" font-size="10.00">tomoBay.presenters.helpers.pickeability.</text>
<text text-anchor="middle" x="218" y="-266" font-family="Helvetica,sans-Serif" font-size="10.00">ItemStockLevel.checkStockLevelOfItems</text>
</a>
</g>
</g>
<!-- Node1&#45;&gt;Node2 -->
<g id="edge1" class="edge"><title>Node1&#45;&gt;Node2</title>
<path fill="none" stroke="midnightblue" d="M62.5883,-215.863C77.4211,-226.873 98.5102,-241.106 119,-250 126.793,-253.383 135.151,-256.345 143.579,-258.925"/>
<polygon fill="midnightblue" stroke="midnightblue" points="64.301,-212.768 54.2226,-209.501 60.0636,-218.34 64.301,-212.768"/>
</g>
<!-- Node5 -->
<g id="node5" class="node"><title>Node5</title>
<g id="a_node5"><a xlink:href="classtomoBay_1_1model_1_1dataTypes_1_1order_1_1Listing.html#a08c9dd8979fc599a5710705156ea0b3e" target="_top" xlink:title="constructor, instantiates this listing based on the listingID provided (aka in the database as itemID...">
<polygon fill="white" stroke="black" points="137.5,-210 137.5,-240 298.5,-240 298.5,-210 137.5,-210"/>
<text text-anchor="start" x="145.5" y="-228" font-family="Helvetica,sans-Serif" font-size="10.00">tomoBay.model.dataTypes.order.</text>
<text text-anchor="middle" x="218" y="-217" font-family="Helvetica,sans-Serif" font-size="10.00">Listing.Listing</text>
</a>
</g>
</g>
<!-- Node1&#45;&gt;Node5 -->
<g id="edge4" class="edge"><title>Node1&#45;&gt;Node5</title>
<path fill="none" stroke="midnightblue" d="M93.5734,-207.317C107.267,-209.279 122.404,-211.448 137.25,-213.575"/>
<polygon fill="midnightblue" stroke="midnightblue" points="93.8078,-203.815 83.4125,-205.861 92.815,-210.744 93.8078,-203.815"/>
</g>
<!-- Node6 -->
<g id="node6" class="node"><title>Node6</title>
<g id="a_node6"><a xlink:href="classtomoBay_1_1model_1_1royalMail_1_1SAAJTest.html#a8b260eecbaabcef8473fd87ada040682" target="_top" xlink:title="tomoBay.model.royalMail.\lSAAJTest.main">
<polygon fill="white" stroke="black" points="153,-161 153,-191 283,-191 283,-161 153,-161"/>
<text text-anchor="start" x="161" y="-179" font-family="Helvetica,sans-Serif" font-size="10.00">tomoBay.model.royalMail.</text>
<text text-anchor="middle" x="218" y="-168" font-family="Helvetica,sans-Serif" font-size="10.00">SAAJTest.main</text>
</a>
</g>
</g>
<!-- Node1&#45;&gt;Node6 -->
<g id="edge5" class="edge"><title>Node1&#45;&gt;Node6</title>
<path fill="none" stroke="midnightblue" d="M93.4224,-192.996C111.984,-190.443 133.217,-187.523 152.784,-184.832"/>
<polygon fill="midnightblue" stroke="midnightblue" points="92.8423,-189.543 83.4125,-194.373 93.7962,-196.478 92.8423,-189.543"/>
</g>
<!-- Node7 -->
<g id="node7" class="node"><title>Node7</title>
<g id="a_node7"><a xlink:href="classtomoBay_1_1presenters_1_1presenterActions_1_1concreteActions_1_1StockReOrderAnalysis.html#aa02134599fcce4d6b039274ae5b45b4c" target="_top" xlink:title="Takes the database data and processes it so that the composite part number provided by the database i...">
<polygon fill="white" stroke="black" points="136,-101.5 136,-142.5 300,-142.5 300,-101.5 136,-101.5"/>
<text text-anchor="start" x="144" y="-130.5" font-family="Helvetica,sans-Serif" font-size="10.00">tomoBay.presenters.presenter</text>
<text text-anchor="start" x="144" y="-119.5" font-family="Helvetica,sans-Serif" font-size="10.00">Actions.concreteActions.StockRe</text>
<text text-anchor="middle" x="218" y="-108.5" font-family="Helvetica,sans-Serif" font-size="10.00">OrderAnalysis.processDBdata</text>
</a>
</g>
</g>
<!-- Node1&#45;&gt;Node7 -->
<g id="edge6" class="edge"><title>Node1&#45;&gt;Node7</title>
<path fill="none" stroke="midnightblue" d="M63.9057,-184.421C78.7876,-174.138 99.3966,-160.96 119,-152 126.444,-148.598 134.377,-145.449 142.383,-142.574"/>
<polygon fill="midnightblue" stroke="midnightblue" points="61.5989,-181.765 55.4399,-190.385 65.6306,-187.487 61.5989,-181.765"/>
</g>
<!-- Node3 -->
<g id="node3" class="node"><title>Node3</title>
<g id="a_node3"><a xlink:href="classtomoBay_1_1presenters_1_1helpers_1_1pickeability_1_1ItemStockLevel.html#a1aed814db05c4991e9bc719f39ea62ce" target="_top" xlink:title="tomoBay.presenters.helpers.pickeability.\lItemStockLevel.check">
<polygon fill="white" stroke="black" points="353,-259 353,-289 547,-289 547,-259 353,-259"/>
<text text-anchor="start" x="361" y="-277" font-family="Helvetica,sans-Serif" font-size="10.00">tomoBay.presenters.helpers.pickeability.</text>
<text text-anchor="middle" x="450" y="-266" font-family="Helvetica,sans-Serif" font-size="10.00">ItemStockLevel.check</text>
</a>
</g>
</g>
<!-- Node2&#45;&gt;Node3 -->
<g id="edge2" class="edge"><title>Node2&#45;&gt;Node3</title>
<path fill="none" stroke="midnightblue" d="M327.247,-274C335.828,-274 344.459,-274 352.949,-274"/>
<polygon fill="midnightblue" stroke="midnightblue" points="327.208,-270.5 317.208,-274 327.208,-277.5 327.208,-270.5"/>
</g>
<!-- Node4 -->
<g id="node4" class="node"><title>Node4</title>
<g id="a_node4"><a xlink:href="classtomoBay_1_1presenters_1_1helpers_1_1pickeability_1_1Pickeablity.html#ae05e03af15e33d53f9e0511ec0295a04" target="_top" xlink:title="default ctor ">
<polygon fill="white" stroke="black" points="583,-259 583,-289 777,-289 777,-259 583,-259"/>
<text text-anchor="start" x="591" y="-277" font-family="Helvetica,sans-Serif" font-size="10.00">tomoBay.presenters.helpers.pickeability.</text>
<text text-anchor="middle" x="680" y="-266" font-family="Helvetica,sans-Serif" font-size="10.00">Pickeablity.Pickeablity</text>
</a>
</g>
</g>
<!-- Node3&#45;&gt;Node4 -->
<g id="edge3" class="edge"><title>Node3&#45;&gt;Node4</title>
<path fill="none" stroke="midnightblue" d="M557.043,-274C565.605,-274 574.227,-274 582.714,-274"/>
<polygon fill="midnightblue" stroke="midnightblue" points="557.032,-270.5 547.032,-274 557.032,-277.5 557.032,-270.5"/>
</g>
<!-- Node8 -->
<g id="node8" class="node"><title>Node8</title>
<g id="a_node8"><a xlink:href="classtomoBay_1_1presenters_1_1presenterActions_1_1concreteActions_1_1StockReOrderAnalysis.html#adb3dedf31dc2c7fc796f20406c235ccd" target="_top" xlink:title="performs the action specified ">
<polygon fill="white" stroke="black" points="368,-101.5 368,-142.5 532,-142.5 532,-101.5 368,-101.5"/>
<text text-anchor="start" x="376" y="-130.5" font-family="Helvetica,sans-Serif" font-size="10.00">tomoBay.presenters.presenter</text>
<text text-anchor="start" x="376" y="-119.5" font-family="Helvetica,sans-Serif" font-size="10.00">Actions.concreteActions.StockRe</text>
<text text-anchor="middle" x="450" y="-108.5" font-family="Helvetica,sans-Serif" font-size="10.00">OrderAnalysis.execute</text>
</a>
</g>
</g>
<!-- Node7&#45;&gt;Node8 -->
<g id="edge7" class="edge"><title>Node7&#45;&gt;Node8</title>
<path fill="none" stroke="midnightblue" d="M310.252,-122C329.286,-122 349.229,-122 367.868,-122"/>
<polygon fill="midnightblue" stroke="midnightblue" points="310.089,-118.5 300.089,-122 310.089,-125.5 310.089,-118.5"/>
</g>
<!-- Node9 -->
<g id="node9" class="node"><title>Node9</title>
<g id="a_node9"><a xlink:href="classtomoBayTests_1_1presenters_1_1presenterActions_1_1concreteActions_1_1StockReOrderAnalysisTest.html#a7dc81a7ba138b011b60a6eae74362a03" target="_top" xlink:title="tomoBayTests.presenters.presenter\lActions.concreteActions.StockReOrder\lAnalysisTest.testExecuteGoodData">
<polygon fill="white" stroke="black" points="586,-180.5 586,-221.5 774,-221.5 774,-180.5 586,-180.5"/>
<text text-anchor="start" x="594" y="-209.5" font-family="Helvetica,sans-Serif" font-size="10.00">tomoBayTests.presenters.presenter</text>
<text text-anchor="start" x="594" y="-198.5" font-family="Helvetica,sans-Serif" font-size="10.00">Actions.concreteActions.StockReOrder</text>
<text text-anchor="middle" x="680" y="-187.5" font-family="Helvetica,sans-Serif" font-size="10.00">AnalysisTest.testExecuteGoodData</text>
</a>
</g>
</g>
<!-- Node8&#45;&gt;Node9 -->
<g id="edge8" class="edge"><title>Node8&#45;&gt;Node9</title>
<path fill="none" stroke="midnightblue" d="M513.874,-146.107C535.674,-154.261 560.331,-163.256 583,-171 592.253,-174.161 602.052,-177.374 611.715,-180.466"/>
<polygon fill="midnightblue" stroke="midnightblue" points="514.991,-142.788 504.399,-142.549 512.53,-149.341 514.991,-142.788"/>
</g>
<!-- Node10 -->
<g id="node10" class="node"><title>Node10</title>
<g id="a_node10"><a xlink:href="classtomoBayTests_1_1presenters_1_1presenterActions_1_1concreteActions_1_1StockReOrderAnalysisTest.html#a07b7831bd5f69df06f9ff2cce3661376" target="_top" xlink:title="tomoBayTests.presenters.presenter\lActions.concreteActions.StockReOrder\lAnalysisTest.testExecuteBadData1">
<polygon fill="white" stroke="black" points="586,-120.5 586,-161.5 774,-161.5 774,-120.5 586,-120.5"/>
<text text-anchor="start" x="594" y="-149.5" font-family="Helvetica,sans-Serif" font-size="10.00">tomoBayTests.presenters.presenter</text>
<text text-anchor="start" x="594" y="-138.5" font-family="Helvetica,sans-Serif" font-size="10.00">Actions.concreteActions.StockReOrder</text>
<text text-anchor="middle" x="680" y="-127.5" font-family="Helvetica,sans-Serif" font-size="10.00">AnalysisTest.testExecuteBadData1</text>
</a>
</g>
</g>
<!-- Node8&#45;&gt;Node10 -->
<g id="edge9" class="edge"><title>Node8&#45;&gt;Node10</title>
<path fill="none" stroke="midnightblue" d="M542.341,-129.612C556.645,-130.804 571.445,-132.037 585.791,-133.233"/>
<polygon fill="midnightblue" stroke="midnightblue" points="542.282,-126.095 532.026,-128.752 541.701,-133.071 542.282,-126.095"/>
</g>
<!-- Node11 -->
<g id="node11" class="node"><title>Node11</title>
<g id="a_node11"><a xlink:href="classtomoBayTests_1_1presenters_1_1presenterActions_1_1concreteActions_1_1StockReOrderAnalysisTest.html#a9fe5a553cc6d9ead3154faa3121e5bb9" target="_top" xlink:title="tomoBayTests.presenters.presenter\lActions.concreteActions.StockReOrder\lAnalysisTest.testExecuteBadData2">
<polygon fill="white" stroke="black" points="586,-60.5 586,-101.5 774,-101.5 774,-60.5 586,-60.5"/>
<text text-anchor="start" x="594" y="-89.5" font-family="Helvetica,sans-Serif" font-size="10.00">tomoBayTests.presenters.presenter</text>
<text text-anchor="start" x="594" y="-78.5" font-family="Helvetica,sans-Serif" font-size="10.00">Actions.concreteActions.StockReOrder</text>
<text text-anchor="middle" x="680" y="-67.5" font-family="Helvetica,sans-Serif" font-size="10.00">AnalysisTest.testExecuteBadData2</text>
</a>
</g>
</g>
<!-- Node8&#45;&gt;Node11 -->
<g id="edge10" class="edge"><title>Node8&#45;&gt;Node11</title>
<path fill="none" stroke="midnightblue" d="M541.924,-105.65C556.358,-103.054 571.306,-100.366 585.791,-97.7613"/>
<polygon fill="midnightblue" stroke="midnightblue" points="541.249,-102.215 532.026,-107.429 542.488,-109.104 541.249,-102.215"/>
</g>
<!-- Node12 -->
<g id="node12" class="node"><title>Node12</title>
<g id="a_node12"><a xlink:href="classtomoBayTests_1_1presenters_1_1presenterActions_1_1concreteActions_1_1StockReOrderAnalysisTest.html#a523accba573f6d4c7f68fb358a0563cb" target="_top" xlink:title="tomoBayTests.presenters.presenter\lActions.concreteActions.StockReOrder\lAnalysisTest.testExecuteBadData3">
<polygon fill="white" stroke="black" points="586,-0.5 586,-41.5 774,-41.5 774,-0.5 586,-0.5"/>
<text text-anchor="start" x="594" y="-29.5" font-family="Helvetica,sans-Serif" font-size="10.00">tomoBayTests.presenters.presenter</text>
<text text-anchor="start" x="594" y="-18.5" font-family="Helvetica,sans-Serif" font-size="10.00">Actions.concreteActions.StockReOrder</text>
<text text-anchor="middle" x="680" y="-7.5" font-family="Helvetica,sans-Serif" font-size="10.00">AnalysisTest.testExecuteBadData3</text>
</a>
</g>
</g>
<!-- Node8&#45;&gt;Node12 -->
<g id="edge11" class="edge"><title>Node8&#45;&gt;Node12</title>
<path fill="none" stroke="midnightblue" d="M493.825,-96.2712C519.169,-81.7342 552.238,-63.9401 583,-51 590.967,-47.6485 599.443,-44.4715 607.932,-41.5267"/>
<polygon fill="midnightblue" stroke="midnightblue" points="491.757,-93.4248 484.856,-101.465 495.264,-99.4826 491.757,-93.4248"/>
</g>
</g>
</svg>
        <g id="navigator" transform="translate(0 0)" fill="#404254">
                <rect fill="#f2f5e9" fill-opacity="0.5" stroke="#606060" stroke-width=".5" x="0" y="0" width="60" height="60"/>
                <use id="zoomplus" xlink:href="#zoomPlus" x="17" y="9" onmousedown="handleZoom(evt,'in')"/>
                <use id="zoomminus" xlink:href="#zoomMin" x="42" y="9" onmousedown="handleZoom(evt,'out')"/>
                <use id="reset" xlink:href="#resetDef" x="30" y="36" onmousedown="handleReset()"/>
                <g id="arrowUp" xlink:href="#dirArrow" transform="translate(30 24)" onmousedown="handlePan(0,-1)">
                  <use xlink:href="#rim" fill="#404040">
                        <set attributeName="fill" to="#808080" begin="arrowUp.mouseover" end="arrowUp.mouseout"/>
                  </use>
                  <path fill="none" stroke="white" stroke-width="1.5" d="M0,-3.0v7 M-2.5,-0.5L0,-3.0L2.5,-0.5"/>
                </g>
                <g id="arrowRight" xlink:href="#dirArrow" transform="rotate(90) translate(36 -43)" onmousedown="handlePan(1,0)">
                  <use xlink:href="#rim" fill="#404040">
                        <set attributeName="fill" to="#808080" begin="arrowRight.mouseover" end="arrowRight.mouseout"/>
                  </use>
                  <path fill="none" stroke="white" stroke-width="1.5" d="M0,-3.0v7 M-2.5,-0.5L0,-3.0L2.5,-0.5"/>
                </g>
                <g id="arrowDown" xlink:href="#dirArrow" transform="rotate(180) translate(-30 -48)" onmousedown="handlePan(0,1)">
                  <use xlink:href="#rim" fill="#404040">
                        <set attributeName="fill" to="#808080" begin="arrowDown.mouseover" end="arrowDown.mouseout"/>
                  </use>
                  <path fill="none" stroke="white" stroke-width="1.5" d="M0,-3.0v7 M-2.5,-0.5L0,-3.0L2.5,-0.5"/>
                </g>
                <g id="arrowLeft" xlink:href="#dirArrow" transform="rotate(270) translate(-36 17)" onmousedown="handlePan(-1,0)">
                  <use xlink:href="#rim" fill="#404040">
                        <set attributeName="fill" to="#808080" begin="arrowLeft.mouseover" end="arrowLeft.mouseout"/>
                  </use>
                  <path fill="none" stroke="white" stroke-width="1.5" d="M0,-3.0v7 M-2.5,-0.5L0,-3.0L2.5,-0.5"/>
                </g>
        </g>
        <svg viewBox="0 0 15 15" width="100%" height="30px" preserveAspectRatio="xMaxYMin meet">
         <g id="arrow_out" transform="scale(0.3 0.3)">
          <a xlink:href="classtomoBay_1_1model_1_1dataTypes_1_1PartList_ab743beefffd4d159c3b91639caee92da_icgraph_org.svg" target="_base">
           <rect id="button" ry="5" rx="5" y="6" x="6" height="38" width="38"
                fill="#f2f5e9" fill-opacity="0.5" stroke="#606060" stroke-width="1.0"/>
           <path id="arrow"
             d="M 11.500037,31.436501 C 11.940474,20.09759 22.043105,11.32322 32.158766,21.979434 L 37.068811,17.246167 C 37.068811,17.246167 37.088388,32 37.088388,32 L 22.160133,31.978069 C 22.160133,31.978069 26.997745,27.140456 26.997745,27.140456 C 18.528582,18.264221 13.291696,25.230495 11.500037,31.436501 z"
             style="fill:#404040;"/>
          </a>
         </g>
        </svg>
</svg>
