<?xml version="1.0" encoding="UTF-8" standalone="no"?>
<!DOCTYPE svg PUBLIC "-//W3C//DTD SVG 1.1//EN"
 "http://www.w3.org/Graphics/SVG/1.1/DTD/svg11.dtd">
<!-- Generated by graphviz version 2.38.0 (20140413.2041)
 -->
<!-- Title: Part Pages: 1 -->
<!--zoomable 137 -->
<svg id="main" version="1.1" xmlns="http://www.w3.org/2000/svg" xmlns:xlink="http://www.w3.org/1999/xlink" xml:space="preserve" onload="init(evt)">
<style type="text/css"><![CDATA[
.edge:hover path { stroke: red; }
.edge:hover polygon { stroke: red; fill: red; }
]]></style>
<script type="text/javascript"><![CDATA[
var edges = document.getElementsByTagName('g');
if (edges && edges.length) {
  for (var i=0;i<edges.length;i++) {
    if (edges[i].id.substr(0,4)=='edge') {
      edges[i].setAttribute('class','edge');
    }
  }
}
]]></script>
        <defs>
                <circle id="rim" cx="0" cy="0" r="7"/>
                <circle id="rim2" cx="0" cy="0" r="3.5"/>
                <g id="zoomPlus">
                        <use xlink:href="#rim" fill="#404040">
                                <set attributeName="fill" to="#808080" begin="zoomplus.mouseover" end="zoomplus.mouseout"/>
                        </use>
                        <path d="M-4,0h8M0,-4v8" fill="none" stroke="white" stroke-width="1.5" pointer-events="none"/>
                </g>
                <g id="zoomMin">
                        <use xlink:href="#rim" fill="#404040">
                                <set attributeName="fill" to="#808080" begin="zoomminus.mouseover" end="zoomminus.mouseout"/>
                        </use>
                        <path d="M-4,0h8" fill="none" stroke="white" stroke-width="1.5" pointer-events="none"/>
                </g>
                <g id="dirArrow">
                        <path fill="none" stroke="white" stroke-width="1.5" d="M0,-3.0v7 M-2.5,-0.5L0,-3.0L2.5,-0.5"/>
                </g>
               <g id="resetDef">
                       <use xlink:href="#rim2" fill="#404040">
                               <set attributeName="fill" to="#808080" begin="reset.mouseover" end="reset.mouseout"/>
                       </use>
               </g>
        </defs>

<script type="text/javascript">
var viewWidth = 824;
var viewHeight = 137;
var sectionId = 'dynsection-1';
</script>
<script xlink:href="svgpan.js"/>
<svg id="graph" class="graph">
<g id="viewport">
<title>Part</title>
<polygon fill="white" stroke="none" points="-4,4 -4,-133 820,-133 820,4 -4,4"/>
<!-- Node1 -->
<g id="node1" class="node"><title>Node1</title>
<polygon fill="#bfbfbf" stroke="black" points="0,-55 0,-74 35,-74 35,-55 0,-55"/>
<text text-anchor="middle" x="17.5" y="-62" font-family="Helvetica,sans-Serif" font-size="10.00">Part</text>
</g>
<!-- Node2 -->
<g id="node2" class="node"><title>Node2</title>
<g id="a_node2"><a xlink:href="classtomoBay_1_1model_1_1dataTypes_1_1order_1_1Part.html#aee50f745ad12c48b5f2dc8eda4fdd6ec" target="_top" xlink:title="retrieve the cost of this particular part from winstock ">
<polygon fill="white" stroke="black" points="85.5,-36 85.5,-55 136.5,-55 136.5,-36 85.5,-36"/>
<text text-anchor="middle" x="111" y="-43" font-family="Helvetica,sans-Serif" font-size="10.00">getCost</text>
</a>
</g>
</g>
<!-- Node1&#45;&gt;Node2 -->
<g id="edge1" class="edge"><title>Node1&#45;&gt;Node2</title>
<path fill="none" stroke="midnightblue" d="M35.2825,-61.0151C46.4651,-58.693 61.5703,-55.5564 75.2727,-52.7111"/>
<polygon fill="midnightblue" stroke="midnightblue" points="76.3099,-56.0705 85.3894,-50.6104 74.8867,-49.2167 76.3099,-56.0705"/>
</g>
<!-- Node9 -->
<g id="node9" class="node"><title>Node9</title>
<g id="a_node9"><a xlink:href="classtomoBay_1_1model_1_1dataTypes_1_1order_1_1Part.html#a35fa0786da9722faf378ccf27cccbea6" target="_top" xlink:title="find the description of this part, using winstock ">
<polygon fill="white" stroke="black" points="71,-74 71,-93 151,-93 151,-74 71,-74"/>
<text text-anchor="middle" x="111" y="-81" font-family="Helvetica,sans-Serif" font-size="10.00">getDescription</text>
</a>
</g>
</g>
<!-- Node1&#45;&gt;Node9 -->
<g id="edge8" class="edge"><title>Node1&#45;&gt;Node9</title>
<path fill="none" stroke="midnightblue" d="M35.2825,-67.9849C42.6328,-69.5112 51.6778,-71.3894 60.9052,-73.3054"/>
<polygon fill="midnightblue" stroke="midnightblue" points="60.4151,-76.7783 70.9179,-75.3846 61.8384,-69.9245 60.4151,-76.7783"/>
</g>
<!-- Node3 -->
<g id="node3" class="node"><title>Node3</title>
<g id="a_node3"><a xlink:href="classtomoBay_1_1model_1_1winstock_1_1Stock.html#a5171bbe1448b8e4840e617ffd75cc261" target="_top" xlink:title="query winstock for the last cost price of a particular part. ">
<polygon fill="white" stroke="black" points="187,-0.5 187,-30.5 378,-30.5 378,-0.5 187,-0.5"/>
<text text-anchor="start" x="195" y="-18.5" font-family="Helvetica,sans-Serif" font-size="10.00">tomoBay.model.winstock.Stock.request</text>
<text text-anchor="middle" x="282.5" y="-7.5" font-family="Helvetica,sans-Serif" font-size="10.00">LastCost</text>
</a>
</g>
</g>
<!-- Node2&#45;&gt;Node3 -->
<g id="edge2" class="edge"><title>Node2&#45;&gt;Node3</title>
<path fill="none" stroke="midnightblue" d="M136.647,-41.1377C150.267,-38.7271 168.154,-35.5612 186.692,-32.2801"/>
<polygon fill="midnightblue" stroke="midnightblue" points="187.493,-35.6929 196.73,-30.5036 186.273,-28.8001 187.493,-35.6929"/>
</g>
<!-- Node8 -->
<g id="node8" class="node"><title>Node8</title>
<g id="a_node8"><a xlink:href="classtomoBay_1_1helpers_1_1BrandToCode.html#a10207714bd294d73dd98b80fd94a2ab8" target="_top" xlink:title="converts converts a string like &quot;citroen&quot; or &quot;fOrd&quot; to a brandcode integer specific to winstock...">
<polygon fill="white" stroke="black" points="188.5,-49.5 188.5,-79.5 376.5,-79.5 376.5,-49.5 188.5,-49.5"/>
<text text-anchor="start" x="196.5" y="-67.5" font-family="Helvetica,sans-Serif" font-size="10.00">tomoBay.helpers.BrandToCode.convert</text>
<text text-anchor="middle" x="282.5" y="-56.5" font-family="Helvetica,sans-Serif" font-size="10.00">ToWinstockInt</text>
</a>
</g>
</g>
<!-- Node2&#45;&gt;Node8 -->
<g id="edge7" class="edge"><title>Node2&#45;&gt;Node8</title>
<path fill="none" stroke="midnightblue" d="M136.647,-48.2628C148.171,-49.5545 162.749,-51.1887 178.192,-52.9197"/>
<polygon fill="midnightblue" stroke="midnightblue" points="178.114,-56.4328 188.441,-54.0686 178.893,-49.4764 178.114,-56.4328"/>
</g>
<!-- Node4 -->
<g id="node4" class="node"><title>Node4</title>
<g id="a_node4"><a xlink:href="classtomoBay_1_1model_1_1winstock_1_1Stock.html#a82b5421e7d3a2ba82bdc5d54b09a8069" target="_top" xlink:title="tomoBay.model.winstock.Stock.query\lWinstockURL">
<polygon fill="white" stroke="black" points="414,-97.5 414,-127.5 596,-127.5 596,-97.5 414,-97.5"/>
<text text-anchor="start" x="422" y="-115.5" font-family="Helvetica,sans-Serif" font-size="10.00">tomoBay.model.winstock.Stock.query</text>
<text text-anchor="middle" x="505" y="-104.5" font-family="Helvetica,sans-Serif" font-size="10.00">WinstockURL</text>
</a>
</g>
</g>
<!-- Node3&#45;&gt;Node4 -->
<g id="edge3" class="edge"><title>Node3&#45;&gt;Node4</title>
<path fill="none" stroke="midnightblue" d="M361.169,-30.5716C367.08,-33.0999 372.771,-36.0524 378,-39.5 399.967,-53.9844 392.271,-71.6603 414,-86.5 417.551,-88.925 421.328,-91.1264 425.247,-93.1246"/>
<polygon fill="midnightblue" stroke="midnightblue" points="424.061,-96.4314 434.609,-97.4276 426.984,-90.0711 424.061,-96.4314"/>
</g>
<!-- Node5 -->
<g id="node5" class="node"><title>Node5</title>
<g id="a_node5"><a xlink:href="classtomoBay_1_1model_1_1winstock_1_1Stock.html#a42fa652d82ed49749a0ad929a6c798d0" target="_top" xlink:title="remove the header bumpf from the bottom of the response ">
<polygon fill="white" stroke="black" points="416.5,-47.5 416.5,-77.5 593.5,-77.5 593.5,-47.5 416.5,-47.5"/>
<text text-anchor="start" x="424.5" y="-65.5" font-family="Helvetica,sans-Serif" font-size="10.00">tomoBay.model.winstock.Stock.post</text>
<text text-anchor="middle" x="505" y="-54.5" font-family="Helvetica,sans-Serif" font-size="10.00">FormatXMLString</text>
</a>
</g>
</g>
<!-- Node3&#45;&gt;Node5 -->
<g id="edge4" class="edge"><title>Node3&#45;&gt;Node5</title>
<path fill="none" stroke="midnightblue" d="M353.874,-30.5003C376.051,-35.2275 400.717,-40.485 423.541,-45.35"/>
<polygon fill="midnightblue" stroke="midnightblue" points="423.028,-48.8193 433.538,-47.481 424.488,-41.9731 423.028,-48.8193"/>
</g>
<!-- Node7 -->
<g id="node7" class="node"><title>Node7</title>
<g id="a_node7"><a xlink:href="classtomoBay_1_1helpers_1_1XMLParser.html#a9936151017dd4e908cf37d453b22c8ef" target="_top" xlink:title="parses an XML formatted string looking for the first tag specified in the parameters. ">
<polygon fill="white" stroke="black" points="420.5,-8 420.5,-27 589.5,-27 589.5,-8 420.5,-8"/>
<text text-anchor="middle" x="505" y="-15" font-family="Helvetica,sans-Serif" font-size="10.00">tomoBay.helpers.XMLParser.parse</text>
</a>
</g>
</g>
<!-- Node3&#45;&gt;Node7 -->
<g id="edge6" class="edge"><title>Node3&#45;&gt;Node7</title>
<path fill="none" stroke="midnightblue" d="M378.292,-16.3598C388.906,-16.4561 399.716,-16.5541 410.316,-16.6503"/>
<polygon fill="midnightblue" stroke="midnightblue" points="410.371,-20.1508 420.403,-16.7417 410.435,-13.1511 410.371,-20.1508"/>
</g>
<!-- Node6 -->
<g id="node6" class="node"><title>Node6</title>
<g id="a_node6"><a xlink:href="classtomoBay_1_1model_1_1net_1_1HttpResponse.html#afb798c825935128953439404fb763997" target="_top" xlink:title="get the Response message ">
<polygon fill="white" stroke="black" points="632,-47.5 632,-77.5 816,-77.5 816,-47.5 632,-47.5"/>
<text text-anchor="start" x="640" y="-65.5" font-family="Helvetica,sans-Serif" font-size="10.00">tomoBay.model.net.HttpResponse.get</text>
<text text-anchor="middle" x="724" y="-54.5" font-family="Helvetica,sans-Serif" font-size="10.00">ResponseMessage</text>
</a>
</g>
</g>
<!-- Node5&#45;&gt;Node6 -->
<g id="edge5" class="edge"><title>Node5&#45;&gt;Node6</title>
<path fill="none" stroke="midnightblue" d="M593.637,-62.5C602.88,-62.5 612.333,-62.5 621.713,-62.5"/>
<polygon fill="midnightblue" stroke="midnightblue" points="621.851,-66.0001 631.851,-62.5 621.851,-59.0001 621.851,-66.0001"/>
</g>
<!-- Node9&#45;&gt;Node8 -->
<g id="edge13" class="edge"><title>Node9&#45;&gt;Node8</title>
<path fill="none" stroke="midnightblue" d="M151.313,-79.0933C159.66,-78.1576 168.842,-77.1283 178.348,-76.0627"/>
<polygon fill="midnightblue" stroke="midnightblue" points="178.804,-79.5337 188.351,-74.9414 178.024,-72.5773 178.804,-79.5337"/>
</g>
<!-- Node10 -->
<g id="node10" class="node"><title>Node10</title>
<g id="a_node10"><a xlink:href="classtomoBay_1_1model_1_1winstock_1_1Stock.html#adaf6c34595911864279e31f375aeedd1" target="_top" xlink:title="query winstock for the description of a particular part. ">
<polygon fill="white" stroke="black" points="187,-98.5 187,-128.5 378,-128.5 378,-98.5 187,-98.5"/>
<text text-anchor="start" x="195" y="-116.5" font-family="Helvetica,sans-Serif" font-size="10.00">tomoBay.model.winstock.Stock.request</text>
<text text-anchor="middle" x="282.5" y="-105.5" font-family="Helvetica,sans-Serif" font-size="10.00">Description</text>
</a>
</g>
</g>
<!-- Node9&#45;&gt;Node10 -->
<g id="edge9" class="edge"><title>Node9&#45;&gt;Node10</title>
<path fill="none" stroke="midnightblue" d="M151.313,-90.458C162.039,-92.3565 174.144,-94.499 186.545,-96.6938"/>
<polygon fill="midnightblue" stroke="midnightblue" points="186.076,-100.165 196.533,-98.4615 187.296,-93.2722 186.076,-100.165"/>
</g>
<!-- Node10&#45;&gt;Node4 -->
<g id="edge10" class="edge"><title>Node10&#45;&gt;Node4</title>
<path fill="none" stroke="midnightblue" d="M378.292,-113.07C386.673,-113.032 395.176,-112.994 403.601,-112.955"/>
<polygon fill="midnightblue" stroke="midnightblue" points="403.843,-116.454 413.827,-112.909 403.811,-109.454 403.843,-116.454"/>
</g>
<!-- Node10&#45;&gt;Node5 -->
<g id="edge11" class="edge"><title>Node10&#45;&gt;Node5</title>
<path fill="none" stroke="midnightblue" d="M348.465,-98.4742C373.81,-92.612 403.019,-85.8561 429.233,-79.793"/>
<polygon fill="midnightblue" stroke="midnightblue" points="430.165,-83.17 439.119,-77.5065 428.587,-76.35 430.165,-83.17"/>
</g>
<!-- Node10&#45;&gt;Node7 -->
<g id="edge12" class="edge"><title>Node10&#45;&gt;Node7</title>
<path fill="none" stroke="midnightblue" d="M359.895,-98.4146C366.286,-95.648 372.426,-92.3742 378,-88.5 400.783,-72.6655 390.906,-52.8762 414,-37.5 417.774,-34.9871 421.815,-32.7855 426.018,-30.857"/>
<polygon fill="midnightblue" stroke="midnightblue" points="427.471,-34.0447 435.435,-27.0566 424.852,-27.5533 427.471,-34.0447"/>
</g>
</g>
</svg>
        <g id="navigator" transform="translate(0 0)" fill="#404254">
                <rect fill="#f2f5e9" fill-opacity="0.5" stroke="#606060" stroke-width=".5" x="0" y="0" width="60" height="60"/>
                <use id="zoomplus" xlink:href="#zoomPlus" x="17" y="9" onmousedown="handleZoom(evt,'in')"/>
                <use id="zoomminus" xlink:href="#zoomMin" x="42" y="9" onmousedown="handleZoom(evt,'out')"/>
                <use id="reset" xlink:href="#resetDef" x="30" y="36" onmousedown="handleReset()"/>
                <g id="arrowUp" xlink:href="#dirArrow" transform="translate(30 24)" onmousedown="handlePan(0,-1)">
                  <use xlink:href="#rim" fill="#404040">
                        <set attributeName="fill" to="#808080" begin="arrowUp.mouseover" end="arrowUp.mouseout"/>
                  </use>
                  <path fill="none" stroke="white" stroke-width="1.5" d="M0,-3.0v7 M-2.5,-0.5L0,-3.0L2.5,-0.5"/>
                </g>
                <g id="arrowRight" xlink:href="#dirArrow" transform="rotate(90) translate(36 -43)" onmousedown="handlePan(1,0)">
                  <use xlink:href="#rim" fill="#404040">
                        <set attributeName="fill" to="#808080" begin="arrowRight.mouseover" end="arrowRight.mouseout"/>
                  </use>
                  <path fill="none" stroke="white" stroke-width="1.5" d="M0,-3.0v7 M-2.5,-0.5L0,-3.0L2.5,-0.5"/>
                </g>
                <g id="arrowDown" xlink:href="#dirArrow" transform="rotate(180) translate(-30 -48)" onmousedown="handlePan(0,1)">
                  <use xlink:href="#rim" fill="#404040">
                        <set attributeName="fill" to="#808080" begin="arrowDown.mouseover" end="arrowDown.mouseout"/>
                  </use>
                  <path fill="none" stroke="white" stroke-width="1.5" d="M0,-3.0v7 M-2.5,-0.5L0,-3.0L2.5,-0.5"/>
                </g>
                <g id="arrowLeft" xlink:href="#dirArrow" transform="rotate(270) translate(-36 17)" onmousedown="handlePan(-1,0)">
                  <use xlink:href="#rim" fill="#404040">
                        <set attributeName="fill" to="#808080" begin="arrowLeft.mouseover" end="arrowLeft.mouseout"/>
                  </use>
                  <path fill="none" stroke="white" stroke-width="1.5" d="M0,-3.0v7 M-2.5,-0.5L0,-3.0L2.5,-0.5"/>
                </g>
        </g>
        <svg viewBox="0 0 15 15" width="100%" height="30px" preserveAspectRatio="xMaxYMin meet">
         <g id="arrow_out" transform="scale(0.3 0.3)">
          <a xlink:href="classtomoBay_1_1model_1_1dataTypes_1_1order_1_1Part_a21a16cfaa442e4ae57f10d8cc440c1fa_cgraph_org.svg" target="_base">
           <rect id="button" ry="5" rx="5" y="6" x="6" height="38" width="38"
                fill="#f2f5e9" fill-opacity="0.5" stroke="#606060" stroke-width="1.0"/>
           <path id="arrow"
             d="M 11.500037,31.436501 C 11.940474,20.09759 22.043105,11.32322 32.158766,21.979434 L 37.068811,17.246167 C 37.068811,17.246167 37.088388,32 37.088388,32 L 22.160133,31.978069 C 22.160133,31.978069 26.997745,27.140456 26.997745,27.140456 C 18.528582,18.264221 13.291696,25.230495 11.500037,31.436501 z"
             style="fill:#404040;"/>
          </a>
         </g>
        </svg>
</svg>
