<?xml version="1.0" encoding="UTF-8" standalone="no"?>
<!DOCTYPE svg PUBLIC "-//W3C//DTD SVG 1.1//EN"
 "http://www.w3.org/Graphics/SVG/1.1/DTD/svg11.dtd">
<!-- Generated by graphviz version 2.38.0 (20140413.2041)
 -->
<!-- Title: setBYTEParam Pages: 1 -->
<svg width="761pt" height="1072pt"
 viewBox="0.00 0.00 761.00 1072.00" xmlns="http://www.w3.org/2000/svg" xmlns:xlink="http://www.w3.org/1999/xlink">
<g id="graph0" class="graph" transform="scale(1 1) rotate(0) translate(4 1068)">
<title>setBYTEParam</title>
<polygon fill="white" stroke="none" points="-4,4 -4,-1068 757,-1068 757,4 -4,4"/>
<!-- Node1 -->
<g id="node1" class="node"><title>Node1</title>
<polygon fill="#bfbfbf" stroke="black" points="0,-474.5 0,-493.5 85,-493.5 85,-474.5 0,-474.5"/>
<text text-anchor="middle" x="42.5" y="-481.5" font-family="Helvetica,sans-Serif" font-size="10.00">setBYTEParam</text>
</g>
<!-- Node2 -->
<g id="node2" class="node"><title>Node2</title>
<g id="a_node2"><a xlink:href="classtomoBay_1_1model_1_1sql_1_1framework_1_1QueryUtility.html#a3249b16421a9902f2248cb86d4dd3be3" target="_top" xlink:title="set an Integer parameter for the query object specified. ">
<polygon fill="white" stroke="black" points="121,-474.5 121,-493.5 230,-493.5 230,-474.5 121,-474.5"/>
<text text-anchor="middle" x="175.5" y="-481.5" font-family="Helvetica,sans-Serif" font-size="10.00">setVARCHARParam</text>
</a>
</g>
</g>
<!-- Node1&#45;&gt;Node2 -->
<g id="edge1" class="edge"><title>Node1&#45;&gt;Node2</title>
<path fill="none" stroke="midnightblue" d="M95.5551,-484C103.802,-484 112.346,-484 120.634,-484"/>
<polygon fill="midnightblue" stroke="midnightblue" points="95.3094,-480.5 85.3094,-484 95.3094,-487.5 95.3094,-480.5"/>
</g>
<!-- Node3 -->
<g id="node3" class="node"><title>Node3</title>
<g id="a_node3"><a xlink:href="classtomoBay_1_1model_1_1sql_1_1framework_1_1QueryUtility.html#aca3b74b8ac7e194a86c0b896a674e2f2" target="_top" xlink:title="set an Integer parameter for the query object specified. ">
<polygon fill="white" stroke="black" points="330,-815.5 330,-834.5 434,-834.5 434,-815.5 330,-815.5"/>
<text text-anchor="middle" x="382" y="-822.5" font-family="Helvetica,sans-Serif" font-size="10.00">setINTEGERParam</text>
</a>
</g>
</g>
<!-- Node2&#45;&gt;Node3 -->
<g id="edge2" class="edge"><title>Node2&#45;&gt;Node3</title>
<path fill="none" stroke="midnightblue" d="M176.509,-503.67C177.612,-556.55 187.937,-703.284 266,-785 282.719,-802.501 307.488,-812.349 329.761,-817.888"/>
<polygon fill="midnightblue" stroke="midnightblue" points="180.008,-503.567 176.392,-493.608 173.009,-503.648 180.008,-503.567"/>
</g>
<!-- Node6 -->
<g id="node6" class="node"><title>Node6</title>
<g id="a_node6"><a xlink:href="classtomoBay_1_1model_1_1sql_1_1queries_1_1concreteQueries_1_1update_1_1UpdateInvoiceStatus.html#af9020b85517904668d036bc2bf89433c" target="_top" xlink:title="tomoBay.model.sql.queries.concrete\lQueries.update.UpdateInvoiceStatus.set\lParameters">
<polygon fill="white" stroke="black" points="546.5,-1022.5 546.5,-1063.5 740.5,-1063.5 740.5,-1022.5 546.5,-1022.5"/>
<text text-anchor="start" x="554.5" y="-1051.5" font-family="Helvetica,sans-Serif" font-size="10.00">tomoBay.model.sql.queries.concrete</text>
<text text-anchor="start" x="554.5" y="-1040.5" font-family="Helvetica,sans-Serif" font-size="10.00">Queries.update.UpdateInvoiceStatus.set</text>
<text text-anchor="middle" x="643.5" y="-1029.5" font-family="Helvetica,sans-Serif" font-size="10.00">Parameters</text>
</a>
</g>
</g>
<!-- Node2&#45;&gt;Node6 -->
<g id="edge12" class="edge"><title>Node2&#45;&gt;Node6</title>
<path fill="none" stroke="midnightblue" d="M176.45,-503.688C177.258,-561.594 186.59,-734.15 266,-844 337.035,-942.264 471.572,-996.297 559.096,-1022.44"/>
<polygon fill="midnightblue" stroke="midnightblue" points="179.95,-503.665 176.384,-493.688 172.951,-503.711 179.95,-503.665"/>
</g>
<!-- Node8 -->
<g id="node8" class="node"><title>Node8</title>
<g id="a_node8"><a xlink:href="classtomoBay_1_1model_1_1sql_1_1queries_1_1concreteQueries_1_1insert_1_1InsertEbayItems.html#af9020b85517904668d036bc2bf89433c" target="_top" xlink:title="tomoBay.model.sql.queries.concrete\lQueries.insert.InsertEbayItems.setParameters">
<polygon fill="white" stroke="black" points="534,-756 534,-786 753,-786 753,-756 534,-756"/>
<text text-anchor="start" x="542" y="-774" font-family="Helvetica,sans-Serif" font-size="10.00">tomoBay.model.sql.queries.concrete</text>
<text text-anchor="middle" x="643.5" y="-763" font-family="Helvetica,sans-Serif" font-size="10.00">Queries.insert.InsertEbayItems.setParameters</text>
</a>
</g>
</g>
<!-- Node2&#45;&gt;Node8 -->
<g id="edge17" class="edge"><title>Node2&#45;&gt;Node8</title>
<path fill="none" stroke="midnightblue" d="M176.821,-503.674C178.78,-552.187 191.194,-677.809 266,-736 351.625,-802.607 483.587,-797.807 566.386,-786.034"/>
<polygon fill="midnightblue" stroke="midnightblue" points="180.316,-503.461 176.524,-493.568 173.319,-503.666 180.316,-503.461"/>
</g>
<!-- Node9 -->
<g id="node9" class="node"><title>Node9</title>
<g id="a_node9"><a xlink:href="classtomoBay_1_1model_1_1sql_1_1queries_1_1concreteQueries_1_1insert_1_1InsertEbayOrders.html#af9020b85517904668d036bc2bf89433c" target="_top" xlink:title="tomoBay.model.sql.queries.concrete\lQueries.insert.InsertEbayOrders.set\lParameters">
<polygon fill="white" stroke="black" points="555.5,-696.5 555.5,-737.5 731.5,-737.5 731.5,-696.5 555.5,-696.5"/>
<text text-anchor="start" x="563.5" y="-725.5" font-family="Helvetica,sans-Serif" font-size="10.00">tomoBay.model.sql.queries.concrete</text>
<text text-anchor="start" x="563.5" y="-714.5" font-family="Helvetica,sans-Serif" font-size="10.00">Queries.insert.InsertEbayOrders.set</text>
<text text-anchor="middle" x="643.5" y="-703.5" font-family="Helvetica,sans-Serif" font-size="10.00">Parameters</text>
</a>
</g>
</g>
<!-- Node2&#45;&gt;Node9 -->
<g id="edge15" class="edge"><title>Node2&#45;&gt;Node9</title>
<path fill="none" stroke="midnightblue" d="M178.069,-504.119C182.684,-547.961 200.365,-651.877 266,-698 350.205,-757.173 473.021,-750.82 555.242,-737.114"/>
<polygon fill="midnightblue" stroke="midnightblue" points="181.529,-503.522 177.12,-493.888 174.559,-504.169 181.529,-503.522"/>
</g>
<!-- Node10 -->
<g id="node10" class="node"><title>Node10</title>
<g id="a_node10"><a xlink:href="classtomoBay_1_1model_1_1sql_1_1queries_1_1concreteQueries_1_1insert_1_1InsertEbayTransactions.html#af9020b85517904668d036bc2bf89433c" target="_top" xlink:title="tomoBay.model.sql.queries.concrete\lQueries.insert.InsertEbayTransactions.set\lParameters">
<polygon fill="white" stroke="black" points="543.5,-636.5 543.5,-677.5 743.5,-677.5 743.5,-636.5 543.5,-636.5"/>
<text text-anchor="start" x="551.5" y="-665.5" font-family="Helvetica,sans-Serif" font-size="10.00">tomoBay.model.sql.queries.concrete</text>
<text text-anchor="start" x="551.5" y="-654.5" font-family="Helvetica,sans-Serif" font-size="10.00">Queries.insert.InsertEbayTransactions.set</text>
<text text-anchor="middle" x="643.5" y="-643.5" font-family="Helvetica,sans-Serif" font-size="10.00">Parameters</text>
</a>
</g>
</g>
<!-- Node2&#45;&gt;Node10 -->
<g id="edge18" class="edge"><title>Node2&#45;&gt;Node10</title>
<path fill="none" stroke="midnightblue" d="M178.878,-503.986C184.933,-544.805 205.046,-637.162 266,-676 310.364,-704.267 447.465,-689.543 543.346,-674.673"/>
<polygon fill="midnightblue" stroke="midnightblue" points="182.326,-503.369 177.52,-493.927 175.389,-504.306 182.326,-503.369"/>
</g>
<!-- Node12 -->
<g id="node12" class="node"><title>Node12</title>
<g id="a_node12"><a xlink:href="classtomoBay_1_1model_1_1sql_1_1queries_1_1concreteQueries_1_1insert_1_1InsertOrderInOrderStatus.html#af9020b85517904668d036bc2bf89433c" target="_top" xlink:title="tomoBay.model.sql.queries.concrete\lQueries.insert.InsertOrderInOrderStatus.set\lParameters">
<polygon fill="white" stroke="black" points="279,-625.5 279,-666.5 485,-666.5 485,-625.5 279,-625.5"/>
<text text-anchor="start" x="287" y="-654.5" font-family="Helvetica,sans-Serif" font-size="10.00">tomoBay.model.sql.queries.concrete</text>
<text text-anchor="start" x="287" y="-643.5" font-family="Helvetica,sans-Serif" font-size="10.00">Queries.insert.InsertOrderInOrderStatus.set</text>
<text text-anchor="middle" x="382" y="-632.5" font-family="Helvetica,sans-Serif" font-size="10.00">Parameters</text>
</a>
</g>
</g>
<!-- Node2&#45;&gt;Node12 -->
<g id="edge11" class="edge"><title>Node2&#45;&gt;Node12</title>
<path fill="none" stroke="midnightblue" d="M184.105,-503.333C196.631,-532.587 224.43,-587.776 266,-617 270.464,-620.138 275.236,-622.937 280.204,-625.434"/>
<polygon fill="midnightblue" stroke="midnightblue" points="187.232,-501.736 180.184,-493.826 180.761,-504.405 187.232,-501.736"/>
</g>
<!-- Node13 -->
<g id="node13" class="node"><title>Node13</title>
<g id="a_node13"><a xlink:href="classtomoBay_1_1model_1_1sql_1_1queries_1_1concreteQueries_1_1update_1_1UpdateItemNote.html#af9020b85517904668d036bc2bf89433c" target="_top" xlink:title="tomoBay.model.sql.queries.concrete\lQueries.update.UpdateItemNote.setParameters">
<polygon fill="white" stroke="black" points="270,-577 270,-607 494,-607 494,-577 270,-577"/>
<text text-anchor="start" x="278" y="-595" font-family="Helvetica,sans-Serif" font-size="10.00">tomoBay.model.sql.queries.concrete</text>
<text text-anchor="middle" x="382" y="-584" font-family="Helvetica,sans-Serif" font-size="10.00">Queries.update.UpdateItemNote.setParameters</text>
</a>
</g>
</g>
<!-- Node2&#45;&gt;Node13 -->
<g id="edge13" class="edge"><title>Node2&#45;&gt;Node13</title>
<path fill="none" stroke="midnightblue" d="M190.127,-501.618C206.132,-521.017 234.524,-551.624 266,-568 272.604,-571.436 279.663,-574.38 286.912,-576.902"/>
<polygon fill="midnightblue" stroke="midnightblue" points="192.668,-499.192 183.679,-493.584 187.209,-503.574 192.668,-499.192"/>
</g>
<!-- Node14 -->
<g id="node14" class="node"><title>Node14</title>
<g id="a_node14"><a xlink:href="classtomoBay_1_1model_1_1sql_1_1queries_1_1concreteQueries_1_1update_1_1UpdateItemBrandAndPartNo.html#af9020b85517904668d036bc2bf89433c" target="_top" xlink:title="tomoBay.model.sql.queries.concrete\lQueries.update.UpdateItemBrandAndPart\lNo.setParameters">
<polygon fill="white" stroke="black" points="283.5,-517.5 283.5,-558.5 480.5,-558.5 480.5,-517.5 283.5,-517.5"/>
<text text-anchor="start" x="291.5" y="-546.5" font-family="Helvetica,sans-Serif" font-size="10.00">tomoBay.model.sql.queries.concrete</text>
<text text-anchor="start" x="291.5" y="-535.5" font-family="Helvetica,sans-Serif" font-size="10.00">Queries.update.UpdateItemBrandAndPart</text>
<text text-anchor="middle" x="382" y="-524.5" font-family="Helvetica,sans-Serif" font-size="10.00">No.setParameters</text>
</a>
</g>
</g>
<!-- Node2&#45;&gt;Node14 -->
<g id="edge14" class="edge"><title>Node2&#45;&gt;Node14</title>
<path fill="none" stroke="midnightblue" d="M219.828,-496.341C234.47,-500.448 250.924,-504.994 266,-509 276.447,-511.776 287.446,-514.633 298.331,-517.421"/>
<polygon fill="midnightblue" stroke="midnightblue" points="220.595,-492.921 210.02,-493.58 218.698,-499.659 220.595,-492.921"/>
</g>
<!-- Node15 -->
<g id="node15" class="node"><title>Node15</title>
<g id="a_node15"><a xlink:href="classtomoBay_1_1model_1_1sql_1_1queries_1_1concreteQueries_1_1update_1_1UpdateItemError.html#af9020b85517904668d036bc2bf89433c" target="_top" xlink:title="tomoBay.model.sql.queries.concrete\lQueries.update.UpdateItemError.setParameters">
<polygon fill="white" stroke="black" points="270,-469 270,-499 494,-499 494,-469 270,-469"/>
<text text-anchor="start" x="278" y="-487" font-family="Helvetica,sans-Serif" font-size="10.00">tomoBay.model.sql.queries.concrete</text>
<text text-anchor="middle" x="382" y="-476" font-family="Helvetica,sans-Serif" font-size="10.00">Queries.update.UpdateItemError.setParameters</text>
</a>
</g>
</g>
<!-- Node2&#45;&gt;Node15 -->
<g id="edge16" class="edge"><title>Node2&#45;&gt;Node15</title>
<path fill="none" stroke="midnightblue" d="M240.277,-484C249.739,-484 259.717,-484 269.811,-484"/>
<polygon fill="midnightblue" stroke="midnightblue" points="240.23,-480.5 230.23,-484 240.23,-487.5 240.23,-480.5"/>
</g>
<!-- Node16 -->
<g id="node16" class="node"><title>Node16</title>
<g id="a_node16"><a xlink:href="classtomoBay_1_1model_1_1sql_1_1queries_1_1concreteQueries_1_1update_1_1UpdateEbayBuyer.html#af9020b85517904668d036bc2bf89433c" target="_top" xlink:title="tomoBay.model.sql.queries.concrete\lQueries.update.UpdateEbayBuyer.setParameters">
<polygon fill="white" stroke="black" points="266,-420 266,-450 498,-450 498,-420 266,-420"/>
<text text-anchor="start" x="274" y="-438" font-family="Helvetica,sans-Serif" font-size="10.00">tomoBay.model.sql.queries.concrete</text>
<text text-anchor="middle" x="382" y="-427" font-family="Helvetica,sans-Serif" font-size="10.00">Queries.update.UpdateEbayBuyer.setParameters</text>
</a>
</g>
</g>
<!-- Node2&#45;&gt;Node16 -->
<g id="edge19" class="edge"><title>Node2&#45;&gt;Node16</title>
<path fill="none" stroke="midnightblue" d="M220.151,-471.846C234.696,-467.916 251.011,-463.637 266,-460 279.998,-456.604 295.008,-453.182 309.411,-450.006"/>
<polygon fill="midnightblue" stroke="midnightblue" points="219.132,-468.496 210.401,-474.499 220.97,-475.25 219.132,-468.496"/>
</g>
<!-- Node17 -->
<g id="node17" class="node"><title>Node17</title>
<g id="a_node17"><a xlink:href="classtomoBay_1_1model_1_1sql_1_1queries_1_1concreteQueries_1_1insert_1_1InsertEbayBuyers.html#af9020b85517904668d036bc2bf89433c" target="_top" xlink:title="tomoBay.model.sql.queries.concrete\lQueries.insert.InsertEbayBuyers.set\lParameters">
<polygon fill="white" stroke="black" points="294,-360.5 294,-401.5 470,-401.5 470,-360.5 294,-360.5"/>
<text text-anchor="start" x="302" y="-389.5" font-family="Helvetica,sans-Serif" font-size="10.00">tomoBay.model.sql.queries.concrete</text>
<text text-anchor="start" x="302" y="-378.5" font-family="Helvetica,sans-Serif" font-size="10.00">Queries.insert.InsertEbayBuyers.set</text>
<text text-anchor="middle" x="382" y="-367.5" font-family="Helvetica,sans-Serif" font-size="10.00">Parameters</text>
</a>
</g>
</g>
<!-- Node2&#45;&gt;Node17 -->
<g id="edge20" class="edge"><title>Node2&#45;&gt;Node17</title>
<path fill="none" stroke="midnightblue" d="M192.799,-466.98C209.637,-450.358 237.42,-425.507 266,-411 274.74,-406.564 284.195,-402.741 293.8,-399.457"/>
<polygon fill="midnightblue" stroke="midnightblue" points="190.004,-464.828 185.456,-474.397 194.979,-469.753 190.004,-464.828"/>
</g>
<!-- Node18 -->
<g id="node18" class="node"><title>Node18</title>
<g id="a_node18"><a xlink:href="classtomoBay_1_1model_1_1sql_1_1queries_1_1concreteQueries_1_1select_1_1params_1_1SelectEbayOrderByBuyer.html#af9020b85517904668d036bc2bf89433c" target="_top" xlink:title="tomoBay.model.sql.queries.concrete\lQueries.select.params.SelectEbayOrder\lByBuyer.setParameters">
<polygon fill="white" stroke="black" points="286,-300.5 286,-341.5 478,-341.5 478,-300.5 286,-300.5"/>
<text text-anchor="start" x="294" y="-329.5" font-family="Helvetica,sans-Serif" font-size="10.00">tomoBay.model.sql.queries.concrete</text>
<text text-anchor="start" x="294" y="-318.5" font-family="Helvetica,sans-Serif" font-size="10.00">Queries.select.params.SelectEbayOrder</text>
<text text-anchor="middle" x="382" y="-307.5" font-family="Helvetica,sans-Serif" font-size="10.00">ByBuyer.setParameters</text>
</a>
</g>
</g>
<!-- Node2&#45;&gt;Node18 -->
<g id="edge21" class="edge"><title>Node2&#45;&gt;Node18</title>
<path fill="none" stroke="midnightblue" d="M184.134,-464.708C196.7,-435.511 224.55,-380.393 266,-351 272.143,-346.644 278.873,-342.92 285.896,-339.736"/>
<polygon fill="midnightblue" stroke="midnightblue" points="180.797,-463.619 180.2,-474.197 187.263,-466.3 180.797,-463.619"/>
</g>
<!-- Node19 -->
<g id="node19" class="node"><title>Node19</title>
<g id="a_node19"><a xlink:href="classtomoBay_1_1model_1_1sql_1_1queries_1_1concreteQueries_1_1select_1_1params_1_1SelectTransactionByOrder.html#af9020b85517904668d036bc2bf89433c" target="_top" xlink:title="tomoBay.model.sql.queries.concrete\lQueries.select.params.SelectTransaction\lByOrder.setParameters">
<polygon fill="white" stroke="black" points="283.5,-240.5 283.5,-281.5 480.5,-281.5 480.5,-240.5 283.5,-240.5"/>
<text text-anchor="start" x="291.5" y="-269.5" font-family="Helvetica,sans-Serif" font-size="10.00">tomoBay.model.sql.queries.concrete</text>
<text text-anchor="start" x="291.5" y="-258.5" font-family="Helvetica,sans-Serif" font-size="10.00">Queries.select.params.SelectTransaction</text>
<text text-anchor="middle" x="382" y="-247.5" font-family="Helvetica,sans-Serif" font-size="10.00">ByOrder.setParameters</text>
</a>
</g>
</g>
<!-- Node2&#45;&gt;Node19 -->
<g id="edge22" class="edge"><title>Node2&#45;&gt;Node19</title>
<path fill="none" stroke="midnightblue" d="M179.885,-464.328C187.683,-425.157 210.67,-337.216 266,-291 271.305,-286.569 277.191,-282.784 283.415,-279.551"/>
<polygon fill="midnightblue" stroke="midnightblue" points="176.434,-463.739 178.038,-474.211 183.315,-465.024 176.434,-463.739"/>
</g>
<!-- Node20 -->
<g id="node20" class="node"><title>Node20</title>
<g id="a_node20"><a xlink:href="classtomoBay_1_1model_1_1sql_1_1queries_1_1concreteQueries_1_1select_1_1params_1_1SelectBrandAndPartNoByOrderID.html#af9020b85517904668d036bc2bf89433c" target="_top" xlink:title="tomoBay.model.sql.queries.concrete\lQueries.select.params.SelectBrandAnd\lPartNoByOrderID.setParameters">
<polygon fill="white" stroke="black" points="288,-180.5 288,-221.5 476,-221.5 476,-180.5 288,-180.5"/>
<text text-anchor="start" x="296" y="-209.5" font-family="Helvetica,sans-Serif" font-size="10.00">tomoBay.model.sql.queries.concrete</text>
<text text-anchor="start" x="296" y="-198.5" font-family="Helvetica,sans-Serif" font-size="10.00">Queries.select.params.SelectBrandAnd</text>
<text text-anchor="middle" x="382" y="-187.5" font-family="Helvetica,sans-Serif" font-size="10.00">PartNoByOrderID.setParameters</text>
</a>
</g>
</g>
<!-- Node2&#45;&gt;Node20 -->
<g id="edge23" class="edge"><title>Node2&#45;&gt;Node20</title>
<path fill="none" stroke="midnightblue" d="M177.475,-464.03C180.915,-416.316 196.422,-294.913 266,-231 272.458,-225.068 279.941,-220.278 287.932,-216.416"/>
<polygon fill="midnightblue" stroke="midnightblue" points="173.966,-464.06 176.846,-474.256 180.953,-464.49 173.966,-464.06"/>
</g>
<!-- Node21 -->
<g id="node21" class="node"><title>Node21</title>
<g id="a_node21"><a xlink:href="classtomoBay_1_1model_1_1sql_1_1queries_1_1concreteQueries_1_1select_1_1params_1_1SelectEbayOrderByID.html#af9020b85517904668d036bc2bf89433c" target="_top" xlink:title="tomoBay.model.sql.queries.concrete\lQueries.select.params.SelectEbayOrder\lByID.setParameters">
<polygon fill="white" stroke="black" points="286,-120.5 286,-161.5 478,-161.5 478,-120.5 286,-120.5"/>
<text text-anchor="start" x="294" y="-149.5" font-family="Helvetica,sans-Serif" font-size="10.00">tomoBay.model.sql.queries.concrete</text>
<text text-anchor="start" x="294" y="-138.5" font-family="Helvetica,sans-Serif" font-size="10.00">Queries.select.params.SelectEbayOrder</text>
<text text-anchor="middle" x="382" y="-127.5" font-family="Helvetica,sans-Serif" font-size="10.00">ByID.setParameters</text>
</a>
</g>
</g>
<!-- Node2&#45;&gt;Node21 -->
<g id="edge24" class="edge"><title>Node2&#45;&gt;Node21</title>
<path fill="none" stroke="midnightblue" d="M175.896,-464.301C175.342,-409.419 181.644,-253.411 266,-171 271.83,-165.305 278.599,-160.652 285.878,-156.857"/>
<polygon fill="midnightblue" stroke="midnightblue" points="172.399,-464.485 176.092,-474.415 179.397,-464.349 172.399,-464.485"/>
</g>
<!-- Node22 -->
<g id="node22" class="node"><title>Node22</title>
<g id="a_node22"><a xlink:href="classtomoBay_1_1model_1_1sql_1_1queries_1_1concreteQueries_1_1select_1_1params_1_1SelectEbayBuyer.html#af9020b85517904668d036bc2bf89433c" target="_top" xlink:title="tomoBay.model.sql.queries.concrete\lQueries.select.params.SelectEbayBuyer.set\lParameters">
<polygon fill="white" stroke="black" points="277,-60.5 277,-101.5 487,-101.5 487,-60.5 277,-60.5"/>
<text text-anchor="start" x="285" y="-89.5" font-family="Helvetica,sans-Serif" font-size="10.00">tomoBay.model.sql.queries.concrete</text>
<text text-anchor="start" x="285" y="-78.5" font-family="Helvetica,sans-Serif" font-size="10.00">Queries.select.params.SelectEbayBuyer.set</text>
<text text-anchor="middle" x="382" y="-67.5" font-family="Helvetica,sans-Serif" font-size="10.00">Parameters</text>
</a>
</g>
</g>
<!-- Node2&#45;&gt;Node22 -->
<g id="edge25" class="edge"><title>Node2&#45;&gt;Node22</title>
<path fill="none" stroke="midnightblue" d="M178.585,-464.186C186.3,-394.565 215.431,-162.575 266,-111 269.467,-107.464 273.295,-104.327 277.385,-101.546"/>
<polygon fill="midnightblue" stroke="midnightblue" points="175.092,-463.926 177.495,-474.245 182.052,-464.68 175.092,-463.926"/>
</g>
<!-- Node23 -->
<g id="node23" class="node"><title>Node23</title>
<g id="a_node23"><a xlink:href="classtomoBay_1_1model_1_1sql_1_1queries_1_1concreteQueries_1_1select_1_1params_1_1SelectFullOrderLine.html#af9020b85517904668d036bc2bf89433c" target="_top" xlink:title="tomoBay.model.sql.queries.concrete\lQueries.select.params.SelectFullOrder\lLine.setParameters">
<polygon fill="white" stroke="black" points="289.5,-0.5 289.5,-41.5 474.5,-41.5 474.5,-0.5 289.5,-0.5"/>
<text text-anchor="start" x="297.5" y="-29.5" font-family="Helvetica,sans-Serif" font-size="10.00">tomoBay.model.sql.queries.concrete</text>
<text text-anchor="start" x="297.5" y="-18.5" font-family="Helvetica,sans-Serif" font-size="10.00">Queries.select.params.SelectFullOrder</text>
<text text-anchor="middle" x="382" y="-7.5" font-family="Helvetica,sans-Serif" font-size="10.00">Line.setParameters</text>
</a>
</g>
</g>
<!-- Node2&#45;&gt;Node23 -->
<g id="edge26" class="edge"><title>Node2&#45;&gt;Node23</title>
<path fill="none" stroke="midnightblue" d="M177.884,-464.06C183.608,-387.3 207.919,-112.143 266,-51 272.608,-44.0437 280.61,-38.6247 289.281,-34.414"/>
<polygon fill="midnightblue" stroke="midnightblue" points="174.377,-464.031 177.147,-474.257 181.358,-464.536 174.377,-464.031"/>
</g>
<!-- Node4 -->
<g id="node4" class="node"><title>Node4</title>
<g id="a_node4"><a xlink:href="classtomoBay_1_1model_1_1sql_1_1framework_1_1QueryUtility.html#a2da2ce60a8a037d55bdc69309db4815b" target="_top" xlink:title="private ctor ensures that this class is never instantiated ">
<polygon fill="white" stroke="black" points="609.5,-984.5 609.5,-1003.5 677.5,-1003.5 677.5,-984.5 609.5,-984.5"/>
<text text-anchor="middle" x="643.5" y="-991.5" font-family="Helvetica,sans-Serif" font-size="10.00">QueryUtility</text>
</a>
</g>
</g>
<!-- Node3&#45;&gt;Node4 -->
<g id="edge3" class="edge"><title>Node3&#45;&gt;Node4</title>
<path fill="none" stroke="midnightblue" d="M400.001,-841.807C422.463,-864.024 463.249,-904.401 498,-939 514.035,-954.965 513.923,-964.564 534,-975 557.246,-987.084 586.685,-991.676 609.031,-993.333"/>
<polygon fill="midnightblue" stroke="midnightblue" points="402.431,-839.288 392.86,-834.745 397.509,-844.265 402.431,-839.288"/>
</g>
<!-- Node5 -->
<g id="node5" class="node"><title>Node5</title>
<g id="a_node5"><a xlink:href="classtomoBay_1_1model_1_1sql_1_1queries_1_1concreteQueries_1_1update_1_1UpdateInvoiceStatusSRN.html#af9020b85517904668d036bc2bf89433c" target="_top" xlink:title="tomoBay.model.sql.queries.concrete\lQueries.update.UpdateInvoiceStatusSRN.set\lParameters">
<polygon fill="white" stroke="black" points="536,-924.5 536,-965.5 751,-965.5 751,-924.5 536,-924.5"/>
<text text-anchor="start" x="544" y="-953.5" font-family="Helvetica,sans-Serif" font-size="10.00">tomoBay.model.sql.queries.concrete</text>
<text text-anchor="start" x="544" y="-942.5" font-family="Helvetica,sans-Serif" font-size="10.00">Queries.update.UpdateInvoiceStatusSRN.set</text>
<text text-anchor="middle" x="643.5" y="-931.5" font-family="Helvetica,sans-Serif" font-size="10.00">Parameters</text>
</a>
</g>
</g>
<!-- Node3&#45;&gt;Node5 -->
<g id="edge4" class="edge"><title>Node3&#45;&gt;Node5</title>
<path fill="none" stroke="midnightblue" d="M404.89,-840.622C433.407,-860.355 485.375,-894.234 534,-915 542.088,-918.454 550.685,-921.621 559.362,-924.495"/>
<polygon fill="midnightblue" stroke="midnightblue" points="406.691,-837.61 396.49,-834.747 402.679,-843.347 406.691,-837.61"/>
</g>
<!-- Node3&#45;&gt;Node6 -->
<g id="edge5" class="edge"><title>Node3&#45;&gt;Node6</title>
<path fill="none" stroke="midnightblue" d="M403.036,-841.157C427.74,-861.846 469.896,-899.739 498,-939 519.289,-968.74 505.883,-989.61 534,-1013 538.282,-1016.56 542.955,-1019.7 547.88,-1022.47"/>
<polygon fill="midnightblue" stroke="midnightblue" points="405.017,-838.254 395.078,-834.583 400.558,-843.65 405.017,-838.254"/>
</g>
<!-- Node7 -->
<g id="node7" class="node"><title>Node7</title>
<g id="a_node7"><a xlink:href="classtomoBay_1_1model_1_1sql_1_1queries_1_1concreteQueries_1_1insert_1_1InsertOutOfHoursOrders.html#af9020b85517904668d036bc2bf89433c" target="_top" xlink:title="tomoBay.model.sql.queries.concrete\lQueries.insert.InsertOutOfHoursOrders.set\lParameters">
<polygon fill="white" stroke="black" points="542,-864.5 542,-905.5 745,-905.5 745,-864.5 542,-864.5"/>
<text text-anchor="start" x="550" y="-893.5" font-family="Helvetica,sans-Serif" font-size="10.00">tomoBay.model.sql.queries.concrete</text>
<text text-anchor="start" x="550" y="-882.5" font-family="Helvetica,sans-Serif" font-size="10.00">Queries.insert.InsertOutOfHoursOrders.set</text>
<text text-anchor="middle" x="643.5" y="-871.5" font-family="Helvetica,sans-Serif" font-size="10.00">Parameters</text>
</a>
</g>
</g>
<!-- Node3&#45;&gt;Node7 -->
<g id="edge6" class="edge"><title>Node3&#45;&gt;Node7</title>
<path fill="none" stroke="midnightblue" d="M434.295,-836.86C468.339,-844.732 513.922,-855.271 553.758,-864.482"/>
<polygon fill="midnightblue" stroke="midnightblue" points="434.65,-833.35 424.119,-834.507 433.073,-840.17 434.65,-833.35"/>
</g>
<!-- Node3&#45;&gt;Node8 -->
<g id="edge7" class="edge"><title>Node3&#45;&gt;Node8</title>
<path fill="none" stroke="midnightblue" d="M438.772,-813.394C477.209,-805.396 528.654,-794.691 570.23,-786.039"/>
<polygon fill="midnightblue" stroke="midnightblue" points="437.873,-810.006 428.796,-815.47 439.299,-816.859 437.873,-810.006"/>
</g>
<!-- Node3&#45;&gt;Node9 -->
<g id="edge8" class="edge"><title>Node3&#45;&gt;Node9</title>
<path fill="none" stroke="midnightblue" d="M407.514,-810.319C436.792,-793.266 487.64,-765.156 534,-747 542.644,-743.615 551.816,-740.453 561.021,-737.548"/>
<polygon fill="midnightblue" stroke="midnightblue" points="405.647,-807.356 398.799,-815.44 409.193,-813.391 405.647,-807.356"/>
</g>
<!-- Node3&#45;&gt;Node10 -->
<g id="edge9" class="edge"><title>Node3&#45;&gt;Node10</title>
<path fill="none" stroke="midnightblue" d="M397.134,-807.563C421.816,-778.268 475.729,-719.221 534,-687 540.414,-683.454 547.276,-680.302 554.319,-677.507"/>
<polygon fill="midnightblue" stroke="midnightblue" points="394.395,-805.384 390.704,-815.315 399.782,-809.853 394.395,-805.384"/>
</g>
<!-- Node11 -->
<g id="node11" class="node"><title>Node11</title>
<g id="a_node11"><a xlink:href="classtomoBay_1_1model_1_1sql_1_1queries_1_1concreteQueries_1_1select_1_1params_1_1SelectBrandByInv.html#af9020b85517904668d036bc2bf89433c" target="_top" xlink:title="tomoBay.model.sql.queries.concrete\lQueries.select.params.SelectBrandBy\lInv.setParameters">
<polygon fill="white" stroke="black" points="552,-804.5 552,-845.5 735,-845.5 735,-804.5 552,-804.5"/>
<text text-anchor="start" x="560" y="-833.5" font-family="Helvetica,sans-Serif" font-size="10.00">tomoBay.model.sql.queries.concrete</text>
<text text-anchor="start" x="560" y="-822.5" font-family="Helvetica,sans-Serif" font-size="10.00">Queries.select.params.SelectBrandBy</text>
<text text-anchor="middle" x="643.5" y="-811.5" font-family="Helvetica,sans-Serif" font-size="10.00">Inv.setParameters</text>
</a>
</g>
</g>
<!-- Node3&#45;&gt;Node11 -->
<g id="edge10" class="edge"><title>Node3&#45;&gt;Node11</title>
<path fill="none" stroke="midnightblue" d="M444.397,-825C476.484,-825 516.377,-825 551.936,-825"/>
<polygon fill="midnightblue" stroke="midnightblue" points="444.269,-821.5 434.269,-825 444.269,-828.5 444.269,-821.5"/>
</g>
</g>
</svg>
