<?xml version="1.0" encoding="UTF-8" standalone="no"?>
<!DOCTYPE svg PUBLIC "-//W3C//DTD SVG 1.1//EN"
 "http://www.w3.org/Graphics/SVG/1.1/DTD/svg11.dtd">
<!-- Generated by graphviz version 2.38.0 (20140413.2041)
 -->
<!-- Title: setBIGINTParam Pages: 1 -->
<!--zoomable 929 -->
<svg id="main" version="1.1" xmlns="http://www.w3.org/2000/svg" xmlns:xlink="http://www.w3.org/1999/xlink" xml:space="preserve" onload="init(evt)">
<style type="text/css"><![CDATA[
.edge:hover path { stroke: red; }
.edge:hover polygon { stroke: red; fill: red; }
]]></style>
<script type="text/javascript"><![CDATA[
var edges = document.getElementsByTagName('g');
if (edges && edges.length) {
  for (var i=0;i<edges.length;i++) {
    if (edges[i].id.substr(0,4)=='edge') {
      edges[i].setAttribute('class','edge');
    }
  }
}
]]></script>
        <defs>
                <circle id="rim" cx="0" cy="0" r="7"/>
                <circle id="rim2" cx="0" cy="0" r="3.5"/>
                <g id="zoomPlus">
                        <use xlink:href="#rim" fill="#404040">
                                <set attributeName="fill" to="#808080" begin="zoomplus.mouseover" end="zoomplus.mouseout"/>
                        </use>
                        <path d="M-4,0h8M0,-4v8" fill="none" stroke="white" stroke-width="1.5" pointer-events="none"/>
                </g>
                <g id="zoomMin">
                        <use xlink:href="#rim" fill="#404040">
                                <set attributeName="fill" to="#808080" begin="zoomminus.mouseover" end="zoomminus.mouseout"/>
                        </use>
                        <path d="M-4,0h8" fill="none" stroke="white" stroke-width="1.5" pointer-events="none"/>
                </g>
                <g id="dirArrow">
                        <path fill="none" stroke="white" stroke-width="1.5" d="M0,-3.0v7 M-2.5,-0.5L0,-3.0L2.5,-0.5"/>
                </g>
               <g id="resetDef">
                       <use xlink:href="#rim2" fill="#404040">
                               <set attributeName="fill" to="#808080" begin="reset.mouseover" end="reset.mouseout"/>
                       </use>
               </g>
        </defs>

<script type="text/javascript">
var viewWidth = 1023;
var viewHeight = 929;
var sectionId = 'dynsection-9';
</script>
<script xlink:href="svgpan.js"/>
<svg id="graph" class="graph">
<g id="viewport">
<title>setBIGINTParam</title>
<polygon fill="white" stroke="none" points="-4,4 -4,-924.914 1019,-924.914 1019,4 -4,4"/>
<!-- Node1 -->
<g id="node1" class="node"><title>Node1</title>
<polygon fill="#bfbfbf" stroke="black" points="0,-242 0,-261 92,-261 92,-242 0,-242"/>
<text text-anchor="middle" x="46" y="-249" font-family="Helvetica,sans-Serif" font-size="10.00">setBIGINTParam</text>
</g>
<!-- Node2 -->
<g id="node2" class="node"><title>Node2</title>
<g id="a_node2"><a xlink:href="classtomoBay_1_1model_1_1sql_1_1framework_1_1QueryUtility.html#a50955d4f51a1a7a88ef0c8aadbe9c793" target="_top" xlink:title="set an Integer parameter for the query object specified. ">
<polygon fill="white" stroke="black" points="195,-373 195,-392 280,-392 280,-373 195,-373"/>
<text text-anchor="middle" x="237.5" y="-380" font-family="Helvetica,sans-Serif" font-size="10.00">setBYTEParam</text>
</a>
</g>
</g>
<!-- Node1&#45;&gt;Node2 -->
<g id="edge1" class="edge"><title>Node1&#45;&gt;Node2</title>
<path fill="none" stroke="midnightblue" d="M69.624,-267.14C109.25,-294.533 190.081,-350.411 222.545,-372.853"/>
<polygon fill="midnightblue" stroke="midnightblue" points="71.1505,-263.94 60.9344,-261.133 67.17,-269.698 71.1505,-263.94"/>
</g>
<!-- Node10 -->
<g id="node10" class="node"><title>Node10</title>
<g id="a_node10"><a xlink:href="classtomoBay_1_1model_1_1sql_1_1queries_1_1concreteQueries_1_1insert_1_1InsertEbayItems.html#af9020b85517904668d036bc2bf89433c" target="_top" xlink:title="tomoBay.model.sql.queries.concrete\lQueries.insert.InsertEbayItems.setParameters">
<polygon fill="white" stroke="black" points="796,-885.5 796,-915.5 1015,-915.5 1015,-885.5 796,-885.5"/>
<text text-anchor="start" x="804" y="-903.5" font-family="Helvetica,sans-Serif" font-size="10.00">tomoBay.model.sql.queries.concrete</text>
<text text-anchor="middle" x="905.5" y="-892.5" font-family="Helvetica,sans-Serif" font-size="10.00">Queries.insert.InsertEbayItems.setParameters</text>
</a>
</g>
</g>
<!-- Node1&#45;&gt;Node10 -->
<g id="edge33" class="edge"><title>Node1&#45;&gt;Node10</title>
<path fill="none" stroke="midnightblue" d="M47.5795,-271.286C50.0104,-326.073 62.6234,-482.813 128,-590.5 205.829,-718.698 258.172,-728.374 383,-811.5 442.888,-851.381 458.339,-865.489 528,-883.5 616.054,-906.266 719.485,-909.321 795.634,-907.359"/>
<polygon fill="midnightblue" stroke="midnightblue" points="51.0735,-271.058 47.2,-261.197 44.0785,-271.321 51.0735,-271.058"/>
</g>
<!-- Node12 -->
<g id="node12" class="node"><title>Node12</title>
<g id="a_node12"><a xlink:href="classtomoBay_1_1model_1_1sql_1_1queries_1_1concreteQueries_1_1insert_1_1InsertEbayTransactions.html#af9020b85517904668d036bc2bf89433c" target="_top" xlink:title="tomoBay.model.sql.queries.concrete\lQueries.insert.InsertEbayTransactions.set\lParameters">
<polygon fill="white" stroke="black" points="805.5,-826 805.5,-867 1005.5,-867 1005.5,-826 805.5,-826"/>
<text text-anchor="start" x="813.5" y="-855" font-family="Helvetica,sans-Serif" font-size="10.00">tomoBay.model.sql.queries.concrete</text>
<text text-anchor="start" x="813.5" y="-844" font-family="Helvetica,sans-Serif" font-size="10.00">Queries.insert.InsertEbayTransactions.set</text>
<text text-anchor="middle" x="905.5" y="-833" font-family="Helvetica,sans-Serif" font-size="10.00">Parameters</text>
</a>
</g>
</g>
<!-- Node1&#45;&gt;Node12 -->
<g id="edge35" class="edge"><title>Node1&#45;&gt;Node12</title>
<path fill="none" stroke="midnightblue" d="M54.4264,-270.63C90.073,-359.32 253.302,-731.417 528,-855.5 624.232,-898.969 748.887,-884.01 827.804,-867.043"/>
<polygon fill="midnightblue" stroke="midnightblue" points="57.6496,-269.263 50.7128,-261.254 51.1416,-271.841 57.6496,-269.263"/>
</g>
<!-- Node16 -->
<g id="node16" class="node"><title>Node16</title>
<g id="a_node16"><a xlink:href="classtomoBay_1_1model_1_1sql_1_1queries_1_1concreteQueries_1_1update_1_1UpdateItemNote.html#af9020b85517904668d036bc2bf89433c" target="_top" xlink:title="tomoBay.model.sql.queries.concrete\lQueries.update.UpdateItemNote.setParameters">
<polygon fill="white" stroke="black" points="532,-108.5 532,-138.5 756,-138.5 756,-108.5 532,-108.5"/>
<text text-anchor="start" x="540" y="-126.5" font-family="Helvetica,sans-Serif" font-size="10.00">tomoBay.model.sql.queries.concrete</text>
<text text-anchor="middle" x="644" y="-115.5" font-family="Helvetica,sans-Serif" font-size="10.00">Queries.update.UpdateItemNote.setParameters</text>
</a>
</g>
</g>
<!-- Node1&#45;&gt;Node16 -->
<g id="edge31" class="edge"><title>Node1&#45;&gt;Node16</title>
<path fill="none" stroke="midnightblue" d="M84.4655,-264.018C166.861,-289.026 366.444,-335.498 492,-246.5 530.196,-219.425 492.613,-178.156 528,-147.5 531.931,-144.095 536.22,-141.13 540.756,-138.551"/>
<polygon fill="midnightblue" stroke="midnightblue" points="85.3692,-260.634 74.7811,-261.012 83.2942,-267.319 85.3692,-260.634"/>
</g>
<!-- Node17 -->
<g id="node17" class="node"><title>Node17</title>
<g id="a_node17"><a xlink:href="classtomoBay_1_1model_1_1sql_1_1queries_1_1concreteQueries_1_1update_1_1UpdateItemBrandAndPartNo.html#af9020b85517904668d036bc2bf89433c" target="_top" xlink:title="tomoBay.model.sql.queries.concrete\lQueries.update.UpdateItemBrandAndPart\lNo.setParameters">
<polygon fill="white" stroke="black" points="545.5,-49 545.5,-90 742.5,-90 742.5,-49 545.5,-49"/>
<text text-anchor="start" x="553.5" y="-78" font-family="Helvetica,sans-Serif" font-size="10.00">tomoBay.model.sql.queries.concrete</text>
<text text-anchor="start" x="553.5" y="-67" font-family="Helvetica,sans-Serif" font-size="10.00">Queries.update.UpdateItemBrandAndPart</text>
<text text-anchor="middle" x="644" y="-56" font-family="Helvetica,sans-Serif" font-size="10.00">No.setParameters</text>
</a>
</g>
</g>
<!-- Node1&#45;&gt;Node17 -->
<g id="edge32" class="edge"><title>Node1&#45;&gt;Node17</title>
<path fill="none" stroke="midnightblue" d="M102.248,-253.423C207.864,-255.956 433.166,-255.502 492,-208.5 531.86,-176.656 490.792,-134.406 528,-99.5 533.192,-94.6296 539.072,-90.527 545.363,-87.0738"/>
<polygon fill="midnightblue" stroke="midnightblue" points="102.192,-249.92 92.1054,-253.161 102.012,-256.918 102.192,-249.92"/>
</g>
<!-- Node18 -->
<g id="node18" class="node"><title>Node18</title>
<g id="a_node18"><a xlink:href="classtomoBay_1_1model_1_1sql_1_1queries_1_1concreteQueries_1_1update_1_1UpdateItemError.html#af9020b85517904668d036bc2bf89433c" target="_top" xlink:title="tomoBay.model.sql.queries.concrete\lQueries.update.UpdateItemError.setParameters">
<polygon fill="white" stroke="black" points="532,-0.5 532,-30.5 756,-30.5 756,-0.5 532,-0.5"/>
<text text-anchor="start" x="540" y="-18.5" font-family="Helvetica,sans-Serif" font-size="10.00">tomoBay.model.sql.queries.concrete</text>
<text text-anchor="middle" x="644" y="-7.5" font-family="Helvetica,sans-Serif" font-size="10.00">Queries.update.UpdateItemError.setParameters</text>
</a>
</g>
</g>
<!-- Node1&#45;&gt;Node18 -->
<g id="edge34" class="edge"><title>Node1&#45;&gt;Node18</title>
<path fill="none" stroke="midnightblue" d="M102.059,-244.24C163.986,-234.582 266.426,-214.05 347,-175.5 437.769,-132.073 436.332,-80.9945 528,-39.5 535.618,-36.0516 543.746,-33.0922 552.024,-30.5536"/>
<polygon fill="midnightblue" stroke="midnightblue" points="101.465,-240.79 92.1043,-245.753 102.517,-247.711 101.465,-240.79"/>
</g>
<!-- Node27 -->
<g id="node27" class="node"><title>Node27</title>
<g id="a_node27"><a xlink:href="classtomoBay_1_1model_1_1sql_1_1queries_1_1concreteQueries_1_1select_1_1params_1_1SelectEbayTransactionByID.html#af9020b85517904668d036bc2bf89433c" target="_top" xlink:title="tomoBay.model.sql.queries.concrete\lQueries.select.params.SelectEbayTransaction\lByID.setParameters">
<polygon fill="white" stroke="black" points="128,-125 128,-166 347,-166 347,-125 128,-125"/>
<text text-anchor="start" x="136" y="-154" font-family="Helvetica,sans-Serif" font-size="10.00">tomoBay.model.sql.queries.concrete</text>
<text text-anchor="start" x="136" y="-143" font-family="Helvetica,sans-Serif" font-size="10.00">Queries.select.params.SelectEbayTransaction</text>
<text text-anchor="middle" x="237.5" y="-132" font-family="Helvetica,sans-Serif" font-size="10.00">ByID.setParameters</text>
</a>
</g>
</g>
<!-- Node1&#45;&gt;Node27 -->
<g id="edge36" class="edge"><title>Node1&#45;&gt;Node27</title>
<path fill="none" stroke="midnightblue" d="M62.6052,-234.26C77.8806,-218.312 102.512,-194.954 128,-180.5 137.728,-174.984 148.446,-170.197 159.245,-166.088"/>
<polygon fill="midnightblue" stroke="midnightblue" points="59.7914,-232.145 55.515,-241.838 64.903,-236.927 59.7914,-232.145"/>
</g>
<!-- Node28 -->
<g id="node28" class="node"><title>Node28</title>
<g id="a_node28"><a xlink:href="classtomoBay_1_1model_1_1sql_1_1queries_1_1concreteQueries_1_1select_1_1params_1_1SelectEbayItemSpecific.html#af9020b85517904668d036bc2bf89433c" target="_top" xlink:title="tomoBay.model.sql.queries.concrete\lQueries.select.params.SelectEbayItem\lSpecific.setParameters">
<polygon fill="white" stroke="black" points="143.5,-65 143.5,-106 331.5,-106 331.5,-65 143.5,-65"/>
<text text-anchor="start" x="151.5" y="-94" font-family="Helvetica,sans-Serif" font-size="10.00">tomoBay.model.sql.queries.concrete</text>
<text text-anchor="start" x="151.5" y="-83" font-family="Helvetica,sans-Serif" font-size="10.00">Queries.select.params.SelectEbayItem</text>
<text text-anchor="middle" x="237.5" y="-72" font-family="Helvetica,sans-Serif" font-size="10.00">Specific.setParameters</text>
</a>
</g>
</g>
<!-- Node1&#45;&gt;Node28 -->
<g id="edge37" class="edge"><title>Node1&#45;&gt;Node28</title>
<path fill="none" stroke="midnightblue" d="M53.1682,-232.299C63.6813,-202.682 87.913,-146.081 128,-115.5 132.739,-111.885 137.889,-108.705 143.285,-105.908"/>
<polygon fill="midnightblue" stroke="midnightblue" points="49.8121,-231.298 49.9117,-241.892 56.4406,-233.548 49.8121,-231.298"/>
</g>
<!-- Node3 -->
<g id="node3" class="node"><title>Node3</title>
<g id="a_node3"><a xlink:href="classtomoBay_1_1model_1_1sql_1_1framework_1_1QueryUtility.html#a3249b16421a9902f2248cb86d4dd3be3" target="_top" xlink:title="set an Integer parameter for the query object specified. ">
<polygon fill="white" stroke="black" points="383,-446 383,-465 492,-465 492,-446 383,-446"/>
<text text-anchor="middle" x="437.5" y="-453" font-family="Helvetica,sans-Serif" font-size="10.00">setVARCHARParam</text>
</a>
</g>
</g>
<!-- Node2&#45;&gt;Node3 -->
<g id="edge2" class="edge"><title>Node2&#45;&gt;Node3</title>
<path fill="none" stroke="midnightblue" d="M273.841,-395.53C313.123,-410.012 375.623,-433.056 410.609,-445.954"/>
<polygon fill="midnightblue" stroke="midnightblue" points="274.978,-392.219 264.385,-392.043 272.557,-398.787 274.978,-392.219"/>
</g>
<!-- Node4 -->
<g id="node4" class="node"><title>Node4</title>
<g id="a_node4"><a xlink:href="classtomoBay_1_1model_1_1sql_1_1framework_1_1QueryUtility.html#aca3b74b8ac7e194a86c0b896a674e2f2" target="_top" xlink:title="set an Integer parameter for the query object specified. ">
<polygon fill="white" stroke="black" points="592,-641 592,-660 696,-660 696,-641 592,-641"/>
<text text-anchor="middle" x="644" y="-648" font-family="Helvetica,sans-Serif" font-size="10.00">setINTEGERParam</text>
</a>
</g>
</g>
<!-- Node3&#45;&gt;Node4 -->
<g id="edge3" class="edge"><title>Node3&#45;&gt;Node4</title>
<path fill="none" stroke="midnightblue" d="M442.843,-474.875C451.961,-510.817 476.641,-587.685 528,-626.5 546.142,-640.211 570.297,-646.532 591.784,-649.298"/>
<polygon fill="midnightblue" stroke="midnightblue" points="446.239,-474.028 440.5,-465.122 439.433,-475.663 446.239,-474.028"/>
</g>
<!-- Node7 -->
<g id="node7" class="node"><title>Node7</title>
<g id="a_node7"><a xlink:href="classtomoBay_1_1model_1_1sql_1_1queries_1_1concreteQueries_1_1update_1_1UpdateInvoiceStatus.html#af9020b85517904668d036bc2bf89433c" target="_top" xlink:title="tomoBay.model.sql.queries.concrete\lQueries.update.UpdateInvoiceStatus.set\lParameters">
<polygon fill="white" stroke="black" points="808.5,-766 808.5,-807 1002.5,-807 1002.5,-766 808.5,-766"/>
<text text-anchor="start" x="816.5" y="-795" font-family="Helvetica,sans-Serif" font-size="10.00">tomoBay.model.sql.queries.concrete</text>
<text text-anchor="start" x="816.5" y="-784" font-family="Helvetica,sans-Serif" font-size="10.00">Queries.update.UpdateInvoiceStatus.set</text>
<text text-anchor="middle" x="905.5" y="-773" font-family="Helvetica,sans-Serif" font-size="10.00">Parameters</text>
</a>
</g>
</g>
<!-- Node3&#45;&gt;Node7 -->
<g id="edge15" class="edge"><title>Node3&#45;&gt;Node7</title>
<path fill="none" stroke="midnightblue" d="M440.466,-475.087C445.875,-517.864 465.048,-619.778 528,-669.5 609.994,-734.262 670.911,-652.909 760,-707.5 783.042,-721.619 773.749,-741.164 796,-756.5 801.149,-760.049 806.707,-763.18 812.49,-765.941"/>
<polygon fill="midnightblue" stroke="midnightblue" points="443.939,-474.652 439.324,-465.115 436.984,-475.449 443.939,-474.652"/>
</g>
<!-- Node3&#45;&gt;Node10 -->
<g id="edge20" class="edge"><title>Node3&#45;&gt;Node10</title>
<path fill="none" stroke="midnightblue" d="M440,-475.561C445.941,-549.252 470.365,-803.419 528,-855.5 607.492,-927.331 738.08,-926.017 822.669,-915.53"/>
<polygon fill="midnightblue" stroke="midnightblue" points="443.47,-475.04 439.203,-465.342 436.491,-475.584 443.47,-475.04"/>
</g>
<!-- Node11 -->
<g id="node11" class="node"><title>Node11</title>
<g id="a_node11"><a xlink:href="classtomoBay_1_1model_1_1sql_1_1queries_1_1concreteQueries_1_1insert_1_1InsertEbayOrders.html#af9020b85517904668d036bc2bf89433c" target="_top" xlink:title="tomoBay.model.sql.queries.concrete\lQueries.insert.InsertEbayOrders.set\lParameters">
<polygon fill="white" stroke="black" points="817.5,-428 817.5,-469 993.5,-469 993.5,-428 817.5,-428"/>
<text text-anchor="start" x="825.5" y="-457" font-family="Helvetica,sans-Serif" font-size="10.00">tomoBay.model.sql.queries.concrete</text>
<text text-anchor="start" x="825.5" y="-446" font-family="Helvetica,sans-Serif" font-size="10.00">Queries.insert.InsertEbayOrders.set</text>
<text text-anchor="middle" x="905.5" y="-435" font-family="Helvetica,sans-Serif" font-size="10.00">Parameters</text>
</a>
</g>
</g>
<!-- Node3&#45;&gt;Node11 -->
<g id="edge19" class="edge"><title>Node3&#45;&gt;Node11</title>
<path fill="none" stroke="midnightblue" d="M444.437,-475.092C455.214,-506.742 481.315,-568.134 528,-593.5 573.3,-618.114 718.455,-624.028 760,-593.5 803.158,-561.787 757.498,-515.729 796,-478.5 802.252,-472.455 809.609,-467.604 817.498,-463.717"/>
<polygon fill="midnightblue" stroke="midnightblue" points="447.66,-473.684 441.255,-465.245 440.999,-475.836 447.66,-473.684"/>
</g>
<!-- Node3&#45;&gt;Node12 -->
<g id="edge21" class="edge"><title>Node3&#45;&gt;Node12</title>
<path fill="none" stroke="midnightblue" d="M440.201,-475.18C446.698,-545.326 472.43,-781.397 528,-827.5 568.673,-861.245 707.869,-859.975 805.093,-854.439"/>
<polygon fill="midnightblue" stroke="midnightblue" points="443.673,-474.715 439.293,-465.069 436.701,-475.342 443.673,-474.715"/>
</g>
<!-- Node13 -->
<g id="node13" class="node"><title>Node13</title>
<g id="a_node13"><a xlink:href="classtomoBay_1_1model_1_1sql_1_1queries_1_1concreteQueries_1_1select_1_1params_1_1SelectBuyerByAccAndSRN.html#af9020b85517904668d036bc2bf89433c" target="_top" xlink:title="tomoBay.model.sql.queries.concrete\lQueries.select.params.SelectBuyerBy\lAccAndSRN.setParameters">
<polygon fill="white" stroke="black" points="814,-347 814,-388 997,-388 997,-347 814,-347"/>
<text text-anchor="start" x="822" y="-376" font-family="Helvetica,sans-Serif" font-size="10.00">tomoBay.model.sql.queries.concrete</text>
<text text-anchor="start" x="822" y="-365" font-family="Helvetica,sans-Serif" font-size="10.00">Queries.select.params.SelectBuyerBy</text>
<text text-anchor="middle" x="905.5" y="-354" font-family="Helvetica,sans-Serif" font-size="10.00">AccAndSRN.setParameters</text>
</a>
</g>
</g>
<!-- Node3&#45;&gt;Node13 -->
<g id="edge23" class="edge"><title>Node3&#45;&gt;Node13</title>
<path fill="none" stroke="midnightblue" d="M449.911,-437.299C464.797,-415.471 493.105,-380.011 528,-365.5 619.74,-327.35 735.269,-335.209 813.997,-347.889"/>
<polygon fill="midnightblue" stroke="midnightblue" points="446.944,-435.441 444.373,-445.719 452.792,-439.288 446.944,-435.441"/>
</g>
<!-- Node15 -->
<g id="node15" class="node"><title>Node15</title>
<g id="a_node15"><a xlink:href="classtomoBay_1_1model_1_1sql_1_1queries_1_1concreteQueries_1_1insert_1_1InsertOrderInOrderStatus.html#af9020b85517904668d036bc2bf89433c" target="_top" xlink:title="tomoBay.model.sql.queries.concrete\lQueries.insert.InsertOrderInOrderStatus.set\lParameters">
<polygon fill="white" stroke="black" points="541,-543 541,-584 747,-584 747,-543 541,-543"/>
<text text-anchor="start" x="549" y="-572" font-family="Helvetica,sans-Serif" font-size="10.00">tomoBay.model.sql.queries.concrete</text>
<text text-anchor="start" x="549" y="-561" font-family="Helvetica,sans-Serif" font-size="10.00">Queries.insert.InsertOrderInOrderStatus.set</text>
<text text-anchor="middle" x="644" y="-550" font-family="Helvetica,sans-Serif" font-size="10.00">Parameters</text>
</a>
</g>
</g>
<!-- Node3&#45;&gt;Node15 -->
<g id="edge14" class="edge"><title>Node3&#45;&gt;Node15</title>
<path fill="none" stroke="midnightblue" d="M453.249,-472.668C469.693,-490.721 497.95,-518.661 528,-534.5 533.92,-537.62 540.19,-540.416 546.626,-542.919"/>
<polygon fill="midnightblue" stroke="midnightblue" points="455.823,-470.295 446.562,-465.148 450.592,-474.946 455.823,-470.295"/>
</g>
<!-- Node3&#45;&gt;Node16 -->
<g id="edge16" class="edge"><title>Node3&#45;&gt;Node16</title>
<path fill="none" stroke="midnightblue" d="M444.864,-436.184C455.198,-404.596 476.077,-339.855 492,-284.5 509.404,-223.997 482.358,-190.862 528,-147.5 531.549,-144.129 535.443,-141.178 539.586,-138.6"/>
<polygon fill="midnightblue" stroke="midnightblue" points="441.466,-435.312 441.673,-445.905 448.117,-437.495 441.466,-435.312"/>
</g>
<!-- Node3&#45;&gt;Node17 -->
<g id="edge17" class="edge"><title>Node3&#45;&gt;Node17</title>
<path fill="none" stroke="midnightblue" d="M443.565,-435.996C453.144,-399.05 474.519,-316.304 492,-246.5 508.34,-181.251 480.796,-147.418 528,-99.5 533.14,-94.2818 539.067,-89.9339 545.462,-86.3154"/>
<polygon fill="midnightblue" stroke="midnightblue" points="440.112,-435.368 440.989,-445.926 446.888,-437.126 440.112,-435.368"/>
</g>
<!-- Node3&#45;&gt;Node18 -->
<g id="edge18" class="edge"><title>Node3&#45;&gt;Node18</title>
<path fill="none" stroke="midnightblue" d="M442.83,-435.619C451.964,-393.663 473.852,-292.984 492,-208.5 508.129,-133.416 473.585,-93.6907 528,-39.5 531.396,-36.1179 535.138,-33.1545 539.133,-30.5614"/>
<polygon fill="midnightblue" stroke="midnightblue" points="439.361,-435.104 440.653,-445.62 446.2,-436.593 439.361,-435.104"/>
</g>
<!-- Node19 -->
<g id="node19" class="node"><title>Node19</title>
<g id="a_node19"><a xlink:href="classtomoBay_1_1model_1_1sql_1_1queries_1_1concreteQueries_1_1update_1_1UpdateEbayBuyer.html#af9020b85517904668d036bc2bf89433c" target="_top" xlink:title="tomoBay.model.sql.queries.concrete\lQueries.update.UpdateEbayBuyer.setParameters">
<polygon fill="white" stroke="black" points="528,-494.5 528,-524.5 760,-524.5 760,-494.5 528,-494.5"/>
<text text-anchor="start" x="536" y="-512.5" font-family="Helvetica,sans-Serif" font-size="10.00">tomoBay.model.sql.queries.concrete</text>
<text text-anchor="middle" x="644" y="-501.5" font-family="Helvetica,sans-Serif" font-size="10.00">Queries.update.UpdateEbayBuyer.setParameters</text>
</a>
</g>
</g>
<!-- Node3&#45;&gt;Node19 -->
<g id="edge22" class="edge"><title>Node3&#45;&gt;Node19</title>
<path fill="none" stroke="midnightblue" d="M474.154,-468.524C490.437,-474.193 510.054,-480.638 528,-485.5 539.811,-488.7 552.403,-491.719 564.761,-494.465"/>
<polygon fill="midnightblue" stroke="midnightblue" points="475.085,-465.141 464.491,-465.115 472.757,-471.742 475.085,-465.141"/>
</g>
<!-- Node20 -->
<g id="node20" class="node"><title>Node20</title>
<g id="a_node20"><a xlink:href="classtomoBay_1_1model_1_1sql_1_1queries_1_1concreteQueries_1_1insert_1_1InsertEbayBuyers.html#af9020b85517904668d036bc2bf89433c" target="_top" xlink:title="tomoBay.model.sql.queries.concrete\lQueries.insert.InsertEbayBuyers.set\lParameters">
<polygon fill="white" stroke="black" points="556,-435 556,-476 732,-476 732,-435 556,-435"/>
<text text-anchor="start" x="564" y="-464" font-family="Helvetica,sans-Serif" font-size="10.00">tomoBay.model.sql.queries.concrete</text>
<text text-anchor="start" x="564" y="-453" font-family="Helvetica,sans-Serif" font-size="10.00">Queries.insert.InsertEbayBuyers.set</text>
<text text-anchor="middle" x="644" y="-442" font-family="Helvetica,sans-Serif" font-size="10.00">Parameters</text>
</a>
</g>
</g>
<!-- Node3&#45;&gt;Node20 -->
<g id="edge24" class="edge"><title>Node3&#45;&gt;Node20</title>
<path fill="none" stroke="midnightblue" d="M502.486,-455.5C519.326,-455.5 537.784,-455.5 555.625,-455.5"/>
<polygon fill="midnightblue" stroke="midnightblue" points="502.23,-452 492.23,-455.5 502.23,-459 502.23,-452"/>
</g>
<!-- Node21 -->
<g id="node21" class="node"><title>Node21</title>
<g id="a_node21"><a xlink:href="classtomoBay_1_1model_1_1sql_1_1queries_1_1concreteQueries_1_1select_1_1params_1_1SelectEbayOrderByBuyer.html#af9020b85517904668d036bc2bf89433c" target="_top" xlink:title="tomoBay.model.sql.queries.concrete\lQueries.select.params.SelectEbayOrder\lByBuyer.setParameters">
<polygon fill="white" stroke="black" points="548,-375 548,-416 740,-416 740,-375 548,-375"/>
<text text-anchor="start" x="556" y="-404" font-family="Helvetica,sans-Serif" font-size="10.00">tomoBay.model.sql.queries.concrete</text>
<text text-anchor="start" x="556" y="-393" font-family="Helvetica,sans-Serif" font-size="10.00">Queries.select.params.SelectEbayOrder</text>
<text text-anchor="middle" x="644" y="-382" font-family="Helvetica,sans-Serif" font-size="10.00">ByBuyer.setParameters</text>
</a>
</g>
</g>
<!-- Node3&#45;&gt;Node21 -->
<g id="edge25" class="edge"><title>Node3&#45;&gt;Node21</title>
<path fill="none" stroke="midnightblue" d="M474.987,-442.642C491.149,-437.11 510.44,-430.727 528,-425.5 538.778,-422.292 550.179,-419.09 561.449,-416.037"/>
<polygon fill="midnightblue" stroke="midnightblue" points="473.683,-439.389 465.371,-445.959 475.966,-446.007 473.683,-439.389"/>
</g>
<!-- Node22 -->
<g id="node22" class="node"><title>Node22</title>
<g id="a_node22"><a xlink:href="classtomoBay_1_1model_1_1sql_1_1queries_1_1concreteQueries_1_1select_1_1params_1_1SelectTransactionByOrder.html#af9020b85517904668d036bc2bf89433c" target="_top" xlink:title="tomoBay.model.sql.queries.concrete\lQueries.select.params.SelectTransaction\lByOrder.setParameters">
<polygon fill="white" stroke="black" points="545.5,-277 545.5,-318 742.5,-318 742.5,-277 545.5,-277"/>
<text text-anchor="start" x="553.5" y="-306" font-family="Helvetica,sans-Serif" font-size="10.00">tomoBay.model.sql.queries.concrete</text>
<text text-anchor="start" x="553.5" y="-295" font-family="Helvetica,sans-Serif" font-size="10.00">Queries.select.params.SelectTransaction</text>
<text text-anchor="middle" x="644" y="-284" font-family="Helvetica,sans-Serif" font-size="10.00">ByOrder.setParameters</text>
</a>
</g>
</g>
<!-- Node3&#45;&gt;Node22 -->
<g id="edge26" class="edge"><title>Node3&#45;&gt;Node22</title>
<path fill="none" stroke="midnightblue" d="M447.24,-436.705C460.757,-409.679 489.272,-360.067 528,-332.5 535.991,-326.812 544.924,-322.033 554.184,-318.021"/>
<polygon fill="midnightblue" stroke="midnightblue" points="444.013,-435.339 442.804,-445.864 450.313,-438.39 444.013,-435.339"/>
</g>
<!-- Node23 -->
<g id="node23" class="node"><title>Node23</title>
<g id="a_node23"><a xlink:href="classtomoBay_1_1model_1_1sql_1_1queries_1_1concreteQueries_1_1select_1_1params_1_1SelectBrandAndPartNoByOrderID.html#af9020b85517904668d036bc2bf89433c" target="_top" xlink:title="tomoBay.model.sql.queries.concrete\lQueries.select.params.SelectBrandAnd\lPartNoByOrderID.setParameters">
<polygon fill="white" stroke="black" points="550,-217 550,-258 738,-258 738,-217 550,-217"/>
<text text-anchor="start" x="558" y="-246" font-family="Helvetica,sans-Serif" font-size="10.00">tomoBay.model.sql.queries.concrete</text>
<text text-anchor="start" x="558" y="-235" font-family="Helvetica,sans-Serif" font-size="10.00">Queries.select.params.SelectBrandAnd</text>
<text text-anchor="middle" x="644" y="-224" font-family="Helvetica,sans-Serif" font-size="10.00">PartNoByOrderID.setParameters</text>
</a>
</g>
</g>
<!-- Node3&#45;&gt;Node23 -->
<g id="edge27" class="edge"><title>Node3&#45;&gt;Node23</title>
<path fill="none" stroke="midnightblue" d="M442.098,-436.081C450.235,-397.786 473.735,-312.363 528,-267.5 534.6,-262.044 542.082,-257.568 549.986,-253.899"/>
<polygon fill="midnightblue" stroke="midnightblue" points="438.651,-435.468 440.122,-445.96 445.515,-436.84 438.651,-435.468"/>
</g>
<!-- Node24 -->
<g id="node24" class="node"><title>Node24</title>
<g id="a_node24"><a xlink:href="classtomoBay_1_1model_1_1sql_1_1queries_1_1concreteQueries_1_1select_1_1params_1_1SelectEbayOrderByID.html#af9020b85517904668d036bc2bf89433c" target="_top" xlink:title="tomoBay.model.sql.queries.concrete\lQueries.select.params.SelectEbayOrder\lByID.setParameters">
<polygon fill="white" stroke="black" points="548,-157 548,-198 740,-198 740,-157 548,-157"/>
<text text-anchor="start" x="556" y="-186" font-family="Helvetica,sans-Serif" font-size="10.00">tomoBay.model.sql.queries.concrete</text>
<text text-anchor="start" x="556" y="-175" font-family="Helvetica,sans-Serif" font-size="10.00">Queries.select.params.SelectEbayOrder</text>
<text text-anchor="middle" x="644" y="-164" font-family="Helvetica,sans-Serif" font-size="10.00">ByID.setParameters</text>
</a>
</g>
</g>
<!-- Node3&#45;&gt;Node24 -->
<g id="edge28" class="edge"><title>Node3&#45;&gt;Node24</title>
<path fill="none" stroke="midnightblue" d="M444.298,-436.297C461.177,-380.904 510.211,-223.737 528,-207.5 533.867,-202.145 540.571,-197.721 547.726,-194.071"/>
<polygon fill="midnightblue" stroke="midnightblue" points="440.925,-435.361 441.37,-445.946 447.623,-437.393 440.925,-435.361"/>
</g>
<!-- Node25 -->
<g id="node25" class="node"><title>Node25</title>
<g id="a_node25"><a xlink:href="classtomoBay_1_1model_1_1sql_1_1queries_1_1concreteQueries_1_1select_1_1params_1_1SelectEbayBuyer.html#af9020b85517904668d036bc2bf89433c" target="_top" xlink:title="tomoBay.model.sql.queries.concrete\lQueries.select.params.SelectEbayBuyer.set\lParameters">
<polygon fill="white" stroke="black" points="539,-777 539,-818 749,-818 749,-777 539,-777"/>
<text text-anchor="start" x="547" y="-806" font-family="Helvetica,sans-Serif" font-size="10.00">tomoBay.model.sql.queries.concrete</text>
<text text-anchor="start" x="547" y="-795" font-family="Helvetica,sans-Serif" font-size="10.00">Queries.select.params.SelectEbayBuyer.set</text>
<text text-anchor="middle" x="644" y="-784" font-family="Helvetica,sans-Serif" font-size="10.00">Parameters</text>
</a>
</g>
</g>
<!-- Node3&#45;&gt;Node25 -->
<g id="edge29" class="edge"><title>Node3&#45;&gt;Node25</title>
<path fill="none" stroke="midnightblue" d="M437.918,-475.137C437.421,-529.849 443.858,-685.368 528,-767.5 531.618,-771.031 535.596,-774.161 539.833,-776.934"/>
<polygon fill="midnightblue" stroke="midnightblue" points="441.419,-475.118 438.103,-465.055 434.42,-474.989 441.419,-475.118"/>
</g>
<!-- Node26 -->
<g id="node26" class="node"><title>Node26</title>
<g id="a_node26"><a xlink:href="classtomoBay_1_1model_1_1sql_1_1queries_1_1concreteQueries_1_1select_1_1params_1_1SelectFullOrderLine.html#af9020b85517904668d036bc2bf89433c" target="_top" xlink:title="tomoBay.model.sql.queries.concrete\lQueries.select.params.SelectFullOrder\lLine.setParameters">
<polygon fill="white" stroke="black" points="551.5,-717 551.5,-758 736.5,-758 736.5,-717 551.5,-717"/>
<text text-anchor="start" x="559.5" y="-746" font-family="Helvetica,sans-Serif" font-size="10.00">tomoBay.model.sql.queries.concrete</text>
<text text-anchor="start" x="559.5" y="-735" font-family="Helvetica,sans-Serif" font-size="10.00">Queries.select.params.SelectFullOrder</text>
<text text-anchor="middle" x="644" y="-724" font-family="Helvetica,sans-Serif" font-size="10.00">Line.setParameters</text>
</a>
</g>
</g>
<!-- Node3&#45;&gt;Node26 -->
<g id="edge30" class="edge"><title>Node3&#45;&gt;Node26</title>
<path fill="none" stroke="midnightblue" d="M439.827,-475.148C444.03,-521.586 461.069,-638.974 528,-702.5 534.812,-708.965 542.782,-714.239 551.293,-718.54"/>
<polygon fill="midnightblue" stroke="midnightblue" points="443.316,-474.867 439.028,-465.178 436.338,-475.426 443.316,-474.867"/>
</g>
<!-- Node5 -->
<g id="node5" class="node"><title>Node5</title>
<g id="a_node5"><a xlink:href="classtomoBay_1_1model_1_1sql_1_1framework_1_1QueryUtility.html#a2da2ce60a8a037d55bdc69309db4815b" target="_top" xlink:title="private ctor ensures that this class is never instantiated ">
<polygon fill="white" stroke="black" points="871.5,-548 871.5,-567 939.5,-567 939.5,-548 871.5,-548"/>
<text text-anchor="middle" x="905.5" y="-555" font-family="Helvetica,sans-Serif" font-size="10.00">QueryUtility</text>
</a>
</g>
</g>
<!-- Node4&#45;&gt;Node5 -->
<g id="edge4" class="edge"><title>Node4&#45;&gt;Node5</title>
<path fill="none" stroke="midnightblue" d="M706.264,-646.25C724.648,-642.805 744.127,-636.814 760,-626.5 782.961,-611.579 772.801,-591.047 796,-576.5 818.52,-562.379 848.573,-557.991 871.338,-556.93"/>
<polygon fill="midnightblue" stroke="midnightblue" points="705.489,-642.831 696.193,-647.914 706.63,-649.737 705.489,-642.831"/>
</g>
<!-- Node6 -->
<g id="node6" class="node"><title>Node6</title>
<g id="a_node6"><a xlink:href="classtomoBay_1_1model_1_1sql_1_1queries_1_1concreteQueries_1_1update_1_1UpdateInvoiceStatusSRN.html#af9020b85517904668d036bc2bf89433c" target="_top" xlink:title="tomoBay.model.sql.queries.concrete\lQueries.update.UpdateInvoiceStatusSRN.set\lParameters">
<polygon fill="white" stroke="black" points="798,-488 798,-529 1013,-529 1013,-488 798,-488"/>
<text text-anchor="start" x="806" y="-517" font-family="Helvetica,sans-Serif" font-size="10.00">tomoBay.model.sql.queries.concrete</text>
<text text-anchor="start" x="806" y="-506" font-family="Helvetica,sans-Serif" font-size="10.00">Queries.update.UpdateInvoiceStatusSRN.set</text>
<text text-anchor="middle" x="905.5" y="-495" font-family="Helvetica,sans-Serif" font-size="10.00">Parameters</text>
</a>
</g>
</g>
<!-- Node4&#45;&gt;Node6 -->
<g id="edge5" class="edge"><title>Node4&#45;&gt;Node6</title>
<path fill="none" stroke="midnightblue" d="M706.357,-648.707C725.281,-645.445 745.051,-638.942 760,-626.5 792.48,-599.468 764.402,-566.558 796,-538.5 800.019,-534.931 804.426,-531.783 809.092,-529.007"/>
<polygon fill="midnightblue" stroke="midnightblue" points="705.664,-645.27 696.269,-650.167 706.667,-652.198 705.664,-645.27"/>
</g>
<!-- Node4&#45;&gt;Node7 -->
<g id="edge6" class="edge"><title>Node4&#45;&gt;Node7</title>
<path fill="none" stroke="midnightblue" d="M706.172,-652.519C725.085,-655.795 744.894,-662.249 760,-674.5 790.913,-699.571 765.905,-730.452 796,-756.5 800.064,-760.017 804.506,-763.125 809.2,-765.871"/>
<polygon fill="midnightblue" stroke="midnightblue" points="706.496,-649.029 696.095,-651.045 705.483,-655.955 706.496,-649.029"/>
</g>
<!-- Node8 -->
<g id="node8" class="node"><title>Node8</title>
<g id="a_node8"><a xlink:href="classtomoBay_1_1model_1_1sql_1_1queries_1_1concreteQueries_1_1insert_1_1InsertOutOfHoursOrders.html#af9020b85517904668d036bc2bf89433c" target="_top" xlink:title="tomoBay.model.sql.queries.concrete\lQueries.insert.InsertOutOfHoursOrders.set\lParameters">
<polygon fill="white" stroke="black" points="804,-706 804,-747 1007,-747 1007,-706 804,-706"/>
<text text-anchor="start" x="812" y="-735" font-family="Helvetica,sans-Serif" font-size="10.00">tomoBay.model.sql.queries.concrete</text>
<text text-anchor="start" x="812" y="-724" font-family="Helvetica,sans-Serif" font-size="10.00">Queries.insert.InsertOutOfHoursOrders.set</text>
<text text-anchor="middle" x="905.5" y="-713" font-family="Helvetica,sans-Serif" font-size="10.00">Parameters</text>
</a>
</g>
</g>
<!-- Node4&#45;&gt;Node8 -->
<g id="edge7" class="edge"><title>Node4&#45;&gt;Node8</title>
<path fill="none" stroke="midnightblue" d="M706.405,-659.277C724.071,-662.875 743.119,-667.813 760,-674.5 777.433,-681.405 778.797,-689.04 796,-696.5 803.979,-699.96 812.463,-703.123 821.034,-705.989"/>
<polygon fill="midnightblue" stroke="midnightblue" points="706.671,-655.764 696.19,-657.311 705.348,-662.638 706.671,-655.764"/>
</g>
<!-- Node9 -->
<g id="node9" class="node"><title>Node9</title>
<g id="a_node9"><a xlink:href="classtomoBay_1_1model_1_1sql_1_1queries_1_1concreteQueries_1_1select_1_1params_1_1SelectEbayOrderHistoryLastNDays.html#af9020b85517904668d036bc2bf89433c" target="_top" xlink:title="tomoBay.model.sql.queries.concrete\lQueries.select.params.SelectEbayOrder\lHistoryLastNDays.setParameters">
<polygon fill="white" stroke="black" points="809.5,-646 809.5,-687 1001.5,-687 1001.5,-646 809.5,-646"/>
<text text-anchor="start" x="817.5" y="-675" font-family="Helvetica,sans-Serif" font-size="10.00">tomoBay.model.sql.queries.concrete</text>
<text text-anchor="start" x="817.5" y="-664" font-family="Helvetica,sans-Serif" font-size="10.00">Queries.select.params.SelectEbayOrder</text>
<text text-anchor="middle" x="905.5" y="-653" font-family="Helvetica,sans-Serif" font-size="10.00">HistoryLastNDays.setParameters</text>
</a>
</g>
</g>
<!-- Node4&#45;&gt;Node9 -->
<g id="edge8" class="edge"><title>Node4&#45;&gt;Node9</title>
<path fill="none" stroke="midnightblue" d="M706.408,-654.286C737.162,-656.182 775.083,-658.521 809.488,-660.642"/>
<polygon fill="midnightblue" stroke="midnightblue" points="706.465,-650.783 696.269,-653.661 706.034,-657.77 706.465,-650.783"/>
</g>
<!-- Node4&#45;&gt;Node10 -->
<g id="edge9" class="edge"><title>Node4&#45;&gt;Node10</title>
<path fill="none" stroke="midnightblue" d="M692.738,-663.317C716.353,-672.038 743.304,-685.998 760,-707.5 807.101,-768.156 741.909,-821.985 796,-876.5 799.261,-879.787 802.864,-882.668 806.717,-885.191"/>
<polygon fill="midnightblue" stroke="midnightblue" points="693.797,-659.98 683.202,-660.005 691.5,-666.593 693.797,-659.98"/>
</g>
<!-- Node4&#45;&gt;Node11 -->
<g id="edge10" class="edge"><title>Node4&#45;&gt;Node11</title>
<path fill="none" stroke="midnightblue" d="M706.226,-650.195C725.622,-647.105 745.709,-640.329 760,-626.5 808.648,-579.425 748.883,-527.108 796,-478.5 802.121,-472.185 809.443,-467.163 817.354,-463.175"/>
<polygon fill="midnightblue" stroke="midnightblue" points="705.651,-646.74 696.181,-651.493 706.547,-653.683 705.651,-646.74"/>
</g>
<!-- Node4&#45;&gt;Node12 -->
<g id="edge11" class="edge"><title>Node4&#45;&gt;Node12</title>
<path fill="none" stroke="midnightblue" d="M690.04,-663.425C713.787,-672.326 741.707,-686.423 760,-707.5 793.441,-746.03 759.048,-781.324 796,-816.5 799.68,-820.004 803.732,-823.105 808.043,-825.849"/>
<polygon fill="midnightblue" stroke="midnightblue" points="691.092,-660.084 680.497,-660.036 688.75,-666.681 691.092,-660.084"/>
</g>
<!-- Node4&#45;&gt;Node13 -->
<g id="edge12" class="edge"><title>Node4&#45;&gt;Node13</title>
<path fill="none" stroke="midnightblue" d="M693.055,-637.636C716.626,-628.923 743.439,-614.982 760,-593.5 808.482,-530.612 746.868,-480.881 796,-418.5 806.303,-405.419 820.762,-395.533 835.774,-388.123"/>
<polygon fill="midnightblue" stroke="midnightblue" points="691.828,-634.357 683.532,-640.946 694.127,-640.969 691.828,-634.357"/>
</g>
<!-- Node14 -->
<g id="node14" class="node"><title>Node14</title>
<g id="a_node14"><a xlink:href="classtomoBay_1_1model_1_1sql_1_1queries_1_1concreteQueries_1_1select_1_1params_1_1SelectBrandByInv.html#af9020b85517904668d036bc2bf89433c" target="_top" xlink:title="tomoBay.model.sql.queries.concrete\lQueries.select.params.SelectBrandBy\lInv.setParameters">
<polygon fill="white" stroke="black" points="814,-586 814,-627 997,-627 997,-586 814,-586"/>
<text text-anchor="start" x="822" y="-615" font-family="Helvetica,sans-Serif" font-size="10.00">tomoBay.model.sql.queries.concrete</text>
<text text-anchor="start" x="822" y="-604" font-family="Helvetica,sans-Serif" font-size="10.00">Queries.select.params.SelectBrandBy</text>
<text text-anchor="middle" x="905.5" y="-593" font-family="Helvetica,sans-Serif" font-size="10.00">Inv.setParameters</text>
</a>
</g>
</g>
<!-- Node4&#45;&gt;Node14 -->
<g id="edge13" class="edge"><title>Node4&#45;&gt;Node14</title>
<path fill="none" stroke="midnightblue" d="M706.397,-640.09C738.484,-634.649 778.377,-627.885 813.936,-621.856"/>
<polygon fill="midnightblue" stroke="midnightblue" points="705.543,-636.684 696.269,-641.807 706.713,-643.586 705.543,-636.684"/>
</g>
</g>
</svg>
        <g id="navigator" transform="translate(0 0)" fill="#404254">
                <rect fill="#f2f5e9" fill-opacity="0.5" stroke="#606060" stroke-width=".5" x="0" y="0" width="60" height="60"/>
                <use id="zoomplus" xlink:href="#zoomPlus" x="17" y="9" onmousedown="handleZoom(evt,'in')"/>
                <use id="zoomminus" xlink:href="#zoomMin" x="42" y="9" onmousedown="handleZoom(evt,'out')"/>
                <use id="reset" xlink:href="#resetDef" x="30" y="36" onmousedown="handleReset()"/>
                <g id="arrowUp" xlink:href="#dirArrow" transform="translate(30 24)" onmousedown="handlePan(0,-1)">
                  <use xlink:href="#rim" fill="#404040">
                        <set attributeName="fill" to="#808080" begin="arrowUp.mouseover" end="arrowUp.mouseout"/>
                  </use>
                  <path fill="none" stroke="white" stroke-width="1.5" d="M0,-3.0v7 M-2.5,-0.5L0,-3.0L2.5,-0.5"/>
                </g>
                <g id="arrowRight" xlink:href="#dirArrow" transform="rotate(90) translate(36 -43)" onmousedown="handlePan(1,0)">
                  <use xlink:href="#rim" fill="#404040">
                        <set attributeName="fill" to="#808080" begin="arrowRight.mouseover" end="arrowRight.mouseout"/>
                  </use>
                  <path fill="none" stroke="white" stroke-width="1.5" d="M0,-3.0v7 M-2.5,-0.5L0,-3.0L2.5,-0.5"/>
                </g>
                <g id="arrowDown" xlink:href="#dirArrow" transform="rotate(180) translate(-30 -48)" onmousedown="handlePan(0,1)">
                  <use xlink:href="#rim" fill="#404040">
                        <set attributeName="fill" to="#808080" begin="arrowDown.mouseover" end="arrowDown.mouseout"/>
                  </use>
                  <path fill="none" stroke="white" stroke-width="1.5" d="M0,-3.0v7 M-2.5,-0.5L0,-3.0L2.5,-0.5"/>
                </g>
                <g id="arrowLeft" xlink:href="#dirArrow" transform="rotate(270) translate(-36 17)" onmousedown="handlePan(-1,0)">
                  <use xlink:href="#rim" fill="#404040">
                        <set attributeName="fill" to="#808080" begin="arrowLeft.mouseover" end="arrowLeft.mouseout"/>
                  </use>
                  <path fill="none" stroke="white" stroke-width="1.5" d="M0,-3.0v7 M-2.5,-0.5L0,-3.0L2.5,-0.5"/>
                </g>
        </g>
        <svg viewBox="0 0 15 15" width="100%" height="30px" preserveAspectRatio="xMaxYMin meet">
         <g id="arrow_out" transform="scale(0.3 0.3)">
          <a xlink:href="classtomoBay_1_1model_1_1sql_1_1framework_1_1QueryUtility_a138f0c046bc0a6df71b168ab35c3c3e3_icgraph_org.svg" target="_base">
           <rect id="button" ry="5" rx="5" y="6" x="6" height="38" width="38"
                fill="#f2f5e9" fill-opacity="0.5" stroke="#606060" stroke-width="1.0"/>
           <path id="arrow"
             d="M 11.500037,31.436501 C 11.940474,20.09759 22.043105,11.32322 32.158766,21.979434 L 37.068811,17.246167 C 37.068811,17.246167 37.088388,32 37.088388,32 L 22.160133,31.978069 C 22.160133,31.978069 26.997745,27.140456 26.997745,27.140456 C 18.528582,18.264221 13.291696,25.230495 11.500037,31.436501 z"
             style="fill:#404040;"/>
          </a>
         </g>
        </svg>
</svg>
