<?xml version="1.0" encoding="UTF-8" standalone="no"?>
<!DOCTYPE svg PUBLIC "-//W3C//DTD SVG 1.1//EN"
 "http://www.w3.org/Graphics/SVG/1.1/DTD/svg11.dtd">
<!-- Generated by graphviz version 2.38.0 (20140413.2041)
 -->
<!-- Title: updateBuyerTable Pages: 1 -->
<svg width="814pt" height="50pt"
 viewBox="0.00 0.00 814.00 50.00" xmlns="http://www.w3.org/2000/svg" xmlns:xlink="http://www.w3.org/1999/xlink">
<g id="graph0" class="graph" transform="scale(1 1) rotate(0) translate(4 46)">
<title>updateBuyerTable</title>
<polygon fill="white" stroke="none" points="-4,4 -4,-46 810,-46 810,4 -4,4"/>
<!-- Node1 -->
<g id="node1" class="node"><title>Node1</title>
<polygon fill="#bfbfbf" stroke="black" points="0,-11.5 0,-30.5 95,-30.5 95,-11.5 0,-11.5"/>
<text text-anchor="middle" x="47.5" y="-18.5" font-family="Helvetica,sans-Serif" font-size="10.00">updateBuyerTable</text>
</g>
<!-- Node2 -->
<g id="node2" class="node"><title>Node2</title>
<g id="a_node2"><a xlink:href="classtomoBay_1_1model_1_1services_1_1reScanBuyerService_1_1OnRunning.html#ae4a4f4cadce2787c7e80005639fbd5d9" target="_top" xlink:title="this method defines what to do in the given derived state ">
<polygon fill="white" stroke="black" points="131,-6 131,-36 318,-36 318,-6 131,-6"/>
<text text-anchor="start" x="139" y="-24" font-family="Helvetica,sans-Serif" font-size="10.00">tomoBay.model.services.re</text>
<text text-anchor="middle" x="224.5" y="-13" font-family="Helvetica,sans-Serif" font-size="10.00">ScanBuyerService.OnRunning.execute</text>
</a>
</g>
</g>
<!-- Node1&#45;&gt;Node2 -->
<g id="edge1" class="edge"><title>Node1&#45;&gt;Node2</title>
<path fill="none" stroke="midnightblue" d="M105.493,-21C113.654,-21 122.22,-21 130.854,-21"/>
<polygon fill="midnightblue" stroke="midnightblue" points="105.397,-17.5001 95.3968,-21 105.397,-24.5001 105.397,-17.5001"/>
</g>
<!-- Node3 -->
<g id="node3" class="node"><title>Node3</title>
<g id="a_node3"><a xlink:href="classtomoBay_1_1model_1_1services_1_1reScanBuyerService_1_1ReScanBuyerService.html#ae3b0a282dcba7f2d675ca89b1dd48487" target="_top" xlink:title="tomoBay.model.services.re\lScanBuyerService.ReScanBuyerService.on\lRunning">
<polygon fill="white" stroke="black" points="354,-0.5 354,-41.5 562,-41.5 562,-0.5 354,-0.5"/>
<text text-anchor="start" x="362" y="-29.5" font-family="Helvetica,sans-Serif" font-size="10.00">tomoBay.model.services.re</text>
<text text-anchor="start" x="362" y="-18.5" font-family="Helvetica,sans-Serif" font-size="10.00">ScanBuyerService.ReScanBuyerService.on</text>
<text text-anchor="middle" x="458" y="-7.5" font-family="Helvetica,sans-Serif" font-size="10.00">Running</text>
</a>
</g>
</g>
<!-- Node2&#45;&gt;Node3 -->
<g id="edge2" class="edge"><title>Node2&#45;&gt;Node3</title>
<path fill="none" stroke="midnightblue" d="M328.54,-21C336.961,-21 345.473,-21 353.894,-21"/>
<polygon fill="midnightblue" stroke="midnightblue" points="328.326,-17.5001 318.326,-21 328.326,-24.5001 328.326,-17.5001"/>
</g>
<!-- Node4 -->
<g id="node4" class="node"><title>Node4</title>
<g id="a_node4"><a xlink:href="classtomoBay_1_1model_1_1services_1_1reScanBuyerService_1_1ReScanBuyerService.html#afd85cd6baa355d54ab15c19c16c21df9" target="_top" xlink:title="tomoBay.model.services.re\lScanBuyerService.ReScanBuyerService.on\lPaused">
<polygon fill="white" stroke="black" points="598,-0.5 598,-41.5 806,-41.5 806,-0.5 598,-0.5"/>
<text text-anchor="start" x="606" y="-29.5" font-family="Helvetica,sans-Serif" font-size="10.00">tomoBay.model.services.re</text>
<text text-anchor="start" x="606" y="-18.5" font-family="Helvetica,sans-Serif" font-size="10.00">ScanBuyerService.ReScanBuyerService.on</text>
<text text-anchor="middle" x="702" y="-7.5" font-family="Helvetica,sans-Serif" font-size="10.00">Paused</text>
</a>
</g>
</g>
<!-- Node3&#45;&gt;Node4 -->
<g id="edge3" class="edge"><title>Node3&#45;&gt;Node4</title>
<path fill="none" stroke="midnightblue" d="M572.515,-21C580.892,-21 589.317,-21 597.628,-21"/>
<polygon fill="midnightblue" stroke="midnightblue" points="572.332,-17.5001 562.332,-21 572.332,-24.5001 572.332,-17.5001"/>
</g>
</g>
</svg>
