<?xml version="1.0" encoding="UTF-8" standalone="no"?>
<!DOCTYPE svg PUBLIC "-//W3C//DTD SVG 1.1//EN"
 "http://www.w3.org/Graphics/SVG/1.1/DTD/svg11.dtd">
<!-- Generated by graphviz version 2.38.0 (20140413.2041)
 -->
<!-- Title: getResponseMessage Pages: 1 -->
<svg width="1256pt" height="254pt"
 viewBox="0.00 0.00 1256.00 254.00" xmlns="http://www.w3.org/2000/svg" xmlns:xlink="http://www.w3.org/1999/xlink">
<g id="graph0" class="graph" transform="scale(1 1) rotate(0) translate(4 250)">
<title>getResponseMessage</title>
<polygon fill="white" stroke="none" points="-4,4 -4,-250 1252,-250 1252,4 -4,4"/>
<!-- Node1 -->
<g id="node1" class="node"><title>Node1</title>
<polygon fill="#bfbfbf" stroke="black" points="0,-89.5 0,-108.5 114,-108.5 114,-89.5 0,-89.5"/>
<text text-anchor="middle" x="57" y="-96.5" font-family="Helvetica,sans-Serif" font-size="10.00">getResponseMessage</text>
</g>
<!-- Node2 -->
<g id="node2" class="node"><title>Node2</title>
<g id="a_node2"><a xlink:href="classtomoBay_1_1model_1_1winstock_1_1Stock.html#a42fa652d82ed49749a0ad929a6c798d0" target="_top" xlink:title="remove the header bumpf from the bottom of the response ">
<polygon fill="white" stroke="black" points="150,-84 150,-114 327,-114 327,-84 150,-84"/>
<text text-anchor="start" x="158" y="-102" font-family="Helvetica,sans-Serif" font-size="10.00">tomoBay.model.winstock.Stock.post</text>
<text text-anchor="middle" x="238.5" y="-91" font-family="Helvetica,sans-Serif" font-size="10.00">FormatXMLString</text>
</a>
</g>
</g>
<!-- Node1&#45;&gt;Node2 -->
<g id="edge1" class="edge"><title>Node1&#45;&gt;Node2</title>
<path fill="none" stroke="midnightblue" d="M124.571,-99C132.814,-99 141.337,-99 149.835,-99"/>
<polygon fill="midnightblue" stroke="midnightblue" points="124.302,-95.5001 114.302,-99 124.302,-102.5 124.302,-95.5001"/>
</g>
<!-- Node3 -->
<g id="node3" class="node"><title>Node3</title>
<g id="a_node3"><a xlink:href="classtomoBay_1_1model_1_1winstock_1_1Stock.html#a06d21b6ad2b8a746c52fadb5d4711778" target="_top" xlink:title="query winstock for the stock level of a particular part. ">
<polygon fill="white" stroke="black" points="363,-158 363,-188 554,-188 554,-158 363,-158"/>
<text text-anchor="start" x="371" y="-176" font-family="Helvetica,sans-Serif" font-size="10.00">tomoBay.model.winstock.Stock.request</text>
<text text-anchor="middle" x="458.5" y="-165" font-family="Helvetica,sans-Serif" font-size="10.00">StockLevel</text>
</a>
</g>
</g>
<!-- Node2&#45;&gt;Node3 -->
<g id="edge2" class="edge"><title>Node2&#45;&gt;Node3</title>
<path fill="none" stroke="midnightblue" d="M282.446,-118.065C305.952,-128.071 335.76,-140.073 363,-149 372.732,-152.189 383.141,-155.212 393.365,-157.968"/>
<polygon fill="midnightblue" stroke="midnightblue" points="283.682,-114.786 273.112,-114.055 280.919,-121.218 283.682,-114.786"/>
</g>
<!-- Node9 -->
<g id="node9" class="node"><title>Node9</title>
<g id="a_node9"><a xlink:href="classtomoBay_1_1model_1_1winstock_1_1Stock.html#adaf6c34595911864279e31f375aeedd1" target="_top" xlink:title="query winstock for the description of a particular part. ">
<polygon fill="white" stroke="black" points="363,-109 363,-139 554,-139 554,-109 363,-109"/>
<text text-anchor="start" x="371" y="-127" font-family="Helvetica,sans-Serif" font-size="10.00">tomoBay.model.winstock.Stock.request</text>
<text text-anchor="middle" x="458.5" y="-116" font-family="Helvetica,sans-Serif" font-size="10.00">Description</text>
</a>
</g>
</g>
<!-- Node2&#45;&gt;Node9 -->
<g id="edge8" class="edge"><title>Node2&#45;&gt;Node9</title>
<path fill="none" stroke="midnightblue" d="M337.178,-110.202C345.702,-111.179 354.32,-112.167 362.819,-113.142"/>
<polygon fill="midnightblue" stroke="midnightblue" points="337.56,-106.723 327.227,-109.06 336.763,-113.677 337.56,-106.723"/>
</g>
<!-- Node12 -->
<g id="node12" class="node"><title>Node12</title>
<g id="a_node12"><a xlink:href="classtomoBay_1_1model_1_1winstock_1_1Stock.html#a5171bbe1448b8e4840e617ffd75cc261" target="_top" xlink:title="query winstock for the last cost price of a particular part. ">
<polygon fill="white" stroke="black" points="363,-60 363,-90 554,-90 554,-60 363,-60"/>
<text text-anchor="start" x="371" y="-78" font-family="Helvetica,sans-Serif" font-size="10.00">tomoBay.model.winstock.Stock.request</text>
<text text-anchor="middle" x="458.5" y="-67" font-family="Helvetica,sans-Serif" font-size="10.00">LastCost</text>
</a>
</g>
</g>
<!-- Node2&#45;&gt;Node12 -->
<g id="edge11" class="edge"><title>Node2&#45;&gt;Node12</title>
<path fill="none" stroke="midnightblue" d="M337.178,-88.2465C345.702,-87.308 354.32,-86.3593 362.819,-85.4236"/>
<polygon fill="midnightblue" stroke="midnightblue" points="336.784,-84.7686 327.227,-89.342 337.55,-91.7266 336.784,-84.7686"/>
</g>
<!-- Node14 -->
<g id="node14" class="node"><title>Node14</title>
<g id="a_node14"><a xlink:href="classtomoBay_1_1model_1_1winstock_1_1Stock.html#a4cbeebb8b8e67f9e1478b8b0d77d4228" target="_top" xlink:title="query winstock for the weight of a particular invoice ">
<polygon fill="white" stroke="black" points="363,-9 363,-39 554,-39 554,-9 363,-9"/>
<text text-anchor="start" x="371" y="-27" font-family="Helvetica,sans-Serif" font-size="10.00">tomoBay.model.winstock.Stock.request</text>
<text text-anchor="middle" x="458.5" y="-16" font-family="Helvetica,sans-Serif" font-size="10.00">InvoiceWeight</text>
</a>
</g>
</g>
<!-- Node2&#45;&gt;Node14 -->
<g id="edge14" class="edge"><title>Node2&#45;&gt;Node14</title>
<path fill="none" stroke="midnightblue" d="M285.206,-80.0737C308.335,-70.7941 336.959,-59.7599 363,-51 375.291,-46.8655 388.613,-42.8062 401.27,-39.1419"/>
<polygon fill="midnightblue" stroke="midnightblue" points="283.615,-76.9413 275.653,-83.9315 286.237,-83.432 283.615,-76.9413"/>
</g>
<!-- Node4 -->
<g id="node4" class="node"><title>Node4</title>
<g id="a_node4"><a xlink:href="classtomoBay_1_1model_1_1services_1_1checkErrorsService_1_1OnRunning.html#ae4a4f4cadce2787c7e80005639fbd5d9" target="_top" xlink:title="this method defines what to do in the given derived state ">
<polygon fill="white" stroke="black" points="606.5,-208 606.5,-238 771.5,-238 771.5,-208 606.5,-208"/>
<text text-anchor="start" x="614.5" y="-226" font-family="Helvetica,sans-Serif" font-size="10.00">tomoBay.model.services.check</text>
<text text-anchor="middle" x="689" y="-215" font-family="Helvetica,sans-Serif" font-size="10.00">ErrorsService.OnRunning.execute</text>
</a>
</g>
</g>
<!-- Node3&#45;&gt;Node4 -->
<g id="edge3" class="edge"><title>Node3&#45;&gt;Node4</title>
<path fill="none" stroke="midnightblue" d="M538.006,-190.179C564.36,-195.945 593.536,-202.329 619.096,-207.923"/>
<polygon fill="midnightblue" stroke="midnightblue" points="538.575,-186.72 528.058,-188.002 537.078,-193.558 538.575,-186.72"/>
</g>
<!-- Node6 -->
<g id="node6" class="node"><title>Node6</title>
<g id="a_node6"><a xlink:href="classtomoBay_1_1presenters_1_1helpers_1_1pickeability_1_1ItemStockLevel.html#a22844faa947573bb01d9313f7bdb1e56" target="_top" xlink:title="Takes the list of items generated in this.assembleItemsList and checks a PartList associated with eac...">
<polygon fill="white" stroke="black" points="590,-158 590,-188 788,-188 788,-158 590,-158"/>
<text text-anchor="start" x="598" y="-176" font-family="Helvetica,sans-Serif" font-size="10.00">tomoBay.presenters.helpers.pickeability.</text>
<text text-anchor="middle" x="689" y="-165" font-family="Helvetica,sans-Serif" font-size="10.00">ItemStockLevel.checkStockLevelOfItems</text>
</a>
</g>
</g>
<!-- Node3&#45;&gt;Node6 -->
<g id="edge5" class="edge"><title>Node3&#45;&gt;Node6</title>
<path fill="none" stroke="midnightblue" d="M564.091,-173C572.649,-173 581.28,-173 589.79,-173"/>
<polygon fill="midnightblue" stroke="midnightblue" points="564.089,-169.5 554.089,-173 564.089,-176.5 564.089,-169.5"/>
</g>
<!-- Node5 -->
<g id="node5" class="node"><title>Node5</title>
<g id="a_node5"><a xlink:href="classtomoBay_1_1model_1_1services_1_1checkErrorsService_1_1CheckErrorsService.html#ae3b0a282dcba7f2d675ca89b1dd48487" target="_top" xlink:title="tomoBay.model.services.check\lErrorsService.CheckErrorsService.on\lRunning">
<polygon fill="white" stroke="black" points="831,-204.5 831,-245.5 1011,-245.5 1011,-204.5 831,-204.5"/>
<text text-anchor="start" x="839" y="-233.5" font-family="Helvetica,sans-Serif" font-size="10.00">tomoBay.model.services.check</text>
<text text-anchor="start" x="839" y="-222.5" font-family="Helvetica,sans-Serif" font-size="10.00">ErrorsService.CheckErrorsService.on</text>
<text text-anchor="middle" x="921" y="-211.5" font-family="Helvetica,sans-Serif" font-size="10.00">Running</text>
</a>
</g>
</g>
<!-- Node4&#45;&gt;Node5 -->
<g id="edge4" class="edge"><title>Node4&#45;&gt;Node5</title>
<path fill="none" stroke="midnightblue" d="M782.154,-223.801C798.163,-223.941 814.786,-224.085 830.716,-224.224"/>
<polygon fill="midnightblue" stroke="midnightblue" points="781.767,-220.298 771.737,-223.711 781.706,-227.298 781.767,-220.298"/>
</g>
<!-- Node7 -->
<g id="node7" class="node"><title>Node7</title>
<g id="a_node7"><a xlink:href="classtomoBay_1_1presenters_1_1helpers_1_1pickeability_1_1ItemStockLevel.html#a1aed814db05c4991e9bc719f39ea62ce" target="_top" xlink:title="tomoBay.presenters.helpers.pickeability.\lItemStockLevel.check">
<polygon fill="white" stroke="black" points="824,-156 824,-186 1018,-186 1018,-156 824,-156"/>
<text text-anchor="start" x="832" y="-174" font-family="Helvetica,sans-Serif" font-size="10.00">tomoBay.presenters.helpers.pickeability.</text>
<text text-anchor="middle" x="921" y="-163" font-family="Helvetica,sans-Serif" font-size="10.00">ItemStockLevel.check</text>
</a>
</g>
</g>
<!-- Node6&#45;&gt;Node7 -->
<g id="edge6" class="edge"><title>Node6&#45;&gt;Node7</title>
<path fill="none" stroke="midnightblue" d="M798.247,-172.059C806.828,-171.984 815.459,-171.909 823.949,-171.835"/>
<polygon fill="midnightblue" stroke="midnightblue" points="798.177,-168.559 788.208,-172.146 798.238,-175.559 798.177,-168.559"/>
</g>
<!-- Node8 -->
<g id="node8" class="node"><title>Node8</title>
<g id="a_node8"><a xlink:href="classtomoBay_1_1presenters_1_1helpers_1_1pickeability_1_1Pickeablity.html#ae05e03af15e33d53f9e0511ec0295a04" target="_top" xlink:title="default ctor ">
<polygon fill="white" stroke="black" points="1054,-156 1054,-186 1248,-186 1248,-156 1054,-156"/>
<text text-anchor="start" x="1062" y="-174" font-family="Helvetica,sans-Serif" font-size="10.00">tomoBay.presenters.helpers.pickeability.</text>
<text text-anchor="middle" x="1151" y="-163" font-family="Helvetica,sans-Serif" font-size="10.00">Pickeablity.Pickeablity</text>
</a>
</g>
</g>
<!-- Node7&#45;&gt;Node8 -->
<g id="edge7" class="edge"><title>Node7&#45;&gt;Node8</title>
<path fill="none" stroke="midnightblue" d="M1028.04,-171C1036.6,-171 1045.23,-171 1053.71,-171"/>
<polygon fill="midnightblue" stroke="midnightblue" points="1028.03,-167.5 1018.03,-171 1028.03,-174.5 1028.03,-167.5"/>
</g>
<!-- Node10 -->
<g id="node10" class="node"><title>Node10</title>
<g id="a_node10"><a xlink:href="classtomoBay_1_1model_1_1dataTypes_1_1order_1_1Part.html#a35fa0786da9722faf378ccf27cccbea6" target="_top" xlink:title="find the description of this part, using winstock ">
<polygon fill="white" stroke="black" points="608.5,-109 608.5,-139 769.5,-139 769.5,-109 608.5,-109"/>
<text text-anchor="start" x="616.5" y="-127" font-family="Helvetica,sans-Serif" font-size="10.00">tomoBay.model.dataTypes.order.</text>
<text text-anchor="middle" x="689" y="-116" font-family="Helvetica,sans-Serif" font-size="10.00">Part.getDescription</text>
</a>
</g>
</g>
<!-- Node9&#45;&gt;Node10 -->
<g id="edge9" class="edge"><title>Node9&#45;&gt;Node10</title>
<path fill="none" stroke="midnightblue" d="M564.3,-124C579.116,-124 594.146,-124 608.383,-124"/>
<polygon fill="midnightblue" stroke="midnightblue" points="564.089,-120.5 554.089,-124 564.089,-127.5 564.089,-120.5"/>
</g>
<!-- Node11 -->
<g id="node11" class="node"><title>Node11</title>
<g id="a_node11"><a xlink:href="classtomoBay_1_1model_1_1dataTypes_1_1order_1_1Part.html#a21a16cfaa442e4ae57f10d8cc440c1fa" target="_top" xlink:title="default ctor ">
<polygon fill="white" stroke="black" points="840.5,-83 840.5,-113 1001.5,-113 1001.5,-83 840.5,-83"/>
<text text-anchor="start" x="848.5" y="-101" font-family="Helvetica,sans-Serif" font-size="10.00">tomoBay.model.dataTypes.order.</text>
<text text-anchor="middle" x="921" y="-90" font-family="Helvetica,sans-Serif" font-size="10.00">Part.Part</text>
</a>
</g>
</g>
<!-- Node10&#45;&gt;Node11 -->
<g id="edge10" class="edge"><title>Node10&#45;&gt;Node11</title>
<path fill="none" stroke="midnightblue" d="M779.815,-113.847C799.783,-111.59 820.816,-109.212 840.344,-107.005"/>
<polygon fill="midnightblue" stroke="midnightblue" points="779.341,-110.378 769.797,-114.979 780.127,-117.334 779.341,-110.378"/>
</g>
<!-- Node13 -->
<g id="node13" class="node"><title>Node13</title>
<g id="a_node13"><a xlink:href="classtomoBay_1_1model_1_1dataTypes_1_1order_1_1Part.html#aee50f745ad12c48b5f2dc8eda4fdd6ec" target="_top" xlink:title="retrieve the cost of this particular part from winstock ">
<polygon fill="white" stroke="black" points="608.5,-60 608.5,-90 769.5,-90 769.5,-60 608.5,-60"/>
<text text-anchor="start" x="616.5" y="-78" font-family="Helvetica,sans-Serif" font-size="10.00">tomoBay.model.dataTypes.order.</text>
<text text-anchor="middle" x="689" y="-67" font-family="Helvetica,sans-Serif" font-size="10.00">Part.getCost</text>
</a>
</g>
</g>
<!-- Node12&#45;&gt;Node13 -->
<g id="edge12" class="edge"><title>Node12&#45;&gt;Node13</title>
<path fill="none" stroke="midnightblue" d="M564.3,-75C579.116,-75 594.146,-75 608.383,-75"/>
<polygon fill="midnightblue" stroke="midnightblue" points="564.089,-71.5001 554.089,-75 564.089,-78.5001 564.089,-71.5001"/>
</g>
<!-- Node13&#45;&gt;Node11 -->
<g id="edge13" class="edge"><title>Node13&#45;&gt;Node11</title>
<path fill="none" stroke="midnightblue" d="M779.815,-83.9815C799.783,-85.9783 820.816,-88.0816 840.344,-90.0344"/>
<polygon fill="midnightblue" stroke="midnightblue" points="780.096,-80.4922 769.797,-82.9797 779.399,-87.4575 780.096,-80.4922"/>
</g>
<!-- Node15 -->
<g id="node15" class="node"><title>Node15</title>
<g id="a_node15"><a xlink:href="classtomoBay_1_1presenters_1_1presenterActions_1_1concreteActions_1_1GenerateRoyalMailCSV.html#a47374b8c1f5da171d280ddcb6b7df252" target="_top" xlink:title="queries winstock for the weight associated with the invoice number provided as an argument...">
<polygon fill="white" stroke="black" points="606,-0.5 606,-41.5 772,-41.5 772,-0.5 606,-0.5"/>
<text text-anchor="start" x="614" y="-29.5" font-family="Helvetica,sans-Serif" font-size="10.00">tomoBay.presenters.presenter</text>
<text text-anchor="start" x="614" y="-18.5" font-family="Helvetica,sans-Serif" font-size="10.00">Actions.concreteActions.Generate</text>
<text text-anchor="middle" x="689" y="-7.5" font-family="Helvetica,sans-Serif" font-size="10.00">RoyalMailCSV.getInvoiceWeight</text>
</a>
</g>
</g>
<!-- Node14&#45;&gt;Node15 -->
<g id="edge15" class="edge"><title>Node14&#45;&gt;Node15</title>
<path fill="none" stroke="midnightblue" d="M564.219,-22.6251C578.193,-22.4417 592.359,-22.2557 605.872,-22.0783"/>
<polygon fill="midnightblue" stroke="midnightblue" points="564.042,-19.1271 554.089,-22.7581 564.134,-26.1265 564.042,-19.1271"/>
</g>
<!-- Node16 -->
<g id="node16" class="node"><title>Node16</title>
<g id="a_node16"><a xlink:href="classtomoBay_1_1presenters_1_1presenterActions_1_1concreteActions_1_1GenerateRoyalMailCSV.html#adb3dedf31dc2c7fc796f20406c235ccd" target="_top" xlink:title="performs the action specified ">
<polygon fill="white" stroke="black" points="838,-0.5 838,-41.5 1004,-41.5 1004,-0.5 838,-0.5"/>
<text text-anchor="start" x="846" y="-29.5" font-family="Helvetica,sans-Serif" font-size="10.00">tomoBay.presenters.presenter</text>
<text text-anchor="start" x="846" y="-18.5" font-family="Helvetica,sans-Serif" font-size="10.00">Actions.concreteActions.Generate</text>
<text text-anchor="middle" x="921" y="-7.5" font-family="Helvetica,sans-Serif" font-size="10.00">RoyalMailCSV.execute</text>
</a>
</g>
</g>
<!-- Node15&#45;&gt;Node16 -->
<g id="edge16" class="edge"><title>Node15&#45;&gt;Node16</title>
<path fill="none" stroke="midnightblue" d="M782.209,-21C800.649,-21 819.903,-21 837.97,-21"/>
<polygon fill="midnightblue" stroke="midnightblue" points="782.061,-17.5001 772.061,-21 782.061,-24.5001 782.061,-17.5001"/>
</g>
<!-- Node17 -->
<g id="node17" class="node"><title>Node17</title>
<g id="a_node17"><a xlink:href="classtomoBayTests_1_1presenters_1_1presenterActions_1_1concreteActions_1_1GenerateRoyalMailCSVTest.html#a1b260e6772d2ced79e03e1c8c5acd12b" target="_top" xlink:title="tomoBayTests.presenters.presenter\lActions.concreteActions.GenerateRoyal\lMailCSVTest.testExecute">
<polygon fill="white" stroke="black" points="1055.5,-0.5 1055.5,-41.5 1246.5,-41.5 1246.5,-0.5 1055.5,-0.5"/>
<text text-anchor="start" x="1063.5" y="-29.5" font-family="Helvetica,sans-Serif" font-size="10.00">tomoBayTests.presenters.presenter</text>
<text text-anchor="start" x="1063.5" y="-18.5" font-family="Helvetica,sans-Serif" font-size="10.00">Actions.concreteActions.GenerateRoyal</text>
<text text-anchor="middle" x="1151" y="-7.5" font-family="Helvetica,sans-Serif" font-size="10.00">MailCSVTest.testExecute</text>
</a>
</g>
</g>
<!-- Node16&#45;&gt;Node17 -->
<g id="edge17" class="edge"><title>Node16&#45;&gt;Node17</title>
<path fill="none" stroke="midnightblue" d="M1014.53,-21C1028,-21 1041.89,-21 1055.41,-21"/>
<polygon fill="midnightblue" stroke="midnightblue" points="1014.31,-17.5001 1004.31,-21 1014.31,-24.5001 1014.31,-17.5001"/>
</g>
</g>
</svg>
