<?xml version="1.0" encoding="UTF-8" standalone="no"?>
<!DOCTYPE svg PUBLIC "-//W3C//DTD SVG 1.1//EN"
 "http://www.w3.org/Graphics/SVG/1.1/DTD/svg11.dtd">
<!-- Generated by graphviz version 2.38.0 (20140413.2041)
 -->
<!-- Title: Part Pages: 1 -->
<svg width="343pt" height="496pt"
 viewBox="0.00 0.00 343.00 496.00" xmlns="http://www.w3.org/2000/svg" xmlns:xlink="http://www.w3.org/1999/xlink">
<g id="graph0" class="graph" transform="scale(1 1) rotate(0) translate(4 492)">
<title>Part</title>
<polygon fill="white" stroke="none" points="-4,4 -4,-492 339,-492 339,4 -4,4"/>
<!-- Node1 -->
<g id="node1" class="node"><title>Node1</title>
<polygon fill="#bfbfbf" stroke="black" points="150.5,-0.5 150.5,-145.5 242.5,-145.5 242.5,-0.5 150.5,-0.5"/>
<text text-anchor="middle" x="196.5" y="-133.5" font-family="Helvetica,sans-Serif" font-size="10.00">Part</text>
<polyline fill="none" stroke="black" points="150.5,-126.5 242.5,-126.5 "/>
<text text-anchor="start" x="158.5" y="-114.5" font-family="Helvetica,sans-Serif" font-size="10.00">&#45; cost_M</text>
<text text-anchor="start" x="158.5" y="-103.5" font-family="Helvetica,sans-Serif" font-size="10.00">&#45; BADCHAR</text>
<polyline fill="none" stroke="black" points="150.5,-96.5 242.5,-96.5 "/>
<text text-anchor="start" x="158.5" y="-84.5" font-family="Helvetica,sans-Serif" font-size="10.00">+ Part()</text>
<text text-anchor="start" x="158.5" y="-73.5" font-family="Helvetica,sans-Serif" font-size="10.00">+ partNo()</text>
<text text-anchor="start" x="158.5" y="-62.5" font-family="Helvetica,sans-Serif" font-size="10.00">+ brand()</text>
<text text-anchor="start" x="158.5" y="-51.5" font-family="Helvetica,sans-Serif" font-size="10.00">+ description()</text>
<text text-anchor="start" x="158.5" y="-40.5" font-family="Helvetica,sans-Serif" font-size="10.00">+ cost()</text>
<text text-anchor="start" x="158.5" y="-29.5" font-family="Helvetica,sans-Serif" font-size="10.00">&#45; getCost()</text>
<text text-anchor="start" x="158.5" y="-18.5" font-family="Helvetica,sans-Serif" font-size="10.00">&#45; getDescription()</text>
<text text-anchor="start" x="158.5" y="-7.5" font-family="Helvetica,sans-Serif" font-size="10.00">&#45; badChar()</text>
</g>
<!-- Node2 -->
<g id="node2" class="node"><title>Node2</title>
<g id="a_node2"><a xlink:href="classtomoBay_1_1model_1_1winstock_1_1Stock.html" target="_top" xlink:title="This class is responsible for querying winstock for information. ">
<polygon fill="white" stroke="black" points="1.5,-193.5 1.5,-349.5 127.5,-349.5 127.5,-193.5 1.5,-193.5"/>
<text text-anchor="middle" x="64.5" y="-337.5" font-family="Helvetica,sans-Serif" font-size="10.00">Stock</text>
<polyline fill="none" stroke="black" points="1.5,-330.5 127.5,-330.5 "/>
<text text-anchor="start" x="9.5" y="-318.5" font-family="Helvetica,sans-Serif" font-size="10.00">+ ERROR</text>
<text text-anchor="start" x="9.5" y="-307.5" font-family="Helvetica,sans-Serif" font-size="10.00">&#45; HTTP_HEADER</text>
<text text-anchor="start" x="9.5" y="-296.5" font-family="Helvetica,sans-Serif" font-size="10.00">&#45; URL_PT1_M</text>
<text text-anchor="start" x="9.5" y="-285.5" font-family="Helvetica,sans-Serif" font-size="10.00">&#45; URL_PT2_M</text>
<polyline fill="none" stroke="black" points="1.5,-278.5 127.5,-278.5 "/>
<text text-anchor="start" x="9.5" y="-266.5" font-family="Helvetica,sans-Serif" font-size="10.00">+ Stock()</text>
<text text-anchor="start" x="9.5" y="-255.5" font-family="Helvetica,sans-Serif" font-size="10.00">+ requestStockLevel()</text>
<text text-anchor="start" x="9.5" y="-244.5" font-family="Helvetica,sans-Serif" font-size="10.00">+ requestDescription()</text>
<text text-anchor="start" x="9.5" y="-233.5" font-family="Helvetica,sans-Serif" font-size="10.00">+ requestLastCost()</text>
<text text-anchor="start" x="9.5" y="-222.5" font-family="Helvetica,sans-Serif" font-size="10.00">+ requestInvoiceWeight()</text>
<text text-anchor="start" x="9.5" y="-211.5" font-family="Helvetica,sans-Serif" font-size="10.00">&#45; queryWinstockURL()</text>
<text text-anchor="start" x="9.5" y="-200.5" font-family="Helvetica,sans-Serif" font-size="10.00">&#45; postFormatXMLString()</text>
</a>
</g>
</g>
<!-- Node2&#45;&gt;Node1 -->
<g id="edge1" class="edge"><title>Node2&#45;&gt;Node1</title>
<path fill="none" stroke="#404040" d="M116.291,-193.402C125.27,-180.036 134.617,-166.121 143.624,-152.713"/>
<polygon fill="none" stroke="#404040" points="143.743,-152.536 143.768,-145.325 150.434,-142.575 150.409,-149.786 143.743,-152.536"/>
<text text-anchor="middle" x="164" y="-167" font-family="Helvetica,sans-Serif" font-size="10.00"> &#45;winstock_M</text>
</g>
<!-- Node3 -->
<g id="node3" class="node"><title>Node3</title>
<g id="a_node3"><a xlink:href="classtomoBay_1_1model_1_1net_1_1HttpResponse.html" target="_top" xlink:title="Copyright(C) 2015 Jan P.C. ">
<polygon fill="white" stroke="black" points="0,-397.5 0,-487.5 129,-487.5 129,-397.5 0,-397.5"/>
<text text-anchor="middle" x="64.5" y="-475.5" font-family="Helvetica,sans-Serif" font-size="10.00">HttpResponse</text>
<polyline fill="none" stroke="black" points="0,-468.5 129,-468.5 "/>
<text text-anchor="start" x="8" y="-456.5" font-family="Helvetica,sans-Serif" font-size="10.00">&#45; responseCode_M</text>
<text text-anchor="start" x="8" y="-445.5" font-family="Helvetica,sans-Serif" font-size="10.00">&#45; responseMessage_M</text>
<polyline fill="none" stroke="black" points="0,-438.5 129,-438.5 "/>
<text text-anchor="start" x="8" y="-426.5" font-family="Helvetica,sans-Serif" font-size="10.00">+ HttpResponse()</text>
<text text-anchor="start" x="8" y="-415.5" font-family="Helvetica,sans-Serif" font-size="10.00">+ getResponseCode()</text>
<text text-anchor="start" x="8" y="-404.5" font-family="Helvetica,sans-Serif" font-size="10.00">+ getResponseMessage()</text>
</a>
</g>
</g>
<!-- Node3&#45;&gt;Node2 -->
<g id="edge2" class="edge"><title>Node3&#45;&gt;Node2</title>
<path fill="none" stroke="#404040" d="M64.5,-397.097C64.5,-386.168 64.5,-374.075 64.5,-361.845"/>
<polygon fill="none" stroke="#404040" points="64.5001,-361.609 60.5,-355.609 64.5,-349.609 68.5,-355.609 64.5001,-361.609"/>
<text text-anchor="middle" x="94.5" y="-371" font-family="Helvetica,sans-Serif" font-size="10.00"> &#45;response_M</text>
</g>
<!-- Node4 -->
<g id="node4" class="node"><title>Node4</title>
<polygon fill="white" stroke="#bfbfbf" points="146,-237.5 146,-305.5 335,-305.5 335,-237.5 146,-237.5"/>
<text text-anchor="start" x="154" y="-293.5" font-family="Helvetica,sans-Serif" font-size="10.00">Map&lt; tomoBay.model.dataTypes.order.</text>
<text text-anchor="middle" x="240.5" y="-282.5" font-family="Helvetica,sans-Serif" font-size="10.00">Part.stringTypes, String &gt;</text>
<polyline fill="none" stroke="#bfbfbf" points="146,-275.5 335,-275.5 "/>
<text text-anchor="middle" x="240.5" y="-263.5" font-family="Helvetica,sans-Serif" font-size="10.00"> </text>
<polyline fill="none" stroke="#bfbfbf" points="146,-256.5 335,-256.5 "/>
<text text-anchor="middle" x="240.5" y="-244.5" font-family="Helvetica,sans-Serif" font-size="10.00"> </text>
</g>
<!-- Node4&#45;&gt;Node1 -->
<g id="edge3" class="edge"><title>Node4&#45;&gt;Node1</title>
<path fill="none" stroke="#404040" d="M233.036,-237.166C228.145,-215.322 221.518,-185.728 215.251,-157.74"/>
<polygon fill="none" stroke="#404040" points="215.215,-157.581 210.001,-152.6 212.593,-145.871 217.808,-150.852 215.215,-157.581"/>
<text text-anchor="middle" x="262.5" y="-167" font-family="Helvetica,sans-Serif" font-size="10.00"> &#45;stringProperties_M</text>
</g>
</g>
</svg>
