<?xml version="1.0" encoding="UTF-8" standalone="no"?>
<!DOCTYPE svg PUBLIC "-//W3C//DTD SVG 1.1//EN"
 "http://www.w3.org/Graphics/SVG/1.1/DTD/svg11.dtd">
<!-- Generated by graphviz version 2.38.0 (20140413.2041)
 -->
<!-- Title: execute Pages: 1 -->
<svg width="666pt" height="295pt"
 viewBox="0.00 0.00 666.00 294.50" xmlns="http://www.w3.org/2000/svg" xmlns:xlink="http://www.w3.org/1999/xlink">
<g id="graph0" class="graph" transform="scale(1 1) rotate(0) translate(4 290.5)">
<title>execute</title>
<polygon fill="white" stroke="none" points="-4,4 -4,-290.5 662,-290.5 662,4 -4,4"/>
<!-- Node1 -->
<g id="node1" class="node"><title>Node1</title>
<polygon fill="#bfbfbf" stroke="black" points="0,-191 0,-210 51,-210 51,-191 0,-191"/>
<text text-anchor="middle" x="25.5" y="-198" font-family="Helvetica,sans-Serif" font-size="10.00">execute</text>
</g>
<!-- Node2 -->
<g id="node2" class="node"><title>Node2</title>
<g id="a_node2"><a xlink:href="classtomoBay_1_1presenters_1_1presenterActions_1_1concreteActions_1_1StockReOrderAnalysis.html#acc4a7bb3ba4dae069626093c6aeb24ab" target="_top" xlink:title="convert a JSON formatted string to a JsonObject ">
<polygon fill="white" stroke="black" points="105,-267 105,-286 188,-286 188,-267 105,-267"/>
<text text-anchor="middle" x="146.5" y="-274" font-family="Helvetica,sans-Serif" font-size="10.00">convertToJSon</text>
</a>
</g>
</g>
<!-- Node1&#45;&gt;Node2 -->
<g id="edge1" class="edge"><title>Node1&#45;&gt;Node2</title>
<path fill="none" stroke="midnightblue" d="M34.4959,-210.359C45.2109,-222.969 65.3967,-244.702 87,-257.5 90.4668,-259.554 94.1826,-261.415 97.9986,-263.096"/>
<polygon fill="midnightblue" stroke="midnightblue" points="97.0203,-266.473 107.606,-266.908 99.6025,-259.966 97.0203,-266.473"/>
</g>
<!-- Node3 -->
<g id="node3" class="node"><title>Node3</title>
<g id="a_node3"><a xlink:href="classtomoBay_1_1presenters_1_1presenterActions_1_1concreteActions_1_1StockReOrderAnalysis.html#af56b8c3f045bfbde156a79229b3c162d" target="_top" xlink:title="createSuggestedOrders">
<polygon fill="white" stroke="black" points="87,-229 87,-248 206,-248 206,-229 87,-229"/>
<text text-anchor="middle" x="146.5" y="-236" font-family="Helvetica,sans-Serif" font-size="10.00">createSuggestedOrders</text>
</a>
</g>
</g>
<!-- Node1&#45;&gt;Node3 -->
<g id="edge2" class="edge"><title>Node1&#45;&gt;Node3</title>
<path fill="none" stroke="midnightblue" d="M51.1569,-208.374C66.8956,-213.399 87.6564,-220.029 105.695,-225.789"/>
<polygon fill="midnightblue" stroke="midnightblue" points="104.796,-229.176 115.387,-228.884 106.926,-222.508 104.796,-229.176"/>
</g>
<!-- Node4 -->
<g id="node4" class="node"><title>Node4</title>
<g id="a_node4"><a xlink:href="classtomoBay_1_1presenters_1_1presenterActions_1_1concreteActions_1_1StockReOrderAnalysis.html#a37c7c2ac4b4eb6f863abf40b6f13fa85" target="_top" xlink:title="formats the processed data ">
<polygon fill="white" stroke="black" points="90.5,-191 90.5,-210 202.5,-210 202.5,-191 90.5,-191"/>
<text text-anchor="middle" x="146.5" y="-198" font-family="Helvetica,sans-Serif" font-size="10.00">formatResultAsJSON</text>
</a>
</g>
</g>
<!-- Node1&#45;&gt;Node4 -->
<g id="edge3" class="edge"><title>Node1&#45;&gt;Node4</title>
<path fill="none" stroke="midnightblue" d="M51.1569,-200.5C59.824,-200.5 70.0142,-200.5 80.434,-200.5"/>
<polygon fill="midnightblue" stroke="midnightblue" points="80.4523,-204 90.4523,-200.5 80.4522,-197 80.4523,-204"/>
</g>
<!-- Node5 -->
<g id="node5" class="node"><title>Node5</title>
<g id="a_node5"><a xlink:href="classtomoBay_1_1presenters_1_1presenterActions_1_1concreteActions_1_1StockReOrderAnalysis.html#aad0c6a3cc44d4900e7b9de0a3bacfc01" target="_top" xlink:title="grab the history of the last &#39;lookback&#39; days worth of listings part numbers and the number of those l...">
<polygon fill="white" stroke="black" points="112.5,-153 112.5,-172 180.5,-172 180.5,-153 112.5,-153"/>
<text text-anchor="middle" x="146.5" y="-160" font-family="Helvetica,sans-Serif" font-size="10.00">grabDBdata</text>
</a>
</g>
</g>
<!-- Node1&#45;&gt;Node5 -->
<g id="edge4" class="edge"><title>Node1&#45;&gt;Node5</title>
<path fill="none" stroke="midnightblue" d="M51.1569,-192.626C66.8956,-187.601 87.6564,-180.971 105.695,-175.211"/>
<polygon fill="midnightblue" stroke="midnightblue" points="106.926,-178.492 115.387,-172.116 104.796,-171.824 106.926,-178.492"/>
</g>
<!-- Node9 -->
<g id="node9" class="node"><title>Node9</title>
<g id="a_node9"><a xlink:href="classtomoBay_1_1presenters_1_1presenterActions_1_1concreteActions_1_1StockReOrderAnalysis.html#aa02134599fcce4d6b039274ae5b45b4c" target="_top" xlink:title="Takes the database data and processes it so that the composite part number provided by the database i...">
<polygon fill="white" stroke="black" points="104.5,-79 104.5,-98 188.5,-98 188.5,-79 104.5,-79"/>
<text text-anchor="middle" x="146.5" y="-86" font-family="Helvetica,sans-Serif" font-size="10.00">processDBdata</text>
</a>
</g>
</g>
<!-- Node1&#45;&gt;Node9 -->
<g id="edge8" class="edge"><title>Node1&#45;&gt;Node9</title>
<path fill="none" stroke="midnightblue" d="M36.7735,-190.815C48.8073,-179.471 69.3455,-160.116 87,-143.5 100.691,-130.614 116.194,-116.04 127.799,-105.132"/>
<polygon fill="midnightblue" stroke="midnightblue" points="130.251,-107.632 135.141,-98.2331 125.457,-102.531 130.251,-107.632"/>
</g>
<!-- Node6 -->
<g id="node6" class="node"><title>Node6</title>
<g id="a_node6"><a xlink:href="classtomoBay_1_1model_1_1dataTypes_1_1heteroTypeContainer_1_1HeteroFieldContainer.html#a3ba6289417930238a36bfee0056b6398" target="_top" xlink:title="add an arbitrary value to this Field container with the stipulation that this value is of the same ty...">
<polygon fill="white" stroke="black" points="242,-196.5 242,-226.5 436,-226.5 436,-196.5 242,-196.5"/>
<text text-anchor="start" x="250" y="-214.5" font-family="Helvetica,sans-Serif" font-size="10.00">tomoBay.model.dataTypes.hetero</text>
<text text-anchor="middle" x="339" y="-203.5" font-family="Helvetica,sans-Serif" font-size="10.00">TypeContainer.HeteroFieldContainer.add</text>
</a>
</g>
</g>
<!-- Node5&#45;&gt;Node6 -->
<g id="edge5" class="edge"><title>Node5&#45;&gt;Node6</title>
<path fill="none" stroke="midnightblue" d="M180.683,-171.035C205.105,-177.317 239.17,-186.079 269.358,-193.844"/>
<polygon fill="midnightblue" stroke="midnightblue" points="268.871,-197.333 279.427,-196.434 270.615,-190.553 268.871,-197.333"/>
</g>
<!-- Node8 -->
<g id="node8" class="node"><title>Node8</title>
<g id="a_node8"><a xlink:href="classtomoBay_1_1model_1_1sql_1_1framework_1_1SelectQueryInvoker.html#a594282bcbcc0731a7d234482717422d7" target="_top" xlink:title="execute a requested query ">
<polygon fill="white" stroke="black" points="263,-147.5 263,-177.5 415,-177.5 415,-147.5 263,-147.5"/>
<text text-anchor="start" x="271" y="-165.5" font-family="Helvetica,sans-Serif" font-size="10.00">tomoBay.model.sql.framework.</text>
<text text-anchor="middle" x="339" y="-154.5" font-family="Helvetica,sans-Serif" font-size="10.00">SelectQueryInvoker.execute</text>
</a>
</g>
</g>
<!-- Node5&#45;&gt;Node8 -->
<g id="edge7" class="edge"><title>Node5&#45;&gt;Node8</title>
<path fill="none" stroke="midnightblue" d="M180.683,-162.5C200.728,-162.5 227.268,-162.5 252.83,-162.5"/>
<polygon fill="midnightblue" stroke="midnightblue" points="252.94,-166 262.94,-162.5 252.94,-159 252.94,-166"/>
</g>
<!-- Node7 -->
<g id="node7" class="node"><title>Node7</title>
<g id="a_node7"><a xlink:href="classtomoBay_1_1model_1_1dataTypes_1_1heteroTypeContainer_1_1HeteroFieldContainer.html#a9dee3c01eb5ab16203e1c6820a569484" target="_top" xlink:title="performs a type check, assuming that field and type are of the same type then this method returns tru...">
<polygon fill="white" stroke="black" points="472,-191 472,-232 658,-232 658,-191 472,-191"/>
<text text-anchor="start" x="480" y="-220" font-family="Helvetica,sans-Serif" font-size="10.00">tomoBay.model.dataTypes.hetero</text>
<text text-anchor="start" x="480" y="-209" font-family="Helvetica,sans-Serif" font-size="10.00">TypeContainer.HeteroFieldContainer.is</text>
<text text-anchor="middle" x="565" y="-198" font-family="Helvetica,sans-Serif" font-size="10.00">SameType</text>
</a>
</g>
</g>
<!-- Node6&#45;&gt;Node7 -->
<g id="edge6" class="edge"><title>Node6&#45;&gt;Node7</title>
<path fill="none" stroke="midnightblue" d="M436.296,-211.5C444.642,-211.5 453.106,-211.5 461.499,-211.5"/>
<polygon fill="midnightblue" stroke="midnightblue" points="461.688,-215 471.688,-211.5 461.688,-208 461.688,-215"/>
</g>
<!-- Node10 -->
<g id="node10" class="node"><title>Node10</title>
<g id="a_node10"><a xlink:href="classtomoBay_1_1model_1_1dataTypes_1_1PartList.html#af4b57d21919c42d55af03391f91a1c08" target="_top" xlink:title="the size of the part list. ">
<polygon fill="white" stroke="black" points="270.5,-98.5 270.5,-128.5 407.5,-128.5 407.5,-98.5 270.5,-98.5"/>
<text text-anchor="start" x="278.5" y="-116.5" font-family="Helvetica,sans-Serif" font-size="10.00">tomoBay.model.dataTypes.</text>
<text text-anchor="middle" x="339" y="-105.5" font-family="Helvetica,sans-Serif" font-size="10.00">PartList.size</text>
</a>
</g>
</g>
<!-- Node9&#45;&gt;Node10 -->
<g id="edge9" class="edge"><title>Node9&#45;&gt;Node10</title>
<path fill="none" stroke="midnightblue" d="M188.836,-93.9246C209.706,-96.6635 235.726,-100.078 260.163,-103.285"/>
<polygon fill="midnightblue" stroke="midnightblue" points="259.785,-106.766 270.156,-104.597 260.696,-99.825 259.785,-106.766"/>
</g>
<!-- Node11 -->
<g id="node11" class="node"><title>Node11</title>
<g id="a_node11"><a xlink:href="classtomoBay_1_1model_1_1dataTypes_1_1PartList.html#ab743beefffd4d159c3b91639caee92da" target="_top" xlink:title="get the part number at position i in the list ">
<polygon fill="white" stroke="black" points="270.5,-49.5 270.5,-79.5 407.5,-79.5 407.5,-49.5 270.5,-49.5"/>
<text text-anchor="start" x="278.5" y="-67.5" font-family="Helvetica,sans-Serif" font-size="10.00">tomoBay.model.dataTypes.</text>
<text text-anchor="middle" x="339" y="-56.5" font-family="Helvetica,sans-Serif" font-size="10.00">PartList.getPartNumber</text>
</a>
</g>
</g>
<!-- Node9&#45;&gt;Node11 -->
<g id="edge10" class="edge"><title>Node9&#45;&gt;Node11</title>
<path fill="none" stroke="midnightblue" d="M188.836,-83.2924C209.706,-80.663 235.726,-77.3849 260.163,-74.3062"/>
<polygon fill="midnightblue" stroke="midnightblue" points="260.672,-77.7699 270.156,-73.0473 259.797,-70.8248 260.672,-77.7699"/>
</g>
<!-- Node12 -->
<g id="node12" class="node"><title>Node12</title>
<g id="a_node12"><a xlink:href="classtomoBay_1_1model_1_1dataTypes_1_1PartList.html#a5bebcb62b6ffa7676eacf169f0bfe603" target="_top" xlink:title="get the quantity of the part number at position i in the list ">
<polygon fill="white" stroke="black" points="270.5,-0.5 270.5,-30.5 407.5,-30.5 407.5,-0.5 270.5,-0.5"/>
<text text-anchor="start" x="278.5" y="-18.5" font-family="Helvetica,sans-Serif" font-size="10.00">tomoBay.model.dataTypes.</text>
<text text-anchor="middle" x="339" y="-7.5" font-family="Helvetica,sans-Serif" font-size="10.00">PartList.getPartQty</text>
</a>
</g>
</g>
<!-- Node9&#45;&gt;Node12 -->
<g id="edge11" class="edge"><title>Node9&#45;&gt;Node12</title>
<path fill="none" stroke="midnightblue" d="M163.357,-78.8104C181.714,-67.945 213.134,-50.4202 242,-39.5 247.905,-37.2661 254.093,-35.1789 260.361,-33.2425"/>
<polygon fill="midnightblue" stroke="midnightblue" points="261.648,-36.5121 270.248,-30.3241 259.666,-29.7985 261.648,-36.5121"/>
</g>
</g>
</svg>
