<?xml version="1.0" encoding="UTF-8" standalone="no"?>
<!DOCTYPE svg PUBLIC "-//W3C//DTD SVG 1.1//EN"
 "http://www.w3.org/Graphics/SVG/1.1/DTD/svg11.dtd">
<!-- Generated by graphviz version 2.38.0 (20140413.2041)
 -->
<!-- Title: invoiceNumber Pages: 1 -->
<svg width="737pt" height="83pt"
 viewBox="0.00 0.00 737.00 83.00" xmlns="http://www.w3.org/2000/svg" xmlns:xlink="http://www.w3.org/1999/xlink">
<g id="graph0" class="graph" transform="scale(1 1) rotate(0) translate(4 79)">
<title>invoiceNumber</title>
<polygon fill="white" stroke="none" points="-4,4 -4,-79 733,-79 733,4 -4,4"/>
<!-- Node1 -->
<g id="node1" class="node"><title>Node1</title>
<polygon fill="#bfbfbf" stroke="black" points="0,-22.5 0,-41.5 82,-41.5 82,-22.5 0,-22.5"/>
<text text-anchor="middle" x="41" y="-29.5" font-family="Helvetica,sans-Serif" font-size="10.00">invoiceNumber</text>
</g>
<!-- Node2 -->
<g id="node2" class="node"><title>Node2</title>
<g id="a_node2"><a xlink:href="classtomoBay_1_1model_1_1dataTypes_1_1order_1_1Order.html#a71ffaf8494f38432864d46ea421343fc" target="_top" xlink:title="retrieve the invoice number from this order(if it has one) ">
<polygon fill="white" stroke="black" points="118,-39 118,-69 279,-69 279,-39 118,-39"/>
<text text-anchor="start" x="126" y="-57" font-family="Helvetica,sans-Serif" font-size="10.00">tomoBay.model.dataTypes.order.</text>
<text text-anchor="middle" x="198.5" y="-46" font-family="Helvetica,sans-Serif" font-size="10.00">Order.invoiceNo</text>
</a>
</g>
</g>
<!-- Node1&#45;&gt;Node2 -->
<g id="edge1" class="edge"><title>Node1&#45;&gt;Node2</title>
<path fill="none" stroke="midnightblue" d="M82.0451,-37.6655C90.0217,-38.7941 98.6968,-40.0214 107.59,-41.2796"/>
<polygon fill="midnightblue" stroke="midnightblue" points="107.305,-44.7741 117.697,-42.7095 108.286,-37.8431 107.305,-44.7741"/>
</g>
<!-- Node5 -->
<g id="node5" class="node"><title>Node5</title>
<g id="a_node5"><a xlink:href="classtomoBay_1_1model_1_1dataTypes_1_1financial_1_1SalesOrderDayBook_1_1AbstractSalesDayBookLine.html#afacf6217c7f58a049b532205066da488" target="_top" xlink:title="retrieve the order that this AbstractSalesDayBookLine refers to. ">
<polygon fill="white" stroke="black" points="171,-0.5 171,-19.5 226,-19.5 226,-0.5 171,-0.5"/>
<text text-anchor="middle" x="198.5" y="-7.5" font-family="Helvetica,sans-Serif" font-size="10.00">orderInfo</text>
</a>
</g>
</g>
<!-- Node1&#45;&gt;Node5 -->
<g id="edge4" class="edge"><title>Node1&#45;&gt;Node5</title>
<path fill="none" stroke="midnightblue" d="M82.0451,-26.3345C106.345,-22.8965 137.129,-18.5412 160.797,-15.1926"/>
<polygon fill="midnightblue" stroke="midnightblue" points="161.382,-18.6448 170.793,-13.7784 160.402,-11.7139 161.382,-18.6448"/>
</g>
<!-- Node3 -->
<g id="node3" class="node"><title>Node3</title>
<g id="a_node3"><a xlink:href="classtomoBay_1_1model_1_1dataTypes_1_1heteroTypeContainer_1_1HeteroFieldContainer.html#a988363ab964d6dc0ccb8560bef5895b6" target="_top" xlink:title="retrieve the the value of an AbstractField from this HeteroFieldContainer, the field should be of the...">
<polygon fill="white" stroke="black" points="315,-39 315,-69 507,-69 507,-39 315,-39"/>
<text text-anchor="start" x="323" y="-57" font-family="Helvetica,sans-Serif" font-size="10.00">tomoBay.model.dataTypes.hetero</text>
<text text-anchor="middle" x="411" y="-46" font-family="Helvetica,sans-Serif" font-size="10.00">TypeContainer.HeteroFieldContainer.get</text>
</a>
</g>
</g>
<!-- Node2&#45;&gt;Node3 -->
<g id="edge2" class="edge"><title>Node2&#45;&gt;Node3</title>
<path fill="none" stroke="midnightblue" d="M279.081,-54C287.449,-54 296.048,-54 304.647,-54"/>
<polygon fill="midnightblue" stroke="midnightblue" points="304.729,-57.5001 314.729,-54 304.729,-50.5001 304.729,-57.5001"/>
</g>
<!-- Node4 -->
<g id="node4" class="node"><title>Node4</title>
<g id="a_node4"><a xlink:href="classtomoBay_1_1model_1_1dataTypes_1_1heteroTypeContainer_1_1HeteroFieldContainer.html#a9dee3c01eb5ab16203e1c6820a569484" target="_top" xlink:title="performs a type check, assuming that field and type are of the same type then this method returns tru...">
<polygon fill="white" stroke="black" points="543,-33.5 543,-74.5 729,-74.5 729,-33.5 543,-33.5"/>
<text text-anchor="start" x="551" y="-62.5" font-family="Helvetica,sans-Serif" font-size="10.00">tomoBay.model.dataTypes.hetero</text>
<text text-anchor="start" x="551" y="-51.5" font-family="Helvetica,sans-Serif" font-size="10.00">TypeContainer.HeteroFieldContainer.is</text>
<text text-anchor="middle" x="636" y="-40.5" font-family="Helvetica,sans-Serif" font-size="10.00">SameType</text>
</a>
</g>
</g>
<!-- Node3&#45;&gt;Node4 -->
<g id="edge3" class="edge"><title>Node3&#45;&gt;Node4</title>
<path fill="none" stroke="midnightblue" d="M507.219,-54C515.728,-54 524.365,-54 532.929,-54"/>
<polygon fill="midnightblue" stroke="midnightblue" points="532.934,-57.5001 542.934,-54 532.934,-50.5001 532.934,-57.5001"/>
</g>
</g>
</svg>
