<?xml version="1.0" encoding="UTF-8" standalone="no"?>
<!DOCTYPE svg PUBLIC "-//W3C//DTD SVG 1.1//EN"
 "http://www.w3.org/Graphics/SVG/1.1/DTD/svg11.dtd">
<!-- Generated by graphviz version 2.38.0 (20140413.2041)
 -->
<!-- Title: testExecuteBadData Pages: 1 -->
<svg width="987pt" height="290pt"
 viewBox="0.00 0.00 987.00 290.00" xmlns="http://www.w3.org/2000/svg" xmlns:xlink="http://www.w3.org/1999/xlink">
<g id="graph0" class="graph" transform="scale(1 1) rotate(0) translate(4 286)">
<title>testExecuteBadData</title>
<polygon fill="white" stroke="none" points="-4,4 -4,-286 983,-286 983,4 -4,4"/>
<!-- Node1 -->
<g id="node1" class="node"><title>Node1</title>
<polygon fill="#bfbfbf" stroke="black" points="0,-131.5 0,-150.5 107,-150.5 107,-131.5 0,-131.5"/>
<text text-anchor="middle" x="53.5" y="-138.5" font-family="Helvetica,sans-Serif" font-size="10.00">testExecuteBadData</text>
</g>
<!-- Node2 -->
<g id="node2" class="node"><title>Node2</title>
<g id="a_node2"><a xlink:href="classtomoBay_1_1presenters_1_1presenterActions_1_1concreteActions_1_1StockReOrderAnalysis.html#adb3dedf31dc2c7fc796f20406c235ccd" target="_top" xlink:title="performs the action specified ">
<polygon fill="white" stroke="black" points="143,-120.5 143,-161.5 307,-161.5 307,-120.5 143,-120.5"/>
<text text-anchor="start" x="151" y="-149.5" font-family="Helvetica,sans-Serif" font-size="10.00">tomoBay.presenters.presenter</text>
<text text-anchor="start" x="151" y="-138.5" font-family="Helvetica,sans-Serif" font-size="10.00">Actions.concreteActions.StockRe</text>
<text text-anchor="middle" x="225" y="-127.5" font-family="Helvetica,sans-Serif" font-size="10.00">OrderAnalysis.execute</text>
</a>
</g>
</g>
<!-- Node1&#45;&gt;Node2 -->
<g id="edge1" class="edge"><title>Node1&#45;&gt;Node2</title>
<path fill="none" stroke="midnightblue" d="M107.202,-141C115.304,-141 123.865,-141 132.52,-141"/>
<polygon fill="midnightblue" stroke="midnightblue" points="132.702,-144.5 142.702,-141 132.702,-137.5 132.702,-144.5"/>
</g>
<!-- Node3 -->
<g id="node3" class="node"><title>Node3</title>
<g id="a_node3"><a xlink:href="classtomoBay_1_1presenters_1_1presenterActions_1_1concreteActions_1_1StockReOrderAnalysis.html#acc4a7bb3ba4dae069626093c6aeb24ab" target="_top" xlink:title="convert a JSON formatted string to a JsonObject ">
<polygon fill="white" stroke="black" points="353,-240.5 353,-281.5 517,-281.5 517,-240.5 353,-240.5"/>
<text text-anchor="start" x="361" y="-269.5" font-family="Helvetica,sans-Serif" font-size="10.00">tomoBay.presenters.presenter</text>
<text text-anchor="start" x="361" y="-258.5" font-family="Helvetica,sans-Serif" font-size="10.00">Actions.concreteActions.StockRe</text>
<text text-anchor="middle" x="435" y="-247.5" font-family="Helvetica,sans-Serif" font-size="10.00">OrderAnalysis.convertToJSon</text>
</a>
</g>
</g>
<!-- Node2&#45;&gt;Node3 -->
<g id="edge2" class="edge"><title>Node2&#45;&gt;Node3</title>
<path fill="none" stroke="midnightblue" d="M248.154,-161.758C270.579,-181.829 306.992,-211.929 343,-231 346.537,-232.873 350.214,-234.66 353.972,-236.359"/>
<polygon fill="midnightblue" stroke="midnightblue" points="352.877,-239.697 363.448,-240.402 355.624,-233.258 352.877,-239.697"/>
</g>
<!-- Node4 -->
<g id="node4" class="node"><title>Node4</title>
<g id="a_node4"><a xlink:href="classtomoBay_1_1presenters_1_1presenterActions_1_1concreteActions_1_1StockReOrderAnalysis.html#af56b8c3f045bfbde156a79229b3c162d" target="_top" xlink:title="tomoBay.presenters.presenter\lActions.concreteActions.StockRe\lOrderAnalysis.createSuggestedOrders">
<polygon fill="white" stroke="black" points="343,-180.5 343,-221.5 527,-221.5 527,-180.5 343,-180.5"/>
<text text-anchor="start" x="351" y="-209.5" font-family="Helvetica,sans-Serif" font-size="10.00">tomoBay.presenters.presenter</text>
<text text-anchor="start" x="351" y="-198.5" font-family="Helvetica,sans-Serif" font-size="10.00">Actions.concreteActions.StockRe</text>
<text text-anchor="middle" x="435" y="-187.5" font-family="Helvetica,sans-Serif" font-size="10.00">OrderAnalysis.createSuggestedOrders</text>
</a>
</g>
</g>
<!-- Node2&#45;&gt;Node4 -->
<g id="edge3" class="edge"><title>Node2&#45;&gt;Node4</title>
<path fill="none" stroke="midnightblue" d="M297.291,-161.565C315.234,-166.741 334.624,-172.334 353.004,-177.636"/>
<polygon fill="midnightblue" stroke="midnightblue" points="352.224,-181.053 362.802,-180.462 354.164,-174.328 352.224,-181.053"/>
</g>
<!-- Node5 -->
<g id="node5" class="node"><title>Node5</title>
<g id="a_node5"><a xlink:href="classtomoBay_1_1presenters_1_1presenterActions_1_1concreteActions_1_1StockReOrderAnalysis.html#a37c7c2ac4b4eb6f863abf40b6f13fa85" target="_top" xlink:title="formats the processed data ">
<polygon fill="white" stroke="black" points="347,-120.5 347,-161.5 523,-161.5 523,-120.5 347,-120.5"/>
<text text-anchor="start" x="355" y="-149.5" font-family="Helvetica,sans-Serif" font-size="10.00">tomoBay.presenters.presenter</text>
<text text-anchor="start" x="355" y="-138.5" font-family="Helvetica,sans-Serif" font-size="10.00">Actions.concreteActions.StockRe</text>
<text text-anchor="middle" x="435" y="-127.5" font-family="Helvetica,sans-Serif" font-size="10.00">OrderAnalysis.formatResultAsJSON</text>
</a>
</g>
</g>
<!-- Node2&#45;&gt;Node5 -->
<g id="edge4" class="edge"><title>Node2&#45;&gt;Node5</title>
<path fill="none" stroke="midnightblue" d="M307.014,-141C316.665,-141 326.594,-141 336.446,-141"/>
<polygon fill="midnightblue" stroke="midnightblue" points="336.67,-144.5 346.67,-141 336.67,-137.5 336.67,-144.5"/>
</g>
<!-- Node6 -->
<g id="node6" class="node"><title>Node6</title>
<g id="a_node6"><a xlink:href="classtomoBay_1_1presenters_1_1presenterActions_1_1concreteActions_1_1StockReOrderAnalysis.html#aad0c6a3cc44d4900e7b9de0a3bacfc01" target="_top" xlink:title="grab the history of the last &#39;lookback&#39; days worth of listings part numbers and the number of those l...">
<polygon fill="white" stroke="black" points="353,-60.5 353,-101.5 517,-101.5 517,-60.5 353,-60.5"/>
<text text-anchor="start" x="361" y="-89.5" font-family="Helvetica,sans-Serif" font-size="10.00">tomoBay.presenters.presenter</text>
<text text-anchor="start" x="361" y="-78.5" font-family="Helvetica,sans-Serif" font-size="10.00">Actions.concreteActions.StockRe</text>
<text text-anchor="middle" x="435" y="-67.5" font-family="Helvetica,sans-Serif" font-size="10.00">OrderAnalysis.grabDBdata</text>
</a>
</g>
</g>
<!-- Node2&#45;&gt;Node6 -->
<g id="edge5" class="edge"><title>Node2&#45;&gt;Node6</title>
<path fill="none" stroke="midnightblue" d="M297.291,-120.435C315.234,-115.259 334.624,-109.666 353.004,-104.364"/>
<polygon fill="midnightblue" stroke="midnightblue" points="354.164,-107.672 362.802,-101.538 352.224,-100.947 354.164,-107.672"/>
</g>
<!-- Node10 -->
<g id="node10" class="node"><title>Node10</title>
<g id="a_node10"><a xlink:href="classtomoBay_1_1presenters_1_1presenterActions_1_1concreteActions_1_1StockReOrderAnalysis.html#aa02134599fcce4d6b039274ae5b45b4c" target="_top" xlink:title="Takes the database data and processes it so that the composite part number provided by the database i...">
<polygon fill="white" stroke="black" points="353,-0.5 353,-41.5 517,-41.5 517,-0.5 353,-0.5"/>
<text text-anchor="start" x="361" y="-29.5" font-family="Helvetica,sans-Serif" font-size="10.00">tomoBay.presenters.presenter</text>
<text text-anchor="start" x="361" y="-18.5" font-family="Helvetica,sans-Serif" font-size="10.00">Actions.concreteActions.StockRe</text>
<text text-anchor="middle" x="435" y="-7.5" font-family="Helvetica,sans-Serif" font-size="10.00">OrderAnalysis.processDBdata</text>
</a>
</g>
</g>
<!-- Node2&#45;&gt;Node10 -->
<g id="edge9" class="edge"><title>Node2&#45;&gt;Node10</title>
<path fill="none" stroke="midnightblue" d="M248.154,-120.242C270.579,-100.171 306.992,-70.0712 343,-51 346.537,-49.1265 350.214,-47.3402 353.972,-45.6412"/>
<polygon fill="midnightblue" stroke="midnightblue" points="355.624,-48.7415 363.448,-41.5978 352.877,-42.3031 355.624,-48.7415"/>
</g>
<!-- Node7 -->
<g id="node7" class="node"><title>Node7</title>
<g id="a_node7"><a xlink:href="classtomoBay_1_1model_1_1dataTypes_1_1heteroTypeContainer_1_1HeteroFieldContainer.html#a3ba6289417930238a36bfee0056b6398" target="_top" xlink:title="add an arbitrary value to this Field container with the stipulation that this value is of the same ty...">
<polygon fill="white" stroke="black" points="563,-90 563,-120 757,-120 757,-90 563,-90"/>
<text text-anchor="start" x="571" y="-108" font-family="Helvetica,sans-Serif" font-size="10.00">tomoBay.model.dataTypes.hetero</text>
<text text-anchor="middle" x="660" y="-97" font-family="Helvetica,sans-Serif" font-size="10.00">TypeContainer.HeteroFieldContainer.add</text>
</a>
</g>
</g>
<!-- Node6&#45;&gt;Node7 -->
<g id="edge6" class="edge"><title>Node6&#45;&gt;Node7</title>
<path fill="none" stroke="midnightblue" d="M517.139,-89.7324C528.717,-90.9785 540.767,-92.2754 552.737,-93.5636"/>
<polygon fill="midnightblue" stroke="midnightblue" points="552.443,-97.0522 562.761,-94.6424 553.193,-90.0923 552.443,-97.0522"/>
</g>
<!-- Node9 -->
<g id="node9" class="node"><title>Node9</title>
<g id="a_node9"><a xlink:href="classtomoBay_1_1model_1_1sql_1_1framework_1_1SelectQueryInvoker.html#a594282bcbcc0731a7d234482717422d7" target="_top" xlink:title="execute a requested query ">
<polygon fill="white" stroke="black" points="584,-41 584,-71 736,-71 736,-41 584,-41"/>
<text text-anchor="start" x="592" y="-59" font-family="Helvetica,sans-Serif" font-size="10.00">tomoBay.model.sql.framework.</text>
<text text-anchor="middle" x="660" y="-48" font-family="Helvetica,sans-Serif" font-size="10.00">SelectQueryInvoker.execute</text>
</a>
</g>
</g>
<!-- Node6&#45;&gt;Node9 -->
<g id="edge8" class="edge"><title>Node6&#45;&gt;Node9</title>
<path fill="none" stroke="midnightblue" d="M517.139,-71.9037C535.527,-69.8423 555.108,-67.6471 573.664,-65.5668"/>
<polygon fill="midnightblue" stroke="midnightblue" points="574.306,-69.0169 583.853,-64.4245 573.526,-62.0605 574.306,-69.0169"/>
</g>
<!-- Node8 -->
<g id="node8" class="node"><title>Node8</title>
<g id="a_node8"><a xlink:href="classtomoBay_1_1model_1_1dataTypes_1_1heteroTypeContainer_1_1HeteroFieldContainer.html#a9dee3c01eb5ab16203e1c6820a569484" target="_top" xlink:title="performs a type check, assuming that field and type are of the same type then this method returns tru...">
<polygon fill="white" stroke="black" points="793,-84.5 793,-125.5 979,-125.5 979,-84.5 793,-84.5"/>
<text text-anchor="start" x="801" y="-113.5" font-family="Helvetica,sans-Serif" font-size="10.00">tomoBay.model.dataTypes.hetero</text>
<text text-anchor="start" x="801" y="-102.5" font-family="Helvetica,sans-Serif" font-size="10.00">TypeContainer.HeteroFieldContainer.is</text>
<text text-anchor="middle" x="886" y="-91.5" font-family="Helvetica,sans-Serif" font-size="10.00">SameType</text>
</a>
</g>
</g>
<!-- Node7&#45;&gt;Node8 -->
<g id="edge7" class="edge"><title>Node7&#45;&gt;Node8</title>
<path fill="none" stroke="midnightblue" d="M757.296,-105C765.642,-105 774.106,-105 782.499,-105"/>
<polygon fill="midnightblue" stroke="midnightblue" points="782.688,-108.5 792.688,-105 782.688,-101.5 782.688,-108.5"/>
</g>
</g>
</svg>
