<?xml version="1.0" encoding="UTF-8" standalone="no"?>
<!DOCTYPE svg PUBLIC "-//W3C//DTD SVG 1.1//EN"
 "http://www.w3.org/Graphics/SVG/1.1/DTD/svg11.dtd">
<!-- Generated by graphviz version 2.38.0 (20140413.2041)
 -->
<!-- Title: size Pages: 1 -->
<svg width="737pt" height="176pt"
 viewBox="0.00 0.00 737.00 175.50" xmlns="http://www.w3.org/2000/svg" xmlns:xlink="http://www.w3.org/1999/xlink">
<g id="graph0" class="graph" transform="scale(1 1) rotate(0) translate(4 171.5)">
<title>size</title>
<polygon fill="white" stroke="none" points="-4,4 -4,-171.5 733,-171.5 733,4 -4,4"/>
<!-- Node1 -->
<g id="node1" class="node"><title>Node1</title>
<polygon fill="#bfbfbf" stroke="black" points="0,-68.5 0,-87.5 35,-87.5 35,-68.5 0,-68.5"/>
<text text-anchor="middle" x="17.5" y="-75.5" font-family="Helvetica,sans-Serif" font-size="10.00">size</text>
</g>
<!-- Node2 -->
<g id="node2" class="node"><title>Node2</title>
<g id="a_node2"><a xlink:href="classtomoBay_1_1presenters_1_1helpers_1_1pickeability_1_1ItemStockLevel.html#a22844faa947573bb01d9313f7bdb1e56" target="_top" xlink:title="Takes the list of items generated in this.assembleItemsList and checks a PartList associated with eac...">
<polygon fill="white" stroke="black" points="71,-137 71,-167 269,-167 269,-137 71,-137"/>
<text text-anchor="start" x="79" y="-155" font-family="Helvetica,sans-Serif" font-size="10.00">tomoBay.presenters.helpers.pickeability.</text>
<text text-anchor="middle" x="170" y="-144" font-family="Helvetica,sans-Serif" font-size="10.00">ItemStockLevel.checkStockLevelOfItems</text>
</a>
</g>
</g>
<!-- Node1&#45;&gt;Node2 -->
<g id="edge1" class="edge"><title>Node1&#45;&gt;Node2</title>
<path fill="none" stroke="midnightblue" d="M32.5069,-95.372C42.2125,-106.293 56.041,-119.816 71,-128 77.3006,-131.447 84.0968,-134.405 91.0681,-136.943"/>
<polygon fill="midnightblue" stroke="midnightblue" points="35.087,-93.0034 25.9383,-87.66 29.758,-97.5423 35.087,-93.0034"/>
</g>
<!-- Node5 -->
<g id="node5" class="node"><title>Node5</title>
<g id="a_node5"><a xlink:href="classtomoBay_1_1model_1_1dataTypes_1_1order_1_1Listing.html#a08c9dd8979fc599a5710705156ea0b3e" target="_top" xlink:title="constructor, instantiates this listing based on the listingID provided (aka in the database as itemID...">
<polygon fill="white" stroke="black" points="89.5,-88 89.5,-118 250.5,-118 250.5,-88 89.5,-88"/>
<text text-anchor="start" x="97.5" y="-106" font-family="Helvetica,sans-Serif" font-size="10.00">tomoBay.model.dataTypes.order.</text>
<text text-anchor="middle" x="170" y="-95" font-family="Helvetica,sans-Serif" font-size="10.00">Listing.Listing</text>
</a>
</g>
</g>
<!-- Node1&#45;&gt;Node5 -->
<g id="edge4" class="edge"><title>Node1&#45;&gt;Node5</title>
<path fill="none" stroke="midnightblue" d="M45.3367,-82.4579C57.8902,-84.5432 73.5674,-87.1474 89.4996,-89.7939"/>
<polygon fill="midnightblue" stroke="midnightblue" points="45.6196,-78.957 35.1812,-80.771 44.4724,-85.8624 45.6196,-78.957"/>
</g>
<!-- Node6 -->
<g id="node6" class="node"><title>Node6</title>
<g id="a_node6"><a xlink:href="classtomoBay_1_1model_1_1royalMail_1_1SAAJTest.html#a8b260eecbaabcef8473fd87ada040682" target="_top" xlink:title="tomoBay.model.royalMail.\lSAAJTest.main">
<polygon fill="white" stroke="black" points="105,-39 105,-69 235,-69 235,-39 105,-39"/>
<text text-anchor="start" x="113" y="-57" font-family="Helvetica,sans-Serif" font-size="10.00">tomoBay.model.royalMail.</text>
<text text-anchor="middle" x="170" y="-46" font-family="Helvetica,sans-Serif" font-size="10.00">SAAJTest.main</text>
</a>
</g>
</g>
<!-- Node1&#45;&gt;Node6 -->
<g id="edge5" class="edge"><title>Node1&#45;&gt;Node6</title>
<path fill="none" stroke="midnightblue" d="M45.2293,-73.7375C61.8297,-71.0903 83.9226,-67.5672 104.845,-64.2306"/>
<polygon fill="midnightblue" stroke="midnightblue" points="44.5052,-70.3087 35.1812,-75.3399 45.6076,-77.2213 44.5052,-70.3087"/>
</g>
<!-- Node7 -->
<g id="node7" class="node"><title>Node7</title>
<g id="a_node7"><a xlink:href="classtomoBay_1_1model_1_1dataTypes_1_1PartList.html#a2ad1aa316f278b2e9fa8121504749652" target="_top" xlink:title="remove">
<polygon fill="white" stroke="black" points="145.5,-0.5 145.5,-19.5 194.5,-19.5 194.5,-0.5 145.5,-0.5"/>
<text text-anchor="middle" x="170" y="-7.5" font-family="Helvetica,sans-Serif" font-size="10.00">remove</text>
</a>
</g>
</g>
<!-- Node1&#45;&gt;Node7 -->
<g id="edge6" class="edge"><title>Node1&#45;&gt;Node7</title>
<path fill="none" stroke="midnightblue" d="M33.1716,-60.4641C42.8538,-50.0346 56.4111,-37.4287 71,-30 94.5204,-18.0233 124.659,-13.2181 145.265,-11.2906"/>
<polygon fill="midnightblue" stroke="midnightblue" points="30.3086,-58.4173 26.2917,-68.2212 35.5456,-63.0621 30.3086,-58.4173"/>
</g>
<!-- Node3 -->
<g id="node3" class="node"><title>Node3</title>
<g id="a_node3"><a xlink:href="classtomoBay_1_1presenters_1_1helpers_1_1pickeability_1_1ItemStockLevel.html#a1aed814db05c4991e9bc719f39ea62ce" target="_top" xlink:title="tomoBay.presenters.helpers.pickeability.\lItemStockLevel.check">
<polygon fill="white" stroke="black" points="305,-137 305,-167 499,-167 499,-137 305,-137"/>
<text text-anchor="start" x="313" y="-155" font-family="Helvetica,sans-Serif" font-size="10.00">tomoBay.presenters.helpers.pickeability.</text>
<text text-anchor="middle" x="402" y="-144" font-family="Helvetica,sans-Serif" font-size="10.00">ItemStockLevel.check</text>
</a>
</g>
</g>
<!-- Node2&#45;&gt;Node3 -->
<g id="edge2" class="edge"><title>Node2&#45;&gt;Node3</title>
<path fill="none" stroke="midnightblue" d="M279.247,-152C287.828,-152 296.459,-152 304.949,-152"/>
<polygon fill="midnightblue" stroke="midnightblue" points="279.208,-148.5 269.208,-152 279.208,-155.5 279.208,-148.5"/>
</g>
<!-- Node4 -->
<g id="node4" class="node"><title>Node4</title>
<g id="a_node4"><a xlink:href="classtomoBay_1_1presenters_1_1helpers_1_1pickeability_1_1Pickeablity.html#ae05e03af15e33d53f9e0511ec0295a04" target="_top" xlink:title="default ctor ">
<polygon fill="white" stroke="black" points="535,-137 535,-167 729,-167 729,-137 535,-137"/>
<text text-anchor="start" x="543" y="-155" font-family="Helvetica,sans-Serif" font-size="10.00">tomoBay.presenters.helpers.pickeability.</text>
<text text-anchor="middle" x="632" y="-144" font-family="Helvetica,sans-Serif" font-size="10.00">Pickeablity.Pickeablity</text>
</a>
</g>
</g>
<!-- Node3&#45;&gt;Node4 -->
<g id="edge3" class="edge"><title>Node3&#45;&gt;Node4</title>
<path fill="none" stroke="midnightblue" d="M509.043,-152C517.605,-152 526.227,-152 534.714,-152"/>
<polygon fill="midnightblue" stroke="midnightblue" points="509.032,-148.5 499.032,-152 509.032,-155.5 509.032,-148.5"/>
</g>
</g>
</svg>
