<?xml version="1.0" encoding="UTF-8" standalone="no"?>
<!DOCTYPE svg PUBLIC "-//W3C//DTD SVG 1.1//EN"
 "http://www.w3.org/Graphics/SVG/1.1/DTD/svg11.dtd">
<!-- Generated by graphviz version 2.38.0 (20140413.2041)
 -->
<!-- Title: getConfig Pages: 1 -->
<svg width="869pt" height="1078pt"
 viewBox="0.00 0.00 869.00 1078.00" xmlns="http://www.w3.org/2000/svg" xmlns:xlink="http://www.w3.org/1999/xlink">
<g id="graph0" class="graph" transform="scale(1 1) rotate(0) translate(4 1074)">
<title>getConfig</title>
<polygon fill="white" stroke="none" points="-4,4 -4,-1074 865,-1074 865,4 -4,4"/>
<!-- Node1 -->
<g id="node1" class="node"><title>Node1</title>
<polygon fill="#bfbfbf" stroke="black" points="0,-87 0,-106 59,-106 59,-87 0,-87"/>
<text text-anchor="middle" x="29.5" y="-94" font-family="Helvetica,sans-Serif" font-size="10.00">getConfig</text>
</g>
<!-- Node2 -->
<g id="node2" class="node"><title>Node2</title>
<g id="a_node2"><a xlink:href="classtomoBay_1_1helpers_1_1ConfigReader.html#a310420c6db22982498520c2ad7a2b82f" target="_top" xlink:title="find the value of the config variable specified in the arguments. ">
<polygon fill="white" stroke="black" points="97.5,-579 97.5,-598 148.5,-598 148.5,-579 97.5,-579"/>
<text text-anchor="middle" x="123" y="-586" font-family="Helvetica,sans-Serif" font-size="10.00">getConf</text>
</a>
</g>
</g>
<!-- Node1&#45;&gt;Node2 -->
<g id="edge1" class="edge"><title>Node1&#45;&gt;Node2</title>
<path fill="none" stroke="midnightblue" d="M34.1682,-116.224C49.5986,-199.194 108.958,-518.372 120.168,-578.649"/>
<polygon fill="midnightblue" stroke="midnightblue" points="37.5972,-115.519 32.3277,-106.328 30.7152,-116.799 37.5972,-115.519"/>
</g>
<!-- Node28 -->
<g id="node28" class="node"><title>Node28</title>
<g id="a_node28"><a xlink:href="classtomoBay_1_1helpers_1_1ConfigReader.html#a7059b3afa0bba045e7069deaa7460887" target="_top" xlink:title="Find all values of the specified config variable, if multiple instances exist then the array will be ...">
<polygon fill="white" stroke="black" points="95,-87 95,-106 151,-106 151,-87 95,-87"/>
<text text-anchor="middle" x="123" y="-94" font-family="Helvetica,sans-Serif" font-size="10.00">getConfs</text>
</a>
</g>
</g>
<!-- Node1&#45;&gt;Node28 -->
<g id="edge28" class="edge"><title>Node1&#45;&gt;Node28</title>
<path fill="none" stroke="midnightblue" d="M69.5759,-96.5C78.0703,-96.5 86.8784,-96.5 94.7947,-96.5"/>
<polygon fill="midnightblue" stroke="midnightblue" points="69.4512,-93.0001 59.4512,-96.5 69.4511,-100 69.4512,-93.0001"/>
</g>
<!-- Node33 -->
<g id="node33" class="node"><title>Node33</title>
<g id="a_node33"><a xlink:href="classtomoBay_1_1helpers_1_1ConfigReader.html#ad3d2ffd9b97b6fcdb33c2ca3bb528a11" target="_top" xlink:title="find out how many instances of a particular config variable exist within the config file...">
<polygon fill="white" stroke="black" points="105.5,-41 105.5,-60 140.5,-60 140.5,-41 105.5,-41"/>
<text text-anchor="middle" x="123" y="-48" font-family="Helvetica,sans-Serif" font-size="10.00">size</text>
</a>
</g>
</g>
<!-- Node1&#45;&gt;Node33 -->
<g id="edge33" class="edge"><title>Node1&#45;&gt;Node33</title>
<path fill="none" stroke="midnightblue" d="M58.4895,-82.4288C73.7638,-74.7499 92.1646,-65.4992 105.219,-58.9363"/>
<polygon fill="midnightblue" stroke="midnightblue" points="56.8213,-79.35 49.4589,-86.9688 59.9655,-85.6041 56.8213,-79.35"/>
</g>
<!-- Node3 -->
<g id="node3" class="node"><title>Node3</title>
<g id="a_node3"><a xlink:href="classtomoBay_1_1helpers_1_1checkTime_1_1Friday.html#a2377d20a90d04ac963661f0a3a995f94" target="_top" xlink:title="defines the start time for this Day derived class ">
<polygon fill="white" stroke="black" points="217.5,-1039.5 217.5,-1069.5 361.5,-1069.5 361.5,-1039.5 217.5,-1039.5"/>
<text text-anchor="start" x="225.5" y="-1057.5" font-family="Helvetica,sans-Serif" font-size="10.00">tomoBay.helpers.checkTime.</text>
<text text-anchor="middle" x="289.5" y="-1046.5" font-family="Helvetica,sans-Serif" font-size="10.00">Friday.startTime</text>
</a>
</g>
</g>
<!-- Node2&#45;&gt;Node3 -->
<g id="edge2" class="edge"><title>Node2&#45;&gt;Node3</title>
<path fill="none" stroke="midnightblue" d="M123.975,-608.321C124.292,-685.863 129.451,-967.485 187,-1030.5 195.12,-1039.39 205.871,-1045.28 217.337,-1049.13"/>
<polygon fill="midnightblue" stroke="midnightblue" points="127.475,-608.044 123.958,-598.05 120.475,-608.056 127.475,-608.044"/>
</g>
<!-- Node4 -->
<g id="node4" class="node"><title>Node4</title>
<g id="a_node4"><a xlink:href="classtomoBay_1_1helpers_1_1checkTime_1_1Friday.html#a59c0b53629eb43516639e74aa467f7cf" target="_top" xlink:title="defines the end time for this Day derived class ">
<polygon fill="white" stroke="black" points="217.5,-990.5 217.5,-1020.5 361.5,-1020.5 361.5,-990.5 217.5,-990.5"/>
<text text-anchor="start" x="225.5" y="-1008.5" font-family="Helvetica,sans-Serif" font-size="10.00">tomoBay.helpers.checkTime.</text>
<text text-anchor="middle" x="289.5" y="-997.5" font-family="Helvetica,sans-Serif" font-size="10.00">Friday.endTime</text>
</a>
</g>
</g>
<!-- Node2&#45;&gt;Node4 -->
<g id="edge3" class="edge"><title>Node2&#45;&gt;Node4</title>
<path fill="none" stroke="midnightblue" d="M124.366,-608.388C126.105,-680.424 135.757,-926.36 187,-981.5 195.197,-990.321 205.985,-996.178 217.464,-1000.02"/>
<polygon fill="midnightblue" stroke="midnightblue" points="127.858,-607.959 124.144,-598.037 120.859,-608.11 127.858,-607.959"/>
</g>
<!-- Node5 -->
<g id="node5" class="node"><title>Node5</title>
<g id="a_node5"><a xlink:href="classtomoBay_1_1helpers_1_1checkTime_1_1Monday.html#a2377d20a90d04ac963661f0a3a995f94" target="_top" xlink:title="defines the start time for this Day derived class ">
<polygon fill="white" stroke="black" points="217.5,-941.5 217.5,-971.5 361.5,-971.5 361.5,-941.5 217.5,-941.5"/>
<text text-anchor="start" x="225.5" y="-959.5" font-family="Helvetica,sans-Serif" font-size="10.00">tomoBay.helpers.checkTime.</text>
<text text-anchor="middle" x="289.5" y="-948.5" font-family="Helvetica,sans-Serif" font-size="10.00">Monday.startTime</text>
</a>
</g>
</g>
<!-- Node2&#45;&gt;Node5 -->
<g id="edge4" class="edge"><title>Node2&#45;&gt;Node5</title>
<path fill="none" stroke="midnightblue" d="M124.867,-608.424C128.152,-674.54 142.023,-885.166 187,-932.5 195.232,-941.164 205.966,-946.955 217.364,-950.78"/>
<polygon fill="midnightblue" stroke="midnightblue" points="128.349,-607.97 124.385,-598.145 121.357,-608.298 128.349,-607.97"/>
</g>
<!-- Node6 -->
<g id="node6" class="node"><title>Node6</title>
<g id="a_node6"><a xlink:href="classtomoBay_1_1helpers_1_1checkTime_1_1Monday.html#a59c0b53629eb43516639e74aa467f7cf" target="_top" xlink:title="defines the end time for this Day derived class ">
<polygon fill="white" stroke="black" points="217.5,-892.5 217.5,-922.5 361.5,-922.5 361.5,-892.5 217.5,-892.5"/>
<text text-anchor="start" x="225.5" y="-910.5" font-family="Helvetica,sans-Serif" font-size="10.00">tomoBay.helpers.checkTime.</text>
<text text-anchor="middle" x="289.5" y="-899.5" font-family="Helvetica,sans-Serif" font-size="10.00">Monday.endTime</text>
</a>
</g>
</g>
<!-- Node2&#45;&gt;Node6 -->
<g id="edge5" class="edge"><title>Node2&#45;&gt;Node6</title>
<path fill="none" stroke="midnightblue" d="M125.514,-608.261C130.475,-667.807 148.205,-843.85 187,-883.5 195.295,-891.977 205.989,-897.688 217.313,-901.492"/>
<polygon fill="midnightblue" stroke="midnightblue" points="129,-607.955 124.711,-598.267 122.023,-608.515 129,-607.955"/>
</g>
<!-- Node7 -->
<g id="node7" class="node"><title>Node7</title>
<g id="a_node7"><a xlink:href="classtomoBay_1_1helpers_1_1checkTime_1_1Saturday.html#a2377d20a90d04ac963661f0a3a995f94" target="_top" xlink:title="defines the start time for this Day derived class ">
<polygon fill="white" stroke="black" points="217.5,-843.5 217.5,-873.5 361.5,-873.5 361.5,-843.5 217.5,-843.5"/>
<text text-anchor="start" x="225.5" y="-861.5" font-family="Helvetica,sans-Serif" font-size="10.00">tomoBay.helpers.checkTime.</text>
<text text-anchor="middle" x="289.5" y="-850.5" font-family="Helvetica,sans-Serif" font-size="10.00">Saturday.startTime</text>
</a>
</g>
</g>
<!-- Node2&#45;&gt;Node7 -->
<g id="edge6" class="edge"><title>Node2&#45;&gt;Node7</title>
<path fill="none" stroke="midnightblue" d="M126.433,-608.353C133.285,-661.027 154.392,-802.49 187,-834.5 195.399,-842.745 206.077,-848.35 217.334,-852.125"/>
<polygon fill="midnightblue" stroke="midnightblue" points="129.885,-607.751 125.156,-598.27 122.94,-608.631 129.885,-607.751"/>
</g>
<!-- Node8 -->
<g id="node8" class="node"><title>Node8</title>
<g id="a_node8"><a xlink:href="classtomoBay_1_1helpers_1_1checkTime_1_1Saturday.html#a59c0b53629eb43516639e74aa467f7cf" target="_top" xlink:title="defines the end time for this Day derived class ">
<polygon fill="white" stroke="black" points="217.5,-794.5 217.5,-824.5 361.5,-824.5 361.5,-794.5 217.5,-794.5"/>
<text text-anchor="start" x="225.5" y="-812.5" font-family="Helvetica,sans-Serif" font-size="10.00">tomoBay.helpers.checkTime.</text>
<text text-anchor="middle" x="289.5" y="-801.5" font-family="Helvetica,sans-Serif" font-size="10.00">Saturday.endTime</text>
</a>
</g>
</g>
<!-- Node2&#45;&gt;Node8 -->
<g id="edge7" class="edge"><title>Node2&#45;&gt;Node8</title>
<path fill="none" stroke="midnightblue" d="M124.256,-608.206C125.889,-647.905 135.431,-737.773 187,-785.5 195.572,-793.433 206.267,-798.892 217.472,-802.62"/>
<polygon fill="midnightblue" stroke="midnightblue" points="127.749,-607.904 123.97,-598.005 120.751,-608.099 127.749,-607.904"/>
</g>
<!-- Node9 -->
<g id="node9" class="node"><title>Node9</title>
<g id="a_node9"><a xlink:href="classtomoBay_1_1helpers_1_1checkTime_1_1Sunday.html#a2377d20a90d04ac963661f0a3a995f94" target="_top" xlink:title="defines the start time for this Day derived class ">
<polygon fill="white" stroke="black" points="217.5,-745.5 217.5,-775.5 361.5,-775.5 361.5,-745.5 217.5,-745.5"/>
<text text-anchor="start" x="225.5" y="-763.5" font-family="Helvetica,sans-Serif" font-size="10.00">tomoBay.helpers.checkTime.</text>
<text text-anchor="middle" x="289.5" y="-752.5" font-family="Helvetica,sans-Serif" font-size="10.00">Sunday.startTime</text>
</a>
</g>
</g>
<!-- Node2&#45;&gt;Node9 -->
<g id="edge8" class="edge"><title>Node2&#45;&gt;Node9</title>
<path fill="none" stroke="midnightblue" d="M126.641,-608.105C132.012,-640.024 147.269,-703.016 187,-736.5 195.723,-743.851 206.3,-749.038 217.29,-752.68"/>
<polygon fill="midnightblue" stroke="midnightblue" points="130.099,-607.567 125.129,-598.21 123.18,-608.624 130.099,-607.567"/>
</g>
<!-- Node10 -->
<g id="node10" class="node"><title>Node10</title>
<g id="a_node10"><a xlink:href="classtomoBay_1_1helpers_1_1checkTime_1_1Sunday.html#a59c0b53629eb43516639e74aa467f7cf" target="_top" xlink:title="defines the end time for this Day derived class ">
<polygon fill="white" stroke="black" points="217.5,-696.5 217.5,-726.5 361.5,-726.5 361.5,-696.5 217.5,-696.5"/>
<text text-anchor="start" x="225.5" y="-714.5" font-family="Helvetica,sans-Serif" font-size="10.00">tomoBay.helpers.checkTime.</text>
<text text-anchor="middle" x="289.5" y="-703.5" font-family="Helvetica,sans-Serif" font-size="10.00">Sunday.endTime</text>
</a>
</g>
</g>
<!-- Node2&#45;&gt;Node10 -->
<g id="edge9" class="edge"><title>Node2&#45;&gt;Node10</title>
<path fill="none" stroke="midnightblue" d="M130.986,-607.69C140.24,-630.329 158.764,-667.422 187,-687.5 196.076,-693.953 206.648,-698.691 217.475,-702.165"/>
<polygon fill="midnightblue" stroke="midnightblue" points="134.164,-606.203 127.285,-598.145 127.637,-608.734 134.164,-606.203"/>
</g>
<!-- Node11 -->
<g id="node11" class="node"><title>Node11</title>
<g id="a_node11"><a xlink:href="classtomoBay_1_1helpers_1_1checkTime_1_1Thursday.html#a2377d20a90d04ac963661f0a3a995f94" target="_top" xlink:title="defines the start time for this Day derived class ">
<polygon fill="white" stroke="black" points="217.5,-647.5 217.5,-677.5 361.5,-677.5 361.5,-647.5 217.5,-647.5"/>
<text text-anchor="start" x="225.5" y="-665.5" font-family="Helvetica,sans-Serif" font-size="10.00">tomoBay.helpers.checkTime.</text>
<text text-anchor="middle" x="289.5" y="-654.5" font-family="Helvetica,sans-Serif" font-size="10.00">Thursday.startTime</text>
</a>
</g>
</g>
<!-- Node2&#45;&gt;Node11 -->
<g id="edge10" class="edge"><title>Node2&#45;&gt;Node11</title>
<path fill="none" stroke="midnightblue" d="M140.732,-605.187C152.678,-616.194 169.646,-630.084 187,-638.5 196.531,-643.122 207.007,-646.885 217.497,-649.94"/>
<polygon fill="midnightblue" stroke="midnightblue" points="142.977,-602.491 133.321,-598.13 138.15,-607.561 142.977,-602.491"/>
</g>
<!-- Node12 -->
<g id="node12" class="node"><title>Node12</title>
<g id="a_node12"><a xlink:href="classtomoBay_1_1helpers_1_1checkTime_1_1Thursday.html#a59c0b53629eb43516639e74aa467f7cf" target="_top" xlink:title="defines the end time for this Day derived class ">
<polygon fill="white" stroke="black" points="217.5,-598.5 217.5,-628.5 361.5,-628.5 361.5,-598.5 217.5,-598.5"/>
<text text-anchor="start" x="225.5" y="-616.5" font-family="Helvetica,sans-Serif" font-size="10.00">tomoBay.helpers.checkTime.</text>
<text text-anchor="middle" x="289.5" y="-605.5" font-family="Helvetica,sans-Serif" font-size="10.00">Thursday.endTime</text>
</a>
</g>
</g>
<!-- Node2&#45;&gt;Node12 -->
<g id="edge11" class="edge"><title>Node2&#45;&gt;Node12</title>
<path fill="none" stroke="midnightblue" d="M158.686,-593.771C175.781,-596.37 197.053,-599.602 217.398,-602.694"/>
<polygon fill="midnightblue" stroke="midnightblue" points="159.04,-590.285 148.627,-592.243 157.988,-597.206 159.04,-590.285"/>
</g>
<!-- Node13 -->
<g id="node13" class="node"><title>Node13</title>
<g id="a_node13"><a xlink:href="classtomoBay_1_1helpers_1_1checkTime_1_1Tuesday.html#a2377d20a90d04ac963661f0a3a995f94" target="_top" xlink:title="defines the start time for this Day derived class ">
<polygon fill="white" stroke="black" points="217.5,-549.5 217.5,-579.5 361.5,-579.5 361.5,-549.5 217.5,-549.5"/>
<text text-anchor="start" x="225.5" y="-567.5" font-family="Helvetica,sans-Serif" font-size="10.00">tomoBay.helpers.checkTime.</text>
<text text-anchor="middle" x="289.5" y="-556.5" font-family="Helvetica,sans-Serif" font-size="10.00">Tuesday.startTime</text>
</a>
</g>
</g>
<!-- Node2&#45;&gt;Node13 -->
<g id="edge12" class="edge"><title>Node2&#45;&gt;Node13</title>
<path fill="none" stroke="midnightblue" d="M158.686,-583.439C175.781,-580.945 197.053,-577.842 217.398,-574.874"/>
<polygon fill="midnightblue" stroke="midnightblue" points="158.017,-580 148.627,-584.907 159.028,-586.927 158.017,-580"/>
</g>
<!-- Node14 -->
<g id="node14" class="node"><title>Node14</title>
<g id="a_node14"><a xlink:href="classtomoBay_1_1helpers_1_1checkTime_1_1Tuesday.html#a59c0b53629eb43516639e74aa467f7cf" target="_top" xlink:title="defines the end time for this Day derived class ">
<polygon fill="white" stroke="black" points="217.5,-500.5 217.5,-530.5 361.5,-530.5 361.5,-500.5 217.5,-500.5"/>
<text text-anchor="start" x="225.5" y="-518.5" font-family="Helvetica,sans-Serif" font-size="10.00">tomoBay.helpers.checkTime.</text>
<text text-anchor="middle" x="289.5" y="-507.5" font-family="Helvetica,sans-Serif" font-size="10.00">Tuesday.endTime</text>
</a>
</g>
</g>
<!-- Node2&#45;&gt;Node14 -->
<g id="edge13" class="edge"><title>Node2&#45;&gt;Node14</title>
<path fill="none" stroke="midnightblue" d="M141.299,-572.183C153.282,-561.71 170.069,-548.601 187,-540.5 196.495,-535.957 206.898,-532.189 217.309,-529.078"/>
<polygon fill="midnightblue" stroke="midnightblue" points="138.912,-569.623 133.828,-578.918 143.599,-574.822 138.912,-569.623"/>
</g>
<!-- Node15 -->
<g id="node15" class="node"><title>Node15</title>
<g id="a_node15"><a xlink:href="classtomoBay_1_1helpers_1_1checkTime_1_1Wednesday.html#a2377d20a90d04ac963661f0a3a995f94" target="_top" xlink:title="defines the start time for this Day derived class ">
<polygon fill="white" stroke="black" points="217.5,-451.5 217.5,-481.5 361.5,-481.5 361.5,-451.5 217.5,-451.5"/>
<text text-anchor="start" x="225.5" y="-469.5" font-family="Helvetica,sans-Serif" font-size="10.00">tomoBay.helpers.checkTime.</text>
<text text-anchor="middle" x="289.5" y="-458.5" font-family="Helvetica,sans-Serif" font-size="10.00">Wednesday.startTime</text>
</a>
</g>
</g>
<!-- Node2&#45;&gt;Node15 -->
<g id="edge14" class="edge"><title>Node2&#45;&gt;Node15</title>
<path fill="none" stroke="midnightblue" d="M131.266,-569.4C140.702,-547.227 159.31,-511.19 187,-491.5 196.022,-485.084 206.507,-480.307 217.246,-476.751"/>
<polygon fill="midnightblue" stroke="midnightblue" points="127.981,-568.189 127.474,-578.771 134.47,-570.814 127.981,-568.189"/>
</g>
<!-- Node16 -->
<g id="node16" class="node"><title>Node16</title>
<g id="a_node16"><a xlink:href="classtomoBay_1_1helpers_1_1checkTime_1_1Wednesday.html#a59c0b53629eb43516639e74aa467f7cf" target="_top" xlink:title="defines the end time for this Day derived class ">
<polygon fill="white" stroke="black" points="217.5,-402.5 217.5,-432.5 361.5,-432.5 361.5,-402.5 217.5,-402.5"/>
<text text-anchor="start" x="225.5" y="-420.5" font-family="Helvetica,sans-Serif" font-size="10.00">tomoBay.helpers.checkTime.</text>
<text text-anchor="middle" x="289.5" y="-409.5" font-family="Helvetica,sans-Serif" font-size="10.00">Wednesday.endTime</text>
</a>
</g>
</g>
<!-- Node2&#45;&gt;Node16 -->
<g id="edge15" class="edge"><title>Node2&#45;&gt;Node16</title>
<path fill="none" stroke="midnightblue" d="M126.832,-568.781C132.435,-537.216 147.967,-475.542 187,-442.5 195.727,-435.113 206.305,-429.848 217.296,-426.107"/>
<polygon fill="midnightblue" stroke="midnightblue" points="123.331,-568.509 125.192,-578.939 130.241,-569.625 123.331,-568.509"/>
</g>
<!-- Node17 -->
<g id="node17" class="node"><title>Node17</title>
<g id="a_node17"><a xlink:href="classtomoBay_1_1model_1_1net_1_1email_1_1MailClient.html#af9eddf4b6d3506f30b2f282c86c59ed6" target="_top" xlink:title="tomoBay.model.net.email.\lMailClient.send">
<polygon fill="white" stroke="black" points="224,-353.5 224,-383.5 355,-383.5 355,-353.5 224,-353.5"/>
<text text-anchor="start" x="232" y="-371.5" font-family="Helvetica,sans-Serif" font-size="10.00">tomoBay.model.net.email.</text>
<text text-anchor="middle" x="289.5" y="-360.5" font-family="Helvetica,sans-Serif" font-size="10.00">MailClient.send</text>
</a>
</g>
</g>
<!-- Node2&#45;&gt;Node17 -->
<g id="edge16" class="edge"><title>Node2&#45;&gt;Node17</title>
<path fill="none" stroke="midnightblue" d="M124.386,-568.478C126.277,-528.97 136.293,-440.729 187,-393.5 197.159,-384.038 210.311,-377.998 223.758,-374.18"/>
<polygon fill="midnightblue" stroke="midnightblue" points="120.881,-568.551 124.032,-578.666 127.877,-568.794 120.881,-568.551"/>
</g>
<!-- Node21 -->
<g id="node21" class="node"><title>Node21</title>
<g id="a_node21"><a xlink:href="classtomoBay_1_1model_1_1services_1_1emailErrorsService_1_1EmailErrorsMailActions.html#ae9399f5ec7881c5d18173def8068108e" target="_top" xlink:title="send the email ">
<polygon fill="white" stroke="black" points="187,-304.5 187,-334.5 392,-334.5 392,-304.5 187,-304.5"/>
<text text-anchor="start" x="195" y="-322.5" font-family="Helvetica,sans-Serif" font-size="10.00">tomoBay.model.services.email</text>
<text text-anchor="middle" x="289.5" y="-311.5" font-family="Helvetica,sans-Serif" font-size="10.00">ErrorsService.EmailErrorsMailActions.send</text>
</a>
</g>
</g>
<!-- Node2&#45;&gt;Node21 -->
<g id="edge20" class="edge"><title>Node2&#45;&gt;Node21</title>
<path fill="none" stroke="midnightblue" d="M126.445,-568.727C133.326,-516.265 154.501,-375.372 187,-343.5 190.491,-340.077 194.374,-337.109 198.528,-334.538"/>
<polygon fill="midnightblue" stroke="midnightblue" points="122.957,-568.406 125.162,-578.769 129.901,-569.293 122.957,-568.406"/>
</g>
<!-- Node24 -->
<g id="node24" class="node"><title>Node24</title>
<g id="a_node24"><a xlink:href="classtomoBay_1_1model_1_1sql_1_1ConnectionManager.html#aaa0eb186d4e39ebd10ba73951863660a" target="_top" xlink:title="singleton contstructor, initialises the connection pool ">
<polygon fill="white" stroke="black" points="213,-255.5 213,-285.5 366,-285.5 366,-255.5 213,-255.5"/>
<text text-anchor="start" x="221" y="-273.5" font-family="Helvetica,sans-Serif" font-size="10.00">tomoBay.model.sql.Connection</text>
<text text-anchor="middle" x="289.5" y="-262.5" font-family="Helvetica,sans-Serif" font-size="10.00">Manager.ConnectionManager</text>
</a>
</g>
</g>
<!-- Node2&#45;&gt;Node24 -->
<g id="edge23" class="edge"><title>Node2&#45;&gt;Node24</title>
<path fill="none" stroke="midnightblue" d="M125.555,-568.434C130.588,-508.73 148.397,-333.926 187,-294.5 194.221,-287.125 203.258,-281.845 212.945,-278.091"/>
<polygon fill="midnightblue" stroke="midnightblue" points="122.037,-568.515 124.716,-578.766 129.014,-569.082 122.037,-568.515"/>
</g>
<!-- Node25 -->
<g id="node25" class="node"><title>Node25</title>
<g id="a_node25"><a xlink:href="classtomoBay_1_1model_1_1winstock_1_1WinstockConfig.html#a6a08fcc1415d1a09bf338223bcb6919d" target="_top" xlink:title="method used to get the string representing the name of the machine on which winstock is running...">
<polygon fill="white" stroke="black" points="204,-206.5 204,-236.5 375,-236.5 375,-206.5 204,-206.5"/>
<text text-anchor="start" x="212" y="-224.5" font-family="Helvetica,sans-Serif" font-size="10.00">tomoBay.model.winstock.Winstock</text>
<text text-anchor="middle" x="289.5" y="-213.5" font-family="Helvetica,sans-Serif" font-size="10.00">Config.getMachineName</text>
</a>
</g>
</g>
<!-- Node2&#45;&gt;Node25 -->
<g id="edge24" class="edge"><title>Node2&#45;&gt;Node25</title>
<path fill="none" stroke="midnightblue" d="M124.875,-568.633C128.188,-502.708 142.137,-292.689 187,-245.5 191.866,-240.382 197.605,-236.266 203.838,-232.966"/>
<polygon fill="midnightblue" stroke="midnightblue" points="121.367,-568.728 124.389,-578.883 128.359,-569.06 121.367,-568.728"/>
</g>
<!-- Node27 -->
<g id="node27" class="node"><title>Node27</title>
<g id="a_node27"><a xlink:href="classtomoBay_1_1model_1_1winstock_1_1WinstockConfig.html#a6b637334c5d8e69c154325c9aa55bbfd" target="_top" xlink:title="method used to retrieve the port on which winstock is running. ">
<polygon fill="white" stroke="black" points="204,-157.5 204,-187.5 375,-187.5 375,-157.5 204,-157.5"/>
<text text-anchor="start" x="212" y="-175.5" font-family="Helvetica,sans-Serif" font-size="10.00">tomoBay.model.winstock.Winstock</text>
<text text-anchor="middle" x="289.5" y="-164.5" font-family="Helvetica,sans-Serif" font-size="10.00">Config.getPort</text>
</a>
</g>
</g>
<!-- Node2&#45;&gt;Node27 -->
<g id="edge26" class="edge"><title>Node2&#45;&gt;Node27</title>
<path fill="none" stroke="midnightblue" d="M124.374,-568.662C126.139,-496.808 135.873,-251.493 187,-196.5 191.808,-191.328 197.507,-187.175 203.714,-183.85"/>
<polygon fill="midnightblue" stroke="midnightblue" points="120.868,-568.913 124.147,-578.987 127.866,-569.067 120.868,-568.913"/>
</g>
<!-- Node18 -->
<g id="node18" class="node"><title>Node18</title>
<g id="a_node18"><a xlink:href="classtomoBay_1_1model_1_1net_1_1email_1_1MailClient.html#a9a353e90e57af1d4968845017c4d6fa8" target="_top" xlink:title="tomoBay.model.net.email.\lMailClient.MailClient">
<polygon fill="white" stroke="black" points="473,-407.5 473,-437.5 604,-437.5 604,-407.5 473,-407.5"/>
<text text-anchor="start" x="481" y="-425.5" font-family="Helvetica,sans-Serif" font-size="10.00">tomoBay.model.net.email.</text>
<text text-anchor="middle" x="538.5" y="-414.5" font-family="Helvetica,sans-Serif" font-size="10.00">MailClient.MailClient</text>
</a>
</g>
</g>
<!-- Node17&#45;&gt;Node18 -->
<g id="edge17" class="edge"><title>Node17&#45;&gt;Node18</title>
<path fill="none" stroke="midnightblue" d="M365.061,-384.801C399.427,-392.314 439.823,-401.145 472.875,-408.371"/>
<polygon fill="midnightblue" stroke="midnightblue" points="365.591,-381.334 355.074,-382.617 364.095,-388.172 365.591,-381.334"/>
</g>
<!-- Node19 -->
<g id="node19" class="node"><title>Node19</title>
<g id="a_node19"><a xlink:href="classtomoBay_1_1presenters_1_1presenterActions_1_1concreteActions_1_1InvoiceOrders.html#a9c77c827472e4f09aa020d55e7d33b10" target="_top" xlink:title="tomoBay.presenters.presenter\lActions.concreteActions.Invoice\lOrders.emailResults">
<polygon fill="white" stroke="black" points="459.5,-348 459.5,-389 617.5,-389 617.5,-348 459.5,-348"/>
<text text-anchor="start" x="467.5" y="-377" font-family="Helvetica,sans-Serif" font-size="10.00">tomoBay.presenters.presenter</text>
<text text-anchor="start" x="467.5" y="-366" font-family="Helvetica,sans-Serif" font-size="10.00">Actions.concreteActions.Invoice</text>
<text text-anchor="middle" x="538.5" y="-355" font-family="Helvetica,sans-Serif" font-size="10.00">Orders.emailResults</text>
</a>
</g>
</g>
<!-- Node17&#45;&gt;Node19 -->
<g id="edge18" class="edge"><title>Node17&#45;&gt;Node19</title>
<path fill="none" stroke="midnightblue" d="M365.373,-368.5C395.058,-368.5 429.203,-368.5 459.214,-368.5"/>
<polygon fill="midnightblue" stroke="midnightblue" points="365.074,-365 355.074,-368.5 365.074,-372 365.074,-365"/>
</g>
<!-- Node20 -->
<g id="node20" class="node"><title>Node20</title>
<g id="a_node20"><a xlink:href="classtomoBay_1_1presenters_1_1presenterActions_1_1concreteActions_1_1InvoiceOrders.html#adb3dedf31dc2c7fc796f20406c235ccd" target="_top" xlink:title="performs the action specified ">
<polygon fill="white" stroke="black" points="694,-350 694,-391 852,-391 852,-350 694,-350"/>
<text text-anchor="start" x="702" y="-379" font-family="Helvetica,sans-Serif" font-size="10.00">tomoBay.presenters.presenter</text>
<text text-anchor="start" x="702" y="-368" font-family="Helvetica,sans-Serif" font-size="10.00">Actions.concreteActions.Invoice</text>
<text text-anchor="middle" x="773" y="-357" font-family="Helvetica,sans-Serif" font-size="10.00">Orders.execute</text>
</a>
</g>
</g>
<!-- Node19&#45;&gt;Node20 -->
<g id="edge19" class="edge"><title>Node19&#45;&gt;Node20</title>
<path fill="none" stroke="midnightblue" d="M627.76,-369.259C649.463,-369.446 672.55,-369.645 693.744,-369.827"/>
<polygon fill="midnightblue" stroke="midnightblue" points="627.596,-365.758 617.566,-369.172 627.535,-372.758 627.596,-365.758"/>
</g>
<!-- Node22 -->
<g id="node22" class="node"><title>Node22</title>
<g id="a_node22"><a xlink:href="classtomoBay_1_1model_1_1services_1_1emailErrorsService_1_1OnRunning.html#ae4a4f4cadce2787c7e80005639fbd5d9" target="_top" xlink:title="this method defines what to do in the given derived state ">
<polygon fill="white" stroke="black" points="456,-296.5 456,-326.5 621,-326.5 621,-296.5 456,-296.5"/>
<text text-anchor="start" x="464" y="-314.5" font-family="Helvetica,sans-Serif" font-size="10.00">tomoBay.model.services.email</text>
<text text-anchor="middle" x="538.5" y="-303.5" font-family="Helvetica,sans-Serif" font-size="10.00">ErrorsService.OnRunning.execute</text>
</a>
</g>
</g>
<!-- Node21&#45;&gt;Node22 -->
<g id="edge21" class="edge"><title>Node21&#45;&gt;Node22</title>
<path fill="none" stroke="midnightblue" d="M402.069,-315.886C420.215,-315.299 438.707,-314.7 455.96,-314.141"/>
<polygon fill="midnightblue" stroke="midnightblue" points="401.915,-312.389 392.034,-316.211 402.142,-319.386 401.915,-312.389"/>
</g>
<!-- Node23 -->
<g id="node23" class="node"><title>Node23</title>
<g id="a_node23"><a xlink:href="classtomoBay_1_1model_1_1services_1_1emailErrorsService_1_1EmailErrorsService.html#ae3b0a282dcba7f2d675ca89b1dd48487" target="_top" xlink:title="tomoBay.model.services.email\lErrorsService.EmailErrorsService.on\lRunning">
<polygon fill="white" stroke="black" points="685,-290 685,-331 861,-331 861,-290 685,-290"/>
<text text-anchor="start" x="693" y="-319" font-family="Helvetica,sans-Serif" font-size="10.00">tomoBay.model.services.email</text>
<text text-anchor="start" x="693" y="-308" font-family="Helvetica,sans-Serif" font-size="10.00">ErrorsService.EmailErrorsService.on</text>
<text text-anchor="middle" x="773" y="-297" font-family="Helvetica,sans-Serif" font-size="10.00">Running</text>
</a>
</g>
</g>
<!-- Node22&#45;&gt;Node23 -->
<g id="edge22" class="edge"><title>Node22&#45;&gt;Node23</title>
<path fill="none" stroke="midnightblue" d="M631.37,-311.105C648.912,-311.029 667.23,-310.951 684.626,-310.876"/>
<polygon fill="midnightblue" stroke="midnightblue" points="631.129,-307.606 621.144,-311.149 631.159,-314.606 631.129,-307.606"/>
</g>
<!-- Node26 -->
<g id="node26" class="node"><title>Node26</title>
<g id="a_node26"><a xlink:href="classtomoBay_1_1model_1_1winstock_1_1commands_1_1AbstractWinstockCommand.html#ad22d293a3be140431dfbfa67ba8962d5" target="_top" xlink:title="default ctor, does preliminary initailisation of the config object and socket connection to Winstock...">
<polygon fill="white" stroke="black" points="428,-179 428,-220 649,-220 649,-179 428,-179"/>
<text text-anchor="start" x="436" y="-208" font-family="Helvetica,sans-Serif" font-size="10.00">tomoBay.model.winstock.commands.</text>
<text text-anchor="start" x="436" y="-197" font-family="Helvetica,sans-Serif" font-size="10.00">AbstractWinstockCommand.AbstractWinstock</text>
<text text-anchor="middle" x="538.5" y="-186" font-family="Helvetica,sans-Serif" font-size="10.00">Command</text>
</a>
</g>
</g>
<!-- Node25&#45;&gt;Node26 -->
<g id="edge25" class="edge"><title>Node25&#45;&gt;Node26</title>
<path fill="none" stroke="midnightblue" d="M385.172,-213.068C399.064,-211.83 413.472,-210.547 427.637,-209.285"/>
<polygon fill="midnightblue" stroke="midnightblue" points="384.808,-209.586 375.158,-213.96 385.429,-216.559 384.808,-209.586"/>
</g>
<!-- Node27&#45;&gt;Node26 -->
<g id="edge27" class="edge"><title>Node27&#45;&gt;Node26</title>
<path fill="none" stroke="midnightblue" d="M385.172,-182.849C399.064,-184.367 413.472,-185.942 427.637,-187.491"/>
<polygon fill="midnightblue" stroke="midnightblue" points="385.479,-179.362 375.158,-181.754 384.718,-186.32 385.479,-179.362"/>
</g>
<!-- Node29 -->
<g id="node29" class="node"><title>Node29</title>
<g id="a_node29"><a xlink:href="classtomoBay_1_1helpers_1_1Shipping__Priority.html#aeaa068d370466a132fa02c3dd61f4111" target="_top" xlink:title="populates the internal map containing the shipping priorities ">
<polygon fill="white" stroke="black" points="218.5,-108.5 218.5,-138.5 360.5,-138.5 360.5,-108.5 218.5,-108.5"/>
<text text-anchor="start" x="226.5" y="-126.5" font-family="Helvetica,sans-Serif" font-size="10.00">tomoBay.helpers.Shipping</text>
<text text-anchor="middle" x="289.5" y="-115.5" font-family="Helvetica,sans-Serif" font-size="10.00">_Priority.populatePriorityMap</text>
</a>
</g>
</g>
<!-- Node28&#45;&gt;Node29 -->
<g id="edge29" class="edge"><title>Node28&#45;&gt;Node29</title>
<path fill="none" stroke="midnightblue" d="M161.18,-102.602C178.096,-105.379 198.692,-108.759 218.346,-111.985"/>
<polygon fill="midnightblue" stroke="midnightblue" points="161.599,-99.1245 151.164,-100.959 160.465,-106.032 161.599,-99.1245"/>
</g>
<!-- Node32 -->
<g id="node32" class="node"><title>Node32</title>
<g id="a_node32"><a xlink:href="classtomoBay_1_1model_1_1royalMail_1_1RoyalMailCSVGenerator.html#a1cb65b7538dfdc8bf869f5c77421c90b" target="_top" xlink:title="ctor, creates an empty CSV of the format: &quot;Service Reference&quot;,&quot;Service&quot;,&quot;Recipient&quot;,&quot;Address Line 1&quot;,&quot;Address Line 2&quot;,&quot;PostCode&quot;,&quot;Post Town&quot;, &quot;Country Code&quot;,&quot;Reference&quot;,&quot;Items&quot;,&quot;Weight&quot;,&quot;Service Enhancement&quot;,&quot;Service Format&quot;, ">
<polygon fill="white" stroke="black" points="204.5,-49 204.5,-90 374.5,-90 374.5,-49 204.5,-49"/>
<text text-anchor="start" x="212.5" y="-78" font-family="Helvetica,sans-Serif" font-size="10.00">tomoBay.model.royalMail.</text>
<text text-anchor="start" x="212.5" y="-67" font-family="Helvetica,sans-Serif" font-size="10.00">RoyalMailCSVGenerator.RoyalMail</text>
<text text-anchor="middle" x="289.5" y="-56" font-family="Helvetica,sans-Serif" font-size="10.00">CSVGenerator</text>
</a>
</g>
</g>
<!-- Node28&#45;&gt;Node32 -->
<g id="edge32" class="edge"><title>Node28&#45;&gt;Node32</title>
<path fill="none" stroke="midnightblue" d="M161.065,-90.4163C174.044,-88.2862 189.198,-85.7988 204.435,-83.2978"/>
<polygon fill="midnightblue" stroke="midnightblue" points="160.465,-86.968 151.164,-92.0415 161.599,-93.8755 160.465,-86.968"/>
</g>
<!-- Node30 -->
<g id="node30" class="node"><title>Node30</title>
<g id="a_node30"><a xlink:href="classtomoBay_1_1helpers_1_1Shipping__Priority.html#ab2c54f868e5d66f974ab70defd889b5f" target="_top" xlink:title="singleton ctor, ensures that this class is never instantiated ">
<polygon fill="white" stroke="black" points="473,-119.5 473,-149.5 604,-149.5 604,-119.5 473,-119.5"/>
<text text-anchor="start" x="481" y="-137.5" font-family="Helvetica,sans-Serif" font-size="10.00">tomoBay.helpers.Shipping</text>
<text text-anchor="middle" x="538.5" y="-126.5" font-family="Helvetica,sans-Serif" font-size="10.00">_Priority.Shipping_Priority</text>
</a>
</g>
</g>
<!-- Node29&#45;&gt;Node30 -->
<g id="edge30" class="edge"><title>Node29&#45;&gt;Node30</title>
<path fill="none" stroke="midnightblue" d="M370.704,-127.072C403.729,-128.543 441.482,-130.224 472.71,-131.615"/>
<polygon fill="midnightblue" stroke="midnightblue" points="370.765,-123.571 360.62,-126.623 370.454,-130.564 370.765,-123.571"/>
</g>
<!-- Node31 -->
<g id="node31" class="node"><title>Node31</title>
<g id="a_node31"><a xlink:href="classtomoBay_1_1helpers_1_1Shipping__Priority.html#a540b8555f73cab7f8082c2a6a4aad375" target="_top" xlink:title="refreshes the internal representation of the shipping type hierarchy with any changes made to the con...">
<polygon fill="white" stroke="black" points="473,-70.5 473,-100.5 604,-100.5 604,-70.5 473,-70.5"/>
<text text-anchor="start" x="481" y="-88.5" font-family="Helvetica,sans-Serif" font-size="10.00">tomoBay.helpers.Shipping</text>
<text text-anchor="middle" x="538.5" y="-77.5" font-family="Helvetica,sans-Serif" font-size="10.00">_Priority.refresh</text>
</a>
</g>
</g>
<!-- Node29&#45;&gt;Node31 -->
<g id="edge31" class="edge"><title>Node29&#45;&gt;Node31</title>
<path fill="none" stroke="midnightblue" d="M370.704,-111.161C403.729,-106.08 441.482,-100.272 472.71,-95.4678"/>
<polygon fill="midnightblue" stroke="midnightblue" points="369.971,-107.732 360.62,-112.712 371.036,-114.651 369.971,-107.732"/>
</g>
<!-- Node34 -->
<g id="node34" class="node"><title>Node34</title>
<g id="a_node34"><a xlink:href="classtomoBayTests_1_1model_1_1royalMail_1_1RoyalMailCSVGeneratorTest.html#a05dfc16869302fa4e497a69059c20301" target="_top" xlink:title="Test method for tomoBay.model.royalMail.RoyalMailCSVGenerator#size(). ">
<polygon fill="white" stroke="black" points="188,-0.5 188,-30.5 391,-30.5 391,-0.5 188,-0.5"/>
<text text-anchor="start" x="196" y="-18.5" font-family="Helvetica,sans-Serif" font-size="10.00">tomoBayTests.model.royal</text>
<text text-anchor="middle" x="289.5" y="-7.5" font-family="Helvetica,sans-Serif" font-size="10.00">Mail.RoyalMailCSVGeneratorTest.testSize</text>
</a>
</g>
</g>
<!-- Node33&#45;&gt;Node34 -->
<g id="edge34" class="edge"><title>Node33&#45;&gt;Node34</title>
<path fill="none" stroke="midnightblue" d="M150.565,-44.848C168.814,-40.9651 193.96,-35.615 217.787,-30.5453"/>
<polygon fill="midnightblue" stroke="midnightblue" points="149.731,-41.4469 140.678,-46.9514 151.188,-48.2936 149.731,-41.4469"/>
</g>
</g>
</svg>
