<?xml version="1.0" encoding="UTF-8" standalone="no"?>
<!DOCTYPE svg PUBLIC "-//W3C//DTD SVG 1.1//EN"
 "http://www.w3.org/Graphics/SVG/1.1/DTD/svg11.dtd">
<!-- Generated by graphviz version 2.38.0 (20140413.2041)
 -->
<!-- Title: Condition Pages: 1 -->
<svg width="186pt" height="215pt"
 viewBox="0.00 0.00 186.00 215.00" xmlns="http://www.w3.org/2000/svg" xmlns:xlink="http://www.w3.org/1999/xlink">
<g id="graph0" class="graph" transform="scale(1 1) rotate(0) translate(4 211)">
<title>Condition</title>
<polygon fill="white" stroke="none" points="-4,4 -4,-211 182,-211 182,4 -4,4"/>
<!-- Node1 -->
<g id="node1" class="node"><title>Node1</title>
<polygon fill="#bfbfbf" stroke="black" points="50,-0.5 50,-79.5 128,-79.5 128,-0.5 50,-0.5"/>
<text text-anchor="middle" x="89" y="-67.5" font-family="Helvetica,sans-Serif" font-size="10.00">Condition</text>
<polyline fill="none" stroke="black" points="50,-60.5 128,-60.5 "/>
<text text-anchor="middle" x="89" y="-48.5" font-family="Helvetica,sans-Serif" font-size="10.00"> </text>
<polyline fill="none" stroke="black" points="50,-41.5 128,-41.5 "/>
<text text-anchor="start" x="58" y="-29.5" font-family="Helvetica,sans-Serif" font-size="10.00">+ Condition()</text>
<text text-anchor="start" x="58" y="-18.5" font-family="Helvetica,sans-Serif" font-size="10.00">+ evaluate()</text>
<text text-anchor="start" x="58" y="-7.5" font-family="Helvetica,sans-Serif" font-size="10.00"># expression()</text>
</g>
<!-- Node2 -->
<g id="node2" class="node"><title>Node2</title>
<polygon fill="white" stroke="#bfbfbf" points="-1.42109e-14,-127.5 -1.42109e-14,-206.5 178,-206.5 178,-127.5 -1.42109e-14,-127.5"/>
<text text-anchor="start" x="8" y="-194.5" font-family="Helvetica,sans-Serif" font-size="10.00">Map&lt; Boolean, tomoBay.model.data</text>
<text text-anchor="start" x="8" y="-183.5" font-family="Helvetica,sans-Serif" font-size="10.00">Types.conditionalStatement.Abstract</text>
<text text-anchor="middle" x="89" y="-172.5" font-family="Helvetica,sans-Serif" font-size="10.00">Truth &gt;</text>
<polyline fill="none" stroke="#bfbfbf" points="-1.42109e-14,-165.5 178,-165.5 "/>
<text text-anchor="middle" x="89" y="-153.5" font-family="Helvetica,sans-Serif" font-size="10.00"> </text>
<polyline fill="none" stroke="#bfbfbf" points="-1.42109e-14,-146.5 178,-146.5 "/>
<text text-anchor="middle" x="89" y="-134.5" font-family="Helvetica,sans-Serif" font-size="10.00"> </text>
</g>
<!-- Node2&#45;&gt;Node1 -->
<g id="edge1" class="edge"><title>Node2&#45;&gt;Node1</title>
<path fill="none" stroke="#404040" d="M89,-127.476C89,-116.189 89,-103.672 89,-91.7479"/>
<polygon fill="none" stroke="#404040" points="89.0001,-91.6121 85,-85.6121 89,-79.6121 93,-85.612 89.0001,-91.6121"/>
<text text-anchor="middle" x="128" y="-101" font-family="Helvetica,sans-Serif" font-size="10.00"> &#45;TRUTH_TABLE</text>
</g>
</g>
</svg>
