<?xml version="1.0" encoding="UTF-8" standalone="no"?>
<!DOCTYPE svg PUBLIC "-//W3C//DTD SVG 1.1//EN"
 "http://www.w3.org/Graphics/SVG/1.1/DTD/svg11.dtd">
<!-- Generated by graphviz version 2.38.0 (20140413.2041)
 -->
<!-- Title: quantity Pages: 1 -->
<svg width="756pt" height="245pt"
 viewBox="0.00 0.00 756.00 245.00" xmlns="http://www.w3.org/2000/svg" xmlns:xlink="http://www.w3.org/1999/xlink">
<g id="graph0" class="graph" transform="scale(1 1) rotate(0) translate(4 241)">
<title>quantity</title>
<polygon fill="white" stroke="none" points="-4,4 -4,-241 752,-241 752,4 -4,4"/>
<!-- Node1 -->
<g id="node1" class="node"><title>Node1</title>
<polygon fill="#bfbfbf" stroke="black" points="0,-104 0,-123 51,-123 51,-104 0,-104"/>
<text text-anchor="middle" x="25.5" y="-111" font-family="Helvetica,sans-Serif" font-size="10.00">quantity</text>
</g>
<!-- Node2 -->
<g id="node2" class="node"><title>Node2</title>
<g id="a_node2"><a xlink:href="classtomoBay_1_1model_1_1dataTypes_1_1order_1_1Transaction.html#ae22e0c0169b69acfb681cf924aa8f0a8" target="_top" xlink:title="retrieve the listing associated with this transaction ">
<polygon fill="white" stroke="black" points="112,-206.5 112,-236.5 273,-236.5 273,-206.5 112,-206.5"/>
<text text-anchor="start" x="120" y="-224.5" font-family="Helvetica,sans-Serif" font-size="10.00">tomoBay.model.dataTypes.order.</text>
<text text-anchor="middle" x="192.5" y="-213.5" font-family="Helvetica,sans-Serif" font-size="10.00">Transaction.listing</text>
</a>
</g>
</g>
<!-- Node1&#45;&gt;Node2 -->
<g id="edge1" class="edge"><title>Node1&#45;&gt;Node2</title>
<path fill="none" stroke="midnightblue" d="M30.5633,-123.046C38.5958,-140.706 58.2541,-178.412 87,-197.5 91.8678,-200.732 97.113,-203.533 102.57,-205.959"/>
<polygon fill="midnightblue" stroke="midnightblue" points="101.339,-209.236 111.924,-209.698 103.938,-202.736 101.339,-209.236"/>
</g>
<!-- Node3 -->
<g id="node3" class="node"><title>Node3</title>
<g id="a_node3"><a xlink:href="classtomoBay_1_1model_1_1dataTypes_1_1financial_1_1SalesOrderDayBook_1_1AbstractSalesDayBookLine.html#afacf6217c7f58a049b532205066da488" target="_top" xlink:title="retrieve the order that this AbstractSalesDayBookLine refers to. ">
<polygon fill="white" stroke="black" points="87,-147 87,-188 298,-188 298,-147 87,-147"/>
<text text-anchor="start" x="95" y="-176" font-family="Helvetica,sans-Serif" font-size="10.00">tomoBay.model.dataTypes.financial.</text>
<text text-anchor="start" x="95" y="-165" font-family="Helvetica,sans-Serif" font-size="10.00">SalesOrderDayBook.AbstractSalesDayBook</text>
<text text-anchor="middle" x="192.5" y="-154" font-family="Helvetica,sans-Serif" font-size="10.00">Line.orderInfo</text>
</a>
</g>
</g>
<!-- Node1&#45;&gt;Node3 -->
<g id="edge2" class="edge"><title>Node1&#45;&gt;Node3</title>
<path fill="none" stroke="midnightblue" d="M47.8178,-123.05C59.2984,-128.005 73.7812,-133.953 87,-138.5 92.4748,-140.383 98.1421,-142.232 103.877,-144.028"/>
<polygon fill="midnightblue" stroke="midnightblue" points="102.982,-147.415 113.569,-146.998 105.033,-140.722 102.982,-147.415"/>
</g>
<!-- Node4 -->
<g id="node4" class="node"><title>Node4</title>
<g id="a_node4"><a xlink:href="classtomoBay_1_1model_1_1dataTypes_1_1order_1_1Listing.html#a2c8f5d3f860a7215f1fff79890a6cfa1" target="_top" xlink:title="retrieve the qty of the part at this index. ">
<polygon fill="white" stroke="black" points="112,-98.5 112,-128.5 273,-128.5 273,-98.5 112,-98.5"/>
<text text-anchor="start" x="120" y="-116.5" font-family="Helvetica,sans-Serif" font-size="10.00">tomoBay.model.dataTypes.order.</text>
<text text-anchor="middle" x="192.5" y="-105.5" font-family="Helvetica,sans-Serif" font-size="10.00">Listing.qty</text>
</a>
</g>
</g>
<!-- Node1&#45;&gt;Node4 -->
<g id="edge3" class="edge"><title>Node1&#45;&gt;Node4</title>
<path fill="none" stroke="midnightblue" d="M51.2022,-113.5C64.9953,-113.5 83.1202,-113.5 101.742,-113.5"/>
<polygon fill="midnightblue" stroke="midnightblue" points="101.808,-117 111.808,-113.5 101.808,-110 101.808,-117"/>
</g>
<!-- Node5 -->
<g id="node5" class="node"><title>Node5</title>
<g id="a_node5"><a xlink:href="classtomoBay_1_1model_1_1dataTypes_1_1order_1_1Transaction.html#a797e1f8fbba4deea93ecb02ed24ea81b" target="_top" xlink:title="retrieve the quantity of this listing purchased ">
<polygon fill="white" stroke="black" points="112,-49.5 112,-79.5 273,-79.5 273,-49.5 112,-49.5"/>
<text text-anchor="start" x="120" y="-67.5" font-family="Helvetica,sans-Serif" font-size="10.00">tomoBay.model.dataTypes.order.</text>
<text text-anchor="middle" x="192.5" y="-56.5" font-family="Helvetica,sans-Serif" font-size="10.00">Transaction.qtyPurchased</text>
</a>
</g>
</g>
<!-- Node1&#45;&gt;Node5 -->
<g id="edge4" class="edge"><title>Node1&#45;&gt;Node5</title>
<path fill="none" stroke="midnightblue" d="M48.3529,-103.955C59.7346,-99.2091 73.9634,-93.6219 87,-89.5 95.2707,-86.8849 103.985,-84.3951 112.708,-82.0711"/>
<polygon fill="midnightblue" stroke="midnightblue" points="113.737,-85.42 122.537,-79.5201 111.979,-78.6444 113.737,-85.42"/>
</g>
<!-- Node8 -->
<g id="node8" class="node"><title>Node8</title>
<g id="a_node8"><a xlink:href="classtomoBay_1_1model_1_1dataTypes_1_1order_1_1Order.html#a39d4b856c1dcba627c763d60c3be86b0" target="_top" xlink:title="An order is made up of transactions, this method retrieves the specified transaction, given the index parameter. ">
<polygon fill="white" stroke="black" points="112,-0.5 112,-30.5 273,-30.5 273,-0.5 112,-0.5"/>
<text text-anchor="start" x="120" y="-18.5" font-family="Helvetica,sans-Serif" font-size="10.00">tomoBay.model.dataTypes.order.</text>
<text text-anchor="middle" x="192.5" y="-7.5" font-family="Helvetica,sans-Serif" font-size="10.00">Order.transaction</text>
</a>
</g>
</g>
<!-- Node1&#45;&gt;Node8 -->
<g id="edge7" class="edge"><title>Node1&#45;&gt;Node8</title>
<path fill="none" stroke="midnightblue" d="M31.621,-103.994C40.6316,-88.2204 60.8684,-56.7666 87,-40.5 91.9205,-37.437 97.1859,-34.7493 102.64,-32.3909"/>
<polygon fill="midnightblue" stroke="midnightblue" points="103.943,-35.6396 111.97,-28.7245 101.382,-29.1246 103.943,-35.6396"/>
</g>
<!-- Node6 -->
<g id="node6" class="node"><title>Node6</title>
<g id="a_node6"><a xlink:href="classtomoBay_1_1model_1_1dataTypes_1_1heteroTypeContainer_1_1HeteroFieldContainer.html#a988363ab964d6dc0ccb8560bef5895b6" target="_top" xlink:title="retrieve the the value of an AbstractField from this HeteroFieldContainer, the field should be of the...">
<polygon fill="white" stroke="black" points="334,-49.5 334,-79.5 526,-79.5 526,-49.5 334,-49.5"/>
<text text-anchor="start" x="342" y="-67.5" font-family="Helvetica,sans-Serif" font-size="10.00">tomoBay.model.dataTypes.hetero</text>
<text text-anchor="middle" x="430" y="-56.5" font-family="Helvetica,sans-Serif" font-size="10.00">TypeContainer.HeteroFieldContainer.get</text>
</a>
</g>
</g>
<!-- Node5&#45;&gt;Node6 -->
<g id="edge5" class="edge"><title>Node5&#45;&gt;Node6</title>
<path fill="none" stroke="midnightblue" d="M273.23,-64.5C289.363,-64.5 306.563,-64.5 323.427,-64.5"/>
<polygon fill="midnightblue" stroke="midnightblue" points="323.871,-68.0001 333.871,-64.5 323.871,-61.0001 323.871,-68.0001"/>
</g>
<!-- Node7 -->
<g id="node7" class="node"><title>Node7</title>
<g id="a_node7"><a xlink:href="classtomoBay_1_1model_1_1dataTypes_1_1heteroTypeContainer_1_1HeteroFieldContainer.html#a9dee3c01eb5ab16203e1c6820a569484" target="_top" xlink:title="performs a type check, assuming that field and type are of the same type then this method returns tru...">
<polygon fill="white" stroke="black" points="562,-44 562,-85 748,-85 748,-44 562,-44"/>
<text text-anchor="start" x="570" y="-73" font-family="Helvetica,sans-Serif" font-size="10.00">tomoBay.model.dataTypes.hetero</text>
<text text-anchor="start" x="570" y="-62" font-family="Helvetica,sans-Serif" font-size="10.00">TypeContainer.HeteroFieldContainer.is</text>
<text text-anchor="middle" x="655" y="-51" font-family="Helvetica,sans-Serif" font-size="10.00">SameType</text>
</a>
</g>
</g>
<!-- Node6&#45;&gt;Node7 -->
<g id="edge6" class="edge"><title>Node6&#45;&gt;Node7</title>
<path fill="none" stroke="midnightblue" d="M526.219,-64.5C534.728,-64.5 543.365,-64.5 551.929,-64.5"/>
<polygon fill="midnightblue" stroke="midnightblue" points="551.934,-68.0001 561.934,-64.5 551.934,-61.0001 551.934,-68.0001"/>
</g>
</g>
</svg>
