<?xml version="1.0" encoding="UTF-8" standalone="no"?>
<!DOCTYPE svg PUBLIC "-//W3C//DTD SVG 1.1//EN"
 "http://www.w3.org/Graphics/SVG/1.1/DTD/svg11.dtd">
<!-- Generated by graphviz version 2.38.0 (20140413.2041)
 -->
<!-- Title: json Pages: 1 -->
<svg width="794pt" height="153pt"
 viewBox="0.00 0.00 794.00 152.50" xmlns="http://www.w3.org/2000/svg" xmlns:xlink="http://www.w3.org/1999/xlink">
<g id="graph0" class="graph" transform="scale(1 1) rotate(0) translate(4 148.5)">
<title>json</title>
<polygon fill="white" stroke="none" points="-4,4 -4,-148.5 790,-148.5 790,4 -4,4"/>
<!-- Node1 -->
<g id="node1" class="node"><title>Node1</title>
<polygon fill="#bfbfbf" stroke="black" points="0,-65.5 0,-84.5 35,-84.5 35,-65.5 0,-65.5"/>
<text text-anchor="middle" x="17.5" y="-72.5" font-family="Helvetica,sans-Serif" font-size="10.00">json</text>
</g>
<!-- Node2 -->
<g id="node2" class="node"><title>Node2</title>
<g id="a_node2"><a xlink:href="classtomoBay_1_1presenters_1_1presenterActions_1_1concreteActions_1_1BuyerDetails.html#adb3dedf31dc2c7fc796f20406c235ccd" target="_top" xlink:title="performs the action specified ">
<polygon fill="white" stroke="black" points="78,-114 78,-144 298,-144 298,-114 78,-114"/>
<text text-anchor="start" x="86" y="-132" font-family="Helvetica,sans-Serif" font-size="10.00">tomoBay.presenters.presenter</text>
<text text-anchor="middle" x="188" y="-121" font-family="Helvetica,sans-Serif" font-size="10.00">Actions.concreteActions.BuyerDetails.execute</text>
</a>
</g>
</g>
<!-- Node1&#45;&gt;Node2 -->
<g id="edge1" class="edge"><title>Node1&#45;&gt;Node2</title>
<path fill="none" stroke="midnightblue" d="M41.2705,-90.0992C50.2281,-95.4727 60.7975,-101.141 71,-105 80.0407,-108.419 89.6718,-111.392 99.3717,-113.967"/>
<polygon fill="midnightblue" stroke="midnightblue" points="42.9395,-87.0153 32.602,-84.6944 39.2359,-92.9552 42.9395,-87.0153"/>
</g>
<!-- Node3 -->
<g id="node3" class="node"><title>Node3</title>
<g id="a_node3"><a xlink:href="classtomoBay_1_1presenters_1_1presenterActions_1_1concreteActions_1_1BuyerList.html#a1b9a0fa1ef5b8b60a831e9ebc80e6f97" target="_top" xlink:title="format the results of the query as a JSON string ">
<polygon fill="white" stroke="black" points="89,-54.5 89,-95.5 287,-95.5 287,-54.5 89,-54.5"/>
<text text-anchor="start" x="97" y="-83.5" font-family="Helvetica,sans-Serif" font-size="10.00">tomoBay.presenters.presenter</text>
<text text-anchor="start" x="97" y="-72.5" font-family="Helvetica,sans-Serif" font-size="10.00">Actions.concreteActions.BuyerList.format</text>
<text text-anchor="middle" x="188" y="-61.5" font-family="Helvetica,sans-Serif" font-size="10.00">Results</text>
</a>
</g>
</g>
<!-- Node1&#45;&gt;Node3 -->
<g id="edge2" class="edge"><title>Node1&#45;&gt;Node3</title>
<path fill="none" stroke="midnightblue" d="M45.5676,-75C57.7811,-75 73.0307,-75 88.9562,-75"/>
<polygon fill="midnightblue" stroke="midnightblue" points="45.2725,-71.5001 35.2724,-75 45.2724,-78.5001 45.2725,-71.5001"/>
</g>
<!-- Node5 -->
<g id="node5" class="node"><title>Node5</title>
<g id="a_node5"><a xlink:href="classtomoBay_1_1presenters_1_1presenterActions_1_1concreteActions_1_1OrderInfo.html#a703cbb509cdc01530f19b03f573120c9" target="_top" xlink:title="formats the transaction information associated with this order ">
<polygon fill="white" stroke="black" points="71,-6 71,-36 305,-36 305,-6 71,-6"/>
<text text-anchor="start" x="79" y="-24" font-family="Helvetica,sans-Serif" font-size="10.00">tomoBay.presenters.presenter</text>
<text text-anchor="middle" x="188" y="-13" font-family="Helvetica,sans-Serif" font-size="10.00">Actions.concreteActions.OrderInfo.transactionInfo</text>
</a>
</g>
</g>
<!-- Node1&#45;&gt;Node5 -->
<g id="edge4" class="edge"><title>Node1&#45;&gt;Node5</title>
<path fill="none" stroke="midnightblue" d="M41.2705,-59.9008C50.2281,-54.5273 60.7975,-48.8587 71,-45 80.0407,-41.5807 89.6718,-38.608 99.3717,-36.0331"/>
<polygon fill="midnightblue" stroke="midnightblue" points="39.2359,-57.0448 32.602,-65.3056 42.9395,-62.9847 39.2359,-57.0448"/>
</g>
<!-- Node4 -->
<g id="node4" class="node"><title>Node4</title>
<g id="a_node4"><a xlink:href="classtomoBay_1_1presenters_1_1presenterActions_1_1concreteActions_1_1BuyerList.html#adb3dedf31dc2c7fc796f20406c235ccd" target="_top" xlink:title="performs the action specified ">
<polygon fill="white" stroke="black" points="341,-60 341,-90 546,-90 546,-60 341,-60"/>
<text text-anchor="start" x="349" y="-78" font-family="Helvetica,sans-Serif" font-size="10.00">tomoBay.presenters.presenter</text>
<text text-anchor="middle" x="443.5" y="-67" font-family="Helvetica,sans-Serif" font-size="10.00">Actions.concreteActions.BuyerList.execute</text>
</a>
</g>
</g>
<!-- Node3&#45;&gt;Node4 -->
<g id="edge3" class="edge"><title>Node3&#45;&gt;Node4</title>
<path fill="none" stroke="midnightblue" d="M297.036,-75C311.611,-75 326.523,-75 340.979,-75"/>
<polygon fill="midnightblue" stroke="midnightblue" points="297.01,-71.5001 287.01,-75 297.01,-78.5001 297.01,-71.5001"/>
</g>
<!-- Node6 -->
<g id="node6" class="node"><title>Node6</title>
<g id="a_node6"><a xlink:href="classtomoBay_1_1presenters_1_1presenterActions_1_1concreteActions_1_1OrderInfo.html#afeec1aeda079b77245edea1e74b25f33" target="_top" xlink:title="assembles the various parts of the order and outputs it as a fully formed JSON string. ">
<polygon fill="white" stroke="black" points="345,-0.5 345,-41.5 542,-41.5 542,-0.5 345,-0.5"/>
<text text-anchor="start" x="353" y="-29.5" font-family="Helvetica,sans-Serif" font-size="10.00">tomoBay.presenters.presenter</text>
<text text-anchor="start" x="353" y="-18.5" font-family="Helvetica,sans-Serif" font-size="10.00">Actions.concreteActions.OrderInfo.format</text>
<text text-anchor="middle" x="443.5" y="-7.5" font-family="Helvetica,sans-Serif" font-size="10.00">Results</text>
</a>
</g>
</g>
<!-- Node5&#45;&gt;Node6 -->
<g id="edge5" class="edge"><title>Node5&#45;&gt;Node6</title>
<path fill="none" stroke="midnightblue" d="M315.551,-21C325.337,-21 335.124,-21 344.68,-21"/>
<polygon fill="midnightblue" stroke="midnightblue" points="315.363,-17.5001 305.363,-21 315.363,-24.5001 315.363,-17.5001"/>
</g>
<!-- Node7 -->
<g id="node7" class="node"><title>Node7</title>
<g id="a_node7"><a xlink:href="classtomoBay_1_1presenters_1_1presenterActions_1_1concreteActions_1_1OrderInfo.html#adb3dedf31dc2c7fc796f20406c235ccd" target="_top" xlink:title="performs the action specified ">
<polygon fill="white" stroke="black" points="582,-6 582,-36 786,-36 786,-6 582,-6"/>
<text text-anchor="start" x="590" y="-24" font-family="Helvetica,sans-Serif" font-size="10.00">tomoBay.presenters.presenter</text>
<text text-anchor="middle" x="684" y="-13" font-family="Helvetica,sans-Serif" font-size="10.00">Actions.concreteActions.OrderInfo.execute</text>
</a>
</g>
</g>
<!-- Node6&#45;&gt;Node7 -->
<g id="edge6" class="edge"><title>Node6&#45;&gt;Node7</title>
<path fill="none" stroke="midnightblue" d="M552.404,-21C562.248,-21 572.196,-21 581.976,-21"/>
<polygon fill="midnightblue" stroke="midnightblue" points="552.195,-17.5001 542.195,-21 552.195,-24.5001 552.195,-17.5001"/>
</g>
</g>
</svg>
