<?xml version="1.0" encoding="UTF-8" standalone="no"?>
<!DOCTYPE svg PUBLIC "-//W3C//DTD SVG 1.1//EN"
 "http://www.w3.org/Graphics/SVG/1.1/DTD/svg11.dtd">
<!-- Generated by graphviz version 2.38.0 (20140413.2041)
 -->
<!-- Title: checkSize Pages: 1 -->
<svg width="379pt" height="290pt"
 viewBox="0.00 0.00 379.00 290.00" xmlns="http://www.w3.org/2000/svg" xmlns:xlink="http://www.w3.org/1999/xlink">
<g id="graph0" class="graph" transform="scale(1 1) rotate(0) translate(4 286)">
<title>checkSize</title>
<polygon fill="white" stroke="none" points="-4,4 -4,-286 375,-286 375,4 -4,4"/>
<!-- Node1 -->
<g id="node1" class="node"><title>Node1</title>
<polygon fill="#bfbfbf" stroke="black" points="0,-131.5 0,-150.5 62,-150.5 62,-131.5 0,-131.5"/>
<text text-anchor="middle" x="31" y="-138.5" font-family="Helvetica,sans-Serif" font-size="10.00">checkSize</text>
</g>
<!-- Node2 -->
<g id="node2" class="node"><title>Node2</title>
<g id="a_node2"><a xlink:href="classtomoBay_1_1model_1_1royalMail_1_1RoyalMailCSVGenerator.html#a4448e544d88b5d685f92e50cf8c3067d" target="_top" xlink:title="Adds a row of data to the CSV and checks the validity of the data against the specification defined i...">
<polygon fill="white" stroke="black" points="98,-131.5 98,-150.5 151,-150.5 151,-131.5 98,-131.5"/>
<text text-anchor="middle" x="124.5" y="-138.5" font-family="Helvetica,sans-Serif" font-size="10.00">addRow</text>
</a>
</g>
</g>
<!-- Node1&#45;&gt;Node2 -->
<g id="edge1" class="edge"><title>Node1&#45;&gt;Node2</title>
<path fill="none" stroke="midnightblue" d="M72.2434,-141C80.9586,-141 89.9442,-141 97.9105,-141"/>
<polygon fill="midnightblue" stroke="midnightblue" points="72.2141,-137.5 62.2141,-141 72.2141,-144.5 72.2141,-137.5"/>
</g>
<!-- Node3 -->
<g id="node3" class="node"><title>Node3</title>
<g id="a_node3"><a xlink:href="classtomoBayTests_1_1model_1_1royalMail_1_1RoyalMailCSVGeneratorTest.html#a66e66076494011bb61c1f78024b4527c" target="_top" xlink:title="tomoBayTests.model.royal\lMail.RoyalMailCSVGeneratorTest.test\lAddRow">
<polygon fill="white" stroke="black" points="187,-240.5 187,-281.5 371,-281.5 371,-240.5 187,-240.5"/>
<text text-anchor="start" x="195" y="-269.5" font-family="Helvetica,sans-Serif" font-size="10.00">tomoBayTests.model.royal</text>
<text text-anchor="start" x="195" y="-258.5" font-family="Helvetica,sans-Serif" font-size="10.00">Mail.RoyalMailCSVGeneratorTest.test</text>
<text text-anchor="middle" x="279" y="-247.5" font-family="Helvetica,sans-Serif" font-size="10.00">AddRow</text>
</a>
</g>
</g>
<!-- Node2&#45;&gt;Node3 -->
<g id="edge2" class="edge"><title>Node2&#45;&gt;Node3</title>
<path fill="none" stroke="midnightblue" d="M133.81,-159.877C143.687,-180.227 162.03,-212.218 187,-231 191.653,-234.5 196.735,-237.603 202.041,-240.354"/>
<polygon fill="midnightblue" stroke="midnightblue" points="136.925,-158.275 129.537,-150.68 130.576,-161.224 136.925,-158.275"/>
</g>
<!-- Node4 -->
<g id="node4" class="node"><title>Node4</title>
<g id="a_node4"><a xlink:href="classtomoBayTests_1_1model_1_1royalMail_1_1RoyalMailCSVGeneratorTest.html#a1036d4ad1717e3668e1b92b56dbf09df" target="_top" xlink:title="tomoBayTests.model.royal\lMail.RoyalMailCSVGeneratorTest.test\lGenerate">
<polygon fill="white" stroke="black" points="187,-180.5 187,-221.5 371,-221.5 371,-180.5 187,-180.5"/>
<text text-anchor="start" x="195" y="-209.5" font-family="Helvetica,sans-Serif" font-size="10.00">tomoBayTests.model.royal</text>
<text text-anchor="start" x="195" y="-198.5" font-family="Helvetica,sans-Serif" font-size="10.00">Mail.RoyalMailCSVGeneratorTest.test</text>
<text text-anchor="middle" x="279" y="-187.5" font-family="Helvetica,sans-Serif" font-size="10.00">Generate</text>
</a>
</g>
</g>
<!-- Node2&#45;&gt;Node4 -->
<g id="edge3" class="edge"><title>Node2&#45;&gt;Node4</title>
<path fill="none" stroke="midnightblue" d="M152.654,-155.229C163.229,-160.509 175.541,-166.341 187,-171 195.013,-174.258 203.526,-177.43 212.004,-180.417"/>
<polygon fill="midnightblue" stroke="midnightblue" points="154.006,-151.99 143.505,-150.585 150.838,-158.232 154.006,-151.99"/>
</g>
<!-- Node5 -->
<g id="node5" class="node"><title>Node5</title>
<g id="a_node5"><a xlink:href="classtomoBayTests_1_1model_1_1royalMail_1_1RoyalMailCSVGeneratorTest.html#a4f16e86bb3ba3d0c933b524c43a83bea" target="_top" xlink:title="tomoBayTests.model.royal\lMail.RoyalMailCSVGeneratorTest.test\lSetseparators">
<polygon fill="white" stroke="black" points="187,-120.5 187,-161.5 371,-161.5 371,-120.5 187,-120.5"/>
<text text-anchor="start" x="195" y="-149.5" font-family="Helvetica,sans-Serif" font-size="10.00">tomoBayTests.model.royal</text>
<text text-anchor="start" x="195" y="-138.5" font-family="Helvetica,sans-Serif" font-size="10.00">Mail.RoyalMailCSVGeneratorTest.test</text>
<text text-anchor="middle" x="279" y="-127.5" font-family="Helvetica,sans-Serif" font-size="10.00">Setseparators</text>
</a>
</g>
</g>
<!-- Node2&#45;&gt;Node5 -->
<g id="edge4" class="edge"><title>Node2&#45;&gt;Node5</title>
<path fill="none" stroke="midnightblue" d="M161.251,-141C169.158,-141 177.884,-141 186.898,-141"/>
<polygon fill="midnightblue" stroke="midnightblue" points="161.025,-137.5 151.025,-141 161.025,-144.5 161.025,-137.5"/>
</g>
<!-- Node6 -->
<g id="node6" class="node"><title>Node6</title>
<g id="a_node6"><a xlink:href="classtomoBayTests_1_1model_1_1royalMail_1_1RoyalMailCSVGeneratorTest.html#a228f0f1aaa740933e1ee5526464b0d4e" target="_top" xlink:title="tomoBayTests.model.royal\lMail.RoyalMailCSVGeneratorTest.test\lToStringBadInput">
<polygon fill="white" stroke="black" points="187,-60.5 187,-101.5 371,-101.5 371,-60.5 187,-60.5"/>
<text text-anchor="start" x="195" y="-89.5" font-family="Helvetica,sans-Serif" font-size="10.00">tomoBayTests.model.royal</text>
<text text-anchor="start" x="195" y="-78.5" font-family="Helvetica,sans-Serif" font-size="10.00">Mail.RoyalMailCSVGeneratorTest.test</text>
<text text-anchor="middle" x="279" y="-67.5" font-family="Helvetica,sans-Serif" font-size="10.00">ToStringBadInput</text>
</a>
</g>
</g>
<!-- Node2&#45;&gt;Node6 -->
<g id="edge5" class="edge"><title>Node2&#45;&gt;Node6</title>
<path fill="none" stroke="midnightblue" d="M152.654,-126.771C163.229,-121.491 175.541,-115.659 187,-111 195.013,-107.742 203.526,-104.57 212.004,-101.583"/>
<polygon fill="midnightblue" stroke="midnightblue" points="150.838,-123.768 143.505,-131.415 154.006,-130.01 150.838,-123.768"/>
</g>
<!-- Node7 -->
<g id="node7" class="node"><title>Node7</title>
<g id="a_node7"><a xlink:href="classtomoBayTests_1_1model_1_1royalMail_1_1RoyalMailCSVGeneratorTest.html#aa785bc5cc98af5c4ec7210ac0e314af4" target="_top" xlink:title="tomoBayTests.model.royal\lMail.RoyalMailCSVGeneratorTest.test\lToStringGoodInput">
<polygon fill="white" stroke="black" points="187,-0.5 187,-41.5 371,-41.5 371,-0.5 187,-0.5"/>
<text text-anchor="start" x="195" y="-29.5" font-family="Helvetica,sans-Serif" font-size="10.00">tomoBayTests.model.royal</text>
<text text-anchor="start" x="195" y="-18.5" font-family="Helvetica,sans-Serif" font-size="10.00">Mail.RoyalMailCSVGeneratorTest.test</text>
<text text-anchor="middle" x="279" y="-7.5" font-family="Helvetica,sans-Serif" font-size="10.00">ToStringGoodInput</text>
</a>
</g>
</g>
<!-- Node2&#45;&gt;Node7 -->
<g id="edge6" class="edge"><title>Node2&#45;&gt;Node7</title>
<path fill="none" stroke="midnightblue" d="M133.81,-122.123C143.687,-101.773 162.03,-69.7822 187,-51 191.653,-47.5002 196.735,-44.3965 202.041,-41.6462"/>
<polygon fill="midnightblue" stroke="midnightblue" points="130.576,-120.776 129.537,-131.32 136.925,-123.725 130.576,-120.776"/>
</g>
</g>
</svg>
