<?xml version="1.0" encoding="UTF-8" standalone="no"?>
<!DOCTYPE svg PUBLIC "-//W3C//DTD SVG 1.1//EN"
 "http://www.w3.org/Graphics/SVG/1.1/DTD/svg11.dtd">
<!-- Generated by graphviz version 2.38.0 (20140413.2041)
 -->
<!-- Title: PresenterFactory.PresenterType Pages: 1 -->
<svg width="185pt" height="154pt"
 viewBox="0.00 0.00 185.00 154.00" xmlns="http://www.w3.org/2000/svg" xmlns:xlink="http://www.w3.org/1999/xlink">
<g id="graph0" class="graph" transform="scale(1 1) rotate(0) translate(4 150)">
<title>PresenterFactory.PresenterType</title>
<polygon fill="white" stroke="none" points="-4,4 -4,-150 181,-150 181,4 -4,4"/>
<!-- Node1 -->
<g id="node1" class="node"><title>Node1</title>
<polygon fill="#bfbfbf" stroke="black" points="-1.42109e-14,-0.5 -1.42109e-14,-145.5 177,-145.5 177,-0.5 -1.42109e-14,-0.5"/>
<text text-anchor="middle" x="88.5" y="-133.5" font-family="Helvetica,sans-Serif" font-size="10.00">PresenterFactory.PresenterType</text>
<polyline fill="none" stroke="black" points="-1.42109e-14,-126.5 177,-126.5 "/>
<text text-anchor="start" x="8" y="-114.5" font-family="Helvetica,sans-Serif" font-size="10.00">+ ERROR_PRESENTER</text>
<text text-anchor="start" x="8" y="-103.5" font-family="Helvetica,sans-Serif" font-size="10.00">+ ROOT_PRESENTER</text>
<text text-anchor="start" x="8" y="-92.5" font-family="Helvetica,sans-Serif" font-size="10.00">+ SALES_ORDER_PRESENTER</text>
<text text-anchor="start" x="8" y="-81.5" font-family="Helvetica,sans-Serif" font-size="10.00">+ SALES_HISTORY_PRESENTER</text>
<text text-anchor="start" x="8" y="-70.5" font-family="Helvetica,sans-Serif" font-size="10.00">+ OUT_OF_HOURS_PRESENTER</text>
<text text-anchor="start" x="8" y="-59.5" font-family="Helvetica,sans-Serif" font-size="10.00">+ ADMIN_PRESENTER</text>
<text text-anchor="start" x="8" y="-48.5" font-family="Helvetica,sans-Serif" font-size="10.00">+ ORDER_DETAILS_PRESENTER</text>
<text text-anchor="start" x="8" y="-37.5" font-family="Helvetica,sans-Serif" font-size="10.00">+ CRM_OVERVIEW_PRESENTER</text>
<text text-anchor="start" x="8" y="-26.5" font-family="Helvetica,sans-Serif" font-size="10.00">+ CRM_DETAIL_PRESENTER</text>
<polyline fill="none" stroke="black" points="-1.42109e-14,-19.5 177,-19.5 "/>
<text text-anchor="middle" x="88.5" y="-7.5" font-family="Helvetica,sans-Serif" font-size="10.00"> </text>
</g>
</g>
</svg>
