<?xml version="1.0" encoding="UTF-8" standalone="no"?>
<!DOCTYPE svg PUBLIC "-//W3C//DTD SVG 1.1//EN"
 "http://www.w3.org/Graphics/SVG/1.1/DTD/svg11.dtd">
<!-- Generated by graphviz version 2.38.0 (20140413.2041)
 -->
<!-- Title: Graphical Class Hierarchy Pages: 1 -->
<svg width="308pt" height="306pt"
 viewBox="0.00 0.00 308.00 306.00" xmlns="http://www.w3.org/2000/svg" xmlns:xlink="http://www.w3.org/1999/xlink">
<g id="graph0" class="graph" transform="scale(1 1) rotate(0) translate(4 302)">
<title>Graphical Class Hierarchy</title>
<polygon fill="white" stroke="none" points="-4,4 -4,-302 304,-302 304,4 -4,4"/>
<!-- Node1 -->
<g id="node1" class="node"><title>Node1</title>
<g id="a_node1"><a xlink:href="interfacetomoBay_1_1model_1_1services_1_1factories_1_1AbstractServiceFactory.html" target="_top" xlink:title="This interface is the construct that all the Service factories must conform to. ">
<polygon fill="white" stroke="black" points="0,-136.5 0,-155.5 119,-155.5 119,-136.5 0,-136.5"/>
<text text-anchor="middle" x="59.5" y="-143.5" font-family="Helvetica,sans-Serif" font-size="10.00">AbstractServiceFactory</text>
</a>
</g>
</g>
<!-- Node2 -->
<g id="node2" class="node"><title>Node2</title>
<g id="a_node2"><a xlink:href="classtomoBay_1_1model_1_1services_1_1factories_1_1BasicEbayServiceFactory.html" target="_top" xlink:title="This factory creates a BasicEbayUpdateService. ">
<polygon fill="white" stroke="black" points="162.5,-278.5 162.5,-297.5 292.5,-297.5 292.5,-278.5 162.5,-278.5"/>
<text text-anchor="middle" x="227.5" y="-285.5" font-family="Helvetica,sans-Serif" font-size="10.00">BasicEbayServiceFactory</text>
</a>
</g>
</g>
<!-- Node1&#45;&gt;Node2 -->
<g id="edge1" class="edge"><title>Node1&#45;&gt;Node2</title>
<path fill="none" stroke="midnightblue" d="M69.8743,-164.977C84.328,-192.231 114.66,-242.124 155,-269 160.879,-272.917 167.532,-276.028 174.355,-278.498"/>
<polygon fill="midnightblue" stroke="midnightblue" points="72.8086,-163.03 65.1244,-155.736 66.5828,-166.23 72.8086,-163.03"/>
</g>
<!-- Node3 -->
<g id="node3" class="node"><title>Node3</title>
<g id="a_node3"><a xlink:href="classtomoBay_1_1model_1_1services_1_1factories_1_1CheckErrorsFactory.html" target="_top" xlink:title="CheckErrorsFactory">
<polygon fill="white" stroke="black" points="175.5,-240.5 175.5,-259.5 279.5,-259.5 279.5,-240.5 175.5,-240.5"/>
<text text-anchor="middle" x="227.5" y="-247.5" font-family="Helvetica,sans-Serif" font-size="10.00">CheckErrorsFactory</text>
</a>
</g>
</g>
<!-- Node1&#45;&gt;Node3 -->
<g id="edge2" class="edge"><title>Node1&#45;&gt;Node3</title>
<path fill="none" stroke="midnightblue" d="M75.2647,-163.533C92.4773,-182.86 122.712,-213.523 155,-231 162.116,-234.852 170.06,-237.959 177.993,-240.454"/>
<polygon fill="midnightblue" stroke="midnightblue" points="77.7196,-161.022 68.5144,-155.776 72.4393,-165.617 77.7196,-161.022"/>
</g>
<!-- Node4 -->
<g id="node4" class="node"><title>Node4</title>
<g id="a_node4"><a xlink:href="classtomoBay_1_1model_1_1services_1_1factories_1_1EmailErrorsServiceFactory.html" target="_top" xlink:title="EmailErrorsServiceFactory">
<polygon fill="white" stroke="black" points="160.5,-202.5 160.5,-221.5 294.5,-221.5 294.5,-202.5 160.5,-202.5"/>
<text text-anchor="middle" x="227.5" y="-209.5" font-family="Helvetica,sans-Serif" font-size="10.00">EmailErrorsServiceFactory</text>
</a>
</g>
</g>
<!-- Node1&#45;&gt;Node4 -->
<g id="edge3" class="edge"><title>Node1&#45;&gt;Node4</title>
<path fill="none" stroke="midnightblue" d="M85.8812,-160.38C104.557,-170.523 130.8,-183.874 155,-193 164.494,-196.58 174.937,-199.76 184.84,-202.446"/>
<polygon fill="midnightblue" stroke="midnightblue" points="87.5578,-157.308 77.1098,-155.55 84.1813,-163.44 87.5578,-157.308"/>
</g>
<!-- Node5 -->
<g id="node5" class="node"><title>Node5</title>
<g id="a_node5"><a xlink:href="classtomoBay_1_1model_1_1services_1_1factories_1_1IndividualItemRefreshServiceFactory.html" target="_top" xlink:title="This factory creates an IndividualItemRefreshService. ">
<polygon fill="white" stroke="black" points="155,-153 155,-183 300,-183 300,-153 155,-153"/>
<text text-anchor="start" x="163" y="-171" font-family="Helvetica,sans-Serif" font-size="10.00">IndividualItemRefreshService</text>
<text text-anchor="middle" x="227.5" y="-160" font-family="Helvetica,sans-Serif" font-size="10.00">Factory</text>
</a>
</g>
</g>
<!-- Node1&#45;&gt;Node5 -->
<g id="edge4" class="edge"><title>Node1&#45;&gt;Node5</title>
<path fill="none" stroke="midnightblue" d="M129.213,-155.107C137.668,-156.227 146.327,-157.375 154.825,-158.501"/>
<polygon fill="midnightblue" stroke="midnightblue" points="129.399,-151.601 119.025,-153.756 128.479,-158.54 129.399,-151.601"/>
</g>
<!-- Node6 -->
<g id="node6" class="node"><title>Node6</title>
<g id="a_node6"><a xlink:href="classtomoBay_1_1model_1_1services_1_1factories_1_1OutOfHoursServiceFactory.html" target="_top" xlink:title="Copyright(C) 2015 Jan P.C. ">
<polygon fill="white" stroke="black" points="160,-114.5 160,-133.5 295,-133.5 295,-114.5 160,-114.5"/>
<text text-anchor="middle" x="227.5" y="-121.5" font-family="Helvetica,sans-Serif" font-size="10.00">OutOfHoursServiceFactory</text>
</a>
</g>
</g>
<!-- Node1&#45;&gt;Node6 -->
<g id="edge5" class="edge"><title>Node1&#45;&gt;Node6</title>
<path fill="none" stroke="midnightblue" d="M129.042,-136.916C139.182,-135.572 149.618,-134.189 159.72,-132.85"/>
<polygon fill="midnightblue" stroke="midnightblue" points="128.479,-133.46 119.025,-138.244 129.399,-140.399 128.479,-133.46"/>
</g>
<!-- Node7 -->
<g id="node7" class="node"><title>Node7</title>
<g id="a_node7"><a xlink:href="classtomoBay_1_1model_1_1services_1_1factories_1_1ReScanBuyerServiceFactory.html" target="_top" xlink:title="ReScanBuyerServiceFactory">
<polygon fill="white" stroke="black" points="156,-76.5 156,-95.5 299,-95.5 299,-76.5 156,-76.5"/>
<text text-anchor="middle" x="227.5" y="-83.5" font-family="Helvetica,sans-Serif" font-size="10.00">ReScanBuyerServiceFactory</text>
</a>
</g>
</g>
<!-- Node1&#45;&gt;Node7 -->
<g id="edge6" class="edge"><title>Node1&#45;&gt;Node7</title>
<path fill="none" stroke="midnightblue" d="M89.1341,-132.243C107.646,-123.684 132.416,-112.85 155,-105 165.07,-101.5 176.125,-98.272 186.47,-95.5079"/>
<polygon fill="midnightblue" stroke="midnightblue" points="87.6433,-129.076 80.0684,-136.484 90.6093,-135.417 87.6433,-129.076"/>
</g>
<!-- Node8 -->
<g id="node8" class="node"><title>Node8</title>
<g id="a_node8"><a xlink:href="classtomoBay_1_1model_1_1services_1_1factories_1_1ReScanErrorsServiceFactory.html" target="_top" xlink:title="ReScanErrorsServiceFactory">
<polygon fill="white" stroke="black" points="155.5,-38.5 155.5,-57.5 299.5,-57.5 299.5,-38.5 155.5,-38.5"/>
<text text-anchor="middle" x="227.5" y="-45.5" font-family="Helvetica,sans-Serif" font-size="10.00">ReScanErrorsServiceFactory</text>
</a>
</g>
</g>
<!-- Node1&#45;&gt;Node8 -->
<g id="edge7" class="edge"><title>Node1&#45;&gt;Node8</title>
<path fill="none" stroke="midnightblue" d="M76.3099,-128.942C93.8734,-110.982 123.881,-83.1227 155,-67 162.413,-63.1595 170.671,-60.0444 178.867,-57.5338"/>
<polygon fill="midnightblue" stroke="midnightblue" points="73.5403,-126.774 69.1565,-136.419 78.5984,-131.613 73.5403,-126.774"/>
</g>
<!-- Node9 -->
<g id="node9" class="node"><title>Node9</title>
<g id="a_node9"><a xlink:href="classtomoBay_1_1model_1_1services_1_1factories_1_1TestServiceFactory.html" target="_top" xlink:title="This factory creates a test service. ">
<polygon fill="white" stroke="black" points="176.5,-0.5 176.5,-19.5 278.5,-19.5 278.5,-0.5 176.5,-0.5"/>
<text text-anchor="middle" x="227.5" y="-7.5" font-family="Helvetica,sans-Serif" font-size="10.00">TestServiceFactory</text>
</a>
</g>
</g>
<!-- Node1&#45;&gt;Node9 -->
<g id="edge8" class="edge"><title>Node1&#45;&gt;Node9</title>
<path fill="none" stroke="midnightblue" d="M70.3346,-127.568C85.1722,-101.567 115.766,-54.4562 155,-29 161.465,-24.8054 168.827,-21.5333 176.31,-18.9817"/>
<polygon fill="midnightblue" stroke="midnightblue" points="67.2202,-125.967 65.4342,-136.411 73.3429,-129.361 67.2202,-125.967"/>
</g>
</g>
</svg>
