<?xml version="1.0" encoding="UTF-8" standalone="no"?>
<!DOCTYPE svg PUBLIC "-//W3C//DTD SVG 1.1//EN"
 "http://www.w3.org/Graphics/SVG/1.1/DTD/svg11.dtd">
<!-- Generated by graphviz version 2.38.0 (20140413.2041)
 -->
<!-- Title: Graphical Class Hierarchy Pages: 1 -->
<svg width="646pt" height="1294pt"
 viewBox="0.00 0.00 646.00 1294.00" xmlns="http://www.w3.org/2000/svg" xmlns:xlink="http://www.w3.org/1999/xlink">
<g id="graph0" class="graph" transform="scale(1 1) rotate(0) translate(4 1290)">
<title>Graphical Class Hierarchy</title>
<polygon fill="white" stroke="none" points="-4,4 -4,-1290 642,-1290 642,4 -4,4"/>
<!-- Node1 -->
<g id="node1" class="node"><title>Node1</title>
<g id="a_node1"><a xlink:href="classtomoBay_1_1model_1_1sql_1_1framework_1_1queryTypes_1_1AbstractDBQuery.html" target="_top" xlink:title="Interface that all database queries must adhere to. ">
<polygon fill="white" stroke="black" points="0,-800.5 0,-819.5 94,-819.5 94,-800.5 0,-800.5"/>
<text text-anchor="middle" x="47" y="-807.5" font-family="Helvetica,sans-Serif" font-size="10.00">AbstractDBQuery</text>
</a>
</g>
</g>
<!-- Node2 -->
<g id="node2" class="node"><title>Node2</title>
<g id="a_node2"><a xlink:href="classtomoBay_1_1model_1_1sql_1_1framework_1_1queryTypes_1_1modify_1_1AbstractModifyQuery.html" target="_top" xlink:title="Copyright(C) 2015 Jan P.C. ">
<polygon fill="white" stroke="black" points="130,-1019.5 130,-1038.5 239,-1038.5 239,-1019.5 130,-1019.5"/>
<text text-anchor="middle" x="184.5" y="-1026.5" font-family="Helvetica,sans-Serif" font-size="10.00">AbstractModifyQuery</text>
</a>
</g>
</g>
<!-- Node1&#45;&gt;Node2 -->
<g id="edge1" class="edge"><title>Node1&#45;&gt;Node2</title>
<path fill="none" stroke="midnightblue" d="M59.3522,-828.348C86.9431,-872.941 156.781,-985.816 177.572,-1019.42"/>
<polygon fill="midnightblue" stroke="midnightblue" points="62.2351,-826.355 53.9971,-819.693 56.2823,-830.038 62.2351,-826.355"/>
</g>
<!-- Node18 -->
<g id="node18" class="node"><title>Node18</title>
<g id="a_node18"><a xlink:href="classtomoBay_1_1model_1_1sql_1_1framework_1_1queryTypes_1_1select_1_1AbstractSelectQuery.html" target="_top" xlink:title="AbstractSelectQuery">
<polygon fill="white" stroke="black" points="131,-582.5 131,-601.5 238,-601.5 238,-582.5 131,-582.5"/>
<text text-anchor="middle" x="184.5" y="-589.5" font-family="Helvetica,sans-Serif" font-size="10.00">AbstractSelectQuery</text>
</a>
</g>
</g>
<!-- Node1&#45;&gt;Node18 -->
<g id="edge17" class="edge"><title>Node1&#45;&gt;Node18</title>
<path fill="none" stroke="midnightblue" d="M59.3522,-791.736C86.9431,-747.346 156.781,-634.987 177.572,-601.537"/>
<polygon fill="midnightblue" stroke="midnightblue" points="56.3035,-790.011 53.9971,-800.352 62.2487,-793.706 56.3035,-790.011"/>
</g>
<!-- Node3 -->
<g id="node3" class="node"><title>Node3</title>
<g id="a_node3"><a xlink:href="classtomoBay_1_1model_1_1sql_1_1framework_1_1queryTypes_1_1modify_1_1AbstractModifyQueryNoParams.html" target="_top" xlink:title="This is the Abstract Base Class for all queries that modify the database in some way (INSERT/UPDATE/D...">
<polygon fill="white" stroke="black" points="275,-1057.5 275,-1076.5 430,-1076.5 430,-1057.5 275,-1057.5"/>
<text text-anchor="middle" x="352.5" y="-1064.5" font-family="Helvetica,sans-Serif" font-size="10.00">AbstractModifyQueryNoParams</text>
</a>
</g>
</g>
<!-- Node2&#45;&gt;Node3 -->
<g id="edge2" class="edge"><title>Node2&#45;&gt;Node3</title>
<path fill="none" stroke="midnightblue" d="M237.153,-1040.82C260.556,-1046.18 287.857,-1052.43 309.912,-1057.48"/>
<polygon fill="midnightblue" stroke="midnightblue" points="237.918,-1037.41 227.389,-1038.59 236.356,-1044.23 237.918,-1037.41"/>
</g>
<!-- Node4 -->
<g id="node4" class="node"><title>Node4</title>
<g id="a_node4"><a xlink:href="classtomoBay_1_1model_1_1sql_1_1framework_1_1queryTypes_1_1modify_1_1AbstractModifyQueryParams.html" target="_top" xlink:title="This is the Abstract Base class for all queries that modify the database in some way (INSERT/UPDATE/D...">
<polygon fill="white" stroke="black" points="281,-1019.5 281,-1038.5 424,-1038.5 424,-1019.5 281,-1019.5"/>
<text text-anchor="middle" x="352.5" y="-1026.5" font-family="Helvetica,sans-Serif" font-size="10.00">AbstractModifyQueryParams</text>
</a>
</g>
</g>
<!-- Node2&#45;&gt;Node4 -->
<g id="edge3" class="edge"><title>Node2&#45;&gt;Node4</title>
<path fill="none" stroke="midnightblue" d="M249.523,-1029C259.813,-1029 270.514,-1029 280.947,-1029"/>
<polygon fill="midnightblue" stroke="midnightblue" points="249.395,-1025.5 239.395,-1029 249.395,-1032.5 249.395,-1025.5"/>
</g>
<!-- Node5 -->
<g id="node5" class="node"><title>Node5</title>
<g id="a_node5"><a xlink:href="classtomoBay_1_1model_1_1sql_1_1queries_1_1concreteQueries_1_1delete_1_1DeleteOrderFromOrderStatus.html" target="_top" xlink:title="deletes a particular order from the order_status table in the database. ">
<polygon fill="white" stroke="black" points="480,-1266.5 480,-1285.5 624,-1285.5 624,-1266.5 480,-1266.5"/>
<text text-anchor="middle" x="552" y="-1273.5" font-family="Helvetica,sans-Serif" font-size="10.00">DeleteOrderFromOrderStatus</text>
</a>
</g>
</g>
<!-- Node4&#45;&gt;Node5 -->
<g id="edge4" class="edge"><title>Node4&#45;&gt;Node5</title>
<path fill="none" stroke="midnightblue" d="M426.135,-1044.32C427.491,-1045.47 428.783,-1046.69 430,-1048 494.178,-1117.03 401.015,-1188.73 466,-1257 469.962,-1261.16 474.62,-1264.51 479.681,-1267.19"/>
<polygon fill="midnightblue" stroke="midnightblue" points="427.972,-1041.34 417.741,-1038.58 424.022,-1047.12 427.972,-1041.34"/>
</g>
<!-- Node6 -->
<g id="node6" class="node"><title>Node6</title>
<g id="a_node6"><a xlink:href="classtomoBay_1_1model_1_1sql_1_1queries_1_1concreteQueries_1_1insert_1_1InsertEbayBuyers.html" target="_top" xlink:title="This class represents a query that inserts buyer details into the database. ">
<polygon fill="white" stroke="black" points="504.5,-1228.5 504.5,-1247.5 599.5,-1247.5 599.5,-1228.5 504.5,-1228.5"/>
<text text-anchor="middle" x="552" y="-1235.5" font-family="Helvetica,sans-Serif" font-size="10.00">InsertEbayBuyers</text>
</a>
</g>
</g>
<!-- Node4&#45;&gt;Node6 -->
<g id="edge5" class="edge"><title>Node4&#45;&gt;Node6</title>
<path fill="none" stroke="midnightblue" d="M425.961,-1044.29C427.376,-1045.45 428.726,-1046.68 430,-1048 483.922,-1103.9 411.424,-1163.74 466,-1219 476.094,-1229.22 490.402,-1234.47 504.406,-1237.03"/>
<polygon fill="midnightblue" stroke="midnightblue" points="427.502,-1041.12 417.227,-1038.53 423.648,-1046.96 427.502,-1041.12"/>
</g>
<!-- Node7 -->
<g id="node7" class="node"><title>Node7</title>
<g id="a_node7"><a xlink:href="classtomoBay_1_1model_1_1sql_1_1queries_1_1concreteQueries_1_1insert_1_1InsertEbayItems.html" target="_top" xlink:title="This class represents a query that inserts item details into the items table of the database...">
<polygon fill="white" stroke="black" points="507.5,-1190.5 507.5,-1209.5 596.5,-1209.5 596.5,-1190.5 507.5,-1190.5"/>
<text text-anchor="middle" x="552" y="-1197.5" font-family="Helvetica,sans-Serif" font-size="10.00">InsertEbayItems</text>
</a>
</g>
</g>
<!-- Node4&#45;&gt;Node7 -->
<g id="edge6" class="edge"><title>Node4&#45;&gt;Node7</title>
<path fill="none" stroke="midnightblue" d="M425.344,-1043.99C426.976,-1045.23 428.533,-1046.56 430,-1048 473.752,-1090.85 421.747,-1138.67 466,-1181 477.036,-1191.56 492.595,-1196.74 507.39,-1199.15"/>
<polygon fill="midnightblue" stroke="midnightblue" points="426.968,-1040.88 416.628,-1038.57 423.272,-1046.83 426.968,-1040.88"/>
</g>
<!-- Node8 -->
<g id="node8" class="node"><title>Node8</title>
<g id="a_node8"><a xlink:href="classtomoBay_1_1model_1_1sql_1_1queries_1_1concreteQueries_1_1insert_1_1InsertEbayOrders.html" target="_top" xlink:title="This class represents a class that inserts order data into the orders table of the database...">
<polygon fill="white" stroke="black" points="505.5,-1152.5 505.5,-1171.5 598.5,-1171.5 598.5,-1152.5 505.5,-1152.5"/>
<text text-anchor="middle" x="552" y="-1159.5" font-family="Helvetica,sans-Serif" font-size="10.00">InsertEbayOrders</text>
</a>
</g>
</g>
<!-- Node4&#45;&gt;Node8 -->
<g id="edge7" class="edge"><title>Node4&#45;&gt;Node8</title>
<path fill="none" stroke="midnightblue" d="M424.462,-1043.71C426.401,-1045.02 428.254,-1046.45 430,-1048 463.766,-1077.98 431.883,-1113.42 466,-1143 476.854,-1152.41 491.358,-1157.45 505.308,-1160.07"/>
<polygon fill="midnightblue" stroke="midnightblue" points="425.915,-1040.51 415.488,-1038.63 422.471,-1046.6 425.915,-1040.51"/>
</g>
<!-- Node9 -->
<g id="node9" class="node"><title>Node9</title>
<g id="a_node9"><a xlink:href="classtomoBay_1_1model_1_1sql_1_1queries_1_1concreteQueries_1_1insert_1_1InsertEbayTransactions.html" target="_top" xlink:title="This class represents a query that inserts transaction data into the transactions table of the databa...">
<polygon fill="white" stroke="black" points="492,-1114.5 492,-1133.5 612,-1133.5 612,-1114.5 492,-1114.5"/>
<text text-anchor="middle" x="552" y="-1121.5" font-family="Helvetica,sans-Serif" font-size="10.00">InsertEbayTransactions</text>
</a>
</g>
</g>
<!-- Node4&#45;&gt;Node9 -->
<g id="edge8" class="edge"><title>Node4&#45;&gt;Node9</title>
<path fill="none" stroke="midnightblue" d="M421.549,-1042.79C424.502,-1044.35 427.337,-1046.08 430,-1048 454.291,-1065.54 441.505,-1087.74 466,-1105 473.664,-1110.4 482.602,-1114.3 491.747,-1117.11"/>
<polygon fill="midnightblue" stroke="midnightblue" points="422.946,-1039.58 412.394,-1038.63 420.048,-1045.96 422.946,-1039.58"/>
</g>
<!-- Node10 -->
<g id="node10" class="node"><title>Node10</title>
<g id="a_node10"><a xlink:href="classtomoBay_1_1model_1_1sql_1_1queries_1_1concreteQueries_1_1insert_1_1InsertOrderInOrderStatus.html" target="_top" xlink:title="This Class represents a Query that inserts an order into the order_status table in the database...">
<polygon fill="white" stroke="black" points="489,-1076.5 489,-1095.5 615,-1095.5 615,-1076.5 489,-1076.5"/>
<text text-anchor="middle" x="552" y="-1083.5" font-family="Helvetica,sans-Serif" font-size="10.00">InsertOrderInOrderStatus</text>
</a>
</g>
</g>
<!-- Node4&#45;&gt;Node10 -->
<g id="edge9" class="edge"><title>Node4&#45;&gt;Node10</title>
<path fill="none" stroke="midnightblue" d="M409.807,-1041.32C416.687,-1043.31 423.557,-1045.54 430,-1048 446.903,-1054.45 449.022,-1060.75 466,-1067 476.217,-1070.76 487.41,-1073.91 498.223,-1076.49"/>
<polygon fill="midnightblue" stroke="midnightblue" points="410.338,-1037.84 399.768,-1038.58 408.489,-1044.59 410.338,-1037.84"/>
</g>
<!-- Node11 -->
<g id="node11" class="node"><title>Node11</title>
<g id="a_node11"><a xlink:href="classtomoBay_1_1model_1_1sql_1_1queries_1_1concreteQueries_1_1insert_1_1InsertOutOfHoursOrders.html" target="_top" xlink:title="This class represents a query that inserts a new entry into the outOfHours table in the database...">
<polygon fill="white" stroke="black" points="490.5,-1038.5 490.5,-1057.5 613.5,-1057.5 613.5,-1038.5 490.5,-1038.5"/>
<text text-anchor="middle" x="552" y="-1045.5" font-family="Helvetica,sans-Serif" font-size="10.00">InsertOutOfHoursOrders</text>
</a>
</g>
</g>
<!-- Node4&#45;&gt;Node11 -->
<g id="edge10" class="edge"><title>Node4&#45;&gt;Node11</title>
<path fill="none" stroke="midnightblue" d="M434.228,-1036.77C452.935,-1038.57 472.535,-1040.45 490.219,-1042.15"/>
<polygon fill="midnightblue" stroke="midnightblue" points="434.533,-1033.28 424.244,-1035.81 433.863,-1040.25 434.533,-1033.28"/>
</g>
<!-- Node12 -->
<g id="node12" class="node"><title>Node12</title>
<g id="a_node12"><a xlink:href="classtomoBay_1_1model_1_1sql_1_1queries_1_1concreteQueries_1_1update_1_1UpdateEbayBuyer.html" target="_top" xlink:title="This class represents an sql query that updates a record the buyer table in the database with new inf...">
<polygon fill="white" stroke="black" points="504,-1000.5 504,-1019.5 600,-1019.5 600,-1000.5 504,-1000.5"/>
<text text-anchor="middle" x="552" y="-1007.5" font-family="Helvetica,sans-Serif" font-size="10.00">UpdateEbayBuyer</text>
</a>
</g>
</g>
<!-- Node4&#45;&gt;Node12 -->
<g id="edge11" class="edge"><title>Node4&#45;&gt;Node12</title>
<path fill="none" stroke="midnightblue" d="M434.285,-1021.23C457.955,-1018.95 483.05,-1016.54 503.881,-1014.53"/>
<polygon fill="midnightblue" stroke="midnightblue" points="433.863,-1017.75 424.244,-1022.19 434.533,-1024.72 433.863,-1017.75"/>
</g>
<!-- Node13 -->
<g id="node13" class="node"><title>Node13</title>
<g id="a_node13"><a xlink:href="classtomoBay_1_1model_1_1sql_1_1queries_1_1concreteQueries_1_1update_1_1UpdateInvoiceStatus.html" target="_top" xlink:title="This class represents a query that updates the &#39;invoiced&#39; field of particular order on the orders tab...">
<polygon fill="white" stroke="black" points="498,-962.5 498,-981.5 606,-981.5 606,-962.5 498,-962.5"/>
<text text-anchor="middle" x="552" y="-969.5" font-family="Helvetica,sans-Serif" font-size="10.00">UpdateInvoiceStatus</text>
</a>
</g>
</g>
<!-- Node4&#45;&gt;Node13 -->
<g id="edge12" class="edge"><title>Node4&#45;&gt;Node13</title>
<path fill="none" stroke="midnightblue" d="M388.763,-1016.02C410.786,-1008.18 439.831,-998.322 466,-991 478.232,-987.577 491.588,-984.355 504.014,-981.57"/>
<polygon fill="midnightblue" stroke="midnightblue" points="387.403,-1012.79 379.174,-1019.46 389.769,-1019.38 387.403,-1012.79"/>
</g>
<!-- Node14 -->
<g id="node14" class="node"><title>Node14</title>
<g id="a_node14"><a xlink:href="classtomoBay_1_1model_1_1sql_1_1queries_1_1concreteQueries_1_1update_1_1UpdateInvoiceStatusSRN.html" target="_top" xlink:title="This class represents a query that updates the invoice status of a particular order. ">
<polygon fill="white" stroke="black" points="487,-924.5 487,-943.5 617,-943.5 617,-924.5 487,-924.5"/>
<text text-anchor="middle" x="552" y="-931.5" font-family="Helvetica,sans-Serif" font-size="10.00">UpdateInvoiceStatusSRN</text>
</a>
</g>
</g>
<!-- Node4&#45;&gt;Node14 -->
<g id="edge13" class="edge"><title>Node4&#45;&gt;Node14</title>
<path fill="none" stroke="midnightblue" d="M372.41,-1012.93C393.771,-995.595 430.235,-968.418 466,-953 474.887,-949.169 484.643,-946.066 494.278,-943.566"/>
<polygon fill="midnightblue" stroke="midnightblue" points="369.964,-1010.41 364.483,-1019.47 374.422,-1015.81 369.964,-1010.41"/>
</g>
<!-- Node15 -->
<g id="node15" class="node"><title>Node15</title>
<g id="a_node15"><a xlink:href="classtomoBay_1_1model_1_1sql_1_1queries_1_1concreteQueries_1_1update_1_1UpdateItemBrandAndPartNo.html" target="_top" xlink:title="This class represents a query that updates the brand and partNo of a particular item in the items tab...">
<polygon fill="white" stroke="black" points="481.5,-886.5 481.5,-905.5 622.5,-905.5 622.5,-886.5 481.5,-886.5"/>
<text text-anchor="middle" x="552" y="-893.5" font-family="Helvetica,sans-Serif" font-size="10.00">UpdateItemBrandAndPartNo</text>
</a>
</g>
</g>
<!-- Node4&#45;&gt;Node15 -->
<g id="edge14" class="edge"><title>Node4&#45;&gt;Node15</title>
<path fill="none" stroke="midnightblue" d="M366.09,-1010.82C384.801,-985.255 422.46,-939.125 466,-915 473.01,-911.116 480.761,-908.026 488.645,-905.567"/>
<polygon fill="midnightblue" stroke="midnightblue" points="363.047,-1009.06 360.077,-1019.23 368.741,-1013.13 363.047,-1009.06"/>
</g>
<!-- Node16 -->
<g id="node16" class="node"><title>Node16</title>
<g id="a_node16"><a xlink:href="classtomoBay_1_1model_1_1sql_1_1queries_1_1concreteQueries_1_1update_1_1UpdateItemError.html" target="_top" xlink:title="This class represents a query that updates the brand and partNo of a particular item in the items tab...">
<polygon fill="white" stroke="black" points="507.5,-848.5 507.5,-867.5 596.5,-867.5 596.5,-848.5 507.5,-848.5"/>
<text text-anchor="middle" x="552" y="-855.5" font-family="Helvetica,sans-Serif" font-size="10.00">UpdateItemError</text>
</a>
</g>
</g>
<!-- Node4&#45;&gt;Node16 -->
<g id="edge15" class="edge"><title>Node4&#45;&gt;Node16</title>
<path fill="none" stroke="midnightblue" d="M361.998,-1009.96C377.615,-977.271 414.101,-910.764 466,-877 478.168,-869.084 493.163,-864.433 507.154,-861.712"/>
<polygon fill="midnightblue" stroke="midnightblue" points="358.699,-1008.75 357.668,-1019.29 365.049,-1011.69 358.699,-1008.75"/>
</g>
<!-- Node17 -->
<g id="node17" class="node"><title>Node17</title>
<g id="a_node17"><a xlink:href="classtomoBay_1_1model_1_1sql_1_1queries_1_1concreteQueries_1_1update_1_1UpdateItemNote.html" target="_top" xlink:title="This class represents a query that updates the notes field of the ebay_items table in the database...">
<polygon fill="white" stroke="black" points="507.5,-810.5 507.5,-829.5 596.5,-829.5 596.5,-810.5 507.5,-810.5"/>
<text text-anchor="middle" x="552" y="-817.5" font-family="Helvetica,sans-Serif" font-size="10.00">UpdateItemNote</text>
</a>
</g>
</g>
<!-- Node4&#45;&gt;Node17 -->
<g id="edge16" class="edge"><title>Node4&#45;&gt;Node17</title>
<path fill="none" stroke="midnightblue" d="M359.198,-1009.62C371.69,-970.719 405.323,-883.06 466,-839 477.868,-830.382 492.946,-825.567 507.097,-822.91"/>
<polygon fill="midnightblue" stroke="midnightblue" points="355.839,-1008.64 356.23,-1019.23 362.527,-1010.71 355.839,-1008.64"/>
</g>
<!-- Node19 -->
<g id="node19" class="node"><title>Node19</title>
<g id="a_node19"><a xlink:href="classtomoBay_1_1model_1_1sql_1_1framework_1_1queryTypes_1_1select_1_1AbstractSelectNoParamsQuery.html" target="_top" xlink:title="This class defines the Abstract base for all Select queries that do not require parameters. ">
<polygon fill="white" stroke="black" points="275.5,-582.5 275.5,-601.5 429.5,-601.5 429.5,-582.5 275.5,-582.5"/>
<text text-anchor="middle" x="352.5" y="-589.5" font-family="Helvetica,sans-Serif" font-size="10.00">AbstractSelectNoParamsQuery</text>
</a>
</g>
</g>
<!-- Node18&#45;&gt;Node19 -->
<g id="edge18" class="edge"><title>Node18&#45;&gt;Node19</title>
<path fill="none" stroke="midnightblue" d="M248.245,-592C257.102,-592 266.287,-592 275.362,-592"/>
<polygon fill="midnightblue" stroke="midnightblue" points="248.023,-588.5 238.023,-592 248.023,-595.5 248.023,-588.5"/>
</g>
<!-- Node31 -->
<g id="node31" class="node"><title>Node31</title>
<g id="a_node31"><a xlink:href="classtomoBay_1_1model_1_1sql_1_1framework_1_1queryTypes_1_1select_1_1AbstractSelectParamsQuery.html" target="_top" xlink:title="This class defines the abstract base for all Select queries that take parameters. ...">
<polygon fill="white" stroke="black" points="282,-190.5 282,-209.5 423,-209.5 423,-190.5 282,-190.5"/>
<text text-anchor="middle" x="352.5" y="-197.5" font-family="Helvetica,sans-Serif" font-size="10.00">AbstractSelectParamsQuery</text>
</a>
</g>
</g>
<!-- Node18&#45;&gt;Node31 -->
<g id="edge30" class="edge"><title>Node18&#45;&gt;Node31</title>
<path fill="none" stroke="midnightblue" d="M193.576,-572.928C223.239,-502.88 325.581,-261.206 347.391,-209.702"/>
<polygon fill="midnightblue" stroke="midnightblue" points="190.28,-571.737 189.603,-582.31 196.726,-574.467 190.28,-571.737"/>
</g>
<!-- Node20 -->
<g id="node20" class="node"><title>Node20</title>
<g id="a_node20"><a xlink:href="classtomoBay_1_1model_1_1sql_1_1queries_1_1concreteQueries_1_1select_1_1noParams_1_1SelectAccounts.html" target="_top" xlink:title="SelectAccounts">
<polygon fill="white" stroke="black" points="509,-772.5 509,-791.5 595,-791.5 595,-772.5 509,-772.5"/>
<text text-anchor="middle" x="552" y="-779.5" font-family="Helvetica,sans-Serif" font-size="10.00">SelectAccounts</text>
</a>
</g>
</g>
<!-- Node19&#45;&gt;Node20 -->
<g id="edge19" class="edge"><title>Node19&#45;&gt;Node20</title>
<path fill="none" stroke="midnightblue" d="M360.524,-611.379C374.602,-647.326 409.821,-724.202 466,-763 478.442,-771.593 494.134,-776.372 508.638,-779.005"/>
<polygon fill="midnightblue" stroke="midnightblue" points="363.646,-609.739 356.834,-601.624 357.099,-612.216 363.646,-609.739"/>
</g>
<!-- Node21 -->
<g id="node21" class="node"><title>Node21</title>
<g id="a_node21"><a xlink:href="classtomoBay_1_1model_1_1sql_1_1queries_1_1concreteQueries_1_1select_1_1noParams_1_1SelectEbayBuyers.html" target="_top" xlink:title="SelectEbayBuyers">
<polygon fill="white" stroke="black" points="503,-734.5 503,-753.5 601,-753.5 601,-734.5 503,-734.5"/>
<text text-anchor="middle" x="552" y="-741.5" font-family="Helvetica,sans-Serif" font-size="10.00">SelectEbayBuyers</text>
</a>
</g>
</g>
<!-- Node19&#45;&gt;Node21 -->
<g id="edge20" class="edge"><title>Node19&#45;&gt;Node21</title>
<path fill="none" stroke="midnightblue" d="M363.594,-610.294C380.668,-639.425 418.116,-696.016 466,-725 476.995,-731.656 490.06,-735.986 502.608,-738.802"/>
<polygon fill="midnightblue" stroke="midnightblue" points="366.597,-608.495 358.599,-601.547 360.518,-611.966 366.597,-608.495"/>
</g>
<!-- Node22 -->
<g id="node22" class="node"><title>Node22</title>
<g id="a_node22"><a xlink:href="classtomoBay_1_1model_1_1sql_1_1queries_1_1concreteQueries_1_1select_1_1noParams_1_1SelectEbayItems.html" target="_top" xlink:title="This class represents a query that selects all the fields in the items table of the database...">
<polygon fill="white" stroke="black" points="506,-696.5 506,-715.5 598,-715.5 598,-696.5 506,-696.5"/>
<text text-anchor="middle" x="552" y="-703.5" font-family="Helvetica,sans-Serif" font-size="10.00">SelectEbayItems</text>
</a>
</g>
</g>
<!-- Node19&#45;&gt;Node22 -->
<g id="edge21" class="edge"><title>Node19&#45;&gt;Node22</title>
<path fill="none" stroke="midnightblue" d="M368.539,-608.987C388.59,-630.533 426.201,-667.253 466,-687 478.326,-693.116 492.63,-697.285 505.947,-700.118"/>
<polygon fill="midnightblue" stroke="midnightblue" points="371.071,-606.569 361.746,-601.539 365.899,-611.286 371.071,-606.569"/>
</g>
<!-- Node23 -->
<g id="node23" class="node"><title>Node23</title>
<g id="a_node23"><a xlink:href="classtomoBay_1_1model_1_1sql_1_1queries_1_1concreteQueries_1_1select_1_1noParams_1_1SelectEbayItemsError.html" target="_top" xlink:title="SelectEbayItemsError">
<polygon fill="white" stroke="black" points="495.5,-658.5 495.5,-677.5 608.5,-677.5 608.5,-658.5 495.5,-658.5"/>
<text text-anchor="middle" x="552" y="-665.5" font-family="Helvetica,sans-Serif" font-size="10.00">SelectEbayItemsError</text>
</a>
</g>
</g>
<!-- Node19&#45;&gt;Node23 -->
<g id="edge22" class="edge"><title>Node19&#45;&gt;Node23</title>
<path fill="none" stroke="midnightblue" d="M378.112,-606.732C400.387,-619.508 434.442,-637.679 466,-649 476.39,-652.727 487.766,-655.874 498.721,-658.468"/>
<polygon fill="midnightblue" stroke="midnightblue" points="379.733,-603.625 369.329,-601.622 376.213,-609.676 379.733,-603.625"/>
</g>
<!-- Node24 -->
<g id="node24" class="node"><title>Node24</title>
<g id="a_node24"><a xlink:href="classtomoBay_1_1model_1_1sql_1_1queries_1_1concreteQueries_1_1select_1_1noParams_1_1SelectEbayItemsNotInTransactions.html" target="_top" xlink:title="This class represents a query that selects all items (from the transactions table) that do not curren...">
<polygon fill="white" stroke="black" points="466,-620.5 466,-639.5 638,-639.5 638,-620.5 466,-620.5"/>
<text text-anchor="middle" x="552" y="-627.5" font-family="Helvetica,sans-Serif" font-size="10.00">SelectEbayItemsNotInTransactions</text>
</a>
</g>
</g>
<!-- Node19&#45;&gt;Node24 -->
<g id="edge23" class="edge"><title>Node19&#45;&gt;Node24</title>
<path fill="none" stroke="midnightblue" d="M413.215,-603.489C441.395,-608.911 474.629,-615.306 501.397,-620.456"/>
<polygon fill="midnightblue" stroke="midnightblue" points="413.564,-599.992 403.083,-601.54 412.241,-606.866 413.564,-599.992"/>
</g>
<!-- Node25 -->
<g id="node25" class="node"><title>Node25</title>
<g id="a_node25"><a xlink:href="classtomoBay_1_1model_1_1sql_1_1queries_1_1concreteQueries_1_1select_1_1noParams_1_1SelectEbayOrders.html" target="_top" xlink:title="This class represents a query that selects all data contained in the orders table of the database sor...">
<polygon fill="white" stroke="black" points="504,-582.5 504,-601.5 600,-601.5 600,-582.5 504,-582.5"/>
<text text-anchor="middle" x="552" y="-589.5" font-family="Helvetica,sans-Serif" font-size="10.00">SelectEbayOrders</text>
</a>
</g>
</g>
<!-- Node19&#45;&gt;Node25 -->
<g id="edge24" class="edge"><title>Node19&#45;&gt;Node25</title>
<path fill="none" stroke="midnightblue" d="M439.627,-592C461.667,-592 484.56,-592 503.816,-592"/>
<polygon fill="midnightblue" stroke="midnightblue" points="439.576,-588.5 429.576,-592 439.576,-595.5 439.576,-588.5"/>
</g>
<!-- Node26 -->
<g id="node26" class="node"><title>Node26</title>
<g id="a_node26"><a xlink:href="classtomoBay_1_1model_1_1sql_1_1queries_1_1concreteQueries_1_1select_1_1noParams_1_1SelectInvoicedOrders.html" target="_top" xlink:title="This class represents a query that selects all data from the orders table that is not currently invoi...">
<polygon fill="white" stroke="black" points="497,-544.5 497,-563.5 607,-563.5 607,-544.5 497,-544.5"/>
<text text-anchor="middle" x="552" y="-551.5" font-family="Helvetica,sans-Serif" font-size="10.00">SelectInvoicedOrders</text>
</a>
</g>
</g>
<!-- Node19&#45;&gt;Node26 -->
<g id="edge25" class="edge"><title>Node19&#45;&gt;Node26</title>
<path fill="none" stroke="midnightblue" d="M413.215,-580.511C441.395,-575.089 474.629,-568.694 501.397,-563.544"/>
<polygon fill="midnightblue" stroke="midnightblue" points="412.241,-577.134 403.083,-582.46 413.564,-584.008 412.241,-577.134"/>
</g>
<!-- Node27 -->
<g id="node27" class="node"><title>Node27</title>
<g id="a_node27"><a xlink:href="classtomoBay_1_1model_1_1sql_1_1queries_1_1concreteQueries_1_1select_1_1noParams_1_1SelectUncalculatedInvoices.html" target="_top" xlink:title="SelectUncalculatedInvoices">
<polygon fill="white" stroke="black" points="483,-506.5 483,-525.5 621,-525.5 621,-506.5 483,-506.5"/>
<text text-anchor="middle" x="552" y="-513.5" font-family="Helvetica,sans-Serif" font-size="10.00">SelectUncalculatedInvoices</text>
</a>
</g>
</g>
<!-- Node19&#45;&gt;Node27 -->
<g id="edge26" class="edge"><title>Node19&#45;&gt;Node27</title>
<path fill="none" stroke="midnightblue" d="M378.112,-577.268C400.387,-564.492 434.442,-546.321 466,-535 476.39,-531.273 487.766,-528.126 498.721,-525.532"/>
<polygon fill="midnightblue" stroke="midnightblue" points="376.213,-574.324 369.329,-582.378 379.733,-580.375 376.213,-574.324"/>
</g>
<!-- Node28 -->
<g id="node28" class="node"><title>Node28</title>
<g id="a_node28"><a xlink:href="classtomoBay_1_1model_1_1sql_1_1queries_1_1concreteQueries_1_1select_1_1noParams_1_1SelectUncalculatedOrders.html" target="_top" xlink:title="SelectUncalculatedOrders">
<polygon fill="white" stroke="black" points="486.5,-468.5 486.5,-487.5 617.5,-487.5 617.5,-468.5 486.5,-468.5"/>
<text text-anchor="middle" x="552" y="-475.5" font-family="Helvetica,sans-Serif" font-size="10.00">SelectUncalculatedOrders</text>
</a>
</g>
</g>
<!-- Node19&#45;&gt;Node28 -->
<g id="edge27" class="edge"><title>Node19&#45;&gt;Node28</title>
<path fill="none" stroke="midnightblue" d="M368.539,-575.013C388.59,-553.467 426.201,-516.747 466,-497 473.856,-493.102 482.516,-489.995 491.211,-487.52"/>
<polygon fill="midnightblue" stroke="midnightblue" points="365.899,-572.714 361.746,-582.461 371.071,-577.431 365.899,-572.714"/>
</g>
<!-- Node29 -->
<g id="node29" class="node"><title>Node29</title>
<g id="a_node29"><a xlink:href="classtomoBay_1_1model_1_1sql_1_1queries_1_1concreteQueries_1_1select_1_1noParams_1_1SelectUninvoicedOrders.html" target="_top" xlink:title="This class represents a query that selects all data from the orders table that is not currently invoi...">
<polygon fill="white" stroke="black" points="491,-430.5 491,-449.5 613,-449.5 613,-430.5 491,-430.5"/>
<text text-anchor="middle" x="552" y="-437.5" font-family="Helvetica,sans-Serif" font-size="10.00">SelectUninvoicedOrders</text>
</a>
</g>
</g>
<!-- Node19&#45;&gt;Node29 -->
<g id="edge28" class="edge"><title>Node19&#45;&gt;Node29</title>
<path fill="none" stroke="midnightblue" d="M363.594,-573.706C380.668,-544.575 418.116,-487.984 466,-459 473.503,-454.459 481.969,-451 490.577,-448.366"/>
<polygon fill="midnightblue" stroke="midnightblue" points="360.518,-572.034 358.599,-582.453 366.597,-575.505 360.518,-572.034"/>
</g>
<!-- Node30 -->
<g id="node30" class="node"><title>Node30</title>
<g id="a_node30"><a xlink:href="classtomoBay_1_1model_1_1sql_1_1queries_1_1concreteQueries_1_1select_1_1noParams_1_1SelectUninvoicedOrdersNoErrors.html" target="_top" xlink:title="SelectUninvoicedOrdersNo\lErrors">
<polygon fill="white" stroke="black" points="484.5,-381 484.5,-411 619.5,-411 619.5,-381 484.5,-381"/>
<text text-anchor="start" x="492.5" y="-399" font-family="Helvetica,sans-Serif" font-size="10.00">SelectUninvoicedOrdersNo</text>
<text text-anchor="middle" x="552" y="-388" font-family="Helvetica,sans-Serif" font-size="10.00">Errors</text>
</a>
</g>
</g>
<!-- Node19&#45;&gt;Node30 -->
<g id="edge29" class="edge"><title>Node19&#45;&gt;Node30</title>
<path fill="none" stroke="midnightblue" d="M360.976,-572.461C375.596,-536.874 411.394,-461.443 466,-421 471.562,-416.88 477.796,-413.437 484.292,-410.558"/>
<polygon fill="midnightblue" stroke="midnightblue" points="357.568,-571.558 357.121,-582.143 364.072,-574.147 357.568,-571.558"/>
</g>
<!-- Node32 -->
<g id="node32" class="node"><title>Node32</title>
<g id="a_node32"><a xlink:href="classtomoBay_1_1model_1_1sql_1_1queries_1_1concreteQueries_1_1select_1_1params_1_1SelectBrandAndPartNoByOrderID.html" target="_top" xlink:title="This class represents a query that selects the brand and part number fields associated with a particu...">
<polygon fill="white" stroke="black" points="470,-342.5 470,-361.5 634,-361.5 634,-342.5 470,-342.5"/>
<text text-anchor="middle" x="552" y="-349.5" font-family="Helvetica,sans-Serif" font-size="10.00">SelectBrandAndPartNoByOrderID</text>
</a>
</g>
</g>
<!-- Node31&#45;&gt;Node32 -->
<g id="edge31" class="edge"><title>Node31&#45;&gt;Node32</title>
<path fill="none" stroke="midnightblue" d="M363.594,-218.294C380.668,-247.425 418.116,-304.016 466,-333 472.468,-336.915 479.652,-340.026 487.025,-342.497"/>
<polygon fill="midnightblue" stroke="midnightblue" points="366.597,-216.495 358.599,-209.547 360.518,-219.966 366.597,-216.495"/>
</g>
<!-- Node33 -->
<g id="node33" class="node"><title>Node33</title>
<g id="a_node33"><a xlink:href="classtomoBay_1_1model_1_1sql_1_1queries_1_1concreteQueries_1_1select_1_1params_1_1SelectBrandByInv.html" target="_top" xlink:title="This class represents a Query that selects the Brand value associated with a particular invoice numbe...">
<polygon fill="white" stroke="black" points="504.5,-304.5 504.5,-323.5 599.5,-323.5 599.5,-304.5 504.5,-304.5"/>
<text text-anchor="middle" x="552" y="-311.5" font-family="Helvetica,sans-Serif" font-size="10.00">SelectBrandByInv</text>
</a>
</g>
</g>
<!-- Node31&#45;&gt;Node33 -->
<g id="edge32" class="edge"><title>Node31&#45;&gt;Node33</title>
<path fill="none" stroke="midnightblue" d="M368.539,-216.987C388.59,-238.533 426.201,-275.253 466,-295 477.784,-300.847 491.376,-304.915 504.186,-307.736"/>
<polygon fill="midnightblue" stroke="midnightblue" points="371.071,-214.569 361.746,-209.539 365.899,-219.286 371.071,-214.569"/>
</g>
<!-- Node34 -->
<g id="node34" class="node"><title>Node34</title>
<g id="a_node34"><a xlink:href="classtomoBay_1_1model_1_1sql_1_1queries_1_1concreteQueries_1_1select_1_1params_1_1SelectEbayBuyer.html" target="_top" xlink:title="This class represents a query that selects all the information contained within the ebay_buyers table...">
<polygon fill="white" stroke="black" points="506,-266.5 506,-285.5 598,-285.5 598,-266.5 506,-266.5"/>
<text text-anchor="middle" x="552" y="-273.5" font-family="Helvetica,sans-Serif" font-size="10.00">SelectEbayBuyer</text>
</a>
</g>
</g>
<!-- Node31&#45;&gt;Node34 -->
<g id="edge33" class="edge"><title>Node31&#45;&gt;Node34</title>
<path fill="none" stroke="midnightblue" d="M378.112,-214.732C400.387,-227.508 434.442,-245.679 466,-257 478.667,-261.544 492.8,-265.225 505.849,-268.094"/>
<polygon fill="midnightblue" stroke="midnightblue" points="379.733,-211.625 369.329,-209.622 376.213,-217.676 379.733,-211.625"/>
</g>
<!-- Node35 -->
<g id="node35" class="node"><title>Node35</title>
<g id="a_node35"><a xlink:href="classtomoBay_1_1model_1_1sql_1_1queries_1_1concreteQueries_1_1select_1_1params_1_1SelectEbayItemSpecific.html" target="_top" xlink:title="This class represents a query that selects all fields related to a specific item from the items table...">
<polygon fill="white" stroke="black" points="491,-228.5 491,-247.5 613,-247.5 613,-228.5 491,-228.5"/>
<text text-anchor="middle" x="552" y="-235.5" font-family="Helvetica,sans-Serif" font-size="10.00">SelectEbayItemSpecific</text>
</a>
</g>
</g>
<!-- Node31&#45;&gt;Node35 -->
<g id="edge34" class="edge"><title>Node31&#45;&gt;Node35</title>
<path fill="none" stroke="midnightblue" d="M413.215,-211.489C441.395,-216.911 474.629,-223.306 501.397,-228.456"/>
<polygon fill="midnightblue" stroke="midnightblue" points="413.564,-207.992 403.083,-209.54 412.241,-214.866 413.564,-207.992"/>
</g>
<!-- Node36 -->
<g id="node36" class="node"><title>Node36</title>
<g id="a_node36"><a xlink:href="classtomoBay_1_1model_1_1sql_1_1queries_1_1concreteQueries_1_1select_1_1params_1_1SelectEbayOrderByBuyer.html" target="_top" xlink:title="This class represents a query that selects the orderID and account from the ebay_orders table where t...">
<polygon fill="white" stroke="black" points="488,-190.5 488,-209.5 616,-209.5 616,-190.5 488,-190.5"/>
<text text-anchor="middle" x="552" y="-197.5" font-family="Helvetica,sans-Serif" font-size="10.00">SelectEbayOrderByBuyer</text>
</a>
</g>
</g>
<!-- Node31&#45;&gt;Node36 -->
<g id="edge35" class="edge"><title>Node31&#45;&gt;Node36</title>
<path fill="none" stroke="midnightblue" d="M433.148,-200C451.376,-200 470.507,-200 487.926,-200"/>
<polygon fill="midnightblue" stroke="midnightblue" points="433.131,-196.5 423.131,-200 433.131,-203.5 433.131,-196.5"/>
</g>
<!-- Node37 -->
<g id="node37" class="node"><title>Node37</title>
<g id="a_node37"><a xlink:href="classtomoBay_1_1model_1_1sql_1_1queries_1_1concreteQueries_1_1select_1_1params_1_1SelectEbayOrderByID.html" target="_top" xlink:title="This class represents a query that selects all the fields from the ebay_orders table where the orderI...">
<polygon fill="white" stroke="black" points="495.5,-152.5 495.5,-171.5 608.5,-171.5 608.5,-152.5 495.5,-152.5"/>
<text text-anchor="middle" x="552" y="-159.5" font-family="Helvetica,sans-Serif" font-size="10.00">SelectEbayOrderByID</text>
</a>
</g>
</g>
<!-- Node31&#45;&gt;Node37 -->
<g id="edge36" class="edge"><title>Node31&#45;&gt;Node37</title>
<path fill="none" stroke="midnightblue" d="M413.215,-188.511C441.395,-183.089 474.629,-176.694 501.397,-171.544"/>
<polygon fill="midnightblue" stroke="midnightblue" points="412.241,-185.134 403.083,-190.46 413.564,-192.008 412.241,-185.134"/>
</g>
<!-- Node38 -->
<g id="node38" class="node"><title>Node38</title>
<g id="a_node38"><a xlink:href="classtomoBay_1_1model_1_1sql_1_1queries_1_1concreteQueries_1_1select_1_1params_1_1SelectEbayTransactionByID.html" target="_top" xlink:title="This class represents a query that selects the itemId, quantity, price and shippingCost field from th...">
<polygon fill="white" stroke="black" points="482,-114.5 482,-133.5 622,-133.5 622,-114.5 482,-114.5"/>
<text text-anchor="middle" x="552" y="-121.5" font-family="Helvetica,sans-Serif" font-size="10.00">SelectEbayTransactionByID</text>
</a>
</g>
</g>
<!-- Node31&#45;&gt;Node38 -->
<g id="edge37" class="edge"><title>Node31&#45;&gt;Node38</title>
<path fill="none" stroke="midnightblue" d="M378.112,-185.268C400.387,-172.492 434.442,-154.321 466,-143 476.39,-139.273 487.766,-136.126 498.721,-133.532"/>
<polygon fill="midnightblue" stroke="midnightblue" points="376.213,-182.324 369.329,-190.378 379.733,-188.375 376.213,-182.324"/>
</g>
<!-- Node39 -->
<g id="node39" class="node"><title>Node39</title>
<g id="a_node39"><a xlink:href="classtomoBay_1_1model_1_1sql_1_1queries_1_1concreteQueries_1_1select_1_1params_1_1SelectFullOrderLine.html" target="_top" xlink:title="This class represents a query that provides the majority of information associated with a particular ...">
<polygon fill="white" stroke="black" points="501,-76.5 501,-95.5 603,-95.5 603,-76.5 501,-76.5"/>
<text text-anchor="middle" x="552" y="-83.5" font-family="Helvetica,sans-Serif" font-size="10.00">SelectFullOrderLine</text>
</a>
</g>
</g>
<!-- Node31&#45;&gt;Node39 -->
<g id="edge38" class="edge"><title>Node31&#45;&gt;Node39</title>
<path fill="none" stroke="midnightblue" d="M368.539,-183.013C388.59,-161.467 426.201,-124.747 466,-105 476.701,-99.6905 488.892,-95.8485 500.634,-93.074"/>
<polygon fill="midnightblue" stroke="midnightblue" points="365.899,-180.714 361.746,-190.461 371.071,-185.431 365.899,-180.714"/>
</g>
<!-- Node40 -->
<g id="node40" class="node"><title>Node40</title>
<g id="a_node40"><a xlink:href="classtomoBay_1_1model_1_1sql_1_1queries_1_1concreteQueries_1_1select_1_1params_1_1SelectOutOfHoursOrders.html" target="_top" xlink:title="this class represents a query that selects the sales record number, order total, created time and dat...">
<polygon fill="white" stroke="black" points="489,-38.5 489,-57.5 615,-57.5 615,-38.5 489,-38.5"/>
<text text-anchor="middle" x="552" y="-45.5" font-family="Helvetica,sans-Serif" font-size="10.00">SelectOutOfHoursOrders</text>
</a>
</g>
</g>
<!-- Node31&#45;&gt;Node40 -->
<g id="edge39" class="edge"><title>Node31&#45;&gt;Node40</title>
<path fill="none" stroke="midnightblue" d="M363.594,-181.706C380.668,-152.575 418.116,-95.9844 466,-67 472.985,-62.7717 480.806,-59.4818 488.798,-56.9226"/>
<polygon fill="midnightblue" stroke="midnightblue" points="360.518,-180.034 358.599,-190.453 366.597,-183.505 360.518,-180.034"/>
</g>
<!-- Node41 -->
<g id="node41" class="node"><title>Node41</title>
<g id="a_node41"><a xlink:href="classtomoBay_1_1model_1_1sql_1_1queries_1_1concreteQueries_1_1select_1_1params_1_1SelectTransactionByOrder.html" target="_top" xlink:title="This class represents a query that selects all data from the transactions table of the database given...">
<polygon fill="white" stroke="black" points="486.5,-0.5 486.5,-19.5 617.5,-19.5 617.5,-0.5 486.5,-0.5"/>
<text text-anchor="middle" x="552" y="-7.5" font-family="Helvetica,sans-Serif" font-size="10.00">SelectTransactionByOrder</text>
</a>
</g>
</g>
<!-- Node31&#45;&gt;Node41 -->
<g id="edge40" class="edge"><title>Node31&#45;&gt;Node41</title>
<path fill="none" stroke="midnightblue" d="M360.524,-180.621C374.602,-144.674 409.821,-67.798 466,-29 472.097,-24.7895 478.974,-21.4947 486.109,-18.9194"/>
<polygon fill="midnightblue" stroke="midnightblue" points="357.099,-179.784 356.834,-190.376 363.646,-182.261 357.099,-179.784"/>
</g>
</g>
</svg>
