<?xml version="1.0" encoding="UTF-8" standalone="no"?>
<!DOCTYPE svg PUBLIC "-//W3C//DTD SVG 1.1//EN"
 "http://www.w3.org/Graphics/SVG/1.1/DTD/svg11.dtd">
<!-- Generated by graphviz version 2.38.0 (20140413.2041)
 -->
<!-- Title: Graphical Class Hierarchy Pages: 1 -->
<svg width="363pt" height="332pt"
 viewBox="0.00 0.00 363.00 332.00" xmlns="http://www.w3.org/2000/svg" xmlns:xlink="http://www.w3.org/1999/xlink">
<g id="graph0" class="graph" transform="scale(1 1) rotate(0) translate(4 328)">
<title>Graphical Class Hierarchy</title>
<polygon fill="white" stroke="none" points="-4,4 -4,-328 359,-328 359,4 -4,4"/>
<!-- Node1 -->
<g id="node1" class="node"><title>Node1</title>
<polygon fill="white" stroke="#bfbfbf" points="0,-152.5 0,-171.5 52,-171.5 52,-152.5 0,-152.5"/>
<text text-anchor="middle" x="26" y="-159.5" font-family="Helvetica,sans-Serif" font-size="10.00">Callable</text>
</g>
<!-- Node2 -->
<g id="node2" class="node"><title>Node2</title>
<g id="a_node2"><a xlink:href="classtomoBay_1_1model_1_1services_1_1AbstractService.html" target="_top" xlink:title="Allows the system to only accept runnable&#39;s that implement this interface rather than all runnables...">
<polygon fill="white" stroke="black" points="88,-152.5 88,-171.5 174,-171.5 174,-152.5 88,-152.5"/>
<text text-anchor="middle" x="131" y="-159.5" font-family="Helvetica,sans-Serif" font-size="10.00">AbstractService</text>
</a>
</g>
</g>
<!-- Node1&#45;&gt;Node2 -->
<g id="edge1" class="edge"><title>Node1&#45;&gt;Node2</title>
<path fill="none" stroke="midnightblue" d="M62.221,-162C70.4537,-162 79.3051,-162 87.8064,-162"/>
<polygon fill="midnightblue" stroke="midnightblue" points="62.1967,-158.5 52.1966,-162 62.1966,-165.5 62.1967,-158.5"/>
</g>
<!-- Node3 -->
<g id="node3" class="node"><title>Node3</title>
<g id="a_node3"><a xlink:href="classtomoBay_1_1model_1_1services_1_1basicEbayUpdateService_1_1BasicEbayUpdateService.html" target="_top" xlink:title="This class represents the start of the execution flow for the eBay Service, The service quereies the ...">
<polygon fill="white" stroke="black" points="218.5,-304.5 218.5,-323.5 346.5,-323.5 346.5,-304.5 218.5,-304.5"/>
<text text-anchor="middle" x="282.5" y="-311.5" font-family="Helvetica,sans-Serif" font-size="10.00">BasicEbayUpdateService</text>
</a>
</g>
</g>
<!-- Node2&#45;&gt;Node3 -->
<g id="edge2" class="edge"><title>Node2&#45;&gt;Node3</title>
<path fill="none" stroke="midnightblue" d="M138.1,-181.631C148.212,-210.865 171.265,-265.55 210,-295 215.112,-298.887 220.955,-301.98 227.048,-304.442"/>
<polygon fill="midnightblue" stroke="midnightblue" points="141.307,-180.18 134.852,-171.778 134.659,-182.371 141.307,-180.18"/>
</g>
<!-- Node4 -->
<g id="node4" class="node"><title>Node4</title>
<g id="a_node4"><a xlink:href="classtomoBay_1_1model_1_1services_1_1checkErrorsService_1_1CheckErrorsService.html" target="_top" xlink:title="CheckErrorsService">
<polygon fill="white" stroke="black" points="230.5,-266.5 230.5,-285.5 334.5,-285.5 334.5,-266.5 230.5,-266.5"/>
<text text-anchor="middle" x="282.5" y="-273.5" font-family="Helvetica,sans-Serif" font-size="10.00">CheckErrorsService</text>
</a>
</g>
</g>
<!-- Node2&#45;&gt;Node4 -->
<g id="edge3" class="edge"><title>Node2&#45;&gt;Node4</title>
<path fill="none" stroke="midnightblue" d="M142.369,-180.66C155.361,-202.297 179.649,-237.48 210,-257 216.158,-260.96 223.118,-264.099 230.218,-266.585"/>
<polygon fill="midnightblue" stroke="midnightblue" points="145.261,-178.669 137.214,-171.777 139.206,-182.183 145.261,-178.669"/>
</g>
<!-- Node5 -->
<g id="node5" class="node"><title>Node5</title>
<g id="a_node5"><a xlink:href="classtomoBay_1_1model_1_1services_1_1emailErrorsService_1_1EmailErrorsService.html" target="_top" xlink:title="This service is responsible for generating a list of erroneous items that exist within the database a...">
<polygon fill="white" stroke="black" points="232,-228.5 232,-247.5 333,-247.5 333,-228.5 232,-228.5"/>
<text text-anchor="middle" x="282.5" y="-235.5" font-family="Helvetica,sans-Serif" font-size="10.00">EmailErrorsService</text>
</a>
</g>
</g>
<!-- Node2&#45;&gt;Node5 -->
<g id="edge4" class="edge"><title>Node2&#45;&gt;Node5</title>
<path fill="none" stroke="midnightblue" d="M150.337,-178.473C165.392,-191.204 187.779,-208.392 210,-219 217.882,-222.763 226.621,-225.867 235.206,-228.397"/>
<polygon fill="midnightblue" stroke="midnightblue" points="152.627,-175.826 142.775,-171.928 148.046,-181.119 152.627,-175.826"/>
</g>
<!-- Node6 -->
<g id="node6" class="node"><title>Node6</title>
<g id="a_node6"><a xlink:href="classtomoBay_1_1model_1_1services_1_1individualItemRefreshService_1_1IndividualItemRefreshService.html" target="_top" xlink:title="This service updates an individual item by re querying the eBay API for item information. ">
<polygon fill="white" stroke="black" points="210,-190.5 210,-209.5 355,-209.5 355,-190.5 210,-190.5"/>
<text text-anchor="middle" x="282.5" y="-197.5" font-family="Helvetica,sans-Serif" font-size="10.00">IndividualItemRefreshService</text>
</a>
</g>
</g>
<!-- Node2&#45;&gt;Node6 -->
<g id="edge5" class="edge"><title>Node2&#45;&gt;Node6</title>
<path fill="none" stroke="midnightblue" d="M179.652,-174.112C200.473,-179.404 224.538,-185.521 244.046,-190.48"/>
<polygon fill="midnightblue" stroke="midnightblue" points="180.279,-170.66 169.725,-171.589 178.555,-177.445 180.279,-170.66"/>
</g>
<!-- Node7 -->
<g id="node7" class="node"><title>Node7</title>
<g id="a_node7"><a xlink:href="classtomoBay_1_1model_1_1services_1_1outOfHoursService_1_1OutOfHoursService.html" target="_top" xlink:title="OutOfHoursService">
<polygon fill="white" stroke="black" points="231.5,-152.5 231.5,-171.5 333.5,-171.5 333.5,-152.5 231.5,-152.5"/>
<text text-anchor="middle" x="282.5" y="-159.5" font-family="Helvetica,sans-Serif" font-size="10.00">OutOfHoursService</text>
</a>
</g>
</g>
<!-- Node2&#45;&gt;Node7 -->
<g id="edge6" class="edge"><title>Node2&#45;&gt;Node7</title>
<path fill="none" stroke="midnightblue" d="M184.339,-162C199.579,-162 216.189,-162 231.295,-162"/>
<polygon fill="midnightblue" stroke="midnightblue" points="184.042,-158.5 174.042,-162 184.042,-165.5 184.042,-158.5"/>
</g>
<!-- Node8 -->
<g id="node8" class="node"><title>Node8</title>
<g id="a_node8"><a xlink:href="classtomoBay_1_1model_1_1services_1_1reScanBuyerService_1_1ReScanBuyerService.html" target="_top" xlink:title="Copyright(C) 2015 Jan P.C. ">
<polygon fill="white" stroke="black" points="227.5,-114.5 227.5,-133.5 337.5,-133.5 337.5,-114.5 227.5,-114.5"/>
<text text-anchor="middle" x="282.5" y="-121.5" font-family="Helvetica,sans-Serif" font-size="10.00">ReScanBuyerService</text>
</a>
</g>
</g>
<!-- Node2&#45;&gt;Node8 -->
<g id="edge7" class="edge"><title>Node2&#45;&gt;Node8</title>
<path fill="none" stroke="midnightblue" d="M179.652,-149.888C200.473,-144.596 224.538,-138.479 244.046,-133.52"/>
<polygon fill="midnightblue" stroke="midnightblue" points="178.555,-146.555 169.725,-152.411 180.279,-153.34 178.555,-146.555"/>
</g>
<!-- Node9 -->
<g id="node9" class="node"><title>Node9</title>
<g id="a_node9"><a xlink:href="classtomoBay_1_1model_1_1services_1_1reScanErrorsService_1_1ReScanErrorsService.html" target="_top" xlink:title="ReScanErrorsService">
<polygon fill="white" stroke="black" points="227,-76.5 227,-95.5 338,-95.5 338,-76.5 227,-76.5"/>
<text text-anchor="middle" x="282.5" y="-83.5" font-family="Helvetica,sans-Serif" font-size="10.00">ReScanErrorsService</text>
</a>
</g>
</g>
<!-- Node2&#45;&gt;Node9 -->
<g id="edge8" class="edge"><title>Node2&#45;&gt;Node9</title>
<path fill="none" stroke="midnightblue" d="M150.337,-145.527C165.392,-132.796 187.779,-115.608 210,-105 217.882,-101.237 226.621,-98.1328 235.206,-95.6026"/>
<polygon fill="midnightblue" stroke="midnightblue" points="148.046,-142.881 142.775,-152.072 152.627,-148.174 148.046,-142.881"/>
</g>
<!-- Node10 -->
<g id="node10" class="node"><title>Node10</title>
<g id="a_node10"><a xlink:href="classtomoBay_1_1model_1_1services_1_1testService_1_1TestService.html" target="_top" xlink:title="A test service. ">
<polygon fill="white" stroke="black" points="248,-38.5 248,-57.5 317,-57.5 317,-38.5 248,-38.5"/>
<text text-anchor="middle" x="282.5" y="-45.5" font-family="Helvetica,sans-Serif" font-size="10.00">TestService</text>
</a>
</g>
</g>
<!-- Node2&#45;&gt;Node10 -->
<g id="edge9" class="edge"><title>Node2&#45;&gt;Node10</title>
<path fill="none" stroke="midnightblue" d="M142.369,-143.34C155.361,-121.703 179.649,-86.5201 210,-67 221.235,-59.7744 235.142,-55.2839 247.695,-52.4987"/>
<polygon fill="midnightblue" stroke="midnightblue" points="139.206,-141.817 137.214,-152.223 145.261,-145.331 139.206,-141.817"/>
</g>
<!-- Node11 -->
<g id="node11" class="node"><title>Node11</title>
<g id="a_node11"><a xlink:href="classtomoBay_1_1model_1_1services_1_1updateOrderStatusService_1_1UpdateOrderStatusService.html" target="_top" xlink:title="This service is responsible for updateing the status of an order i.e. ">
<polygon fill="white" stroke="black" points="215.5,-0.5 215.5,-19.5 349.5,-19.5 349.5,-0.5 215.5,-0.5"/>
<text text-anchor="middle" x="282.5" y="-7.5" font-family="Helvetica,sans-Serif" font-size="10.00">UpdateOrderStatusService</text>
</a>
</g>
</g>
<!-- Node2&#45;&gt;Node11 -->
<g id="edge10" class="edge"><title>Node2&#45;&gt;Node11</title>
<path fill="none" stroke="midnightblue" d="M138.1,-142.369C148.212,-113.135 171.265,-58.4498 210,-29 215.112,-25.1132 220.955,-22.0199 227.048,-19.5584"/>
<polygon fill="midnightblue" stroke="midnightblue" points="134.659,-141.629 134.852,-152.222 141.307,-143.82 134.659,-141.629"/>
</g>
</g>
</svg>
