<?xml version="1.0" encoding="UTF-8" standalone="no"?>
<!DOCTYPE svg PUBLIC "-//W3C//DTD SVG 1.1//EN"
 "http://www.w3.org/Graphics/SVG/1.1/DTD/svg11.dtd">
<!-- Generated by graphviz version 2.38.0 (20140413.2041)
 -->
<!-- Title: Graphical Class Hierarchy Pages: 1 -->
<svg width="252pt" height="294pt"
 viewBox="0.00 0.00 252.00 294.00" xmlns="http://www.w3.org/2000/svg" xmlns:xlink="http://www.w3.org/1999/xlink">
<g id="graph0" class="graph" transform="scale(1 1) rotate(0) translate(4 290)">
<title>Graphical Class Hierarchy</title>
<polygon fill="white" stroke="none" points="-4,4 -4,-290 248,-290 248,4 -4,4"/>
<!-- Node1 -->
<g id="node1" class="node"><title>Node1</title>
<g id="a_node1"><a xlink:href="interfacetomoBay_1_1model_1_1dataTypes_1_1heteroTypeContainer_1_1AbstractTypeSchema.html" target="_top" xlink:title="Derived types of this class represent the schema for a specific database and should only contain publ...">
<polygon fill="white" stroke="black" points="0,-133.5 0,-152.5 111,-152.5 111,-133.5 0,-133.5"/>
<text text-anchor="middle" x="55.5" y="-140.5" font-family="Helvetica,sans-Serif" font-size="10.00">AbstractTypeSchema</text>
</a>
</g>
</g>
<!-- Node2 -->
<g id="node2" class="node"><title>Node2</title>
<g id="a_node2"><a xlink:href="classtomoBay_1_1model_1_1sql_1_1schema_1_1accountsTable_1_1AccountsTable.html" target="_top" xlink:title="This represents the structure of the ebay_accounts table in the database. ">
<polygon fill="white" stroke="black" points="154.5,-266.5 154.5,-285.5 236.5,-285.5 236.5,-266.5 154.5,-266.5"/>
<text text-anchor="middle" x="195.5" y="-273.5" font-family="Helvetica,sans-Serif" font-size="10.00">AccountsTable</text>
</a>
</g>
</g>
<!-- Node1&#45;&gt;Node2 -->
<g id="edge1" class="edge"><title>Node1&#45;&gt;Node2</title>
<path fill="none" stroke="midnightblue" d="M66.8977,-161.42C81.7436,-186.233 111.217,-230.349 147,-257 151.986,-260.714 157.797,-263.817 163.609,-266.366"/>
<polygon fill="midnightblue" stroke="midnightblue" points="69.8408,-159.519 61.7784,-152.645 63.7946,-163.046 69.8408,-159.519"/>
</g>
<!-- Node3 -->
<g id="node3" class="node"><title>Node3</title>
<g id="a_node3"><a xlink:href="classtomoBay_1_1model_1_1sql_1_1schema_1_1buyerTable_1_1BuyerTable.html" target="_top" xlink:title="This represents the structure of the ebay_buyers table in the database. ">
<polygon fill="white" stroke="black" points="162.5,-228.5 162.5,-247.5 228.5,-247.5 228.5,-228.5 162.5,-228.5"/>
<text text-anchor="middle" x="195.5" y="-235.5" font-family="Helvetica,sans-Serif" font-size="10.00">BuyerTable</text>
</a>
</g>
</g>
<!-- Node1&#45;&gt;Node3 -->
<g id="edge2" class="edge"><title>Node1&#45;&gt;Node3</title>
<path fill="none" stroke="midnightblue" d="M73.3035,-159.981C90.5803,-176.714 118.863,-202.152 147,-219 152.944,-222.559 159.675,-225.713 166.162,-228.379"/>
<polygon fill="midnightblue" stroke="midnightblue" points="75.3343,-157.069 65.7551,-152.542 70.4208,-162.054 75.3343,-157.069"/>
</g>
<!-- Node4 -->
<g id="node4" class="node"><title>Node4</title>
<g id="a_node4"><a xlink:href="classtomoBay_1_1model_1_1sql_1_1schema_1_1itemsTable_1_1ItemsTable.html" target="_top" xlink:title="This represents the structure of the ebay_items table of the database. ">
<polygon fill="white" stroke="black" points="163,-190.5 163,-209.5 228,-209.5 228,-190.5 163,-190.5"/>
<text text-anchor="middle" x="195.5" y="-197.5" font-family="Helvetica,sans-Serif" font-size="10.00">ItemsTable</text>
</a>
</g>
</g>
<!-- Node1&#45;&gt;Node4 -->
<g id="edge3" class="edge"><title>Node1&#45;&gt;Node4</title>
<path fill="none" stroke="midnightblue" d="M88.7454,-156.696C105.998,-163.985 127.625,-173.058 147,-181 154.561,-184.099 162.822,-187.425 170.303,-190.414"/>
<polygon fill="midnightblue" stroke="midnightblue" points="89.7164,-153.307 79.143,-152.633 86.9886,-159.753 89.7164,-153.307"/>
</g>
<!-- Node5 -->
<g id="node5" class="node"><title>Node5</title>
<g id="a_node5"><a xlink:href="classtomoBay_1_1model_1_1sql_1_1schema_1_1nonDBFields_1_1NonDBFields.html" target="_top" xlink:title="NonDBFields">
<polygon fill="white" stroke="black" points="158,-152.5 158,-171.5 233,-171.5 233,-152.5 158,-152.5"/>
<text text-anchor="middle" x="195.5" y="-159.5" font-family="Helvetica,sans-Serif" font-size="10.00">NonDBFields</text>
</a>
</g>
</g>
<!-- Node1&#45;&gt;Node5 -->
<g id="edge4" class="edge"><title>Node1&#45;&gt;Node5</title>
<path fill="none" stroke="midnightblue" d="M121.065,-151.889C133.656,-153.623 146.445,-155.384 157.745,-156.94"/>
<polygon fill="midnightblue" stroke="midnightblue" points="121.425,-148.406 111.041,-150.509 120.47,-155.341 121.425,-148.406"/>
</g>
<!-- Node6 -->
<g id="node6" class="node"><title>Node6</title>
<g id="a_node6"><a xlink:href="classtomoBay_1_1model_1_1sql_1_1schema_1_1ordersTable_1_1OrdersTable.html" target="_top" xlink:title="This class represents the ebay_orders table in the database. ">
<polygon fill="white" stroke="black" points="160.5,-114.5 160.5,-133.5 230.5,-133.5 230.5,-114.5 160.5,-114.5"/>
<text text-anchor="middle" x="195.5" y="-121.5" font-family="Helvetica,sans-Serif" font-size="10.00">OrdersTable</text>
</a>
</g>
</g>
<!-- Node1&#45;&gt;Node6 -->
<g id="edge5" class="edge"><title>Node1&#45;&gt;Node6</title>
<path fill="none" stroke="midnightblue" d="M121.252,-134.085C134.703,-132.233 148.371,-130.351 160.199,-128.723"/>
<polygon fill="midnightblue" stroke="midnightblue" points="120.47,-130.659 111.041,-135.491 121.425,-137.594 120.47,-130.659"/>
</g>
<!-- Node7 -->
<g id="node7" class="node"><title>Node7</title>
<g id="a_node7"><a xlink:href="classtomoBay_1_1model_1_1sql_1_1schema_1_1orderStatusTable_1_1OrderStatusTable.html" target="_top" xlink:title="This class represents the order_status table in the database. ">
<polygon fill="white" stroke="black" points="149,-76.5 149,-95.5 242,-95.5 242,-76.5 149,-76.5"/>
<text text-anchor="middle" x="195.5" y="-83.5" font-family="Helvetica,sans-Serif" font-size="10.00">OrderStatusTable</text>
</a>
</g>
</g>
<!-- Node1&#45;&gt;Node7 -->
<g id="edge6" class="edge"><title>Node1&#45;&gt;Node7</title>
<path fill="none" stroke="midnightblue" d="M88.7454,-129.304C105.998,-122.015 127.625,-112.942 147,-105 154.561,-101.901 162.822,-98.5753 170.303,-95.5864"/>
<polygon fill="midnightblue" stroke="midnightblue" points="86.9886,-126.247 79.143,-133.367 89.7164,-132.693 86.9886,-126.247"/>
</g>
<!-- Node8 -->
<g id="node8" class="node"><title>Node8</title>
<g id="a_node8"><a xlink:href="classtomoBay_1_1model_1_1sql_1_1schema_1_1outOfHoursTable_1_1OutOfHoursTable.html" target="_top" xlink:title="This class represents the out_of_hours table in the database implementation. ">
<polygon fill="white" stroke="black" points="149,-38.5 149,-57.5 242,-57.5 242,-38.5 149,-38.5"/>
<text text-anchor="middle" x="195.5" y="-45.5" font-family="Helvetica,sans-Serif" font-size="10.00">OutOfHoursTable</text>
</a>
</g>
</g>
<!-- Node1&#45;&gt;Node8 -->
<g id="edge7" class="edge"><title>Node1&#45;&gt;Node8</title>
<path fill="none" stroke="midnightblue" d="M73.3035,-126.019C90.5803,-109.286 118.863,-83.8477 147,-67 152.944,-63.441 159.675,-60.287 166.162,-57.6214"/>
<polygon fill="midnightblue" stroke="midnightblue" points="70.4208,-123.946 65.7551,-133.458 75.3343,-128.931 70.4208,-123.946"/>
</g>
<!-- Node9 -->
<g id="node9" class="node"><title>Node9</title>
<g id="a_node9"><a xlink:href="classtomoBay_1_1model_1_1sql_1_1schema_1_1transactionsTable_1_1TransactionsTable.html" target="_top" xlink:title="This represents the ebay_transactions table in the database, An order usually consists of one transac...">
<polygon fill="white" stroke="black" points="147,-0.5 147,-19.5 244,-19.5 244,-0.5 147,-0.5"/>
<text text-anchor="middle" x="195.5" y="-7.5" font-family="Helvetica,sans-Serif" font-size="10.00">TransactionsTable</text>
</a>
</g>
</g>
<!-- Node1&#45;&gt;Node9 -->
<g id="edge8" class="edge"><title>Node1&#45;&gt;Node9</title>
<path fill="none" stroke="midnightblue" d="M66.8977,-124.58C81.7436,-99.7675 111.217,-55.6509 147,-29 151.986,-25.2863 157.797,-22.1829 163.609,-19.6338"/>
<polygon fill="midnightblue" stroke="midnightblue" points="63.7946,-122.954 61.7784,-133.355 69.8408,-126.481 63.7946,-122.954"/>
</g>
</g>
</svg>
