<?xml version="1.0" encoding="UTF-8" standalone="no"?>
<!DOCTYPE svg PUBLIC "-//W3C//DTD SVG 1.1//EN"
 "http://www.w3.org/Graphics/SVG/1.1/DTD/svg11.dtd">
<!-- Generated by graphviz version 2.38.0 (20140413.2041)
 -->
<!-- Title: Graphical Class Hierarchy Pages: 1 -->
<svg width="411pt" height="142pt"
 viewBox="0.00 0.00 411.00 142.00" xmlns="http://www.w3.org/2000/svg" xmlns:xlink="http://www.w3.org/1999/xlink">
<g id="graph0" class="graph" transform="scale(1 1) rotate(0) translate(4 138)">
<title>Graphical Class Hierarchy</title>
<polygon fill="white" stroke="none" points="-4,4 -4,-138 407,-138 407,4 -4,4"/>
<!-- Node1 -->
<g id="node1" class="node"><title>Node1</title>
<polygon fill="white" stroke="#bfbfbf" points="0,-76.5 0,-95.5 49,-95.5 49,-76.5 0,-76.5"/>
<text text-anchor="middle" x="24.5" y="-83.5" font-family="Helvetica,sans-Serif" font-size="10.00">Iterable</text>
</g>
<!-- Node2 -->
<g id="node2" class="node"><title>Node2</title>
<g id="a_node2"><a xlink:href="classtomoBay_1_1model_1_1dataTypes_1_1DataSetList.html" target="_top" xlink:title="DataSetList\&lt; K, V \&gt;">
<polygon fill="white" stroke="black" points="100.5,-114.5 100.5,-133.5 206.5,-133.5 206.5,-114.5 100.5,-114.5"/>
<text text-anchor="middle" x="153.5" y="-121.5" font-family="Helvetica,sans-Serif" font-size="10.00">DataSetList&lt; K, V &gt;</text>
</a>
</g>
</g>
<!-- Node1&#45;&gt;Node2 -->
<g id="edge1" class="edge"><title>Node1&#45;&gt;Node2</title>
<path fill="none" stroke="midnightblue" d="M58.8135,-96.8624C67.3326,-99.5784 76.4903,-102.444 85,-105 95.6104,-108.186 107.207,-111.508 117.747,-114.467"/>
<polygon fill="midnightblue" stroke="midnightblue" points="59.7744,-93.495 49.1831,-93.7705 57.6345,-100.16 59.7744,-93.495"/>
</g>
<!-- Node3 -->
<g id="node3" class="node"><title>Node3</title>
<g id="a_node3"><a xlink:href="classtomoBay_1_1model_1_1dataTypes_1_1DualList.html" target="_top" xlink:title="DualList\&lt; V1, V2 \&gt;">
<polygon fill="white" stroke="black" points="103,-76.5 103,-95.5 204,-95.5 204,-76.5 103,-76.5"/>
<text text-anchor="middle" x="153.5" y="-83.5" font-family="Helvetica,sans-Serif" font-size="10.00">DualList&lt; V1, V2 &gt;</text>
</a>
</g>
</g>
<!-- Node1&#45;&gt;Node3 -->
<g id="edge2" class="edge"><title>Node1&#45;&gt;Node3</title>
<path fill="none" stroke="midnightblue" d="M59.2838,-86C72.6829,-86 88.3611,-86 102.996,-86"/>
<polygon fill="midnightblue" stroke="midnightblue" points="59.0901,-82.5001 49.0901,-86 59.0901,-89.5001 59.0901,-82.5001"/>
</g>
<!-- Node4 -->
<g id="node4" class="node"><title>Node4</title>
<g id="a_node4"><a xlink:href="classtomoBay_1_1model_1_1dataTypes_1_1financial_1_1SalesOrderDayBook_1_1AbstractSalesDayBookLine.html" target="_top" xlink:title="This class represents an Abstract sales day book entry, i.e. ">
<polygon fill="white" stroke="black" points="85,-38.5 85,-57.5 222,-57.5 222,-38.5 85,-38.5"/>
<text text-anchor="middle" x="153.5" y="-45.5" font-family="Helvetica,sans-Serif" font-size="10.00">AbstractSalesDayBookLine</text>
</a>
</g>
</g>
<!-- Node1&#45;&gt;Node4 -->
<g id="edge3" class="edge"><title>Node1&#45;&gt;Node4</title>
<path fill="none" stroke="midnightblue" d="M58.8135,-75.1376C67.3326,-72.4216 76.4903,-69.5555 85,-67 95.6104,-63.8136 107.207,-60.4918 117.747,-57.5334"/>
<polygon fill="midnightblue" stroke="midnightblue" points="57.6345,-71.8401 49.1831,-78.2295 59.7744,-78.505 57.6345,-71.8401"/>
</g>
<!-- Node5 -->
<g id="node5" class="node"><title>Node5</title>
<g id="a_node5"><a xlink:href="classtomoBay_1_1model_1_1dataTypes_1_1financial_1_1SalesOrderDayBook_1_1concreteLineTypes_1_1GSPInvoice.html" target="_top" xlink:title="Copyright(C) 2015 Jan P.C. ">
<polygon fill="white" stroke="black" points="296,-76.5 296,-95.5 365,-95.5 365,-76.5 296,-76.5"/>
<text text-anchor="middle" x="330.5" y="-83.5" font-family="Helvetica,sans-Serif" font-size="10.00">GSPInvoice</text>
</a>
</g>
</g>
<!-- Node4&#45;&gt;Node5 -->
<g id="edge4" class="edge"><title>Node4&#45;&gt;Node5</title>
<path fill="none" stroke="midnightblue" d="M208.49,-59.7234C237.008,-65.9161 271.122,-73.3237 295.849,-78.6929"/>
<polygon fill="midnightblue" stroke="midnightblue" points="209.175,-56.2908 198.66,-57.589 207.689,-63.1314 209.175,-56.2908"/>
</g>
<!-- Node6 -->
<g id="node6" class="node"><title>Node6</title>
<g id="a_node6"><a xlink:href="classtomoBay_1_1model_1_1dataTypes_1_1financial_1_1SalesOrderDayBook_1_1concreteLineTypes_1_1StandardInvoice.html" target="_top" xlink:title="This class represents a standard invoice without extra shipping. ">
<polygon fill="white" stroke="black" points="287,-38.5 287,-57.5 374,-57.5 374,-38.5 287,-38.5"/>
<text text-anchor="middle" x="330.5" y="-45.5" font-family="Helvetica,sans-Serif" font-size="10.00">StandardInvoice</text>
</a>
</g>
</g>
<!-- Node4&#45;&gt;Node6 -->
<g id="edge5" class="edge"><title>Node4&#45;&gt;Node6</title>
<path fill="none" stroke="midnightblue" d="M232.194,-48C250.951,-48 270.318,-48 286.786,-48"/>
<polygon fill="midnightblue" stroke="midnightblue" points="232.16,-44.5001 222.16,-48 232.16,-51.5001 232.16,-44.5001"/>
</g>
<!-- Node7 -->
<g id="node7" class="node"><title>Node7</title>
<g id="a_node7"><a xlink:href="classtomoBay_1_1model_1_1dataTypes_1_1financial_1_1SalesOrderDayBook_1_1concreteLineTypes_1_1StandardInvoiceWithShipping.html" target="_top" xlink:title="StandardInvoiceWithShipping">
<polygon fill="white" stroke="black" points="258,-0.5 258,-19.5 403,-19.5 403,-0.5 258,-0.5"/>
<text text-anchor="middle" x="330.5" y="-7.5" font-family="Helvetica,sans-Serif" font-size="10.00">StandardInvoiceWithShipping</text>
</a>
</g>
</g>
<!-- Node4&#45;&gt;Node7 -->
<g id="edge6" class="edge"><title>Node4&#45;&gt;Node7</title>
<path fill="none" stroke="midnightblue" d="M208.624,-36.2474C233.369,-30.8742 262.303,-24.5914 285.658,-19.5201"/>
<polygon fill="midnightblue" stroke="midnightblue" points="207.689,-32.8686 198.66,-38.411 209.175,-39.7092 207.689,-32.8686"/>
</g>
</g>
</svg>
