<?xml version="1.0" encoding="UTF-8" standalone="no"?>
<!DOCTYPE svg PUBLIC "-//W3C//DTD SVG 1.1//EN"
 "http://www.w3.org/Graphics/SVG/1.1/DTD/svg11.dtd">
<!-- Generated by graphviz version 2.38.0 (20140413.2041)
 -->
<!-- Title: Graphical Class Hierarchy Pages: 1 -->
<svg width="319pt" height="142pt"
 viewBox="0.00 0.00 319.00 142.00" xmlns="http://www.w3.org/2000/svg" xmlns:xlink="http://www.w3.org/1999/xlink">
<g id="graph0" class="graph" transform="scale(1 1) rotate(0) translate(4 138)">
<title>Graphical Class Hierarchy</title>
<polygon fill="white" stroke="none" points="-4,4 -4,-138 315,-138 315,4 -4,4"/>
<!-- Node1 -->
<g id="node1" class="node"><title>Node1</title>
<g id="a_node1"><a xlink:href="interfacetomoBay_1_1model_1_1services_1_1AbstractConfiguration.html" target="_top" xlink:title="This interface defines the form that every configuration object used to provide information to partic...">
<polygon fill="white" stroke="black" points="0,-57.5 0,-76.5 135,-76.5 135,-57.5 0,-57.5"/>
<text text-anchor="middle" x="67.5" y="-64.5" font-family="Helvetica,sans-Serif" font-size="10.00">AbstractConfiguration&lt; T &gt;</text>
</a>
</g>
</g>
<!-- Node2 -->
<g id="node2" class="node"><title>Node2</title>
<g id="a_node2"><a xlink:href="classtomoBay_1_1model_1_1services_1_1emailErrorsService_1_1EmailErrorsConfig.html" target="_top" xlink:title="Copyright(C) 2015 Jan P.C. ">
<polygon fill="white" stroke="black" points="193,-114.5 193,-133.5 289,-133.5 289,-114.5 193,-114.5"/>
<text text-anchor="middle" x="241" y="-121.5" font-family="Helvetica,sans-Serif" font-size="10.00">EmailErrorsConfig</text>
</a>
</g>
</g>
<!-- Node1&#45;&gt;Node2 -->
<g id="edge1" class="edge"><title>Node1&#45;&gt;Node2</title>
<path fill="none" stroke="midnightblue" d="M102.26,-80.3524C122.126,-87.9986 147.821,-97.5276 171,-105 181.288,-108.317 192.553,-111.574 202.942,-114.428"/>
<polygon fill="midnightblue" stroke="midnightblue" points="103.32,-77.0094 92.7312,-76.6571 100.789,-83.5359 103.32,-77.0094"/>
</g>
<!-- Node3 -->
<g id="node3" class="node"><title>Node3</title>
<g id="a_node3"><a xlink:href="classtomoBay_1_1model_1_1services_1_1individualItemRefreshService_1_1IndividualItemRefreshConfig.html" target="_top" xlink:title="This class defines an object that is passed to the IndividualItemRefreshService setConfig method...">
<polygon fill="white" stroke="black" points="171,-76.5 171,-95.5 311,-95.5 311,-76.5 171,-76.5"/>
<text text-anchor="middle" x="241" y="-83.5" font-family="Helvetica,sans-Serif" font-size="10.00">IndividualItemRefreshConfig</text>
</a>
</g>
</g>
<!-- Node1&#45;&gt;Node3 -->
<g id="edge2" class="edge"><title>Node1&#45;&gt;Node3</title>
<path fill="none" stroke="midnightblue" d="M145.512,-75.5319C153.951,-76.4669 162.504,-77.4144 170.839,-78.3379"/>
<polygon fill="midnightblue" stroke="midnightblue" points="145.622,-72.0228 135.297,-74.4003 144.851,-78.9802 145.622,-72.0228"/>
</g>
<!-- Node4 -->
<g id="node4" class="node"><title>Node4</title>
<g id="a_node4"><a xlink:href="classtomoBay_1_1model_1_1services_1_1reScanBuyerService_1_1ReScanBuyerServiceConfig.html" target="_top" xlink:title="Copyright(C) 2015 Jan P.C. ">
<polygon fill="white" stroke="black" points="171.5,-38.5 171.5,-57.5 310.5,-57.5 310.5,-38.5 171.5,-38.5"/>
<text text-anchor="middle" x="241" y="-45.5" font-family="Helvetica,sans-Serif" font-size="10.00">ReScanBuyerServiceConfig</text>
</a>
</g>
</g>
<!-- Node1&#45;&gt;Node4 -->
<g id="edge3" class="edge"><title>Node1&#45;&gt;Node4</title>
<path fill="none" stroke="midnightblue" d="M145.395,-58.481C154.063,-57.5207 162.853,-56.5468 171.406,-55.5993"/>
<polygon fill="midnightblue" stroke="midnightblue" points="144.851,-55.0198 135.297,-59.5997 145.622,-61.9772 144.851,-55.0198"/>
</g>
<!-- Node5 -->
<g id="node5" class="node"><title>Node5</title>
<g id="a_node5"><a xlink:href="classtomoBay_1_1model_1_1services_1_1updateOrderStatusService_1_1UpdateOrderStatusConfig.html" target="_top" xlink:title="configuration object for the UpdateOrderStatusService, carries OrderStatus (enum) information ...">
<polygon fill="white" stroke="black" points="176.5,-0.5 176.5,-19.5 305.5,-19.5 305.5,-0.5 176.5,-0.5"/>
<text text-anchor="middle" x="241" y="-7.5" font-family="Helvetica,sans-Serif" font-size="10.00">UpdateOrderStatusConfig</text>
</a>
</g>
</g>
<!-- Node1&#45;&gt;Node5 -->
<g id="edge4" class="edge"><title>Node1&#45;&gt;Node5</title>
<path fill="none" stroke="midnightblue" d="M102.26,-53.6476C122.126,-46.0014 147.821,-36.4724 171,-29 181.288,-25.6832 192.553,-22.4264 202.942,-19.5719"/>
<polygon fill="midnightblue" stroke="midnightblue" points="100.789,-50.4641 92.7312,-57.3429 103.32,-56.9906 100.789,-50.4641"/>
</g>
</g>
</svg>
