<?xml version="1.0" encoding="UTF-8" standalone="no"?>
<!DOCTYPE svg PUBLIC "-//W3C//DTD SVG 1.1//EN"
 "http://www.w3.org/Graphics/SVG/1.1/DTD/svg11.dtd">
<!-- Generated by graphviz version 2.38.0 (20140413.2041)
 -->
<!-- Title: Graphical Class Hierarchy Pages: 1 -->
<svg width="229pt" height="142pt"
 viewBox="0.00 0.00 229.00 142.00" xmlns="http://www.w3.org/2000/svg" xmlns:xlink="http://www.w3.org/1999/xlink">
<g id="graph0" class="graph" transform="scale(1 1) rotate(0) translate(4 138)">
<title>Graphical Class Hierarchy</title>
<polygon fill="white" stroke="none" points="-4,4 -4,-138 225,-138 225,4 -4,4"/>
<!-- Node1 -->
<g id="node1" class="node"><title>Node1</title>
<g id="a_node1"><a xlink:href="classtomoBay_1_1model_1_1dataTypes_1_1conditionalStatement_1_1Result.html" target="_top" xlink:title="This class defines the Abstract Base class for all derived Result classes. ">
<polygon fill="white" stroke="black" points="0,-57.5 0,-76.5 69,-76.5 69,-57.5 0,-57.5"/>
<text text-anchor="middle" x="34.5" y="-64.5" font-family="Helvetica,sans-Serif" font-size="10.00">Result&lt; T &gt;</text>
</a>
</g>
</g>
<!-- Node2 -->
<g id="node2" class="node"><title>Node2</title>
<g id="a_node2"><a xlink:href="classtomoBay_1_1presenters_1_1helpers_1_1pickeability_1_1AllPickeableResult.html" target="_top" xlink:title="AllPickeableResult">
<polygon fill="white" stroke="black" points="113.5,-114.5 113.5,-133.5 212.5,-133.5 212.5,-114.5 113.5,-114.5"/>
<text text-anchor="middle" x="163" y="-121.5" font-family="Helvetica,sans-Serif" font-size="10.00">AllPickeableResult</text>
</a>
</g>
</g>
<!-- Node1&#45;&gt;Node2 -->
<g id="edge1" class="edge"><title>Node1&#45;&gt;Node2</title>
<path fill="none" stroke="midnightblue" d="M59.9498,-81.767C73.0306,-89.306 89.581,-98.2791 105,-105 112.937,-108.459 121.719,-111.673 129.963,-114.436"/>
<polygon fill="midnightblue" stroke="midnightblue" points="61.5013,-78.6195 51.1039,-76.5836 57.9623,-84.659 61.5013,-78.6195"/>
</g>
<!-- Node3 -->
<g id="node3" class="node"><title>Node3</title>
<g id="a_node3"><a xlink:href="classtomoBay_1_1presenters_1_1helpers_1_1pickeability_1_1ErrorResult.html" target="_top" xlink:title="ErrorResult">
<polygon fill="white" stroke="black" points="130,-76.5 130,-95.5 196,-95.5 196,-76.5 130,-76.5"/>
<text text-anchor="middle" x="163" y="-83.5" font-family="Helvetica,sans-Serif" font-size="10.00">ErrorResult</text>
</a>
</g>
</g>
<!-- Node1&#45;&gt;Node3 -->
<g id="edge2" class="edge"><title>Node1&#45;&gt;Node3</title>
<path fill="none" stroke="midnightblue" d="M79.0812,-73.5458C95.6537,-76.0349 114.227,-78.8246 129.587,-81.1317"/>
<polygon fill="midnightblue" stroke="midnightblue" points="79.4765,-70.066 69.0676,-72.0418 78.4368,-76.9883 79.4765,-70.066"/>
</g>
<!-- Node4 -->
<g id="node4" class="node"><title>Node4</title>
<g id="a_node4"><a xlink:href="classtomoBay_1_1presenters_1_1helpers_1_1pickeability_1_1PartialPickeableResult.html" target="_top" xlink:title="PartialPickeableResult">
<polygon fill="white" stroke="black" points="105,-38.5 105,-57.5 221,-57.5 221,-38.5 105,-38.5"/>
<text text-anchor="middle" x="163" y="-45.5" font-family="Helvetica,sans-Serif" font-size="10.00">PartialPickeableResult</text>
</a>
</g>
</g>
<!-- Node1&#45;&gt;Node4 -->
<g id="edge3" class="edge"><title>Node1&#45;&gt;Node4</title>
<path fill="none" stroke="midnightblue" d="M79.2058,-60.4355C87.4555,-59.1964 96.1971,-57.8834 104.789,-56.593"/>
<polygon fill="midnightblue" stroke="midnightblue" points="78.4368,-57.0117 69.0676,-61.9582 79.4765,-63.934 78.4368,-57.0117"/>
</g>
<!-- Node5 -->
<g id="node5" class="node"><title>Node5</title>
<g id="a_node5"><a xlink:href="classtomoBay_1_1presenters_1_1helpers_1_1pickeability_1_1UnPickeableResult.html" target="_top" xlink:title="UnPickeableResult">
<polygon fill="white" stroke="black" points="112.5,-0.5 112.5,-19.5 213.5,-19.5 213.5,-0.5 112.5,-0.5"/>
<text text-anchor="middle" x="163" y="-7.5" font-family="Helvetica,sans-Serif" font-size="10.00">UnPickeableResult</text>
</a>
</g>
</g>
<!-- Node1&#45;&gt;Node5 -->
<g id="edge4" class="edge"><title>Node1&#45;&gt;Node5</title>
<path fill="none" stroke="midnightblue" d="M59.9498,-52.233C73.0306,-44.694 89.581,-35.7209 105,-29 112.937,-25.5406 121.719,-22.3271 129.963,-19.5638"/>
<polygon fill="midnightblue" stroke="midnightblue" points="57.9623,-49.341 51.1039,-57.4164 61.5013,-55.3805 57.9623,-49.341"/>
</g>
</g>
</svg>
