<?xml version="1.0" encoding="UTF-8" standalone="no"?>
<!DOCTYPE svg PUBLIC "-//W3C//DTD SVG 1.1//EN"
 "http://www.w3.org/Graphics/SVG/1.1/DTD/svg11.dtd">
<!-- Generated by graphviz version 2.38.0 (20140413.2041)
 -->
<!-- Title: Graphical Class Hierarchy Pages: 1 -->
<svg width="161pt" height="66pt"
 viewBox="0.00 0.00 161.00 66.00" xmlns="http://www.w3.org/2000/svg" xmlns:xlink="http://www.w3.org/1999/xlink">
<g id="graph0" class="graph" transform="scale(1 1) rotate(0) translate(4 62)">
<title>Graphical Class Hierarchy</title>
<polygon fill="white" stroke="none" points="-4,4 -4,-62 157,-62 157,4 -4,4"/>
<!-- Node1 -->
<g id="node1" class="node"><title>Node1</title>
<g id="a_node1"><a xlink:href="interfacetomoBay_1_1model_1_1dataTypes_1_1conditionalStatement_1_1AbstractTruth.html" target="_top" xlink:title="This class is the abstract base for the True and False objects. ">
<polygon fill="white" stroke="black" points="0,-19.5 0,-38.5 76,-38.5 76,-19.5 0,-19.5"/>
<text text-anchor="middle" x="38" y="-26.5" font-family="Helvetica,sans-Serif" font-size="10.00">AbstractTruth</text>
</a>
</g>
</g>
<!-- Node2 -->
<g id="node2" class="node"><title>Node2</title>
<g id="a_node2"><a xlink:href="classtomoBay_1_1model_1_1dataTypes_1_1conditionalStatement_1_1False.html" target="_top" xlink:title="This class represents a False outcome to a Condition object, its dispatch() method calls the appropri...">
<polygon fill="white" stroke="black" points="112,-38.5 112,-57.5 153,-57.5 153,-38.5 112,-38.5"/>
<text text-anchor="middle" x="132.5" y="-45.5" font-family="Helvetica,sans-Serif" font-size="10.00">False</text>
</a>
</g>
</g>
<!-- Node1&#45;&gt;Node2 -->
<g id="edge1" class="edge"><title>Node1&#45;&gt;Node2</title>
<path fill="none" stroke="midnightblue" d="M85.9844,-38.6509C95.1515,-40.5338 104.28,-42.4089 111.929,-43.98"/>
<polygon fill="midnightblue" stroke="midnightblue" points="86.59,-35.2023 76.0903,-36.6185 85.1816,-42.0591 86.59,-35.2023"/>
</g>
<!-- Node3 -->
<g id="node3" class="node"><title>Node3</title>
<g id="a_node3"><a xlink:href="classtomoBay_1_1model_1_1dataTypes_1_1conditionalStatement_1_1True.html" target="_top" xlink:title="This class represents a True outcome to a Condition object, its dispatch() method calls the appropria...">
<polygon fill="white" stroke="black" points="114.5,-0.5 114.5,-19.5 150.5,-19.5 150.5,-0.5 114.5,-0.5"/>
<text text-anchor="middle" x="132.5" y="-7.5" font-family="Helvetica,sans-Serif" font-size="10.00">True</text>
</a>
</g>
</g>
<!-- Node1&#45;&gt;Node3 -->
<g id="edge2" class="edge"><title>Node1&#45;&gt;Node3</title>
<path fill="none" stroke="midnightblue" d="M86.1667,-19.3117C96.2955,-17.2312 106.366,-15.1627 114.433,-13.5056"/>
<polygon fill="midnightblue" stroke="midnightblue" points="85.1816,-15.9409 76.0903,-21.3815 86.59,-22.7977 85.1816,-15.9409"/>
</g>
</g>
</svg>
