<?xml version="1.0" encoding="UTF-8" standalone="no"?>
<!DOCTYPE svg PUBLIC "-//W3C//DTD SVG 1.1//EN"
 "http://www.w3.org/Graphics/SVG/1.1/DTD/svg11.dtd">
<!-- Generated by graphviz version 2.38.0 (20140413.2041)
 -->
<!-- Title: Graphical Class Hierarchy Pages: 1 -->
<svg width="271pt" height="180pt"
 viewBox="0.00 0.00 271.00 180.00" xmlns="http://www.w3.org/2000/svg" xmlns:xlink="http://www.w3.org/1999/xlink">
<g id="graph0" class="graph" transform="scale(1 1) rotate(0) translate(4 176)">
<title>Graphical Class Hierarchy</title>
<polygon fill="white" stroke="none" points="-4,4 -4,-176 267,-176 267,4 -4,4"/>
<!-- Node1 -->
<g id="node1" class="node"><title>Node1</title>
<polygon fill="white" stroke="#bfbfbf" points="0,-76.5 0,-95.5 97,-95.5 97,-76.5 0,-76.5"/>
<text text-anchor="middle" x="48.5" y="-83.5" font-family="Helvetica,sans-Serif" font-size="10.00">RuntimeException</text>
</g>
<!-- Node2 -->
<g id="node2" class="node"><title>Node2</title>
<g id="a_node2"><a xlink:href="classtomoBay_1_1exceptions_1_1DualListException.html" target="_top" xlink:title="An Exception that relates to the DualList data type. ">
<polygon fill="white" stroke="black" points="150,-152.5 150,-171.5 246,-171.5 246,-152.5 150,-152.5"/>
<text text-anchor="middle" x="198" y="-159.5" font-family="Helvetica,sans-Serif" font-size="10.00">DualListException</text>
</a>
</g>
</g>
<!-- Node1&#45;&gt;Node2 -->
<g id="edge1" class="edge"><title>Node1&#45;&gt;Node2</title>
<path fill="none" stroke="midnightblue" d="M69.1315,-102.007C85.4094,-114.619 109.594,-131.872 133,-143 140.746,-146.683 149.362,-149.824 157.697,-152.429"/>
<polygon fill="midnightblue" stroke="midnightblue" points="70.9726,-99.0015 60.9567,-95.5473 66.6324,-104.494 70.9726,-99.0015"/>
</g>
<!-- Node3 -->
<g id="node3" class="node"><title>Node3</title>
<g id="a_node3"><a xlink:href="classtomoBay_1_1exceptions_1_1JSONentityException.html" target="_top" xlink:title="Exception that relates to issues with the JSONEntity. ">
<polygon fill="white" stroke="black" points="142.5,-114.5 142.5,-133.5 253.5,-133.5 253.5,-114.5 142.5,-114.5"/>
<text text-anchor="middle" x="198" y="-121.5" font-family="Helvetica,sans-Serif" font-size="10.00">JSONentityException</text>
</a>
</g>
</g>
<!-- Node1&#45;&gt;Node3 -->
<g id="edge2" class="edge"><title>Node1&#45;&gt;Node3</title>
<path fill="none" stroke="midnightblue" d="M96.5141,-98.1121C117.057,-103.404 140.8,-109.521 160.047,-114.48"/>
<polygon fill="midnightblue" stroke="midnightblue" points="97.2775,-94.6946 86.7205,-95.589 95.5311,-101.473 97.2775,-94.6946"/>
</g>
<!-- Node4 -->
<g id="node4" class="node"><title>Node4</title>
<g id="a_node4"><a xlink:href="classtomoBay_1_1exceptions_1_1OrderException.html" target="_top" xlink:title="This exception is for use in the model.datatypes.financial package. ">
<polygon fill="white" stroke="black" points="156,-76.5 156,-95.5 240,-95.5 240,-76.5 156,-76.5"/>
<text text-anchor="middle" x="198" y="-83.5" font-family="Helvetica,sans-Serif" font-size="10.00">OrderException</text>
</a>
</g>
</g>
<!-- Node1&#45;&gt;Node4 -->
<g id="edge3" class="edge"><title>Node1&#45;&gt;Node4</title>
<path fill="none" stroke="midnightblue" d="M107.762,-86C123.824,-86 140.912,-86 155.79,-86"/>
<polygon fill="midnightblue" stroke="midnightblue" points="107.389,-82.5001 97.389,-86 107.389,-89.5001 107.389,-82.5001"/>
</g>
<!-- Node5 -->
<g id="node5" class="node"><title>Node5</title>
<g id="a_node5"><a xlink:href="classtomoBay_1_1exceptions_1_1PresenterActionException.html" target="_top" xlink:title="Copyright(C) 2015 Jan P.C. ">
<polygon fill="white" stroke="black" points="133,-38.5 133,-57.5 263,-57.5 263,-38.5 133,-38.5"/>
<text text-anchor="middle" x="198" y="-45.5" font-family="Helvetica,sans-Serif" font-size="10.00">PresenterActionException</text>
</a>
</g>
</g>
<!-- Node1&#45;&gt;Node5 -->
<g id="edge4" class="edge"><title>Node1&#45;&gt;Node5</title>
<path fill="none" stroke="midnightblue" d="M96.5141,-73.8879C117.057,-68.5956 140.8,-62.4787 160.047,-57.5201"/>
<polygon fill="midnightblue" stroke="midnightblue" points="95.5311,-70.5268 86.7205,-76.411 97.2775,-77.3054 95.5311,-70.5268"/>
</g>
<!-- Node6 -->
<g id="node6" class="node"><title>Node6</title>
<g id="a_node6"><a xlink:href="classtomoBay_1_1exceptions_1_1ServiceException.html" target="_top" xlink:title="Generic email exception. ">
<polygon fill="white" stroke="black" points="151.5,-0.5 151.5,-19.5 244.5,-19.5 244.5,-0.5 151.5,-0.5"/>
<text text-anchor="middle" x="198" y="-7.5" font-family="Helvetica,sans-Serif" font-size="10.00">ServiceException</text>
</a>
</g>
</g>
<!-- Node1&#45;&gt;Node6 -->
<g id="edge5" class="edge"><title>Node1&#45;&gt;Node6</title>
<path fill="none" stroke="midnightblue" d="M69.1315,-69.9926C85.4094,-57.3814 109.594,-40.1276 133,-29 140.746,-25.3174 149.362,-22.1763 157.697,-19.5712"/>
<polygon fill="midnightblue" stroke="midnightblue" points="66.6324,-67.5064 60.9567,-76.4527 70.9726,-72.9985 66.6324,-67.5064"/>
</g>
</g>
</svg>
