<?xml version="1.0" encoding="UTF-8" standalone="no"?>
<!DOCTYPE svg PUBLIC "-//W3C//DTD SVG 1.1//EN"
 "http://www.w3.org/Graphics/SVG/1.1/DTD/svg11.dtd">
<!-- Generated by graphviz version 2.38.0 (20140413.2041)
 -->
<!-- Title: Graphical Class Hierarchy Pages: 1 -->
<svg width="332pt" height="420pt"
 viewBox="0.00 0.00 332.00 420.00" xmlns="http://www.w3.org/2000/svg" xmlns:xlink="http://www.w3.org/1999/xlink">
<g id="graph0" class="graph" transform="scale(1 1) rotate(0) translate(4 416)">
<title>Graphical Class Hierarchy</title>
<polygon fill="white" stroke="none" points="-4,4 -4,-416 328,-416 328,4 -4,4"/>
<!-- Node1 -->
<g id="node1" class="node"><title>Node1</title>
<g id="a_node1"><a xlink:href="interfacetomoBay_1_1presenters_1_1presenterActions_1_1factories_1_1AbstractPresenterActionFactory.html" target="_top" xlink:title="the interface all factories that create AbstractPresenterAction objects should inherit from...">
<polygon fill="white" stroke="black" points="0,-202.5 0,-221.5 156,-221.5 156,-202.5 0,-202.5"/>
<text text-anchor="middle" x="78" y="-209.5" font-family="Helvetica,sans-Serif" font-size="10.00">AbstractPresenterActionFactory</text>
</a>
</g>
</g>
<!-- Node2 -->
<g id="node2" class="node"><title>Node2</title>
<g id="a_node2"><a xlink:href="classtomoBay_1_1presenters_1_1presenterActions_1_1factories_1_1BuyerDetailsFactory.html" target="_top" xlink:title="Copyright(C) 2015 Jan P.C. ">
<polygon fill="white" stroke="black" points="205,-392.5 205,-411.5 311,-411.5 311,-392.5 205,-392.5"/>
<text text-anchor="middle" x="258" y="-399.5" font-family="Helvetica,sans-Serif" font-size="10.00">BuyerDetailsFactory</text>
</a>
</g>
</g>
<!-- Node1&#45;&gt;Node2 -->
<g id="edge1" class="edge"><title>Node1&#45;&gt;Node2</title>
<path fill="none" stroke="midnightblue" d="M86.5271,-231.548C101.242,-267.149 137.245,-342.604 192,-383 197.298,-386.909 203.389,-390.017 209.671,-392.487"/>
<polygon fill="midnightblue" stroke="midnightblue" points="89.6145,-229.843 82.6466,-221.862 83.1165,-232.446 89.6145,-229.843"/>
</g>
<!-- Node3 -->
<g id="node3" class="node"><title>Node3</title>
<g id="a_node3"><a xlink:href="classtomoBay_1_1presenters_1_1presenterActions_1_1factories_1_1BuyerListFactory.html" target="_top" xlink:title="BuyerListFactory">
<polygon fill="white" stroke="black" points="212.5,-354.5 212.5,-373.5 303.5,-373.5 303.5,-354.5 212.5,-354.5"/>
<text text-anchor="middle" x="258" y="-361.5" font-family="Helvetica,sans-Serif" font-size="10.00">BuyerListFactory</text>
</a>
</g>
</g>
<!-- Node1&#45;&gt;Node3 -->
<g id="edge2" class="edge"><title>Node1&#45;&gt;Node3</title>
<path fill="none" stroke="midnightblue" d="M89.6369,-230.36C107.241,-259.117 145.183,-314.63 192,-345 198.214,-349.031 205.306,-352.229 212.468,-354.759"/>
<polygon fill="midnightblue" stroke="midnightblue" points="92.5993,-228.494 84.463,-221.708 86.5915,-232.087 92.5993,-228.494"/>
</g>
<!-- Node4 -->
<g id="node4" class="node"><title>Node4</title>
<g id="a_node4"><a xlink:href="classtomoBay_1_1presenters_1_1presenterActions_1_1factories_1_1InvoiceOrdersFactory.html" target="_top" xlink:title="InvoiceOrdersFactory">
<polygon fill="white" stroke="black" points="203,-316.5 203,-335.5 313,-335.5 313,-316.5 203,-316.5"/>
<text text-anchor="middle" x="258" y="-323.5" font-family="Helvetica,sans-Serif" font-size="10.00">InvoiceOrdersFactory</text>
</a>
</g>
</g>
<!-- Node1&#45;&gt;Node4 -->
<g id="edge3" class="edge"><title>Node1&#45;&gt;Node4</title>
<path fill="none" stroke="midnightblue" d="M94.6385,-228.914C115.09,-250.078 152.934,-286.076 192,-307 199.047,-310.775 206.937,-313.885 214.724,-316.417"/>
<polygon fill="midnightblue" stroke="midnightblue" points="97.1096,-226.434 87.6858,-221.592 92.0333,-231.254 97.1096,-226.434"/>
</g>
<!-- Node5 -->
<g id="node5" class="node"><title>Node5</title>
<g id="a_node5"><a xlink:href="classtomoBay_1_1presenters_1_1presenterActions_1_1factories_1_1LogFileViewerFactory.html" target="_top" xlink:title="factory that creates a LogFileViewer object ">
<polygon fill="white" stroke="black" points="202.5,-278.5 202.5,-297.5 313.5,-297.5 313.5,-278.5 202.5,-278.5"/>
<text text-anchor="middle" x="258" y="-285.5" font-family="Helvetica,sans-Serif" font-size="10.00">LogFileViewerFactory</text>
</a>
</g>
</g>
<!-- Node1&#45;&gt;Node5 -->
<g id="edge4" class="edge"><title>Node1&#45;&gt;Node5</title>
<path fill="none" stroke="midnightblue" d="M104.692,-226.663C127.2,-239.093 161.06,-256.793 192,-269 200.859,-272.495 210.619,-275.68 219.823,-278.402"/>
<polygon fill="midnightblue" stroke="midnightblue" points="106.219,-223.508 95.7817,-221.691 102.808,-229.62 106.219,-223.508"/>
</g>
<!-- Node6 -->
<g id="node6" class="node"><title>Node6</title>
<g id="a_node6"><a xlink:href="classtomoBay_1_1presenters_1_1presenterActions_1_1factories_1_1MarkAsInvoicedFactory.html" target="_top" xlink:title="MarkAsInvoicedFactory">
<polygon fill="white" stroke="black" points="198,-240.5 198,-259.5 318,-259.5 318,-240.5 198,-240.5"/>
<text text-anchor="middle" x="258" y="-247.5" font-family="Helvetica,sans-Serif" font-size="10.00">MarkAsInvoicedFactory</text>
</a>
</g>
</g>
<!-- Node1&#45;&gt;Node6 -->
<g id="edge5" class="edge"><title>Node1&#45;&gt;Node6</title>
<path fill="none" stroke="midnightblue" d="M133.716,-223.681C158.959,-229.07 188.545,-235.386 212.406,-240.48"/>
<polygon fill="midnightblue" stroke="midnightblue" points="134.427,-220.254 123.917,-221.589 132.966,-227.1 134.427,-220.254"/>
</g>
<!-- Node7 -->
<g id="node7" class="node"><title>Node7</title>
<g id="a_node7"><a xlink:href="classtomoBay_1_1presenters_1_1presenterActions_1_1factories_1_1MarkAsUninvoicedFactory.html" target="_top" xlink:title="this is a factory that creates MarkAsUninvoiced objects ">
<polygon fill="white" stroke="black" points="192,-202.5 192,-221.5 324,-221.5 324,-202.5 192,-202.5"/>
<text text-anchor="middle" x="258" y="-209.5" font-family="Helvetica,sans-Serif" font-size="10.00">MarkAsUninvoicedFactory</text>
</a>
</g>
</g>
<!-- Node1&#45;&gt;Node7 -->
<g id="edge6" class="edge"><title>Node1&#45;&gt;Node7</title>
<path fill="none" stroke="midnightblue" d="M166.156,-212C174.801,-212 183.469,-212 191.834,-212"/>
<polygon fill="midnightblue" stroke="midnightblue" points="166.038,-208.5 156.038,-212 166.038,-215.5 166.038,-208.5"/>
</g>
<!-- Node8 -->
<g id="node8" class="node"><title>Node8</title>
<g id="a_node8"><a xlink:href="classtomoBay_1_1presenters_1_1presenterActions_1_1factories_1_1OrderInfoFactory.html" target="_top" xlink:title="OrderInfoFactory">
<polygon fill="white" stroke="black" points="213,-164.5 213,-183.5 303,-183.5 303,-164.5 213,-164.5"/>
<text text-anchor="middle" x="258" y="-171.5" font-family="Helvetica,sans-Serif" font-size="10.00">OrderInfoFactory</text>
</a>
</g>
</g>
<!-- Node1&#45;&gt;Node8 -->
<g id="edge7" class="edge"><title>Node1&#45;&gt;Node8</title>
<path fill="none" stroke="midnightblue" d="M133.754,-200.311C159.098,-194.901 188.812,-188.557 212.714,-183.454"/>
<polygon fill="midnightblue" stroke="midnightblue" points="132.966,-196.9 123.917,-202.411 134.427,-203.746 132.966,-196.9"/>
</g>
<!-- Node9 -->
<g id="node9" class="node"><title>Node9</title>
<g id="a_node9"><a xlink:href="classtomoBay_1_1presenters_1_1presenterActions_1_1factories_1_1PeriodicServicesControllerFactory.html" target="_top" xlink:title="this is a factory that creates PeriodicServicesController objects ">
<polygon fill="white" stroke="black" points="192,-115 192,-145 324,-145 324,-115 192,-115"/>
<text text-anchor="start" x="200" y="-133" font-family="Helvetica,sans-Serif" font-size="10.00">PeriodicServicesController</text>
<text text-anchor="middle" x="258" y="-122" font-family="Helvetica,sans-Serif" font-size="10.00">Factory</text>
</a>
</g>
</g>
<!-- Node1&#45;&gt;Node9 -->
<g id="edge8" class="edge"><title>Node1&#45;&gt;Node9</title>
<path fill="none" stroke="midnightblue" d="M105.749,-197.554C128.419,-185.542 161.943,-168.321 192,-155 199.627,-151.62 207.865,-148.246 215.83,-145.12"/>
<polygon fill="midnightblue" stroke="midnightblue" points="103.918,-194.564 96.7393,-202.356 107.21,-200.741 103.918,-194.564"/>
</g>
<!-- Node10 -->
<g id="node10" class="node"><title>Node10</title>
<g id="a_node10"><a xlink:href="classtomoBay_1_1presenters_1_1presenterActions_1_1factories_1_1PrintInvoicesFactory.html" target="_top" xlink:title="PrintInvoicesFactory">
<polygon fill="white" stroke="black" points="204.5,-76.5 204.5,-95.5 311.5,-95.5 311.5,-76.5 204.5,-76.5"/>
<text text-anchor="middle" x="258" y="-83.5" font-family="Helvetica,sans-Serif" font-size="10.00">PrintInvoicesFactory</text>
</a>
</g>
</g>
<!-- Node1&#45;&gt;Node10 -->
<g id="edge9" class="edge"><title>Node1&#45;&gt;Node10</title>
<path fill="none" stroke="midnightblue" d="M93.0979,-194.515C112.852,-171.117 150.977,-129.814 192,-106 199.352,-101.732 207.71,-98.2828 215.927,-95.5294"/>
<polygon fill="midnightblue" stroke="midnightblue" points="90.3658,-192.327 86.6799,-202.26 95.7556,-196.794 90.3658,-192.327"/>
</g>
<!-- Node11 -->
<g id="node11" class="node"><title>Node11</title>
<g id="a_node11"><a xlink:href="classtomoBay_1_1presenters_1_1presenterActions_1_1factories_1_1ReScanBuyerFactory.html" target="_top" xlink:title="ReScanBuyerFactory">
<polygon fill="white" stroke="black" points="203,-38.5 203,-57.5 313,-57.5 313,-38.5 203,-38.5"/>
<text text-anchor="middle" x="258" y="-45.5" font-family="Helvetica,sans-Serif" font-size="10.00">ReScanBuyerFactory</text>
</a>
</g>
</g>
<!-- Node1&#45;&gt;Node11 -->
<g id="edge10" class="edge"><title>Node1&#45;&gt;Node11</title>
<path fill="none" stroke="midnightblue" d="M88.4995,-193.278C105.177,-162.303 142.685,-100.492 192,-67 197.738,-63.1028 204.284,-59.9928 210.961,-57.5141"/>
<polygon fill="midnightblue" stroke="midnightblue" points="85.3773,-191.695 83.8281,-202.176 91.5752,-194.949 85.3773,-191.695"/>
</g>
<!-- Node12 -->
<g id="node12" class="node"><title>Node12</title>
<g id="a_node12"><a xlink:href="classtomoBay_1_1presenters_1_1presenterActions_1_1factories_1_1ReScanListingFactory.html" target="_top" xlink:title="this is a factory that creates ReScanListing objects ">
<polygon fill="white" stroke="black" points="201.5,-0.5 201.5,-19.5 314.5,-19.5 314.5,-0.5 201.5,-0.5"/>
<text text-anchor="middle" x="258" y="-7.5" font-family="Helvetica,sans-Serif" font-size="10.00">ReScanListingFactory</text>
</a>
</g>
</g>
<!-- Node1&#45;&gt;Node12 -->
<g id="edge11" class="edge"><title>Node1&#45;&gt;Node12</title>
<path fill="none" stroke="midnightblue" d="M85.5628,-192.643C99.2445,-155.24 134.417,-72.8659 192,-29 197.05,-25.1528 202.862,-22.0832 208.89,-19.6344"/>
<polygon fill="midnightblue" stroke="midnightblue" points="82.1733,-191.73 82.1384,-202.325 88.7727,-194.064 82.1733,-191.73"/>
</g>
</g>
</svg>
