<?xml version="1.0" encoding="UTF-8" standalone="no"?>
<!DOCTYPE svg PUBLIC "-//W3C//DTD SVG 1.1//EN"
 "http://www.w3.org/Graphics/SVG/1.1/DTD/svg11.dtd">
<!-- Generated by graphviz version 2.38.0 (20140413.2041)
 -->
<!-- Title: Graphical Class Hierarchy Pages: 1 -->
<svg width="646pt" height="1332pt"
 viewBox="0.00 0.00 646.00 1332.00" xmlns="http://www.w3.org/2000/svg" xmlns:xlink="http://www.w3.org/1999/xlink">
<g id="graph0" class="graph" transform="scale(1 1) rotate(0) translate(4 1328)">
<title>Graphical Class Hierarchy</title>
<polygon fill="white" stroke="none" points="-4,4 -4,-1328 642,-1328 642,4 -4,4"/>
<!-- Node1 -->
<g id="node1" class="node"><title>Node1</title>
<g id="a_node1"><a xlink:href="classtomoBay_1_1model_1_1sql_1_1framework_1_1queryTypes_1_1AbstractDBQuery.html" target="_top" xlink:title="Interface that all database queries must adhere to. ">
<polygon fill="white" stroke="black" points="0,-838.5 0,-857.5 94,-857.5 94,-838.5 0,-838.5"/>
<text text-anchor="middle" x="47" y="-845.5" font-family="Helvetica,sans-Serif" font-size="10.00">AbstractDBQuery</text>
</a>
</g>
</g>
<!-- Node2 -->
<g id="node2" class="node"><title>Node2</title>
<g id="a_node2"><a xlink:href="classtomoBay_1_1model_1_1sql_1_1framework_1_1queryTypes_1_1modify_1_1AbstractModifyQuery.html" target="_top" xlink:title="Copyright(C) 2015 Jan P.C. ">
<polygon fill="white" stroke="black" points="130,-1057.5 130,-1076.5 239,-1076.5 239,-1057.5 130,-1057.5"/>
<text text-anchor="middle" x="184.5" y="-1064.5" font-family="Helvetica,sans-Serif" font-size="10.00">AbstractModifyQuery</text>
</a>
</g>
</g>
<!-- Node1&#45;&gt;Node2 -->
<g id="edge1" class="edge"><title>Node1&#45;&gt;Node2</title>
<path fill="none" stroke="midnightblue" d="M59.3522,-866.348C86.9431,-910.941 156.781,-1023.82 177.572,-1057.42"/>
<polygon fill="midnightblue" stroke="midnightblue" points="62.2351,-864.355 53.9971,-857.693 56.2823,-868.038 62.2351,-864.355"/>
</g>
<!-- Node18 -->
<g id="node18" class="node"><title>Node18</title>
<g id="a_node18"><a xlink:href="classtomoBay_1_1model_1_1sql_1_1framework_1_1queryTypes_1_1select_1_1AbstractSelectQuery.html" target="_top" xlink:title="AbstractSelectQuery">
<polygon fill="white" stroke="black" points="131,-620.5 131,-639.5 238,-639.5 238,-620.5 131,-620.5"/>
<text text-anchor="middle" x="184.5" y="-627.5" font-family="Helvetica,sans-Serif" font-size="10.00">AbstractSelectQuery</text>
</a>
</g>
</g>
<!-- Node1&#45;&gt;Node18 -->
<g id="edge17" class="edge"><title>Node1&#45;&gt;Node18</title>
<path fill="none" stroke="midnightblue" d="M59.3522,-829.736C86.9431,-785.346 156.781,-672.987 177.572,-639.537"/>
<polygon fill="midnightblue" stroke="midnightblue" points="56.3035,-828.011 53.9971,-838.352 62.2487,-831.706 56.3035,-828.011"/>
</g>
<!-- Node3 -->
<g id="node3" class="node"><title>Node3</title>
<g id="a_node3"><a xlink:href="classtomoBay_1_1model_1_1sql_1_1framework_1_1queryTypes_1_1modify_1_1AbstractModifyQueryNoParams.html" target="_top" xlink:title="This is the Abstract Base Class for all queries that modify the database in some way (INSERT/UPDATE/D...">
<polygon fill="white" stroke="black" points="275,-1095.5 275,-1114.5 430,-1114.5 430,-1095.5 275,-1095.5"/>
<text text-anchor="middle" x="352.5" y="-1102.5" font-family="Helvetica,sans-Serif" font-size="10.00">AbstractModifyQueryNoParams</text>
</a>
</g>
</g>
<!-- Node2&#45;&gt;Node3 -->
<g id="edge2" class="edge"><title>Node2&#45;&gt;Node3</title>
<path fill="none" stroke="midnightblue" d="M237.153,-1078.82C260.556,-1084.18 287.857,-1090.43 309.912,-1095.48"/>
<polygon fill="midnightblue" stroke="midnightblue" points="237.918,-1075.41 227.389,-1076.59 236.356,-1082.23 237.918,-1075.41"/>
</g>
<!-- Node4 -->
<g id="node4" class="node"><title>Node4</title>
<g id="a_node4"><a xlink:href="classtomoBay_1_1model_1_1sql_1_1framework_1_1queryTypes_1_1modify_1_1AbstractModifyQueryParams.html" target="_top" xlink:title="This is the Abstract Base class for all queries that modify the database in some way (INSERT/UPDATE/D...">
<polygon fill="white" stroke="black" points="281,-1057.5 281,-1076.5 424,-1076.5 424,-1057.5 281,-1057.5"/>
<text text-anchor="middle" x="352.5" y="-1064.5" font-family="Helvetica,sans-Serif" font-size="10.00">AbstractModifyQueryParams</text>
</a>
</g>
</g>
<!-- Node2&#45;&gt;Node4 -->
<g id="edge3" class="edge"><title>Node2&#45;&gt;Node4</title>
<path fill="none" stroke="midnightblue" d="M249.523,-1067C259.813,-1067 270.514,-1067 280.947,-1067"/>
<polygon fill="midnightblue" stroke="midnightblue" points="249.395,-1063.5 239.395,-1067 249.395,-1070.5 249.395,-1063.5"/>
</g>
<!-- Node5 -->
<g id="node5" class="node"><title>Node5</title>
<g id="a_node5"><a xlink:href="classtomoBay_1_1model_1_1sql_1_1queries_1_1concreteQueries_1_1delete_1_1DeleteOrderFromOrderStatus.html" target="_top" xlink:title="deletes a particular order from the order_status table in the database. ">
<polygon fill="white" stroke="black" points="480,-1304.5 480,-1323.5 624,-1323.5 624,-1304.5 480,-1304.5"/>
<text text-anchor="middle" x="552" y="-1311.5" font-family="Helvetica,sans-Serif" font-size="10.00">DeleteOrderFromOrderStatus</text>
</a>
</g>
</g>
<!-- Node4&#45;&gt;Node5 -->
<g id="edge4" class="edge"><title>Node4&#45;&gt;Node5</title>
<path fill="none" stroke="midnightblue" d="M426.135,-1082.32C427.491,-1083.47 428.783,-1084.69 430,-1086 494.178,-1155.03 401.015,-1226.73 466,-1295 469.962,-1299.16 474.62,-1302.51 479.681,-1305.19"/>
<polygon fill="midnightblue" stroke="midnightblue" points="427.972,-1079.34 417.741,-1076.58 424.022,-1085.12 427.972,-1079.34"/>
</g>
<!-- Node6 -->
<g id="node6" class="node"><title>Node6</title>
<g id="a_node6"><a xlink:href="classtomoBay_1_1model_1_1sql_1_1queries_1_1concreteQueries_1_1insert_1_1InsertEbayBuyers.html" target="_top" xlink:title="This class represents a query that inserts buyer details into the database. ">
<polygon fill="white" stroke="black" points="504.5,-1266.5 504.5,-1285.5 599.5,-1285.5 599.5,-1266.5 504.5,-1266.5"/>
<text text-anchor="middle" x="552" y="-1273.5" font-family="Helvetica,sans-Serif" font-size="10.00">InsertEbayBuyers</text>
</a>
</g>
</g>
<!-- Node4&#45;&gt;Node6 -->
<g id="edge5" class="edge"><title>Node4&#45;&gt;Node6</title>
<path fill="none" stroke="midnightblue" d="M425.961,-1082.29C427.376,-1083.45 428.726,-1084.68 430,-1086 483.922,-1141.9 411.424,-1201.74 466,-1257 476.094,-1267.22 490.402,-1272.47 504.406,-1275.03"/>
<polygon fill="midnightblue" stroke="midnightblue" points="427.502,-1079.12 417.227,-1076.53 423.648,-1084.96 427.502,-1079.12"/>
</g>
<!-- Node7 -->
<g id="node7" class="node"><title>Node7</title>
<g id="a_node7"><a xlink:href="classtomoBay_1_1model_1_1sql_1_1queries_1_1concreteQueries_1_1insert_1_1InsertEbayItems.html" target="_top" xlink:title="This class represents a query that inserts item details into the items table of the database...">
<polygon fill="white" stroke="black" points="507.5,-1228.5 507.5,-1247.5 596.5,-1247.5 596.5,-1228.5 507.5,-1228.5"/>
<text text-anchor="middle" x="552" y="-1235.5" font-family="Helvetica,sans-Serif" font-size="10.00">InsertEbayItems</text>
</a>
</g>
</g>
<!-- Node4&#45;&gt;Node7 -->
<g id="edge6" class="edge"><title>Node4&#45;&gt;Node7</title>
<path fill="none" stroke="midnightblue" d="M425.344,-1081.99C426.976,-1083.23 428.533,-1084.56 430,-1086 473.752,-1128.85 421.747,-1176.67 466,-1219 477.036,-1229.56 492.595,-1234.74 507.39,-1237.15"/>
<polygon fill="midnightblue" stroke="midnightblue" points="426.968,-1078.88 416.628,-1076.57 423.272,-1084.83 426.968,-1078.88"/>
</g>
<!-- Node8 -->
<g id="node8" class="node"><title>Node8</title>
<g id="a_node8"><a xlink:href="classtomoBay_1_1model_1_1sql_1_1queries_1_1concreteQueries_1_1insert_1_1InsertEbayOrders.html" target="_top" xlink:title="This class represents a class that inserts order data into the orders table of the database...">
<polygon fill="white" stroke="black" points="505.5,-1190.5 505.5,-1209.5 598.5,-1209.5 598.5,-1190.5 505.5,-1190.5"/>
<text text-anchor="middle" x="552" y="-1197.5" font-family="Helvetica,sans-Serif" font-size="10.00">InsertEbayOrders</text>
</a>
</g>
</g>
<!-- Node4&#45;&gt;Node8 -->
<g id="edge7" class="edge"><title>Node4&#45;&gt;Node8</title>
<path fill="none" stroke="midnightblue" d="M424.462,-1081.71C426.401,-1083.02 428.254,-1084.45 430,-1086 463.766,-1115.98 431.883,-1151.42 466,-1181 476.854,-1190.41 491.358,-1195.45 505.308,-1198.07"/>
<polygon fill="midnightblue" stroke="midnightblue" points="425.915,-1078.51 415.488,-1076.63 422.471,-1084.6 425.915,-1078.51"/>
</g>
<!-- Node9 -->
<g id="node9" class="node"><title>Node9</title>
<g id="a_node9"><a xlink:href="classtomoBay_1_1model_1_1sql_1_1queries_1_1concreteQueries_1_1insert_1_1InsertEbayTransactions.html" target="_top" xlink:title="This class represents a query that inserts transaction data into the transactions table of the databa...">
<polygon fill="white" stroke="black" points="492,-1152.5 492,-1171.5 612,-1171.5 612,-1152.5 492,-1152.5"/>
<text text-anchor="middle" x="552" y="-1159.5" font-family="Helvetica,sans-Serif" font-size="10.00">InsertEbayTransactions</text>
</a>
</g>
</g>
<!-- Node4&#45;&gt;Node9 -->
<g id="edge8" class="edge"><title>Node4&#45;&gt;Node9</title>
<path fill="none" stroke="midnightblue" d="M421.549,-1080.79C424.502,-1082.35 427.337,-1084.08 430,-1086 454.291,-1103.54 441.505,-1125.74 466,-1143 473.664,-1148.4 482.602,-1152.3 491.747,-1155.11"/>
<polygon fill="midnightblue" stroke="midnightblue" points="422.946,-1077.58 412.394,-1076.63 420.048,-1083.96 422.946,-1077.58"/>
</g>
<!-- Node10 -->
<g id="node10" class="node"><title>Node10</title>
<g id="a_node10"><a xlink:href="classtomoBay_1_1model_1_1sql_1_1queries_1_1concreteQueries_1_1insert_1_1InsertOrderInOrderStatus.html" target="_top" xlink:title="This Class represents a Query that inserts an order into the order_status table in the database...">
<polygon fill="white" stroke="black" points="489,-1114.5 489,-1133.5 615,-1133.5 615,-1114.5 489,-1114.5"/>
<text text-anchor="middle" x="552" y="-1121.5" font-family="Helvetica,sans-Serif" font-size="10.00">InsertOrderInOrderStatus</text>
</a>
</g>
</g>
<!-- Node4&#45;&gt;Node10 -->
<g id="edge9" class="edge"><title>Node4&#45;&gt;Node10</title>
<path fill="none" stroke="midnightblue" d="M409.807,-1079.32C416.687,-1081.31 423.557,-1083.54 430,-1086 446.903,-1092.45 449.022,-1098.75 466,-1105 476.217,-1108.76 487.41,-1111.91 498.223,-1114.49"/>
<polygon fill="midnightblue" stroke="midnightblue" points="410.338,-1075.84 399.768,-1076.58 408.489,-1082.59 410.338,-1075.84"/>
</g>
<!-- Node11 -->
<g id="node11" class="node"><title>Node11</title>
<g id="a_node11"><a xlink:href="classtomoBay_1_1model_1_1sql_1_1queries_1_1concreteQueries_1_1insert_1_1InsertOutOfHoursOrders.html" target="_top" xlink:title="This class represents a query that inserts a new entry into the outOfHours table in the database...">
<polygon fill="white" stroke="black" points="490.5,-1076.5 490.5,-1095.5 613.5,-1095.5 613.5,-1076.5 490.5,-1076.5"/>
<text text-anchor="middle" x="552" y="-1083.5" font-family="Helvetica,sans-Serif" font-size="10.00">InsertOutOfHoursOrders</text>
</a>
</g>
</g>
<!-- Node4&#45;&gt;Node11 -->
<g id="edge10" class="edge"><title>Node4&#45;&gt;Node11</title>
<path fill="none" stroke="midnightblue" d="M434.228,-1074.77C452.935,-1076.57 472.535,-1078.45 490.219,-1080.15"/>
<polygon fill="midnightblue" stroke="midnightblue" points="434.533,-1071.28 424.244,-1073.81 433.863,-1078.25 434.533,-1071.28"/>
</g>
<!-- Node12 -->
<g id="node12" class="node"><title>Node12</title>
<g id="a_node12"><a xlink:href="classtomoBay_1_1model_1_1sql_1_1queries_1_1concreteQueries_1_1update_1_1UpdateEbayBuyer.html" target="_top" xlink:title="This class represents an sql query that updates a record the buyer table in the database with new inf...">
<polygon fill="white" stroke="black" points="504,-1038.5 504,-1057.5 600,-1057.5 600,-1038.5 504,-1038.5"/>
<text text-anchor="middle" x="552" y="-1045.5" font-family="Helvetica,sans-Serif" font-size="10.00">UpdateEbayBuyer</text>
</a>
</g>
</g>
<!-- Node4&#45;&gt;Node12 -->
<g id="edge11" class="edge"><title>Node4&#45;&gt;Node12</title>
<path fill="none" stroke="midnightblue" d="M434.285,-1059.23C457.955,-1056.95 483.05,-1054.54 503.881,-1052.53"/>
<polygon fill="midnightblue" stroke="midnightblue" points="433.863,-1055.75 424.244,-1060.19 434.533,-1062.72 433.863,-1055.75"/>
</g>
<!-- Node13 -->
<g id="node13" class="node"><title>Node13</title>
<g id="a_node13"><a xlink:href="classtomoBay_1_1model_1_1sql_1_1queries_1_1concreteQueries_1_1update_1_1UpdateInvoiceStatus.html" target="_top" xlink:title="This class represents a query that updates the &#39;invoiced&#39; field of particular order on the orders tab...">
<polygon fill="white" stroke="black" points="498,-1000.5 498,-1019.5 606,-1019.5 606,-1000.5 498,-1000.5"/>
<text text-anchor="middle" x="552" y="-1007.5" font-family="Helvetica,sans-Serif" font-size="10.00">UpdateInvoiceStatus</text>
</a>
</g>
</g>
<!-- Node4&#45;&gt;Node13 -->
<g id="edge12" class="edge"><title>Node4&#45;&gt;Node13</title>
<path fill="none" stroke="midnightblue" d="M388.763,-1054.02C410.786,-1046.18 439.831,-1036.32 466,-1029 478.232,-1025.58 491.588,-1022.36 504.014,-1019.57"/>
<polygon fill="midnightblue" stroke="midnightblue" points="387.403,-1050.79 379.174,-1057.46 389.769,-1057.38 387.403,-1050.79"/>
</g>
<!-- Node14 -->
<g id="node14" class="node"><title>Node14</title>
<g id="a_node14"><a xlink:href="classtomoBay_1_1model_1_1sql_1_1queries_1_1concreteQueries_1_1update_1_1UpdateInvoiceStatusSRN.html" target="_top" xlink:title="This class represents a query that updates the invoice status of a particular order. ">
<polygon fill="white" stroke="black" points="487,-962.5 487,-981.5 617,-981.5 617,-962.5 487,-962.5"/>
<text text-anchor="middle" x="552" y="-969.5" font-family="Helvetica,sans-Serif" font-size="10.00">UpdateInvoiceStatusSRN</text>
</a>
</g>
</g>
<!-- Node4&#45;&gt;Node14 -->
<g id="edge13" class="edge"><title>Node4&#45;&gt;Node14</title>
<path fill="none" stroke="midnightblue" d="M372.41,-1050.93C393.771,-1033.59 430.235,-1006.42 466,-991 474.887,-987.169 484.643,-984.066 494.278,-981.566"/>
<polygon fill="midnightblue" stroke="midnightblue" points="369.964,-1048.41 364.483,-1057.47 374.422,-1053.81 369.964,-1048.41"/>
</g>
<!-- Node15 -->
<g id="node15" class="node"><title>Node15</title>
<g id="a_node15"><a xlink:href="classtomoBay_1_1model_1_1sql_1_1queries_1_1concreteQueries_1_1update_1_1UpdateItemBrandAndPartNo.html" target="_top" xlink:title="This class represents a query that updates the brand and partNo of a particular item in the items tab...">
<polygon fill="white" stroke="black" points="481.5,-924.5 481.5,-943.5 622.5,-943.5 622.5,-924.5 481.5,-924.5"/>
<text text-anchor="middle" x="552" y="-931.5" font-family="Helvetica,sans-Serif" font-size="10.00">UpdateItemBrandAndPartNo</text>
</a>
</g>
</g>
<!-- Node4&#45;&gt;Node15 -->
<g id="edge14" class="edge"><title>Node4&#45;&gt;Node15</title>
<path fill="none" stroke="midnightblue" d="M366.09,-1048.82C384.801,-1023.25 422.46,-977.125 466,-953 473.01,-949.116 480.761,-946.026 488.645,-943.567"/>
<polygon fill="midnightblue" stroke="midnightblue" points="363.047,-1047.06 360.077,-1057.23 368.741,-1051.13 363.047,-1047.06"/>
</g>
<!-- Node16 -->
<g id="node16" class="node"><title>Node16</title>
<g id="a_node16"><a xlink:href="classtomoBay_1_1model_1_1sql_1_1queries_1_1concreteQueries_1_1update_1_1UpdateItemError.html" target="_top" xlink:title="This class represents a query that updates the brand and partNo of a particular item in the items tab...">
<polygon fill="white" stroke="black" points="507.5,-886.5 507.5,-905.5 596.5,-905.5 596.5,-886.5 507.5,-886.5"/>
<text text-anchor="middle" x="552" y="-893.5" font-family="Helvetica,sans-Serif" font-size="10.00">UpdateItemError</text>
</a>
</g>
</g>
<!-- Node4&#45;&gt;Node16 -->
<g id="edge15" class="edge"><title>Node4&#45;&gt;Node16</title>
<path fill="none" stroke="midnightblue" d="M361.998,-1047.96C377.615,-1015.27 414.101,-948.764 466,-915 478.168,-907.084 493.163,-902.433 507.154,-899.712"/>
<polygon fill="midnightblue" stroke="midnightblue" points="358.699,-1046.75 357.668,-1057.29 365.049,-1049.69 358.699,-1046.75"/>
</g>
<!-- Node17 -->
<g id="node17" class="node"><title>Node17</title>
<g id="a_node17"><a xlink:href="classtomoBay_1_1model_1_1sql_1_1queries_1_1concreteQueries_1_1update_1_1UpdateItemNote.html" target="_top" xlink:title="This class represents a query that updates the notes field of the ebay_items table in the database...">
<polygon fill="white" stroke="black" points="507.5,-848.5 507.5,-867.5 596.5,-867.5 596.5,-848.5 507.5,-848.5"/>
<text text-anchor="middle" x="552" y="-855.5" font-family="Helvetica,sans-Serif" font-size="10.00">UpdateItemNote</text>
</a>
</g>
</g>
<!-- Node4&#45;&gt;Node17 -->
<g id="edge16" class="edge"><title>Node4&#45;&gt;Node17</title>
<path fill="none" stroke="midnightblue" d="M359.198,-1047.62C371.69,-1008.72 405.323,-921.06 466,-877 477.868,-868.382 492.946,-863.567 507.097,-860.91"/>
<polygon fill="midnightblue" stroke="midnightblue" points="355.839,-1046.64 356.23,-1057.23 362.527,-1048.71 355.839,-1046.64"/>
</g>
<!-- Node19 -->
<g id="node19" class="node"><title>Node19</title>
<g id="a_node19"><a xlink:href="classtomoBay_1_1model_1_1sql_1_1framework_1_1queryTypes_1_1select_1_1AbstractSelectNoParamsQuery.html" target="_top" xlink:title="This class defines the Abstract base for all Select queries that do not require parameters. ">
<polygon fill="white" stroke="black" points="275.5,-620.5 275.5,-639.5 429.5,-639.5 429.5,-620.5 275.5,-620.5"/>
<text text-anchor="middle" x="352.5" y="-627.5" font-family="Helvetica,sans-Serif" font-size="10.00">AbstractSelectNoParamsQuery</text>
</a>
</g>
</g>
<!-- Node18&#45;&gt;Node19 -->
<g id="edge18" class="edge"><title>Node18&#45;&gt;Node19</title>
<path fill="none" stroke="midnightblue" d="M248.245,-630C257.102,-630 266.287,-630 275.362,-630"/>
<polygon fill="midnightblue" stroke="midnightblue" points="248.023,-626.5 238.023,-630 248.023,-633.5 248.023,-626.5"/>
</g>
<!-- Node31 -->
<g id="node31" class="node"><title>Node31</title>
<g id="a_node31"><a xlink:href="classtomoBay_1_1model_1_1sql_1_1framework_1_1queryTypes_1_1select_1_1AbstractSelectParamsQuery.html" target="_top" xlink:title="This class defines the abstract base for all Select queries that take parameters. ...">
<polygon fill="white" stroke="black" points="282,-209.5 282,-228.5 423,-228.5 423,-209.5 282,-209.5"/>
<text text-anchor="middle" x="352.5" y="-216.5" font-family="Helvetica,sans-Serif" font-size="10.00">AbstractSelectParamsQuery</text>
</a>
</g>
</g>
<!-- Node18&#45;&gt;Node31 -->
<g id="edge30" class="edge"><title>Node18&#45;&gt;Node31</title>
<path fill="none" stroke="midnightblue" d="M193.192,-610.956C222.403,-538.631 325.904,-282.373 347.524,-228.845"/>
<polygon fill="midnightblue" stroke="midnightblue" points="189.939,-609.663 189.44,-620.246 196.43,-612.284 189.939,-609.663"/>
</g>
<!-- Node20 -->
<g id="node20" class="node"><title>Node20</title>
<g id="a_node20"><a xlink:href="classtomoBay_1_1model_1_1sql_1_1queries_1_1concreteQueries_1_1select_1_1noParams_1_1SelectAccounts.html" target="_top" xlink:title="SelectAccounts">
<polygon fill="white" stroke="black" points="509,-810.5 509,-829.5 595,-829.5 595,-810.5 509,-810.5"/>
<text text-anchor="middle" x="552" y="-817.5" font-family="Helvetica,sans-Serif" font-size="10.00">SelectAccounts</text>
</a>
</g>
</g>
<!-- Node19&#45;&gt;Node20 -->
<g id="edge19" class="edge"><title>Node19&#45;&gt;Node20</title>
<path fill="none" stroke="midnightblue" d="M360.524,-649.379C374.602,-685.326 409.821,-762.202 466,-801 478.442,-809.593 494.134,-814.372 508.638,-817.005"/>
<polygon fill="midnightblue" stroke="midnightblue" points="363.646,-647.739 356.834,-639.624 357.099,-650.216 363.646,-647.739"/>
</g>
<!-- Node21 -->
<g id="node21" class="node"><title>Node21</title>
<g id="a_node21"><a xlink:href="classtomoBay_1_1model_1_1sql_1_1queries_1_1concreteQueries_1_1select_1_1noParams_1_1SelectEbayBuyers.html" target="_top" xlink:title="SelectEbayBuyers">
<polygon fill="white" stroke="black" points="503,-772.5 503,-791.5 601,-791.5 601,-772.5 503,-772.5"/>
<text text-anchor="middle" x="552" y="-779.5" font-family="Helvetica,sans-Serif" font-size="10.00">SelectEbayBuyers</text>
</a>
</g>
</g>
<!-- Node19&#45;&gt;Node21 -->
<g id="edge20" class="edge"><title>Node19&#45;&gt;Node21</title>
<path fill="none" stroke="midnightblue" d="M363.594,-648.294C380.668,-677.425 418.116,-734.016 466,-763 476.995,-769.656 490.06,-773.986 502.608,-776.802"/>
<polygon fill="midnightblue" stroke="midnightblue" points="366.597,-646.495 358.599,-639.547 360.518,-649.966 366.597,-646.495"/>
</g>
<!-- Node22 -->
<g id="node22" class="node"><title>Node22</title>
<g id="a_node22"><a xlink:href="classtomoBay_1_1model_1_1sql_1_1queries_1_1concreteQueries_1_1select_1_1noParams_1_1SelectEbayItems.html" target="_top" xlink:title="This class represents a query that selects all the fields in the items table of the database...">
<polygon fill="white" stroke="black" points="506,-734.5 506,-753.5 598,-753.5 598,-734.5 506,-734.5"/>
<text text-anchor="middle" x="552" y="-741.5" font-family="Helvetica,sans-Serif" font-size="10.00">SelectEbayItems</text>
</a>
</g>
</g>
<!-- Node19&#45;&gt;Node22 -->
<g id="edge21" class="edge"><title>Node19&#45;&gt;Node22</title>
<path fill="none" stroke="midnightblue" d="M368.539,-646.987C388.59,-668.533 426.201,-705.253 466,-725 478.326,-731.116 492.63,-735.285 505.947,-738.118"/>
<polygon fill="midnightblue" stroke="midnightblue" points="371.071,-644.569 361.746,-639.539 365.899,-649.286 371.071,-644.569"/>
</g>
<!-- Node23 -->
<g id="node23" class="node"><title>Node23</title>
<g id="a_node23"><a xlink:href="classtomoBay_1_1model_1_1sql_1_1queries_1_1concreteQueries_1_1select_1_1noParams_1_1SelectEbayItemsError.html" target="_top" xlink:title="SelectEbayItemsError">
<polygon fill="white" stroke="black" points="495.5,-696.5 495.5,-715.5 608.5,-715.5 608.5,-696.5 495.5,-696.5"/>
<text text-anchor="middle" x="552" y="-703.5" font-family="Helvetica,sans-Serif" font-size="10.00">SelectEbayItemsError</text>
</a>
</g>
</g>
<!-- Node19&#45;&gt;Node23 -->
<g id="edge22" class="edge"><title>Node19&#45;&gt;Node23</title>
<path fill="none" stroke="midnightblue" d="M378.112,-644.732C400.387,-657.508 434.442,-675.679 466,-687 476.39,-690.727 487.766,-693.874 498.721,-696.468"/>
<polygon fill="midnightblue" stroke="midnightblue" points="379.733,-641.625 369.329,-639.622 376.213,-647.676 379.733,-641.625"/>
</g>
<!-- Node24 -->
<g id="node24" class="node"><title>Node24</title>
<g id="a_node24"><a xlink:href="classtomoBay_1_1model_1_1sql_1_1queries_1_1concreteQueries_1_1select_1_1noParams_1_1SelectEbayItemsNotInTransactions.html" target="_top" xlink:title="This class represents a query that selects all items (from the transactions table) that do not curren...">
<polygon fill="white" stroke="black" points="466,-658.5 466,-677.5 638,-677.5 638,-658.5 466,-658.5"/>
<text text-anchor="middle" x="552" y="-665.5" font-family="Helvetica,sans-Serif" font-size="10.00">SelectEbayItemsNotInTransactions</text>
</a>
</g>
</g>
<!-- Node19&#45;&gt;Node24 -->
<g id="edge23" class="edge"><title>Node19&#45;&gt;Node24</title>
<path fill="none" stroke="midnightblue" d="M413.215,-641.489C441.395,-646.911 474.629,-653.306 501.397,-658.456"/>
<polygon fill="midnightblue" stroke="midnightblue" points="413.564,-637.992 403.083,-639.54 412.241,-644.866 413.564,-637.992"/>
</g>
<!-- Node25 -->
<g id="node25" class="node"><title>Node25</title>
<g id="a_node25"><a xlink:href="classtomoBay_1_1model_1_1sql_1_1queries_1_1concreteQueries_1_1select_1_1noParams_1_1SelectEbayOrders.html" target="_top" xlink:title="This class represents a query that selects all data contained in the orders table of the database sor...">
<polygon fill="white" stroke="black" points="504,-620.5 504,-639.5 600,-639.5 600,-620.5 504,-620.5"/>
<text text-anchor="middle" x="552" y="-627.5" font-family="Helvetica,sans-Serif" font-size="10.00">SelectEbayOrders</text>
</a>
</g>
</g>
<!-- Node19&#45;&gt;Node25 -->
<g id="edge24" class="edge"><title>Node19&#45;&gt;Node25</title>
<path fill="none" stroke="midnightblue" d="M439.627,-630C461.667,-630 484.56,-630 503.816,-630"/>
<polygon fill="midnightblue" stroke="midnightblue" points="439.576,-626.5 429.576,-630 439.576,-633.5 439.576,-626.5"/>
</g>
<!-- Node26 -->
<g id="node26" class="node"><title>Node26</title>
<g id="a_node26"><a xlink:href="classtomoBay_1_1model_1_1sql_1_1queries_1_1concreteQueries_1_1select_1_1noParams_1_1SelectInvoicedOrders.html" target="_top" xlink:title="This class represents a query that selects all data from the orders table that is not currently invoi...">
<polygon fill="white" stroke="black" points="497,-582.5 497,-601.5 607,-601.5 607,-582.5 497,-582.5"/>
<text text-anchor="middle" x="552" y="-589.5" font-family="Helvetica,sans-Serif" font-size="10.00">SelectInvoicedOrders</text>
</a>
</g>
</g>
<!-- Node19&#45;&gt;Node26 -->
<g id="edge25" class="edge"><title>Node19&#45;&gt;Node26</title>
<path fill="none" stroke="midnightblue" d="M413.215,-618.511C441.395,-613.089 474.629,-606.694 501.397,-601.544"/>
<polygon fill="midnightblue" stroke="midnightblue" points="412.241,-615.134 403.083,-620.46 413.564,-622.008 412.241,-615.134"/>
</g>
<!-- Node27 -->
<g id="node27" class="node"><title>Node27</title>
<g id="a_node27"><a xlink:href="classtomoBay_1_1model_1_1sql_1_1queries_1_1concreteQueries_1_1select_1_1noParams_1_1SelectUncalculatedInvoices.html" target="_top" xlink:title="SelectUncalculatedInvoices">
<polygon fill="white" stroke="black" points="483,-544.5 483,-563.5 621,-563.5 621,-544.5 483,-544.5"/>
<text text-anchor="middle" x="552" y="-551.5" font-family="Helvetica,sans-Serif" font-size="10.00">SelectUncalculatedInvoices</text>
</a>
</g>
</g>
<!-- Node19&#45;&gt;Node27 -->
<g id="edge26" class="edge"><title>Node19&#45;&gt;Node27</title>
<path fill="none" stroke="midnightblue" d="M378.112,-615.268C400.387,-602.492 434.442,-584.321 466,-573 476.39,-569.273 487.766,-566.126 498.721,-563.532"/>
<polygon fill="midnightblue" stroke="midnightblue" points="376.213,-612.324 369.329,-620.378 379.733,-618.375 376.213,-612.324"/>
</g>
<!-- Node28 -->
<g id="node28" class="node"><title>Node28</title>
<g id="a_node28"><a xlink:href="classtomoBay_1_1model_1_1sql_1_1queries_1_1concreteQueries_1_1select_1_1noParams_1_1SelectUncalculatedOrders.html" target="_top" xlink:title="SelectUncalculatedOrders">
<polygon fill="white" stroke="black" points="486.5,-506.5 486.5,-525.5 617.5,-525.5 617.5,-506.5 486.5,-506.5"/>
<text text-anchor="middle" x="552" y="-513.5" font-family="Helvetica,sans-Serif" font-size="10.00">SelectUncalculatedOrders</text>
</a>
</g>
</g>
<!-- Node19&#45;&gt;Node28 -->
<g id="edge27" class="edge"><title>Node19&#45;&gt;Node28</title>
<path fill="none" stroke="midnightblue" d="M368.539,-613.013C388.59,-591.467 426.201,-554.747 466,-535 473.856,-531.102 482.516,-527.995 491.211,-525.52"/>
<polygon fill="midnightblue" stroke="midnightblue" points="365.899,-610.714 361.746,-620.461 371.071,-615.431 365.899,-610.714"/>
</g>
<!-- Node29 -->
<g id="node29" class="node"><title>Node29</title>
<g id="a_node29"><a xlink:href="classtomoBay_1_1model_1_1sql_1_1queries_1_1concreteQueries_1_1select_1_1noParams_1_1SelectUninvoicedOrders.html" target="_top" xlink:title="This class represents a query that selects all data from the orders table that is not currently invoi...">
<polygon fill="white" stroke="black" points="491,-468.5 491,-487.5 613,-487.5 613,-468.5 491,-468.5"/>
<text text-anchor="middle" x="552" y="-475.5" font-family="Helvetica,sans-Serif" font-size="10.00">SelectUninvoicedOrders</text>
</a>
</g>
</g>
<!-- Node19&#45;&gt;Node29 -->
<g id="edge28" class="edge"><title>Node19&#45;&gt;Node29</title>
<path fill="none" stroke="midnightblue" d="M363.594,-611.706C380.668,-582.575 418.116,-525.984 466,-497 473.503,-492.459 481.969,-489 490.577,-486.366"/>
<polygon fill="midnightblue" stroke="midnightblue" points="360.518,-610.034 358.599,-620.453 366.597,-613.505 360.518,-610.034"/>
</g>
<!-- Node30 -->
<g id="node30" class="node"><title>Node30</title>
<g id="a_node30"><a xlink:href="classtomoBay_1_1model_1_1sql_1_1queries_1_1concreteQueries_1_1select_1_1noParams_1_1SelectUninvoicedOrdersNoErrors.html" target="_top" xlink:title="SelectUninvoicedOrdersNo\lErrors">
<polygon fill="white" stroke="black" points="484.5,-419 484.5,-449 619.5,-449 619.5,-419 484.5,-419"/>
<text text-anchor="start" x="492.5" y="-437" font-family="Helvetica,sans-Serif" font-size="10.00">SelectUninvoicedOrdersNo</text>
<text text-anchor="middle" x="552" y="-426" font-family="Helvetica,sans-Serif" font-size="10.00">Errors</text>
</a>
</g>
</g>
<!-- Node19&#45;&gt;Node30 -->
<g id="edge29" class="edge"><title>Node19&#45;&gt;Node30</title>
<path fill="none" stroke="midnightblue" d="M360.976,-610.461C375.596,-574.874 411.394,-499.443 466,-459 471.562,-454.88 477.796,-451.437 484.292,-448.558"/>
<polygon fill="midnightblue" stroke="midnightblue" points="357.568,-609.558 357.121,-620.143 364.072,-612.147 357.568,-609.558"/>
</g>
<!-- Node32 -->
<g id="node32" class="node"><title>Node32</title>
<g id="a_node32"><a xlink:href="classtomoBay_1_1model_1_1sql_1_1queries_1_1concreteQueries_1_1select_1_1params_1_1SelectBrandAndPartNoByOrderID.html" target="_top" xlink:title="This class represents a query that selects the brand and part number fields associated with a particu...">
<polygon fill="white" stroke="black" points="470,-380.5 470,-399.5 634,-399.5 634,-380.5 470,-380.5"/>
<text text-anchor="middle" x="552" y="-387.5" font-family="Helvetica,sans-Serif" font-size="10.00">SelectBrandAndPartNoByOrderID</text>
</a>
</g>
</g>
<!-- Node31&#45;&gt;Node32 -->
<g id="edge31" class="edge"><title>Node31&#45;&gt;Node32</title>
<path fill="none" stroke="midnightblue" d="M361.998,-238.044C377.615,-270.729 414.101,-337.236 466,-371 471.957,-374.876 478.592,-377.969 485.455,-380.436"/>
<polygon fill="midnightblue" stroke="midnightblue" points="365.049,-236.305 357.668,-228.705 358.699,-239.25 365.049,-236.305"/>
</g>
<!-- Node33 -->
<g id="node33" class="node"><title>Node33</title>
<g id="a_node33"><a xlink:href="classtomoBay_1_1model_1_1sql_1_1queries_1_1concreteQueries_1_1select_1_1params_1_1SelectBrandByInv.html" target="_top" xlink:title="This class represents a Query that selects the Brand value associated with a particular invoice numbe...">
<polygon fill="white" stroke="black" points="504.5,-342.5 504.5,-361.5 599.5,-361.5 599.5,-342.5 504.5,-342.5"/>
<text text-anchor="middle" x="552" y="-349.5" font-family="Helvetica,sans-Serif" font-size="10.00">SelectBrandByInv</text>
</a>
</g>
</g>
<!-- Node31&#45;&gt;Node33 -->
<g id="edge32" class="edge"><title>Node31&#45;&gt;Node33</title>
<path fill="none" stroke="midnightblue" d="M366.09,-237.183C384.801,-262.745 422.46,-308.875 466,-333 477.639,-339.449 491.321,-343.71 504.265,-346.524"/>
<polygon fill="midnightblue" stroke="midnightblue" points="368.741,-234.873 360.077,-228.774 363.047,-238.944 368.741,-234.873"/>
</g>
<!-- Node34 -->
<g id="node34" class="node"><title>Node34</title>
<g id="a_node34"><a xlink:href="classtomoBay_1_1model_1_1sql_1_1queries_1_1concreteQueries_1_1select_1_1params_1_1SelectBuyerByAccAndSRN.html" target="_top" xlink:title="Copyright(C) 2015 Jan P.C. ">
<polygon fill="white" stroke="black" points="483,-304.5 483,-323.5 621,-323.5 621,-304.5 483,-304.5"/>
<text text-anchor="middle" x="552" y="-311.5" font-family="Helvetica,sans-Serif" font-size="10.00">SelectBuyerByAccAndSRN</text>
</a>
</g>
</g>
<!-- Node31&#45;&gt;Node34 -->
<g id="edge33" class="edge"><title>Node31&#45;&gt;Node34</title>
<path fill="none" stroke="midnightblue" d="M372.41,-235.072C393.771,-252.405 430.235,-279.582 466,-295 474.887,-298.831 484.643,-301.934 494.278,-304.434"/>
<polygon fill="midnightblue" stroke="midnightblue" points="374.422,-232.194 364.483,-228.525 369.964,-237.592 374.422,-232.194"/>
</g>
<!-- Node35 -->
<g id="node35" class="node"><title>Node35</title>
<g id="a_node35"><a xlink:href="classtomoBay_1_1model_1_1sql_1_1queries_1_1concreteQueries_1_1select_1_1params_1_1SelectEbayBuyer.html" target="_top" xlink:title="This class represents a query that selects all the information contained within the ebay_buyers table...">
<polygon fill="white" stroke="black" points="506,-266.5 506,-285.5 598,-285.5 598,-266.5 506,-266.5"/>
<text text-anchor="middle" x="552" y="-273.5" font-family="Helvetica,sans-Serif" font-size="10.00">SelectEbayBuyer</text>
</a>
</g>
</g>
<!-- Node31&#45;&gt;Node35 -->
<g id="edge34" class="edge"><title>Node31&#45;&gt;Node35</title>
<path fill="none" stroke="midnightblue" d="M388.763,-231.982C410.786,-239.822 439.831,-249.678 466,-257 478.814,-260.586 492.863,-263.951 505.783,-266.824"/>
<polygon fill="midnightblue" stroke="midnightblue" points="389.769,-228.624 379.174,-228.538 387.403,-235.212 389.769,-228.624"/>
</g>
<!-- Node36 -->
<g id="node36" class="node"><title>Node36</title>
<g id="a_node36"><a xlink:href="classtomoBay_1_1model_1_1sql_1_1queries_1_1concreteQueries_1_1select_1_1params_1_1SelectEbayItemSpecific.html" target="_top" xlink:title="This class represents a query that selects all fields related to a specific item from the items table...">
<polygon fill="white" stroke="black" points="491,-228.5 491,-247.5 613,-247.5 613,-228.5 491,-228.5"/>
<text text-anchor="middle" x="552" y="-235.5" font-family="Helvetica,sans-Serif" font-size="10.00">SelectEbayItemSpecific</text>
</a>
</g>
</g>
<!-- Node31&#45;&gt;Node36 -->
<g id="edge35" class="edge"><title>Node31&#45;&gt;Node36</title>
<path fill="none" stroke="midnightblue" d="M433.098,-226.657C452.364,-228.511 472.642,-230.462 490.844,-232.213"/>
<polygon fill="midnightblue" stroke="midnightblue" points="433.42,-223.172 423.131,-225.699 432.75,-230.14 433.42,-223.172"/>
</g>
<!-- Node37 -->
<g id="node37" class="node"><title>Node37</title>
<g id="a_node37"><a xlink:href="classtomoBay_1_1model_1_1sql_1_1queries_1_1concreteQueries_1_1select_1_1params_1_1SelectEbayOrderByBuyer.html" target="_top" xlink:title="This class represents a query that selects the orderID and account from the ebay_orders table where t...">
<polygon fill="white" stroke="black" points="488,-190.5 488,-209.5 616,-209.5 616,-190.5 488,-190.5"/>
<text text-anchor="middle" x="552" y="-197.5" font-family="Helvetica,sans-Serif" font-size="10.00">SelectEbayOrderByBuyer</text>
</a>
</g>
</g>
<!-- Node31&#45;&gt;Node37 -->
<g id="edge36" class="edge"><title>Node31&#45;&gt;Node37</title>
<path fill="none" stroke="midnightblue" d="M433.148,-211.338C451.376,-209.584 470.507,-207.744 487.926,-206.068"/>
<polygon fill="midnightblue" stroke="midnightblue" points="432.75,-207.86 423.131,-212.301 433.42,-214.828 432.75,-207.86"/>
</g>
<!-- Node38 -->
<g id="node38" class="node"><title>Node38</title>
<g id="a_node38"><a xlink:href="classtomoBay_1_1model_1_1sql_1_1queries_1_1concreteQueries_1_1select_1_1params_1_1SelectEbayOrderByID.html" target="_top" xlink:title="This class represents a query that selects all the fields from the ebay_orders table where the orderI...">
<polygon fill="white" stroke="black" points="495.5,-152.5 495.5,-171.5 608.5,-171.5 608.5,-152.5 495.5,-152.5"/>
<text text-anchor="middle" x="552" y="-159.5" font-family="Helvetica,sans-Serif" font-size="10.00">SelectEbayOrderByID</text>
</a>
</g>
</g>
<!-- Node31&#45;&gt;Node38 -->
<g id="edge37" class="edge"><title>Node31&#45;&gt;Node38</title>
<path fill="none" stroke="midnightblue" d="M388.763,-206.018C410.786,-198.178 439.831,-188.322 466,-181 478.232,-177.577 491.588,-174.355 504.014,-171.57"/>
<polygon fill="midnightblue" stroke="midnightblue" points="387.403,-202.788 379.174,-209.462 389.769,-209.376 387.403,-202.788"/>
</g>
<!-- Node39 -->
<g id="node39" class="node"><title>Node39</title>
<g id="a_node39"><a xlink:href="classtomoBay_1_1model_1_1sql_1_1queries_1_1concreteQueries_1_1select_1_1params_1_1SelectEbayTransactionByID.html" target="_top" xlink:title="This class represents a query that selects the itemId, quantity, price and shippingCost field from th...">
<polygon fill="white" stroke="black" points="482,-114.5 482,-133.5 622,-133.5 622,-114.5 482,-114.5"/>
<text text-anchor="middle" x="552" y="-121.5" font-family="Helvetica,sans-Serif" font-size="10.00">SelectEbayTransactionByID</text>
</a>
</g>
</g>
<!-- Node31&#45;&gt;Node39 -->
<g id="edge38" class="edge"><title>Node31&#45;&gt;Node39</title>
<path fill="none" stroke="midnightblue" d="M372.41,-202.928C393.771,-185.595 430.235,-158.418 466,-143 474.887,-139.169 484.643,-136.066 494.278,-133.566"/>
<polygon fill="midnightblue" stroke="midnightblue" points="369.964,-200.408 364.483,-209.475 374.422,-205.806 369.964,-200.408"/>
</g>
<!-- Node40 -->
<g id="node40" class="node"><title>Node40</title>
<g id="a_node40"><a xlink:href="classtomoBay_1_1model_1_1sql_1_1queries_1_1concreteQueries_1_1select_1_1params_1_1SelectFullOrderLine.html" target="_top" xlink:title="This class represents a query that provides the majority of information associated with a particular ...">
<polygon fill="white" stroke="black" points="501,-76.5 501,-95.5 603,-95.5 603,-76.5 501,-76.5"/>
<text text-anchor="middle" x="552" y="-83.5" font-family="Helvetica,sans-Serif" font-size="10.00">SelectFullOrderLine</text>
</a>
</g>
</g>
<!-- Node31&#45;&gt;Node40 -->
<g id="edge39" class="edge"><title>Node31&#45;&gt;Node40</title>
<path fill="none" stroke="midnightblue" d="M366.09,-200.817C384.801,-175.255 422.46,-129.125 466,-105 476.581,-99.1372 488.85,-95.0832 500.718,-92.28"/>
<polygon fill="midnightblue" stroke="midnightblue" points="363.047,-199.056 360.077,-209.226 368.741,-203.127 363.047,-199.056"/>
</g>
<!-- Node41 -->
<g id="node41" class="node"><title>Node41</title>
<g id="a_node41"><a xlink:href="classtomoBay_1_1model_1_1sql_1_1queries_1_1concreteQueries_1_1select_1_1params_1_1SelectOutOfHoursOrders.html" target="_top" xlink:title="this class represents a query that selects the sales record number, order total, created time and dat...">
<polygon fill="white" stroke="black" points="489,-38.5 489,-57.5 615,-57.5 615,-38.5 489,-38.5"/>
<text text-anchor="middle" x="552" y="-45.5" font-family="Helvetica,sans-Serif" font-size="10.00">SelectOutOfHoursOrders</text>
</a>
</g>
</g>
<!-- Node31&#45;&gt;Node41 -->
<g id="edge40" class="edge"><title>Node31&#45;&gt;Node41</title>
<path fill="none" stroke="midnightblue" d="M361.998,-199.956C377.615,-167.271 414.101,-100.764 466,-67 472.971,-62.4647 480.87,-59.0012 488.977,-56.3583"/>
<polygon fill="midnightblue" stroke="midnightblue" points="358.699,-198.75 357.668,-209.295 365.049,-201.695 358.699,-198.75"/>
</g>
<!-- Node42 -->
<g id="node42" class="node"><title>Node42</title>
<g id="a_node42"><a xlink:href="classtomoBay_1_1model_1_1sql_1_1queries_1_1concreteQueries_1_1select_1_1params_1_1SelectTransactionByOrder.html" target="_top" xlink:title="This class represents a query that selects all data from the transactions table of the database given...">
<polygon fill="white" stroke="black" points="486.5,-0.5 486.5,-19.5 617.5,-19.5 617.5,-0.5 486.5,-0.5"/>
<text text-anchor="middle" x="552" y="-7.5" font-family="Helvetica,sans-Serif" font-size="10.00">SelectTransactionByOrder</text>
</a>
</g>
</g>
<!-- Node31&#45;&gt;Node42 -->
<g id="edge41" class="edge"><title>Node31&#45;&gt;Node42</title>
<path fill="none" stroke="midnightblue" d="M359.198,-199.624C371.69,-160.719 405.323,-73.0601 466,-29 472.118,-24.5576 479.088,-21.1257 486.345,-18.4791"/>
<polygon fill="midnightblue" stroke="midnightblue" points="355.839,-198.64 356.23,-209.228 362.527,-200.707 355.839,-198.64"/>
</g>
</g>
</svg>
