<?xml version="1.0" encoding="UTF-8" standalone="no"?>
<!DOCTYPE svg PUBLIC "-//W3C//DTD SVG 1.1//EN"
 "http://www.w3.org/Graphics/SVG/1.1/DTD/svg11.dtd">
<!-- Generated by graphviz version 2.38.0 (20140413.2041)
 -->
<!-- Title: AbstractSelectNoParamsQueryFactory Pages: 1 -->
<svg width="1824pt" height="392pt"
 viewBox="0.00 0.00 1824.00 392.00" xmlns="http://www.w3.org/2000/svg" xmlns:xlink="http://www.w3.org/1999/xlink">
<g id="graph0" class="graph" transform="scale(1 1) rotate(0) translate(4 388)">
<title>AbstractSelectNoParamsQueryFactory</title>
<polygon fill="white" stroke="none" points="-4,4 -4,-388 1820,-388 1820,4 -4,4"/>
<!-- Node1 -->
<g id="node1" class="node"><title>Node1</title>
<polygon fill="#bfbfbf" stroke="black" points="849,-127.5 849,-195.5 1003,-195.5 1003,-127.5 849,-127.5"/>
<text text-anchor="start" x="857" y="-183.5" font-family="Helvetica,sans-Serif" font-size="10.00">AbstractSelectNoParamsQuery</text>
<text text-anchor="middle" x="926" y="-172.5" font-family="Helvetica,sans-Serif" font-size="10.00">Factory</text>
<polyline fill="none" stroke="black" points="849,-165.5 1003,-165.5 "/>
<text text-anchor="middle" x="926" y="-153.5" font-family="Helvetica,sans-Serif" font-size="10.00"> </text>
<polyline fill="none" stroke="black" points="849,-146.5 1003,-146.5 "/>
<text text-anchor="start" x="857" y="-134.5" font-family="Helvetica,sans-Serif" font-size="10.00">+ make()</text>
</g>
<!-- Node4 -->
<g id="node4" class="node"><title>Node4</title>
<g id="a_node4"><a xlink:href="classtomoBay_1_1model_1_1sql_1_1queries_1_1factories_1_1select_1_1noParams_1_1SelectAccountsFactory.html" target="_top" xlink:title="{SelectAccountsFactory\n||+ SelectAccountsFactory()\l+ make()\l}">
<polygon fill="white" stroke="black" points="0,-11.5 0,-79.5 134,-79.5 134,-11.5 0,-11.5"/>
<text text-anchor="middle" x="67" y="-67.5" font-family="Helvetica,sans-Serif" font-size="10.00">SelectAccountsFactory</text>
<polyline fill="none" stroke="black" points="0,-60.5 134,-60.5 "/>
<text text-anchor="middle" x="67" y="-48.5" font-family="Helvetica,sans-Serif" font-size="10.00"> </text>
<polyline fill="none" stroke="black" points="0,-41.5 134,-41.5 "/>
<text text-anchor="start" x="8" y="-29.5" font-family="Helvetica,sans-Serif" font-size="10.00">+ SelectAccountsFactory()</text>
<text text-anchor="start" x="8" y="-18.5" font-family="Helvetica,sans-Serif" font-size="10.00">+ make()</text>
</a>
</g>
</g>
<!-- Node1&#45;&gt;Node4 -->
<g id="edge3" class="edge"><title>Node1&#45;&gt;Node4</title>
<path fill="none" stroke="midnightblue" d="M838.969,-157.574C662.955,-150.873 270.607,-131.752 143,-91 134.115,-88.1626 125.15,-84.1508 116.646,-79.6853"/>
<polygon fill="none" stroke="midnightblue" points="838.847,-161.071 848.972,-157.95 839.11,-154.076 838.847,-161.071"/>
</g>
<!-- Node5 -->
<g id="node5" class="node"><title>Node5</title>
<g id="a_node5"><a xlink:href="classtomoBay_1_1model_1_1sql_1_1queries_1_1factories_1_1select_1_1noParams_1_1SelectEbayBuyersFactory.html" target="_top" xlink:title="{SelectEbayBuyersFactory\n||+ SelectEbayBuyersFactory()\l+ make()\l}">
<polygon fill="white" stroke="black" points="152,-11.5 152,-79.5 298,-79.5 298,-11.5 152,-11.5"/>
<text text-anchor="middle" x="225" y="-67.5" font-family="Helvetica,sans-Serif" font-size="10.00">SelectEbayBuyersFactory</text>
<polyline fill="none" stroke="black" points="152,-60.5 298,-60.5 "/>
<text text-anchor="middle" x="225" y="-48.5" font-family="Helvetica,sans-Serif" font-size="10.00"> </text>
<polyline fill="none" stroke="black" points="152,-41.5 298,-41.5 "/>
<text text-anchor="start" x="160" y="-29.5" font-family="Helvetica,sans-Serif" font-size="10.00">+ SelectEbayBuyersFactory()</text>
<text text-anchor="start" x="160" y="-18.5" font-family="Helvetica,sans-Serif" font-size="10.00">+ make()</text>
</a>
</g>
</g>
<!-- Node1&#45;&gt;Node5 -->
<g id="edge4" class="edge"><title>Node1&#45;&gt;Node5</title>
<path fill="none" stroke="midnightblue" d="M838.76,-161.137C716.911,-159.708 490.129,-148.554 307,-91 297.729,-88.0862 288.299,-84.0938 279.294,-79.6884"/>
<polygon fill="none" stroke="midnightblue" points="838.75,-164.637 848.784,-161.236 838.819,-157.638 838.75,-164.637"/>
</g>
<!-- Node6 -->
<g id="node6" class="node"><title>Node6</title>
<g id="a_node6"><a xlink:href="classtomoBay_1_1model_1_1sql_1_1queries_1_1factories_1_1select_1_1noParams_1_1SelectEbayItemsErrorFactory.html" target="_top" xlink:title="{SelectEbayItemsErrorFactory\n||+ SelectEbayItemsErrorFactory()\l+ make()\l}">
<polygon fill="white" stroke="black" points="316.5,-11.5 316.5,-79.5 477.5,-79.5 477.5,-11.5 316.5,-11.5"/>
<text text-anchor="middle" x="397" y="-67.5" font-family="Helvetica,sans-Serif" font-size="10.00">SelectEbayItemsErrorFactory</text>
<polyline fill="none" stroke="black" points="316.5,-60.5 477.5,-60.5 "/>
<text text-anchor="middle" x="397" y="-48.5" font-family="Helvetica,sans-Serif" font-size="10.00"> </text>
<polyline fill="none" stroke="black" points="316.5,-41.5 477.5,-41.5 "/>
<text text-anchor="start" x="324.5" y="-29.5" font-family="Helvetica,sans-Serif" font-size="10.00">+ SelectEbayItemsErrorFactory()</text>
<text text-anchor="start" x="324.5" y="-18.5" font-family="Helvetica,sans-Serif" font-size="10.00">+ make()</text>
</a>
</g>
</g>
<!-- Node1&#45;&gt;Node6 -->
<g id="edge5" class="edge"><title>Node1&#45;&gt;Node6</title>
<path fill="none" stroke="midnightblue" d="M838.485,-154.462C748.576,-146.46 605.417,-128.684 487,-91 477.366,-87.9342 467.478,-83.9734 457.945,-79.6805"/>
<polygon fill="none" stroke="midnightblue" points="838.373,-157.965 848.639,-155.344 838.979,-150.991 838.373,-157.965"/>
</g>
<!-- Node7 -->
<g id="node7" class="node"><title>Node7</title>
<g id="a_node7"><a xlink:href="classtomoBay_1_1model_1_1sql_1_1queries_1_1factories_1_1select_1_1noParams_1_1SelectEbayItemsFactory.html" target="_top" xlink:title="creates a SelectEbayItems query object ">
<polygon fill="white" stroke="black" points="496,-11.5 496,-79.5 636,-79.5 636,-11.5 496,-11.5"/>
<text text-anchor="middle" x="566" y="-67.5" font-family="Helvetica,sans-Serif" font-size="10.00">SelectEbayItemsFactory</text>
<polyline fill="none" stroke="black" points="496,-60.5 636,-60.5 "/>
<text text-anchor="middle" x="566" y="-48.5" font-family="Helvetica,sans-Serif" font-size="10.00"> </text>
<polyline fill="none" stroke="black" points="496,-41.5 636,-41.5 "/>
<text text-anchor="start" x="504" y="-29.5" font-family="Helvetica,sans-Serif" font-size="10.00">+ SelectEbayItemsFactory()</text>
<text text-anchor="start" x="504" y="-18.5" font-family="Helvetica,sans-Serif" font-size="10.00">+ make()</text>
</a>
</g>
</g>
<!-- Node1&#45;&gt;Node7 -->
<g id="edge6" class="edge"><title>Node1&#45;&gt;Node7</title>
<path fill="none" stroke="midnightblue" d="M838.857,-145.282C782.385,-133.891 707.905,-115.959 645,-91 636.806,-87.7489 628.417,-83.7907 620.31,-79.5904"/>
<polygon fill="none" stroke="midnightblue" points="838.337,-148.747 848.827,-147.264 839.701,-141.882 838.337,-148.747"/>
</g>
<!-- Node8 -->
<g id="node8" class="node"><title>Node8</title>
<g id="a_node8"><a xlink:href="classtomoBay_1_1model_1_1sql_1_1queries_1_1factories_1_1select_1_1noParams_1_1SelectEbayItemsNotInTransactionsFactory.html" target="_top" xlink:title="creates a SelectEbayItemsNotInTransactions ">
<polygon fill="white" stroke="black" points="654.5,-0.5 654.5,-90.5 835.5,-90.5 835.5,-0.5 654.5,-0.5"/>
<text text-anchor="start" x="662.5" y="-78.5" font-family="Helvetica,sans-Serif" font-size="10.00">SelectEbayItemsNotInTransactions</text>
<text text-anchor="middle" x="745" y="-67.5" font-family="Helvetica,sans-Serif" font-size="10.00">Factory</text>
<polyline fill="none" stroke="black" points="654.5,-60.5 835.5,-60.5 "/>
<text text-anchor="middle" x="745" y="-48.5" font-family="Helvetica,sans-Serif" font-size="10.00"> </text>
<polyline fill="none" stroke="black" points="654.5,-41.5 835.5,-41.5 "/>
<text text-anchor="start" x="662.5" y="-29.5" font-family="Helvetica,sans-Serif" font-size="10.00">+ SelectEbayItemsNotInTransactions</text>
<text text-anchor="start" x="662.5" y="-18.5" font-family="Helvetica,sans-Serif" font-size="10.00">Factory()</text>
<text text-anchor="start" x="662.5" y="-7.5" font-family="Helvetica,sans-Serif" font-size="10.00">+ make()</text>
</a>
</g>
</g>
<!-- Node1&#45;&gt;Node8 -->
<g id="edge7" class="edge"><title>Node1&#45;&gt;Node8</title>
<path fill="none" stroke="midnightblue" d="M864.484,-121.755C848.594,-111.747 831.37,-100.899 815.078,-90.6378"/>
<polygon fill="none" stroke="midnightblue" points="862.834,-124.852 873.161,-127.22 866.564,-118.929 862.834,-124.852"/>
</g>
<!-- Node9 -->
<g id="node9" class="node"><title>Node9</title>
<g id="a_node9"><a xlink:href="classtomoBay_1_1model_1_1sql_1_1queries_1_1factories_1_1select_1_1noParams_1_1SelectEbayOrdersFactory.html" target="_top" xlink:title="creates SelectEbayOrders query object ">
<polygon fill="white" stroke="black" points="854,-11.5 854,-79.5 998,-79.5 998,-11.5 854,-11.5"/>
<text text-anchor="middle" x="926" y="-67.5" font-family="Helvetica,sans-Serif" font-size="10.00">SelectEbayOrdersFactory</text>
<polyline fill="none" stroke="black" points="854,-60.5 998,-60.5 "/>
<text text-anchor="middle" x="926" y="-48.5" font-family="Helvetica,sans-Serif" font-size="10.00"> </text>
<polyline fill="none" stroke="black" points="854,-41.5 998,-41.5 "/>
<text text-anchor="start" x="862" y="-29.5" font-family="Helvetica,sans-Serif" font-size="10.00">+ SelectEbayOrdersFactory()</text>
<text text-anchor="start" x="862" y="-18.5" font-family="Helvetica,sans-Serif" font-size="10.00">+ make()</text>
</a>
</g>
</g>
<!-- Node1&#45;&gt;Node9 -->
<g id="edge8" class="edge"><title>Node1&#45;&gt;Node9</title>
<path fill="none" stroke="midnightblue" d="M926,-117.06C926,-104.644 926,-91.3162 926,-79.6243"/>
<polygon fill="none" stroke="midnightblue" points="922.5,-117.22 926,-127.22 929.5,-117.22 922.5,-117.22"/>
</g>
<!-- Node10 -->
<g id="node10" class="node"><title>Node10</title>
<g id="a_node10"><a xlink:href="classtomoBay_1_1model_1_1sql_1_1queries_1_1factories_1_1select_1_1noParams_1_1SelectInvoicedOrdersFactory.html" target="_top" xlink:title="{SelectInvoicedOrdersFactory\n||+ make()\l}">
<polygon fill="white" stroke="black" points="1016.5,-17 1016.5,-74 1159.5,-74 1159.5,-17 1016.5,-17"/>
<text text-anchor="middle" x="1088" y="-62" font-family="Helvetica,sans-Serif" font-size="10.00">SelectInvoicedOrdersFactory</text>
<polyline fill="none" stroke="black" points="1016.5,-55 1159.5,-55 "/>
<text text-anchor="middle" x="1088" y="-43" font-family="Helvetica,sans-Serif" font-size="10.00"> </text>
<polyline fill="none" stroke="black" points="1016.5,-36 1159.5,-36 "/>
<text text-anchor="start" x="1024.5" y="-24" font-family="Helvetica,sans-Serif" font-size="10.00">+ make()</text>
</a>
</g>
</g>
<!-- Node1&#45;&gt;Node10 -->
<g id="edge9" class="edge"><title>Node1&#45;&gt;Node10</title>
<path fill="none" stroke="midnightblue" d="M981.619,-121.361C1003.74,-105.792 1028.68,-88.2451 1048.84,-74.0548"/>
<polygon fill="none" stroke="midnightblue" points="979.456,-118.603 973.293,-127.22 983.485,-124.327 979.456,-118.603"/>
</g>
<!-- Node11 -->
<g id="node11" class="node"><title>Node11</title>
<g id="a_node11"><a xlink:href="classtomoBay_1_1model_1_1sql_1_1queries_1_1factories_1_1select_1_1noParams_1_1SelectUncalculatedInvoicesFactory.html" target="_top" xlink:title="{SelectUncalculatedInvoices\lFactory\n||+ make()\l}">
<polygon fill="white" stroke="black" points="1178,-11.5 1178,-79.5 1316,-79.5 1316,-11.5 1178,-11.5"/>
<text text-anchor="start" x="1186" y="-67.5" font-family="Helvetica,sans-Serif" font-size="10.00">SelectUncalculatedInvoices</text>
<text text-anchor="middle" x="1247" y="-56.5" font-family="Helvetica,sans-Serif" font-size="10.00">Factory</text>
<polyline fill="none" stroke="black" points="1178,-49.5 1316,-49.5 "/>
<text text-anchor="middle" x="1247" y="-37.5" font-family="Helvetica,sans-Serif" font-size="10.00"> </text>
<polyline fill="none" stroke="black" points="1178,-30.5 1316,-30.5 "/>
<text text-anchor="start" x="1186" y="-18.5" font-family="Helvetica,sans-Serif" font-size="10.00">+ make()</text>
</a>
</g>
</g>
<!-- Node1&#45;&gt;Node11 -->
<g id="edge10" class="edge"><title>Node1&#45;&gt;Node11</title>
<path fill="none" stroke="midnightblue" d="M1013.01,-141.01C1060.12,-129.126 1118.79,-112.142 1169,-91 1176.9,-87.6726 1185.01,-83.7209 1192.87,-79.5667"/>
<polygon fill="none" stroke="midnightblue" points="1011.99,-137.656 1003.13,-143.469 1013.68,-144.448 1011.99,-137.656"/>
</g>
<!-- Node12 -->
<g id="node12" class="node"><title>Node12</title>
<g id="a_node12"><a xlink:href="classtomoBay_1_1model_1_1sql_1_1queries_1_1factories_1_1select_1_1noParams_1_1SelectUncalculatedOrdersFactory.html" target="_top" xlink:title="{SelectUncalculatedOrders\lFactory\n||+ make()\l}">
<polygon fill="white" stroke="black" points="1334.5,-11.5 1334.5,-79.5 1465.5,-79.5 1465.5,-11.5 1334.5,-11.5"/>
<text text-anchor="start" x="1342.5" y="-67.5" font-family="Helvetica,sans-Serif" font-size="10.00">SelectUncalculatedOrders</text>
<text text-anchor="middle" x="1400" y="-56.5" font-family="Helvetica,sans-Serif" font-size="10.00">Factory</text>
<polyline fill="none" stroke="black" points="1334.5,-49.5 1465.5,-49.5 "/>
<text text-anchor="middle" x="1400" y="-37.5" font-family="Helvetica,sans-Serif" font-size="10.00"> </text>
<polyline fill="none" stroke="black" points="1334.5,-30.5 1465.5,-30.5 "/>
<text text-anchor="start" x="1342.5" y="-18.5" font-family="Helvetica,sans-Serif" font-size="10.00">+ make()</text>
</a>
</g>
</g>
<!-- Node1&#45;&gt;Node12 -->
<g id="edge11" class="edge"><title>Node1&#45;&gt;Node12</title>
<path fill="none" stroke="midnightblue" d="M1013.23,-154.447C1095.69,-146.619 1221.8,-129.137 1325,-91 1333.24,-87.9561 1341.59,-84.0072 1349.59,-79.7197"/>
<polygon fill="none" stroke="midnightblue" points="1012.79,-150.973 1003.15,-155.377 1013.43,-157.944 1012.79,-150.973"/>
</g>
<!-- Node13 -->
<g id="node13" class="node"><title>Node13</title>
<g id="a_node13"><a xlink:href="classtomoBay_1_1model_1_1sql_1_1queries_1_1factories_1_1select_1_1noParams_1_1SelectUninvoicedOrdersFactory.html" target="_top" xlink:title="creates a SelectUninvoicedOrders query object ">
<polygon fill="white" stroke="black" points="1484,-11.5 1484,-79.5 1654,-79.5 1654,-11.5 1484,-11.5"/>
<text text-anchor="middle" x="1569" y="-67.5" font-family="Helvetica,sans-Serif" font-size="10.00">SelectUninvoicedOrdersFactory</text>
<polyline fill="none" stroke="black" points="1484,-60.5 1654,-60.5 "/>
<text text-anchor="middle" x="1569" y="-48.5" font-family="Helvetica,sans-Serif" font-size="10.00"> </text>
<polyline fill="none" stroke="black" points="1484,-41.5 1654,-41.5 "/>
<text text-anchor="start" x="1492" y="-29.5" font-family="Helvetica,sans-Serif" font-size="10.00">+ SelectUninvoicedOrdersFactory()</text>
<text text-anchor="start" x="1492" y="-18.5" font-family="Helvetica,sans-Serif" font-size="10.00">+ make()</text>
</a>
</g>
</g>
<!-- Node1&#45;&gt;Node13 -->
<g id="edge12" class="edge"><title>Node1&#45;&gt;Node13</title>
<path fill="none" stroke="midnightblue" d="M1013.06,-157.931C1122.79,-152.785 1316.26,-137.341 1475,-91 1485.31,-87.9894 1495.91,-83.9744 1506.1,-79.5845"/>
<polygon fill="none" stroke="midnightblue" points="1012.86,-154.436 1003.03,-158.383 1013.18,-161.429 1012.86,-154.436"/>
</g>
<!-- Node14 -->
<g id="node14" class="node"><title>Node14</title>
<g id="a_node14"><a xlink:href="classtomoBay_1_1model_1_1sql_1_1queries_1_1factories_1_1select_1_1noParams_1_1SelectUninvoicedOrdersNoErrorsFactory.html" target="_top" xlink:title="{SelectUninvoicedOrdersNo\lErrorsFactory\n||+ SelectUninvoicedOrdersNo\lErrorsFactory()\l+ make()\l}">
<polygon fill="white" stroke="black" points="1672,-0.5 1672,-90.5 1816,-90.5 1816,-0.5 1672,-0.5"/>
<text text-anchor="start" x="1680" y="-78.5" font-family="Helvetica,sans-Serif" font-size="10.00">SelectUninvoicedOrdersNo</text>
<text text-anchor="middle" x="1744" y="-67.5" font-family="Helvetica,sans-Serif" font-size="10.00">ErrorsFactory</text>
<polyline fill="none" stroke="black" points="1672,-60.5 1816,-60.5 "/>
<text text-anchor="middle" x="1744" y="-48.5" font-family="Helvetica,sans-Serif" font-size="10.00"> </text>
<polyline fill="none" stroke="black" points="1672,-41.5 1816,-41.5 "/>
<text text-anchor="start" x="1680" y="-29.5" font-family="Helvetica,sans-Serif" font-size="10.00">+ SelectUninvoicedOrdersNo</text>
<text text-anchor="start" x="1680" y="-18.5" font-family="Helvetica,sans-Serif" font-size="10.00">ErrorsFactory()</text>
<text text-anchor="start" x="1680" y="-7.5" font-family="Helvetica,sans-Serif" font-size="10.00">+ make()</text>
</a>
</g>
</g>
<!-- Node1&#45;&gt;Node14 -->
<g id="edge13" class="edge"><title>Node1&#45;&gt;Node14</title>
<path fill="none" stroke="midnightblue" d="M1013.05,-156.725C1180.99,-148.714 1543.67,-127.679 1663,-91 1665.91,-90.1043 1668.84,-89.0965 1671.76,-87.9981"/>
<polygon fill="none" stroke="midnightblue" points="1012.83,-153.231 1003,-157.199 1013.16,-160.223 1012.83,-153.231"/>
</g>
<!-- Node2 -->
<g id="node2" class="node"><title>Node2</title>
<g id="a_node2"><a xlink:href="interfacetomoBay_1_1model_1_1sql_1_1framework_1_1queryFactories_1_1AbstractSelectQueryFactory.html" target="_top" xlink:title="{AbstractSelectQueryFactory\n||+ make()\l}">
<polygon fill="white" stroke="black" points="856,-232.5 856,-289.5 996,-289.5 996,-232.5 856,-232.5"/>
<text text-anchor="middle" x="926" y="-277.5" font-family="Helvetica,sans-Serif" font-size="10.00">AbstractSelectQueryFactory</text>
<polyline fill="none" stroke="black" points="856,-270.5 996,-270.5 "/>
<text text-anchor="middle" x="926" y="-258.5" font-family="Helvetica,sans-Serif" font-size="10.00"> </text>
<polyline fill="none" stroke="black" points="856,-251.5 996,-251.5 "/>
<text text-anchor="start" x="864" y="-239.5" font-family="Helvetica,sans-Serif" font-size="10.00">+ make()</text>
</a>
</g>
</g>
<!-- Node2&#45;&gt;Node1 -->
<g id="edge1" class="edge"><title>Node2&#45;&gt;Node1</title>
<path fill="none" stroke="midnightblue" d="M926,-222.063C926,-213.393 926,-204.243 926,-195.786"/>
<polygon fill="none" stroke="midnightblue" points="922.5,-222.321 926,-232.321 929.5,-222.321 922.5,-222.321"/>
</g>
<!-- Node3 -->
<g id="node3" class="node"><title>Node3</title>
<g id="a_node3"><a xlink:href="interfacetomoBay_1_1model_1_1sql_1_1framework_1_1queryFactories_1_1AbstractQueryFactory.html" target="_top" xlink:title="all Queries are instantiated using a factory and each of these factories must conform to this interfa...">
<polygon fill="white" stroke="black" points="869.5,-326.5 869.5,-383.5 982.5,-383.5 982.5,-326.5 869.5,-326.5"/>
<text text-anchor="middle" x="926" y="-371.5" font-family="Helvetica,sans-Serif" font-size="10.00">AbstractQueryFactory</text>
<polyline fill="none" stroke="black" points="869.5,-364.5 982.5,-364.5 "/>
<text text-anchor="middle" x="926" y="-352.5" font-family="Helvetica,sans-Serif" font-size="10.00"> </text>
<polyline fill="none" stroke="black" points="869.5,-345.5 982.5,-345.5 "/>
<text text-anchor="start" x="877.5" y="-333.5" font-family="Helvetica,sans-Serif" font-size="10.00">+ make()</text>
</a>
</g>
</g>
<!-- Node3&#45;&gt;Node2 -->
<g id="edge2" class="edge"><title>Node3&#45;&gt;Node2</title>
<path fill="none" stroke="midnightblue" d="M926,-316.209C926,-307.293 926,-297.951 926,-289.584"/>
<polygon fill="none" stroke="midnightblue" points="922.5,-316.397 926,-326.397 929.5,-316.397 922.5,-316.397"/>
</g>
</g>
</svg>
