<?xml version="1.0" encoding="UTF-8" standalone="no"?>
<!DOCTYPE svg PUBLIC "-//W3C//DTD SVG 1.1//EN"
 "http://www.w3.org/Graphics/SVG/1.1/DTD/svg11.dtd">
<!-- Generated by graphviz version 2.38.0 (20140413.2041)
 -->
<!-- Title: getSent Pages: 1 -->
<svg width="440pt" height="39pt"
 viewBox="0.00 0.00 440.00 39.00" xmlns="http://www.w3.org/2000/svg" xmlns:xlink="http://www.w3.org/1999/xlink">
<g id="graph0" class="graph" transform="scale(1 1) rotate(0) translate(4 35)">
<title>getSent</title>
<polygon fill="white" stroke="none" points="-4,4 -4,-35 436,-35 436,4 -4,4"/>
<!-- Node1 -->
<g id="node1" class="node"><title>Node1</title>
<polygon fill="#bfbfbf" stroke="black" points="0,-6 0,-25 50,-25 50,-6 0,-6"/>
<text text-anchor="middle" x="25" y="-13" font-family="Helvetica,sans-Serif" font-size="10.00">getSent</text>
</g>
<!-- Node2 -->
<g id="node2" class="node"><title>Node2</title>
<g id="a_node2"><a xlink:href="classtomoBayTests_1_1model_1_1net_1_1ClientSocketTest.html#a9e05d6ab69028f9da119689d187c95b2" target="_top" xlink:title="tomoBayTests.model.net.Client\lSocketTest.test">
<polygon fill="white" stroke="black" points="86,-0.5 86,-30.5 241,-30.5 241,-0.5 86,-0.5"/>
<text text-anchor="start" x="94" y="-18.5" font-family="Helvetica,sans-Serif" font-size="10.00">tomoBayTests.model.net.Client</text>
<text text-anchor="middle" x="163.5" y="-7.5" font-family="Helvetica,sans-Serif" font-size="10.00">SocketTest.test</text>
</a>
</g>
</g>
<!-- Node1&#45;&gt;Node2 -->
<g id="edge1" class="edge"><title>Node1&#45;&gt;Node2</title>
<path fill="none" stroke="midnightblue" d="M60.3285,-15.5C68.252,-15.5 76.9936,-15.5 85.9283,-15.5"/>
<polygon fill="midnightblue" stroke="midnightblue" points="60.0893,-12.0001 50.0892,-15.5 60.0892,-19.0001 60.0893,-12.0001"/>
</g>
<!-- Node3 -->
<g id="node3" class="node"><title>Node3</title>
<g id="a_node3"><a xlink:href="classtomoBayTests_1_1model_1_1net_1_1ClientSocketTest.html#a8b260eecbaabcef8473fd87ada040682" target="_top" xlink:title="tomoBayTests.model.net.Client\lSocketTest.main">
<polygon fill="white" stroke="black" points="277,-0.5 277,-30.5 432,-30.5 432,-0.5 277,-0.5"/>
<text text-anchor="start" x="285" y="-18.5" font-family="Helvetica,sans-Serif" font-size="10.00">tomoBayTests.model.net.Client</text>
<text text-anchor="middle" x="354.5" y="-7.5" font-family="Helvetica,sans-Serif" font-size="10.00">SocketTest.main</text>
</a>
</g>
</g>
<!-- Node2&#45;&gt;Node3 -->
<g id="edge2" class="edge"><title>Node2&#45;&gt;Node3</title>
<path fill="none" stroke="midnightblue" d="M251.104,-15.5C259.674,-15.5 268.33,-15.5 276.79,-15.5"/>
<polygon fill="midnightblue" stroke="midnightblue" points="251.101,-12.0001 241.101,-15.5 251.101,-19.0001 251.101,-12.0001"/>
</g>
</g>
</svg>
