<?xml version="1.0" encoding="UTF-8" standalone="no"?>
<!DOCTYPE svg PUBLIC "-//W3C//DTD SVG 1.1//EN"
 "http://www.w3.org/Graphics/SVG/1.1/DTD/svg11.dtd">
<!-- Generated by graphviz version 2.38.0 (20140413.2041)
 -->
<!-- Title: AbstractNonce&lt; T, E &gt; Pages: 1 -->
<svg width="134pt" height="204pt"
 viewBox="0.00 0.00 134.00 204.00" xmlns="http://www.w3.org/2000/svg" xmlns:xlink="http://www.w3.org/1999/xlink">
<g id="graph0" class="graph" transform="scale(1 1) rotate(0) translate(4 200)">
<title>AbstractNonce&lt; T, E &gt;</title>
<polygon fill="white" stroke="none" points="-4,4 -4,-200 130,-200 130,4 -4,4"/>
<!-- Node1 -->
<g id="node1" class="node"><title>Node1</title>
<polygon fill="#bfbfbf" stroke="black" points="3.5,-127.5 3.5,-195.5 122.5,-195.5 122.5,-127.5 3.5,-127.5"/>
<text text-anchor="middle" x="63" y="-183.5" font-family="Helvetica,sans-Serif" font-size="10.00">AbstractNonce&lt; T, E &gt;</text>
<polyline fill="none" stroke="black" points="3.5,-176.5 122.5,-176.5 "/>
<text text-anchor="middle" x="63" y="-164.5" font-family="Helvetica,sans-Serif" font-size="10.00"> </text>
<polyline fill="none" stroke="black" points="3.5,-157.5 122.5,-157.5 "/>
<text text-anchor="start" x="11.5" y="-145.5" font-family="Helvetica,sans-Serif" font-size="10.00">+ get()</text>
<text text-anchor="start" x="11.5" y="-134.5" font-family="Helvetica,sans-Serif" font-size="10.00">+ encode()</text>
</g>
<!-- Node2 -->
<g id="node2" class="node"><title>Node2</title>
<g id="a_node2"><a xlink:href="classtomoBay_1_1model_1_1royalMail_1_1RoyalMailNonce.html" target="_top" xlink:title="This class represents the functionality to generate a nonce (number used once), and to encode it as p...">
<polygon fill="white" stroke="black" points="0,-0.5 0,-90.5 126,-90.5 126,-0.5 0,-0.5"/>
<text text-anchor="start" x="8" y="-78.5" font-family="Helvetica,sans-Serif" font-size="10.00">RoyalMailNonce&lt; String,</text>
<text text-anchor="middle" x="63" y="-67.5" font-family="Helvetica,sans-Serif" font-size="10.00"> Integer &gt;</text>
<polyline fill="none" stroke="black" points="0,-60.5 126,-60.5 "/>
<text text-anchor="start" x="8" y="-48.5" font-family="Helvetica,sans-Serif" font-size="10.00">&#45; MAXIMUM</text>
<polyline fill="none" stroke="black" points="0,-41.5 126,-41.5 "/>
<text text-anchor="start" x="8" y="-29.5" font-family="Helvetica,sans-Serif" font-size="10.00">+ RoyalMailNonce()</text>
<text text-anchor="start" x="8" y="-18.5" font-family="Helvetica,sans-Serif" font-size="10.00">+ get()</text>
<text text-anchor="start" x="8" y="-7.5" font-family="Helvetica,sans-Serif" font-size="10.00">+ encode()</text>
</a>
</g>
</g>
<!-- Node1&#45;&gt;Node2 -->
<g id="edge1" class="edge"><title>Node1&#45;&gt;Node2</title>
<path fill="none" stroke="midnightblue" d="M63,-116.972C63,-108.346 63,-99.2838 63,-90.6378"/>
<polygon fill="none" stroke="midnightblue" points="59.5001,-117.22 63,-127.22 66.5001,-117.22 59.5001,-117.22"/>
</g>
</g>
</svg>
