<?xml version="1.0" encoding="UTF-8" standalone="no"?>
<!DOCTYPE svg PUBLIC "-//W3C//DTD SVG 1.1//EN"
 "http://www.w3.org/Graphics/SVG/1.1/DTD/svg11.dtd">
<!-- Generated by graphviz version 2.38.0 (20140413.2041)
 -->
<!-- Title: make Pages: 1 -->
<svg width="594pt" height="148pt"
 viewBox="0.00 0.00 594.00 147.50" xmlns="http://www.w3.org/2000/svg" xmlns:xlink="http://www.w3.org/1999/xlink">
<g id="graph0" class="graph" transform="scale(1 1) rotate(0) translate(4 143.5)">
<title>make</title>
<polygon fill="white" stroke="none" points="-4,4 -4,-143.5 590,-143.5 590,4 -4,4"/>
<!-- Node1 -->
<g id="node1" class="node"><title>Node1</title>
<polygon fill="#bfbfbf" stroke="black" points="0,-65.5 0,-84.5 41,-84.5 41,-65.5 0,-65.5"/>
<text text-anchor="middle" x="20.5" y="-72.5" font-family="Helvetica,sans-Serif" font-size="10.00">make</text>
</g>
<!-- Node2 -->
<g id="node2" class="node"><title>Node2</title>
<g id="a_node2"><a xlink:href="classtomoBay_1_1model_1_1dataTypes_1_1financial_1_1SalesOrderDayBook_1_1SalesDayBookLineFactory.html#a2d63fd7591115332417a84014f39b204" target="_top" xlink:title="create the requested AbstractSalesDayBookLine. ">
<polygon fill="white" stroke="black" points="77,-60 77,-90 329,-90 329,-60 77,-60"/>
<text text-anchor="start" x="85" y="-78" font-family="Helvetica,sans-Serif" font-size="10.00">tomoBay.model.dataTypes.financial.</text>
<text text-anchor="middle" x="203" y="-67" font-family="Helvetica,sans-Serif" font-size="10.00">SalesOrderDayBook.SalesDayBookLineFactory.make</text>
</a>
</g>
</g>
<!-- Node1&#45;&gt;Node2 -->
<g id="edge1" class="edge"><title>Node1&#45;&gt;Node2</title>
<path fill="none" stroke="midnightblue" d="M51.1989,-75C58.8427,-75 67.5622,-75 76.8663,-75"/>
<polygon fill="midnightblue" stroke="midnightblue" points="51.1603,-71.5001 41.1603,-75 51.1602,-78.5001 51.1603,-71.5001"/>
</g>
<!-- Node3 -->
<g id="node3" class="node"><title>Node3</title>
<g id="a_node3"><a xlink:href="classtomoBay_1_1presenters_1_1presenterActions_1_1concreteActions_1_1OrderInfo.html#adb3dedf31dc2c7fc796f20406c235ccd" target="_top" xlink:title="performs the action specified ">
<polygon fill="white" stroke="black" points="373.5,-109 373.5,-139 577.5,-139 577.5,-109 373.5,-109"/>
<text text-anchor="start" x="381.5" y="-127" font-family="Helvetica,sans-Serif" font-size="10.00">tomoBay.presenters.presenter</text>
<text text-anchor="middle" x="475.5" y="-116" font-family="Helvetica,sans-Serif" font-size="10.00">Actions.concreteActions.OrderInfo.execute</text>
</a>
</g>
</g>
<!-- Node2&#45;&gt;Node3 -->
<g id="edge2" class="edge"><title>Node2&#45;&gt;Node3</title>
<path fill="none" stroke="midnightblue" d="M296.867,-91.8225C327.647,-97.3982 361.685,-103.564 391.66,-108.994"/>
<polygon fill="midnightblue" stroke="midnightblue" points="297.461,-88.3732 286.997,-90.0346 296.213,-95.2611 297.461,-88.3732"/>
</g>
<!-- Node4 -->
<g id="node4" class="node"><title>Node4</title>
<g id="a_node4"><a xlink:href="classtomoBay_1_1presenters_1_1presenterActions_1_1concreteActions_1_1PrintInvoices.html#adb3dedf31dc2c7fc796f20406c235ccd" target="_top" xlink:title="performs the action specified ">
<polygon fill="white" stroke="black" points="365,-60 365,-90 586,-90 586,-60 365,-60"/>
<text text-anchor="start" x="373" y="-78" font-family="Helvetica,sans-Serif" font-size="10.00">tomoBay.presenters.presenter</text>
<text text-anchor="middle" x="475.5" y="-67" font-family="Helvetica,sans-Serif" font-size="10.00">Actions.concreteActions.PrintInvoices.execute</text>
</a>
</g>
</g>
<!-- Node2&#45;&gt;Node4 -->
<g id="edge3" class="edge"><title>Node2&#45;&gt;Node4</title>
<path fill="none" stroke="midnightblue" d="M339.396,-75C347.959,-75 356.521,-75 364.945,-75"/>
<polygon fill="midnightblue" stroke="midnightblue" points="339.352,-71.5001 329.352,-75 339.352,-78.5001 339.352,-71.5001"/>
</g>
<!-- Node5 -->
<g id="node5" class="node"><title>Node5</title>
<g id="a_node5"><a xlink:href="classtomoBay_1_1presenters_1_1presenterActions_1_1concreteActions_1_1InvoiceOrders.html#adb3dedf31dc2c7fc796f20406c235ccd" target="_top" xlink:title="performs the action specified ">
<polygon fill="white" stroke="black" points="396.5,-0.5 396.5,-41.5 554.5,-41.5 554.5,-0.5 396.5,-0.5"/>
<text text-anchor="start" x="404.5" y="-29.5" font-family="Helvetica,sans-Serif" font-size="10.00">tomoBay.presenters.presenter</text>
<text text-anchor="start" x="404.5" y="-18.5" font-family="Helvetica,sans-Serif" font-size="10.00">Actions.concreteActions.Invoice</text>
<text text-anchor="middle" x="475.5" y="-7.5" font-family="Helvetica,sans-Serif" font-size="10.00">Orders.execute</text>
</a>
</g>
</g>
<!-- Node2&#45;&gt;Node5 -->
<g id="edge4" class="edge"><title>Node2&#45;&gt;Node5</title>
<path fill="none" stroke="midnightblue" d="M289.332,-57.9651C323.568,-51.1307 362.767,-43.3054 396.257,-36.6196"/>
<polygon fill="midnightblue" stroke="midnightblue" points="288.471,-54.568 279.349,-59.958 289.841,-61.4325 288.471,-54.568"/>
</g>
</g>
</svg>
