<?xml version="1.0" encoding="UTF-8" standalone="no"?>
<!DOCTYPE svg PUBLIC "-//W3C//DTD SVG 1.1//EN"
 "http://www.w3.org/Graphics/SVG/1.1/DTD/svg11.dtd">
<!-- Generated by graphviz version 2.38.0 (20140413.2041)
 -->
<!-- Title: Day Pages: 1 -->
<!--zoomable 193 -->
<svg id="main" version="1.1" xmlns="http://www.w3.org/2000/svg" xmlns:xlink="http://www.w3.org/1999/xlink" xml:space="preserve" onload="init(evt)">
<style type="text/css"><![CDATA[
.edge:hover path { stroke: red; }
.edge:hover polygon { stroke: red; fill: red; }
]]></style>
<script type="text/javascript"><![CDATA[
var edges = document.getElementsByTagName('g');
if (edges && edges.length) {
  for (var i=0;i<edges.length;i++) {
    if (edges[i].id.substr(0,4)=='edge') {
      edges[i].setAttribute('class','edge');
    }
  }
}
]]></script>
        <defs>
                <circle id="rim" cx="0" cy="0" r="7"/>
                <circle id="rim2" cx="0" cy="0" r="3.5"/>
                <g id="zoomPlus">
                        <use xlink:href="#rim" fill="#404040">
                                <set attributeName="fill" to="#808080" begin="zoomplus.mouseover" end="zoomplus.mouseout"/>
                        </use>
                        <path d="M-4,0h8M0,-4v8" fill="none" stroke="white" stroke-width="1.5" pointer-events="none"/>
                </g>
                <g id="zoomMin">
                        <use xlink:href="#rim" fill="#404040">
                                <set attributeName="fill" to="#808080" begin="zoomminus.mouseover" end="zoomminus.mouseout"/>
                        </use>
                        <path d="M-4,0h8" fill="none" stroke="white" stroke-width="1.5" pointer-events="none"/>
                </g>
                <g id="dirArrow">
                        <path fill="none" stroke="white" stroke-width="1.5" d="M0,-3.0v7 M-2.5,-0.5L0,-3.0L2.5,-0.5"/>
                </g>
               <g id="resetDef">
                       <use xlink:href="#rim2" fill="#404040">
                               <set attributeName="fill" to="#808080" begin="reset.mouseover" end="reset.mouseout"/>
                       </use>
               </g>
        </defs>

<script type="text/javascript">
var viewWidth = 637;
var viewHeight = 193;
var sectionId = 'dynsection-0';
</script>
<script xlink:href="svgpan.js"/>
<svg id="graph" class="graph">
<g id="viewport">
<title>Day</title>
<polygon fill="white" stroke="none" points="-4,4 -4,-189 633,-189 633,4 -4,4"/>
<!-- Node1 -->
<g id="node1" class="node"><title>Node1</title>
<polygon fill="#bfbfbf" stroke="black" points="273,-116.5 273,-184.5 346,-184.5 346,-116.5 273,-116.5"/>
<text text-anchor="middle" x="309.5" y="-172.5" font-family="Helvetica,sans-Serif" font-size="10.00">Day</text>
<polyline fill="none" stroke="black" points="273,-165.5 346,-165.5 "/>
<text text-anchor="middle" x="309.5" y="-153.5" font-family="Helvetica,sans-Serif" font-size="10.00"> </text>
<polyline fill="none" stroke="black" points="273,-146.5 346,-146.5 "/>
<text text-anchor="start" x="281" y="-134.5" font-family="Helvetica,sans-Serif" font-size="10.00">+ startTime()</text>
<text text-anchor="start" x="281" y="-123.5" font-family="Helvetica,sans-Serif" font-size="10.00">+ endTime()</text>
</g>
<!-- Node2 -->
<g id="node2" class="node"><title>Node2</title>
<g id="a_node2"><a xlink:href="classtomoBay_1_1helpers_1_1checkTime_1_1Friday.html" target="_top" xlink:title="This class encapsulates a friday, in terms of the start of business hours and the end of business hou...">
<polygon fill="white" stroke="black" points="0,-0.5 0,-79.5 73,-79.5 73,-0.5 0,-0.5"/>
<text text-anchor="middle" x="36.5" y="-67.5" font-family="Helvetica,sans-Serif" font-size="10.00">Friday</text>
<polyline fill="none" stroke="black" points="0,-60.5 73,-60.5 "/>
<text text-anchor="middle" x="36.5" y="-48.5" font-family="Helvetica,sans-Serif" font-size="10.00"> </text>
<polyline fill="none" stroke="black" points="0,-41.5 73,-41.5 "/>
<text text-anchor="start" x="8" y="-29.5" font-family="Helvetica,sans-Serif" font-size="10.00">+ Friday()</text>
<text text-anchor="start" x="8" y="-18.5" font-family="Helvetica,sans-Serif" font-size="10.00">+ startTime()</text>
<text text-anchor="start" x="8" y="-7.5" font-family="Helvetica,sans-Serif" font-size="10.00">+ endTime()</text>
</a>
</g>
</g>
<!-- Node1&#45;&gt;Node2 -->
<g id="edge1" class="edge"><title>Node1&#45;&gt;Node2</title>
<path fill="none" stroke="midnightblue" d="M262.853,-141.239C215.117,-131.453 139.871,-112.267 81.5,-80 78.6952,-78.4495 75.9098,-76.7026 73.1802,-74.8297"/>
<polygon fill="none" stroke="midnightblue" points="262.407,-144.719 272.899,-143.242 263.777,-137.854 262.407,-144.719"/>
</g>
<!-- Node3 -->
<g id="node3" class="node"><title>Node3</title>
<g id="a_node3"><a xlink:href="classtomoBay_1_1helpers_1_1checkTime_1_1Monday.html" target="_top" xlink:title="This class encapsulates a Monday, in terms of the start of business hours and the end of business hou...">
<polygon fill="white" stroke="black" points="91,-0.5 91,-79.5 164,-79.5 164,-0.5 91,-0.5"/>
<text text-anchor="middle" x="127.5" y="-67.5" font-family="Helvetica,sans-Serif" font-size="10.00">Monday</text>
<polyline fill="none" stroke="black" points="91,-60.5 164,-60.5 "/>
<text text-anchor="middle" x="127.5" y="-48.5" font-family="Helvetica,sans-Serif" font-size="10.00"> </text>
<polyline fill="none" stroke="black" points="91,-41.5 164,-41.5 "/>
<text text-anchor="start" x="99" y="-29.5" font-family="Helvetica,sans-Serif" font-size="10.00">+ Monday()</text>
<text text-anchor="start" x="99" y="-18.5" font-family="Helvetica,sans-Serif" font-size="10.00">+ startTime()</text>
<text text-anchor="start" x="99" y="-7.5" font-family="Helvetica,sans-Serif" font-size="10.00">+ endTime()</text>
</a>
</g>
</g>
<!-- Node1&#45;&gt;Node3 -->
<g id="edge2" class="edge"><title>Node1&#45;&gt;Node3</title>
<path fill="none" stroke="midnightblue" d="M263.615,-129.665C236.237,-117.003 201.31,-99.364 172.5,-80 169.669,-78.0969 166.819,-76.0363 164.004,-73.8906"/>
<polygon fill="none" stroke="midnightblue" points="262.411,-132.963 272.962,-133.931 265.318,-126.595 262.411,-132.963"/>
</g>
<!-- Node4 -->
<g id="node4" class="node"><title>Node4</title>
<g id="a_node4"><a xlink:href="classtomoBay_1_1helpers_1_1checkTime_1_1Saturday.html" target="_top" xlink:title="This class encapsulates a friday, in terms of the start of business hours and the end of business hou...">
<polygon fill="white" stroke="black" points="182,-0.5 182,-79.5 255,-79.5 255,-0.5 182,-0.5"/>
<text text-anchor="middle" x="218.5" y="-67.5" font-family="Helvetica,sans-Serif" font-size="10.00">Saturday</text>
<polyline fill="none" stroke="black" points="182,-60.5 255,-60.5 "/>
<text text-anchor="middle" x="218.5" y="-48.5" font-family="Helvetica,sans-Serif" font-size="10.00"> </text>
<polyline fill="none" stroke="black" points="182,-41.5 255,-41.5 "/>
<text text-anchor="start" x="190" y="-29.5" font-family="Helvetica,sans-Serif" font-size="10.00">+ Saturday()</text>
<text text-anchor="start" x="190" y="-18.5" font-family="Helvetica,sans-Serif" font-size="10.00">+ startTime()</text>
<text text-anchor="start" x="190" y="-7.5" font-family="Helvetica,sans-Serif" font-size="10.00">+ endTime()</text>
</a>
</g>
</g>
<!-- Node1&#45;&gt;Node4 -->
<g id="edge3" class="edge"><title>Node1&#45;&gt;Node4</title>
<path fill="none" stroke="midnightblue" d="M275.162,-108.559C267.213,-99.081 258.779,-89.0254 250.916,-79.6493"/>
<polygon fill="none" stroke="midnightblue" points="272.595,-110.944 281.703,-116.357 277.958,-106.446 272.595,-110.944"/>
</g>
<!-- Node5 -->
<g id="node5" class="node"><title>Node5</title>
<g id="a_node5"><a xlink:href="classtomoBay_1_1helpers_1_1checkTime_1_1Sunday.html" target="_top" xlink:title="This class encapsulates a friday, in terms of the start of business hours and the end of business hou...">
<polygon fill="white" stroke="black" points="273,-0.5 273,-79.5 346,-79.5 346,-0.5 273,-0.5"/>
<text text-anchor="middle" x="309.5" y="-67.5" font-family="Helvetica,sans-Serif" font-size="10.00">Sunday</text>
<polyline fill="none" stroke="black" points="273,-60.5 346,-60.5 "/>
<text text-anchor="middle" x="309.5" y="-48.5" font-family="Helvetica,sans-Serif" font-size="10.00"> </text>
<polyline fill="none" stroke="black" points="273,-41.5 346,-41.5 "/>
<text text-anchor="start" x="281" y="-29.5" font-family="Helvetica,sans-Serif" font-size="10.00">+ Sunday()</text>
<text text-anchor="start" x="281" y="-18.5" font-family="Helvetica,sans-Serif" font-size="10.00">+ startTime()</text>
<text text-anchor="start" x="281" y="-7.5" font-family="Helvetica,sans-Serif" font-size="10.00">+ endTime()</text>
</a>
</g>
</g>
<!-- Node1&#45;&gt;Node5 -->
<g id="edge4" class="edge"><title>Node1&#45;&gt;Node5</title>
<path fill="none" stroke="midnightblue" d="M309.5,-106.274C309.5,-97.4764 309.5,-88.2753 309.5,-79.6493"/>
<polygon fill="none" stroke="midnightblue" points="306,-106.357 309.5,-116.357 313,-106.357 306,-106.357"/>
</g>
<!-- Node6 -->
<g id="node6" class="node"><title>Node6</title>
<g id="a_node6"><a xlink:href="classtomoBay_1_1helpers_1_1checkTime_1_1Thursday.html" target="_top" xlink:title="This class encapsulates a friday, in terms of the start of business hours and the end of business hou...">
<polygon fill="white" stroke="black" points="364,-0.5 364,-79.5 437,-79.5 437,-0.5 364,-0.5"/>
<text text-anchor="middle" x="400.5" y="-67.5" font-family="Helvetica,sans-Serif" font-size="10.00">Thursday</text>
<polyline fill="none" stroke="black" points="364,-60.5 437,-60.5 "/>
<text text-anchor="middle" x="400.5" y="-48.5" font-family="Helvetica,sans-Serif" font-size="10.00"> </text>
<polyline fill="none" stroke="black" points="364,-41.5 437,-41.5 "/>
<text text-anchor="start" x="372" y="-29.5" font-family="Helvetica,sans-Serif" font-size="10.00">+ Thursday()</text>
<text text-anchor="start" x="372" y="-18.5" font-family="Helvetica,sans-Serif" font-size="10.00">+ startTime()</text>
<text text-anchor="start" x="372" y="-7.5" font-family="Helvetica,sans-Serif" font-size="10.00">+ endTime()</text>
</a>
</g>
</g>
<!-- Node1&#45;&gt;Node6 -->
<g id="edge5" class="edge"><title>Node1&#45;&gt;Node6</title>
<path fill="none" stroke="midnightblue" d="M343.838,-108.559C351.787,-99.081 360.221,-89.0254 368.084,-79.6493"/>
<polygon fill="none" stroke="midnightblue" points="341.042,-106.446 337.297,-116.357 346.405,-110.944 341.042,-106.446"/>
</g>
<!-- Node7 -->
<g id="node7" class="node"><title>Node7</title>
<g id="a_node7"><a xlink:href="classtomoBay_1_1helpers_1_1checkTime_1_1Tuesday.html" target="_top" xlink:title="This class encapsulates a friday, in terms of the start of business hours and the end of business hou...">
<polygon fill="white" stroke="black" points="455,-0.5 455,-79.5 528,-79.5 528,-0.5 455,-0.5"/>
<text text-anchor="middle" x="491.5" y="-67.5" font-family="Helvetica,sans-Serif" font-size="10.00">Tuesday</text>
<polyline fill="none" stroke="black" points="455,-60.5 528,-60.5 "/>
<text text-anchor="middle" x="491.5" y="-48.5" font-family="Helvetica,sans-Serif" font-size="10.00"> </text>
<polyline fill="none" stroke="black" points="455,-41.5 528,-41.5 "/>
<text text-anchor="start" x="463" y="-29.5" font-family="Helvetica,sans-Serif" font-size="10.00">+ Tuesday()</text>
<text text-anchor="start" x="463" y="-18.5" font-family="Helvetica,sans-Serif" font-size="10.00">+ startTime()</text>
<text text-anchor="start" x="463" y="-7.5" font-family="Helvetica,sans-Serif" font-size="10.00">+ endTime()</text>
</a>
</g>
</g>
<!-- Node1&#45;&gt;Node7 -->
<g id="edge6" class="edge"><title>Node1&#45;&gt;Node7</title>
<path fill="none" stroke="midnightblue" d="M355.385,-129.665C382.763,-117.003 417.69,-99.364 446.5,-80 449.331,-78.0969 452.181,-76.0363 454.996,-73.8906"/>
<polygon fill="none" stroke="midnightblue" points="353.682,-126.595 346.038,-133.931 356.589,-132.963 353.682,-126.595"/>
</g>
<!-- Node8 -->
<g id="node8" class="node"><title>Node8</title>
<g id="a_node8"><a xlink:href="classtomoBay_1_1helpers_1_1checkTime_1_1Wednesday.html" target="_top" xlink:title="This class encapsulates a friday, in terms of the start of business hours and the end of business hou...">
<polygon fill="white" stroke="black" points="546,-0.5 546,-79.5 629,-79.5 629,-0.5 546,-0.5"/>
<text text-anchor="middle" x="587.5" y="-67.5" font-family="Helvetica,sans-Serif" font-size="10.00">Wednesday</text>
<polyline fill="none" stroke="black" points="546,-60.5 629,-60.5 "/>
<text text-anchor="middle" x="587.5" y="-48.5" font-family="Helvetica,sans-Serif" font-size="10.00"> </text>
<polyline fill="none" stroke="black" points="546,-41.5 629,-41.5 "/>
<text text-anchor="start" x="554" y="-29.5" font-family="Helvetica,sans-Serif" font-size="10.00">+ Wednesday()</text>
<text text-anchor="start" x="554" y="-18.5" font-family="Helvetica,sans-Serif" font-size="10.00">+ startTime()</text>
<text text-anchor="start" x="554" y="-7.5" font-family="Helvetica,sans-Serif" font-size="10.00">+ endTime()</text>
</a>
</g>
</g>
<!-- Node1&#45;&gt;Node8 -->
<g id="edge7" class="edge"><title>Node1&#45;&gt;Node8</title>
<path fill="none" stroke="midnightblue" d="M356.224,-140.524C403.713,-130.215 478.486,-110.66 537.5,-80 540.333,-78.5281 543.166,-76.8893 545.962,-75.1401"/>
<polygon fill="none" stroke="midnightblue" points="355.284,-137.146 346.229,-142.645 356.737,-143.993 355.284,-137.146"/>
</g>
</g>
</svg>
        <g id="navigator" transform="translate(0 0)" fill="#404254">
                <rect fill="#f2f5e9" fill-opacity="0.5" stroke="#606060" stroke-width=".5" x="0" y="0" width="60" height="60"/>
                <use id="zoomplus" xlink:href="#zoomPlus" x="17" y="9" onmousedown="handleZoom(evt,'in')"/>
                <use id="zoomminus" xlink:href="#zoomMin" x="42" y="9" onmousedown="handleZoom(evt,'out')"/>
                <use id="reset" xlink:href="#resetDef" x="30" y="36" onmousedown="handleReset()"/>
                <g id="arrowUp" xlink:href="#dirArrow" transform="translate(30 24)" onmousedown="handlePan(0,-1)">
                  <use xlink:href="#rim" fill="#404040">
                        <set attributeName="fill" to="#808080" begin="arrowUp.mouseover" end="arrowUp.mouseout"/>
                  </use>
                  <path fill="none" stroke="white" stroke-width="1.5" d="M0,-3.0v7 M-2.5,-0.5L0,-3.0L2.5,-0.5"/>
                </g>
                <g id="arrowRight" xlink:href="#dirArrow" transform="rotate(90) translate(36 -43)" onmousedown="handlePan(1,0)">
                  <use xlink:href="#rim" fill="#404040">
                        <set attributeName="fill" to="#808080" begin="arrowRight.mouseover" end="arrowRight.mouseout"/>
                  </use>
                  <path fill="none" stroke="white" stroke-width="1.5" d="M0,-3.0v7 M-2.5,-0.5L0,-3.0L2.5,-0.5"/>
                </g>
                <g id="arrowDown" xlink:href="#dirArrow" transform="rotate(180) translate(-30 -48)" onmousedown="handlePan(0,1)">
                  <use xlink:href="#rim" fill="#404040">
                        <set attributeName="fill" to="#808080" begin="arrowDown.mouseover" end="arrowDown.mouseout"/>
                  </use>
                  <path fill="none" stroke="white" stroke-width="1.5" d="M0,-3.0v7 M-2.5,-0.5L0,-3.0L2.5,-0.5"/>
                </g>
                <g id="arrowLeft" xlink:href="#dirArrow" transform="rotate(270) translate(-36 17)" onmousedown="handlePan(-1,0)">
                  <use xlink:href="#rim" fill="#404040">
                        <set attributeName="fill" to="#808080" begin="arrowLeft.mouseover" end="arrowLeft.mouseout"/>
                  </use>
                  <path fill="none" stroke="white" stroke-width="1.5" d="M0,-3.0v7 M-2.5,-0.5L0,-3.0L2.5,-0.5"/>
                </g>
        </g>
        <svg viewBox="0 0 15 15" width="100%" height="30px" preserveAspectRatio="xMaxYMin meet">
         <g id="arrow_out" transform="scale(0.3 0.3)">
          <a xlink:href="interfacetomoBay_1_1helpers_1_1checkTime_1_1Day__inherit__graph_org.svg" target="_base">
           <rect id="button" ry="5" rx="5" y="6" x="6" height="38" width="38"
                fill="#f2f5e9" fill-opacity="0.5" stroke="#606060" stroke-width="1.0"/>
           <path id="arrow"
             d="M 11.500037,31.436501 C 11.940474,20.09759 22.043105,11.32322 32.158766,21.979434 L 37.068811,17.246167 C 37.068811,17.246167 37.088388,32 37.088388,32 L 22.160133,31.978069 C 22.160133,31.978069 26.997745,27.140456 26.997745,27.140456 C 18.528582,18.264221 13.291696,25.230495 11.500037,31.436501 z"
             style="fill:#404040;"/>
          </a>
         </g>
        </svg>
</svg>
