<?xml version="1.0" encoding="UTF-8" standalone="no"?>
<!DOCTYPE svg PUBLIC "-//W3C//DTD SVG 1.1//EN"
 "http://www.w3.org/Graphics/SVG/1.1/DTD/svg11.dtd">
<!-- Generated by graphviz version 2.38.0 (20140413.2041)
 -->
<!-- Title: AbstractSelectParamsQueryFactory Pages: 1 -->
<!--zoomable 298 -->
<svg id="main" version="1.1" xmlns="http://www.w3.org/2000/svg" xmlns:xlink="http://www.w3.org/1999/xlink" xml:space="preserve" onload="init(evt)">
<style type="text/css"><![CDATA[
.edge:hover path { stroke: red; }
.edge:hover polygon { stroke: red; fill: red; }
]]></style>
<script type="text/javascript"><![CDATA[
var edges = document.getElementsByTagName('g');
if (edges && edges.length) {
  for (var i=0;i<edges.length;i++) {
    if (edges[i].id.substr(0,4)=='edge') {
      edges[i].setAttribute('class','edge');
    }
  }
}
]]></script>
        <defs>
                <circle id="rim" cx="0" cy="0" r="7"/>
                <circle id="rim2" cx="0" cy="0" r="3.5"/>
                <g id="zoomPlus">
                        <use xlink:href="#rim" fill="#404040">
                                <set attributeName="fill" to="#808080" begin="zoomplus.mouseover" end="zoomplus.mouseout"/>
                        </use>
                        <path d="M-4,0h8M0,-4v8" fill="none" stroke="white" stroke-width="1.5" pointer-events="none"/>
                </g>
                <g id="zoomMin">
                        <use xlink:href="#rim" fill="#404040">
                                <set attributeName="fill" to="#808080" begin="zoomminus.mouseover" end="zoomminus.mouseout"/>
                        </use>
                        <path d="M-4,0h8" fill="none" stroke="white" stroke-width="1.5" pointer-events="none"/>
                </g>
                <g id="dirArrow">
                        <path fill="none" stroke="white" stroke-width="1.5" d="M0,-3.0v7 M-2.5,-0.5L0,-3.0L2.5,-0.5"/>
                </g>
               <g id="resetDef">
                       <use xlink:href="#rim2" fill="#404040">
                               <set attributeName="fill" to="#808080" begin="reset.mouseover" end="reset.mouseout"/>
                       </use>
               </g>
        </defs>

<script type="text/javascript">
var viewWidth = 1924;
var viewHeight = 298;
var sectionId = 'dynsection-0';
</script>
<script xlink:href="svgpan.js"/>
<svg id="graph" class="graph">
<g id="viewport">
<title>AbstractSelectParamsQueryFactory</title>
<polygon fill="white" stroke="none" points="-4,4 -4,-294 1920,-294 1920,4 -4,4"/>
<!-- Node1 -->
<g id="node1" class="node"><title>Node1</title>
<polygon fill="#bfbfbf" stroke="black" points="898.5,-127.5 898.5,-195.5 1039.5,-195.5 1039.5,-127.5 898.5,-127.5"/>
<text text-anchor="start" x="906.5" y="-183.5" font-family="Helvetica,sans-Serif" font-size="10.00">AbstractSelectParamsQuery</text>
<text text-anchor="middle" x="969" y="-172.5" font-family="Helvetica,sans-Serif" font-size="10.00">Factory</text>
<polyline fill="none" stroke="black" points="898.5,-165.5 1039.5,-165.5 "/>
<text text-anchor="middle" x="969" y="-153.5" font-family="Helvetica,sans-Serif" font-size="10.00"> </text>
<polyline fill="none" stroke="black" points="898.5,-146.5 1039.5,-146.5 "/>
<text text-anchor="start" x="906.5" y="-134.5" font-family="Helvetica,sans-Serif" font-size="10.00">+ make()</text>
</g>
<!-- Node3 -->
<g id="node3" class="node"><title>Node3</title>
<g id="a_node3"><a xlink:href="classtomoBay_1_1model_1_1sql_1_1queries_1_1factories_1_1select_1_1params_1_1SelectBrandAndPartNoByOrderIDFactory.html" target="_top" xlink:title="{SelectBrandAndPartNoByOrder\lIDFactory\n||+ make()\l}">
<polygon fill="white" stroke="black" points="0,-11.5 0,-79.5 154,-79.5 154,-11.5 0,-11.5"/>
<text text-anchor="start" x="8" y="-67.5" font-family="Helvetica,sans-Serif" font-size="10.00">SelectBrandAndPartNoByOrder</text>
<text text-anchor="middle" x="77" y="-56.5" font-family="Helvetica,sans-Serif" font-size="10.00">IDFactory</text>
<polyline fill="none" stroke="black" points="0,-49.5 154,-49.5 "/>
<text text-anchor="middle" x="77" y="-37.5" font-family="Helvetica,sans-Serif" font-size="10.00"> </text>
<polyline fill="none" stroke="black" points="0,-30.5 154,-30.5 "/>
<text text-anchor="start" x="8" y="-18.5" font-family="Helvetica,sans-Serif" font-size="10.00">+ make()</text>
</a>
</g>
</g>
<!-- Node1&#45;&gt;Node3 -->
<g id="edge2" class="edge"><title>Node1&#45;&gt;Node3</title>
<path fill="none" stroke="midnightblue" d="M888.22,-157.531C711.898,-150.403 297.576,-129.954 163,-91 153.15,-88.1487 143.111,-84.1296 133.532,-79.6612"/>
<polygon fill="none" stroke="midnightblue" points="888.084,-161.028 898.216,-157.931 888.364,-154.034 888.084,-161.028"/>
</g>
<!-- Node4 -->
<g id="node4" class="node"><title>Node4</title>
<g id="a_node4"><a xlink:href="classtomoBay_1_1model_1_1sql_1_1queries_1_1factories_1_1select_1_1params_1_1SelectBrandByInvNoFactory.html" target="_top" xlink:title="{SelectBrandByInvNoFactory\n||+ SelectBrandByInvNoFactory()\l+ make()\l}">
<polygon fill="white" stroke="black" points="172,-11.5 172,-79.5 328,-79.5 328,-11.5 172,-11.5"/>
<text text-anchor="middle" x="250" y="-67.5" font-family="Helvetica,sans-Serif" font-size="10.00">SelectBrandByInvNoFactory</text>
<polyline fill="none" stroke="black" points="172,-60.5 328,-60.5 "/>
<text text-anchor="middle" x="250" y="-48.5" font-family="Helvetica,sans-Serif" font-size="10.00"> </text>
<polyline fill="none" stroke="black" points="172,-41.5 328,-41.5 "/>
<text text-anchor="start" x="180" y="-29.5" font-family="Helvetica,sans-Serif" font-size="10.00">+ SelectBrandByInvNoFactory()</text>
<text text-anchor="start" x="180" y="-18.5" font-family="Helvetica,sans-Serif" font-size="10.00">+ make()</text>
</a>
</g>
</g>
<!-- Node1&#45;&gt;Node4 -->
<g id="edge3" class="edge"><title>Node1&#45;&gt;Node4</title>
<path fill="none" stroke="midnightblue" d="M888.139,-160.878C766.12,-159.397 528.809,-148.481 337,-91 327.249,-88.0779 317.29,-84.081 307.756,-79.6738"/>
<polygon fill="none" stroke="midnightblue" points="888.117,-164.378 898.153,-160.981 888.19,-157.378 888.117,-164.378"/>
</g>
<!-- Node5 -->
<g id="node5" class="node"><title>Node5</title>
<g id="a_node5"><a xlink:href="classtomoBay_1_1model_1_1sql_1_1queries_1_1factories_1_1select_1_1params_1_1SelectBuyerByAccAndSRNFactory.html" target="_top" xlink:title="{SelectBuyerByAccAndSRNFactory\n||+ SelectBuyerByAccAndSRNFactory()\l+ make()\l}">
<polygon fill="white" stroke="black" points="346,-11.5 346,-79.5 532,-79.5 532,-11.5 346,-11.5"/>
<text text-anchor="middle" x="439" y="-67.5" font-family="Helvetica,sans-Serif" font-size="10.00">SelectBuyerByAccAndSRNFactory</text>
<polyline fill="none" stroke="black" points="346,-60.5 532,-60.5 "/>
<text text-anchor="middle" x="439" y="-48.5" font-family="Helvetica,sans-Serif" font-size="10.00"> </text>
<polyline fill="none" stroke="black" points="346,-41.5 532,-41.5 "/>
<text text-anchor="start" x="354" y="-29.5" font-family="Helvetica,sans-Serif" font-size="10.00">+ SelectBuyerByAccAndSRNFactory()</text>
<text text-anchor="start" x="354" y="-18.5" font-family="Helvetica,sans-Serif" font-size="10.00">+ make()</text>
</a>
</g>
</g>
<!-- Node1&#45;&gt;Node5 -->
<g id="edge4" class="edge"><title>Node1&#45;&gt;Node5</title>
<path fill="none" stroke="midnightblue" d="M888.203,-153.594C800.933,-144.714 658.479,-126.073 540,-91 529.344,-87.8454 518.331,-83.8361 507.672,-79.5212"/>
<polygon fill="none" stroke="midnightblue" points="888.006,-157.092 898.304,-154.603 888.702,-150.126 888.006,-157.092"/>
</g>
<!-- Node6 -->
<g id="node6" class="node"><title>Node6</title>
<g id="a_node6"><a xlink:href="classtomoBay_1_1model_1_1sql_1_1queries_1_1factories_1_1select_1_1params_1_1SelectEbayBuyerFactory.html" target="_top" xlink:title="{SelectEbayBuyerFactory\n||+ make()\l}">
<polygon fill="white" stroke="black" points="549.5,-17 549.5,-74 674.5,-74 674.5,-17 549.5,-17"/>
<text text-anchor="middle" x="612" y="-62" font-family="Helvetica,sans-Serif" font-size="10.00">SelectEbayBuyerFactory</text>
<polyline fill="none" stroke="black" points="549.5,-55 674.5,-55 "/>
<text text-anchor="middle" x="612" y="-43" font-family="Helvetica,sans-Serif" font-size="10.00"> </text>
<polyline fill="none" stroke="black" points="549.5,-36 674.5,-36 "/>
<text text-anchor="start" x="557.5" y="-24" font-family="Helvetica,sans-Serif" font-size="10.00">+ make()</text>
</a>
</g>
</g>
<!-- Node1&#45;&gt;Node6 -->
<g id="edge5" class="edge"><title>Node1&#45;&gt;Node6</title>
<path fill="none" stroke="midnightblue" d="M888.346,-147.831C830.071,-137.016 750.283,-118.743 684,-91 673.02,-86.4044 661.78,-80.262 651.544,-74.0116"/>
<polygon fill="none" stroke="midnightblue" points="887.771,-151.283 898.237,-149.633 889.026,-144.397 887.771,-151.283"/>
</g>
<!-- Node7 -->
<g id="node7" class="node"><title>Node7</title>
<g id="a_node7"><a xlink:href="classtomoBay_1_1model_1_1sql_1_1queries_1_1factories_1_1select_1_1params_1_1SelectEbayItemSpecificFactory.html" target="_top" xlink:title="creates a SelectEbayItemSpecific query object ">
<polygon fill="white" stroke="black" points="693,-11.5 693,-79.5 863,-79.5 863,-11.5 693,-11.5"/>
<text text-anchor="middle" x="778" y="-67.5" font-family="Helvetica,sans-Serif" font-size="10.00">SelectEbayItemSpecificFactory</text>
<polyline fill="none" stroke="black" points="693,-60.5 863,-60.5 "/>
<text text-anchor="middle" x="778" y="-48.5" font-family="Helvetica,sans-Serif" font-size="10.00"> </text>
<polyline fill="none" stroke="black" points="693,-41.5 863,-41.5 "/>
<text text-anchor="start" x="701" y="-29.5" font-family="Helvetica,sans-Serif" font-size="10.00">+ SelectEbayItemSpecificFactory()</text>
<text text-anchor="start" x="701" y="-18.5" font-family="Helvetica,sans-Serif" font-size="10.00">+ make()</text>
</a>
</g>
</g>
<!-- Node1&#45;&gt;Node7 -->
<g id="edge6" class="edge"><title>Node1&#45;&gt;Node7</title>
<path fill="none" stroke="midnightblue" d="M904.765,-122.161C881.59,-108.329 855.655,-92.8489 833.31,-79.5121"/>
<polygon fill="none" stroke="midnightblue" points="903.118,-125.254 913.498,-127.373 906.705,-119.243 903.118,-125.254"/>
</g>
<!-- Node8 -->
<g id="node8" class="node"><title>Node8</title>
<g id="a_node8"><a xlink:href="classtomoBay_1_1model_1_1sql_1_1queries_1_1factories_1_1select_1_1params_1_1SelectEbayOrderByBuyerFactory.html" target="_top" xlink:title="{SelectEbayOrderByBuyerFactory\n||+ SelectEbayOrderByBuyerFactory()\l+ make()\l}">
<polygon fill="white" stroke="black" points="881,-11.5 881,-79.5 1057,-79.5 1057,-11.5 881,-11.5"/>
<text text-anchor="middle" x="969" y="-67.5" font-family="Helvetica,sans-Serif" font-size="10.00">SelectEbayOrderByBuyerFactory</text>
<polyline fill="none" stroke="black" points="881,-60.5 1057,-60.5 "/>
<text text-anchor="middle" x="969" y="-48.5" font-family="Helvetica,sans-Serif" font-size="10.00"> </text>
<polyline fill="none" stroke="black" points="881,-41.5 1057,-41.5 "/>
<text text-anchor="start" x="889" y="-29.5" font-family="Helvetica,sans-Serif" font-size="10.00">+ SelectEbayOrderByBuyerFactory()</text>
<text text-anchor="start" x="889" y="-18.5" font-family="Helvetica,sans-Serif" font-size="10.00">+ make()</text>
</a>
</g>
</g>
<!-- Node1&#45;&gt;Node8 -->
<g id="edge7" class="edge"><title>Node1&#45;&gt;Node8</title>
<path fill="none" stroke="midnightblue" d="M969,-117.06C969,-104.644 969,-91.3162 969,-79.6243"/>
<polygon fill="none" stroke="midnightblue" points="965.5,-117.22 969,-127.22 972.5,-117.22 965.5,-117.22"/>
</g>
<!-- Node9 -->
<g id="node9" class="node"><title>Node9</title>
<g id="a_node9"><a xlink:href="classtomoBay_1_1model_1_1sql_1_1queries_1_1factories_1_1select_1_1params_1_1SelectEbayOrderByIDFactory.html" target="_top" xlink:title="{SelectEbayOrderByIDFactory\n||+ make()\l}">
<polygon fill="white" stroke="black" points="1075,-17 1075,-74 1221,-74 1221,-17 1075,-17"/>
<text text-anchor="middle" x="1148" y="-62" font-family="Helvetica,sans-Serif" font-size="10.00">SelectEbayOrderByIDFactory</text>
<polyline fill="none" stroke="black" points="1075,-55 1221,-55 "/>
<text text-anchor="middle" x="1148" y="-43" font-family="Helvetica,sans-Serif" font-size="10.00"> </text>
<polyline fill="none" stroke="black" points="1075,-36 1221,-36 "/>
<text text-anchor="start" x="1083" y="-24" font-family="Helvetica,sans-Serif" font-size="10.00">+ make()</text>
</a>
</g>
</g>
<!-- Node1&#45;&gt;Node9 -->
<g id="edge8" class="edge"><title>Node1&#45;&gt;Node9</title>
<path fill="none" stroke="midnightblue" d="M1029.81,-121.772C1054.42,-106.101 1082.26,-88.3701 1104.73,-74.0548"/>
<polygon fill="none" stroke="midnightblue" points="1027.81,-118.896 1021.26,-127.22 1031.57,-124.8 1027.81,-118.896"/>
</g>
<!-- Node10 -->
<g id="node10" class="node"><title>Node10</title>
<g id="a_node10"><a xlink:href="classtomoBay_1_1model_1_1sql_1_1queries_1_1factories_1_1select_1_1params_1_1SelectEbayTransactionByIDFactory.html" target="_top" xlink:title="{SelectEbayTransactionByIDFactory\n||+ make()\l}">
<polygon fill="white" stroke="black" points="1239.5,-17 1239.5,-74 1412.5,-74 1412.5,-17 1239.5,-17"/>
<text text-anchor="middle" x="1326" y="-62" font-family="Helvetica,sans-Serif" font-size="10.00">SelectEbayTransactionByIDFactory</text>
<polyline fill="none" stroke="black" points="1239.5,-55 1412.5,-55 "/>
<text text-anchor="middle" x="1326" y="-43" font-family="Helvetica,sans-Serif" font-size="10.00"> </text>
<polyline fill="none" stroke="black" points="1239.5,-36 1412.5,-36 "/>
<text text-anchor="start" x="1247.5" y="-24" font-family="Helvetica,sans-Serif" font-size="10.00">+ make()</text>
</a>
</g>
</g>
<!-- Node1&#45;&gt;Node10 -->
<g id="edge9" class="edge"><title>Node1&#45;&gt;Node10</title>
<path fill="none" stroke="midnightblue" d="M1049.4,-142.916C1101.58,-130.573 1170.66,-112.47 1230,-91 1243.47,-86.1251 1257.65,-80.0897 1270.85,-74.0535"/>
<polygon fill="none" stroke="midnightblue" points="1048.47,-139.54 1039.53,-145.23 1050.07,-146.355 1048.47,-139.54"/>
</g>
<!-- Node11 -->
<g id="node11" class="node"><title>Node11</title>
<g id="a_node11"><a xlink:href="classtomoBay_1_1model_1_1sql_1_1queries_1_1factories_1_1select_1_1params_1_1SelectFullOrderLineFactory.html" target="_top" xlink:title="{SelectFullOrderLineFactory\n||+ SelectFullOrderLineFactory()\l+ make()\l}">
<polygon fill="white" stroke="black" points="1431,-11.5 1431,-79.5 1581,-79.5 1581,-11.5 1431,-11.5"/>
<text text-anchor="middle" x="1506" y="-67.5" font-family="Helvetica,sans-Serif" font-size="10.00">SelectFullOrderLineFactory</text>
<polyline fill="none" stroke="black" points="1431,-60.5 1581,-60.5 "/>
<text text-anchor="middle" x="1506" y="-48.5" font-family="Helvetica,sans-Serif" font-size="10.00"> </text>
<polyline fill="none" stroke="black" points="1431,-41.5 1581,-41.5 "/>
<text text-anchor="start" x="1439" y="-29.5" font-family="Helvetica,sans-Serif" font-size="10.00">+ SelectFullOrderLineFactory()</text>
<text text-anchor="start" x="1439" y="-18.5" font-family="Helvetica,sans-Serif" font-size="10.00">+ make()</text>
</a>
</g>
</g>
<!-- Node1&#45;&gt;Node11 -->
<g id="edge10" class="edge"><title>Node1&#45;&gt;Node11</title>
<path fill="none" stroke="midnightblue" d="M1049.86,-156.252C1141.98,-149.562 1296.05,-132.698 1422,-91 1431.24,-87.9398 1440.69,-83.9265 1449.75,-79.562"/>
<polygon fill="none" stroke="midnightblue" points="1049.5,-152.769 1039.77,-156.963 1049.99,-159.752 1049.5,-152.769"/>
</g>
<!-- Node12 -->
<g id="node12" class="node"><title>Node12</title>
<g id="a_node12"><a xlink:href="classtomoBay_1_1model_1_1sql_1_1queries_1_1factories_1_1select_1_1params_1_1SelectOutOfHoursOrdersFactory.html" target="_top" xlink:title="{SelectOutOfHoursOrdersFactory\n||+ make()\l}">
<polygon fill="white" stroke="black" points="1598.5,-17 1598.5,-74 1757.5,-74 1757.5,-17 1598.5,-17"/>
<text text-anchor="middle" x="1678" y="-62" font-family="Helvetica,sans-Serif" font-size="10.00">SelectOutOfHoursOrdersFactory</text>
<polyline fill="none" stroke="black" points="1598.5,-55 1757.5,-55 "/>
<text text-anchor="middle" x="1678" y="-43" font-family="Helvetica,sans-Serif" font-size="10.00"> </text>
<polyline fill="none" stroke="black" points="1598.5,-36 1757.5,-36 "/>
<text text-anchor="start" x="1606.5" y="-24" font-family="Helvetica,sans-Serif" font-size="10.00">+ make()</text>
</a>
</g>
</g>
<!-- Node1&#45;&gt;Node12 -->
<g id="edge11" class="edge"><title>Node1&#45;&gt;Node12</title>
<path fill="none" stroke="midnightblue" d="M1049.75,-160.54C1170,-158.588 1402.11,-147.032 1590,-91 1603.78,-86.8903 1617.99,-80.6864 1630.87,-74.2052"/>
<polygon fill="none" stroke="midnightblue" points="1049.48,-157.044 1039.53,-160.687 1049.58,-164.043 1049.48,-157.044"/>
</g>
<!-- Node13 -->
<g id="node13" class="node"><title>Node13</title>
<g id="a_node13"><a xlink:href="classtomoBay_1_1model_1_1sql_1_1queries_1_1factories_1_1select_1_1params_1_1SelectTransactionByOrderIDFactory.html" target="_top" xlink:title="creates a SelectTransactionByOrder query object ">
<polygon fill="white" stroke="black" points="1776,-0.5 1776,-90.5 1916,-90.5 1916,-0.5 1776,-0.5"/>
<text text-anchor="start" x="1784" y="-78.5" font-family="Helvetica,sans-Serif" font-size="10.00">SelectTransactionByOrder</text>
<text text-anchor="middle" x="1846" y="-67.5" font-family="Helvetica,sans-Serif" font-size="10.00">IDFactory</text>
<polyline fill="none" stroke="black" points="1776,-60.5 1916,-60.5 "/>
<text text-anchor="middle" x="1846" y="-48.5" font-family="Helvetica,sans-Serif" font-size="10.00"> </text>
<polyline fill="none" stroke="black" points="1776,-41.5 1916,-41.5 "/>
<text text-anchor="start" x="1784" y="-29.5" font-family="Helvetica,sans-Serif" font-size="10.00">+ SelectTransactionByOrder</text>
<text text-anchor="start" x="1784" y="-18.5" font-family="Helvetica,sans-Serif" font-size="10.00">IDFactory()</text>
<text text-anchor="start" x="1784" y="-7.5" font-family="Helvetica,sans-Serif" font-size="10.00">+ make()</text>
</a>
</g>
</g>
<!-- Node1&#45;&gt;Node13 -->
<g id="edge12" class="edge"><title>Node1&#45;&gt;Node13</title>
<path fill="none" stroke="midnightblue" d="M1049.99,-157.794C1225.28,-151.232 1634.7,-131.915 1767,-91 1769.86,-90.1163 1772.73,-89.1187 1775.59,-88.0289"/>
<polygon fill="none" stroke="midnightblue" points="1049.66,-154.303 1039.8,-158.171 1049.92,-161.299 1049.66,-154.303"/>
</g>
<!-- Node2 -->
<g id="node2" class="node"><title>Node2</title>
<g id="a_node2"><a xlink:href="interfacetomoBay_1_1model_1_1sql_1_1framework_1_1queryFactories_1_1AbstractQueryFactory.html" target="_top" xlink:title="all Queries are instantiated using a factory and each of these factories must conform to this interfa...">
<polygon fill="white" stroke="black" points="912.5,-232.5 912.5,-289.5 1025.5,-289.5 1025.5,-232.5 912.5,-232.5"/>
<text text-anchor="middle" x="969" y="-277.5" font-family="Helvetica,sans-Serif" font-size="10.00">AbstractQueryFactory</text>
<polyline fill="none" stroke="black" points="912.5,-270.5 1025.5,-270.5 "/>
<text text-anchor="middle" x="969" y="-258.5" font-family="Helvetica,sans-Serif" font-size="10.00"> </text>
<polyline fill="none" stroke="black" points="912.5,-251.5 1025.5,-251.5 "/>
<text text-anchor="start" x="920.5" y="-239.5" font-family="Helvetica,sans-Serif" font-size="10.00">+ make()</text>
</a>
</g>
</g>
<!-- Node2&#45;&gt;Node1 -->
<g id="edge1" class="edge"><title>Node2&#45;&gt;Node1</title>
<path fill="none" stroke="midnightblue" d="M969,-222.063C969,-213.393 969,-204.243 969,-195.786"/>
<polygon fill="none" stroke="midnightblue" points="965.5,-222.321 969,-232.321 972.5,-222.321 965.5,-222.321"/>
</g>
</g>
</svg>
        <g id="navigator" transform="translate(0 0)" fill="#404254">
                <rect fill="#f2f5e9" fill-opacity="0.5" stroke="#606060" stroke-width=".5" x="0" y="0" width="60" height="60"/>
                <use id="zoomplus" xlink:href="#zoomPlus" x="17" y="9" onmousedown="handleZoom(evt,'in')"/>
                <use id="zoomminus" xlink:href="#zoomMin" x="42" y="9" onmousedown="handleZoom(evt,'out')"/>
                <use id="reset" xlink:href="#resetDef" x="30" y="36" onmousedown="handleReset()"/>
                <g id="arrowUp" xlink:href="#dirArrow" transform="translate(30 24)" onmousedown="handlePan(0,-1)">
                  <use xlink:href="#rim" fill="#404040">
                        <set attributeName="fill" to="#808080" begin="arrowUp.mouseover" end="arrowUp.mouseout"/>
                  </use>
                  <path fill="none" stroke="white" stroke-width="1.5" d="M0,-3.0v7 M-2.5,-0.5L0,-3.0L2.5,-0.5"/>
                </g>
                <g id="arrowRight" xlink:href="#dirArrow" transform="rotate(90) translate(36 -43)" onmousedown="handlePan(1,0)">
                  <use xlink:href="#rim" fill="#404040">
                        <set attributeName="fill" to="#808080" begin="arrowRight.mouseover" end="arrowRight.mouseout"/>
                  </use>
                  <path fill="none" stroke="white" stroke-width="1.5" d="M0,-3.0v7 M-2.5,-0.5L0,-3.0L2.5,-0.5"/>
                </g>
                <g id="arrowDown" xlink:href="#dirArrow" transform="rotate(180) translate(-30 -48)" onmousedown="handlePan(0,1)">
                  <use xlink:href="#rim" fill="#404040">
                        <set attributeName="fill" to="#808080" begin="arrowDown.mouseover" end="arrowDown.mouseout"/>
                  </use>
                  <path fill="none" stroke="white" stroke-width="1.5" d="M0,-3.0v7 M-2.5,-0.5L0,-3.0L2.5,-0.5"/>
                </g>
                <g id="arrowLeft" xlink:href="#dirArrow" transform="rotate(270) translate(-36 17)" onmousedown="handlePan(-1,0)">
                  <use xlink:href="#rim" fill="#404040">
                        <set attributeName="fill" to="#808080" begin="arrowLeft.mouseover" end="arrowLeft.mouseout"/>
                  </use>
                  <path fill="none" stroke="white" stroke-width="1.5" d="M0,-3.0v7 M-2.5,-0.5L0,-3.0L2.5,-0.5"/>
                </g>
        </g>
        <svg viewBox="0 0 15 15" width="100%" height="30px" preserveAspectRatio="xMaxYMin meet">
         <g id="arrow_out" transform="scale(0.3 0.3)">
          <a xlink:href="interfacetomoBay_1_1model_1_1sql_1_1framework_1_1queryFactories_1_1AbstractSelectParamsQueryFactory__inherit__graph_org.svg" target="_base">
           <rect id="button" ry="5" rx="5" y="6" x="6" height="38" width="38"
                fill="#f2f5e9" fill-opacity="0.5" stroke="#606060" stroke-width="1.0"/>
           <path id="arrow"
             d="M 11.500037,31.436501 C 11.940474,20.09759 22.043105,11.32322 32.158766,21.979434 L 37.068811,17.246167 C 37.068811,17.246167 37.088388,32 37.088388,32 L 22.160133,31.978069 C 22.160133,31.978069 26.997745,27.140456 26.997745,27.140456 C 18.528582,18.264221 13.291696,25.230495 11.500037,31.436501 z"
             style="fill:#404040;"/>
          </a>
         </g>
        </svg>
</svg>
