<?xml version="1.0" encoding="UTF-8" standalone="no"?>
<!DOCTYPE svg PUBLIC "-//W3C//DTD SVG 1.1//EN"
 "http://www.w3.org/Graphics/SVG/1.1/DTD/svg11.dtd">
<!-- Generated by graphviz version 2.38.0 (20140413.2041)
 -->
<!-- Title: AbstractPresenterAction Pages: 1 -->
<svg width="1630pt" height="292pt"
 viewBox="0.00 0.00 1630.00 292.00" xmlns="http://www.w3.org/2000/svg" xmlns:xlink="http://www.w3.org/1999/xlink">
<g id="graph0" class="graph" transform="scale(1 1) rotate(0) translate(4 288)">
<title>AbstractPresenterAction</title>
<polygon fill="white" stroke="none" points="-4,4 -4,-288 1626,-288 1626,4 -4,4"/>
<!-- Node1 -->
<g id="node1" class="node"><title>Node1</title>
<polygon fill="#bfbfbf" stroke="black" points="759.5,-226.5 759.5,-283.5 882.5,-283.5 882.5,-226.5 759.5,-226.5"/>
<text text-anchor="middle" x="821" y="-271.5" font-family="Helvetica,sans-Serif" font-size="10.00">AbstractPresenterAction</text>
<polyline fill="none" stroke="black" points="759.5,-264.5 882.5,-264.5 "/>
<text text-anchor="middle" x="821" y="-252.5" font-family="Helvetica,sans-Serif" font-size="10.00"> </text>
<polyline fill="none" stroke="black" points="759.5,-245.5 882.5,-245.5 "/>
<text text-anchor="start" x="767.5" y="-233.5" font-family="Helvetica,sans-Serif" font-size="10.00">+ execute()</text>
</g>
<!-- Node2 -->
<g id="node2" class="node"><title>Node2</title>
<g id="a_node2"><a xlink:href="classtomoBay_1_1presenters_1_1presenterActions_1_1concreteActions_1_1BuyerDetails.html" target="_top" xlink:title="{BuyerDetails\n||+ BuyerDetails()\l+ execute()\l&#45; getRawData()\l}">
<polygon fill="white" stroke="black" points="0,-55.5 0,-134.5 88,-134.5 88,-55.5 0,-55.5"/>
<text text-anchor="middle" x="44" y="-122.5" font-family="Helvetica,sans-Serif" font-size="10.00">BuyerDetails</text>
<polyline fill="none" stroke="black" points="0,-115.5 88,-115.5 "/>
<text text-anchor="middle" x="44" y="-103.5" font-family="Helvetica,sans-Serif" font-size="10.00"> </text>
<polyline fill="none" stroke="black" points="0,-96.5 88,-96.5 "/>
<text text-anchor="start" x="8" y="-84.5" font-family="Helvetica,sans-Serif" font-size="10.00">+ BuyerDetails()</text>
<text text-anchor="start" x="8" y="-73.5" font-family="Helvetica,sans-Serif" font-size="10.00">+ execute()</text>
<text text-anchor="start" x="8" y="-62.5" font-family="Helvetica,sans-Serif" font-size="10.00">&#45; getRawData()</text>
</a>
</g>
</g>
<!-- Node1&#45;&gt;Node2 -->
<g id="edge1" class="edge"><title>Node1&#45;&gt;Node2</title>
<path fill="none" stroke="midnightblue" d="M749.179,-251.428C577.005,-244.73 150.975,-224.808 97,-190 77.3193,-177.308 64.2218,-154.599 55.9709,-134.681"/>
<polygon fill="none" stroke="midnightblue" points="749.28,-254.934 759.408,-251.822 749.55,-247.939 749.28,-254.934"/>
</g>
<!-- Node3 -->
<g id="node3" class="node"><title>Node3</title>
<g id="a_node3"><a xlink:href="classtomoBay_1_1presenters_1_1presenterActions_1_1concreteActions_1_1BuyerList.html" target="_top" xlink:title="{BuyerList\n||+ BuyerList()\l+ execute()\l&#45; getRawData()\l&#45; formatResults()\l}">
<polygon fill="white" stroke="black" points="106,-50 106,-140 196,-140 196,-50 106,-50"/>
<text text-anchor="middle" x="151" y="-128" font-family="Helvetica,sans-Serif" font-size="10.00">BuyerList</text>
<polyline fill="none" stroke="black" points="106,-121 196,-121 "/>
<text text-anchor="middle" x="151" y="-109" font-family="Helvetica,sans-Serif" font-size="10.00"> </text>
<polyline fill="none" stroke="black" points="106,-102 196,-102 "/>
<text text-anchor="start" x="114" y="-90" font-family="Helvetica,sans-Serif" font-size="10.00">+ BuyerList()</text>
<text text-anchor="start" x="114" y="-79" font-family="Helvetica,sans-Serif" font-size="10.00">+ execute()</text>
<text text-anchor="start" x="114" y="-68" font-family="Helvetica,sans-Serif" font-size="10.00">&#45; getRawData()</text>
<text text-anchor="start" x="114" y="-57" font-family="Helvetica,sans-Serif" font-size="10.00">&#45; formatResults()</text>
</a>
</g>
</g>
<!-- Node1&#45;&gt;Node3 -->
<g id="edge2" class="edge"><title>Node1&#45;&gt;Node3</title>
<path fill="none" stroke="midnightblue" d="M749.043,-254.565C606.233,-254.408 293.165,-247.316 205,-190 187.169,-178.408 174.559,-158.735 166.033,-140.373"/>
<polygon fill="none" stroke="midnightblue" points="749.439,-258.065 759.439,-254.564 749.438,-251.065 749.439,-258.065"/>
</g>
<!-- Node4 -->
<g id="node4" class="node"><title>Node4</title>
<g id="a_node4"><a xlink:href="classtomoBay_1_1presenters_1_1presenterActions_1_1concreteActions_1_1GenerateRoyalMailCSV.html" target="_top" xlink:title="This class represents a presenter action that will generate a CSV file in a format compatible with th...">
<polygon fill="white" stroke="black" points="214,-0.5 214,-189.5 366,-189.5 366,-0.5 214,-0.5"/>
<text text-anchor="middle" x="290" y="-177.5" font-family="Helvetica,sans-Serif" font-size="10.00">GenerateRoyalMailCSV</text>
<polyline fill="none" stroke="black" points="214,-170.5 366,-170.5 "/>
<text text-anchor="start" x="222" y="-158.5" font-family="Helvetica,sans-Serif" font-size="10.00">&#45; csvGen_M</text>
<text text-anchor="start" x="222" y="-147.5" font-family="Helvetica,sans-Serif" font-size="10.00">&#45; ACCOUNT</text>
<text text-anchor="start" x="222" y="-136.5" font-family="Helvetica,sans-Serif" font-size="10.00">&#45; SALES_REC_NO</text>
<text text-anchor="start" x="222" y="-125.5" font-family="Helvetica,sans-Serif" font-size="10.00">&#45; SERVICE</text>
<text text-anchor="start" x="222" y="-114.5" font-family="Helvetica,sans-Serif" font-size="10.00">&#45; SERVICE_ENHANCEMENT</text>
<text text-anchor="start" x="222" y="-103.5" font-family="Helvetica,sans-Serif" font-size="10.00">&#45; FORMAT</text>
<polyline fill="none" stroke="black" points="214,-96.5 366,-96.5 "/>
<text text-anchor="start" x="222" y="-84.5" font-family="Helvetica,sans-Serif" font-size="10.00">+ GenerateRoyalMailCSV()</text>
<text text-anchor="start" x="222" y="-73.5" font-family="Helvetica,sans-Serif" font-size="10.00">+ execute()</text>
<text text-anchor="start" x="222" y="-62.5" font-family="Helvetica,sans-Serif" font-size="10.00">&#45; processInput()</text>
<text text-anchor="start" x="222" y="-51.5" font-family="Helvetica,sans-Serif" font-size="10.00">&#45; formatInitialData()</text>
<text text-anchor="start" x="222" y="-40.5" font-family="Helvetica,sans-Serif" font-size="10.00">&#45; grabAndProcessDBData()</text>
<text text-anchor="start" x="222" y="-29.5" font-family="Helvetica,sans-Serif" font-size="10.00">&#45; getInvoiceWeight()</text>
<text text-anchor="start" x="222" y="-18.5" font-family="Helvetica,sans-Serif" font-size="10.00">&#45; formatReferenceFields()</text>
<text text-anchor="start" x="222" y="-7.5" font-family="Helvetica,sans-Serif" font-size="10.00">&#45; createCSV()</text>
</a>
</g>
</g>
<!-- Node1&#45;&gt;Node4 -->
<g id="edge3" class="edge"><title>Node1&#45;&gt;Node4</title>
<path fill="none" stroke="midnightblue" d="M748.899,-249.601C639.679,-241.949 438.3,-223.689 375,-190 371.989,-188.398 369.032,-186.645 366.132,-184.766"/>
<polygon fill="none" stroke="midnightblue" points="748.957,-253.113 759.174,-250.308 749.438,-246.13 748.957,-253.113"/>
</g>
<!-- Node5 -->
<g id="node5" class="node"><title>Node5</title>
<g id="a_node5"><a xlink:href="classtomoBay_1_1presenters_1_1presenterActions_1_1concreteActions_1_1InvoiceOrders.html" target="_top" xlink:title="This AbstractPresenterAction provides functionality to invoice a number of orders based on the order ...">
<polygon fill="white" stroke="black" points="384.5,-22.5 384.5,-167.5 493.5,-167.5 493.5,-22.5 384.5,-22.5"/>
<text text-anchor="middle" x="439" y="-155.5" font-family="Helvetica,sans-Serif" font-size="10.00">InvoiceOrders</text>
<polyline fill="none" stroke="black" points="384.5,-148.5 493.5,-148.5 "/>
<text text-anchor="start" x="392.5" y="-136.5" font-family="Helvetica,sans-Serif" font-size="10.00">~ log</text>
<text text-anchor="start" x="392.5" y="-125.5" font-family="Helvetica,sans-Serif" font-size="10.00">&#45; EMAILHEADER</text>
<text text-anchor="start" x="392.5" y="-114.5" font-family="Helvetica,sans-Serif" font-size="10.00">&#45; EMAILFOOTER</text>
<polyline fill="none" stroke="black" points="384.5,-107.5 493.5,-107.5 "/>
<text text-anchor="start" x="392.5" y="-95.5" font-family="Helvetica,sans-Serif" font-size="10.00">+ InvoiceOrders()</text>
<text text-anchor="start" x="392.5" y="-84.5" font-family="Helvetica,sans-Serif" font-size="10.00">+ execute()</text>
<text text-anchor="start" x="392.5" y="-73.5" font-family="Helvetica,sans-Serif" font-size="10.00">&#45; splitOrderNoString()</text>
<text text-anchor="start" x="392.5" y="-62.5" font-family="Helvetica,sans-Serif" font-size="10.00">&#45; updateDB()</text>
<text text-anchor="start" x="392.5" y="-51.5" font-family="Helvetica,sans-Serif" font-size="10.00">&#45; formatAsDualList()</text>
<text text-anchor="start" x="392.5" y="-40.5" font-family="Helvetica,sans-Serif" font-size="10.00">&#45; formatMailResult()</text>
<text text-anchor="start" x="392.5" y="-29.5" font-family="Helvetica,sans-Serif" font-size="10.00">&#45; emailResults()</text>
</a>
</g>
</g>
<!-- Node1&#45;&gt;Node5 -->
<g id="edge4" class="edge"><title>Node1&#45;&gt;Node5</title>
<path fill="none" stroke="midnightblue" d="M749.206,-245.925C668.211,-235.724 542.6,-216.276 503,-190 493.952,-183.996 485.838,-176.234 478.674,-167.745"/>
<polygon fill="none" stroke="midnightblue" points="748.988,-249.425 759.343,-247.183 749.85,-242.478 748.988,-249.425"/>
</g>
<!-- Node6 -->
<g id="node6" class="node"><title>Node6</title>
<g id="a_node6"><a xlink:href="classtomoBay_1_1presenters_1_1presenterActions_1_1concreteActions_1_1LogFileViewer.html" target="_top" xlink:title="{LogFileViewer\n|~ log\l|+ LogFileViewer()\l+ execute()\l&#45; removeLastComma()\l}">
<polygon fill="white" stroke="black" points="512,-55.5 512,-134.5 626,-134.5 626,-55.5 512,-55.5"/>
<text text-anchor="middle" x="569" y="-122.5" font-family="Helvetica,sans-Serif" font-size="10.00">LogFileViewer</text>
<polyline fill="none" stroke="black" points="512,-115.5 626,-115.5 "/>
<text text-anchor="start" x="520" y="-103.5" font-family="Helvetica,sans-Serif" font-size="10.00">~ log</text>
<polyline fill="none" stroke="black" points="512,-96.5 626,-96.5 "/>
<text text-anchor="start" x="520" y="-84.5" font-family="Helvetica,sans-Serif" font-size="10.00">+ LogFileViewer()</text>
<text text-anchor="start" x="520" y="-73.5" font-family="Helvetica,sans-Serif" font-size="10.00">+ execute()</text>
<text text-anchor="start" x="520" y="-62.5" font-family="Helvetica,sans-Serif" font-size="10.00">&#45; removeLastComma()</text>
</a>
</g>
</g>
<!-- Node1&#45;&gt;Node6 -->
<g id="edge5" class="edge"><title>Node1&#45;&gt;Node6</title>
<path fill="none" stroke="midnightblue" d="M749.74,-240.577C712.82,-231.016 668.567,-215.255 635,-190 615.72,-175.494 599.921,-153.701 588.619,-134.75"/>
<polygon fill="none" stroke="midnightblue" points="748.899,-243.974 759.449,-242.993 750.59,-237.181 748.899,-243.974"/>
</g>
<!-- Node7 -->
<g id="node7" class="node"><title>Node7</title>
<g id="a_node7"><a xlink:href="classtomoBay_1_1presenters_1_1presenterActions_1_1concreteActions_1_1MarkAsInvoiced.html" target="_top" xlink:title="{MarkAsInvoiced\n||+ MarkAsInvoiced()\l+ execute()\l}">
<polygon fill="white" stroke="black" points="644,-61 644,-129 746,-129 746,-61 644,-61"/>
<text text-anchor="middle" x="695" y="-117" font-family="Helvetica,sans-Serif" font-size="10.00">MarkAsInvoiced</text>
<polyline fill="none" stroke="black" points="644,-110 746,-110 "/>
<text text-anchor="middle" x="695" y="-98" font-family="Helvetica,sans-Serif" font-size="10.00"> </text>
<polyline fill="none" stroke="black" points="644,-91 746,-91 "/>
<text text-anchor="start" x="652" y="-79" font-family="Helvetica,sans-Serif" font-size="10.00">+ MarkAsInvoiced()</text>
<text text-anchor="start" x="652" y="-68" font-family="Helvetica,sans-Serif" font-size="10.00">+ execute()</text>
</a>
</g>
</g>
<!-- Node1&#45;&gt;Node7 -->
<g id="edge6" class="edge"><title>Node1&#45;&gt;Node7</title>
<path fill="none" stroke="midnightblue" d="M782.194,-219.301C772.847,-210.17 763.201,-200.05 755,-190 739.454,-170.95 724.567,-147.667 713.51,-129.039"/>
<polygon fill="none" stroke="midnightblue" points="779.952,-222 789.593,-226.393 784.795,-216.946 779.952,-222"/>
</g>
<!-- Node8 -->
<g id="node8" class="node"><title>Node8</title>
<g id="a_node8"><a xlink:href="classtomoBay_1_1presenters_1_1presenterActions_1_1concreteActions_1_1MarkAsUninvoiced.html" target="_top" xlink:title="{MarkAsUninvoiced\n||+ MarkAsUninvoiced()\l+ execute()\l}">
<polygon fill="white" stroke="black" points="764,-61 764,-129 878,-129 878,-61 764,-61"/>
<text text-anchor="middle" x="821" y="-117" font-family="Helvetica,sans-Serif" font-size="10.00">MarkAsUninvoiced</text>
<polyline fill="none" stroke="black" points="764,-110 878,-110 "/>
<text text-anchor="middle" x="821" y="-98" font-family="Helvetica,sans-Serif" font-size="10.00"> </text>
<polyline fill="none" stroke="black" points="764,-91 878,-91 "/>
<text text-anchor="start" x="772" y="-79" font-family="Helvetica,sans-Serif" font-size="10.00">+ MarkAsUninvoiced()</text>
<text text-anchor="start" x="772" y="-68" font-family="Helvetica,sans-Serif" font-size="10.00">+ execute()</text>
</a>
</g>
</g>
<!-- Node1&#45;&gt;Node8 -->
<g id="edge7" class="edge"><title>Node1&#45;&gt;Node8</title>
<path fill="none" stroke="midnightblue" d="M821,-216.422C821,-189.91 821,-154.719 821,-129.23"/>
<polygon fill="none" stroke="midnightblue" points="817.5,-216.478 821,-226.479 824.5,-216.479 817.5,-216.478"/>
</g>
<!-- Node9 -->
<g id="node9" class="node"><title>Node9</title>
<g id="a_node9"><a xlink:href="classtomoBay_1_1presenters_1_1presenterActions_1_1concreteActions_1_1OrderInfo.html" target="_top" xlink:title="This presenter action takes an orderID string in its execute(String data) method, and returns nicely ...">
<polygon fill="white" stroke="black" points="896.5,-33.5 896.5,-156.5 989.5,-156.5 989.5,-33.5 896.5,-33.5"/>
<text text-anchor="middle" x="943" y="-144.5" font-family="Helvetica,sans-Serif" font-size="10.00">OrderInfo</text>
<polyline fill="none" stroke="black" points="896.5,-137.5 989.5,-137.5 "/>
<text text-anchor="middle" x="943" y="-125.5" font-family="Helvetica,sans-Serif" font-size="10.00"> </text>
<polyline fill="none" stroke="black" points="896.5,-118.5 989.5,-118.5 "/>
<text text-anchor="start" x="904.5" y="-106.5" font-family="Helvetica,sans-Serif" font-size="10.00">+ OrderInfo()</text>
<text text-anchor="start" x="904.5" y="-95.5" font-family="Helvetica,sans-Serif" font-size="10.00">+ execute()</text>
<text text-anchor="start" x="904.5" y="-84.5" font-family="Helvetica,sans-Serif" font-size="10.00">&#45; formatResults()</text>
<text text-anchor="start" x="904.5" y="-73.5" font-family="Helvetica,sans-Serif" font-size="10.00">&#45; summaryInfo()</text>
<text text-anchor="start" x="904.5" y="-62.5" font-family="Helvetica,sans-Serif" font-size="10.00">&#45; buyerInfo()</text>
<text text-anchor="start" x="904.5" y="-51.5" font-family="Helvetica,sans-Serif" font-size="10.00">&#45; transactionInfo()</text>
<text text-anchor="start" x="904.5" y="-40.5" font-family="Helvetica,sans-Serif" font-size="10.00">&#45; shippingInfo()</text>
</a>
</g>
</g>
<!-- Node1&#45;&gt;Node9 -->
<g id="edge8" class="edge"><title>Node1&#45;&gt;Node9</title>
<path fill="none" stroke="midnightblue" d="M860.296,-219.21C869.551,-210.143 879.033,-200.077 887,-190 895.129,-179.718 902.945,-168.15 910.025,-156.736"/>
<polygon fill="none" stroke="midnightblue" points="857.751,-216.801 852.954,-226.248 862.595,-221.854 857.751,-216.801"/>
</g>
<!-- Node10 -->
<g id="node10" class="node"><title>Node10</title>
<g id="a_node10"><a xlink:href="classtomoBay_1_1presenters_1_1presenterActions_1_1concreteActions_1_1PeriodicServicesController.html" target="_top" xlink:title="{PeriodicServicesController\n||+ PeriodicServicesController()\l+ execute()\l&#45; executeStatic()\l}">
<polygon fill="white" stroke="black" points="1007.5,-55.5 1007.5,-134.5 1154.5,-134.5 1154.5,-55.5 1007.5,-55.5"/>
<text text-anchor="middle" x="1081" y="-122.5" font-family="Helvetica,sans-Serif" font-size="10.00">PeriodicServicesController</text>
<polyline fill="none" stroke="black" points="1007.5,-115.5 1154.5,-115.5 "/>
<text text-anchor="middle" x="1081" y="-103.5" font-family="Helvetica,sans-Serif" font-size="10.00"> </text>
<polyline fill="none" stroke="black" points="1007.5,-96.5 1154.5,-96.5 "/>
<text text-anchor="start" x="1015.5" y="-84.5" font-family="Helvetica,sans-Serif" font-size="10.00">+ PeriodicServicesController()</text>
<text text-anchor="start" x="1015.5" y="-73.5" font-family="Helvetica,sans-Serif" font-size="10.00">+ execute()</text>
<text text-anchor="start" x="1015.5" y="-62.5" font-family="Helvetica,sans-Serif" font-size="10.00">&#45; executeStatic()</text>
</a>
</g>
</g>
<!-- Node1&#45;&gt;Node10 -->
<g id="edge9" class="edge"><title>Node1&#45;&gt;Node10</title>
<path fill="none" stroke="midnightblue" d="M892.631,-237.278C926.777,-227.129 967.039,-211.833 999,-190 1020.64,-175.219 1040.14,-153.411 1054.69,-134.52"/>
<polygon fill="none" stroke="midnightblue" points="891.353,-234.004 882.713,-240.135 893.291,-240.731 891.353,-234.004"/>
</g>
<!-- Node11 -->
<g id="node11" class="node"><title>Node11</title>
<g id="a_node11"><a xlink:href="classtomoBay_1_1presenters_1_1presenterActions_1_1concreteActions_1_1PrintInvoices.html" target="_top" xlink:title="{PrintInvoices\n|~ log\l|+ PrintInvoices()\l+ execute()\l&#45; splitOrderNoString()\l&#45; formatAsDualList()\l&#45; print()\l}">
<polygon fill="white" stroke="black" points="1172.5,-44.5 1172.5,-145.5 1281.5,-145.5 1281.5,-44.5 1172.5,-44.5"/>
<text text-anchor="middle" x="1227" y="-133.5" font-family="Helvetica,sans-Serif" font-size="10.00">PrintInvoices</text>
<polyline fill="none" stroke="black" points="1172.5,-126.5 1281.5,-126.5 "/>
<text text-anchor="start" x="1180.5" y="-114.5" font-family="Helvetica,sans-Serif" font-size="10.00">~ log</text>
<polyline fill="none" stroke="black" points="1172.5,-107.5 1281.5,-107.5 "/>
<text text-anchor="start" x="1180.5" y="-95.5" font-family="Helvetica,sans-Serif" font-size="10.00">+ PrintInvoices()</text>
<text text-anchor="start" x="1180.5" y="-84.5" font-family="Helvetica,sans-Serif" font-size="10.00">+ execute()</text>
<text text-anchor="start" x="1180.5" y="-73.5" font-family="Helvetica,sans-Serif" font-size="10.00">&#45; splitOrderNoString()</text>
<text text-anchor="start" x="1180.5" y="-62.5" font-family="Helvetica,sans-Serif" font-size="10.00">&#45; formatAsDualList()</text>
<text text-anchor="start" x="1180.5" y="-51.5" font-family="Helvetica,sans-Serif" font-size="10.00">&#45; print()</text>
</a>
</g>
</g>
<!-- Node1&#45;&gt;Node11 -->
<g id="edge10" class="edge"><title>Node1&#45;&gt;Node11</title>
<path fill="none" stroke="midnightblue" d="M892.859,-247.175C979.924,-237.789 1120.39,-218.725 1164,-190 1180.57,-179.086 1193.87,-162.152 1203.91,-145.648"/>
<polygon fill="none" stroke="midnightblue" points="892.352,-243.709 882.777,-248.244 893.091,-250.67 892.352,-243.709"/>
</g>
<!-- Node12 -->
<g id="node12" class="node"><title>Node12</title>
<g id="a_node12"><a xlink:href="classtomoBay_1_1presenters_1_1presenterActions_1_1concreteActions_1_1ReScanBuyer.html" target="_top" xlink:title="Copyright(C) 2015 Jan P.C. ">
<polygon fill="white" stroke="black" points="1300,-61 1300,-129 1392,-129 1392,-61 1300,-61"/>
<text text-anchor="middle" x="1346" y="-117" font-family="Helvetica,sans-Serif" font-size="10.00">ReScanBuyer</text>
<polyline fill="none" stroke="black" points="1300,-110 1392,-110 "/>
<text text-anchor="middle" x="1346" y="-98" font-family="Helvetica,sans-Serif" font-size="10.00"> </text>
<polyline fill="none" stroke="black" points="1300,-91 1392,-91 "/>
<text text-anchor="start" x="1308" y="-79" font-family="Helvetica,sans-Serif" font-size="10.00">+ ReScanBuyer()</text>
<text text-anchor="start" x="1308" y="-68" font-family="Helvetica,sans-Serif" font-size="10.00">+ execute()</text>
</a>
</g>
</g>
<!-- Node1&#45;&gt;Node12 -->
<g id="edge11" class="edge"><title>Node1&#45;&gt;Node12</title>
<path fill="none" stroke="midnightblue" d="M892.67,-251.806C1007.74,-247.051 1227.25,-232.536 1291,-190 1312.39,-175.728 1326.58,-150.091 1335.17,-129.192"/>
<polygon fill="none" stroke="midnightblue" points="892.396,-248.314 882.544,-252.21 892.675,-255.308 892.396,-248.314"/>
</g>
<!-- Node13 -->
<g id="node13" class="node"><title>Node13</title>
<g id="a_node13"><a xlink:href="classtomoBay_1_1presenters_1_1presenterActions_1_1concreteActions_1_1ReScanListing.html" target="_top" xlink:title="{ReScanListing\n||+ ReScanListing()\l+ execute()\l}">
<polygon fill="white" stroke="black" points="1410.5,-61 1410.5,-129 1505.5,-129 1505.5,-61 1410.5,-61"/>
<text text-anchor="middle" x="1458" y="-117" font-family="Helvetica,sans-Serif" font-size="10.00">ReScanListing</text>
<polyline fill="none" stroke="black" points="1410.5,-110 1505.5,-110 "/>
<text text-anchor="middle" x="1458" y="-98" font-family="Helvetica,sans-Serif" font-size="10.00"> </text>
<polyline fill="none" stroke="black" points="1410.5,-91 1505.5,-91 "/>
<text text-anchor="start" x="1418.5" y="-79" font-family="Helvetica,sans-Serif" font-size="10.00">+ ReScanListing()</text>
<text text-anchor="start" x="1418.5" y="-68" font-family="Helvetica,sans-Serif" font-size="10.00">+ execute()</text>
</a>
</g>
</g>
<!-- Node1&#45;&gt;Node13 -->
<g id="edge12" class="edge"><title>Node1&#45;&gt;Node13</title>
<path fill="none" stroke="midnightblue" d="M893.14,-253.843C1029.4,-252.298 1318.38,-242.698 1401,-190 1422.88,-176.041 1437.6,-150.385 1446.59,-129.398"/>
<polygon fill="none" stroke="midnightblue" points="892.772,-250.346 882.808,-253.948 892.843,-257.346 892.772,-250.346"/>
</g>
<!-- Node14 -->
<g id="node14" class="node"><title>Node14</title>
<g id="a_node14"><a xlink:href="classtomoBay_1_1presenters_1_1presenterActions_1_1concreteActions_1_1SendToPicking.html" target="_top" xlink:title="{SendToPicking\n||+ SendToPicking()\l+ execute()\l}">
<polygon fill="white" stroke="black" points="1524,-61 1524,-129 1622,-129 1622,-61 1524,-61"/>
<text text-anchor="middle" x="1573" y="-117" font-family="Helvetica,sans-Serif" font-size="10.00">SendToPicking</text>
<polyline fill="none" stroke="black" points="1524,-110 1622,-110 "/>
<text text-anchor="middle" x="1573" y="-98" font-family="Helvetica,sans-Serif" font-size="10.00"> </text>
<polyline fill="none" stroke="black" points="1524,-91 1622,-91 "/>
<text text-anchor="start" x="1532" y="-79" font-family="Helvetica,sans-Serif" font-size="10.00">+ SendToPicking()</text>
<text text-anchor="start" x="1532" y="-68" font-family="Helvetica,sans-Serif" font-size="10.00">+ execute()</text>
</a>
</g>
</g>
<!-- Node1&#45;&gt;Node14 -->
<g id="edge13" class="edge"><title>Node1&#45;&gt;Node14</title>
<path fill="none" stroke="midnightblue" d="M892.718,-250.999C1059.45,-243.512 1462.97,-222.258 1515,-190 1537.33,-176.158 1552.37,-150.21 1561.53,-129.078"/>
<polygon fill="none" stroke="midnightblue" points="892.396,-247.51 882.562,-251.451 892.708,-254.503 892.396,-247.51"/>
</g>
</g>
</svg>
