<?xml version="1.0" encoding="UTF-8" standalone="no"?>
<!DOCTYPE svg PUBLIC "-//W3C//DTD SVG 1.1//EN"
 "http://www.w3.org/Graphics/SVG/1.1/DTD/svg11.dtd">
<!-- Generated by graphviz version 2.38.0 (20140413.2041)
 -->
<!-- Title: AbstractPresenterActionFactory Pages: 1 -->
<svg width="1573pt" height="193pt"
 viewBox="0.00 0.00 1572.50 193.00" xmlns="http://www.w3.org/2000/svg" xmlns:xlink="http://www.w3.org/1999/xlink">
<g id="graph0" class="graph" transform="scale(1 1) rotate(0) translate(4 189)">
<title>AbstractPresenterActionFactory</title>
<polygon fill="white" stroke="none" points="-4,4 -4,-189 1568.5,-189 1568.5,4 -4,4"/>
<!-- Node1 -->
<g id="node1" class="node"><title>Node1</title>
<polygon fill="#bfbfbf" stroke="black" points="700.5,-127.5 700.5,-184.5 856.5,-184.5 856.5,-127.5 700.5,-127.5"/>
<text text-anchor="middle" x="778.5" y="-172.5" font-family="Helvetica,sans-Serif" font-size="10.00">AbstractPresenterActionFactory</text>
<polyline fill="none" stroke="black" points="700.5,-165.5 856.5,-165.5 "/>
<text text-anchor="middle" x="778.5" y="-153.5" font-family="Helvetica,sans-Serif" font-size="10.00"> </text>
<polyline fill="none" stroke="black" points="700.5,-146.5 856.5,-146.5 "/>
<text text-anchor="start" x="708.5" y="-134.5" font-family="Helvetica,sans-Serif" font-size="10.00">+ make()</text>
</g>
<!-- Node2 -->
<g id="node2" class="node"><title>Node2</title>
<g id="a_node2"><a xlink:href="classtomoBay_1_1presenters_1_1presenterActions_1_1factories_1_1BuyerDetailsFactory.html" target="_top" xlink:title="Copyright(C) 2015 Jan P.C. ">
<polygon fill="white" stroke="black" points="0,-11.5 0,-79.5 121,-79.5 121,-11.5 0,-11.5"/>
<text text-anchor="middle" x="60.5" y="-67.5" font-family="Helvetica,sans-Serif" font-size="10.00">BuyerDetailsFactory</text>
<polyline fill="none" stroke="black" points="0,-60.5 121,-60.5 "/>
<text text-anchor="middle" x="60.5" y="-48.5" font-family="Helvetica,sans-Serif" font-size="10.00"> </text>
<polyline fill="none" stroke="black" points="0,-41.5 121,-41.5 "/>
<text text-anchor="start" x="8" y="-29.5" font-family="Helvetica,sans-Serif" font-size="10.00">+ BuyerDetailsFactory()</text>
<text text-anchor="start" x="8" y="-18.5" font-family="Helvetica,sans-Serif" font-size="10.00">+ make()</text>
</a>
</g>
</g>
<!-- Node1&#45;&gt;Node2 -->
<g id="edge1" class="edge"><title>Node1&#45;&gt;Node2</title>
<path fill="none" stroke="midnightblue" d="M689.995,-151.337C537.448,-144.182 231.631,-125.906 130.5,-91 122.196,-88.1339 113.875,-84.1071 106.017,-79.6354"/>
<polygon fill="none" stroke="midnightblue" points="690.112,-154.846 700.263,-151.813 690.436,-147.854 690.112,-154.846"/>
</g>
<!-- Node3 -->
<g id="node3" class="node"><title>Node3</title>
<g id="a_node3"><a xlink:href="classtomoBay_1_1presenters_1_1presenterActions_1_1factories_1_1BuyerListFactory.html" target="_top" xlink:title="{BuyerListFactory\n||+ BuyerListFactory()\l+ make()\l}">
<polygon fill="white" stroke="black" points="139.5,-11.5 139.5,-79.5 245.5,-79.5 245.5,-11.5 139.5,-11.5"/>
<text text-anchor="middle" x="192.5" y="-67.5" font-family="Helvetica,sans-Serif" font-size="10.00">BuyerListFactory</text>
<polyline fill="none" stroke="black" points="139.5,-60.5 245.5,-60.5 "/>
<text text-anchor="middle" x="192.5" y="-48.5" font-family="Helvetica,sans-Serif" font-size="10.00"> </text>
<polyline fill="none" stroke="black" points="139.5,-41.5 245.5,-41.5 "/>
<text text-anchor="start" x="147.5" y="-29.5" font-family="Helvetica,sans-Serif" font-size="10.00">+ BuyerListFactory()</text>
<text text-anchor="start" x="147.5" y="-18.5" font-family="Helvetica,sans-Serif" font-size="10.00">+ make()</text>
</a>
</g>
</g>
<!-- Node1&#45;&gt;Node3 -->
<g id="edge2" class="edge"><title>Node1&#45;&gt;Node3</title>
<path fill="none" stroke="midnightblue" d="M690.284,-149.534C562.271,-140.706 331.86,-121.186 254.5,-91 246.971,-88.062 239.509,-83.9976 232.511,-79.5103"/>
<polygon fill="none" stroke="midnightblue" points="690.239,-153.039 700.454,-150.228 690.715,-146.056 690.239,-153.039"/>
</g>
<!-- Node4 -->
<g id="node4" class="node"><title>Node4</title>
<g id="a_node4"><a xlink:href="classtomoBay_1_1presenters_1_1presenterActions_1_1factories_1_1InvoiceOrdersFactory.html" target="_top" xlink:title="{InvoiceOrdersFactory\n||+ InvoiceOrdersFactory()\l+ make()\l}">
<polygon fill="white" stroke="black" points="264,-11.5 264,-79.5 389,-79.5 389,-11.5 264,-11.5"/>
<text text-anchor="middle" x="326.5" y="-67.5" font-family="Helvetica,sans-Serif" font-size="10.00">InvoiceOrdersFactory</text>
<polyline fill="none" stroke="black" points="264,-60.5 389,-60.5 "/>
<text text-anchor="middle" x="326.5" y="-48.5" font-family="Helvetica,sans-Serif" font-size="10.00"> </text>
<polyline fill="none" stroke="black" points="264,-41.5 389,-41.5 "/>
<text text-anchor="start" x="272" y="-29.5" font-family="Helvetica,sans-Serif" font-size="10.00">+ InvoiceOrdersFactory()</text>
<text text-anchor="start" x="272" y="-18.5" font-family="Helvetica,sans-Serif" font-size="10.00">+ make()</text>
</a>
</g>
</g>
<!-- Node1&#45;&gt;Node4 -->
<g id="edge3" class="edge"><title>Node1&#45;&gt;Node4</title>
<path fill="none" stroke="midnightblue" d="M689.799,-149.762C611.139,-142.87 494.218,-127.053 398.5,-91 390.387,-87.944 382.189,-83.933 374.376,-79.5695"/>
<polygon fill="none" stroke="midnightblue" points="689.898,-153.283 700.158,-150.638 690.488,-146.308 689.898,-153.283"/>
</g>
<!-- Node5 -->
<g id="node5" class="node"><title>Node5</title>
<g id="a_node5"><a xlink:href="classtomoBay_1_1presenters_1_1presenterActions_1_1factories_1_1LogFileViewerFactory.html" target="_top" xlink:title="factory that creates a LogFileViewer object ">
<polygon fill="white" stroke="black" points="407.5,-11.5 407.5,-79.5 533.5,-79.5 533.5,-11.5 407.5,-11.5"/>
<text text-anchor="middle" x="470.5" y="-67.5" font-family="Helvetica,sans-Serif" font-size="10.00">LogFileViewerFactory</text>
<polyline fill="none" stroke="black" points="407.5,-60.5 533.5,-60.5 "/>
<text text-anchor="middle" x="470.5" y="-48.5" font-family="Helvetica,sans-Serif" font-size="10.00"> </text>
<polyline fill="none" stroke="black" points="407.5,-41.5 533.5,-41.5 "/>
<text text-anchor="start" x="415.5" y="-29.5" font-family="Helvetica,sans-Serif" font-size="10.00">+ LogFileViewerFactory()</text>
<text text-anchor="start" x="415.5" y="-18.5" font-family="Helvetica,sans-Serif" font-size="10.00">+ make()</text>
</a>
</g>
</g>
<!-- Node1&#45;&gt;Node5 -->
<g id="edge4" class="edge"><title>Node1&#45;&gt;Node5</title>
<path fill="none" stroke="midnightblue" d="M690.534,-137.519C645.243,-126.942 589.761,-111.496 542.5,-91 534.95,-87.7258 527.258,-83.7547 519.848,-79.5482"/>
<polygon fill="none" stroke="midnightblue" points="689.802,-140.942 700.332,-139.769 691.369,-134.12 689.802,-140.942"/>
</g>
<!-- Node6 -->
<g id="node6" class="node"><title>Node6</title>
<g id="a_node6"><a xlink:href="classtomoBay_1_1presenters_1_1presenterActions_1_1factories_1_1MarkAsInvoicedFactory.html" target="_top" xlink:title="{MarkAsInvoicedFactory\n||+ MarkAsInvoicedFactory()\l+ make()\l}">
<polygon fill="white" stroke="black" points="552,-11.5 552,-79.5 687,-79.5 687,-11.5 552,-11.5"/>
<text text-anchor="middle" x="619.5" y="-67.5" font-family="Helvetica,sans-Serif" font-size="10.00">MarkAsInvoicedFactory</text>
<polyline fill="none" stroke="black" points="552,-60.5 687,-60.5 "/>
<text text-anchor="middle" x="619.5" y="-48.5" font-family="Helvetica,sans-Serif" font-size="10.00"> </text>
<polyline fill="none" stroke="black" points="552,-41.5 687,-41.5 "/>
<text text-anchor="start" x="560" y="-29.5" font-family="Helvetica,sans-Serif" font-size="10.00">+ MarkAsInvoicedFactory()</text>
<text text-anchor="start" x="560" y="-18.5" font-family="Helvetica,sans-Serif" font-size="10.00">+ make()</text>
</a>
</g>
</g>
<!-- Node1&#45;&gt;Node6 -->
<g id="edge5" class="edge"><title>Node1&#45;&gt;Node6</title>
<path fill="none" stroke="midnightblue" d="M729.482,-121.551C709.899,-108.187 687.407,-92.839 667.887,-79.5186"/>
<polygon fill="none" stroke="midnightblue" points="727.733,-124.595 737.966,-127.34 731.679,-118.812 727.733,-124.595"/>
</g>
<!-- Node7 -->
<g id="node7" class="node"><title>Node7</title>
<g id="a_node7"><a xlink:href="classtomoBay_1_1presenters_1_1presenterActions_1_1factories_1_1MarkAsUninvoicedFactory.html" target="_top" xlink:title="this is a factory that creates MarkAsUninvoiced objects ">
<polygon fill="white" stroke="black" points="705,-11.5 705,-79.5 852,-79.5 852,-11.5 705,-11.5"/>
<text text-anchor="middle" x="778.5" y="-67.5" font-family="Helvetica,sans-Serif" font-size="10.00">MarkAsUninvoicedFactory</text>
<polyline fill="none" stroke="black" points="705,-60.5 852,-60.5 "/>
<text text-anchor="middle" x="778.5" y="-48.5" font-family="Helvetica,sans-Serif" font-size="10.00"> </text>
<polyline fill="none" stroke="black" points="705,-41.5 852,-41.5 "/>
<text text-anchor="start" x="713" y="-29.5" font-family="Helvetica,sans-Serif" font-size="10.00">+ MarkAsUninvoicedFactory()</text>
<text text-anchor="start" x="713" y="-18.5" font-family="Helvetica,sans-Serif" font-size="10.00">+ make()</text>
</a>
</g>
</g>
<!-- Node1&#45;&gt;Node7 -->
<g id="edge6" class="edge"><title>Node1&#45;&gt;Node7</title>
<path fill="none" stroke="midnightblue" d="M778.5,-116.987C778.5,-104.771 778.5,-91.3457 778.5,-79.5186"/>
<polygon fill="none" stroke="midnightblue" points="775,-117.34 778.5,-127.34 782,-117.34 775,-117.34"/>
</g>
<!-- Node8 -->
<g id="node8" class="node"><title>Node8</title>
<g id="a_node8"><a xlink:href="classtomoBay_1_1presenters_1_1presenterActions_1_1factories_1_1OrderInfoFactory.html" target="_top" xlink:title="{OrderInfoFactory\n||+ OrderInfoFactory()\l+ make()\l}">
<polygon fill="white" stroke="black" points="870,-11.5 870,-79.5 975,-79.5 975,-11.5 870,-11.5"/>
<text text-anchor="middle" x="922.5" y="-67.5" font-family="Helvetica,sans-Serif" font-size="10.00">OrderInfoFactory</text>
<polyline fill="none" stroke="black" points="870,-60.5 975,-60.5 "/>
<text text-anchor="middle" x="922.5" y="-48.5" font-family="Helvetica,sans-Serif" font-size="10.00"> </text>
<polyline fill="none" stroke="black" points="870,-41.5 975,-41.5 "/>
<text text-anchor="start" x="878" y="-29.5" font-family="Helvetica,sans-Serif" font-size="10.00">+ OrderInfoFactory()</text>
<text text-anchor="start" x="878" y="-18.5" font-family="Helvetica,sans-Serif" font-size="10.00">+ make()</text>
</a>
</g>
</g>
<!-- Node1&#45;&gt;Node8 -->
<g id="edge7" class="edge"><title>Node1&#45;&gt;Node8</title>
<path fill="none" stroke="midnightblue" d="M823.611,-121.01C841.177,-107.775 861.237,-92.6598 878.678,-79.5186"/>
<polygon fill="none" stroke="midnightblue" points="821.09,-118.527 815.21,-127.34 825.303,-124.118 821.09,-118.527"/>
</g>
<!-- Node9 -->
<g id="node9" class="node"><title>Node9</title>
<g id="a_node9"><a xlink:href="classtomoBay_1_1presenters_1_1presenterActions_1_1factories_1_1PeriodicServicesControllerFactory.html" target="_top" xlink:title="this is a factory that creates PeriodicServicesController objects ">
<polygon fill="white" stroke="black" points="993,-0.5 993,-90.5 1134,-90.5 1134,-0.5 993,-0.5"/>
<text text-anchor="start" x="1001" y="-78.5" font-family="Helvetica,sans-Serif" font-size="10.00">PeriodicServicesController</text>
<text text-anchor="middle" x="1063.5" y="-67.5" font-family="Helvetica,sans-Serif" font-size="10.00">Factory</text>
<polyline fill="none" stroke="black" points="993,-60.5 1134,-60.5 "/>
<text text-anchor="middle" x="1063.5" y="-48.5" font-family="Helvetica,sans-Serif" font-size="10.00"> </text>
<polyline fill="none" stroke="black" points="993,-41.5 1134,-41.5 "/>
<text text-anchor="start" x="1001" y="-29.5" font-family="Helvetica,sans-Serif" font-size="10.00">+ PeriodicServicesController</text>
<text text-anchor="start" x="1001" y="-18.5" font-family="Helvetica,sans-Serif" font-size="10.00">Factory()</text>
<text text-anchor="start" x="1001" y="-7.5" font-family="Helvetica,sans-Serif" font-size="10.00">+ make()</text>
</a>
</g>
</g>
<!-- Node1&#45;&gt;Node9 -->
<g id="edge8" class="edge"><title>Node1&#45;&gt;Node9</title>
<path fill="none" stroke="midnightblue" d="M866.479,-132.122C903.557,-121.344 946.776,-107.267 984.5,-91 987.246,-89.8157 990.02,-88.5621 992.803,-87.256"/>
<polygon fill="none" stroke="midnightblue" points="865.34,-128.807 856.694,-134.931 867.271,-135.535 865.34,-128.807"/>
</g>
<!-- Node10 -->
<g id="node10" class="node"><title>Node10</title>
<g id="a_node10"><a xlink:href="classtomoBay_1_1presenters_1_1presenterActions_1_1factories_1_1PrintInvoicesFactory.html" target="_top" xlink:title="{PrintInvoicesFactory\n||+ PrintInvoicesFactory()\l+ make()\l}">
<polygon fill="white" stroke="black" points="1152.5,-11.5 1152.5,-79.5 1274.5,-79.5 1274.5,-11.5 1152.5,-11.5"/>
<text text-anchor="middle" x="1213.5" y="-67.5" font-family="Helvetica,sans-Serif" font-size="10.00">PrintInvoicesFactory</text>
<polyline fill="none" stroke="black" points="1152.5,-60.5 1274.5,-60.5 "/>
<text text-anchor="middle" x="1213.5" y="-48.5" font-family="Helvetica,sans-Serif" font-size="10.00"> </text>
<polyline fill="none" stroke="black" points="1152.5,-41.5 1274.5,-41.5 "/>
<text text-anchor="start" x="1160.5" y="-29.5" font-family="Helvetica,sans-Serif" font-size="10.00">+ PrintInvoicesFactory()</text>
<text text-anchor="start" x="1160.5" y="-18.5" font-family="Helvetica,sans-Serif" font-size="10.00">+ make()</text>
</a>
</g>
</g>
<!-- Node1&#45;&gt;Node10 -->
<g id="edge9" class="edge"><title>Node1&#45;&gt;Node10</title>
<path fill="none" stroke="midnightblue" d="M866.671,-149.254C942.253,-142.072 1052.94,-126.116 1143.5,-91 1151.42,-87.9282 1159.41,-83.9087 1167.01,-79.5414"/>
<polygon fill="none" stroke="midnightblue" points="866.346,-145.769 856.708,-150.169 866.986,-152.74 866.346,-145.769"/>
</g>
<!-- Node11 -->
<g id="node11" class="node"><title>Node11</title>
<g id="a_node11"><a xlink:href="classtomoBay_1_1presenters_1_1presenterActions_1_1factories_1_1ReScanBuyerFactory.html" target="_top" xlink:title="{ReScanBuyerFactory\n||+ ReScanBuyerFactory()\l+ make()\l}">
<polygon fill="white" stroke="black" points="1293,-11.5 1293,-79.5 1418,-79.5 1418,-11.5 1293,-11.5"/>
<text text-anchor="middle" x="1355.5" y="-67.5" font-family="Helvetica,sans-Serif" font-size="10.00">ReScanBuyerFactory</text>
<polyline fill="none" stroke="black" points="1293,-60.5 1418,-60.5 "/>
<text text-anchor="middle" x="1355.5" y="-48.5" font-family="Helvetica,sans-Serif" font-size="10.00"> </text>
<polyline fill="none" stroke="black" points="1293,-41.5 1418,-41.5 "/>
<text text-anchor="start" x="1301" y="-29.5" font-family="Helvetica,sans-Serif" font-size="10.00">+ ReScanBuyerFactory()</text>
<text text-anchor="start" x="1301" y="-18.5" font-family="Helvetica,sans-Serif" font-size="10.00">+ make()</text>
</a>
</g>
</g>
<!-- Node1&#45;&gt;Node11 -->
<g id="edge10" class="edge"><title>Node1&#45;&gt;Node11</title>
<path fill="none" stroke="midnightblue" d="M866.595,-155.062C969.467,-152.607 1143.4,-140.533 1283.5,-91 1291.81,-88.0611 1300.18,-84.0554 1308.13,-79.6444"/>
<polygon fill="none" stroke="midnightblue" points="866.482,-151.563 856.559,-155.276 866.631,-158.561 866.482,-151.563"/>
</g>
<!-- Node12 -->
<g id="node12" class="node"><title>Node12</title>
<g id="a_node12"><a xlink:href="classtomoBay_1_1presenters_1_1presenterActions_1_1factories_1_1ReScanListingFactory.html" target="_top" xlink:title="this is a factory that creates ReScanListing objects ">
<polygon fill="white" stroke="black" points="1436.5,-11.5 1436.5,-79.5 1564.5,-79.5 1564.5,-11.5 1436.5,-11.5"/>
<text text-anchor="middle" x="1500.5" y="-67.5" font-family="Helvetica,sans-Serif" font-size="10.00">ReScanListingFactory</text>
<polyline fill="none" stroke="black" points="1436.5,-60.5 1564.5,-60.5 "/>
<text text-anchor="middle" x="1500.5" y="-48.5" font-family="Helvetica,sans-Serif" font-size="10.00"> </text>
<polyline fill="none" stroke="black" points="1436.5,-41.5 1564.5,-41.5 "/>
<text text-anchor="start" x="1444.5" y="-29.5" font-family="Helvetica,sans-Serif" font-size="10.00">+ ReScanListingFactory()</text>
<text text-anchor="start" x="1444.5" y="-18.5" font-family="Helvetica,sans-Serif" font-size="10.00">+ make()</text>
</a>
</g>
</g>
<!-- Node1&#45;&gt;Node12 -->
<g id="edge11" class="edge"><title>Node1&#45;&gt;Node12</title>
<path fill="none" stroke="midnightblue" d="M866.78,-151.166C1019.36,-143.732 1325.82,-125.019 1427.5,-91 1436.09,-88.1273 1444.73,-84.0969 1452.9,-79.6238"/>
<polygon fill="none" stroke="midnightblue" points="866.33,-147.684 856.51,-151.661 866.667,-154.676 866.33,-147.684"/>
</g>
</g>
</svg>
