<?xml version="1.0" encoding="UTF-8" standalone="no"?>
<!DOCTYPE svg PUBLIC "-//W3C//DTD SVG 1.1//EN"
 "http://www.w3.org/Graphics/SVG/1.1/DTD/svg11.dtd">
<!-- Generated by graphviz version 2.38.0 (20140413.2041)
 -->
<!-- Title: AbstractConfiguration&lt; T &gt; Pages: 1 -->
<!--zoomable 204 -->
<svg id="main" version="1.1" xmlns="http://www.w3.org/2000/svg" xmlns:xlink="http://www.w3.org/1999/xlink" xml:space="preserve" onload="init(evt)">
<style type="text/css"><![CDATA[
.edge:hover path { stroke: red; }
.edge:hover polygon { stroke: red; fill: red; }
]]></style>
<script type="text/javascript"><![CDATA[
var edges = document.getElementsByTagName('g');
if (edges && edges.length) {
  for (var i=0;i<edges.length;i++) {
    if (edges[i].id.substr(0,4)=='edge') {
      edges[i].setAttribute('class','edge');
    }
  }
}
]]></script>
        <defs>
                <circle id="rim" cx="0" cy="0" r="7"/>
                <circle id="rim2" cx="0" cy="0" r="3.5"/>
                <g id="zoomPlus">
                        <use xlink:href="#rim" fill="#404040">
                                <set attributeName="fill" to="#808080" begin="zoomplus.mouseover" end="zoomplus.mouseout"/>
                        </use>
                        <path d="M-4,0h8M0,-4v8" fill="none" stroke="white" stroke-width="1.5" pointer-events="none"/>
                </g>
                <g id="zoomMin">
                        <use xlink:href="#rim" fill="#404040">
                                <set attributeName="fill" to="#808080" begin="zoomminus.mouseover" end="zoomminus.mouseout"/>
                        </use>
                        <path d="M-4,0h8" fill="none" stroke="white" stroke-width="1.5" pointer-events="none"/>
                </g>
                <g id="dirArrow">
                        <path fill="none" stroke="white" stroke-width="1.5" d="M0,-3.0v7 M-2.5,-0.5L0,-3.0L2.5,-0.5"/>
                </g>
               <g id="resetDef">
                       <use xlink:href="#rim2" fill="#404040">
                               <set attributeName="fill" to="#808080" begin="reset.mouseover" end="reset.mouseout"/>
                       </use>
               </g>
        </defs>

<script type="text/javascript">
var viewWidth = 597;
var viewHeight = 204;
var sectionId = 'dynsection-0';
</script>
<script xlink:href="svgpan.js"/>
<svg id="graph" class="graph">
<g id="viewport">
<title>AbstractConfiguration&lt; T &gt;</title>
<polygon fill="white" stroke="none" points="-4,4 -4,-200 593,-200 593,4 -4,4"/>
<!-- Node1 -->
<g id="node1" class="node"><title>Node1</title>
<polygon fill="#bfbfbf" stroke="black" points="214,-127.5 214,-195.5 349,-195.5 349,-127.5 214,-127.5"/>
<text text-anchor="middle" x="281.5" y="-183.5" font-family="Helvetica,sans-Serif" font-size="10.00">AbstractConfiguration&lt; T &gt;</text>
<polyline fill="none" stroke="black" points="214,-176.5 349,-176.5 "/>
<text text-anchor="middle" x="281.5" y="-164.5" font-family="Helvetica,sans-Serif" font-size="10.00"> </text>
<polyline fill="none" stroke="black" points="214,-157.5 349,-157.5 "/>
<text text-anchor="start" x="222" y="-145.5" font-family="Helvetica,sans-Serif" font-size="10.00">+ configure()</text>
<text text-anchor="start" x="222" y="-134.5" font-family="Helvetica,sans-Serif" font-size="10.00">+ configure()</text>
</g>
<!-- Node2 -->
<g id="node2" class="node"><title>Node2</title>
<g id="a_node2"><a xlink:href="classtomoBay_1_1model_1_1services_1_1emailErrorsService_1_1EmailErrorsConfig.html" target="_top" xlink:title="Copyright(C) 2015 Jan P.C. ">
<polygon fill="white" stroke="black" points="0,-0.5 0,-90.5 111,-90.5 111,-0.5 0,-0.5"/>
<text text-anchor="start" x="8" y="-78.5" font-family="Helvetica,sans-Serif" font-size="10.00">EmailErrorsConfig&lt;</text>
<text text-anchor="middle" x="55.5" y="-67.5" font-family="Helvetica,sans-Serif" font-size="10.00"> String &gt;</text>
<polyline fill="none" stroke="black" points="0,-60.5 111,-60.5 "/>
<text text-anchor="start" x="8" y="-48.5" font-family="Helvetica,sans-Serif" font-size="10.00">&#45; EmailConfigData_M</text>
<polyline fill="none" stroke="black" points="0,-41.5 111,-41.5 "/>
<text text-anchor="start" x="8" y="-29.5" font-family="Helvetica,sans-Serif" font-size="10.00">+ EmailErrorsConfig()</text>
<text text-anchor="start" x="8" y="-18.5" font-family="Helvetica,sans-Serif" font-size="10.00">+ configure()</text>
<text text-anchor="start" x="8" y="-7.5" font-family="Helvetica,sans-Serif" font-size="10.00">+ configure()</text>
</a>
</g>
</g>
<!-- Node1&#45;&gt;Node2 -->
<g id="edge1" class="edge"><title>Node1&#45;&gt;Node2</title>
<path fill="none" stroke="midnightblue" d="M204.495,-130.817C177.401,-119.449 147.091,-105.662 120.5,-91 117.386,-89.2831 114.235,-87.4559 111.085,-85.5585"/>
<polygon fill="none" stroke="midnightblue" points="203.356,-134.134 213.934,-134.735 206.039,-127.669 203.356,-134.134"/>
</g>
<!-- Node3 -->
<g id="node3" class="node"><title>Node3</title>
<g id="a_node3"><a xlink:href="classtomoBay_1_1model_1_1services_1_1individualItemRefreshService_1_1IndividualItemRefreshConfig.html" target="_top" xlink:title="This class defines an object that is passed to the IndividualItemRefreshService setConfig method...">
<polygon fill="white" stroke="black" points="129.5,-6 129.5,-85 269.5,-85 269.5,-6 129.5,-6"/>
<text text-anchor="start" x="137.5" y="-73" font-family="Helvetica,sans-Serif" font-size="10.00">IndividualItemRefreshConfig</text>
<text text-anchor="middle" x="199.5" y="-62" font-family="Helvetica,sans-Serif" font-size="10.00">&lt; Long &gt;</text>
<polyline fill="none" stroke="black" points="129.5,-55 269.5,-55 "/>
<text text-anchor="start" x="137.5" y="-43" font-family="Helvetica,sans-Serif" font-size="10.00">&#45; listingID_M</text>
<polyline fill="none" stroke="black" points="129.5,-36 269.5,-36 "/>
<text text-anchor="start" x="137.5" y="-24" font-family="Helvetica,sans-Serif" font-size="10.00">+ configure()</text>
<text text-anchor="start" x="137.5" y="-13" font-family="Helvetica,sans-Serif" font-size="10.00">+ configure()</text>
</a>
</g>
</g>
<!-- Node1&#45;&gt;Node3 -->
<g id="edge2" class="edge"><title>Node1&#45;&gt;Node3</title>
<path fill="none" stroke="midnightblue" d="M251.64,-118.987C243.714,-107.968 235.188,-96.1143 227.372,-85.2493"/>
<polygon fill="none" stroke="midnightblue" points="248.881,-121.146 257.562,-127.22 254.564,-117.058 248.881,-121.146"/>
</g>
<!-- Node4 -->
<g id="node4" class="node"><title>Node4</title>
<g id="a_node4"><a xlink:href="classtomoBay_1_1model_1_1services_1_1reScanBuyerService_1_1ReScanBuyerServiceConfig.html" target="_top" xlink:title="Copyright(C) 2015 Jan P.C. ">
<polygon fill="white" stroke="black" points="287.5,-0.5 287.5,-90.5 441.5,-90.5 441.5,-0.5 287.5,-0.5"/>
<text text-anchor="start" x="295.5" y="-78.5" font-family="Helvetica,sans-Serif" font-size="10.00">ReScanBuyerServiceConfig</text>
<text text-anchor="middle" x="364.5" y="-67.5" font-family="Helvetica,sans-Serif" font-size="10.00">&lt; String &gt;</text>
<polyline fill="none" stroke="black" points="287.5,-60.5 441.5,-60.5 "/>
<text text-anchor="start" x="295.5" y="-48.5" font-family="Helvetica,sans-Serif" font-size="10.00">&#45; buyerID_M</text>
<polyline fill="none" stroke="black" points="287.5,-41.5 441.5,-41.5 "/>
<text text-anchor="start" x="295.5" y="-29.5" font-family="Helvetica,sans-Serif" font-size="10.00">+ ReScanBuyerServiceConfig()</text>
<text text-anchor="start" x="295.5" y="-18.5" font-family="Helvetica,sans-Serif" font-size="10.00">+ configure()</text>
<text text-anchor="start" x="295.5" y="-7.5" font-family="Helvetica,sans-Serif" font-size="10.00">+ configure()</text>
</a>
</g>
</g>
<!-- Node1&#45;&gt;Node4 -->
<g id="edge3" class="edge"><title>Node1&#45;&gt;Node4</title>
<path fill="none" stroke="midnightblue" d="M311.748,-118.955C318.455,-109.743 325.585,-99.9489 332.365,-90.6378"/>
<polygon fill="none" stroke="midnightblue" points="308.787,-117.076 305.73,-127.22 314.446,-121.196 308.787,-117.076"/>
</g>
<!-- Node5 -->
<g id="node5" class="node"><title>Node5</title>
<g id="a_node5"><a xlink:href="classtomoBay_1_1model_1_1services_1_1updateOrderStatusService_1_1UpdateOrderStatusConfig.html" target="_top" xlink:title="configuration object for the UpdateOrderStatusService, carries OrderStatus (enum) information ...">
<polygon fill="white" stroke="black" points="460,-6 460,-85 589,-85 589,-6 460,-6"/>
<text text-anchor="start" x="468" y="-73" font-family="Helvetica,sans-Serif" font-size="10.00">UpdateOrderStatusConfig</text>
<text text-anchor="middle" x="524.5" y="-62" font-family="Helvetica,sans-Serif" font-size="10.00">&lt; OrderStatus &gt;</text>
<polyline fill="none" stroke="black" points="460,-55 589,-55 "/>
<text text-anchor="start" x="468" y="-43" font-family="Helvetica,sans-Serif" font-size="10.00">&#45; status_M</text>
<polyline fill="none" stroke="black" points="460,-36 589,-36 "/>
<text text-anchor="start" x="468" y="-24" font-family="Helvetica,sans-Serif" font-size="10.00">+ configure()</text>
<text text-anchor="start" x="468" y="-13" font-family="Helvetica,sans-Serif" font-size="10.00">+ configure()</text>
</a>
</g>
</g>
<!-- Node1&#45;&gt;Node5 -->
<g id="edge4" class="edge"><title>Node1&#45;&gt;Node5</title>
<path fill="none" stroke="midnightblue" d="M358.505,-131.685C387.751,-120.004 421.087,-105.785 450.5,-91 454.25,-89.1148 458.066,-87.1096 461.887,-85.0332"/>
<polygon fill="none" stroke="midnightblue" points="357.171,-128.449 349.163,-135.386 359.749,-134.957 357.171,-128.449"/>
</g>
</g>
</svg>
        <g id="navigator" transform="translate(0 0)" fill="#404254">
                <rect fill="#f2f5e9" fill-opacity="0.5" stroke="#606060" stroke-width=".5" x="0" y="0" width="60" height="60"/>
                <use id="zoomplus" xlink:href="#zoomPlus" x="17" y="9" onmousedown="handleZoom(evt,'in')"/>
                <use id="zoomminus" xlink:href="#zoomMin" x="42" y="9" onmousedown="handleZoom(evt,'out')"/>
                <use id="reset" xlink:href="#resetDef" x="30" y="36" onmousedown="handleReset()"/>
                <g id="arrowUp" xlink:href="#dirArrow" transform="translate(30 24)" onmousedown="handlePan(0,-1)">
                  <use xlink:href="#rim" fill="#404040">
                        <set attributeName="fill" to="#808080" begin="arrowUp.mouseover" end="arrowUp.mouseout"/>
                  </use>
                  <path fill="none" stroke="white" stroke-width="1.5" d="M0,-3.0v7 M-2.5,-0.5L0,-3.0L2.5,-0.5"/>
                </g>
                <g id="arrowRight" xlink:href="#dirArrow" transform="rotate(90) translate(36 -43)" onmousedown="handlePan(1,0)">
                  <use xlink:href="#rim" fill="#404040">
                        <set attributeName="fill" to="#808080" begin="arrowRight.mouseover" end="arrowRight.mouseout"/>
                  </use>
                  <path fill="none" stroke="white" stroke-width="1.5" d="M0,-3.0v7 M-2.5,-0.5L0,-3.0L2.5,-0.5"/>
                </g>
                <g id="arrowDown" xlink:href="#dirArrow" transform="rotate(180) translate(-30 -48)" onmousedown="handlePan(0,1)">
                  <use xlink:href="#rim" fill="#404040">
                        <set attributeName="fill" to="#808080" begin="arrowDown.mouseover" end="arrowDown.mouseout"/>
                  </use>
                  <path fill="none" stroke="white" stroke-width="1.5" d="M0,-3.0v7 M-2.5,-0.5L0,-3.0L2.5,-0.5"/>
                </g>
                <g id="arrowLeft" xlink:href="#dirArrow" transform="rotate(270) translate(-36 17)" onmousedown="handlePan(-1,0)">
                  <use xlink:href="#rim" fill="#404040">
                        <set attributeName="fill" to="#808080" begin="arrowLeft.mouseover" end="arrowLeft.mouseout"/>
                  </use>
                  <path fill="none" stroke="white" stroke-width="1.5" d="M0,-3.0v7 M-2.5,-0.5L0,-3.0L2.5,-0.5"/>
                </g>
        </g>
        <svg viewBox="0 0 15 15" width="100%" height="30px" preserveAspectRatio="xMaxYMin meet">
         <g id="arrow_out" transform="scale(0.3 0.3)">
          <a xlink:href="interfacetomoBay_1_1model_1_1services_1_1AbstractConfiguration__inherit__graph_org.svg" target="_base">
           <rect id="button" ry="5" rx="5" y="6" x="6" height="38" width="38"
                fill="#f2f5e9" fill-opacity="0.5" stroke="#606060" stroke-width="1.0"/>
           <path id="arrow"
             d="M 11.500037,31.436501 C 11.940474,20.09759 22.043105,11.32322 32.158766,21.979434 L 37.068811,17.246167 C 37.068811,17.246167 37.088388,32 37.088388,32 L 22.160133,31.978069 C 22.160133,31.978069 26.997745,27.140456 26.997745,27.140456 C 18.528582,18.264221 13.291696,25.230495 11.500037,31.436501 z"
             style="fill:#404040;"/>
          </a>
         </g>
        </svg>
</svg>
