<?xml version="1.0" encoding="UTF-8" standalone="no"?>
<!DOCTYPE svg PUBLIC "-//W3C//DTD SVG 1.1//EN"
 "http://www.w3.org/Graphics/SVG/1.1/DTD/svg11.dtd">
<!-- Generated by graphviz version 2.38.0 (20140413.2041)
 -->
<!-- Title: AbstractServiceState Pages: 1 -->
<svg width="118pt" height="171pt"
 viewBox="0.00 0.00 118.00 171.00" xmlns="http://www.w3.org/2000/svg" xmlns:xlink="http://www.w3.org/1999/xlink">
<g id="graph0" class="graph" transform="scale(1 1) rotate(0) translate(4 167)">
<title>AbstractServiceState</title>
<polygon fill="white" stroke="none" points="-4,4 -4,-167 114,-167 114,4 -4,4"/>
<!-- Node1 -->
<g id="node1" class="node"><title>Node1</title>
<polygon fill="#bfbfbf" stroke="black" points="0,-105.5 0,-162.5 110,-162.5 110,-105.5 0,-105.5"/>
<text text-anchor="middle" x="55" y="-150.5" font-family="Helvetica,sans-Serif" font-size="10.00">AbstractServiceState</text>
<polyline fill="none" stroke="black" points="0,-143.5 110,-143.5 "/>
<text text-anchor="middle" x="55" y="-131.5" font-family="Helvetica,sans-Serif" font-size="10.00"> </text>
<polyline fill="none" stroke="black" points="0,-124.5 110,-124.5 "/>
<text text-anchor="start" x="8" y="-112.5" font-family="Helvetica,sans-Serif" font-size="10.00">+ execute()</text>
</g>
<!-- Node2 -->
<g id="node2" class="node"><title>Node2</title>
<g id="a_node2"><a xlink:href="classtomoBay_1_1model_1_1services_1_1basicEbayUpdateService_1_1OnRunning.html" target="_top" xlink:title="{OnRunning\n|&#45; log\l|+ OnRunning()\l+ execute()\l}">
<polygon fill="white" stroke="black" points="15,-0.5 15,-68.5 95,-68.5 95,-0.5 15,-0.5"/>
<text text-anchor="middle" x="55" y="-56.5" font-family="Helvetica,sans-Serif" font-size="10.00">OnRunning</text>
<polyline fill="none" stroke="black" points="15,-49.5 95,-49.5 "/>
<text text-anchor="start" x="23" y="-37.5" font-family="Helvetica,sans-Serif" font-size="10.00">&#45; log</text>
<polyline fill="none" stroke="black" points="15,-30.5 95,-30.5 "/>
<text text-anchor="start" x="23" y="-18.5" font-family="Helvetica,sans-Serif" font-size="10.00">+ OnRunning()</text>
<text text-anchor="start" x="23" y="-7.5" font-family="Helvetica,sans-Serif" font-size="10.00">+ execute()</text>
</a>
</g>
</g>
<!-- Node1&#45;&gt;Node2 -->
<g id="edge1" class="edge"><title>Node1&#45;&gt;Node2</title>
<path fill="none" stroke="midnightblue" d="M15.4979,-95.6341C13.9223,-86.7959 14.2125,-77.4289 16.3683,-68.7855"/>
<polygon fill="none" stroke="midnightblue" points="12.1208,-96.554 18.0695,-105.321 18.8865,-94.7579 12.1208,-96.554"/>
</g>
<!-- Node1&#45;&gt;Node2 -->
<g id="edge2" class="edge"><title>Node1&#45;&gt;Node2</title>
<path fill="none" stroke="midnightblue" d="M28.6318,-95.3488C27.6192,-86.5945 27.8238,-77.336 29.2456,-68.7855"/>
<polygon fill="none" stroke="midnightblue" points="25.2058,-96.0756 30.3796,-105.321 32.1007,-94.8671 25.2058,-96.0756"/>
</g>
<!-- Node1&#45;&gt;Node2 -->
<g id="edge3" class="edge"><title>Node1&#45;&gt;Node2</title>
<path fill="none" stroke="midnightblue" d="M41.8159,-95.3488C41.3096,-86.5945 41.4119,-77.336 42.1228,-68.7855"/>
<polygon fill="none" stroke="midnightblue" points="38.3301,-95.665 42.6898,-105.321 45.3034,-95.0538 38.3301,-95.665"/>
</g>
<!-- Node1&#45;&gt;Node2 -->
<g id="edge4" class="edge"><title>Node1&#45;&gt;Node2</title>
<path fill="none" stroke="midnightblue" d="M55,-95.0631C55,-86.3933 55,-77.2431 55,-68.7855"/>
<polygon fill="none" stroke="midnightblue" points="51.5001,-95.3212 55,-105.321 58.5001,-95.3212 51.5001,-95.3212"/>
</g>
<!-- Node1&#45;&gt;Node2 -->
<g id="edge5" class="edge"><title>Node1&#45;&gt;Node2</title>
<path fill="none" stroke="midnightblue" d="M68.1841,-95.3488C68.6904,-86.5945 68.5881,-77.336 67.8772,-68.7855"/>
<polygon fill="none" stroke="midnightblue" points="64.6966,-95.0538 67.3102,-105.321 71.6699,-95.665 64.6966,-95.0538"/>
</g>
<!-- Node1&#45;&gt;Node2 -->
<g id="edge6" class="edge"><title>Node1&#45;&gt;Node2</title>
<path fill="none" stroke="midnightblue" d="M81.3682,-95.3488C82.3808,-86.5945 82.1762,-77.336 80.7544,-68.7855"/>
<polygon fill="none" stroke="midnightblue" points="77.8993,-94.8671 79.6204,-105.321 84.7942,-96.0756 77.8993,-94.8671"/>
</g>
<!-- Node1&#45;&gt;Node2 -->
<g id="edge7" class="edge"><title>Node1&#45;&gt;Node2</title>
<path fill="none" stroke="midnightblue" d="M94.5021,-95.6341C96.0777,-86.7959 95.7875,-77.4289 93.6317,-68.7855"/>
<polygon fill="none" stroke="midnightblue" points="91.1135,-94.7579 91.9305,-105.321 97.8792,-96.554 91.1135,-94.7579"/>
</g>
</g>
</svg>
