<?xml version="1.0" encoding="UTF-8" standalone="no"?>
<!DOCTYPE svg PUBLIC "-//W3C//DTD SVG 1.1//EN"
 "http://www.w3.org/Graphics/SVG/1.1/DTD/svg11.dtd">
<!-- Generated by graphviz version 2.38.0 (20140413.2041)
 -->
<!-- Title: AbstractPresenterActionFactory Pages: 1 -->
<svg width="1759pt" height="193pt"
 viewBox="0.00 0.00 1758.50 193.00" xmlns="http://www.w3.org/2000/svg" xmlns:xlink="http://www.w3.org/1999/xlink">
<g id="graph0" class="graph" transform="scale(1 1) rotate(0) translate(4 189)">
<title>AbstractPresenterActionFactory</title>
<polygon fill="white" stroke="none" points="-4,4 -4,-189 1754.5,-189 1754.5,4 -4,4"/>
<!-- Node1 -->
<g id="node1" class="node"><title>Node1</title>
<polygon fill="#bfbfbf" stroke="black" points="806.5,-127.5 806.5,-184.5 962.5,-184.5 962.5,-127.5 806.5,-127.5"/>
<text text-anchor="middle" x="884.5" y="-172.5" font-family="Helvetica,sans-Serif" font-size="10.00">AbstractPresenterActionFactory</text>
<polyline fill="none" stroke="black" points="806.5,-165.5 962.5,-165.5 "/>
<text text-anchor="middle" x="884.5" y="-153.5" font-family="Helvetica,sans-Serif" font-size="10.00"> </text>
<polyline fill="none" stroke="black" points="806.5,-146.5 962.5,-146.5 "/>
<text text-anchor="start" x="814.5" y="-134.5" font-family="Helvetica,sans-Serif" font-size="10.00">+ make()</text>
</g>
<!-- Node2 -->
<g id="node2" class="node"><title>Node2</title>
<g id="a_node2"><a xlink:href="classtomoBay_1_1presenters_1_1presenterActions_1_1factories_1_1BuyerDetailsFactory.html" target="_top" xlink:title="Copyright(C) 2015 Jan P.C. ">
<polygon fill="white" stroke="black" points="0,-11.5 0,-79.5 121,-79.5 121,-11.5 0,-11.5"/>
<text text-anchor="middle" x="60.5" y="-67.5" font-family="Helvetica,sans-Serif" font-size="10.00">BuyerDetailsFactory</text>
<polyline fill="none" stroke="black" points="0,-60.5 121,-60.5 "/>
<text text-anchor="middle" x="60.5" y="-48.5" font-family="Helvetica,sans-Serif" font-size="10.00"> </text>
<polyline fill="none" stroke="black" points="0,-41.5 121,-41.5 "/>
<text text-anchor="start" x="8" y="-29.5" font-family="Helvetica,sans-Serif" font-size="10.00">+ BuyerDetailsFactory()</text>
<text text-anchor="start" x="8" y="-18.5" font-family="Helvetica,sans-Serif" font-size="10.00">+ make()</text>
</a>
</g>
</g>
<!-- Node1&#45;&gt;Node2 -->
<g id="edge1" class="edge"><title>Node1&#45;&gt;Node2</title>
<path fill="none" stroke="midnightblue" d="M796.471,-152.787C624.845,-147.612 251.706,-131.904 130.5,-91 122.04,-88.1451 113.573,-84.0629 105.597,-79.5153"/>
<polygon fill="none" stroke="midnightblue" points="796.385,-156.285 806.484,-153.083 796.592,-149.289 796.385,-156.285"/>
</g>
<!-- Node3 -->
<g id="node3" class="node"><title>Node3</title>
<g id="a_node3"><a xlink:href="classtomoBay_1_1presenters_1_1presenterActions_1_1factories_1_1BuyerListFactory.html" target="_top" xlink:title="{BuyerListFactory\n||+ BuyerListFactory()\l+ make()\l}">
<polygon fill="white" stroke="black" points="139.5,-11.5 139.5,-79.5 245.5,-79.5 245.5,-11.5 139.5,-11.5"/>
<text text-anchor="middle" x="192.5" y="-67.5" font-family="Helvetica,sans-Serif" font-size="10.00">BuyerListFactory</text>
<polyline fill="none" stroke="black" points="139.5,-60.5 245.5,-60.5 "/>
<text text-anchor="middle" x="192.5" y="-48.5" font-family="Helvetica,sans-Serif" font-size="10.00"> </text>
<polyline fill="none" stroke="black" points="139.5,-41.5 245.5,-41.5 "/>
<text text-anchor="start" x="147.5" y="-29.5" font-family="Helvetica,sans-Serif" font-size="10.00">+ BuyerListFactory()</text>
<text text-anchor="start" x="147.5" y="-18.5" font-family="Helvetica,sans-Serif" font-size="10.00">+ make()</text>
</a>
</g>
</g>
<!-- Node1&#45;&gt;Node3 -->
<g id="edge2" class="edge"><title>Node1&#45;&gt;Node3</title>
<path fill="none" stroke="midnightblue" d="M796.343,-151.742C646.859,-145.276 350.44,-128.117 253.5,-91 246.032,-88.1407 238.66,-84.1174 231.762,-79.6472"/>
<polygon fill="none" stroke="midnightblue" points="796.27,-155.242 806.41,-152.171 796.568,-148.248 796.27,-155.242"/>
</g>
<!-- Node4 -->
<g id="node4" class="node"><title>Node4</title>
<g id="a_node4"><a xlink:href="classtomoBay_1_1presenters_1_1presenterActions_1_1factories_1_1GenerateRoyalMailCSVFactory.html" target="_top" xlink:title="Copyright(C) 2015 Jan P.C. ">
<polygon fill="white" stroke="black" points="263,-11.5 263,-79.5 432,-79.5 432,-11.5 263,-11.5"/>
<text text-anchor="middle" x="347.5" y="-67.5" font-family="Helvetica,sans-Serif" font-size="10.00">GenerateRoyalMailCSVFactory</text>
<polyline fill="none" stroke="black" points="263,-60.5 432,-60.5 "/>
<text text-anchor="middle" x="347.5" y="-48.5" font-family="Helvetica,sans-Serif" font-size="10.00"> </text>
<polyline fill="none" stroke="black" points="263,-41.5 432,-41.5 "/>
<text text-anchor="start" x="271" y="-29.5" font-family="Helvetica,sans-Serif" font-size="10.00">+ GenerateRoyalMailCSVFactory()</text>
<text text-anchor="start" x="271" y="-18.5" font-family="Helvetica,sans-Serif" font-size="10.00">+ make()</text>
</a>
</g>
</g>
<!-- Node1&#45;&gt;Node4 -->
<g id="edge3" class="edge"><title>Node1&#45;&gt;Node4</title>
<path fill="none" stroke="midnightblue" d="M796.367,-150.174C705.532,-143.386 560.634,-127.469 440.5,-91 430.395,-87.9324 420.008,-83.9152 410.006,-79.5489"/>
<polygon fill="none" stroke="midnightblue" points="796.123,-153.666 806.35,-150.9 796.63,-146.684 796.123,-153.666"/>
</g>
<!-- Node5 -->
<g id="node5" class="node"><title>Node5</title>
<g id="a_node5"><a xlink:href="classtomoBay_1_1presenters_1_1presenterActions_1_1factories_1_1InvoiceOrdersFactory.html" target="_top" xlink:title="{InvoiceOrdersFactory\n||+ InvoiceOrdersFactory()\l+ make()\l}">
<polygon fill="white" stroke="black" points="450,-11.5 450,-79.5 575,-79.5 575,-11.5 450,-11.5"/>
<text text-anchor="middle" x="512.5" y="-67.5" font-family="Helvetica,sans-Serif" font-size="10.00">InvoiceOrdersFactory</text>
<polyline fill="none" stroke="black" points="450,-60.5 575,-60.5 "/>
<text text-anchor="middle" x="512.5" y="-48.5" font-family="Helvetica,sans-Serif" font-size="10.00"> </text>
<polyline fill="none" stroke="black" points="450,-41.5 575,-41.5 "/>
<text text-anchor="start" x="458" y="-29.5" font-family="Helvetica,sans-Serif" font-size="10.00">+ InvoiceOrdersFactory()</text>
<text text-anchor="start" x="458" y="-18.5" font-family="Helvetica,sans-Serif" font-size="10.00">+ make()</text>
</a>
</g>
</g>
<!-- Node1&#45;&gt;Node5 -->
<g id="edge4" class="edge"><title>Node1&#45;&gt;Node5</title>
<path fill="none" stroke="midnightblue" d="M796.223,-144.309C735.185,-134.975 652.964,-118.495 584.5,-91 576.727,-87.8785 568.847,-83.9409 561.291,-79.7054"/>
<polygon fill="none" stroke="midnightblue" points="795.806,-147.785 806.214,-145.802 796.841,-140.862 795.806,-147.785"/>
</g>
<!-- Node6 -->
<g id="node6" class="node"><title>Node6</title>
<g id="a_node6"><a xlink:href="classtomoBay_1_1presenters_1_1presenterActions_1_1factories_1_1LogFileViewerFactory.html" target="_top" xlink:title="factory that creates a LogFileViewer object ">
<polygon fill="white" stroke="black" points="593.5,-11.5 593.5,-79.5 719.5,-79.5 719.5,-11.5 593.5,-11.5"/>
<text text-anchor="middle" x="656.5" y="-67.5" font-family="Helvetica,sans-Serif" font-size="10.00">LogFileViewerFactory</text>
<polyline fill="none" stroke="black" points="593.5,-60.5 719.5,-60.5 "/>
<text text-anchor="middle" x="656.5" y="-48.5" font-family="Helvetica,sans-Serif" font-size="10.00"> </text>
<polyline fill="none" stroke="black" points="593.5,-41.5 719.5,-41.5 "/>
<text text-anchor="start" x="601.5" y="-29.5" font-family="Helvetica,sans-Serif" font-size="10.00">+ LogFileViewerFactory()</text>
<text text-anchor="start" x="601.5" y="-18.5" font-family="Helvetica,sans-Serif" font-size="10.00">+ make()</text>
</a>
</g>
</g>
<!-- Node1&#45;&gt;Node6 -->
<g id="edge5" class="edge"><title>Node1&#45;&gt;Node6</title>
<path fill="none" stroke="midnightblue" d="M801.007,-123.698C777.22,-113.991 751.524,-102.738 728.5,-91 721.692,-87.5295 714.68,-83.6328 707.826,-79.6263"/>
<polygon fill="none" stroke="midnightblue" points="799.785,-126.979 810.368,-127.479 802.407,-120.488 799.785,-126.979"/>
</g>
<!-- Node7 -->
<g id="node7" class="node"><title>Node7</title>
<g id="a_node7"><a xlink:href="classtomoBay_1_1presenters_1_1presenterActions_1_1factories_1_1MarkAsInvoicedFactory.html" target="_top" xlink:title="{MarkAsInvoicedFactory\n||+ MarkAsInvoicedFactory()\l+ make()\l}">
<polygon fill="white" stroke="black" points="738,-11.5 738,-79.5 873,-79.5 873,-11.5 738,-11.5"/>
<text text-anchor="middle" x="805.5" y="-67.5" font-family="Helvetica,sans-Serif" font-size="10.00">MarkAsInvoicedFactory</text>
<polyline fill="none" stroke="black" points="738,-60.5 873,-60.5 "/>
<text text-anchor="middle" x="805.5" y="-48.5" font-family="Helvetica,sans-Serif" font-size="10.00"> </text>
<polyline fill="none" stroke="black" points="738,-41.5 873,-41.5 "/>
<text text-anchor="start" x="746" y="-29.5" font-family="Helvetica,sans-Serif" font-size="10.00">+ MarkAsInvoicedFactory()</text>
<text text-anchor="start" x="746" y="-18.5" font-family="Helvetica,sans-Serif" font-size="10.00">+ make()</text>
</a>
</g>
</g>
<!-- Node1&#45;&gt;Node7 -->
<g id="edge6" class="edge"><title>Node1&#45;&gt;Node7</title>
<path fill="none" stroke="midnightblue" d="M858.429,-119.194C849.117,-106.405 838.675,-92.0625 829.541,-79.5186"/>
<polygon fill="none" stroke="midnightblue" points="855.645,-121.316 864.361,-127.34 861.304,-117.196 855.645,-121.316"/>
</g>
<!-- Node8 -->
<g id="node8" class="node"><title>Node8</title>
<g id="a_node8"><a xlink:href="classtomoBay_1_1presenters_1_1presenterActions_1_1factories_1_1MarkAsUninvoicedFactory.html" target="_top" xlink:title="this is a factory that creates MarkAsUninvoiced objects ">
<polygon fill="white" stroke="black" points="891,-11.5 891,-79.5 1038,-79.5 1038,-11.5 891,-11.5"/>
<text text-anchor="middle" x="964.5" y="-67.5" font-family="Helvetica,sans-Serif" font-size="10.00">MarkAsUninvoicedFactory</text>
<polyline fill="none" stroke="black" points="891,-60.5 1038,-60.5 "/>
<text text-anchor="middle" x="964.5" y="-48.5" font-family="Helvetica,sans-Serif" font-size="10.00"> </text>
<polyline fill="none" stroke="black" points="891,-41.5 1038,-41.5 "/>
<text text-anchor="start" x="899" y="-29.5" font-family="Helvetica,sans-Serif" font-size="10.00">+ MarkAsUninvoicedFactory()</text>
<text text-anchor="start" x="899" y="-18.5" font-family="Helvetica,sans-Serif" font-size="10.00">+ make()</text>
</a>
</g>
</g>
<!-- Node1&#45;&gt;Node8 -->
<g id="edge7" class="edge"><title>Node1&#45;&gt;Node8</title>
<path fill="none" stroke="midnightblue" d="M910.901,-119.194C920.331,-106.405 930.906,-92.0625 940.155,-79.5186"/>
<polygon fill="none" stroke="midnightblue" points="908.012,-117.214 904.894,-127.34 913.646,-121.369 908.012,-117.214"/>
</g>
<!-- Node9 -->
<g id="node9" class="node"><title>Node9</title>
<g id="a_node9"><a xlink:href="classtomoBay_1_1presenters_1_1presenterActions_1_1factories_1_1OrderInfoFactory.html" target="_top" xlink:title="{OrderInfoFactory\n||+ OrderInfoFactory()\l+ make()\l}">
<polygon fill="white" stroke="black" points="1056,-11.5 1056,-79.5 1161,-79.5 1161,-11.5 1056,-11.5"/>
<text text-anchor="middle" x="1108.5" y="-67.5" font-family="Helvetica,sans-Serif" font-size="10.00">OrderInfoFactory</text>
<polyline fill="none" stroke="black" points="1056,-60.5 1161,-60.5 "/>
<text text-anchor="middle" x="1108.5" y="-48.5" font-family="Helvetica,sans-Serif" font-size="10.00"> </text>
<polyline fill="none" stroke="black" points="1056,-41.5 1161,-41.5 "/>
<text text-anchor="start" x="1064" y="-29.5" font-family="Helvetica,sans-Serif" font-size="10.00">+ OrderInfoFactory()</text>
<text text-anchor="start" x="1064" y="-18.5" font-family="Helvetica,sans-Serif" font-size="10.00">+ make()</text>
</a>
</g>
</g>
<!-- Node1&#45;&gt;Node9 -->
<g id="edge8" class="edge"><title>Node1&#45;&gt;Node9</title>
<path fill="none" stroke="midnightblue" d="M972.094,-125.347C997.055,-115.642 1023.87,-103.976 1047.5,-91 1053.7,-87.5926 1060.01,-83.6427 1066.09,-79.5308"/>
<polygon fill="none" stroke="midnightblue" points="970.718,-122.127 962.629,-128.97 973.22,-128.664 970.718,-122.127"/>
</g>
<!-- Node10 -->
<g id="node10" class="node"><title>Node10</title>
<g id="a_node10"><a xlink:href="classtomoBay_1_1presenters_1_1presenterActions_1_1factories_1_1PeriodicServicesControllerFactory.html" target="_top" xlink:title="this is a factory that creates PeriodicServicesController objects ">
<polygon fill="white" stroke="black" points="1179,-0.5 1179,-90.5 1320,-90.5 1320,-0.5 1179,-0.5"/>
<text text-anchor="start" x="1187" y="-78.5" font-family="Helvetica,sans-Serif" font-size="10.00">PeriodicServicesController</text>
<text text-anchor="middle" x="1249.5" y="-67.5" font-family="Helvetica,sans-Serif" font-size="10.00">Factory</text>
<polyline fill="none" stroke="black" points="1179,-60.5 1320,-60.5 "/>
<text text-anchor="middle" x="1249.5" y="-48.5" font-family="Helvetica,sans-Serif" font-size="10.00"> </text>
<polyline fill="none" stroke="black" points="1179,-41.5 1320,-41.5 "/>
<text text-anchor="start" x="1187" y="-29.5" font-family="Helvetica,sans-Serif" font-size="10.00">+ PeriodicServicesController</text>
<text text-anchor="start" x="1187" y="-18.5" font-family="Helvetica,sans-Serif" font-size="10.00">Factory()</text>
<text text-anchor="start" x="1187" y="-7.5" font-family="Helvetica,sans-Serif" font-size="10.00">+ make()</text>
</a>
</g>
</g>
<!-- Node1&#45;&gt;Node10 -->
<g id="edge9" class="edge"><title>Node1&#45;&gt;Node10</title>
<path fill="none" stroke="midnightblue" d="M972.931,-142.1C1030.46,-132.046 1106.42,-115.601 1170.5,-91 1173.29,-89.928 1176.11,-88.77 1178.92,-87.5447"/>
<polygon fill="none" stroke="midnightblue" points="972.039,-138.702 962.775,-143.842 973.222,-145.601 972.039,-138.702"/>
</g>
<!-- Node11 -->
<g id="node11" class="node"><title>Node11</title>
<g id="a_node11"><a xlink:href="classtomoBay_1_1presenters_1_1presenterActions_1_1factories_1_1PrintInvoicesFactory.html" target="_top" xlink:title="{PrintInvoicesFactory\n||+ PrintInvoicesFactory()\l+ make()\l}">
<polygon fill="white" stroke="black" points="1338.5,-11.5 1338.5,-79.5 1460.5,-79.5 1460.5,-11.5 1338.5,-11.5"/>
<text text-anchor="middle" x="1399.5" y="-67.5" font-family="Helvetica,sans-Serif" font-size="10.00">PrintInvoicesFactory</text>
<polyline fill="none" stroke="black" points="1338.5,-60.5 1460.5,-60.5 "/>
<text text-anchor="middle" x="1399.5" y="-48.5" font-family="Helvetica,sans-Serif" font-size="10.00"> </text>
<polyline fill="none" stroke="black" points="1338.5,-41.5 1460.5,-41.5 "/>
<text text-anchor="start" x="1346.5" y="-29.5" font-family="Helvetica,sans-Serif" font-size="10.00">+ PrintInvoicesFactory()</text>
<text text-anchor="start" x="1346.5" y="-18.5" font-family="Helvetica,sans-Serif" font-size="10.00">+ make()</text>
</a>
</g>
</g>
<!-- Node1&#45;&gt;Node11 -->
<g id="edge10" class="edge"><title>Node1&#45;&gt;Node11</title>
<path fill="none" stroke="midnightblue" d="M972.589,-153.2C1064.34,-148.854 1210.97,-134.879 1329.5,-91 1337.6,-88.0003 1345.75,-83.9623 1353.48,-79.5374"/>
<polygon fill="none" stroke="midnightblue" points="972.34,-149.708 962.506,-153.65 972.652,-156.701 972.34,-149.708"/>
</g>
<!-- Node12 -->
<g id="node12" class="node"><title>Node12</title>
<g id="a_node12"><a xlink:href="classtomoBay_1_1presenters_1_1presenterActions_1_1factories_1_1ReScanBuyerFactory.html" target="_top" xlink:title="{ReScanBuyerFactory\n||+ ReScanBuyerFactory()\l+ make()\l}">
<polygon fill="white" stroke="black" points="1479,-11.5 1479,-79.5 1604,-79.5 1604,-11.5 1479,-11.5"/>
<text text-anchor="middle" x="1541.5" y="-67.5" font-family="Helvetica,sans-Serif" font-size="10.00">ReScanBuyerFactory</text>
<polyline fill="none" stroke="black" points="1479,-60.5 1604,-60.5 "/>
<text text-anchor="middle" x="1541.5" y="-48.5" font-family="Helvetica,sans-Serif" font-size="10.00"> </text>
<polyline fill="none" stroke="black" points="1479,-41.5 1604,-41.5 "/>
<text text-anchor="start" x="1487" y="-29.5" font-family="Helvetica,sans-Serif" font-size="10.00">+ ReScanBuyerFactory()</text>
<text text-anchor="start" x="1487" y="-18.5" font-family="Helvetica,sans-Serif" font-size="10.00">+ make()</text>
</a>
</g>
</g>
<!-- Node1&#45;&gt;Node12 -->
<g id="edge11" class="edge"><title>Node1&#45;&gt;Node12</title>
<path fill="none" stroke="midnightblue" d="M972.813,-150.122C1113.03,-141.576 1379.9,-121.819 1469.5,-91 1477.98,-88.0845 1486.5,-84.0318 1494.57,-79.5494"/>
<polygon fill="none" stroke="midnightblue" points="972.3,-146.647 962.529,-150.743 972.721,-153.634 972.3,-146.647"/>
</g>
<!-- Node13 -->
<g id="node13" class="node"><title>Node13</title>
<g id="a_node13"><a xlink:href="classtomoBay_1_1presenters_1_1presenterActions_1_1factories_1_1ReScanListingFactory.html" target="_top" xlink:title="this is a factory that creates ReScanListing objects ">
<polygon fill="white" stroke="black" points="1622.5,-11.5 1622.5,-79.5 1750.5,-79.5 1750.5,-11.5 1622.5,-11.5"/>
<text text-anchor="middle" x="1686.5" y="-67.5" font-family="Helvetica,sans-Serif" font-size="10.00">ReScanListingFactory</text>
<polyline fill="none" stroke="black" points="1622.5,-60.5 1750.5,-60.5 "/>
<text text-anchor="middle" x="1686.5" y="-48.5" font-family="Helvetica,sans-Serif" font-size="10.00"> </text>
<polyline fill="none" stroke="black" points="1622.5,-41.5 1750.5,-41.5 "/>
<text text-anchor="start" x="1630.5" y="-29.5" font-family="Helvetica,sans-Serif" font-size="10.00">+ ReScanListingFactory()</text>
<text text-anchor="start" x="1630.5" y="-18.5" font-family="Helvetica,sans-Serif" font-size="10.00">+ make()</text>
</a>
</g>
</g>
<!-- Node1&#45;&gt;Node13 -->
<g id="edge12" class="edge"><title>Node1&#45;&gt;Node13</title>
<path fill="none" stroke="midnightblue" d="M972.638,-152.285C1139.82,-146.311 1496.7,-129.384 1613.5,-91 1622.1,-88.1734 1630.75,-84.1672 1638.93,-79.704"/>
<polygon fill="none" stroke="midnightblue" points="972.504,-148.787 962.633,-152.637 972.751,-155.783 972.504,-148.787"/>
</g>
</g>
</svg>
