<?xml version="1.0" encoding="UTF-8" standalone="no"?>
<!DOCTYPE svg PUBLIC "-//W3C//DTD SVG 1.1//EN"
 "http://www.w3.org/Graphics/SVG/1.1/DTD/svg11.dtd">
<!-- Generated by graphviz version 2.38.0 (20140413.2041)
 -->
<!-- Title: AbstractDigest&lt; T &gt; Pages: 1 -->
<svg width="155pt" height="215pt"
 viewBox="0.00 0.00 155.00 215.00" xmlns="http://www.w3.org/2000/svg" xmlns:xlink="http://www.w3.org/1999/xlink">
<g id="graph0" class="graph" transform="scale(1 1) rotate(0) translate(4 211)">
<title>AbstractDigest&lt; T &gt;</title>
<polygon fill="white" stroke="none" points="-4,4 -4,-211 151,-211 151,4 -4,4"/>
<!-- Node1 -->
<g id="node1" class="node"><title>Node1</title>
<polygon fill="#bfbfbf" stroke="black" points="20.5,-149.5 20.5,-206.5 126.5,-206.5 126.5,-149.5 20.5,-149.5"/>
<text text-anchor="middle" x="73.5" y="-194.5" font-family="Helvetica,sans-Serif" font-size="10.00">AbstractDigest&lt; T &gt;</text>
<polyline fill="none" stroke="black" points="20.5,-187.5 126.5,-187.5 "/>
<text text-anchor="middle" x="73.5" y="-175.5" font-family="Helvetica,sans-Serif" font-size="10.00"> </text>
<polyline fill="none" stroke="black" points="20.5,-168.5 126.5,-168.5 "/>
<text text-anchor="start" x="28.5" y="-156.5" font-family="Helvetica,sans-Serif" font-size="10.00">+ digest()</text>
</g>
<!-- Node2 -->
<g id="node2" class="node"><title>Node2</title>
<g id="a_node2"><a xlink:href="classtomoBay_1_1model_1_1royalMail_1_1RoyalMailPasswordDigest.html" target="_top" xlink:title="This class creates a password digest of the form seen below: ">
<polygon fill="white" stroke="black" points="0,-0.5 0,-112.5 147,-112.5 147,-0.5 0,-0.5"/>
<text text-anchor="start" x="8" y="-100.5" font-family="Helvetica,sans-Serif" font-size="10.00">RoyalMailPasswordDigest</text>
<text text-anchor="middle" x="73.5" y="-89.5" font-family="Helvetica,sans-Serif" font-size="10.00">&lt; String &gt;</text>
<polyline fill="none" stroke="black" points="0,-82.5 147,-82.5 "/>
<text text-anchor="start" x="8" y="-70.5" font-family="Helvetica,sans-Serif" font-size="10.00">&#45; nonce_M</text>
<text text-anchor="start" x="8" y="-59.5" font-family="Helvetica,sans-Serif" font-size="10.00">&#45; createdDate_M</text>
<text text-anchor="start" x="8" y="-48.5" font-family="Helvetica,sans-Serif" font-size="10.00">&#45; password_M</text>
<polyline fill="none" stroke="black" points="0,-41.5 147,-41.5 "/>
<text text-anchor="start" x="8" y="-29.5" font-family="Helvetica,sans-Serif" font-size="10.00">+ RoyalMailPasswordDigest()</text>
<text text-anchor="start" x="8" y="-18.5" font-family="Helvetica,sans-Serif" font-size="10.00">+ digest()</text>
<text text-anchor="start" x="8" y="-7.5" font-family="Helvetica,sans-Serif" font-size="10.00">&#45; sha1HashFn()</text>
</a>
</g>
</g>
<!-- Node1&#45;&gt;Node2 -->
<g id="edge1" class="edge"><title>Node1&#45;&gt;Node2</title>
<path fill="none" stroke="midnightblue" d="M73.5,-139.108C73.5,-130.748 73.5,-121.725 73.5,-112.834"/>
<polygon fill="none" stroke="midnightblue" points="70.0001,-139.284 73.5,-149.284 77.0001,-139.284 70.0001,-139.284"/>
</g>
</g>
</svg>
