<?xml version="1.0" encoding="UTF-8" standalone="no"?>
<!DOCTYPE svg PUBLIC "-//W3C//DTD SVG 1.1//EN"
 "http://www.w3.org/Graphics/SVG/1.1/DTD/svg11.dtd">
<!-- Generated by graphviz version 2.38.0 (20140413.2041)
 -->
<!-- Title: postFormatXMLString Pages: 1 -->
<svg width="961pt" height="253pt"
 viewBox="0.00 0.00 961.00 253.00" xmlns="http://www.w3.org/2000/svg" xmlns:xlink="http://www.w3.org/1999/xlink">
<g id="graph0" class="graph" transform="scale(1 1) rotate(0) translate(4 249)">
<title>postFormatXMLString</title>
<polygon fill="white" stroke="none" points="-4,4 -4,-249 957,-249 957,4 -4,4"/>
<!-- Node1 -->
<g id="node1" class="node"><title>Node1</title>
<polygon fill="#bfbfbf" stroke="black" points="0,-144 0,-163 112,-163 112,-144 0,-144"/>
<text text-anchor="middle" x="56" y="-151" font-family="Helvetica,sans-Serif" font-size="10.00">postFormatXMLString</text>
</g>
<!-- Node2 -->
<g id="node2" class="node"><title>Node2</title>
<g id="a_node2"><a xlink:href="classtomoBay_1_1model_1_1winstock_1_1Stock.html#adaf6c34595911864279e31f375aeedd1" target="_top" xlink:title="query winstock for the description of a particular part. ">
<polygon fill="white" stroke="black" points="154.5,-167 154.5,-186 252.5,-186 252.5,-167 154.5,-167"/>
<text text-anchor="middle" x="203.5" y="-174" font-family="Helvetica,sans-Serif" font-size="10.00">requestDescription</text>
</a>
</g>
</g>
<!-- Node1&#45;&gt;Node2 -->
<g id="edge1" class="edge"><title>Node1&#45;&gt;Node2</title>
<path fill="none" stroke="midnightblue" d="M122.194,-163.806C132.921,-165.501 143.871,-167.232 154.095,-168.848"/>
<polygon fill="midnightblue" stroke="midnightblue" points="122.431,-160.3 112.007,-162.195 121.338,-167.214 122.431,-160.3"/>
</g>
<!-- Node5 -->
<g id="node5" class="node"><title>Node5</title>
<g id="a_node5"><a xlink:href="classtomoBay_1_1model_1_1winstock_1_1Stock.html#a4cbeebb8b8e67f9e1478b8b0d77d4228" target="_top" xlink:title="query winstock for the weight of a particular invoice ">
<polygon fill="white" stroke="black" points="148,-121 148,-140 259,-140 259,-121 148,-121"/>
<text text-anchor="middle" x="203.5" y="-128" font-family="Helvetica,sans-Serif" font-size="10.00">requestInvoiceWeight</text>
</a>
</g>
</g>
<!-- Node1&#45;&gt;Node5 -->
<g id="edge4" class="edge"><title>Node1&#45;&gt;Node5</title>
<path fill="none" stroke="midnightblue" d="M122.047,-143.218C130.682,-141.853 139.464,-140.465 147.898,-139.131"/>
<polygon fill="midnightblue" stroke="midnightblue" points="121.338,-139.786 112.007,-144.805 122.431,-146.7 121.338,-139.786"/>
</g>
<!-- Node9 -->
<g id="node9" class="node"><title>Node9</title>
<g id="a_node9"><a xlink:href="classtomoBay_1_1model_1_1winstock_1_1Stock.html#a5171bbe1448b8e4840e617ffd75cc261" target="_top" xlink:title="query winstock for the last cost price of a particular part. ">
<polygon fill="white" stroke="black" points="159,-214 159,-233 248,-233 248,-214 159,-214"/>
<text text-anchor="middle" x="203.5" y="-221" font-family="Helvetica,sans-Serif" font-size="10.00">requestLastCost</text>
</a>
</g>
</g>
<!-- Node1&#45;&gt;Node9 -->
<g id="edge8" class="edge"><title>Node1&#45;&gt;Node9</title>
<path fill="none" stroke="midnightblue" d="M86.0082,-167.456C114.539,-181.182 157.346,-201.777 182.348,-213.805"/>
<polygon fill="midnightblue" stroke="midnightblue" points="87.4548,-164.268 76.9261,-163.086 84.42,-170.576 87.4548,-164.268"/>
</g>
<!-- Node11 -->
<g id="node11" class="node"><title>Node11</title>
<g id="a_node11"><a xlink:href="classtomoBay_1_1model_1_1winstock_1_1Stock.html#a06d21b6ad2b8a746c52fadb5d4711778" target="_top" xlink:title="query winstock for the stock level of a particular part. ">
<polygon fill="white" stroke="black" points="154.5,-60 154.5,-79 252.5,-79 252.5,-60 154.5,-60"/>
<text text-anchor="middle" x="203.5" y="-67" font-family="Helvetica,sans-Serif" font-size="10.00">requestStockLevel</text>
</a>
</g>
</g>
<!-- Node1&#45;&gt;Node11 -->
<g id="edge11" class="edge"><title>Node1&#45;&gt;Node11</title>
<path fill="none" stroke="midnightblue" d="M82.6687,-138.681C112.485,-121.467 160.797,-93.5761 186.004,-79.0235"/>
<polygon fill="midnightblue" stroke="midnightblue" points="80.6011,-135.833 73.6907,-143.864 84.101,-141.895 80.6011,-135.833"/>
</g>
<!-- Node3 -->
<g id="node3" class="node"><title>Node3</title>
<g id="a_node3"><a xlink:href="classtomoBay_1_1model_1_1dataTypes_1_1order_1_1Part.html#a35fa0786da9722faf378ccf27cccbea6" target="_top" xlink:title="find the description of this part, using winstock ">
<polygon fill="white" stroke="black" points="313.5,-165.5 313.5,-195.5 474.5,-195.5 474.5,-165.5 313.5,-165.5"/>
<text text-anchor="start" x="321.5" y="-183.5" font-family="Helvetica,sans-Serif" font-size="10.00">tomoBay.model.dataTypes.order.</text>
<text text-anchor="middle" x="394" y="-172.5" font-family="Helvetica,sans-Serif" font-size="10.00">Part.getDescription</text>
</a>
</g>
</g>
<!-- Node2&#45;&gt;Node3 -->
<g id="edge2" class="edge"><title>Node2&#45;&gt;Node3</title>
<path fill="none" stroke="midnightblue" d="M262.771,-177.737C278.708,-178.075 296.261,-178.447 313.178,-178.806"/>
<polygon fill="midnightblue" stroke="midnightblue" points="262.626,-174.233 252.554,-177.52 262.478,-181.231 262.626,-174.233"/>
</g>
<!-- Node4 -->
<g id="node4" class="node"><title>Node4</title>
<g id="a_node4"><a xlink:href="classtomoBay_1_1model_1_1dataTypes_1_1order_1_1Part.html#a21a16cfaa442e4ae57f10d8cc440c1fa" target="_top" xlink:title="default ctor ">
<polygon fill="white" stroke="black" points="545.5,-191.5 545.5,-221.5 706.5,-221.5 706.5,-191.5 545.5,-191.5"/>
<text text-anchor="start" x="553.5" y="-209.5" font-family="Helvetica,sans-Serif" font-size="10.00">tomoBay.model.dataTypes.order.</text>
<text text-anchor="middle" x="626" y="-198.5" font-family="Helvetica,sans-Serif" font-size="10.00">Part.Part</text>
</a>
</g>
</g>
<!-- Node3&#45;&gt;Node4 -->
<g id="edge3" class="edge"><title>Node3&#45;&gt;Node4</title>
<path fill="none" stroke="midnightblue" d="M484.815,-190.653C504.783,-192.91 525.816,-195.288 545.344,-197.495"/>
<polygon fill="midnightblue" stroke="midnightblue" points="485.127,-187.166 474.797,-189.521 484.341,-194.122 485.127,-187.166"/>
</g>
<!-- Node6 -->
<g id="node6" class="node"><title>Node6</title>
<g id="a_node6"><a xlink:href="classtomoBay_1_1presenters_1_1presenterActions_1_1concreteActions_1_1GenerateRoyalMailCSV.html#a47374b8c1f5da171d280ddcb6b7df252" target="_top" xlink:title="queries winstock for the weight associated with the invoice number provided as an argument...">
<polygon fill="white" stroke="black" points="311,-106 311,-147 477,-147 477,-106 311,-106"/>
<text text-anchor="start" x="319" y="-135" font-family="Helvetica,sans-Serif" font-size="10.00">tomoBay.presenters.presenter</text>
<text text-anchor="start" x="319" y="-124" font-family="Helvetica,sans-Serif" font-size="10.00">Actions.concreteActions.Generate</text>
<text text-anchor="middle" x="394" y="-113" font-family="Helvetica,sans-Serif" font-size="10.00">RoyalMailCSV.getInvoiceWeight</text>
</a>
</g>
</g>
<!-- Node5&#45;&gt;Node6 -->
<g id="edge5" class="edge"><title>Node5&#45;&gt;Node6</title>
<path fill="none" stroke="midnightblue" d="M269.111,-129.129C282.56,-128.844 296.906,-128.539 310.889,-128.242"/>
<polygon fill="midnightblue" stroke="midnightblue" points="268.945,-125.632 259.022,-129.343 269.094,-132.63 268.945,-125.632"/>
</g>
<!-- Node7 -->
<g id="node7" class="node"><title>Node7</title>
<g id="a_node7"><a xlink:href="classtomoBay_1_1presenters_1_1presenterActions_1_1concreteActions_1_1GenerateRoyalMailCSV.html#adb3dedf31dc2c7fc796f20406c235ccd" target="_top" xlink:title="performs the action specified ">
<polygon fill="white" stroke="black" points="543,-109 543,-150 709,-150 709,-109 543,-109"/>
<text text-anchor="start" x="551" y="-138" font-family="Helvetica,sans-Serif" font-size="10.00">tomoBay.presenters.presenter</text>
<text text-anchor="start" x="551" y="-127" font-family="Helvetica,sans-Serif" font-size="10.00">Actions.concreteActions.Generate</text>
<text text-anchor="middle" x="626" y="-116" font-family="Helvetica,sans-Serif" font-size="10.00">RoyalMailCSV.execute</text>
</a>
</g>
</g>
<!-- Node6&#45;&gt;Node7 -->
<g id="edge6" class="edge"><title>Node6&#45;&gt;Node7</title>
<path fill="none" stroke="midnightblue" d="M487.209,-127.703C505.649,-127.943 524.903,-128.194 542.97,-128.43"/>
<polygon fill="midnightblue" stroke="midnightblue" points="487.106,-124.201 477.061,-127.57 487.015,-131.201 487.106,-124.201"/>
</g>
<!-- Node8 -->
<g id="node8" class="node"><title>Node8</title>
<g id="a_node8"><a xlink:href="classtomoBayTests_1_1presenters_1_1presenterActions_1_1concreteActions_1_1GenerateRoyalMailCSVTest.html#a1b260e6772d2ced79e03e1c8c5acd12b" target="_top" xlink:title="tomoBayTests.presenters.presenter\lActions.concreteActions.GenerateRoyal\lMailCSVTest.testExecute">
<polygon fill="white" stroke="black" points="760.5,-109 760.5,-150 951.5,-150 951.5,-109 760.5,-109"/>
<text text-anchor="start" x="768.5" y="-138" font-family="Helvetica,sans-Serif" font-size="10.00">tomoBayTests.presenters.presenter</text>
<text text-anchor="start" x="768.5" y="-127" font-family="Helvetica,sans-Serif" font-size="10.00">Actions.concreteActions.GenerateRoyal</text>
<text text-anchor="middle" x="856" y="-116" font-family="Helvetica,sans-Serif" font-size="10.00">MailCSVTest.testExecute</text>
</a>
</g>
</g>
<!-- Node7&#45;&gt;Node8 -->
<g id="edge7" class="edge"><title>Node7&#45;&gt;Node8</title>
<path fill="none" stroke="midnightblue" d="M719.525,-129.5C733.002,-129.5 746.895,-129.5 760.412,-129.5"/>
<polygon fill="midnightblue" stroke="midnightblue" points="719.313,-126 709.313,-129.5 719.313,-133 719.313,-126"/>
</g>
<!-- Node10 -->
<g id="node10" class="node"><title>Node10</title>
<g id="a_node10"><a xlink:href="classtomoBay_1_1model_1_1dataTypes_1_1order_1_1Part.html#aee50f745ad12c48b5f2dc8eda4fdd6ec" target="_top" xlink:title="retrieve the cost of this particular part from winstock ">
<polygon fill="white" stroke="black" points="313.5,-214.5 313.5,-244.5 474.5,-244.5 474.5,-214.5 313.5,-214.5"/>
<text text-anchor="start" x="321.5" y="-232.5" font-family="Helvetica,sans-Serif" font-size="10.00">tomoBay.model.dataTypes.order.</text>
<text text-anchor="middle" x="394" y="-221.5" font-family="Helvetica,sans-Serif" font-size="10.00">Part.getCost</text>
</a>
</g>
</g>
<!-- Node9&#45;&gt;Node10 -->
<g id="edge9" class="edge"><title>Node9&#45;&gt;Node10</title>
<path fill="none" stroke="midnightblue" d="M258.533,-225.22C275.589,-225.763 294.807,-226.374 313.264,-226.962"/>
<polygon fill="midnightblue" stroke="midnightblue" points="258.326,-221.712 248.219,-224.892 258.103,-228.708 258.326,-221.712"/>
</g>
<!-- Node10&#45;&gt;Node4 -->
<g id="edge10" class="edge"><title>Node10&#45;&gt;Node4</title>
<path fill="none" stroke="midnightblue" d="M484.815,-220.519C504.783,-218.522 525.816,-216.418 545.344,-214.466"/>
<polygon fill="midnightblue" stroke="midnightblue" points="484.399,-217.043 474.797,-221.52 485.096,-224.008 484.399,-217.043"/>
</g>
<!-- Node12 -->
<g id="node12" class="node"><title>Node12</title>
<g id="a_node12"><a xlink:href="classtomoBay_1_1presenters_1_1helpers_1_1pickeability_1_1ItemStockLevel.html#a22844faa947573bb01d9313f7bdb1e56" target="_top" xlink:title="Takes the list of items generated in this.assembleItemsList and checks a PartList associated with eac...">
<polygon fill="white" stroke="black" points="295,-2.5 295,-32.5 493,-32.5 493,-2.5 295,-2.5"/>
<text text-anchor="start" x="303" y="-20.5" font-family="Helvetica,sans-Serif" font-size="10.00">tomoBay.presenters.helpers.pickeability.</text>
<text text-anchor="middle" x="394" y="-9.5" font-family="Helvetica,sans-Serif" font-size="10.00">ItemStockLevel.checkStockLevelOfItems</text>
</a>
</g>
</g>
<!-- Node11&#45;&gt;Node12 -->
<g id="edge12" class="edge"><title>Node11&#45;&gt;Node12</title>
<path fill="none" stroke="midnightblue" d="M248.925,-57.245C275.659,-49.87 309.899,-40.4243 338.292,-32.5918"/>
<polygon fill="midnightblue" stroke="midnightblue" points="247.783,-53.9291 239.074,-59.9624 249.645,-60.677 247.783,-53.9291"/>
</g>
<!-- Node15 -->
<g id="node15" class="node"><title>Node15</title>
<g id="a_node15"><a xlink:href="classtomoBay_1_1model_1_1services_1_1checkErrorsService_1_1OnRunning.html#ae4a4f4cadce2787c7e80005639fbd5d9" target="_top" xlink:title="this method defines what to do in the given derived state ">
<polygon fill="white" stroke="black" points="311.5,-54.5 311.5,-84.5 476.5,-84.5 476.5,-54.5 311.5,-54.5"/>
<text text-anchor="start" x="319.5" y="-72.5" font-family="Helvetica,sans-Serif" font-size="10.00">tomoBay.model.services.check</text>
<text text-anchor="middle" x="394" y="-61.5" font-family="Helvetica,sans-Serif" font-size="10.00">ErrorsService.OnRunning.execute</text>
</a>
</g>
</g>
<!-- Node11&#45;&gt;Node15 -->
<g id="edge15" class="edge"><title>Node11&#45;&gt;Node15</title>
<path fill="none" stroke="midnightblue" d="M262.903,-69.5C278.23,-69.5 295.043,-69.5 311.345,-69.5"/>
<polygon fill="midnightblue" stroke="midnightblue" points="262.554,-66.0001 252.554,-69.5 262.554,-73.0001 262.554,-66.0001"/>
</g>
<!-- Node13 -->
<g id="node13" class="node"><title>Node13</title>
<g id="a_node13"><a xlink:href="classtomoBay_1_1presenters_1_1helpers_1_1pickeability_1_1ItemStockLevel.html#a1aed814db05c4991e9bc719f39ea62ce" target="_top" xlink:title="tomoBay.presenters.helpers.pickeability.\lItemStockLevel.check">
<polygon fill="white" stroke="black" points="529,-0.5 529,-30.5 723,-30.5 723,-0.5 529,-0.5"/>
<text text-anchor="start" x="537" y="-18.5" font-family="Helvetica,sans-Serif" font-size="10.00">tomoBay.presenters.helpers.pickeability.</text>
<text text-anchor="middle" x="626" y="-7.5" font-family="Helvetica,sans-Serif" font-size="10.00">ItemStockLevel.check</text>
</a>
</g>
</g>
<!-- Node12&#45;&gt;Node13 -->
<g id="edge13" class="edge"><title>Node12&#45;&gt;Node13</title>
<path fill="none" stroke="midnightblue" d="M503.247,-16.5587C511.828,-16.4841 520.459,-16.409 528.949,-16.3352"/>
<polygon fill="midnightblue" stroke="midnightblue" points="503.177,-13.0591 493.208,-16.646 503.238,-20.0588 503.177,-13.0591"/>
</g>
<!-- Node14 -->
<g id="node14" class="node"><title>Node14</title>
<g id="a_node14"><a xlink:href="classtomoBay_1_1presenters_1_1helpers_1_1pickeability_1_1Pickeablity.html#ae05e03af15e33d53f9e0511ec0295a04" target="_top" xlink:title="default ctor ">
<polygon fill="white" stroke="black" points="759,-0.5 759,-30.5 953,-30.5 953,-0.5 759,-0.5"/>
<text text-anchor="start" x="767" y="-18.5" font-family="Helvetica,sans-Serif" font-size="10.00">tomoBay.presenters.helpers.pickeability.</text>
<text text-anchor="middle" x="856" y="-7.5" font-family="Helvetica,sans-Serif" font-size="10.00">Pickeablity.Pickeablity</text>
</a>
</g>
</g>
<!-- Node13&#45;&gt;Node14 -->
<g id="edge14" class="edge"><title>Node13&#45;&gt;Node14</title>
<path fill="none" stroke="midnightblue" d="M733.043,-15.5C741.605,-15.5 750.227,-15.5 758.714,-15.5"/>
<polygon fill="midnightblue" stroke="midnightblue" points="733.032,-12.0001 723.032,-15.5 733.032,-19.0001 733.032,-12.0001"/>
</g>
<!-- Node16 -->
<g id="node16" class="node"><title>Node16</title>
<g id="a_node16"><a xlink:href="classtomoBay_1_1model_1_1services_1_1checkErrorsService_1_1CheckErrorsService.html#ae3b0a282dcba7f2d675ca89b1dd48487" target="_top" xlink:title="tomoBay.model.services.check\lErrorsService.CheckErrorsService.on\lRunning">
<polygon fill="white" stroke="black" points="536,-49 536,-90 716,-90 716,-49 536,-49"/>
<text text-anchor="start" x="544" y="-78" font-family="Helvetica,sans-Serif" font-size="10.00">tomoBay.model.services.check</text>
<text text-anchor="start" x="544" y="-67" font-family="Helvetica,sans-Serif" font-size="10.00">ErrorsService.CheckErrorsService.on</text>
<text text-anchor="middle" x="626" y="-56" font-family="Helvetica,sans-Serif" font-size="10.00">Running</text>
</a>
</g>
</g>
<!-- Node15&#45;&gt;Node16 -->
<g id="edge16" class="edge"><title>Node15&#45;&gt;Node16</title>
<path fill="none" stroke="midnightblue" d="M487.154,-69.5C503.163,-69.5 519.786,-69.5 535.716,-69.5"/>
<polygon fill="midnightblue" stroke="midnightblue" points="486.737,-66.0001 476.737,-69.5 486.737,-73.0001 486.737,-66.0001"/>
</g>
</g>
</svg>
