<?xml version="1.0" encoding="UTF-8" standalone="no"?>
<!DOCTYPE svg PUBLIC "-//W3C//DTD SVG 1.1//EN"
 "http://www.w3.org/Graphics/SVG/1.1/DTD/svg11.dtd">
<!-- Generated by graphviz version 2.38.0 (20140413.2041)
 -->
<!-- Title: requestInvoiceWeight Pages: 1 -->
<!--zoomable 165 -->
<svg id="main" version="1.1" xmlns="http://www.w3.org/2000/svg" xmlns:xlink="http://www.w3.org/1999/xlink" xml:space="preserve" onload="init(evt)">
<style type="text/css"><![CDATA[
.edge:hover path { stroke: red; }
.edge:hover polygon { stroke: red; fill: red; }
]]></style>
<script type="text/javascript"><![CDATA[
var edges = document.getElementsByTagName('g');
if (edges && edges.length) {
  for (var i=0;i<edges.length;i++) {
    if (edges[i].id.substr(0,4)=='edge') {
      edges[i].setAttribute('class','edge');
    }
  }
}
]]></script>
        <defs>
                <circle id="rim" cx="0" cy="0" r="7"/>
                <circle id="rim2" cx="0" cy="0" r="3.5"/>
                <g id="zoomPlus">
                        <use xlink:href="#rim" fill="#404040">
                                <set attributeName="fill" to="#808080" begin="zoomplus.mouseover" end="zoomplus.mouseout"/>
                        </use>
                        <path d="M-4,0h8M0,-4v8" fill="none" stroke="white" stroke-width="1.5" pointer-events="none"/>
                </g>
                <g id="zoomMin">
                        <use xlink:href="#rim" fill="#404040">
                                <set attributeName="fill" to="#808080" begin="zoomminus.mouseover" end="zoomminus.mouseout"/>
                        </use>
                        <path d="M-4,0h8" fill="none" stroke="white" stroke-width="1.5" pointer-events="none"/>
                </g>
                <g id="dirArrow">
                        <path fill="none" stroke="white" stroke-width="1.5" d="M0,-3.0v7 M-2.5,-0.5L0,-3.0L2.5,-0.5"/>
                </g>
               <g id="resetDef">
                       <use xlink:href="#rim2" fill="#404040">
                               <set attributeName="fill" to="#808080" begin="reset.mouseover" end="reset.mouseout"/>
                       </use>
               </g>
        </defs>

<script type="text/javascript">
var viewWidth = 566;
var viewHeight = 165;
var sectionId = 'dynsection-7';
</script>
<script xlink:href="svgpan.js"/>
<svg id="graph" class="graph">
<g id="viewport">
<title>requestInvoiceWeight</title>
<polygon fill="white" stroke="none" points="-4,4 -4,-161 562,-161 562,4 -4,4"/>
<!-- Node1 -->
<g id="node1" class="node"><title>Node1</title>
<polygon fill="#bfbfbf" stroke="black" points="0,-50 0,-69 111,-69 111,-50 0,-50"/>
<text text-anchor="middle" x="55.5" y="-57" font-family="Helvetica,sans-Serif" font-size="10.00">requestInvoiceWeight</text>
</g>
<!-- Node2 -->
<g id="node2" class="node"><title>Node2</title>
<g id="a_node2"><a xlink:href="classtomoBay_1_1helpers_1_1ConfigReader.html#a310420c6db22982498520c2ad7a2b82f" target="_top" xlink:title="find the value of the config variable specified in the arguments. ">
<polygon fill="white" stroke="black" points="147,-88 147,-107 338,-107 338,-88 147,-88"/>
<text text-anchor="middle" x="242.5" y="-95" font-family="Helvetica,sans-Serif" font-size="10.00">tomoBay.helpers.ConfigReader.getConf</text>
</a>
</g>
</g>
<!-- Node1&#45;&gt;Node2 -->
<g id="edge1" class="edge"><title>Node1&#45;&gt;Node2</title>
<path fill="none" stroke="midnightblue" d="M103.183,-69.089C128.146,-74.2165 159.064,-80.5672 185.334,-85.9632"/>
<polygon fill="midnightblue" stroke="midnightblue" points="184.653,-89.3962 195.152,-87.9799 186.061,-82.5394 184.653,-89.3962"/>
</g>
<!-- Node5 -->
<g id="node5" class="node"><title>Node5</title>
<g id="a_node5"><a xlink:href="classtomoBay_1_1helpers_1_1XMLParser.html#a9936151017dd4e908cf37d453b22c8ef" target="_top" xlink:title="parses an XML formatted string looking for the first tag specified in the parameters. ">
<polygon fill="white" stroke="black" points="381.5,-50 381.5,-69 550.5,-69 550.5,-50 381.5,-50"/>
<text text-anchor="middle" x="466" y="-57" font-family="Helvetica,sans-Serif" font-size="10.00">tomoBay.helpers.XMLParser.parse</text>
</a>
</g>
</g>
<!-- Node1&#45;&gt;Node5 -->
<g id="edge5" class="edge"><title>Node1&#45;&gt;Node5</title>
<path fill="none" stroke="midnightblue" d="M111.168,-59.5C177.572,-59.5 290.67,-59.5 371.119,-59.5"/>
<polygon fill="midnightblue" stroke="midnightblue" points="371.256,-63.0001 381.256,-59.5 371.256,-56.0001 371.256,-63.0001"/>
</g>
<!-- Node6 -->
<g id="node6" class="node"><title>Node6</title>
<g id="a_node6"><a xlink:href="classtomoBay_1_1model_1_1winstock_1_1Stock.html#a42fa652d82ed49749a0ad929a6c798d0" target="_top" xlink:title="remove the header bumpf from the bottom of the response ">
<polygon fill="white" stroke="black" points="186.5,-9 186.5,-28 298.5,-28 298.5,-9 186.5,-9"/>
<text text-anchor="middle" x="242.5" y="-16" font-family="Helvetica,sans-Serif" font-size="10.00">postFormatXMLString</text>
</a>
</g>
</g>
<!-- Node1&#45;&gt;Node6 -->
<g id="edge6" class="edge"><title>Node1&#45;&gt;Node6</title>
<path fill="none" stroke="midnightblue" d="M99.4077,-49.9907C125.931,-44.1126 160.178,-36.5228 188.404,-30.2673"/>
<polygon fill="midnightblue" stroke="midnightblue" points="189.499,-33.6095 198.505,-28.0286 187.984,-26.7753 189.499,-33.6095"/>
</g>
<!-- Node3 -->
<g id="node3" class="node"><title>Node3</title>
<g id="a_node3"><a xlink:href="classtomoBay_1_1helpers_1_1ConfigReader.html#ab69b4a3a0fc6a7c7440362b06ec4b4d3" target="_top" xlink:title="reads the whole config file into a string ">
<polygon fill="white" stroke="black" points="381,-126.5 381,-156.5 551,-156.5 551,-126.5 381,-126.5"/>
<text text-anchor="start" x="389" y="-144.5" font-family="Helvetica,sans-Serif" font-size="10.00">tomoBay.helpers.ConfigReader.get</text>
<text text-anchor="middle" x="466" y="-133.5" font-family="Helvetica,sans-Serif" font-size="10.00">Config</text>
</a>
</g>
</g>
<!-- Node2&#45;&gt;Node3 -->
<g id="edge2" class="edge"><title>Node2&#45;&gt;Node3</title>
<path fill="none" stroke="midnightblue" d="M291.562,-107.047C317.168,-112.134 349.441,-118.545 379.183,-124.453"/>
<polygon fill="midnightblue" stroke="midnightblue" points="378.669,-127.919 389.16,-126.435 380.033,-121.053 378.669,-127.919"/>
</g>
<!-- Node4 -->
<g id="node4" class="node"><title>Node4</title>
<g id="a_node4"><a xlink:href="enumtomoBay_1_1helpers_1_1Config.html#a43cb99408ba4f337caad395ca67f9a6c" target="_top" xlink:title="return the string associated with the enum const ">
<polygon fill="white" stroke="black" points="389.5,-88 389.5,-107 542.5,-107 542.5,-88 389.5,-88"/>
<text text-anchor="middle" x="466" y="-95" font-family="Helvetica,sans-Serif" font-size="10.00">tomoBay.helpers.Config.getVar</text>
</a>
</g>
</g>
<!-- Node2&#45;&gt;Node4 -->
<g id="edge3" class="edge"><title>Node2&#45;&gt;Node4</title>
<path fill="none" stroke="midnightblue" d="M338.078,-97.5C351.759,-97.5 365.775,-97.5 379.269,-97.5"/>
<polygon fill="midnightblue" stroke="midnightblue" points="379.472,-101 389.472,-97.5 379.472,-94.0001 379.472,-101"/>
</g>
<!-- Node2&#45;&gt;Node5 -->
<g id="edge4" class="edge"><title>Node2&#45;&gt;Node5</title>
<path fill="none" stroke="midnightblue" d="M299.108,-87.96C329.52,-82.7426 367.38,-76.2475 399.249,-70.78"/>
<polygon fill="midnightblue" stroke="midnightblue" points="400.105,-74.1844 409.369,-69.0439 398.921,-67.2852 400.105,-74.1844"/>
</g>
<!-- Node7 -->
<g id="node7" class="node"><title>Node7</title>
<g id="a_node7"><a xlink:href="classtomoBay_1_1model_1_1net_1_1HttpResponse.html#afb798c825935128953439404fb763997" target="_top" xlink:title="get the Response message ">
<polygon fill="white" stroke="black" points="374,-0.5 374,-30.5 558,-30.5 558,-0.5 374,-0.5"/>
<text text-anchor="start" x="382" y="-18.5" font-family="Helvetica,sans-Serif" font-size="10.00">tomoBay.model.net.HttpResponse.get</text>
<text text-anchor="middle" x="466" y="-7.5" font-family="Helvetica,sans-Serif" font-size="10.00">ResponseMessage</text>
</a>
</g>
</g>
<!-- Node6&#45;&gt;Node7 -->
<g id="edge7" class="edge"><title>Node6&#45;&gt;Node7</title>
<path fill="none" stroke="midnightblue" d="M298.537,-17.7546C318.204,-17.4882 341.039,-17.1789 363.376,-16.8764"/>
<polygon fill="midnightblue" stroke="midnightblue" points="363.639,-20.3733 373.591,-16.7381 363.544,-13.3739 363.639,-20.3733"/>
</g>
</g>
</svg>
        <g id="navigator" transform="translate(0 0)" fill="#404254">
                <rect fill="#f2f5e9" fill-opacity="0.5" stroke="#606060" stroke-width=".5" x="0" y="0" width="60" height="60"/>
                <use id="zoomplus" xlink:href="#zoomPlus" x="17" y="9" onmousedown="handleZoom(evt,'in')"/>
                <use id="zoomminus" xlink:href="#zoomMin" x="42" y="9" onmousedown="handleZoom(evt,'out')"/>
                <use id="reset" xlink:href="#resetDef" x="30" y="36" onmousedown="handleReset()"/>
                <g id="arrowUp" xlink:href="#dirArrow" transform="translate(30 24)" onmousedown="handlePan(0,-1)">
                  <use xlink:href="#rim" fill="#404040">
                        <set attributeName="fill" to="#808080" begin="arrowUp.mouseover" end="arrowUp.mouseout"/>
                  </use>
                  <path fill="none" stroke="white" stroke-width="1.5" d="M0,-3.0v7 M-2.5,-0.5L0,-3.0L2.5,-0.5"/>
                </g>
                <g id="arrowRight" xlink:href="#dirArrow" transform="rotate(90) translate(36 -43)" onmousedown="handlePan(1,0)">
                  <use xlink:href="#rim" fill="#404040">
                        <set attributeName="fill" to="#808080" begin="arrowRight.mouseover" end="arrowRight.mouseout"/>
                  </use>
                  <path fill="none" stroke="white" stroke-width="1.5" d="M0,-3.0v7 M-2.5,-0.5L0,-3.0L2.5,-0.5"/>
                </g>
                <g id="arrowDown" xlink:href="#dirArrow" transform="rotate(180) translate(-30 -48)" onmousedown="handlePan(0,1)">
                  <use xlink:href="#rim" fill="#404040">
                        <set attributeName="fill" to="#808080" begin="arrowDown.mouseover" end="arrowDown.mouseout"/>
                  </use>
                  <path fill="none" stroke="white" stroke-width="1.5" d="M0,-3.0v7 M-2.5,-0.5L0,-3.0L2.5,-0.5"/>
                </g>
                <g id="arrowLeft" xlink:href="#dirArrow" transform="rotate(270) translate(-36 17)" onmousedown="handlePan(-1,0)">
                  <use xlink:href="#rim" fill="#404040">
                        <set attributeName="fill" to="#808080" begin="arrowLeft.mouseover" end="arrowLeft.mouseout"/>
                  </use>
                  <path fill="none" stroke="white" stroke-width="1.5" d="M0,-3.0v7 M-2.5,-0.5L0,-3.0L2.5,-0.5"/>
                </g>
        </g>
        <svg viewBox="0 0 15 15" width="100%" height="30px" preserveAspectRatio="xMaxYMin meet">
         <g id="arrow_out" transform="scale(0.3 0.3)">
          <a xlink:href="classtomoBay_1_1model_1_1winstock_1_1Stock_a4cbeebb8b8e67f9e1478b8b0d77d4228_cgraph_org.svg" target="_base">
           <rect id="button" ry="5" rx="5" y="6" x="6" height="38" width="38"
                fill="#f2f5e9" fill-opacity="0.5" stroke="#606060" stroke-width="1.0"/>
           <path id="arrow"
             d="M 11.500037,31.436501 C 11.940474,20.09759 22.043105,11.32322 32.158766,21.979434 L 37.068811,17.246167 C 37.068811,17.246167 37.088388,32 37.088388,32 L 22.160133,31.978069 C 22.160133,31.978069 26.997745,27.140456 26.997745,27.140456 C 18.528582,18.264221 13.291696,25.230495 11.500037,31.436501 z"
             style="fill:#404040;"/>
          </a>
         </g>
        </svg>
</svg>
