<?xml version="1.0" encoding="UTF-8" standalone="no"?>
<!DOCTYPE svg PUBLIC "-//W3C//DTD SVG 1.1//EN"
 "http://www.w3.org/Graphics/SVG/1.1/DTD/svg11.dtd">
<!-- Generated by graphviz version 2.38.0 (20140413.2041)
 -->
<!-- Title: testDigest Pages: 1 -->
<svg width="459pt" height="50pt"
 viewBox="0.00 0.00 459.00 50.00" xmlns="http://www.w3.org/2000/svg" xmlns:xlink="http://www.w3.org/1999/xlink">
<g id="graph0" class="graph" transform="scale(1 1) rotate(0) translate(4 46)">
<title>testDigest</title>
<polygon fill="white" stroke="none" points="-4,4 -4,-46 455,-46 455,4 -4,4"/>
<!-- Node1 -->
<g id="node1" class="node"><title>Node1</title>
<polygon fill="#bfbfbf" stroke="black" points="0,-11.5 0,-30.5 62,-30.5 62,-11.5 0,-11.5"/>
<text text-anchor="middle" x="31" y="-18.5" font-family="Helvetica,sans-Serif" font-size="10.00">testDigest</text>
</g>
<!-- Node2 -->
<g id="node2" class="node"><title>Node2</title>
<g id="a_node2"><a xlink:href="classtomoBay_1_1model_1_1royalMail_1_1RoyalMailPasswordDigest.html#adab6936c2e84f9a28f101f61aecac8da" target="_top" xlink:title="retrieve the digest of the password and other parameters passed into the constructor. ">
<polygon fill="white" stroke="black" points="98,-6 98,-36 259,-36 259,-6 98,-6"/>
<text text-anchor="start" x="106" y="-24" font-family="Helvetica,sans-Serif" font-size="10.00">tomoBay.model.royalMail.</text>
<text text-anchor="middle" x="178.5" y="-13" font-family="Helvetica,sans-Serif" font-size="10.00">RoyalMailPasswordDigest.digest</text>
</a>
</g>
</g>
<!-- Node1&#45;&gt;Node2 -->
<g id="edge1" class="edge"><title>Node1&#45;&gt;Node2</title>
<path fill="none" stroke="midnightblue" d="M62.1477,-21C69.9109,-21 78.6735,-21 87.8137,-21"/>
<polygon fill="midnightblue" stroke="midnightblue" points="87.8507,-24.5001 97.8507,-21 87.8506,-17.5001 87.8507,-24.5001"/>
</g>
<!-- Node3 -->
<g id="node3" class="node"><title>Node3</title>
<g id="a_node3"><a xlink:href="classtomoBay_1_1model_1_1royalMail_1_1RoyalMailPasswordDigest.html#a4fe8b063e7049aa45148c45152218649" target="_top" xlink:title="This method creates an SHA&#45;1 hash of the message provided. ">
<polygon fill="white" stroke="black" points="295,-0.5 295,-41.5 451,-41.5 451,-0.5 295,-0.5"/>
<text text-anchor="start" x="303" y="-29.5" font-family="Helvetica,sans-Serif" font-size="10.00">tomoBay.model.royalMail.</text>
<text text-anchor="start" x="303" y="-18.5" font-family="Helvetica,sans-Serif" font-size="10.00">RoyalMailPasswordDigest.sha1</text>
<text text-anchor="middle" x="373" y="-7.5" font-family="Helvetica,sans-Serif" font-size="10.00">HashFn</text>
</a>
</g>
</g>
<!-- Node2&#45;&gt;Node3 -->
<g id="edge2" class="edge"><title>Node2&#45;&gt;Node3</title>
<path fill="none" stroke="midnightblue" d="M259.187,-21C267.57,-21 276.125,-21 284.589,-21"/>
<polygon fill="midnightblue" stroke="midnightblue" points="284.85,-24.5001 294.85,-21 284.85,-17.5001 284.85,-24.5001"/>
</g>
</g>
</svg>
