<?xml version="1.0" encoding="UTF-8" standalone="no"?>
<!DOCTYPE svg PUBLIC "-//W3C//DTD SVG 1.1//EN"
 "http://www.w3.org/Graphics/SVG/1.1/DTD/svg11.dtd">
<!-- Generated by graphviz version 2.38.0 (20140413.2041)
 -->
<!-- Title: addRow Pages: 1 -->
<svg width="159pt" height="66pt"
 viewBox="0.00 0.00 159.00 66.00" xmlns="http://www.w3.org/2000/svg" xmlns:xlink="http://www.w3.org/1999/xlink">
<g id="graph0" class="graph" transform="scale(1 1) rotate(0) translate(4 62)">
<title>addRow</title>
<polygon fill="white" stroke="none" points="-4,4 -4,-62 155,-62 155,4 -4,4"/>
<!-- Node1 -->
<g id="node1" class="node"><title>Node1</title>
<polygon fill="#bfbfbf" stroke="black" points="0,-19.5 0,-38.5 53,-38.5 53,-19.5 0,-19.5"/>
<text text-anchor="middle" x="26.5" y="-26.5" font-family="Helvetica,sans-Serif" font-size="10.00">addRow</text>
</g>
<!-- Node2 -->
<g id="node2" class="node"><title>Node2</title>
<g id="a_node2"><a xlink:href="$classtomoBay_1_1model_1_1royalMail_1_1RoyalMailCSVGenerator.html#ac6e1d2426364f8d09ac1c89843b1a0ae" xlink:title="make sure that the two arrays are the same length ">
<polygon fill="white" stroke="black" points="89,-38.5 89,-57.5 151,-57.5 151,-38.5 89,-38.5"/>
<text text-anchor="middle" x="120" y="-45.5" font-family="Helvetica,sans-Serif" font-size="10.00">checkSize</text>
</a>
</g>
</g>
<!-- Node1&#45;&gt;Node2 -->
<g id="edge1" class="edge"><title>Node1&#45;&gt;Node2</title>
<path fill="none" stroke="midnightblue" d="M53.4755,-34.3938C61.3743,-36.034 70.2469,-37.8764 78.8512,-39.6631"/>
<polygon fill="midnightblue" stroke="midnightblue" points="78.2514,-43.1131 88.7542,-41.7194 79.6746,-36.2593 78.2514,-43.1131"/>
</g>
<!-- Node3 -->
<g id="node3" class="node"><title>Node3</title>
<g id="a_node3"><a xlink:href="$classtomoBay_1_1model_1_1royalMail_1_1RoyalMailCSVGenerator.html#acc1df516e966b1769cf2b4752134ee60" xlink:title="Use the validation data pulled from the config file at construction time and make sure that the data ...">
<polygon fill="white" stroke="black" points="95,-0.5 95,-19.5 145,-19.5 145,-0.5 95,-0.5"/>
<text text-anchor="middle" x="120" y="-7.5" font-family="Helvetica,sans-Serif" font-size="10.00">validate</text>
</a>
</g>
</g>
<!-- Node1&#45;&gt;Node3 -->
<g id="edge2" class="edge"><title>Node1&#45;&gt;Node3</title>
<path fill="none" stroke="midnightblue" d="M53.4755,-23.6062C63.2235,-21.582 74.4547,-19.2499 84.8342,-17.0945"/>
<polygon fill="midnightblue" stroke="midnightblue" points="85.764,-20.4762 94.8435,-15.0161 84.3407,-13.6224 85.764,-20.4762"/>
</g>
</g>
</svg>
