<?xml version="1.0" encoding="UTF-8" standalone="no"?>
<!DOCTYPE svg PUBLIC "-//W3C//DTD SVG 1.1//EN"
 "http://www.w3.org/Graphics/SVG/1.1/DTD/svg11.dtd">
<!-- Generated by graphviz version 2.38.0 (20140413.2041)
 -->
<!-- Title: NullEmailObjectException Pages: 1 -->
<svg width="154pt" height="276pt"
 viewBox="0.00 0.00 154.00 276.00" xmlns="http://www.w3.org/2000/svg" xmlns:xlink="http://www.w3.org/1999/xlink">
<g id="graph0" class="graph" transform="scale(1 1) rotate(0) translate(4 272)">
<title>NullEmailObjectException</title>
<polygon fill="white" stroke="none" points="-4,4 -4,-272 150,-272 150,4 -4,4"/>
<!-- Node1 -->
<g id="node1" class="node"><title>Node1</title>
<polygon fill="#bfbfbf" stroke="black" points="0,-0.5 0,-68.5 146,-68.5 146,-0.5 0,-0.5"/>
<text text-anchor="middle" x="73" y="-56.5" font-family="Helvetica,sans-Serif" font-size="10.00">NullEmailObjectException</text>
<polyline fill="none" stroke="black" points="0,-49.5 146,-49.5 "/>
<text text-anchor="start" x="8" y="-37.5" font-family="Helvetica,sans-Serif" font-size="10.00">&#45; serialVersionUID</text>
<polyline fill="none" stroke="black" points="0,-30.5 146,-30.5 "/>
<text text-anchor="start" x="8" y="-18.5" font-family="Helvetica,sans-Serif" font-size="10.00">+ NullEmailObjectException()</text>
<text text-anchor="start" x="8" y="-7.5" font-family="Helvetica,sans-Serif" font-size="10.00">+ NullEmailObjectException()</text>
</g>
<!-- Node2 -->
<g id="node2" class="node"><title>Node2</title>
<g id="a_node2"><a xlink:href="$classtomoBay_1_1exceptions_1_1MailException.html" xlink:title="Generic email exception. ">
<polygon fill="white" stroke="black" points="24.5,-105.5 24.5,-173.5 121.5,-173.5 121.5,-105.5 24.5,-105.5"/>
<text text-anchor="middle" x="73" y="-161.5" font-family="Helvetica,sans-Serif" font-size="10.00">MailException</text>
<polyline fill="none" stroke="black" points="24.5,-154.5 121.5,-154.5 "/>
<text text-anchor="start" x="32.5" y="-142.5" font-family="Helvetica,sans-Serif" font-size="10.00">&#45; serialVersionUID</text>
<polyline fill="none" stroke="black" points="24.5,-135.5 121.5,-135.5 "/>
<text text-anchor="start" x="32.5" y="-123.5" font-family="Helvetica,sans-Serif" font-size="10.00">+ MailException()</text>
<text text-anchor="start" x="32.5" y="-112.5" font-family="Helvetica,sans-Serif" font-size="10.00">+ MailException()</text>
</a>
</g>
</g>
<!-- Node2&#45;&gt;Node1 -->
<g id="edge1" class="edge"><title>Node2&#45;&gt;Node1</title>
<path fill="none" stroke="midnightblue" d="M73,-95.1362C73,-86.256 73,-77.0447 73,-68.5947"/>
<polygon fill="none" stroke="midnightblue" points="69.5001,-95.3432 73,-105.343 76.5001,-95.3432 69.5001,-95.3432"/>
</g>
<!-- Node3 -->
<g id="node3" class="node"><title>Node3</title>
<polygon fill="white" stroke="#bfbfbf" points="43,-210.5 43,-267.5 103,-267.5 103,-210.5 43,-210.5"/>
<text text-anchor="middle" x="73" y="-255.5" font-family="Helvetica,sans-Serif" font-size="10.00">Exception</text>
<polyline fill="none" stroke="#bfbfbf" points="43,-248.5 103,-248.5 "/>
<text text-anchor="middle" x="73" y="-236.5" font-family="Helvetica,sans-Serif" font-size="10.00"> </text>
<polyline fill="none" stroke="#bfbfbf" points="43,-229.5 103,-229.5 "/>
<text text-anchor="middle" x="73" y="-217.5" font-family="Helvetica,sans-Serif" font-size="10.00"> </text>
</g>
<!-- Node3&#45;&gt;Node2 -->
<g id="edge2" class="edge"><title>Node3&#45;&gt;Node2</title>
<path fill="none" stroke="midnightblue" d="M73,-200.063C73,-191.393 73,-182.243 73,-173.786"/>
<polygon fill="none" stroke="midnightblue" points="69.5001,-200.321 73,-210.321 76.5001,-200.321 69.5001,-200.321"/>
</g>
</g>
</svg>
