<?xml version="1.0" encoding="UTF-8" standalone="no"?>
<!DOCTYPE svg PUBLIC "-//W3C//DTD SVG 1.1//EN"
 "http://www.w3.org/Graphics/SVG/1.1/DTD/svg11.dtd">
<!-- Generated by graphviz version 2.38.0 (20140413.2041)
 -->
<!-- Title: DeleteOrderFromOrderStatus Pages: 1 -->
<svg width="194pt" height="544pt"
 viewBox="0.00 0.00 193.50 544.00" xmlns="http://www.w3.org/2000/svg" xmlns:xlink="http://www.w3.org/1999/xlink">
<g id="graph0" class="graph" transform="scale(1 1) rotate(0) translate(4 540)">
<title>DeleteOrderFromOrderStatus</title>
<polygon fill="white" stroke="none" points="-4,4 -4,-540 189.5,-540 189.5,4 -4,4"/>
<!-- Node1 -->
<g id="node1" class="node"><title>Node1</title>
<polygon fill="#bfbfbf" stroke="black" points="4.5,-0.5 4.5,-79.5 163.5,-79.5 163.5,-0.5 4.5,-0.5"/>
<text text-anchor="middle" x="84" y="-67.5" font-family="Helvetica,sans-Serif" font-size="10.00">DeleteOrderFromOrderStatus</text>
<polyline fill="none" stroke="black" points="4.5,-60.5 163.5,-60.5 "/>
<text text-anchor="start" x="12.5" y="-48.5" font-family="Helvetica,sans-Serif" font-size="10.00">&#45; query_M</text>
<polyline fill="none" stroke="black" points="4.5,-41.5 163.5,-41.5 "/>
<text text-anchor="start" x="12.5" y="-29.5" font-family="Helvetica,sans-Serif" font-size="10.00">+ DeleteOrderFromOrderStatus()</text>
<text text-anchor="start" x="12.5" y="-18.5" font-family="Helvetica,sans-Serif" font-size="10.00"># queryString()</text>
<text text-anchor="start" x="12.5" y="-7.5" font-family="Helvetica,sans-Serif" font-size="10.00"># setParameters()</text>
</g>
<!-- Node2 -->
<g id="node2" class="node"><title>Node2</title>
<g id="a_node2"><a xlink:href="$classtomoBay_1_1model_1_1sql_1_1framework_1_1queryTypes_1_1modify_1_1AbstractModifyQueryParams.html" xlink:title="This is the Abstract Base class for all queries that modify the database in some way (INSERT/UPDATE/D...">
<polygon fill="white" stroke="black" points="5,-117.5 5,-218.5 163,-218.5 163,-117.5 5,-117.5"/>
<text text-anchor="middle" x="84" y="-206.5" font-family="Helvetica,sans-Serif" font-size="10.00">AbstractModifyQueryParams</text>
<polyline fill="none" stroke="black" points="5,-199.5 163,-199.5 "/>
<text text-anchor="middle" x="84" y="-187.5" font-family="Helvetica,sans-Serif" font-size="10.00"> </text>
<polyline fill="none" stroke="black" points="5,-180.5 163,-180.5 "/>
<text text-anchor="start" x="13" y="-168.5" font-family="Helvetica,sans-Serif" font-size="10.00">+ AbstractModifyQueryParams()</text>
<text text-anchor="start" x="13" y="-157.5" font-family="Helvetica,sans-Serif" font-size="10.00">+ execute()</text>
<text text-anchor="start" x="13" y="-146.5" font-family="Helvetica,sans-Serif" font-size="10.00"># queryString()</text>
<text text-anchor="start" x="13" y="-135.5" font-family="Helvetica,sans-Serif" font-size="10.00"># setParameters()</text>
<text text-anchor="start" x="13" y="-124.5" font-family="Helvetica,sans-Serif" font-size="10.00">&#45; initQuery()</text>
</a>
</g>
</g>
<!-- Node2&#45;&gt;Node1 -->
<g id="edge1" class="edge"><title>Node2&#45;&gt;Node1</title>
<path fill="none" stroke="midnightblue" d="M84,-107.11C84,-97.7412 84,-88.28 84,-79.5585"/>
<polygon fill="none" stroke="midnightblue" points="80.5001,-107.201 84,-117.201 87.5001,-107.201 80.5001,-107.201"/>
</g>
<!-- Node3 -->
<g id="node3" class="node"><title>Node3</title>
<g id="a_node3"><a xlink:href="$classtomoBay_1_1model_1_1sql_1_1framework_1_1queryTypes_1_1modify_1_1AbstractModifyQuery.html" xlink:title="Copyright(C) 2015 Jan P.C. ">
<polygon fill="white" stroke="black" points="22,-256.5 22,-313.5 146,-313.5 146,-256.5 22,-256.5"/>
<text text-anchor="middle" x="84" y="-301.5" font-family="Helvetica,sans-Serif" font-size="10.00">AbstractModifyQuery</text>
<polyline fill="none" stroke="black" points="22,-294.5 146,-294.5 "/>
<text text-anchor="middle" x="84" y="-282.5" font-family="Helvetica,sans-Serif" font-size="10.00"> </text>
<polyline fill="none" stroke="black" points="22,-275.5 146,-275.5 "/>
<text text-anchor="start" x="30" y="-263.5" font-family="Helvetica,sans-Serif" font-size="10.00">+ AbstractModifyQuery()</text>
</a>
</g>
</g>
<!-- Node3&#45;&gt;Node2 -->
<g id="edge2" class="edge"><title>Node3&#45;&gt;Node2</title>
<path fill="none" stroke="midnightblue" d="M84,-246.187C84,-237.435 84,-227.99 84,-218.812"/>
<polygon fill="none" stroke="midnightblue" points="80.5001,-246.455 84,-256.455 87.5001,-246.455 80.5001,-246.455"/>
</g>
<!-- Node4 -->
<g id="node4" class="node"><title>Node4</title>
<g id="a_node4"><a xlink:href="$classtomoBay_1_1model_1_1sql_1_1framework_1_1queryTypes_1_1AbstractDBQuery.html" xlink:title="Interface that all database queries must adhere to. ">
<polygon fill="white" stroke="black" points="37,-351.5 37,-430.5 131,-430.5 131,-351.5 37,-351.5"/>
<text text-anchor="middle" x="84" y="-418.5" font-family="Helvetica,sans-Serif" font-size="10.00">AbstractDBQuery</text>
<polyline fill="none" stroke="black" points="37,-411.5 131,-411.5 "/>
<text text-anchor="middle" x="84" y="-399.5" font-family="Helvetica,sans-Serif" font-size="10.00"> </text>
<polyline fill="none" stroke="black" points="37,-392.5 131,-392.5 "/>
<text text-anchor="start" x="45" y="-380.5" font-family="Helvetica,sans-Serif" font-size="10.00">+ statement()</text>
<text text-anchor="start" x="45" y="-369.5" font-family="Helvetica,sans-Serif" font-size="10.00"># queryString()</text>
<text text-anchor="start" x="45" y="-358.5" font-family="Helvetica,sans-Serif" font-size="10.00"># cleanup()</text>
</a>
</g>
</g>
<!-- Node4&#45;&gt;Node3 -->
<g id="edge3" class="edge"><title>Node4&#45;&gt;Node3</title>
<path fill="none" stroke="midnightblue" d="M84,-341.161C84,-331.737 84,-322.174 84,-313.716"/>
<polygon fill="none" stroke="midnightblue" points="80.5001,-341.274 84,-351.274 87.5001,-341.274 80.5001,-341.274"/>
</g>
<!-- Node5 -->
<g id="node5" class="node"><title>Node5</title>
<polygon fill="white" stroke="#bfbfbf" points="0,-478.5 0,-535.5 66,-535.5 66,-478.5 0,-478.5"/>
<text text-anchor="middle" x="33" y="-523.5" font-family="Helvetica,sans-Serif" font-size="10.00">Connection</text>
<polyline fill="none" stroke="#bfbfbf" points="0,-516.5 66,-516.5 "/>
<text text-anchor="middle" x="33" y="-504.5" font-family="Helvetica,sans-Serif" font-size="10.00"> </text>
<polyline fill="none" stroke="#bfbfbf" points="0,-497.5 66,-497.5 "/>
<text text-anchor="middle" x="33" y="-485.5" font-family="Helvetica,sans-Serif" font-size="10.00"> </text>
</g>
<!-- Node5&#45;&gt;Node4 -->
<g id="edge4" class="edge"><title>Node5&#45;&gt;Node4</title>
<path fill="none" stroke="#404040" d="M35.314,-478.323C36.7691,-468.768 39.1393,-458.167 43,-449 44.0978,-446.393 45.3335,-443.791 46.6729,-441.213"/>
<polygon fill="none" stroke="#404040" points="46.6785,-441.204 46.2133,-434.008 52.6769,-430.81 53.1422,-438.006 46.6785,-441.204"/>
<text text-anchor="middle" x="78" y="-452" font-family="Helvetica,sans-Serif" font-size="10.00"> #connection_M</text>
</g>
<!-- Node6 -->
<g id="node6" class="node"><title>Node6</title>
<polygon fill="white" stroke="#bfbfbf" points="84.5,-478.5 84.5,-535.5 185.5,-535.5 185.5,-478.5 84.5,-478.5"/>
<text text-anchor="middle" x="135" y="-523.5" font-family="Helvetica,sans-Serif" font-size="10.00">PreparedStatement</text>
<polyline fill="none" stroke="#bfbfbf" points="84.5,-516.5 185.5,-516.5 "/>
<text text-anchor="middle" x="135" y="-504.5" font-family="Helvetica,sans-Serif" font-size="10.00"> </text>
<polyline fill="none" stroke="#bfbfbf" points="84.5,-497.5 185.5,-497.5 "/>
<text text-anchor="middle" x="135" y="-485.5" font-family="Helvetica,sans-Serif" font-size="10.00"> </text>
</g>
<!-- Node6&#45;&gt;Node4 -->
<g id="edge5" class="edge"><title>Node6&#45;&gt;Node4</title>
<path fill="none" stroke="#404040" d="M124.932,-478.224C121.364,-468.856 117.191,-458.397 113,-449 111.916,-446.57 110.781,-444.094 109.614,-441.605"/>
<polygon fill="none" stroke="#404040" points="109.56,-441.494 103.351,-437.826 104.349,-430.684 110.558,-434.352 109.56,-441.494"/>
<text text-anchor="middle" x="151" y="-452" font-family="Helvetica,sans-Serif" font-size="10.00"> #statement_M</text>
</g>
</g>
</svg>
