<?xml version="1.0" encoding="UTF-8" standalone="no"?>
<!DOCTYPE svg PUBLIC "-//W3C//DTD SVG 1.1//EN"
 "http://www.w3.org/Graphics/SVG/1.1/DTD/svg11.dtd">
<!-- Generated by graphviz version 2.38.0 (20140413.2041)
 -->
<!-- Title: AllPickeable Pages: 1 -->
<svg width="102pt" height="193pt"
 viewBox="0.00 0.00 102.00 193.00" xmlns="http://www.w3.org/2000/svg" xmlns:xlink="http://www.w3.org/1999/xlink">
<g id="graph0" class="graph" transform="scale(1 1) rotate(0) translate(4 189)">
<title>AllPickeable</title>
<polygon fill="white" stroke="none" points="-4,4 -4,-189 98,-189 98,4 -4,4"/>
<!-- Node1 -->
<g id="node1" class="node"><title>Node1</title>
<polygon fill="#bfbfbf" stroke="black" points="4,-0.5 4,-68.5 90,-68.5 90,-0.5 4,-0.5"/>
<text text-anchor="middle" x="47" y="-56.5" font-family="Helvetica,sans-Serif" font-size="10.00">AllPickeable</text>
<polyline fill="none" stroke="black" points="4,-49.5 90,-49.5 "/>
<text text-anchor="start" x="12" y="-37.5" font-family="Helvetica,sans-Serif" font-size="10.00">&#45; itemStatus_M</text>
<polyline fill="none" stroke="black" points="4,-30.5 90,-30.5 "/>
<text text-anchor="start" x="12" y="-18.5" font-family="Helvetica,sans-Serif" font-size="10.00">+ AllPickeable()</text>
<text text-anchor="start" x="12" y="-7.5" font-family="Helvetica,sans-Serif" font-size="10.00"># expression()</text>
</g>
<!-- Node2 -->
<g id="node2" class="node"><title>Node2</title>
<g id="a_node2"><a xlink:href="classtomoBay_1_1model_1_1dataTypes_1_1conditionalStatement_1_1Condition.html" target="_top" xlink:title="This Class encapsulates the condition part of the conditional statement. ">
<polygon fill="white" stroke="black" points="0,-105.5 0,-184.5 94,-184.5 94,-105.5 0,-105.5"/>
<text text-anchor="middle" x="47" y="-172.5" font-family="Helvetica,sans-Serif" font-size="10.00">Condition</text>
<polyline fill="none" stroke="black" points="0,-165.5 94,-165.5 "/>
<text text-anchor="start" x="8" y="-153.5" font-family="Helvetica,sans-Serif" font-size="10.00">&#45; TRUTH_TABLE</text>
<polyline fill="none" stroke="black" points="0,-146.5 94,-146.5 "/>
<text text-anchor="start" x="8" y="-134.5" font-family="Helvetica,sans-Serif" font-size="10.00">+ Condition()</text>
<text text-anchor="start" x="8" y="-123.5" font-family="Helvetica,sans-Serif" font-size="10.00">+ evaluate()</text>
<text text-anchor="start" x="8" y="-112.5" font-family="Helvetica,sans-Serif" font-size="10.00"># expression()</text>
</a>
</g>
</g>
<!-- Node2&#45;&gt;Node1 -->
<g id="edge1" class="edge"><title>Node2&#45;&gt;Node1</title>
<path fill="none" stroke="midnightblue" d="M47,-95.3492C47,-86.2824 47,-77.0048 47,-68.5439"/>
<polygon fill="none" stroke="midnightblue" points="43.5001,-95.4414 47,-105.441 50.5001,-95.4415 43.5001,-95.4414"/>
</g>
</g>
</svg>
