<?xml version="1.0" encoding="UTF-8" standalone="no"?>
<!DOCTYPE svg PUBLIC "-//W3C//DTD SVG 1.1//EN"
 "http://www.w3.org/Graphics/SVG/1.1/DTD/svg11.dtd">
<!-- Generated by graphviz version 2.38.0 (20140413.2041)
 -->
<!-- Title: addLeaf Pages: 1 -->
<svg width="810pt" height="295pt"
 viewBox="0.00 0.00 810.00 294.50" xmlns="http://www.w3.org/2000/svg" xmlns:xlink="http://www.w3.org/1999/xlink">
<g id="graph0" class="graph" transform="scale(1 1) rotate(0) translate(4 290.5)">
<title>addLeaf</title>
<polygon fill="white" stroke="none" points="-4,4 -4,-290.5 806,-290.5 806,4 -4,4"/>
<!-- Node1 -->
<g id="node1" class="node"><title>Node1</title>
<polygon fill="#bfbfbf" stroke="black" points="0,-138.5 0,-157.5 51,-157.5 51,-138.5 0,-138.5"/>
<text text-anchor="middle" x="25.5" y="-145.5" font-family="Helvetica,sans-Serif" font-size="10.00">addLeaf</text>
</g>
<!-- Node2 -->
<g id="node2" class="node"><title>Node2</title>
<g id="a_node2"><a xlink:href="$classtomoBay_1_1presenters_1_1presenterActions_1_1concreteActions_1_1OrderInfo.html#a0efe6811d772c53811b18a441c11b757" xlink:title="formats the buyer information associated with this order ">
<polygon fill="white" stroke="black" points="99,-256 99,-286 309,-286 309,-256 99,-256"/>
<text text-anchor="start" x="107" y="-274" font-family="Helvetica,sans-Serif" font-size="10.00">tomoBay.presenters.presenter</text>
<text text-anchor="middle" x="204" y="-263" font-family="Helvetica,sans-Serif" font-size="10.00">Actions.concreteActions.OrderInfo.buyerInfo</text>
</a>
</g>
</g>
<!-- Node1&#45;&gt;Node2 -->
<g id="edge1" class="edge"><title>Node1&#45;&gt;Node2</title>
<path fill="none" stroke="midnightblue" d="M32.904,-167.313C41.4909,-190.075 58.9836,-227.288 87,-247 91.8776,-250.432 97.1388,-253.394 102.634,-255.949"/>
<polygon fill="midnightblue" stroke="midnightblue" points="36.1379,-165.961 29.4879,-157.713 29.543,-168.308 36.1379,-165.961"/>
</g>
<!-- Node5 -->
<g id="node5" class="node"><title>Node5</title>
<g id="a_node5"><a xlink:href="$classtomoBay_1_1presenters_1_1presenterActions_1_1concreteActions_1_1BuyerDetails.html#adb3dedf31dc2c7fc796f20406c235ccd" xlink:title="performs the action specified ">
<polygon fill="white" stroke="black" points="94,-207 94,-237 314,-237 314,-207 94,-207"/>
<text text-anchor="start" x="102" y="-225" font-family="Helvetica,sans-Serif" font-size="10.00">tomoBay.presenters.presenter</text>
<text text-anchor="middle" x="204" y="-214" font-family="Helvetica,sans-Serif" font-size="10.00">Actions.concreteActions.BuyerDetails.execute</text>
</a>
</g>
</g>
<!-- Node1&#45;&gt;Node5 -->
<g id="edge4" class="edge"><title>Node1&#45;&gt;Node5</title>
<path fill="none" stroke="midnightblue" d="M42.3751,-164.862C53.7606,-175.947 70.0307,-189.859 87,-198 94.2313,-201.469 101.952,-204.439 109.844,-206.98"/>
<polygon fill="midnightblue" stroke="midnightblue" points="44.8489,-162.386 35.3247,-157.744 39.8759,-167.312 44.8489,-162.386"/>
</g>
<!-- Node6 -->
<g id="node6" class="node"><title>Node6</title>
<g id="a_node6"><a xlink:href="$classtomoBay_1_1presenters_1_1presenterActions_1_1concreteActions_1_1BuyerList.html#a1b9a0fa1ef5b8b60a831e9ebc80e6f97" xlink:title="format the results of the query as a JSON string ">
<polygon fill="white" stroke="black" points="105,-0.5 105,-41.5 303,-41.5 303,-0.5 105,-0.5"/>
<text text-anchor="start" x="113" y="-29.5" font-family="Helvetica,sans-Serif" font-size="10.00">tomoBay.presenters.presenter</text>
<text text-anchor="start" x="113" y="-18.5" font-family="Helvetica,sans-Serif" font-size="10.00">Actions.concreteActions.BuyerList.format</text>
<text text-anchor="middle" x="204" y="-7.5" font-family="Helvetica,sans-Serif" font-size="10.00">Results</text>
</a>
</g>
</g>
<!-- Node1&#45;&gt;Node6 -->
<g id="edge5" class="edge"><title>Node1&#45;&gt;Node6</title>
<path fill="none" stroke="midnightblue" d="M33.0956,-129.07C41.8715,-106.724 59.5504,-70.0707 87,-50 92.5298,-45.9567 98.5616,-42.4739 104.874,-39.4743"/>
<polygon fill="midnightblue" stroke="midnightblue" points="29.7985,-127.895 29.5926,-138.488 36.3593,-130.336 29.7985,-127.895"/>
</g>
<!-- Node8 -->
<g id="node8" class="node"><title>Node8</title>
<g id="a_node8"><a xlink:href="$classtomoBay_1_1presenters_1_1presenterActions_1_1concreteActions_1_1OrderInfo.html#ab4b3569de633225260e7e17c8947c8c5" xlink:title="formats the shipping information associated with this order ">
<polygon fill="white" stroke="black" points="93,-158 93,-188 315,-188 315,-158 93,-158"/>
<text text-anchor="start" x="101" y="-176" font-family="Helvetica,sans-Serif" font-size="10.00">tomoBay.presenters.presenter</text>
<text text-anchor="middle" x="204" y="-165" font-family="Helvetica,sans-Serif" font-size="10.00">Actions.concreteActions.OrderInfo.shippingInfo</text>
</a>
</g>
</g>
<!-- Node1&#45;&gt;Node8 -->
<g id="edge7" class="edge"><title>Node1&#45;&gt;Node8</title>
<path fill="none" stroke="midnightblue" d="M61.0616,-152.895C71.6817,-154.4 83.9751,-156.141 96.7963,-157.957"/>
<polygon fill="midnightblue" stroke="midnightblue" points="61.4336,-149.413 51.0416,-151.476 60.4519,-156.344 61.4336,-149.413"/>
</g>
<!-- Node9 -->
<g id="node9" class="node"><title>Node9</title>
<g id="a_node9"><a xlink:href="$classtomoBay_1_1presenters_1_1presenterActions_1_1concreteActions_1_1OrderInfo.html#a95f980d76c5d92ed97b2aaab0d2d0c21" xlink:title="formats the summary information for this Order ">
<polygon fill="white" stroke="black" points="90.5,-109 90.5,-139 317.5,-139 317.5,-109 90.5,-109"/>
<text text-anchor="start" x="98.5" y="-127" font-family="Helvetica,sans-Serif" font-size="10.00">tomoBay.presenters.presenter</text>
<text text-anchor="middle" x="204" y="-116" font-family="Helvetica,sans-Serif" font-size="10.00">Actions.concreteActions.OrderInfo.summaryInfo</text>
</a>
</g>
</g>
<!-- Node1&#45;&gt;Node9 -->
<g id="edge9" class="edge"><title>Node1&#45;&gt;Node9</title>
<path fill="none" stroke="midnightblue" d="M61.0892,-143.297C70.5227,-142.014 81.2749,-140.552 92.5437,-139.02"/>
<polygon fill="midnightblue" stroke="midnightblue" points="60.4788,-139.847 51.0416,-144.663 61.422,-146.784 60.4788,-139.847"/>
</g>
<!-- Node10 -->
<g id="node10" class="node"><title>Node10</title>
<g id="a_node10"><a xlink:href="$classtomoBay_1_1presenters_1_1presenterActions_1_1concreteActions_1_1OrderInfo.html#a703cbb509cdc01530f19b03f573120c9" xlink:title="formats the transaction information associated with this order ">
<polygon fill="white" stroke="black" points="87,-60 87,-90 321,-90 321,-60 87,-60"/>
<text text-anchor="start" x="95" y="-78" font-family="Helvetica,sans-Serif" font-size="10.00">tomoBay.presenters.presenter</text>
<text text-anchor="middle" x="204" y="-67" font-family="Helvetica,sans-Serif" font-size="10.00">Actions.concreteActions.OrderInfo.transactionInfo</text>
</a>
</g>
</g>
<!-- Node1&#45;&gt;Node10 -->
<g id="edge11" class="edge"><title>Node1&#45;&gt;Node10</title>
<path fill="none" stroke="midnightblue" d="M43.2556,-131.194C54.6612,-120.695 70.6123,-107.745 87,-100 95.1954,-96.1269 104,-92.8466 112.963,-90.0698"/>
<polygon fill="midnightblue" stroke="midnightblue" points="40.6314,-128.86 35.8126,-138.296 45.4637,-133.925 40.6314,-128.86"/>
</g>
<!-- Node3 -->
<g id="node3" class="node"><title>Node3</title>
<g id="a_node3"><a xlink:href="$classtomoBay_1_1presenters_1_1presenterActions_1_1concreteActions_1_1OrderInfo.html#afeec1aeda079b77245edea1e74b25f33" xlink:title="assembles the various parts of the order and outputs it as a fully formed JSON string. ">
<polygon fill="white" stroke="black" points="361,-127.5 361,-168.5 558,-168.5 558,-127.5 361,-127.5"/>
<text text-anchor="start" x="369" y="-156.5" font-family="Helvetica,sans-Serif" font-size="10.00">tomoBay.presenters.presenter</text>
<text text-anchor="start" x="369" y="-145.5" font-family="Helvetica,sans-Serif" font-size="10.00">Actions.concreteActions.OrderInfo.format</text>
<text text-anchor="middle" x="459.5" y="-134.5" font-family="Helvetica,sans-Serif" font-size="10.00">Results</text>
</a>
</g>
</g>
<!-- Node2&#45;&gt;Node3 -->
<g id="edge2" class="edge"><title>Node2&#45;&gt;Node3</title>
<path fill="none" stroke="midnightblue" d="M306.226,-252.754C311.286,-251.005 316.239,-249.092 321,-247 365.704,-227.356 410.247,-191.561 436.041,-168.821"/>
<polygon fill="midnightblue" stroke="midnightblue" points="304.834,-249.525 296.386,-255.919 306.978,-256.189 304.834,-249.525"/>
</g>
<!-- Node4 -->
<g id="node4" class="node"><title>Node4</title>
<g id="a_node4"><a xlink:href="$classtomoBay_1_1presenters_1_1presenterActions_1_1concreteActions_1_1OrderInfo.html#adb3dedf31dc2c7fc796f20406c235ccd" xlink:title="performs the action specified ">
<polygon fill="white" stroke="black" points="598,-133 598,-163 802,-163 802,-133 598,-133"/>
<text text-anchor="start" x="606" y="-151" font-family="Helvetica,sans-Serif" font-size="10.00">tomoBay.presenters.presenter</text>
<text text-anchor="middle" x="700" y="-140" font-family="Helvetica,sans-Serif" font-size="10.00">Actions.concreteActions.OrderInfo.execute</text>
</a>
</g>
</g>
<!-- Node3&#45;&gt;Node4 -->
<g id="edge3" class="edge"><title>Node3&#45;&gt;Node4</title>
<path fill="none" stroke="midnightblue" d="M568.404,-148C578.248,-148 588.196,-148 597.976,-148"/>
<polygon fill="midnightblue" stroke="midnightblue" points="568.195,-144.5 558.195,-148 568.195,-151.5 568.195,-144.5"/>
</g>
<!-- Node7 -->
<g id="node7" class="node"><title>Node7</title>
<g id="a_node7"><a xlink:href="$classtomoBay_1_1presenters_1_1presenterActions_1_1concreteActions_1_1BuyerList.html#adb3dedf31dc2c7fc796f20406c235ccd" xlink:title="performs the action specified ">
<polygon fill="white" stroke="black" points="357,-6 357,-36 562,-36 562,-6 357,-6"/>
<text text-anchor="start" x="365" y="-24" font-family="Helvetica,sans-Serif" font-size="10.00">tomoBay.presenters.presenter</text>
<text text-anchor="middle" x="459.5" y="-13" font-family="Helvetica,sans-Serif" font-size="10.00">Actions.concreteActions.BuyerList.execute</text>
</a>
</g>
</g>
<!-- Node6&#45;&gt;Node7 -->
<g id="edge6" class="edge"><title>Node6&#45;&gt;Node7</title>
<path fill="none" stroke="midnightblue" d="M313.036,-21C327.611,-21 342.523,-21 356.979,-21"/>
<polygon fill="midnightblue" stroke="midnightblue" points="313.01,-17.5001 303.01,-21 313.01,-24.5001 313.01,-17.5001"/>
</g>
<!-- Node8&#45;&gt;Node3 -->
<g id="edge8" class="edge"><title>Node8&#45;&gt;Node3</title>
<path fill="none" stroke="midnightblue" d="M325.117,-161.154C337.095,-159.973 349.153,-158.784 360.86,-157.629"/>
<polygon fill="midnightblue" stroke="midnightblue" points="324.691,-157.679 315.083,-162.144 325.378,-164.645 324.691,-157.679"/>
</g>
<!-- Node9&#45;&gt;Node3 -->
<g id="edge10" class="edge"><title>Node9&#45;&gt;Node3</title>
<path fill="none" stroke="midnightblue" d="M327.83,-135.629C338.922,-136.679 350.054,-137.733 360.885,-138.758"/>
<polygon fill="midnightblue" stroke="midnightblue" points="327.95,-132.125 317.665,-134.667 327.291,-139.094 327.95,-132.125"/>
</g>
<!-- Node10&#45;&gt;Node3 -->
<g id="edge12" class="edge"><title>Node10&#45;&gt;Node3</title>
<path fill="none" stroke="midnightblue" d="M290.892,-92.2619C301.085,-94.6786 311.306,-97.2746 321,-100 348.87,-107.835 379.316,-118.264 404.458,-127.399"/>
<polygon fill="midnightblue" stroke="midnightblue" points="291.678,-88.8513 281.145,-90.0014 290.096,-95.6703 291.678,-88.8513"/>
</g>
</g>
</svg>
