<?xml version="1.0" encoding="UTF-8" standalone="no"?>
<!DOCTYPE svg PUBLIC "-//W3C//DTD SVG 1.1//EN"
 "http://www.w3.org/Graphics/SVG/1.1/DTD/svg11.dtd">
<!-- Generated by graphviz version 2.38.0 (20140413.2041)
 -->
<!-- Title: ServiceFactory Pages: 1 -->
<svg width="394pt" height="215pt"
 viewBox="0.00 0.00 393.50 215.00" xmlns="http://www.w3.org/2000/svg" xmlns:xlink="http://www.w3.org/1999/xlink">
<g id="graph0" class="graph" transform="scale(1 1) rotate(0) translate(4 211)">
<title>ServiceFactory</title>
<polygon fill="white" stroke="none" points="-4,4 -4,-211 389.5,-211 389.5,4 -4,4"/>
<!-- Node1 -->
<g id="node1" class="node"><title>Node1</title>
<polygon fill="#bfbfbf" stroke="black" points="145,-0.5 145,-68.5 228,-68.5 228,-0.5 145,-0.5"/>
<text text-anchor="middle" x="186.5" y="-56.5" font-family="Helvetica,sans-Serif" font-size="10.00">ServiceFactory</text>
<polyline fill="none" stroke="black" points="145,-49.5 228,-49.5 "/>
<text text-anchor="middle" x="186.5" y="-37.5" font-family="Helvetica,sans-Serif" font-size="10.00"> </text>
<polyline fill="none" stroke="black" points="145,-30.5 228,-30.5 "/>
<text text-anchor="start" x="153" y="-18.5" font-family="Helvetica,sans-Serif" font-size="10.00">+ make()</text>
<text text-anchor="start" x="153" y="-7.5" font-family="Helvetica,sans-Serif" font-size="10.00">+ make()</text>
</g>
<!-- Node2 -->
<g id="node2" class="node"><title>Node2</title>
<polygon fill="white" stroke="#bfbfbf" points="0,-116.5 0,-206.5 171,-206.5 171,-116.5 0,-116.5"/>
<text text-anchor="start" x="8" y="-194.5" font-family="Helvetica,sans-Serif" font-size="10.00">Map&lt; tomoBay.model.services.</text>
<text text-anchor="start" x="8" y="-183.5" font-family="Helvetica,sans-Serif" font-size="10.00">ServiceFactory.ServiceType,</text>
<text text-anchor="start" x="8" y="-172.5" font-family="Helvetica,sans-Serif" font-size="10.00"> tomoBay.model.services.factories.</text>
<text text-anchor="middle" x="85.5" y="-161.5" font-family="Helvetica,sans-Serif" font-size="10.00">AbstractServiceFactory &gt;</text>
<polyline fill="none" stroke="#bfbfbf" points="0,-154.5 171,-154.5 "/>
<text text-anchor="middle" x="85.5" y="-142.5" font-family="Helvetica,sans-Serif" font-size="10.00"> </text>
<polyline fill="none" stroke="#bfbfbf" points="0,-135.5 171,-135.5 "/>
<text text-anchor="middle" x="85.5" y="-123.5" font-family="Helvetica,sans-Serif" font-size="10.00"> </text>
</g>
<!-- Node2&#45;&gt;Node1 -->
<g id="edge1" class="edge"><title>Node2&#45;&gt;Node1</title>
<path fill="none" stroke="#404040" d="M121.109,-116.43C131.147,-104.006 142.048,-90.5153 152.019,-78.1749"/>
<polygon fill="none" stroke="#404040" points="152.24,-77.9011 152.9,-70.7202 159.782,-68.5672 159.122,-75.7481 152.24,-77.9011"/>
<text text-anchor="middle" x="187.5" y="-90" font-family="Helvetica,sans-Serif" font-size="10.00"> &#45;serviceFactoryMap</text>
</g>
<!-- Node3 -->
<g id="node3" class="node"><title>Node3</title>
<polygon fill="white" stroke="#bfbfbf" points="189.5,-116.5 189.5,-206.5 385.5,-206.5 385.5,-116.5 189.5,-116.5"/>
<text text-anchor="start" x="197.5" y="-194.5" font-family="Helvetica,sans-Serif" font-size="10.00">Map&lt; tomoBay.model.services.</text>
<text text-anchor="start" x="197.5" y="-183.5" font-family="Helvetica,sans-Serif" font-size="10.00">ServiceFactory.ConfiguredService</text>
<text text-anchor="start" x="197.5" y="-172.5" font-family="Helvetica,sans-Serif" font-size="10.00">Type, tomoBay.model.services.factories.</text>
<text text-anchor="middle" x="287.5" y="-161.5" font-family="Helvetica,sans-Serif" font-size="10.00">AbstractServiceFactory &gt;</text>
<polyline fill="none" stroke="#bfbfbf" points="189.5,-154.5 385.5,-154.5 "/>
<text text-anchor="middle" x="287.5" y="-142.5" font-family="Helvetica,sans-Serif" font-size="10.00"> </text>
<polyline fill="none" stroke="#bfbfbf" points="189.5,-135.5 385.5,-135.5 "/>
<text text-anchor="middle" x="287.5" y="-123.5" font-family="Helvetica,sans-Serif" font-size="10.00"> </text>
</g>
<!-- Node3&#45;&gt;Node1 -->
<g id="edge2" class="edge"><title>Node3&#45;&gt;Node1</title>
<path fill="none" stroke="#404040" d="M258.713,-116.492C251.742,-106.563 244.1,-96.234 236.5,-87 233.887,-83.8247 231.116,-80.6123 228.273,-77.4251"/>
<polygon fill="none" stroke="#404040" points="228.251,-77.4009 221.246,-75.6863 220.135,-68.5614 227.139,-70.2759 228.251,-77.4009"/>
<text text-anchor="middle" x="312.5" y="-90" font-family="Helvetica,sans-Serif" font-size="10.00"> &#45;configuredServiceFactoryMap</text>
</g>
</g>
</svg>
