<?xml version="1.0" encoding="UTF-8" standalone="no"?>
<!DOCTYPE svg PUBLIC "-//W3C//DTD SVG 1.1//EN"
 "http://www.w3.org/Graphics/SVG/1.1/DTD/svg11.dtd">
<!-- Generated by graphviz version 2.38.0 (20140413.2041)
 -->
<!-- Title: check Pages: 1 -->
<svg width="946pt" height="295pt"
 viewBox="0.00 0.00 946.00 294.50" xmlns="http://www.w3.org/2000/svg" xmlns:xlink="http://www.w3.org/1999/xlink">
<g id="graph0" class="graph" transform="scale(1 1) rotate(0) translate(4 290.5)">
<title>check</title>
<polygon fill="white" stroke="none" points="-4,4 -4,-290.5 942,-290.5 942,4 -4,4"/>
<!-- Node1 -->
<g id="node1" class="node"><title>Node1</title>
<polygon fill="#bfbfbf" stroke="black" points="0,-128 0,-147 43,-147 43,-128 0,-128"/>
<text text-anchor="middle" x="21.5" y="-135" font-family="Helvetica,sans-Serif" font-size="10.00">check</text>
</g>
<!-- Node2 -->
<g id="node2" class="node"><title>Node2</title>
<g id="a_node2"><a xlink:href="classtomoBay_1_1model_1_1dataTypes_1_1heteroTypeContainer_1_1HeteroFieldContainer.html#a3ba6289417930238a36bfee0056b6398" target="_top" xlink:title="add an arbitrary value to this Field container with the stipulation that this value is of the same ty...">
<polygon fill="white" stroke="black" points="79,-220.5 79,-250.5 273,-250.5 273,-220.5 79,-220.5"/>
<text text-anchor="start" x="87" y="-238.5" font-family="Helvetica,sans-Serif" font-size="10.00">tomoBay.model.dataTypes.hetero</text>
<text text-anchor="middle" x="176" y="-227.5" font-family="Helvetica,sans-Serif" font-size="10.00">TypeContainer.HeteroFieldContainer.add</text>
</a>
</g>
</g>
<!-- Node1&#45;&gt;Node2 -->
<g id="edge1" class="edge"><title>Node1&#45;&gt;Node2</title>
<path fill="none" stroke="midnightblue" d="M37.4,-147.075C61.7198,-162.704 110.483,-194.04 142.938,-214.896"/>
<polygon fill="midnightblue" stroke="midnightblue" points="141.32,-218.017 151.625,-220.479 145.105,-212.128 141.32,-218.017"/>
</g>
<!-- Node4 -->
<g id="node4" class="node"><title>Node4</title>
<g id="a_node4"><a xlink:href="classtomoBay_1_1presenters_1_1helpers_1_1pickeability_1_1ItemStockLevel.html#a22844faa947573bb01d9313f7bdb1e56" target="_top" xlink:title="Takes the list of items generated in this.assembleItemsList and checks a PartList associated with eac...">
<polygon fill="white" stroke="black" points="112.5,-128 112.5,-147 239.5,-147 239.5,-128 112.5,-128"/>
<text text-anchor="middle" x="176" y="-135" font-family="Helvetica,sans-Serif" font-size="10.00">checkStockLevelOfItems</text>
</a>
</g>
</g>
<!-- Node1&#45;&gt;Node4 -->
<g id="edge3" class="edge"><title>Node1&#45;&gt;Node4</title>
<path fill="none" stroke="midnightblue" d="M43.0668,-137.5C58.4374,-137.5 80.4457,-137.5 102.094,-137.5"/>
<polygon fill="midnightblue" stroke="midnightblue" points="102.324,-141 112.324,-137.5 102.324,-134 102.324,-141"/>
</g>
<!-- Node14 -->
<g id="node14" class="node"><title>Node14</title>
<g id="a_node14"><a xlink:href="classtomoBay_1_1model_1_1sql_1_1framework_1_1SelectQueryInvoker.html#a594282bcbcc0731a7d234482717422d7" target="_top" xlink:title="execute a requested query ">
<polygon fill="white" stroke="black" points="100,-78.5 100,-108.5 252,-108.5 252,-78.5 100,-78.5"/>
<text text-anchor="start" x="108" y="-96.5" font-family="Helvetica,sans-Serif" font-size="10.00">tomoBay.model.sql.framework.</text>
<text text-anchor="middle" x="176" y="-85.5" font-family="Helvetica,sans-Serif" font-size="10.00">SelectQueryInvoker.execute</text>
</a>
</g>
</g>
<!-- Node1&#45;&gt;Node14 -->
<g id="edge13" class="edge"><title>Node1&#45;&gt;Node14</title>
<path fill="none" stroke="midnightblue" d="M43.0532,-130.205C53.7207,-126.516 66.9993,-122.076 79,-118.5 87.3346,-116.017 96.1163,-113.54 104.845,-111.165"/>
<polygon fill="midnightblue" stroke="midnightblue" points="105.9,-114.505 114.65,-108.531 104.084,-107.745 105.9,-114.505"/>
</g>
<!-- Node3 -->
<g id="node3" class="node"><title>Node3</title>
<g id="a_node3"><a xlink:href="classtomoBay_1_1model_1_1dataTypes_1_1heteroTypeContainer_1_1HeteroFieldContainer.html#a9dee3c01eb5ab16203e1c6820a569484" target="_top" xlink:title="performs a type check, assuming that field and type are of the same type then this method returns tru...">
<polygon fill="white" stroke="black" points="311.5,-245 311.5,-286 497.5,-286 497.5,-245 311.5,-245"/>
<text text-anchor="start" x="319.5" y="-274" font-family="Helvetica,sans-Serif" font-size="10.00">tomoBay.model.dataTypes.hetero</text>
<text text-anchor="start" x="319.5" y="-263" font-family="Helvetica,sans-Serif" font-size="10.00">TypeContainer.HeteroFieldContainer.is</text>
<text text-anchor="middle" x="404.5" y="-252" font-family="Helvetica,sans-Serif" font-size="10.00">SameType</text>
</a>
</g>
</g>
<!-- Node2&#45;&gt;Node3 -->
<g id="edge2" class="edge"><title>Node2&#45;&gt;Node3</title>
<path fill="none" stroke="midnightblue" d="M273.056,-248.223C282.354,-249.454 291.809,-250.706 301.164,-251.946"/>
<polygon fill="midnightblue" stroke="midnightblue" points="300.891,-255.44 311.264,-253.283 301.81,-248.5 300.891,-255.44"/>
</g>
<!-- Node5 -->
<g id="node5" class="node"><title>Node5</title>
<g id="a_node5"><a xlink:href="classtomoBay_1_1model_1_1dataTypes_1_1PartList.html#af4b57d21919c42d55af03391f91a1c08" target="_top" xlink:title="the size of the part list. ">
<polygon fill="white" stroke="black" points="336,-196.5 336,-226.5 473,-226.5 473,-196.5 336,-196.5"/>
<text text-anchor="start" x="344" y="-214.5" font-family="Helvetica,sans-Serif" font-size="10.00">tomoBay.model.dataTypes.</text>
<text text-anchor="middle" x="404.5" y="-203.5" font-family="Helvetica,sans-Serif" font-size="10.00">PartList.size</text>
</a>
</g>
</g>
<!-- Node4&#45;&gt;Node5 -->
<g id="edge4" class="edge"><title>Node4&#45;&gt;Node5</title>
<path fill="none" stroke="midnightblue" d="M200.087,-147.159C226.219,-157.876 270.203,-175.269 309,-187.5 315.881,-189.669 323.091,-191.782 330.329,-193.796"/>
<polygon fill="midnightblue" stroke="midnightblue" points="329.62,-197.23 340.188,-196.478 331.457,-190.476 329.62,-197.23"/>
</g>
<!-- Node6 -->
<g id="node6" class="node"><title>Node6</title>
<g id="a_node6"><a xlink:href="classtomoBay_1_1model_1_1winstock_1_1Stock.html#a06d21b6ad2b8a746c52fadb5d4711778" target="_top" xlink:title="query winstock for the stock level of a particular part. ">
<polygon fill="white" stroke="black" points="309,-147.5 309,-177.5 500,-177.5 500,-147.5 309,-147.5"/>
<text text-anchor="start" x="317" y="-165.5" font-family="Helvetica,sans-Serif" font-size="10.00">tomoBay.model.winstock.Stock.request</text>
<text text-anchor="middle" x="404.5" y="-154.5" font-family="Helvetica,sans-Serif" font-size="10.00">StockLevel</text>
</a>
</g>
</g>
<!-- Node4&#45;&gt;Node6 -->
<g id="edge5" class="edge"><title>Node4&#45;&gt;Node6</title>
<path fill="none" stroke="midnightblue" d="M239.792,-144.431C258.048,-146.446 278.503,-148.703 298.604,-150.922"/>
<polygon fill="midnightblue" stroke="midnightblue" points="298.427,-154.424 308.75,-152.042 299.195,-147.466 298.427,-154.424"/>
</g>
<!-- Node11 -->
<g id="node11" class="node"><title>Node11</title>
<g id="a_node11"><a xlink:href="classtomoBay_1_1model_1_1dataTypes_1_1PartList.html#ab743beefffd4d159c3b91639caee92da" target="_top" xlink:title="get the part number at position i in the list ">
<polygon fill="white" stroke="black" points="336,-98.5 336,-128.5 473,-128.5 473,-98.5 336,-98.5"/>
<text text-anchor="start" x="344" y="-116.5" font-family="Helvetica,sans-Serif" font-size="10.00">tomoBay.model.dataTypes.</text>
<text text-anchor="middle" x="404.5" y="-105.5" font-family="Helvetica,sans-Serif" font-size="10.00">PartList.getPartNumber</text>
</a>
</g>
</g>
<!-- Node4&#45;&gt;Node11 -->
<g id="edge10" class="edge"><title>Node4&#45;&gt;Node11</title>
<path fill="none" stroke="midnightblue" d="M239.792,-130.847C266.377,-128.03 297.625,-124.719 325.656,-121.748"/>
<polygon fill="midnightblue" stroke="midnightblue" points="326.247,-125.205 335.823,-120.671 325.51,-118.244 326.247,-125.205"/>
</g>
<!-- Node12 -->
<g id="node12" class="node"><title>Node12</title>
<g id="a_node12"><a xlink:href="classtomoBay_1_1helpers_1_1BrandToCode.html#a10207714bd294d73dd98b80fd94a2ab8" target="_top" xlink:title="converts converts a string like &quot;citroen&quot; or &quot;fOrd&quot; to a brandcode integer specific to winstock...">
<polygon fill="white" stroke="black" points="310.5,-49.5 310.5,-79.5 498.5,-79.5 498.5,-49.5 310.5,-49.5"/>
<text text-anchor="start" x="318.5" y="-67.5" font-family="Helvetica,sans-Serif" font-size="10.00">tomoBay.helpers.BrandToCode.convert</text>
<text text-anchor="middle" x="404.5" y="-56.5" font-family="Helvetica,sans-Serif" font-size="10.00">ToWinstockInt</text>
</a>
</g>
</g>
<!-- Node4&#45;&gt;Node12 -->
<g id="edge11" class="edge"><title>Node4&#45;&gt;Node12</title>
<path fill="none" stroke="midnightblue" d="M239.532,-128.785C250.966,-125.995 262.57,-122.324 273,-117.5 291.397,-108.991 290.836,-98.4957 309,-89.5 313.848,-87.0993 318.953,-84.9089 324.177,-82.9135"/>
<polygon fill="midnightblue" stroke="midnightblue" points="325.432,-86.1819 333.678,-79.5294 323.083,-79.5878 325.432,-86.1819"/>
</g>
<!-- Node13 -->
<g id="node13" class="node"><title>Node13</title>
<g id="a_node13"><a xlink:href="classtomoBay_1_1model_1_1dataTypes_1_1PartList.html#a5bebcb62b6ffa7676eacf169f0bfe603" target="_top" xlink:title="get the quantity of the part number at position i in the list ">
<polygon fill="white" stroke="black" points="336,-0.5 336,-30.5 473,-30.5 473,-0.5 336,-0.5"/>
<text text-anchor="start" x="344" y="-18.5" font-family="Helvetica,sans-Serif" font-size="10.00">tomoBay.model.dataTypes.</text>
<text text-anchor="middle" x="404.5" y="-7.5" font-family="Helvetica,sans-Serif" font-size="10.00">PartList.getPartQty</text>
</a>
</g>
</g>
<!-- Node4&#45;&gt;Node13 -->
<g id="edge12" class="edge"><title>Node4&#45;&gt;Node13</title>
<path fill="none" stroke="midnightblue" d="M239.622,-133.181C251.616,-130.05 263.407,-125.13 273,-117.5 302.882,-93.7336 279.64,-63.9079 309,-39.5 314.247,-35.1378 320.185,-31.5543 326.466,-28.6124"/>
<polygon fill="midnightblue" stroke="midnightblue" points="327.956,-31.7845 335.874,-24.7454 325.294,-25.3102 327.956,-31.7845"/>
</g>
<!-- Node7 -->
<g id="node7" class="node"><title>Node7</title>
<g id="a_node7"><a xlink:href="classtomoBay_1_1helpers_1_1XMLParser.html#a9936151017dd4e908cf37d453b22c8ef" target="_top" xlink:title="parses an XML formatted string looking for the first tag specified in the parameters. ">
<polygon fill="white" stroke="black" points="542.5,-197 542.5,-216 711.5,-216 711.5,-197 542.5,-197"/>
<text text-anchor="middle" x="627" y="-204" font-family="Helvetica,sans-Serif" font-size="10.00">tomoBay.helpers.XMLParser.parse</text>
</a>
</g>
</g>
<!-- Node6&#45;&gt;Node7 -->
<g id="edge6" class="edge"><title>Node6&#45;&gt;Node7</title>
<path fill="none" stroke="midnightblue" d="M480.767,-177.519C509.419,-183.237 541.588,-189.656 568.355,-194.997"/>
<polygon fill="midnightblue" stroke="midnightblue" points="567.838,-198.463 578.33,-196.988 569.208,-191.598 567.838,-198.463"/>
</g>
<!-- Node8 -->
<g id="node8" class="node"><title>Node8</title>
<g id="a_node8"><a xlink:href="classtomoBay_1_1model_1_1winstock_1_1Stock.html#a42fa652d82ed49749a0ad929a6c798d0" target="_top" xlink:title="remove the header bumpf from the bottom of the response ">
<polygon fill="white" stroke="black" points="538.5,-147.5 538.5,-177.5 715.5,-177.5 715.5,-147.5 538.5,-147.5"/>
<text text-anchor="start" x="546.5" y="-165.5" font-family="Helvetica,sans-Serif" font-size="10.00">tomoBay.model.winstock.Stock.post</text>
<text text-anchor="middle" x="627" y="-154.5" font-family="Helvetica,sans-Serif" font-size="10.00">FormatXMLString</text>
</a>
</g>
</g>
<!-- Node6&#45;&gt;Node8 -->
<g id="edge7" class="edge"><title>Node6&#45;&gt;Node8</title>
<path fill="none" stroke="midnightblue" d="M500.292,-162.5C509.549,-162.5 518.955,-162.5 528.242,-162.5"/>
<polygon fill="midnightblue" stroke="midnightblue" points="528.259,-166 538.259,-162.5 528.259,-159 528.259,-166"/>
</g>
<!-- Node10 -->
<g id="node10" class="node"><title>Node10</title>
<g id="a_node10"><a xlink:href="classtomoBay_1_1model_1_1winstock_1_1Stock.html#a82b5421e7d3a2ba82bdc5d54b09a8069" target="_top" xlink:title="tomoBay.model.winstock.Stock.query\lWinstockURL">
<polygon fill="white" stroke="black" points="536,-98.5 536,-128.5 718,-128.5 718,-98.5 536,-98.5"/>
<text text-anchor="start" x="544" y="-116.5" font-family="Helvetica,sans-Serif" font-size="10.00">tomoBay.model.winstock.Stock.query</text>
<text text-anchor="middle" x="627" y="-105.5" font-family="Helvetica,sans-Serif" font-size="10.00">WinstockURL</text>
</a>
</g>
</g>
<!-- Node6&#45;&gt;Node10 -->
<g id="edge9" class="edge"><title>Node6&#45;&gt;Node10</title>
<path fill="none" stroke="midnightblue" d="M473.156,-147.465C496.967,-142.174 523.91,-136.187 548.47,-130.729"/>
<polygon fill="midnightblue" stroke="midnightblue" points="549.47,-134.092 558.472,-128.506 547.951,-127.259 549.47,-134.092"/>
</g>
<!-- Node9 -->
<g id="node9" class="node"><title>Node9</title>
<g id="a_node9"><a xlink:href="classtomoBay_1_1model_1_1net_1_1HttpResponse.html#afb798c825935128953439404fb763997" target="_top" xlink:title="get the Response message ">
<polygon fill="white" stroke="black" points="754,-147.5 754,-177.5 938,-177.5 938,-147.5 754,-147.5"/>
<text text-anchor="start" x="762" y="-165.5" font-family="Helvetica,sans-Serif" font-size="10.00">tomoBay.model.net.HttpResponse.get</text>
<text text-anchor="middle" x="846" y="-154.5" font-family="Helvetica,sans-Serif" font-size="10.00">ResponseMessage</text>
</a>
</g>
</g>
<!-- Node8&#45;&gt;Node9 -->
<g id="edge8" class="edge"><title>Node8&#45;&gt;Node9</title>
<path fill="none" stroke="midnightblue" d="M715.637,-162.5C724.88,-162.5 734.333,-162.5 743.713,-162.5"/>
<polygon fill="midnightblue" stroke="midnightblue" points="743.851,-166 753.851,-162.5 743.851,-159 743.851,-166"/>
</g>
</g>
</svg>
