<?xml version="1.0" encoding="UTF-8" standalone="no"?>
<!DOCTYPE svg PUBLIC "-//W3C//DTD SVG 1.1//EN"
 "http://www.w3.org/Graphics/SVG/1.1/DTD/svg11.dtd">
<!-- Generated by graphviz version 2.38.0 (20140413.2041)
 -->
<!-- Title: ClientSocket Pages: 1 -->
<svg width="283pt" height="193pt"
 viewBox="0.00 0.00 282.50 193.00" xmlns="http://www.w3.org/2000/svg" xmlns:xlink="http://www.w3.org/1999/xlink">
<g id="graph0" class="graph" transform="scale(1 1) rotate(0) translate(4 189)">
<title>ClientSocket</title>
<polygon fill="white" stroke="none" points="-4,4 -4,-189 278.5,-189 278.5,4 -4,4"/>
<!-- Node1 -->
<g id="node1" class="node"><title>Node1</title>
<polygon fill="#bfbfbf" stroke="black" points="114.5,-0.5 114.5,-79.5 202.5,-79.5 202.5,-0.5 114.5,-0.5"/>
<text text-anchor="middle" x="158.5" y="-67.5" font-family="Helvetica,sans-Serif" font-size="10.00">ClientSocket</text>
<polyline fill="none" stroke="black" points="114.5,-60.5 202.5,-60.5 "/>
<text text-anchor="middle" x="158.5" y="-48.5" font-family="Helvetica,sans-Serif" font-size="10.00"> </text>
<polyline fill="none" stroke="black" points="114.5,-41.5 202.5,-41.5 "/>
<text text-anchor="start" x="122.5" y="-29.5" font-family="Helvetica,sans-Serif" font-size="10.00">+ ClientSocket()</text>
<text text-anchor="start" x="122.5" y="-18.5" font-family="Helvetica,sans-Serif" font-size="10.00">+ send()</text>
<text text-anchor="start" x="122.5" y="-7.5" font-family="Helvetica,sans-Serif" font-size="10.00">+ close()</text>
</g>
<!-- Node2 -->
<g id="node2" class="node"><title>Node2</title>
<polygon fill="white" stroke="#bfbfbf" points="0,-127.5 0,-184.5 91,-184.5 91,-127.5 0,-127.5"/>
<text text-anchor="middle" x="45.5" y="-172.5" font-family="Helvetica,sans-Serif" font-size="10.00">DataInputStream</text>
<polyline fill="none" stroke="#bfbfbf" points="0,-165.5 91,-165.5 "/>
<text text-anchor="middle" x="45.5" y="-153.5" font-family="Helvetica,sans-Serif" font-size="10.00"> </text>
<polyline fill="none" stroke="#bfbfbf" points="0,-146.5 91,-146.5 "/>
<text text-anchor="middle" x="45.5" y="-134.5" font-family="Helvetica,sans-Serif" font-size="10.00"> </text>
</g>
<!-- Node2&#45;&gt;Node1 -->
<g id="edge1" class="edge"><title>Node2&#45;&gt;Node1</title>
<path fill="none" stroke="#404040" d="M72.8541,-127.404C84.5348,-115.62 98.5041,-101.527 111.738,-88.1755"/>
<polygon fill="none" stroke="#404040" points="111.85,-88.0632 113.233,-80.9859 120.298,-79.5406 118.914,-86.6178 111.85,-88.0632"/>
<text text-anchor="middle" x="126" y="-101" font-family="Helvetica,sans-Serif" font-size="10.00"> &#45;dataIn_M</text>
</g>
<!-- Node3 -->
<g id="node3" class="node"><title>Node3</title>
<polygon fill="white" stroke="#bfbfbf" points="109.5,-127.5 109.5,-184.5 207.5,-184.5 207.5,-127.5 109.5,-127.5"/>
<text text-anchor="middle" x="158.5" y="-172.5" font-family="Helvetica,sans-Serif" font-size="10.00">DataOutputStream</text>
<polyline fill="none" stroke="#bfbfbf" points="109.5,-165.5 207.5,-165.5 "/>
<text text-anchor="middle" x="158.5" y="-153.5" font-family="Helvetica,sans-Serif" font-size="10.00"> </text>
<polyline fill="none" stroke="#bfbfbf" points="109.5,-146.5 207.5,-146.5 "/>
<text text-anchor="middle" x="158.5" y="-134.5" font-family="Helvetica,sans-Serif" font-size="10.00"> </text>
</g>
<!-- Node3&#45;&gt;Node1 -->
<g id="edge2" class="edge"><title>Node3&#45;&gt;Node1</title>
<path fill="none" stroke="#404040" d="M158.5,-127.404C158.5,-116.63 158.5,-103.926 158.5,-91.6231"/>
<polygon fill="none" stroke="#404040" points="158.5,-91.5406 154.5,-85.5406 158.5,-79.5406 162.5,-85.5405 158.5,-91.5406"/>
<text text-anchor="middle" x="186" y="-101" font-family="Helvetica,sans-Serif" font-size="10.00"> &#45;dataOut_M</text>
</g>
<!-- Node4 -->
<g id="node4" class="node"><title>Node4</title>
<polygon fill="white" stroke="#bfbfbf" points="226,-127.5 226,-184.5 273,-184.5 273,-127.5 226,-127.5"/>
<text text-anchor="middle" x="249.5" y="-172.5" font-family="Helvetica,sans-Serif" font-size="10.00">Socket</text>
<polyline fill="none" stroke="#bfbfbf" points="226,-165.5 273,-165.5 "/>
<text text-anchor="middle" x="249.5" y="-153.5" font-family="Helvetica,sans-Serif" font-size="10.00"> </text>
<polyline fill="none" stroke="#bfbfbf" points="226,-146.5 273,-146.5 "/>
<text text-anchor="middle" x="249.5" y="-134.5" font-family="Helvetica,sans-Serif" font-size="10.00"> </text>
</g>
<!-- Node4&#45;&gt;Node1 -->
<g id="edge3" class="edge"><title>Node4&#45;&gt;Node1</title>
<path fill="none" stroke="#404040" d="M236.056,-127.308C230.831,-117.649 224.432,-106.986 217.5,-98 215.108,-94.8989 212.548,-91.8063 209.886,-88.7562"/>
<polygon fill="none" stroke="#404040" points="209.757,-88.6156 202.755,-86.8933 201.651,-79.7671 208.654,-81.4894 209.757,-88.6156"/>
<text text-anchor="middle" x="250" y="-101" font-family="Helvetica,sans-Serif" font-size="10.00"> &#45;socket_M</text>
</g>
</g>
</svg>
