<?xml version="1.0" encoding="UTF-8" standalone="no"?>
<!DOCTYPE svg PUBLIC "-//W3C//DTD SVG 1.1//EN"
 "http://www.w3.org/Graphics/SVG/1.1/DTD/svg11.dtd">
<!-- Generated by graphviz version 2.38.0 (20140413.2041)
 -->
<!-- Title: WarehouseOrderPresenter Pages: 1 -->
<svg width="155pt" height="193pt"
 viewBox="0.00 0.00 155.00 193.00" xmlns="http://www.w3.org/2000/svg" xmlns:xlink="http://www.w3.org/1999/xlink">
<g id="graph0" class="graph" transform="scale(1 1) rotate(0) translate(4 189)">
<title>WarehouseOrderPresenter</title>
<polygon fill="white" stroke="none" points="-4,4 -4,-189 151,-189 151,4 -4,4"/>
<!-- Node1 -->
<g id="node1" class="node"><title>Node1</title>
<polygon fill="#bfbfbf" stroke="black" points="0,-0.5 0,-79.5 147,-79.5 147,-0.5 0,-0.5"/>
<text text-anchor="middle" x="73.5" y="-67.5" font-family="Helvetica,sans-Serif" font-size="10.00">WarehouseOrderPresenter</text>
<polyline fill="none" stroke="black" points="0,-60.5 147,-60.5 "/>
<text text-anchor="middle" x="73.5" y="-48.5" font-family="Helvetica,sans-Serif" font-size="10.00"> </text>
<polyline fill="none" stroke="black" points="0,-41.5 147,-41.5 "/>
<text text-anchor="start" x="8" y="-29.5" font-family="Helvetica,sans-Serif" font-size="10.00">+ WarehouseOrderPresenter()</text>
<text text-anchor="start" x="8" y="-18.5" font-family="Helvetica,sans-Serif" font-size="10.00">+ present()</text>
<text text-anchor="start" x="8" y="-7.5" font-family="Helvetica,sans-Serif" font-size="10.00">+ accept()</text>
</g>
<!-- Node2 -->
<g id="node2" class="node"><title>Node2</title>
<g id="a_node2"><a xlink:href="interfacetomoBay_1_1presenters_1_1AbstractPresenter.html" target="_top" xlink:title="provides an interface that all presenters should subscribe to. ">
<polygon fill="white" stroke="black" points="26,-116.5 26,-184.5 121,-184.5 121,-116.5 26,-116.5"/>
<text text-anchor="middle" x="73.5" y="-172.5" font-family="Helvetica,sans-Serif" font-size="10.00">AbstractPresenter</text>
<polyline fill="none" stroke="black" points="26,-165.5 121,-165.5 "/>
<text text-anchor="middle" x="73.5" y="-153.5" font-family="Helvetica,sans-Serif" font-size="10.00"> </text>
<polyline fill="none" stroke="black" points="26,-146.5 121,-146.5 "/>
<text text-anchor="start" x="34" y="-134.5" font-family="Helvetica,sans-Serif" font-size="10.00">+ present()</text>
<text text-anchor="start" x="34" y="-123.5" font-family="Helvetica,sans-Serif" font-size="10.00">+ accept()</text>
</a>
</g>
</g>
<!-- Node2&#45;&gt;Node1 -->
<g id="edge1" class="edge"><title>Node2&#45;&gt;Node1</title>
<path fill="none" stroke="midnightblue" d="M73.5,-106.274C73.5,-97.4764 73.5,-88.2753 73.5,-79.6493"/>
<polygon fill="none" stroke="midnightblue" points="70.0001,-106.357 73.5,-116.357 77.0001,-106.357 70.0001,-106.357"/>
</g>
</g>
</svg>
