<?xml version="1.0" encoding="UTF-8" standalone="no"?>
<!DOCTYPE svg PUBLIC "-//W3C//DTD SVG 1.1//EN"
 "http://www.w3.org/Graphics/SVG/1.1/DTD/svg11.dtd">
<!-- Generated by graphviz version 2.38.0 (20140413.2041)
 -->
<!-- Title: Listing Pages: 1 -->
<svg width="561pt" height="700pt"
 viewBox="0.00 0.00 561.00 700.00" xmlns="http://www.w3.org/2000/svg" xmlns:xlink="http://www.w3.org/1999/xlink">
<g id="graph0" class="graph" transform="scale(1 1) rotate(0) translate(4 696)">
<title>Listing</title>
<polygon fill="white" stroke="none" points="-4,4 -4,-696 557,-696 557,4 -4,4"/>
<!-- Node1 -->
<g id="node1" class="node"><title>Node1</title>
<polygon fill="#bfbfbf" stroke="black" points="170,-0.5 170,-156.5 257,-156.5 257,-0.5 170,-0.5"/>
<text text-anchor="middle" x="213.5" y="-144.5" font-family="Helvetica,sans-Serif" font-size="10.00">Listing</text>
<polyline fill="none" stroke="black" points="170,-137.5 257,-137.5 "/>
<text text-anchor="start" x="178" y="-125.5" font-family="Helvetica,sans-Serif" font-size="10.00">&#45; partQtys_M</text>
<polyline fill="none" stroke="black" points="170,-118.5 257,-118.5 "/>
<text text-anchor="start" x="178" y="-106.5" font-family="Helvetica,sans-Serif" font-size="10.00">+ Listing()</text>
<text text-anchor="start" x="178" y="-95.5" font-family="Helvetica,sans-Serif" font-size="10.00">+ listingID()</text>
<text text-anchor="start" x="178" y="-84.5" font-family="Helvetica,sans-Serif" font-size="10.00">+ title()</text>
<text text-anchor="start" x="178" y="-73.5" font-family="Helvetica,sans-Serif" font-size="10.00">+ brand()</text>
<text text-anchor="start" x="178" y="-62.5" font-family="Helvetica,sans-Serif" font-size="10.00">+ noOfParts()</text>
<text text-anchor="start" x="178" y="-51.5" font-family="Helvetica,sans-Serif" font-size="10.00">+ partNos()</text>
<text text-anchor="start" x="178" y="-40.5" font-family="Helvetica,sans-Serif" font-size="10.00">+ part()</text>
<text text-anchor="start" x="178" y="-29.5" font-family="Helvetica,sans-Serif" font-size="10.00">+ qty()</text>
<text text-anchor="start" x="178" y="-18.5" font-family="Helvetica,sans-Serif" font-size="10.00">+ listingCost()</text>
<text text-anchor="start" x="178" y="-7.5" font-family="Helvetica,sans-Serif" font-size="10.00">&#45; getListingInfo()</text>
</g>
<!-- Node2 -->
<g id="node2" class="node"><title>Node2</title>
<g id="a_node2"><a xlink:href="$classtomoBay_1_1model_1_1dataTypes_1_1heteroTypeContainer_1_1HeteroFieldContainer.html" xlink:title="This class represents a container of AbstractField types and a value associated with this field...">
<polygon fill="white" stroke="black" points="66.5,-215.5 66.5,-338.5 190.5,-338.5 190.5,-215.5 66.5,-215.5"/>
<text text-anchor="middle" x="128.5" y="-326.5" font-family="Helvetica,sans-Serif" font-size="10.00">HeteroFieldContainer</text>
<polyline fill="none" stroke="black" points="66.5,-319.5 190.5,-319.5 "/>
<text text-anchor="middle" x="128.5" y="-307.5" font-family="Helvetica,sans-Serif" font-size="10.00"> </text>
<polyline fill="none" stroke="black" points="66.5,-300.5 190.5,-300.5 "/>
<text text-anchor="start" x="74.5" y="-288.5" font-family="Helvetica,sans-Serif" font-size="10.00">+ HeteroFieldContainer()</text>
<text text-anchor="start" x="74.5" y="-277.5" font-family="Helvetica,sans-Serif" font-size="10.00">+ clear()</text>
<text text-anchor="start" x="74.5" y="-266.5" font-family="Helvetica,sans-Serif" font-size="10.00">+ size()</text>
<text text-anchor="start" x="74.5" y="-255.5" font-family="Helvetica,sans-Serif" font-size="10.00">+ finalize()</text>
<text text-anchor="start" x="74.5" y="-244.5" font-family="Helvetica,sans-Serif" font-size="10.00">~ add()</text>
<text text-anchor="start" x="74.5" y="-233.5" font-family="Helvetica,sans-Serif" font-size="10.00">~ get()</text>
<text text-anchor="start" x="74.5" y="-222.5" font-family="Helvetica,sans-Serif" font-size="10.00">&#45; isSameType()</text>
</a>
</g>
</g>
<!-- Node2&#45;&gt;Node1 -->
<g id="edge1" class="edge"><title>Node2&#45;&gt;Node1</title>
<path fill="none" stroke="#404040" d="M154.696,-215.44C161.236,-200.322 168.382,-183.801 175.37,-167.648"/>
<polygon fill="none" stroke="#404040" points="175.408,-167.56 174.119,-160.465 180.172,-156.546 181.461,-163.641 175.408,-167.56"/>
<text text-anchor="middle" x="204" y="-178" font-family="Helvetica,sans-Serif" font-size="10.00"> &#45;ListingInfo_M</text>
</g>
<!-- Node3 -->
<g id="node3" class="node"><title>Node3</title>
<polygon fill="white" stroke="#bfbfbf" points="0,-436 0,-515 201,-515 201,-436 0,-436"/>
<text text-anchor="start" x="8" y="-503" font-family="Helvetica,sans-Serif" font-size="10.00">Map&lt; String, Map&lt; tomoBay.model.data</text>
<text text-anchor="start" x="8" y="-492" font-family="Helvetica,sans-Serif" font-size="10.00">Types.heteroTypeContainer.AbstractField,</text>
<text text-anchor="middle" x="100.5" y="-481" font-family="Helvetica,sans-Serif" font-size="10.00"> Object &gt; &gt;</text>
<polyline fill="none" stroke="#bfbfbf" points="0,-474 201,-474 "/>
<text text-anchor="middle" x="100.5" y="-462" font-family="Helvetica,sans-Serif" font-size="10.00"> </text>
<polyline fill="none" stroke="#bfbfbf" points="0,-455 201,-455 "/>
<text text-anchor="middle" x="100.5" y="-443" font-family="Helvetica,sans-Serif" font-size="10.00"> </text>
</g>
<!-- Node3&#45;&gt;Node2 -->
<g id="edge2" class="edge"><title>Node3&#45;&gt;Node2</title>
<path fill="none" stroke="#404040" d="M106.032,-435.678C109.476,-411.505 114.016,-379.644 118.113,-350.893"/>
<polygon fill="none" stroke="#404040" points="118.145,-350.672 115.031,-344.168 119.837,-338.792 122.951,-345.297 118.145,-350.672"/>
<text text-anchor="middle" x="144" y="-371" font-family="Helvetica,sans-Serif" font-size="10.00"> &#45;fieldMap_M</text>
</g>
<!-- Node4 -->
<g id="node4" class="node"><title>Node4</title>
<g id="a_node4"><a xlink:href="$classtomoBay_1_1model_1_1dataTypes_1_1order_1_1Part.html" xlink:title="{Part\n|&#45; cost_M\l&#45; BADCHAR\l|+ Part()\l+ partNo()\l+ brand()\l+ description()\l+ cost()\l&#45; getCost()\l&#45; getDescription()\l&#45; badChar()\l}">
<polygon fill="white" stroke="black" points="236.5,-204.5 236.5,-349.5 328.5,-349.5 328.5,-204.5 236.5,-204.5"/>
<text text-anchor="middle" x="282.5" y="-337.5" font-family="Helvetica,sans-Serif" font-size="10.00">Part</text>
<polyline fill="none" stroke="black" points="236.5,-330.5 328.5,-330.5 "/>
<text text-anchor="start" x="244.5" y="-318.5" font-family="Helvetica,sans-Serif" font-size="10.00">&#45; cost_M</text>
<text text-anchor="start" x="244.5" y="-307.5" font-family="Helvetica,sans-Serif" font-size="10.00">&#45; BADCHAR</text>
<polyline fill="none" stroke="black" points="236.5,-300.5 328.5,-300.5 "/>
<text text-anchor="start" x="244.5" y="-288.5" font-family="Helvetica,sans-Serif" font-size="10.00">+ Part()</text>
<text text-anchor="start" x="244.5" y="-277.5" font-family="Helvetica,sans-Serif" font-size="10.00">+ partNo()</text>
<text text-anchor="start" x="244.5" y="-266.5" font-family="Helvetica,sans-Serif" font-size="10.00">+ brand()</text>
<text text-anchor="start" x="244.5" y="-255.5" font-family="Helvetica,sans-Serif" font-size="10.00">+ description()</text>
<text text-anchor="start" x="244.5" y="-244.5" font-family="Helvetica,sans-Serif" font-size="10.00">+ cost()</text>
<text text-anchor="start" x="244.5" y="-233.5" font-family="Helvetica,sans-Serif" font-size="10.00">&#45; getCost()</text>
<text text-anchor="start" x="244.5" y="-222.5" font-family="Helvetica,sans-Serif" font-size="10.00">&#45; getDescription()</text>
<text text-anchor="start" x="244.5" y="-211.5" font-family="Helvetica,sans-Serif" font-size="10.00">&#45; badChar()</text>
</a>
</g>
</g>
<!-- Node4&#45;&gt;Node1 -->
<g id="edge3" class="edge"><title>Node4&#45;&gt;Node1</title>
<path fill="none" stroke="#404040" d="M257.297,-204.225C253.183,-192.51 248.879,-180.253 244.643,-168.19"/>
<polygon fill="none" stroke="#404040" points="244.587,-168.03 238.825,-163.694 240.611,-156.708 246.373,-161.043 244.587,-168.03"/>
<text text-anchor="middle" x="271.5" y="-178" font-family="Helvetica,sans-Serif" font-size="10.00"> &#45;parts_M</text>
</g>
<!-- Node5 -->
<g id="node5" class="node"><title>Node5</title>
<g id="a_node5"><a xlink:href="$classtomoBay_1_1model_1_1winstock_1_1Stock.html" xlink:title="This class is responsible for querying winstock for information. ">
<polygon fill="white" stroke="black" points="219.5,-397.5 219.5,-553.5 345.5,-553.5 345.5,-397.5 219.5,-397.5"/>
<text text-anchor="middle" x="282.5" y="-541.5" font-family="Helvetica,sans-Serif" font-size="10.00">Stock</text>
<polyline fill="none" stroke="black" points="219.5,-534.5 345.5,-534.5 "/>
<text text-anchor="start" x="227.5" y="-522.5" font-family="Helvetica,sans-Serif" font-size="10.00">+ ERROR</text>
<text text-anchor="start" x="227.5" y="-511.5" font-family="Helvetica,sans-Serif" font-size="10.00">&#45; HTTP_HEADER</text>
<text text-anchor="start" x="227.5" y="-500.5" font-family="Helvetica,sans-Serif" font-size="10.00">&#45; URL_PT1_M</text>
<text text-anchor="start" x="227.5" y="-489.5" font-family="Helvetica,sans-Serif" font-size="10.00">&#45; URL_PT2_M</text>
<polyline fill="none" stroke="black" points="219.5,-482.5 345.5,-482.5 "/>
<text text-anchor="start" x="227.5" y="-470.5" font-family="Helvetica,sans-Serif" font-size="10.00">+ Stock()</text>
<text text-anchor="start" x="227.5" y="-459.5" font-family="Helvetica,sans-Serif" font-size="10.00">+ requestStockLevel()</text>
<text text-anchor="start" x="227.5" y="-448.5" font-family="Helvetica,sans-Serif" font-size="10.00">+ requestDescription()</text>
<text text-anchor="start" x="227.5" y="-437.5" font-family="Helvetica,sans-Serif" font-size="10.00">+ requestLastCost()</text>
<text text-anchor="start" x="227.5" y="-426.5" font-family="Helvetica,sans-Serif" font-size="10.00">+ requestInvoiceWeight()</text>
<text text-anchor="start" x="227.5" y="-415.5" font-family="Helvetica,sans-Serif" font-size="10.00">&#45; queryWinstockURL()</text>
<text text-anchor="start" x="227.5" y="-404.5" font-family="Helvetica,sans-Serif" font-size="10.00">&#45; postFormatXMLString()</text>
</a>
</g>
</g>
<!-- Node5&#45;&gt;Node4 -->
<g id="edge4" class="edge"><title>Node5&#45;&gt;Node4</title>
<path fill="none" stroke="#404040" d="M282.5,-397.402C282.5,-385.751 282.5,-373.684 282.5,-361.898"/>
<polygon fill="none" stroke="#404040" points="282.5,-361.747 278.5,-355.747 282.5,-349.747 286.5,-355.747 282.5,-361.747"/>
<text text-anchor="middle" x="312" y="-371" font-family="Helvetica,sans-Serif" font-size="10.00"> &#45;winstock_M</text>
</g>
<!-- Node6 -->
<g id="node6" class="node"><title>Node6</title>
<g id="a_node6"><a xlink:href="$classtomoBay_1_1model_1_1net_1_1HttpResponse.html" xlink:title="Copyright(C) 2015 Jan P.C. ">
<polygon fill="white" stroke="black" points="218,-601.5 218,-691.5 347,-691.5 347,-601.5 218,-601.5"/>
<text text-anchor="middle" x="282.5" y="-679.5" font-family="Helvetica,sans-Serif" font-size="10.00">HttpResponse</text>
<polyline fill="none" stroke="black" points="218,-672.5 347,-672.5 "/>
<text text-anchor="start" x="226" y="-660.5" font-family="Helvetica,sans-Serif" font-size="10.00">&#45; responseCode_M</text>
<text text-anchor="start" x="226" y="-649.5" font-family="Helvetica,sans-Serif" font-size="10.00">&#45; responseMessage_M</text>
<polyline fill="none" stroke="black" points="218,-642.5 347,-642.5 "/>
<text text-anchor="start" x="226" y="-630.5" font-family="Helvetica,sans-Serif" font-size="10.00">+ HttpResponse()</text>
<text text-anchor="start" x="226" y="-619.5" font-family="Helvetica,sans-Serif" font-size="10.00">+ getResponseCode()</text>
<text text-anchor="start" x="226" y="-608.5" font-family="Helvetica,sans-Serif" font-size="10.00">+ getResponseMessage()</text>
</a>
</g>
</g>
<!-- Node6&#45;&gt;Node5 -->
<g id="edge5" class="edge"><title>Node6&#45;&gt;Node5</title>
<path fill="none" stroke="#404040" d="M282.5,-601.097C282.5,-590.168 282.5,-578.075 282.5,-565.845"/>
<polygon fill="none" stroke="#404040" points="282.5,-565.609 278.5,-559.609 282.5,-553.609 286.5,-559.609 282.5,-565.609"/>
<text text-anchor="middle" x="312.5" y="-575" font-family="Helvetica,sans-Serif" font-size="10.00"> &#45;response_M</text>
</g>
<!-- Node7 -->
<g id="node7" class="node"><title>Node7</title>
<polygon fill="white" stroke="#bfbfbf" points="364,-441.5 364,-509.5 553,-509.5 553,-441.5 364,-441.5"/>
<text text-anchor="start" x="372" y="-497.5" font-family="Helvetica,sans-Serif" font-size="10.00">Map&lt; tomoBay.model.dataTypes.order.</text>
<text text-anchor="middle" x="458.5" y="-486.5" font-family="Helvetica,sans-Serif" font-size="10.00">Part.stringTypes, String &gt;</text>
<polyline fill="none" stroke="#bfbfbf" points="364,-479.5 553,-479.5 "/>
<text text-anchor="middle" x="458.5" y="-467.5" font-family="Helvetica,sans-Serif" font-size="10.00"> </text>
<polyline fill="none" stroke="#bfbfbf" points="364,-460.5 553,-460.5 "/>
<text text-anchor="middle" x="458.5" y="-448.5" font-family="Helvetica,sans-Serif" font-size="10.00"> </text>
</g>
<!-- Node7&#45;&gt;Node4 -->
<g id="edge6" class="edge"><title>Node7&#45;&gt;Node4</title>
<path fill="none" stroke="#404040" d="M428.644,-441.166C403.633,-413.242 367.28,-372.655 337.088,-338.947"/>
<polygon fill="none" stroke="#404040" points="336.757,-338.577 329.774,-336.776 328.751,-329.638 335.734,-331.439 336.757,-338.577"/>
<text text-anchor="middle" x="414.5" y="-371" font-family="Helvetica,sans-Serif" font-size="10.00"> &#45;stringProperties_M</text>
</g>
</g>
</svg>
