<?xml version="1.0" encoding="UTF-8" standalone="no"?>
<!DOCTYPE svg PUBLIC "-//W3C//DTD SVG 1.1//EN"
 "http://www.w3.org/Graphics/SVG/1.1/DTD/svg11.dtd">
<!-- Generated by graphviz version 2.38.0 (20140413.2041)
 -->
<!-- Title: PutInvoiceCommand Pages: 1 -->
<svg width="699pt" height="513pt"
 viewBox="0.00 0.00 698.50 513.00" xmlns="http://www.w3.org/2000/svg" xmlns:xlink="http://www.w3.org/1999/xlink">
<g id="graph0" class="graph" transform="scale(1 1) rotate(0) translate(4 509)">
<title>PutInvoiceCommand</title>
<polygon fill="white" stroke="none" points="-4,4 -4,-509 694.5,-509 694.5,4 -4,4"/>
<!-- Node1 -->
<g id="node1" class="node"><title>Node1</title>
<polygon fill="#bfbfbf" stroke="black" points="381,-0.5 381,-68.5 506,-68.5 506,-0.5 381,-0.5"/>
<text text-anchor="middle" x="443.5" y="-56.5" font-family="Helvetica,sans-Serif" font-size="10.00">PutInvoiceCommand</text>
<polyline fill="none" stroke="black" points="381,-49.5 506,-49.5 "/>
<text text-anchor="start" x="389" y="-37.5" font-family="Helvetica,sans-Serif" font-size="10.00">&#45; RESPONSE_LENGTH</text>
<polyline fill="none" stroke="black" points="381,-30.5 506,-30.5 "/>
<text text-anchor="start" x="389" y="-18.5" font-family="Helvetica,sans-Serif" font-size="10.00">+ PutInvoiceCommand()</text>
<text text-anchor="start" x="389" y="-7.5" font-family="Helvetica,sans-Serif" font-size="10.00">+ execute()</text>
</g>
<!-- Node2 -->
<g id="node2" class="node"><title>Node2</title>
<g id="a_node2"><a xlink:href="classtomoBay_1_1model_1_1winstock_1_1commands_1_1AbstractWinstockCommand.html" target="_top" xlink:title="This is the abstract base class for all Winstock commands, and acts as the abstract command in a GoF ...">
<polygon fill="white" stroke="black" points="214.5,-138.5 214.5,-206.5 368.5,-206.5 368.5,-138.5 214.5,-138.5"/>
<text text-anchor="middle" x="291.5" y="-194.5" font-family="Helvetica,sans-Serif" font-size="10.00">AbstractWinstockCommand</text>
<polyline fill="none" stroke="black" points="214.5,-187.5 368.5,-187.5 "/>
<text text-anchor="middle" x="291.5" y="-175.5" font-family="Helvetica,sans-Serif" font-size="10.00"> </text>
<polyline fill="none" stroke="black" points="214.5,-168.5 368.5,-168.5 "/>
<text text-anchor="start" x="222.5" y="-156.5" font-family="Helvetica,sans-Serif" font-size="10.00">+ execute()</text>
<text text-anchor="start" x="222.5" y="-145.5" font-family="Helvetica,sans-Serif" font-size="10.00"># AbstractWinstockCommand()</text>
</a>
</g>
</g>
<!-- Node2&#45;&gt;Node1 -->
<g id="edge1" class="edge"><title>Node2&#45;&gt;Node1</title>
<path fill="none" stroke="midnightblue" d="M336.376,-131.347C358.681,-111.39 385.31,-87.5651 406.437,-68.6613"/>
<polygon fill="none" stroke="midnightblue" points="333.802,-128.954 328.683,-138.231 338.47,-134.171 333.802,-128.954"/>
</g>
<!-- Node3 -->
<g id="node3" class="node"><title>Node3</title>
<g id="a_node3"><a xlink:href="classtomoBay_1_1model_1_1net_1_1ClientSocket.html" target="_top" xlink:title="This class is responsible for creating a client socket connection to a particular machine at a specif...">
<polygon fill="white" stroke="black" points="114.5,-287.5 114.5,-366.5 202.5,-366.5 202.5,-287.5 114.5,-287.5"/>
<text text-anchor="middle" x="158.5" y="-354.5" font-family="Helvetica,sans-Serif" font-size="10.00">ClientSocket</text>
<polyline fill="none" stroke="black" points="114.5,-347.5 202.5,-347.5 "/>
<text text-anchor="middle" x="158.5" y="-335.5" font-family="Helvetica,sans-Serif" font-size="10.00"> </text>
<polyline fill="none" stroke="black" points="114.5,-328.5 202.5,-328.5 "/>
<text text-anchor="start" x="122.5" y="-316.5" font-family="Helvetica,sans-Serif" font-size="10.00">+ ClientSocket()</text>
<text text-anchor="start" x="122.5" y="-305.5" font-family="Helvetica,sans-Serif" font-size="10.00">+ send()</text>
<text text-anchor="start" x="122.5" y="-294.5" font-family="Helvetica,sans-Serif" font-size="10.00">+ close()</text>
</a>
</g>
</g>
<!-- Node3&#45;&gt;Node2 -->
<g id="edge2" class="edge"><title>Node3&#45;&gt;Node2</title>
<path fill="none" stroke="#404040" d="M161.816,-287.37C164.467,-273.66 169.174,-258.735 177.5,-247 186.621,-234.144 198.767,-222.986 211.731,-213.517"/>
<polygon fill="none" stroke="#404040" points="211.885,-213.411 214.558,-206.714 221.768,-206.605 219.095,-213.303 211.885,-213.411"/>
<text text-anchor="middle" x="233" y="-250" font-family="Helvetica,sans-Serif" font-size="10.00"> #winstockConnection_M</text>
</g>
<!-- Node4 -->
<g id="node4" class="node"><title>Node4</title>
<polygon fill="white" stroke="#bfbfbf" points="0,-436.5 0,-493.5 91,-493.5 91,-436.5 0,-436.5"/>
<text text-anchor="middle" x="45.5" y="-481.5" font-family="Helvetica,sans-Serif" font-size="10.00">DataInputStream</text>
<polyline fill="none" stroke="#bfbfbf" points="0,-474.5 91,-474.5 "/>
<text text-anchor="middle" x="45.5" y="-462.5" font-family="Helvetica,sans-Serif" font-size="10.00"> </text>
<polyline fill="none" stroke="#bfbfbf" points="0,-455.5 91,-455.5 "/>
<text text-anchor="middle" x="45.5" y="-443.5" font-family="Helvetica,sans-Serif" font-size="10.00"> </text>
</g>
<!-- Node4&#45;&gt;Node3 -->
<g id="edge3" class="edge"><title>Node4&#45;&gt;Node3</title>
<path fill="none" stroke="#404040" d="M68.3672,-436.478C82.7866,-419.124 101.801,-396.24 118.647,-375.964"/>
<polygon fill="none" stroke="#404040" points="118.792,-375.79 119.55,-368.619 126.461,-366.56 125.703,-373.731 118.792,-375.79"/>
<text text-anchor="middle" x="126" y="-399" font-family="Helvetica,sans-Serif" font-size="10.00"> &#45;dataIn_M</text>
</g>
<!-- Node5 -->
<g id="node5" class="node"><title>Node5</title>
<polygon fill="white" stroke="#bfbfbf" points="109.5,-436.5 109.5,-493.5 207.5,-493.5 207.5,-436.5 109.5,-436.5"/>
<text text-anchor="middle" x="158.5" y="-481.5" font-family="Helvetica,sans-Serif" font-size="10.00">DataOutputStream</text>
<polyline fill="none" stroke="#bfbfbf" points="109.5,-474.5 207.5,-474.5 "/>
<text text-anchor="middle" x="158.5" y="-462.5" font-family="Helvetica,sans-Serif" font-size="10.00"> </text>
<polyline fill="none" stroke="#bfbfbf" points="109.5,-455.5 207.5,-455.5 "/>
<text text-anchor="middle" x="158.5" y="-443.5" font-family="Helvetica,sans-Serif" font-size="10.00"> </text>
</g>
<!-- Node5&#45;&gt;Node3 -->
<g id="edge4" class="edge"><title>Node5&#45;&gt;Node3</title>
<path fill="none" stroke="#404040" d="M158.5,-436.478C158.5,-419.909 158.5,-398.299 158.5,-378.732"/>
<polygon fill="none" stroke="#404040" points="158.5,-378.56 154.5,-372.56 158.5,-366.56 162.5,-372.56 158.5,-378.56"/>
<text text-anchor="middle" x="186" y="-399" font-family="Helvetica,sans-Serif" font-size="10.00"> &#45;dataOut_M</text>
</g>
<!-- Node6 -->
<g id="node6" class="node"><title>Node6</title>
<polygon fill="white" stroke="#bfbfbf" points="226,-436.5 226,-493.5 273,-493.5 273,-436.5 226,-436.5"/>
<text text-anchor="middle" x="249.5" y="-481.5" font-family="Helvetica,sans-Serif" font-size="10.00">Socket</text>
<polyline fill="none" stroke="#bfbfbf" points="226,-474.5 273,-474.5 "/>
<text text-anchor="middle" x="249.5" y="-462.5" font-family="Helvetica,sans-Serif" font-size="10.00"> </text>
<polyline fill="none" stroke="#bfbfbf" points="226,-455.5 273,-455.5 "/>
<text text-anchor="middle" x="249.5" y="-443.5" font-family="Helvetica,sans-Serif" font-size="10.00"> </text>
</g>
<!-- Node6&#45;&gt;Node3 -->
<g id="edge5" class="edge"><title>Node6&#45;&gt;Node3</title>
<path fill="none" stroke="#404040" d="M238.523,-436.281C232.977,-423.573 225.688,-408.573 217.5,-396 213.145,-389.312 208.179,-382.587 203.021,-376.105"/>
<polygon fill="none" stroke="#404040" points="203,-376.08 196.099,-373.99 195.373,-366.816 202.275,-368.906 203,-376.08"/>
<text text-anchor="middle" x="249" y="-399" font-family="Helvetica,sans-Serif" font-size="10.00"> &#45;socket_M</text>
</g>
<!-- Node7 -->
<g id="node7" class="node"><title>Node7</title>
<g id="a_node7"><a xlink:href="classtomoBay_1_1model_1_1winstock_1_1WinstockConfig.html" target="_top" xlink:title="This class is responsible for grabbing and storing the contents of the winstock configuration file...">
<polygon fill="white" stroke="black" points="238.5,-287.5 238.5,-366.5 346.5,-366.5 346.5,-287.5 238.5,-287.5"/>
<text text-anchor="middle" x="292.5" y="-354.5" font-family="Helvetica,sans-Serif" font-size="10.00">WinstockConfig</text>
<polyline fill="none" stroke="black" points="238.5,-347.5 346.5,-347.5 "/>
<text text-anchor="middle" x="292.5" y="-335.5" font-family="Helvetica,sans-Serif" font-size="10.00"> </text>
<polyline fill="none" stroke="black" points="238.5,-328.5 346.5,-328.5 "/>
<text text-anchor="start" x="246.5" y="-316.5" font-family="Helvetica,sans-Serif" font-size="10.00">+ WinstockConfig()</text>
<text text-anchor="start" x="246.5" y="-305.5" font-family="Helvetica,sans-Serif" font-size="10.00">+ getMachineName()</text>
<text text-anchor="start" x="246.5" y="-294.5" font-family="Helvetica,sans-Serif" font-size="10.00">+ getPort()</text>
</a>
</g>
</g>
<!-- Node7&#45;&gt;Node2 -->
<g id="edge6" class="edge"><title>Node7&#45;&gt;Node2</title>
<path fill="none" stroke="#404040" d="M292.245,-287.123C292.109,-266.321 291.94,-240.587 291.798,-218.874"/>
<polygon fill="none" stroke="#404040" points="291.796,-218.621 287.757,-212.647 291.717,-206.621 295.756,-212.595 291.796,-218.621"/>
<text text-anchor="middle" x="317" y="-250" font-family="Helvetica,sans-Serif" font-size="10.00"> #config_M</text>
</g>
<!-- Node8 -->
<g id="node8" class="node"><title>Node8</title>
<g id="a_node8"><a xlink:href="classtomoBay_1_1model_1_1winstock_1_1payloads_1_1PutInvoicePayload.html" target="_top" xlink:title="PutInvoiceMessage DataType Label Notes &#160;byte[4] Header &quot;WSC0&quot; byte Type 34 byte Company 0=ford...">
<polygon fill="white" stroke="black" points="387,-144 387,-201 500,-201 500,-144 387,-144"/>
<text text-anchor="middle" x="443.5" y="-189" font-family="Helvetica,sans-Serif" font-size="10.00">PutInvoicePayload</text>
<polyline fill="none" stroke="black" points="387,-182 500,-182 "/>
<text text-anchor="middle" x="443.5" y="-170" font-family="Helvetica,sans-Serif" font-size="10.00"> </text>
<polyline fill="none" stroke="black" points="387,-163 500,-163 "/>
<text text-anchor="start" x="395" y="-151" font-family="Helvetica,sans-Serif" font-size="10.00">+ PutInvoicePayload()</text>
</a>
</g>
</g>
<!-- Node8&#45;&gt;Node1 -->
<g id="edge7" class="edge"><title>Node8&#45;&gt;Node1</title>
<path fill="none" stroke="#404040" d="M443.5,-143.978C443.5,-125.896 443.5,-101.81 443.5,-80.9274"/>
<polygon fill="none" stroke="#404040" points="443.5,-80.7476 439.5,-74.7476 443.5,-68.7476 447.5,-74.7476 443.5,-80.7476"/>
<text text-anchor="middle" x="470.5" y="-90" font-family="Helvetica,sans-Serif" font-size="10.00"> &#45;payload_M</text>
</g>
<!-- Node9 -->
<g id="node9" class="node"><title>Node9</title>
<g id="a_node9"><a xlink:href="classtomoBay_1_1model_1_1winstock_1_1payloads_1_1AbstractPayload.html" target="_top" xlink:title="This is the abstract base class for all Payload sub types. ">
<polygon fill="white" stroke="black" points="384.5,-282 384.5,-372 488.5,-372 488.5,-282 384.5,-282"/>
<text text-anchor="middle" x="436.5" y="-360" font-family="Helvetica,sans-Serif" font-size="10.00">AbstractPayload</text>
<polyline fill="none" stroke="black" points="384.5,-353 488.5,-353 "/>
<text text-anchor="start" x="392.5" y="-341" font-family="Helvetica,sans-Serif" font-size="10.00"># HEADER_M</text>
<text text-anchor="start" x="392.5" y="-330" font-family="Helvetica,sans-Serif" font-size="10.00"># FOOTER_M</text>
<polyline fill="none" stroke="black" points="384.5,-323 488.5,-323 "/>
<text text-anchor="start" x="392.5" y="-311" font-family="Helvetica,sans-Serif" font-size="10.00">+ AbstractPayload()</text>
<text text-anchor="start" x="392.5" y="-300" font-family="Helvetica,sans-Serif" font-size="10.00">+ getPayload()</text>
<text text-anchor="start" x="392.5" y="-289" font-family="Helvetica,sans-Serif" font-size="10.00">&#45; getResult()</text>
</a>
</g>
</g>
<!-- Node9&#45;&gt;Node8 -->
<g id="edge8" class="edge"><title>Node9&#45;&gt;Node8</title>
<path fill="none" stroke="midnightblue" d="M438.985,-271.87C440.082,-247.964 441.325,-220.881 442.229,-201.194"/>
<polygon fill="none" stroke="midnightblue" points="435.487,-271.741 438.525,-281.891 442.48,-272.062 435.487,-271.741"/>
</g>
<!-- Node10 -->
<g id="node10" class="node"><title>Node10</title>
<polygon fill="white" stroke="#bfbfbf" points="292,-425.5 292,-504.5 575,-504.5 575,-425.5 292,-425.5"/>
<text text-anchor="start" x="300" y="-492.5" font-family="Helvetica,sans-Serif" font-size="10.00">Map&lt; tomoBay.model.winstock.payloads.</text>
<text text-anchor="start" x="300" y="-481.5" font-family="Helvetica,sans-Serif" font-size="10.00">PayloadType, tomoBay.model.winstock.payloads.component</text>
<text text-anchor="middle" x="433.5" y="-470.5" font-family="Helvetica,sans-Serif" font-size="10.00">Factories.AbstractComponentFactory &gt;</text>
<polyline fill="none" stroke="#bfbfbf" points="292,-463.5 575,-463.5 "/>
<text text-anchor="middle" x="433.5" y="-451.5" font-family="Helvetica,sans-Serif" font-size="10.00"> </text>
<polyline fill="none" stroke="#bfbfbf" points="292,-444.5 575,-444.5 "/>
<text text-anchor="middle" x="433.5" y="-432.5" font-family="Helvetica,sans-Serif" font-size="10.00"> </text>
</g>
<!-- Node10&#45;&gt;Node9 -->
<g id="edge9" class="edge"><title>Node10&#45;&gt;Node9</title>
<path fill="none" stroke="#404040" d="M434.352,-425.392C434.63,-412.765 434.946,-398.465 435.247,-384.787"/>
<polygon fill="none" stroke="#404040" points="435.254,-384.464 431.388,-378.377 435.519,-372.467 439.386,-378.554 435.254,-384.464"/>
<text text-anchor="middle" x="478.5" y="-399" font-family="Helvetica,sans-Serif" font-size="10.00"> #payloadBuilder_M</text>
</g>
<!-- Node11 -->
<g id="node11" class="node"><title>Node11</title>
<polygon fill="white" stroke="#bfbfbf" points="593,-436.5 593,-493.5 664,-493.5 664,-436.5 593,-436.5"/>
<text text-anchor="middle" x="628.5" y="-481.5" font-family="Helvetica,sans-Serif" font-size="10.00">List&lt; Byte &gt;</text>
<polyline fill="none" stroke="#bfbfbf" points="593,-474.5 664,-474.5 "/>
<text text-anchor="middle" x="628.5" y="-462.5" font-family="Helvetica,sans-Serif" font-size="10.00"> </text>
<polyline fill="none" stroke="#bfbfbf" points="593,-455.5 664,-455.5 "/>
<text text-anchor="middle" x="628.5" y="-443.5" font-family="Helvetica,sans-Serif" font-size="10.00"> </text>
</g>
<!-- Node11&#45;&gt;Node9 -->
<g id="edge10" class="edge"><title>Node11&#45;&gt;Node9</title>
<path fill="none" stroke="#404040" d="M598.221,-436.238C593.428,-432.294 588.425,-428.421 583.5,-425 550.661,-402.188 536.073,-402.177 499.077,-378.642"/>
<polygon fill="none" stroke="#404040" points="498.614,-378.338 491.403,-378.378 488.593,-371.737 495.804,-371.697 498.614,-378.338"/>
<text text-anchor="middle" x="576.5" y="-399" font-family="Helvetica,sans-Serif" font-size="10.00"> #result_M</text>
</g>
<!-- Node12 -->
<g id="node12" class="node"><title>Node12</title>
<g id="a_node12"><a xlink:href="classtomoBay_1_1model_1_1winstock_1_1response_1_1PutInvoiceResponse.html" target="_top" xlink:title="This class is the AbstractWinstockCommandResponse associated with the PutInvoiceCommand. ">
<polygon fill="white" stroke="black" points="530,-116.5 530,-228.5 645,-228.5 645,-116.5 530,-116.5"/>
<text text-anchor="middle" x="587.5" y="-216.5" font-family="Helvetica,sans-Serif" font-size="10.00">PutInvoiceResponse</text>
<polyline fill="none" stroke="black" points="530,-209.5 645,-209.5 "/>
<text text-anchor="start" x="538" y="-197.5" font-family="Helvetica,sans-Serif" font-size="10.00">&#45; responseBytes_M</text>
<text text-anchor="start" x="538" y="-186.5" font-family="Helvetica,sans-Serif" font-size="10.00">&#45; sentBytes_M</text>
<polyline fill="none" stroke="black" points="530,-179.5 645,-179.5 "/>
<text text-anchor="start" x="538" y="-167.5" font-family="Helvetica,sans-Serif" font-size="10.00">+ isSuccess()</text>
<text text-anchor="start" x="538" y="-156.5" font-family="Helvetica,sans-Serif" font-size="10.00">+ setResponseBytes()</text>
<text text-anchor="start" x="538" y="-145.5" font-family="Helvetica,sans-Serif" font-size="10.00">+ setSentBytes()</text>
<text text-anchor="start" x="538" y="-134.5" font-family="Helvetica,sans-Serif" font-size="10.00">+ getSent()</text>
<text text-anchor="start" x="538" y="-123.5" font-family="Helvetica,sans-Serif" font-size="10.00">+ getRecieved()</text>
</a>
</g>
</g>
<!-- Node12&#45;&gt;Node1 -->
<g id="edge11" class="edge"><title>Node12&#45;&gt;Node1</title>
<path fill="none" stroke="#404040" d="M531.921,-116.086C521.88,-106.306 511.442,-96.2876 501.5,-87 498.002,-83.7324 494.357,-80.3793 490.674,-77.0275"/>
<polygon fill="none" stroke="#404040" points="490.408,-76.7876 483.274,-75.737 481.5,-68.7476 488.634,-69.7982 490.408,-76.7876"/>
<text text-anchor="middle" x="541.5" y="-90" font-family="Helvetica,sans-Serif" font-size="10.00"> &#45;response_M</text>
</g>
<!-- Node13 -->
<g id="node13" class="node"><title>Node13</title>
<g id="a_node13"><a xlink:href="interfacetomoBay_1_1model_1_1winstock_1_1response_1_1AbstractWinstockCommandResponse.html" target="_top" xlink:title="This is the interface that all winstock command responses should subscribe to. ">
<polygon fill="white" stroke="black" points="506.5,-276.5 506.5,-377.5 690.5,-377.5 690.5,-276.5 506.5,-276.5"/>
<text text-anchor="middle" x="598.5" y="-365.5" font-family="Helvetica,sans-Serif" font-size="10.00">AbstractWinstockCommandResponse</text>
<polyline fill="none" stroke="black" points="506.5,-358.5 690.5,-358.5 "/>
<text text-anchor="middle" x="598.5" y="-346.5" font-family="Helvetica,sans-Serif" font-size="10.00"> </text>
<polyline fill="none" stroke="black" points="506.5,-339.5 690.5,-339.5 "/>
<text text-anchor="start" x="514.5" y="-327.5" font-family="Helvetica,sans-Serif" font-size="10.00">+ setSentBytes()</text>
<text text-anchor="start" x="514.5" y="-316.5" font-family="Helvetica,sans-Serif" font-size="10.00">+ setResponseBytes()</text>
<text text-anchor="start" x="514.5" y="-305.5" font-family="Helvetica,sans-Serif" font-size="10.00">+ isSuccess()</text>
<text text-anchor="start" x="514.5" y="-294.5" font-family="Helvetica,sans-Serif" font-size="10.00">+ getRecieved()</text>
<text text-anchor="start" x="514.5" y="-283.5" font-family="Helvetica,sans-Serif" font-size="10.00">+ getSent()</text>
</a>
</g>
</g>
<!-- Node13&#45;&gt;Node12 -->
<g id="edge12" class="edge"><title>Node13&#45;&gt;Node12</title>
<path fill="none" stroke="midnightblue" d="M594.189,-266.237C593.294,-253.826 592.355,-240.803 591.472,-228.569"/>
<polygon fill="none" stroke="midnightblue" points="590.718,-266.765 594.929,-276.488 597.7,-266.262 590.718,-266.765"/>
</g>
</g>
</svg>
