<?xml version="1.0" encoding="UTF-8" standalone="no"?>
<!DOCTYPE svg PUBLIC "-//W3C//DTD SVG 1.1//EN"
 "http://www.w3.org/Graphics/SVG/1.1/DTD/svg11.dtd">
<!-- Generated by graphviz version 2.38.0 (20140413.2041)
 -->
<!-- Title: OrdersTable Pages: 1 -->
<svg width="119pt" height="237pt"
 viewBox="0.00 0.00 119.00 237.00" xmlns="http://www.w3.org/2000/svg" xmlns:xlink="http://www.w3.org/1999/xlink">
<g id="graph0" class="graph" transform="scale(1 1) rotate(0) translate(4 233)">
<title>OrdersTable</title>
<polygon fill="white" stroke="none" points="-4,4 -4,-233 115,-233 115,4 -4,4"/>
<!-- Node1 -->
<g id="node1" class="node"><title>Node1</title>
<polygon fill="#bfbfbf" stroke="black" points="2.5,-0.5 2.5,-134.5 108.5,-134.5 108.5,-0.5 2.5,-0.5"/>
<text text-anchor="middle" x="55.5" y="-122.5" font-family="Helvetica,sans-Serif" font-size="10.00">OrdersTable</text>
<polyline fill="none" stroke="black" points="2.5,-115.5 108.5,-115.5 "/>
<text text-anchor="start" x="10.5" y="-103.5" font-family="Helvetica,sans-Serif" font-size="10.00">+ ORDER_ID</text>
<text text-anchor="start" x="10.5" y="-92.5" font-family="Helvetica,sans-Serif" font-size="10.00">+ BUYERID</text>
<text text-anchor="start" x="10.5" y="-81.5" font-family="Helvetica,sans-Serif" font-size="10.00">+ SALES_REC_NO</text>
<text text-anchor="start" x="10.5" y="-70.5" font-family="Helvetica,sans-Serif" font-size="10.00">+ SHIPPING_TYPE</text>
<text text-anchor="start" x="10.5" y="-59.5" font-family="Helvetica,sans-Serif" font-size="10.00">+ CREATED_TIME</text>
<text text-anchor="start" x="10.5" y="-48.5" font-family="Helvetica,sans-Serif" font-size="10.00">+ INVOICED</text>
<text text-anchor="start" x="10.5" y="-37.5" font-family="Helvetica,sans-Serif" font-size="10.00">+ ORDER_TOTAL</text>
<text text-anchor="start" x="10.5" y="-26.5" font-family="Helvetica,sans-Serif" font-size="10.00">+ ACCOUNT</text>
<polyline fill="none" stroke="black" points="2.5,-19.5 108.5,-19.5 "/>
<text text-anchor="start" x="10.5" y="-7.5" font-family="Helvetica,sans-Serif" font-size="10.00">&#45; OrdersTable()</text>
</g>
<!-- Node2 -->
<g id="node2" class="node"><title>Node2</title>
<g id="a_node2"><a xlink:href="interfacetomoBay_1_1model_1_1dataTypes_1_1heteroTypeContainer_1_1AbstractTypeSchema.html" target="_top" xlink:title="Derived types of this class represent the schema for a specific database and should only contain publ...">
<polygon fill="white" stroke="black" points="-7.10543e-15,-171.5 -7.10543e-15,-228.5 111,-228.5 111,-171.5 -7.10543e-15,-171.5"/>
<text text-anchor="middle" x="55.5" y="-216.5" font-family="Helvetica,sans-Serif" font-size="10.00">AbstractTypeSchema</text>
<polyline fill="none" stroke="black" points="-7.10543e-15,-209.5 111,-209.5 "/>
<text text-anchor="middle" x="55.5" y="-197.5" font-family="Helvetica,sans-Serif" font-size="10.00"> </text>
<polyline fill="none" stroke="black" points="-7.10543e-15,-190.5 111,-190.5 "/>
<text text-anchor="middle" x="55.5" y="-178.5" font-family="Helvetica,sans-Serif" font-size="10.00"> </text>
</a>
</g>
</g>
<!-- Node2&#45;&gt;Node1 -->
<g id="edge1" class="edge"><title>Node2&#45;&gt;Node1</title>
<path fill="none" stroke="midnightblue" d="M55.5,-161.16C55.5,-152.782 55.5,-143.668 55.5,-134.533"/>
<polygon fill="none" stroke="midnightblue" points="52.0001,-161.324 55.5,-171.324 59.0001,-161.324 52.0001,-161.324"/>
</g>
</g>
</svg>
