<?xml version="1.0" encoding="UTF-8" standalone="no"?>
<!DOCTYPE svg PUBLIC "-//W3C//DTD SVG 1.1//EN"
 "http://www.w3.org/Graphics/SVG/1.1/DTD/svg11.dtd">
<!-- Generated by graphviz version 2.38.0 (20140413.2041)
 -->
<!-- Title: street1 Pages: 1 -->
<svg width="812pt" height="94pt"
 viewBox="0.00 0.00 812.00 93.50" xmlns="http://www.w3.org/2000/svg" xmlns:xlink="http://www.w3.org/1999/xlink">
<g id="graph0" class="graph" transform="scale(1 1) rotate(0) translate(4 89.5)">
<title>street1</title>
<polygon fill="white" stroke="none" points="-4,4 -4,-89.5 808,-89.5 808,4 -4,4"/>
<!-- Node1 -->
<g id="node1" class="node"><title>Node1</title>
<polygon fill="#bfbfbf" stroke="black" points="0,-30 0,-49 47,-49 47,-30 0,-30"/>
<text text-anchor="middle" x="23.5" y="-37" font-family="Helvetica,sans-Serif" font-size="10.00">street1</text>
</g>
<!-- Node2 -->
<g id="node2" class="node"><title>Node2</title>
<g id="a_node2"><a xlink:href="$classtomoBay_1_1presenters_1_1presenterActions_1_1concreteActions_1_1OrderInfo.html#a0efe6811d772c53811b18a441c11b757" xlink:title="formats the buyer information associated with this order ">
<polygon fill="white" stroke="black" points="102,-49.5 102,-79.5 312,-79.5 312,-49.5 102,-49.5"/>
<text text-anchor="start" x="110" y="-67.5" font-family="Helvetica,sans-Serif" font-size="10.00">tomoBay.presenters.presenter</text>
<text text-anchor="middle" x="207" y="-56.5" font-family="Helvetica,sans-Serif" font-size="10.00">Actions.concreteActions.OrderInfo.buyerInfo</text>
</a>
</g>
</g>
<!-- Node1&#45;&gt;Node2 -->
<g id="edge1" class="edge"><title>Node1&#45;&gt;Node2</title>
<path fill="none" stroke="midnightblue" d="M57.2595,-44.0123C70.1355,-45.7859 85.6918,-47.9286 101.827,-50.1511"/>
<polygon fill="midnightblue" stroke="midnightblue" points="57.5042,-40.5131 47.1201,-42.6157 56.549,-47.4476 57.5042,-40.5131"/>
</g>
<!-- Node5 -->
<g id="node5" class="node"><title>Node5</title>
<g id="a_node5"><a xlink:href="$classtomoBay_1_1model_1_1dataTypes_1_1financial_1_1SalesOrderDayBook_1_1formats_1_1WinstockFormat.html#accefd62bc10c59d9ba78937d90a5fa8c" xlink:title="tomoBay.model.dataTypes.financial.\lSalesOrderDayBook.formats.WinstockFormat.format">
<polygon fill="white" stroke="black" points="83,-0.5 83,-30.5 331,-30.5 331,-0.5 83,-0.5"/>
<text text-anchor="start" x="91" y="-18.5" font-family="Helvetica,sans-Serif" font-size="10.00">tomoBay.model.dataTypes.financial.</text>
<text text-anchor="middle" x="207" y="-7.5" font-family="Helvetica,sans-Serif" font-size="10.00">SalesOrderDayBook.formats.WinstockFormat.format</text>
</a>
</g>
</g>
<!-- Node1&#45;&gt;Node5 -->
<g id="edge4" class="edge"><title>Node1&#45;&gt;Node5</title>
<path fill="none" stroke="midnightblue" d="M57.2492,-35.1695C67.6171,-33.7986 79.7236,-32.1977 92.4711,-30.5121"/>
<polygon fill="midnightblue" stroke="midnightblue" points="56.575,-31.7281 47.1201,-36.5089 57.4927,-38.6677 56.575,-31.7281"/>
</g>
<!-- Node3 -->
<g id="node3" class="node"><title>Node3</title>
<g id="a_node3"><a xlink:href="$classtomoBay_1_1presenters_1_1presenterActions_1_1concreteActions_1_1OrderInfo.html#afeec1aeda079b77245edea1e74b25f33" xlink:title="assembles the various parts of the order and outputs it as a fully formed JSON string. ">
<polygon fill="white" stroke="black" points="367,-44 367,-85 564,-85 564,-44 367,-44"/>
<text text-anchor="start" x="375" y="-73" font-family="Helvetica,sans-Serif" font-size="10.00">tomoBay.presenters.presenter</text>
<text text-anchor="start" x="375" y="-62" font-family="Helvetica,sans-Serif" font-size="10.00">Actions.concreteActions.OrderInfo.format</text>
<text text-anchor="middle" x="465.5" y="-51" font-family="Helvetica,sans-Serif" font-size="10.00">Results</text>
</a>
</g>
</g>
<!-- Node2&#45;&gt;Node3 -->
<g id="edge2" class="edge"><title>Node2&#45;&gt;Node3</title>
<path fill="none" stroke="midnightblue" d="M322.53,-64.5C337.336,-64.5 352.39,-64.5 366.888,-64.5"/>
<polygon fill="midnightblue" stroke="midnightblue" points="322.328,-61.0001 312.328,-64.5 322.328,-68.0001 322.328,-61.0001"/>
</g>
<!-- Node4 -->
<g id="node4" class="node"><title>Node4</title>
<g id="a_node4"><a xlink:href="$classtomoBay_1_1presenters_1_1presenterActions_1_1concreteActions_1_1OrderInfo.html#adb3dedf31dc2c7fc796f20406c235ccd" xlink:title="performs the action specified ">
<polygon fill="white" stroke="black" points="600,-49.5 600,-79.5 804,-79.5 804,-49.5 600,-49.5"/>
<text text-anchor="start" x="608" y="-67.5" font-family="Helvetica,sans-Serif" font-size="10.00">tomoBay.presenters.presenter</text>
<text text-anchor="middle" x="702" y="-56.5" font-family="Helvetica,sans-Serif" font-size="10.00">Actions.concreteActions.OrderInfo.execute</text>
</a>
</g>
</g>
<!-- Node3&#45;&gt;Node4 -->
<g id="edge3" class="edge"><title>Node3&#45;&gt;Node4</title>
<path fill="none" stroke="midnightblue" d="M574.441,-64.5C582.831,-64.5 591.285,-64.5 599.629,-64.5"/>
<polygon fill="midnightblue" stroke="midnightblue" points="574.251,-61.0001 564.251,-64.5 574.251,-68.0001 574.251,-61.0001"/>
</g>
</g>
</svg>
