<?xml version="1.0" encoding="UTF-8" standalone="no"?>
<!DOCTYPE svg PUBLIC "-//W3C//DTD SVG 1.1//EN"
 "http://www.w3.org/Graphics/SVG/1.1/DTD/svg11.dtd">
<!-- Generated by graphviz version 2.38.0 (20140413.2041)
 -->
<!-- Title: setMessage Pages: 1 -->
<svg width="986pt" height="187pt"
 viewBox="0.00 0.00 986.00 187.00" xmlns="http://www.w3.org/2000/svg" xmlns:xlink="http://www.w3.org/1999/xlink">
<g id="graph0" class="graph" transform="scale(1 1) rotate(0) translate(4 183)">
<title>setMessage</title>
<polygon fill="white" stroke="none" points="-4,4 -4,-183 982,-183 982,4 -4,4"/>
<!-- Node1 -->
<g id="node1" class="node"><title>Node1</title>
<polygon fill="#bfbfbf" stroke="black" points="0,-94.5 0,-113.5 70,-113.5 70,-94.5 0,-94.5"/>
<text text-anchor="middle" x="35" y="-101.5" font-family="Helvetica,sans-Serif" font-size="10.00">setMessage</text>
</g>
<!-- Node2 -->
<g id="node2" class="node"><title>Node2</title>
<g id="a_node2"><a xlink:href="$classtomoBay_1_1model_1_1services_1_1emailErrorsService_1_1EmailErrorsMailActions.html#a05337b002b830d253e7580044fbe0419" xlink:title="add a message to the email ">
<polygon fill="white" stroke="black" points="106,-137.5 106,-178.5 306,-178.5 306,-137.5 106,-137.5"/>
<text text-anchor="start" x="114" y="-166.5" font-family="Helvetica,sans-Serif" font-size="10.00">tomoBay.model.services.email</text>
<text text-anchor="start" x="114" y="-155.5" font-family="Helvetica,sans-Serif" font-size="10.00">ErrorsService.EmailErrorsMailActions.add</text>
<text text-anchor="middle" x="206" y="-144.5" font-family="Helvetica,sans-Serif" font-size="10.00">Message</text>
</a>
</g>
</g>
<!-- Node1&#45;&gt;Node2 -->
<g id="edge1" class="edge"><title>Node1&#45;&gt;Node2</title>
<path fill="none" stroke="midnightblue" d="M72.6775,-116.853C83.3927,-120.533 95.1418,-124.495 106,-128 115.656,-131.117 125.873,-134.32 135.931,-137.418"/>
<polygon fill="midnightblue" stroke="midnightblue" points="73.7778,-113.531 63.1831,-113.575 71.4929,-120.147 73.7778,-113.531"/>
</g>
<!-- Node6 -->
<g id="node6" class="node"><title>Node6</title>
<g id="a_node6"><a xlink:href="$classtomoBayTests_1_1model_1_1net_1_1email_1_1EmailTest.html#a8b260eecbaabcef8473fd87ada040682" xlink:title="tomoBayTests.model.net.email.\lEmailTest.main">
<polygon fill="white" stroke="black" points="128.5,-89 128.5,-119 283.5,-119 283.5,-89 128.5,-89"/>
<text text-anchor="start" x="136.5" y="-107" font-family="Helvetica,sans-Serif" font-size="10.00">tomoBayTests.model.net.email.</text>
<text text-anchor="middle" x="206" y="-96" font-family="Helvetica,sans-Serif" font-size="10.00">EmailTest.main</text>
</a>
</g>
</g>
<!-- Node1&#45;&gt;Node6 -->
<g id="edge6" class="edge"><title>Node1&#45;&gt;Node6</title>
<path fill="none" stroke="midnightblue" d="M80.4738,-104C95.1402,-104 111.899,-104 128.265,-104"/>
<polygon fill="midnightblue" stroke="midnightblue" points="80.1997,-100.5 70.1997,-104 80.1996,-107.5 80.1997,-100.5"/>
</g>
<!-- Node7 -->
<g id="node7" class="node"><title>Node7</title>
<g id="a_node7"><a xlink:href="$classtomoBay_1_1model_1_1net_1_1email_1_1MailClient.html#ab932ccc2020ca1398b5eb546e77a8d63" xlink:title="set up the email ready to use in the rest of the mail client ">
<polygon fill="white" stroke="black" points="140.5,-40 140.5,-70 271.5,-70 271.5,-40 140.5,-40"/>
<text text-anchor="start" x="148.5" y="-58" font-family="Helvetica,sans-Serif" font-size="10.00">tomoBay.model.net.email.</text>
<text text-anchor="middle" x="206" y="-47" font-family="Helvetica,sans-Serif" font-size="10.00">MailClient.setUpEmail</text>
</a>
</g>
</g>
<!-- Node1&#45;&gt;Node7 -->
<g id="edge7" class="edge"><title>Node1&#45;&gt;Node7</title>
<path fill="none" stroke="midnightblue" d="M70.2506,-90.9558C81.5507,-86.8706 94.2376,-82.5155 106,-79 117.014,-75.7081 128.817,-72.5406 140.299,-69.6466"/>
<polygon fill="midnightblue" stroke="midnightblue" points="68.9169,-87.717 60.7353,-94.4485 71.329,-94.2883 68.9169,-87.717"/>
</g>
<!-- Node3 -->
<g id="node3" class="node"><title>Node3</title>
<g id="a_node3"><a xlink:href="$classtomoBay_1_1model_1_1services_1_1emailErrorsService_1_1OnRunning.html#ae4a4f4cadce2787c7e80005639fbd5d9" xlink:title="this method defines what to do in the given derived state ">
<polygon fill="white" stroke="black" points="601,-136 601,-166 766,-166 766,-136 601,-136"/>
<text text-anchor="start" x="609" y="-154" font-family="Helvetica,sans-Serif" font-size="10.00">tomoBay.model.services.email</text>
<text text-anchor="middle" x="683.5" y="-143" font-family="Helvetica,sans-Serif" font-size="10.00">ErrorsService.OnRunning.execute</text>
</a>
</g>
</g>
<!-- Node2&#45;&gt;Node3 -->
<g id="edge2" class="edge"><title>Node2&#45;&gt;Node3</title>
<path fill="none" stroke="midnightblue" d="M316.247,-156.392C402.987,-155.115 522.349,-153.358 600.914,-152.201"/>
<polygon fill="midnightblue" stroke="midnightblue" points="316.049,-152.894 306.102,-156.541 316.152,-159.893 316.049,-152.894"/>
</g>
<!-- Node5 -->
<g id="node5" class="node"><title>Node5</title>
<g id="a_node5"><a xlink:href="$classtomoBay_1_1model_1_1services_1_1emailErrorsService_1_1EmailErrorsMailActions.html#ad1dbcb645114a23c7e2a441cb6ae9ca4" xlink:title="handle the creation of the Email by passing in a map with the appropriate data inside it...">
<polygon fill="white" stroke="black" points="342,-112 342,-142 565,-142 565,-112 342,-112"/>
<text text-anchor="start" x="350" y="-130" font-family="Helvetica,sans-Serif" font-size="10.00">tomoBay.model.services.email</text>
<text text-anchor="middle" x="453.5" y="-119" font-family="Helvetica,sans-Serif" font-size="10.00">ErrorsService.EmailErrorsMailActions.loadData</text>
</a>
</g>
</g>
<!-- Node2&#45;&gt;Node5 -->
<g id="edge4" class="edge"><title>Node2&#45;&gt;Node5</title>
<path fill="none" stroke="midnightblue" d="M316.088,-144.225C324.6,-143.15 333.201,-142.064 341.724,-140.988"/>
<polygon fill="midnightblue" stroke="midnightblue" points="315.629,-140.755 306.147,-145.48 316.506,-147.7 315.629,-140.755"/>
</g>
<!-- Node4 -->
<g id="node4" class="node"><title>Node4</title>
<g id="a_node4"><a xlink:href="$classtomoBay_1_1model_1_1services_1_1emailErrorsService_1_1EmailErrorsService.html#ae3b0a282dcba7f2d675ca89b1dd48487" xlink:title="tomoBay.model.services.email\lErrorsService.EmailErrorsService.on\lRunning">
<polygon fill="white" stroke="black" points="802,-130.5 802,-171.5 978,-171.5 978,-130.5 802,-130.5"/>
<text text-anchor="start" x="810" y="-159.5" font-family="Helvetica,sans-Serif" font-size="10.00">tomoBay.model.services.email</text>
<text text-anchor="start" x="810" y="-148.5" font-family="Helvetica,sans-Serif" font-size="10.00">ErrorsService.EmailErrorsService.on</text>
<text text-anchor="middle" x="890" y="-137.5" font-family="Helvetica,sans-Serif" font-size="10.00">Running</text>
</a>
</g>
</g>
<!-- Node3&#45;&gt;Node4 -->
<g id="edge3" class="edge"><title>Node3&#45;&gt;Node4</title>
<path fill="none" stroke="midnightblue" d="M776.413,-151C784.833,-151 793.348,-151 801.725,-151"/>
<polygon fill="midnightblue" stroke="midnightblue" points="776.205,-147.5 766.205,-151 776.205,-154.5 776.205,-147.5"/>
</g>
<!-- Node5&#45;&gt;Node3 -->
<g id="edge5" class="edge"><title>Node5&#45;&gt;Node3</title>
<path fill="none" stroke="midnightblue" d="M575.308,-139.717C583.942,-140.625 592.523,-141.529 600.853,-142.406"/>
<polygon fill="midnightblue" stroke="midnightblue" points="575.472,-136.215 565.161,-138.648 574.739,-143.176 575.472,-136.215"/>
</g>
<!-- Node8 -->
<g id="node8" class="node"><title>Node8</title>
<g id="a_node8"><a xlink:href="$classtomoBay_1_1model_1_1net_1_1email_1_1MailClient.html#af9eddf4b6d3506f30b2f282c86c59ed6" xlink:title="tomoBay.model.net.email.\lMailClient.send">
<polygon fill="white" stroke="black" points="388,-40 388,-70 519,-70 519,-40 388,-40"/>
<text text-anchor="start" x="396" y="-58" font-family="Helvetica,sans-Serif" font-size="10.00">tomoBay.model.net.email.</text>
<text text-anchor="middle" x="453.5" y="-47" font-family="Helvetica,sans-Serif" font-size="10.00">MailClient.send</text>
</a>
</g>
</g>
<!-- Node7&#45;&gt;Node8 -->
<g id="edge8" class="edge"><title>Node7&#45;&gt;Node8</title>
<path fill="none" stroke="midnightblue" d="M281.784,-55C315.554,-55 355.071,-55 387.576,-55"/>
<polygon fill="midnightblue" stroke="midnightblue" points="281.502,-51.5001 271.502,-55 281.502,-58.5001 281.502,-51.5001"/>
</g>
<!-- Node9 -->
<g id="node9" class="node"><title>Node9</title>
<g id="a_node9"><a xlink:href="$classtomoBay_1_1model_1_1net_1_1email_1_1MailClient.html#a9a353e90e57af1d4968845017c4d6fa8" xlink:title="tomoBay.model.net.email.\lMailClient.MailClient">
<polygon fill="white" stroke="black" points="618,-60 618,-90 749,-90 749,-60 618,-60"/>
<text text-anchor="start" x="626" y="-78" font-family="Helvetica,sans-Serif" font-size="10.00">tomoBay.model.net.email.</text>
<text text-anchor="middle" x="683.5" y="-67" font-family="Helvetica,sans-Serif" font-size="10.00">MailClient.MailClient</text>
</a>
</g>
</g>
<!-- Node8&#45;&gt;Node9 -->
<g id="edge9" class="edge"><title>Node8&#45;&gt;Node9</title>
<path fill="none" stroke="midnightblue" d="M529.532,-61.5818C558.001,-64.0791 590.156,-66.8997 617.612,-69.3081"/>
<polygon fill="midnightblue" stroke="midnightblue" points="529.493,-58.065 519.226,-60.6777 528.882,-65.0382 529.493,-58.065"/>
</g>
<!-- Node10 -->
<g id="node10" class="node"><title>Node10</title>
<g id="a_node10"><a xlink:href="$classtomoBay_1_1presenters_1_1presenterActions_1_1concreteActions_1_1InvoiceOrders.html#a9c77c827472e4f09aa020d55e7d33b10" xlink:title="tomoBay.presenters.presenter\lActions.concreteActions.Invoice\lOrders.emailResults">
<polygon fill="white" stroke="black" points="604.5,-0.5 604.5,-41.5 762.5,-41.5 762.5,-0.5 604.5,-0.5"/>
<text text-anchor="start" x="612.5" y="-29.5" font-family="Helvetica,sans-Serif" font-size="10.00">tomoBay.presenters.presenter</text>
<text text-anchor="start" x="612.5" y="-18.5" font-family="Helvetica,sans-Serif" font-size="10.00">Actions.concreteActions.Invoice</text>
<text text-anchor="middle" x="683.5" y="-7.5" font-family="Helvetica,sans-Serif" font-size="10.00">Orders.emailResults</text>
</a>
</g>
</g>
<!-- Node8&#45;&gt;Node10 -->
<g id="edge10" class="edge"><title>Node8&#45;&gt;Node10</title>
<path fill="none" stroke="midnightblue" d="M529.34,-43.8396C553.351,-40.259 580.001,-36.2849 604.25,-32.6689"/>
<polygon fill="midnightblue" stroke="midnightblue" points="528.6,-40.4112 519.226,-45.3479 529.633,-47.3346 528.6,-40.4112"/>
</g>
<!-- Node11 -->
<g id="node11" class="node"><title>Node11</title>
<g id="a_node11"><a xlink:href="$classtomoBay_1_1presenters_1_1presenterActions_1_1concreteActions_1_1InvoiceOrders.html#adb3dedf31dc2c7fc796f20406c235ccd" xlink:title="performs the action specified ">
<polygon fill="white" stroke="black" points="811,-0.5 811,-41.5 969,-41.5 969,-0.5 811,-0.5"/>
<text text-anchor="start" x="819" y="-29.5" font-family="Helvetica,sans-Serif" font-size="10.00">tomoBay.presenters.presenter</text>
<text text-anchor="start" x="819" y="-18.5" font-family="Helvetica,sans-Serif" font-size="10.00">Actions.concreteActions.Invoice</text>
<text text-anchor="middle" x="890" y="-7.5" font-family="Helvetica,sans-Serif" font-size="10.00">Orders.execute</text>
</a>
</g>
</g>
<!-- Node10&#45;&gt;Node11 -->
<g id="edge11" class="edge"><title>Node10&#45;&gt;Node11</title>
<path fill="none" stroke="midnightblue" d="M772.771,-21C785.44,-21 798.4,-21 810.855,-21"/>
<polygon fill="midnightblue" stroke="midnightblue" points="772.688,-17.5001 762.688,-21 772.688,-24.5001 772.688,-17.5001"/>
</g>
</g>
</svg>
