<?xml version="1.0" encoding="UTF-8" standalone="no"?>
<!DOCTYPE svg PUBLIC "-//W3C//DTD SVG 1.1//EN"
 "http://www.w3.org/Graphics/SVG/1.1/DTD/svg11.dtd">
<!-- Generated by graphviz version 2.38.0 (20140413.2041)
 -->
<!-- Title: AbstractSalesDayBookLine Pages: 1 -->
<svg width="427pt" height="408pt"
 viewBox="0.00 0.00 426.50 408.00" xmlns="http://www.w3.org/2000/svg" xmlns:xlink="http://www.w3.org/1999/xlink">
<g id="graph0" class="graph" transform="scale(1 1) rotate(0) translate(4 404)">
<title>AbstractSalesDayBookLine</title>
<polygon fill="white" stroke="none" points="-4,4 -4,-404 422.5,-404 422.5,4 -4,4"/>
<!-- Node1 -->
<g id="node1" class="node"><title>Node1</title>
<polygon fill="#bfbfbf" stroke="black" points="108.5,-105.5 108.5,-305.5 260.5,-305.5 260.5,-105.5 108.5,-105.5"/>
<text text-anchor="middle" x="184.5" y="-293.5" font-family="Helvetica,sans-Serif" font-size="10.00">AbstractSalesDayBookLine</text>
<polyline fill="none" stroke="black" points="108.5,-286.5 260.5,-286.5 "/>
<text text-anchor="start" x="116.5" y="-274.5" font-family="Helvetica,sans-Serif" font-size="10.00">&#45; order_M</text>
<text text-anchor="start" x="116.5" y="-263.5" font-family="Helvetica,sans-Serif" font-size="10.00">&#45; lineItems_M</text>
<text text-anchor="start" x="116.5" y="-252.5" font-family="Helvetica,sans-Serif" font-size="10.00">&#45; createdTime_M</text>
<polyline fill="none" stroke="black" points="108.5,-245.5 260.5,-245.5 "/>
<text text-anchor="start" x="116.5" y="-233.5" font-family="Helvetica,sans-Serif" font-size="10.00">+ AbstractSalesDayBookLine()</text>
<text text-anchor="start" x="116.5" y="-222.5" font-family="Helvetica,sans-Serif" font-size="10.00">+ getLineItem()</text>
<text text-anchor="start" x="116.5" y="-211.5" font-family="Helvetica,sans-Serif" font-size="10.00">+ size()</text>
<text text-anchor="start" x="116.5" y="-200.5" font-family="Helvetica,sans-Serif" font-size="10.00">+ orderInfo()</text>
<text text-anchor="start" x="116.5" y="-189.5" font-family="Helvetica,sans-Serif" font-size="10.00">+ createdDate()</text>
<text text-anchor="start" x="116.5" y="-178.5" font-family="Helvetica,sans-Serif" font-size="10.00">+ totalIncVat()</text>
<text text-anchor="start" x="116.5" y="-167.5" font-family="Helvetica,sans-Serif" font-size="10.00">+ totalExVat()</text>
<text text-anchor="start" x="116.5" y="-156.5" font-family="Helvetica,sans-Serif" font-size="10.00">+ invoiceNumber()</text>
<text text-anchor="start" x="116.5" y="-145.5" font-family="Helvetica,sans-Serif" font-size="10.00">+ format()</text>
<text text-anchor="start" x="116.5" y="-134.5" font-family="Helvetica,sans-Serif" font-size="10.00">+ iterator()</text>
<text text-anchor="start" x="116.5" y="-123.5" font-family="Helvetica,sans-Serif" font-size="10.00"># generateLineItems()</text>
<text text-anchor="start" x="116.5" y="-112.5" font-family="Helvetica,sans-Serif" font-size="10.00">&#45; adjustPrices()</text>
</g>
<!-- Node3 -->
<g id="node3" class="node"><title>Node3</title>
<g id="a_node3"><a xlink:href="$classtomoBay_1_1model_1_1dataTypes_1_1financial_1_1SalesOrderDayBook_1_1concreteLineTypes_1_1GSPInvoice.html" xlink:title="Copyright(C) 2015 Jan P.C. ">
<polygon fill="white" stroke="black" points="0,-0.5 0,-68.5 111,-68.5 111,-0.5 0,-0.5"/>
<text text-anchor="middle" x="55.5" y="-56.5" font-family="Helvetica,sans-Serif" font-size="10.00">GSPInvoice</text>
<polyline fill="none" stroke="black" points="0,-49.5 111,-49.5 "/>
<text text-anchor="middle" x="55.5" y="-37.5" font-family="Helvetica,sans-Serif" font-size="10.00"> </text>
<polyline fill="none" stroke="black" points="0,-30.5 111,-30.5 "/>
<text text-anchor="start" x="8" y="-18.5" font-family="Helvetica,sans-Serif" font-size="10.00">+ GSPInvoice()</text>
<text text-anchor="start" x="8" y="-7.5" font-family="Helvetica,sans-Serif" font-size="10.00"># generateLineItems()</text>
</a>
</g>
</g>
<!-- Node1&#45;&gt;Node3 -->
<g id="edge2" class="edge"><title>Node1&#45;&gt;Node3</title>
<path fill="none" stroke="midnightblue" d="M102.457,-97.0169C94.7395,-86.9068 87.385,-77.2719 80.8828,-68.7534"/>
<polygon fill="none" stroke="midnightblue" points="99.8643,-99.3892 108.714,-105.214 105.429,-95.1419 99.8643,-99.3892"/>
</g>
<!-- Node4 -->
<g id="node4" class="node"><title>Node4</title>
<g id="a_node4"><a xlink:href="$classtomoBay_1_1model_1_1dataTypes_1_1financial_1_1SalesOrderDayBook_1_1concreteLineTypes_1_1StandardInvoice.html" xlink:title="This class represents a standard invoice without extra shipping. ">
<polygon fill="white" stroke="black" points="129,-0.5 129,-68.5 240,-68.5 240,-0.5 129,-0.5"/>
<text text-anchor="middle" x="184.5" y="-56.5" font-family="Helvetica,sans-Serif" font-size="10.00">StandardInvoice</text>
<polyline fill="none" stroke="black" points="129,-49.5 240,-49.5 "/>
<text text-anchor="middle" x="184.5" y="-37.5" font-family="Helvetica,sans-Serif" font-size="10.00"> </text>
<polyline fill="none" stroke="black" points="129,-30.5 240,-30.5 "/>
<text text-anchor="start" x="137" y="-18.5" font-family="Helvetica,sans-Serif" font-size="10.00">+ StandardInvoice()</text>
<text text-anchor="start" x="137" y="-7.5" font-family="Helvetica,sans-Serif" font-size="10.00"># generateLineItems()</text>
</a>
</g>
</g>
<!-- Node1&#45;&gt;Node4 -->
<g id="edge3" class="edge"><title>Node1&#45;&gt;Node4</title>
<path fill="none" stroke="midnightblue" d="M184.5,-94.9218C184.5,-85.5767 184.5,-76.6815 184.5,-68.7534"/>
<polygon fill="none" stroke="midnightblue" points="181,-95.2144 184.5,-105.214 188,-95.2145 181,-95.2144"/>
</g>
<!-- Node5 -->
<g id="node5" class="node"><title>Node5</title>
<g id="a_node5"><a xlink:href="$classtomoBay_1_1model_1_1dataTypes_1_1financial_1_1SalesOrderDayBook_1_1concreteLineTypes_1_1StandardInvoiceWithShipping.html" xlink:title="{StandardInvoiceWithShipping\n||+ StandardInvoiceWithShipping()\l# generateLineItems()\l}">
<polygon fill="white" stroke="black" points="258.5,-0.5 258.5,-68.5 418.5,-68.5 418.5,-0.5 258.5,-0.5"/>
<text text-anchor="middle" x="338.5" y="-56.5" font-family="Helvetica,sans-Serif" font-size="10.00">StandardInvoiceWithShipping</text>
<polyline fill="none" stroke="black" points="258.5,-49.5 418.5,-49.5 "/>
<text text-anchor="middle" x="338.5" y="-37.5" font-family="Helvetica,sans-Serif" font-size="10.00"> </text>
<polyline fill="none" stroke="black" points="258.5,-30.5 418.5,-30.5 "/>
<text text-anchor="start" x="266.5" y="-18.5" font-family="Helvetica,sans-Serif" font-size="10.00">+ StandardInvoiceWithShipping()</text>
<text text-anchor="start" x="266.5" y="-7.5" font-family="Helvetica,sans-Serif" font-size="10.00"># generateLineItems()</text>
</a>
</g>
</g>
<!-- Node1&#45;&gt;Node5 -->
<g id="edge4" class="edge"><title>Node1&#45;&gt;Node5</title>
<path fill="none" stroke="midnightblue" d="M267.356,-113.573C282.039,-97.4603 296.436,-81.6607 308.396,-68.5364"/>
<polygon fill="none" stroke="midnightblue" points="264.746,-111.241 260.598,-120.99 269.92,-115.956 264.746,-111.241"/>
</g>
<!-- Node2 -->
<g id="node2" class="node"><title>Node2</title>
<polygon fill="white" stroke="#bfbfbf" points="114,-342.5 114,-399.5 255,-399.5 255,-342.5 114,-342.5"/>
<text text-anchor="middle" x="184.5" y="-387.5" font-family="Helvetica,sans-Serif" font-size="10.00">Iterable&lt; AbstractLineItem &gt;</text>
<polyline fill="none" stroke="#bfbfbf" points="114,-380.5 255,-380.5 "/>
<text text-anchor="middle" x="184.5" y="-368.5" font-family="Helvetica,sans-Serif" font-size="10.00"> </text>
<polyline fill="none" stroke="#bfbfbf" points="114,-361.5 255,-361.5 "/>
<text text-anchor="middle" x="184.5" y="-349.5" font-family="Helvetica,sans-Serif" font-size="10.00"> </text>
</g>
<!-- Node2&#45;&gt;Node1 -->
<g id="edge1" class="edge"><title>Node2&#45;&gt;Node1</title>
<path fill="none" stroke="midnightblue" d="M184.5,-332.04C184.5,-323.867 184.5,-314.865 184.5,-305.549"/>
<polygon fill="none" stroke="midnightblue" points="181,-332.264 184.5,-342.264 188,-332.264 181,-332.264"/>
</g>
</g>
</svg>
