<?xml version="1.0" encoding="UTF-8" standalone="no"?>
<!DOCTYPE svg PUBLIC "-//W3C//DTD SVG 1.1//EN"
 "http://www.w3.org/Graphics/SVG/1.1/DTD/svg11.dtd">
<!-- Generated by graphviz version 2.38.0 (20140413.2041)
 -->
<!-- Title: WinstockCommandInvoker Pages: 1 -->
<svg width="259pt" height="204pt"
 viewBox="0.00 0.00 259.00 204.00" xmlns="http://www.w3.org/2000/svg" xmlns:xlink="http://www.w3.org/1999/xlink">
<g id="graph0" class="graph" transform="scale(1 1) rotate(0) translate(4 200)">
<title>WinstockCommandInvoker</title>
<polygon fill="white" stroke="none" points="-4,4 -4,-200 255,-200 255,4 -4,4"/>
<!-- Node1 -->
<g id="node1" class="node"><title>Node1</title>
<polygon fill="#bfbfbf" stroke="black" points="58,-0.5 58,-57.5 193,-57.5 193,-0.5 58,-0.5"/>
<text text-anchor="middle" x="125.5" y="-45.5" font-family="Helvetica,sans-Serif" font-size="10.00">WinstockCommandInvoker</text>
<polyline fill="none" stroke="black" points="58,-38.5 193,-38.5 "/>
<text text-anchor="middle" x="125.5" y="-26.5" font-family="Helvetica,sans-Serif" font-size="10.00"> </text>
<polyline fill="none" stroke="black" points="58,-19.5 193,-19.5 "/>
<text text-anchor="start" x="66" y="-7.5" font-family="Helvetica,sans-Serif" font-size="10.00">+ execute()</text>
</g>
<!-- Node2 -->
<g id="node2" class="node"><title>Node2</title>
<polygon fill="white" stroke="#bfbfbf" points="-1.42109e-14,-105.5 -1.42109e-14,-195.5 251,-195.5 251,-105.5 -1.42109e-14,-105.5"/>
<text text-anchor="start" x="8" y="-183.5" font-family="Helvetica,sans-Serif" font-size="10.00">Map&lt; tomoBay.model.winstock.</text>
<text text-anchor="start" x="8" y="-172.5" font-family="Helvetica,sans-Serif" font-size="10.00">WinstockCommandInvoker.Winstock</text>
<text text-anchor="start" x="8" y="-161.5" font-family="Helvetica,sans-Serif" font-size="10.00">CommandTypes, tomoBay.model.winstock.command</text>
<text text-anchor="middle" x="125.5" y="-150.5" font-family="Helvetica,sans-Serif" font-size="10.00">Factories.AbstractWinstockCommandFactory &gt;</text>
<polyline fill="none" stroke="#bfbfbf" points="-1.42109e-14,-143.5 251,-143.5 "/>
<text text-anchor="middle" x="125.5" y="-131.5" font-family="Helvetica,sans-Serif" font-size="10.00"> </text>
<polyline fill="none" stroke="#bfbfbf" points="-1.42109e-14,-124.5 251,-124.5 "/>
<text text-anchor="middle" x="125.5" y="-112.5" font-family="Helvetica,sans-Serif" font-size="10.00"> </text>
</g>
<!-- Node2&#45;&gt;Node1 -->
<g id="edge1" class="edge"><title>Node2&#45;&gt;Node1</title>
<path fill="none" stroke="#404040" d="M125.5,-105.342C125.5,-93.7485 125.5,-81.3129 125.5,-69.9534"/>
<polygon fill="none" stroke="#404040" points="125.5,-69.6879 121.5,-63.6879 125.5,-57.6879 129.5,-63.6878 125.5,-69.6879"/>
<text text-anchor="middle" x="160" y="-79" font-family="Helvetica,sans-Serif" font-size="10.00"> &#45;factoryMap_M</text>
</g>
</g>
</svg>
