<?xml version="1.0" encoding="UTF-8" standalone="no"?>
<!DOCTYPE svg PUBLIC "-//W3C//DTD SVG 1.1//EN"
 "http://www.w3.org/Graphics/SVG/1.1/DTD/svg11.dtd">
<!-- Generated by graphviz version 2.38.0 (20140413.2041)
 -->
<!-- Title: AbstractEmailBuilder Pages: 1 -->
<svg width="325pt" height="353pt"
 viewBox="0.00 0.00 325.00 353.00" xmlns="http://www.w3.org/2000/svg" xmlns:xlink="http://www.w3.org/1999/xlink">
<g id="graph0" class="graph" transform="scale(1 1) rotate(0) translate(4 349)">
<title>AbstractEmailBuilder</title>
<polygon fill="white" stroke="none" points="-4,4 -4,-349 321,-349 321,4 -4,4"/>
<!-- Node1 -->
<g id="node1" class="node"><title>Node1</title>
<polygon fill="#bfbfbf" stroke="black" points="72,-0.5 72,-79.5 242,-79.5 242,-0.5 72,-0.5"/>
<text text-anchor="middle" x="157" y="-67.5" font-family="Helvetica,sans-Serif" font-size="10.00">AbstractEmailBuilder</text>
<polyline fill="none" stroke="black" points="72,-60.5 242,-60.5 "/>
<text text-anchor="middle" x="157" y="-48.5" font-family="Helvetica,sans-Serif" font-size="10.00"> </text>
<polyline fill="none" stroke="black" points="72,-41.5 242,-41.5 "/>
<text text-anchor="start" x="80" y="-29.5" font-family="Helvetica,sans-Serif" font-size="10.00"># AbstractEmailBuilder()</text>
<text text-anchor="start" x="80" y="-18.5" font-family="Helvetica,sans-Serif" font-size="10.00"># buildMailServerSendConnection()</text>
<text text-anchor="start" x="80" y="-7.5" font-family="Helvetica,sans-Serif" font-size="10.00"># buildEmail()</text>
</g>
<!-- Node2 -->
<g id="node2" class="node"><title>Node2</title>
<g id="a_node2"><a xlink:href="$classtomoBay_1_1model_1_1net_1_1email_1_1Email.html" xlink:title="This class represents an email, it contains recipients a subject and a message body. ">
<polygon fill="white" stroke="black" points="29.5,-127.5 29.5,-228.5 130.5,-228.5 130.5,-127.5 29.5,-127.5"/>
<text text-anchor="middle" x="80" y="-216.5" font-family="Helvetica,sans-Serif" font-size="10.00">Email</text>
<polyline fill="none" stroke="black" points="29.5,-209.5 130.5,-209.5 "/>
<text text-anchor="start" x="37.5" y="-197.5" font-family="Helvetica,sans-Serif" font-size="10.00"># subject_M</text>
<text text-anchor="start" x="37.5" y="-186.5" font-family="Helvetica,sans-Serif" font-size="10.00"># messageBody_M</text>
<polyline fill="none" stroke="black" points="29.5,-179.5 130.5,-179.5 "/>
<text text-anchor="start" x="37.5" y="-167.5" font-family="Helvetica,sans-Serif" font-size="10.00">+ setRecipient()</text>
<text text-anchor="start" x="37.5" y="-156.5" font-family="Helvetica,sans-Serif" font-size="10.00">+ setSubject()</text>
<text text-anchor="start" x="37.5" y="-145.5" font-family="Helvetica,sans-Serif" font-size="10.00">+ setMessage()</text>
<text text-anchor="start" x="37.5" y="-134.5" font-family="Helvetica,sans-Serif" font-size="10.00"># Email()</text>
</a>
</g>
</g>
<!-- Node2&#45;&gt;Node1 -->
<g id="edge1" class="edge"><title>Node2&#45;&gt;Node1</title>
<path fill="none" stroke="#404040" d="M108.235,-127.131C115.004,-115.174 122.231,-102.411 128.99,-90.4725"/>
<polygon fill="none" stroke="#404040" points="129.127,-90.2298 128.603,-83.0378 135.04,-79.7873 135.564,-86.9793 129.127,-90.2298"/>
<text text-anchor="middle" x="147" y="-101" font-family="Helvetica,sans-Serif" font-size="10.00"> #email_M</text>
</g>
<!-- Node3 -->
<g id="node3" class="node"><title>Node3</title>
<polygon fill="white" stroke="#bfbfbf" points="0,-276.5 0,-344.5 160,-344.5 160,-276.5 0,-276.5"/>
<text text-anchor="start" x="8" y="-332.5" font-family="Helvetica,sans-Serif" font-size="10.00">Map&lt; String, Message.Recipient</text>
<text text-anchor="middle" x="80" y="-321.5" font-family="Helvetica,sans-Serif" font-size="10.00">Type &gt;</text>
<polyline fill="none" stroke="#bfbfbf" points="0,-314.5 160,-314.5 "/>
<text text-anchor="middle" x="80" y="-302.5" font-family="Helvetica,sans-Serif" font-size="10.00"> </text>
<polyline fill="none" stroke="#bfbfbf" points="0,-295.5 160,-295.5 "/>
<text text-anchor="middle" x="80" y="-283.5" font-family="Helvetica,sans-Serif" font-size="10.00"> </text>
</g>
<!-- Node3&#45;&gt;Node2 -->
<g id="edge2" class="edge"><title>Node3&#45;&gt;Node2</title>
<path fill="none" stroke="#404040" d="M80,-276.232C80,-265.471 80,-253.168 80,-241.015"/>
<polygon fill="none" stroke="#404040" points="80.0001,-240.975 76,-234.975 80,-228.975 84,-234.975 80.0001,-240.975"/>
<text text-anchor="middle" x="112" y="-250" font-family="Helvetica,sans-Serif" font-size="10.00"> #recipients_M</text>
</g>
<!-- Node4 -->
<g id="node4" class="node"><title>Node4</title>
<g id="a_node4"><a xlink:href="$classtomoBay_1_1model_1_1net_1_1email_1_1MailServerSend.html" xlink:title="This class represents a MailServer send connection, it allows the sending of email from a specific ad...">
<polygon fill="white" stroke="black" points="148.5,-127.5 148.5,-228.5 285.5,-228.5 285.5,-127.5 148.5,-127.5"/>
<text text-anchor="middle" x="217" y="-216.5" font-family="Helvetica,sans-Serif" font-size="10.00">MailServerSend</text>
<polyline fill="none" stroke="black" points="148.5,-209.5 285.5,-209.5 "/>
<text text-anchor="start" x="156.5" y="-197.5" font-family="Helvetica,sans-Serif" font-size="10.00"># transportProtocol</text>
<text text-anchor="start" x="156.5" y="-186.5" font-family="Helvetica,sans-Serif" font-size="10.00"># serverIP_M</text>
<polyline fill="none" stroke="black" points="148.5,-179.5 285.5,-179.5 "/>
<text text-anchor="start" x="156.5" y="-167.5" font-family="Helvetica,sans-Serif" font-size="10.00">+ send()</text>
<text text-anchor="start" x="156.5" y="-156.5" font-family="Helvetica,sans-Serif" font-size="10.00"># MailServerSend()</text>
<text text-anchor="start" x="156.5" y="-145.5" font-family="Helvetica,sans-Serif" font-size="10.00">&#45; generateMimeMessage()</text>
<text text-anchor="start" x="156.5" y="-134.5" font-family="Helvetica,sans-Serif" font-size="10.00">&#45; createMailServerSession()</text>
</a>
</g>
</g>
<!-- Node4&#45;&gt;Node1 -->
<g id="edge3" class="edge"><title>Node4&#45;&gt;Node1</title>
<path fill="none" stroke="#404040" d="M194.999,-127.131C189.778,-115.296 184.208,-102.671 178.987,-90.8382"/>
<polygon fill="none" stroke="#404040" points="178.956,-90.7663 172.874,-86.8914 174.112,-79.7873 180.194,-83.6622 178.956,-90.7663"/>
<text text-anchor="middle" x="221.5" y="-101" font-family="Helvetica,sans-Serif" font-size="10.00"> #mailServer_M</text>
</g>
<!-- Node5 -->
<g id="node5" class="node"><title>Node5</title>
<polygon fill="white" stroke="#bfbfbf" points="186.5,-282 186.5,-339 247.5,-339 247.5,-282 186.5,-282"/>
<text text-anchor="middle" x="217" y="-327" font-family="Helvetica,sans-Serif" font-size="10.00">Properties</text>
<polyline fill="none" stroke="#bfbfbf" points="186.5,-320 247.5,-320 "/>
<text text-anchor="middle" x="217" y="-308" font-family="Helvetica,sans-Serif" font-size="10.00"> </text>
<polyline fill="none" stroke="#bfbfbf" points="186.5,-301 247.5,-301 "/>
<text text-anchor="middle" x="217" y="-289" font-family="Helvetica,sans-Serif" font-size="10.00"> </text>
</g>
<!-- Node5&#45;&gt;Node4 -->
<g id="edge4" class="edge"><title>Node5&#45;&gt;Node4</title>
<path fill="none" stroke="#404040" d="M217,-281.824C217,-269.725 217,-255.01 217,-240.54"/>
<polygon fill="none" stroke="#404040" points="217,-240.505 213,-234.505 217,-228.505 221,-234.505 217,-240.505"/>
<text text-anchor="middle" x="267" y="-250" font-family="Helvetica,sans-Serif" font-size="10.00"> #mailServerProperties</text>
</g>
</g>
</svg>
