<?xml version="1.0" encoding="UTF-8" standalone="no"?>
<!DOCTYPE svg PUBLIC "-//W3C//DTD SVG 1.1//EN"
 "http://www.w3.org/Graphics/SVG/1.1/DTD/svg11.dtd">
<!-- Generated by graphviz version 2.38.0 (20140413.2041)
 -->
<!-- Title: populate Pages: 1 -->
<svg width="519pt" height="143pt"
 viewBox="0.00 0.00 519.00 142.50" xmlns="http://www.w3.org/2000/svg" xmlns:xlink="http://www.w3.org/1999/xlink">
<g id="graph0" class="graph" transform="scale(1 1) rotate(0) translate(4 138.5)">
<title>populate</title>
<polygon fill="white" stroke="none" points="-4,4 -4,-138.5 515,-138.5 515,4 -4,4"/>
<!-- Node1 -->
<g id="node1" class="node"><title>Node1</title>
<polygon fill="#bfbfbf" stroke="black" points="0,-55 0,-74 53,-74 53,-55 0,-55"/>
<text text-anchor="middle" x="26.5" y="-62" font-family="Helvetica,sans-Serif" font-size="10.00">populate</text>
</g>
<!-- Node2 -->
<g id="node2" class="node"><title>Node2</title>
<g id="a_node2"><a xlink:href="$classtomoBay_1_1model_1_1dataTypes_1_1heteroTypeContainer_1_1HeteroFieldContainer.html#a3ba6289417930238a36bfee0056b6398" xlink:title="add an arbitrary value to this Field container with the stipulation that this value is of the same ty...">
<polygon fill="white" stroke="black" points="92,-98.5 92,-128.5 286,-128.5 286,-98.5 92,-98.5"/>
<text text-anchor="start" x="100" y="-116.5" font-family="Helvetica,sans-Serif" font-size="10.00">tomoBay.model.dataTypes.hetero</text>
<text text-anchor="middle" x="189" y="-105.5" font-family="Helvetica,sans-Serif" font-size="10.00">TypeContainer.HeteroFieldContainer.add</text>
</a>
</g>
</g>
<!-- Node1&#45;&gt;Node2 -->
<g id="edge1" class="edge"><title>Node1&#45;&gt;Node2</title>
<path fill="none" stroke="midnightblue" d="M48.842,-74.087C60.544,-79.1109 75.3982,-85.1134 89,-89.5 95.8852,-91.7205 103.098,-93.8441 110.357,-95.8452"/>
<polygon fill="midnightblue" stroke="midnightblue" points="109.695,-99.2909 120.259,-98.4955 111.504,-92.5289 109.695,-99.2909"/>
</g>
<!-- Node4 -->
<g id="node4" class="node"><title>Node4</title>
<g id="a_node4"><a xlink:href="$classtomoBay_1_1model_1_1sql_1_1framework_1_1ModifyQueryInvoker.html#ab8ef0fdf15f6720620e297c77ab25d46" xlink:title="tomoBay.model.sql.framework.\lModifyQueryInvoker.execute">
<polygon fill="white" stroke="black" points="113,-49.5 113,-79.5 265,-79.5 265,-49.5 113,-49.5"/>
<text text-anchor="start" x="121" y="-67.5" font-family="Helvetica,sans-Serif" font-size="10.00">tomoBay.model.sql.framework.</text>
<text text-anchor="middle" x="189" y="-56.5" font-family="Helvetica,sans-Serif" font-size="10.00">ModifyQueryInvoker.execute</text>
</a>
</g>
</g>
<!-- Node1&#45;&gt;Node4 -->
<g id="edge3" class="edge"><title>Node1&#45;&gt;Node4</title>
<path fill="none" stroke="midnightblue" d="M53.2871,-64.5C66.9694,-64.5 84.6511,-64.5 102.675,-64.5"/>
<polygon fill="midnightblue" stroke="midnightblue" points="102.701,-68.0001 112.701,-64.5 102.701,-61.0001 102.701,-68.0001"/>
</g>
<!-- Node5 -->
<g id="node5" class="node"><title>Node5</title>
<g id="a_node5"><a xlink:href="$classtomoBay_1_1model_1_1services_1_1helpers_1_1EbayOrderCancellationStatus.html#a3cfcc32627a105c95774cf20bdfeb062" xlink:title="return the true/false value associated with a particular cancellation status. ">
<polygon fill="white" stroke="black" points="89,-0.5 89,-30.5 289,-30.5 289,-0.5 89,-0.5"/>
<text text-anchor="start" x="97" y="-18.5" font-family="Helvetica,sans-Serif" font-size="10.00">tomoBay.model.services.helpers.</text>
<text text-anchor="middle" x="189" y="-7.5" font-family="Helvetica,sans-Serif" font-size="10.00">EbayOrderCancellationStatus.isCancelled</text>
</a>
</g>
</g>
<!-- Node1&#45;&gt;Node5 -->
<g id="edge4" class="edge"><title>Node1&#45;&gt;Node5</title>
<path fill="none" stroke="midnightblue" d="M50.0382,-54.9256C61.5689,-50.2273 75.9008,-44.6919 89,-40.5 96.9485,-37.9564 105.322,-35.5029 113.694,-33.1923"/>
<polygon fill="midnightblue" stroke="midnightblue" points="114.754,-36.5317 123.498,-30.5487 112.931,-29.7731 114.754,-36.5317"/>
</g>
<!-- Node3 -->
<g id="node3" class="node"><title>Node3</title>
<g id="a_node3"><a xlink:href="$classtomoBay_1_1model_1_1dataTypes_1_1heteroTypeContainer_1_1HeteroFieldContainer.html#a9dee3c01eb5ab16203e1c6820a569484" xlink:title="performs a type check, assuming that field and type are of the same type then this method returns tru...">
<polygon fill="white" stroke="black" points="325,-93 325,-134 511,-134 511,-93 325,-93"/>
<text text-anchor="start" x="333" y="-122" font-family="Helvetica,sans-Serif" font-size="10.00">tomoBay.model.dataTypes.hetero</text>
<text text-anchor="start" x="333" y="-111" font-family="Helvetica,sans-Serif" font-size="10.00">TypeContainer.HeteroFieldContainer.is</text>
<text text-anchor="middle" x="418" y="-100" font-family="Helvetica,sans-Serif" font-size="10.00">SameType</text>
</a>
</g>
</g>
<!-- Node2&#45;&gt;Node3 -->
<g id="edge2" class="edge"><title>Node2&#45;&gt;Node3</title>
<path fill="none" stroke="midnightblue" d="M286.268,-113.5C295.675,-113.5 305.243,-113.5 314.706,-113.5"/>
<polygon fill="midnightblue" stroke="midnightblue" points="314.921,-117 324.921,-113.5 314.921,-110 314.921,-117"/>
</g>
</g>
</svg>
