<?xml version="1.0" encoding="UTF-8" standalone="no"?>
<!DOCTYPE svg PUBLIC "-//W3C//DTD SVG 1.1//EN"
 "http://www.w3.org/Graphics/SVG/1.1/DTD/svg11.dtd">
<!-- Generated by graphviz version 2.38.0 (20140413.2041)
 -->
<!-- Title: convertListToArray Pages: 1 -->
<svg width="680pt" height="50pt"
 viewBox="0.00 0.00 680.00 50.00" xmlns="http://www.w3.org/2000/svg" xmlns:xlink="http://www.w3.org/1999/xlink">
<g id="graph0" class="graph" transform="scale(1 1) rotate(0) translate(4 46)">
<title>convertListToArray</title>
<polygon fill="white" stroke="none" points="-4,4 -4,-46 676,-46 676,4 -4,4"/>
<!-- Node1 -->
<g id="node1" class="node"><title>Node1</title>
<polygon fill="#bfbfbf" stroke="black" points="0,-11.5 0,-30.5 99,-30.5 99,-11.5 0,-11.5"/>
<text text-anchor="middle" x="49.5" y="-18.5" font-family="Helvetica,sans-Serif" font-size="10.00">convertListToArray</text>
</g>
<!-- Node2 -->
<g id="node2" class="node"><title>Node2</title>
<g id="a_node2"><a xlink:href="$classtomoBay_1_1model_1_1dataTypes_1_1financial_1_1SalesOrderDayBook_1_1PriceAdjustment.html#ac2a5cb96c13a986d05bd0457a1971e2f" xlink:title="calculate the adjustments necessary and apply them to the AbstractSalesDayBookLine provided as an arg...">
<polygon fill="white" stroke="black" points="135,-11.5 135,-30.5 178,-30.5 178,-11.5 135,-11.5"/>
<text text-anchor="middle" x="156.5" y="-18.5" font-family="Helvetica,sans-Serif" font-size="10.00">adjust</text>
</a>
</g>
</g>
<!-- Node1&#45;&gt;Node2 -->
<g id="edge1" class="edge"><title>Node1&#45;&gt;Node2</title>
<path fill="none" stroke="midnightblue" d="M109.035,-21C118.238,-21 127.19,-21 134.741,-21"/>
<polygon fill="midnightblue" stroke="midnightblue" points="109.004,-17.5001 99.0044,-21 109.004,-24.5001 109.004,-17.5001"/>
</g>
<!-- Node3 -->
<g id="node3" class="node"><title>Node3</title>
<g id="a_node3"><a xlink:href="$classtomoBay_1_1model_1_1dataTypes_1_1financial_1_1SalesOrderDayBook_1_1AbstractSalesDayBookLine.html#a0c8ce8b50d57fa99babc2c2199a39fe3" xlink:title="tomoBay.model.dataTypes.financial.\lSalesOrderDayBook.AbstractSalesDayBook\lLine.adjustPrices">
<polygon fill="white" stroke="black" points="214,-0.5 214,-41.5 425,-41.5 425,-0.5 214,-0.5"/>
<text text-anchor="start" x="222" y="-29.5" font-family="Helvetica,sans-Serif" font-size="10.00">tomoBay.model.dataTypes.financial.</text>
<text text-anchor="start" x="222" y="-18.5" font-family="Helvetica,sans-Serif" font-size="10.00">SalesOrderDayBook.AbstractSalesDayBook</text>
<text text-anchor="middle" x="319.5" y="-7.5" font-family="Helvetica,sans-Serif" font-size="10.00">Line.adjustPrices</text>
</a>
</g>
</g>
<!-- Node2&#45;&gt;Node3 -->
<g id="edge2" class="edge"><title>Node2&#45;&gt;Node3</title>
<path fill="none" stroke="midnightblue" d="M188.376,-21C196.067,-21 204.748,-21 213.887,-21"/>
<polygon fill="midnightblue" stroke="midnightblue" points="188.218,-17.5001 178.218,-21 188.218,-24.5001 188.218,-17.5001"/>
</g>
<!-- Node4 -->
<g id="node4" class="node"><title>Node4</title>
<g id="a_node4"><a xlink:href="$classtomoBay_1_1model_1_1dataTypes_1_1financial_1_1SalesOrderDayBook_1_1AbstractSalesDayBookLine.html#ae9d19609629c59f8df7ddec196fcc30c" xlink:title="CONSTRUCTOR, creates a SalesDayBookLine based on the Order passed in as a parameter. ">
<polygon fill="white" stroke="black" points="461,-0.5 461,-41.5 672,-41.5 672,-0.5 461,-0.5"/>
<text text-anchor="start" x="469" y="-29.5" font-family="Helvetica,sans-Serif" font-size="10.00">tomoBay.model.dataTypes.financial.</text>
<text text-anchor="start" x="469" y="-18.5" font-family="Helvetica,sans-Serif" font-size="10.00">SalesOrderDayBook.AbstractSalesDayBook</text>
<text text-anchor="middle" x="566.5" y="-7.5" font-family="Helvetica,sans-Serif" font-size="10.00">Line.AbstractSalesDayBookLine</text>
</a>
</g>
</g>
<!-- Node3&#45;&gt;Node4 -->
<g id="edge3" class="edge"><title>Node3&#45;&gt;Node4</title>
<path fill="none" stroke="midnightblue" d="M435.143,-21C443.716,-21 452.34,-21 460.847,-21"/>
<polygon fill="midnightblue" stroke="midnightblue" points="435.113,-17.5001 425.113,-21 435.113,-24.5001 435.113,-17.5001"/>
</g>
</g>
</svg>
