<?xml version="1.0" encoding="UTF-8" standalone="no"?>
<!DOCTYPE svg PUBLIC "-//W3C//DTD SVG 1.1//EN"
 "http://www.w3.org/Graphics/SVG/1.1/DTD/svg11.dtd">
<!-- Generated by graphviz version 2.38.0 (20140413.2041)
 -->
<!-- Title: ServerStatus Pages: 1 -->
<svg width="185pt" height="248pt"
 viewBox="0.00 0.00 185.00 248.00" xmlns="http://www.w3.org/2000/svg" xmlns:xlink="http://www.w3.org/1999/xlink">
<g id="graph0" class="graph" transform="scale(1 1) rotate(0) translate(4 244)">
<title>ServerStatus</title>
<polygon fill="white" stroke="none" points="-4,4 -4,-244 181,-244 181,4 -4,4"/>
<!-- Node1 -->
<g id="node1" class="node"><title>Node1</title>
<polygon fill="#bfbfbf" stroke="black" points="16,-0.5 16,-101.5 102,-101.5 102,-0.5 16,-0.5"/>
<text text-anchor="middle" x="59" y="-89.5" font-family="Helvetica,sans-Serif" font-size="10.00">ServerStatus</text>
<polyline fill="none" stroke="black" points="16,-82.5 102,-82.5 "/>
<text text-anchor="middle" x="59" y="-70.5" font-family="Helvetica,sans-Serif" font-size="10.00"> </text>
<polyline fill="none" stroke="black" points="16,-63.5 102,-63.5 "/>
<text text-anchor="start" x="24" y="-51.5" font-family="Helvetica,sans-Serif" font-size="10.00">+ setStatus()</text>
<text text-anchor="start" x="24" y="-40.5" font-family="Helvetica,sans-Serif" font-size="10.00">+ instance()</text>
<text text-anchor="start" x="24" y="-29.5" font-family="Helvetica,sans-Serif" font-size="10.00">+ getStatus()</text>
<text text-anchor="start" x="24" y="-18.5" font-family="Helvetica,sans-Serif" font-size="10.00">+ os()</text>
<text text-anchor="start" x="24" y="-7.5" font-family="Helvetica,sans-Serif" font-size="10.00">&#45; ServerStatus()</text>
</g>
<!-- Node1&#45;&gt;Node1 -->
<g id="edge1" class="edge"><title>Node1&#45;&gt;Node1</title>
<path fill="none" stroke="#404040" d="M102.036,-64.6303C112.355,-63.5649 120,-59.0215 120,-51 120,-46.4879 117.581,-43.0763 113.628,-40.7652"/>
<polygon fill="none" stroke="#404040" points="113.552,-40.7431 106.67,-42.8951 102.036,-37.3697 108.919,-35.2177 113.552,-40.7431"/>
<text text-anchor="middle" x="148.5" y="-48.5" font-family="Helvetica,sans-Serif" font-size="10.00"> &#45;instance_M</text>
</g>
<!-- Node2 -->
<g id="node2" class="node"><title>Node2</title>
<g id="a_node2"><a xlink:href="$enumtomoBay_1_1model_1_1dataTypes_1_1ServerStatus_1_1RunLevel.html" xlink:title="enum providing allowed ServerStatus values ">
<polygon fill="white" stroke="black" points="0,-149.5 0,-239.5 118,-239.5 118,-149.5 0,-149.5"/>
<text text-anchor="middle" x="59" y="-227.5" font-family="Helvetica,sans-Serif" font-size="10.00">ServerStatus.RunLevel</text>
<polyline fill="none" stroke="black" points="0,-220.5 118,-220.5 "/>
<text text-anchor="start" x="8" y="-208.5" font-family="Helvetica,sans-Serif" font-size="10.00">+ ERROR</text>
<text text-anchor="start" x="8" y="-197.5" font-family="Helvetica,sans-Serif" font-size="10.00">+ RUNNING</text>
<text text-anchor="start" x="8" y="-186.5" font-family="Helvetica,sans-Serif" font-size="10.00">+ PAUSED</text>
<text text-anchor="start" x="8" y="-175.5" font-family="Helvetica,sans-Serif" font-size="10.00">+ STOPPED</text>
<polyline fill="none" stroke="black" points="0,-168.5 118,-168.5 "/>
<text text-anchor="middle" x="59" y="-156.5" font-family="Helvetica,sans-Serif" font-size="10.00"> </text>
</a>
</g>
</g>
<!-- Node2&#45;&gt;Node1 -->
<g id="edge2" class="edge"><title>Node2&#45;&gt;Node1</title>
<path fill="none" stroke="#404040" d="M59,-149.117C59,-137.928 59,-125.713 59,-113.838"/>
<polygon fill="none" stroke="#404040" points="59.0001,-113.644 55,-107.644 59,-101.644 63,-107.644 59.0001,-113.644"/>
<text text-anchor="middle" x="82.5" y="-123" font-family="Helvetica,sans-Serif" font-size="10.00"> &#45;status_M</text>
</g>
</g>
</svg>
