<?xml version="1.0" encoding="UTF-8" standalone="no"?>
<!DOCTYPE svg PUBLIC "-//W3C//DTD SVG 1.1//EN"
 "http://www.w3.org/Graphics/SVG/1.1/DTD/svg11.dtd">
<!-- Generated by graphviz version 2.38.0 (20140413.2041)
 -->
<!-- Title: Conditional&lt; T &gt; Pages: 1 -->
<svg width="162pt" height="237pt"
 viewBox="0.00 0.00 162.00 237.00" xmlns="http://www.w3.org/2000/svg" xmlns:xlink="http://www.w3.org/1999/xlink">
<g id="graph0" class="graph" transform="scale(1 1) rotate(0) translate(4 233)">
<title>Conditional&lt; T &gt;</title>
<polygon fill="white" stroke="none" points="-4,4 -4,-233 158,-233 158,4 -4,4"/>
<!-- Node1 -->
<g id="node1" class="node"><title>Node1</title>
<polygon fill="#bfbfbf" stroke="black" points="31,-127.5 31,-228.5 123,-228.5 123,-127.5 31,-127.5"/>
<text text-anchor="middle" x="77" y="-216.5" font-family="Helvetica,sans-Serif" font-size="10.00">Conditional&lt; T &gt;</text>
<polyline fill="none" stroke="black" points="31,-209.5 123,-209.5 "/>
<text text-anchor="middle" x="77" y="-197.5" font-family="Helvetica,sans-Serif" font-size="10.00"> </text>
<polyline fill="none" stroke="black" points="31,-190.5 123,-190.5 "/>
<text text-anchor="start" x="39" y="-178.5" font-family="Helvetica,sans-Serif" font-size="10.00">+ Conditional()</text>
<text text-anchor="start" x="39" y="-167.5" font-family="Helvetica,sans-Serif" font-size="10.00">+ evaluate()</text>
<text text-anchor="start" x="39" y="-156.5" font-family="Helvetica,sans-Serif" font-size="10.00">+ evaluate()</text>
<text text-anchor="start" x="39" y="-145.5" font-family="Helvetica,sans-Serif" font-size="10.00">+ startCondition()</text>
<text text-anchor="start" x="39" y="-134.5" font-family="Helvetica,sans-Serif" font-size="10.00">+ startResult()</text>
</g>
<!-- Node2 -->
<g id="node2" class="node"><title>Node2</title>
<g id="a_node2"><a xlink:href="$classtomoBay_1_1presenters_1_1helpers_1_1pickeability_1_1Pickeablity.html" xlink:title="{Pickeablity\&lt; PickeableStatus \&gt;\n|&#45; itemStatus_M\l&#45; orderNo_M\l|+ Pickeablity()\l+ startCondition()\l+ startResult()\l}">
<polygon fill="white" stroke="black" points="0,-0.5 0,-90.5 154,-90.5 154,-0.5 0,-0.5"/>
<text text-anchor="middle" x="77" y="-78.5" font-family="Helvetica,sans-Serif" font-size="10.00">Pickeablity&lt; PickeableStatus &gt;</text>
<polyline fill="none" stroke="black" points="0,-71.5 154,-71.5 "/>
<text text-anchor="start" x="8" y="-59.5" font-family="Helvetica,sans-Serif" font-size="10.00">&#45; itemStatus_M</text>
<text text-anchor="start" x="8" y="-48.5" font-family="Helvetica,sans-Serif" font-size="10.00">&#45; orderNo_M</text>
<polyline fill="none" stroke="black" points="0,-41.5 154,-41.5 "/>
<text text-anchor="start" x="8" y="-29.5" font-family="Helvetica,sans-Serif" font-size="10.00">+ Pickeablity()</text>
<text text-anchor="start" x="8" y="-18.5" font-family="Helvetica,sans-Serif" font-size="10.00">+ startCondition()</text>
<text text-anchor="start" x="8" y="-7.5" font-family="Helvetica,sans-Serif" font-size="10.00">+ startResult()</text>
</a>
</g>
</g>
<!-- Node1&#45;&gt;Node2 -->
<g id="edge1" class="edge"><title>Node1&#45;&gt;Node2</title>
<path fill="none" stroke="midnightblue" d="M77,-117.232C77,-108.236 77,-99.1012 77,-90.5165"/>
<polygon fill="none" stroke="midnightblue" points="73.5001,-117.291 77,-127.291 80.5001,-117.291 73.5001,-117.291"/>
</g>
</g>
</svg>
