<?xml version="1.0" encoding="UTF-8" standalone="no"?>
<!DOCTYPE svg PUBLIC "-//W3C//DTD SVG 1.1//EN"
 "http://www.w3.org/Graphics/SVG/1.1/DTD/svg11.dtd">
<!-- Generated by graphviz version 2.38.0 (20140413.2041)
 -->
<!-- Title: execute Pages: 1 -->
<svg width="902pt" height="470pt"
 viewBox="0.00 0.00 902.00 470.00" xmlns="http://www.w3.org/2000/svg" xmlns:xlink="http://www.w3.org/1999/xlink">
<g id="graph0" class="graph" transform="scale(1 1) rotate(0) translate(4 466)">
<title>execute</title>
<polygon fill="white" stroke="none" points="-4,4 -4,-466 898,-466 898,4 -4,4"/>
<!-- Node1 -->
<g id="node1" class="node"><title>Node1</title>
<polygon fill="#bfbfbf" stroke="black" points="0,-222 0,-241 51,-241 51,-222 0,-222"/>
<text text-anchor="middle" x="25.5" y="-229" font-family="Helvetica,sans-Serif" font-size="10.00">execute</text>
</g>
<!-- Node2 -->
<g id="node2" class="node"><title>Node2</title>
<g id="a_node2"><a xlink:href="classtomoBay_1_1presenters_1_1presenterActions_1_1concreteActions_1_1GenerateRoyalMailCSV.html#ac34b9d298f534dd3494b5f2e050398f0" target="_top" xlink:title="use the information provided to create a CSV file that the frontend can access. ">
<polygon fill="white" stroke="black" points="116.5,-363 116.5,-382 181.5,-382 181.5,-363 116.5,-363"/>
<text text-anchor="middle" x="149" y="-370" font-family="Helvetica,sans-Serif" font-size="10.00">createCSV</text>
</a>
</g>
</g>
<!-- Node1&#45;&gt;Node2 -->
<g id="edge1" class="edge"><title>Node1&#45;&gt;Node2</title>
<path fill="none" stroke="midnightblue" d="M32.6899,-241.132C43.0993,-257.051 65.1245,-289.57 87,-314.5 100.125,-329.457 116.546,-344.913 129.044,-356.105"/>
<polygon fill="midnightblue" stroke="midnightblue" points="126.804,-358.797 136.616,-362.795 131.439,-353.551 126.804,-358.797"/>
</g>
<!-- Node6 -->
<g id="node6" class="node"><title>Node6</title>
<g id="a_node6"><a xlink:href="classtomoBay_1_1presenters_1_1presenterActions_1_1concreteActions_1_1GenerateRoyalMailCSV.html#a36c5a57feb5660aee6f67b5920b1bb1b" target="_top" xlink:title="formats the initial data passed in to the execute method by the frontend and puts data into the relev...">
<polygon fill="white" stroke="black" points="104.5,-286 104.5,-305 193.5,-305 193.5,-286 104.5,-286"/>
<text text-anchor="middle" x="149" y="-293" font-family="Helvetica,sans-Serif" font-size="10.00">formatInitialData</text>
</a>
</g>
</g>
<!-- Node1&#45;&gt;Node6 -->
<g id="edge5" class="edge"><title>Node1&#45;&gt;Node6</title>
<path fill="none" stroke="midnightblue" d="M39.4664,-241.229C51.3969,-249.896 69.7958,-262.554 87,-271.5 94.4655,-275.382 102.707,-279.024 110.654,-282.24"/>
<polygon fill="midnightblue" stroke="midnightblue" points="109.54,-285.562 120.128,-285.939 112.086,-279.042 109.54,-285.562"/>
</g>
<!-- Node8 -->
<g id="node8" class="node"><title>Node8</title>
<g id="a_node8"><a xlink:href="classtomoBay_1_1presenters_1_1presenterActions_1_1concreteActions_1_1GenerateRoyalMailCSV.html#a77642537aee84ee6042c23456ecc0d7a" target="_top" xlink:title="adds the account letter to the front of the invoice number in the reference field of the CSV ...">
<polygon fill="white" stroke="black" points="91,-243 91,-262 207,-262 207,-243 91,-243"/>
<text text-anchor="middle" x="149" y="-250" font-family="Helvetica,sans-Serif" font-size="10.00">formatReferenceFields</text>
</a>
</g>
</g>
<!-- Node1&#45;&gt;Node8 -->
<g id="edge7" class="edge"><title>Node1&#45;&gt;Node8</title>
<path fill="none" stroke="midnightblue" d="M51.0873,-235.75C60.4191,-237.363 71.5408,-239.285 82.8668,-241.242"/>
<polygon fill="midnightblue" stroke="midnightblue" points="82.3826,-244.711 92.8326,-242.965 83.5749,-237.813 82.3826,-244.711"/>
</g>
<!-- Node10 -->
<g id="node10" class="node"><title>Node10</title>
<g id="a_node10"><a xlink:href="classtomoBay_1_1presenters_1_1presenterActions_1_1concreteActions_1_1GenerateRoyalMailCSV.html#a47374b8c1f5da171d280ddcb6b7df252" target="_top" xlink:title="queries winstock for the weight associated with the invoice number provided as an argument...">
<polygon fill="white" stroke="black" points="103,-202 103,-221 195,-221 195,-202 103,-202"/>
<text text-anchor="middle" x="149" y="-209" font-family="Helvetica,sans-Serif" font-size="10.00">getInvoiceWeight</text>
</a>
</g>
</g>
<!-- Node1&#45;&gt;Node10 -->
<g id="edge9" class="edge"><title>Node1&#45;&gt;Node10</title>
<path fill="none" stroke="midnightblue" d="M51.0873,-227.453C63.144,-225.468 78.1886,-222.992 92.8011,-220.586"/>
<polygon fill="midnightblue" stroke="midnightblue" points="93.5078,-224.017 102.806,-218.939 92.3707,-217.11 93.5078,-224.017"/>
</g>
<!-- Node19 -->
<g id="node19" class="node"><title>Node19</title>
<g id="a_node19"><a xlink:href="classtomoBay_1_1presenters_1_1presenterActions_1_1concreteActions_1_1GenerateRoyalMailCSV.html#a50d25ea728cbc1115c9ea4e50e95599f" target="_top" xlink:title="grabs the rest of the data necessary for the RoyalMailCSVGenerator to create a CSV file ...">
<polygon fill="white" stroke="black" points="87,-104 87,-123 211,-123 211,-104 87,-104"/>
<text text-anchor="middle" x="149" y="-111" font-family="Helvetica,sans-Serif" font-size="10.00">grabAndProcessDBData</text>
</a>
</g>
</g>
<!-- Node1&#45;&gt;Node19 -->
<g id="edge19" class="edge"><title>Node1&#45;&gt;Node19</title>
<path fill="none" stroke="midnightblue" d="M36.4429,-221.844C57.0904,-201.791 104.836,-155.421 130.663,-130.338"/>
<polygon fill="midnightblue" stroke="midnightblue" points="133.185,-132.768 137.92,-123.29 128.308,-127.746 133.185,-132.768"/>
</g>
<!-- Node24 -->
<g id="node24" class="node"><title>Node24</title>
<g id="a_node24"><a xlink:href="classtomoBay_1_1presenters_1_1presenterActions_1_1concreteActions_1_1GenerateRoyalMailCSV.html#acabfc0e48c29931520b2a7518870c992" target="_top" xlink:title="takes the input string and makes it accessible as an array, the public static finals define the indic...">
<polygon fill="white" stroke="black" points="112.5,-66 112.5,-85 185.5,-85 185.5,-66 112.5,-66"/>
<text text-anchor="middle" x="149" y="-73" font-family="Helvetica,sans-Serif" font-size="10.00">processInput</text>
</a>
</g>
</g>
<!-- Node1&#45;&gt;Node24 -->
<g id="edge24" class="edge"><title>Node1&#45;&gt;Node24</title>
<path fill="none" stroke="midnightblue" d="M27.9482,-221.944C32.2124,-197.139 47.032,-130.157 87,-94.5 91.5601,-90.4318 96.9827,-87.2346 102.685,-84.722"/>
<polygon fill="midnightblue" stroke="midnightblue" points="104.283,-87.8628 112.444,-81.1068 101.851,-81.2987 104.283,-87.8628"/>
</g>
<!-- Node3 -->
<g id="node3" class="node"><title>Node3</title>
<g id="a_node3"><a xlink:href="classtomoBay_1_1model_1_1royalMail_1_1RoyalMailCSVGenerator.html#a2529b2ea0d2aefc60749e34c2d1cf74e" target="_top" xlink:title="adds a whole batch of data to the end of the CSV ">
<polygon fill="white" stroke="black" points="263,-431.5 263,-461.5 431,-461.5 431,-431.5 263,-431.5"/>
<text text-anchor="start" x="271" y="-449.5" font-family="Helvetica,sans-Serif" font-size="10.00">tomoBay.model.royalMail.</text>
<text text-anchor="middle" x="347" y="-438.5" font-family="Helvetica,sans-Serif" font-size="10.00">RoyalMailCSVGenerator.addBatch</text>
</a>
</g>
</g>
<!-- Node2&#45;&gt;Node3 -->
<g id="edge2" class="edge"><title>Node2&#45;&gt;Node3</title>
<path fill="none" stroke="midnightblue" d="M165.599,-382.023C184.335,-393.107 216.999,-411.314 247,-422.5 252.872,-424.69 259.016,-426.733 265.243,-428.628"/>
<polygon fill="midnightblue" stroke="midnightblue" points="264.491,-432.054 275.071,-431.485 266.445,-425.333 264.491,-432.054"/>
</g>
<!-- Node4 -->
<g id="node4" class="node"><title>Node4</title>
<g id="a_node4"><a xlink:href="classtomoBay_1_1model_1_1royalMail_1_1RoyalMailCSVGenerator.html#ac60739d0a2d1d8d69f238b4cc4f4a8de" target="_top" xlink:title="Generated the actual CSV file, it will overwrite any file already at that path with the name specifie...">
<polygon fill="white" stroke="black" points="265,-382.5 265,-412.5 429,-412.5 429,-382.5 265,-382.5"/>
<text text-anchor="start" x="273" y="-400.5" font-family="Helvetica,sans-Serif" font-size="10.00">tomoBay.model.royalMail.</text>
<text text-anchor="middle" x="347" y="-389.5" font-family="Helvetica,sans-Serif" font-size="10.00">RoyalMailCSVGenerator.generate</text>
</a>
</g>
</g>
<!-- Node2&#45;&gt;Node4 -->
<g id="edge3" class="edge"><title>Node2&#45;&gt;Node4</title>
<path fill="none" stroke="midnightblue" d="M181.927,-376.572C201.838,-379.112 228.559,-382.52 254.649,-385.848"/>
<polygon fill="midnightblue" stroke="midnightblue" points="254.24,-389.324 264.602,-387.118 255.125,-382.38 254.24,-389.324"/>
</g>
<!-- Node5 -->
<g id="node5" class="node"><title>Node5</title>
<g id="a_node5"><a xlink:href="classtomoBay_1_1model_1_1royalMail_1_1RoyalMailCSVGenerator.html#ad146fa8579a5f8a876c4688cc5a68520" target="_top" xlink:title="informative String representation of the CSV file at the point in time where this method is called...">
<polygon fill="white" stroke="black" points="266.5,-333.5 266.5,-363.5 427.5,-363.5 427.5,-333.5 266.5,-333.5"/>
<text text-anchor="start" x="274.5" y="-351.5" font-family="Helvetica,sans-Serif" font-size="10.00">tomoBay.model.royalMail.</text>
<text text-anchor="middle" x="347" y="-340.5" font-family="Helvetica,sans-Serif" font-size="10.00">RoyalMailCSVGenerator.toString</text>
</a>
</g>
</g>
<!-- Node2&#45;&gt;Node5 -->
<g id="edge4" class="edge"><title>Node2&#45;&gt;Node5</title>
<path fill="none" stroke="midnightblue" d="M181.927,-368.591C202.222,-366.105 229.594,-362.754 256.161,-359.501"/>
<polygon fill="midnightblue" stroke="midnightblue" points="256.787,-362.95 266.287,-358.261 255.936,-356.002 256.787,-362.95"/>
</g>
<!-- Node7 -->
<g id="node7" class="node"><title>Node7</title>
<g id="a_node7"><a xlink:href="classtomoBay_1_1model_1_1royalMail_1_1RoyalMailCSVGenerator.html#af4b57d21919c42d55af03391f91a1c08" target="_top" xlink:title="indicates how many columns are required for each row of this CSV. ">
<polygon fill="white" stroke="black" points="274.5,-284.5 274.5,-314.5 419.5,-314.5 419.5,-284.5 274.5,-284.5"/>
<text text-anchor="start" x="282.5" y="-302.5" font-family="Helvetica,sans-Serif" font-size="10.00">tomoBay.model.royalMail.</text>
<text text-anchor="middle" x="347" y="-291.5" font-family="Helvetica,sans-Serif" font-size="10.00">RoyalMailCSVGenerator.size</text>
</a>
</g>
</g>
<!-- Node6&#45;&gt;Node7 -->
<g id="edge6" class="edge"><title>Node6&#45;&gt;Node7</title>
<path fill="none" stroke="midnightblue" d="M193.986,-296.398C214.725,-296.821 240.158,-297.34 264.244,-297.832"/>
<polygon fill="midnightblue" stroke="midnightblue" points="264.397,-301.335 274.466,-298.04 264.54,-294.337 264.397,-301.335"/>
</g>
<!-- Node9 -->
<g id="node9" class="node"><title>Node9</title>
<g id="a_node9"><a xlink:href="classtomoBay_1_1helpers_1_1BrandToCode.html#a84072526fa5d5ce298cdceffc81f43e7" target="_top" xlink:title="converts a string like &quot;citroen&quot; or &quot;fOrd&quot; to a brandcode specific to winstock. ">
<polygon fill="white" stroke="black" points="253,-246 253,-265 441,-265 441,-246 253,-246"/>
<text text-anchor="middle" x="347" y="-253" font-family="Helvetica,sans-Serif" font-size="10.00">tomoBay.helpers.BrandToCode.convert</text>
</a>
</g>
</g>
<!-- Node8&#45;&gt;Node9 -->
<g id="edge8" class="edge"><title>Node8&#45;&gt;Node9</title>
<path fill="none" stroke="midnightblue" d="M207.218,-253.376C218.429,-253.547 230.507,-253.732 242.694,-253.919"/>
<polygon fill="midnightblue" stroke="midnightblue" points="242.888,-257.422 252.941,-254.076 242.995,-250.423 242.888,-257.422"/>
</g>
<!-- Node11 -->
<g id="node11" class="node"><title>Node11</title>
<g id="a_node11"><a xlink:href="classtomoBay_1_1helpers_1_1BrandToCode.html#a10207714bd294d73dd98b80fd94a2ab8" target="_top" xlink:title="converts converts a string like &quot;citroen&quot; or &quot;fOrd&quot; to a brandcode integer specific to winstock...">
<polygon fill="white" stroke="black" points="253,-196.5 253,-226.5 441,-226.5 441,-196.5 253,-196.5"/>
<text text-anchor="start" x="261" y="-214.5" font-family="Helvetica,sans-Serif" font-size="10.00">tomoBay.helpers.BrandToCode.convert</text>
<text text-anchor="middle" x="347" y="-203.5" font-family="Helvetica,sans-Serif" font-size="10.00">ToWinstockInt</text>
</a>
</g>
</g>
<!-- Node10&#45;&gt;Node11 -->
<g id="edge10" class="edge"><title>Node10&#45;&gt;Node11</title>
<path fill="none" stroke="midnightblue" d="M195.459,-211.5C209.694,-211.5 226.028,-211.5 242.57,-211.5"/>
<polygon fill="midnightblue" stroke="midnightblue" points="242.879,-215 252.879,-211.5 242.879,-208 242.879,-215"/>
</g>
<!-- Node12 -->
<g id="node12" class="node"><title>Node12</title>
<g id="a_node12"><a xlink:href="classtomoBay_1_1model_1_1winstock_1_1Stock.html#a4cbeebb8b8e67f9e1478b8b0d77d4228" target="_top" xlink:title="query winstock for the weight of a particular invoice ">
<polygon fill="white" stroke="black" points="251.5,-147.5 251.5,-177.5 442.5,-177.5 442.5,-147.5 251.5,-147.5"/>
<text text-anchor="start" x="259.5" y="-165.5" font-family="Helvetica,sans-Serif" font-size="10.00">tomoBay.model.winstock.Stock.request</text>
<text text-anchor="middle" x="347" y="-154.5" font-family="Helvetica,sans-Serif" font-size="10.00">InvoiceWeight</text>
</a>
</g>
</g>
<!-- Node10&#45;&gt;Node12 -->
<g id="edge11" class="edge"><title>Node10&#45;&gt;Node12</title>
<path fill="none" stroke="midnightblue" d="M188.256,-201.936C213.179,-195.705 246.437,-187.391 275.99,-180.003"/>
<polygon fill="midnightblue" stroke="midnightblue" points="277,-183.358 285.852,-177.537 275.302,-176.567 277,-183.358"/>
</g>
<!-- Node13 -->
<g id="node13" class="node"><title>Node13</title>
<g id="a_node13"><a xlink:href="classtomoBay_1_1helpers_1_1ConfigReader.html#a310420c6db22982498520c2ad7a2b82f" target="_top" xlink:title="find the value of the config variable specified in the arguments. ">
<polygon fill="white" stroke="black" points="483,-191 483,-210 674,-210 674,-191 483,-191"/>
<text text-anchor="middle" x="578.5" y="-198" font-family="Helvetica,sans-Serif" font-size="10.00">tomoBay.helpers.ConfigReader.getConf</text>
</a>
</g>
</g>
<!-- Node12&#45;&gt;Node13 -->
<g id="edge12" class="edge"><title>Node12&#45;&gt;Node13</title>
<path fill="none" stroke="midnightblue" d="M438.704,-177.519C462.499,-181.458 487.738,-185.637 510.076,-189.336"/>
<polygon fill="midnightblue" stroke="midnightblue" points="509.682,-192.818 520.119,-190.999 510.826,-185.912 509.682,-192.818"/>
</g>
<!-- Node16 -->
<g id="node16" class="node"><title>Node16</title>
<g id="a_node16"><a xlink:href="classtomoBay_1_1helpers_1_1XMLParser.html#a9936151017dd4e908cf37d453b22c8ef" target="_top" xlink:title="parses an XML formatted string looking for the first tag specified in the parameters. ">
<polygon fill="white" stroke="black" points="717.5,-153 717.5,-172 886.5,-172 886.5,-153 717.5,-153"/>
<text text-anchor="middle" x="802" y="-160" font-family="Helvetica,sans-Serif" font-size="10.00">tomoBay.helpers.XMLParser.parse</text>
</a>
</g>
</g>
<!-- Node12&#45;&gt;Node16 -->
<g id="edge16" class="edge"><title>Node12&#45;&gt;Node16</title>
<path fill="none" stroke="midnightblue" d="M442.688,-162.5C520.383,-162.5 629.814,-162.5 707.251,-162.5"/>
<polygon fill="midnightblue" stroke="midnightblue" points="707.482,-166 717.482,-162.5 707.482,-159 707.482,-166"/>
</g>
<!-- Node17 -->
<g id="node17" class="node"><title>Node17</title>
<g id="a_node17"><a xlink:href="classtomoBay_1_1model_1_1winstock_1_1Stock.html#a42fa652d82ed49749a0ad929a6c798d0" target="_top" xlink:title="remove the header bumpf from the bottom of the response ">
<polygon fill="white" stroke="black" points="490,-103.5 490,-133.5 667,-133.5 667,-103.5 490,-103.5"/>
<text text-anchor="start" x="498" y="-121.5" font-family="Helvetica,sans-Serif" font-size="10.00">tomoBay.model.winstock.Stock.post</text>
<text text-anchor="middle" x="578.5" y="-110.5" font-family="Helvetica,sans-Serif" font-size="10.00">FormatXMLString</text>
</a>
</g>
</g>
<!-- Node12&#45;&gt;Node17 -->
<g id="edge17" class="edge"><title>Node12&#45;&gt;Node17</title>
<path fill="none" stroke="midnightblue" d="M426.339,-147.481C446.537,-143.608 468.414,-139.414 489.086,-135.451"/>
<polygon fill="midnightblue" stroke="midnightblue" points="489.963,-138.847 499.125,-133.526 488.644,-131.972 489.963,-138.847"/>
</g>
<!-- Node14 -->
<g id="node14" class="node"><title>Node14</title>
<g id="a_node14"><a xlink:href="classtomoBay_1_1helpers_1_1ConfigReader.html#ab69b4a3a0fc6a7c7440362b06ec4b4d3" target="_top" xlink:title="reads the whole config file into a string ">
<polygon fill="white" stroke="black" points="717,-229.5 717,-259.5 887,-259.5 887,-229.5 717,-229.5"/>
<text text-anchor="start" x="725" y="-247.5" font-family="Helvetica,sans-Serif" font-size="10.00">tomoBay.helpers.ConfigReader.get</text>
<text text-anchor="middle" x="802" y="-236.5" font-family="Helvetica,sans-Serif" font-size="10.00">Config</text>
</a>
</g>
</g>
<!-- Node13&#45;&gt;Node14 -->
<g id="edge13" class="edge"><title>Node13&#45;&gt;Node14</title>
<path fill="none" stroke="midnightblue" d="M627.562,-210.047C653.168,-215.134 685.441,-221.545 715.183,-227.453"/>
<polygon fill="midnightblue" stroke="midnightblue" points="714.669,-230.919 725.16,-229.435 716.033,-224.053 714.669,-230.919"/>
</g>
<!-- Node15 -->
<g id="node15" class="node"><title>Node15</title>
<g id="a_node15"><a xlink:href="enumtomoBay_1_1helpers_1_1Config.html#a43cb99408ba4f337caad395ca67f9a6c" target="_top" xlink:title="return the string associated with the enum const ">
<polygon fill="white" stroke="black" points="725.5,-191 725.5,-210 878.5,-210 878.5,-191 725.5,-191"/>
<text text-anchor="middle" x="802" y="-198" font-family="Helvetica,sans-Serif" font-size="10.00">tomoBay.helpers.Config.getVar</text>
</a>
</g>
</g>
<!-- Node13&#45;&gt;Node15 -->
<g id="edge14" class="edge"><title>Node13&#45;&gt;Node15</title>
<path fill="none" stroke="midnightblue" d="M674.078,-200.5C687.759,-200.5 701.775,-200.5 715.269,-200.5"/>
<polygon fill="midnightblue" stroke="midnightblue" points="715.472,-204 725.472,-200.5 715.472,-197 715.472,-204"/>
</g>
<!-- Node13&#45;&gt;Node16 -->
<g id="edge15" class="edge"><title>Node13&#45;&gt;Node16</title>
<path fill="none" stroke="midnightblue" d="M635.108,-190.96C665.52,-185.743 703.38,-179.247 735.249,-173.78"/>
<polygon fill="midnightblue" stroke="midnightblue" points="736.105,-177.184 745.369,-172.044 734.921,-170.285 736.105,-177.184"/>
</g>
<!-- Node18 -->
<g id="node18" class="node"><title>Node18</title>
<g id="a_node18"><a xlink:href="classtomoBay_1_1model_1_1net_1_1HttpResponse.html#afb798c825935128953439404fb763997" target="_top" xlink:title="get the Response message ">
<polygon fill="white" stroke="black" points="710,-103.5 710,-133.5 894,-133.5 894,-103.5 710,-103.5"/>
<text text-anchor="start" x="718" y="-121.5" font-family="Helvetica,sans-Serif" font-size="10.00">tomoBay.model.net.HttpResponse.get</text>
<text text-anchor="middle" x="802" y="-110.5" font-family="Helvetica,sans-Serif" font-size="10.00">ResponseMessage</text>
</a>
</g>
</g>
<!-- Node17&#45;&gt;Node18 -->
<g id="edge18" class="edge"><title>Node17&#45;&gt;Node18</title>
<path fill="none" stroke="midnightblue" d="M667.043,-118.5C677.673,-118.5 688.601,-118.5 699.413,-118.5"/>
<polygon fill="midnightblue" stroke="midnightblue" points="699.729,-122 709.729,-118.5 699.729,-115 699.729,-122"/>
</g>
<!-- Node20 -->
<g id="node20" class="node"><title>Node20</title>
<g id="a_node20"><a xlink:href="classtomoBay_1_1model_1_1dataTypes_1_1heteroTypeContainer_1_1HeteroFieldContainer.html#ac8bb3912a3ce86b15842e79d0b421204" target="_top" xlink:title="clear this heterogenous field type ">
<polygon fill="white" stroke="black" points="247,-98.5 247,-128.5 447,-128.5 447,-98.5 247,-98.5"/>
<text text-anchor="start" x="255" y="-116.5" font-family="Helvetica,sans-Serif" font-size="10.00">tomoBay.model.dataTypes.hetero</text>
<text text-anchor="middle" x="347" y="-105.5" font-family="Helvetica,sans-Serif" font-size="10.00">TypeContainer.HeteroFieldContainer.clear</text>
</a>
</g>
</g>
<!-- Node19&#45;&gt;Node20 -->
<g id="edge20" class="edge"><title>Node19&#45;&gt;Node20</title>
<path fill="none" stroke="midnightblue" d="M211.209,-113.5C219.363,-113.5 227.915,-113.5 236.587,-113.5"/>
<polygon fill="midnightblue" stroke="midnightblue" points="236.806,-117 246.806,-113.5 236.806,-110 236.806,-117"/>
</g>
<!-- Node21 -->
<g id="node21" class="node"><title>Node21</title>
<g id="a_node21"><a xlink:href="classtomoBay_1_1model_1_1dataTypes_1_1heteroTypeContainer_1_1HeteroFieldContainer.html#a3ba6289417930238a36bfee0056b6398" target="_top" xlink:title="add an arbitrary value to this Field container with the stipulation that this value is of the same ty...">
<polygon fill="white" stroke="black" points="250,-49.5 250,-79.5 444,-79.5 444,-49.5 250,-49.5"/>
<text text-anchor="start" x="258" y="-67.5" font-family="Helvetica,sans-Serif" font-size="10.00">tomoBay.model.dataTypes.hetero</text>
<text text-anchor="middle" x="347" y="-56.5" font-family="Helvetica,sans-Serif" font-size="10.00">TypeContainer.HeteroFieldContainer.add</text>
</a>
</g>
</g>
<!-- Node19&#45;&gt;Node21 -->
<g id="edge21" class="edge"><title>Node19&#45;&gt;Node21</title>
<path fill="none" stroke="midnightblue" d="M186.357,-103.997C204.552,-99.2754 226.923,-93.5204 247,-88.5 255.539,-86.3647 264.5,-84.1526 273.395,-81.9741"/>
<polygon fill="midnightblue" stroke="midnightblue" points="274.501,-85.3071 283.385,-79.5349 272.84,-78.5069 274.501,-85.3071"/>
</g>
<!-- Node23 -->
<g id="node23" class="node"><title>Node23</title>
<g id="a_node23"><a xlink:href="classtomoBay_1_1model_1_1sql_1_1framework_1_1SelectQueryInvoker.html#a594282bcbcc0731a7d234482717422d7" target="_top" xlink:title="execute a requested query ">
<polygon fill="white" stroke="black" points="271,-0.5 271,-30.5 423,-30.5 423,-0.5 271,-0.5"/>
<text text-anchor="start" x="279" y="-18.5" font-family="Helvetica,sans-Serif" font-size="10.00">tomoBay.model.sql.framework.</text>
<text text-anchor="middle" x="347" y="-7.5" font-family="Helvetica,sans-Serif" font-size="10.00">SelectQueryInvoker.execute</text>
</a>
</g>
</g>
<!-- Node19&#45;&gt;Node23 -->
<g id="edge23" class="edge"><title>Node19&#45;&gt;Node23</title>
<path fill="none" stroke="midnightblue" d="M193.81,-103.94C199.926,-101.471 205.865,-98.3759 211,-94.5 234.318,-76.8987 223.13,-56.3449 247,-39.5 251.516,-36.3134 256.404,-33.5472 261.507,-31.1462"/>
<polygon fill="midnightblue" stroke="midnightblue" points="263.024,-34.3053 270.889,-27.2069 260.314,-27.8511 263.024,-34.3053"/>
</g>
<!-- Node22 -->
<g id="node22" class="node"><title>Node22</title>
<g id="a_node22"><a xlink:href="classtomoBay_1_1model_1_1dataTypes_1_1heteroTypeContainer_1_1HeteroFieldContainer.html#a9dee3c01eb5ab16203e1c6820a569484" target="_top" xlink:title="performs a type check, assuming that field and type are of the same type then this method returns tru...">
<polygon fill="white" stroke="black" points="485.5,-44 485.5,-85 671.5,-85 671.5,-44 485.5,-44"/>
<text text-anchor="start" x="493.5" y="-73" font-family="Helvetica,sans-Serif" font-size="10.00">tomoBay.model.dataTypes.hetero</text>
<text text-anchor="start" x="493.5" y="-62" font-family="Helvetica,sans-Serif" font-size="10.00">TypeContainer.HeteroFieldContainer.is</text>
<text text-anchor="middle" x="578.5" y="-51" font-family="Helvetica,sans-Serif" font-size="10.00">SameType</text>
</a>
</g>
</g>
<!-- Node21&#45;&gt;Node22 -->
<g id="edge22" class="edge"><title>Node21&#45;&gt;Node22</title>
<path fill="none" stroke="midnightblue" d="M444.331,-64.5C454.543,-64.5 464.955,-64.5 475.232,-64.5"/>
<polygon fill="midnightblue" stroke="midnightblue" points="475.451,-68.0001 485.451,-64.5 475.451,-61.0001 475.451,-68.0001"/>
</g>
</g>
</svg>
