<?xml version="1.0" encoding="UTF-8" standalone="no"?>
<!DOCTYPE svg PUBLIC "-//W3C//DTD SVG 1.1//EN"
 "http://www.w3.org/Graphics/SVG/1.1/DTD/svg11.dtd">
<!-- Generated by graphviz version 2.38.0 (20140413.2041)
 -->
<!-- Title: digest Pages: 1 -->
<svg width="240pt" height="50pt"
 viewBox="0.00 0.00 240.00 50.00" xmlns="http://www.w3.org/2000/svg" xmlns:xlink="http://www.w3.org/1999/xlink">
<g id="graph0" class="graph" transform="scale(1 1) rotate(0) translate(4 46)">
<title>digest</title>
<polygon fill="white" stroke="none" points="-4,4 -4,-46 236,-46 236,4 -4,4"/>
<!-- Node1 -->
<g id="node1" class="node"><title>Node1</title>
<polygon fill="#bfbfbf" stroke="black" points="0,-11.5 0,-30.5 43,-30.5 43,-11.5 0,-11.5"/>
<text text-anchor="middle" x="21.5" y="-18.5" font-family="Helvetica,sans-Serif" font-size="10.00">digest</text>
</g>
<!-- Node2 -->
<g id="node2" class="node"><title>Node2</title>
<g id="a_node2"><a xlink:href="$classtomoBayTests_1_1model_1_1royalMail_1_1RoyalMailPasswordDigestTest.html#a44644badd5c9c607cc900b22f8b533d5" xlink:title="tomoBayTests.model.royal\lMail.RoyalMailPasswordDigest\lTest.testDigest">
<polygon fill="white" stroke="black" points="79,-0.5 79,-41.5 232,-41.5 232,-0.5 79,-0.5"/>
<text text-anchor="start" x="87" y="-29.5" font-family="Helvetica,sans-Serif" font-size="10.00">tomoBayTests.model.royal</text>
<text text-anchor="start" x="87" y="-18.5" font-family="Helvetica,sans-Serif" font-size="10.00">Mail.RoyalMailPasswordDigest</text>
<text text-anchor="middle" x="155.5" y="-7.5" font-family="Helvetica,sans-Serif" font-size="10.00">Test.testDigest</text>
</a>
</g>
</g>
<!-- Node1&#45;&gt;Node2 -->
<g id="edge1" class="edge"><title>Node1&#45;&gt;Node2</title>
<path fill="none" stroke="midnightblue" d="M53.1516,-21C60.98,-21 69.7496,-21 78.767,-21"/>
<polygon fill="midnightblue" stroke="midnightblue" points="53.125,-17.5001 43.125,-21 53.125,-24.5001 53.125,-17.5001"/>
</g>
</g>
</svg>
