<?xml version="1.0" encoding="UTF-8" standalone="no"?>
<!DOCTYPE svg PUBLIC "-//W3C//DTD SVG 1.1//EN"
 "http://www.w3.org/Graphics/SVG/1.1/DTD/svg11.dtd">
<!-- Generated by graphviz version 2.38.0 (20140413.2041)
 -->
<!-- Title: OnRunning Pages: 1 -->
<svg width="182pt" height="182pt"
 viewBox="0.00 0.00 182.00 182.00" xmlns="http://www.w3.org/2000/svg" xmlns:xlink="http://www.w3.org/1999/xlink">
<g id="graph0" class="graph" transform="scale(1 1) rotate(0) translate(4 178)">
<title>OnRunning</title>
<polygon fill="white" stroke="none" points="-4,4 -4,-178 178,-178 178,4 -4,4"/>
<!-- Node1 -->
<g id="node1" class="node"><title>Node1</title>
<polygon fill="#bfbfbf" stroke="black" points="63,-0.5 63,-68.5 143,-68.5 143,-0.5 63,-0.5"/>
<text text-anchor="middle" x="103" y="-56.5" font-family="Helvetica,sans-Serif" font-size="10.00">OnRunning</text>
<polyline fill="none" stroke="black" points="63,-49.5 143,-49.5 "/>
<text text-anchor="middle" x="103" y="-37.5" font-family="Helvetica,sans-Serif" font-size="10.00"> </text>
<polyline fill="none" stroke="black" points="63,-30.5 143,-30.5 "/>
<text text-anchor="start" x="71" y="-18.5" font-family="Helvetica,sans-Serif" font-size="10.00">+ OnRunning()</text>
<text text-anchor="start" x="71" y="-7.5" font-family="Helvetica,sans-Serif" font-size="10.00">+ execute()</text>
</g>
<!-- Node2 -->
<g id="node2" class="node"><title>Node2</title>
<g id="a_node2"><a xlink:href="$interfacetomoBay_1_1model_1_1services_1_1AbstractServiceState.html" xlink:title="Copyright(C) 2015 Jan P.C. ">
<polygon fill="white" stroke="black" points="0,-116.5 0,-173.5 110,-173.5 110,-116.5 0,-116.5"/>
<text text-anchor="middle" x="55" y="-161.5" font-family="Helvetica,sans-Serif" font-size="10.00">AbstractServiceState</text>
<polyline fill="none" stroke="black" points="0,-154.5 110,-154.5 "/>
<text text-anchor="middle" x="55" y="-142.5" font-family="Helvetica,sans-Serif" font-size="10.00"> </text>
<polyline fill="none" stroke="black" points="0,-135.5 110,-135.5 "/>
<text text-anchor="start" x="8" y="-123.5" font-family="Helvetica,sans-Serif" font-size="10.00">+ execute()</text>
</a>
</g>
</g>
<!-- Node2&#45;&gt;Node1 -->
<g id="edge1" class="edge"><title>Node2&#45;&gt;Node1</title>
<path fill="none" stroke="midnightblue" d="M71.327,-107.094C76.8604,-94.5865 83.0019,-80.7041 88.3927,-68.5186"/>
<polygon fill="none" stroke="midnightblue" points="68.0816,-105.779 67.2366,-116.34 74.4832,-108.611 68.0816,-105.779"/>
</g>
<!-- Node3 -->
<g id="node3" class="node"><title>Node3</title>
<polygon fill="white" stroke="#bfbfbf" points="128,-116.5 128,-173.5 174,-173.5 174,-116.5 128,-116.5"/>
<text text-anchor="middle" x="151" y="-161.5" font-family="Helvetica,sans-Serif" font-size="10.00">Logger</text>
<polyline fill="none" stroke="#bfbfbf" points="128,-154.5 174,-154.5 "/>
<text text-anchor="middle" x="151" y="-142.5" font-family="Helvetica,sans-Serif" font-size="10.00"> </text>
<polyline fill="none" stroke="#bfbfbf" points="128,-135.5 174,-135.5 "/>
<text text-anchor="middle" x="151" y="-123.5" font-family="Helvetica,sans-Serif" font-size="10.00"> </text>
</g>
<!-- Node3&#45;&gt;Node1 -->
<g id="edge2" class="edge"><title>Node3&#45;&gt;Node1</title>
<path fill="none" stroke="#404040" d="M138.763,-116.34C133.83,-105.188 128.015,-92.0441 122.524,-79.6327"/>
<polygon fill="none" stroke="#404040" points="122.462,-79.4926 116.377,-75.6239 117.607,-68.5186 123.693,-72.3873 122.462,-79.4926"/>
<text text-anchor="middle" x="140" y="-90" font-family="Helvetica,sans-Serif" font-size="10.00"> ~log</text>
</g>
</g>
</svg>
