<?xml version="1.0" encoding="UTF-8" standalone="no"?>
<!DOCTYPE svg PUBLIC "-//W3C//DTD SVG 1.1//EN"
 "http://www.w3.org/Graphics/SVG/1.1/DTD/svg11.dtd">
<!-- Generated by graphviz version 2.38.0 (20140413.2041)
 -->
<!-- Title: addBranch Pages: 1 -->
<svg width="814pt" height="94pt"
 viewBox="0.00 0.00 814.00 93.50" xmlns="http://www.w3.org/2000/svg" xmlns:xlink="http://www.w3.org/1999/xlink">
<g id="graph0" class="graph" transform="scale(1 1) rotate(0) translate(4 89.5)">
<title>addBranch</title>
<polygon fill="white" stroke="none" points="-4,4 -4,-89.5 810,-89.5 810,4 -4,4"/>
<!-- Node1 -->
<g id="node1" class="node"><title>Node1</title>
<polygon fill="#bfbfbf" stroke="black" points="0,-35.5 0,-54.5 63,-54.5 63,-35.5 0,-35.5"/>
<text text-anchor="middle" x="31.5" y="-42.5" font-family="Helvetica,sans-Serif" font-size="10.00">addBranch</text>
</g>
<!-- Node2 -->
<g id="node2" class="node"><title>Node2</title>
<g id="a_node2"><a xlink:href="$classtomoBay_1_1presenters_1_1presenterActions_1_1concreteActions_1_1BuyerList.html#adb3dedf31dc2c7fc796f20406c235ccd" xlink:title="performs the action specified ">
<polygon fill="white" stroke="black" points="113.5,-55 113.5,-85 318.5,-85 318.5,-55 113.5,-55"/>
<text text-anchor="start" x="121.5" y="-73" font-family="Helvetica,sans-Serif" font-size="10.00">tomoBay.presenters.presenter</text>
<text text-anchor="middle" x="216" y="-62" font-family="Helvetica,sans-Serif" font-size="10.00">Actions.concreteActions.BuyerList.execute</text>
</a>
</g>
</g>
<!-- Node1&#45;&gt;Node2 -->
<g id="edge1" class="edge"><title>Node1&#45;&gt;Node2</title>
<path fill="none" stroke="midnightblue" d="M73.22,-50.5781C85.3463,-52.2392 99.2113,-54.1385 113.415,-56.0842"/>
<polygon fill="midnightblue" stroke="midnightblue" points="73.4289,-47.0741 63.0464,-49.1844 72.4788,-54.0093 73.4289,-47.0741"/>
</g>
<!-- Node3 -->
<g id="node3" class="node"><title>Node3</title>
<g id="a_node3"><a xlink:href="$classtomoBay_1_1presenters_1_1presenterActions_1_1concreteActions_1_1OrderInfo.html#a703cbb509cdc01530f19b03f573120c9" xlink:title="formats the transaction information associated with this order ">
<polygon fill="white" stroke="black" points="99,-6 99,-36 333,-36 333,-6 99,-6"/>
<text text-anchor="start" x="107" y="-24" font-family="Helvetica,sans-Serif" font-size="10.00">tomoBay.presenters.presenter</text>
<text text-anchor="middle" x="216" y="-13" font-family="Helvetica,sans-Serif" font-size="10.00">Actions.concreteActions.OrderInfo.transactionInfo</text>
</a>
</g>
</g>
<!-- Node1&#45;&gt;Node3 -->
<g id="edge2" class="edge"><title>Node1&#45;&gt;Node3</title>
<path fill="none" stroke="midnightblue" d="M73.2358,-39.643C81.6622,-38.5348 90.9278,-37.3163 100.563,-36.0493"/>
<polygon fill="midnightblue" stroke="midnightblue" points="72.5047,-36.2089 63.0464,-40.9829 73.4174,-43.1491 72.5047,-36.2089"/>
</g>
<!-- Node4 -->
<g id="node4" class="node"><title>Node4</title>
<g id="a_node4"><a xlink:href="$classtomoBay_1_1presenters_1_1presenterActions_1_1concreteActions_1_1OrderInfo.html#afeec1aeda079b77245edea1e74b25f33" xlink:title="assembles the various parts of the order and outputs it as a fully formed JSON string. ">
<polygon fill="white" stroke="black" points="369,-0.5 369,-41.5 566,-41.5 566,-0.5 369,-0.5"/>
<text text-anchor="start" x="377" y="-29.5" font-family="Helvetica,sans-Serif" font-size="10.00">tomoBay.presenters.presenter</text>
<text text-anchor="start" x="377" y="-18.5" font-family="Helvetica,sans-Serif" font-size="10.00">Actions.concreteActions.OrderInfo.format</text>
<text text-anchor="middle" x="467.5" y="-7.5" font-family="Helvetica,sans-Serif" font-size="10.00">Results</text>
</a>
</g>
</g>
<!-- Node3&#45;&gt;Node4 -->
<g id="edge3" class="edge"><title>Node3&#45;&gt;Node4</title>
<path fill="none" stroke="midnightblue" d="M343.61,-21C352.026,-21 360.431,-21 368.671,-21"/>
<polygon fill="midnightblue" stroke="midnightblue" points="343.35,-17.5001 333.35,-21 343.35,-24.5001 343.35,-17.5001"/>
</g>
<!-- Node5 -->
<g id="node5" class="node"><title>Node5</title>
<g id="a_node5"><a xlink:href="$classtomoBay_1_1presenters_1_1presenterActions_1_1concreteActions_1_1OrderInfo.html#adb3dedf31dc2c7fc796f20406c235ccd" xlink:title="performs the action specified ">
<polygon fill="white" stroke="black" points="602,-6 602,-36 806,-36 806,-6 602,-6"/>
<text text-anchor="start" x="610" y="-24" font-family="Helvetica,sans-Serif" font-size="10.00">tomoBay.presenters.presenter</text>
<text text-anchor="middle" x="704" y="-13" font-family="Helvetica,sans-Serif" font-size="10.00">Actions.concreteActions.OrderInfo.execute</text>
</a>
</g>
</g>
<!-- Node4&#45;&gt;Node5 -->
<g id="edge4" class="edge"><title>Node4&#45;&gt;Node5</title>
<path fill="none" stroke="midnightblue" d="M576.441,-21C584.831,-21 593.285,-21 601.629,-21"/>
<polygon fill="midnightblue" stroke="midnightblue" points="576.251,-17.5001 566.251,-21 576.251,-24.5001 576.251,-17.5001"/>
</g>
</g>
</svg>
