<?xml version="1.0" encoding="UTF-8" standalone="no"?>
<!DOCTYPE svg PUBLIC "-//W3C//DTD SVG 1.1//EN"
 "http://www.w3.org/Graphics/SVG/1.1/DTD/svg11.dtd">
<!-- Generated by graphviz version 2.38.0 (20140413.2041)
 -->
<!-- Title: populate Pages: 1 -->
<svg width="528pt" height="50pt"
 viewBox="0.00 0.00 528.00 50.00" xmlns="http://www.w3.org/2000/svg" xmlns:xlink="http://www.w3.org/1999/xlink">
<g id="graph0" class="graph" transform="scale(1 1) rotate(0) translate(4 46)">
<title>populate</title>
<polygon fill="white" stroke="none" points="-4,4 -4,-46 524,-46 524,4 -4,4"/>
<!-- Node1 -->
<g id="node1" class="node"><title>Node1</title>
<polygon fill="#bfbfbf" stroke="black" points="0,-11.5 0,-30.5 53,-30.5 53,-11.5 0,-11.5"/>
<text text-anchor="middle" x="26.5" y="-18.5" font-family="Helvetica,sans-Serif" font-size="10.00">populate</text>
</g>
<!-- Node2 -->
<g id="node2" class="node"><title>Node2</title>
<g id="a_node2"><a xlink:href="$classtomoBay_1_1model_1_1services_1_1individualItemRefreshService_1_1OnRunning.html#ae4a4f4cadce2787c7e80005639fbd5d9" xlink:title="this method defines what to do in the given derived state ">
<polygon fill="white" stroke="black" points="89,-6 89,-36 282,-36 282,-6 89,-6"/>
<text text-anchor="start" x="97" y="-24" font-family="Helvetica,sans-Serif" font-size="10.00">tomoBay.model.services.individual</text>
<text text-anchor="middle" x="185.5" y="-13" font-family="Helvetica,sans-Serif" font-size="10.00">ItemRefreshService.OnRunning.execute</text>
</a>
</g>
</g>
<!-- Node1&#45;&gt;Node2 -->
<g id="edge1" class="edge"><title>Node1&#45;&gt;Node2</title>
<path fill="none" stroke="midnightblue" d="M63.2073,-21C71.0453,-21 79.7031,-21 88.6789,-21"/>
<polygon fill="midnightblue" stroke="midnightblue" points="63.0742,-17.5001 53.0742,-21 63.0741,-24.5001 63.0742,-17.5001"/>
</g>
<!-- Node3 -->
<g id="node3" class="node"><title>Node3</title>
<g id="a_node3"><a xlink:href="$classtomoBay_1_1model_1_1services_1_1individualItemRefreshService_1_1IndividualItemRefreshService.html#ae3b0a282dcba7f2d675ca89b1dd48487" xlink:title="tomoBay.model.services.individual\lItemRefreshService.IndividualItemRefresh\lService.onRunning">
<polygon fill="white" stroke="black" points="318,-0.5 318,-41.5 520,-41.5 520,-0.5 318,-0.5"/>
<text text-anchor="start" x="326" y="-29.5" font-family="Helvetica,sans-Serif" font-size="10.00">tomoBay.model.services.individual</text>
<text text-anchor="start" x="326" y="-18.5" font-family="Helvetica,sans-Serif" font-size="10.00">ItemRefreshService.IndividualItemRefresh</text>
<text text-anchor="middle" x="419" y="-7.5" font-family="Helvetica,sans-Serif" font-size="10.00">Service.onRunning</text>
</a>
</g>
</g>
<!-- Node2&#45;&gt;Node3 -->
<g id="edge2" class="edge"><title>Node2&#45;&gt;Node3</title>
<path fill="none" stroke="midnightblue" d="M292.529,-21C300.927,-21 309.394,-21 317.751,-21"/>
<polygon fill="midnightblue" stroke="midnightblue" points="292.331,-17.5001 282.331,-21 292.331,-24.5001 292.331,-17.5001"/>
</g>
</g>
</svg>
