<?xml version="1.0" encoding="UTF-8" standalone="no"?>
<!DOCTYPE svg PUBLIC "-//W3C//DTD SVG 1.1//EN"
 "http://www.w3.org/Graphics/SVG/1.1/DTD/svg11.dtd">
<!-- Generated by graphviz version 2.38.0 (20140413.2041)
 -->
<!-- Title: execute Pages: 1 -->
<!--zoomable 137 -->
<svg id="main" version="1.1" xmlns="http://www.w3.org/2000/svg" xmlns:xlink="http://www.w3.org/1999/xlink" xml:space="preserve" onload="init(evt)">
<style type="text/css"><![CDATA[
.edge:hover path { stroke: red; }
.edge:hover polygon { stroke: red; fill: red; }
]]></style>
<script type="text/javascript"><![CDATA[
var edges = document.getElementsByTagName('g');
if (edges && edges.length) {
  for (var i=0;i<edges.length;i++) {
    if (edges[i].id.substr(0,4)=='edge') {
      edges[i].setAttribute('class','edge');
    }
  }
}
]]></script>
        <defs>
                <circle id="rim" cx="0" cy="0" r="7"/>
                <circle id="rim2" cx="0" cy="0" r="3.5"/>
                <g id="zoomPlus">
                        <use xlink:href="#rim" fill="#404040">
                                <set attributeName="fill" to="#808080" begin="zoomplus.mouseover" end="zoomplus.mouseout"/>
                        </use>
                        <path d="M-4,0h8M0,-4v8" fill="none" stroke="white" stroke-width="1.5" pointer-events="none"/>
                </g>
                <g id="zoomMin">
                        <use xlink:href="#rim" fill="#404040">
                                <set attributeName="fill" to="#808080" begin="zoomminus.mouseover" end="zoomminus.mouseout"/>
                        </use>
                        <path d="M-4,0h8" fill="none" stroke="white" stroke-width="1.5" pointer-events="none"/>
                </g>
                <g id="dirArrow">
                        <path fill="none" stroke="white" stroke-width="1.5" d="M0,-3.0v7 M-2.5,-0.5L0,-3.0L2.5,-0.5"/>
                </g>
               <g id="resetDef">
                       <use xlink:href="#rim2" fill="#404040">
                               <set attributeName="fill" to="#808080" begin="reset.mouseover" end="reset.mouseout"/>
                       </use>
               </g>
        </defs>

<script type="text/javascript">
var viewWidth = 502;
var viewHeight = 137;
var sectionId = 'dynsection-2';
</script>
<script xlink:href="svgpan.js"/>
<svg id="graph" class="graph">
<g id="viewport">
<title>execute</title>
<polygon fill="white" stroke="none" points="-4,4 -4,-133 498,-133 498,4 -4,4"/>
<!-- Node1 -->
<g id="node1" class="node"><title>Node1</title>
<polygon fill="#bfbfbf" stroke="black" points="0,-55 0,-74 51,-74 51,-55 0,-55"/>
<text text-anchor="middle" x="25.5" y="-62" font-family="Helvetica,sans-Serif" font-size="10.00">execute</text>
</g>
<!-- Node2 -->
<g id="node2" class="node"><title>Node2</title>
<g id="a_node2"><a xlink:href="classtomoBay_1_1model_1_1winstock_1_1payloads_1_1AbstractPayload.html#accbe948d47bdcb50d5d6e820df17b53f" target="_top" xlink:title="This method contains the implementiation for the specific command that this payload is applicable to...">
<polygon fill="white" stroke="black" points="100.5,-98.5 100.5,-128.5 272.5,-128.5 272.5,-98.5 100.5,-98.5"/>
<text text-anchor="start" x="108.5" y="-116.5" font-family="Helvetica,sans-Serif" font-size="10.00">tomoBay.model.winstock.payloads.</text>
<text text-anchor="middle" x="186.5" y="-105.5" font-family="Helvetica,sans-Serif" font-size="10.00">AbstractPayload.getPayload</text>
</a>
</g>
</g>
<!-- Node1&#45;&gt;Node2 -->
<g id="edge1" class="edge"><title>Node1&#45;&gt;Node2</title>
<path fill="none" stroke="midnightblue" d="M47.4818,-74.0988C58.9897,-79.1261 73.6028,-85.1282 87,-89.5 93.7872,-91.7148 100.896,-93.8303 108.055,-95.8223"/>
<polygon fill="midnightblue" stroke="midnightblue" points="107.256,-99.2317 117.823,-98.4599 109.081,-92.4738 107.256,-99.2317"/>
</g>
<!-- Node4 -->
<g id="node4" class="node"><title>Node4</title>
<g id="a_node4"><a xlink:href="classtomoBay_1_1model_1_1winstock_1_1response_1_1PrintInvoiceResponse.html#a4cf1590708926bf0922aea8577102605" target="_top" xlink:title="used by the AbstractWinstockCommand associated with this response to insert the raw byte values into ...">
<polygon fill="white" stroke="black" points="87,-49.5 87,-79.5 286,-79.5 286,-49.5 87,-49.5"/>
<text text-anchor="start" x="95" y="-67.5" font-family="Helvetica,sans-Serif" font-size="10.00">tomoBay.model.winstock.response.</text>
<text text-anchor="middle" x="186.5" y="-56.5" font-family="Helvetica,sans-Serif" font-size="10.00">PrintInvoiceResponse.setResponseBytes</text>
</a>
</g>
</g>
<!-- Node1&#45;&gt;Node4 -->
<g id="edge3" class="edge"><title>Node1&#45;&gt;Node4</title>
<path fill="none" stroke="midnightblue" d="M51.3438,-64.5C58.72,-64.5 67.3129,-64.5 76.5205,-64.5"/>
<polygon fill="midnightblue" stroke="midnightblue" points="76.7245,-68.0001 86.7244,-64.5 76.7244,-61.0001 76.7245,-68.0001"/>
</g>
<!-- Node5 -->
<g id="node5" class="node"><title>Node5</title>
<g id="a_node5"><a xlink:href="classtomoBay_1_1model_1_1winstock_1_1response_1_1PrintInvoiceResponse.html#a512082f1cf5ec9f6633f3e6b086bfc2e" target="_top" xlink:title="used by the AbstractWinswtock command associated with this response to insert the raw byte values tha...">
<polygon fill="white" stroke="black" points="99,-0.5 99,-30.5 274,-30.5 274,-0.5 99,-0.5"/>
<text text-anchor="start" x="107" y="-18.5" font-family="Helvetica,sans-Serif" font-size="10.00">tomoBay.model.winstock.response.</text>
<text text-anchor="middle" x="186.5" y="-7.5" font-family="Helvetica,sans-Serif" font-size="10.00">PrintInvoiceResponse.setSentBytes</text>
</a>
</g>
</g>
<!-- Node1&#45;&gt;Node5 -->
<g id="edge4" class="edge"><title>Node1&#45;&gt;Node5</title>
<path fill="none" stroke="midnightblue" d="M48.6597,-54.9127C59.9998,-50.2111 74.0996,-44.6766 87,-40.5 94.9021,-37.9416 103.229,-35.4788 111.557,-33.1628"/>
<polygon fill="midnightblue" stroke="midnightblue" points="112.576,-36.513 121.309,-30.5146 110.741,-29.7577 112.576,-36.513"/>
</g>
<!-- Node3 -->
<g id="node3" class="node"><title>Node3</title>
<g id="a_node3"><a xlink:href="classtomoBay_1_1model_1_1winstock_1_1payloads_1_1AbstractPayload.html#adcaaf6dd0b7838f6139746922d0dc607" target="_top" xlink:title="reassembles the internal list as a byte[] that can be passed straight to the ClientSockets object...">
<polygon fill="white" stroke="black" points="322,-98.5 322,-128.5 494,-128.5 494,-98.5 322,-98.5"/>
<text text-anchor="start" x="330" y="-116.5" font-family="Helvetica,sans-Serif" font-size="10.00">tomoBay.model.winstock.payloads.</text>
<text text-anchor="middle" x="408" y="-105.5" font-family="Helvetica,sans-Serif" font-size="10.00">AbstractPayload.getResult</text>
</a>
</g>
</g>
<!-- Node2&#45;&gt;Node3 -->
<g id="edge2" class="edge"><title>Node2&#45;&gt;Node3</title>
<path fill="none" stroke="midnightblue" d="M272.679,-113.5C285.42,-113.5 298.628,-113.5 311.566,-113.5"/>
<polygon fill="midnightblue" stroke="midnightblue" points="311.869,-117 321.869,-113.5 311.869,-110 311.869,-117"/>
</g>
</g>
</svg>
        <g id="navigator" transform="translate(0 0)" fill="#404254">
                <rect fill="#f2f5e9" fill-opacity="0.5" stroke="#606060" stroke-width=".5" x="0" y="0" width="60" height="60"/>
                <use id="zoomplus" xlink:href="#zoomPlus" x="17" y="9" onmousedown="handleZoom(evt,'in')"/>
                <use id="zoomminus" xlink:href="#zoomMin" x="42" y="9" onmousedown="handleZoom(evt,'out')"/>
                <use id="reset" xlink:href="#resetDef" x="30" y="36" onmousedown="handleReset()"/>
                <g id="arrowUp" xlink:href="#dirArrow" transform="translate(30 24)" onmousedown="handlePan(0,-1)">
                  <use xlink:href="#rim" fill="#404040">
                        <set attributeName="fill" to="#808080" begin="arrowUp.mouseover" end="arrowUp.mouseout"/>
                  </use>
                  <path fill="none" stroke="white" stroke-width="1.5" d="M0,-3.0v7 M-2.5,-0.5L0,-3.0L2.5,-0.5"/>
                </g>
                <g id="arrowRight" xlink:href="#dirArrow" transform="rotate(90) translate(36 -43)" onmousedown="handlePan(1,0)">
                  <use xlink:href="#rim" fill="#404040">
                        <set attributeName="fill" to="#808080" begin="arrowRight.mouseover" end="arrowRight.mouseout"/>
                  </use>
                  <path fill="none" stroke="white" stroke-width="1.5" d="M0,-3.0v7 M-2.5,-0.5L0,-3.0L2.5,-0.5"/>
                </g>
                <g id="arrowDown" xlink:href="#dirArrow" transform="rotate(180) translate(-30 -48)" onmousedown="handlePan(0,1)">
                  <use xlink:href="#rim" fill="#404040">
                        <set attributeName="fill" to="#808080" begin="arrowDown.mouseover" end="arrowDown.mouseout"/>
                  </use>
                  <path fill="none" stroke="white" stroke-width="1.5" d="M0,-3.0v7 M-2.5,-0.5L0,-3.0L2.5,-0.5"/>
                </g>
                <g id="arrowLeft" xlink:href="#dirArrow" transform="rotate(270) translate(-36 17)" onmousedown="handlePan(-1,0)">
                  <use xlink:href="#rim" fill="#404040">
                        <set attributeName="fill" to="#808080" begin="arrowLeft.mouseover" end="arrowLeft.mouseout"/>
                  </use>
                  <path fill="none" stroke="white" stroke-width="1.5" d="M0,-3.0v7 M-2.5,-0.5L0,-3.0L2.5,-0.5"/>
                </g>
        </g>
        <svg viewBox="0 0 15 15" width="100%" height="30px" preserveAspectRatio="xMaxYMin meet">
         <g id="arrow_out" transform="scale(0.3 0.3)">
          <a xlink:href="classtomoBay_1_1model_1_1winstock_1_1commands_1_1PrintInvoiceCommand_a4ab412c38450af6ddc6d720515fdaa1b_cgraph_org.svg" target="_base">
           <rect id="button" ry="5" rx="5" y="6" x="6" height="38" width="38"
                fill="#f2f5e9" fill-opacity="0.5" stroke="#606060" stroke-width="1.0"/>
           <path id="arrow"
             d="M 11.500037,31.436501 C 11.940474,20.09759 22.043105,11.32322 32.158766,21.979434 L 37.068811,17.246167 C 37.068811,17.246167 37.088388,32 37.088388,32 L 22.160133,31.978069 C 22.160133,31.978069 26.997745,27.140456 26.997745,27.140456 C 18.528582,18.264221 13.291696,25.230495 11.500037,31.436501 z"
             style="fill:#404040;"/>
          </a>
         </g>
        </svg>
</svg>
