<?xml version="1.0" encoding="UTF-8" standalone="no"?>
<!DOCTYPE svg PUBLIC "-//W3C//DTD SVG 1.1//EN"
 "http://www.w3.org/Graphics/SVG/1.1/DTD/svg11.dtd">
<!-- Generated by graphviz version 2.38.0 (20140413.2041)
 -->
<!-- Title: PartialPickeableResult Pages: 1 -->
<svg width="142pt" height="204pt"
 viewBox="0.00 0.00 142.00 204.00" xmlns="http://www.w3.org/2000/svg" xmlns:xlink="http://www.w3.org/1999/xlink">
<g id="graph0" class="graph" transform="scale(1 1) rotate(0) translate(4 200)">
<title>PartialPickeableResult</title>
<polygon fill="white" stroke="none" points="-4,4 -4,-200 138,-200 138,4 -4,4"/>
<!-- Node1 -->
<g id="node1" class="node"><title>Node1</title>
<polygon fill="#bfbfbf" stroke="black" points="1.5,-0.5 1.5,-79.5 132.5,-79.5 132.5,-0.5 1.5,-0.5"/>
<text text-anchor="middle" x="67" y="-67.5" font-family="Helvetica,sans-Serif" font-size="10.00">PartialPickeableResult</text>
<polyline fill="none" stroke="black" points="1.5,-60.5 132.5,-60.5 "/>
<text text-anchor="middle" x="67" y="-48.5" font-family="Helvetica,sans-Serif" font-size="10.00"> </text>
<polyline fill="none" stroke="black" points="1.5,-41.5 132.5,-41.5 "/>
<text text-anchor="start" x="9.5" y="-29.5" font-family="Helvetica,sans-Serif" font-size="10.00">+ PartialPickeableResult()</text>
<text text-anchor="start" x="9.5" y="-18.5" font-family="Helvetica,sans-Serif" font-size="10.00">+ result()</text>
<text text-anchor="start" x="9.5" y="-7.5" font-family="Helvetica,sans-Serif" font-size="10.00">+ result()</text>
</g>
<!-- Node2 -->
<g id="node2" class="node"><title>Node2</title>
<g id="a_node2"><a xlink:href="classtomoBay_1_1model_1_1dataTypes_1_1conditionalStatement_1_1Result.html" target="_top" xlink:title="This class defines the Abstract Base class for all derived Result classes. ">
<polygon fill="white" stroke="black" points="0,-116.5 0,-195.5 134,-195.5 134,-116.5 0,-116.5"/>
<text text-anchor="middle" x="67" y="-183.5" font-family="Helvetica,sans-Serif" font-size="10.00">Result&lt; PickeableStatus &gt;</text>
<polyline fill="none" stroke="black" points="0,-176.5 134,-176.5 "/>
<text text-anchor="middle" x="67" y="-164.5" font-family="Helvetica,sans-Serif" font-size="10.00"> </text>
<polyline fill="none" stroke="black" points="0,-157.5 134,-157.5 "/>
<text text-anchor="start" x="8" y="-145.5" font-family="Helvetica,sans-Serif" font-size="10.00">+ Result()</text>
<text text-anchor="start" x="8" y="-134.5" font-family="Helvetica,sans-Serif" font-size="10.00">+ result()</text>
<text text-anchor="start" x="8" y="-123.5" font-family="Helvetica,sans-Serif" font-size="10.00">+ result()</text>
</a>
</g>
</g>
<!-- Node2&#45;&gt;Node1 -->
<g id="edge1" class="edge"><title>Node2&#45;&gt;Node1</title>
<path fill="none" stroke="midnightblue" d="M67,-106.146C67,-97.256 67,-88.0961 67,-79.5555"/>
<polygon fill="none" stroke="midnightblue" points="63.5001,-106.405 67,-116.405 70.5001,-106.405 63.5001,-106.405"/>
</g>
</g>
</svg>
