<?xml version="1.0" encoding="UTF-8" standalone="no"?>
<!DOCTYPE svg PUBLIC "-//W3C//DTD SVG 1.1//EN"
 "http://www.w3.org/Graphics/SVG/1.1/DTD/svg11.dtd">
<!-- Generated by graphviz version 2.38.0 (20140413.2041)
 -->
<!-- Title: InvoiceOrders Pages: 1 -->
<svg width="196pt" height="248pt"
 viewBox="0.00 0.00 195.50 248.00" xmlns="http://www.w3.org/2000/svg" xmlns:xlink="http://www.w3.org/1999/xlink">
<g id="graph0" class="graph" transform="scale(1 1) rotate(0) translate(4 244)">
<title>InvoiceOrders</title>
<polygon fill="white" stroke="none" points="-4,4 -4,-244 191.5,-244 191.5,4 -4,4"/>
<!-- Node1 -->
<g id="node1" class="node"><title>Node1</title>
<polygon fill="#bfbfbf" stroke="black" points="58,-0.5 58,-134.5 167,-134.5 167,-0.5 58,-0.5"/>
<text text-anchor="middle" x="112.5" y="-122.5" font-family="Helvetica,sans-Serif" font-size="10.00">InvoiceOrders</text>
<polyline fill="none" stroke="black" points="58,-115.5 167,-115.5 "/>
<text text-anchor="start" x="66" y="-103.5" font-family="Helvetica,sans-Serif" font-size="10.00">&#45; EMAILHEADER</text>
<text text-anchor="start" x="66" y="-92.5" font-family="Helvetica,sans-Serif" font-size="10.00">&#45; EMAILFOOTER</text>
<polyline fill="none" stroke="black" points="58,-85.5 167,-85.5 "/>
<text text-anchor="start" x="66" y="-73.5" font-family="Helvetica,sans-Serif" font-size="10.00">+ InvoiceOrders()</text>
<text text-anchor="start" x="66" y="-62.5" font-family="Helvetica,sans-Serif" font-size="10.00">+ execute()</text>
<text text-anchor="start" x="66" y="-51.5" font-family="Helvetica,sans-Serif" font-size="10.00">&#45; splitOrderNoString()</text>
<text text-anchor="start" x="66" y="-40.5" font-family="Helvetica,sans-Serif" font-size="10.00">&#45; updateDB()</text>
<text text-anchor="start" x="66" y="-29.5" font-family="Helvetica,sans-Serif" font-size="10.00">&#45; formatAsDualList()</text>
<text text-anchor="start" x="66" y="-18.5" font-family="Helvetica,sans-Serif" font-size="10.00">&#45; formatMailResult()</text>
<text text-anchor="start" x="66" y="-7.5" font-family="Helvetica,sans-Serif" font-size="10.00">&#45; emailResults()</text>
</g>
<!-- Node2 -->
<g id="node2" class="node"><title>Node2</title>
<g id="a_node2"><a xlink:href="interfacetomoBay_1_1presenters_1_1presenterActions_1_1AbstractPresenterAction.html" target="_top" xlink:title="Copyright(C) 2015 Jan P.C. ">
<polygon fill="white" stroke="black" points="0,-182.5 0,-239.5 123,-239.5 123,-182.5 0,-182.5"/>
<text text-anchor="middle" x="61.5" y="-227.5" font-family="Helvetica,sans-Serif" font-size="10.00">AbstractPresenterAction</text>
<polyline fill="none" stroke="black" points="0,-220.5 123,-220.5 "/>
<text text-anchor="middle" x="61.5" y="-208.5" font-family="Helvetica,sans-Serif" font-size="10.00"> </text>
<polyline fill="none" stroke="black" points="0,-201.5 123,-201.5 "/>
<text text-anchor="start" x="8" y="-189.5" font-family="Helvetica,sans-Serif" font-size="10.00">+ execute()</text>
</a>
</g>
</g>
<!-- Node2&#45;&gt;Node1 -->
<g id="edge1" class="edge"><title>Node2&#45;&gt;Node1</title>
<path fill="none" stroke="midnightblue" d="M74.8538,-172.95C79.0805,-161.223 83.8881,-147.884 88.621,-134.753"/>
<polygon fill="none" stroke="midnightblue" points="71.5525,-171.787 71.4544,-182.381 78.1378,-174.161 71.5525,-171.787"/>
</g>
<!-- Node3 -->
<g id="node3" class="node"><title>Node3</title>
<polygon fill="white" stroke="#bfbfbf" points="141.5,-182.5 141.5,-239.5 187.5,-239.5 187.5,-182.5 141.5,-182.5"/>
<text text-anchor="middle" x="164.5" y="-227.5" font-family="Helvetica,sans-Serif" font-size="10.00">Logger</text>
<polyline fill="none" stroke="#bfbfbf" points="141.5,-220.5 187.5,-220.5 "/>
<text text-anchor="middle" x="164.5" y="-208.5" font-family="Helvetica,sans-Serif" font-size="10.00"> </text>
<polyline fill="none" stroke="#bfbfbf" points="141.5,-201.5 187.5,-201.5 "/>
<text text-anchor="middle" x="164.5" y="-189.5" font-family="Helvetica,sans-Serif" font-size="10.00"> </text>
</g>
<!-- Node3&#45;&gt;Node1 -->
<g id="edge2" class="edge"><title>Node3&#45;&gt;Node1</title>
<path fill="none" stroke="#404040" d="M154.35,-182.381C150.464,-171.806 145.814,-159.153 141.048,-146.185"/>
<polygon fill="none" stroke="#404040" points="140.987,-146.016 135.162,-141.764 136.847,-134.753 142.671,-139.005 140.987,-146.016"/>
<text text-anchor="middle" x="157.5" y="-156" font-family="Helvetica,sans-Serif" font-size="10.00"> ~log</text>
</g>
</g>
</svg>
