<?xml version="1.0" encoding="UTF-8" standalone="no"?>
<!DOCTYPE svg PUBLIC "-//W3C//DTD SVG 1.1//EN"
 "http://www.w3.org/Graphics/SVG/1.1/DTD/svg11.dtd">
<!-- Generated by graphviz version 2.38.0 (20140413.2041)
 -->
<!-- Title: populate Pages: 1 -->
<svg width="701pt" height="116pt"
 viewBox="0.00 0.00 701.00 115.50" xmlns="http://www.w3.org/2000/svg" xmlns:xlink="http://www.w3.org/1999/xlink">
<g id="graph0" class="graph" transform="scale(1 1) rotate(0) translate(4 111.5)">
<title>populate</title>
<polygon fill="white" stroke="none" points="-4,4 -4,-111.5 697,-111.5 697,4 -4,4"/>
<!-- Node1 -->
<g id="node1" class="node"><title>Node1</title>
<polygon fill="#bfbfbf" stroke="black" points="0,-38.5 0,-57.5 53,-57.5 53,-38.5 0,-38.5"/>
<text text-anchor="middle" x="26.5" y="-45.5" font-family="Helvetica,sans-Serif" font-size="10.00">populate</text>
</g>
<!-- Node2 -->
<g id="node2" class="node"><title>Node2</title>
<g id="a_node2"><a xlink:href="$classtomoBay_1_1model_1_1sql_1_1framework_1_1ModifyQueryInvoker.html#ab8ef0fdf15f6720620e297c77ab25d46" xlink:title="tomoBay.model.sql.framework.\lModifyQueryInvoker.execute">
<polygon fill="white" stroke="black" points="89,-77 89,-107 241,-107 241,-77 89,-77"/>
<text text-anchor="start" x="97" y="-95" font-family="Helvetica,sans-Serif" font-size="10.00">tomoBay.model.sql.framework.</text>
<text text-anchor="middle" x="165" y="-84" font-family="Helvetica,sans-Serif" font-size="10.00">ModifyQueryInvoker.execute</text>
</a>
</g>
</g>
<!-- Node1&#45;&gt;Node2 -->
<g id="edge1" class="edge"><title>Node1&#45;&gt;Node2</title>
<path fill="none" stroke="midnightblue" d="M53.1746,-56.2761C68.5635,-61.2366 88.7606,-67.747 107.692,-73.8496"/>
<polygon fill="midnightblue" stroke="midnightblue" points="106.853,-77.2564 117.445,-76.9932 109.001,-70.594 106.853,-77.2564"/>
</g>
<!-- Node3 -->
<g id="node3" class="node"><title>Node3</title>
<g id="a_node3"><a xlink:href="$classtomoBay_1_1model_1_1services_1_1basicEbayUpdateService_1_1Buyers__Table.html#a2635d1876823db285122ff73faeed4b2" xlink:title="retrieves the personal address associated with the order passed in as an argument. ">
<polygon fill="white" stroke="black" points="132,-38.5 132,-57.5 198,-57.5 198,-38.5 132,-38.5"/>
<text text-anchor="middle" x="165" y="-45.5" font-family="Helvetica,sans-Serif" font-size="10.00">getAddress</text>
</a>
</g>
</g>
<!-- Node1&#45;&gt;Node3 -->
<g id="edge2" class="edge"><title>Node1&#45;&gt;Node3</title>
<path fill="none" stroke="midnightblue" d="M53.1746,-48C72.3754,-48 99.0615,-48 121.436,-48"/>
<polygon fill="midnightblue" stroke="midnightblue" points="121.695,-51.5001 131.695,-48 121.695,-44.5001 121.695,-51.5001"/>
</g>
<!-- Node6 -->
<g id="node6" class="node"><title>Node6</title>
<g id="a_node6"><a xlink:href="$classtomoBay_1_1model_1_1services_1_1basicEbayUpdateService_1_1Buyers__Table.html#a33706837d80ae402889acf879a8e2566" xlink:title="retrieves the global shipping program address associated with the order passed in as an argument...">
<polygon fill="white" stroke="black" points="122,-0.5 122,-19.5 208,-19.5 208,-0.5 122,-0.5"/>
<text text-anchor="middle" x="165" y="-7.5" font-family="Helvetica,sans-Serif" font-size="10.00">getGSPaddress</text>
</a>
</g>
</g>
<!-- Node1&#45;&gt;Node6 -->
<g id="edge5" class="edge"><title>Node1&#45;&gt;Node6</title>
<path fill="none" stroke="midnightblue" d="M53.146,-39.7535C64.1466,-36.3002 77.1656,-32.3247 89,-29 97.2721,-26.676 106.093,-24.3272 114.672,-22.1109"/>
<polygon fill="midnightblue" stroke="midnightblue" points="115.762,-25.4451 124.585,-19.5796 114.03,-18.6627 115.762,-25.4451"/>
</g>
<!-- Node4 -->
<g id="node4" class="node"><title>Node4</title>
<g id="a_node4"><a xlink:href="$classtomoBay_1_1model_1_1dataTypes_1_1heteroTypeContainer_1_1HeteroFieldContainer.html#a3ba6289417930238a36bfee0056b6398" xlink:title="add an arbitrary value to this Field container with the stipulation that this value is of the same ty...">
<polygon fill="white" stroke="black" points="277,-14 277,-44 471,-44 471,-14 277,-14"/>
<text text-anchor="start" x="285" y="-32" font-family="Helvetica,sans-Serif" font-size="10.00">tomoBay.model.dataTypes.hetero</text>
<text text-anchor="middle" x="374" y="-21" font-family="Helvetica,sans-Serif" font-size="10.00">TypeContainer.HeteroFieldContainer.add</text>
</a>
</g>
</g>
<!-- Node3&#45;&gt;Node4 -->
<g id="edge3" class="edge"><title>Node3&#45;&gt;Node4</title>
<path fill="none" stroke="midnightblue" d="M198.344,-45.0312C217.115,-43.3082 241.94,-41.0297 266.962,-38.733"/>
<polygon fill="midnightblue" stroke="midnightblue" points="267.285,-42.2181 276.923,-37.8186 266.645,-35.2474 267.285,-42.2181"/>
</g>
<!-- Node5 -->
<g id="node5" class="node"><title>Node5</title>
<g id="a_node5"><a xlink:href="$classtomoBay_1_1model_1_1dataTypes_1_1heteroTypeContainer_1_1HeteroFieldContainer.html#a9dee3c01eb5ab16203e1c6820a569484" xlink:title="performs a type check, assuming that field and type are of the same type then this method returns tru...">
<polygon fill="white" stroke="black" points="507,-8.5 507,-49.5 693,-49.5 693,-8.5 507,-8.5"/>
<text text-anchor="start" x="515" y="-37.5" font-family="Helvetica,sans-Serif" font-size="10.00">tomoBay.model.dataTypes.hetero</text>
<text text-anchor="start" x="515" y="-26.5" font-family="Helvetica,sans-Serif" font-size="10.00">TypeContainer.HeteroFieldContainer.is</text>
<text text-anchor="middle" x="600" y="-15.5" font-family="Helvetica,sans-Serif" font-size="10.00">SameType</text>
</a>
</g>
</g>
<!-- Node4&#45;&gt;Node5 -->
<g id="edge4" class="edge"><title>Node4&#45;&gt;Node5</title>
<path fill="none" stroke="midnightblue" d="M471.296,-29C479.642,-29 488.106,-29 496.499,-29"/>
<polygon fill="midnightblue" stroke="midnightblue" points="496.688,-32.5001 506.688,-29 496.688,-25.5001 496.688,-32.5001"/>
</g>
<!-- Node6&#45;&gt;Node4 -->
<g id="edge6" class="edge"><title>Node6&#45;&gt;Node4</title>
<path fill="none" stroke="midnightblue" d="M208.139,-13.8678C225.206,-15.4343 245.756,-17.3206 266.469,-19.2217"/>
<polygon fill="midnightblue" stroke="midnightblue" points="266.357,-22.7261 276.635,-20.1549 266.997,-15.7554 266.357,-22.7261"/>
</g>
</g>
</svg>
