<?xml version="1.0" encoding="UTF-8" standalone="no"?>
<!DOCTYPE svg PUBLIC "-//W3C//DTD SVG 1.1//EN"
 "http://www.w3.org/Graphics/SVG/1.1/DTD/svg11.dtd">
<!-- Generated by graphviz version 2.38.0 (20140413.2041)
 -->
<!-- Title: getConfs Pages: 1 -->
<svg width="437pt" height="123pt"
 viewBox="0.00 0.00 437.00 122.50" xmlns="http://www.w3.org/2000/svg" xmlns:xlink="http://www.w3.org/1999/xlink">
<g id="graph0" class="graph" transform="scale(1 1) rotate(0) translate(4 118.5)">
<title>getConfs</title>
<polygon fill="white" stroke="none" points="-4,4 -4,-118.5 433,-118.5 433,4 -4,4"/>
<!-- Node1 -->
<g id="node1" class="node"><title>Node1</title>
<polygon fill="#bfbfbf" stroke="black" points="0,-38.5 0,-57.5 56,-57.5 56,-38.5 0,-38.5"/>
<text text-anchor="middle" x="28" y="-45.5" font-family="Helvetica,sans-Serif" font-size="10.00">getConfs</text>
</g>
<!-- Node2 -->
<g id="node2" class="node"><title>Node2</title>
<g id="a_node2"><a xlink:href="$classtomoBay_1_1helpers_1_1Shipping__Priority.html#aeaa068d370466a132fa02c3dd61f4111" xlink:title="populates the internal map containing the shipping priorities ">
<polygon fill="white" stroke="black" points="106,-60 106,-90 248,-90 248,-60 106,-60"/>
<text text-anchor="start" x="114" y="-78" font-family="Helvetica,sans-Serif" font-size="10.00">tomoBay.helpers.Shipping</text>
<text text-anchor="middle" x="177" y="-67" font-family="Helvetica,sans-Serif" font-size="10.00">_Priority.populatePriorityMap</text>
</a>
</g>
</g>
<!-- Node1&#45;&gt;Node2 -->
<g id="edge1" class="edge"><title>Node1&#45;&gt;Node2</title>
<path fill="none" stroke="midnightblue" d="M66.3774,-54.8652C78.3945,-57.0725 92.1263,-59.5946 105.711,-62.0899"/>
<polygon fill="midnightblue" stroke="midnightblue" points="66.7728,-51.3794 56.3051,-53.0152 65.5082,-58.2642 66.7728,-51.3794"/>
</g>
<!-- Node5 -->
<g id="node5" class="node"><title>Node5</title>
<g id="a_node5"><a xlink:href="$classtomoBay_1_1model_1_1royalMail_1_1RoyalMailCSVGenerator.html#a1cb65b7538dfdc8bf869f5c77421c90b" xlink:title="ctor, creates an empty CSV of the format: &quot;Service Reference&quot;,&quot;Service&quot;,&quot;Recipient&quot;,&quot;Address Line 1&quot;,&quot;Address Line 2&quot;,&quot;PostCode&quot;,&quot;Post Town&quot;, &quot;Country Code&quot;,&quot;Reference&quot;,&quot;Items&quot;,&quot;Weight&quot;,&quot;Service Enhancement&quot;,&quot;Service Format&quot;, ">
<polygon fill="white" stroke="black" points="92,-0.5 92,-41.5 262,-41.5 262,-0.5 92,-0.5"/>
<text text-anchor="start" x="100" y="-29.5" font-family="Helvetica,sans-Serif" font-size="10.00">tomoBay.model.royalMail.</text>
<text text-anchor="start" x="100" y="-18.5" font-family="Helvetica,sans-Serif" font-size="10.00">RoyalMailCSVGenerator.RoyalMail</text>
<text text-anchor="middle" x="177" y="-7.5" font-family="Helvetica,sans-Serif" font-size="10.00">CSVGenerator</text>
</a>
</g>
</g>
<!-- Node1&#45;&gt;Node5 -->
<g id="edge4" class="edge"><title>Node1&#45;&gt;Node5</title>
<path fill="none" stroke="midnightblue" d="M66.2374,-41.1605C74.1553,-39.7062 82.8223,-38.1143 91.7043,-36.4829"/>
<polygon fill="midnightblue" stroke="midnightblue" points="65.5082,-37.7358 56.3051,-42.9848 66.7728,-44.6206 65.5082,-37.7358"/>
</g>
<!-- Node3 -->
<g id="node3" class="node"><title>Node3</title>
<g id="a_node3"><a xlink:href="$classtomoBay_1_1helpers_1_1Shipping__Priority.html#ab2c54f868e5d66f974ab70defd889b5f" xlink:title="singleton ctor, ensures that this class is never instantiated ">
<polygon fill="white" stroke="black" points="298,-84 298,-114 429,-114 429,-84 298,-84"/>
<text text-anchor="start" x="306" y="-102" font-family="Helvetica,sans-Serif" font-size="10.00">tomoBay.helpers.Shipping</text>
<text text-anchor="middle" x="363.5" y="-91" font-family="Helvetica,sans-Serif" font-size="10.00">_Priority.Shipping_Priority</text>
</a>
</g>
</g>
<!-- Node2&#45;&gt;Node3 -->
<g id="edge2" class="edge"><title>Node2&#45;&gt;Node3</title>
<path fill="none" stroke="midnightblue" d="M258.121,-85.4222C271.449,-87.1559 285.12,-88.9343 297.997,-90.6093"/>
<polygon fill="midnightblue" stroke="midnightblue" points="258.383,-81.9269 248.015,-84.1076 257.48,-88.8684 258.383,-81.9269"/>
</g>
<!-- Node4 -->
<g id="node4" class="node"><title>Node4</title>
<g id="a_node4"><a xlink:href="$classtomoBay_1_1helpers_1_1Shipping__Priority.html#a540b8555f73cab7f8082c2a6a4aad375" xlink:title="refreshes the internal representation of the shipping type hierarchy with any changes made to the con...">
<polygon fill="white" stroke="black" points="298,-35 298,-65 429,-65 429,-35 298,-35"/>
<text text-anchor="start" x="306" y="-53" font-family="Helvetica,sans-Serif" font-size="10.00">tomoBay.helpers.Shipping</text>
<text text-anchor="middle" x="363.5" y="-42" font-family="Helvetica,sans-Serif" font-size="10.00">_Priority.refresh</text>
</a>
</g>
</g>
<!-- Node2&#45;&gt;Node4 -->
<g id="edge3" class="edge"><title>Node2&#45;&gt;Node4</title>
<path fill="none" stroke="midnightblue" d="M258.121,-64.1435C271.449,-62.3376 285.12,-60.4851 297.997,-58.7403"/>
<polygon fill="midnightblue" stroke="midnightblue" points="257.454,-60.7018 248.015,-65.5129 258.394,-67.6384 257.454,-60.7018"/>
</g>
</g>
</svg>
