<?xml version="1.0" encoding="UTF-8" standalone="no"?>
<!DOCTYPE svg PUBLIC "-//W3C//DTD SVG 1.1//EN"
 "http://www.w3.org/Graphics/SVG/1.1/DTD/svg11.dtd">
<!-- Generated by graphviz version 2.38.0 (20140413.2041)
 -->
<!-- Title: setConfig Pages: 1 -->
<svg width="283pt" height="78pt"
 viewBox="0.00 0.00 283.00 77.50" xmlns="http://www.w3.org/2000/svg" xmlns:xlink="http://www.w3.org/1999/xlink">
<g id="graph0" class="graph" transform="scale(1 1) rotate(0) translate(4 73.5)">
<title>setConfig</title>
<polygon fill="white" stroke="none" points="-4,4 -4,-73.5 279,-73.5 279,4 -4,4"/>
<!-- Node1 -->
<g id="node1" class="node"><title>Node1</title>
<polygon fill="#bfbfbf" stroke="black" points="0,-22.5 0,-41.5 59,-41.5 59,-22.5 0,-22.5"/>
<text text-anchor="middle" x="29.5" y="-29.5" font-family="Helvetica,sans-Serif" font-size="10.00">setConfig</text>
</g>
<!-- Node2 -->
<g id="node2" class="node"><title>Node2</title>
<g id="a_node2"><a xlink:href="$interfacetomoBay_1_1model_1_1services_1_1AbstractConfiguration.html#a1396a483eb82c942c1769560f87db904" xlink:title="used to set the configuration information for the service. ">
<polygon fill="white" stroke="black" points="103,-39 103,-69 267,-69 267,-39 103,-39"/>
<text text-anchor="start" x="111" y="-57" font-family="Helvetica,sans-Serif" font-size="10.00">tomoBay.model.services.Abstract</text>
<text text-anchor="middle" x="185" y="-46" font-family="Helvetica,sans-Serif" font-size="10.00">Configuration.configure</text>
</a>
</g>
</g>
<!-- Node1&#45;&gt;Node2 -->
<g id="edge1" class="edge"><title>Node1&#45;&gt;Node2</title>
<path fill="none" stroke="midnightblue" d="M59.0124,-36.0865C68.8341,-37.4941 80.428,-39.1558 92.5293,-40.8902"/>
<polygon fill="midnightblue" stroke="midnightblue" points="92.3905,-44.406 102.786,-42.3602 93.3836,-37.4768 92.3905,-44.406"/>
</g>
<!-- Node3 -->
<g id="node3" class="node"><title>Node3</title>
<g id="a_node3"><a xlink:href="$classtomoBay_1_1helpers_1_1XMLParser.html#a4f989a27fad17308212c0c22aa1fd629" xlink:title="returns a NodeList containing all the nodes that have the specified tag name ">
<polygon fill="white" stroke="black" points="95,-0.5 95,-19.5 275,-19.5 275,-0.5 95,-0.5"/>
<text text-anchor="middle" x="185" y="-7.5" font-family="Helvetica,sans-Serif" font-size="10.00">tomoBay.helpers.XMLParser.parseAll</text>
</a>
</g>
</g>
<!-- Node1&#45;&gt;Node3 -->
<g id="edge2" class="edge"><title>Node1&#45;&gt;Node3</title>
<path fill="none" stroke="midnightblue" d="M59.0124,-27.9135C72.783,-25.9399 90.0377,-23.4669 107.29,-20.9943"/>
<polygon fill="midnightblue" stroke="midnightblue" points="108.019,-24.4257 117.421,-19.5423 107.025,-17.4965 108.019,-24.4257"/>
</g>
</g>
</svg>
