<?xml version="1.0" encoding="UTF-8" standalone="no"?>
<!DOCTYPE svg PUBLIC "-//W3C//DTD SVG 1.1//EN"
 "http://www.w3.org/Graphics/SVG/1.1/DTD/svg11.dtd">
<!-- Generated by graphviz version 2.38.0 (20140413.2041)
 -->
<!-- Title: CRMOverviewView Pages: 1 -->
<svg width="126pt" height="171pt"
 viewBox="0.00 0.00 126.00 171.00" xmlns="http://www.w3.org/2000/svg" xmlns:xlink="http://www.w3.org/1999/xlink">
<g id="graph0" class="graph" transform="scale(1 1) rotate(0) translate(4 167)">
<title>CRMOverviewView</title>
<polygon fill="white" stroke="none" points="-4,4 -4,-167 122,-167 122,4 -4,4"/>
<!-- Node1 -->
<g id="node1" class="node"><title>Node1</title>
<polygon fill="#bfbfbf" stroke="black" points="0,-0.5 0,-68.5 118,-68.5 118,-0.5 0,-0.5"/>
<text text-anchor="middle" x="59" y="-56.5" font-family="Helvetica,sans-Serif" font-size="10.00">CRMOverviewView</text>
<polyline fill="none" stroke="black" points="0,-49.5 118,-49.5 "/>
<text text-anchor="middle" x="59" y="-37.5" font-family="Helvetica,sans-Serif" font-size="10.00"> </text>
<polyline fill="none" stroke="black" points="0,-30.5 118,-30.5 "/>
<text text-anchor="start" x="8" y="-18.5" font-family="Helvetica,sans-Serif" font-size="10.00">+ CRMOverviewView()</text>
<text text-anchor="start" x="8" y="-7.5" font-family="Helvetica,sans-Serif" font-size="10.00">+ format()</text>
</g>
<!-- Node2 -->
<g id="node2" class="node"><title>Node2</title>
<g id="a_node2"><a xlink:href="interfacetomoBay_1_1view_1_1AbstractView.html" target="_top" xlink:title="this is the interface that all views must subscribe to. ">
<polygon fill="white" stroke="black" points="21.5,-105.5 21.5,-162.5 96.5,-162.5 96.5,-105.5 21.5,-105.5"/>
<text text-anchor="middle" x="59" y="-150.5" font-family="Helvetica,sans-Serif" font-size="10.00">AbstractView</text>
<polyline fill="none" stroke="black" points="21.5,-143.5 96.5,-143.5 "/>
<text text-anchor="middle" x="59" y="-131.5" font-family="Helvetica,sans-Serif" font-size="10.00"> </text>
<polyline fill="none" stroke="black" points="21.5,-124.5 96.5,-124.5 "/>
<text text-anchor="start" x="29.5" y="-112.5" font-family="Helvetica,sans-Serif" font-size="10.00">+ format()</text>
</a>
</g>
</g>
<!-- Node2&#45;&gt;Node1 -->
<g id="edge1" class="edge"><title>Node2&#45;&gt;Node1</title>
<path fill="none" stroke="midnightblue" d="M59,-95.0631C59,-86.3933 59,-77.2431 59,-68.7855"/>
<polygon fill="none" stroke="midnightblue" points="55.5001,-95.3212 59,-105.321 62.5001,-95.3212 55.5001,-95.3212"/>
</g>
</g>
</svg>
