<?xml version="1.0" encoding="UTF-8" standalone="no"?>
<!DOCTYPE svg PUBLIC "-//W3C//DTD SVG 1.1//EN"
 "http://www.w3.org/Graphics/SVG/1.1/DTD/svg11.dtd">
<!-- Generated by graphviz version 2.38.0 (20140413.2041)
 -->
<!-- Title: OnRunning Pages: 1 -->
<svg width="118pt" height="193pt"
 viewBox="0.00 0.00 118.00 193.00" xmlns="http://www.w3.org/2000/svg" xmlns:xlink="http://www.w3.org/1999/xlink">
<g id="graph0" class="graph" transform="scale(1 1) rotate(0) translate(4 189)">
<title>OnRunning</title>
<polygon fill="white" stroke="none" points="-4,4 -4,-189 114,-189 114,4 -4,4"/>
<!-- Node1 -->
<g id="node1" class="node"><title>Node1</title>
<polygon fill="#bfbfbf" stroke="black" points="6,-0.5 6,-90.5 104,-90.5 104,-0.5 6,-0.5"/>
<text text-anchor="middle" x="55" y="-78.5" font-family="Helvetica,sans-Serif" font-size="10.00">OnRunning</text>
<polyline fill="none" stroke="black" points="6,-71.5 104,-71.5 "/>
<text text-anchor="start" x="14" y="-59.5" font-family="Helvetica,sans-Serif" font-size="10.00">&#45; buyerID_M</text>
<polyline fill="none" stroke="black" points="6,-52.5 104,-52.5 "/>
<text text-anchor="start" x="14" y="-40.5" font-family="Helvetica,sans-Serif" font-size="10.00">+ OnRunning()</text>
<text text-anchor="start" x="14" y="-29.5" font-family="Helvetica,sans-Serif" font-size="10.00">+ execute()</text>
<text text-anchor="start" x="14" y="-18.5" font-family="Helvetica,sans-Serif" font-size="10.00">&#45; getAddress()</text>
<text text-anchor="start" x="14" y="-7.5" font-family="Helvetica,sans-Serif" font-size="10.00">&#45; getGSPaddress()</text>
</g>
<!-- Node2 -->
<g id="node2" class="node"><title>Node2</title>
<g id="a_node2"><a xlink:href="$interfacetomoBay_1_1model_1_1services_1_1AbstractServiceState.html" xlink:title="Copyright(C) 2015 Jan P.C. ">
<polygon fill="white" stroke="black" points="0,-127.5 0,-184.5 110,-184.5 110,-127.5 0,-127.5"/>
<text text-anchor="middle" x="55" y="-172.5" font-family="Helvetica,sans-Serif" font-size="10.00">AbstractServiceState</text>
<polyline fill="none" stroke="black" points="0,-165.5 110,-165.5 "/>
<text text-anchor="middle" x="55" y="-153.5" font-family="Helvetica,sans-Serif" font-size="10.00"> </text>
<polyline fill="none" stroke="black" points="0,-146.5 110,-146.5 "/>
<text text-anchor="start" x="8" y="-134.5" font-family="Helvetica,sans-Serif" font-size="10.00">+ execute()</text>
</a>
</g>
</g>
<!-- Node2&#45;&gt;Node1 -->
<g id="edge1" class="edge"><title>Node2&#45;&gt;Node1</title>
<path fill="none" stroke="midnightblue" d="M55,-117.214C55,-108.609 55,-99.3943 55,-90.5541"/>
<polygon fill="none" stroke="midnightblue" points="51.5001,-117.34 55,-127.34 58.5001,-117.34 51.5001,-117.34"/>
</g>
</g>
</svg>
