<?xml version="1.0" encoding="UTF-8" standalone="no"?>
<!DOCTYPE svg PUBLIC "-//W3C//DTD SVG 1.1//EN"
 "http://www.w3.org/Graphics/SVG/1.1/DTD/svg11.dtd">
<!-- Generated by graphviz version 2.38.0 (20140413.2041)
 -->
<!-- Title: AdminServiceView Pages: 1 -->
<svg width="107pt" height="160pt"
 viewBox="0.00 0.00 107.00 160.00" xmlns="http://www.w3.org/2000/svg" xmlns:xlink="http://www.w3.org/1999/xlink">
<g id="graph0" class="graph" transform="scale(1 1) rotate(0) translate(4 156)">
<title>AdminServiceView</title>
<polygon fill="white" stroke="none" points="-4,4 -4,-156 103,-156 103,4 -4,4"/>
<!-- Node1 -->
<g id="node1" class="node"><title>Node1</title>
<polygon fill="#bfbfbf" stroke="black" points="0,-0.5 0,-57.5 99,-57.5 99,-0.5 0,-0.5"/>
<text text-anchor="middle" x="49.5" y="-45.5" font-family="Helvetica,sans-Serif" font-size="10.00">AdminServiceView</text>
<polyline fill="none" stroke="black" points="0,-38.5 99,-38.5 "/>
<text text-anchor="middle" x="49.5" y="-26.5" font-family="Helvetica,sans-Serif" font-size="10.00"> </text>
<polyline fill="none" stroke="black" points="0,-19.5 99,-19.5 "/>
<text text-anchor="start" x="8" y="-7.5" font-family="Helvetica,sans-Serif" font-size="10.00">+ format()</text>
</g>
<!-- Node2 -->
<g id="node2" class="node"><title>Node2</title>
<g id="a_node2"><a xlink:href="interfacetomoBay_1_1view_1_1AbstractView.html" target="_top" xlink:title="this is the interface that all views must subscribe to. ">
<polygon fill="white" stroke="black" points="12,-94.5 12,-151.5 87,-151.5 87,-94.5 12,-94.5"/>
<text text-anchor="middle" x="49.5" y="-139.5" font-family="Helvetica,sans-Serif" font-size="10.00">AbstractView</text>
<polyline fill="none" stroke="black" points="12,-132.5 87,-132.5 "/>
<text text-anchor="middle" x="49.5" y="-120.5" font-family="Helvetica,sans-Serif" font-size="10.00"> </text>
<polyline fill="none" stroke="black" points="12,-113.5 87,-113.5 "/>
<text text-anchor="start" x="20" y="-101.5" font-family="Helvetica,sans-Serif" font-size="10.00">+ format()</text>
</a>
</g>
</g>
<!-- Node2&#45;&gt;Node1 -->
<g id="edge1" class="edge"><title>Node2&#45;&gt;Node1</title>
<path fill="none" stroke="midnightblue" d="M49.5,-84.2092C49.5,-75.2929 49.5,-65.9513 49.5,-57.5836"/>
<polygon fill="none" stroke="midnightblue" points="46.0001,-84.3969 49.5,-94.397 53.0001,-84.397 46.0001,-84.3969"/>
</g>
</g>
</svg>
