<?xml version="1.0" encoding="UTF-8" standalone="no"?>
<!DOCTYPE svg PUBLIC "-//W3C//DTD SVG 1.1//EN"
 "http://www.w3.org/Graphics/SVG/1.1/DTD/svg11.dtd">
<!-- Generated by graphviz version 2.38.0 (20140413.2041)
 -->
<!-- Title: WarehouseOrderView Pages: 1 -->
<svg width="120pt" height="160pt"
 viewBox="0.00 0.00 120.00 160.00" xmlns="http://www.w3.org/2000/svg" xmlns:xlink="http://www.w3.org/1999/xlink">
<g id="graph0" class="graph" transform="scale(1 1) rotate(0) translate(4 156)">
<title>WarehouseOrderView</title>
<polygon fill="white" stroke="none" points="-4,4 -4,-156 116,-156 116,4 -4,4"/>
<!-- Node1 -->
<g id="node1" class="node"><title>Node1</title>
<polygon fill="#bfbfbf" stroke="black" points="-7.10543e-15,-0.5 -7.10543e-15,-57.5 112,-57.5 112,-0.5 -7.10543e-15,-0.5"/>
<text text-anchor="middle" x="56" y="-45.5" font-family="Helvetica,sans-Serif" font-size="10.00">WarehouseOrderView</text>
<polyline fill="none" stroke="black" points="-7.10543e-15,-38.5 112,-38.5 "/>
<text text-anchor="middle" x="56" y="-26.5" font-family="Helvetica,sans-Serif" font-size="10.00"> </text>
<polyline fill="none" stroke="black" points="-7.10543e-15,-19.5 112,-19.5 "/>
<text text-anchor="start" x="8" y="-7.5" font-family="Helvetica,sans-Serif" font-size="10.00">+ format()</text>
</g>
<!-- Node2 -->
<g id="node2" class="node"><title>Node2</title>
<g id="a_node2"><a xlink:href="interfacetomoBay_1_1view_1_1AbstractView.html" target="_top" xlink:title="this is the interface that all views must subscribe to. ">
<polygon fill="white" stroke="black" points="18.5,-94.5 18.5,-151.5 93.5,-151.5 93.5,-94.5 18.5,-94.5"/>
<text text-anchor="middle" x="56" y="-139.5" font-family="Helvetica,sans-Serif" font-size="10.00">AbstractView</text>
<polyline fill="none" stroke="black" points="18.5,-132.5 93.5,-132.5 "/>
<text text-anchor="middle" x="56" y="-120.5" font-family="Helvetica,sans-Serif" font-size="10.00"> </text>
<polyline fill="none" stroke="black" points="18.5,-113.5 93.5,-113.5 "/>
<text text-anchor="start" x="26.5" y="-101.5" font-family="Helvetica,sans-Serif" font-size="10.00">+ format()</text>
</a>
</g>
</g>
<!-- Node2&#45;&gt;Node1 -->
<g id="edge1" class="edge"><title>Node2&#45;&gt;Node1</title>
<path fill="none" stroke="midnightblue" d="M56,-84.2092C56,-75.2929 56,-65.9513 56,-57.5836"/>
<polygon fill="none" stroke="midnightblue" points="52.5001,-84.3969 56,-94.397 59.5001,-84.397 52.5001,-84.3969"/>
</g>
</g>
</svg>
