<?xml version="1.0" encoding="UTF-8" standalone="no"?>
<!DOCTYPE svg PUBLIC "-//W3C//DTD SVG 1.1//EN"
 "http://www.w3.org/Graphics/SVG/1.1/DTD/svg11.dtd">
<!-- Generated by graphviz version 2.38.0 (20140413.2041)
 -->
<!-- Title: getLineItem Pages: 1 -->
<svg width="1153pt" height="284pt"
 viewBox="0.00 0.00 1153.00 284.00" xmlns="http://www.w3.org/2000/svg" xmlns:xlink="http://www.w3.org/1999/xlink">
<g id="graph0" class="graph" transform="scale(1 1) rotate(0) translate(4 280)">
<title>getLineItem</title>
<polygon fill="white" stroke="none" points="-4,4 -4,-280 1149,-280 1149,4 -4,4"/>
<!-- Node1 -->
<g id="node1" class="node"><title>Node1</title>
<polygon fill="#bfbfbf" stroke="black" points="0,-123 0,-142 68,-142 68,-123 0,-123"/>
<text text-anchor="middle" x="34" y="-130" font-family="Helvetica,sans-Serif" font-size="10.00">getLineItem</text>
</g>
<!-- Node2 -->
<g id="node2" class="node"><title>Node2</title>
<g id="a_node2"><a xlink:href="$classtomoBay_1_1model_1_1dataTypes_1_1financial_1_1SalesOrderDayBook_1_1PriceAdjustment.html#ad8b7947428df520815c610d319d7375a" xlink:title="calculate the total cost (EX VAT) of the testPrices array. ">
<polygon fill="white" stroke="black" points="374,-245.5 374,-275.5 619,-275.5 619,-245.5 374,-245.5"/>
<text text-anchor="start" x="382" y="-263.5" font-family="Helvetica,sans-Serif" font-size="10.00">tomoBay.model.dataTypes.financial.</text>
<text text-anchor="middle" x="496.5" y="-252.5" font-family="Helvetica,sans-Serif" font-size="10.00">SalesOrderDayBook.PriceAdjustment.calculateTotal</text>
</a>
</g>
</g>
<!-- Node1&#45;&gt;Node2 -->
<g id="edge1" class="edge"><title>Node1&#45;&gt;Node2</title>
<path fill="none" stroke="midnightblue" d="M44.1084,-150.994C55.2088,-171.339 76.0048,-203.179 104,-218.5 186.153,-263.461 292.499,-272.328 373.616,-270.857"/>
<polygon fill="midnightblue" stroke="midnightblue" points="47.1741,-149.303 39.4489,-142.052 40.9664,-152.538 47.1741,-149.303"/>
</g>
<!-- Node6 -->
<g id="node6" class="node"><title>Node6</title>
<g id="a_node6"><a xlink:href="$classtomoBay_1_1model_1_1dataTypes_1_1financial_1_1SalesOrderDayBook_1_1PriceAdjustment.html#afd83b468aec87b8e8c03649edfb3cbbc" xlink:title="convert the internal list of AbstractLineItem withing the AbstractSalesDayBookLine to an array...">
<polygon fill="white" stroke="black" points="388.5,-186 388.5,-227 604.5,-227 604.5,-186 388.5,-186"/>
<text text-anchor="start" x="396.5" y="-215" font-family="Helvetica,sans-Serif" font-size="10.00">tomoBay.model.dataTypes.financial.</text>
<text text-anchor="start" x="396.5" y="-204" font-family="Helvetica,sans-Serif" font-size="10.00">SalesOrderDayBook.PriceAdjustment.convert</text>
<text text-anchor="middle" x="496.5" y="-193" font-family="Helvetica,sans-Serif" font-size="10.00">ListToArray</text>
</a>
</g>
</g>
<!-- Node1&#45;&gt;Node6 -->
<g id="edge5" class="edge"><title>Node1&#45;&gt;Node6</title>
<path fill="none" stroke="midnightblue" d="M50.3088,-149.491C63.1981,-162.503 82.872,-179.53 104,-187.5 195.524,-222.027 307.706,-223.769 388.487,-218.659"/>
<polygon fill="midnightblue" stroke="midnightblue" points="52.6358,-146.859 43.2079,-142.026 47.5638,-151.684 52.6358,-146.859"/>
</g>
<!-- Node7 -->
<g id="node7" class="node"><title>Node7</title>
<g id="a_node7"><a xlink:href="$classtomoBay_1_1model_1_1dataTypes_1_1financial_1_1SalesOrderDayBook_1_1PriceAdjustment.html#a25654edd2b19acf24a704a92f4cfbf6e" xlink:title="returns the number of AbstractLineItems (minus postage line items) contained within this AbstractSale...">
<polygon fill="white" stroke="black" points="124,-137 124,-178 318,-178 318,-137 124,-137"/>
<text text-anchor="start" x="132" y="-166" font-family="Helvetica,sans-Serif" font-size="10.00">tomoBay.model.dataTypes.financial.</text>
<text text-anchor="start" x="132" y="-155" font-family="Helvetica,sans-Serif" font-size="10.00">SalesOrderDayBook.PriceAdjustment.no</text>
<text text-anchor="middle" x="221" y="-144" font-family="Helvetica,sans-Serif" font-size="10.00">OfItems</text>
</a>
</g>
</g>
<!-- Node1&#45;&gt;Node7 -->
<g id="edge7" class="edge"><title>Node1&#45;&gt;Node7</title>
<path fill="none" stroke="midnightblue" d="M78.1656,-138.333C91.9284,-140.193 107.751,-142.331 123.724,-144.49"/>
<polygon fill="midnightblue" stroke="midnightblue" points="78.453,-134.84 68.0743,-136.969 77.5155,-141.777 78.453,-134.84"/>
</g>
<!-- Node8 -->
<g id="node8" class="node"><title>Node8</title>
<g id="a_node8"><a xlink:href="$classtomoBay_1_1model_1_1dataTypes_1_1financial_1_1SalesOrderDayBook_1_1PriceAdjustment.html#a7c388ac8b6eb2f6704db5aa38b291f1d" xlink:title="actually performs the adjustement ">
<polygon fill="white" stroke="black" points="388,-88 388,-129 605,-129 605,-88 388,-88"/>
<text text-anchor="start" x="396" y="-117" font-family="Helvetica,sans-Serif" font-size="10.00">tomoBay.model.dataTypes.financial.</text>
<text text-anchor="start" x="396" y="-106" font-family="Helvetica,sans-Serif" font-size="10.00">SalesOrderDayBook.PriceAdjustment.perform</text>
<text text-anchor="middle" x="496.5" y="-95" font-family="Helvetica,sans-Serif" font-size="10.00">Adjustement</text>
</a>
</g>
</g>
<!-- Node1&#45;&gt;Node8 -->
<g id="edge10" class="edge"><title>Node1&#45;&gt;Node8</title>
<path fill="none" stroke="midnightblue" d="M78.4369,-129.194C86.9122,-128.594 95.7325,-128 104,-127.5 199.943,-121.696 309.199,-116.513 387.867,-113.032"/>
<polygon fill="midnightblue" stroke="midnightblue" points="78.0522,-125.712 68.3302,-129.924 78.5564,-132.694 78.0522,-125.712"/>
</g>
<!-- Node9 -->
<g id="node9" class="node"><title>Node9</title>
<g id="a_node9"><a xlink:href="$classtomoBay_1_1presenters_1_1presenterActions_1_1concreteActions_1_1OrderInfo.html#ab4b3569de633225260e7e17c8947c8c5" xlink:title="formats the shipping information associated with this order ">
<polygon fill="white" stroke="black" points="110,-49.5 110,-79.5 332,-79.5 332,-49.5 110,-49.5"/>
<text text-anchor="start" x="118" y="-67.5" font-family="Helvetica,sans-Serif" font-size="10.00">tomoBay.presenters.presenter</text>
<text text-anchor="middle" x="221" y="-56.5" font-family="Helvetica,sans-Serif" font-size="10.00">Actions.concreteActions.OrderInfo.shippingInfo</text>
</a>
</g>
</g>
<!-- Node1&#45;&gt;Node9 -->
<g id="edge12" class="edge"><title>Node1&#45;&gt;Node9</title>
<path fill="none" stroke="midnightblue" d="M58.5716,-117.59C71.5806,-109.862 88.2507,-100.758 104,-94.5 118.595,-88.7004 134.671,-83.7122 150.085,-79.5614"/>
<polygon fill="midnightblue" stroke="midnightblue" points="56.5396,-114.729 49.8116,-122.913 60.175,-120.711 56.5396,-114.729"/>
</g>
<!-- Node12 -->
<g id="node12" class="node"><title>Node12</title>
<g id="a_node12"><a xlink:href="$classtomoBay_1_1presenters_1_1presenterActions_1_1concreteActions_1_1OrderInfo.html#a703cbb509cdc01530f19b03f573120c9" xlink:title="formats the transaction information associated with this order ">
<polygon fill="white" stroke="black" points="104,-0.5 104,-30.5 338,-30.5 338,-0.5 104,-0.5"/>
<text text-anchor="start" x="112" y="-18.5" font-family="Helvetica,sans-Serif" font-size="10.00">tomoBay.presenters.presenter</text>
<text text-anchor="middle" x="221" y="-7.5" font-family="Helvetica,sans-Serif" font-size="10.00">Actions.concreteActions.OrderInfo.transactionInfo</text>
</a>
</g>
</g>
<!-- Node1&#45;&gt;Node12 -->
<g id="edge15" class="edge"><title>Node1&#45;&gt;Node12</title>
<path fill="none" stroke="midnightblue" d="M43.6967,-113.661C54.6286,-92.1872 75.4749,-57.7132 104,-39.5 109.373,-36.0691 115.146,-33.1172 121.143,-30.5786"/>
<polygon fill="midnightblue" stroke="midnightblue" points="40.4926,-112.246 39.2577,-122.769 46.7851,-115.313 40.4926,-112.246"/>
</g>
<!-- Node3 -->
<g id="node3" class="node"><title>Node3</title>
<g id="a_node3"><a xlink:href="$classtomoBay_1_1model_1_1dataTypes_1_1financial_1_1SalesOrderDayBook_1_1PriceAdjustment.html#ac2a5cb96c13a986d05bd0457a1971e2f" xlink:title="calculate the adjustments necessary and apply them to the AbstractSalesDayBookLine provided as an arg...">
<polygon fill="white" stroke="black" points="655,-166.5 655,-196.5 865,-196.5 865,-166.5 655,-166.5"/>
<text text-anchor="start" x="663" y="-184.5" font-family="Helvetica,sans-Serif" font-size="10.00">tomoBay.model.dataTypes.financial.</text>
<text text-anchor="middle" x="760" y="-173.5" font-family="Helvetica,sans-Serif" font-size="10.00">SalesOrderDayBook.PriceAdjustment.adjust</text>
</a>
</g>
</g>
<!-- Node2&#45;&gt;Node3 -->
<g id="edge2" class="edge"><title>Node2&#45;&gt;Node3</title>
<path fill="none" stroke="midnightblue" d="M593.424,-243.227C602.121,-241.158 610.754,-238.913 619,-236.5 656.344,-225.572 697.643,-208.733 725.644,-196.566"/>
<polygon fill="midnightblue" stroke="midnightblue" points="592.555,-239.836 583.595,-245.49 594.125,-246.658 592.555,-239.836"/>
</g>
<!-- Node4 -->
<g id="node4" class="node"><title>Node4</title>
<g id="a_node4"><a xlink:href="$classtomoBay_1_1model_1_1dataTypes_1_1financial_1_1SalesOrderDayBook_1_1AbstractSalesDayBookLine.html#a0c8ce8b50d57fa99babc2c2199a39fe3" xlink:title="adjustPrices">
<polygon fill="white" stroke="black" points="901,-172 901,-191 972,-191 972,-172 901,-172"/>
<text text-anchor="middle" x="936.5" y="-179" font-family="Helvetica,sans-Serif" font-size="10.00">adjustPrices</text>
</a>
</g>
</g>
<!-- Node3&#45;&gt;Node4 -->
<g id="edge3" class="edge"><title>Node3&#45;&gt;Node4</title>
<path fill="none" stroke="midnightblue" d="M875.135,-181.5C884.311,-181.5 893.048,-181.5 900.881,-181.5"/>
<polygon fill="midnightblue" stroke="midnightblue" points="875.027,-178 865.027,-181.5 875.027,-185 875.027,-178"/>
</g>
<!-- Node5 -->
<g id="node5" class="node"><title>Node5</title>
<g id="a_node5"><a xlink:href="$classtomoBay_1_1model_1_1dataTypes_1_1financial_1_1SalesOrderDayBook_1_1AbstractSalesDayBookLine.html#ae9d19609629c59f8df7ddec196fcc30c" xlink:title="CONSTRUCTOR, creates a SalesDayBookLine based on the Order passed in as a parameter. ">
<polygon fill="white" stroke="black" points="1008,-172 1008,-191 1145,-191 1145,-172 1008,-172"/>
<text text-anchor="middle" x="1076.5" y="-179" font-family="Helvetica,sans-Serif" font-size="10.00">AbstractSalesDayBookLine</text>
</a>
</g>
</g>
<!-- Node4&#45;&gt;Node5 -->
<g id="edge4" class="edge"><title>Node4&#45;&gt;Node5</title>
<path fill="none" stroke="midnightblue" d="M982.353,-181.5C990.522,-181.5 999.207,-181.5 1007.86,-181.5"/>
<polygon fill="midnightblue" stroke="midnightblue" points="982.323,-178 972.323,-181.5 982.323,-185 982.323,-178"/>
</g>
<!-- Node6&#45;&gt;Node3 -->
<g id="edge6" class="edge"><title>Node6&#45;&gt;Node3</title>
<path fill="none" stroke="midnightblue" d="M614.728,-195.293C628.011,-194.023 641.481,-192.735 654.584,-191.482"/>
<polygon fill="midnightblue" stroke="midnightblue" points="614.238,-191.824 604.617,-196.259 614.904,-198.792 614.238,-191.824"/>
</g>
<!-- Node7&#45;&gt;Node3 -->
<g id="edge8" class="edge"><title>Node7&#45;&gt;Node3</title>
<path fill="none" stroke="midnightblue" d="M328.176,-162.245C422.828,-166.476 560.564,-172.631 654.655,-176.837"/>
<polygon fill="midnightblue" stroke="midnightblue" points="328.151,-158.741 318.005,-161.791 327.839,-165.734 328.151,-158.741"/>
</g>
<!-- Node7&#45;&gt;Node6 -->
<g id="edge9" class="edge"><title>Node7&#45;&gt;Node6</title>
<path fill="none" stroke="midnightblue" d="M328.014,-176.493C347.86,-180.049 368.618,-183.768 388.494,-187.329"/>
<polygon fill="midnightblue" stroke="midnightblue" points="328.502,-173.025 318.041,-174.707 327.267,-179.915 328.502,-173.025"/>
</g>
<!-- Node8&#45;&gt;Node3 -->
<g id="edge11" class="edge"><title>Node8&#45;&gt;Node3</title>
<path fill="none" stroke="midnightblue" d="M580.68,-131.721C621.383,-143.083 669.208,-156.434 705.077,-166.447"/>
<polygon fill="midnightblue" stroke="midnightblue" points="581.611,-128.347 571.038,-129.029 579.729,-135.089 581.611,-128.347"/>
</g>
<!-- Node10 -->
<g id="node10" class="node"><title>Node10</title>
<g id="a_node10"><a xlink:href="$classtomoBay_1_1presenters_1_1presenterActions_1_1concreteActions_1_1OrderInfo.html#afeec1aeda079b77245edea1e74b25f33" xlink:title="assembles the various parts of the order and outputs it as a fully formed JSON string. ">
<polygon fill="white" stroke="black" points="398,-12 398,-53 595,-53 595,-12 398,-12"/>
<text text-anchor="start" x="406" y="-41" font-family="Helvetica,sans-Serif" font-size="10.00">tomoBay.presenters.presenter</text>
<text text-anchor="start" x="406" y="-30" font-family="Helvetica,sans-Serif" font-size="10.00">Actions.concreteActions.OrderInfo.format</text>
<text text-anchor="middle" x="496.5" y="-19" font-family="Helvetica,sans-Serif" font-size="10.00">Results</text>
</a>
</g>
</g>
<!-- Node9&#45;&gt;Node10 -->
<g id="edge13" class="edge"><title>Node9&#45;&gt;Node10</title>
<path fill="none" stroke="midnightblue" d="M342.022,-50.4572C360.587,-48.2851 379.57,-46.0641 397.573,-43.9576"/>
<polygon fill="midnightblue" stroke="midnightblue" points="341.586,-46.9842 332.061,-51.6227 342.4,-53.9368 341.586,-46.9842"/>
</g>
<!-- Node11 -->
<g id="node11" class="node"><title>Node11</title>
<g id="a_node11"><a xlink:href="$classtomoBay_1_1presenters_1_1presenterActions_1_1concreteActions_1_1OrderInfo.html#adb3dedf31dc2c7fc796f20406c235ccd" xlink:title="performs the action specified ">
<polygon fill="white" stroke="black" points="658,-17.5 658,-47.5 862,-47.5 862,-17.5 658,-17.5"/>
<text text-anchor="start" x="666" y="-35.5" font-family="Helvetica,sans-Serif" font-size="10.00">tomoBay.presenters.presenter</text>
<text text-anchor="middle" x="760" y="-24.5" font-family="Helvetica,sans-Serif" font-size="10.00">Actions.concreteActions.OrderInfo.execute</text>
</a>
</g>
</g>
<!-- Node10&#45;&gt;Node11 -->
<g id="edge14" class="edge"><title>Node10&#45;&gt;Node11</title>
<path fill="none" stroke="midnightblue" d="M605.396,-32.5C622.762,-32.5 640.683,-32.5 657.882,-32.5"/>
<polygon fill="midnightblue" stroke="midnightblue" points="605.245,-29.0001 595.245,-32.5 605.245,-36.0001 605.245,-29.0001"/>
</g>
<!-- Node12&#45;&gt;Node10 -->
<g id="edge16" class="edge"><title>Node12&#45;&gt;Node10</title>
<path fill="none" stroke="midnightblue" d="M348.624,-23.3706C365.122,-24.3961 381.818,-25.4338 397.744,-26.4237"/>
<polygon fill="midnightblue" stroke="midnightblue" points="348.583,-19.8614 338.385,-22.7342 348.149,-26.8479 348.583,-19.8614"/>
</g>
</g>
</svg>
