<?xml version="1.0" encoding="UTF-8" standalone="no"?>
<!DOCTYPE svg PUBLIC "-//W3C//DTD SVG 1.1//EN"
 "http://www.w3.org/Graphics/SVG/1.1/DTD/svg11.dtd">
<!-- Generated by graphviz version 2.38.0 (20140413.2041)
 -->
<!-- Title: InsertEbayItemsFactory Pages: 1 -->
<svg width="151pt" height="370pt"
 viewBox="0.00 0.00 151.00 370.00" xmlns="http://www.w3.org/2000/svg" xmlns:xlink="http://www.w3.org/1999/xlink">
<g id="graph0" class="graph" transform="scale(1 1) rotate(0) translate(4 366)">
<title>InsertEbayItemsFactory</title>
<polygon fill="white" stroke="none" points="-4,4 -4,-366 147,-366 147,4 -4,4"/>
<!-- Node1 -->
<g id="node1" class="node"><title>Node1</title>
<polygon fill="#bfbfbf" stroke="black" points="3,-0.5 3,-68.5 140,-68.5 140,-0.5 3,-0.5"/>
<text text-anchor="middle" x="71.5" y="-56.5" font-family="Helvetica,sans-Serif" font-size="10.00">InsertEbayItemsFactory</text>
<polyline fill="none" stroke="black" points="3,-49.5 140,-49.5 "/>
<text text-anchor="middle" x="71.5" y="-37.5" font-family="Helvetica,sans-Serif" font-size="10.00"> </text>
<polyline fill="none" stroke="black" points="3,-30.5 140,-30.5 "/>
<text text-anchor="start" x="11" y="-18.5" font-family="Helvetica,sans-Serif" font-size="10.00">+ InsertEbayItemsFactory()</text>
<text text-anchor="start" x="11" y="-7.5" font-family="Helvetica,sans-Serif" font-size="10.00">+ make()</text>
</g>
<!-- Node2 -->
<g id="node2" class="node"><title>Node2</title>
<g id="a_node2"><a xlink:href="$interfacetomoBay_1_1model_1_1sql_1_1framework_1_1queryFactories_1_1AbstractModifyQueryParamsFactory.html" xlink:title="{AbstractModifyQueryParams\lFactory\n||+ make()\l}">
<polygon fill="white" stroke="black" points="0,-105.5 0,-173.5 143,-173.5 143,-105.5 0,-105.5"/>
<text text-anchor="start" x="8" y="-161.5" font-family="Helvetica,sans-Serif" font-size="10.00">AbstractModifyQueryParams</text>
<text text-anchor="middle" x="71.5" y="-150.5" font-family="Helvetica,sans-Serif" font-size="10.00">Factory</text>
<polyline fill="none" stroke="black" points="0,-143.5 143,-143.5 "/>
<text text-anchor="middle" x="71.5" y="-131.5" font-family="Helvetica,sans-Serif" font-size="10.00"> </text>
<polyline fill="none" stroke="black" points="0,-124.5 143,-124.5 "/>
<text text-anchor="start" x="8" y="-112.5" font-family="Helvetica,sans-Serif" font-size="10.00">+ make()</text>
</a>
</g>
</g>
<!-- Node2&#45;&gt;Node1 -->
<g id="edge1" class="edge"><title>Node2&#45;&gt;Node1</title>
<path fill="none" stroke="midnightblue" d="M71.5,-95.1362C71.5,-86.256 71.5,-77.0447 71.5,-68.5947"/>
<polygon fill="none" stroke="midnightblue" points="68.0001,-95.3432 71.5,-105.343 75.0001,-95.3432 68.0001,-95.3432"/>
</g>
<!-- Node3 -->
<g id="node3" class="node"><title>Node3</title>
<g id="a_node3"><a xlink:href="$interfacetomoBay_1_1model_1_1sql_1_1framework_1_1queryFactories_1_1AbstractModifyQueryFactory.html" xlink:title="{AbstractModifyQueryFactory\n||+ make()\l}">
<polygon fill="white" stroke="black" points="0.5,-210.5 0.5,-267.5 142.5,-267.5 142.5,-210.5 0.5,-210.5"/>
<text text-anchor="middle" x="71.5" y="-255.5" font-family="Helvetica,sans-Serif" font-size="10.00">AbstractModifyQueryFactory</text>
<polyline fill="none" stroke="black" points="0.5,-248.5 142.5,-248.5 "/>
<text text-anchor="middle" x="71.5" y="-236.5" font-family="Helvetica,sans-Serif" font-size="10.00"> </text>
<polyline fill="none" stroke="black" points="0.5,-229.5 142.5,-229.5 "/>
<text text-anchor="start" x="8.5" y="-217.5" font-family="Helvetica,sans-Serif" font-size="10.00">+ make()</text>
</a>
</g>
</g>
<!-- Node3&#45;&gt;Node2 -->
<g id="edge2" class="edge"><title>Node3&#45;&gt;Node2</title>
<path fill="none" stroke="midnightblue" d="M71.5,-200.063C71.5,-191.393 71.5,-182.243 71.5,-173.786"/>
<polygon fill="none" stroke="midnightblue" points="68.0001,-200.321 71.5,-210.321 75.0001,-200.321 68.0001,-200.321"/>
</g>
<!-- Node4 -->
<g id="node4" class="node"><title>Node4</title>
<g id="a_node4"><a xlink:href="$interfacetomoBay_1_1model_1_1sql_1_1framework_1_1queryFactories_1_1AbstractQueryFactory.html" xlink:title="all Queries are instantiated using a factory and each of these factories must conform to this interfa...">
<polygon fill="white" stroke="black" points="15,-304.5 15,-361.5 128,-361.5 128,-304.5 15,-304.5"/>
<text text-anchor="middle" x="71.5" y="-349.5" font-family="Helvetica,sans-Serif" font-size="10.00">AbstractQueryFactory</text>
<polyline fill="none" stroke="black" points="15,-342.5 128,-342.5 "/>
<text text-anchor="middle" x="71.5" y="-330.5" font-family="Helvetica,sans-Serif" font-size="10.00"> </text>
<polyline fill="none" stroke="black" points="15,-323.5 128,-323.5 "/>
<text text-anchor="start" x="23" y="-311.5" font-family="Helvetica,sans-Serif" font-size="10.00">+ make()</text>
</a>
</g>
</g>
<!-- Node4&#45;&gt;Node3 -->
<g id="edge3" class="edge"><title>Node4&#45;&gt;Node3</title>
<path fill="none" stroke="midnightblue" d="M71.5,-294.209C71.5,-285.293 71.5,-275.951 71.5,-267.584"/>
<polygon fill="none" stroke="midnightblue" points="68.0001,-294.397 71.5,-304.397 75.0001,-294.397 68.0001,-294.397"/>
</g>
</g>
</svg>
