<?xml version="1.0" encoding="UTF-8" standalone="no"?>
<!DOCTYPE svg PUBLIC "-//W3C//DTD SVG 1.1//EN"
 "http://www.w3.org/Graphics/SVG/1.1/DTD/svg11.dtd">
<!-- Generated by graphviz version 2.38.0 (20140413.2041)
 -->
<!-- Title: Listing Pages: 1 -->
<svg width="678pt" height="252pt"
 viewBox="0.00 0.00 678.00 251.50" xmlns="http://www.w3.org/2000/svg" xmlns:xlink="http://www.w3.org/1999/xlink">
<g id="graph0" class="graph" transform="scale(1 1) rotate(0) translate(4 247.5)">
<title>Listing</title>
<polygon fill="white" stroke="none" points="-4,4 -4,-247.5 674,-247.5 674,4 -4,4"/>
<!-- Node1 -->
<g id="node1" class="node"><title>Node1</title>
<polygon fill="#bfbfbf" stroke="black" points="0,-126 0,-145 45,-145 45,-126 0,-126"/>
<text text-anchor="middle" x="22.5" y="-133" font-family="Helvetica,sans-Serif" font-size="10.00">Listing</text>
</g>
<!-- Node2 -->
<g id="node2" class="node"><title>Node2</title>
<g id="a_node2"><a xlink:href="$classtomoBay_1_1model_1_1dataTypes_1_1order_1_1Listing.html#adf7708b28d8ccb0cec8e58a9cd8fa38c" xlink:title="retrieve the brand that is associated with this listing(as it appears on eBay) ">
<polygon fill="white" stroke="black" points="129,-224 129,-243 170,-243 170,-224 129,-224"/>
<text text-anchor="middle" x="149.5" y="-231" font-family="Helvetica,sans-Serif" font-size="10.00">brand</text>
</a>
</g>
</g>
<!-- Node1&#45;&gt;Node2 -->
<g id="edge1" class="edge"><title>Node1&#45;&gt;Node2</title>
<path fill="none" stroke="midnightblue" d="M28.5454,-145.096C37.2341,-160.741 56.4751,-191.771 81,-209.5 92.1821,-217.583 106.349,-223.168 118.813,-226.901"/>
<polygon fill="midnightblue" stroke="midnightblue" points="118.212,-230.365 128.78,-229.616 120.051,-223.611 118.212,-230.365"/>
</g>
<!-- Node3 -->
<g id="node3" class="node"><title>Node3</title>
<g id="a_node3"><a xlink:href="$classtomoBay_1_1model_1_1dataTypes_1_1heteroTypeContainer_1_1HeteroFieldContainer.html#a988363ab964d6dc0ccb8560bef5895b6" xlink:title="retrieve the the value of an AbstractField from this HeteroFieldContainer, the field should be of the...">
<polygon fill="white" stroke="black" points="255,-204.5 255,-234.5 447,-234.5 447,-204.5 255,-204.5"/>
<text text-anchor="start" x="263" y="-222.5" font-family="Helvetica,sans-Serif" font-size="10.00">tomoBay.model.dataTypes.hetero</text>
<text text-anchor="middle" x="351" y="-211.5" font-family="Helvetica,sans-Serif" font-size="10.00">TypeContainer.HeteroFieldContainer.get</text>
</a>
</g>
</g>
<!-- Node1&#45;&gt;Node3 -->
<g id="edge4" class="edge"><title>Node1&#45;&gt;Node3</title>
<path fill="none" stroke="midnightblue" d="M34.0357,-145.334C44.9255,-154.905 62.8486,-169.061 81,-176.5 132.591,-197.644 193.712,-208.433 244.645,-213.92"/>
<polygon fill="midnightblue" stroke="midnightblue" points="244.386,-217.412 254.69,-214.949 245.099,-210.448 244.386,-217.412"/>
</g>
<!-- Node5 -->
<g id="node5" class="node"><title>Node5</title>
<g id="a_node5"><a xlink:href="$classtomoBay_1_1model_1_1dataTypes_1_1order_1_1Listing.html#a5cb1f2d7360a6afa9e2c250b5d1e9bae" xlink:title="internal method, gets the data for a listing from the database ">
<polygon fill="white" stroke="black" points="112,-148 112,-167 187,-167 187,-148 112,-148"/>
<text text-anchor="middle" x="149.5" y="-155" font-family="Helvetica,sans-Serif" font-size="10.00">getListingInfo</text>
</a>
</g>
</g>
<!-- Node1&#45;&gt;Node5 -->
<g id="edge5" class="edge"><title>Node1&#45;&gt;Node5</title>
<path fill="none" stroke="midnightblue" d="M45.2733,-139.332C60.8794,-142.079 82.4858,-145.882 101.9,-149.298"/>
<polygon fill="midnightblue" stroke="midnightblue" points="101.354,-152.756 111.809,-151.042 102.567,-145.862 101.354,-152.756"/>
</g>
<!-- Node8 -->
<g id="node8" class="node"><title>Node8</title>
<g id="a_node8"><a xlink:href="$classtomoBay_1_1model_1_1dataTypes_1_1PartList.html#ab743beefffd4d159c3b91639caee92da" xlink:title="get the part number at position i in the list ">
<polygon fill="white" stroke="black" points="81,-98.5 81,-128.5 218,-128.5 218,-98.5 81,-98.5"/>
<text text-anchor="start" x="89" y="-116.5" font-family="Helvetica,sans-Serif" font-size="10.00">tomoBay.model.dataTypes.</text>
<text text-anchor="middle" x="149.5" y="-105.5" font-family="Helvetica,sans-Serif" font-size="10.00">PartList.getPartNumber</text>
</a>
</g>
</g>
<!-- Node1&#45;&gt;Node8 -->
<g id="edge9" class="edge"><title>Node1&#45;&gt;Node8</title>
<path fill="none" stroke="midnightblue" d="M45.2733,-131.668C52.749,-130.352 61.6016,-128.794 70.9305,-127.152"/>
<polygon fill="midnightblue" stroke="midnightblue" points="71.545,-130.598 80.7869,-125.418 70.3316,-123.704 71.545,-130.598"/>
</g>
<!-- Node9 -->
<g id="node9" class="node"><title>Node9</title>
<g id="a_node9"><a xlink:href="$classtomoBay_1_1model_1_1dataTypes_1_1PartList.html#a5bebcb62b6ffa7676eacf169f0bfe603" xlink:title="get the quantity of the part number at position i in the list ">
<polygon fill="white" stroke="black" points="81,-49.5 81,-79.5 218,-79.5 218,-49.5 81,-49.5"/>
<text text-anchor="start" x="89" y="-67.5" font-family="Helvetica,sans-Serif" font-size="10.00">tomoBay.model.dataTypes.</text>
<text text-anchor="middle" x="149.5" y="-56.5" font-family="Helvetica,sans-Serif" font-size="10.00">PartList.getPartQty</text>
</a>
</g>
</g>
<!-- Node1&#45;&gt;Node9 -->
<g id="edge10" class="edge"><title>Node1&#45;&gt;Node9</title>
<path fill="none" stroke="midnightblue" d="M33.3702,-125.946C44.2853,-115.797 62.7508,-99.8213 81,-89.5 84.6711,-87.4237 88.5475,-85.4603 92.5112,-83.6162"/>
<polygon fill="midnightblue" stroke="midnightblue" points="94.099,-86.7421 101.863,-79.5327 91.2977,-80.327 94.099,-86.7421"/>
</g>
<!-- Node10 -->
<g id="node10" class="node"><title>Node10</title>
<g id="a_node10"><a xlink:href="$classtomoBay_1_1model_1_1dataTypes_1_1PartList.html#af4b57d21919c42d55af03391f91a1c08" xlink:title="the size of the part list. ">
<polygon fill="white" stroke="black" points="81,-0.5 81,-30.5 218,-30.5 218,-0.5 81,-0.5"/>
<text text-anchor="start" x="89" y="-18.5" font-family="Helvetica,sans-Serif" font-size="10.00">tomoBay.model.dataTypes.</text>
<text text-anchor="middle" x="149.5" y="-7.5" font-family="Helvetica,sans-Serif" font-size="10.00">PartList.size</text>
</a>
</g>
</g>
<!-- Node1&#45;&gt;Node10 -->
<g id="edge11" class="edge"><title>Node1&#45;&gt;Node10</title>
<path fill="none" stroke="midnightblue" d="M26.8022,-125.968C33.8271,-107.033 52.0206,-64.4475 81,-40.5 83.023,-38.8283 85.1682,-37.2626 87.4022,-35.7969"/>
<polygon fill="midnightblue" stroke="midnightblue" points="89.4659,-38.6474 96.3868,-30.6254 85.9739,-32.5806 89.4659,-38.6474"/>
</g>
<!-- Node2&#45;&gt;Node3 -->
<g id="edge2" class="edge"><title>Node2&#45;&gt;Node3</title>
<path fill="none" stroke="midnightblue" d="M170.358,-232.106C188.255,-230.851 216.054,-228.9 244.48,-226.905"/>
<polygon fill="midnightblue" stroke="midnightblue" points="244.815,-230.39 254.546,-226.199 244.325,-223.407 244.815,-230.39"/>
</g>
<!-- Node4 -->
<g id="node4" class="node"><title>Node4</title>
<g id="a_node4"><a xlink:href="$classtomoBay_1_1model_1_1dataTypes_1_1heteroTypeContainer_1_1HeteroFieldContainer.html#a9dee3c01eb5ab16203e1c6820a569484" xlink:title="performs a type check, assuming that field and type are of the same type then this method returns tru...">
<polygon fill="white" stroke="black" points="484,-174 484,-215 670,-215 670,-174 484,-174"/>
<text text-anchor="start" x="492" y="-203" font-family="Helvetica,sans-Serif" font-size="10.00">tomoBay.model.dataTypes.hetero</text>
<text text-anchor="start" x="492" y="-192" font-family="Helvetica,sans-Serif" font-size="10.00">TypeContainer.HeteroFieldContainer.is</text>
<text text-anchor="middle" x="577" y="-181" font-family="Helvetica,sans-Serif" font-size="10.00">SameType</text>
</a>
</g>
</g>
<!-- Node3&#45;&gt;Node4 -->
<g id="edge3" class="edge"><title>Node3&#45;&gt;Node4</title>
<path fill="none" stroke="midnightblue" d="M447.321,-208.861C456.146,-207.877 465.112,-206.876 473.993,-205.885"/>
<polygon fill="midnightblue" stroke="midnightblue" points="474.423,-209.359 483.973,-204.771 473.646,-202.402 474.423,-209.359"/>
</g>
<!-- Node6 -->
<g id="node6" class="node"><title>Node6</title>
<g id="a_node6"><a xlink:href="$classtomoBay_1_1model_1_1dataTypes_1_1heteroTypeContainer_1_1HeteroFieldContainer.html#a3ba6289417930238a36bfee0056b6398" xlink:title="add an arbitrary value to this Field container with the stipulation that this value is of the same ty...">
<polygon fill="white" stroke="black" points="254,-155.5 254,-185.5 448,-185.5 448,-155.5 254,-155.5"/>
<text text-anchor="start" x="262" y="-173.5" font-family="Helvetica,sans-Serif" font-size="10.00">tomoBay.model.dataTypes.hetero</text>
<text text-anchor="middle" x="351" y="-162.5" font-family="Helvetica,sans-Serif" font-size="10.00">TypeContainer.HeteroFieldContainer.add</text>
</a>
</g>
</g>
<!-- Node5&#45;&gt;Node6 -->
<g id="edge6" class="edge"><title>Node5&#45;&gt;Node6</title>
<path fill="none" stroke="midnightblue" d="M187.091,-159.884C203.332,-160.943 223.367,-162.248 243.765,-163.577"/>
<polygon fill="midnightblue" stroke="midnightblue" points="243.586,-167.073 253.793,-164.231 244.041,-160.088 243.586,-167.073"/>
</g>
<!-- Node7 -->
<g id="node7" class="node"><title>Node7</title>
<g id="a_node7"><a xlink:href="$classtomoBay_1_1model_1_1sql_1_1framework_1_1SelectQueryInvoker.html#a594282bcbcc0731a7d234482717422d7" xlink:title="execute a requested query ">
<polygon fill="white" stroke="black" points="275,-106.5 275,-136.5 427,-136.5 427,-106.5 275,-106.5"/>
<text text-anchor="start" x="283" y="-124.5" font-family="Helvetica,sans-Serif" font-size="10.00">tomoBay.model.sql.framework.</text>
<text text-anchor="middle" x="351" y="-113.5" font-family="Helvetica,sans-Serif" font-size="10.00">SelectQueryInvoker.execute</text>
</a>
</g>
</g>
<!-- Node5&#45;&gt;Node7 -->
<g id="edge8" class="edge"><title>Node5&#45;&gt;Node7</title>
<path fill="none" stroke="midnightblue" d="M187.091,-150.897C208.932,-146.956 237.634,-141.777 264.854,-136.865"/>
<polygon fill="midnightblue" stroke="midnightblue" points="265.58,-140.29 274.8,-135.07 264.337,-133.402 265.58,-140.29"/>
</g>
<!-- Node6&#45;&gt;Node4 -->
<g id="edge7" class="edge"><title>Node6&#45;&gt;Node4</title>
<path fill="none" stroke="midnightblue" d="M448.296,-180.817C456.642,-181.712 465.106,-182.619 473.499,-183.518"/>
<polygon fill="midnightblue" stroke="midnightblue" points="473.372,-187.024 483.688,-184.609 474.118,-180.064 473.372,-187.024"/>
</g>
</g>
</svg>
