<?xml version="1.0" encoding="UTF-8" standalone="no"?>
<!DOCTYPE svg PUBLIC "-//W3C//DTD SVG 1.1//EN"
 "http://www.w3.org/Graphics/SVG/1.1/DTD/svg11.dtd">
<!-- Generated by graphviz version 2.38.0 (20140413.2041)
 -->
<!-- Title: Pickeablity Pages: 1 -->
<svg width="163pt" height="237pt"
 viewBox="0.00 0.00 163.00 237.00" xmlns="http://www.w3.org/2000/svg" xmlns:xlink="http://www.w3.org/1999/xlink">
<g id="graph0" class="graph" transform="scale(1 1) rotate(0) translate(4 233)">
<title>Pickeablity</title>
<polygon fill="white" stroke="none" points="-4,4 -4,-233 159,-233 159,4 -4,4"/>
<!-- Node1 -->
<g id="node1" class="node"><title>Node1</title>
<polygon fill="#bfbfbf" stroke="black" points="31.5,-0.5 31.5,-90.5 123.5,-90.5 123.5,-0.5 31.5,-0.5"/>
<text text-anchor="middle" x="77.5" y="-78.5" font-family="Helvetica,sans-Serif" font-size="10.00">Pickeablity</text>
<polyline fill="none" stroke="black" points="31.5,-71.5 123.5,-71.5 "/>
<text text-anchor="start" x="39.5" y="-59.5" font-family="Helvetica,sans-Serif" font-size="10.00">&#45; itemStatus_M</text>
<text text-anchor="start" x="39.5" y="-48.5" font-family="Helvetica,sans-Serif" font-size="10.00">&#45; orderNo_M</text>
<polyline fill="none" stroke="black" points="31.5,-41.5 123.5,-41.5 "/>
<text text-anchor="start" x="39.5" y="-29.5" font-family="Helvetica,sans-Serif" font-size="10.00">+ Pickeablity()</text>
<text text-anchor="start" x="39.5" y="-18.5" font-family="Helvetica,sans-Serif" font-size="10.00">+ startCondition()</text>
<text text-anchor="start" x="39.5" y="-7.5" font-family="Helvetica,sans-Serif" font-size="10.00">+ startResult()</text>
</g>
<!-- Node2 -->
<g id="node2" class="node"><title>Node2</title>
<g id="a_node2"><a xlink:href="classtomoBay_1_1model_1_1dataTypes_1_1conditionalStatement_1_1Conditional.html" target="_top" xlink:title="This class attempts to represent conditional statements in an object oriented manner. ">
<polygon fill="white" stroke="black" points="0,-127.5 0,-228.5 155,-228.5 155,-127.5 0,-127.5"/>
<text text-anchor="middle" x="77.5" y="-216.5" font-family="Helvetica,sans-Serif" font-size="10.00">Conditional&lt; PickeableStatus &gt;</text>
<polyline fill="none" stroke="black" points="0,-209.5 155,-209.5 "/>
<text text-anchor="middle" x="77.5" y="-197.5" font-family="Helvetica,sans-Serif" font-size="10.00"> </text>
<polyline fill="none" stroke="black" points="0,-190.5 155,-190.5 "/>
<text text-anchor="start" x="8" y="-178.5" font-family="Helvetica,sans-Serif" font-size="10.00">+ Conditional()</text>
<text text-anchor="start" x="8" y="-167.5" font-family="Helvetica,sans-Serif" font-size="10.00">+ evaluate()</text>
<text text-anchor="start" x="8" y="-156.5" font-family="Helvetica,sans-Serif" font-size="10.00">+ evaluate()</text>
<text text-anchor="start" x="8" y="-145.5" font-family="Helvetica,sans-Serif" font-size="10.00">+ startCondition()</text>
<text text-anchor="start" x="8" y="-134.5" font-family="Helvetica,sans-Serif" font-size="10.00">+ startResult()</text>
</a>
</g>
</g>
<!-- Node2&#45;&gt;Node1 -->
<g id="edge1" class="edge"><title>Node2&#45;&gt;Node1</title>
<path fill="none" stroke="midnightblue" d="M77.5,-117.232C77.5,-108.236 77.5,-99.1012 77.5,-90.5165"/>
<polygon fill="none" stroke="midnightblue" points="74.0001,-117.291 77.5,-127.291 81.0001,-117.291 74.0001,-117.291"/>
</g>
</g>
</svg>
