<?xml version="1.0" encoding="UTF-8" standalone="no"?>
<!DOCTYPE svg PUBLIC "-//W3C//DTD SVG 1.1//EN"
 "http://www.w3.org/Graphics/SVG/1.1/DTD/svg11.dtd">
<!-- Generated by graphviz version 2.38.0 (20140413.2041)
 -->
<!-- Title: pickeability Pages: 1 -->
<svg width="278pt" height="88pt"
 viewBox="0.00 0.00 278.00 88.00" xmlns="http://www.w3.org/2000/svg" xmlns:xlink="http://www.w3.org/1999/xlink">
<g id="graph0" class="graph" transform="scale(1 1) rotate(0) translate(4 84)">
<title>pickeability</title>
<polygon fill="white" stroke="none" points="-4,4 -4,-84 274,-84 274,4 -4,4"/>
<!-- Node1 -->
<g id="node1" class="node"><title>Node1</title>
<polygon fill="#bfbfbf" stroke="black" points="0,-30 0,-49 65,-49 65,-30 0,-30"/>
<text text-anchor="middle" x="32.5" y="-37" font-family="Helvetica,sans-Serif" font-size="10.00">pickeability</text>
</g>
<!-- Node2 -->
<g id="node2" class="node"><title>Node2</title>
<g id="a_node2"><a xlink:href="classtomoBay_1_1view_1_1views_1_1salesOrderView_1_1OrderStatusContext.html#ae4943f14d8c16791602f385be909b085" target="_top" xlink:title="tomoBay.view.views.sales\lOrderView.OrderStatusContext.get">
<polygon fill="white" stroke="black" points="101,-49.5 101,-79.5 270,-79.5 270,-49.5 101,-49.5"/>
<text text-anchor="start" x="109" y="-67.5" font-family="Helvetica,sans-Serif" font-size="10.00">tomoBay.view.views.sales</text>
<text text-anchor="middle" x="185.5" y="-56.5" font-family="Helvetica,sans-Serif" font-size="10.00">OrderView.OrderStatusContext.get</text>
</a>
</g>
</g>
<!-- Node1&#45;&gt;Node2 -->
<g id="edge1" class="edge"><title>Node1&#45;&gt;Node2</title>
<path fill="none" stroke="midnightblue" d="M65.1545,-44.7408C72.9662,-46.0341 81.7361,-47.4861 90.8831,-49.0005"/>
<polygon fill="midnightblue" stroke="midnightblue" points="90.4916,-52.4833 100.929,-50.6637 91.635,-45.5773 90.4916,-52.4833"/>
</g>
<!-- Node3 -->
<g id="node3" class="node"><title>Node3</title>
<g id="a_node3"><a xlink:href="classtomoBay_1_1model_1_1dataTypes_1_1ServerStatus.html#a0de06b49749247f1ab7e4f12e7e4bf50" target="_top" xlink:title="tomoBay.model.dataTypes.\lServerStatus.getStatus">
<polygon fill="white" stroke="black" points="117,-0.5 117,-30.5 254,-30.5 254,-0.5 117,-0.5"/>
<text text-anchor="start" x="125" y="-18.5" font-family="Helvetica,sans-Serif" font-size="10.00">tomoBay.model.dataTypes.</text>
<text text-anchor="middle" x="185.5" y="-7.5" font-family="Helvetica,sans-Serif" font-size="10.00">ServerStatus.getStatus</text>
</a>
</g>
</g>
<!-- Node1&#45;&gt;Node3 -->
<g id="edge2" class="edge"><title>Node1&#45;&gt;Node3</title>
<path fill="none" stroke="midnightblue" d="M65.1545,-34.4688C77.3807,-32.5256 91.9544,-30.2092 106.647,-27.874"/>
<polygon fill="midnightblue" stroke="midnightblue" points="107.484,-31.285 116.81,-26.2586 106.385,-24.3718 107.484,-31.285"/>
</g>
</g>
</svg>
