<?xml version="1.0" encoding="UTF-8" standalone="no"?>
<!DOCTYPE svg PUBLIC "-//W3C//DTD SVG 1.1//EN"
 "http://www.w3.org/Graphics/SVG/1.1/DTD/svg11.dtd">
<!-- Generated by graphviz version 2.38.0 (20140413.2041)
 -->
<!-- Title: expression Pages: 1 -->
<svg width="391pt" height="50pt"
 viewBox="0.00 0.00 391.00 50.00" xmlns="http://www.w3.org/2000/svg" xmlns:xlink="http://www.w3.org/1999/xlink">
<g id="graph0" class="graph" transform="scale(1 1) rotate(0) translate(4 46)">
<title>expression</title>
<polygon fill="white" stroke="none" points="-4,4 -4,-46 387,-46 387,4 -4,4"/>
<!-- Node1 -->
<g id="node1" class="node"><title>Node1</title>
<polygon fill="#bfbfbf" stroke="black" points="0,-11.5 0,-30.5 64,-30.5 64,-11.5 0,-11.5"/>
<text text-anchor="middle" x="32" y="-18.5" font-family="Helvetica,sans-Serif" font-size="10.00">expression</text>
</g>
<!-- Node2 -->
<g id="node2" class="node"><title>Node2</title>
<g id="a_node2"><a xlink:href="$classtomoBay_1_1model_1_1dataTypes_1_1conditionalStatement_1_1Condition.html#a02d3fe8523d32185f2088054a30810b4" xlink:title="evaluate this condition and provide an AbstractTruth result ">
<polygon fill="white" stroke="black" points="100,-11.5 100,-30.5 153,-30.5 153,-11.5 100,-11.5"/>
<text text-anchor="middle" x="126.5" y="-18.5" font-family="Helvetica,sans-Serif" font-size="10.00">evaluate</text>
</a>
</g>
</g>
<!-- Node1&#45;&gt;Node2 -->
<g id="edge1" class="edge"><title>Node1&#45;&gt;Node2</title>
<path fill="none" stroke="midnightblue" d="M74.1563,-21C82.9201,-21 91.9308,-21 99.9092,-21"/>
<polygon fill="midnightblue" stroke="midnightblue" points="74.0585,-17.5001 64.0585,-21 74.0585,-24.5001 74.0585,-17.5001"/>
</g>
<!-- Node3 -->
<g id="node3" class="node"><title>Node3</title>
<g id="a_node3"><a xlink:href="$classtomoBay_1_1model_1_1dataTypes_1_1conditionalStatement_1_1Conditional.html#acc90d5c562a7bb28b9568ec435cad043" xlink:title="evaluate this conditional based on the Condition and Result objects passed as parameters to this meth...">
<polygon fill="white" stroke="black" points="189,-0.5 189,-41.5 383,-41.5 383,-0.5 189,-0.5"/>
<text text-anchor="start" x="197" y="-29.5" font-family="Helvetica,sans-Serif" font-size="10.00">tomoBay.model.dataTypes.conditional</text>
<text text-anchor="start" x="197" y="-18.5" font-family="Helvetica,sans-Serif" font-size="10.00">Statement.Conditional&lt; PickeableStatus</text>
<text text-anchor="middle" x="286" y="-7.5" font-family="Helvetica,sans-Serif" font-size="10.00"> &gt;::evaluate</text>
</a>
</g>
</g>
<!-- Node2&#45;&gt;Node3 -->
<g id="edge2" class="edge"><title>Node2&#45;&gt;Node3</title>
<path fill="none" stroke="midnightblue" d="M163.321,-21C171.184,-21 179.869,-21 188.874,-21"/>
<polygon fill="midnightblue" stroke="midnightblue" points="163.156,-17.5001 153.156,-21 163.156,-24.5001 163.156,-17.5001"/>
</g>
</g>
</svg>
