<?xml version="1.0" encoding="UTF-8" standalone="no"?>
<!DOCTYPE svg PUBLIC "-//W3C//DTD SVG 1.1//EN"
 "http://www.w3.org/Graphics/SVG/1.1/DTD/svg11.dtd">
<!-- Generated by graphviz version 2.38.0 (20140413.2041)
 -->
<!-- Title: formatResults Pages: 1 -->
<svg width="456pt" height="127pt"
 viewBox="0.00 0.00 456.00 127.00" xmlns="http://www.w3.org/2000/svg" xmlns:xlink="http://www.w3.org/1999/xlink">
<g id="graph0" class="graph" transform="scale(1 1) rotate(0) translate(4 123)">
<title>formatResults</title>
<polygon fill="white" stroke="none" points="-4,4 -4,-123 452,-123 452,4 -4,4"/>
<!-- Node1 -->
<g id="node1" class="node"><title>Node1</title>
<polygon fill="#bfbfbf" stroke="black" points="0,-50 0,-69 78,-69 78,-50 0,-50"/>
<text text-anchor="middle" x="39" y="-57" font-family="Helvetica,sans-Serif" font-size="10.00">formatResults</text>
</g>
<!-- Node2 -->
<g id="node2" class="node"><title>Node2</title>
<g id="a_node2"><a xlink:href="classtomoBay_1_1model_1_1dataTypes_1_1json_1_1JSONentity.html#afead82af115042a64d2604ec5f508f45" target="_top" xlink:title="A leaf node is simply a key value pair. ">
<polygon fill="white" stroke="black" points="115.5,-88.5 115.5,-118.5 273.5,-118.5 273.5,-88.5 115.5,-88.5"/>
<text text-anchor="start" x="123.5" y="-106.5" font-family="Helvetica,sans-Serif" font-size="10.00">tomoBay.model.dataTypes.json.</text>
<text text-anchor="middle" x="194.5" y="-95.5" font-family="Helvetica,sans-Serif" font-size="10.00">JSONentity.addLeaf</text>
</a>
</g>
</g>
<!-- Node1&#45;&gt;Node2 -->
<g id="edge1" class="edge"><title>Node1&#45;&gt;Node2</title>
<path fill="none" stroke="midnightblue" d="M73.3072,-69.0473C90.2037,-73.8906 111.289,-79.9346 131.06,-85.602"/>
<polygon fill="midnightblue" stroke="midnightblue" points="130.365,-89.0436 140.942,-88.4346 132.294,-82.3146 130.365,-89.0436"/>
</g>
<!-- Node4 -->
<g id="node4" class="node"><title>Node4</title>
<g id="a_node4"><a xlink:href="classtomoBay_1_1security_1_1SaneInput.html#acd49fdb5d11a2b2e22808c8135eca51f" target="_top" xlink:title="sanitise the string so that it will have no problems on converting to json ">
<polygon fill="white" stroke="black" points="114,-50 114,-69 275,-69 275,-50 114,-50"/>
<text text-anchor="middle" x="194.5" y="-57" font-family="Helvetica,sans-Serif" font-size="10.00">tomoBay.security.SaneInput.json</text>
</a>
</g>
</g>
<!-- Node1&#45;&gt;Node4 -->
<g id="edge3" class="edge"><title>Node1&#45;&gt;Node4</title>
<path fill="none" stroke="midnightblue" d="M78.3386,-59.5C86.2744,-59.5 94.9484,-59.5 103.861,-59.5"/>
<polygon fill="midnightblue" stroke="midnightblue" points="103.999,-63.0001 113.999,-59.5 103.999,-56.0001 103.999,-63.0001"/>
</g>
<!-- Node5 -->
<g id="node5" class="node"><title>Node5</title>
<g id="a_node5"><a xlink:href="classtomoBay_1_1model_1_1dataTypes_1_1json_1_1JSONentity.html#a77e2151cf49df9f80a4999e0e9e54d55" target="_top" xlink:title="tomoBay.model.dataTypes.json.\lJSONentity.toString">
<polygon fill="white" stroke="black" points="115.5,-0.5 115.5,-30.5 273.5,-30.5 273.5,-0.5 115.5,-0.5"/>
<text text-anchor="start" x="123.5" y="-18.5" font-family="Helvetica,sans-Serif" font-size="10.00">tomoBay.model.dataTypes.json.</text>
<text text-anchor="middle" x="194.5" y="-7.5" font-family="Helvetica,sans-Serif" font-size="10.00">JSONentity.toString</text>
</a>
</g>
</g>
<!-- Node1&#45;&gt;Node5 -->
<g id="edge4" class="edge"><title>Node1&#45;&gt;Node5</title>
<path fill="none" stroke="midnightblue" d="M73.3072,-49.9527C90.2037,-45.1094 111.289,-39.0654 131.06,-33.398"/>
<polygon fill="midnightblue" stroke="midnightblue" points="132.294,-36.6854 140.942,-30.5654 130.365,-29.9564 132.294,-36.6854"/>
</g>
<!-- Node3 -->
<g id="node3" class="node"><title>Node3</title>
<g id="a_node3"><a xlink:href="classtomoBay_1_1model_1_1dataTypes_1_1DualList.html#ac6c5d11a7054f49bb7c9489f5893daeb" target="_top" xlink:title="add a value pair to the DualList ">
<polygon fill="white" stroke="black" points="311,-88.5 311,-118.5 448,-118.5 448,-88.5 311,-88.5"/>
<text text-anchor="start" x="319" y="-106.5" font-family="Helvetica,sans-Serif" font-size="10.00">tomoBay.model.dataTypes.</text>
<text text-anchor="middle" x="379.5" y="-95.5" font-family="Helvetica,sans-Serif" font-size="10.00">DualList.put</text>
</a>
</g>
</g>
<!-- Node2&#45;&gt;Node3 -->
<g id="edge2" class="edge"><title>Node2&#45;&gt;Node3</title>
<path fill="none" stroke="midnightblue" d="M273.639,-103.5C282.603,-103.5 291.742,-103.5 300.702,-103.5"/>
<polygon fill="midnightblue" stroke="midnightblue" points="300.722,-107 310.722,-103.5 300.722,-100 300.722,-107"/>
</g>
</g>
</svg>
