<?xml version="1.0" encoding="UTF-8" standalone="no"?>
<!DOCTYPE svg PUBLIC "-//W3C//DTD SVG 1.1//EN"
 "http://www.w3.org/Graphics/SVG/1.1/DTD/svg11.dtd">
<!-- Generated by graphviz version 2.38.0 (20140413.2041)
 -->
<!-- Title: populatePriorityMap Pages: 1 -->
<svg width="533pt" height="116pt"
 viewBox="0.00 0.00 533.00 115.50" xmlns="http://www.w3.org/2000/svg" xmlns:xlink="http://www.w3.org/1999/xlink">
<g id="graph0" class="graph" transform="scale(1 1) rotate(0) translate(4 111.5)">
<title>populatePriorityMap</title>
<polygon fill="white" stroke="none" points="-4,4 -4,-111.5 529,-111.5 529,4 -4,4"/>
<!-- Node1 -->
<g id="node1" class="node"><title>Node1</title>
<polygon fill="#bfbfbf" stroke="black" points="0,-38.5 0,-57.5 103,-57.5 103,-38.5 0,-38.5"/>
<text text-anchor="middle" x="51.5" y="-45.5" font-family="Helvetica,sans-Serif" font-size="10.00">populatePriorityMap</text>
</g>
<!-- Node2 -->
<g id="node2" class="node"><title>Node2</title>
<g id="a_node2"><a xlink:href="$classtomoBay_1_1helpers_1_1ConfigReader.html#a7059b3afa0bba045e7069deaa7460887" xlink:title="Find all values of the specified config variable, if multiple instances exist then the array will be ...">
<polygon fill="white" stroke="black" points="139,-33 139,-63 309,-63 309,-33 139,-33"/>
<text text-anchor="start" x="147" y="-51" font-family="Helvetica,sans-Serif" font-size="10.00">tomoBay.helpers.ConfigReader.get</text>
<text text-anchor="middle" x="224" y="-40" font-family="Helvetica,sans-Serif" font-size="10.00">Confs</text>
</a>
</g>
</g>
<!-- Node1&#45;&gt;Node2 -->
<g id="edge1" class="edge"><title>Node1&#45;&gt;Node2</title>
<path fill="none" stroke="midnightblue" d="M103.194,-48C111.396,-48 120.111,-48 128.955,-48"/>
<polygon fill="midnightblue" stroke="midnightblue" points="128.972,-51.5001 138.972,-48 128.972,-44.5001 128.972,-51.5001"/>
</g>
<!-- Node3 -->
<g id="node3" class="node"><title>Node3</title>
<g id="a_node3"><a xlink:href="$classtomoBay_1_1helpers_1_1ConfigReader.html#ab69b4a3a0fc6a7c7440362b06ec4b4d3" xlink:title="reads the whole config file into a string ">
<polygon fill="white" stroke="black" points="350,-77 350,-107 520,-107 520,-77 350,-77"/>
<text text-anchor="start" x="358" y="-95" font-family="Helvetica,sans-Serif" font-size="10.00">tomoBay.helpers.ConfigReader.get</text>
<text text-anchor="middle" x="435" y="-84" font-family="Helvetica,sans-Serif" font-size="10.00">Config</text>
</a>
</g>
</g>
<!-- Node2&#45;&gt;Node3 -->
<g id="edge2" class="edge"><title>Node2&#45;&gt;Node3</title>
<path fill="none" stroke="midnightblue" d="M296.341,-63.0192C314.484,-66.8388 334.115,-70.9716 352.713,-74.8869"/>
<polygon fill="midnightblue" stroke="midnightblue" points="352.119,-78.3385 362.626,-76.9738 353.561,-71.4887 352.119,-78.3385"/>
</g>
<!-- Node4 -->
<g id="node4" class="node"><title>Node4</title>
<g id="a_node4"><a xlink:href="$enumtomoBay_1_1helpers_1_1Config.html#a43cb99408ba4f337caad395ca67f9a6c" xlink:title="return the string associated with the enum const ">
<polygon fill="white" stroke="black" points="358.5,-38.5 358.5,-57.5 511.5,-57.5 511.5,-38.5 358.5,-38.5"/>
<text text-anchor="middle" x="435" y="-45.5" font-family="Helvetica,sans-Serif" font-size="10.00">tomoBay.helpers.Config.getVar</text>
</a>
</g>
</g>
<!-- Node2&#45;&gt;Node4 -->
<g id="edge3" class="edge"><title>Node2&#45;&gt;Node4</title>
<path fill="none" stroke="midnightblue" d="M309.105,-48C321.904,-48 335.127,-48 347.967,-48"/>
<polygon fill="midnightblue" stroke="midnightblue" points="348.166,-51.5001 358.166,-48 348.166,-44.5001 348.166,-51.5001"/>
</g>
<!-- Node5 -->
<g id="node5" class="node"><title>Node5</title>
<g id="a_node5"><a xlink:href="$classtomoBay_1_1helpers_1_1XMLParser.html#a4f989a27fad17308212c0c22aa1fd629" xlink:title="returns a NodeList containing all the nodes that have the specified tag name ">
<polygon fill="white" stroke="black" points="345,-0.5 345,-19.5 525,-19.5 525,-0.5 345,-0.5"/>
<text text-anchor="middle" x="435" y="-7.5" font-family="Helvetica,sans-Serif" font-size="10.00">tomoBay.helpers.XMLParser.parseAll</text>
</a>
</g>
</g>
<!-- Node2&#45;&gt;Node5 -->
<g id="edge4" class="edge"><title>Node2&#45;&gt;Node5</title>
<path fill="none" stroke="midnightblue" d="M307.602,-32.9814C328.979,-29.0948 351.635,-24.9755 371.772,-21.3141"/>
<polygon fill="midnightblue" stroke="midnightblue" points="372.532,-24.7334 381.745,-19.5009 371.28,-17.8463 372.532,-24.7334"/>
</g>
</g>
</svg>
