<?xml version="1.0" encoding="UTF-8" standalone="no"?>
<!DOCTYPE svg PUBLIC "-//W3C//DTD SVG 1.1//EN"
 "http://www.w3.org/Graphics/SVG/1.1/DTD/svg11.dtd">
<!-- Generated by graphviz version 2.38.0 (20140413.2041)
 -->
<!-- Title: county Pages: 1 -->
<svg width="811pt" height="94pt"
 viewBox="0.00 0.00 811.00 93.50" xmlns="http://www.w3.org/2000/svg" xmlns:xlink="http://www.w3.org/1999/xlink">
<g id="graph0" class="graph" transform="scale(1 1) rotate(0) translate(4 89.5)">
<title>county</title>
<polygon fill="white" stroke="none" points="-4,4 -4,-89.5 807,-89.5 807,4 -4,4"/>
<!-- Node1 -->
<g id="node1" class="node"><title>Node1</title>
<polygon fill="#bfbfbf" stroke="black" points="0,-30 0,-49 46,-49 46,-30 0,-30"/>
<text text-anchor="middle" x="23" y="-37" font-family="Helvetica,sans-Serif" font-size="10.00">county</text>
</g>
<!-- Node2 -->
<g id="node2" class="node"><title>Node2</title>
<g id="a_node2"><a xlink:href="$classtomoBay_1_1presenters_1_1presenterActions_1_1concreteActions_1_1OrderInfo.html#a0efe6811d772c53811b18a441c11b757" xlink:title="formats the buyer information associated with this order ">
<polygon fill="white" stroke="black" points="101,-49.5 101,-79.5 311,-79.5 311,-49.5 101,-49.5"/>
<text text-anchor="start" x="109" y="-67.5" font-family="Helvetica,sans-Serif" font-size="10.00">tomoBay.presenters.presenter</text>
<text text-anchor="middle" x="206" y="-56.5" font-family="Helvetica,sans-Serif" font-size="10.00">Actions.concreteActions.OrderInfo.buyerInfo</text>
</a>
</g>
</g>
<!-- Node1&#45;&gt;Node2 -->
<g id="edge1" class="edge"><title>Node1&#45;&gt;Node2</title>
<path fill="none" stroke="midnightblue" d="M56.2781,-43.9583C69.096,-45.7287 84.6218,-47.8732 100.744,-50.1"/>
<polygon fill="midnightblue" stroke="midnightblue" points="56.579,-40.4667 46.1942,-42.5655 55.6212,-47.4009 56.579,-40.4667"/>
</g>
<!-- Node5 -->
<g id="node5" class="node"><title>Node5</title>
<g id="a_node5"><a xlink:href="$classtomoBay_1_1model_1_1dataTypes_1_1financial_1_1SalesOrderDayBook_1_1formats_1_1WinstockFormat.html#accefd62bc10c59d9ba78937d90a5fa8c" xlink:title="tomoBay.model.dataTypes.financial.\lSalesOrderDayBook.formats.WinstockFormat.format">
<polygon fill="white" stroke="black" points="82,-0.5 82,-30.5 330,-30.5 330,-0.5 82,-0.5"/>
<text text-anchor="start" x="90" y="-18.5" font-family="Helvetica,sans-Serif" font-size="10.00">tomoBay.model.dataTypes.financial.</text>
<text text-anchor="middle" x="206" y="-7.5" font-family="Helvetica,sans-Serif" font-size="10.00">SalesOrderDayBook.formats.WinstockFormat.format</text>
</a>
</g>
</g>
<!-- Node1&#45;&gt;Node5 -->
<g id="edge4" class="edge"><title>Node1&#45;&gt;Node5</title>
<path fill="none" stroke="midnightblue" d="M56.3519,-35.2102C66.7633,-33.8297 78.9556,-32.2131 91.8,-30.5099"/>
<polygon fill="midnightblue" stroke="midnightblue" points="55.6473,-31.773 46.1942,-36.5571 56.5675,-38.7122 55.6473,-31.773"/>
</g>
<!-- Node3 -->
<g id="node3" class="node"><title>Node3</title>
<g id="a_node3"><a xlink:href="$classtomoBay_1_1presenters_1_1presenterActions_1_1concreteActions_1_1OrderInfo.html#afeec1aeda079b77245edea1e74b25f33" xlink:title="assembles the various parts of the order and outputs it as a fully formed JSON string. ">
<polygon fill="white" stroke="black" points="366,-44 366,-85 563,-85 563,-44 366,-44"/>
<text text-anchor="start" x="374" y="-73" font-family="Helvetica,sans-Serif" font-size="10.00">tomoBay.presenters.presenter</text>
<text text-anchor="start" x="374" y="-62" font-family="Helvetica,sans-Serif" font-size="10.00">Actions.concreteActions.OrderInfo.format</text>
<text text-anchor="middle" x="464.5" y="-51" font-family="Helvetica,sans-Serif" font-size="10.00">Results</text>
</a>
</g>
</g>
<!-- Node2&#45;&gt;Node3 -->
<g id="edge2" class="edge"><title>Node2&#45;&gt;Node3</title>
<path fill="none" stroke="midnightblue" d="M321.53,-64.5C336.336,-64.5 351.39,-64.5 365.888,-64.5"/>
<polygon fill="midnightblue" stroke="midnightblue" points="321.328,-61.0001 311.328,-64.5 321.328,-68.0001 321.328,-61.0001"/>
</g>
<!-- Node4 -->
<g id="node4" class="node"><title>Node4</title>
<g id="a_node4"><a xlink:href="$classtomoBay_1_1presenters_1_1presenterActions_1_1concreteActions_1_1OrderInfo.html#adb3dedf31dc2c7fc796f20406c235ccd" xlink:title="performs the action specified ">
<polygon fill="white" stroke="black" points="599,-49.5 599,-79.5 803,-79.5 803,-49.5 599,-49.5"/>
<text text-anchor="start" x="607" y="-67.5" font-family="Helvetica,sans-Serif" font-size="10.00">tomoBay.presenters.presenter</text>
<text text-anchor="middle" x="701" y="-56.5" font-family="Helvetica,sans-Serif" font-size="10.00">Actions.concreteActions.OrderInfo.execute</text>
</a>
</g>
</g>
<!-- Node3&#45;&gt;Node4 -->
<g id="edge3" class="edge"><title>Node3&#45;&gt;Node4</title>
<path fill="none" stroke="midnightblue" d="M573.441,-64.5C581.831,-64.5 590.285,-64.5 598.629,-64.5"/>
<polygon fill="midnightblue" stroke="midnightblue" points="573.251,-61.0001 563.251,-64.5 573.251,-68.0001 573.251,-61.0001"/>
</g>
</g>
</svg>
