<?xml version="1.0" encoding="UTF-8" standalone="no"?>
<!DOCTYPE svg PUBLIC "-//W3C//DTD SVG 1.1//EN"
 "http://www.w3.org/Graphics/SVG/1.1/DTD/svg11.dtd">
<!-- Generated by graphviz version 2.38.0 (20140413.2041)
 -->
<!-- Title: IndividualItemRefreshService Pages: 1 -->
<svg width="153pt" height="353pt"
 viewBox="0.00 0.00 153.00 353.00" xmlns="http://www.w3.org/2000/svg" xmlns:xlink="http://www.w3.org/1999/xlink">
<g id="graph0" class="graph" transform="scale(1 1) rotate(0) translate(4 349)">
<title>IndividualItemRefreshService</title>
<polygon fill="white" stroke="none" points="-4,4 -4,-349 149,-349 149,4 -4,4"/>
<!-- Node1 -->
<g id="node1" class="node"><title>Node1</title>
<polygon fill="#bfbfbf" stroke="black" points="0,-0.5 0,-101.5 145,-101.5 145,-0.5 0,-0.5"/>
<text text-anchor="middle" x="72.5" y="-89.5" font-family="Helvetica,sans-Serif" font-size="10.00">IndividualItemRefreshService</text>
<polyline fill="none" stroke="black" points="0,-82.5 145,-82.5 "/>
<text text-anchor="start" x="8" y="-70.5" font-family="Helvetica,sans-Serif" font-size="10.00">&#45; listingID_M</text>
<polyline fill="none" stroke="black" points="0,-63.5 145,-63.5 "/>
<text text-anchor="start" x="8" y="-51.5" font-family="Helvetica,sans-Serif" font-size="10.00">~ setConfig()</text>
<text text-anchor="start" x="8" y="-40.5" font-family="Helvetica,sans-Serif" font-size="10.00"># onRunning()</text>
<text text-anchor="start" x="8" y="-29.5" font-family="Helvetica,sans-Serif" font-size="10.00"># onPaused()</text>
<text text-anchor="start" x="8" y="-18.5" font-family="Helvetica,sans-Serif" font-size="10.00"># onStopped()</text>
<text text-anchor="start" x="8" y="-7.5" font-family="Helvetica,sans-Serif" font-size="10.00"># onError()</text>
</g>
<!-- Node2 -->
<g id="node2" class="node"><title>Node2</title>
<g id="a_node2"><a xlink:href="$classtomoBay_1_1model_1_1services_1_1AbstractService.html" xlink:title="Allows the system to only accept runnable&#39;s that implement this interface rather than all runnables...">
<polygon fill="white" stroke="black" points="29.5,-138.5 29.5,-250.5 115.5,-250.5 115.5,-138.5 29.5,-138.5"/>
<text text-anchor="middle" x="72.5" y="-238.5" font-family="Helvetica,sans-Serif" font-size="10.00">AbstractService</text>
<polyline fill="none" stroke="black" points="29.5,-231.5 115.5,-231.5 "/>
<text text-anchor="middle" x="72.5" y="-219.5" font-family="Helvetica,sans-Serif" font-size="10.00"> </text>
<polyline fill="none" stroke="black" points="29.5,-212.5 115.5,-212.5 "/>
<text text-anchor="start" x="37.5" y="-200.5" font-family="Helvetica,sans-Serif" font-size="10.00">+ call()</text>
<text text-anchor="start" x="37.5" y="-189.5" font-family="Helvetica,sans-Serif" font-size="10.00">+ setConfig()</text>
<text text-anchor="start" x="37.5" y="-178.5" font-family="Helvetica,sans-Serif" font-size="10.00"># onRunning()</text>
<text text-anchor="start" x="37.5" y="-167.5" font-family="Helvetica,sans-Serif" font-size="10.00"># onPaused()</text>
<text text-anchor="start" x="37.5" y="-156.5" font-family="Helvetica,sans-Serif" font-size="10.00"># onStopped()</text>
<text text-anchor="start" x="37.5" y="-145.5" font-family="Helvetica,sans-Serif" font-size="10.00"># onError()</text>
</a>
</g>
</g>
<!-- Node2&#45;&gt;Node1 -->
<g id="edge1" class="edge"><title>Node2&#45;&gt;Node1</title>
<path fill="none" stroke="midnightblue" d="M72.5,-128.344C72.5,-119.375 72.5,-110.286 72.5,-101.658"/>
<polygon fill="none" stroke="midnightblue" points="69.0001,-128.387 72.5,-138.387 76.0001,-128.387 69.0001,-128.387"/>
</g>
<!-- Node3 -->
<g id="node3" class="node"><title>Node3</title>
<polygon fill="white" stroke="#bfbfbf" points="25,-287.5 25,-344.5 120,-344.5 120,-287.5 25,-287.5"/>
<text text-anchor="middle" x="72.5" y="-332.5" font-family="Helvetica,sans-Serif" font-size="10.00">Callable&lt; String &gt;</text>
<polyline fill="none" stroke="#bfbfbf" points="25,-325.5 120,-325.5 "/>
<text text-anchor="middle" x="72.5" y="-313.5" font-family="Helvetica,sans-Serif" font-size="10.00"> </text>
<polyline fill="none" stroke="#bfbfbf" points="25,-306.5 120,-306.5 "/>
<text text-anchor="middle" x="72.5" y="-294.5" font-family="Helvetica,sans-Serif" font-size="10.00"> </text>
</g>
<!-- Node3&#45;&gt;Node2 -->
<g id="edge2" class="edge"><title>Node3&#45;&gt;Node2</title>
<path fill="none" stroke="midnightblue" d="M72.5,-277.108C72.5,-268.748 72.5,-259.725 72.5,-250.834"/>
<polygon fill="none" stroke="midnightblue" points="69.0001,-277.284 72.5,-287.284 76.0001,-277.284 69.0001,-277.284"/>
</g>
</g>
</svg>
