<?xml version="1.0" encoding="UTF-8" standalone="no"?>
<!DOCTYPE svg PUBLIC "-//W3C//DTD SVG 1.1//EN"
 "http://www.w3.org/Graphics/SVG/1.1/DTD/svg11.dtd">
<!-- Generated by graphviz version 2.38.0 (20140413.2041)
 -->
<!-- Title: OutOfHoursServiceFactory Pages: 1 -->
<svg width="143pt" height="160pt"
 viewBox="0.00 0.00 143.00 160.00" xmlns="http://www.w3.org/2000/svg" xmlns:xlink="http://www.w3.org/1999/xlink">
<g id="graph0" class="graph" transform="scale(1 1) rotate(0) translate(4 156)">
<title>OutOfHoursServiceFactory</title>
<polygon fill="white" stroke="none" points="-4,4 -4,-156 139,-156 139,4 -4,4"/>
<!-- Node1 -->
<g id="node1" class="node"><title>Node1</title>
<polygon fill="#bfbfbf" stroke="black" points="0,-0.5 0,-57.5 135,-57.5 135,-0.5 0,-0.5"/>
<text text-anchor="middle" x="67.5" y="-45.5" font-family="Helvetica,sans-Serif" font-size="10.00">OutOfHoursServiceFactory</text>
<polyline fill="none" stroke="black" points="0,-38.5 135,-38.5 "/>
<text text-anchor="middle" x="67.5" y="-26.5" font-family="Helvetica,sans-Serif" font-size="10.00"> </text>
<polyline fill="none" stroke="black" points="0,-19.5 135,-19.5 "/>
<text text-anchor="start" x="8" y="-7.5" font-family="Helvetica,sans-Serif" font-size="10.00">+ make()</text>
</g>
<!-- Node2 -->
<g id="node2" class="node"><title>Node2</title>
<g id="a_node2"><a xlink:href="$interfacetomoBay_1_1model_1_1services_1_1factories_1_1AbstractServiceFactory.html" xlink:title="This interface is the construct that all the Service factories must conform to. ">
<polygon fill="white" stroke="black" points="8,-94.5 8,-151.5 127,-151.5 127,-94.5 8,-94.5"/>
<text text-anchor="middle" x="67.5" y="-139.5" font-family="Helvetica,sans-Serif" font-size="10.00">AbstractServiceFactory</text>
<polyline fill="none" stroke="black" points="8,-132.5 127,-132.5 "/>
<text text-anchor="middle" x="67.5" y="-120.5" font-family="Helvetica,sans-Serif" font-size="10.00"> </text>
<polyline fill="none" stroke="black" points="8,-113.5 127,-113.5 "/>
<text text-anchor="start" x="16" y="-101.5" font-family="Helvetica,sans-Serif" font-size="10.00">+ make()</text>
</a>
</g>
</g>
<!-- Node2&#45;&gt;Node1 -->
<g id="edge1" class="edge"><title>Node2&#45;&gt;Node1</title>
<path fill="none" stroke="midnightblue" d="M67.5,-84.2092C67.5,-75.2929 67.5,-65.9513 67.5,-57.5836"/>
<polygon fill="none" stroke="midnightblue" points="64.0001,-84.3969 67.5,-94.397 71.0001,-84.397 64.0001,-84.3969"/>
</g>
</g>
</svg>
