<?xml version="1.0" encoding="UTF-8" standalone="no"?>
<!DOCTYPE svg PUBLIC "-//W3C//DTD SVG 1.1//EN"
 "http://www.w3.org/Graphics/SVG/1.1/DTD/svg11.dtd">
<!-- Generated by graphviz version 2.38.0 (20140413.2041)
 -->
<!-- Title: sortByShipping Pages: 1 -->
<svg width="371pt" height="39pt"
 viewBox="0.00 0.00 371.00 39.00" xmlns="http://www.w3.org/2000/svg" xmlns:xlink="http://www.w3.org/1999/xlink">
<g id="graph0" class="graph" transform="scale(1 1) rotate(0) translate(4 35)">
<title>sortByShipping</title>
<polygon fill="white" stroke="none" points="-4,4 -4,-35 367,-35 367,4 -4,4"/>
<!-- Node1 -->
<g id="node1" class="node"><title>Node1</title>
<polygon fill="#bfbfbf" stroke="black" points="0,-6 0,-25 83,-25 83,-6 0,-6"/>
<text text-anchor="middle" x="41.5" y="-13" font-family="Helvetica,sans-Serif" font-size="10.00">sortByShipping</text>
</g>
<!-- Node2 -->
<g id="node2" class="node"><title>Node2</title>
<g id="a_node2"><a xlink:href="$classtomoBay_1_1helpers_1_1SortOrders.html#a5020830384922af1e38f13a051a3b95e" xlink:title="sort an input list of Strings i.e. ">
<polygon fill="white" stroke="black" points="119,-6 119,-25 184,-25 184,-6 119,-6"/>
<text text-anchor="middle" x="151.5" y="-13" font-family="Helvetica,sans-Serif" font-size="10.00">sortDefault</text>
</a>
</g>
</g>
<!-- Node1&#45;&gt;Node2 -->
<g id="edge1" class="edge"><title>Node1&#45;&gt;Node2</title>
<path fill="none" stroke="midnightblue" d="M93.1861,-15.5C101.937,-15.5 110.804,-15.5 118.864,-15.5"/>
<polygon fill="midnightblue" stroke="midnightblue" points="93.0225,-12.0001 83.0225,-15.5 93.0224,-19.0001 93.0225,-12.0001"/>
</g>
<!-- Node3 -->
<g id="node3" class="node"><title>Node3</title>
<g id="a_node3"><a xlink:href="$classtomoBay_1_1presenters_1_1sales_1_1SalesOrderPresenter.html#aae3ef9e158aa1e975acedd263e47fa3c" xlink:title="this method is called when you actually want to present the information to be displayed to the approp...">
<polygon fill="white" stroke="black" points="220,-0.5 220,-30.5 363,-30.5 363,-0.5 220,-0.5"/>
<text text-anchor="start" x="228" y="-18.5" font-family="Helvetica,sans-Serif" font-size="10.00">tomoBay.presenters.sales.</text>
<text text-anchor="middle" x="291.5" y="-7.5" font-family="Helvetica,sans-Serif" font-size="10.00">SalesOrderPresenter.present</text>
</a>
</g>
</g>
<!-- Node2&#45;&gt;Node3 -->
<g id="edge2" class="edge"><title>Node2&#45;&gt;Node3</title>
<path fill="none" stroke="midnightblue" d="M194.414,-15.5C202.508,-15.5 211.194,-15.5 219.914,-15.5"/>
<polygon fill="midnightblue" stroke="midnightblue" points="194.16,-12.0001 184.16,-15.5 194.16,-19.0001 194.16,-12.0001"/>
</g>
</g>
</svg>
