<?xml version="1.0" encoding="UTF-8" standalone="no"?>
<!DOCTYPE svg PUBLIC "-//W3C//DTD SVG 1.1//EN"
 "http://www.w3.org/Graphics/SVG/1.1/DTD/svg11.dtd">
<!-- Generated by graphviz version 2.38.0 (20140413.2041)
 -->
<!-- Title: CheckErrorsService Pages: 1 -->
<svg width="178pt" height="376pt"
 viewBox="0.00 0.00 178.00 376.00" xmlns="http://www.w3.org/2000/svg" xmlns:xlink="http://www.w3.org/1999/xlink">
<g id="graph0" class="graph" transform="scale(1 1) rotate(0) translate(4 372)">
<title>CheckErrorsService</title>
<polygon fill="white" stroke="none" points="-4,4 -4,-372 174,-372 174,4 -4,4"/>
<!-- Node1 -->
<g id="node1" class="node"><title>Node1</title>
<polygon fill="#bfbfbf" stroke="black" points="51,-0.5 51,-112.5 170,-112.5 170,-0.5 51,-0.5"/>
<text text-anchor="middle" x="110.5" y="-100.5" font-family="Helvetica,sans-Serif" font-size="10.00">CheckErrorsService</text>
<polyline fill="none" stroke="black" points="51,-93.5 170,-93.5 "/>
<text text-anchor="middle" x="110.5" y="-81.5" font-family="Helvetica,sans-Serif" font-size="10.00"> </text>
<polyline fill="none" stroke="black" points="51,-74.5 170,-74.5 "/>
<text text-anchor="start" x="59" y="-62.5" font-family="Helvetica,sans-Serif" font-size="10.00">+ CheckErrorsService()</text>
<text text-anchor="start" x="59" y="-51.5" font-family="Helvetica,sans-Serif" font-size="10.00">~ setConfig()</text>
<text text-anchor="start" x="59" y="-40.5" font-family="Helvetica,sans-Serif" font-size="10.00"># onRunning()</text>
<text text-anchor="start" x="59" y="-29.5" font-family="Helvetica,sans-Serif" font-size="10.00"># onPaused()</text>
<text text-anchor="start" x="59" y="-18.5" font-family="Helvetica,sans-Serif" font-size="10.00"># onStopped()</text>
<text text-anchor="start" x="59" y="-7.5" font-family="Helvetica,sans-Serif" font-size="10.00"># onError()</text>
</g>
<!-- Node2 -->
<g id="node2" class="node"><title>Node2</title>
<g id="a_node2"><a xlink:href="$classtomoBay_1_1model_1_1services_1_1AbstractService.html" xlink:title="Allows the system to only accept runnable&#39;s that implement this interface rather than all runnables...">
<polygon fill="white" stroke="black" points="4.5,-160.5 4.5,-272.5 90.5,-272.5 90.5,-160.5 4.5,-160.5"/>
<text text-anchor="middle" x="47.5" y="-260.5" font-family="Helvetica,sans-Serif" font-size="10.00">AbstractService</text>
<polyline fill="none" stroke="black" points="4.5,-253.5 90.5,-253.5 "/>
<text text-anchor="middle" x="47.5" y="-241.5" font-family="Helvetica,sans-Serif" font-size="10.00"> </text>
<polyline fill="none" stroke="black" points="4.5,-234.5 90.5,-234.5 "/>
<text text-anchor="start" x="12.5" y="-222.5" font-family="Helvetica,sans-Serif" font-size="10.00">+ call()</text>
<text text-anchor="start" x="12.5" y="-211.5" font-family="Helvetica,sans-Serif" font-size="10.00">+ setConfig()</text>
<text text-anchor="start" x="12.5" y="-200.5" font-family="Helvetica,sans-Serif" font-size="10.00"># onRunning()</text>
<text text-anchor="start" x="12.5" y="-189.5" font-family="Helvetica,sans-Serif" font-size="10.00"># onPaused()</text>
<text text-anchor="start" x="12.5" y="-178.5" font-family="Helvetica,sans-Serif" font-size="10.00"># onStopped()</text>
<text text-anchor="start" x="12.5" y="-167.5" font-family="Helvetica,sans-Serif" font-size="10.00"># onError()</text>
</a>
</g>
</g>
<!-- Node2&#45;&gt;Node1 -->
<g id="edge1" class="edge"><title>Node2&#45;&gt;Node1</title>
<path fill="none" stroke="midnightblue" d="M73.3316,-150.716C78.3597,-138.106 83.587,-124.996 88.4781,-112.73"/>
<polygon fill="none" stroke="midnightblue" points="69.9871,-149.654 69.5343,-160.239 76.4893,-152.247 69.9871,-149.654"/>
</g>
<!-- Node3 -->
<g id="node3" class="node"><title>Node3</title>
<polygon fill="white" stroke="#bfbfbf" points="0,-310.5 0,-367.5 95,-367.5 95,-310.5 0,-310.5"/>
<text text-anchor="middle" x="47.5" y="-355.5" font-family="Helvetica,sans-Serif" font-size="10.00">Callable&lt; String &gt;</text>
<polyline fill="none" stroke="#bfbfbf" points="0,-348.5 95,-348.5 "/>
<text text-anchor="middle" x="47.5" y="-336.5" font-family="Helvetica,sans-Serif" font-size="10.00"> </text>
<polyline fill="none" stroke="#bfbfbf" points="0,-329.5 95,-329.5 "/>
<text text-anchor="middle" x="47.5" y="-317.5" font-family="Helvetica,sans-Serif" font-size="10.00"> </text>
</g>
<!-- Node3&#45;&gt;Node2 -->
<g id="edge2" class="edge"><title>Node3&#45;&gt;Node2</title>
<path fill="none" stroke="midnightblue" d="M47.5,-300.109C47.5,-291.362 47.5,-281.883 47.5,-272.569"/>
<polygon fill="none" stroke="midnightblue" points="44.0001,-300.355 47.5,-310.355 51.0001,-300.355 44.0001,-300.355"/>
</g>
<!-- Node4 -->
<g id="node4" class="node"><title>Node4</title>
<polygon fill="white" stroke="#bfbfbf" points="108.5,-188 108.5,-245 154.5,-245 154.5,-188 108.5,-188"/>
<text text-anchor="middle" x="131.5" y="-233" font-family="Helvetica,sans-Serif" font-size="10.00">Logger</text>
<polyline fill="none" stroke="#bfbfbf" points="108.5,-226 154.5,-226 "/>
<text text-anchor="middle" x="131.5" y="-214" font-family="Helvetica,sans-Serif" font-size="10.00"> </text>
<polyline fill="none" stroke="#bfbfbf" points="108.5,-207 154.5,-207 "/>
<text text-anchor="middle" x="131.5" y="-195" font-family="Helvetica,sans-Serif" font-size="10.00"> </text>
</g>
<!-- Node4&#45;&gt;Node1 -->
<g id="edge3" class="edge"><title>Node4&#45;&gt;Node1</title>
<path fill="none" stroke="#404040" d="M127.842,-187.979C125.512,-170.448 122.386,-146.926 119.429,-124.684"/>
<polygon fill="none" stroke="#404040" points="119.392,-124.4 114.636,-118.979 117.811,-112.504 122.566,-117.925 119.392,-124.4"/>
<text text-anchor="middle" x="132.5" y="-134" font-family="Helvetica,sans-Serif" font-size="10.00"> ~log</text>
</g>
</g>
</svg>
