<?xml version="1.0" encoding="UTF-8" standalone="no"?>
<!DOCTYPE svg PUBLIC "-//W3C//DTD SVG 1.1//EN"
 "http://www.w3.org/Graphics/SVG/1.1/DTD/svg11.dtd">
<!-- Generated by graphviz version 2.38.0 (20140413.2041)
 -->
<!-- Title: SelectEbayItemsNotInTransactions Pages: 1 -->
<svg width="195pt" height="436pt"
 viewBox="0.00 0.00 195.00 436.00" xmlns="http://www.w3.org/2000/svg" xmlns:xlink="http://www.w3.org/1999/xlink">
<g id="graph0" class="graph" transform="scale(1 1) rotate(0) translate(4 432)">
<title>SelectEbayItemsNotInTransactions</title>
<polygon fill="white" stroke="none" points="-4,4 -4,-432 191,-432 191,4 -4,4"/>
<!-- Node1 -->
<g id="node1" class="node"><title>Node1</title>
<polygon fill="#bfbfbf" stroke="black" points="-1.42109e-14,-0.5 -1.42109e-14,-79.5 187,-79.5 187,-0.5 -1.42109e-14,-0.5"/>
<text text-anchor="middle" x="93.5" y="-67.5" font-family="Helvetica,sans-Serif" font-size="10.00">SelectEbayItemsNotInTransactions</text>
<polyline fill="none" stroke="black" points="-1.42109e-14,-60.5 187,-60.5 "/>
<text text-anchor="start" x="8" y="-48.5" font-family="Helvetica,sans-Serif" font-size="10.00">&#45; query</text>
<polyline fill="none" stroke="black" points="-1.42109e-14,-41.5 187,-41.5 "/>
<text text-anchor="start" x="8" y="-29.5" font-family="Helvetica,sans-Serif" font-size="10.00">+ SelectEbayItemsNotInTransactions()</text>
<text text-anchor="start" x="8" y="-18.5" font-family="Helvetica,sans-Serif" font-size="10.00"># format()</text>
<text text-anchor="start" x="8" y="-7.5" font-family="Helvetica,sans-Serif" font-size="10.00"># queryString()</text>
</g>
<!-- Node2 -->
<g id="node2" class="node"><title>Node2</title>
<g id="a_node2"><a xlink:href="$classtomoBay_1_1model_1_1sql_1_1framework_1_1queryTypes_1_1select_1_1AbstractSelectNoParamsQuery.html" xlink:title="This class defines the Abstract base for all Select queries that do not require parameters. ">
<polygon fill="white" stroke="black" points="9,-116.5 9,-195.5 178,-195.5 178,-116.5 9,-116.5"/>
<text text-anchor="middle" x="93.5" y="-183.5" font-family="Helvetica,sans-Serif" font-size="10.00">AbstractSelectNoParamsQuery</text>
<polyline fill="none" stroke="black" points="9,-176.5 178,-176.5 "/>
<text text-anchor="middle" x="93.5" y="-164.5" font-family="Helvetica,sans-Serif" font-size="10.00"> </text>
<polyline fill="none" stroke="black" points="9,-157.5 178,-157.5 "/>
<text text-anchor="start" x="17" y="-145.5" font-family="Helvetica,sans-Serif" font-size="10.00">+ AbstractSelectNoParamsQuery()</text>
<text text-anchor="start" x="17" y="-134.5" font-family="Helvetica,sans-Serif" font-size="10.00">+ execute()</text>
<text text-anchor="start" x="17" y="-123.5" font-family="Helvetica,sans-Serif" font-size="10.00"># initQuery()</text>
</a>
</g>
</g>
<!-- Node2&#45;&gt;Node1 -->
<g id="edge1" class="edge"><title>Node2&#45;&gt;Node1</title>
<path fill="none" stroke="midnightblue" d="M93.5,-106.146C93.5,-97.256 93.5,-88.0961 93.5,-79.5555"/>
<polygon fill="none" stroke="midnightblue" points="90.0001,-106.405 93.5,-116.405 97.0001,-106.405 90.0001,-106.405"/>
</g>
<!-- Node3 -->
<g id="node3" class="node"><title>Node3</title>
<g id="a_node3"><a xlink:href="$classtomoBay_1_1model_1_1sql_1_1framework_1_1queryTypes_1_1select_1_1AbstractSelectQuery.html" xlink:title="{AbstractSelectQuery\n||+ AbstractSelectQuery()\l# format()\l}">
<polygon fill="white" stroke="black" points="32.5,-232.5 32.5,-300.5 154.5,-300.5 154.5,-232.5 32.5,-232.5"/>
<text text-anchor="middle" x="93.5" y="-288.5" font-family="Helvetica,sans-Serif" font-size="10.00">AbstractSelectQuery</text>
<polyline fill="none" stroke="black" points="32.5,-281.5 154.5,-281.5 "/>
<text text-anchor="middle" x="93.5" y="-269.5" font-family="Helvetica,sans-Serif" font-size="10.00"> </text>
<polyline fill="none" stroke="black" points="32.5,-262.5 154.5,-262.5 "/>
<text text-anchor="start" x="40.5" y="-250.5" font-family="Helvetica,sans-Serif" font-size="10.00">+ AbstractSelectQuery()</text>
<text text-anchor="start" x="40.5" y="-239.5" font-family="Helvetica,sans-Serif" font-size="10.00"># format()</text>
</a>
</g>
</g>
<!-- Node3&#45;&gt;Node2 -->
<g id="edge2" class="edge"><title>Node3&#45;&gt;Node2</title>
<path fill="none" stroke="midnightblue" d="M93.5,-222.274C93.5,-213.476 93.5,-204.275 93.5,-195.649"/>
<polygon fill="none" stroke="midnightblue" points="90.0001,-222.357 93.5,-232.357 97.0001,-222.357 90.0001,-222.357"/>
</g>
<!-- Node4 -->
<g id="node4" class="node"><title>Node4</title>
<g id="a_node4"><a xlink:href="$classtomoBay_1_1model_1_1sql_1_1framework_1_1queryTypes_1_1AbstractDBQuery.html" xlink:title="Interface that all database queries must adhere to. ">
<polygon fill="white" stroke="black" points="46.5,-337.5 46.5,-427.5 140.5,-427.5 140.5,-337.5 46.5,-337.5"/>
<text text-anchor="middle" x="93.5" y="-415.5" font-family="Helvetica,sans-Serif" font-size="10.00">AbstractDBQuery</text>
<polyline fill="none" stroke="black" points="46.5,-408.5 140.5,-408.5 "/>
<text text-anchor="start" x="54.5" y="-396.5" font-family="Helvetica,sans-Serif" font-size="10.00"># statement_M</text>
<text text-anchor="start" x="54.5" y="-385.5" font-family="Helvetica,sans-Serif" font-size="10.00"># connection_M</text>
<polyline fill="none" stroke="black" points="46.5,-378.5 140.5,-378.5 "/>
<text text-anchor="start" x="54.5" y="-366.5" font-family="Helvetica,sans-Serif" font-size="10.00">+ statement()</text>
<text text-anchor="start" x="54.5" y="-355.5" font-family="Helvetica,sans-Serif" font-size="10.00"># queryString()</text>
<text text-anchor="start" x="54.5" y="-344.5" font-family="Helvetica,sans-Serif" font-size="10.00"># cleanup()</text>
</a>
</g>
</g>
<!-- Node4&#45;&gt;Node3 -->
<g id="edge3" class="edge"><title>Node4&#45;&gt;Node3</title>
<path fill="none" stroke="midnightblue" d="M93.5,-327.316C93.5,-318.285 93.5,-309.159 93.5,-300.848"/>
<polygon fill="none" stroke="midnightblue" points="90.0001,-327.425 93.5,-337.425 97.0001,-327.425 90.0001,-327.425"/>
</g>
</g>
</svg>
