<?xml version="1.0" encoding="UTF-8" standalone="no"?>
<!DOCTYPE svg PUBLIC "-//W3C//DTD SVG 1.1//EN"
 "http://www.w3.org/Graphics/SVG/1.1/DTD/svg11.dtd">
<!-- Generated by graphviz version 2.38.0 (20140413.2041)
 -->
<!-- Title: ListingsCall Pages: 1 -->
<svg width="216pt" height="193pt"
 viewBox="0.00 0.00 215.50 193.00" xmlns="http://www.w3.org/2000/svg" xmlns:xlink="http://www.w3.org/1999/xlink">
<g id="graph0" class="graph" transform="scale(1 1) rotate(0) translate(4 189)">
<title>ListingsCall</title>
<polygon fill="white" stroke="none" points="-4,4 -4,-189 211.5,-189 211.5,4 -4,4"/>
<!-- Node1 -->
<g id="node1" class="node"><title>Node1</title>
<polygon fill="#bfbfbf" stroke="black" points="64,-0.5 64,-68.5 147,-68.5 147,-0.5 64,-0.5"/>
<text text-anchor="middle" x="105.5" y="-56.5" font-family="Helvetica,sans-Serif" font-size="10.00">ListingsCall</text>
<polyline fill="none" stroke="black" points="64,-49.5 147,-49.5 "/>
<text text-anchor="middle" x="105.5" y="-37.5" font-family="Helvetica,sans-Serif" font-size="10.00"> </text>
<polyline fill="none" stroke="black" points="64,-30.5 147,-30.5 "/>
<text text-anchor="start" x="72" y="-18.5" font-family="Helvetica,sans-Serif" font-size="10.00">+ ListingsCall()</text>
<text text-anchor="start" x="72" y="-7.5" font-family="Helvetica,sans-Serif" font-size="10.00">+ call()</text>
</g>
<!-- Node2 -->
<g id="node2" class="node"><title>Node2</title>
<g id="a_node2"><a xlink:href="$classtomoBay_1_1model_1_1eBayAPI_1_1AbstractAPIcall.html" xlink:title="This is the abstract base class for all the recievers in this command pattern, it provides a common w...">
<polygon fill="white" stroke="black" points="0,-116.5 0,-184.5 99,-184.5 99,-116.5 0,-116.5"/>
<text text-anchor="middle" x="49.5" y="-172.5" font-family="Helvetica,sans-Serif" font-size="10.00">AbstractAPIcall</text>
<polyline fill="none" stroke="black" points="0,-165.5 99,-165.5 "/>
<text text-anchor="start" x="8" y="-153.5" font-family="Helvetica,sans-Serif" font-size="10.00"># usrToken_M</text>
<text text-anchor="start" x="8" y="-142.5" font-family="Helvetica,sans-Serif" font-size="10.00"># server_M</text>
<polyline fill="none" stroke="black" points="0,-135.5 99,-135.5 "/>
<text text-anchor="start" x="8" y="-123.5" font-family="Helvetica,sans-Serif" font-size="10.00"># AbstractAPIcall()</text>
</a>
</g>
</g>
<!-- Node2&#45;&gt;Node1 -->
<g id="edge1" class="edge"><title>Node2&#45;&gt;Node1</title>
<path fill="none" stroke="midnightblue" d="M70.291,-107.175C76.5445,-94.4452 83.3127,-80.6669 89.2284,-68.6243"/>
<polygon fill="none" stroke="midnightblue" points="67.1157,-105.701 65.8481,-116.22 73.3986,-108.788 67.1157,-105.701"/>
</g>
<!-- Node3 -->
<g id="node3" class="node"><title>Node3</title>
<polygon fill="white" stroke="#bfbfbf" points="117.5,-122 117.5,-179 207.5,-179 207.5,-122 117.5,-122"/>
<text text-anchor="middle" x="162.5" y="-167" font-family="Helvetica,sans-Serif" font-size="10.00">GetSellerListCall</text>
<polyline fill="none" stroke="#bfbfbf" points="117.5,-160 207.5,-160 "/>
<text text-anchor="middle" x="162.5" y="-148" font-family="Helvetica,sans-Serif" font-size="10.00"> </text>
<polyline fill="none" stroke="#bfbfbf" points="117.5,-141 207.5,-141 "/>
<text text-anchor="middle" x="162.5" y="-129" font-family="Helvetica,sans-Serif" font-size="10.00"> </text>
</g>
<!-- Node3&#45;&gt;Node1 -->
<g id="edge2" class="edge"><title>Node3&#45;&gt;Node1</title>
<path fill="none" stroke="#404040" d="M148.702,-121.904C142.358,-109.217 134.677,-93.8535 127.56,-79.6207"/>
<polygon fill="none" stroke="#404040" points="127.377,-79.2545 121.116,-75.6768 122.011,-68.5214 128.272,-72.0991 127.377,-79.2545"/>
<text text-anchor="middle" x="170.5" y="-90" font-family="Helvetica,sans-Serif" font-size="10.00"> &#45;listingsCall_M</text>
</g>
</g>
</svg>
