<?xml version="1.0" encoding="UTF-8" standalone="no"?>
<!DOCTYPE svg PUBLIC "-//W3C//DTD SVG 1.1//EN"
 "http://www.w3.org/Graphics/SVG/1.1/DTD/svg11.dtd">
<!-- Generated by graphviz version 2.38.0 (20140413.2041)
 -->
<!-- Title: start Pages: 1 -->
<svg width="307pt" height="364pt"
 viewBox="0.00 0.00 307.00 364.00" xmlns="http://www.w3.org/2000/svg" xmlns:xlink="http://www.w3.org/1999/xlink">
<g id="graph0" class="graph" transform="scale(1 1) rotate(0) translate(4 360)">
<title>start</title>
<polygon fill="white" stroke="none" points="-4,4 -4,-360 303,-360 303,4 -4,4"/>
<!-- Node1 -->
<g id="node1" class="node"><title>Node1</title>
<polygon fill="#bfbfbf" stroke="black" points="0,-174 0,-193 36,-193 36,-174 0,-174"/>
<text text-anchor="middle" x="18" y="-181" font-family="Helvetica,sans-Serif" font-size="10.00">start</text>
</g>
<!-- Node2 -->
<g id="node2" class="node"><title>Node2</title>
<g id="a_node2"><a xlink:href="$classtomoBay_1_1presenters_1_1presenterActions_1_1concreteActions_1_1ReScanListing.html#adb3dedf31dc2c7fc796f20406c235ccd" xlink:title="performs the action specified ">
<polygon fill="white" stroke="black" points="72,-325.5 72,-355.5 299,-355.5 299,-325.5 72,-325.5"/>
<text text-anchor="start" x="80" y="-343.5" font-family="Helvetica,sans-Serif" font-size="10.00">tomoBay.presenters.presenter</text>
<text text-anchor="middle" x="185.5" y="-332.5" font-family="Helvetica,sans-Serif" font-size="10.00">Actions.concreteActions.ReScanListing.execute</text>
</a>
</g>
</g>
<!-- Node1&#45;&gt;Node2 -->
<g id="edge1" class="edge"><title>Node1&#45;&gt;Node2</title>
<path fill="none" stroke="midnightblue" d="M21.1296,-203.598C25.3618,-233.028 37.6202,-287.49 72,-316.5 76.0447,-319.913 80.4575,-322.876 85.1189,-325.447"/>
<polygon fill="midnightblue" stroke="midnightblue" points="24.5573,-202.804 19.8355,-193.32 17.6122,-203.679 24.5573,-202.804"/>
</g>
<!-- Node3 -->
<g id="node3" class="node"><title>Node3</title>
<g id="a_node3"><a xlink:href="$classtomoBay_1_1presenters_1_1presenterActions_1_1concreteActions_1_1ReScanBuyer.html#adb3dedf31dc2c7fc796f20406c235ccd" xlink:title="performs the action specified ">
<polygon fill="white" stroke="black" points="73.5,-276.5 73.5,-306.5 297.5,-306.5 297.5,-276.5 73.5,-276.5"/>
<text text-anchor="start" x="81.5" y="-294.5" font-family="Helvetica,sans-Serif" font-size="10.00">tomoBay.presenters.presenter</text>
<text text-anchor="middle" x="185.5" y="-283.5" font-family="Helvetica,sans-Serif" font-size="10.00">Actions.concreteActions.ReScanBuyer.execute</text>
</a>
</g>
</g>
<!-- Node1&#45;&gt;Node3 -->
<g id="edge2" class="edge"><title>Node1&#45;&gt;Node3</title>
<path fill="none" stroke="midnightblue" d="M25.8114,-202.426C33.8104,-221.853 48.9824,-251.445 72,-267.5 76.9139,-270.928 82.2211,-273.881 87.7619,-276.425"/>
<polygon fill="midnightblue" stroke="midnightblue" points="29.0648,-201.135 22.1898,-193.074 22.5372,-203.663 29.0648,-201.135"/>
</g>
<!-- Node4 -->
<g id="node4" class="node"><title>Node4</title>
<g id="a_node4"><a xlink:href="$classtomoBayTests_1_1model_1_1services_1_1individualItemRefreshService_1_1IndividualItemRefreshServiceTest.html#a8b260eecbaabcef8473fd87ada040682" xlink:title="tomoBayTests.model.services.individual\lItemRefreshService.IndividualItemRefresh\lServiceTest.main">
<polygon fill="white" stroke="black" points="84.5,-217 84.5,-258 286.5,-258 286.5,-217 84.5,-217"/>
<text text-anchor="start" x="92.5" y="-246" font-family="Helvetica,sans-Serif" font-size="10.00">tomoBayTests.model.services.individual</text>
<text text-anchor="start" x="92.5" y="-235" font-family="Helvetica,sans-Serif" font-size="10.00">ItemRefreshService.IndividualItemRefresh</text>
<text text-anchor="middle" x="185.5" y="-224" font-family="Helvetica,sans-Serif" font-size="10.00">ServiceTest.main</text>
</a>
</g>
</g>
<!-- Node1&#45;&gt;Node4 -->
<g id="edge3" class="edge"><title>Node1&#45;&gt;Node4</title>
<path fill="none" stroke="midnightblue" d="M45.5461,-197.221C53.8756,-201.198 63.1966,-205.321 72,-208.5 80.3472,-211.514 89.1484,-214.349 98.0009,-216.977"/>
<polygon fill="midnightblue" stroke="midnightblue" points="46.8323,-193.953 36.3138,-192.683 43.7445,-200.235 46.8323,-193.953"/>
</g>
<!-- Node5 -->
<g id="node5" class="node"><title>Node5</title>
<g id="a_node5"><a xlink:href="$classtomoBayTests_1_1model_1_1services_1_1checkErrorsService_1_1CheckErrorsServiceTest.html#a8b260eecbaabcef8473fd87ada040682" xlink:title="tomoBayTests.model.services.check\lErrorsService.CheckErrorsServiceTest.main">
<polygon fill="white" stroke="black" points="80.5,-168.5 80.5,-198.5 290.5,-198.5 290.5,-168.5 80.5,-168.5"/>
<text text-anchor="start" x="88.5" y="-186.5" font-family="Helvetica,sans-Serif" font-size="10.00">tomoBayTests.model.services.check</text>
<text text-anchor="middle" x="185.5" y="-175.5" font-family="Helvetica,sans-Serif" font-size="10.00">ErrorsService.CheckErrorsServiceTest.main</text>
</a>
</g>
</g>
<!-- Node1&#45;&gt;Node5 -->
<g id="edge4" class="edge"><title>Node1&#45;&gt;Node5</title>
<path fill="none" stroke="midnightblue" d="M46.3282,-183.5C56.1883,-183.5 67.9913,-183.5 80.4883,-183.5"/>
<polygon fill="midnightblue" stroke="midnightblue" points="46.0881,-180 36.0881,-183.5 46.088,-187 46.0881,-180"/>
</g>
<!-- Node6 -->
<g id="node6" class="node"><title>Node6</title>
<g id="a_node6"><a xlink:href="$classtomoBayTests_1_1model_1_1services_1_1BasicEbayService_1_1BasicEbayServiceTest.html#a8b260eecbaabcef8473fd87ada040682" xlink:title="tomoBayTests.model.services.\lBasicEbayService.BasicEbayService\lTest.main">
<polygon fill="white" stroke="black" points="95.5,-109 95.5,-150 275.5,-150 275.5,-109 95.5,-109"/>
<text text-anchor="start" x="103.5" y="-138" font-family="Helvetica,sans-Serif" font-size="10.00">tomoBayTests.model.services.</text>
<text text-anchor="start" x="103.5" y="-127" font-family="Helvetica,sans-Serif" font-size="10.00">BasicEbayService.BasicEbayService</text>
<text text-anchor="middle" x="185.5" y="-116" font-family="Helvetica,sans-Serif" font-size="10.00">Test.main</text>
</a>
</g>
</g>
<!-- Node1&#45;&gt;Node6 -->
<g id="edge5" class="edge"><title>Node1&#45;&gt;Node6</title>
<path fill="none" stroke="midnightblue" d="M45.6097,-170.418C53.9418,-166.603 63.2482,-162.624 72,-159.5 81.4233,-156.136 91.4086,-152.951 101.386,-150.002"/>
<polygon fill="midnightblue" stroke="midnightblue" points="43.93,-167.34 36.3677,-174.76 46.9069,-173.675 43.93,-167.34"/>
</g>
<!-- Node7 -->
<g id="node7" class="node"><title>Node7</title>
<g id="a_node7"><a xlink:href="$classtomoBayTests_1_1model_1_1services_1_1reScanErrorsService_1_1ReScanErrorsServiceTest.html#a8b260eecbaabcef8473fd87ada040682" xlink:title="tomoBayTests.model.services.re\lScanErrorsService.ReScanErrorsService\lTest.main">
<polygon fill="white" stroke="black" points="87.5,-49 87.5,-90 283.5,-90 283.5,-49 87.5,-49"/>
<text text-anchor="start" x="95.5" y="-78" font-family="Helvetica,sans-Serif" font-size="10.00">tomoBayTests.model.services.re</text>
<text text-anchor="start" x="95.5" y="-67" font-family="Helvetica,sans-Serif" font-size="10.00">ScanErrorsService.ReScanErrorsService</text>
<text text-anchor="middle" x="185.5" y="-56" font-family="Helvetica,sans-Serif" font-size="10.00">Test.main</text>
</a>
</g>
</g>
<!-- Node1&#45;&gt;Node7 -->
<g id="edge6" class="edge"><title>Node1&#45;&gt;Node7</title>
<path fill="none" stroke="midnightblue" d="M26.2165,-164.235C34.4106,-144.99 49.6157,-115.967 72,-99.5 76.8033,-95.9664 81.9935,-92.8488 87.4175,-90.0982"/>
<polygon fill="midnightblue" stroke="midnightblue" points="22.8626,-163.195 22.3844,-173.779 29.3586,-165.803 22.8626,-163.195"/>
</g>
<!-- Node8 -->
<g id="node8" class="node"><title>Node8</title>
<g id="a_node8"><a xlink:href="$classtomoBayTests_1_1model_1_1services_1_1emailErrorsService_1_1EmailErrorsServiceTest.html#a8b260eecbaabcef8473fd87ada040682" xlink:title="tomoBayTests.model.services.email\lErrorsService.EmailErrorsServiceTest.main">
<polygon fill="white" stroke="black" points="82.5,-0.5 82.5,-30.5 288.5,-30.5 288.5,-0.5 82.5,-0.5"/>
<text text-anchor="start" x="90.5" y="-18.5" font-family="Helvetica,sans-Serif" font-size="10.00">tomoBayTests.model.services.email</text>
<text text-anchor="middle" x="185.5" y="-7.5" font-family="Helvetica,sans-Serif" font-size="10.00">ErrorsService.EmailErrorsServiceTest.main</text>
</a>
</g>
</g>
<!-- Node1&#45;&gt;Node8 -->
<g id="edge7" class="edge"><title>Node1&#45;&gt;Node8</title>
<path fill="none" stroke="midnightblue" d="M20.4097,-163.538C23.7419,-132.185 34.8883,-71.6677 72,-39.5 75.9236,-36.0991 80.2107,-33.1414 84.7469,-30.5721"/>
<polygon fill="midnightblue" stroke="midnightblue" points="16.9091,-163.39 19.502,-173.662 23.8811,-164.015 16.9091,-163.39"/>
</g>
</g>
</svg>
