<?xml version="1.0" encoding="UTF-8" standalone="no"?>
<!DOCTYPE svg PUBLIC "-//W3C//DTD SVG 1.1//EN"
 "http://www.w3.org/Graphics/SVG/1.1/DTD/svg11.dtd">
<!-- Generated by graphviz version 2.38.0 (20140413.2041)
 -->
<!-- Title: TestServiceFactory Pages: 1 -->
<svg width="127pt" height="160pt"
 viewBox="0.00 0.00 127.00 160.00" xmlns="http://www.w3.org/2000/svg" xmlns:xlink="http://www.w3.org/1999/xlink">
<g id="graph0" class="graph" transform="scale(1 1) rotate(0) translate(4 156)">
<title>TestServiceFactory</title>
<polygon fill="white" stroke="none" points="-4,4 -4,-156 123,-156 123,4 -4,4"/>
<!-- Node1 -->
<g id="node1" class="node"><title>Node1</title>
<polygon fill="#bfbfbf" stroke="black" points="8.5,-0.5 8.5,-57.5 110.5,-57.5 110.5,-0.5 8.5,-0.5"/>
<text text-anchor="middle" x="59.5" y="-45.5" font-family="Helvetica,sans-Serif" font-size="10.00">TestServiceFactory</text>
<polyline fill="none" stroke="black" points="8.5,-38.5 110.5,-38.5 "/>
<text text-anchor="middle" x="59.5" y="-26.5" font-family="Helvetica,sans-Serif" font-size="10.00"> </text>
<polyline fill="none" stroke="black" points="8.5,-19.5 110.5,-19.5 "/>
<text text-anchor="start" x="16.5" y="-7.5" font-family="Helvetica,sans-Serif" font-size="10.00">+ make()</text>
</g>
<!-- Node2 -->
<g id="node2" class="node"><title>Node2</title>
<g id="a_node2"><a xlink:href="$interfacetomoBay_1_1model_1_1services_1_1factories_1_1AbstractServiceFactory.html" xlink:title="This interface is the construct that all the Service factories must conform to. ">
<polygon fill="white" stroke="black" points="0,-94.5 0,-151.5 119,-151.5 119,-94.5 0,-94.5"/>
<text text-anchor="middle" x="59.5" y="-139.5" font-family="Helvetica,sans-Serif" font-size="10.00">AbstractServiceFactory</text>
<polyline fill="none" stroke="black" points="0,-132.5 119,-132.5 "/>
<text text-anchor="middle" x="59.5" y="-120.5" font-family="Helvetica,sans-Serif" font-size="10.00"> </text>
<polyline fill="none" stroke="black" points="0,-113.5 119,-113.5 "/>
<text text-anchor="start" x="8" y="-101.5" font-family="Helvetica,sans-Serif" font-size="10.00">+ make()</text>
</a>
</g>
</g>
<!-- Node2&#45;&gt;Node1 -->
<g id="edge1" class="edge"><title>Node2&#45;&gt;Node1</title>
<path fill="none" stroke="midnightblue" d="M59.5,-84.2092C59.5,-75.2929 59.5,-65.9513 59.5,-57.5836"/>
<polygon fill="none" stroke="midnightblue" points="56.0001,-84.3969 59.5,-94.397 63.0001,-84.397 56.0001,-84.3969"/>
</g>
</g>
</svg>
