<?xml version="1.0" encoding="UTF-8" standalone="no"?>
<!DOCTYPE svg PUBLIC "-//W3C//DTD SVG 1.1//EN"
 "http://www.w3.org/Graphics/SVG/1.1/DTD/svg11.dtd">
<!-- Generated by graphviz version 2.38.0 (20140413.2041)
 -->
<!-- Title: ErrorResult Pages: 1 -->
<svg width="142pt" height="226pt"
 viewBox="0.00 0.00 142.00 226.00" xmlns="http://www.w3.org/2000/svg" xmlns:xlink="http://www.w3.org/1999/xlink">
<g id="graph0" class="graph" transform="scale(1 1) rotate(0) translate(4 222)">
<title>ErrorResult</title>
<polygon fill="white" stroke="none" points="-4,4 -4,-222 138,-222 138,4 -4,4"/>
<!-- Node1 -->
<g id="node1" class="node"><title>Node1</title>
<polygon fill="#bfbfbf" stroke="black" points="22.5,-0.5 22.5,-101.5 111.5,-101.5 111.5,-0.5 22.5,-0.5"/>
<text text-anchor="middle" x="67" y="-89.5" font-family="Helvetica,sans-Serif" font-size="10.00">ErrorResult</text>
<polyline fill="none" stroke="black" points="22.5,-82.5 111.5,-82.5 "/>
<text text-anchor="start" x="30.5" y="-70.5" font-family="Helvetica,sans-Serif" font-size="10.00">&#45; itemStatus_M</text>
<text text-anchor="start" x="30.5" y="-59.5" font-family="Helvetica,sans-Serif" font-size="10.00">&#45; orderNo_M</text>
<text text-anchor="start" x="30.5" y="-48.5" font-family="Helvetica,sans-Serif" font-size="10.00">&#45; nextHandler_M</text>
<polyline fill="none" stroke="black" points="22.5,-41.5 111.5,-41.5 "/>
<text text-anchor="start" x="30.5" y="-29.5" font-family="Helvetica,sans-Serif" font-size="10.00">+ ErrorResult()</text>
<text text-anchor="start" x="30.5" y="-18.5" font-family="Helvetica,sans-Serif" font-size="10.00">+ result()</text>
<text text-anchor="start" x="30.5" y="-7.5" font-family="Helvetica,sans-Serif" font-size="10.00">+ result()</text>
</g>
<!-- Node2 -->
<g id="node2" class="node"><title>Node2</title>
<g id="a_node2"><a xlink:href="classtomoBay_1_1model_1_1dataTypes_1_1conditionalStatement_1_1Result.html" target="_top" xlink:title="This class defines the Abstract Base class for all derived Result classes. ">
<polygon fill="white" stroke="black" points="0,-138.5 0,-217.5 134,-217.5 134,-138.5 0,-138.5"/>
<text text-anchor="middle" x="67" y="-205.5" font-family="Helvetica,sans-Serif" font-size="10.00">Result&lt; PickeableStatus &gt;</text>
<polyline fill="none" stroke="black" points="0,-198.5 134,-198.5 "/>
<text text-anchor="middle" x="67" y="-186.5" font-family="Helvetica,sans-Serif" font-size="10.00"> </text>
<polyline fill="none" stroke="black" points="0,-179.5 134,-179.5 "/>
<text text-anchor="start" x="8" y="-167.5" font-family="Helvetica,sans-Serif" font-size="10.00">+ Result()</text>
<text text-anchor="start" x="8" y="-156.5" font-family="Helvetica,sans-Serif" font-size="10.00">+ result()</text>
<text text-anchor="start" x="8" y="-145.5" font-family="Helvetica,sans-Serif" font-size="10.00">+ result()</text>
</a>
</g>
</g>
<!-- Node2&#45;&gt;Node1 -->
<g id="edge1" class="edge"><title>Node2&#45;&gt;Node1</title>
<path fill="none" stroke="midnightblue" d="M67,-128.406C67,-119.639 67,-110.488 67,-101.691"/>
<polygon fill="none" stroke="midnightblue" points="63.5001,-128.476 67,-138.476 70.5001,-128.476 63.5001,-128.476"/>
</g>
</g>
</svg>
