<?xml version="1.0" encoding="UTF-8" standalone="no"?>
<!DOCTYPE svg PUBLIC "-//W3C//DTD SVG 1.1//EN"
 "http://www.w3.org/Graphics/SVG/1.1/DTD/svg11.dtd">
<!-- Generated by graphviz version 2.38.0 (20140413.2041)
 -->
<!-- Title: main Pages: 1 -->
<svg width="416pt" height="181pt"
 viewBox="0.00 0.00 416.00 181.00" xmlns="http://www.w3.org/2000/svg" xmlns:xlink="http://www.w3.org/1999/xlink">
<g id="graph0" class="graph" transform="scale(1 1) rotate(0) translate(4 177)">
<title>main</title>
<polygon fill="white" stroke="none" points="-4,4 -4,-177 412,-177 412,4 -4,4"/>
<!-- Node1 -->
<g id="node1" class="node"><title>Node1</title>
<polygon fill="#bfbfbf" stroke="black" points="0,-99 0,-118 38,-118 38,-99 0,-99"/>
<text text-anchor="middle" x="19" y="-106" font-family="Helvetica,sans-Serif" font-size="10.00">main</text>
</g>
<!-- Node2 -->
<g id="node2" class="node"><title>Node2</title>
<g id="a_node2"><a xlink:href="$classtomoBay_1_1model_1_1dataTypes_1_1ServerStatus.html#a5a970a0f69193c7d515425d3ade75334" xlink:title="retrieve an instance of this object ">
<polygon fill="white" stroke="black" points="81.5,-142.5 81.5,-172.5 218.5,-172.5 218.5,-142.5 81.5,-142.5"/>
<text text-anchor="start" x="89.5" y="-160.5" font-family="Helvetica,sans-Serif" font-size="10.00">tomoBay.model.dataTypes.</text>
<text text-anchor="middle" x="150" y="-149.5" font-family="Helvetica,sans-Serif" font-size="10.00">ServerStatus.instance</text>
</a>
</g>
</g>
<!-- Node1&#45;&gt;Node2 -->
<g id="edge1" class="edge"><title>Node1&#45;&gt;Node2</title>
<path fill="none" stroke="midnightblue" d="M38.25,-117.636C48.6007,-122.643 61.8716,-128.773 74,-133.5 79.0156,-135.455 84.2625,-137.376 89.5511,-139.228"/>
<polygon fill="midnightblue" stroke="midnightblue" points="88.4798,-142.56 99.0743,-142.478 90.741,-135.936 88.4798,-142.56"/>
</g>
<!-- Node3 -->
<g id="node3" class="node"><title>Node3</title>
<g id="a_node3"><a xlink:href="$classtomoBay_1_1model_1_1dataTypes_1_1ServerStatus.html#ae8ffecb6ba6ddfc3fab85af64f6350f5" xlink:title="tomoBay.model.dataTypes.\lServerStatus.setStatus">
<polygon fill="white" stroke="black" points="81.5,-93.5 81.5,-123.5 218.5,-123.5 218.5,-93.5 81.5,-93.5"/>
<text text-anchor="start" x="89.5" y="-111.5" font-family="Helvetica,sans-Serif" font-size="10.00">tomoBay.model.dataTypes.</text>
<text text-anchor="middle" x="150" y="-100.5" font-family="Helvetica,sans-Serif" font-size="10.00">ServerStatus.setStatus</text>
</a>
</g>
</g>
<!-- Node1&#45;&gt;Node3 -->
<g id="edge2" class="edge"><title>Node1&#45;&gt;Node3</title>
<path fill="none" stroke="midnightblue" d="M38.2089,-108.5C47.3059,-108.5 58.9995,-108.5 71.3657,-108.5"/>
<polygon fill="midnightblue" stroke="midnightblue" points="71.3906,-112 81.3905,-108.5 71.3905,-105 71.3906,-112"/>
</g>
<!-- Node4 -->
<g id="node4" class="node"><title>Node4</title>
<g id="a_node4"><a xlink:href="$classtomoBay_1_1view_1_1HttpServer.html#ae7f97f1bf228b80bf2c35a1cfe5c8c30" xlink:title="This starts the http servlet with 2 context handler: 1 is a resource handler that is responsible for ...">
<polygon fill="white" stroke="black" points="74,-55 74,-74 226,-74 226,-55 74,-55"/>
<text text-anchor="middle" x="150" y="-62" font-family="Helvetica,sans-Serif" font-size="10.00">tomoBay.view.HttpServer.start</text>
</a>
</g>
</g>
<!-- Node1&#45;&gt;Node4 -->
<g id="edge3" class="edge"><title>Node1&#45;&gt;Node4</title>
<path fill="none" stroke="midnightblue" d="M38.203,-99.5482C48.539,-94.6849 61.8108,-88.8037 74,-84.5 81.9459,-81.6945 90.4848,-79.0663 98.853,-76.6961"/>
<polygon fill="midnightblue" stroke="midnightblue" points="99.8335,-80.0565 108.552,-74.0371 97.9828,-73.3056 99.8335,-80.0565"/>
</g>
<!-- Node5 -->
<g id="node5" class="node"><title>Node5</title>
<g id="a_node5"><a xlink:href="$classtomoBay_1_1view_1_1HttpServer.html#a0c34b163e64bf808b5834997c2734543" xlink:title="do setup for the servlet handler ">
<polygon fill="white" stroke="black" points="262,-98.5 262,-128.5 408,-128.5 408,-98.5 262,-98.5"/>
<text text-anchor="start" x="270" y="-116.5" font-family="Helvetica,sans-Serif" font-size="10.00">tomoBay.view.HttpServer.set</text>
<text text-anchor="middle" x="335" y="-105.5" font-family="Helvetica,sans-Serif" font-size="10.00">UpDataServletHandler</text>
</a>
</g>
</g>
<!-- Node4&#45;&gt;Node5 -->
<g id="edge4" class="edge"><title>Node4&#45;&gt;Node5</title>
<path fill="none" stroke="midnightblue" d="M186.863,-74.0501C199.262,-77.3552 213.243,-81.0862 226,-84.5 239.582,-88.1345 254.123,-92.0335 267.993,-95.7565"/>
<polygon fill="midnightblue" stroke="midnightblue" points="267.385,-99.2172 277.951,-98.4301 269.2,-92.4567 267.385,-99.2172"/>
</g>
<!-- Node6 -->
<g id="node6" class="node"><title>Node6</title>
<g id="a_node6"><a xlink:href="$classtomoBay_1_1view_1_1HttpServer.html#a65b0b81d4aceba0f463e6fe36596760f" xlink:title="do setup for the static resource handler ">
<polygon fill="white" stroke="black" points="262,-49.5 262,-79.5 408,-79.5 408,-49.5 262,-49.5"/>
<text text-anchor="start" x="270" y="-67.5" font-family="Helvetica,sans-Serif" font-size="10.00">tomoBay.view.HttpServer.set</text>
<text text-anchor="middle" x="335" y="-56.5" font-family="Helvetica,sans-Serif" font-size="10.00">UpGuiHandler</text>
</a>
</g>
</g>
<!-- Node4&#45;&gt;Node6 -->
<g id="edge5" class="edge"><title>Node4&#45;&gt;Node6</title>
<path fill="none" stroke="midnightblue" d="M226.225,-64.5C234.565,-64.5 243.092,-64.5 251.516,-64.5"/>
<polygon fill="midnightblue" stroke="midnightblue" points="251.72,-68.0001 261.72,-64.5 251.72,-61.0001 251.72,-68.0001"/>
</g>
<!-- Node7 -->
<g id="node7" class="node"><title>Node7</title>
<g id="a_node7"><a xlink:href="$classtomoBay_1_1view_1_1HttpServer.html#a6b549ec85bbf44d0d9606964cad26097" xlink:title="set up the ssl server connector ">
<polygon fill="white" stroke="black" points="262.5,-0.5 262.5,-30.5 407.5,-30.5 407.5,-0.5 262.5,-0.5"/>
<text text-anchor="start" x="270.5" y="-18.5" font-family="Helvetica,sans-Serif" font-size="10.00">tomoBay.view.HttpServer.ssl</text>
<text text-anchor="middle" x="335" y="-7.5" font-family="Helvetica,sans-Serif" font-size="10.00">Connector</text>
</a>
</g>
</g>
<!-- Node4&#45;&gt;Node7 -->
<g id="edge6" class="edge"><title>Node4&#45;&gt;Node7</title>
<path fill="none" stroke="midnightblue" d="M186.719,-54.936C209.786,-48.7595 240.502,-40.5351 267.913,-33.1955"/>
<polygon fill="midnightblue" stroke="midnightblue" points="269.087,-36.5044 277.842,-30.537 267.277,-29.7426 269.087,-36.5044"/>
</g>
</g>
</svg>
