<?xml version="1.0" encoding="UTF-8" standalone="no"?>
<!DOCTYPE svg PUBLIC "-//W3C//DTD SVG 1.1//EN"
 "http://www.w3.org/Graphics/SVG/1.1/DTD/svg11.dtd">
<!-- Generated by graphviz version 2.38.0 (20140413.2041)
 -->
<!-- Title: description Pages: 1 -->
<svg width="815pt" height="50pt"
 viewBox="0.00 0.00 815.00 50.00" xmlns="http://www.w3.org/2000/svg" xmlns:xlink="http://www.w3.org/1999/xlink">
<g id="graph0" class="graph" transform="scale(1 1) rotate(0) translate(4 46)">
<title>description</title>
<polygon fill="white" stroke="none" points="-4,4 -4,-46 811,-46 811,4 -4,4"/>
<!-- Node1 -->
<g id="node1" class="node"><title>Node1</title>
<polygon fill="#bfbfbf" stroke="black" points="0,-11.5 0,-30.5 64,-30.5 64,-11.5 0,-11.5"/>
<text text-anchor="middle" x="32" y="-18.5" font-family="Helvetica,sans-Serif" font-size="10.00">description</text>
</g>
<!-- Node2 -->
<g id="node2" class="node"><title>Node2</title>
<g id="a_node2"><a xlink:href="$classtomoBay_1_1presenters_1_1presenterActions_1_1concreteActions_1_1OrderInfo.html#a703cbb509cdc01530f19b03f573120c9" xlink:title="formats the transaction information associated with this order ">
<polygon fill="white" stroke="black" points="100,-6 100,-36 334,-36 334,-6 100,-6"/>
<text text-anchor="start" x="108" y="-24" font-family="Helvetica,sans-Serif" font-size="10.00">tomoBay.presenters.presenter</text>
<text text-anchor="middle" x="217" y="-13" font-family="Helvetica,sans-Serif" font-size="10.00">Actions.concreteActions.OrderInfo.transactionInfo</text>
</a>
</g>
</g>
<!-- Node1&#45;&gt;Node2 -->
<g id="edge1" class="edge"><title>Node1&#45;&gt;Node2</title>
<path fill="none" stroke="midnightblue" d="M74.3119,-21C82.1953,-21 90.7984,-21 99.7428,-21"/>
<polygon fill="midnightblue" stroke="midnightblue" points="74.0435,-17.5001 64.0435,-21 74.0434,-24.5001 74.0435,-17.5001"/>
</g>
<!-- Node3 -->
<g id="node3" class="node"><title>Node3</title>
<g id="a_node3"><a xlink:href="$classtomoBay_1_1presenters_1_1presenterActions_1_1concreteActions_1_1OrderInfo.html#afeec1aeda079b77245edea1e74b25f33" xlink:title="assembles the various parts of the order and outputs it as a fully formed JSON string. ">
<polygon fill="white" stroke="black" points="370,-0.5 370,-41.5 567,-41.5 567,-0.5 370,-0.5"/>
<text text-anchor="start" x="378" y="-29.5" font-family="Helvetica,sans-Serif" font-size="10.00">tomoBay.presenters.presenter</text>
<text text-anchor="start" x="378" y="-18.5" font-family="Helvetica,sans-Serif" font-size="10.00">Actions.concreteActions.OrderInfo.format</text>
<text text-anchor="middle" x="468.5" y="-7.5" font-family="Helvetica,sans-Serif" font-size="10.00">Results</text>
</a>
</g>
</g>
<!-- Node2&#45;&gt;Node3 -->
<g id="edge2" class="edge"><title>Node2&#45;&gt;Node3</title>
<path fill="none" stroke="midnightblue" d="M344.61,-21C353.026,-21 361.431,-21 369.671,-21"/>
<polygon fill="midnightblue" stroke="midnightblue" points="344.35,-17.5001 334.35,-21 344.35,-24.5001 344.35,-17.5001"/>
</g>
<!-- Node4 -->
<g id="node4" class="node"><title>Node4</title>
<g id="a_node4"><a xlink:href="$classtomoBay_1_1presenters_1_1presenterActions_1_1concreteActions_1_1OrderInfo.html#adb3dedf31dc2c7fc796f20406c235ccd" xlink:title="performs the action specified ">
<polygon fill="white" stroke="black" points="603,-6 603,-36 807,-36 807,-6 603,-6"/>
<text text-anchor="start" x="611" y="-24" font-family="Helvetica,sans-Serif" font-size="10.00">tomoBay.presenters.presenter</text>
<text text-anchor="middle" x="705" y="-13" font-family="Helvetica,sans-Serif" font-size="10.00">Actions.concreteActions.OrderInfo.execute</text>
</a>
</g>
</g>
<!-- Node3&#45;&gt;Node4 -->
<g id="edge3" class="edge"><title>Node3&#45;&gt;Node4</title>
<path fill="none" stroke="midnightblue" d="M577.441,-21C585.831,-21 594.285,-21 602.629,-21"/>
<polygon fill="midnightblue" stroke="midnightblue" points="577.251,-17.5001 567.251,-21 577.251,-24.5001 577.251,-17.5001"/>
</g>
</g>
</svg>
