<?xml version="1.0" encoding="UTF-8" standalone="no"?>
<!DOCTYPE svg PUBLIC "-//W3C//DTD SVG 1.1//EN"
 "http://www.w3.org/Graphics/SVG/1.1/DTD/svg11.dtd">
<!-- Generated by graphviz version 2.38.0 (20140413.2041)
 -->
<!-- Title: test Pages: 1 -->
<svg width="298pt" height="207pt"
 viewBox="0.00 0.00 298.00 206.50" xmlns="http://www.w3.org/2000/svg" xmlns:xlink="http://www.w3.org/1999/xlink">
<g id="graph0" class="graph" transform="scale(1 1) rotate(0) translate(4 202.5)">
<title>test</title>
<polygon fill="white" stroke="none" points="-4,4 -4,-202.5 294,-202.5 294,4 -4,4"/>
<!-- Node1 -->
<g id="node1" class="node"><title>Node1</title>
<polygon fill="#bfbfbf" stroke="black" points="0,-92.5 0,-111.5 33,-111.5 33,-92.5 0,-92.5"/>
<text text-anchor="middle" x="16.5" y="-99.5" font-family="Helvetica,sans-Serif" font-size="10.00">test</text>
</g>
<!-- Node2 -->
<g id="node2" class="node"><title>Node2</title>
<g id="a_node2"><a xlink:href="classtomoBay_1_1model_1_1winstock_1_1WinstockCommandInvoker.html#af1434b0b82b0016e3a50a6aaecc770c2" target="_top" xlink:title="This method executes the AbstractWinstockCommand that the user has requested. ">
<polygon fill="white" stroke="black" points="94,-168 94,-198 265,-198 265,-168 94,-168"/>
<text text-anchor="start" x="102" y="-186" font-family="Helvetica,sans-Serif" font-size="10.00">tomoBay.model.winstock.Winstock</text>
<text text-anchor="middle" x="179.5" y="-175" font-family="Helvetica,sans-Serif" font-size="10.00">CommandInvoker.execute</text>
</a>
</g>
</g>
<!-- Node1&#45;&gt;Node2 -->
<g id="edge1" class="edge"><title>Node1&#45;&gt;Node2</title>
<path fill="none" stroke="midnightblue" d="M23.4971,-111.768C31.9702,-124.694 48.6992,-147.217 69,-159 73.8391,-161.809 78.9724,-164.289 84.2727,-166.48"/>
<polygon fill="midnightblue" stroke="midnightblue" points="83.3741,-169.881 93.9663,-170.119 85.834,-163.328 83.3741,-169.881"/>
</g>
<!-- Node3 -->
<g id="node3" class="node"><title>Node3</title>
<g id="a_node3"><a xlink:href="interfacetomoBay_1_1model_1_1winstock_1_1response_1_1AbstractWinstockCommandResponse.html#a08c6f0c352333a33e51f637c8e34551d" target="_top" xlink:title="method used to retrieve the results of the AbstractWinstockCommand associated with this AbstractWinst...">
<polygon fill="white" stroke="black" points="79.5,-108.5 79.5,-149.5 279.5,-149.5 279.5,-108.5 79.5,-108.5"/>
<text text-anchor="start" x="87.5" y="-137.5" font-family="Helvetica,sans-Serif" font-size="10.00">tomoBay.model.winstock.response.</text>
<text text-anchor="start" x="87.5" y="-126.5" font-family="Helvetica,sans-Serif" font-size="10.00">AbstractWinstockCommandResponse.get</text>
<text text-anchor="middle" x="179.5" y="-115.5" font-family="Helvetica,sans-Serif" font-size="10.00">Recieved</text>
</a>
</g>
</g>
<!-- Node1&#45;&gt;Node3 -->
<g id="edge2" class="edge"><title>Node1&#45;&gt;Node3</title>
<path fill="none" stroke="midnightblue" d="M33.2305,-104.638C42.5524,-106.201 55.2759,-108.335 69.342,-110.694"/>
<polygon fill="midnightblue" stroke="midnightblue" points="68.8281,-114.157 79.2693,-112.359 69.9859,-107.253 68.8281,-114.157"/>
</g>
<!-- Node4 -->
<g id="node4" class="node"><title>Node4</title>
<g id="a_node4"><a xlink:href="interfacetomoBay_1_1model_1_1winstock_1_1response_1_1AbstractWinstockCommandResponse.html#a67118030d9d2e2b70642882a2964794a" target="_top" xlink:title="method used to retrieve the data sent to the socket. ">
<polygon fill="white" stroke="black" points="69,-60 69,-90 290,-90 290,-60 69,-60"/>
<text text-anchor="start" x="77" y="-78" font-family="Helvetica,sans-Serif" font-size="10.00">tomoBay.model.winstock.response.</text>
<text text-anchor="middle" x="179.5" y="-67" font-family="Helvetica,sans-Serif" font-size="10.00">AbstractWinstockCommandResponse.getSent</text>
</a>
</g>
</g>
<!-- Node1&#45;&gt;Node4 -->
<g id="edge3" class="edge"><title>Node1&#45;&gt;Node4</title>
<path fill="none" stroke="midnightblue" d="M33.2305,-99.362C44.6467,-97.4474 61.1647,-94.6773 79.0026,-91.6859"/>
<polygon fill="midnightblue" stroke="midnightblue" points="79.7409,-95.111 89.0243,-90.0052 78.5831,-88.2074 79.7409,-95.111"/>
</g>
<!-- Node5 -->
<g id="node5" class="node"><title>Node5</title>
<g id="a_node5"><a xlink:href="interfacetomoBay_1_1model_1_1winstock_1_1response_1_1AbstractWinstockCommandResponse.html#a94c43012f032cf0ad0acc1d6a6047cf6" target="_top" xlink:title="method of descerning whether the AbstractWinstockCommand associated with this AbstractWinstockCommand...">
<polygon fill="white" stroke="black" points="82.5,-0.5 82.5,-41.5 276.5,-41.5 276.5,-0.5 82.5,-0.5"/>
<text text-anchor="start" x="90.5" y="-29.5" font-family="Helvetica,sans-Serif" font-size="10.00">tomoBay.model.winstock.response.</text>
<text text-anchor="start" x="90.5" y="-18.5" font-family="Helvetica,sans-Serif" font-size="10.00">AbstractWinstockCommandResponse.is</text>
<text text-anchor="middle" x="179.5" y="-7.5" font-family="Helvetica,sans-Serif" font-size="10.00">Success</text>
</a>
</g>
</g>
<!-- Node1&#45;&gt;Node5 -->
<g id="edge4" class="edge"><title>Node1&#45;&gt;Node5</title>
<path fill="none" stroke="midnightblue" d="M24.7603,-92.2238C33.8454,-80.6807 50.4784,-61.7025 69,-51 72.264,-49.1139 75.6514,-47.3423 79.1256,-45.6784"/>
<polygon fill="midnightblue" stroke="midnightblue" points="80.7771,-48.7748 88.4996,-41.5213 77.9393,-42.3758 80.7771,-48.7748"/>
</g>
</g>
</svg>
