<?xml version="1.0" encoding="UTF-8" standalone="no"?>
<!DOCTYPE svg PUBLIC "-//W3C//DTD SVG 1.1//EN"
 "http://www.w3.org/Graphics/SVG/1.1/DTD/svg11.dtd">
<!-- Generated by graphviz version 2.38.0 (20140413.2041)
 -->
<!-- Title: setFLOATParam Pages: 1 -->
<svg width="548pt" height="99pt"
 viewBox="0.00 0.00 548.00 98.50" xmlns="http://www.w3.org/2000/svg" xmlns:xlink="http://www.w3.org/1999/xlink">
<g id="graph0" class="graph" transform="scale(1 1) rotate(0) translate(4 94.5)">
<title>setFLOATParam</title>
<polygon fill="white" stroke="none" points="-4,4 -4,-94.5 544,-94.5 544,4 -4,4"/>
<!-- Node1 -->
<g id="node1" class="node"><title>Node1</title>
<polygon fill="#bfbfbf" stroke="black" points="0,-33 0,-52 90,-52 90,-33 0,-33"/>
<text text-anchor="middle" x="45" y="-40" font-family="Helvetica,sans-Serif" font-size="10.00">setFLOATParam</text>
</g>
<!-- Node2 -->
<g id="node2" class="node"><title>Node2</title>
<g id="a_node2"><a xlink:href="$classtomoBay_1_1model_1_1dataTypes_1_1heteroTypeContainer_1_1HeteroFieldContainer.html#a988363ab964d6dc0ccb8560bef5895b6" xlink:title="retrieve the the value of an AbstractField from this HeteroFieldContainer, the field should be of the...">
<polygon fill="white" stroke="black" points="126,-52.5 126,-82.5 318,-82.5 318,-52.5 126,-52.5"/>
<text text-anchor="start" x="134" y="-70.5" font-family="Helvetica,sans-Serif" font-size="10.00">tomoBay.model.dataTypes.hetero</text>
<text text-anchor="middle" x="222" y="-59.5" font-family="Helvetica,sans-Serif" font-size="10.00">TypeContainer.HeteroFieldContainer.get</text>
</a>
</g>
</g>
<!-- Node1&#45;&gt;Node2 -->
<g id="edge1" class="edge"><title>Node1&#45;&gt;Node2</title>
<path fill="none" stroke="midnightblue" d="M90.1599,-48.8086C98.1788,-49.9541 106.847,-51.1925 115.773,-52.4675"/>
<polygon fill="midnightblue" stroke="midnightblue" points="115.544,-55.9703 125.938,-53.9197 116.534,-49.0406 115.544,-55.9703"/>
</g>
<!-- Node4 -->
<g id="node4" class="node"><title>Node4</title>
<g id="a_node4"><a xlink:href="$classtomoBay_1_1model_1_1sql_1_1framework_1_1queryTypes_1_1AbstractDBQuery.html#a41678b13e84de4335130f10cea7ae562" xlink:title="get the statement object associated with this query ">
<polygon fill="white" stroke="black" points="134,-2.5 134,-32.5 310,-32.5 310,-2.5 134,-2.5"/>
<text text-anchor="start" x="142" y="-20.5" font-family="Helvetica,sans-Serif" font-size="10.00">tomoBay.model.sql.framework.query</text>
<text text-anchor="middle" x="222" y="-9.5" font-family="Helvetica,sans-Serif" font-size="10.00">Types.AbstractDBQuery.statement</text>
</a>
</g>
</g>
<!-- Node1&#45;&gt;Node4 -->
<g id="edge3" class="edge"><title>Node1&#45;&gt;Node4</title>
<path fill="none" stroke="midnightblue" d="M90.1599,-36.1914C100.602,-34.6997 112.145,-33.0507 123.923,-31.3681"/>
<polygon fill="midnightblue" stroke="midnightblue" points="124.448,-34.8288 133.852,-29.9496 123.458,-27.8991 124.448,-34.8288"/>
</g>
<!-- Node3 -->
<g id="node3" class="node"><title>Node3</title>
<g id="a_node3"><a xlink:href="$classtomoBay_1_1model_1_1dataTypes_1_1heteroTypeContainer_1_1HeteroFieldContainer.html#a9dee3c01eb5ab16203e1c6820a569484" xlink:title="performs a type check, assuming that field and type are of the same type then this method returns tru...">
<polygon fill="white" stroke="black" points="354,-49 354,-90 540,-90 540,-49 354,-49"/>
<text text-anchor="start" x="362" y="-78" font-family="Helvetica,sans-Serif" font-size="10.00">tomoBay.model.dataTypes.hetero</text>
<text text-anchor="start" x="362" y="-67" font-family="Helvetica,sans-Serif" font-size="10.00">TypeContainer.HeteroFieldContainer.is</text>
<text text-anchor="middle" x="447" y="-56" font-family="Helvetica,sans-Serif" font-size="10.00">SameType</text>
</a>
</g>
</g>
<!-- Node2&#45;&gt;Node3 -->
<g id="edge2" class="edge"><title>Node2&#45;&gt;Node3</title>
<path fill="none" stroke="midnightblue" d="M318.219,-68.354C326.728,-68.4303 335.365,-68.5078 343.929,-68.5846"/>
<polygon fill="midnightblue" stroke="midnightblue" points="343.903,-72.0844 353.934,-68.6743 343.966,-65.0847 343.903,-72.0844"/>
</g>
<!-- Node5 -->
<g id="node5" class="node"><title>Node5</title>
<g id="a_node5"><a xlink:href="$classtomoBay_1_1model_1_1sql_1_1framework_1_1queryTypes_1_1AbstractDBQuery.html#ae8a5c5f1701ee77ef658050c8345d518" xlink:title="Used by derived classes to define the Query string to be used in the query. ">
<polygon fill="white" stroke="black" points="359,-0.5 359,-30.5 535,-30.5 535,-0.5 359,-0.5"/>
<text text-anchor="start" x="367" y="-18.5" font-family="Helvetica,sans-Serif" font-size="10.00">tomoBay.model.sql.framework.query</text>
<text text-anchor="middle" x="447" y="-7.5" font-family="Helvetica,sans-Serif" font-size="10.00">Types.AbstractDBQuery.queryString</text>
</a>
</g>
</g>
<!-- Node4&#45;&gt;Node5 -->
<g id="edge4" class="edge"><title>Node4&#45;&gt;Node5</title>
<path fill="none" stroke="midnightblue" d="M310.176,-16.7182C322.803,-16.6049 335.868,-16.4877 348.678,-16.3728"/>
<polygon fill="midnightblue" stroke="midnightblue" points="348.917,-19.8709 358.885,-16.2813 348.854,-12.8712 348.917,-19.8709"/>
</g>
</g>
</svg>
