<?xml version="1.0" encoding="UTF-8" standalone="no"?>
<!DOCTYPE svg PUBLIC "-//W3C//DTD SVG 1.1//EN"
 "http://www.w3.org/Graphics/SVG/1.1/DTD/svg11.dtd">
<!-- Generated by graphviz version 2.38.0 (20140413.2041)
 -->
<!-- Title: populateGSP Pages: 1 -->
<svg width="842pt" height="50pt"
 viewBox="0.00 0.00 842.00 50.00" xmlns="http://www.w3.org/2000/svg" xmlns:xlink="http://www.w3.org/1999/xlink">
<g id="graph0" class="graph" transform="scale(1 1) rotate(0) translate(4 46)">
<title>populateGSP</title>
<polygon fill="white" stroke="none" points="-4,4 -4,-46 838,-46 838,4 -4,4"/>
<!-- Node1 -->
<g id="node1" class="node"><title>Node1</title>
<polygon fill="#bfbfbf" stroke="black" points="0,-11.5 0,-30.5 74,-30.5 74,-11.5 0,-11.5"/>
<text text-anchor="middle" x="37" y="-18.5" font-family="Helvetica,sans-Serif" font-size="10.00">populateGSP</text>
</g>
<!-- Node2 -->
<g id="node2" class="node"><title>Node2</title>
<g id="a_node2"><a xlink:href="$classtomoBay_1_1model_1_1services_1_1basicEbayUpdateService_1_1Orders__Table.html#abb8f83ca32eba7defe488f4d08be8c74" xlink:title="populates the Orders Table in the database with data grabbed from the ebay API ">
<polygon fill="white" stroke="black" points="110,-11.5 110,-30.5 163,-30.5 163,-11.5 110,-11.5"/>
<text text-anchor="middle" x="136.5" y="-18.5" font-family="Helvetica,sans-Serif" font-size="10.00">populate</text>
</a>
</g>
</g>
<!-- Node1&#45;&gt;Node2 -->
<g id="edge1" class="edge"><title>Node1&#45;&gt;Node2</title>
<path fill="none" stroke="midnightblue" d="M84.2875,-21C93.1286,-21 102.078,-21 109.969,-21"/>
<polygon fill="midnightblue" stroke="midnightblue" points="84.0284,-17.5001 74.0284,-21 84.0284,-24.5001 84.0284,-17.5001"/>
</g>
<!-- Node3 -->
<g id="node3" class="node"><title>Node3</title>
<g id="a_node3"><a xlink:href="$classtomoBay_1_1model_1_1services_1_1basicEbayUpdateService_1_1OnRunning.html#ae4a4f4cadce2787c7e80005639fbd5d9" xlink:title="this method defines what to do in the given derived state ">
<polygon fill="white" stroke="black" points="199,-6 199,-36 392,-36 392,-6 199,-6"/>
<text text-anchor="start" x="207" y="-24" font-family="Helvetica,sans-Serif" font-size="10.00">tomoBay.model.services.basic</text>
<text text-anchor="middle" x="295.5" y="-13" font-family="Helvetica,sans-Serif" font-size="10.00">EbayUpdateService.OnRunning.execute</text>
</a>
</g>
</g>
<!-- Node2&#45;&gt;Node3 -->
<g id="edge2" class="edge"><title>Node2&#45;&gt;Node3</title>
<path fill="none" stroke="midnightblue" d="M173.207,-21C181.045,-21 189.703,-21 198.679,-21"/>
<polygon fill="midnightblue" stroke="midnightblue" points="173.074,-17.5001 163.074,-21 173.074,-24.5001 173.074,-17.5001"/>
</g>
<!-- Node4 -->
<g id="node4" class="node"><title>Node4</title>
<g id="a_node4"><a xlink:href="$classtomoBay_1_1model_1_1services_1_1basicEbayUpdateService_1_1BasicEbayUpdateService.html#ae3b0a282dcba7f2d675ca89b1dd48487" xlink:title="tomoBay.model.services.basic\lEbayUpdateService.BasicEbayUpdate\lService.onRunning">
<polygon fill="white" stroke="black" points="428,-0.5 428,-41.5 613,-41.5 613,-0.5 428,-0.5"/>
<text text-anchor="start" x="436" y="-29.5" font-family="Helvetica,sans-Serif" font-size="10.00">tomoBay.model.services.basic</text>
<text text-anchor="start" x="436" y="-18.5" font-family="Helvetica,sans-Serif" font-size="10.00">EbayUpdateService.BasicEbayUpdate</text>
<text text-anchor="middle" x="520.5" y="-7.5" font-family="Helvetica,sans-Serif" font-size="10.00">Service.onRunning</text>
</a>
</g>
</g>
<!-- Node3&#45;&gt;Node4 -->
<g id="edge3" class="edge"><title>Node3&#45;&gt;Node4</title>
<path fill="none" stroke="midnightblue" d="M402.063,-21C410.627,-21 419.238,-21 427.694,-21"/>
<polygon fill="midnightblue" stroke="midnightblue" points="402.043,-17.5001 392.043,-21 402.042,-24.5001 402.043,-17.5001"/>
</g>
<!-- Node5 -->
<g id="node5" class="node"><title>Node5</title>
<g id="a_node5"><a xlink:href="$classtomoBay_1_1model_1_1services_1_1basicEbayUpdateService_1_1BasicEbayUpdateService.html#afd85cd6baa355d54ab15c19c16c21df9" xlink:title="tomoBay.model.services.basic\lEbayUpdateService.BasicEbayUpdate\lService.onPaused">
<polygon fill="white" stroke="black" points="649,-0.5 649,-41.5 834,-41.5 834,-0.5 649,-0.5"/>
<text text-anchor="start" x="657" y="-29.5" font-family="Helvetica,sans-Serif" font-size="10.00">tomoBay.model.services.basic</text>
<text text-anchor="start" x="657" y="-18.5" font-family="Helvetica,sans-Serif" font-size="10.00">EbayUpdateService.BasicEbayUpdate</text>
<text text-anchor="middle" x="741.5" y="-7.5" font-family="Helvetica,sans-Serif" font-size="10.00">Service.onPaused</text>
</a>
</g>
</g>
<!-- Node4&#45;&gt;Node5 -->
<g id="edge4" class="edge"><title>Node4&#45;&gt;Node5</title>
<path fill="none" stroke="midnightblue" d="M623.151,-21C631.743,-21 640.4,-21 648.908,-21"/>
<polygon fill="midnightblue" stroke="midnightblue" points="623.107,-17.5001 613.107,-21 623.107,-24.5001 623.107,-17.5001"/>
</g>
</g>
</svg>
