<?xml version="1.0" encoding="UTF-8" standalone="no"?>
<!DOCTYPE svg PUBLIC "-//W3C//DTD SVG 1.1//EN"
 "http://www.w3.org/Graphics/SVG/1.1/DTD/svg11.dtd">
<!-- Generated by graphviz version 2.38.0 (20140413.2041)
 -->
<!-- Title: Graphical Class Hierarchy Pages: 1 -->
<svg width="716pt" height="1044pt"
 viewBox="0.00 0.00 716.00 1044.00" xmlns="http://www.w3.org/2000/svg" xmlns:xlink="http://www.w3.org/1999/xlink">
<g id="graph0" class="graph" transform="scale(1 1) rotate(0) translate(4 1040)">
<title>Graphical Class Hierarchy</title>
<polygon fill="white" stroke="none" points="-4,4 -4,-1040 712,-1040 712,4 -4,4"/>
<!-- Node1 -->
<g id="node1" class="node"><title>Node1</title>
<g id="a_node1"><a xlink:href="interfacetomoBay_1_1model_1_1sql_1_1framework_1_1queryFactories_1_1AbstractQueryFactory.html" target="_top" xlink:title="all Queries are instantiated using a factory and each of these factories must conform to this interfa...">
<polygon fill="white" stroke="black" points="0,-501 0,-520 113,-520 113,-501 0,-501"/>
<text text-anchor="middle" x="56.5" y="-508" font-family="Helvetica,sans-Serif" font-size="10.00">AbstractQueryFactory</text>
</a>
</g>
</g>
<!-- Node2 -->
<g id="node2" class="node"><title>Node2</title>
<g id="a_node2"><a xlink:href="interfacetomoBay_1_1model_1_1sql_1_1framework_1_1queryFactories_1_1AbstractModifyQueryFactory.html" target="_top" xlink:title="AbstractModifyQueryFactory">
<polygon fill="white" stroke="black" points="149,-765 149,-784 291,-784 291,-765 149,-765"/>
<text text-anchor="middle" x="220" y="-772" font-family="Helvetica,sans-Serif" font-size="10.00">AbstractModifyQueryFactory</text>
</a>
</g>
</g>
<!-- Node1&#45;&gt;Node2 -->
<g id="edge1" class="edge"><title>Node1&#45;&gt;Node2</title>
<path fill="none" stroke="midnightblue" d="M68.8287,-529.019C100.562,-580.892 189.546,-726.352 213.177,-764.981"/>
<polygon fill="midnightblue" stroke="midnightblue" points="71.6435,-526.913 63.4394,-520.209 65.6722,-530.566 71.6435,-526.913"/>
</g>
<!-- Node18 -->
<g id="node18" class="node"><title>Node18</title>
<g id="a_node18"><a xlink:href="interfacetomoBay_1_1model_1_1sql_1_1framework_1_1queryFactories_1_1AbstractSelectParamsQueryFactory.html" target="_top" xlink:title="AbstractSelectParamsQuery\lFactory">
<polygon fill="white" stroke="black" points="149.5,-495.5 149.5,-525.5 290.5,-525.5 290.5,-495.5 149.5,-495.5"/>
<text text-anchor="start" x="157.5" y="-513.5" font-family="Helvetica,sans-Serif" font-size="10.00">AbstractSelectParamsQuery</text>
<text text-anchor="middle" x="220" y="-502.5" font-family="Helvetica,sans-Serif" font-size="10.00">Factory</text>
</a>
</g>
</g>
<!-- Node1&#45;&gt;Node18 -->
<g id="edge17" class="edge"><title>Node1&#45;&gt;Node18</title>
<path fill="none" stroke="midnightblue" d="M123.094,-510.5C131.74,-510.5 140.626,-510.5 149.338,-510.5"/>
<polygon fill="midnightblue" stroke="midnightblue" points="123.079,-507 113.079,-510.5 123.079,-514 123.079,-507"/>
</g>
<!-- Node31 -->
<g id="node31" class="node"><title>Node31</title>
<g id="a_node31"><a xlink:href="interfacetomoBay_1_1model_1_1sql_1_1framework_1_1queryFactories_1_1AbstractSelectQueryFactory.html" target="_top" xlink:title="AbstractSelectQueryFactory">
<polygon fill="white" stroke="black" points="150,-351 150,-370 290,-370 290,-351 150,-351"/>
<text text-anchor="middle" x="220" y="-358" font-family="Helvetica,sans-Serif" font-size="10.00">AbstractSelectQueryFactory</text>
</a>
</g>
</g>
<!-- Node1&#45;&gt;Node31 -->
<g id="edge30" class="edge"><title>Node1&#45;&gt;Node31</title>
<path fill="none" stroke="midnightblue" d="M75.4551,-493.823C109.313,-462.377 181.609,-395.228 208.574,-370.183"/>
<polygon fill="midnightblue" stroke="midnightblue" points="73.0417,-491.288 68.0965,-500.658 77.8055,-496.417 73.0417,-491.288"/>
</g>
<!-- Node3 -->
<g id="node3" class="node"><title>Node3</title>
<g id="a_node3"><a xlink:href="interfacetomoBay_1_1model_1_1sql_1_1framework_1_1queryFactories_1_1AbstractModifyQueryNoParamsFactory.html" target="_top" xlink:title="Copyright(C) 2015 Jan P.C. ">
<polygon fill="white" stroke="black" points="336,-808.5 336,-838.5 491,-838.5 491,-808.5 336,-808.5"/>
<text text-anchor="start" x="344" y="-826.5" font-family="Helvetica,sans-Serif" font-size="10.00">AbstractModifyQueryNoParams</text>
<text text-anchor="middle" x="413.5" y="-815.5" font-family="Helvetica,sans-Serif" font-size="10.00">Factory</text>
</a>
</g>
</g>
<!-- Node2&#45;&gt;Node3 -->
<g id="edge2" class="edge"><title>Node2&#45;&gt;Node3</title>
<path fill="none" stroke="midnightblue" d="M268.296,-786.602C294.114,-793.208 326.314,-801.447 353.733,-808.463"/>
<polygon fill="midnightblue" stroke="midnightblue" points="268.933,-783.152 258.378,-784.064 267.198,-789.934 268.933,-783.152"/>
</g>
<!-- Node4 -->
<g id="node4" class="node"><title>Node4</title>
<g id="a_node4"><a xlink:href="interfacetomoBay_1_1model_1_1sql_1_1framework_1_1queryFactories_1_1AbstractModifyQueryParamsFactory.html" target="_top" xlink:title="AbstractModifyQueryParams\lFactory">
<polygon fill="white" stroke="black" points="342,-759.5 342,-789.5 485,-789.5 485,-759.5 342,-759.5"/>
<text text-anchor="start" x="350" y="-777.5" font-family="Helvetica,sans-Serif" font-size="10.00">AbstractModifyQueryParams</text>
<text text-anchor="middle" x="413.5" y="-766.5" font-family="Helvetica,sans-Serif" font-size="10.00">Factory</text>
</a>
</g>
</g>
<!-- Node2&#45;&gt;Node4 -->
<g id="edge3" class="edge"><title>Node2&#45;&gt;Node4</title>
<path fill="none" stroke="midnightblue" d="M301.42,-774.5C314.888,-774.5 328.772,-774.5 341.968,-774.5"/>
<polygon fill="midnightblue" stroke="midnightblue" points="301.22,-771 291.22,-774.5 301.22,-778 301.22,-771"/>
</g>
<!-- Node5 -->
<g id="node5" class="node"><title>Node5</title>
<g id="a_node5"><a xlink:href="classtomoBay_1_1model_1_1sql_1_1queries_1_1factories_1_1delete_1_1DeleteOrderFromOrderStatusFactory.html" target="_top" xlink:title="factory that makes a DeleteOrderFromOrderStatus object. ">
<polygon fill="white" stroke="black" points="550,-1005.5 550,-1035.5 694,-1035.5 694,-1005.5 550,-1005.5"/>
<text text-anchor="start" x="558" y="-1023.5" font-family="Helvetica,sans-Serif" font-size="10.00">DeleteOrderFromOrderStatus</text>
<text text-anchor="middle" x="622" y="-1012.5" font-family="Helvetica,sans-Serif" font-size="10.00">Factory</text>
</a>
</g>
</g>
<!-- Node4&#45;&gt;Node5 -->
<g id="edge4" class="edge"><title>Node4&#45;&gt;Node5</title>
<path fill="none" stroke="midnightblue" d="M493.517,-793.434C495.835,-795.277 498.009,-797.293 500,-799.5 559.326,-865.263 476.726,-929.69 536,-995.5 540.015,-999.957 544.779,-1003.64 549.971,-1006.67"/>
<polygon fill="midnightblue" stroke="midnightblue" points="495.392,-790.478 485.136,-787.819 491.496,-796.293 495.392,-790.478"/>
</g>
<!-- Node6 -->
<g id="node6" class="node"><title>Node6</title>
<g id="a_node6"><a xlink:href="classtomoBay_1_1model_1_1sql_1_1queries_1_1factories_1_1insert_1_1InsertEbayBuyersFactory.html" target="_top" xlink:title="Creates an InsertEbayBuyers query object. ">
<polygon fill="white" stroke="black" points="558,-967 558,-986 686,-986 686,-967 558,-967"/>
<text text-anchor="middle" x="622" y="-974" font-family="Helvetica,sans-Serif" font-size="10.00">InsertEbayBuyersFactory</text>
</a>
</g>
</g>
<!-- Node4&#45;&gt;Node6 -->
<g id="edge5" class="edge"><title>Node4&#45;&gt;Node6</title>
<path fill="none" stroke="midnightblue" d="M494.026,-794.034C496.144,-795.711 498.145,-797.529 500,-799.5 549.365,-851.943 484.968,-906.678 536,-957.5 542.107,-963.582 549.709,-967.898 557.836,-970.932"/>
<polygon fill="midnightblue" stroke="midnightblue" points="495.596,-790.875 485.334,-788.239 491.713,-796.699 495.596,-790.875"/>
</g>
<!-- Node7 -->
<g id="node7" class="node"><title>Node7</title>
<g id="a_node7"><a xlink:href="classtomoBay_1_1model_1_1sql_1_1queries_1_1factories_1_1insert_1_1InsertEbayItemsFactory.html" target="_top" xlink:title="creates an InsertEbayItems query object ">
<polygon fill="white" stroke="black" points="561,-929 561,-948 683,-948 683,-929 561,-929"/>
<text text-anchor="middle" x="622" y="-936" font-family="Helvetica,sans-Serif" font-size="10.00">InsertEbayItemsFactory</text>
</a>
</g>
</g>
<!-- Node4&#45;&gt;Node7 -->
<g id="edge6" class="edge"><title>Node4&#45;&gt;Node7</title>
<path fill="none" stroke="midnightblue" d="M493.856,-794.2C496.022,-795.83 498.08,-797.593 500,-799.5 539.51,-838.735 495.244,-881.56 536,-919.5 542.973,-925.991 551.661,-930.438 560.799,-933.453"/>
<polygon fill="midnightblue" stroke="midnightblue" points="495.326,-790.986 485.015,-788.55 491.557,-796.884 495.326,-790.986"/>
</g>
<!-- Node8 -->
<g id="node8" class="node"><title>Node8</title>
<g id="a_node8"><a xlink:href="classtomoBay_1_1model_1_1sql_1_1queries_1_1factories_1_1insert_1_1InsertEbayOrdersFactory.html" target="_top" xlink:title="creates an InsertEbayOrders query object ">
<polygon fill="white" stroke="black" points="559,-891 559,-910 685,-910 685,-891 559,-891"/>
<text text-anchor="middle" x="622" y="-898" font-family="Helvetica,sans-Serif" font-size="10.00">InsertEbayOrdersFactory</text>
</a>
</g>
</g>
<!-- Node4&#45;&gt;Node8 -->
<g id="edge7" class="edge"><title>Node4&#45;&gt;Node8</title>
<path fill="none" stroke="midnightblue" d="M493.898,-794.747C496.027,-796.221 498.068,-797.803 500,-799.5 529.903,-825.768 505.265,-856.21 536,-881.5 542.656,-886.976 550.561,-890.956 558.83,-893.834"/>
<polygon fill="midnightblue" stroke="midnightblue" points="495.675,-791.731 485.303,-789.573 492.066,-797.729 495.675,-791.731"/>
</g>
<!-- Node9 -->
<g id="node9" class="node"><title>Node9</title>
<g id="a_node9"><a xlink:href="classtomoBay_1_1model_1_1sql_1_1queries_1_1factories_1_1insert_1_1InsertEbayTransactionsFactory.html" target="_top" xlink:title="creates an InsertEbayTransactions query object ">
<polygon fill="white" stroke="black" points="545.5,-853 545.5,-872 698.5,-872 698.5,-853 545.5,-853"/>
<text text-anchor="middle" x="622" y="-860" font-family="Helvetica,sans-Serif" font-size="10.00">InsertEbayTransactionsFactory</text>
</a>
</g>
</g>
<!-- Node4&#45;&gt;Node9 -->
<g id="edge8" class="edge"><title>Node4&#45;&gt;Node9</title>
<path fill="none" stroke="midnightblue" d="M490.301,-793.854C493.664,-795.581 496.917,-797.459 500,-799.5 521.069,-813.448 514.492,-830.24 536,-843.5 542.307,-847.388 549.314,-850.485 556.521,-852.949"/>
<polygon fill="midnightblue" stroke="midnightblue" points="491.721,-790.655 481.177,-789.625 488.777,-797.006 491.721,-790.655"/>
</g>
<!-- Node10 -->
<g id="node10" class="node"><title>Node10</title>
<g id="a_node10"><a xlink:href="classtomoBay_1_1model_1_1sql_1_1queries_1_1factories_1_1insert_1_1InsertOrderInOrderStatusFactory.html" target="_top" xlink:title="InsertOrderInOrderStatus\lFactory">
<polygon fill="white" stroke="black" points="559,-803.5 559,-833.5 685,-833.5 685,-803.5 559,-803.5"/>
<text text-anchor="start" x="567" y="-821.5" font-family="Helvetica,sans-Serif" font-size="10.00">InsertOrderInOrderStatus</text>
<text text-anchor="middle" x="622" y="-810.5" font-family="Helvetica,sans-Serif" font-size="10.00">Factory</text>
</a>
</g>
</g>
<!-- Node4&#45;&gt;Node10 -->
<g id="edge9" class="edge"><title>Node4&#45;&gt;Node10</title>
<path fill="none" stroke="midnightblue" d="M494.944,-791.641C516.145,-796.158 538.696,-800.963 558.775,-805.241"/>
<polygon fill="midnightblue" stroke="midnightblue" points="495.498,-788.18 484.988,-789.519 494.039,-795.026 495.498,-788.18"/>
</g>
<!-- Node11 -->
<g id="node11" class="node"><title>Node11</title>
<g id="a_node11"><a xlink:href="classtomoBay_1_1model_1_1sql_1_1queries_1_1factories_1_1insert_1_1InsertOutOfHoursFactory.html" target="_top" xlink:title="InsertOutOfHoursFactory">
<polygon fill="white" stroke="black" points="558.5,-765 558.5,-784 685.5,-784 685.5,-765 558.5,-765"/>
<text text-anchor="middle" x="622" y="-772" font-family="Helvetica,sans-Serif" font-size="10.00">InsertOutOfHoursFactory</text>
</a>
</g>
</g>
<!-- Node4&#45;&gt;Node11 -->
<g id="edge10" class="edge"><title>Node4&#45;&gt;Node11</title>
<path fill="none" stroke="midnightblue" d="M495.41,-774.5C516.295,-774.5 538.46,-774.5 558.263,-774.5"/>
<polygon fill="midnightblue" stroke="midnightblue" points="495.277,-771 485.277,-774.5 495.277,-778 495.277,-771"/>
</g>
<!-- Node12 -->
<g id="node12" class="node"><title>Node12</title>
<g id="a_node12"><a xlink:href="classtomoBay_1_1model_1_1sql_1_1queries_1_1factories_1_1update_1_1UpdateEbayBuyerFactory.html" target="_top" xlink:title="UpdateEbayBuyerFactory">
<polygon fill="white" stroke="black" points="557.5,-727 557.5,-746 686.5,-746 686.5,-727 557.5,-727"/>
<text text-anchor="middle" x="622" y="-734" font-family="Helvetica,sans-Serif" font-size="10.00">UpdateEbayBuyerFactory</text>
</a>
</g>
</g>
<!-- Node4&#45;&gt;Node12 -->
<g id="edge11" class="edge"><title>Node4&#45;&gt;Node12</title>
<path fill="none" stroke="midnightblue" d="M495.422,-759.609C520.254,-755.039 546.895,-750.137 569.222,-746.028"/>
<polygon fill="midnightblue" stroke="midnightblue" points="494.478,-756.224 485.277,-761.476 495.745,-763.108 494.478,-756.224"/>
</g>
<!-- Node13 -->
<g id="node13" class="node"><title>Node13</title>
<g id="a_node13"><a xlink:href="classtomoBay_1_1model_1_1sql_1_1queries_1_1factories_1_1update_1_1UpdateInvoiceStatusFactory.html" target="_top" xlink:title="Creates an UpdateInvoiceStatus query object. ">
<polygon fill="white" stroke="black" points="551.5,-689 551.5,-708 692.5,-708 692.5,-689 551.5,-689"/>
<text text-anchor="middle" x="622" y="-696" font-family="Helvetica,sans-Serif" font-size="10.00">UpdateInvoiceStatusFactory</text>
</a>
</g>
</g>
<!-- Node4&#45;&gt;Node13 -->
<g id="edge12" class="edge"><title>Node4&#45;&gt;Node13</title>
<path fill="none" stroke="midnightblue" d="M489.961,-755.508C493.415,-753.959 496.779,-752.292 500,-750.5 518.966,-739.946 516.757,-727.541 536,-717.5 543.373,-713.653 551.502,-710.582 559.721,-708.131"/>
<polygon fill="midnightblue" stroke="midnightblue" points="488.564,-752.298 480.648,-759.339 491.228,-758.772 488.564,-752.298"/>
</g>
<!-- Node14 -->
<g id="node14" class="node"><title>Node14</title>
<g id="a_node14"><a xlink:href="classtomoBay_1_1model_1_1sql_1_1queries_1_1factories_1_1update_1_1UpdateInvoiceStatusSRNFactory.html" target="_top" xlink:title="UpdateInvoiceStatusSRNFactory">
<polygon fill="white" stroke="black" points="540.5,-651 540.5,-670 703.5,-670 703.5,-651 540.5,-651"/>
<text text-anchor="middle" x="622" y="-658" font-family="Helvetica,sans-Serif" font-size="10.00">UpdateInvoiceStatusSRNFactory</text>
</a>
</g>
</g>
<!-- Node4&#45;&gt;Node14 -->
<g id="edge13" class="edge"><title>Node4&#45;&gt;Node14</title>
<path fill="none" stroke="midnightblue" d="M493.77,-755.058C495.935,-753.643 498.019,-752.127 500,-750.5 527.341,-728.045 508.066,-701.212 536,-679.5 540.895,-675.695 546.402,-672.622 552.2,-670.143"/>
<polygon fill="midnightblue" stroke="midnightblue" points="492.016,-752.028 485.058,-760.019 495.48,-758.111 492.016,-752.028"/>
</g>
<!-- Node15 -->
<g id="node15" class="node"><title>Node15</title>
<g id="a_node15"><a xlink:href="classtomoBay_1_1model_1_1sql_1_1queries_1_1factories_1_1update_1_1UpdateItemBrandAndPartNoFactory.html" target="_top" xlink:title="create an UpdateItemBrandAndPartNo query object ">
<polygon fill="white" stroke="black" points="551.5,-601.5 551.5,-631.5 692.5,-631.5 692.5,-601.5 551.5,-601.5"/>
<text text-anchor="start" x="559.5" y="-619.5" font-family="Helvetica,sans-Serif" font-size="10.00">UpdateItemBrandAndPartNo</text>
<text text-anchor="middle" x="622" y="-608.5" font-family="Helvetica,sans-Serif" font-size="10.00">Factory</text>
</a>
</g>
</g>
<!-- Node4&#45;&gt;Node15 -->
<g id="edge14" class="edge"><title>Node4&#45;&gt;Node15</title>
<path fill="none" stroke="midnightblue" d="M493.941,-755.555C496.07,-753.999 498.098,-752.317 500,-750.5 536.884,-715.252 499.335,-676.976 536,-641.5 540.532,-637.115 545.793,-633.493 551.433,-630.502"/>
<polygon fill="midnightblue" stroke="midnightblue" points="491.914,-752.694 485.281,-760.956 495.619,-758.634 491.914,-752.694"/>
</g>
<!-- Node16 -->
<g id="node16" class="node"><title>Node16</title>
<g id="a_node16"><a xlink:href="classtomoBay_1_1model_1_1sql_1_1queries_1_1factories_1_1update_1_1UpdateItemErrorFactory.html" target="_top" xlink:title="UpdateItemErrorFactory">
<polygon fill="white" stroke="black" points="561,-563 561,-582 683,-582 683,-563 561,-563"/>
<text text-anchor="middle" x="622" y="-570" font-family="Helvetica,sans-Serif" font-size="10.00">UpdateItemErrorFactory</text>
</a>
</g>
</g>
<!-- Node4&#45;&gt;Node16 -->
<g id="edge15" class="edge"><title>Node4&#45;&gt;Node16</title>
<path fill="none" stroke="midnightblue" d="M494.013,-755.911C496.135,-754.254 498.14,-752.455 500,-750.5 549.648,-698.325 485.253,-643.607 536,-592.5 542.836,-585.615 551.567,-580.923 560.818,-577.757"/>
<polygon fill="midnightblue" stroke="midnightblue" points="491.754,-753.206 485.311,-761.616 495.593,-759.06 491.754,-753.206"/>
</g>
<!-- Node17 -->
<g id="node17" class="node"><title>Node17</title>
<g id="a_node17"><a xlink:href="classtomoBay_1_1model_1_1sql_1_1queries_1_1factories_1_1update_1_1UpdateItemNoteFactory.html" target="_top" xlink:title="UpdateItemNoteFactory">
<polygon fill="white" stroke="black" points="561,-525 561,-544 683,-544 683,-525 561,-525"/>
<text text-anchor="middle" x="622" y="-532" font-family="Helvetica,sans-Serif" font-size="10.00">UpdateItemNoteFactory</text>
</a>
</g>
</g>
<!-- Node4&#45;&gt;Node17 -->
<g id="edge16" class="edge"><title>Node4&#45;&gt;Node17</title>
<path fill="none" stroke="midnightblue" d="M493.505,-756.507C495.827,-754.687 498.004,-752.69 500,-750.5 559.946,-684.709 474.308,-617.657 536,-553.5 542.708,-546.524 551.374,-541.849 560.601,-538.76"/>
<polygon fill="midnightblue" stroke="midnightblue" points="491.538,-753.611 485.115,-762.037 495.39,-759.456 491.538,-753.611"/>
</g>
<!-- Node19 -->
<g id="node19" class="node"><title>Node19</title>
<g id="a_node19"><a xlink:href="classtomoBay_1_1model_1_1sql_1_1queries_1_1factories_1_1select_1_1params_1_1SelectBrandAndPartNoByOrderIDFactory.html" target="_top" xlink:title="SelectBrandAndPartNoByOrder\lIDFactory">
<polygon fill="white" stroke="black" points="336.5,-710.5 336.5,-740.5 490.5,-740.5 490.5,-710.5 336.5,-710.5"/>
<text text-anchor="start" x="344.5" y="-728.5" font-family="Helvetica,sans-Serif" font-size="10.00">SelectBrandAndPartNoByOrder</text>
<text text-anchor="middle" x="413.5" y="-717.5" font-family="Helvetica,sans-Serif" font-size="10.00">IDFactory</text>
</a>
</g>
</g>
<!-- Node18&#45;&gt;Node19 -->
<g id="edge18" class="edge"><title>Node18&#45;&gt;Node19</title>
<path fill="none" stroke="midnightblue" d="M228.062,-535.337C240.909,-575.999 271.987,-656.629 327,-700.5 331.837,-704.357 337.249,-707.619 342.939,-710.378"/>
<polygon fill="midnightblue" stroke="midnightblue" points="231.382,-534.223 225.118,-525.678 224.686,-536.264 231.382,-534.223"/>
</g>
<!-- Node20 -->
<g id="node20" class="node"><title>Node20</title>
<g id="a_node20"><a xlink:href="classtomoBay_1_1model_1_1sql_1_1queries_1_1factories_1_1select_1_1params_1_1SelectBrandByInvNoFactory.html" target="_top" xlink:title="SelectBrandByInvNoFactory">
<polygon fill="white" stroke="black" points="343,-672 343,-691 484,-691 484,-672 343,-672"/>
<text text-anchor="middle" x="413.5" y="-679" font-family="Helvetica,sans-Serif" font-size="10.00">SelectBrandByInvNoFactory</text>
</a>
</g>
</g>
<!-- Node18&#45;&gt;Node20 -->
<g id="edge19" class="edge"><title>Node18&#45;&gt;Node20</title>
<path fill="none" stroke="midnightblue" d="M231.173,-535.132C246.618,-569.324 279.319,-630.557 327,-662.5 332.811,-666.393 339.295,-669.5 346.021,-671.979"/>
<polygon fill="midnightblue" stroke="midnightblue" points="234.325,-533.606 227.106,-525.851 227.914,-536.415 234.325,-533.606"/>
</g>
<!-- Node21 -->
<g id="node21" class="node"><title>Node21</title>
<g id="a_node21"><a xlink:href="classtomoBay_1_1model_1_1sql_1_1queries_1_1factories_1_1select_1_1params_1_1SelectBuyerByAccAndSRNFactory.html" target="_top" xlink:title="SelectBuyerByAccAndSRNFactory">
<polygon fill="white" stroke="black" points="328,-634 328,-653 499,-653 499,-634 328,-634"/>
<text text-anchor="middle" x="413.5" y="-641" font-family="Helvetica,sans-Serif" font-size="10.00">SelectBuyerByAccAndSRNFactory</text>
</a>
</g>
</g>
<!-- Node18&#45;&gt;Node21 -->
<g id="edge20" class="edge"><title>Node18&#45;&gt;Node21</title>
<path fill="none" stroke="midnightblue" d="M236.291,-534.069C254.618,-560.334 287.812,-602.052 327,-624.5 333.729,-628.355 341.17,-631.428 348.773,-633.877"/>
<polygon fill="midnightblue" stroke="midnightblue" points="239.182,-532.097 230.658,-525.805 233.398,-536.039 239.182,-532.097"/>
</g>
<!-- Node22 -->
<g id="node22" class="node"><title>Node22</title>
<g id="a_node22"><a xlink:href="classtomoBay_1_1model_1_1sql_1_1queries_1_1factories_1_1select_1_1params_1_1SelectEbayBuyerFactory.html" target="_top" xlink:title="SelectEbayBuyerFactory">
<polygon fill="white" stroke="black" points="351,-596 351,-615 476,-615 476,-596 351,-596"/>
<text text-anchor="middle" x="413.5" y="-603" font-family="Helvetica,sans-Serif" font-size="10.00">SelectEbayBuyerFactory</text>
</a>
</g>
</g>
<!-- Node18&#45;&gt;Node22 -->
<g id="edge21" class="edge"><title>Node18&#45;&gt;Node22</title>
<path fill="none" stroke="midnightblue" d="M245.485,-532.484C265.899,-549.667 296.475,-572.856 327,-586.5 335.607,-590.347 345.06,-593.445 354.444,-595.932"/>
<polygon fill="midnightblue" stroke="midnightblue" points="247.522,-529.619 237.653,-525.764 242.964,-534.932 247.522,-529.619"/>
</g>
<!-- Node23 -->
<g id="node23" class="node"><title>Node23</title>
<g id="a_node23"><a xlink:href="classtomoBay_1_1model_1_1sql_1_1queries_1_1factories_1_1select_1_1params_1_1SelectEbayItemSpecificFactory.html" target="_top" xlink:title="creates a SelectEbayItemSpecific query object ">
<polygon fill="white" stroke="black" points="336,-558 336,-577 491,-577 491,-558 336,-558"/>
<text text-anchor="middle" x="413.5" y="-565" font-family="Helvetica,sans-Serif" font-size="10.00">SelectEbayItemSpecificFactory</text>
</a>
</g>
</g>
<!-- Node18&#45;&gt;Node23 -->
<g id="edge22" class="edge"><title>Node18&#45;&gt;Node23</title>
<path fill="none" stroke="midnightblue" d="M269.08,-529.179C287.087,-535.791 307.826,-542.957 327,-548.5 339.124,-552.005 352.374,-555.235 364.746,-557.999"/>
<polygon fill="midnightblue" stroke="midnightblue" points="269.978,-525.778 259.385,-525.576 267.54,-532.34 269.978,-525.778"/>
</g>
<!-- Node24 -->
<g id="node24" class="node"><title>Node24</title>
<g id="a_node24"><a xlink:href="classtomoBay_1_1model_1_1sql_1_1queries_1_1factories_1_1select_1_1params_1_1SelectEbayOrderByBuyerFactory.html" target="_top" xlink:title="SelectEbayOrderByBuyerFactory">
<polygon fill="white" stroke="black" points="333,-520 333,-539 494,-539 494,-520 333,-520"/>
<text text-anchor="middle" x="413.5" y="-527" font-family="Helvetica,sans-Serif" font-size="10.00">SelectEbayOrderByBuyerFactory</text>
</a>
</g>
</g>
<!-- Node18&#45;&gt;Node24 -->
<g id="edge23" class="edge"><title>Node18&#45;&gt;Node24</title>
<path fill="none" stroke="midnightblue" d="M300.741,-518.412C311.342,-519.463 322.212,-520.542 332.812,-521.594"/>
<polygon fill="midnightblue" stroke="midnightblue" points="300.974,-514.918 290.678,-517.413 300.283,-521.883 300.974,-514.918"/>
</g>
<!-- Node25 -->
<g id="node25" class="node"><title>Node25</title>
<g id="a_node25"><a xlink:href="classtomoBay_1_1model_1_1sql_1_1queries_1_1factories_1_1select_1_1params_1_1SelectEbayOrderByIDFactory.html" target="_top" xlink:title="SelectEbayOrderByIDFactory">
<polygon fill="white" stroke="black" points="340.5,-482 340.5,-501 486.5,-501 486.5,-482 340.5,-482"/>
<text text-anchor="middle" x="413.5" y="-489" font-family="Helvetica,sans-Serif" font-size="10.00">SelectEbayOrderByIDFactory</text>
</a>
</g>
</g>
<!-- Node18&#45;&gt;Node25 -->
<g id="edge24" class="edge"><title>Node18&#45;&gt;Node25</title>
<path fill="none" stroke="midnightblue" d="M300.633,-502.599C313.781,-501.295 327.347,-499.949 340.299,-498.664"/>
<polygon fill="midnightblue" stroke="midnightblue" points="300.283,-499.117 290.678,-503.587 300.974,-506.082 300.283,-499.117"/>
</g>
<!-- Node26 -->
<g id="node26" class="node"><title>Node26</title>
<g id="a_node26"><a xlink:href="classtomoBay_1_1model_1_1sql_1_1queries_1_1factories_1_1select_1_1params_1_1SelectEbayOrderHistoryLastNDaysFactory.html" target="_top" xlink:title="SelectEbayOrderHistoryLast\lNDaysFactory">
<polygon fill="white" stroke="black" points="343,-432.5 343,-462.5 484,-462.5 484,-432.5 343,-432.5"/>
<text text-anchor="start" x="351" y="-450.5" font-family="Helvetica,sans-Serif" font-size="10.00">SelectEbayOrderHistoryLast</text>
<text text-anchor="middle" x="413.5" y="-439.5" font-family="Helvetica,sans-Serif" font-size="10.00">NDaysFactory</text>
</a>
</g>
</g>
<!-- Node18&#45;&gt;Node26 -->
<g id="edge25" class="edge"><title>Node18&#45;&gt;Node26</title>
<path fill="none" stroke="midnightblue" d="M270.635,-492.014C288.344,-485.603 308.49,-478.518 327,-472.5 337.295,-469.153 348.353,-465.767 358.986,-462.614"/>
<polygon fill="midnightblue" stroke="midnightblue" points="269.272,-488.786 261.073,-495.496 271.667,-495.363 269.272,-488.786"/>
</g>
<!-- Node27 -->
<g id="node27" class="node"><title>Node27</title>
<g id="a_node27"><a xlink:href="classtomoBay_1_1model_1_1sql_1_1queries_1_1factories_1_1select_1_1params_1_1SelectEbayTransactionByIDFactory.html" target="_top" xlink:title="SelectEbayTransactionByIDFactory">
<polygon fill="white" stroke="black" points="327,-394 327,-413 500,-413 500,-394 327,-394"/>
<text text-anchor="middle" x="413.5" y="-401" font-family="Helvetica,sans-Serif" font-size="10.00">SelectEbayTransactionByIDFactory</text>
</a>
</g>
</g>
<!-- Node18&#45;&gt;Node27 -->
<g id="edge26" class="edge"><title>Node18&#45;&gt;Node27</title>
<path fill="none" stroke="midnightblue" d="M241.867,-487.904C261.802,-467.701 293.674,-438.836 327,-422.5 334.919,-418.618 343.639,-415.52 352.389,-413.05"/>
<polygon fill="midnightblue" stroke="midnightblue" points="239.268,-485.557 234.833,-495.179 244.3,-490.423 239.268,-485.557"/>
</g>
<!-- Node28 -->
<g id="node28" class="node"><title>Node28</title>
<g id="a_node28"><a xlink:href="classtomoBay_1_1model_1_1sql_1_1queries_1_1factories_1_1select_1_1params_1_1SelectFullOrderLineFactory.html" target="_top" xlink:title="SelectFullOrderLineFactory">
<polygon fill="white" stroke="black" points="346,-356 346,-375 481,-375 481,-356 346,-356"/>
<text text-anchor="middle" x="413.5" y="-363" font-family="Helvetica,sans-Serif" font-size="10.00">SelectFullOrderLineFactory</text>
</a>
</g>
</g>
<!-- Node18&#45;&gt;Node28 -->
<g id="edge27" class="edge"><title>Node18&#45;&gt;Node28</title>
<path fill="none" stroke="midnightblue" d="M234.337,-486.659C251.774,-457.797 285.091,-409.909 327,-384.5 333.371,-380.637 340.436,-377.557 347.695,-375.101"/>
<polygon fill="midnightblue" stroke="midnightblue" points="231.302,-484.916 229.243,-495.309 237.333,-488.468 231.302,-484.916"/>
</g>
<!-- Node29 -->
<g id="node29" class="node"><title>Node29</title>
<g id="a_node29"><a xlink:href="classtomoBay_1_1model_1_1sql_1_1queries_1_1factories_1_1select_1_1params_1_1SelectOutOfHoursOrdersFactory.html" target="_top" xlink:title="SelectOutOfHoursOrdersFactory">
<polygon fill="white" stroke="black" points="334,-318 334,-337 493,-337 493,-318 334,-318"/>
<text text-anchor="middle" x="413.5" y="-325" font-family="Helvetica,sans-Serif" font-size="10.00">SelectOutOfHoursOrdersFactory</text>
</a>
</g>
</g>
<!-- Node18&#45;&gt;Node29 -->
<g id="edge28" class="edge"><title>Node18&#45;&gt;Node29</title>
<path fill="none" stroke="midnightblue" d="M229.778,-486.084C244.178,-449.686 276.379,-381.717 327,-346.5 332.492,-342.679 338.622,-339.61 345.009,-337.148"/>
<polygon fill="midnightblue" stroke="midnightblue" points="226.496,-484.869 226.188,-495.46 233.033,-487.372 226.496,-484.869"/>
</g>
<!-- Node30 -->
<g id="node30" class="node"><title>Node30</title>
<g id="a_node30"><a xlink:href="classtomoBay_1_1model_1_1sql_1_1queries_1_1factories_1_1select_1_1params_1_1SelectTransactionByOrderIDFactory.html" target="_top" xlink:title="creates a SelectTransactionByOrder query object ">
<polygon fill="white" stroke="black" points="348,-268.5 348,-298.5 479,-298.5 479,-268.5 348,-268.5"/>
<text text-anchor="start" x="356" y="-286.5" font-family="Helvetica,sans-Serif" font-size="10.00">SelectTransactionByOrder</text>
<text text-anchor="middle" x="413.5" y="-275.5" font-family="Helvetica,sans-Serif" font-size="10.00">IDFactory</text>
</a>
</g>
</g>
<!-- Node18&#45;&gt;Node30 -->
<g id="edge29" class="edge"><title>Node18&#45;&gt;Node30</title>
<path fill="none" stroke="midnightblue" d="M234.09,-486.378C248.271,-460.157 271.486,-416.982 291,-379.5 307.338,-348.118 299.781,-331.103 327,-308.5 333.187,-303.362 340.388,-299.28 347.936,-296.037"/>
<polygon fill="midnightblue" stroke="midnightblue" points="230.981,-484.769 229.297,-495.229 237.136,-488.102 230.981,-484.769"/>
</g>
<!-- Node32 -->
<g id="node32" class="node"><title>Node32</title>
<g id="a_node32"><a xlink:href="interfacetomoBay_1_1model_1_1sql_1_1framework_1_1queryFactories_1_1AbstractSelectNoParamsQueryFactory.html" target="_top" xlink:title="AbstractSelectNoParamsQuery\lFactory">
<polygon fill="white" stroke="black" points="336.5,-219.5 336.5,-249.5 490.5,-249.5 490.5,-219.5 336.5,-219.5"/>
<text text-anchor="start" x="344.5" y="-237.5" font-family="Helvetica,sans-Serif" font-size="10.00">AbstractSelectNoParamsQuery</text>
<text text-anchor="middle" x="413.5" y="-226.5" font-family="Helvetica,sans-Serif" font-size="10.00">Factory</text>
</a>
</g>
</g>
<!-- Node31&#45;&gt;Node32 -->
<g id="edge31" class="edge"><title>Node31&#45;&gt;Node32</title>
<path fill="none" stroke="midnightblue" d="M234.571,-342.872C253.048,-320.073 288.282,-280.664 327,-258.5 333.021,-255.053 339.567,-252.077 346.268,-249.511"/>
<polygon fill="midnightblue" stroke="midnightblue" points="231.813,-340.718 228.338,-350.727 237.296,-345.07 231.813,-340.718"/>
</g>
<!-- Node33 -->
<g id="node33" class="node"><title>Node33</title>
<g id="a_node33"><a xlink:href="classtomoBay_1_1model_1_1sql_1_1queries_1_1factories_1_1select_1_1noParams_1_1SelectAccountsFactory.html" target="_top" xlink:title="SelectAccountsFactory">
<polygon fill="white" stroke="black" points="562.5,-427 562.5,-446 681.5,-446 681.5,-427 562.5,-427"/>
<text text-anchor="middle" x="622" y="-434" font-family="Helvetica,sans-Serif" font-size="10.00">SelectAccountsFactory</text>
</a>
</g>
</g>
<!-- Node32&#45;&gt;Node33 -->
<g id="edge32" class="edge"><title>Node32&#45;&gt;Node33</title>
<path fill="none" stroke="midnightblue" d="M497.117,-255.691C498.112,-256.59 499.074,-257.526 500,-258.5 549.911,-311.023 484.696,-366.337 536,-417.5 543.174,-424.654 552.415,-429.365 562.149,-432.421"/>
<polygon fill="midnightblue" stroke="midnightblue" points="499.004,-252.73 488.913,-249.5 494.787,-258.317 499.004,-252.73"/>
</g>
<!-- Node34 -->
<g id="node34" class="node"><title>Node34</title>
<g id="a_node34"><a xlink:href="classtomoBay_1_1model_1_1sql_1_1queries_1_1factories_1_1select_1_1noParams_1_1SelectEbayBuyersFactory.html" target="_top" xlink:title="SelectEbayBuyersFactory">
<polygon fill="white" stroke="black" points="556.5,-389 556.5,-408 687.5,-408 687.5,-389 556.5,-389"/>
<text text-anchor="middle" x="622" y="-396" font-family="Helvetica,sans-Serif" font-size="10.00">SelectEbayBuyersFactory</text>
</a>
</g>
</g>
<!-- Node32&#45;&gt;Node34 -->
<g id="edge33" class="edge"><title>Node32&#45;&gt;Node34</title>
<path fill="none" stroke="midnightblue" d="M496.575,-255.397C497.758,-256.385 498.901,-257.418 500,-258.5 539.981,-297.865 494.976,-341.224 536,-379.5 541.86,-384.967 548.936,-388.985 556.475,-391.919"/>
<polygon fill="midnightblue" stroke="midnightblue" points="498.439,-252.428 488.251,-249.518 494.401,-258.146 498.439,-252.428"/>
</g>
<!-- Node35 -->
<g id="node35" class="node"><title>Node35</title>
<g id="a_node35"><a xlink:href="classtomoBay_1_1model_1_1sql_1_1queries_1_1factories_1_1select_1_1noParams_1_1SelectEbayItemsErrorFactory.html" target="_top" xlink:title="SelectEbayItemsErrorFactory">
<polygon fill="white" stroke="black" points="549,-351 549,-370 695,-370 695,-351 549,-351"/>
<text text-anchor="middle" x="622" y="-358" font-family="Helvetica,sans-Serif" font-size="10.00">SelectEbayItemsErrorFactory</text>
</a>
</g>
</g>
<!-- Node32&#45;&gt;Node35 -->
<g id="edge34" class="edge"><title>Node32&#45;&gt;Node35</title>
<path fill="none" stroke="midnightblue" d="M495.772,-255.117C497.231,-256.188 498.642,-257.315 500,-258.5 530.293,-284.941 505.007,-315.883 536,-341.5 540.662,-345.353 545.942,-348.467 551.534,-350.977"/>
<polygon fill="midnightblue" stroke="midnightblue" points="497.293,-251.938 486.967,-249.566 493.56,-257.859 497.293,-251.938"/>
</g>
<!-- Node36 -->
<g id="node36" class="node"><title>Node36</title>
<g id="a_node36"><a xlink:href="classtomoBay_1_1model_1_1sql_1_1queries_1_1factories_1_1select_1_1noParams_1_1SelectEbayItemsFactory.html" target="_top" xlink:title="creates a SelectEbayItems query object ">
<polygon fill="white" stroke="black" points="559.5,-313 559.5,-332 684.5,-332 684.5,-313 559.5,-313"/>
<text text-anchor="middle" x="622" y="-320" font-family="Helvetica,sans-Serif" font-size="10.00">SelectEbayItemsFactory</text>
</a>
</g>
</g>
<!-- Node32&#45;&gt;Node36 -->
<g id="edge35" class="edge"><title>Node32&#45;&gt;Node36</title>
<path fill="none" stroke="midnightblue" d="M491.996,-253.81C494.759,-255.263 497.438,-256.824 500,-258.5 521.144,-272.333 514.567,-289.12 536,-302.5 543.073,-306.915 551.03,-310.357 559.165,-313.039"/>
<polygon fill="midnightblue" stroke="midnightblue" points="493.467,-250.634 482.93,-249.527 490.477,-256.964 493.467,-250.634"/>
</g>
<!-- Node37 -->
<g id="node37" class="node"><title>Node37</title>
<g id="a_node37"><a xlink:href="classtomoBay_1_1model_1_1sql_1_1queries_1_1factories_1_1select_1_1noParams_1_1SelectEbayItemsNotInTransactionsFactory.html" target="_top" xlink:title="creates a SelectEbayItemsNotInTransactions ">
<polygon fill="white" stroke="black" points="536,-263.5 536,-293.5 708,-293.5 708,-263.5 536,-263.5"/>
<text text-anchor="start" x="544" y="-281.5" font-family="Helvetica,sans-Serif" font-size="10.00">SelectEbayItemsNotInTransactions</text>
<text text-anchor="middle" x="622" y="-270.5" font-family="Helvetica,sans-Serif" font-size="10.00">Factory</text>
</a>
</g>
</g>
<!-- Node32&#45;&gt;Node37 -->
<g id="edge36" class="edge"><title>Node32&#45;&gt;Node37</title>
<path fill="none" stroke="midnightblue" d="M494.781,-251.606C513.155,-255.521 532.551,-259.654 550.479,-263.474"/>
<polygon fill="midnightblue" stroke="midnightblue" points="495.498,-248.18 484.988,-249.519 494.039,-255.026 495.498,-248.18"/>
</g>
<!-- Node38 -->
<g id="node38" class="node"><title>Node38</title>
<g id="a_node38"><a xlink:href="classtomoBay_1_1model_1_1sql_1_1queries_1_1factories_1_1select_1_1noParams_1_1SelectEbayOrdersFactory.html" target="_top" xlink:title="creates SelectEbayOrders query object ">
<polygon fill="white" stroke="black" points="557.5,-225 557.5,-244 686.5,-244 686.5,-225 557.5,-225"/>
<text text-anchor="middle" x="622" y="-232" font-family="Helvetica,sans-Serif" font-size="10.00">SelectEbayOrdersFactory</text>
</a>
</g>
</g>
<!-- Node32&#45;&gt;Node38 -->
<g id="edge37" class="edge"><title>Node32&#45;&gt;Node38</title>
<path fill="none" stroke="midnightblue" d="M500.66,-234.5C519.65,-234.5 539.433,-234.5 557.343,-234.5"/>
<polygon fill="midnightblue" stroke="midnightblue" points="500.513,-231 490.513,-234.5 500.513,-238 500.513,-231"/>
</g>
<!-- Node39 -->
<g id="node39" class="node"><title>Node39</title>
<g id="a_node39"><a xlink:href="classtomoBay_1_1model_1_1sql_1_1queries_1_1factories_1_1select_1_1noParams_1_1SelectInvoicedOrdersFactory.html" target="_top" xlink:title="SelectInvoicedOrdersFactory">
<polygon fill="white" stroke="black" points="550.5,-187 550.5,-206 693.5,-206 693.5,-187 550.5,-187"/>
<text text-anchor="middle" x="622" y="-194" font-family="Helvetica,sans-Serif" font-size="10.00">SelectInvoicedOrdersFactory</text>
</a>
</g>
</g>
<!-- Node32&#45;&gt;Node39 -->
<g id="edge38" class="edge"><title>Node32&#45;&gt;Node39</title>
<path fill="none" stroke="midnightblue" d="M500.449,-218.684C523.842,-214.379 548.454,-209.85 569.297,-206.014"/>
<polygon fill="midnightblue" stroke="midnightblue" points="499.715,-215.26 490.513,-220.512 500.982,-222.144 499.715,-215.26"/>
</g>
<!-- Node40 -->
<g id="node40" class="node"><title>Node40</title>
<g id="a_node40"><a xlink:href="classtomoBay_1_1model_1_1sql_1_1queries_1_1factories_1_1select_1_1noParams_1_1SelectUncalculatedInvoicesFactory.html" target="_top" xlink:title="SelectUncalculatedInvoices\lFactory">
<polygon fill="white" stroke="black" points="553,-137.5 553,-167.5 691,-167.5 691,-137.5 553,-137.5"/>
<text text-anchor="start" x="561" y="-155.5" font-family="Helvetica,sans-Serif" font-size="10.00">SelectUncalculatedInvoices</text>
<text text-anchor="middle" x="622" y="-144.5" font-family="Helvetica,sans-Serif" font-size="10.00">Factory</text>
</a>
</g>
</g>
<!-- Node32&#45;&gt;Node40 -->
<g id="edge39" class="edge"><title>Node32&#45;&gt;Node40</title>
<path fill="none" stroke="midnightblue" d="M452.41,-214.885C476.056,-203.112 507.342,-188.364 536,-177.5 545.349,-173.956 555.43,-170.6 565.269,-167.565"/>
<polygon fill="midnightblue" stroke="midnightblue" points="450.786,-211.784 443.421,-219.4 453.928,-218.04 450.786,-211.784"/>
</g>
<!-- Node41 -->
<g id="node41" class="node"><title>Node41</title>
<g id="a_node41"><a xlink:href="classtomoBay_1_1model_1_1sql_1_1queries_1_1factories_1_1select_1_1noParams_1_1SelectUncalculatedOrdersFactory.html" target="_top" xlink:title="SelectUncalculatedOrders\lFactory">
<polygon fill="white" stroke="black" points="556.5,-88.5 556.5,-118.5 687.5,-118.5 687.5,-88.5 556.5,-88.5"/>
<text text-anchor="start" x="564.5" y="-106.5" font-family="Helvetica,sans-Serif" font-size="10.00">SelectUncalculatedOrders</text>
<text text-anchor="middle" x="622" y="-95.5" font-family="Helvetica,sans-Serif" font-size="10.00">Factory</text>
</a>
</g>
</g>
<!-- Node32&#45;&gt;Node41 -->
<g id="edge40" class="edge"><title>Node32&#45;&gt;Node41</title>
<path fill="none" stroke="midnightblue" d="M434.442,-211.699C456.844,-187.447 495.414,-149.599 536,-127.5 542.329,-124.054 549.2,-121.064 556.199,-118.479"/>
<polygon fill="midnightblue" stroke="midnightblue" points="431.616,-209.605 427.485,-219.361 436.798,-214.31 431.616,-209.605"/>
</g>
<!-- Node42 -->
<g id="node42" class="node"><title>Node42</title>
<g id="a_node42"><a xlink:href="classtomoBay_1_1model_1_1sql_1_1queries_1_1factories_1_1select_1_1noParams_1_1SelectUninvoicedOrdersFactory.html" target="_top" xlink:title="creates a SelectUninvoicedOrders query object ">
<polygon fill="white" stroke="black" points="544.5,-50 544.5,-69 699.5,-69 699.5,-50 544.5,-50"/>
<text text-anchor="middle" x="622" y="-57" font-family="Helvetica,sans-Serif" font-size="10.00">SelectUninvoicedOrdersFactory</text>
</a>
</g>
</g>
<!-- Node32&#45;&gt;Node42 -->
<g id="edge41" class="edge"><title>Node32&#45;&gt;Node42</title>
<path fill="none" stroke="midnightblue" d="M426.442,-210.198C444.905,-175.302 483.775,-111.571 536,-78.5 542.132,-74.6169 548.953,-71.5221 555.989,-69.0563"/>
<polygon fill="midnightblue" stroke="midnightblue" points="423.259,-208.735 421.782,-219.226 429.479,-211.946 423.259,-208.735"/>
</g>
<!-- Node43 -->
<g id="node43" class="node"><title>Node43</title>
<g id="a_node43"><a xlink:href="classtomoBay_1_1model_1_1sql_1_1queries_1_1factories_1_1select_1_1noParams_1_1SelectUninvoicedOrdersNoErrorsFactory.html" target="_top" xlink:title="SelectUninvoicedOrdersNo\lErrorsFactory">
<polygon fill="white" stroke="black" points="554.5,-0.5 554.5,-30.5 689.5,-30.5 689.5,-0.5 554.5,-0.5"/>
<text text-anchor="start" x="562.5" y="-18.5" font-family="Helvetica,sans-Serif" font-size="10.00">SelectUninvoicedOrdersNo</text>
<text text-anchor="middle" x="622" y="-7.5" font-family="Helvetica,sans-Serif" font-size="10.00">ErrorsFactory</text>
</a>
</g>
</g>
<!-- Node32&#45;&gt;Node43 -->
<g id="edge42" class="edge"><title>Node32&#45;&gt;Node43</title>
<path fill="none" stroke="midnightblue" d="M423.279,-209.695C439.189,-168.341 476.734,-85.429 536,-40.5 541.516,-36.3183 547.719,-32.8343 554.198,-29.9319"/>
<polygon fill="midnightblue" stroke="midnightblue" points="419.925,-208.672 419.7,-219.264 426.481,-211.124 419.925,-208.672"/>
</g>
</g>
</svg>
