<?xml version="1.0" encoding="UTF-8" standalone="no"?>
<!DOCTYPE svg PUBLIC "-//W3C//DTD SVG 1.1//EN"
 "http://www.w3.org/Graphics/SVG/1.1/DTD/svg11.dtd">
<!-- Generated by graphviz version 2.38.0 (20140413.2041)
 -->
<!-- Title: Graphical Class Hierarchy Pages: 1 -->
<svg width="271pt" height="370pt"
 viewBox="0.00 0.00 271.00 370.00" xmlns="http://www.w3.org/2000/svg" xmlns:xlink="http://www.w3.org/1999/xlink">
<g id="graph0" class="graph" transform="scale(1 1) rotate(0) translate(4 366)">
<title>Graphical Class Hierarchy</title>
<polygon fill="white" stroke="none" points="-4,4 -4,-366 267,-366 267,4 -4,4"/>
<!-- Node1 -->
<g id="node1" class="node"><title>Node1</title>
<g id="a_node1"><a xlink:href="interfacetomoBay_1_1presenters_1_1AbstractPresenter.html" target="_top" xlink:title="provides an interface that all presenters should subscribe to. ">
<polygon fill="white" stroke="black" points="0,-171.5 0,-190.5 95,-190.5 95,-171.5 0,-171.5"/>
<text text-anchor="middle" x="47.5" y="-178.5" font-family="Helvetica,sans-Serif" font-size="10.00">AbstractPresenter</text>
</a>
</g>
</g>
<!-- Node2 -->
<g id="node2" class="node"><title>Node2</title>
<g id="a_node2"><a xlink:href="classtomoBay_1_1presenters_1_1admin_1_1AdminPresenter.html" target="_top" xlink:title="AdminPresenter">
<polygon fill="white" stroke="black" points="154,-342.5 154,-361.5 240,-361.5 240,-342.5 154,-342.5"/>
<text text-anchor="middle" x="197" y="-349.5" font-family="Helvetica,sans-Serif" font-size="10.00">AdminPresenter</text>
</a>
</g>
</g>
<!-- Node1&#45;&gt;Node2 -->
<g id="edge1" class="edge"><title>Node1&#45;&gt;Node2</title>
<path fill="none" stroke="midnightblue" d="M53.733,-200.512C63.4356,-232.918 87.3146,-297.749 131,-333 137.588,-338.316 145.611,-342.144 153.742,-344.902"/>
<polygon fill="midnightblue" stroke="midnightblue" points="56.988,-199.163 50.883,-190.504 50.2556,-201.08 56.988,-199.163"/>
</g>
<!-- Node3 -->
<g id="node3" class="node"><title>Node3</title>
<g id="a_node3"><a xlink:href="classtomoBay_1_1presenters_1_1crm_1_1CRMDetailPresenter.html" target="_top" xlink:title="CRMDetailPresenter">
<polygon fill="white" stroke="black" points="143.5,-304.5 143.5,-323.5 250.5,-323.5 250.5,-304.5 143.5,-304.5"/>
<text text-anchor="middle" x="197" y="-311.5" font-family="Helvetica,sans-Serif" font-size="10.00">CRMDetailPresenter</text>
</a>
</g>
</g>
<!-- Node1&#45;&gt;Node3 -->
<g id="edge2" class="edge"><title>Node1&#45;&gt;Node3</title>
<path fill="none" stroke="midnightblue" d="M57.1986,-199.893C69.8528,-225.291 95.733,-270.121 131,-295 136.476,-298.863 142.736,-301.948 149.159,-304.409"/>
<polygon fill="midnightblue" stroke="midnightblue" points="60.2199,-198.1 52.7314,-190.605 53.9116,-201.134 60.2199,-198.1"/>
</g>
<!-- Node4 -->
<g id="node4" class="node"><title>Node4</title>
<g id="a_node4"><a xlink:href="classtomoBay_1_1presenters_1_1crm_1_1CRMOverviewPresenter.html" target="_top" xlink:title="CRMOverviewPresenter">
<polygon fill="white" stroke="black" points="135.5,-266.5 135.5,-285.5 258.5,-285.5 258.5,-266.5 135.5,-266.5"/>
<text text-anchor="middle" x="197" y="-273.5" font-family="Helvetica,sans-Serif" font-size="10.00">CRMOverviewPresenter</text>
</a>
</g>
</g>
<!-- Node1&#45;&gt;Node4 -->
<g id="edge3" class="edge"><title>Node1&#45;&gt;Node4</title>
<path fill="none" stroke="midnightblue" d="M62.9589,-198.353C78.2051,-215.587 103.755,-241.602 131,-257 137.755,-260.818 145.348,-263.93 152.897,-266.446"/>
<polygon fill="midnightblue" stroke="midnightblue" points="65.5228,-195.967 56.3398,-190.682 60.2233,-200.54 65.5228,-195.967"/>
</g>
<!-- Node5 -->
<g id="node5" class="node"><title>Node5</title>
<g id="a_node5"><a xlink:href="classtomoBay_1_1presenters_1_1error_1_1ErrorPresenter.html" target="_top" xlink:title="This class provides the presenter for the scenario in which the designer of the frontend has supplied...">
<polygon fill="white" stroke="black" points="157,-228.5 157,-247.5 237,-247.5 237,-228.5 157,-228.5"/>
<text text-anchor="middle" x="197" y="-235.5" font-family="Helvetica,sans-Serif" font-size="10.00">ErrorPresenter</text>
</a>
</g>
</g>
<!-- Node1&#45;&gt;Node5 -->
<g id="edge4" class="edge"><title>Node1&#45;&gt;Node5</title>
<path fill="none" stroke="midnightblue" d="M76.3671,-195.082C92.1545,-202.742 112.409,-212.044 131,-219 140.25,-222.461 150.428,-225.696 159.929,-228.481"/>
<polygon fill="midnightblue" stroke="midnightblue" points="77.6876,-191.831 67.1693,-190.56 74.5995,-198.113 77.6876,-191.831"/>
</g>
<!-- Node6 -->
<g id="node6" class="node"><title>Node6</title>
<g id="a_node6"><a xlink:href="classtomoBay_1_1presenters_1_1orderDetails_1_1OrderDetailsPresenter.html" target="_top" xlink:title="OrderDetailsPresenter">
<polygon fill="white" stroke="black" points="140.5,-190.5 140.5,-209.5 253.5,-209.5 253.5,-190.5 140.5,-190.5"/>
<text text-anchor="middle" x="197" y="-197.5" font-family="Helvetica,sans-Serif" font-size="10.00">OrderDetailsPresenter</text>
</a>
</g>
</g>
<!-- Node1&#45;&gt;Node6 -->
<g id="edge5" class="edge"><title>Node1&#45;&gt;Node6</title>
<path fill="none" stroke="midnightblue" d="M105.136,-188.295C116.685,-189.783 128.827,-191.347 140.342,-192.83"/>
<polygon fill="midnightblue" stroke="midnightblue" points="105.535,-184.818 95.1699,-187.012 104.641,-191.761 105.535,-184.818"/>
</g>
<!-- Node7 -->
<g id="node7" class="node"><title>Node7</title>
<g id="a_node7"><a xlink:href="classtomoBay_1_1presenters_1_1root_1_1RootPresenter.html" target="_top" xlink:title="this is the presenter for the root of the webApp. ">
<polygon fill="white" stroke="black" points="157,-152.5 157,-171.5 237,-171.5 237,-152.5 157,-152.5"/>
<text text-anchor="middle" x="197" y="-159.5" font-family="Helvetica,sans-Serif" font-size="10.00">RootPresenter</text>
</a>
</g>
</g>
<!-- Node1&#45;&gt;Node7 -->
<g id="edge6" class="edge"><title>Node1&#45;&gt;Node7</title>
<path fill="none" stroke="midnightblue" d="M105.103,-173.709C122.283,-171.496 140.777,-169.113 156.57,-167.079"/>
<polygon fill="midnightblue" stroke="midnightblue" points="104.641,-170.239 95.1699,-174.988 105.535,-177.182 104.641,-170.239"/>
</g>
<!-- Node8 -->
<g id="node8" class="node"><title>Node8</title>
<g id="a_node8"><a xlink:href="classtomoBay_1_1presenters_1_1sales_1_1OutOfHoursPresenter.html" target="_top" xlink:title="OutOfHoursPresenter">
<polygon fill="white" stroke="black" points="141.5,-114.5 141.5,-133.5 252.5,-133.5 252.5,-114.5 141.5,-114.5"/>
<text text-anchor="middle" x="197" y="-121.5" font-family="Helvetica,sans-Serif" font-size="10.00">OutOfHoursPresenter</text>
</a>
</g>
</g>
<!-- Node1&#45;&gt;Node8 -->
<g id="edge7" class="edge"><title>Node1&#45;&gt;Node8</title>
<path fill="none" stroke="midnightblue" d="M76.3671,-166.918C92.1545,-159.258 112.409,-149.956 131,-143 140.25,-139.539 150.428,-136.304 159.929,-133.519"/>
<polygon fill="midnightblue" stroke="midnightblue" points="74.5995,-163.887 67.1693,-171.44 77.6876,-170.169 74.5995,-163.887"/>
</g>
<!-- Node9 -->
<g id="node9" class="node"><title>Node9</title>
<g id="a_node9"><a xlink:href="classtomoBay_1_1presenters_1_1sales_1_1SalesHistoryPresenter.html" target="_top" xlink:title="This class represents the History presenter of the Sales area of the WebApp. ">
<polygon fill="white" stroke="black" points="139.5,-76.5 139.5,-95.5 254.5,-95.5 254.5,-76.5 139.5,-76.5"/>
<text text-anchor="middle" x="197" y="-83.5" font-family="Helvetica,sans-Serif" font-size="10.00">SalesHistoryPresenter</text>
</a>
</g>
</g>
<!-- Node1&#45;&gt;Node9 -->
<g id="edge8" class="edge"><title>Node1&#45;&gt;Node9</title>
<path fill="none" stroke="midnightblue" d="M62.9589,-163.647C78.2051,-146.413 103.755,-120.398 131,-105 137.755,-101.182 145.348,-98.0701 152.897,-95.5535"/>
<polygon fill="midnightblue" stroke="midnightblue" points="60.2233,-161.46 56.3398,-171.318 65.5228,-166.033 60.2233,-161.46"/>
</g>
<!-- Node10 -->
<g id="node10" class="node"><title>Node10</title>
<g id="a_node10"><a xlink:href="classtomoBay_1_1presenters_1_1sales_1_1SalesOrderPresenter.html" target="_top" xlink:title="This class is responsible for providing the dynamic data to the orders section of the sales &#39;Orders&#39; ...">
<polygon fill="white" stroke="black" points="143.5,-38.5 143.5,-57.5 250.5,-57.5 250.5,-38.5 143.5,-38.5"/>
<text text-anchor="middle" x="197" y="-45.5" font-family="Helvetica,sans-Serif" font-size="10.00">SalesOrderPresenter</text>
</a>
</g>
</g>
<!-- Node1&#45;&gt;Node10 -->
<g id="edge9" class="edge"><title>Node1&#45;&gt;Node10</title>
<path fill="none" stroke="midnightblue" d="M57.1986,-162.107C69.8528,-136.709 95.733,-91.8788 131,-67 136.476,-63.137 142.736,-60.0523 149.159,-57.5908"/>
<polygon fill="midnightblue" stroke="midnightblue" points="53.9116,-160.866 52.7314,-171.395 60.2199,-163.9 53.9116,-160.866"/>
</g>
<!-- Node11 -->
<g id="node11" class="node"><title>Node11</title>
<g id="a_node11"><a xlink:href="classtomoBay_1_1presenters_1_1warehouse_1_1WarehouseOrderPresenter.html" target="_top" xlink:title="This class is responsible for providing the dynamic information specific to the picking area of the w...">
<polygon fill="white" stroke="black" points="131,-0.5 131,-19.5 263,-19.5 263,-0.5 131,-0.5"/>
<text text-anchor="middle" x="197" y="-7.5" font-family="Helvetica,sans-Serif" font-size="10.00">WarehouseOrderPresenter</text>
</a>
</g>
</g>
<!-- Node1&#45;&gt;Node11 -->
<g id="edge10" class="edge"><title>Node1&#45;&gt;Node11</title>
<path fill="none" stroke="midnightblue" d="M53.733,-161.488C63.4356,-129.082 87.3146,-64.2513 131,-29 135.849,-25.0869 141.477,-21.9798 147.352,-19.5125"/>
<polygon fill="midnightblue" stroke="midnightblue" points="50.2556,-160.92 50.883,-171.496 56.988,-162.837 50.2556,-160.92"/>
</g>
</g>
</svg>
