<?xml version="1.0" encoding="UTF-8" standalone="no"?>
<!DOCTYPE svg PUBLIC "-//W3C//DTD SVG 1.1//EN"
 "http://www.w3.org/Graphics/SVG/1.1/DTD/svg11.dtd">
<!-- Generated by graphviz version 2.38.0 (20140413.2041)
 -->
<!-- Title: Graphical Class Hierarchy Pages: 1 -->
<svg width="646pt" height="1382pt"
 viewBox="0.00 0.00 646.00 1382.00" xmlns="http://www.w3.org/2000/svg" xmlns:xlink="http://www.w3.org/1999/xlink">
<g id="graph0" class="graph" transform="scale(1 1) rotate(0) translate(4 1378)">
<title>Graphical Class Hierarchy</title>
<polygon fill="white" stroke="none" points="-4,4 -4,-1378 642,-1378 642,4 -4,4"/>
<!-- Node1 -->
<g id="node1" class="node"><title>Node1</title>
<g id="a_node1"><a xlink:href="classtomoBay_1_1model_1_1sql_1_1framework_1_1queryTypes_1_1AbstractDBQuery.html" target="_top" xlink:title="Interface that all database queries must adhere to. ">
<polygon fill="white" stroke="black" points="0,-888.5 0,-907.5 94,-907.5 94,-888.5 0,-888.5"/>
<text text-anchor="middle" x="47" y="-895.5" font-family="Helvetica,sans-Serif" font-size="10.00">AbstractDBQuery</text>
</a>
</g>
</g>
<!-- Node2 -->
<g id="node2" class="node"><title>Node2</title>
<g id="a_node2"><a xlink:href="classtomoBay_1_1model_1_1sql_1_1framework_1_1queryTypes_1_1modify_1_1AbstractModifyQuery.html" target="_top" xlink:title="Copyright(C) 2015 Jan P.C. ">
<polygon fill="white" stroke="black" points="130,-1107.5 130,-1126.5 239,-1126.5 239,-1107.5 130,-1107.5"/>
<text text-anchor="middle" x="184.5" y="-1114.5" font-family="Helvetica,sans-Serif" font-size="10.00">AbstractModifyQuery</text>
</a>
</g>
</g>
<!-- Node1&#45;&gt;Node2 -->
<g id="edge1" class="edge"><title>Node1&#45;&gt;Node2</title>
<path fill="none" stroke="midnightblue" d="M59.3522,-916.348C86.9431,-960.941 156.781,-1073.82 177.572,-1107.42"/>
<polygon fill="midnightblue" stroke="midnightblue" points="62.2351,-914.355 53.9971,-907.693 56.2823,-918.038 62.2351,-914.355"/>
</g>
<!-- Node18 -->
<g id="node18" class="node"><title>Node18</title>
<g id="a_node18"><a xlink:href="classtomoBay_1_1model_1_1sql_1_1framework_1_1queryTypes_1_1select_1_1AbstractSelectQuery.html" target="_top" xlink:title="AbstractSelectQuery">
<polygon fill="white" stroke="black" points="131,-670.5 131,-689.5 238,-689.5 238,-670.5 131,-670.5"/>
<text text-anchor="middle" x="184.5" y="-677.5" font-family="Helvetica,sans-Serif" font-size="10.00">AbstractSelectQuery</text>
</a>
</g>
</g>
<!-- Node1&#45;&gt;Node18 -->
<g id="edge17" class="edge"><title>Node1&#45;&gt;Node18</title>
<path fill="none" stroke="midnightblue" d="M59.3522,-879.736C86.9431,-835.346 156.781,-722.987 177.572,-689.537"/>
<polygon fill="midnightblue" stroke="midnightblue" points="56.3035,-878.011 53.9971,-888.352 62.2487,-881.706 56.3035,-878.011"/>
</g>
<!-- Node3 -->
<g id="node3" class="node"><title>Node3</title>
<g id="a_node3"><a xlink:href="classtomoBay_1_1model_1_1sql_1_1framework_1_1queryTypes_1_1modify_1_1AbstractModifyQueryNoParams.html" target="_top" xlink:title="This is the Abstract Base Class for all queries that modify the database in some way (INSERT/UPDATE/D...">
<polygon fill="white" stroke="black" points="275,-1145.5 275,-1164.5 430,-1164.5 430,-1145.5 275,-1145.5"/>
<text text-anchor="middle" x="352.5" y="-1152.5" font-family="Helvetica,sans-Serif" font-size="10.00">AbstractModifyQueryNoParams</text>
</a>
</g>
</g>
<!-- Node2&#45;&gt;Node3 -->
<g id="edge2" class="edge"><title>Node2&#45;&gt;Node3</title>
<path fill="none" stroke="midnightblue" d="M237.153,-1128.82C260.556,-1134.18 287.857,-1140.43 309.912,-1145.48"/>
<polygon fill="midnightblue" stroke="midnightblue" points="237.918,-1125.41 227.389,-1126.59 236.356,-1132.23 237.918,-1125.41"/>
</g>
<!-- Node4 -->
<g id="node4" class="node"><title>Node4</title>
<g id="a_node4"><a xlink:href="classtomoBay_1_1model_1_1sql_1_1framework_1_1queryTypes_1_1modify_1_1AbstractModifyQueryParams.html" target="_top" xlink:title="This is the Abstract Base class for all queries that modify the database in some way (INSERT/UPDATE/D...">
<polygon fill="white" stroke="black" points="281,-1107.5 281,-1126.5 424,-1126.5 424,-1107.5 281,-1107.5"/>
<text text-anchor="middle" x="352.5" y="-1114.5" font-family="Helvetica,sans-Serif" font-size="10.00">AbstractModifyQueryParams</text>
</a>
</g>
</g>
<!-- Node2&#45;&gt;Node4 -->
<g id="edge3" class="edge"><title>Node2&#45;&gt;Node4</title>
<path fill="none" stroke="midnightblue" d="M249.523,-1117C259.813,-1117 270.514,-1117 280.947,-1117"/>
<polygon fill="midnightblue" stroke="midnightblue" points="249.395,-1113.5 239.395,-1117 249.395,-1120.5 249.395,-1113.5"/>
</g>
<!-- Node5 -->
<g id="node5" class="node"><title>Node5</title>
<g id="a_node5"><a xlink:href="classtomoBay_1_1model_1_1sql_1_1queries_1_1concreteQueries_1_1delete_1_1DeleteOrderFromOrderStatus.html" target="_top" xlink:title="deletes a particular order from the order_status table in the database. ">
<polygon fill="white" stroke="black" points="480,-1354.5 480,-1373.5 624,-1373.5 624,-1354.5 480,-1354.5"/>
<text text-anchor="middle" x="552" y="-1361.5" font-family="Helvetica,sans-Serif" font-size="10.00">DeleteOrderFromOrderStatus</text>
</a>
</g>
</g>
<!-- Node4&#45;&gt;Node5 -->
<g id="edge4" class="edge"><title>Node4&#45;&gt;Node5</title>
<path fill="none" stroke="midnightblue" d="M426.135,-1132.32C427.491,-1133.47 428.783,-1134.69 430,-1136 494.178,-1205.03 401.015,-1276.73 466,-1345 469.962,-1349.16 474.62,-1352.51 479.681,-1355.19"/>
<polygon fill="midnightblue" stroke="midnightblue" points="427.972,-1129.34 417.741,-1126.58 424.022,-1135.12 427.972,-1129.34"/>
</g>
<!-- Node6 -->
<g id="node6" class="node"><title>Node6</title>
<g id="a_node6"><a xlink:href="classtomoBay_1_1model_1_1sql_1_1queries_1_1concreteQueries_1_1insert_1_1InsertEbayBuyers.html" target="_top" xlink:title="This class represents a query that inserts buyer details into the database. ">
<polygon fill="white" stroke="black" points="504.5,-1316.5 504.5,-1335.5 599.5,-1335.5 599.5,-1316.5 504.5,-1316.5"/>
<text text-anchor="middle" x="552" y="-1323.5" font-family="Helvetica,sans-Serif" font-size="10.00">InsertEbayBuyers</text>
</a>
</g>
</g>
<!-- Node4&#45;&gt;Node6 -->
<g id="edge5" class="edge"><title>Node4&#45;&gt;Node6</title>
<path fill="none" stroke="midnightblue" d="M425.961,-1132.29C427.376,-1133.45 428.726,-1134.68 430,-1136 483.922,-1191.9 411.424,-1251.74 466,-1307 476.094,-1317.22 490.402,-1322.47 504.406,-1325.03"/>
<polygon fill="midnightblue" stroke="midnightblue" points="427.502,-1129.12 417.227,-1126.53 423.648,-1134.96 427.502,-1129.12"/>
</g>
<!-- Node7 -->
<g id="node7" class="node"><title>Node7</title>
<g id="a_node7"><a xlink:href="classtomoBay_1_1model_1_1sql_1_1queries_1_1concreteQueries_1_1insert_1_1InsertEbayItems.html" target="_top" xlink:title="This class represents a query that inserts item details into the items table of the database...">
<polygon fill="white" stroke="black" points="507.5,-1278.5 507.5,-1297.5 596.5,-1297.5 596.5,-1278.5 507.5,-1278.5"/>
<text text-anchor="middle" x="552" y="-1285.5" font-family="Helvetica,sans-Serif" font-size="10.00">InsertEbayItems</text>
</a>
</g>
</g>
<!-- Node4&#45;&gt;Node7 -->
<g id="edge6" class="edge"><title>Node4&#45;&gt;Node7</title>
<path fill="none" stroke="midnightblue" d="M425.344,-1131.99C426.976,-1133.23 428.533,-1134.56 430,-1136 473.752,-1178.85 421.747,-1226.67 466,-1269 477.036,-1279.56 492.595,-1284.74 507.39,-1287.15"/>
<polygon fill="midnightblue" stroke="midnightblue" points="426.968,-1128.88 416.628,-1126.57 423.272,-1134.83 426.968,-1128.88"/>
</g>
<!-- Node8 -->
<g id="node8" class="node"><title>Node8</title>
<g id="a_node8"><a xlink:href="classtomoBay_1_1model_1_1sql_1_1queries_1_1concreteQueries_1_1insert_1_1InsertEbayOrders.html" target="_top" xlink:title="This class represents a class that inserts order data into the orders table of the database...">
<polygon fill="white" stroke="black" points="505.5,-1240.5 505.5,-1259.5 598.5,-1259.5 598.5,-1240.5 505.5,-1240.5"/>
<text text-anchor="middle" x="552" y="-1247.5" font-family="Helvetica,sans-Serif" font-size="10.00">InsertEbayOrders</text>
</a>
</g>
</g>
<!-- Node4&#45;&gt;Node8 -->
<g id="edge7" class="edge"><title>Node4&#45;&gt;Node8</title>
<path fill="none" stroke="midnightblue" d="M424.462,-1131.71C426.401,-1133.02 428.254,-1134.45 430,-1136 463.766,-1165.98 431.883,-1201.42 466,-1231 476.854,-1240.41 491.358,-1245.45 505.308,-1248.07"/>
<polygon fill="midnightblue" stroke="midnightblue" points="425.915,-1128.51 415.488,-1126.63 422.471,-1134.6 425.915,-1128.51"/>
</g>
<!-- Node9 -->
<g id="node9" class="node"><title>Node9</title>
<g id="a_node9"><a xlink:href="classtomoBay_1_1model_1_1sql_1_1queries_1_1concreteQueries_1_1insert_1_1InsertEbayTransactions.html" target="_top" xlink:title="This class represents a query that inserts transaction data into the transactions table of the databa...">
<polygon fill="white" stroke="black" points="492,-1202.5 492,-1221.5 612,-1221.5 612,-1202.5 492,-1202.5"/>
<text text-anchor="middle" x="552" y="-1209.5" font-family="Helvetica,sans-Serif" font-size="10.00">InsertEbayTransactions</text>
</a>
</g>
</g>
<!-- Node4&#45;&gt;Node9 -->
<g id="edge8" class="edge"><title>Node4&#45;&gt;Node9</title>
<path fill="none" stroke="midnightblue" d="M421.549,-1130.79C424.502,-1132.35 427.337,-1134.08 430,-1136 454.291,-1153.54 441.505,-1175.74 466,-1193 473.664,-1198.4 482.602,-1202.3 491.747,-1205.11"/>
<polygon fill="midnightblue" stroke="midnightblue" points="422.946,-1127.58 412.394,-1126.63 420.048,-1133.96 422.946,-1127.58"/>
</g>
<!-- Node10 -->
<g id="node10" class="node"><title>Node10</title>
<g id="a_node10"><a xlink:href="classtomoBay_1_1model_1_1sql_1_1queries_1_1concreteQueries_1_1insert_1_1InsertOrderInOrderStatus.html" target="_top" xlink:title="This Class represents a Query that inserts an order into the order_status table in the database...">
<polygon fill="white" stroke="black" points="489,-1164.5 489,-1183.5 615,-1183.5 615,-1164.5 489,-1164.5"/>
<text text-anchor="middle" x="552" y="-1171.5" font-family="Helvetica,sans-Serif" font-size="10.00">InsertOrderInOrderStatus</text>
</a>
</g>
</g>
<!-- Node4&#45;&gt;Node10 -->
<g id="edge9" class="edge"><title>Node4&#45;&gt;Node10</title>
<path fill="none" stroke="midnightblue" d="M409.807,-1129.32C416.687,-1131.31 423.557,-1133.54 430,-1136 446.903,-1142.45 449.022,-1148.75 466,-1155 476.217,-1158.76 487.41,-1161.91 498.223,-1164.49"/>
<polygon fill="midnightblue" stroke="midnightblue" points="410.338,-1125.84 399.768,-1126.58 408.489,-1132.59 410.338,-1125.84"/>
</g>
<!-- Node11 -->
<g id="node11" class="node"><title>Node11</title>
<g id="a_node11"><a xlink:href="classtomoBay_1_1model_1_1sql_1_1queries_1_1concreteQueries_1_1insert_1_1InsertOutOfHoursOrders.html" target="_top" xlink:title="This class represents a query that inserts a new entry into the outOfHours table in the database...">
<polygon fill="white" stroke="black" points="490.5,-1126.5 490.5,-1145.5 613.5,-1145.5 613.5,-1126.5 490.5,-1126.5"/>
<text text-anchor="middle" x="552" y="-1133.5" font-family="Helvetica,sans-Serif" font-size="10.00">InsertOutOfHoursOrders</text>
</a>
</g>
</g>
<!-- Node4&#45;&gt;Node11 -->
<g id="edge10" class="edge"><title>Node4&#45;&gt;Node11</title>
<path fill="none" stroke="midnightblue" d="M434.228,-1124.77C452.935,-1126.57 472.535,-1128.45 490.219,-1130.15"/>
<polygon fill="midnightblue" stroke="midnightblue" points="434.533,-1121.28 424.244,-1123.81 433.863,-1128.25 434.533,-1121.28"/>
</g>
<!-- Node12 -->
<g id="node12" class="node"><title>Node12</title>
<g id="a_node12"><a xlink:href="classtomoBay_1_1model_1_1sql_1_1queries_1_1concreteQueries_1_1update_1_1UpdateEbayBuyer.html" target="_top" xlink:title="This class represents an sql query that updates a record the buyer table in the database with new inf...">
<polygon fill="white" stroke="black" points="504,-1088.5 504,-1107.5 600,-1107.5 600,-1088.5 504,-1088.5"/>
<text text-anchor="middle" x="552" y="-1095.5" font-family="Helvetica,sans-Serif" font-size="10.00">UpdateEbayBuyer</text>
</a>
</g>
</g>
<!-- Node4&#45;&gt;Node12 -->
<g id="edge11" class="edge"><title>Node4&#45;&gt;Node12</title>
<path fill="none" stroke="midnightblue" d="M434.285,-1109.23C457.955,-1106.95 483.05,-1104.54 503.881,-1102.53"/>
<polygon fill="midnightblue" stroke="midnightblue" points="433.863,-1105.75 424.244,-1110.19 434.533,-1112.72 433.863,-1105.75"/>
</g>
<!-- Node13 -->
<g id="node13" class="node"><title>Node13</title>
<g id="a_node13"><a xlink:href="classtomoBay_1_1model_1_1sql_1_1queries_1_1concreteQueries_1_1update_1_1UpdateInvoiceStatus.html" target="_top" xlink:title="This class represents a query that updates the &#39;invoiced&#39; field of particular order on the orders tab...">
<polygon fill="white" stroke="black" points="498,-1050.5 498,-1069.5 606,-1069.5 606,-1050.5 498,-1050.5"/>
<text text-anchor="middle" x="552" y="-1057.5" font-family="Helvetica,sans-Serif" font-size="10.00">UpdateInvoiceStatus</text>
</a>
</g>
</g>
<!-- Node4&#45;&gt;Node13 -->
<g id="edge12" class="edge"><title>Node4&#45;&gt;Node13</title>
<path fill="none" stroke="midnightblue" d="M388.763,-1104.02C410.786,-1096.18 439.831,-1086.32 466,-1079 478.232,-1075.58 491.588,-1072.36 504.014,-1069.57"/>
<polygon fill="midnightblue" stroke="midnightblue" points="387.403,-1100.79 379.174,-1107.46 389.769,-1107.38 387.403,-1100.79"/>
</g>
<!-- Node14 -->
<g id="node14" class="node"><title>Node14</title>
<g id="a_node14"><a xlink:href="classtomoBay_1_1model_1_1sql_1_1queries_1_1concreteQueries_1_1update_1_1UpdateInvoiceStatusSRN.html" target="_top" xlink:title="This class represents a query that updates the invoice status of a particular order. ">
<polygon fill="white" stroke="black" points="487,-1012.5 487,-1031.5 617,-1031.5 617,-1012.5 487,-1012.5"/>
<text text-anchor="middle" x="552" y="-1019.5" font-family="Helvetica,sans-Serif" font-size="10.00">UpdateInvoiceStatusSRN</text>
</a>
</g>
</g>
<!-- Node4&#45;&gt;Node14 -->
<g id="edge13" class="edge"><title>Node4&#45;&gt;Node14</title>
<path fill="none" stroke="midnightblue" d="M372.41,-1100.93C393.771,-1083.59 430.235,-1056.42 466,-1041 474.887,-1037.17 484.643,-1034.07 494.278,-1031.57"/>
<polygon fill="midnightblue" stroke="midnightblue" points="369.964,-1098.41 364.483,-1107.47 374.422,-1103.81 369.964,-1098.41"/>
</g>
<!-- Node15 -->
<g id="node15" class="node"><title>Node15</title>
<g id="a_node15"><a xlink:href="classtomoBay_1_1model_1_1sql_1_1queries_1_1concreteQueries_1_1update_1_1UpdateItemBrandAndPartNo.html" target="_top" xlink:title="This class represents a query that updates the brand and partNo of a particular item in the items tab...">
<polygon fill="white" stroke="black" points="481.5,-974.5 481.5,-993.5 622.5,-993.5 622.5,-974.5 481.5,-974.5"/>
<text text-anchor="middle" x="552" y="-981.5" font-family="Helvetica,sans-Serif" font-size="10.00">UpdateItemBrandAndPartNo</text>
</a>
</g>
</g>
<!-- Node4&#45;&gt;Node15 -->
<g id="edge14" class="edge"><title>Node4&#45;&gt;Node15</title>
<path fill="none" stroke="midnightblue" d="M366.09,-1098.82C384.801,-1073.25 422.46,-1027.12 466,-1003 473.01,-999.116 480.761,-996.026 488.645,-993.567"/>
<polygon fill="midnightblue" stroke="midnightblue" points="363.047,-1097.06 360.077,-1107.23 368.741,-1101.13 363.047,-1097.06"/>
</g>
<!-- Node16 -->
<g id="node16" class="node"><title>Node16</title>
<g id="a_node16"><a xlink:href="classtomoBay_1_1model_1_1sql_1_1queries_1_1concreteQueries_1_1update_1_1UpdateItemError.html" target="_top" xlink:title="This class represents a query that updates the brand and partNo of a particular item in the items tab...">
<polygon fill="white" stroke="black" points="507.5,-936.5 507.5,-955.5 596.5,-955.5 596.5,-936.5 507.5,-936.5"/>
<text text-anchor="middle" x="552" y="-943.5" font-family="Helvetica,sans-Serif" font-size="10.00">UpdateItemError</text>
</a>
</g>
</g>
<!-- Node4&#45;&gt;Node16 -->
<g id="edge15" class="edge"><title>Node4&#45;&gt;Node16</title>
<path fill="none" stroke="midnightblue" d="M361.998,-1097.96C377.615,-1065.27 414.101,-998.764 466,-965 478.168,-957.084 493.163,-952.433 507.154,-949.712"/>
<polygon fill="midnightblue" stroke="midnightblue" points="358.699,-1096.75 357.668,-1107.29 365.049,-1099.69 358.699,-1096.75"/>
</g>
<!-- Node17 -->
<g id="node17" class="node"><title>Node17</title>
<g id="a_node17"><a xlink:href="classtomoBay_1_1model_1_1sql_1_1queries_1_1concreteQueries_1_1update_1_1UpdateItemNote.html" target="_top" xlink:title="This class represents a query that updates the notes field of the ebay_items table in the database...">
<polygon fill="white" stroke="black" points="507.5,-898.5 507.5,-917.5 596.5,-917.5 596.5,-898.5 507.5,-898.5"/>
<text text-anchor="middle" x="552" y="-905.5" font-family="Helvetica,sans-Serif" font-size="10.00">UpdateItemNote</text>
</a>
</g>
</g>
<!-- Node4&#45;&gt;Node17 -->
<g id="edge16" class="edge"><title>Node4&#45;&gt;Node17</title>
<path fill="none" stroke="midnightblue" d="M359.198,-1097.62C371.69,-1058.72 405.323,-971.06 466,-927 477.868,-918.382 492.946,-913.567 507.097,-910.91"/>
<polygon fill="midnightblue" stroke="midnightblue" points="355.839,-1096.64 356.23,-1107.23 362.527,-1098.71 355.839,-1096.64"/>
</g>
<!-- Node19 -->
<g id="node19" class="node"><title>Node19</title>
<g id="a_node19"><a xlink:href="classtomoBay_1_1model_1_1sql_1_1framework_1_1queryTypes_1_1select_1_1AbstractSelectNoParamsQuery.html" target="_top" xlink:title="This class defines the Abstract base for all Select queries that do not require parameters. ">
<polygon fill="white" stroke="black" points="275.5,-670.5 275.5,-689.5 429.5,-689.5 429.5,-670.5 275.5,-670.5"/>
<text text-anchor="middle" x="352.5" y="-677.5" font-family="Helvetica,sans-Serif" font-size="10.00">AbstractSelectNoParamsQuery</text>
</a>
</g>
</g>
<!-- Node18&#45;&gt;Node19 -->
<g id="edge18" class="edge"><title>Node18&#45;&gt;Node19</title>
<path fill="none" stroke="midnightblue" d="M248.245,-680C257.102,-680 266.287,-680 275.362,-680"/>
<polygon fill="midnightblue" stroke="midnightblue" points="248.023,-676.5 238.023,-680 248.023,-683.5 248.023,-676.5"/>
</g>
<!-- Node31 -->
<g id="node31" class="node"><title>Node31</title>
<g id="a_node31"><a xlink:href="classtomoBay_1_1model_1_1sql_1_1framework_1_1queryTypes_1_1select_1_1AbstractSelectParamsQuery.html" target="_top" xlink:title="This class defines the abstract base for all Select queries that take parameters. ...">
<polygon fill="white" stroke="black" points="282,-240.5 282,-259.5 423,-259.5 423,-240.5 282,-240.5"/>
<text text-anchor="middle" x="352.5" y="-247.5" font-family="Helvetica,sans-Serif" font-size="10.00">AbstractSelectParamsQuery</text>
</a>
</g>
</g>
<!-- Node18&#45;&gt;Node31 -->
<g id="edge30" class="edge"><title>Node18&#45;&gt;Node31</title>
<path fill="none" stroke="midnightblue" d="M193.001,-660.57C222.074,-585.261 326.753,-314.104 347.799,-259.587"/>
<polygon fill="midnightblue" stroke="midnightblue" points="189.615,-659.621 189.279,-670.211 196.146,-662.142 189.615,-659.621"/>
</g>
<!-- Node20 -->
<g id="node20" class="node"><title>Node20</title>
<g id="a_node20"><a xlink:href="classtomoBay_1_1model_1_1sql_1_1queries_1_1concreteQueries_1_1select_1_1noParams_1_1SelectAccounts.html" target="_top" xlink:title="SelectAccounts">
<polygon fill="white" stroke="black" points="509,-860.5 509,-879.5 595,-879.5 595,-860.5 509,-860.5"/>
<text text-anchor="middle" x="552" y="-867.5" font-family="Helvetica,sans-Serif" font-size="10.00">SelectAccounts</text>
</a>
</g>
</g>
<!-- Node19&#45;&gt;Node20 -->
<g id="edge19" class="edge"><title>Node19&#45;&gt;Node20</title>
<path fill="none" stroke="midnightblue" d="M360.524,-699.379C374.602,-735.326 409.821,-812.202 466,-851 478.442,-859.593 494.134,-864.372 508.638,-867.005"/>
<polygon fill="midnightblue" stroke="midnightblue" points="363.646,-697.739 356.834,-689.624 357.099,-700.216 363.646,-697.739"/>
</g>
<!-- Node21 -->
<g id="node21" class="node"><title>Node21</title>
<g id="a_node21"><a xlink:href="classtomoBay_1_1model_1_1sql_1_1queries_1_1concreteQueries_1_1select_1_1noParams_1_1SelectEbayBuyers.html" target="_top" xlink:title="SelectEbayBuyers">
<polygon fill="white" stroke="black" points="503,-822.5 503,-841.5 601,-841.5 601,-822.5 503,-822.5"/>
<text text-anchor="middle" x="552" y="-829.5" font-family="Helvetica,sans-Serif" font-size="10.00">SelectEbayBuyers</text>
</a>
</g>
</g>
<!-- Node19&#45;&gt;Node21 -->
<g id="edge20" class="edge"><title>Node19&#45;&gt;Node21</title>
<path fill="none" stroke="midnightblue" d="M363.594,-698.294C380.668,-727.425 418.116,-784.016 466,-813 476.995,-819.656 490.06,-823.986 502.608,-826.802"/>
<polygon fill="midnightblue" stroke="midnightblue" points="366.597,-696.495 358.599,-689.547 360.518,-699.966 366.597,-696.495"/>
</g>
<!-- Node22 -->
<g id="node22" class="node"><title>Node22</title>
<g id="a_node22"><a xlink:href="classtomoBay_1_1model_1_1sql_1_1queries_1_1concreteQueries_1_1select_1_1noParams_1_1SelectEbayItems.html" target="_top" xlink:title="This class represents a query that selects all the fields in the items table of the database...">
<polygon fill="white" stroke="black" points="506,-784.5 506,-803.5 598,-803.5 598,-784.5 506,-784.5"/>
<text text-anchor="middle" x="552" y="-791.5" font-family="Helvetica,sans-Serif" font-size="10.00">SelectEbayItems</text>
</a>
</g>
</g>
<!-- Node19&#45;&gt;Node22 -->
<g id="edge21" class="edge"><title>Node19&#45;&gt;Node22</title>
<path fill="none" stroke="midnightblue" d="M368.539,-696.987C388.59,-718.533 426.201,-755.253 466,-775 478.326,-781.116 492.63,-785.285 505.947,-788.118"/>
<polygon fill="midnightblue" stroke="midnightblue" points="371.071,-694.569 361.746,-689.539 365.899,-699.286 371.071,-694.569"/>
</g>
<!-- Node23 -->
<g id="node23" class="node"><title>Node23</title>
<g id="a_node23"><a xlink:href="classtomoBay_1_1model_1_1sql_1_1queries_1_1concreteQueries_1_1select_1_1noParams_1_1SelectEbayItemsError.html" target="_top" xlink:title="SelectEbayItemsError">
<polygon fill="white" stroke="black" points="495.5,-746.5 495.5,-765.5 608.5,-765.5 608.5,-746.5 495.5,-746.5"/>
<text text-anchor="middle" x="552" y="-753.5" font-family="Helvetica,sans-Serif" font-size="10.00">SelectEbayItemsError</text>
</a>
</g>
</g>
<!-- Node19&#45;&gt;Node23 -->
<g id="edge22" class="edge"><title>Node19&#45;&gt;Node23</title>
<path fill="none" stroke="midnightblue" d="M378.112,-694.732C400.387,-707.508 434.442,-725.679 466,-737 476.39,-740.727 487.766,-743.874 498.721,-746.468"/>
<polygon fill="midnightblue" stroke="midnightblue" points="379.733,-691.625 369.329,-689.622 376.213,-697.676 379.733,-691.625"/>
</g>
<!-- Node24 -->
<g id="node24" class="node"><title>Node24</title>
<g id="a_node24"><a xlink:href="classtomoBay_1_1model_1_1sql_1_1queries_1_1concreteQueries_1_1select_1_1noParams_1_1SelectEbayItemsNotInTransactions.html" target="_top" xlink:title="This class represents a query that selects all items (from the transactions table) that do not curren...">
<polygon fill="white" stroke="black" points="466,-708.5 466,-727.5 638,-727.5 638,-708.5 466,-708.5"/>
<text text-anchor="middle" x="552" y="-715.5" font-family="Helvetica,sans-Serif" font-size="10.00">SelectEbayItemsNotInTransactions</text>
</a>
</g>
</g>
<!-- Node19&#45;&gt;Node24 -->
<g id="edge23" class="edge"><title>Node19&#45;&gt;Node24</title>
<path fill="none" stroke="midnightblue" d="M413.215,-691.489C441.395,-696.911 474.629,-703.306 501.397,-708.456"/>
<polygon fill="midnightblue" stroke="midnightblue" points="413.564,-687.992 403.083,-689.54 412.241,-694.866 413.564,-687.992"/>
</g>
<!-- Node25 -->
<g id="node25" class="node"><title>Node25</title>
<g id="a_node25"><a xlink:href="classtomoBay_1_1model_1_1sql_1_1queries_1_1concreteQueries_1_1select_1_1noParams_1_1SelectEbayOrders.html" target="_top" xlink:title="This class represents a query that selects all data contained in the orders table of the database sor...">
<polygon fill="white" stroke="black" points="504,-670.5 504,-689.5 600,-689.5 600,-670.5 504,-670.5"/>
<text text-anchor="middle" x="552" y="-677.5" font-family="Helvetica,sans-Serif" font-size="10.00">SelectEbayOrders</text>
</a>
</g>
</g>
<!-- Node19&#45;&gt;Node25 -->
<g id="edge24" class="edge"><title>Node19&#45;&gt;Node25</title>
<path fill="none" stroke="midnightblue" d="M439.627,-680C461.667,-680 484.56,-680 503.816,-680"/>
<polygon fill="midnightblue" stroke="midnightblue" points="439.576,-676.5 429.576,-680 439.576,-683.5 439.576,-676.5"/>
</g>
<!-- Node26 -->
<g id="node26" class="node"><title>Node26</title>
<g id="a_node26"><a xlink:href="classtomoBay_1_1model_1_1sql_1_1queries_1_1concreteQueries_1_1select_1_1noParams_1_1SelectInvoicedOrders.html" target="_top" xlink:title="This class represents a query that selects all data from the orders table that is not currently invoi...">
<polygon fill="white" stroke="black" points="497,-632.5 497,-651.5 607,-651.5 607,-632.5 497,-632.5"/>
<text text-anchor="middle" x="552" y="-639.5" font-family="Helvetica,sans-Serif" font-size="10.00">SelectInvoicedOrders</text>
</a>
</g>
</g>
<!-- Node19&#45;&gt;Node26 -->
<g id="edge25" class="edge"><title>Node19&#45;&gt;Node26</title>
<path fill="none" stroke="midnightblue" d="M413.215,-668.511C441.395,-663.089 474.629,-656.694 501.397,-651.544"/>
<polygon fill="midnightblue" stroke="midnightblue" points="412.241,-665.134 403.083,-670.46 413.564,-672.008 412.241,-665.134"/>
</g>
<!-- Node27 -->
<g id="node27" class="node"><title>Node27</title>
<g id="a_node27"><a xlink:href="classtomoBay_1_1model_1_1sql_1_1queries_1_1concreteQueries_1_1select_1_1noParams_1_1SelectUncalculatedInvoices.html" target="_top" xlink:title="SelectUncalculatedInvoices">
<polygon fill="white" stroke="black" points="483,-594.5 483,-613.5 621,-613.5 621,-594.5 483,-594.5"/>
<text text-anchor="middle" x="552" y="-601.5" font-family="Helvetica,sans-Serif" font-size="10.00">SelectUncalculatedInvoices</text>
</a>
</g>
</g>
<!-- Node19&#45;&gt;Node27 -->
<g id="edge26" class="edge"><title>Node19&#45;&gt;Node27</title>
<path fill="none" stroke="midnightblue" d="M378.112,-665.268C400.387,-652.492 434.442,-634.321 466,-623 476.39,-619.273 487.766,-616.126 498.721,-613.532"/>
<polygon fill="midnightblue" stroke="midnightblue" points="376.213,-662.324 369.329,-670.378 379.733,-668.375 376.213,-662.324"/>
</g>
<!-- Node28 -->
<g id="node28" class="node"><title>Node28</title>
<g id="a_node28"><a xlink:href="classtomoBay_1_1model_1_1sql_1_1queries_1_1concreteQueries_1_1select_1_1noParams_1_1SelectUncalculatedOrders.html" target="_top" xlink:title="SelectUncalculatedOrders">
<polygon fill="white" stroke="black" points="486.5,-556.5 486.5,-575.5 617.5,-575.5 617.5,-556.5 486.5,-556.5"/>
<text text-anchor="middle" x="552" y="-563.5" font-family="Helvetica,sans-Serif" font-size="10.00">SelectUncalculatedOrders</text>
</a>
</g>
</g>
<!-- Node19&#45;&gt;Node28 -->
<g id="edge27" class="edge"><title>Node19&#45;&gt;Node28</title>
<path fill="none" stroke="midnightblue" d="M368.539,-663.013C388.59,-641.467 426.201,-604.747 466,-585 473.856,-581.102 482.516,-577.995 491.211,-575.52"/>
<polygon fill="midnightblue" stroke="midnightblue" points="365.899,-660.714 361.746,-670.461 371.071,-665.431 365.899,-660.714"/>
</g>
<!-- Node29 -->
<g id="node29" class="node"><title>Node29</title>
<g id="a_node29"><a xlink:href="classtomoBay_1_1model_1_1sql_1_1queries_1_1concreteQueries_1_1select_1_1noParams_1_1SelectUninvoicedOrders.html" target="_top" xlink:title="This class represents a query that selects all data from the orders table that is not currently invoi...">
<polygon fill="white" stroke="black" points="491,-518.5 491,-537.5 613,-537.5 613,-518.5 491,-518.5"/>
<text text-anchor="middle" x="552" y="-525.5" font-family="Helvetica,sans-Serif" font-size="10.00">SelectUninvoicedOrders</text>
</a>
</g>
</g>
<!-- Node19&#45;&gt;Node29 -->
<g id="edge28" class="edge"><title>Node19&#45;&gt;Node29</title>
<path fill="none" stroke="midnightblue" d="M363.594,-661.706C380.668,-632.575 418.116,-575.984 466,-547 473.503,-542.459 481.969,-539 490.577,-536.366"/>
<polygon fill="midnightblue" stroke="midnightblue" points="360.518,-660.034 358.599,-670.453 366.597,-663.505 360.518,-660.034"/>
</g>
<!-- Node30 -->
<g id="node30" class="node"><title>Node30</title>
<g id="a_node30"><a xlink:href="classtomoBay_1_1model_1_1sql_1_1queries_1_1concreteQueries_1_1select_1_1noParams_1_1SelectUninvoicedOrdersNoErrors.html" target="_top" xlink:title="SelectUninvoicedOrdersNo\lErrors">
<polygon fill="white" stroke="black" points="484.5,-469 484.5,-499 619.5,-499 619.5,-469 484.5,-469"/>
<text text-anchor="start" x="492.5" y="-487" font-family="Helvetica,sans-Serif" font-size="10.00">SelectUninvoicedOrdersNo</text>
<text text-anchor="middle" x="552" y="-476" font-family="Helvetica,sans-Serif" font-size="10.00">Errors</text>
</a>
</g>
</g>
<!-- Node19&#45;&gt;Node30 -->
<g id="edge29" class="edge"><title>Node19&#45;&gt;Node30</title>
<path fill="none" stroke="midnightblue" d="M360.976,-660.461C375.596,-624.874 411.394,-549.443 466,-509 471.562,-504.88 477.796,-501.437 484.292,-498.558"/>
<polygon fill="midnightblue" stroke="midnightblue" points="357.568,-659.558 357.121,-670.143 364.072,-662.147 357.568,-659.558"/>
</g>
<!-- Node32 -->
<g id="node32" class="node"><title>Node32</title>
<g id="a_node32"><a xlink:href="classtomoBay_1_1model_1_1sql_1_1queries_1_1concreteQueries_1_1select_1_1params_1_1SelectBrandAndPartNoByOrderID.html" target="_top" xlink:title="This class represents a query that selects the brand and part number fields associated with a particu...">
<polygon fill="white" stroke="black" points="470,-430.5 470,-449.5 634,-449.5 634,-430.5 470,-430.5"/>
<text text-anchor="middle" x="552" y="-437.5" font-family="Helvetica,sans-Serif" font-size="10.00">SelectBrandAndPartNoByOrderID</text>
</a>
</g>
</g>
<!-- Node31&#45;&gt;Node32 -->
<g id="edge31" class="edge"><title>Node31&#45;&gt;Node32</title>
<path fill="none" stroke="midnightblue" d="M360.524,-269.379C374.602,-305.326 409.821,-382.202 466,-421 471.599,-424.867 477.856,-427.961 484.367,-430.435"/>
<polygon fill="midnightblue" stroke="midnightblue" points="363.646,-267.739 356.834,-259.624 357.099,-270.216 363.646,-267.739"/>
</g>
<!-- Node33 -->
<g id="node33" class="node"><title>Node33</title>
<g id="a_node33"><a xlink:href="classtomoBay_1_1model_1_1sql_1_1queries_1_1concreteQueries_1_1select_1_1params_1_1SelectBrandByInv.html" target="_top" xlink:title="This class represents a Query that selects the Brand value associated with a particular invoice numbe...">
<polygon fill="white" stroke="black" points="504.5,-392.5 504.5,-411.5 599.5,-411.5 599.5,-392.5 504.5,-392.5"/>
<text text-anchor="middle" x="552" y="-399.5" font-family="Helvetica,sans-Serif" font-size="10.00">SelectBrandByInv</text>
</a>
</g>
</g>
<!-- Node31&#45;&gt;Node33 -->
<g id="edge32" class="edge"><title>Node31&#45;&gt;Node33</title>
<path fill="none" stroke="midnightblue" d="M363.594,-268.294C380.668,-297.425 418.116,-354.016 466,-383 477.513,-389.969 491.294,-394.389 504.375,-397.189"/>
<polygon fill="midnightblue" stroke="midnightblue" points="366.597,-266.495 358.599,-259.547 360.518,-269.966 366.597,-266.495"/>
</g>
<!-- Node34 -->
<g id="node34" class="node"><title>Node34</title>
<g id="a_node34"><a xlink:href="classtomoBay_1_1model_1_1sql_1_1queries_1_1concreteQueries_1_1select_1_1params_1_1SelectBuyerByAccAndSRN.html" target="_top" xlink:title="Copyright(C) 2015 Jan P.C. ">
<polygon fill="white" stroke="black" points="483,-354.5 483,-373.5 621,-373.5 621,-354.5 483,-354.5"/>
<text text-anchor="middle" x="552" y="-361.5" font-family="Helvetica,sans-Serif" font-size="10.00">SelectBuyerByAccAndSRN</text>
</a>
</g>
</g>
<!-- Node31&#45;&gt;Node34 -->
<g id="edge33" class="edge"><title>Node31&#45;&gt;Node34</title>
<path fill="none" stroke="midnightblue" d="M368.539,-266.987C388.59,-288.533 426.201,-325.253 466,-345 473.856,-348.898 482.516,-352.005 491.211,-354.48"/>
<polygon fill="midnightblue" stroke="midnightblue" points="371.071,-264.569 361.746,-259.539 365.899,-269.286 371.071,-264.569"/>
</g>
<!-- Node35 -->
<g id="node35" class="node"><title>Node35</title>
<g id="a_node35"><a xlink:href="classtomoBay_1_1model_1_1sql_1_1queries_1_1concreteQueries_1_1select_1_1params_1_1SelectEbayBuyer.html" target="_top" xlink:title="This class represents a query that selects all the information contained within the ebay_buyers table...">
<polygon fill="white" stroke="black" points="506,-316.5 506,-335.5 598,-335.5 598,-316.5 506,-316.5"/>
<text text-anchor="middle" x="552" y="-323.5" font-family="Helvetica,sans-Serif" font-size="10.00">SelectEbayBuyer</text>
</a>
</g>
</g>
<!-- Node31&#45;&gt;Node35 -->
<g id="edge34" class="edge"><title>Node31&#45;&gt;Node35</title>
<path fill="none" stroke="midnightblue" d="M378.112,-264.732C400.387,-277.508 434.442,-295.679 466,-307 478.667,-311.544 492.8,-315.225 505.849,-318.094"/>
<polygon fill="midnightblue" stroke="midnightblue" points="379.733,-261.625 369.329,-259.622 376.213,-267.676 379.733,-261.625"/>
</g>
<!-- Node36 -->
<g id="node36" class="node"><title>Node36</title>
<g id="a_node36"><a xlink:href="classtomoBay_1_1model_1_1sql_1_1queries_1_1concreteQueries_1_1select_1_1params_1_1SelectEbayItemSpecific.html" target="_top" xlink:title="This class represents a query that selects all fields related to a specific item from the items table...">
<polygon fill="white" stroke="black" points="491,-278.5 491,-297.5 613,-297.5 613,-278.5 491,-278.5"/>
<text text-anchor="middle" x="552" y="-285.5" font-family="Helvetica,sans-Serif" font-size="10.00">SelectEbayItemSpecific</text>
</a>
</g>
</g>
<!-- Node31&#45;&gt;Node36 -->
<g id="edge35" class="edge"><title>Node31&#45;&gt;Node36</title>
<path fill="none" stroke="midnightblue" d="M413.215,-261.489C441.395,-266.911 474.629,-273.306 501.397,-278.456"/>
<polygon fill="midnightblue" stroke="midnightblue" points="413.564,-257.992 403.083,-259.54 412.241,-264.866 413.564,-257.992"/>
</g>
<!-- Node37 -->
<g id="node37" class="node"><title>Node37</title>
<g id="a_node37"><a xlink:href="classtomoBay_1_1model_1_1sql_1_1queries_1_1concreteQueries_1_1select_1_1params_1_1SelectEbayOrderByBuyer.html" target="_top" xlink:title="This class represents a query that selects the orderID and account from the ebay_orders table where t...">
<polygon fill="white" stroke="black" points="488,-240.5 488,-259.5 616,-259.5 616,-240.5 488,-240.5"/>
<text text-anchor="middle" x="552" y="-247.5" font-family="Helvetica,sans-Serif" font-size="10.00">SelectEbayOrderByBuyer</text>
</a>
</g>
</g>
<!-- Node31&#45;&gt;Node37 -->
<g id="edge36" class="edge"><title>Node31&#45;&gt;Node37</title>
<path fill="none" stroke="midnightblue" d="M433.148,-250C451.376,-250 470.507,-250 487.926,-250"/>
<polygon fill="midnightblue" stroke="midnightblue" points="433.131,-246.5 423.131,-250 433.131,-253.5 433.131,-246.5"/>
</g>
<!-- Node38 -->
<g id="node38" class="node"><title>Node38</title>
<g id="a_node38"><a xlink:href="classtomoBay_1_1model_1_1sql_1_1queries_1_1concreteQueries_1_1select_1_1params_1_1SelectEbayOrderByID.html" target="_top" xlink:title="This class represents a query that selects all the fields from the ebay_orders table where the orderI...">
<polygon fill="white" stroke="black" points="495.5,-202.5 495.5,-221.5 608.5,-221.5 608.5,-202.5 495.5,-202.5"/>
<text text-anchor="middle" x="552" y="-209.5" font-family="Helvetica,sans-Serif" font-size="10.00">SelectEbayOrderByID</text>
</a>
</g>
</g>
<!-- Node31&#45;&gt;Node38 -->
<g id="edge37" class="edge"><title>Node31&#45;&gt;Node38</title>
<path fill="none" stroke="midnightblue" d="M413.215,-238.511C441.395,-233.089 474.629,-226.694 501.397,-221.544"/>
<polygon fill="midnightblue" stroke="midnightblue" points="412.241,-235.134 403.083,-240.46 413.564,-242.008 412.241,-235.134"/>
</g>
<!-- Node39 -->
<g id="node39" class="node"><title>Node39</title>
<g id="a_node39"><a xlink:href="classtomoBay_1_1model_1_1sql_1_1queries_1_1concreteQueries_1_1select_1_1params_1_1SelectEbayOrderHistoryLastNDays.html" target="_top" xlink:title="This class represents a query that displays the history of Listings ordered over the last N days...">
<polygon fill="white" stroke="black" points="481.5,-153 481.5,-183 622.5,-183 622.5,-153 481.5,-153"/>
<text text-anchor="start" x="489.5" y="-171" font-family="Helvetica,sans-Serif" font-size="10.00">SelectEbayOrderHistoryLast</text>
<text text-anchor="middle" x="552" y="-160" font-family="Helvetica,sans-Serif" font-size="10.00">NDays</text>
</a>
</g>
</g>
<!-- Node31&#45;&gt;Node39 -->
<g id="edge38" class="edge"><title>Node31&#45;&gt;Node39</title>
<path fill="none" stroke="midnightblue" d="M379.075,-235.342C401.481,-222.916 435.19,-205.217 466,-193 475.008,-189.428 484.731,-186.1 494.27,-183.112"/>
<polygon fill="midnightblue" stroke="midnightblue" points="377.217,-232.371 370.205,-240.313 380.639,-238.477 377.217,-232.371"/>
</g>
<!-- Node40 -->
<g id="node40" class="node"><title>Node40</title>
<g id="a_node40"><a xlink:href="classtomoBay_1_1model_1_1sql_1_1queries_1_1concreteQueries_1_1select_1_1params_1_1SelectEbayTransactionByID.html" target="_top" xlink:title="This class represents a query that selects the itemId, quantity, price and shippingCost field from th...">
<polygon fill="white" stroke="black" points="482,-114.5 482,-133.5 622,-133.5 622,-114.5 482,-114.5"/>
<text text-anchor="middle" x="552" y="-121.5" font-family="Helvetica,sans-Serif" font-size="10.00">SelectEbayTransactionByID</text>
</a>
</g>
</g>
<!-- Node31&#45;&gt;Node40 -->
<g id="edge39" class="edge"><title>Node31&#45;&gt;Node40</title>
<path fill="none" stroke="midnightblue" d="M367,-232.468C386.301,-208.668 424.111,-166.525 466,-144 474.145,-139.62 483.234,-136.192 492.355,-133.511"/>
<polygon fill="midnightblue" stroke="midnightblue" points="364.23,-230.328 360.753,-240.337 369.712,-234.681 364.23,-230.328"/>
</g>
<!-- Node41 -->
<g id="node41" class="node"><title>Node41</title>
<g id="a_node41"><a xlink:href="classtomoBay_1_1model_1_1sql_1_1queries_1_1concreteQueries_1_1select_1_1params_1_1SelectFullOrderLine.html" target="_top" xlink:title="This class represents a query that provides the majority of information associated with a particular ...">
<polygon fill="white" stroke="black" points="501,-76.5 501,-95.5 603,-95.5 603,-76.5 501,-76.5"/>
<text text-anchor="middle" x="552" y="-83.5" font-family="Helvetica,sans-Serif" font-size="10.00">SelectFullOrderLine</text>
</a>
</g>
</g>
<!-- Node31&#45;&gt;Node41 -->
<g id="edge40" class="edge"><title>Node31&#45;&gt;Node41</title>
<path fill="none" stroke="midnightblue" d="M362.471,-231.38C378.582,-200.039 415.507,-137.04 466,-105 476.342,-98.4377 488.649,-94.126 500.642,-91.2976"/>
<polygon fill="midnightblue" stroke="midnightblue" points="359.321,-229.854 357.98,-240.364 365.582,-232.984 359.321,-229.854"/>
</g>
<!-- Node42 -->
<g id="node42" class="node"><title>Node42</title>
<g id="a_node42"><a xlink:href="classtomoBay_1_1model_1_1sql_1_1queries_1_1concreteQueries_1_1select_1_1params_1_1SelectOutOfHoursOrders.html" target="_top" xlink:title="this class represents a query that selects the sales record number, order total, created time and dat...">
<polygon fill="white" stroke="black" points="489,-38.5 489,-57.5 615,-57.5 615,-38.5 489,-38.5"/>
<text text-anchor="middle" x="552" y="-45.5" font-family="Helvetica,sans-Serif" font-size="10.00">SelectOutOfHoursOrders</text>
</a>
</g>
</g>
<!-- Node31&#45;&gt;Node42 -->
<g id="edge41" class="edge"><title>Node31&#45;&gt;Node42</title>
<path fill="none" stroke="midnightblue" d="M359.764,-230.312C372.915,-192.331 407.147,-108.994 466,-67 472.77,-62.1694 480.554,-58.5375 488.605,-55.8121"/>
<polygon fill="midnightblue" stroke="midnightblue" points="356.327,-229.557 356.483,-240.151 362.967,-231.772 356.327,-229.557"/>
</g>
<!-- Node43 -->
<g id="node43" class="node"><title>Node43</title>
<g id="a_node43"><a xlink:href="classtomoBay_1_1model_1_1sql_1_1queries_1_1concreteQueries_1_1select_1_1params_1_1SelectTransactionByOrder.html" target="_top" xlink:title="This class represents a query that selects all data from the transactions table of the database given...">
<polygon fill="white" stroke="black" points="486.5,-0.5 486.5,-19.5 617.5,-19.5 617.5,-0.5 486.5,-0.5"/>
<text text-anchor="middle" x="552" y="-7.5" font-family="Helvetica,sans-Serif" font-size="10.00">SelectTransactionByOrder</text>
</a>
</g>
</g>
<!-- Node31&#45;&gt;Node43 -->
<g id="edge42" class="edge"><title>Node31&#45;&gt;Node43</title>
<path fill="none" stroke="midnightblue" d="M357.586,-230.232C367.688,-186.586 398.101,-81.6887 466,-29 472.093,-24.2722 479.131,-20.6741 486.497,-17.9432"/>
<polygon fill="midnightblue" stroke="midnightblue" points="354.132,-229.644 355.398,-240.163 360.968,-231.15 354.132,-229.644"/>
</g>
</g>
</svg>
