<?xml version="1.0" encoding="UTF-8" standalone="no"?>
<!DOCTYPE svg PUBLIC "-//W3C//DTD SVG 1.1//EN"
 "http://www.w3.org/Graphics/SVG/1.1/DTD/svg11.dtd">
<!-- Generated by graphviz version 2.38.0 (20140413.2041)
 -->
<!-- Title: Graphical Class Hierarchy Pages: 1 -->
<svg width="354pt" height="496pt"
 viewBox="0.00 0.00 354.00 496.00" xmlns="http://www.w3.org/2000/svg" xmlns:xlink="http://www.w3.org/1999/xlink">
<g id="graph0" class="graph" transform="scale(1 1) rotate(0) translate(4 492)">
<title>Graphical Class Hierarchy</title>
<polygon fill="white" stroke="none" points="-4,4 -4,-492 350,-492 350,4 -4,4"/>
<!-- Node1 -->
<g id="node1" class="node"><title>Node1</title>
<g id="a_node1"><a xlink:href="interfacetomoBay_1_1presenters_1_1presenterActions_1_1factories_1_1AbstractPresenterActionFactory.html" target="_top" xlink:title="the interface all factories that create AbstractPresenterAction objects should inherit from...">
<polygon fill="white" stroke="black" points="0,-240.5 0,-259.5 156,-259.5 156,-240.5 0,-240.5"/>
<text text-anchor="middle" x="78" y="-247.5" font-family="Helvetica,sans-Serif" font-size="10.00">AbstractPresenterActionFactory</text>
</a>
</g>
</g>
<!-- Node2 -->
<g id="node2" class="node"><title>Node2</title>
<g id="a_node2"><a xlink:href="classtomoBay_1_1presenters_1_1presenterActions_1_1factories_1_1BuyerDetailsFactory.html" target="_top" xlink:title="Copyright(C) 2015 Jan P.C. ">
<polygon fill="white" stroke="black" points="216,-468.5 216,-487.5 322,-487.5 322,-468.5 216,-468.5"/>
<text text-anchor="middle" x="269" y="-475.5" font-family="Helvetica,sans-Serif" font-size="10.00">BuyerDetailsFactory</text>
</a>
</g>
</g>
<!-- Node1&#45;&gt;Node2 -->
<g id="edge1" class="edge"><title>Node1&#45;&gt;Node2</title>
<path fill="none" stroke="midnightblue" d="M83.7895,-269.434C95.0766,-311.006 127.391,-408.85 192,-459 198.983,-464.421 207.32,-468.313 215.873,-471.105"/>
<polygon fill="midnightblue" stroke="midnightblue" points="87.1651,-268.508 81.2593,-259.712 80.3907,-270.271 87.1651,-268.508"/>
</g>
<!-- Node3 -->
<g id="node3" class="node"><title>Node3</title>
<g id="a_node3"><a xlink:href="classtomoBay_1_1presenters_1_1presenterActions_1_1factories_1_1BuyerListFactory.html" target="_top" xlink:title="BuyerListFactory">
<polygon fill="white" stroke="black" points="223.5,-430.5 223.5,-449.5 314.5,-449.5 314.5,-430.5 223.5,-430.5"/>
<text text-anchor="middle" x="269" y="-437.5" font-family="Helvetica,sans-Serif" font-size="10.00">BuyerListFactory</text>
</a>
</g>
</g>
<!-- Node1&#45;&gt;Node3 -->
<g id="edge2" class="edge"><title>Node1&#45;&gt;Node3</title>
<path fill="none" stroke="midnightblue" d="M86.172,-269.248C100.508,-304.978 136.197,-381.505 192,-421 201.214,-427.521 212.442,-431.811 223.41,-434.631"/>
<polygon fill="midnightblue" stroke="midnightblue" points="89.2912,-267.612 82.4099,-259.556 82.7655,-270.145 89.2912,-267.612"/>
</g>
<!-- Node4 -->
<g id="node4" class="node"><title>Node4</title>
<g id="a_node4"><a xlink:href="classtomoBay_1_1presenters_1_1presenterActions_1_1factories_1_1GenerateRoyalMailCSVFactory.html" target="_top" xlink:title="Copyright(C) 2015 Jan P.C. ">
<polygon fill="white" stroke="black" points="192,-392.5 192,-411.5 346,-411.5 346,-392.5 192,-392.5"/>
<text text-anchor="middle" x="269" y="-399.5" font-family="Helvetica,sans-Serif" font-size="10.00">GenerateRoyalMailCSVFactory</text>
</a>
</g>
</g>
<!-- Node1&#45;&gt;Node4 -->
<g id="edge3" class="edge"><title>Node1&#45;&gt;Node4</title>
<path fill="none" stroke="midnightblue" d="M89.4978,-268.579C106.91,-297.638 144.594,-353.559 192,-383 198.239,-386.875 205.228,-389.96 212.372,-392.417"/>
<polygon fill="midnightblue" stroke="midnightblue" points="92.4526,-266.698 84.3849,-259.831 86.4091,-270.23 92.4526,-266.698"/>
</g>
<!-- Node5 -->
<g id="node5" class="node"><title>Node5</title>
<g id="a_node5"><a xlink:href="classtomoBay_1_1presenters_1_1presenterActions_1_1factories_1_1InvoiceOrdersFactory.html" target="_top" xlink:title="InvoiceOrdersFactory">
<polygon fill="white" stroke="black" points="214,-354.5 214,-373.5 324,-373.5 324,-354.5 214,-354.5"/>
<text text-anchor="middle" x="269" y="-361.5" font-family="Helvetica,sans-Serif" font-size="10.00">InvoiceOrdersFactory</text>
</a>
</g>
</g>
<!-- Node1&#45;&gt;Node5 -->
<g id="edge4" class="edge"><title>Node1&#45;&gt;Node5</title>
<path fill="none" stroke="midnightblue" d="M94.5106,-267.159C114.827,-288.58 152.529,-324.85 192,-345 199.51,-348.834 207.84,-351.926 216.153,-354.409"/>
<polygon fill="midnightblue" stroke="midnightblue" points="96.9824,-264.677 87.6081,-259.74 91.8577,-269.446 96.9824,-264.677"/>
</g>
<!-- Node6 -->
<g id="node6" class="node"><title>Node6</title>
<g id="a_node6"><a xlink:href="classtomoBay_1_1presenters_1_1presenterActions_1_1factories_1_1LogFileViewerFactory.html" target="_top" xlink:title="factory that creates a LogFileViewer object ">
<polygon fill="white" stroke="black" points="213.5,-316.5 213.5,-335.5 324.5,-335.5 324.5,-316.5 213.5,-316.5"/>
<text text-anchor="middle" x="269" y="-323.5" font-family="Helvetica,sans-Serif" font-size="10.00">LogFileViewerFactory</text>
</a>
</g>
</g>
<!-- Node1&#45;&gt;Node6 -->
<g id="edge5" class="edge"><title>Node1&#45;&gt;Node6</title>
<path fill="none" stroke="midnightblue" d="M104.186,-264.751C126.617,-277.387 160.645,-295.338 192,-307 201.815,-310.651 212.602,-313.824 222.887,-316.477"/>
<polygon fill="midnightblue" stroke="midnightblue" points="105.745,-261.611 95.3244,-259.696 102.276,-267.691 105.745,-261.611"/>
</g>
<!-- Node7 -->
<g id="node7" class="node"><title>Node7</title>
<g id="a_node7"><a xlink:href="classtomoBay_1_1presenters_1_1presenterActions_1_1factories_1_1MarkAsInvoicedFactory.html" target="_top" xlink:title="MarkAsInvoicedFactory">
<polygon fill="white" stroke="black" points="209,-278.5 209,-297.5 329,-297.5 329,-278.5 209,-278.5"/>
<text text-anchor="middle" x="269" y="-285.5" font-family="Helvetica,sans-Serif" font-size="10.00">MarkAsInvoicedFactory</text>
</a>
</g>
</g>
<!-- Node1&#45;&gt;Node7 -->
<g id="edge6" class="edge"><title>Node1&#45;&gt;Node7</title>
<path fill="none" stroke="midnightblue" d="M136.742,-261.61C163.622,-267.014 195.203,-273.364 220.65,-278.48"/>
<polygon fill="midnightblue" stroke="midnightblue" points="137.186,-258.129 126.693,-259.589 135.807,-264.992 137.186,-258.129"/>
</g>
<!-- Node8 -->
<g id="node8" class="node"><title>Node8</title>
<g id="a_node8"><a xlink:href="classtomoBay_1_1presenters_1_1presenterActions_1_1factories_1_1MarkAsUninvoicedFactory.html" target="_top" xlink:title="this is a factory that creates MarkAsUninvoiced objects ">
<polygon fill="white" stroke="black" points="203,-240.5 203,-259.5 335,-259.5 335,-240.5 203,-240.5"/>
<text text-anchor="middle" x="269" y="-247.5" font-family="Helvetica,sans-Serif" font-size="10.00">MarkAsUninvoicedFactory</text>
</a>
</g>
</g>
<!-- Node1&#45;&gt;Node8 -->
<g id="edge7" class="edge"><title>Node1&#45;&gt;Node8</title>
<path fill="none" stroke="midnightblue" d="M166.402,-250C178.679,-250 191.116,-250 202.878,-250"/>
<polygon fill="midnightblue" stroke="midnightblue" points="166.146,-246.5 156.146,-250 166.146,-253.5 166.146,-246.5"/>
</g>
<!-- Node9 -->
<g id="node9" class="node"><title>Node9</title>
<g id="a_node9"><a xlink:href="classtomoBay_1_1presenters_1_1presenterActions_1_1factories_1_1OrderInfoFactory.html" target="_top" xlink:title="OrderInfoFactory">
<polygon fill="white" stroke="black" points="224,-202.5 224,-221.5 314,-221.5 314,-202.5 224,-202.5"/>
<text text-anchor="middle" x="269" y="-209.5" font-family="Helvetica,sans-Serif" font-size="10.00">OrderInfoFactory</text>
</a>
</g>
</g>
<!-- Node1&#45;&gt;Node9 -->
<g id="edge8" class="edge"><title>Node1&#45;&gt;Node9</title>
<path fill="none" stroke="midnightblue" d="M136.765,-238.386C164.793,-232.751 197.927,-226.089 223.889,-220.869"/>
<polygon fill="midnightblue" stroke="midnightblue" points="135.807,-235.008 126.693,-240.411 137.186,-241.871 135.807,-235.008"/>
</g>
<!-- Node10 -->
<g id="node10" class="node"><title>Node10</title>
<g id="a_node10"><a xlink:href="classtomoBay_1_1presenters_1_1presenterActions_1_1factories_1_1PeriodicServicesControllerFactory.html" target="_top" xlink:title="this is a factory that creates PeriodicServicesController objects ">
<polygon fill="white" stroke="black" points="203,-153 203,-183 335,-183 335,-153 203,-153"/>
<text text-anchor="start" x="211" y="-171" font-family="Helvetica,sans-Serif" font-size="10.00">PeriodicServicesController</text>
<text text-anchor="middle" x="269" y="-160" font-family="Helvetica,sans-Serif" font-size="10.00">Factory</text>
</a>
</g>
</g>
<!-- Node1&#45;&gt;Node10 -->
<g id="edge9" class="edge"><title>Node1&#45;&gt;Node10</title>
<path fill="none" stroke="midnightblue" d="M104.796,-235.595C127.37,-223.329 161.268,-205.722 192,-193 200.47,-189.494 209.625,-186.133 218.547,-183.077"/>
<polygon fill="midnightblue" stroke="midnightblue" points="102.943,-232.619 95.8567,-240.495 106.308,-238.757 102.943,-232.619"/>
</g>
<!-- Node11 -->
<g id="node11" class="node"><title>Node11</title>
<g id="a_node11"><a xlink:href="classtomoBay_1_1presenters_1_1presenterActions_1_1factories_1_1PrintInvoicesFactory.html" target="_top" xlink:title="PrintInvoicesFactory">
<polygon fill="white" stroke="black" points="215.5,-114.5 215.5,-133.5 322.5,-133.5 322.5,-114.5 215.5,-114.5"/>
<text text-anchor="middle" x="269" y="-121.5" font-family="Helvetica,sans-Serif" font-size="10.00">PrintInvoicesFactory</text>
</a>
</g>
</g>
<!-- Node1&#45;&gt;Node11 -->
<g id="edge10" class="edge"><title>Node1&#45;&gt;Node11</title>
<path fill="none" stroke="midnightblue" d="M92.6625,-232.626C112.169,-209.01 150.286,-167.081 192,-144 199.76,-139.706 208.479,-136.304 217.169,-133.617"/>
<polygon fill="midnightblue" stroke="midnightblue" points="89.9172,-230.455 86.3457,-240.429 95.358,-234.859 89.9172,-230.455"/>
</g>
<!-- Node12 -->
<g id="node12" class="node"><title>Node12</title>
<g id="a_node12"><a xlink:href="classtomoBay_1_1presenters_1_1presenterActions_1_1factories_1_1ReScanBuyerFactory.html" target="_top" xlink:title="ReScanBuyerFactory">
<polygon fill="white" stroke="black" points="214,-76.5 214,-95.5 324,-95.5 324,-76.5 214,-76.5"/>
<text text-anchor="middle" x="269" y="-83.5" font-family="Helvetica,sans-Serif" font-size="10.00">ReScanBuyerFactory</text>
</a>
</g>
</g>
<!-- Node1&#45;&gt;Node12 -->
<g id="edge11" class="edge"><title>Node1&#45;&gt;Node12</title>
<path fill="none" stroke="midnightblue" d="M88.1196,-231.515C104.466,-200.376 141.793,-137.671 192,-105 198.612,-100.698 206.129,-97.3694 213.801,-94.7949"/>
<polygon fill="midnightblue" stroke="midnightblue" points="84.9938,-229.94 83.5599,-240.437 91.2271,-233.125 84.9938,-229.94"/>
</g>
<!-- Node13 -->
<g id="node13" class="node"><title>Node13</title>
<g id="a_node13"><a xlink:href="classtomoBay_1_1presenters_1_1presenterActions_1_1factories_1_1ReScanListingFactory.html" target="_top" xlink:title="this is a factory that creates ReScanListing objects ">
<polygon fill="white" stroke="black" points="212.5,-38.5 212.5,-57.5 325.5,-57.5 325.5,-38.5 212.5,-38.5"/>
<text text-anchor="middle" x="269" y="-45.5" font-family="Helvetica,sans-Serif" font-size="10.00">ReScanListingFactory</text>
</a>
</g>
</g>
<!-- Node1&#45;&gt;Node13 -->
<g id="edge12" class="edge"><title>Node1&#45;&gt;Node13</title>
<path fill="none" stroke="midnightblue" d="M85.412,-230.441C98.8304,-192.685 133.564,-109.723 192,-67 198.039,-62.5852 204.99,-59.1904 212.184,-56.581"/>
<polygon fill="midnightblue" stroke="midnightblue" points="81.9922,-229.624 82.0591,-240.218 88.6137,-231.894 81.9922,-229.624"/>
</g>
<!-- Node14 -->
<g id="node14" class="node"><title>Node14</title>
<g id="a_node14"><a xlink:href="classtomoBay_1_1presenters_1_1presenterActions_1_1factories_1_1StockReOrderAnalysisFactory.html" target="_top" xlink:title="StockReOrderAnalysisFactory">
<polygon fill="white" stroke="black" points="194.5,-0.5 194.5,-19.5 343.5,-19.5 343.5,-0.5 194.5,-0.5"/>
<text text-anchor="middle" x="269" y="-7.5" font-family="Helvetica,sans-Serif" font-size="10.00">StockReOrderAnalysisFactory</text>
</a>
</g>
</g>
<!-- Node1&#45;&gt;Node14 -->
<g id="edge13" class="edge"><title>Node1&#45;&gt;Node14</title>
<path fill="none" stroke="midnightblue" d="M83.229,-230.354C93.629,-186.954 124.657,-82.5241 192,-29 196.898,-25.1073 202.489,-22.0001 208.367,-19.5218"/>
<polygon fill="midnightblue" stroke="midnightblue" points="79.7888,-229.698 80.9717,-240.227 86.6127,-231.258 79.7888,-229.698"/>
</g>
</g>
</svg>
