<?xml version="1.0" encoding="UTF-8" standalone="no"?>
<!DOCTYPE svg PUBLIC "-//W3C//DTD SVG 1.1//EN"
 "http://www.w3.org/Graphics/SVG/1.1/DTD/svg11.dtd">
<!-- Generated by graphviz version 2.38.0 (20140413.2041)
 -->
<!-- Title: Graphical Class Hierarchy Pages: 1 -->
<svg width="299pt" height="522pt"
 viewBox="0.00 0.00 299.00 522.00" xmlns="http://www.w3.org/2000/svg" xmlns:xlink="http://www.w3.org/1999/xlink">
<g id="graph0" class="graph" transform="scale(1 1) rotate(0) translate(4 518)">
<title>Graphical Class Hierarchy</title>
<polygon fill="white" stroke="none" points="-4,4 -4,-518 295,-518 295,4 -4,4"/>
<!-- Node1 -->
<g id="node1" class="node"><title>Node1</title>
<g id="a_node1"><a xlink:href="interfacetomoBay_1_1presenters_1_1presenterActions_1_1AbstractPresenterAction.html" target="_top" xlink:title="Copyright(C) 2015 Jan P.C. ">
<polygon fill="white" stroke="black" points="0,-247.5 0,-266.5 123,-266.5 123,-247.5 0,-247.5"/>
<text text-anchor="middle" x="61.5" y="-254.5" font-family="Helvetica,sans-Serif" font-size="10.00">AbstractPresenterAction</text>
</a>
</g>
</g>
<!-- Node2 -->
<g id="node2" class="node"><title>Node2</title>
<g id="a_node2"><a xlink:href="classtomoBay_1_1presenters_1_1presenterActions_1_1concreteActions_1_1BuyerDetails.html" target="_top" xlink:title="BuyerDetails">
<polygon fill="white" stroke="black" points="188.5,-494.5 188.5,-513.5 261.5,-513.5 261.5,-494.5 188.5,-494.5"/>
<text text-anchor="middle" x="225" y="-501.5" font-family="Helvetica,sans-Serif" font-size="10.00">BuyerDetails</text>
</a>
</g>
</g>
<!-- Node1&#45;&gt;Node2 -->
<g id="edge1" class="edge"><title>Node1&#45;&gt;Node2</title>
<path fill="none" stroke="midnightblue" d="M65.1546,-277.001C72.096,-321.235 94.9128,-427.947 159,-485 167.167,-492.27 177.978,-496.766 188.435,-499.543"/>
<polygon fill="midnightblue" stroke="midnightblue" points="68.5942,-276.334 63.686,-266.944 61.6677,-277.345 68.5942,-276.334"/>
</g>
<!-- Node3 -->
<g id="node3" class="node"><title>Node3</title>
<g id="a_node3"><a xlink:href="classtomoBay_1_1presenters_1_1presenterActions_1_1concreteActions_1_1BuyerList.html" target="_top" xlink:title="BuyerList">
<polygon fill="white" stroke="black" points="196,-456.5 196,-475.5 254,-475.5 254,-456.5 196,-456.5"/>
<text text-anchor="middle" x="225" y="-463.5" font-family="Helvetica,sans-Serif" font-size="10.00">BuyerList</text>
</a>
</g>
</g>
<!-- Node1&#45;&gt;Node3 -->
<g id="edge2" class="edge"><title>Node1&#45;&gt;Node3</title>
<path fill="none" stroke="midnightblue" d="M66.903,-276.51C76.613,-315.005 103.544,-400.986 159,-447 169.315,-455.558 183.332,-460.262 195.71,-462.847"/>
<polygon fill="midnightblue" stroke="midnightblue" points="70.2574,-275.489 64.52,-266.582 63.4508,-277.123 70.2574,-275.489"/>
</g>
<!-- Node4 -->
<g id="node4" class="node"><title>Node4</title>
<g id="a_node4"><a xlink:href="classtomoBay_1_1presenters_1_1presenterActions_1_1concreteActions_1_1GenerateRoyalMailCSV.html" target="_top" xlink:title="This class represents a presenter action that will generate a CSV file in a format compatible with th...">
<polygon fill="white" stroke="black" points="164.5,-418.5 164.5,-437.5 285.5,-437.5 285.5,-418.5 164.5,-418.5"/>
<text text-anchor="middle" x="225" y="-425.5" font-family="Helvetica,sans-Serif" font-size="10.00">GenerateRoyalMailCSV</text>
</a>
</g>
</g>
<!-- Node1&#45;&gt;Node4 -->
<g id="edge3" class="edge"><title>Node1&#45;&gt;Node4</title>
<path fill="none" stroke="midnightblue" d="M69.4132,-276.117C82.0779,-308.42 112.089,-373.725 159,-409 164.168,-412.886 170.116,-415.98 176.27,-418.442"/>
<polygon fill="midnightblue" stroke="midnightblue" points="72.5944,-274.635 65.7839,-266.519 66.0468,-277.11 72.5944,-274.635"/>
</g>
<!-- Node5 -->
<g id="node5" class="node"><title>Node5</title>
<g id="a_node5"><a xlink:href="classtomoBay_1_1presenters_1_1presenterActions_1_1concreteActions_1_1InvoiceOrders.html" target="_top" xlink:title="This AbstractPresenterAction provides functionality to invoice a number of orders based on the order ...">
<polygon fill="white" stroke="black" points="186.5,-380.5 186.5,-399.5 263.5,-399.5 263.5,-380.5 186.5,-380.5"/>
<text text-anchor="middle" x="225" y="-387.5" font-family="Helvetica,sans-Serif" font-size="10.00">InvoiceOrders</text>
</a>
</g>
</g>
<!-- Node1&#45;&gt;Node5 -->
<g id="edge4" class="edge"><title>Node1&#45;&gt;Node5</title>
<path fill="none" stroke="midnightblue" d="M73.0779,-275.197C88.6819,-300.44 120.25,-345.813 159,-371 167.182,-376.318 176.891,-380.185 186.277,-382.983"/>
<polygon fill="midnightblue" stroke="midnightblue" points="76.0537,-273.354 67.8974,-266.592 70.0566,-276.964 76.0537,-273.354"/>
</g>
<!-- Node6 -->
<g id="node6" class="node"><title>Node6</title>
<g id="a_node6"><a xlink:href="classtomoBay_1_1presenters_1_1presenterActions_1_1concreteActions_1_1LogFileViewer.html" target="_top" xlink:title="LogFileViewer">
<polygon fill="white" stroke="black" points="186,-342.5 186,-361.5 264,-361.5 264,-342.5 186,-342.5"/>
<text text-anchor="middle" x="225" y="-349.5" font-family="Helvetica,sans-Serif" font-size="10.00">LogFileViewer</text>
</a>
</g>
</g>
<!-- Node1&#45;&gt;Node6 -->
<g id="edge5" class="edge"><title>Node1&#45;&gt;Node6</title>
<path fill="none" stroke="midnightblue" d="M79.5003,-273.763C97.7415,-290.893 128.258,-317.161 159,-333 167.361,-337.308 176.844,-340.779 185.931,-343.515"/>
<polygon fill="midnightblue" stroke="midnightblue" points="81.6696,-270.995 72.0263,-266.607 76.8283,-276.051 81.6696,-270.995"/>
</g>
<!-- Node7 -->
<g id="node7" class="node"><title>Node7</title>
<g id="a_node7"><a xlink:href="classtomoBay_1_1presenters_1_1presenterActions_1_1concreteActions_1_1MarkAsInvoiced.html" target="_top" xlink:title="MarkAsInvoiced">
<polygon fill="white" stroke="black" points="181.5,-304.5 181.5,-323.5 268.5,-323.5 268.5,-304.5 181.5,-304.5"/>
<text text-anchor="middle" x="225" y="-311.5" font-family="Helvetica,sans-Serif" font-size="10.00">MarkAsInvoiced</text>
</a>
</g>
</g>
<!-- Node1&#45;&gt;Node7 -->
<g id="edge6" class="edge"><title>Node1&#45;&gt;Node7</title>
<path fill="none" stroke="midnightblue" d="M94.7694,-270.555C113.39,-278.163 137.34,-287.587 159,-295 168.677,-298.312 179.284,-301.567 189.071,-304.422"/>
<polygon fill="midnightblue" stroke="midnightblue" points="95.8693,-267.223 85.2899,-266.651 93.2037,-273.696 95.8693,-267.223"/>
</g>
<!-- Node8 -->
<g id="node8" class="node"><title>Node8</title>
<g id="a_node8"><a xlink:href="classtomoBay_1_1presenters_1_1presenterActions_1_1concreteActions_1_1MarkAsUninvoiced.html" target="_top" xlink:title="MarkAsUninvoiced">
<polygon fill="white" stroke="black" points="175.5,-266.5 175.5,-285.5 274.5,-285.5 274.5,-266.5 175.5,-266.5"/>
<text text-anchor="middle" x="225" y="-273.5" font-family="Helvetica,sans-Serif" font-size="10.00">MarkAsUninvoiced</text>
</a>
</g>
</g>
<!-- Node1&#45;&gt;Node8 -->
<g id="edge7" class="edge"><title>Node1&#45;&gt;Node8</title>
<path fill="none" stroke="midnightblue" d="M133.343,-265.334C147.55,-267.006 162.174,-268.726 175.417,-270.284"/>
<polygon fill="midnightblue" stroke="midnightblue" points="133.437,-261.821 123.096,-264.129 132.619,-268.773 133.437,-261.821"/>
</g>
<!-- Node9 -->
<g id="node9" class="node"><title>Node9</title>
<g id="a_node9"><a xlink:href="classtomoBay_1_1presenters_1_1presenterActions_1_1concreteActions_1_1OrderInfo.html" target="_top" xlink:title="This presenter action takes an orderID string in its execute(String data) method, and returns nicely ...">
<polygon fill="white" stroke="black" points="196.5,-228.5 196.5,-247.5 253.5,-247.5 253.5,-228.5 196.5,-228.5"/>
<text text-anchor="middle" x="225" y="-235.5" font-family="Helvetica,sans-Serif" font-size="10.00">OrderInfo</text>
</a>
</g>
</g>
<!-- Node1&#45;&gt;Node9 -->
<g id="edge8" class="edge"><title>Node1&#45;&gt;Node9</title>
<path fill="none" stroke="midnightblue" d="M133.276,-248.673C155.646,-246.042 179.053,-243.288 196.488,-241.237"/>
<polygon fill="midnightblue" stroke="midnightblue" points="132.619,-245.227 123.096,-249.871 133.437,-252.179 132.619,-245.227"/>
</g>
<!-- Node10 -->
<g id="node10" class="node"><title>Node10</title>
<g id="a_node10"><a xlink:href="classtomoBay_1_1presenters_1_1presenterActions_1_1concreteActions_1_1PeriodicServicesController.html" target="_top" xlink:title="PeriodicServicesController">
<polygon fill="white" stroke="black" points="159,-190.5 159,-209.5 291,-209.5 291,-190.5 159,-190.5"/>
<text text-anchor="middle" x="225" y="-197.5" font-family="Helvetica,sans-Serif" font-size="10.00">PeriodicServicesController</text>
</a>
</g>
</g>
<!-- Node1&#45;&gt;Node10 -->
<g id="edge9" class="edge"><title>Node1&#45;&gt;Node10</title>
<path fill="none" stroke="midnightblue" d="M94.7694,-243.445C113.39,-235.837 137.34,-226.413 159,-219 168.677,-215.688 179.284,-212.433 189.071,-209.578"/>
<polygon fill="midnightblue" stroke="midnightblue" points="93.2037,-240.304 85.2899,-247.349 95.8693,-246.777 93.2037,-240.304"/>
</g>
<!-- Node11 -->
<g id="node11" class="node"><title>Node11</title>
<g id="a_node11"><a xlink:href="classtomoBay_1_1presenters_1_1presenterActions_1_1concreteActions_1_1PrintInvoices.html" target="_top" xlink:title="PrintInvoices">
<polygon fill="white" stroke="black" points="188,-152.5 188,-171.5 262,-171.5 262,-152.5 188,-152.5"/>
<text text-anchor="middle" x="225" y="-159.5" font-family="Helvetica,sans-Serif" font-size="10.00">PrintInvoices</text>
</a>
</g>
</g>
<!-- Node1&#45;&gt;Node11 -->
<g id="edge10" class="edge"><title>Node1&#45;&gt;Node11</title>
<path fill="none" stroke="midnightblue" d="M79.5003,-240.237C97.7415,-223.107 128.258,-196.839 159,-181 167.988,-176.369 178.273,-172.705 187.969,-169.882"/>
<polygon fill="midnightblue" stroke="midnightblue" points="76.8283,-237.949 72.0263,-247.393 81.6696,-243.005 76.8283,-237.949"/>
</g>
<!-- Node12 -->
<g id="node12" class="node"><title>Node12</title>
<g id="a_node12"><a xlink:href="classtomoBay_1_1presenters_1_1presenterActions_1_1concreteActions_1_1ReScanBuyer.html" target="_top" xlink:title="Copyright(C) 2015 Jan P.C. ">
<polygon fill="white" stroke="black" points="186.5,-114.5 186.5,-133.5 263.5,-133.5 263.5,-114.5 186.5,-114.5"/>
<text text-anchor="middle" x="225" y="-121.5" font-family="Helvetica,sans-Serif" font-size="10.00">ReScanBuyer</text>
</a>
</g>
</g>
<!-- Node1&#45;&gt;Node12 -->
<g id="edge11" class="edge"><title>Node1&#45;&gt;Node12</title>
<path fill="none" stroke="midnightblue" d="M73.0779,-238.803C88.6819,-213.56 120.25,-168.187 159,-143 167.182,-137.682 176.891,-133.815 186.277,-131.017"/>
<polygon fill="midnightblue" stroke="midnightblue" points="70.0566,-237.036 67.8974,-247.408 76.0537,-240.646 70.0566,-237.036"/>
</g>
<!-- Node13 -->
<g id="node13" class="node"><title>Node13</title>
<g id="a_node13"><a xlink:href="classtomoBay_1_1presenters_1_1presenterActions_1_1concreteActions_1_1ReScanListing.html" target="_top" xlink:title="ReScanListing">
<polygon fill="white" stroke="black" points="185,-76.5 185,-95.5 265,-95.5 265,-76.5 185,-76.5"/>
<text text-anchor="middle" x="225" y="-83.5" font-family="Helvetica,sans-Serif" font-size="10.00">ReScanListing</text>
</a>
</g>
</g>
<!-- Node1&#45;&gt;Node13 -->
<g id="edge12" class="edge"><title>Node1&#45;&gt;Node13</title>
<path fill="none" stroke="midnightblue" d="M69.4132,-237.883C82.0779,-205.58 112.089,-140.275 159,-105 166.517,-99.3472 175.684,-95.3719 184.735,-92.5778"/>
<polygon fill="midnightblue" stroke="midnightblue" points="66.0468,-236.89 65.7839,-247.481 72.5944,-239.365 66.0468,-236.89"/>
</g>
<!-- Node14 -->
<g id="node14" class="node"><title>Node14</title>
<g id="a_node14"><a xlink:href="classtomoBay_1_1presenters_1_1presenterActions_1_1concreteActions_1_1SendToPicking.html" target="_top" xlink:title="SendToPicking">
<polygon fill="white" stroke="black" points="183.5,-38.5 183.5,-57.5 266.5,-57.5 266.5,-38.5 183.5,-38.5"/>
<text text-anchor="middle" x="225" y="-45.5" font-family="Helvetica,sans-Serif" font-size="10.00">SendToPicking</text>
</a>
</g>
</g>
<!-- Node1&#45;&gt;Node14 -->
<g id="edge13" class="edge"><title>Node1&#45;&gt;Node14</title>
<path fill="none" stroke="midnightblue" d="M66.903,-237.49C76.613,-198.995 103.544,-113.014 159,-67 165.967,-61.2193 174.623,-57.1971 183.322,-54.3986"/>
<polygon fill="midnightblue" stroke="midnightblue" points="63.4508,-236.877 64.52,-247.418 70.2574,-238.511 63.4508,-236.877"/>
</g>
<!-- Node15 -->
<g id="node15" class="node"><title>Node15</title>
<g id="a_node15"><a xlink:href="classtomoBay_1_1presenters_1_1presenterActions_1_1concreteActions_1_1StockReOrderAnalysis.html" target="_top" xlink:title="This class represents functionality to. ">
<polygon fill="white" stroke="black" points="167,-0.5 167,-19.5 283,-19.5 283,-0.5 167,-0.5"/>
<text text-anchor="middle" x="225" y="-7.5" font-family="Helvetica,sans-Serif" font-size="10.00">StockReOrderAnalysis</text>
</a>
</g>
</g>
<!-- Node1&#45;&gt;Node15 -->
<g id="edge14" class="edge"><title>Node1&#45;&gt;Node15</title>
<path fill="none" stroke="midnightblue" d="M65.1546,-236.999C72.096,-192.765 94.9128,-86.0533 159,-29 163.391,-25.0912 168.546,-21.9845 173.999,-19.5157"/>
<polygon fill="midnightblue" stroke="midnightblue" points="61.6677,-236.655 63.686,-247.056 68.5942,-237.666 61.6677,-236.655"/>
</g>
</g>
</svg>
