<?xml version="1.0" encoding="UTF-8" standalone="no"?>
<!DOCTYPE svg PUBLIC "-//W3C//DTD SVG 1.1//EN"
 "http://www.w3.org/Graphics/SVG/1.1/DTD/svg11.dtd">
<!-- Generated by graphviz version 2.38.0 (20140413.2041)
 -->
<!-- Title: AbstractTruth Pages: 1 -->
<svg width="162pt" height="171pt"
 viewBox="0.00 0.00 162.00 171.00" xmlns="http://www.w3.org/2000/svg" xmlns:xlink="http://www.w3.org/1999/xlink">
<g id="graph0" class="graph" transform="scale(1 1) rotate(0) translate(4 167)">
<title>AbstractTruth</title>
<polygon fill="white" stroke="none" points="-4,4 -4,-167 158,-167 158,4 -4,4"/>
<!-- Node1 -->
<g id="node1" class="node"><title>Node1</title>
<polygon fill="#bfbfbf" stroke="black" points="39,-105.5 39,-162.5 115,-162.5 115,-105.5 39,-105.5"/>
<text text-anchor="middle" x="77" y="-150.5" font-family="Helvetica,sans-Serif" font-size="10.00">AbstractTruth</text>
<polyline fill="none" stroke="black" points="39,-143.5 115,-143.5 "/>
<text text-anchor="middle" x="77" y="-131.5" font-family="Helvetica,sans-Serif" font-size="10.00"> </text>
<polyline fill="none" stroke="black" points="39,-124.5 115,-124.5 "/>
<text text-anchor="start" x="47" y="-112.5" font-family="Helvetica,sans-Serif" font-size="10.00">+ dispatch()</text>
</g>
<!-- Node2 -->
<g id="node2" class="node"><title>Node2</title>
<g id="a_node2"><a xlink:href="$classtomoBay_1_1model_1_1dataTypes_1_1conditionalStatement_1_1False.html" xlink:title="This class represents a False outcome to a Condition object, its dispatch() method calls the appropri...">
<polygon fill="white" stroke="black" points="0,-0.5 0,-68.5 68,-68.5 68,-0.5 0,-0.5"/>
<text text-anchor="middle" x="34" y="-56.5" font-family="Helvetica,sans-Serif" font-size="10.00">False</text>
<polyline fill="none" stroke="black" points="0,-49.5 68,-49.5 "/>
<text text-anchor="middle" x="34" y="-37.5" font-family="Helvetica,sans-Serif" font-size="10.00"> </text>
<polyline fill="none" stroke="black" points="0,-30.5 68,-30.5 "/>
<text text-anchor="start" x="8" y="-18.5" font-family="Helvetica,sans-Serif" font-size="10.00">+ False()</text>
<text text-anchor="start" x="8" y="-7.5" font-family="Helvetica,sans-Serif" font-size="10.00">~ dispatch()</text>
</a>
</g>
</g>
<!-- Node1&#45;&gt;Node2 -->
<g id="edge1" class="edge"><title>Node1&#45;&gt;Node2</title>
<path fill="none" stroke="midnightblue" d="M60.6463,-95.919C56.7117,-86.9974 52.5327,-77.5219 48.6798,-68.7855"/>
<polygon fill="none" stroke="midnightblue" points="57.5552,-97.5839 64.7929,-105.321 63.96,-94.7592 57.5552,-97.5839"/>
</g>
<!-- Node3 -->
<g id="node3" class="node"><title>Node3</title>
<g id="a_node3"><a xlink:href="$classtomoBay_1_1model_1_1dataTypes_1_1conditionalStatement_1_1True.html" xlink:title="This class represents a True outcome to a Condition object, its dispatch() method calls the appropria...">
<polygon fill="white" stroke="black" points="86,-0.5 86,-68.5 154,-68.5 154,-0.5 86,-0.5"/>
<text text-anchor="middle" x="120" y="-56.5" font-family="Helvetica,sans-Serif" font-size="10.00">True</text>
<polyline fill="none" stroke="black" points="86,-49.5 154,-49.5 "/>
<text text-anchor="middle" x="120" y="-37.5" font-family="Helvetica,sans-Serif" font-size="10.00"> </text>
<polyline fill="none" stroke="black" points="86,-30.5 154,-30.5 "/>
<text text-anchor="start" x="94" y="-18.5" font-family="Helvetica,sans-Serif" font-size="10.00">+ True()</text>
<text text-anchor="start" x="94" y="-7.5" font-family="Helvetica,sans-Serif" font-size="10.00">~ dispatch()</text>
</a>
</g>
</g>
<!-- Node1&#45;&gt;Node3 -->
<g id="edge2" class="edge"><title>Node1&#45;&gt;Node3</title>
<path fill="none" stroke="midnightblue" d="M93.3537,-95.919C97.2883,-86.9974 101.467,-77.5219 105.32,-68.7855"/>
<polygon fill="none" stroke="midnightblue" points="90.04,-94.7592 89.2071,-105.321 96.4448,-97.5839 90.04,-94.7592"/>
</g>
</g>
</svg>
