<?xml version="1.0" encoding="UTF-8" standalone="no"?>
<!DOCTYPE svg PUBLIC "-//W3C//DTD SVG 1.1//EN"
 "http://www.w3.org/Graphics/SVG/1.1/DTD/svg11.dtd">
<!-- Generated by graphviz version 2.38.0 (20140413.2041)
 -->
<!-- Title: AbstractSalesDayBookLineFactory Pages: 1 -->
<svg width="451pt" height="204pt"
 viewBox="0.00 0.00 450.50 204.00" xmlns="http://www.w3.org/2000/svg" xmlns:xlink="http://www.w3.org/1999/xlink">
<g id="graph0" class="graph" transform="scale(1 1) rotate(0) translate(4 200)">
<title>AbstractSalesDayBookLineFactory</title>
<polygon fill="white" stroke="none" points="-4,4 -4,-200 446.5,-200 446.5,4 -4,4"/>
<!-- Node1 -->
<g id="node1" class="node"><title>Node1</title>
<polygon fill="#bfbfbf" stroke="black" points="134,-127.5 134,-195.5 271,-195.5 271,-127.5 134,-127.5"/>
<text text-anchor="start" x="142" y="-183.5" font-family="Helvetica,sans-Serif" font-size="10.00">AbstractSalesDayBookLine</text>
<text text-anchor="middle" x="202.5" y="-172.5" font-family="Helvetica,sans-Serif" font-size="10.00">Factory</text>
<polyline fill="none" stroke="black" points="134,-165.5 271,-165.5 "/>
<text text-anchor="middle" x="202.5" y="-153.5" font-family="Helvetica,sans-Serif" font-size="10.00"> </text>
<polyline fill="none" stroke="black" points="134,-146.5 271,-146.5 "/>
<text text-anchor="start" x="142" y="-134.5" font-family="Helvetica,sans-Serif" font-size="10.00">+ make()</text>
</g>
<!-- Node2 -->
<g id="node2" class="node"><title>Node2</title>
<g id="a_node2"><a xlink:href="$classtomoBay_1_1model_1_1dataTypes_1_1financial_1_1SalesOrderDayBook_1_1factories_1_1GSPInvoiceFactory.html" xlink:title="{GSPInvoiceFactory\n||+ GSPInvoiceFactory()\l+ make()\l}">
<polygon fill="white" stroke="black" points="0,-11.5 0,-79.5 117,-79.5 117,-11.5 0,-11.5"/>
<text text-anchor="middle" x="58.5" y="-67.5" font-family="Helvetica,sans-Serif" font-size="10.00">GSPInvoiceFactory</text>
<polyline fill="none" stroke="black" points="0,-60.5 117,-60.5 "/>
<text text-anchor="middle" x="58.5" y="-48.5" font-family="Helvetica,sans-Serif" font-size="10.00"> </text>
<polyline fill="none" stroke="black" points="0,-41.5 117,-41.5 "/>
<text text-anchor="start" x="8" y="-29.5" font-family="Helvetica,sans-Serif" font-size="10.00">+ GSPInvoiceFactory()</text>
<text text-anchor="start" x="8" y="-18.5" font-family="Helvetica,sans-Serif" font-size="10.00">+ make()</text>
</a>
</g>
</g>
<!-- Node1&#45;&gt;Node2 -->
<g id="edge1" class="edge"><title>Node1&#45;&gt;Node2</title>
<path fill="none" stroke="midnightblue" d="M152.296,-120.756C135.333,-107.326 116.587,-92.4854 100.341,-79.6243"/>
<polygon fill="none" stroke="midnightblue" points="150.449,-123.757 160.462,-127.22 154.794,-118.269 150.449,-123.757"/>
</g>
<!-- Node3 -->
<g id="node3" class="node"><title>Node3</title>
<g id="a_node3"><a xlink:href="$classtomoBay_1_1model_1_1dataTypes_1_1financial_1_1SalesOrderDayBook_1_1factories_1_1StandardInvoiceFactory.html" xlink:title="{StandardInvoiceFactory\n||+ StandardInvoiceFactory()\l+ make()\l}">
<polygon fill="white" stroke="black" points="135,-11.5 135,-79.5 270,-79.5 270,-11.5 135,-11.5"/>
<text text-anchor="middle" x="202.5" y="-67.5" font-family="Helvetica,sans-Serif" font-size="10.00">StandardInvoiceFactory</text>
<polyline fill="none" stroke="black" points="135,-60.5 270,-60.5 "/>
<text text-anchor="middle" x="202.5" y="-48.5" font-family="Helvetica,sans-Serif" font-size="10.00"> </text>
<polyline fill="none" stroke="black" points="135,-41.5 270,-41.5 "/>
<text text-anchor="start" x="143" y="-29.5" font-family="Helvetica,sans-Serif" font-size="10.00">+ StandardInvoiceFactory()</text>
<text text-anchor="start" x="143" y="-18.5" font-family="Helvetica,sans-Serif" font-size="10.00">+ make()</text>
</a>
</g>
</g>
<!-- Node1&#45;&gt;Node3 -->
<g id="edge2" class="edge"><title>Node1&#45;&gt;Node3</title>
<path fill="none" stroke="midnightblue" d="M202.5,-117.06C202.5,-104.644 202.5,-91.3162 202.5,-79.6243"/>
<polygon fill="none" stroke="midnightblue" points="199,-117.22 202.5,-127.22 206,-117.22 199,-117.22"/>
</g>
<!-- Node4 -->
<g id="node4" class="node"><title>Node4</title>
<g id="a_node4"><a xlink:href="$classtomoBay_1_1model_1_1dataTypes_1_1financial_1_1SalesOrderDayBook_1_1factories_1_1StandardInvoiceWithShippingFactory.html" xlink:title="Copyright(C) 2015 Jan P.C. ">
<polygon fill="white" stroke="black" points="288.5,-0.5 288.5,-90.5 442.5,-90.5 442.5,-0.5 288.5,-0.5"/>
<text text-anchor="start" x="296.5" y="-78.5" font-family="Helvetica,sans-Serif" font-size="10.00">StandardInvoiceWithShipping</text>
<text text-anchor="middle" x="365.5" y="-67.5" font-family="Helvetica,sans-Serif" font-size="10.00">Factory</text>
<polyline fill="none" stroke="black" points="288.5,-60.5 442.5,-60.5 "/>
<text text-anchor="middle" x="365.5" y="-48.5" font-family="Helvetica,sans-Serif" font-size="10.00"> </text>
<polyline fill="none" stroke="black" points="288.5,-41.5 442.5,-41.5 "/>
<text text-anchor="start" x="296.5" y="-29.5" font-family="Helvetica,sans-Serif" font-size="10.00">+ StandardInvoiceWithShipping</text>
<text text-anchor="start" x="296.5" y="-18.5" font-family="Helvetica,sans-Serif" font-size="10.00">Factory()</text>
<text text-anchor="start" x="296.5" y="-7.5" font-family="Helvetica,sans-Serif" font-size="10.00">+ make()</text>
</a>
</g>
</g>
<!-- Node1&#45;&gt;Node4 -->
<g id="edge3" class="edge"><title>Node1&#45;&gt;Node4</title>
<path fill="none" stroke="midnightblue" d="M258.296,-121.477C272.496,-111.546 287.855,-100.804 302.391,-90.6378"/>
<polygon fill="none" stroke="midnightblue" points="256.273,-118.621 250.085,-127.22 260.285,-124.357 256.273,-118.621"/>
</g>
</g>
</svg>
