<?xml version="1.0" encoding="UTF-8" standalone="no"?>
<!DOCTYPE svg PUBLIC "-//W3C//DTD SVG 1.1//EN"
 "http://www.w3.org/Graphics/SVG/1.1/DTD/svg11.dtd">
<!-- Generated by graphviz version 2.38.0 (20140413.2041)
 -->
<!-- Title: AbstractSelectParamsQueryFactory Pages: 1 -->
<svg width="149pt" height="171pt"
 viewBox="0.00 0.00 149.00 171.00" xmlns="http://www.w3.org/2000/svg" xmlns:xlink="http://www.w3.org/1999/xlink">
<g id="graph0" class="graph" transform="scale(1 1) rotate(0) translate(4 167)">
<title>AbstractSelectParamsQueryFactory</title>
<polygon fill="white" stroke="none" points="-4,4 -4,-167 145,-167 145,4 -4,4"/>
<!-- Node1 -->
<g id="node1" class="node"><title>Node1</title>
<polygon fill="#bfbfbf" stroke="black" points="0,-0.5 0,-68.5 141,-68.5 141,-0.5 0,-0.5"/>
<text text-anchor="start" x="8" y="-56.5" font-family="Helvetica,sans-Serif" font-size="10.00">AbstractSelectParamsQuery</text>
<text text-anchor="middle" x="70.5" y="-45.5" font-family="Helvetica,sans-Serif" font-size="10.00">Factory</text>
<polyline fill="none" stroke="black" points="0,-38.5 141,-38.5 "/>
<text text-anchor="middle" x="70.5" y="-26.5" font-family="Helvetica,sans-Serif" font-size="10.00"> </text>
<polyline fill="none" stroke="black" points="0,-19.5 141,-19.5 "/>
<text text-anchor="start" x="8" y="-7.5" font-family="Helvetica,sans-Serif" font-size="10.00">+ make()</text>
</g>
<!-- Node2 -->
<g id="node2" class="node"><title>Node2</title>
<g id="a_node2"><a xlink:href="$interfacetomoBay_1_1model_1_1sql_1_1framework_1_1queryFactories_1_1AbstractQueryFactory.html" xlink:title="all Queries are instantiated using a factory and each of these factories must conform to this interfa...">
<polygon fill="white" stroke="black" points="14,-105.5 14,-162.5 127,-162.5 127,-105.5 14,-105.5"/>
<text text-anchor="middle" x="70.5" y="-150.5" font-family="Helvetica,sans-Serif" font-size="10.00">AbstractQueryFactory</text>
<polyline fill="none" stroke="black" points="14,-143.5 127,-143.5 "/>
<text text-anchor="middle" x="70.5" y="-131.5" font-family="Helvetica,sans-Serif" font-size="10.00"> </text>
<polyline fill="none" stroke="black" points="14,-124.5 127,-124.5 "/>
<text text-anchor="start" x="22" y="-112.5" font-family="Helvetica,sans-Serif" font-size="10.00">+ make()</text>
</a>
</g>
</g>
<!-- Node2&#45;&gt;Node1 -->
<g id="edge1" class="edge"><title>Node2&#45;&gt;Node1</title>
<path fill="none" stroke="midnightblue" d="M70.5,-95.0631C70.5,-86.3933 70.5,-77.2431 70.5,-68.7855"/>
<polygon fill="none" stroke="midnightblue" points="67.0001,-95.3212 70.5,-105.321 74.0001,-95.3212 67.0001,-95.3212"/>
</g>
</g>
</svg>
