<?xml version="1.0" encoding="UTF-8" standalone="no"?>
<!DOCTYPE svg PUBLIC "-//W3C//DTD SVG 1.1//EN"
 "http://www.w3.org/Graphics/SVG/1.1/DTD/svg11.dtd">
<!-- Generated by graphviz version 2.38.0 (20140413.2041)
 -->
<!-- Title: configure Pages: 1 -->
<svg width="311pt" height="170pt"
 viewBox="0.00 0.00 311.00 170.00" xmlns="http://www.w3.org/2000/svg" xmlns:xlink="http://www.w3.org/1999/xlink">
<g id="graph0" class="graph" transform="scale(1 1) rotate(0) translate(4 166)">
<title>configure</title>
<polygon fill="white" stroke="none" points="-4,4 -4,-166 307,-166 307,4 -4,4"/>
<!-- Node1 -->
<g id="node1" class="node"><title>Node1</title>
<polygon fill="#bfbfbf" stroke="black" points="0,-71.5 0,-90.5 56,-90.5 56,-71.5 0,-71.5"/>
<text text-anchor="middle" x="28" y="-78.5" font-family="Helvetica,sans-Serif" font-size="10.00">configure</text>
</g>
<!-- Node2 -->
<g id="node2" class="node"><title>Node2</title>
<g id="a_node2"><a xlink:href="$classtomoBay_1_1model_1_1services_1_1individualItemRefreshService_1_1IndividualItemRefreshService.html#afedc044522908ef89df6b3c9ef1eb8ce" xlink:title="tomoBay.model.services.individual\lItemRefreshService.IndividualItemRefresh\lService.setConfig">
<polygon fill="white" stroke="black" points="96.5,-120.5 96.5,-161.5 298.5,-161.5 298.5,-120.5 96.5,-120.5"/>
<text text-anchor="start" x="104.5" y="-149.5" font-family="Helvetica,sans-Serif" font-size="10.00">tomoBay.model.services.individual</text>
<text text-anchor="start" x="104.5" y="-138.5" font-family="Helvetica,sans-Serif" font-size="10.00">ItemRefreshService.IndividualItemRefresh</text>
<text text-anchor="middle" x="197.5" y="-127.5" font-family="Helvetica,sans-Serif" font-size="10.00">Service.setConfig</text>
</a>
</g>
</g>
<!-- Node1&#45;&gt;Node2 -->
<g id="edge1" class="edge"><title>Node1&#45;&gt;Node2</title>
<path fill="none" stroke="midnightblue" d="M56.1844,-95.1513C67.1353,-100.532 79.9955,-106.454 92,-111 100.826,-114.342 110.191,-117.523 119.547,-120.479"/>
<polygon fill="midnightblue" stroke="midnightblue" points="57.6303,-91.961 47.1219,-90.6106 54.4946,-98.2194 57.6303,-91.961"/>
</g>
<!-- Node3 -->
<g id="node3" class="node"><title>Node3</title>
<g id="a_node3"><a xlink:href="$classtomoBay_1_1model_1_1services_1_1reScanBuyerService_1_1ReScanBuyerService.html#afedc044522908ef89df6b3c9ef1eb8ce" xlink:title="tomoBay.model.services.re\lScanBuyerService.ReScanBuyerService.set\lConfig">
<polygon fill="white" stroke="black" points="92,-60.5 92,-101.5 303,-101.5 303,-60.5 92,-60.5"/>
<text text-anchor="start" x="100" y="-89.5" font-family="Helvetica,sans-Serif" font-size="10.00">tomoBay.model.services.re</text>
<text text-anchor="start" x="100" y="-78.5" font-family="Helvetica,sans-Serif" font-size="10.00">ScanBuyerService.ReScanBuyerService.set</text>
<text text-anchor="middle" x="197.5" y="-67.5" font-family="Helvetica,sans-Serif" font-size="10.00">Config</text>
</a>
</g>
</g>
<!-- Node1&#45;&gt;Node3 -->
<g id="edge2" class="edge"><title>Node1&#45;&gt;Node3</title>
<path fill="none" stroke="midnightblue" d="M66.4151,-81C74.2319,-81 82.8347,-81 91.7785,-81"/>
<polygon fill="midnightblue" stroke="midnightblue" points="66.2846,-77.5001 56.2846,-81 66.2845,-84.5001 66.2846,-77.5001"/>
</g>
<!-- Node4 -->
<g id="node4" class="node"><title>Node4</title>
<g id="a_node4"><a xlink:href="$classtomoBay_1_1model_1_1services_1_1emailErrorsService_1_1EmailErrorsService.html#afedc044522908ef89df6b3c9ef1eb8ce" xlink:title="tomoBay.model.services.email\lErrorsService.EmailErrorsService.set\lConfig">
<polygon fill="white" stroke="black" points="108,-0.5 108,-41.5 287,-41.5 287,-0.5 108,-0.5"/>
<text text-anchor="start" x="116" y="-29.5" font-family="Helvetica,sans-Serif" font-size="10.00">tomoBay.model.services.email</text>
<text text-anchor="start" x="116" y="-18.5" font-family="Helvetica,sans-Serif" font-size="10.00">ErrorsService.EmailErrorsService.set</text>
<text text-anchor="middle" x="197.5" y="-7.5" font-family="Helvetica,sans-Serif" font-size="10.00">Config</text>
</a>
</g>
</g>
<!-- Node1&#45;&gt;Node4 -->
<g id="edge3" class="edge"><title>Node1&#45;&gt;Node4</title>
<path fill="none" stroke="midnightblue" d="M56.1844,-66.8487C67.1353,-61.4682 79.9955,-55.5458 92,-51 100.826,-47.6578 110.191,-44.4767 119.547,-41.5214"/>
<polygon fill="midnightblue" stroke="midnightblue" points="54.4946,-63.7806 47.1219,-71.3894 57.6303,-70.039 54.4946,-63.7806"/>
</g>
</g>
</svg>
