<?xml version="1.0" encoding="UTF-8" standalone="no"?>
<!DOCTYPE svg PUBLIC "-//W3C//DTD SVG 1.1//EN"
 "http://www.w3.org/Graphics/SVG/1.1/DTD/svg11.dtd">
<!-- Generated by graphviz version 2.38.0 (20140413.2041)
 -->
<!-- Title: each Pages: 1 -->
<svg width="152pt" height="66pt"
 viewBox="0.00 0.00 152.00 66.00" xmlns="http://www.w3.org/2000/svg" xmlns:xlink="http://www.w3.org/1999/xlink">
<g id="graph0" class="graph" transform="scale(1 1) rotate(0) translate(4 62)">
<title>each</title>
<polygon fill="white" stroke="none" points="-4,4 -4,-62 148,-62 148,4 -4,4"/>
<!-- Node1 -->
<g id="node1" class="node"><title>Node1</title>
<polygon fill="#bfbfbf" stroke="black" points="0,-19.5 0,-38.5 38,-38.5 38,-19.5 0,-19.5"/>
<text text-anchor="middle" x="19" y="-26.5" font-family="Helvetica,sans-Serif" font-size="10.00">each</text>
</g>
<!-- Node2 -->
<g id="node2" class="node"><title>Node2</title>
<g id="a_node2"><a xlink:href="$dynsections_8js.html#ac057b640b17ff32af11ced151c9305b4" xlink:title="toggleInherit">
<polygon fill="white" stroke="black" points="74,-38.5 74,-57.5 144,-57.5 144,-38.5 74,-38.5"/>
<text text-anchor="middle" x="109" y="-45.5" font-family="Helvetica,sans-Serif" font-size="10.00">toggleInherit</text>
</a>
</g>
</g>
<!-- Node1&#45;&gt;Node2 -->
<g id="edge1" class="edge"><title>Node1&#45;&gt;Node2</title>
<path fill="none" stroke="midnightblue" d="M48.042,-35.0545C56.2265,-36.8216 65.2631,-38.7727 73.784,-40.6125"/>
<polygon fill="midnightblue" stroke="midnightblue" points="48.7471,-31.6262 38.2337,-32.9368 47.2697,-38.4685 48.7471,-31.6262"/>
</g>
<!-- Node3 -->
<g id="node3" class="node"><title>Node3</title>
<g id="a_node3"><a xlink:href="$dynsections_8js.html#a19f577cc1ba571396a85bb1f48bf4df2" xlink:title="toggleLevel">
<polygon fill="white" stroke="black" points="76,-0.5 76,-19.5 142,-19.5 142,-0.5 76,-0.5"/>
<text text-anchor="middle" x="109" y="-7.5" font-family="Helvetica,sans-Serif" font-size="10.00">toggleLevel</text>
</a>
</g>
</g>
<!-- Node1&#45;&gt;Node3 -->
<g id="edge2" class="edge"><title>Node1&#45;&gt;Node3</title>
<path fill="none" stroke="midnightblue" d="M48.0741,-22.9385C56.935,-21.0254 66.7921,-18.8972 75.911,-16.9283"/>
<polygon fill="midnightblue" stroke="midnightblue" points="47.2697,-19.5315 38.2337,-25.0632 48.7471,-26.3738 47.2697,-19.5315"/>
</g>
</g>
</svg>
