<?xml version="1.0" encoding="UTF-8" standalone="no"?>
<!DOCTYPE svg PUBLIC "-//W3C//DTD SVG 1.1//EN"
 "http://www.w3.org/Graphics/SVG/1.1/DTD/svg11.dtd">
<!-- Generated by graphviz version 2.38.0 (20140413.2041)
 -->
<!-- Title: stripPath2 Pages: 1 -->
<svg width="302pt" height="47pt"
 viewBox="0.00 0.00 302.00 47.00" xmlns="http://www.w3.org/2000/svg" xmlns:xlink="http://www.w3.org/1999/xlink">
<g id="graph0" class="graph" transform="scale(1 1) rotate(0) translate(4 43)">
<title>stripPath2</title>
<polygon fill="white" stroke="none" points="-4,4 -4,-43 298,-43 298,4 -4,4"/>
<!-- Node1 -->
<g id="node1" class="node"><title>Node1</title>
<polygon fill="#bfbfbf" stroke="black" points="0,-19.5 0,-38.5 61,-38.5 61,-19.5 0,-19.5"/>
<text text-anchor="middle" x="30.5" y="-26.5" font-family="Helvetica,sans-Serif" font-size="10.00">stripPath2</text>
</g>
<!-- Node2 -->
<g id="node2" class="node"><title>Node2</title>
<g id="a_node2"><a xlink:href="$navtree_8js.html#aa7b3067e7ef0044572ba86240b1e58ce" xlink:title="initNavTree">
<polygon fill="white" stroke="black" points="227,-19.5 227,-38.5 294,-38.5 294,-19.5 227,-19.5"/>
<text text-anchor="middle" x="260.5" y="-26.5" font-family="Helvetica,sans-Serif" font-size="10.00">initNavTree</text>
</a>
</g>
</g>
<!-- Node1&#45;&gt;Node2 -->
<g id="edge1" class="edge"><title>Node1&#45;&gt;Node2</title>
<path fill="none" stroke="midnightblue" d="M71.3819,-29C115.485,-29 185.713,-29 226.735,-29"/>
<polygon fill="midnightblue" stroke="midnightblue" points="71.3071,-25.5001 61.307,-29 71.307,-32.5001 71.3071,-25.5001"/>
</g>
<!-- Node3 -->
<g id="node3" class="node"><title>Node3</title>
<g id="a_node3"><a xlink:href="$navtree_8js.html#a646cb31d83b39aafec92e0e1d123563a" xlink:title="toggleSyncButton">
<polygon fill="white" stroke="black" points="97,-0.5 97,-19.5 191,-19.5 191,-0.5 97,-0.5"/>
<text text-anchor="middle" x="144" y="-7.5" font-family="Helvetica,sans-Serif" font-size="10.00">toggleSyncButton</text>
</a>
</g>
</g>
<!-- Node1&#45;&gt;Node3 -->
<g id="edge2" class="edge"><title>Node1&#45;&gt;Node3</title>
<path fill="none" stroke="midnightblue" d="M70.9791,-22.2726C79.3539,-20.8455 88.2655,-19.327 96.8627,-17.862"/>
<polygon fill="midnightblue" stroke="midnightblue" points="70.3572,-18.8281 61.0872,-23.9582 71.5331,-25.7286 70.3572,-18.8281"/>
</g>
<!-- Node3&#45;&gt;Node2 -->
<g id="edge3" class="edge"><title>Node3&#45;&gt;Node2</title>
<path fill="none" stroke="midnightblue" d="M201.121,-19.3126C209.924,-20.7734 218.763,-22.2401 226.804,-23.5744"/>
<polygon fill="midnightblue" stroke="midnightblue" points="201.68,-15.8576 191.241,-17.6733 200.534,-22.7631 201.68,-15.8576"/>
</g>
</g>
</svg>
