<?xml version="1.0" encoding="UTF-8" standalone="no"?>
<!DOCTYPE svg PUBLIC "-//W3C//DTD SVG 1.1//EN"
 "http://www.w3.org/Graphics/SVG/1.1/DTD/svg11.dtd">
<!-- Generated by graphviz version 2.38.0 (20140413.2041)
 -->
<!-- Title: cachedLink Pages: 1 -->
<svg width="257pt" height="66pt"
 viewBox="0.00 0.00 257.00 66.00" xmlns="http://www.w3.org/2000/svg" xmlns:xlink="http://www.w3.org/1999/xlink">
<g id="graph0" class="graph" transform="scale(1 1) rotate(0) translate(4 62)">
<title>cachedLink</title>
<polygon fill="white" stroke="none" points="-4,4 -4,-62 253,-62 253,4 -4,4"/>
<!-- Node1 -->
<g id="node1" class="node"><title>Node1</title>
<polygon fill="#bfbfbf" stroke="black" points="0,-19.5 0,-38.5 66,-38.5 66,-19.5 0,-19.5"/>
<text text-anchor="middle" x="33" y="-26.5" font-family="Helvetica,sans-Serif" font-size="10.00">cachedLink</text>
</g>
<!-- Node2 -->
<g id="node2" class="node"><title>Node2</title>
<g id="a_node2"><a xlink:href="$navtree_8js.html#aa7b3067e7ef0044572ba86240b1e58ce" xlink:title="initNavTree">
<polygon fill="white" stroke="black" points="182,-38.5 182,-57.5 249,-57.5 249,-38.5 182,-38.5"/>
<text text-anchor="middle" x="215.5" y="-45.5" font-family="Helvetica,sans-Serif" font-size="10.00">initNavTree</text>
</a>
</g>
</g>
<!-- Node1&#45;&gt;Node2 -->
<g id="edge1" class="edge"><title>Node1&#45;&gt;Node2</title>
<path fill="none" stroke="midnightblue" d="M76.3055,-33.4532C108.562,-36.8486 152.332,-41.456 181.901,-44.5685"/>
<polygon fill="midnightblue" stroke="midnightblue" points="76.5813,-29.963 66.2698,-32.3968 75.8484,-36.9245 76.5813,-29.963"/>
</g>
<!-- Node3 -->
<g id="node3" class="node"><title>Node3</title>
<g id="a_node3"><a xlink:href="$navtree_8js.html#a21beb601032fff375100a907f32129a5" xlink:title="navTo">
<polygon fill="white" stroke="black" points="102,-0.5 102,-19.5 146,-19.5 146,-0.5 102,-0.5"/>
<text text-anchor="middle" x="124" y="-7.5" font-family="Helvetica,sans-Serif" font-size="10.00">navTo</text>
</a>
</g>
</g>
<!-- Node1&#45;&gt;Node3 -->
<g id="edge2" class="edge"><title>Node1&#45;&gt;Node3</title>
<path fill="none" stroke="midnightblue" d="M76.0606,-20.0208C84.9723,-18.1183 94.0149,-16.1878 101.753,-14.5359"/>
<polygon fill="midnightblue" stroke="midnightblue" points="75.1799,-16.6298 66.131,-22.1406 76.6414,-23.4756 75.1799,-16.6298"/>
</g>
<!-- Node3&#45;&gt;Node2 -->
<g id="edge5" class="edge"><title>Node3&#45;&gt;Node2</title>
<path fill="none" stroke="midnightblue" d="M155.745,-23.0537C167.604,-28.0889 180.923,-33.7438 191.877,-38.3949"/>
<polygon fill="midnightblue" stroke="midnightblue" points="156.783,-19.692 146.21,-19.0055 154.047,-26.1353 156.783,-19.692"/>
</g>
<!-- Node4 -->
<g id="node4" class="node"><title>Node4</title>
<g id="a_node4"><a xlink:href="$navtree_8js.html#a0e6a2d65190a43246d668bba554243e5" xlink:title="gotoNode">
<polygon fill="white" stroke="black" points="186,-0.5 186,-19.5 245,-19.5 245,-0.5 186,-0.5"/>
<text text-anchor="middle" x="215.5" y="-7.5" font-family="Helvetica,sans-Serif" font-size="10.00">gotoNode</text>
</a>
</g>
</g>
<!-- Node3&#45;&gt;Node4 -->
<g id="edge3" class="edge"><title>Node3&#45;&gt;Node4</title>
<path fill="none" stroke="midnightblue" d="M156.243,-3.53104C165.915,-3.1169 176.515,-3.16047 185.991,-3.66174"/>
<polygon fill="midnightblue" stroke="midnightblue" points="155.972,-0.0411086 146.21,-4.16008 156.41,-7.02739 155.972,-0.0411086"/>
</g>
<!-- Node4&#45;&gt;Node3 -->
<g id="edge4" class="edge"><title>Node4&#45;&gt;Node3</title>
<path fill="none" stroke="midnightblue" d="M175.684,-16.697C165.565,-16.8788 155.034,-16.5931 146.21,-15.8399"/>
<polygon fill="midnightblue" stroke="midnightblue" points="176.119,-20.184 185.991,-16.3383 175.876,-13.1883 176.119,-20.184"/>
</g>
</g>
</svg>
