<?xml version="1.0" encoding="UTF-8" standalone="no"?>
<!DOCTYPE svg PUBLIC "-//W3C//DTD SVG 1.1//EN"
 "http://www.w3.org/Graphics/SVG/1.1/DTD/svg11.dtd">
<!-- Generated by graphviz version 2.38.0 (20140413.2041)
 -->
<!-- Title: navTo Pages: 1 -->
<svg width="891pt" height="426pt"
 viewBox="0.00 0.00 891.00 426.00" xmlns="http://www.w3.org/2000/svg" xmlns:xlink="http://www.w3.org/1999/xlink">
<g id="graph0" class="graph" transform="scale(1 1) rotate(0) translate(4 422)">
<title>navTo</title>
<polygon fill="white" stroke="none" points="-4,4 -4,-422 887,-422 887,4 -4,4"/>
<!-- Node1 -->
<g id="node1" class="node"><title>Node1</title>
<polygon fill="#bfbfbf" stroke="black" points="0,-286.5 0,-305.5 44,-305.5 44,-286.5 0,-286.5"/>
<text text-anchor="middle" x="22" y="-293.5" font-family="Helvetica,sans-Serif" font-size="10.00">navTo</text>
</g>
<!-- Node2 -->
<g id="node2" class="node"><title>Node2</title>
<g id="a_node2"><a xlink:href="$navtree_8js.html#aaa2d293f55e5fe3620af4f9a2836e428" xlink:title="cachedLink">
<polygon fill="white" stroke="black" points="175,-389.5 175,-408.5 241,-408.5 241,-389.5 175,-389.5"/>
<text text-anchor="middle" x="208" y="-396.5" font-family="Helvetica,sans-Serif" font-size="10.00">cachedLink</text>
</a>
</g>
</g>
<!-- Node1&#45;&gt;Node2 -->
<g id="edge1" class="edge"><title>Node1&#45;&gt;Node2</title>
<path fill="none" stroke="midnightblue" d="M27.005,-305.608C34.6193,-322.594 52.882,-357.76 80,-375 105.243,-391.048 138.633,-396.89 164.841,-398.804"/>
<polygon fill="midnightblue" stroke="midnightblue" points="164.679,-402.301 174.862,-399.374 165.077,-395.312 164.679,-402.301"/>
</g>
<!-- Node4 -->
<g id="node4" class="node"><title>Node4</title>
<g id="a_node4"><a xlink:href="$navtree_8js.html#a32f4aac18d03aee747b55dea195731ac" xlink:title="getScript">
<polygon fill="white" stroke="black" points="405,-370.5 405,-389.5 461,-389.5 461,-370.5 405,-370.5"/>
<text text-anchor="middle" x="433" y="-377.5" font-family="Helvetica,sans-Serif" font-size="10.00">getScript</text>
</a>
</g>
</g>
<!-- Node1&#45;&gt;Node4 -->
<g id="edge3" class="edge"><title>Node1&#45;&gt;Node4</title>
<path fill="none" stroke="midnightblue" d="M44.1732,-303.839C54.8178,-307.58 67.9796,-311.903 80,-315 193.155,-344.156 329.986,-365.549 394.667,-374.853"/>
<polygon fill="midnightblue" stroke="midnightblue" points="394.388,-378.349 404.782,-376.294 395.376,-371.419 394.388,-378.349"/>
</g>
<!-- Node7 -->
<g id="node7" class="node"><title>Node7</title>
<g id="a_node7"><a xlink:href="$navtree_8js.html#a23b68d2deb28f9c2678f546e2d60e5ee" xlink:title="glowEffect">
<polygon fill="white" stroke="black" points="665,-0.5 665,-19.5 728,-19.5 728,-0.5 665,-0.5"/>
<text text-anchor="middle" x="696.5" y="-7.5" font-family="Helvetica,sans-Serif" font-size="10.00">glowEffect</text>
</a>
</g>
</g>
<!-- Node1&#45;&gt;Node7 -->
<g id="edge6" class="edge"><title>Node1&#45;&gt;Node7</title>
<path fill="none" stroke="midnightblue" d="M24.2909,-286.484C31.6021,-236.859 72.3864,-10 207,-10 207,-10 207,-10 434,-10 512.151,-10 603.439,-10 654.86,-10"/>
<polygon fill="midnightblue" stroke="midnightblue" points="654.903,-13.5001 664.903,-10 654.903,-6.5001 654.903,-13.5001"/>
</g>
<!-- Node8 -->
<g id="node8" class="node"><title>Node8</title>
<g id="a_node8"><a xlink:href="$navtree_8js.html#a0e6a2d65190a43246d668bba554243e5" xlink:title="gotoNode">
<polygon fill="white" stroke="black" points="80,-286.5 80,-305.5 139,-305.5 139,-286.5 80,-286.5"/>
<text text-anchor="middle" x="109.5" y="-293.5" font-family="Helvetica,sans-Serif" font-size="10.00">gotoNode</text>
</a>
</g>
</g>
<!-- Node1&#45;&gt;Node8 -->
<g id="edge7" class="edge"><title>Node1&#45;&gt;Node8</title>
<path fill="none" stroke="midnightblue" d="M44.1348,-290.084C51.8832,-289.43 60.9172,-289.16 69.7243,-289.276"/>
<polygon fill="midnightblue" stroke="midnightblue" points="69.7651,-292.779 79.8681,-289.588 69.9806,-285.782 69.7651,-292.779"/>
</g>
<!-- Node3 -->
<g id="node3" class="node"><title>Node3</title>
<g id="a_node3"><a xlink:href="$navtree_8js.html#ac49af616f532f2364be9f58280469d33" xlink:title="localStorageSupported">
<polygon fill="white" stroke="black" points="768,-327.5 768,-346.5 883,-346.5 883,-327.5 768,-327.5"/>
<text text-anchor="middle" x="825.5" y="-334.5" font-family="Helvetica,sans-Serif" font-size="10.00">localStorageSupported</text>
</a>
</g>
</g>
<!-- Node2&#45;&gt;Node3 -->
<g id="edge2" class="edge"><title>Node2&#45;&gt;Node3</title>
<path fill="none" stroke="midnightblue" d="M241.055,-403.455C284.31,-409.07 363.809,-418 432,-418 432,-418 432,-418 572.5,-418 658.554,-418 753.551,-374.659 798.363,-351.384"/>
<polygon fill="midnightblue" stroke="midnightblue" points="800.189,-354.378 807.393,-346.61 796.917,-348.19 800.189,-354.378"/>
</g>
<!-- Node5 -->
<g id="node5" class="node"><title>Node5</title>
<g id="a_node5"><a xlink:href="$svgpan_8js.html#aa8d9f2083cafa2af98efafed94901079" xlink:title="Show the graph in the middle of the view, scaled to fit. ">
<polygon fill="white" stroke="black" points="551.5,-361.5 551.5,-380.5 591.5,-380.5 591.5,-361.5 551.5,-361.5"/>
<text text-anchor="middle" x="571.5" y="-368.5" font-family="Helvetica,sans-Serif" font-size="10.00">show</text>
</a>
</g>
</g>
<!-- Node4&#45;&gt;Node5 -->
<g id="edge4" class="edge"><title>Node4&#45;&gt;Node5</title>
<path fill="none" stroke="midnightblue" d="M461.295,-378.2C484.369,-376.679 517.354,-374.504 541.025,-372.943"/>
<polygon fill="midnightblue" stroke="midnightblue" points="541.429,-376.424 551.177,-372.274 540.968,-369.44 541.429,-376.424"/>
</g>
<!-- Node6 -->
<g id="node6" class="node"><title>Node6</title>
<g id="a_node6"><a xlink:href="$navtree_8js.html#af98a8e3534da945399ea20870c0f3e92" xlink:title="showRoot">
<polygon fill="white" stroke="black" points="541,-266.5 541,-285.5 602,-285.5 602,-266.5 541,-266.5"/>
<text text-anchor="middle" x="571.5" y="-273.5" font-family="Helvetica,sans-Serif" font-size="10.00">showRoot</text>
</a>
</g>
</g>
<!-- Node4&#45;&gt;Node6 -->
<g id="edge5" class="edge"><title>Node4&#45;&gt;Node6</title>
<path fill="none" stroke="midnightblue" d="M446.597,-370.402C470.163,-352.447 521.12,-313.623 549.802,-291.77"/>
<polygon fill="midnightblue" stroke="midnightblue" points="552.1,-294.419 557.934,-285.574 547.858,-288.851 552.1,-294.419"/>
</g>
<!-- Node8&#45;&gt;Node1 -->
<g id="edge8" class="edge"><title>Node8&#45;&gt;Node1</title>
<path fill="none" stroke="midnightblue" d="M79.8681,-302.412C71.6528,-302.819 62.6539,-302.859 54.2875,-302.53"/>
<polygon fill="midnightblue" stroke="midnightblue" points="54.3279,-299.026 44.1348,-301.916 53.9054,-306.013 54.3279,-299.026"/>
</g>
<!-- Node9 -->
<g id="node9" class="node"><title>Node9</title>
<g id="a_node9"><a xlink:href="$navtree_8js.html#a0238ad48be94f9f5fd305ea40b8f64ab" xlink:title="showNode">
<polygon fill="white" stroke="black" points="176.5,-240.5 176.5,-259.5 239.5,-259.5 239.5,-240.5 176.5,-240.5"/>
<text text-anchor="middle" x="208" y="-247.5" font-family="Helvetica,sans-Serif" font-size="10.00">showNode</text>
</a>
</g>
</g>
<!-- Node8&#45;&gt;Node9 -->
<g id="edge9" class="edge"><title>Node8&#45;&gt;Node9</title>
<path fill="none" stroke="midnightblue" d="M130.495,-286.469C144.21,-279.931 162.628,-271.151 177.956,-263.845"/>
<polygon fill="midnightblue" stroke="midnightblue" points="179.51,-266.981 187.031,-259.519 176.498,-260.663 179.51,-266.981"/>
</g>
<!-- Node9&#45;&gt;Node4 -->
<g id="edge25" class="edge"><title>Node9&#45;&gt;Node4</title>
<path fill="none" stroke="midnightblue" d="M225.197,-259.563C238.965,-267.682 259.262,-279.633 277,-290 322.528,-316.608 375.704,-347.428 406.45,-365.223"/>
<polygon fill="midnightblue" stroke="midnightblue" points="404.83,-368.33 415.238,-370.309 408.336,-362.271 404.83,-368.33"/>
</g>
<!-- Node10 -->
<g id="node10" class="node"><title>Node10</title>
<g id="a_node10"><a xlink:href="$navtree_8js.html#a4eb1f166c9d93b198e1621a4c787a412" xlink:title="expandNode">
<polygon fill="white" stroke="black" points="277,-261.5 277,-280.5 348,-280.5 348,-261.5 277,-261.5"/>
<text text-anchor="middle" x="312.5" y="-268.5" font-family="Helvetica,sans-Serif" font-size="10.00">expandNode</text>
</a>
</g>
</g>
<!-- Node9&#45;&gt;Node10 -->
<g id="edge10" class="edge"><title>Node9&#45;&gt;Node10</title>
<path fill="none" stroke="midnightblue" d="M239.753,-256.301C248.328,-258.057 257.819,-260.002 267.014,-261.886"/>
<polygon fill="midnightblue" stroke="midnightblue" points="266.319,-265.316 276.818,-263.894 267.724,-258.459 266.319,-265.316"/>
</g>
<!-- Node11 -->
<g id="node11" class="node"><title>Node11</title>
<g id="a_node11"><a xlink:href="$navtree_8js.html#a256aa4fbee866e9227f78e82e9f258bb" xlink:title="getNode">
<polygon fill="white" stroke="black" points="406.5,-218.5 406.5,-237.5 459.5,-237.5 459.5,-218.5 406.5,-218.5"/>
<text text-anchor="middle" x="433" y="-225.5" font-family="Helvetica,sans-Serif" font-size="10.00">getNode</text>
</a>
</g>
</g>
<!-- Node9&#45;&gt;Node11 -->
<g id="edge24" class="edge"><title>Node9&#45;&gt;Node11</title>
<path fill="none" stroke="midnightblue" d="M239.54,-246.987C280.424,-242.954 352.815,-235.812 396.211,-231.531"/>
<polygon fill="midnightblue" stroke="midnightblue" points="396.712,-234.998 406.32,-230.533 396.024,-228.032 396.712,-234.998"/>
</g>
<!-- Node17 -->
<g id="node17" class="node"><title>Node17</title>
<g id="a_node17"><a xlink:href="$navtree_8js.html#a9336c21407bb7ced644331eb7a2a6e35" xlink:title="stripPath">
<polygon fill="white" stroke="black" points="668.5,-152.5 668.5,-171.5 724.5,-171.5 724.5,-152.5 668.5,-152.5"/>
<text text-anchor="middle" x="696.5" y="-159.5" font-family="Helvetica,sans-Serif" font-size="10.00">stripPath</text>
</a>
</g>
</g>
<!-- Node9&#45;&gt;Node17 -->
<g id="edge36" class="edge"><title>Node9&#45;&gt;Node17</title>
<path fill="none" stroke="midnightblue" d="M218.455,-240.429C231.004,-228.096 254.238,-206.52 277,-192 321.097,-163.871 332.981,-154.526 384,-143 488.482,-119.396 519.005,-125.549 625,-141 636.707,-142.707 649.174,-145.928 660.317,-149.345"/>
<polygon fill="midnightblue" stroke="midnightblue" points="659.527,-152.767 670.118,-152.499 661.672,-146.104 659.527,-152.767"/>
</g>
<!-- Node19 -->
<g id="node19" class="node"><title>Node19</title>
<g id="a_node19"><a xlink:href="$navtree_8js.html#a0dbf0d5f6126afd88420745f7d3c202d" xlink:title="selectAndHighlight">
<polygon fill="white" stroke="black" points="384,-152.5 384,-171.5 482,-171.5 482,-152.5 384,-152.5"/>
<text text-anchor="middle" x="433" y="-159.5" font-family="Helvetica,sans-Serif" font-size="10.00">selectAndHighlight</text>
</a>
</g>
</g>
<!-- Node9&#45;&gt;Node19 -->
<g id="edge26" class="edge"><title>Node9&#45;&gt;Node19</title>
<path fill="none" stroke="midnightblue" d="M233.289,-240.415C273.253,-224.645 352.956,-193.192 398.335,-175.285"/>
<polygon fill="midnightblue" stroke="midnightblue" points="399.723,-178.5 407.741,-171.573 397.154,-171.988 399.723,-178.5"/>
</g>
<!-- Node10&#45;&gt;Node4 -->
<g id="edge21" class="edge"><title>Node10&#45;&gt;Node4</title>
<path fill="none" stroke="midnightblue" d="M326.779,-280.628C333.563,-285.911 341.694,-292.833 348,-300 367.545,-322.214 361.982,-336.234 384,-356 387.971,-359.565 392.569,-362.736 397.313,-365.512"/>
<polygon fill="midnightblue" stroke="midnightblue" points="396.015,-368.784 406.492,-370.36 399.284,-362.594 396.015,-368.784"/>
</g>
<!-- Node10&#45;&gt;Node5 -->
<g id="edge22" class="edge"><title>Node10&#45;&gt;Node5</title>
<path fill="none" stroke="midnightblue" d="M325.293,-280.548C338.768,-291.042 361.829,-307.766 384,-318 436.851,-342.395 503.401,-358.016 541.026,-365.586"/>
<polygon fill="midnightblue" stroke="midnightblue" points="540.796,-369.107 551.282,-367.593 542.14,-362.237 540.796,-369.107"/>
</g>
<!-- Node10&#45;&gt;Node6 -->
<g id="edge23" class="edge"><title>Node10&#45;&gt;Node6</title>
<path fill="none" stroke="midnightblue" d="M348.16,-271.674C395.616,-272.598 480.617,-274.251 530.647,-275.225"/>
<polygon fill="midnightblue" stroke="midnightblue" points="530.7,-278.726 540.766,-275.422 530.836,-271.728 530.7,-278.726"/>
</g>
<!-- Node10&#45;&gt;Node11 -->
<g id="edge11" class="edge"><title>Node10&#45;&gt;Node11</title>
<path fill="none" stroke="midnightblue" d="M339.799,-261.457C356.56,-255.375 378.48,-247.421 396.742,-240.794"/>
<polygon fill="midnightblue" stroke="midnightblue" points="397.976,-244.07 406.182,-237.368 395.588,-237.49 397.976,-244.07"/>
</g>
<!-- Node12 -->
<g id="node12" class="node"><title>Node12</title>
<g id="a_node12"><a xlink:href="$navtree_8js.html#aa2418b16159e9502e990f97ea6ec26c8" xlink:title="newNode">
<polygon fill="white" stroke="black" points="542.5,-190.5 542.5,-209.5 600.5,-209.5 600.5,-190.5 542.5,-190.5"/>
<text text-anchor="middle" x="571.5" y="-197.5" font-family="Helvetica,sans-Serif" font-size="10.00">newNode</text>
</a>
</g>
</g>
<!-- Node11&#45;&gt;Node12 -->
<g id="edge12" class="edge"><title>Node11&#45;&gt;Node12</title>
<path fill="none" stroke="midnightblue" d="M459.675,-222.733C480.126,-218.538 509.068,-212.601 532.248,-207.847"/>
<polygon fill="midnightblue" stroke="midnightblue" points="533.021,-211.261 542.114,-205.823 531.614,-204.404 533.021,-211.261"/>
</g>
<!-- Node18 -->
<g id="node18" class="node"><title>Node18</title>
<g id="a_node18"><a xlink:href="$navtree_8js.html#aa78016020f40c28356aefd325cd4df74" xlink:title="removeToInsertLater">
<polygon fill="white" stroke="black" points="518,-228.5 518,-247.5 625,-247.5 625,-228.5 518,-228.5"/>
<text text-anchor="middle" x="571.5" y="-235.5" font-family="Helvetica,sans-Serif" font-size="10.00">removeToInsertLater</text>
</a>
</g>
</g>
<!-- Node11&#45;&gt;Node18 -->
<g id="edge20" class="edge"><title>Node11&#45;&gt;Node18</title>
<path fill="none" stroke="midnightblue" d="M459.675,-229.881C473.233,-230.874 490.524,-232.141 507.393,-233.377"/>
<polygon fill="midnightblue" stroke="midnightblue" points="507.576,-236.899 517.805,-234.14 508.087,-229.918 507.576,-236.899"/>
</g>
<!-- Node13 -->
<g id="node13" class="node"><title>Node13</title>
<g id="a_node13"><a xlink:href="$navtree_8js.html#a4d8f406d49520a0cede2e48347a3d7aa" xlink:title="createIndent">
<polygon fill="white" stroke="black" points="661,-295.5 661,-314.5 732,-314.5 732,-295.5 661,-295.5"/>
<text text-anchor="middle" x="696.5" y="-302.5" font-family="Helvetica,sans-Serif" font-size="10.00">createIndent</text>
</a>
</g>
</g>
<!-- Node12&#45;&gt;Node13 -->
<g id="edge13" class="edge"><title>Node12&#45;&gt;Node13</title>
<path fill="none" stroke="midnightblue" d="M600.705,-206.428C609.126,-209.298 617.976,-213.35 625,-219 648.348,-237.779 641.298,-253.425 661,-276 664.923,-280.495 669.57,-284.885 674.161,-288.834"/>
<polygon fill="midnightblue" stroke="midnightblue" points="672.237,-291.781 682.197,-295.393 676.663,-286.358 672.237,-291.781"/>
</g>
<!-- Node14 -->
<g id="node14" class="node"><title>Node14</title>
<g id="a_node14"><a xlink:href="$navtree_8js.html#aee1fc3771eeb15da54962a03da1f3c11" xlink:title="gotoAnchor">
<polygon fill="white" stroke="black" points="663.5,-114.5 663.5,-133.5 729.5,-133.5 729.5,-114.5 663.5,-114.5"/>
<text text-anchor="middle" x="696.5" y="-121.5" font-family="Helvetica,sans-Serif" font-size="10.00">gotoAnchor</text>
</a>
</g>
</g>
<!-- Node12&#45;&gt;Node14 -->
<g id="edge15" class="edge"><title>Node12&#45;&gt;Node14</title>
<path fill="none" stroke="midnightblue" d="M586.719,-190.412C604.046,-178.828 634.317,-158.915 661,-143 663.478,-141.522 666.075,-140.016 668.687,-138.53"/>
<polygon fill="midnightblue" stroke="midnightblue" points="670.437,-141.561 677.461,-133.63 667.024,-135.45 670.437,-141.561"/>
</g>
<!-- Node15 -->
<g id="node15" class="node"><title>Node15</title>
<g id="a_node15"><a xlink:href="$navtree_8js.html#a364b3f4132309fa9aae78585cf2cb772" xlink:title="pathName">
<polygon fill="white" stroke="black" points="665.5,-190.5 665.5,-209.5 727.5,-209.5 727.5,-190.5 665.5,-190.5"/>
<text text-anchor="middle" x="696.5" y="-197.5" font-family="Helvetica,sans-Serif" font-size="10.00">pathName</text>
</a>
</g>
</g>
<!-- Node12&#45;&gt;Node15 -->
<g id="edge16" class="edge"><title>Node12&#45;&gt;Node15</title>
<path fill="none" stroke="midnightblue" d="M600.719,-200C616.845,-200 637.341,-200 655.145,-200"/>
<polygon fill="midnightblue" stroke="midnightblue" points="655.263,-203.5 665.263,-200 655.263,-196.5 655.263,-203.5"/>
</g>
<!-- Node16 -->
<g id="node16" class="node"><title>Node16</title>
<g id="a_node16"><a xlink:href="$navtree_8js.html#ade730323aadb971c053136b7758c9dce" xlink:title="storeLink">
<polygon fill="white" stroke="black" points="668.5,-247.5 668.5,-266.5 724.5,-266.5 724.5,-247.5 668.5,-247.5"/>
<text text-anchor="middle" x="696.5" y="-254.5" font-family="Helvetica,sans-Serif" font-size="10.00">storeLink</text>
</a>
</g>
</g>
<!-- Node12&#45;&gt;Node16 -->
<g id="edge17" class="edge"><title>Node12&#45;&gt;Node16</title>
<path fill="none" stroke="midnightblue" d="M600.595,-209.306C608.578,-212.182 617.214,-215.516 625,-219 640.421,-225.901 657.086,-234.812 670.339,-242.27"/>
<polygon fill="midnightblue" stroke="midnightblue" points="668.9,-245.479 679.32,-247.394 672.369,-239.399 668.9,-245.479"/>
</g>
<!-- Node12&#45;&gt;Node17 -->
<g id="edge19" class="edge"><title>Node12&#45;&gt;Node17</title>
<path fill="none" stroke="midnightblue" d="M600.719,-191.282C617.913,-185.97 640.074,-179.123 658.644,-173.386"/>
<polygon fill="midnightblue" stroke="midnightblue" points="659.737,-176.712 668.258,-170.416 657.671,-170.024 659.737,-176.712"/>
</g>
<!-- Node13&#45;&gt;Node10 -->
<g id="edge14" class="edge"><title>Node13&#45;&gt;Node10</title>
<path fill="none" stroke="midnightblue" d="M660.723,-305.16C602.947,-304.965 483.673,-302.613 384,-288 375.405,-286.74 366.321,-284.924 357.637,-282.944"/>
<polygon fill="midnightblue" stroke="midnightblue" points="358.218,-279.484 347.679,-280.566 356.593,-286.293 358.218,-279.484"/>
</g>
<!-- Node16&#45;&gt;Node3 -->
<g id="edge18" class="edge"><title>Node16&#45;&gt;Node3</title>
<path fill="none" stroke="midnightblue" d="M713.073,-266.81C734.899,-280.559 774.788,-305.685 800.447,-321.848"/>
<polygon fill="midnightblue" stroke="midnightblue" points="798.87,-324.992 809.197,-327.36 802.601,-319.069 798.87,-324.992"/>
</g>
<!-- Node19&#45;&gt;Node6 -->
<g id="edge34" class="edge"><title>Node19&#45;&gt;Node6</title>
<path fill="none" stroke="midnightblue" d="M444.761,-171.649C454.806,-180.858 470.007,-195.318 482,-209 499.578,-229.053 496.567,-241.133 518,-257 522.13,-260.058 526.801,-262.664 531.612,-264.874"/>
<polygon fill="midnightblue" stroke="midnightblue" points="530.348,-268.138 540.93,-268.652 532.978,-261.651 530.348,-268.138"/>
</g>
<!-- Node19&#45;&gt;Node15 -->
<g id="edge33" class="edge"><title>Node19&#45;&gt;Node15</title>
<path fill="none" stroke="midnightblue" d="M482.187,-164.599C520.991,-167.218 576.817,-172.172 625,-181 634.902,-182.814 645.445,-185.331 655.278,-187.94"/>
<polygon fill="midnightblue" stroke="midnightblue" points="654.642,-191.395 665.212,-190.667 656.495,-184.645 654.642,-191.395"/>
</g>
<!-- Node19&#45;&gt;Node17 -->
<g id="edge35" class="edge"><title>Node19&#45;&gt;Node17</title>
<path fill="none" stroke="midnightblue" d="M482.246,-152.558C493.905,-150.665 506.36,-148.963 518,-148 565.394,-144.078 577.673,-143.346 625,-148 635.917,-149.073 647.649,-151.06 658.35,-153.207"/>
<polygon fill="midnightblue" stroke="midnightblue" points="657.726,-156.652 668.233,-155.289 659.169,-149.803 657.726,-156.652"/>
</g>
<!-- Node20 -->
<g id="node20" class="node"><title>Node20</title>
<g id="a_node20"><a xlink:href="$navtree_8js.html#a524fa9bfd80c70bf3a84696b2077eadb" xlink:title="highlightAnchor">
<polygon fill="white" stroke="black" points="530,-38.5 530,-57.5 613,-57.5 613,-38.5 530,-38.5"/>
<text text-anchor="middle" x="571.5" y="-45.5" font-family="Helvetica,sans-Serif" font-size="10.00">highlightAnchor</text>
</a>
</g>
</g>
<!-- Node19&#45;&gt;Node20 -->
<g id="edge27" class="edge"><title>Node19&#45;&gt;Node20</title>
<path fill="none" stroke="midnightblue" d="M445.638,-152.28C469.11,-132.678 522.333,-88.2276 551.13,-64.1773"/>
<polygon fill="midnightblue" stroke="midnightblue" points="553.46,-66.7915 558.892,-57.695 548.973,-61.4188 553.46,-66.7915"/>
</g>
<!-- Node20&#45;&gt;Node7 -->
<g id="edge28" class="edge"><title>Node20&#45;&gt;Node7</title>
<path fill="none" stroke="midnightblue" d="M603.538,-38.411C619.244,-33.5588 638.496,-27.6111 655.319,-22.4138"/>
<polygon fill="midnightblue" stroke="midnightblue" points="656.377,-25.7502 664.898,-19.4543 654.31,-19.0621 656.377,-25.7502"/>
</g>
<!-- Node20&#45;&gt;Node14 -->
<g id="edge29" class="edge"><title>Node20&#45;&gt;Node14</title>
<path fill="none" stroke="midnightblue" d="M597.654,-57.5901C606.612,-61.4922 616.563,-66.4076 625,-72 643.091,-83.9921 643.368,-92.3414 661,-105 662.895,-106.361 664.899,-107.697 666.947,-108.99"/>
<polygon fill="midnightblue" stroke="midnightblue" points="665.631,-112.276 676.024,-114.331 669.181,-106.243 665.631,-112.276"/>
</g>
<!-- Node21 -->
<g id="node21" class="node"><title>Node21</title>
<g id="a_node21"><a xlink:href="$navtree_8js.html#a20695277530a1a04eef8d289177a5e40" xlink:title="hashUrl">
<polygon fill="white" stroke="black" points="671.5,-76.5 671.5,-95.5 721.5,-95.5 721.5,-76.5 671.5,-76.5"/>
<text text-anchor="middle" x="696.5" y="-83.5" font-family="Helvetica,sans-Serif" font-size="10.00">hashUrl</text>
</a>
</g>
</g>
<!-- Node20&#45;&gt;Node21 -->
<g id="edge30" class="edge"><title>Node20&#45;&gt;Node21</title>
<path fill="none" stroke="midnightblue" d="M603.538,-57.589C621.312,-63.0802 643.628,-69.9744 661.825,-75.5963"/>
<polygon fill="midnightblue" stroke="midnightblue" points="660.868,-78.9639 671.456,-78.5717 662.935,-72.2758 660.868,-78.9639"/>
</g>
<!-- Node22 -->
<g id="node22" class="node"><title>Node22</title>
<g id="a_node22"><a xlink:href="$navtree_8js.html#aaeb20639619e1371c030d36a7109b27b" xlink:title="hashValue">
<polygon fill="white" stroke="black" points="794.5,-57.5 794.5,-76.5 856.5,-76.5 856.5,-57.5 794.5,-57.5"/>
<text text-anchor="middle" x="825.5" y="-64.5" font-family="Helvetica,sans-Serif" font-size="10.00">hashValue</text>
</a>
</g>
</g>
<!-- Node20&#45;&gt;Node22 -->
<g id="edge32" class="edge"><title>Node20&#45;&gt;Node22</title>
<path fill="none" stroke="midnightblue" d="M613.268,-51.0738C660.408,-54.628 737.511,-60.4413 784.376,-63.9748"/>
<polygon fill="midnightblue" stroke="midnightblue" points="784.23,-67.4736 794.464,-64.7354 784.756,-60.4934 784.23,-67.4736"/>
</g>
<!-- Node21&#45;&gt;Node22 -->
<g id="edge31" class="edge"><title>Node21&#45;&gt;Node22</title>
<path fill="none" stroke="midnightblue" d="M721.687,-82.3815C739.295,-79.7472 763.552,-76.1182 784.083,-73.0467"/>
<polygon fill="midnightblue" stroke="midnightblue" points="784.747,-76.4863 794.119,-71.5451 783.712,-69.5633 784.747,-76.4863"/>
</g>
</g>
</svg>
