<?xml version="1.0" encoding="UTF-8" standalone="no"?>
<!DOCTYPE svg PUBLIC "-//W3C//DTD SVG 1.1//EN"
 "http://www.w3.org/Graphics/SVG/1.1/DTD/svg11.dtd">
<!-- Generated by graphviz version 2.38.0 (20140413.2041)
 -->
<!-- Title: stripPath Pages: 1 -->
<svg width="784pt" height="208pt"
 viewBox="0.00 0.00 784.00 208.00" xmlns="http://www.w3.org/2000/svg" xmlns:xlink="http://www.w3.org/1999/xlink">
<g id="graph0" class="graph" transform="scale(1 1) rotate(0) translate(4 204)">
<title>stripPath</title>
<polygon fill="white" stroke="none" points="-4,4 -4,-204 780,-204 780,4 -4,4"/>
<!-- Node1 -->
<g id="node1" class="node"><title>Node1</title>
<polygon fill="#bfbfbf" stroke="black" points="0,-66.5 0,-85.5 56,-85.5 56,-66.5 0,-66.5"/>
<text text-anchor="middle" x="28" y="-73.5" font-family="Helvetica,sans-Serif" font-size="10.00">stripPath</text>
</g>
<!-- Node2 -->
<g id="node2" class="node"><title>Node2</title>
<g id="a_node2"><a xlink:href="$navtree_8js.html#aa7b3067e7ef0044572ba86240b1e58ce" xlink:title="initNavTree">
<polygon fill="white" stroke="black" points="709,-152.5 709,-171.5 776,-171.5 776,-152.5 709,-152.5"/>
<text text-anchor="middle" x="742.5" y="-159.5" font-family="Helvetica,sans-Serif" font-size="10.00">initNavTree</text>
</a>
</g>
</g>
<!-- Node1&#45;&gt;Node2 -->
<g id="edge1" class="edge"><title>Node1&#45;&gt;Node2</title>
<path fill="none" stroke="midnightblue" d="M44.3421,-93.536C76.0589,-127.73 152.708,-200 234,-200 234,-200 234,-200 564.5,-200 618.559,-200 679.877,-182.846 714.296,-171.589"/>
<polygon fill="midnightblue" stroke="midnightblue" points="46.5787,-90.7917 37.2712,-85.7301 41.3908,-95.4912 46.5787,-90.7917"/>
</g>
<!-- Node3 -->
<g id="node3" class="node"><title>Node3</title>
<g id="a_node3"><a xlink:href="$navtree_8js.html#aa2418b16159e9502e990f97ea6ec26c8" xlink:title="newNode">
<polygon fill="white" stroke="black" points="92,-95.5 92,-114.5 150,-114.5 150,-95.5 92,-95.5"/>
<text text-anchor="middle" x="121" y="-102.5" font-family="Helvetica,sans-Serif" font-size="10.00">newNode</text>
</a>
</g>
</g>
<!-- Node1&#45;&gt;Node3 -->
<g id="edge2" class="edge"><title>Node1&#45;&gt;Node3</title>
<path fill="none" stroke="midnightblue" d="M66.0978,-87.8224C74.6678,-90.5535 83.6498,-93.4159 91.77,-96.0036"/>
<polygon fill="midnightblue" stroke="midnightblue" points="66.8936,-84.4026 56.303,-84.701 64.7681,-91.0721 66.8936,-84.4026"/>
</g>
<!-- Node7 -->
<g id="node7" class="node"><title>Node7</title>
<g id="a_node7"><a xlink:href="$navtree_8js.html#a0238ad48be94f9f5fd305ea40b8f64ab" xlink:title="showNode">
<polygon fill="white" stroke="black" points="431,-76.5 431,-95.5 494,-95.5 494,-76.5 431,-76.5"/>
<text text-anchor="middle" x="462.5" y="-83.5" font-family="Helvetica,sans-Serif" font-size="10.00">showNode</text>
</a>
</g>
</g>
<!-- Node1&#45;&gt;Node7 -->
<g id="edge15" class="edge"><title>Node1&#45;&gt;Node7</title>
<path fill="none" stroke="midnightblue" d="M66.1562,-76.8591C150.128,-78.8006 353.242,-83.4969 430.746,-85.2889"/>
<polygon fill="midnightblue" stroke="midnightblue" points="66.1331,-73.3577 56.0548,-76.6255 65.9712,-80.3559 66.1331,-73.3577"/>
</g>
<!-- Node10 -->
<g id="node10" class="node"><title>Node10</title>
<g id="a_node10"><a xlink:href="$navtree_8js.html#a0dbf0d5f6126afd88420745f7d3c202d" xlink:title="selectAndHighlight">
<polygon fill="white" stroke="black" points="186,-0.5 186,-19.5 284,-19.5 284,-0.5 186,-0.5"/>
<text text-anchor="middle" x="235" y="-7.5" font-family="Helvetica,sans-Serif" font-size="10.00">selectAndHighlight</text>
</a>
</g>
</g>
<!-- Node1&#45;&gt;Node10 -->
<g id="edge13" class="edge"><title>Node1&#45;&gt;Node10</title>
<path fill="none" stroke="midnightblue" d="M48.1194,-60.1473C60.0295,-51.0939 76.0719,-40.3198 92,-34 121.98,-22.1051 157.802,-16.1039 185.967,-13.077"/>
<polygon fill="midnightblue" stroke="midnightblue" points="45.9338,-57.4134 40.2381,-66.3471 50.2617,-62.9152 45.9338,-57.4134"/>
</g>
<!-- Node4 -->
<g id="node4" class="node"><title>Node4</title>
<g id="a_node4"><a xlink:href="$navtree_8js.html#a256aa4fbee866e9227f78e82e9f258bb" xlink:title="getNode">
<polygon fill="white" stroke="black" points="208.5,-95.5 208.5,-114.5 261.5,-114.5 261.5,-95.5 208.5,-95.5"/>
<text text-anchor="middle" x="235" y="-102.5" font-family="Helvetica,sans-Serif" font-size="10.00">getNode</text>
</a>
</g>
</g>
<!-- Node3&#45;&gt;Node4 -->
<g id="edge3" class="edge"><title>Node3&#45;&gt;Node4</title>
<path fill="none" stroke="midnightblue" d="M160.331,-105C176.21,-105 194.2,-105 208.428,-105"/>
<polygon fill="midnightblue" stroke="midnightblue" points="160.262,-101.5 150.262,-105 160.262,-108.5 160.262,-101.5"/>
</g>
<!-- Node5 -->
<g id="node5" class="node"><title>Node5</title>
<g id="a_node5"><a xlink:href="$navtree_8js.html#a4eb1f166c9d93b198e1621a4c787a412" xlink:title="expandNode">
<polygon fill="white" stroke="black" points="320,-114.5 320,-133.5 391,-133.5 391,-114.5 320,-114.5"/>
<text text-anchor="middle" x="355.5" y="-121.5" font-family="Helvetica,sans-Serif" font-size="10.00">expandNode</text>
</a>
</g>
</g>
<!-- Node4&#45;&gt;Node5 -->
<g id="edge4" class="edge"><title>Node4&#45;&gt;Node5</title>
<path fill="none" stroke="midnightblue" d="M271.803,-110.741C287.038,-113.183 304.737,-116.021 319.844,-118.443"/>
<polygon fill="midnightblue" stroke="midnightblue" points="272.141,-107.25 261.713,-109.123 271.032,-114.162 272.141,-107.25"/>
</g>
<!-- Node4&#45;&gt;Node7 -->
<g id="edge12" class="edge"><title>Node4&#45;&gt;Node7</title>
<path fill="none" stroke="midnightblue" d="M272.109,-101.958C316.089,-98.2519 389.607,-92.0575 430.919,-88.5766"/>
<polygon fill="midnightblue" stroke="midnightblue" points="271.539,-98.4931 261.868,-102.82 272.126,-105.468 271.539,-98.4931"/>
</g>
<!-- Node6 -->
<g id="node6" class="node"><title>Node6</title>
<g id="a_node6"><a xlink:href="$navtree_8js.html#a4d8f406d49520a0cede2e48347a3d7aa" xlink:title="createIndent">
<polygon fill="white" stroke="black" points="427,-133.5 427,-152.5 498,-152.5 498,-133.5 427,-133.5"/>
<text text-anchor="middle" x="462.5" y="-140.5" font-family="Helvetica,sans-Serif" font-size="10.00">createIndent</text>
</a>
</g>
</g>
<!-- Node5&#45;&gt;Node6 -->
<g id="edge5" class="edge"><title>Node5&#45;&gt;Node6</title>
<path fill="none" stroke="midnightblue" d="M401.097,-132.07C409.715,-133.629 418.623,-135.241 426.864,-136.733"/>
<polygon fill="midnightblue" stroke="midnightblue" points="401.635,-128.611 391.172,-130.274 400.389,-135.499 401.635,-128.611"/>
</g>
<!-- Node5&#45;&gt;Node7 -->
<g id="edge7" class="edge"><title>Node5&#45;&gt;Node7</title>
<path fill="none" stroke="midnightblue" d="M392.747,-110.882C406.635,-105.856 422.205,-100.221 435.013,-95.5859"/>
<polygon fill="midnightblue" stroke="midnightblue" points="391.208,-107.717 382.996,-114.411 393.59,-114.299 391.208,-107.717"/>
</g>
<!-- Node6&#45;&gt;Node3 -->
<g id="edge6" class="edge"><title>Node6&#45;&gt;Node3</title>
<path fill="none" stroke="midnightblue" d="M416.628,-144.61C388.778,-145.211 352.268,-145.276 320,-143 259.998,-138.767 244.77,-136.817 186,-124 174.11,-121.407 161.206,-117.745 150.122,-114.326"/>
<polygon fill="midnightblue" stroke="midnightblue" points="416.941,-148.104 426.852,-144.358 416.768,-141.106 416.941,-148.104"/>
</g>
<!-- Node8 -->
<g id="node8" class="node"><title>Node8</title>
<g id="a_node8"><a xlink:href="$navtree_8js.html#a0e6a2d65190a43246d668bba554243e5" xlink:title="gotoNode">
<polygon fill="white" stroke="black" points="534,-114.5 534,-133.5 593,-133.5 593,-114.5 534,-114.5"/>
<text text-anchor="middle" x="563.5" y="-121.5" font-family="Helvetica,sans-Serif" font-size="10.00">gotoNode</text>
</a>
</g>
</g>
<!-- Node7&#45;&gt;Node8 -->
<g id="edge8" class="edge"><title>Node7&#45;&gt;Node8</title>
<path fill="none" stroke="midnightblue" d="M498.058,-99.2646C511.055,-104.253 525.568,-109.824 537.526,-114.414"/>
<polygon fill="midnightblue" stroke="midnightblue" points="499.072,-95.905 488.482,-95.589 496.564,-102.44 499.072,-95.905"/>
</g>
<!-- Node9 -->
<g id="node9" class="node"><title>Node9</title>
<g id="a_node9"><a xlink:href="$navtree_8js.html#a21beb601032fff375100a907f32129a5" xlink:title="navTo">
<polygon fill="white" stroke="black" points="629,-114.5 629,-133.5 673,-133.5 673,-114.5 629,-114.5"/>
<text text-anchor="middle" x="651" y="-121.5" font-family="Helvetica,sans-Serif" font-size="10.00">navTo</text>
</a>
</g>
</g>
<!-- Node8&#45;&gt;Node9 -->
<g id="edge9" class="edge"><title>Node8&#45;&gt;Node9</title>
<path fill="none" stroke="midnightblue" d="M603.53,-117.273C612.277,-117.165 621.234,-117.438 628.92,-118.089"/>
<polygon fill="midnightblue" stroke="midnightblue" points="603.338,-113.777 593.446,-117.573 603.546,-120.774 603.338,-113.777"/>
</g>
<!-- Node9&#45;&gt;Node2 -->
<g id="edge11" class="edge"><title>Node9&#45;&gt;Node2</title>
<path fill="none" stroke="midnightblue" d="M682.745,-137.054C694.604,-142.089 707.923,-147.744 718.877,-152.395"/>
<polygon fill="midnightblue" stroke="midnightblue" points="683.783,-133.692 673.21,-133.005 681.047,-140.135 683.783,-133.692"/>
</g>
<!-- Node9&#45;&gt;Node8 -->
<g id="edge10" class="edge"><title>Node9&#45;&gt;Node8</title>
<path fill="none" stroke="midnightblue" d="M618.85,-130.524C610.551,-130.855 601.622,-130.822 593.446,-130.427"/>
<polygon fill="midnightblue" stroke="midnightblue" points="619.151,-134.012 628.92,-129.911 618.726,-127.025 619.151,-134.012"/>
</g>
<!-- Node10&#45;&gt;Node7 -->
<g id="edge14" class="edge"><title>Node10&#45;&gt;Node7</title>
<path fill="none" stroke="midnightblue" d="M294.32,-12.4019C324.166,-15.259 360.53,-21.3124 391,-34 415.149,-44.0557 438.673,-64.0727 451.51,-76.1262"/>
<polygon fill="midnightblue" stroke="midnightblue" points="294.319,-8.88894 284.056,-11.519 293.719,-15.8632 294.319,-8.88894"/>
</g>
</g>
</svg>
