<?xml version="1.0" encoding="UTF-8" standalone="no"?>
<!DOCTYPE svg PUBLIC "-//W3C//DTD SVG 1.1//EN"
 "http://www.w3.org/Graphics/SVG/1.1/DTD/svg11.dtd">
<!-- Generated by graphviz version 2.38.0 (20140413.2041)
 -->
<!-- Title: highlightAnchor Pages: 1 -->
<svg width="291pt" height="123pt"
 viewBox="0.00 0.00 291.00 123.00" xmlns="http://www.w3.org/2000/svg" xmlns:xlink="http://www.w3.org/1999/xlink">
<g id="graph0" class="graph" transform="scale(1 1) rotate(0) translate(4 119)">
<title>highlightAnchor</title>
<polygon fill="white" stroke="none" points="-4,4 -4,-119 287,-119 287,4 -4,4"/>
<!-- Node1 -->
<g id="node1" class="node"><title>Node1</title>
<polygon fill="#bfbfbf" stroke="black" points="0,-38.5 0,-57.5 83,-57.5 83,-38.5 0,-38.5"/>
<text text-anchor="middle" x="41.5" y="-45.5" font-family="Helvetica,sans-Serif" font-size="10.00">highlightAnchor</text>
</g>
<!-- Node2 -->
<g id="node2" class="node"><title>Node2</title>
<g id="a_node2"><a xlink:href="$navtree_8js.html#a23b68d2deb28f9c2678f546e2d60e5ee" xlink:title="glowEffect">
<polygon fill="white" stroke="black" points="120.5,-95.5 120.5,-114.5 183.5,-114.5 183.5,-95.5 120.5,-95.5"/>
<text text-anchor="middle" x="152" y="-102.5" font-family="Helvetica,sans-Serif" font-size="10.00">glowEffect</text>
</a>
</g>
</g>
<!-- Node1&#45;&gt;Node2 -->
<g id="edge1" class="edge"><title>Node1&#45;&gt;Node2</title>
<path fill="none" stroke="midnightblue" d="M60.9055,-57.6693C78.1555,-66.7315 104.157,-80.3914 123.8,-90.7108"/>
<polygon fill="midnightblue" stroke="midnightblue" points="122.386,-93.9212 132.866,-95.4735 125.641,-87.7243 122.386,-93.9212"/>
</g>
<!-- Node3 -->
<g id="node3" class="node"><title>Node3</title>
<g id="a_node3"><a xlink:href="$navtree_8js.html#aee1fc3771eeb15da54962a03da1f3c11" xlink:title="gotoAnchor">
<polygon fill="white" stroke="black" points="119,-57.5 119,-76.5 185,-76.5 185,-57.5 119,-57.5"/>
<text text-anchor="middle" x="152" y="-64.5" font-family="Helvetica,sans-Serif" font-size="10.00">gotoAnchor</text>
</a>
</g>
</g>
<!-- Node1&#45;&gt;Node3 -->
<g id="edge2" class="edge"><title>Node1&#45;&gt;Node3</title>
<path fill="none" stroke="midnightblue" d="M83.2101,-55.129C91.589,-56.5962 100.428,-58.1441 108.857,-59.6201"/>
<polygon fill="midnightblue" stroke="midnightblue" points="108.422,-63.097 118.875,-61.3745 109.629,-56.202 108.422,-63.097"/>
</g>
<!-- Node4 -->
<g id="node4" class="node"><title>Node4</title>
<g id="a_node4"><a xlink:href="$navtree_8js.html#a20695277530a1a04eef8d289177a5e40" xlink:title="hashUrl">
<polygon fill="white" stroke="black" points="127,-19.5 127,-38.5 177,-38.5 177,-19.5 127,-19.5"/>
<text text-anchor="middle" x="152" y="-26.5" font-family="Helvetica,sans-Serif" font-size="10.00">hashUrl</text>
</a>
</g>
</g>
<!-- Node1&#45;&gt;Node4 -->
<g id="edge3" class="edge"><title>Node1&#45;&gt;Node4</title>
<path fill="none" stroke="midnightblue" d="M83.2101,-40.871C94.2141,-38.9441 106.012,-36.878 116.631,-35.0185"/>
<polygon fill="midnightblue" stroke="midnightblue" points="117.537,-38.4132 126.783,-33.2407 116.33,-31.5181 117.537,-38.4132"/>
</g>
<!-- Node5 -->
<g id="node5" class="node"><title>Node5</title>
<g id="a_node5"><a xlink:href="$navtree_8js.html#aaeb20639619e1371c030d36a7109b27b" xlink:title="hashValue">
<polygon fill="white" stroke="black" points="221,-0.5 221,-19.5 283,-19.5 283,-0.5 221,-0.5"/>
<text text-anchor="middle" x="252" y="-7.5" font-family="Helvetica,sans-Serif" font-size="10.00">hashValue</text>
</a>
</g>
</g>
<!-- Node1&#45;&gt;Node5 -->
<g id="edge5" class="edge"><title>Node1&#45;&gt;Node5</title>
<path fill="none" stroke="midnightblue" d="M56.6829,-38.4385C71.4911,-29.0786 95.756,-15.4551 119,-10 149.233,-2.90464 184.446,-3.32104 210.895,-5.28474"/>
<polygon fill="midnightblue" stroke="midnightblue" points="210.673,-8.77836 220.932,-6.1346 211.263,-1.80331 210.673,-8.77836"/>
</g>
<!-- Node4&#45;&gt;Node5 -->
<g id="edge4" class="edge"><title>Node4&#45;&gt;Node5</title>
<path fill="none" stroke="midnightblue" d="M177.225,-24.3034C187.293,-22.3514 199.254,-20.0323 210.584,-17.8358"/>
<polygon fill="midnightblue" stroke="midnightblue" points="211.588,-21.2064 220.739,-15.867 210.255,-14.3344 211.588,-21.2064"/>
</g>
</g>
</svg>
