<?xml version="1.0" encoding="UTF-8" standalone="no"?>
<!DOCTYPE svg PUBLIC "-//W3C//DTD SVG 1.1//EN"
 "http://www.w3.org/Graphics/SVG/1.1/DTD/svg11.dtd">
<!-- Generated by graphviz version 2.38.0 (20140413.2041)
 -->
<!-- Title: showSyncOff Pages: 1 -->
<svg width="317pt" height="47pt"
 viewBox="0.00 0.00 317.00 47.00" xmlns="http://www.w3.org/2000/svg" xmlns:xlink="http://www.w3.org/1999/xlink">
<g id="graph0" class="graph" transform="scale(1 1) rotate(0) translate(4 43)">
<title>showSyncOff</title>
<polygon fill="white" stroke="none" points="-4,4 -4,-43 313,-43 313,4 -4,4"/>
<!-- Node1 -->
<g id="node1" class="node"><title>Node1</title>
<polygon fill="#bfbfbf" stroke="black" points="0,-19.5 0,-38.5 76,-38.5 76,-19.5 0,-19.5"/>
<text text-anchor="middle" x="38" y="-26.5" font-family="Helvetica,sans-Serif" font-size="10.00">showSyncOff</text>
</g>
<!-- Node2 -->
<g id="node2" class="node"><title>Node2</title>
<g id="a_node2"><a xlink:href="$navtree_8js.html#aa7b3067e7ef0044572ba86240b1e58ce" xlink:title="initNavTree">
<polygon fill="white" stroke="black" points="242,-19.5 242,-38.5 309,-38.5 309,-19.5 242,-19.5"/>
<text text-anchor="middle" x="275.5" y="-26.5" font-family="Helvetica,sans-Serif" font-size="10.00">initNavTree</text>
</a>
</g>
</g>
<!-- Node1&#45;&gt;Node2 -->
<g id="edge1" class="edge"><title>Node1&#45;&gt;Node2</title>
<path fill="none" stroke="midnightblue" d="M86.1126,-29C132.272,-29 201.406,-29 241.832,-29"/>
<polygon fill="midnightblue" stroke="midnightblue" points="86.056,-25.5001 76.0559,-29 86.0559,-32.5001 86.056,-25.5001"/>
</g>
<!-- Node3 -->
<g id="node3" class="node"><title>Node3</title>
<g id="a_node3"><a xlink:href="$navtree_8js.html#a646cb31d83b39aafec92e0e1d123563a" xlink:title="toggleSyncButton">
<polygon fill="white" stroke="black" points="112,-0.5 112,-19.5 206,-19.5 206,-0.5 112,-0.5"/>
<text text-anchor="middle" x="159" y="-7.5" font-family="Helvetica,sans-Serif" font-size="10.00">toggleSyncButton</text>
</a>
</g>
</g>
<!-- Node1&#45;&gt;Node3 -->
<g id="edge2" class="edge"><title>Node1&#45;&gt;Node3</title>
<path fill="none" stroke="midnightblue" d="M86.0927,-21.481C94.5491,-20.1308 103.355,-18.7248 111.787,-17.3786"/>
<polygon fill="midnightblue" stroke="midnightblue" points="85.3231,-18.0595 76,-23.0924 86.4268,-24.9719 85.3231,-18.0595"/>
</g>
<!-- Node3&#45;&gt;Node2 -->
<g id="edge3" class="edge"><title>Node3&#45;&gt;Node2</title>
<path fill="none" stroke="midnightblue" d="M216.121,-19.3126C224.924,-20.7734 233.763,-22.2401 241.804,-23.5744"/>
<polygon fill="midnightblue" stroke="midnightblue" points="216.68,-15.8576 206.241,-17.6733 215.534,-22.7631 216.68,-15.8576"/>
</g>
</g>
</svg>
