<?xml version="1.0" encoding="UTF-8" standalone="no"?>
<!DOCTYPE svg PUBLIC "-//W3C//DTD SVG 1.1//EN"
 "http://www.w3.org/Graphics/SVG/1.1/DTD/svg11.dtd">
<!-- Generated by graphviz version 2.38.0 (20140413.2041)
 -->
<!-- Title: navTo Pages: 1 -->
<svg width="155pt" height="66pt"
 viewBox="0.00 0.00 155.00 66.00" xmlns="http://www.w3.org/2000/svg" xmlns:xlink="http://www.w3.org/1999/xlink">
<g id="graph0" class="graph" transform="scale(1 1) rotate(0) translate(4 62)">
<title>navTo</title>
<polygon fill="white" stroke="none" points="-4,4 -4,-62 151,-62 151,4 -4,4"/>
<!-- Node1 -->
<g id="node1" class="node"><title>Node1</title>
<polygon fill="#bfbfbf" stroke="black" points="0,-38.5 0,-57.5 44,-57.5 44,-38.5 0,-38.5"/>
<text text-anchor="middle" x="22" y="-45.5" font-family="Helvetica,sans-Serif" font-size="10.00">navTo</text>
</g>
<!-- Node2 -->
<g id="node2" class="node"><title>Node2</title>
<g id="a_node2"><a xlink:href="$navtree_8js.html#a0e6a2d65190a43246d668bba554243e5" xlink:title="gotoNode">
<polygon fill="white" stroke="black" points="84,-38.5 84,-57.5 143,-57.5 143,-38.5 84,-38.5"/>
<text text-anchor="middle" x="113.5" y="-45.5" font-family="Helvetica,sans-Serif" font-size="10.00">gotoNode</text>
</a>
</g>
</g>
<!-- Node1&#45;&gt;Node2 -->
<g id="edge1" class="edge"><title>Node1&#45;&gt;Node2</title>
<path fill="none" stroke="midnightblue" d="M54.2433,-41.531C63.9148,-41.1169 74.5152,-41.1605 83.9914,-41.6617"/>
<polygon fill="midnightblue" stroke="midnightblue" points="53.9716,-38.0411 44.2103,-42.1601 54.4097,-45.0274 53.9716,-38.0411"/>
</g>
<!-- Node3 -->
<g id="node3" class="node"><title>Node3</title>
<g id="a_node3"><a xlink:href="$navtree_8js.html#aa7b3067e7ef0044572ba86240b1e58ce" xlink:title="initNavTree">
<polygon fill="white" stroke="black" points="80,-0.5 80,-19.5 147,-19.5 147,-0.5 80,-0.5"/>
<text text-anchor="middle" x="113.5" y="-7.5" font-family="Helvetica,sans-Serif" font-size="10.00">initNavTree</text>
</a>
</g>
</g>
<!-- Node1&#45;&gt;Node3 -->
<g id="edge3" class="edge"><title>Node1&#45;&gt;Node3</title>
<path fill="none" stroke="midnightblue" d="M53.7449,-34.9463C65.6041,-29.9111 78.9228,-24.2562 89.8774,-19.6051"/>
<polygon fill="midnightblue" stroke="midnightblue" points="52.0471,-31.8647 44.2103,-38.9945 54.7828,-38.308 52.0471,-31.8647"/>
</g>
<!-- Node2&#45;&gt;Node1 -->
<g id="edge2" class="edge"><title>Node2&#45;&gt;Node1</title>
<path fill="none" stroke="midnightblue" d="M73.6843,-54.697C63.5653,-54.8788 53.0343,-54.5931 44.2103,-53.8399"/>
<polygon fill="midnightblue" stroke="midnightblue" points="74.1192,-58.184 83.9914,-54.3383 73.8756,-51.1883 74.1192,-58.184"/>
</g>
</g>
</svg>
