<?xml version="1.0" encoding="UTF-8" standalone="no"?>
<!DOCTYPE svg PUBLIC "-//W3C//DTD SVG 1.1//EN"
 "http://www.w3.org/Graphics/SVG/1.1/DTD/svg11.dtd">
<!-- Generated by graphviz version 2.38.0 (20140413.2041)
 -->
<!-- Title: gotoNode Pages: 1 -->
<svg width="808pt" height="408pt"
 viewBox="0.00 0.00 808.00 408.00" xmlns="http://www.w3.org/2000/svg" xmlns:xlink="http://www.w3.org/1999/xlink">
<g id="graph0" class="graph" transform="scale(1 1) rotate(0) translate(4 404)">
<title>gotoNode</title>
<polygon fill="white" stroke="none" points="-4,4 -4,-404 804,-404 804,4 -4,4"/>
<!-- Node1 -->
<g id="node1" class="node"><title>Node1</title>
<polygon fill="#bfbfbf" stroke="black" points="0,-323.5 0,-342.5 59,-342.5 59,-323.5 0,-323.5"/>
<text text-anchor="middle" x="29.5" y="-330.5" font-family="Helvetica,sans-Serif" font-size="10.00">gotoNode</text>
</g>
<!-- Node2 -->
<g id="node2" class="node"><title>Node2</title>
<g id="a_node2"><a xlink:href="$navtree_8js.html#a21beb601032fff375100a907f32129a5" xlink:title="navTo">
<polygon fill="white" stroke="black" points="207.5,-323.5 207.5,-342.5 251.5,-342.5 251.5,-323.5 207.5,-323.5"/>
<text text-anchor="middle" x="229.5" y="-330.5" font-family="Helvetica,sans-Serif" font-size="10.00">navTo</text>
</a>
</g>
</g>
<!-- Node1&#45;&gt;Node2 -->
<g id="edge1" class="edge"><title>Node1&#45;&gt;Node2</title>
<path fill="none" stroke="midnightblue" d="M59.2909,-328.072C95.8981,-325.704 158.892,-325.644 196.826,-327.893"/>
<polygon fill="midnightblue" stroke="midnightblue" points="197.057,-331.418 207.278,-328.627 197.547,-324.435 197.057,-331.418"/>
</g>
<!-- Node9 -->
<g id="node9" class="node"><title>Node9</title>
<g id="a_node9"><a xlink:href="$navtree_8js.html#a0238ad48be94f9f5fd305ea40b8f64ab" xlink:title="showNode">
<polygon fill="white" stroke="black" points="95,-190.5 95,-209.5 158,-209.5 158,-190.5 95,-190.5"/>
<text text-anchor="middle" x="126.5" y="-197.5" font-family="Helvetica,sans-Serif" font-size="10.00">showNode</text>
</a>
</g>
</g>
<!-- Node1&#45;&gt;Node9 -->
<g id="edge9" class="edge"><title>Node1&#45;&gt;Node9</title>
<path fill="none" stroke="midnightblue" d="M37.3322,-323.435C53.0719,-301.399 92.0995,-246.761 112.542,-218.141"/>
<polygon fill="midnightblue" stroke="midnightblue" points="115.509,-220.009 118.473,-209.837 109.813,-215.94 115.509,-220.009"/>
</g>
<!-- Node2&#45;&gt;Node1 -->
<g id="edge5" class="edge"><title>Node2&#45;&gt;Node1</title>
<path fill="none" stroke="midnightblue" d="M207.278,-337.373C174.444,-340.107 110.822,-340.483 69.5311,-338.5"/>
<polygon fill="midnightblue" stroke="midnightblue" points="69.4704,-334.991 59.2909,-337.928 69.0803,-341.98 69.4704,-334.991"/>
</g>
<!-- Node3 -->
<g id="node3" class="node"><title>Node3</title>
<g id="a_node3"><a xlink:href="$navtree_8js.html#aaa2d293f55e5fe3620af4f9a2836e428" xlink:title="cachedLink">
<polygon fill="white" stroke="black" points="317,-380.5 317,-399.5 383,-399.5 383,-380.5 317,-380.5"/>
<text text-anchor="middle" x="350" y="-387.5" font-family="Helvetica,sans-Serif" font-size="10.00">cachedLink</text>
</a>
</g>
</g>
<!-- Node2&#45;&gt;Node3 -->
<g id="edge2" class="edge"><title>Node2&#45;&gt;Node3</title>
<path fill="none" stroke="midnightblue" d="M250.334,-342.541C269.389,-351.706 298.397,-365.659 320.035,-376.068"/>
<polygon fill="midnightblue" stroke="midnightblue" points="318.572,-379.248 329.101,-380.428 321.607,-372.939 318.572,-379.248"/>
</g>
<!-- Node5 -->
<g id="node5" class="node"><title>Node5</title>
<g id="a_node5"><a xlink:href="$navtree_8js.html#a23b68d2deb28f9c2678f546e2d60e5ee" xlink:title="glowEffect">
<polygon fill="white" stroke="black" points="582,-342.5 582,-361.5 645,-361.5 645,-342.5 582,-342.5"/>
<text text-anchor="middle" x="613.5" y="-349.5" font-family="Helvetica,sans-Serif" font-size="10.00">glowEffect</text>
</a>
</g>
</g>
<!-- Node2&#45;&gt;Node5 -->
<g id="edge4" class="edge"><title>Node2&#45;&gt;Node5</title>
<path fill="none" stroke="midnightblue" d="M251.582,-334.049C312.655,-337.086 490.489,-345.931 571.472,-349.959"/>
<polygon fill="midnightblue" stroke="midnightblue" points="571.613,-353.471 581.774,-350.472 571.961,-346.479 571.613,-353.471"/>
</g>
<!-- Node6 -->
<g id="node6" class="node"><title>Node6</title>
<g id="a_node6"><a xlink:href="$navtree_8js.html#a32f4aac18d03aee747b55dea195731ac" xlink:title="getScript">
<polygon fill="white" stroke="black" points="322,-171.5 322,-190.5 378,-190.5 378,-171.5 322,-171.5"/>
<text text-anchor="middle" x="350" y="-178.5" font-family="Helvetica,sans-Serif" font-size="10.00">getScript</text>
</a>
</g>
</g>
<!-- Node2&#45;&gt;Node6 -->
<g id="edge6" class="edge"><title>Node2&#45;&gt;Node6</title>
<path fill="none" stroke="midnightblue" d="M233.128,-323.168C240.095,-298.902 261.278,-235.558 301,-200 304.397,-196.959 308.34,-194.376 312.477,-192.189"/>
<polygon fill="midnightblue" stroke="midnightblue" points="314.041,-195.324 321.708,-188.012 311.155,-188.946 314.041,-195.324"/>
</g>
<!-- Node4 -->
<g id="node4" class="node"><title>Node4</title>
<g id="a_node4"><a xlink:href="$navtree_8js.html#ac49af616f532f2364be9f58280469d33" xlink:title="localStorageSupported">
<polygon fill="white" stroke="black" points="685,-351.5 685,-370.5 800,-370.5 800,-351.5 685,-351.5"/>
<text text-anchor="middle" x="742.5" y="-358.5" font-family="Helvetica,sans-Serif" font-size="10.00">localStorageSupported</text>
</a>
</g>
</g>
<!-- Node3&#45;&gt;Node4 -->
<g id="edge3" class="edge"><title>Node3&#45;&gt;Node4</title>
<path fill="none" stroke="midnightblue" d="M383.226,-388.411C437.925,-385.61 552.413,-379.296 649,-371 657.328,-370.285 666.069,-369.45 674.716,-368.573"/>
<polygon fill="midnightblue" stroke="midnightblue" points="675.207,-372.041 684.793,-367.529 674.485,-365.078 675.207,-372.041"/>
</g>
<!-- Node7 -->
<g id="node7" class="node"><title>Node7</title>
<g id="a_node7"><a xlink:href="$svgpan_8js.html#aa8d9f2083cafa2af98efafed94901079" xlink:title="Show the graph in the middle of the view, scaled to fit. ">
<polygon fill="white" stroke="black" points="468.5,-114.5 468.5,-133.5 508.5,-133.5 508.5,-114.5 468.5,-114.5"/>
<text text-anchor="middle" x="488.5" y="-121.5" font-family="Helvetica,sans-Serif" font-size="10.00">show</text>
</a>
</g>
</g>
<!-- Node6&#45;&gt;Node7 -->
<g id="edge7" class="edge"><title>Node6&#45;&gt;Node7</title>
<path fill="none" stroke="midnightblue" d="M370.838,-171.5C387.741,-163.532 412.758,-152.04 435,-143 442.703,-139.869 451.138,-136.703 458.951,-133.877"/>
<polygon fill="midnightblue" stroke="midnightblue" points="460.165,-137.16 468.411,-130.508 457.816,-130.566 460.165,-137.16"/>
</g>
<!-- Node8 -->
<g id="node8" class="node"><title>Node8</title>
<g id="a_node8"><a xlink:href="$navtree_8js.html#af98a8e3534da945399ea20870c0f3e92" xlink:title="showRoot">
<polygon fill="white" stroke="black" points="458,-152.5 458,-171.5 519,-171.5 519,-152.5 458,-152.5"/>
<text text-anchor="middle" x="488.5" y="-159.5" font-family="Helvetica,sans-Serif" font-size="10.00">showRoot</text>
</a>
</g>
</g>
<!-- Node6&#45;&gt;Node8 -->
<g id="edge8" class="edge"><title>Node6&#45;&gt;Node8</title>
<path fill="none" stroke="midnightblue" d="M378.295,-177.201C398.175,-174.433 425.413,-170.642 447.713,-167.538"/>
<polygon fill="midnightblue" stroke="midnightblue" points="448.465,-170.967 457.887,-166.122 447.5,-164.034 448.465,-170.967"/>
</g>
<!-- Node9&#45;&gt;Node6 -->
<g id="edge25" class="edge"><title>Node9&#45;&gt;Node6</title>
<path fill="none" stroke="midnightblue" d="M158.299,-197.358C198.492,-193.91 268.767,-187.882 311.863,-184.186"/>
<polygon fill="midnightblue" stroke="midnightblue" points="312.272,-187.663 321.937,-183.321 311.674,-180.689 312.272,-187.663"/>
</g>
<!-- Node10 -->
<g id="node10" class="node"><title>Node10</title>
<g id="a_node10"><a xlink:href="$navtree_8js.html#a4eb1f166c9d93b198e1621a4c787a412" xlink:title="expandNode">
<polygon fill="white" stroke="black" points="194,-114.5 194,-133.5 265,-133.5 265,-114.5 194,-114.5"/>
<text text-anchor="middle" x="229.5" y="-121.5" font-family="Helvetica,sans-Serif" font-size="10.00">expandNode</text>
</a>
</g>
</g>
<!-- Node9&#45;&gt;Node10 -->
<g id="edge10" class="edge"><title>Node9&#45;&gt;Node10</title>
<path fill="none" stroke="midnightblue" d="M140.292,-190.375C157.291,-177.583 187.535,-154.825 207.804,-139.573"/>
<polygon fill="midnightblue" stroke="midnightblue" points="209.926,-142.357 215.812,-133.547 205.717,-136.763 209.926,-142.357"/>
</g>
<!-- Node11 -->
<g id="node11" class="node"><title>Node11</title>
<g id="a_node11"><a xlink:href="$navtree_8js.html#a256aa4fbee866e9227f78e82e9f258bb" xlink:title="getNode">
<polygon fill="white" stroke="black" points="323.5,-0.5 323.5,-19.5 376.5,-19.5 376.5,-0.5 323.5,-0.5"/>
<text text-anchor="middle" x="350" y="-7.5" font-family="Helvetica,sans-Serif" font-size="10.00">getNode</text>
</a>
</g>
</g>
<!-- Node9&#45;&gt;Node11 -->
<g id="edge24" class="edge"><title>Node9&#45;&gt;Node11</title>
<path fill="none" stroke="midnightblue" d="M132.702,-190.217C142.758,-171.933 166.329,-131.99 194,-105 231.117,-68.7949 284.428,-39.9348 317.863,-23.9027"/>
<polygon fill="midnightblue" stroke="midnightblue" points="319.589,-26.9587 327.148,-19.5353 316.61,-20.6244 319.589,-26.9587"/>
</g>
<!-- Node17 -->
<g id="node17" class="node"><title>Node17</title>
<g id="a_node17"><a xlink:href="$navtree_8js.html#a9336c21407bb7ced644331eb7a2a6e35" xlink:title="stripPath">
<polygon fill="white" stroke="black" points="585.5,-190.5 585.5,-209.5 641.5,-209.5 641.5,-190.5 585.5,-190.5"/>
<text text-anchor="middle" x="613.5" y="-197.5" font-family="Helvetica,sans-Serif" font-size="10.00">stripPath</text>
</a>
</g>
</g>
<!-- Node9&#45;&gt;Node17 -->
<g id="edge36" class="edge"><title>Node9&#45;&gt;Node17</title>
<path fill="none" stroke="midnightblue" d="M151.485,-209.557C163.986,-214.215 179.629,-219.542 194,-223 344.414,-259.193 391.423,-266.509 542,-231 557.244,-227.405 573.299,-220.609 586.23,-214.295"/>
<polygon fill="midnightblue" stroke="midnightblue" points="588.11,-217.266 595.445,-209.621 584.944,-211.023 588.11,-217.266"/>
</g>
<!-- Node19 -->
<g id="node19" class="node"><title>Node19</title>
<g id="a_node19"><a xlink:href="$navtree_8js.html#a0dbf0d5f6126afd88420745f7d3c202d" xlink:title="selectAndHighlight">
<polygon fill="white" stroke="black" points="301,-209.5 301,-228.5 399,-228.5 399,-209.5 301,-209.5"/>
<text text-anchor="middle" x="350" y="-216.5" font-family="Helvetica,sans-Serif" font-size="10.00">selectAndHighlight</text>
</a>
</g>
</g>
<!-- Node9&#45;&gt;Node19 -->
<g id="edge26" class="edge"><title>Node9&#45;&gt;Node19</title>
<path fill="none" stroke="midnightblue" d="M158.299,-202.642C192.452,-205.571 248.325,-210.364 290.787,-214.007"/>
<polygon fill="midnightblue" stroke="midnightblue" points="290.735,-217.515 300.997,-214.882 291.333,-210.54 290.735,-217.515"/>
</g>
<!-- Node10&#45;&gt;Node6 -->
<g id="edge21" class="edge"><title>Node10&#45;&gt;Node6</title>
<path fill="none" stroke="midnightblue" d="M250.334,-133.541C269.389,-142.706 298.397,-156.659 320.035,-167.068"/>
<polygon fill="midnightblue" stroke="midnightblue" points="318.572,-170.248 329.101,-171.428 321.607,-163.939 318.572,-170.248"/>
</g>
<!-- Node10&#45;&gt;Node7 -->
<g id="edge22" class="edge"><title>Node10&#45;&gt;Node7</title>
<path fill="none" stroke="midnightblue" d="M265.16,-124C316.131,-124 410.416,-124 458.16,-124"/>
<polygon fill="midnightblue" stroke="midnightblue" points="458.428,-127.5 468.428,-124 458.428,-120.5 458.428,-127.5"/>
</g>
<!-- Node10&#45;&gt;Node8 -->
<g id="edge23" class="edge"><title>Node10&#45;&gt;Node8</title>
<path fill="none" stroke="midnightblue" d="M265.16,-129.125C312.616,-136.142 397.617,-148.71 447.647,-156.107"/>
<polygon fill="midnightblue" stroke="midnightblue" points="447.361,-159.603 457.766,-157.604 448.385,-152.678 447.361,-159.603"/>
</g>
<!-- Node10&#45;&gt;Node11 -->
<g id="edge11" class="edge"><title>Node10&#45;&gt;Node11</title>
<path fill="none" stroke="midnightblue" d="M235.982,-114.458C246.588,-96.6797 271.488,-58.1094 301,-34 305.419,-30.3897 310.472,-27.1331 315.601,-24.2676"/>
<polygon fill="midnightblue" stroke="midnightblue" points="317.504,-27.225 324.798,-19.5403 314.304,-20.9994 317.504,-27.225"/>
</g>
<!-- Node12 -->
<g id="node12" class="node"><title>Node12</title>
<g id="a_node12"><a xlink:href="$navtree_8js.html#aa2418b16159e9502e990f97ea6ec26c8" xlink:title="newNode">
<polygon fill="white" stroke="black" points="459.5,-76.5 459.5,-95.5 517.5,-95.5 517.5,-76.5 459.5,-76.5"/>
<text text-anchor="middle" x="488.5" y="-83.5" font-family="Helvetica,sans-Serif" font-size="10.00">newNode</text>
</a>
</g>
</g>
<!-- Node11&#45;&gt;Node12 -->
<g id="edge12" class="edge"><title>Node11&#45;&gt;Node12</title>
<path fill="none" stroke="midnightblue" d="M368.288,-19.6255C391.775,-32.7025 433.97,-56.1957 461.343,-71.4366"/>
<polygon fill="midnightblue" stroke="midnightblue" points="459.913,-74.646 470.353,-76.4527 463.318,-68.5301 459.913,-74.646"/>
</g>
<!-- Node18 -->
<g id="node18" class="node"><title>Node18</title>
<g id="a_node18"><a xlink:href="$navtree_8js.html#aa78016020f40c28356aefd325cd4df74" xlink:title="removeToInsertLater">
<polygon fill="white" stroke="black" points="435,-0.5 435,-19.5 542,-19.5 542,-0.5 435,-0.5"/>
<text text-anchor="middle" x="488.5" y="-7.5" font-family="Helvetica,sans-Serif" font-size="10.00">removeToInsertLater</text>
</a>
</g>
</g>
<!-- Node11&#45;&gt;Node18 -->
<g id="edge20" class="edge"><title>Node11&#45;&gt;Node18</title>
<path fill="none" stroke="midnightblue" d="M376.675,-10C390.233,-10 407.524,-10 424.393,-10"/>
<polygon fill="midnightblue" stroke="midnightblue" points="424.805,-13.5001 434.805,-10 424.805,-6.5001 424.805,-13.5001"/>
</g>
<!-- Node13 -->
<g id="node13" class="node"><title>Node13</title>
<g id="a_node13"><a xlink:href="$navtree_8js.html#a4d8f406d49520a0cede2e48347a3d7aa" xlink:title="createIndent">
<polygon fill="white" stroke="black" points="578,-43.5 578,-62.5 649,-62.5 649,-43.5 578,-43.5"/>
<text text-anchor="middle" x="613.5" y="-50.5" font-family="Helvetica,sans-Serif" font-size="10.00">createIndent</text>
</a>
</g>
</g>
<!-- Node12&#45;&gt;Node13 -->
<g id="edge13" class="edge"><title>Node12&#45;&gt;Node13</title>
<path fill="none" stroke="midnightblue" d="M517.719,-78.4291C532.52,-74.4581 551.002,-69.4996 567.705,-65.0183"/>
<polygon fill="midnightblue" stroke="midnightblue" points="569.074,-68.2746 577.826,-62.3028 567.26,-61.5137 569.074,-68.2746"/>
</g>
<!-- Node14 -->
<g id="node14" class="node"><title>Node14</title>
<g id="a_node14"><a xlink:href="$navtree_8js.html#aee1fc3771eeb15da54962a03da1f3c11" xlink:title="gotoAnchor">
<polygon fill="white" stroke="black" points="580.5,-228.5 580.5,-247.5 646.5,-247.5 646.5,-228.5 580.5,-228.5"/>
<text text-anchor="middle" x="613.5" y="-235.5" font-family="Helvetica,sans-Serif" font-size="10.00">gotoAnchor</text>
</a>
</g>
</g>
<!-- Node12&#45;&gt;Node14 -->
<g id="edge15" class="edge"><title>Node12&#45;&gt;Node14</title>
<path fill="none" stroke="midnightblue" d="M517.566,-91.0322C526.377,-93.8445 535.49,-98.2155 542,-105 578.786,-143.34 544.317,-177.908 578,-219 578.948,-220.157 579.986,-221.255 581.092,-222.295"/>
<polygon fill="midnightblue" stroke="midnightblue" points="579.039,-225.13 589.133,-228.347 583.248,-219.537 579.039,-225.13"/>
</g>
<!-- Node15 -->
<g id="node15" class="node"><title>Node15</title>
<g id="a_node15"><a xlink:href="$navtree_8js.html#a364b3f4132309fa9aae78585cf2cb772" xlink:title="pathName">
<polygon fill="white" stroke="black" points="582.5,-143.5 582.5,-162.5 644.5,-162.5 644.5,-143.5 582.5,-143.5"/>
<text text-anchor="middle" x="613.5" y="-150.5" font-family="Helvetica,sans-Serif" font-size="10.00">pathName</text>
</a>
</g>
</g>
<!-- Node12&#45;&gt;Node15 -->
<g id="edge16" class="edge"><title>Node12&#45;&gt;Node15</title>
<path fill="none" stroke="midnightblue" d="M517.569,-94.695C525.632,-97.5811 534.318,-101.074 542,-105 559.738,-114.066 578.302,-126.859 591.926,-136.959"/>
<polygon fill="midnightblue" stroke="midnightblue" points="590.018,-139.904 600.107,-143.14 594.238,-134.319 590.018,-139.904"/>
</g>
<!-- Node16 -->
<g id="node16" class="node"><title>Node16</title>
<g id="a_node16"><a xlink:href="$navtree_8js.html#ade730323aadb971c053136b7758c9dce" xlink:title="storeLink">
<polygon fill="white" stroke="black" points="585.5,-86.5 585.5,-105.5 641.5,-105.5 641.5,-86.5 585.5,-86.5"/>
<text text-anchor="middle" x="613.5" y="-93.5" font-family="Helvetica,sans-Serif" font-size="10.00">storeLink</text>
</a>
</g>
</g>
<!-- Node12&#45;&gt;Node16 -->
<g id="edge17" class="edge"><title>Node12&#45;&gt;Node16</title>
<path fill="none" stroke="midnightblue" d="M517.719,-88.2942C534.755,-89.6792 556.666,-91.4607 575.13,-92.9618"/>
<polygon fill="midnightblue" stroke="midnightblue" points="575.008,-96.4633 585.258,-93.7852 575.575,-89.4863 575.008,-96.4633"/>
</g>
<!-- Node12&#45;&gt;Node17 -->
<g id="edge19" class="edge"><title>Node12&#45;&gt;Node17</title>
<path fill="none" stroke="midnightblue" d="M517.68,-92.0404C526.195,-94.8997 535.105,-99.0436 542,-105 567.581,-127.098 556.455,-145.951 578,-172 581.535,-176.274 585.806,-180.357 590.121,-184.017"/>
<polygon fill="midnightblue" stroke="midnightblue" points="588.275,-187.02 598.29,-190.477 592.617,-181.529 588.275,-187.02"/>
</g>
<!-- Node13&#45;&gt;Node10 -->
<g id="edge14" class="edge"><title>Node13&#45;&gt;Node10</title>
<path fill="none" stroke="midnightblue" d="M577.891,-53.7561C541.934,-55.0014 484.158,-58.2948 435,-67 375.614,-77.5165 308.595,-97.8771 267.963,-111.201"/>
<polygon fill="midnightblue" stroke="midnightblue" points="266.615,-107.96 258.222,-114.426 268.816,-114.605 266.615,-107.96"/>
</g>
<!-- Node16&#45;&gt;Node4 -->
<g id="edge18" class="edge"><title>Node16&#45;&gt;Node4</title>
<path fill="none" stroke="midnightblue" d="M626.202,-105.78C633.868,-112.837 643.461,-123.022 649,-134 685.75,-206.838 643.253,-243.906 685,-314 692.648,-326.841 705.127,-337.772 716.414,-345.851"/>
<polygon fill="midnightblue" stroke="midnightblue" points="714.468,-348.76 724.714,-351.458 718.387,-342.96 714.468,-348.76"/>
</g>
<!-- Node19&#45;&gt;Node8 -->
<g id="edge34" class="edge"><title>Node19&#45;&gt;Node8</title>
<path fill="none" stroke="midnightblue" d="M375.473,-209.469C383.035,-206.482 391.378,-203.144 399,-200 418.124,-192.111 439.433,-182.972 456.349,-175.634"/>
<polygon fill="midnightblue" stroke="midnightblue" points="457.977,-178.743 465.752,-171.544 455.185,-172.323 457.977,-178.743"/>
</g>
<!-- Node19&#45;&gt;Node15 -->
<g id="edge33" class="edge"><title>Node19&#45;&gt;Node15</title>
<path fill="none" stroke="midnightblue" d="M399.072,-211.921C438.053,-205.59 494.174,-195.127 542,-181 555.354,-177.055 569.704,-171.593 581.948,-166.539"/>
<polygon fill="midnightblue" stroke="midnightblue" points="583.405,-169.723 591.258,-162.61 580.684,-163.274 583.405,-169.723"/>
</g>
<!-- Node19&#45;&gt;Node17 -->
<g id="edge35" class="edge"><title>Node19&#45;&gt;Node17</title>
<path fill="none" stroke="midnightblue" d="M399.036,-219.993C437.755,-220.252 493.539,-219.406 542,-214 552.902,-212.784 564.629,-210.752 575.33,-208.608"/>
<polygon fill="midnightblue" stroke="midnightblue" points="576.143,-212.014 585.215,-206.542 574.71,-205.162 576.143,-212.014"/>
</g>
<!-- Node20 -->
<g id="node20" class="node"><title>Node20</title>
<g id="a_node20"><a xlink:href="$navtree_8js.html#a524fa9bfd80c70bf3a84696b2077eadb" xlink:title="highlightAnchor">
<polygon fill="white" stroke="black" points="447,-304.5 447,-323.5 530,-323.5 530,-304.5 447,-304.5"/>
<text text-anchor="middle" x="488.5" y="-311.5" font-family="Helvetica,sans-Serif" font-size="10.00">highlightAnchor</text>
</a>
</g>
</g>
<!-- Node19&#45;&gt;Node20 -->
<g id="edge27" class="edge"><title>Node19&#45;&gt;Node20</title>
<path fill="none" stroke="midnightblue" d="M364.84,-228.632C388.447,-245.062 436.7,-278.645 465.142,-298.439"/>
<polygon fill="midnightblue" stroke="midnightblue" points="463.417,-301.503 473.624,-304.343 467.415,-295.757 463.417,-301.503"/>
</g>
<!-- Node20&#45;&gt;Node5 -->
<g id="edge28" class="edge"><title>Node20&#45;&gt;Node5</title>
<path fill="none" stroke="midnightblue" d="M520.538,-323.589C536.244,-328.441 555.496,-334.389 572.319,-339.586"/>
<polygon fill="midnightblue" stroke="midnightblue" points="571.31,-342.938 581.898,-342.546 573.377,-336.25 571.31,-342.938"/>
</g>
<!-- Node20&#45;&gt;Node14 -->
<g id="edge29" class="edge"><title>Node20&#45;&gt;Node14</title>
<path fill="none" stroke="midnightblue" d="M513.356,-304.494C522.552,-300.472 533.001,-295.454 542,-290 559.334,-279.493 561.674,-274.014 578,-262 581.805,-259.2 585.892,-256.281 589.876,-253.482"/>
<polygon fill="midnightblue" stroke="midnightblue" points="592.066,-256.222 598.28,-247.641 588.071,-250.474 592.066,-256.222"/>
</g>
<!-- Node21 -->
<g id="node21" class="node"><title>Node21</title>
<g id="a_node21"><a xlink:href="$navtree_8js.html#a20695277530a1a04eef8d289177a5e40" xlink:title="hashUrl">
<polygon fill="white" stroke="black" points="588.5,-304.5 588.5,-323.5 638.5,-323.5 638.5,-304.5 588.5,-304.5"/>
<text text-anchor="middle" x="613.5" y="-311.5" font-family="Helvetica,sans-Serif" font-size="10.00">hashUrl</text>
</a>
</g>
</g>
<!-- Node20&#45;&gt;Node21 -->
<g id="edge30" class="edge"><title>Node20&#45;&gt;Node21</title>
<path fill="none" stroke="midnightblue" d="M530.116,-314C545.657,-314 563.217,-314 578.12,-314"/>
<polygon fill="midnightblue" stroke="midnightblue" points="578.435,-317.5 588.435,-314 578.435,-310.5 578.435,-317.5"/>
</g>
<!-- Node22 -->
<g id="node22" class="node"><title>Node22</title>
<g id="a_node22"><a xlink:href="$navtree_8js.html#aaeb20639619e1371c030d36a7109b27b" xlink:title="hashValue">
<polygon fill="white" stroke="black" points="711.5,-285.5 711.5,-304.5 773.5,-304.5 773.5,-285.5 711.5,-285.5"/>
<text text-anchor="middle" x="742.5" y="-292.5" font-family="Helvetica,sans-Serif" font-size="10.00">hashValue</text>
</a>
</g>
</g>
<!-- Node20&#45;&gt;Node22 -->
<g id="edge32" class="edge"><title>Node20&#45;&gt;Node22</title>
<path fill="none" stroke="midnightblue" d="M525.39,-304.491C541.371,-300.727 560.498,-296.858 578,-295 619.771,-290.567 667.885,-291.259 701.049,-292.632"/>
<polygon fill="midnightblue" stroke="midnightblue" points="701.116,-296.139 711.265,-293.096 701.434,-289.146 701.116,-296.139"/>
</g>
<!-- Node21&#45;&gt;Node22 -->
<g id="edge31" class="edge"><title>Node21&#45;&gt;Node22</title>
<path fill="none" stroke="midnightblue" d="M638.687,-310.382C656.295,-307.747 680.552,-304.118 701.083,-301.047"/>
<polygon fill="midnightblue" stroke="midnightblue" points="701.747,-304.486 711.119,-299.545 700.712,-297.563 701.747,-304.486"/>
</g>
</g>
</svg>
