<?xml version="1.0" encoding="UTF-8" standalone="no"?>
<!DOCTYPE svg PUBLIC "-//W3C//DTD SVG 1.1//EN"
 "http://www.w3.org/Graphics/SVG/1.1/DTD/svg11.dtd">
<!-- Generated by graphviz version 2.38.0 (20140413.2041)
 -->
<!-- Title: getScript Pages: 1 -->
<svg width="838pt" height="130pt"
 viewBox="0.00 0.00 838.00 129.66" xmlns="http://www.w3.org/2000/svg" xmlns:xlink="http://www.w3.org/1999/xlink">
<g id="graph0" class="graph" transform="scale(1 1) rotate(0) translate(4 125.663)">
<title>getScript</title>
<polygon fill="white" stroke="none" points="-4,4 -4,-125.663 834,-125.663 834,4 -4,4"/>
<!-- Node1 -->
<g id="node1" class="node"><title>Node1</title>
<polygon fill="#bfbfbf" stroke="black" points="0,-28.5 0,-47.5 56,-47.5 56,-28.5 0,-28.5"/>
<text text-anchor="middle" x="28" y="-35.5" font-family="Helvetica,sans-Serif" font-size="10.00">getScript</text>
</g>
<!-- Node2 -->
<g id="node2" class="node"><title>Node2</title>
<g id="a_node2"><a xlink:href="$navtree_8js.html#a4eb1f166c9d93b198e1621a4c787a412" xlink:title="expandNode">
<polygon fill="white" stroke="black" points="92,-66.5 92,-85.5 163,-85.5 163,-66.5 92,-66.5"/>
<text text-anchor="middle" x="127.5" y="-73.5" font-family="Helvetica,sans-Serif" font-size="10.00">expandNode</text>
</a>
</g>
</g>
<!-- Node1&#45;&gt;Node2 -->
<g id="edge1" class="edge"><title>Node1&#45;&gt;Node2</title>
<path fill="none" stroke="midnightblue" d="M63.0341,-51.2646C75.8341,-56.2533 90.1276,-61.8241 101.905,-66.4141"/>
<polygon fill="midnightblue" stroke="midnightblue" points="64.1917,-47.9594 53.6034,-47.589 61.6497,-54.4815 64.1917,-47.9594"/>
</g>
<!-- Node6 -->
<g id="node6" class="node"><title>Node6</title>
<g id="a_node6"><a xlink:href="$navtree_8js.html#a0238ad48be94f9f5fd305ea40b8f64ab" xlink:title="showNode">
<polygon fill="white" stroke="black" points="489,-47.5 489,-66.5 552,-66.5 552,-47.5 489,-47.5"/>
<text text-anchor="middle" x="520.5" y="-54.5" font-family="Helvetica,sans-Serif" font-size="10.00">showNode</text>
</a>
</g>
</g>
<!-- Node1&#45;&gt;Node6 -->
<g id="edge13" class="edge"><title>Node1&#45;&gt;Node6</title>
<path fill="none" stroke="midnightblue" d="M66.1925,-38C107.175,-38 175.038,-38 233.5,-38 233.5,-38 233.5,-38 336,-38 389.967,-38 452.39,-46.2314 488.756,-51.8583"/>
<polygon fill="midnightblue" stroke="midnightblue" points="66.1252,-34.5001 56.1251,-38 66.1251,-41.5001 66.1252,-34.5001"/>
</g>
<!-- Node8 -->
<g id="node8" class="node"><title>Node8</title>
<g id="a_node8"><a xlink:href="$navtree_8js.html#a21beb601032fff375100a907f32129a5" xlink:title="navTo">
<polygon fill="white" stroke="black" points="683,-37.5 683,-56.5 727,-56.5 727,-37.5 683,-37.5"/>
<text text-anchor="middle" x="705" y="-44.5" font-family="Helvetica,sans-Serif" font-size="10.00">navTo</text>
</a>
</g>
</g>
<!-- Node1&#45;&gt;Node8 -->
<g id="edge12" class="edge"><title>Node1&#45;&gt;Node8</title>
<path fill="none" stroke="midnightblue" d="M65.8928,-26.9179C106.552,-15.7009 174.077,-0 233.5,-0 233.5,-0 233.5,-0 521.5,-0 581.537,-7.10543e-15 649.274,-24.1485 682.825,-37.8264"/>
<polygon fill="midnightblue" stroke="midnightblue" points="64.8322,-23.5803 56.1559,-29.6607 66.7303,-30.3181 64.8322,-23.5803"/>
</g>
<!-- Node3 -->
<g id="node3" class="node"><title>Node3</title>
<g id="a_node3"><a xlink:href="$navtree_8js.html#a4d8f406d49520a0cede2e48347a3d7aa" xlink:title="createIndent">
<polygon fill="white" stroke="black" points="199,-66.5 199,-85.5 270,-85.5 270,-66.5 199,-66.5"/>
<text text-anchor="middle" x="234.5" y="-73.5" font-family="Helvetica,sans-Serif" font-size="10.00">createIndent</text>
</a>
</g>
</g>
<!-- Node2&#45;&gt;Node3 -->
<g id="edge2" class="edge"><title>Node2&#45;&gt;Node3</title>
<path fill="none" stroke="midnightblue" d="M173.378,-76C181.908,-76 190.713,-76 198.864,-76"/>
<polygon fill="midnightblue" stroke="midnightblue" points="173.172,-72.5001 163.172,-76 173.172,-79.5001 173.172,-72.5001"/>
</g>
<!-- Node2&#45;&gt;Node6 -->
<g id="edge11" class="edge"><title>Node2&#45;&gt;Node6</title>
<path fill="none" stroke="midnightblue" d="M150.805,-90.8444C164.169,-98.8331 181.847,-107.874 199,-112 270.3,-129.151 290.993,-118.91 364,-112 404.092,-108.205 415.226,-108.958 453,-95 472.458,-87.8103 492.895,-75.2722 505.893,-66.5739"/>
<polygon fill="midnightblue" stroke="midnightblue" points="152.643,-87.8654 142.303,-85.5551 148.945,-93.8092 152.643,-87.8654"/>
</g>
<!-- Node4 -->
<g id="node4" class="node"><title>Node4</title>
<g id="a_node4"><a xlink:href="$navtree_8js.html#aa2418b16159e9502e990f97ea6ec26c8" xlink:title="newNode">
<polygon fill="white" stroke="black" points="306,-66.5 306,-85.5 364,-85.5 364,-66.5 306,-66.5"/>
<text text-anchor="middle" x="335" y="-73.5" font-family="Helvetica,sans-Serif" font-size="10.00">newNode</text>
</a>
</g>
</g>
<!-- Node3&#45;&gt;Node4 -->
<g id="edge3" class="edge"><title>Node3&#45;&gt;Node4</title>
<path fill="none" stroke="midnightblue" d="M280.258,-76C288.931,-76 297.792,-76 305.752,-76"/>
<polygon fill="midnightblue" stroke="midnightblue" points="280.227,-72.5001 270.227,-76 280.227,-79.5001 280.227,-72.5001"/>
</g>
<!-- Node5 -->
<g id="node5" class="node"><title>Node5</title>
<g id="a_node5"><a xlink:href="$navtree_8js.html#a256aa4fbee866e9227f78e82e9f258bb" xlink:title="getNode">
<polygon fill="white" stroke="black" points="400,-66.5 400,-85.5 453,-85.5 453,-66.5 400,-66.5"/>
<text text-anchor="middle" x="426.5" y="-73.5" font-family="Helvetica,sans-Serif" font-size="10.00">getNode</text>
</a>
</g>
</g>
<!-- Node4&#45;&gt;Node5 -->
<g id="edge4" class="edge"><title>Node4&#45;&gt;Node5</title>
<path fill="none" stroke="midnightblue" d="M374.503,-76C383.05,-76 391.906,-76 399.793,-76"/>
<polygon fill="midnightblue" stroke="midnightblue" points="374.318,-72.5001 364.318,-76 374.318,-79.5001 374.318,-72.5001"/>
</g>
<!-- Node5&#45;&gt;Node2 -->
<g id="edge5" class="edge"><title>Node5&#45;&gt;Node2</title>
<path fill="none" stroke="midnightblue" d="M390.728,-88.7225C382.11,-91.3226 372.816,-93.6693 364,-95 291.488,-105.946 271.699,-104.625 199,-95 184.925,-93.1367 169.672,-89.267 156.965,-85.5033"/>
<polygon fill="midnightblue" stroke="midnightblue" points="392.012,-91.9865 400.465,-85.5995 389.874,-85.3209 392.012,-91.9865"/>
</g>
<!-- Node5&#45;&gt;Node6 -->
<g id="edge6" class="edge"><title>Node5&#45;&gt;Node6</title>
<path fill="none" stroke="midnightblue" d="M463.128,-68.642C471.596,-66.8932 480.559,-65.0422 488.785,-63.3432"/>
<polygon fill="midnightblue" stroke="midnightblue" points="462.213,-65.2572 453.127,-70.7074 463.628,-72.1125 462.213,-65.2572"/>
</g>
<!-- Node7 -->
<g id="node7" class="node"><title>Node7</title>
<g id="a_node7"><a xlink:href="$navtree_8js.html#a0e6a2d65190a43246d668bba554243e5" xlink:title="gotoNode">
<polygon fill="white" stroke="black" points="588,-37.5 588,-56.5 647,-56.5 647,-37.5 588,-37.5"/>
<text text-anchor="middle" x="617.5" y="-44.5" font-family="Helvetica,sans-Serif" font-size="10.00">gotoNode</text>
</a>
</g>
</g>
<!-- Node6&#45;&gt;Node7 -->
<g id="edge7" class="edge"><title>Node6&#45;&gt;Node7</title>
<path fill="none" stroke="midnightblue" d="M562.073,-52.7291C570.77,-51.8137 579.783,-50.865 587.912,-50.0092"/>
<polygon fill="midnightblue" stroke="midnightblue" points="561.66,-49.2532 552.082,-53.7809 562.393,-56.2147 561.66,-49.2532"/>
</g>
<!-- Node7&#45;&gt;Node8 -->
<g id="edge8" class="edge"><title>Node7&#45;&gt;Node8</title>
<path fill="none" stroke="midnightblue" d="M657.53,-40.2728C666.277,-40.1655 675.234,-40.4375 682.92,-41.0889"/>
<polygon fill="midnightblue" stroke="midnightblue" points="657.338,-36.7768 647.446,-40.573 657.546,-43.7737 657.338,-36.7768"/>
</g>
<!-- Node8&#45;&gt;Node7 -->
<g id="edge9" class="edge"><title>Node8&#45;&gt;Node7</title>
<path fill="none" stroke="midnightblue" d="M672.85,-53.5241C664.551,-53.8548 655.622,-53.8224 647.446,-53.427"/>
<polygon fill="midnightblue" stroke="midnightblue" points="673.151,-57.0123 682.92,-52.9111 672.726,-50.0253 673.151,-57.0123"/>
</g>
<!-- Node9 -->
<g id="node9" class="node"><title>Node9</title>
<g id="a_node9"><a xlink:href="$navtree_8js.html#aa7b3067e7ef0044572ba86240b1e58ce" xlink:title="initNavTree">
<polygon fill="white" stroke="black" points="763,-37.5 763,-56.5 830,-56.5 830,-37.5 763,-37.5"/>
<text text-anchor="middle" x="796.5" y="-44.5" font-family="Helvetica,sans-Serif" font-size="10.00">initNavTree</text>
</a>
</g>
</g>
<!-- Node8&#45;&gt;Node9 -->
<g id="edge10" class="edge"><title>Node8&#45;&gt;Node9</title>
<path fill="none" stroke="midnightblue" d="M737.254,-47C745.548,-47 754.525,-47 762.89,-47"/>
<polygon fill="midnightblue" stroke="midnightblue" points="737.21,-43.5001 727.21,-47 737.21,-50.5001 737.21,-43.5001"/>
</g>
</g>
</svg>
