<?xml version="1.0" encoding="UTF-8" standalone="no"?>
<!DOCTYPE svg PUBLIC "-//W3C//DTD SVG 1.1//EN"
 "http://www.w3.org/Graphics/SVG/1.1/DTD/svg11.dtd">
<!-- Generated by graphviz version 2.38.0 (20140413.2041)
 -->
<!-- Title: hashValue Pages: 1 -->
<svg width="786pt" height="132pt"
 viewBox="0.00 0.00 786.00 132.00" xmlns="http://www.w3.org/2000/svg" xmlns:xlink="http://www.w3.org/1999/xlink">
<g id="graph0" class="graph" transform="scale(1 1) rotate(0) translate(4 128)">
<title>hashValue</title>
<polygon fill="white" stroke="none" points="-4,4 -4,-128 782,-128 782,4 -4,4"/>
<!-- Node1 -->
<g id="node1" class="node"><title>Node1</title>
<polygon fill="#bfbfbf" stroke="black" points="0,-66.5 0,-85.5 62,-85.5 62,-66.5 0,-66.5"/>
<text text-anchor="middle" x="31" y="-73.5" font-family="Helvetica,sans-Serif" font-size="10.00">hashValue</text>
</g>
<!-- Node2 -->
<g id="node2" class="node"><title>Node2</title>
<g id="a_node2"><a xlink:href="$navtree_8js.html#a20695277530a1a04eef8d289177a5e40" xlink:title="hashUrl">
<polygon fill="white" stroke="black" points="98,-66.5 98,-85.5 148,-85.5 148,-66.5 98,-66.5"/>
<text text-anchor="middle" x="123" y="-73.5" font-family="Helvetica,sans-Serif" font-size="10.00">hashUrl</text>
</a>
</g>
</g>
<!-- Node1&#45;&gt;Node2 -->
<g id="edge1" class="edge"><title>Node1&#45;&gt;Node2</title>
<path fill="none" stroke="midnightblue" d="M72.7367,-76C81.3076,-76 90.0866,-76 97.8151,-76"/>
<polygon fill="midnightblue" stroke="midnightblue" points="72.4699,-72.5001 62.4699,-76 72.4699,-79.5001 72.4699,-72.5001"/>
</g>
<!-- Node3 -->
<g id="node3" class="node"><title>Node3</title>
<g id="a_node3"><a xlink:href="$navtree_8js.html#a524fa9bfd80c70bf3a84696b2077eadb" xlink:title="highlightAnchor">
<polygon fill="white" stroke="black" points="184,-104.5 184,-123.5 267,-123.5 267,-104.5 184,-104.5"/>
<text text-anchor="middle" x="225.5" y="-111.5" font-family="Helvetica,sans-Serif" font-size="10.00">highlightAnchor</text>
</a>
</g>
</g>
<!-- Node1&#45;&gt;Node3 -->
<g id="edge12" class="edge"><title>Node1&#45;&gt;Node3</title>
<path fill="none" stroke="midnightblue" d="M71.8134,-88.3726C80.3973,-90.7837 89.4591,-93.1376 98,-95 126.425,-101.198 158.883,-106.028 183.804,-109.267"/>
<polygon fill="midnightblue" stroke="midnightblue" points="72.5945,-84.9551 62.0159,-85.5417 70.6514,-91.6801 72.5945,-84.9551"/>
</g>
<!-- Node8 -->
<g id="node8" class="node"><title>Node8</title>
<g id="a_node8"><a xlink:href="$navtree_8js.html#aa7b3067e7ef0044572ba86240b1e58ce" xlink:title="initNavTree">
<polygon fill="white" stroke="black" points="711,-47.5 711,-66.5 778,-66.5 778,-47.5 711,-47.5"/>
<text text-anchor="middle" x="744.5" y="-54.5" font-family="Helvetica,sans-Serif" font-size="10.00">initNavTree</text>
</a>
</g>
</g>
<!-- Node1&#45;&gt;Node8 -->
<g id="edge13" class="edge"><title>Node1&#45;&gt;Node8</title>
<path fill="none" stroke="midnightblue" d="M54.1764,-60.867C88.881,-38.6986 158.864,-0 224.5,-0 224.5,-0 224.5,-0 566.5,-0 627.515,-7.10543e-15 694.913,-31.0684 726.012,-47.3307"/>
<polygon fill="midnightblue" stroke="midnightblue" points="52.2035,-57.9751 45.746,-66.3745 56.0321,-63.8353 52.2035,-57.9751"/>
</g>
<!-- Node2&#45;&gt;Node3 -->
<g id="edge2" class="edge"><title>Node2&#45;&gt;Node3</title>
<path fill="none" stroke="midnightblue" d="M157.581,-88.6971C171.176,-93.8375 186.606,-99.6721 199.222,-104.442"/>
<polygon fill="midnightblue" stroke="midnightblue" points="158.664,-85.3649 148.072,-85.1019 156.188,-91.9125 158.664,-85.3649"/>
</g>
<!-- Node2&#45;&gt;Node8 -->
<g id="edge11" class="edge"><title>Node2&#45;&gt;Node8</title>
<path fill="none" stroke="midnightblue" d="M158.444,-76C202.923,-76 282.735,-76 351,-76 351,-76 351,-76 566.5,-76 617.185,-76 675.571,-68.2024 710.99,-62.5979"/>
<polygon fill="midnightblue" stroke="midnightblue" points="158.189,-72.5001 148.189,-76 158.189,-79.5001 158.189,-72.5001"/>
</g>
<!-- Node9 -->
<g id="node9" class="node"><title>Node9</title>
<g id="a_node9"><a xlink:href="$navtree_8js.html#a646cb31d83b39aafec92e0e1d123563a" xlink:title="toggleSyncButton">
<polygon fill="white" stroke="black" points="305,-28.5 305,-47.5 399,-47.5 399,-28.5 305,-28.5"/>
<text text-anchor="middle" x="352" y="-35.5" font-family="Helvetica,sans-Serif" font-size="10.00">toggleSyncButton</text>
</a>
</g>
</g>
<!-- Node2&#45;&gt;Node9 -->
<g id="edge9" class="edge"><title>Node2&#45;&gt;Node9</title>
<path fill="none" stroke="midnightblue" d="M158.053,-67.5153C166.502,-65.5594 175.555,-63.589 184,-62 224.588,-54.363 271.127,-47.858 304.749,-43.5548"/>
<polygon fill="midnightblue" stroke="midnightblue" points="157.053,-64.1553 148.13,-69.8674 158.668,-70.9666 157.053,-64.1553"/>
</g>
<!-- Node4 -->
<g id="node4" class="node"><title>Node4</title>
<g id="a_node4"><a xlink:href="$navtree_8js.html#a0dbf0d5f6126afd88420745f7d3c202d" xlink:title="selectAndHighlight">
<polygon fill="white" stroke="black" points="303,-104.5 303,-123.5 401,-123.5 401,-104.5 303,-104.5"/>
<text text-anchor="middle" x="352" y="-111.5" font-family="Helvetica,sans-Serif" font-size="10.00">selectAndHighlight</text>
</a>
</g>
</g>
<!-- Node3&#45;&gt;Node4 -->
<g id="edge3" class="edge"><title>Node3&#45;&gt;Node4</title>
<path fill="none" stroke="midnightblue" d="M277.335,-114C285.741,-114 294.436,-114 302.776,-114"/>
<polygon fill="midnightblue" stroke="midnightblue" points="277.266,-110.5 267.266,-114 277.266,-117.5 277.266,-110.5"/>
</g>
<!-- Node5 -->
<g id="node5" class="node"><title>Node5</title>
<g id="a_node5"><a xlink:href="$navtree_8js.html#a0238ad48be94f9f5fd305ea40b8f64ab" xlink:title="showNode">
<polygon fill="white" stroke="black" points="437,-104.5 437,-123.5 500,-123.5 500,-104.5 437,-104.5"/>
<text text-anchor="middle" x="468.5" y="-111.5" font-family="Helvetica,sans-Serif" font-size="10.00">showNode</text>
</a>
</g>
</g>
<!-- Node4&#45;&gt;Node5 -->
<g id="edge4" class="edge"><title>Node4&#45;&gt;Node5</title>
<path fill="none" stroke="midnightblue" d="M411.231,-114C420.121,-114 428.98,-114 436.949,-114"/>
<polygon fill="midnightblue" stroke="midnightblue" points="411.226,-110.5 401.226,-114 411.226,-117.5 411.226,-110.5"/>
</g>
<!-- Node6 -->
<g id="node6" class="node"><title>Node6</title>
<g id="a_node6"><a xlink:href="$navtree_8js.html#a0e6a2d65190a43246d668bba554243e5" xlink:title="gotoNode">
<polygon fill="white" stroke="black" points="536,-104.5 536,-123.5 595,-123.5 595,-104.5 536,-104.5"/>
<text text-anchor="middle" x="565.5" y="-111.5" font-family="Helvetica,sans-Serif" font-size="10.00">gotoNode</text>
</a>
</g>
</g>
<!-- Node5&#45;&gt;Node6 -->
<g id="edge5" class="edge"><title>Node5&#45;&gt;Node6</title>
<path fill="none" stroke="midnightblue" d="M510.357,-114C518.965,-114 527.871,-114 535.912,-114"/>
<polygon fill="midnightblue" stroke="midnightblue" points="510.082,-110.5 500.082,-114 510.081,-117.5 510.082,-110.5"/>
</g>
<!-- Node7 -->
<g id="node7" class="node"><title>Node7</title>
<g id="a_node7"><a xlink:href="$navtree_8js.html#a21beb601032fff375100a907f32129a5" xlink:title="navTo">
<polygon fill="white" stroke="black" points="631,-104.5 631,-123.5 675,-123.5 675,-104.5 631,-104.5"/>
<text text-anchor="middle" x="653" y="-111.5" font-family="Helvetica,sans-Serif" font-size="10.00">navTo</text>
</a>
</g>
</g>
<!-- Node6&#45;&gt;Node7 -->
<g id="edge6" class="edge"><title>Node6&#45;&gt;Node7</title>
<path fill="none" stroke="midnightblue" d="M605.53,-107.273C614.277,-107.165 623.234,-107.438 630.92,-108.089"/>
<polygon fill="midnightblue" stroke="midnightblue" points="605.338,-103.777 595.446,-107.573 605.546,-110.774 605.338,-103.777"/>
</g>
<!-- Node7&#45;&gt;Node6 -->
<g id="edge7" class="edge"><title>Node7&#45;&gt;Node6</title>
<path fill="none" stroke="midnightblue" d="M620.85,-120.524C612.551,-120.855 603.622,-120.822 595.446,-120.427"/>
<polygon fill="midnightblue" stroke="midnightblue" points="621.151,-124.012 630.92,-119.911 620.726,-117.025 621.151,-124.012"/>
</g>
<!-- Node7&#45;&gt;Node8 -->
<g id="edge8" class="edge"><title>Node7&#45;&gt;Node8</title>
<path fill="none" stroke="midnightblue" d="M678.035,-98.6931C694.115,-88.4518 714.775,-75.2942 728.542,-66.5265"/>
<polygon fill="midnightblue" stroke="midnightblue" points="675.737,-96.0067 669.182,-104.331 679.497,-101.911 675.737,-96.0067"/>
</g>
<!-- Node9&#45;&gt;Node8 -->
<g id="edge10" class="edge"><title>Node9&#45;&gt;Node8</title>
<path fill="none" stroke="midnightblue" d="M409.323,-40.7404C492.167,-44.7713 644.243,-52.1706 710.826,-55.4102"/>
<polygon fill="midnightblue" stroke="midnightblue" points="409.487,-37.2444 399.329,-40.2542 409.147,-44.2361 409.487,-37.2444"/>
</g>
</g>
</svg>
