<?xml version="1.0" encoding="UTF-8" standalone="no"?>
<!DOCTYPE svg PUBLIC "-//W3C//DTD SVG 1.1//EN"
 "http://www.w3.org/Graphics/SVG/1.1/DTD/svg11.dtd">
<!-- Generated by graphviz version 2.38.0 (20140413.2041)
 -->
<!-- Title: initResizable Pages: 1 -->
<svg width="293pt" height="142pt"
 viewBox="0.00 0.00 293.00 142.00" xmlns="http://www.w3.org/2000/svg" xmlns:xlink="http://www.w3.org/1999/xlink">
<g id="graph0" class="graph" transform="scale(1 1) rotate(0) translate(4 138)">
<title>initResizable</title>
<polygon fill="white" stroke="none" points="-4,4 -4,-138 289,-138 289,4 -4,4"/>
<!-- Node1 -->
<g id="node1" class="node"><title>Node1</title>
<polygon fill="#bfbfbf" stroke="black" points="0,-57.5 0,-76.5 73,-76.5 73,-57.5 0,-57.5"/>
<text text-anchor="middle" x="36.5" y="-64.5" font-family="Helvetica,sans-Serif" font-size="10.00">initResizable</text>
</g>
<!-- Node2 -->
<g id="node2" class="node"><title>Node2</title>
<g id="a_node2"><a xlink:href="$resize_8js.html#a578d54a5ebd9224fad0213048e7a49a7" xlink:title="readCookie">
<polygon fill="white" stroke="black" points="112,-114.5 112,-133.5 178,-133.5 178,-114.5 112,-114.5"/>
<text text-anchor="middle" x="145" y="-121.5" font-family="Helvetica,sans-Serif" font-size="10.00">readCookie</text>
</a>
</g>
</g>
<!-- Node1&#45;&gt;Node2 -->
<g id="edge1" class="edge"><title>Node1&#45;&gt;Node2</title>
<path fill="none" stroke="midnightblue" d="M55.5663,-76.6693C72.4983,-85.7315 98.0208,-99.3914 117.302,-109.711"/>
<polygon fill="midnightblue" stroke="midnightblue" points="115.732,-112.841 126.201,-114.474 119.035,-106.669 115.732,-112.841"/>
</g>
<!-- Node3 -->
<g id="node3" class="node"><title>Node3</title>
<g id="a_node3"><a xlink:href="$resize_8js.html#a4bd3414bc1780222b192bcf33b645804" xlink:title="resizeHeight">
<polygon fill="white" stroke="black" points="109.5,-76.5 109.5,-95.5 180.5,-95.5 180.5,-76.5 109.5,-76.5"/>
<text text-anchor="middle" x="145" y="-83.5" font-family="Helvetica,sans-Serif" font-size="10.00">resizeHeight</text>
</a>
</g>
</g>
<!-- Node1&#45;&gt;Node3 -->
<g id="edge2" class="edge"><title>Node1&#45;&gt;Node3</title>
<path fill="none" stroke="midnightblue" d="M73.2592,-73.3796C81.5984,-74.8673 90.5813,-76.4699 99.2552,-78.0174"/>
<polygon fill="midnightblue" stroke="midnightblue" points="98.7792,-81.4876 109.238,-79.7984 100.009,-74.5964 98.7792,-81.4876"/>
</g>
<!-- Node4 -->
<g id="node4" class="node"><title>Node4</title>
<g id="a_node4"><a xlink:href="$resize_8js.html#a99942f5b5c75445364f2437051090367" xlink:title="resizeWidth">
<polygon fill="white" stroke="black" points="111,-38.5 111,-57.5 179,-57.5 179,-38.5 111,-38.5"/>
<text text-anchor="middle" x="145" y="-45.5" font-family="Helvetica,sans-Serif" font-size="10.00">resizeWidth</text>
</a>
</g>
</g>
<!-- Node1&#45;&gt;Node4 -->
<g id="edge3" class="edge"><title>Node1&#45;&gt;Node4</title>
<path fill="none" stroke="midnightblue" d="M73.2592,-60.6204C82.0402,-59.0539 91.5351,-57.3599 100.631,-55.7371"/>
<polygon fill="midnightblue" stroke="midnightblue" points="101.443,-59.1477 110.672,-53.9458 100.213,-52.2566 101.443,-59.1477"/>
</g>
<!-- Node6 -->
<g id="node6" class="node"><title>Node6</title>
<g id="a_node6"><a xlink:href="$resize_8js.html#a517273f9259c941fd618dda7a901e6c2" xlink:title="restoreWidth">
<polygon fill="white" stroke="black" points="109,-0.5 109,-19.5 181,-19.5 181,-0.5 109,-0.5"/>
<text text-anchor="middle" x="145" y="-7.5" font-family="Helvetica,sans-Serif" font-size="10.00">restoreWidth</text>
</a>
</g>
</g>
<!-- Node1&#45;&gt;Node6 -->
<g id="edge5" class="edge"><title>Node1&#45;&gt;Node6</title>
<path fill="none" stroke="midnightblue" d="M55.5663,-57.3307C72.4983,-48.2685 98.0208,-34.6086 117.302,-24.2892"/>
<polygon fill="midnightblue" stroke="midnightblue" points="119.035,-27.3311 126.201,-19.5265 115.732,-21.1595 119.035,-27.3311"/>
</g>
<!-- Node5 -->
<g id="node5" class="node"><title>Node5</title>
<g id="a_node5"><a xlink:href="$resize_8js.html#ad0822459a7d442b8c5e4db795d0aabb4" xlink:title="writeCookie">
<polygon fill="white" stroke="black" points="217,-38.5 217,-57.5 285,-57.5 285,-38.5 217,-38.5"/>
<text text-anchor="middle" x="251" y="-45.5" font-family="Helvetica,sans-Serif" font-size="10.00">writeCookie</text>
</a>
</g>
</g>
<!-- Node4&#45;&gt;Node5 -->
<g id="edge4" class="edge"><title>Node4&#45;&gt;Node5</title>
<path fill="none" stroke="midnightblue" d="M179.192,-48C187.917,-48 197.458,-48 206.63,-48"/>
<polygon fill="midnightblue" stroke="midnightblue" points="206.766,-51.5001 216.766,-48 206.766,-44.5001 206.766,-51.5001"/>
</g>
</g>
</svg>
