<?xml version="1.0" encoding="UTF-8" standalone="no"?>
<!DOCTYPE svg PUBLIC "-//W3C//DTD SVG 1.1//EN"
 "http://www.w3.org/Graphics/SVG/1.1/DTD/svg11.dtd">
<!-- Generated by graphviz version 2.38.0 (20140413.2041)
 -->
<!-- Title: SearchResults Pages: 1 -->
<svg width="193pt" height="66pt"
 viewBox="0.00 0.00 193.00 66.00" xmlns="http://www.w3.org/2000/svg" xmlns:xlink="http://www.w3.org/1999/xlink">
<g id="graph0" class="graph" transform="scale(1 1) rotate(0) translate(4 62)">
<title>SearchResults</title>
<polygon fill="white" stroke="none" points="-4,4 -4,-62 189,-62 189,4 -4,4"/>
<!-- Node1 -->
<g id="node1" class="node"><title>Node1</title>
<polygon fill="#bfbfbf" stroke="black" points="0,-19.5 0,-38.5 81,-38.5 81,-19.5 0,-19.5"/>
<text text-anchor="middle" x="40.5" y="-26.5" font-family="Helvetica,sans-Serif" font-size="10.00">SearchResults</text>
</g>
<!-- Node2 -->
<g id="node2" class="node"><title>Node2</title>
<g id="a_node2"><a xlink:href="$search_8js.html#a196a29bd5a5ee7cd5b485e0753a49e57" xlink:title="convertToId">
<polygon fill="white" stroke="black" points="117,-38.5 117,-57.5 185,-57.5 185,-38.5 117,-38.5"/>
<text text-anchor="middle" x="151" y="-45.5" font-family="Helvetica,sans-Serif" font-size="10.00">convertToId</text>
</a>
</g>
</g>
<!-- Node1&#45;&gt;Node2 -->
<g id="edge1" class="edge"><title>Node1&#45;&gt;Node2</title>
<path fill="none" stroke="midnightblue" d="M81.2853,-35.967C89.6268,-37.4277 98.4606,-38.9747 106.916,-40.4553"/>
<polygon fill="midnightblue" stroke="midnightblue" points="106.53,-43.9409 116.984,-42.2184 107.737,-37.0458 106.53,-43.9409"/>
</g>
<!-- Node3 -->
<g id="node3" class="node"><title>Node3</title>
<g id="a_node3"><a xlink:href="$jquery_8js.html#a9db6d45a025ad692282fe23e69eeba43" xlink:title="if">
<polygon fill="white" stroke="black" points="136.5,-0.5 136.5,-19.5 165.5,-19.5 165.5,-0.5 136.5,-0.5"/>
<text text-anchor="middle" x="151" y="-7.5" font-family="Helvetica,sans-Serif" font-size="10.00">if</text>
</a>
</g>
</g>
<!-- Node1&#45;&gt;Node3 -->
<g id="edge2" class="edge"><title>Node1&#45;&gt;Node3</title>
<path fill="none" stroke="midnightblue" d="M81.2853,-22.033C96.4053,-19.3852 113.143,-16.4543 126.313,-14.148"/>
<polygon fill="midnightblue" stroke="midnightblue" points="127.177,-17.5501 136.423,-12.3775 125.969,-10.655 127.177,-17.5501"/>
</g>
</g>
</svg>
